<?xml version="1.0" encoding="UTF-8" standalone="no"?>
<svg
   xmlns:dc="http://purl.org/dc/elements/1.1/"
   xmlns:cc="http://creativecommons.org/ns#"
   xmlns:rdf="http://www.w3.org/1999/02/22-rdf-syntax-ns#"
   xmlns:svg="http://www.w3.org/2000/svg"
   xmlns="http://www.w3.org/2000/svg"
   viewBox="0 0 679.80536 679.75598"
   height="679.75598"
   width="679.80536"
   xml:space="preserve"
   id="svg2"
   version="1.1"><metadata
     id="metadata8"><rdf:RDF><cc:Work
         rdf:about=""><dc:format>image/svg+xml</dc:format><dc:type
           rdf:resource="http://purl.org/dc/dcmitype/StillImage" /></cc:Work></rdf:RDF></metadata><defs
     id="defs6"><clipPath
       id="clipPath18"
       clipPathUnits="userSpaceOnUse"><path
         id="path16"
         d="M 0,509.817 H 509.854 V 0 H 0 Z" /></clipPath></defs><g
     transform="matrix(1.3333333,0,0,-1.3333333,0,679.756)"
     id="g10"><g
       id="g12"><g
         clip-path="url(#clipPath18)"
         id="g14"><g
           transform="translate(254.9258,467.8716)"
           id="g20"><path
             id="path22"
             style="fill:#ffffff;fill-opacity:1;fill-rule:nonzero;stroke:none"
             d="m 0,0 c -117.431,0 -212.98,-95.561 -212.98,-212.973 0,-117.432 95.549,-212.99 212.98,-212.99 117.424,0 212.974,95.558 212.974,212.99 C 212.974,-95.561 117.424,0 0,0 m 0,-432.015 c -58.518,0 -113.524,22.801 -154.897,64.175 -41.352,41.35 -64.155,96.37 -64.155,154.867 0,58.499 22.803,113.537 64.155,154.889 41.373,41.372 96.379,64.135 154.897,64.135 58.499,0 113.508,-22.763 154.89,-64.135 41.362,-41.352 64.144,-96.39 64.144,-154.889 0,-58.497 -22.782,-113.517 -64.144,-154.867 C 113.508,-409.214 58.499,-432.015 0,-432.015" /></g><g
           transform="translate(254.9258,506.4746)"
           id="g24"><path
             id="path26"
             style="fill:#ffffff;fill-opacity:1;fill-rule:nonzero;stroke:none"
             d="m 0,0 c -138.721,0 -251.563,-112.865 -251.563,-251.576 0,-138.71 112.842,-251.555 251.563,-251.555 138.703,0 251.567,112.845 251.567,251.555 C 251.567,-112.865 138.703,0 0,0 m 0,-506.475 c -68.098,0 -132.114,26.483 -180.27,74.658 -48.157,48.135 -74.656,112.151 -74.656,180.241 0,68.11 26.499,132.126 74.656,180.262 48.156,48.136 112.172,74.656 180.27,74.656 68.08,0 132.105,-26.52 180.252,-74.656 48.156,-48.136 74.677,-112.152 74.677,-180.262 0,-68.09 -26.521,-132.106 -74.677,-180.241 C 132.105,-479.992 68.08,-506.475 0,-506.475" /></g><g
           transform="translate(239.5313,98.9814)"
           id="g28"><path
             id="path30"
             style="fill:#ffffff;fill-opacity:1;fill-rule:nonzero;stroke:none"
             d="m 0,0 c 0.455,-13.032 -9.344,-23.968 -21.913,-24.424 h -0.79 c -12.193,0 -22.319,10.048 -22.783,22.804 -0.435,13.032 9.355,23.968 21.912,24.424 h 0.792 C -10.57,22.804 -0.465,12.758 0,0 M -6.328,128.052 -28.418,30.989 C -43.36,28.182 -54.425,14.338 -53.852,-1.918 c 0.623,-17.443 14.478,-31.207 31.179,-31.207 0.345,0 0.721,0 1.067,0.041 C -4.421,-32.512 8.998,-17.562 8.365,0.278 7.821,15.724 -3.066,28.241 -17.106,30.95 l 29.694,74.182 -1.672,4.153 z" /></g><g
           transform="translate(239.5313,98.9814)"
           id="g32"><path
             id="path34"
             style="fill:#ffffff;fill-opacity:1;fill-rule:nonzero;stroke:none"
             d="m 0,0 c 0.455,-13.032 -9.344,-23.968 -21.913,-24.424 h -0.79 c -12.193,0 -22.319,10.048 -22.783,22.804 -0.435,13.032 9.355,23.968 21.912,24.424 h 0.792 C -10.57,22.804 -0.465,12.758 0,0 M 10.916,109.285 -6.328,128.052 -28.418,30.989 C -43.36,28.182 -54.425,14.338 -53.852,-1.918 c 0.623,-17.443 14.478,-31.207 31.179,-31.207 0.345,0 0.721,0 1.067,0.041 C -4.421,-32.512 8.998,-17.562 8.365,0.278 7.821,15.724 -3.066,28.241 -17.106,30.95 l 29.694,74.182 z" /></g><g
           transform="translate(277.463,318.1831)"
           id="g36"><path
             id="path38"
             style="fill:#ffffff;fill-opacity:1;fill-rule:nonzero;stroke:none"
             d="m 0,0 h -8.287 l 3.461,-60.436 h 0.652 v 36.726 l 5.833,-0.258 V -60.436 H 9.65 v 36.152 l 5.844,-0.258 v -35.894 h 7.98 v 35.577 l 5.853,-0.217 v -35.36 h 7.989 v 35.004 l 5.854,-0.217 v -34.787 h 7.98 v 34.45 l 5.835,-0.237 v -34.213 h 7.998 v 33.876 l 5.835,-0.235 v -33.641 h 7.99 v 33.303 l 5.854,-0.237 v -33.066 h 7.99 v 32.729 l 5.844,-0.256 v -32.473 h 7.98 v 32.158 l 5.853,-0.22 v -31.938 h 7.989 v 31.582 l 5.855,-0.217 v -31.365 h 7.979 v 31.049 l 5.834,-0.257 v -30.792 h 7.981 v 30.437 l 5.853,-0.218 v -30.219 h 11.332 v 42.974 z" /></g><g
           transform="translate(189.1417,257.747)"
           id="g40"><path
             id="path42"
             style="fill:#ffffff;fill-opacity:1;fill-rule:nonzero;stroke:none"
             d="m 0,0 v 34.549 l 2.887,0.099 V 0 h 3.955 v 34.807 l 2.897,0.098 V 0 h 3.946 v 35.023 l 2.906,0.139 V 0 h 3.955 v 35.28 l 2.888,0.1 V 0 h 3.956 v 35.538 l 2.897,0.099 V 0 h 3.945 v 35.794 l 2.907,0.1 V 0 h 3.956 v 36.053 l 2.887,0.099 V 0 h 0.95 l 3.46,60.436 H 39.018 L -126.41,42.914 V 0 h 9.966 v 30.337 l 2.887,0.1 V 0 h 3.955 v 30.574 l 2.897,0.119 V 0 h 3.956 v 30.832 l 2.898,0.098 V 0 h 3.955 v 31.088 l 2.907,0.079 V 0 h 3.946 v 31.326 l 2.887,0.099 V 0 h 3.945 v 31.583 l 2.906,0.098 V 0 h 3.957 v 31.841 l 2.886,0.097 V 0 h 3.966 v 32.078 l 2.888,0.118 V 0 h 3.944 v 32.315 l 2.907,0.098 V 0 h 3.955 v 32.572 l 2.9,0.098 V 0 h 3.954 v 32.829 l 2.887,0.099 V 0 h 3.965 v 33.066 l 2.887,0.119 V 0 h 3.956 v 33.303 l 2.897,0.1 V 0 h 3.955 v 33.561 l 2.879,0.099 V 0 h 3.954 v 33.817 l 2.907,0.1 V 0 h 3.955 v 34.036 l 2.897,0.137 V 0 h 3.955 v 34.293 l 2.877,0.097 0,-34.39 z" /></g><g
           transform="translate(312.6641,97.3613)"
           id="g44"><path
             id="path46"
             style="fill:#ffffff;fill-opacity:1;fill-rule:nonzero;stroke:none"
             d="m 0,0 c -0.464,-12.756 -10.591,-22.804 -22.802,-22.804 h -0.771 c -12.569,0.456 -22.367,11.392 -21.912,24.424 0.464,12.758 10.589,22.804 22.782,22.804 h 0.792 C -9.365,23.968 0.436,13.032 0,0 m -56.095,165.092 h -6.428 l -3.213,5.558 3.213,5.578 h 6.428 l 3.212,-5.578 z m 39.029,-132.483 -22.09,97.063 -0.357,1.662 -1.552,6.803 -5.073,22.249 -3.807,16.712 -9.355,157.221 -0.592,9.691 -0.575,9.69 -0.385,6.408 -4.43,-7.299 -7.614,-133.253 -3.382,-59.17 -0.474,-8.386 -0.395,-6.961 -0.407,-6.902 -0.384,-6.703 17.719,-19.284 0.919,-2.293 0.623,-1.544 0.603,-1.561 29.695,-74.182 C -42.42,29.861 -53.308,17.344 -53.852,1.898 c -0.631,-17.839 12.787,-32.79 29.972,-33.362 0.346,-0.041 0.713,-0.041 1.068,-0.041 16.701,0 30.555,13.745 31.177,31.207 0.574,16.256 -10.491,30.1 -25.431,32.907" /></g><g
           transform="translate(265.0137,274.7939)"
           id="g48"><path
             id="path50"
             style="fill:#ffffff;fill-opacity:1;fill-rule:nonzero;stroke:none"
             d="m 0,0 5.784,-25.433 -0.475,8.386 -2.294,40.166 -8.701,152.257 -4.43,7.299 -0.387,-6.408 7.922,-132.878 z" /></g><g
           transform="translate(91.9991,176.3457)"
           id="g52"><path
             id="path54"
             style="fill:#ffffff;fill-opacity:1;fill-rule:nonzero;stroke:none"
             d="M 0,0 H -18.49 V 57.234 H -29.456 V 73.451 H 10.878 V 57.234 L 0,57.234 Z" /></g><path
           id="path56"
           style="fill:#ffffff;fill-opacity:1;fill-rule:nonzero;stroke:none"
           d="m 131.424,192.604 h 8.129 v 41.174 h -8.129 z m -3.867,-16.258 -14.615,14.26 v 45.209 l 14.615,13.982 h 15.861 l 14.625,-13.982 v -45.209 l -14.625,-14.26 z" /><path
           id="path58"
           style="fill:#ffffff;fill-opacity:1;fill-rule:nonzero;stroke:none"
           d="m 188.627,215.879 h 5.794 v 17.701 h -5.794 z m 0,-39.533 h -18.491 v 73.451 h 29.882 l 12.894,-10.443 v -28.753 l -12.805,-10.563 h -11.48 z" /><g
           transform="translate(296.418,189.2607)"
           id="g60"><path
             id="path62"
             style="fill:#ffffff;fill-opacity:1;fill-rule:nonzero;stroke:none"
             d="M 0,0 V 47.661 L 12.805,60.536 H 27.124 L 40.038,47.661 V 33.838 H 25.809 V 47.661 H 14.22 V 0 H 25.809 V 12.302 H 20.112 V 24.8 H 40.038 V 0 L 27.124,-12.915 H 12.805 Z" /></g><g
           transform="translate(361.7403,176.3457)"
           id="g64"><path
             id="path66"
             style="fill:#ffffff;fill-opacity:1;fill-rule:nonzero;stroke:none"
             d="M 0,0 -12.895,12.915 V 73.451 H 1.323 V 12.915 h 11.175 v 60.536 h 14.23 V 12.915 L 13.813,0 Z" /></g><g
           transform="translate(429.2061,191.2187)"
           id="g68"><path
             id="path70"
             style="fill:#ffffff;fill-opacity:1;fill-rule:nonzero;stroke:none"
             d="m 0,0 -14.832,30.555 h -0.1 V -14.873 H -28.35 v 73.451 h 12.707 L 0,28.341 v 30.237 h 13.409 v -73.451 l -13.409,0 z" /></g></g></g><g
       transform="translate(104.6368,88.5215)"
       id="g72"><path
         id="path74"
         style="fill:#ffffff;fill-opacity:1;fill-rule:nonzero;stroke:none"
         d="m 0,0 3.402,-3.013 0.324,-5.716 -2.228,-2.514 -3.353,2.971 2.227,2.513 -2.731,2.42 -9.951,-11.235 2.731,-2.418 2.292,2.587 3.353,-2.971 -2.291,-2.587 -5.713,-0.369 -3.401,3.013 -0.324,5.715 9.95,11.235 z" /></g><g
       transform="translate(111.8643,53.1142)"
       id="g76"><path
         id="path78"
         style="fill:#ffffff;fill-opacity:1;fill-rule:nonzero;stroke:none"
         d="m 0,0 -3.63,2.626 11.183,15.451 -2.8,2.027 2.383,3.292 9.203,-6.661 -2.384,-3.292 -2.773,2.007 z" /></g><g
       transform="translate(135.044,52.1279)"
       id="g80"><path
         id="path82"
         style="fill:#ffffff;fill-opacity:1;fill-rule:nonzero;stroke:none"
         d="M 0,0 2.735,-1.598 6.398,4.675 3.662,6.272 Z M -5.954,-10.197 -9.823,-7.937 1.843,12.041 9.193,7.75 10.735,3.218 6.233,-4.493 1.514,-5.405 -1.969,-3.372 Z" /></g><g
       transform="translate(156.9825,53.081)"
       id="g84"><path
         id="path86"
         style="fill:#ffffff;fill-opacity:1;fill-rule:nonzero;stroke:none"
         d="m 0,0 3.499,-1.583 -6.411,-14.169 8.691,7.8 2.005,4.431 3.529,-1.596 -9.537,-21.08 -3.528,1.596 4.314,9.535 -8.6,-7.596 -3.498,1.583 z" /></g><g
       transform="translate(182.8585,18.2285)"
       id="g88"><path
         id="path90"
         style="fill:#ffffff;fill-opacity:1;fill-rule:nonzero;stroke:none"
         d="m 0,0 -4.184,1.312 3.108,9.893 -2.016,0.632 -1.745,-0.859 -2.704,-8.61 -4.274,1.343 3.01,9.586 4.768,2.259 -0.785,10.209 4.274,-1.342 0.449,-10.104 2.848,9.067 4.183,-1.313 -2.848,-9.067 6.145,8.032 4.274,-1.343 L 8.022,11.77 10.644,7.189 7.633,-2.396 3.357,-1.055 6.062,7.555 5.121,9.259 3.106,9.892 Z" /></g><g
       transform="translate(217.0294,35.7969)"
       id="g92"><path
         id="path94"
         style="fill:#ffffff;fill-opacity:1;fill-rule:nonzero;stroke:none"
         d="m 0,0 -3.08,0.59 0.651,3.394 3.08,-0.59 z m -5.343,1.025 -3.079,0.591 0.651,3.395 3.08,-0.592 z m 1.313,-25.764 -9.68,1.857 4.354,22.69 9.679,-1.858 -0.765,-3.991 -5.281,1.013 -0.958,-4.997 4.4,-0.843 -0.699,-3.647 -4.4,0.844 -1.164,-6.065 5.279,-1.013 z" /></g><g
       transform="translate(242.9395,7.7129)"
       id="g96"><path
         id="path98"
         style="fill:#ffffff;fill-opacity:1;fill-rule:nonzero;stroke:none"
         d="m 0,0 -4.306,0.353 1.142,14 -0.031,0.002 -4.702,-7.257 -3.463,7.924 -0.033,0.002 -1.141,-14.001 -4.306,0.351 1.881,23.06 3.987,-0.326 3.689,-9.483 5.177,8.76 3.987,-0.324 z" /></g><g
       transform="translate(272.1016,31.2793)"
       id="g100"><path
         id="path102"
         style="fill:#ffffff;fill-opacity:1;fill-rule:nonzero;stroke:none"
         d="m 0,0 3.82,0.395 1.6,-15.47 3.579,11.115 -0.5,4.838 3.852,0.398 2.38,-23.012 -3.852,-0.399 L 9.803,-11.727 6.2,-22.619 2.38,-23.014 Z" /></g><g
       transform="translate(322.0303,28.3379)"
       id="g104"><path
         id="path106"
         style="fill:#ffffff;fill-opacity:1;fill-rule:nonzero;stroke:none"
         d="m 0,0 -3.044,-0.877 1.945,-6.764 3.045,0.875 z M -10.678,9.448 0.301,12.607 1.425,8.702 -5.248,6.781 -4.133,2.907 -0.259,4.022 4.093,1.978 6.508,-6.419 3.9,-10.433 -4.279,-12.785 Z" /></g><g
       transform="translate(341.6065,35.834)"
       id="g108"><path
         id="path110"
         style="fill:#ffffff;fill-opacity:1;fill-rule:nonzero;stroke:none"
         d="M 0,0 2.938,1.185 0.221,7.922 -2.717,6.737 Z M 4.416,-10.951 0.261,-12.628 -8.392,8.83 -0.497,12.014 4.029,10.457 7.367,2.178 5.199,-2.113 1.459,-3.621 Z" /></g><g
       transform="translate(373.7647,37.875)"
       id="g112"><path
         id="path114"
         style="fill:#ffffff;fill-opacity:1;fill-rule:nonzero;stroke:none"
         d="m 0,0 -8.736,-4.563 -10.711,20.506 8.735,4.564 1.882,-3.603 -4.765,-2.488 2.414,-4.624 3.971,2.074 1.719,-3.29 -3.972,-2.075 2.816,-5.389 4.765,2.49 z" /></g><g
       transform="translate(393.2979,49.7998)"
       id="g116"><path
         id="path118"
         style="fill:#ffffff;fill-opacity:1;fill-rule:nonzero;stroke:none"
         d="m 0,0 -8.275,-5.352 -12.565,19.426 8.276,5.353 2.208,-3.412 -4.514,-2.92 2.831,-4.379 3.762,2.431 2.016,-3.116 -3.761,-2.432 3.3,-5.107 4.515,2.92 z" /></g><g
       transform="translate(417.2325,68.0703)"
       id="g120"><path
         id="path122"
         style="fill:#ffffff;fill-opacity:1;fill-rule:nonzero;stroke:none"
         d="m 0,0 -3.354,-2.722 -8.852,10.909 -0.024,-0.02 1.617,-8.496 -7.979,3.334 -0.025,-0.021 8.851,-10.908 -3.353,-2.722 -14.578,17.964 3.105,2.521 9.221,-4.304 -2.314,9.909 3.107,2.521 z" /></g><g
       transform="translate(114.0548,427.6294)"
       id="g124"><path
         id="path126"
         style="fill:#ffffff;fill-opacity:1;fill-rule:nonzero;stroke:none"
         d="m 0,0 -4.04,-3.574 -7.373,8.336 1.592,-6.993 -6.747,2.434 7.373,-8.337 -4.04,-3.573 -14.85,16.788 3.692,3.265 7.938,-3.077 -2.087,8.253 3.692,3.266 z" /></g><g
       transform="translate(118.6749,448.0859)"
       id="g128"><path
         id="path130"
         style="fill:#ffffff;fill-opacity:1;fill-rule:nonzero;stroke:none"
         d="m 0,0 1.473,1.032 -5.016,7.16 4.621,3.237 10.866,-15.514 -0.954,-4.907 -4.848,-3.397 -4.788,0.621 -2.49,3.555 4.621,3.237 1.512,-2.159 1.472,1.032 -2.223,3.174 -2.907,-2.037 -5.178,0.612 -5.798,8.278 4.621,3.236 z" /></g><g
       transform="translate(152.4024,452.6767)"
       id="g132"><path
         id="path134"
         style="fill:#ffffff;fill-opacity:1;fill-rule:nonzero;stroke:none"
         d="m 0,0 -4.893,-2.618 -4.475,8.363 -1.012,-0.541 -0.423,-1.246 4.052,-7.571 -4.974,-2.662 -4.769,8.91 1.556,3.927 -7.528,6.835 5.029,2.693 5.424,-5.537 0.055,0.03 -3.511,6.56 4.893,2.618 3.511,-6.56 0.054,0.029 -1.597,7.584 5.029,2.692 1.514,-10.055 4.128,-0.884 4.77,-8.91 L 1.858,0.995 -2.193,8.566 -3.465,8.905 -4.477,8.364 Z" /></g><g
       transform="translate(163.1817,482.2832)"
       id="g136"><path
         id="path138"
         style="fill:#ffffff;fill-opacity:1;fill-rule:nonzero;stroke:none"
         d="m 0,0 5.778,2.248 4.595,-1.64 1.753,-4.506 -5.259,-2.045 -1.111,2.86 -2.08,-0.81 4.527,-11.643 2.08,0.809 -1.145,2.947 5.258,2.045 1.775,-4.565 -2.27,-4.342 -5.779,-2.247 -4.548,1.69 -5.798,14.909 z" /></g><g
       transform="translate(195.3223,469.5332)"
       id="g140"><path
         id="path142"
         style="fill:#ffffff;fill-opacity:1;fill-rule:nonzero;stroke:none"
         d="m 0,0 -5.443,-1.484 -5.896,21.624 5.443,1.484 1.958,-7.178 0.059,0.016 0.137,7.749 5.503,1.5 L 0.99,13.573 4.818,11.789 7.477,2.039 2.034,0.555 -0.226,8.839 -1.389,9.454 -2.495,9.152 Z" /></g><g
       transform="translate(208.6446,495.7329)"
       id="g144"><path
         id="path146"
         style="fill:#ffffff;fill-opacity:1;fill-rule:nonzero;stroke:none"
         d="m 0,0 4.957,0.807 1.8,-11.045 2.231,6.74 -0.788,4.834 4.957,0.808 3.605,-22.122 -4.957,-0.807 -1.177,7.221 -2.219,-7.774 -4.804,-0.784 z" /></g><g
       transform="translate(246.2608,477.5009)"
       id="g148"><path
         id="path150"
         style="fill:#ffffff;fill-opacity:1;fill-rule:nonzero;stroke:none"
         d="m 0,0 -10.828,-0.684 -1.412,22.369 10.828,0.683 0.312,-4.95 -5.197,-0.328 0.223,-3.527 4.331,0.273 0.291,-4.61 -4.331,-0.272 0.273,-4.332 5.198,0.328 z" /></g><g
       transform="translate(277.9073,498.979)"
       id="g152"><path
         id="path154"
         style="fill:#ffffff;fill-opacity:1;fill-rule:nonzero;stroke:none"
         d="m 0,0 6.166,-0.652 3.333,-3.563 -0.509,-4.809 -5.61,0.593 0.322,3.052 -2.22,0.234 -1.313,-12.423 2.22,-0.235 0.333,3.145 5.61,-0.593 -0.515,-4.872 -4.007,-2.818 -6.166,0.652 -3.268,3.587 1.682,15.908 z" /></g><g
       transform="translate(303.3077,472.3593)"
       id="g156"><path
         id="path158"
         style="fill:#ffffff;fill-opacity:1;fill-rule:nonzero;stroke:none"
         d="m 0,0 -5.522,1.15 3.556,17.087 -3.277,0.682 1.012,4.856 L 7.817,21.266 6.805,16.41 3.558,17.086 Z" /></g><g
       transform="translate(324.71,479.1206)"
       id="g160"><path
         id="path162"
         style="fill:#ffffff;fill-opacity:1;fill-rule:nonzero;stroke:none"
         d="M 0,0 1.686,-0.531 3.306,4.614 1.62,5.145 Z M -3.62,-11.503 -9.002,-9.809 -2.272,11.57 6.421,8.833 9.218,4.605 6.583,-3.763 1.89,-5.665 -1.451,-4.613 Z" /></g><g
       transform="translate(346.3555,482.4917)"
       id="g164"><path
         id="path166"
         style="fill:#ffffff;fill-opacity:1;fill-rule:nonzero;stroke:none"
         d="m 0,0 4.607,-2 -4.458,-10.265 5.522,4.463 1.95,4.493 4.607,-2 -8.927,-20.559 -4.607,2 2.914,6.711 -6.069,-5.34 -4.466,1.938 z" /></g><g
       transform="translate(369.7803,445.7675)"
       id="g168"><path
         id="path170"
         style="fill:#ffffff;fill-opacity:1;fill-rule:nonzero;stroke:none"
         d="m 0,0 -4.787,2.806 4.795,8.184 -0.989,0.58 -1.284,-0.289 -4.34,-7.409 -4.87,2.852 5.111,8.719 4.16,0.724 1.901,9.989 4.922,-2.884 -1.89,-7.516 0.053,-0.031 3.762,6.419 4.787,-2.806 -3.76,-6.419 0.053,-0.031 5.633,5.322 4.922,-2.884 L 10.395,8.785 11.796,4.801 6.687,-3.917 1.819,-1.065 6.161,6.343 5.785,7.605 4.797,8.185 Z" /></g><g
       transform="translate(388.7989,432.9072)"
       id="g172"><path
         id="path174"
         style="fill:#ffffff;fill-opacity:1;fill-rule:nonzero;stroke:none"
         d="m 0,0 -4.495,3.411 13.55,17.854 4.493,-3.411 -4.497,-5.927 0.05,-0.037 6.225,4.614 4.544,-3.447 -8.508,-5.57 0.92,-4.122 -6.109,-8.05 -4.494,3.411 5.191,6.84 -0.223,1.297 -0.914,0.694 z" /></g><g
       transform="translate(417.6905,438.3222)"
       id="g176"><path
         id="path178"
         style="fill:#ffffff;fill-opacity:1;fill-rule:nonzero;stroke:none"
         d="m 0,0 3.665,-3.433 -7.651,-8.167 6.701,2.346 3.347,3.574 3.666,-3.434 -15.325,-16.356 -3.664,3.434 5.002,5.339 -7.512,-2.986 -3.553,3.328 z" /></g></g></svg>