<?xml version="1.0" encoding="UTF-8" standalone="no"?>
<svg
   xmlns:dc="http://purl.org/dc/elements/1.1/"
   xmlns:cc="http://creativecommons.org/ns#"
   xmlns:rdf="http://www.w3.org/1999/02/22-rdf-syntax-ns#"
   xmlns:svg="http://www.w3.org/2000/svg"
   xmlns="http://www.w3.org/2000/svg"
   viewBox="0 0 663.33868 242.06133"
   height="242.06133"
   width="663.33868"
   xml:space="preserve"
   id="svg2"
   version="1.1"><metadata
     id="metadata8"><rdf:RDF><cc:Work
         rdf:about=""><dc:format>image/svg+xml</dc:format><dc:type
           rdf:resource="http://purl.org/dc/dcmitype/StillImage" /></cc:Work></rdf:RDF></metadata><defs
     id="defs6" /><g
     transform="matrix(1.3333333,0,0,-1.3333333,0,242.06133)"
     id="g10"><g
       transform="translate(19.6632,34.2783)"
       id="g12"><path
         id="path14"
         style="fill:#ffffff;fill-opacity:1;fill-rule:nonzero;stroke:none"
         d="M 0,0 -6.591,-13.559 -13.181,0 h -5.926 v -34.278 h 6.401 v 20.814 h 0.047 l 6.068,-11.284 6.069,11.284 h 0.048 v -20.814 h 6.4 L 5.926,0 Z" /></g><g
       transform="translate(52.0443,34.2783)"
       id="g16"><path
         id="path18"
         style="fill:#ffffff;fill-opacity:1;fill-rule:nonzero;stroke:none"
         d="M 0,0 V -14.176 H -4.74 V 0 h -6.639 v -14.887 l 5.336,-5.073 H 0 v -8.296 h -4.74 v 4.266 h -6.639 v -4.266 l 6.022,-6.022 h 5.974 l 6.021,6.022 0,28.256 z" /></g><g
       transform="translate(96.5178,34.2783)"
       id="g20"><path
         id="path22"
         style="fill:#ffffff;fill-opacity:1;fill-rule:nonzero;stroke:none"
         d="M 0,0 -5.121,-14.081 V 0 h -6.495 V -14.081 L -16.736,0 h -6.638 l 5.642,-14.081 -5.737,-5.31 v -14.887 h 6.638 v 13.37 l 2.086,1.991 h 3.129 v -15.361 h 6.495 v 15.361 h 3.129 l 2.086,-1.991 v -13.37 h 6.638 v 14.887 L 0.995,-14.081 6.637,0 Z" /></g><g
       transform="translate(123.732,34.2783)"
       id="g24"><path
         id="path26"
         style="fill:#ffffff;fill-opacity:1;fill-rule:nonzero;stroke:none"
         d="M 0,0 -5.974,-6.02 V -28.256 L 0,-34.278 h 6.732 l 5.974,6.022 v 5.12 H 6.069 v -5.12 H 0.663 V -6.02 h 5.406 v -4.979 h 6.637 V -6.02 L 6.732,0 Z" /></g><g
       transform="translate(163.1781,34.2783)"
       id="g28"><path
         id="path30"
         style="fill:#ffffff;fill-opacity:1;fill-rule:nonzero;stroke:none"
         d="M 0,0 -5.12,-14.081 V 0 h -6.638 v -34.278 h 6.638 v 15.361 h 3.129 l 2.085,-1.991 v -13.37 h 6.639 v 14.887 L 0.901,-14.081 6.637,0 Z" /></g><g
       transform="translate(197.2674,34.2783)"
       id="g32"><path
         id="path34"
         style="fill:#ffffff;fill-opacity:1;fill-rule:nonzero;stroke:none"
         d="M 0,0 V -7.206 L -6.97,-23.041 V 0 h -5.689 V -34.278 H -6.97 L 0,-18.774 V -34.278 H 5.737 L 5.737,0 Z" /></g><g
       transform="translate(218.2698,34.2783)"
       id="g36"><path
         id="path38"
         style="fill:#ffffff;fill-opacity:1;fill-rule:nonzero;stroke:none"
         d="m 0,0 v -34.278 h 14.603 v 6.022 H 6.638 v 9.007 h 6.638 v 5.5 H 6.638 v 7.729 h 7.965 V 0 Z" /></g><g
       transform="translate(276.5862,34.2783)"
       id="g40"><path
         id="path42"
         style="fill:#ffffff;fill-opacity:1;fill-rule:nonzero;stroke:none"
         d="M 0,0 -5.973,-6.02 V -28.256 L 0,-34.278 h 6.733 l 5.973,6.022 v 5.12 H 6.069 v -5.12 H 0.663 V -6.02 h 5.406 v -4.979 h 6.637 V -6.02 L 6.733,0 Z" /></g><g
       transform="translate(303.2784,34.2783)"
       id="g44"><path
         id="path46"
         style="fill:#ffffff;fill-opacity:1;fill-rule:nonzero;stroke:none"
         d="m 0,0 v -6.02 h 5.122 v -28.258 h 6.637 V -6.02 h 5.073 V 0 Z" /></g><g
       transform="translate(334.4283,34.2783)"
       id="g48"><path
         id="path50"
         style="fill:#ffffff;fill-opacity:1;fill-rule:nonzero;stroke:none"
         d="m 0,0 v -34.278 h 6.638 v 11.71 h 5.974 l 5.357,4.694 V -4.646 L 12.612,0 Z m 6.638,-6.02 h 4.694 V -16.783 H 6.638 Z" /></g><g
       transform="translate(380.0853,34.2783)"
       id="g52"><path
         id="path54"
         style="fill:#ffffff;fill-opacity:1;fill-rule:nonzero;stroke:none"
         d="M 0,0 V -7.206 L -6.969,-23.041 V 0 h -5.69 v -34.278 h 5.69 L 0,-18.774 V -34.278 H 5.737 V 0 Z" /></g><g
       transform="translate(423.9891,34.2783)"
       id="g56"><path
         id="path58"
         style="fill:#ffffff;fill-opacity:1;fill-rule:nonzero;stroke:none"
         d="M 0,0 -5.121,-14.081 V 0 h -6.495 V -14.081 L -16.736,0 h -6.638 l 5.641,-14.081 -5.736,-5.31 v -14.887 h 6.637 v 13.37 l 2.086,1.991 h 3.13 v -15.361 h 6.495 v 15.361 h 3.129 l 2.086,-1.991 v -13.37 h 6.638 v 14.887 L 0.994,-14.081 6.637,0 Z" /></g><g
       transform="translate(457.1775,34.2783)"
       id="g60"><path
         id="path62"
         style="fill:#ffffff;fill-opacity:1;fill-rule:nonzero;stroke:none"
         d="M 0,0 -5.121,-14.081 V 0 h -6.638 v -34.278 h 6.638 v 15.361 h 3.128 l 2.087,-1.991 v -13.37 h 6.638 v 14.887 L 0.9,-14.081 6.637,0 Z" /></g><g
       transform="translate(491.2659,34.2783)"
       id="g64"><path
         id="path66"
         style="fill:#ffffff;fill-opacity:1;fill-rule:nonzero;stroke:none"
         d="M 0,0 V -7.206 L -6.97,-23.041 V 0 h -5.689 V -34.278 H -6.97 L 0,-18.774 V -34.278 H 5.737 L 5.737,0 Z" /></g><g
       transform="translate(0,181.5192)"
       id="g68"><path
         id="path70"
         style="fill:#ffffff;fill-opacity:1;fill-rule:nonzero;stroke:none"
         d="m 0,0 0.003,-25.852 17.45,0.005 0.007,-91.015 29.411,0.007 -0.003,91.011 17.296,-0.007 V 0 Z" /></g><g
       transform="translate(103.4514,181.521)"
       id="g72"><path
         id="path74"
         style="fill:#ffffff;fill-opacity:1;fill-rule:nonzero;stroke:none"
         d="m 0,0 -23.27,-22.326 0.004,-71.895 23.266,-22.64 25.227,0.005 23.273,22.632 -0.005,71.9 -23.276,22.328 z m 6.15,-25.521 12.919,-0.007 0.005,-65.484 -12.922,-0.001 z" /></g><g
       transform="translate(171.1791,181.5246)"
       id="g76"><path
         id="path78"
         style="fill:#ffffff;fill-opacity:1;fill-rule:nonzero;stroke:none"
         d="m 0,0 0.01,-116.86 h 29.425 l -10e-4,37.668 18.257,-0.003 20.365,16.82 v 45.737 L 47.526,0.006 Z m 29.432,-25.85 9.219,0.002 0.003,-28.136 -9.22,-0.003 z" /></g><g
       transform="translate(285.2379,181.5282)"
       id="g80"><path
         id="path82"
         style="fill:#ffffff;fill-opacity:1;fill-rule:nonzero;stroke:none"
         d="m 0,0 -20.363,-20.507 0.006,-75.819 20.368,-20.535 22.802,0.009 20.528,20.529 -0.004,39.445 -31.695,-10e-4 v -19.895 h 9.067 l 0.005,-19.552 -18.445,-0.001 -0.003,75.821 18.44,0.008 0.003,-22.01 H 43.337 L 43.333,-20.5 22.804,0.009 Z" /></g><g
       transform="translate(388.7037,181.5417)"
       id="g84"><path
         id="path86"
         style="fill:#ffffff;fill-opacity:1;fill-rule:nonzero;stroke:none"
         d="m 0,0 0.01,-96.332 -17.788,0.002 -0.003,96.327 -22.642,-0.006 0.006,-96.325 20.54,-20.527 H 2.109 L 22.643,-96.331 22.64,0 Z" /></g><g
       transform="translate(451.2555,181.5462)"
       id="g88"><path
         id="path90"
         style="fill:#ffffff;fill-opacity:1;fill-rule:nonzero;stroke:none"
         d="m 0,0 -20.201,-0.007 0.006,-116.859 H 1.139 L 1.131,-44.605 H 1.31 l 23.591,-48.653 0.003,-23.608 21.345,0.008 -0.011,116.856 -21.345,-0.003 0.005,-48.153 z" /></g></g></svg>