<?xml version="1.0" encoding="UTF-8" standalone="no"?>
<svg
   xmlns:dc="http://purl.org/dc/elements/1.1/"
   xmlns:cc="http://creativecommons.org/ns#"
   xmlns:rdf="http://www.w3.org/1999/02/22-rdf-syntax-ns#"
   xmlns:svg="http://www.w3.org/2000/svg"
   xmlns="http://www.w3.org/2000/svg"
   viewBox="0 0 938.62402 582.71869"
   height="582.71869"
   width="938.62402"
   xml:space="preserve"
   id="svg2"
   version="1.1"><metadata
     id="metadata8"><rdf:RDF><cc:Work
         rdf:about=""><dc:format>image/svg+xml</dc:format><dc:type
           rdf:resource="http://purl.org/dc/dcmitype/StillImage" /></cc:Work></rdf:RDF></metadata><defs
     id="defs6"><clipPath
       id="clipPath96"
       clipPathUnits="userSpaceOnUse"><path
         id="path94"
         d="M 0,437.039 H 703.968 V 0 H 0 Z" /></clipPath></defs><g
     transform="matrix(1.3333333,0,0,-1.3333333,0,582.71867)"
     id="g10"><g
       transform="translate(18.3213,253.2339)"
       id="g12"><path
         id="path14"
         style="fill:#ffffff;fill-opacity:1;fill-rule:nonzero;stroke:none"
         d="M 0,0 -6.048,-12.443 -12.096,0 h -5.439 v -31.458 h 5.875 v 19.102 h 0.043 l 5.569,-10.356 5.569,10.356 h 0.043 V -31.458 H 5.439 L 5.439,0 Z" /></g><g
       transform="translate(43.6876,240.2249)"
       id="g16"><path
         id="path18"
         style="fill:#ffffff;fill-opacity:1;fill-rule:nonzero;stroke:none"
         d="m 0,0 h 4.351 v 13.009 h 6.091 v -25.931 l -5.525,-5.526 h -5.483 l -5.526,5.526 v 3.915 H 0 v -3.915 h 4.351 v 7.614 h -5.546 l -4.897,4.655 V 13.009 H 0 Z" /></g><g
       transform="translate(84.1529,221.7764)"
       id="g20"><path
         id="path22"
         style="fill:#ffffff;fill-opacity:1;fill-rule:nonzero;stroke:none"
         d="M 0,0 H -5.961 V 14.097 H -8.833 L -10.747,12.27 V 0 h -6.091 v 13.663 l 5.264,4.872 -5.177,12.923 h 6.091 L -5.961,18.535 V 31.458 H 0 V 18.535 l 4.699,12.923 h 6.092 L 5.613,18.535 10.877,13.663 V 0 H 4.786 V 12.27 L 2.872,14.097 H 0 Z" /></g><g
       transform="translate(113.8267,253.2339)"
       id="g24"><path
         id="path26"
         style="fill:#ffffff;fill-opacity:1;fill-rule:nonzero;stroke:none"
         d="m 0,0 h 6.179 l 5.482,-5.525 v -4.569 H 5.57 v 4.569 H 0.609 V -25.931 H 5.57 v 4.698 h 6.091 v -4.698 L 6.179,-31.458 H 0 l -5.482,5.527 v 20.406 z" /></g><g
       transform="translate(145.3282,221.7764)"
       id="g28"><path
         id="path30"
         style="fill:#ffffff;fill-opacity:1;fill-rule:nonzero;stroke:none"
         d="M 0,0 H -6.092 V 31.458 H 0 V 18.535 l 4.699,12.923 h 6.092 L 5.526,18.535 10.877,13.663 V 0 H 4.786 V 12.27 L 2.872,14.097 H 0 Z" /></g><g
       transform="translate(169.6939,253.2339)"
       id="g32"><path
         id="path34"
         style="fill:#ffffff;fill-opacity:1;fill-rule:nonzero;stroke:none"
         d="m 0,0 h 5.221 v -21.145 l 6.396,14.532 V 0 h 5.265 v -31.458 h -5.265 v 14.229 L 5.221,-31.458 H 0 Z" /></g><g
       transform="translate(213.9874,221.7764)"
       id="g36"><path
         id="path38"
         style="fill:#ffffff;fill-opacity:1;fill-rule:nonzero;stroke:none"
         d="M 0,0 H -13.402 V 31.458 H 0 V 25.933 H -7.31 V 18.84 h 6.092 V 13.792 H -7.31 V 5.526 H 0 Z" /></g><g
       transform="translate(498.2208,253.2339)"
       id="g40"><path
         id="path42"
         style="fill:#ffffff;fill-opacity:1;fill-rule:nonzero;stroke:none"
         d="m 0,0 h 6.178 l 5.482,-5.525 v -4.569 H 5.569 v 4.569 H 0.608 v -20.406 h 4.961 v 4.698 h 6.091 v -4.698 L 6.178,-31.458 H 0 l -5.482,5.527 v 20.406 z" /></g><g
       transform="translate(534.6216,221.7764)"
       id="g44"><path
         id="path46"
         style="fill:#ffffff;fill-opacity:1;fill-rule:nonzero;stroke:none"
         d="m 0,0 h -6.091 v 25.933 h -4.7 v 5.525 H 4.656 V 25.933 H 0 Z" /></g><path
       id="path48"
       style="fill:#ffffff;fill-opacity:1;fill-rule:nonzero;stroke:none"
       d="m 559.319,237.832 h 4.307 v 9.877 h -4.307 z m 0,-16.056 h -6.091 v 31.458 h 11.573 l 4.916,-4.263 v -12.14 l -4.916,-4.307 h -5.482 z" /><g
       transform="translate(583.6675,253.2339)"
       id="g50"><path
         id="path52"
         style="fill:#ffffff;fill-opacity:1;fill-rule:nonzero;stroke:none"
         d="m 0,0 h 5.222 v -21.145 l 6.396,14.532 V 0 h 5.265 v -31.458 h -5.265 v 14.229 L 5.222,-31.458 H 0 Z" /></g><g
       transform="translate(631.3384,221.7764)"
       id="g54"><path
         id="path56"
         style="fill:#ffffff;fill-opacity:1;fill-rule:nonzero;stroke:none"
         d="M 0,0 H -5.961 V 14.097 H -8.832 L -10.747,12.27 V 0 h -6.091 v 13.663 l 5.264,4.872 -5.177,12.923 h 6.091 L -5.961,18.535 V 31.458 H 0 V 18.535 l 4.7,12.923 h 6.091 L 5.613,18.535 10.878,13.663 V 0 H 4.787 V 12.27 L 2.872,14.097 H 0 Z" /></g><g
       transform="translate(662.2579,221.7764)"
       id="g58"><path
         id="path60"
         style="fill:#ffffff;fill-opacity:1;fill-rule:nonzero;stroke:none"
         d="M 0,0 H -6.091 V 31.458 H 0 V 18.535 l 4.7,12.923 h 6.091 L 5.526,18.535 10.878,13.663 V 0 H 4.786 V 12.27 L 2.872,14.097 H 0 Z" /></g><g
       transform="translate(698.7033,253.2339)"
       id="g62"><path
         id="path64"
         style="fill:#ffffff;fill-opacity:1;fill-rule:nonzero;stroke:none"
         d="M 0,0 V -6.613 L -6.396,-21.145 V 0 h -5.221 v -31.458 h 5.221 L 0,-17.23 V -31.458 H 5.264 L 5.264,0 Z" /></g><g
       transform="translate(0,437.0013)"
       id="g66"><path
         id="path68"
         style="fill:#ffffff;fill-opacity:1;fill-rule:nonzero;stroke:none"
         d="m 0,0 0.004,-36.574 24.687,0.007 0.01,-128.763 41.61,0.009 -0.004,128.758 24.469,-0.009 0,36.572 z" /></g><g
       transform="translate(146.3571,437.004)"
       id="g70"><path
         id="path72"
         style="fill:#ffffff;fill-opacity:1;fill-rule:nonzero;stroke:none"
         d="M 0,0 -32.92,-31.586 -32.915,-133.299 0,-165.33 l 35.691,0.008 32.925,32.019 -0.007,101.72 -32.93,31.587 z m 8.701,-36.106 18.278,-0.008 0.007,-92.645 -18.282,-0.002 z" /></g><g
       transform="translate(242.1747,437.0085)"
       id="g74"><path
         id="path76"
         style="fill:#ffffff;fill-opacity:1;fill-rule:nonzero;stroke:none"
         d="m 0,0 0.014,-165.328 41.631,0.002 -0.003,53.29 25.829,-0.004 28.812,23.795 v 64.707 L 67.238,0.009 Z m 41.639,-36.571 13.044,0.003 0.005,-39.805 -13.046,-0.005 z" /></g><g
       transform="translate(403.5402,437.0148)"
       id="g78"><path
         id="path80"
         style="fill:#ffffff;fill-opacity:1;fill-rule:nonzero;stroke:none"
         d="m 0,0 -28.809,-29.014 0.008,-107.264 28.816,-29.05 32.26,0.011 29.043,29.044 -0.007,55.805 -44.84,-0.002 v -28.147 h 12.828 l 0.006,-27.661 -26.096,-0.001 -0.002,107.268 26.087,0.01 0.005,-31.137 H 61.311 L 61.305,-29.003 32.263,0.012 Z" /></g><g
       transform="translate(549.9189,437.0337)"
       id="g82"><path
         id="path84"
         style="fill:#ffffff;fill-opacity:1;fill-rule:nonzero;stroke:none"
         d="m 0,0 0.013,-136.287 -25.164,0.004 -0.006,136.279 -32.032,-0.009 0.008,-136.277 29.06,-29.04 H 2.983 L 32.035,-136.284 32.03,0 Z" /></g><g
       transform="translate(638.4132,437.0391)"
       id="g86"><path
         id="path88"
         style="fill:#ffffff;fill-opacity:1;fill-rule:nonzero;stroke:none"
         d="m 0,0 -28.578,-0.01 0.008,-165.325 H 1.613 L 1.601,-63.104 h 0.252 l 33.377,-68.832 0.004,-33.399 30.197,0.011 -0.015,165.322 -30.197,-0.003 0.005,-68.127 z" /></g><g
       id="g90"><g
         clip-path="url(#clipPath96)"
         id="g92"><g
           transform="translate(502.0172,150.0332)"
           id="g98"><path
             id="path100"
             style="fill:#000000;fill-opacity:1;fill-rule:nonzero;stroke:none"
             d="m 0,0 c 0,-82.861 -67.172,-150.033 -150.033,-150.033 -82.861,0 -150.033,67.172 -150.033,150.033 0,82.861 67.172,150.033 150.033,150.033 C -67.172,150.033 0,82.861 0,0" /></g><g
           transform="translate(351.9835,27.897)"
           id="g102"><path
             id="path104"
             style="fill:#ffffff;fill-opacity:1;fill-rule:nonzero;stroke:none"
             d="m 0,0 c -67.045,0 -121.598,54.558 -121.598,121.603 0,67.035 54.553,121.593 121.598,121.593 67.041,0 121.593,-54.558 121.593,-121.593 C 121.593,54.558 67.041,0 0,0 M 88.431,210.034 C 64.805,233.655 33.399,246.651 0,246.651 c -33.41,0 -64.815,-12.996 -88.436,-36.617 -23.609,-23.609 -36.628,-55.032 -36.628,-88.431 0,-33.398 13.019,-64.81 36.628,-88.419 17.345,-17.346 38.891,-28.964 62.342,-33.919 l -0.351,-1.831 1.758,-0.338 0.347,1.805 c 0.429,-0.084 0.861,-0.16 1.293,-0.24 l -0.348,-1.813 1.758,-0.337 0.352,1.831 C -14.322,-2.846 -7.208,-3.455 0,-3.455 c 33.399,0 64.805,13.018 88.431,36.639 23.615,23.609 36.622,55.021 36.622,88.419 0,33.399 -13.007,64.822 -36.622,88.431" /></g><g
           transform="translate(351.9835,5.8794)"
           id="g106"><path
             id="path108"
             style="fill:#ffffff;fill-opacity:1;fill-rule:nonzero;stroke:none"
             d="m 0,0 c -79.2,0 -143.626,64.427 -143.626,143.621 0,79.194 64.426,143.633 143.626,143.633 79.19,0 143.627,-64.439 143.627,-143.633 C 143.627,64.427 79.19,0 0,0 M 102.911,246.538 C 75.423,274.021 38.869,289.162 0,289.162 c -38.879,0 -75.429,-15.141 -102.922,-42.624 -27.494,-27.482 -42.624,-64.031 -42.624,-102.917 0,-38.875 15.13,-75.424 42.624,-102.906 C -75.429,13.21 -38.879,-1.909 0,-1.909 c 38.869,0 75.423,15.119 102.911,42.624 27.494,27.482 42.636,64.031 42.636,102.906 0,38.886 -15.142,75.435 -42.636,102.917" /></g><g
           transform="translate(343.1939,60.482)"
           id="g110"><path
             id="path112"
             style="fill:#ffffff;fill-opacity:1;fill-rule:nonzero;stroke:none"
             d="m 0,0 c 0.26,-7.441 -5.334,-13.684 -12.511,-13.944 h -0.451 c -6.961,0 -12.743,5.736 -13.008,13.019 -0.248,7.441 5.342,13.684 12.511,13.944 h 0.452 C -6.035,13.019 -0.265,7.284 0,0 M 6.232,62.394 -3.613,73.109 -16.225,17.693 c -8.531,-1.603 -14.848,-9.507 -14.52,-18.788 0.355,-9.959 8.265,-17.817 17.8,-17.817 0.197,0 0.412,0 0.61,0.023 9.811,0.327 17.472,8.862 17.111,19.048 C 4.465,8.977 -1.75,16.124 -9.766,17.67 L 7.187,60.023 Z" /></g><g
           transform="translate(364.8502,185.6314)"
           id="g114"><path
             id="path116"
             style="fill:#ffffff;fill-opacity:1;fill-rule:nonzero;stroke:none"
             d="m 0,0 h -4.731 l 1.976,-34.505 h 0.372 v 20.968 l 3.33,-0.147 V -34.505 H 5.51 v 20.64 l 3.336,-0.147 v -20.493 h 4.556 v 20.312 l 3.342,-0.124 v -20.188 h 4.561 v 19.985 l 3.342,-0.124 v -19.861 h 4.557 v 19.669 l 3.331,-0.136 v -19.533 h 4.567 v 19.341 l 3.331,-0.135 v -19.206 h 4.561 v 19.014 l 3.342,-0.135 v -18.879 h 4.562 v 18.686 l 3.337,-0.146 v -18.54 h 4.556 v 18.36 l 3.341,-0.125 v -18.235 h 4.562 v 18.032 l 3.342,-0.125 v -17.907 h 4.556 v 17.727 l 3.331,-0.147 v -17.58 h 4.556 v 17.378 l 3.342,-0.125 v -17.253 h 6.47 V -9.97 Z" /></g><g
           transform="translate(304.3419,151.1263)"
           id="g118"><path
             id="path120"
             style="fill:#ffffff;fill-opacity:1;fill-rule:nonzero;stroke:none"
             d="m 0,0 h 2.258 v 19.432 l 1.654,0.079 V 0 H 6.17 v 19.579 l 1.643,0.056 V 0 h 2.27 v 19.725 l 1.648,0.057 V 0 h 2.258 v 19.872 l 1.655,0.057 V 0 h 2.252 v 19.996 l 1.66,0.079 V 0 h 2.257 V 20.143 L 23.462,20.2 V 0 h 2.259 v 20.29 l 1.654,0.056 V 0 h 2.252 v 20.436 l 1.66,0.057 V 0 h 2.258 v 20.584 l 1.649,0.057 V 0 h 0.542 l 1.975,34.505 H 32.359 L -62.089,24.501 V 0 h 5.69 v 17.321 l 1.649,0.057 V 0 h 2.258 v 17.456 l 1.654,0.068 V 0 h 2.258 v 17.603 l 1.655,0.056 V 0 h 2.258 v 17.749 l 1.659,0.045 V 0 h 2.254 v 17.885 l 1.648,0.057 V 0 h 2.252 v 18.032 l 1.66,0.056 V 0 h 2.259 v 18.179 l 1.647,0.056 V 0 h 2.265 v 18.314 l 1.648,0.068 V 0 h 2.252 v 18.45 l 1.66,0.056 V 0 h 2.258 v 18.597 l 1.655,0.056 V 0 h 2.258 v 18.743 l 1.648,0.057 V 0 h 2.265 v 18.879 l 1.648,0.068 V 0 h 2.258 v 19.014 l 1.654,0.057 V 0 h 2.258 v 19.161 l 1.644,0.057 V 0 H -1.66 V 19.308 L 0,19.364 Z" /></g><g
           transform="translate(384.9478,59.5569)"
           id="g122"><path
             id="path124"
             style="fill:#ffffff;fill-opacity:1;fill-rule:nonzero;stroke:none"
             d="m 0,0 c -0.265,-7.283 -6.047,-13.019 -13.018,-13.019 h -0.44 c -7.176,0.26 -12.771,6.503 -12.511,13.944 0.265,7.284 6.046,13.019 13.007,13.019 h 0.452 C -5.347,13.684 0.249,7.441 0,0 m -32.026,94.256 h -3.67 l -1.835,3.174 1.835,3.184 h 3.67 l 1.834,-3.184 z m 22.282,-75.638 -12.611,55.416 -0.204,0.949 -0.887,3.884 -2.895,12.702 -2.175,9.542 -5.34,89.763 -0.338,5.532 -0.328,5.533 -0.22,3.658 -2.529,-4.167 -4.348,-76.078 -1.93,-33.783 -0.271,-4.787 -0.226,-3.974 -0.232,-3.941 -0.219,-3.827 10.116,-11.01 0.525,-1.309 0.356,-0.881 0.344,-0.892 16.953,-42.353 c -8.016,-1.546 -14.232,-8.693 -14.543,-17.511 -0.36,-10.186 7.3,-18.721 17.112,-19.048 0.197,-0.023 0.407,-0.023 0.61,-0.023 9.535,0 17.445,7.847 17.8,17.817 0.328,9.281 -5.99,17.185 -14.52,18.788" /></g><g
           transform="translate(357.7427,160.8589)"
           id="g126"><path
             id="path128"
             style="fill:#ffffff;fill-opacity:1;fill-rule:nonzero;stroke:none"
             d="m 0,0 3.302,-14.52 -0.271,4.787 -1.31,22.932 -4.967,86.929 -2.53,4.167 -0.22,-3.658 4.522,-75.865 z" /></g><g
           transform="translate(242.1461,137.3287)"
           id="g130"><path
             id="path132"
             style="fill:#ffffff;fill-opacity:1;fill-rule:nonzero;stroke:none"
             d="M 0,0 H 6.26 V -32.677 H 16.817 V 0 h 6.21 V 9.259 H 0 Z" /></g><path
           id="path134"
           style="fill:#ffffff;fill-opacity:1;fill-rule:nonzero;stroke:none"
           d="m 286.113,113.934 h -4.641 v 23.507 h 4.641 z m -6.849,32.653 -8.344,-7.982 v -25.811 l 8.344,-8.142 h 9.056 l 8.35,8.142 v 25.811 l -8.35,7.982 z" /><path
           id="path136"
           style="fill:#ffffff;fill-opacity:1;fill-rule:nonzero;stroke:none"
           d="m 314.131,137.329 h 3.308 v -10.106 h -3.308 z m 0,-19.15 h 6.554 l 7.311,6.03 v 16.417 l -7.362,5.961 h -17.06 v -41.935 h 10.557 z" /><g
           transform="translate(382.983,146.5874)"
           id="g138"><path
             id="path140"
             style="fill:#ffffff;fill-opacity:1;fill-rule:nonzero;stroke:none"
             d="M 0,0 -7.311,-7.351 V -34.562 L 0,-41.936 h 8.175 l 7.373,7.374 v 14.159 H 4.172 v -7.136 h 3.252 v -7.023 H 0.808 v 27.211 h 6.616 v -7.892 h 8.124 v 7.892 L 8.175,0 Z" /></g><g
           transform="translate(420.1026,112.0252)"
           id="g142"><path
             id="path144"
             style="fill:#ffffff;fill-opacity:1;fill-rule:nonzero;stroke:none"
             d="m 0,0 h -6.38 v 34.562 h -8.118 V 0 l 7.362,-7.374 H 0.75 L 8.124,0 V 34.562 H 0 Z" /></g><g
           transform="translate(451.4854,129.324)"
           id="g146"><path
             id="path148"
             style="fill:#ffffff;fill-opacity:1;fill-rule:nonzero;stroke:none"
             d="m 0,0 -8.931,17.263 h -7.255 v -41.935 h 7.661 V 1.264 h 0.057 L 0,-16.181 v -8.491 H 7.656 V 17.263 H 0 Z" /></g><g
           transform="translate(268.1207,52.7901)"
           id="g150"><path
             id="path152"
             style="fill:#ffffff;fill-opacity:1;fill-rule:nonzero;stroke:none"
             d="m 0,0 -1.942,1.72 -3.262,-0.211 -5.681,-6.414 0.185,-3.263 1.942,-1.72 3.262,0.211 1.308,1.476 -1.915,1.697 -1.308,-1.477 -1.559,1.38 5.68,6.415 1.56,-1.382 -1.271,-1.435 1.914,-1.696 1.272,1.436 z" /></g><g
           transform="translate(279.6334,43.8497)"
           id="g154"><path
             id="path156"
             style="fill:#ffffff;fill-opacity:1;fill-rule:nonzero;stroke:none"
             d="m 0,0 -5.254,3.802 -1.361,-1.879 1.598,-1.157 -6.384,-8.821 2.072,-1.5 6.384,8.821 1.584,-1.146 z" /></g><g
           transform="translate(285.1006,32.8196)"
           id="g158"><path
             id="path160"
             style="fill:#ffffff;fill-opacity:1;fill-rule:nonzero;stroke:none"
             d="M 0,0 -1.562,0.912 0.529,4.493 2.091,3.581 Z m -0.51,7.787 -6.66,-11.407 2.209,-1.29 2.275,3.897 1.988,-1.161 2.695,0.521 2.57,4.402 -0.88,2.588 z" /></g><g
           transform="translate(299.3638,29.7359)"
           id="g162"><path
             id="path164"
             style="fill:#ffffff;fill-opacity:1;fill-rule:nonzero;stroke:none"
             d="M 0,0 -4.962,-4.453 -1.302,3.636 -3.3,4.54 -8.744,-7.495 -6.747,-8.398 -1.837,-4.062 -4.3,-9.505 -2.286,-10.417 3.159,1.618 1.145,2.53 Z" /></g><g
           transform="translate(316.6778,26.3887)"
           id="g166"><path
             id="path168"
             style="fill:#ffffff;fill-opacity:1;fill-rule:nonzero;stroke:none"
             d="m 0,0 -3.508,-4.586 1.625,5.177 -2.388,0.749 -1.625,-5.176 -0.257,5.769 -2.44,0.766 0.448,-5.829 -2.722,-1.29 -1.719,-5.473 2.44,-0.766 1.544,4.915 0.997,0.491 1.15,-0.361 -1.774,-5.648 2.389,-0.749 1.774,5.647 1.149,-0.361 0.538,-0.973 -1.544,-4.915 2.441,-0.766 1.719,5.473 -1.497,2.614 3.7,4.525 z" /></g><g
           transform="translate(322.5196,11.3438)"
           id="g170"><path
             id="path172"
             style="fill:#ffffff;fill-opacity:1;fill-rule:nonzero;stroke:none"
             d="M 0,0 5.526,-1.061 5.963,1.218 2.949,1.796 3.614,5.259 6.125,4.777 6.525,6.859 4.013,7.34 4.56,10.193 7.575,9.615 l 0.437,2.279 -5.527,1.06 z" /></g><g
           transform="translate(340.9815,16.7237)"
           id="g174"><path
             id="path176"
             style="fill:#ffffff;fill-opacity:1;fill-rule:nonzero;stroke:none"
             d="M 0,0 -2.106,5.414 -4.382,5.6 -5.456,-7.565 -2.998,-7.766 -2.346,0.228 -2.328,0.227 -0.351,-4.298 2.334,-0.154 2.352,-0.156 1.7,-8.149 4.158,-8.35 5.232,4.816 2.956,5.001 Z" /></g><g
           transform="translate(366.6417,22.3299)"
           id="g178"><path
             id="path180"
             style="fill:#ffffff;fill-opacity:1;fill-rule:nonzero;stroke:none"
             d="m 0,0 0.286,-2.762 -2.044,-6.346 -0.913,8.832 -2.181,-0.225 1.358,-13.14 2.182,0.226 2.057,6.219 0.614,-5.943 2.2,0.228 -1.36,13.139 z" /></g><g
           transform="translate(389.668,15.7869)"
           id="g182"><path
             id="path184"
             style="fill:#ffffff;fill-opacity:1;fill-rule:nonzero;stroke:none"
             d="M 0,0 -1.111,3.862 0.627,4.362 1.738,0.5 Z M 0.479,6.659 -1.732,6.022 -2.369,8.234 1.441,9.331 0.799,11.56 -5.469,9.757 -1.816,-2.937 2.854,-1.594 4.343,0.698 2.964,5.491 Z" /></g><g
           transform="translate(401.4717,24.429)"
           id="g186"><path
             id="path188"
             style="fill:#ffffff;fill-opacity:1;fill-rule:nonzero;stroke:none"
             d="M 0,0 -1.551,3.847 0.126,4.523 1.677,0.676 Z m -0.284,6.859 -4.507,-1.817 4.94,-12.252 2.372,0.958 -1.688,4.185 2.136,0.86 1.238,2.45 -1.906,4.727 z" /></g><g
           transform="translate(416.0367,26.2293)"
           id="g190"><path
             id="path192"
             style="fill:#ffffff;fill-opacity:1;fill-rule:nonzero;stroke:none"
             d="M 0,0 -1.607,3.077 0.66,4.261 -0.321,6.14 -2.588,4.956 l -1.378,2.64 2.72,1.42 -1.074,2.057 -4.988,-2.605 6.116,-11.708 4.987,2.605 -1.074,2.056 z" /></g><g
           transform="translate(427.1465,32.6836)"
           id="g194"><path
             id="path196"
             style="fill:#ffffff;fill-opacity:1;fill-rule:nonzero;stroke:none"
             d="m 0,0 -1.884,2.915 2.147,1.389 -1.151,1.779 -2.148,-1.388 -1.616,2.5 2.577,1.667 -1.261,1.948 -4.725,-3.056 7.174,-11.09 4.725,3.055 -1.26,1.948 z" /></g><g
           transform="translate(434.5528,51.6514)"
           id="g198"><path
             id="path200"
             style="fill:#ffffff;fill-opacity:1;fill-rule:nonzero;stroke:none"
             d="m 0,0 1.321,-5.657 -5.265,2.457 -1.773,-1.439 8.323,-10.257 1.915,1.554 -5.054,6.228 0.015,0.012 4.555,-1.904 -0.923,4.851 0.014,0.011 5.053,-6.228 1.916,1.554 -8.324,10.257 z" /></g><g
           transform="translate(266.3052,243.4739)"
           id="g202"><path
             id="path204"
             style="fill:#ffffff;fill-opacity:1;fill-rule:nonzero;stroke:none"
             d="M 0,0 -4.209,4.76 -0.357,3.37 -1.266,7.363 2.943,2.603 5.25,4.644 -3.228,14.228 -5.336,12.364 -4.145,7.652 -8.676,9.409 -10.785,7.544 -2.306,-2.04 Z" /></g><g
           transform="translate(274.9576,256.9619)"
           id="g206"><path
             id="path208"
             style="fill:#ffffff;fill-opacity:1;fill-rule:nonzero;stroke:none"
             d="M 0,0 1.66,1.163 2.929,-0.649 2.088,-1.239 1.226,-0.006 -1.413,-1.854 0.008,-3.884 2.742,-4.238 5.51,-2.299 6.055,0.502 -0.149,9.36 -2.787,7.512 0.076,3.424 -0.765,2.835 -3.628,6.923 -6.267,5.075 -2.956,0.35 Z" /></g><g
           transform="translate(284.0323,263.9224)"
           id="g210"><path
             id="path212"
             style="fill:#ffffff;fill-opacity:1;fill-rule:nonzero;stroke:none"
             d="M 0,0 2.723,-5.087 5.562,-3.567 3.25,0.755 3.491,1.467 4.068,1.776 6.624,-2.999 9.417,-1.504 6.861,3.271 7.439,3.58 8.165,3.386 10.478,-0.936 13.318,0.584 10.595,5.671 8.238,6.175 7.374,11.916 4.502,10.379 5.415,6.049 5.383,6.032 3.379,9.778 0.585,8.283 2.59,4.538 2.559,4.521 -0.538,7.682 -3.41,6.145 0.888,2.242 Z" /></g><g
           transform="translate(304.2408,267.3951)"
           id="g214"><path
             id="path216"
             style="fill:#ffffff;fill-opacity:1;fill-rule:nonzero;stroke:none"
             d="M 0,0 3.299,1.283 4.595,3.762 3.582,6.368 0.58,5.201 1.234,3.518 0.046,3.056 l -2.585,6.648 1.188,0.462 0.634,-1.633 3.003,1.167 -1.001,2.574 -2.623,0.935 -3.299,-1.283 -1.27,-2.449 3.31,-8.512 z" /></g><g
           transform="translate(317.9537,272.042)"
           id="g218"><path
             id="path220"
             style="fill:#ffffff;fill-opacity:1;fill-rule:nonzero;stroke:none"
             d="m 0,0 -1.425,5.225 0.632,0.172 0.664,-0.35 1.29,-4.73 3.108,0.847 -1.518,5.566 -2.186,1.019 0.44,5.788 -3.142,-0.856 -0.078,-4.424 -0.034,-0.009 -1.117,4.097 -3.108,-0.847 3.366,-12.345 z" /></g><g
           transform="translate(330.3609,274.8174)"
           id="g222"><path
             id="path224"
             style="fill:#ffffff;fill-opacity:1;fill-rule:nonzero;stroke:none"
             d="m 0,0 1.267,4.438 0.671,-4.122 2.831,0.461 -2.058,12.63 -2.83,-0.461 0.45,-2.76 -1.274,-3.848 -1.028,6.306 -2.83,-0.461 2.058,-12.63 z" /></g><g
           transform="translate(347.0362,276.5909)"
           id="g226"><path
             id="path228"
             style="fill:#ffffff;fill-opacity:1;fill-rule:nonzero;stroke:none"
             d="M 0,0 -0.179,2.826 -3.146,2.639 -3.302,5.112 -0.829,5.268 -0.996,7.9 -3.468,7.744 l -0.127,2.014 2.967,0.187 -0.178,2.826 -6.182,-0.39 0.806,-12.771 z" /></g><g
           transform="translate(367.2789,275.7556)"
           id="g230"><path
             id="path232"
             style="fill:#ffffff;fill-opacity:1;fill-rule:nonzero;stroke:none"
             d="M 0,0 2.289,1.609 2.582,4.39 -0.621,4.729 -0.811,2.934 -2.078,3.068 -1.329,10.161 -0.061,10.027 -0.245,8.284 2.958,7.946 3.249,10.691 1.346,12.726 -2.175,13.098 -4.426,11.503 -5.386,2.42 -3.52,0.373 Z" /></g><g
           transform="translate(379.606,273.6555)"
           id="g234"><path
             id="path236"
             style="fill:#ffffff;fill-opacity:1;fill-rule:nonzero;stroke:none"
             d="m 0,0 2.031,9.755 1.854,-0.386 0.578,2.772 -6.879,1.433 -0.578,-2.773 1.871,-0.389 -2.03,-9.756 z" /></g><g
           transform="translate(392.7501,280.4529)"
           id="g238"><path
             id="path240"
             style="fill:#ffffff;fill-opacity:1;fill-rule:nonzero;stroke:none"
             d="M 0,0 0.962,-0.303 0.038,-3.24 -0.925,-2.937 Z m -1.753,-5.571 1.907,-0.601 2.679,1.087 1.505,4.777 -1.597,2.414 -4.963,1.562 -3.842,-12.205 3.072,-0.968 z" /></g><g
           transform="translate(405.1016,269.6451)"
           id="g242"><path
             id="path244"
             style="fill:#ffffff;fill-opacity:1;fill-rule:nonzero;stroke:none"
             d="M 0,0 -1.664,-3.832 0.966,-4.973 6.063,6.764 3.433,7.906 2.319,5.341 -0.833,2.793 l 2.545,5.86 -2.63,1.142 -5.097,-11.737 2.55,-1.107 z" /></g><g
           transform="translate(413.7862,260.6836)"
           id="g246"><path
             id="path248"
             style="fill:#ffffff;fill-opacity:1;fill-rule:nonzero;stroke:none"
             d="M 0,0 2.478,4.23 3.211,4.395 3.775,4.064 1.038,-0.608 3.771,-2.21 6.51,2.463 7.074,2.132 7.289,1.411 4.81,-2.819 7.589,-4.447 10.506,0.531 9.706,2.805 14.15,6.54 11.34,8.186 8.124,5.148 8.094,5.166 10.24,8.83 7.507,10.432 5.359,6.767 5.329,6.785 6.408,11.076 3.598,12.723 2.513,7.02 0.138,6.607 -2.78,1.629 Z" /></g><g
           transform="translate(428.4156,251.1309)"
           id="g250"><path
             id="path252"
             style="fill:#ffffff;fill-opacity:1;fill-rule:nonzero;stroke:none"
             d="M 0,0 3.273,4.314 3.795,3.918 3.922,3.178 0.958,-0.728 3.524,-2.675 7.012,1.921 6.487,4.275 11.345,7.455 8.75,9.423 5.196,6.788 5.167,6.809 7.735,10.193 5.17,12.141 -2.566,1.948 Z" /></g><g
           transform="translate(438.19,242.9849)"
           id="g254"><path
             id="path256"
             style="fill:#ffffff;fill-opacity:1;fill-rule:nonzero;stroke:none"
             d="M 0,0 4.29,1.705 1.434,-1.344 3.525,-3.304 12.274,6.034 10.182,7.995 8.271,5.954 4.445,4.615 8.813,9.278 6.721,11.238 -2.028,1.9 Z" /></g></g></g></g></svg>