<?xml version="1.0" encoding="UTF-8" standalone="no"?>
<svg
   xmlns:dc="http://purl.org/dc/elements/1.1/"
   xmlns:cc="http://creativecommons.org/ns#"
   xmlns:rdf="http://www.w3.org/1999/02/22-rdf-syntax-ns#"
   xmlns:svg="http://www.w3.org/2000/svg"
   xmlns="http://www.w3.org/2000/svg"
   viewBox="0 0 230.90266 97.518265"
   height="97.518265"
   width="230.90266"
   xml:space="preserve"
   id="svg2"
   version="1.1"><metadata
     id="metadata8"><rdf:RDF><cc:Work
         rdf:about=""><dc:format>image/svg+xml</dc:format><dc:type
           rdf:resource="http://purl.org/dc/dcmitype/StillImage" /></cc:Work></rdf:RDF></metadata><defs
     id="defs6"><clipPath
       id="clipPath18"
       clipPathUnits="userSpaceOnUse"><path
         id="path16"
         d="M 0,73.139 H 173.177 V 0 H 0 Z" /></clipPath></defs><g
     transform="matrix(1.3333333,0,0,-1.3333333,0,97.518267)"
     id="g10"><g
       id="g12"><g
         clip-path="url(#clipPath18)"
         id="g14"><g
           transform="translate(84.8535,29.2685)"
           id="g20"><path
             id="path22"
             style="fill:#ffffff;fill-opacity:1;fill-rule:nonzero;stroke:none"
             d="M 0,0 V 6.973 H 1.589 C 2.411,6.973 3,6.777 3.355,6.39 3.712,6 3.892,5.275 3.892,4.217 V 2.237 C 3.892,1.395 3.734,0.812 3.422,0.486 3.109,0.163 2.648,0 2.044,0 Z m 0,10.215 v 5.998 h 1.72 c 0.626,0 1.086,-0.182 1.377,-0.55 C 3.389,15.296 3.535,14.7 3.535,13.879 V 12.615 C 3.535,11.707 3.345,11.08 2.969,10.734 2.59,10.387 2.063,10.215 1.395,10.215 Z M 7.459,2.141 V 3.99 c 0,1.21 -0.201,2.232 -0.6,3.063 C 6.457,7.885 5.772,8.486 4.8,8.854 c 0.801,0.367 1.384,0.93 1.751,1.685 0.367,0.756 0.55,1.719 0.55,2.885 v 0.812 c 0,1.753 -0.415,3.059 -1.248,3.924 -0.832,0.864 -2.179,1.298 -4.036,1.298 h -5.384 v -22.7 h 5.611 c 1.795,0 3.145,0.46 4.052,1.378 0.91,0.919 1.363,2.254 1.363,4.005" /></g><g
           transform="translate(102.8183,44.7041)"
           id="g24"><path
             id="path26"
             style="fill:#ffffff;fill-opacity:1;fill-rule:nonzero;stroke:none"
             d="m 0,0 1.718,-11.479 h -3.436 z m -2.433,4.021 -3.631,-22.698 h 3.275 l 0.616,4.116 H 2.206 L 2.82,-18.677 H 6.421 L 2.789,4.021 Z" /></g><g
           transform="translate(117.7021,38.5107)"
           id="g28"><path
             id="path30"
             style="fill:#ffffff;fill-opacity:1;fill-rule:nonzero;stroke:none"
             d="M 0,0 V 6.972 H 1.72 C 2.347,6.972 2.806,6.788 3.098,6.42 3.389,6.053 3.535,5.459 3.535,4.637 V 2.399 C 3.535,1.491 3.347,0.864 2.968,0.519 2.59,0.171 2.063,0 1.395,0 Z m 7.134,-9.729 v 3.504 c 0,1.188 -0.167,2.199 -0.503,3.03 -0.334,0.833 -0.956,1.433 -1.864,1.8 1.557,0.735 2.334,2.27 2.334,4.604 v 1.784 c 0,1.753 -0.415,3.059 -1.248,3.924 -0.832,0.866 -2.177,1.297 -4.037,1.297 H -3.565 V -12.485 H 0 v 9.242 h 1.233 c 0.822,0 1.415,-0.217 1.785,-0.648 0.367,-0.434 0.549,-1.177 0.549,-2.237 v -3.568 c 0,-0.453 0.004,-0.831 0.017,-1.135 0.011,-0.303 0.033,-0.55 0.066,-0.744 0.031,-0.196 0.07,-0.358 0.112,-0.488 0.044,-0.129 0.086,-0.27 0.131,-0.422 h 3.629 c -0.171,0.433 -0.281,0.859 -0.323,1.281 -0.044,0.422 -0.065,0.914 -0.065,1.475" /></g><g
           transform="translate(133.9804,29.2685)"
           id="g32"><path
             id="path34"
             style="fill:#ffffff;fill-opacity:1;fill-rule:nonzero;stroke:none"
             d="M 0,0 V 6.973 H 1.588 C 2.41,6.973 2.999,6.777 3.357,6.39 3.712,6 3.891,5.275 3.891,4.217 V 2.237 C 3.891,1.395 3.733,0.812 3.421,0.486 3.106,0.163 2.648,0 2.043,0 Z m 0,10.215 v 5.998 h 1.72 c 0.625,0 1.085,-0.182 1.378,-0.55 0.29,-0.367 0.436,-0.963 0.436,-1.784 V 12.615 C 3.534,11.707 3.345,11.08 2.968,10.734 2.59,10.387 2.065,10.215 1.395,10.215 Z M 7.458,2.141 V 3.99 c 0,1.21 -0.2,2.232 -0.599,3.063 -0.402,0.832 -1.086,1.433 -2.06,1.801 0.801,0.367 1.384,0.93 1.751,1.685 0.367,0.756 0.551,1.719 0.551,2.885 v 0.812 c 0,1.753 -0.415,3.059 -1.249,3.924 -0.831,0.864 -2.177,1.298 -4.038,1.298 h -5.382 v -22.7 h 5.611 c 1.793,0 3.145,0.46 4.054,1.378 0.906,0.919 1.361,2.254 1.361,4.005" /></g><g
           transform="translate(146.8212,48.7251)"
           id="g36"><path
             id="path38"
             style="fill:#ffffff;fill-opacity:1;fill-rule:nonzero;stroke:none"
             d="m 0,0 v -22.698 h 9.729 v 3.242 H 3.567 v 6.648 h 4.897 v 3.242 H 3.567 v 6.324 H 9.729 V 0 Z" /></g><g
           transform="translate(165.5634,38.5107)"
           id="g40"><path
             id="path42"
             style="fill:#ffffff;fill-opacity:1;fill-rule:nonzero;stroke:none"
             d="M 0,0 V 6.972 H 1.718 C 2.345,6.972 2.804,6.788 3.097,6.42 3.389,6.053 3.535,5.459 3.535,4.637 V 2.399 C 3.535,1.491 3.345,0.864 2.967,0.519 2.588,0.171 2.063,0 1.395,0 Z m 7.134,-9.729 v 3.504 c 0,1.188 -0.168,2.199 -0.503,3.03 -0.334,0.833 -0.956,1.433 -1.864,1.8 1.555,0.735 2.334,2.27 2.334,4.604 v 1.784 c 0,1.753 -0.417,3.059 -1.248,3.924 -0.832,0.866 -2.179,1.297 -4.038,1.297 H -3.567 V -12.485 H 0 v 9.242 h 1.232 c 0.821,0 1.414,-0.217 1.784,-0.648 0.367,-0.434 0.551,-1.177 0.551,-2.237 v -3.568 c 0,-0.453 0.004,-0.831 0.015,-1.135 0.012,-0.303 0.033,-0.55 0.066,-0.744 0.032,-0.196 0.07,-0.358 0.114,-0.488 0.042,-0.129 0.086,-0.27 0.13,-0.422 h 3.63 c -0.172,0.433 -0.281,0.859 -0.323,1.281 -0.044,0.422 -0.065,0.914 -0.065,1.475" /></g><path
           id="path44"
           style="fill:#ffffff;fill-opacity:1;fill-rule:nonzero;stroke:none"
           d="M 81.278,0.194 H 82.77 V 22.896 H 81.278 Z" /><g
           transform="translate(95.9365,22.896)"
           id="g46"><path
             id="path48"
             style="fill:#ffffff;fill-opacity:1;fill-rule:nonzero;stroke:none"
             d="M 0,0 H -1.361 V -19.167 L -8.172,0 h -1.946 v -22.701 h 1.361 v 20.237 l 7.105,-20.237 H 0 Z" /></g><g
           transform="translate(100.4433,1.5571)"
           id="g50"><path
             id="path52"
             style="fill:#ffffff;fill-opacity:1;fill-rule:nonzero;stroke:none"
             d="m 0,0 v 19.977 h 3.471 c 2.496,0 3.567,-1.718 3.567,-4.215 V 4.217 C 7.038,1.718 6,0 3.471,0 Z m 8.529,4.281 v 11.415 c 0,3.341 -1.524,5.642 -5.028,5.642 H -1.493 V -1.363 h 4.994 c 3.504,0 5.028,2.302 5.028,5.644" /></g><g
           transform="translate(121.5204,5.7407)"
           id="g54"><path
             id="path56"
             style="fill:#ffffff;fill-opacity:1;fill-rule:nonzero;stroke:none"
             d="M 0,0 V 17.154 H -1.395 V -0.064 c 0,-2.433 -0.908,-4.313 -3.404,-4.313 -2.499,0 -3.405,1.88 -3.405,4.313 V 17.154 H -9.697 V 0 c 0,-3.242 1.396,-5.741 4.865,-5.741 C -1.361,-5.741 0,-3.242 0,0" /></g><g
           transform="translate(124.4374,17.4477)"
           id="g58"><path
             id="path60"
             style="fill:#ffffff;fill-opacity:1;fill-rule:nonzero;stroke:none"
             d="m 0,0 c 0,-6.324 8.206,-6.42 8.206,-11.869 0,-2.432 -0.94,-4.183 -3.439,-4.183 -2.496,0 -3.436,1.751 -3.436,4.183 v 1.265 h -1.428 v -1.168 c 0,-3.275 1.428,-5.675 4.897,-5.675 3.471,0 4.898,2.4 4.898,5.675 0,6.26 -8.207,6.356 -8.207,11.869 0,2.4 0.909,4.185 3.374,4.185 2.466,0 3.372,-1.817 3.372,-4.216 v -0.583 h 1.428 v 0.484 C 9.665,3.244 8.271,5.644 4.833,5.644 1.491,5.611 0,3.407 0,0" /></g><g
           transform="translate(146.9433,22.896)"
           id="g62"><path
             id="path64"
             style="fill:#ffffff;fill-opacity:1;fill-rule:nonzero;stroke:none"
             d="m 0,0 h -10.734 v -1.361 h 4.605 v -21.34 h 1.492 v 21.34 H 0 Z" /></g><g
           transform="translate(150.7363,11.708)"
           id="g66"><path
             id="path68"
             style="fill:#ffffff;fill-opacity:1;fill-rule:nonzero;stroke:none"
             d="m 0,0 v 9.825 h 3.212 c 2.463,0 3.404,-1.458 3.404,-3.891 V 3.794 C 6.616,0.746 5.06,0 2.4,0 Z m 0,-11.513 v 10.151 h 2.367 c 2.596,0 4.249,-0.842 4.249,-3.858 v -3.57 c 0,-1.231 0.098,-2.041 0.487,-2.723 H 8.66 c -0.488,0.746 -0.553,1.784 -0.553,2.723 v 3.535 c 0,2.466 -0.94,4.12 -3.274,4.639 2.236,0.519 3.274,2.043 3.274,4.702 v 1.978 c 0,3.211 -1.393,5.125 -4.865,5.125 h -4.733 v -22.702 z" /></g><g
           transform="translate(171.7167,22.896)"
           id="g70"><path
             id="path72"
             style="fill:#ffffff;fill-opacity:1;fill-rule:nonzero;stroke:none"
             d="M 0,0 -4.345,-11.935 -8.69,0 h -1.556 l 5.09,-13.978 v -8.723 h 1.492 v 8.723 L 1.46,0 Z" /></g><g
           transform="translate(78.0253,62.7182)"
           id="g74"><path
             id="path76"
             style="fill:#ffffff;fill-opacity:1;fill-rule:nonzero;stroke:none"
             d="m 0,0 c -2.275,0 -4.16,1.873 -4.246,4.249 -0.085,2.426 1.742,4.465 4.08,4.551 h 0.151 C 2.256,8.8 4.143,6.928 4.229,4.552 4.312,2.123 2.486,0.085 0.146,0 Z m 5.787,4.605 c -0.115,3.249 -2.696,5.815 -5.809,5.815 -0.065,0 -0.133,0 -0.198,-0.008 -3.202,-0.105 -5.704,-2.89 -5.584,-6.217 0.1,-2.875 2.131,-5.208 4.745,-5.714 l -5.533,-13.822 0.315,-0.773 3.211,-3.497 4.117,18.086 c 2.782,0.523 4.844,3.103 4.736,6.13" /></g><g
           transform="translate(72.4033,35.4746)"
           id="g78"><path
             id="path80"
             style="fill:#ffffff;fill-opacity:1;fill-rule:nonzero;stroke:none"
             d="M 0,0 -0.6,-1.041 H -1.799 L -2.396,0 -1.799,1.034 H -0.6 Z m -8.17,27.244 c -2.335,0.085 -4.163,2.122 -4.081,4.552 0.09,2.376 1.973,4.248 4.246,4.248 h 0.151 c 2.337,-0.086 4.163,-2.125 4.078,-4.551 -0.086,-2.376 -1.97,-4.249 -4.246,-4.249 z m 6.97,-15.917 -0.118,0.284 -0.111,0.292 -5.535,13.822 c 2.619,0.506 4.647,2.839 4.748,5.713 0.117,3.328 -2.384,6.113 -5.587,6.218 -0.063,0.008 -0.131,0.008 -0.193,0.008 -3.114,0 -5.698,-2.56 -5.811,-5.815 -0.105,-3.029 1.954,-5.607 4.734,-6.13 L -4.955,7.631 -4.887,7.323 -4.6,6.057 l 0.945,-4.146 0.711,-3.113 1.744,-29.296 0.109,-1.804 0.107,-1.806 0.073,-1.195 0.823,1.361 1.421,24.828 0.629,11.025 0.09,1.561 0.074,1.297 0.074,1.288 0.071,1.247 -3.299,3.594 z" /></g><g
           transform="translate(68.0429,37.3852)"
           id="g82"><path
             id="path84"
             style="fill:#ffffff;fill-opacity:1;fill-rule:nonzero;stroke:none"
             d="m 0,0 0.428,-7.483 1.621,-28.369 0.824,-1.36 0.072,1.193 -1.474,24.757 -0.484,8.086 -1.076,4.738 z" /></g><g
           transform="translate(-1e-4,48.7261)"
           id="g86"><path
             id="path88"
             style="fill:#ffffff;fill-opacity:1;fill-rule:nonzero;stroke:none"
             d="m 0,0 0.001,-10.779 7.276,0.002 0.003,-37.949 12.264,0.003 -0.002,37.947 7.211,-0.002 V 0 Z" /></g><g
           transform="translate(41.622,48.7261)"
           id="g90"><path
             id="path92"
             style="fill:#ffffff;fill-opacity:1;fill-rule:nonzero;stroke:none"
             d="m 0,0 -8.49,-8.552 0.003,-31.611 8.492,-8.563 9.508,0.004 8.558,8.56 -0.001,16.446 H 4.855 v -8.295 h 3.781 l 0.001,-8.152 -7.691,-0.001 -0.001,31.613 7.69,0.004 10e-4,-9.177 h 9.434 l -0.002,9.175 -8.56,8.552 z" /></g><path
           id="path94"
           style="fill:#ffffff;fill-opacity:1;fill-rule:nonzero;stroke:none"
           d="m 25.573,0.001 h 5.336 v 5.335 h -5.336 z" /><path
           id="path96"
           style="fill:#ffffff;fill-opacity:1;fill-rule:nonzero;stroke:none"
           d="M 60.995,0.001 H 66.33 V 5.336 H 60.995 Z" /></g></g></g></svg>