<svg xmlns="http://www.w3.org/2000/svg" width="74.72" height="42.63" viewBox="0 0 74.72 42.63">
  <defs>
    <style>
      .cls-1 {
        fill: #2191c6;
        fill-rule: evenodd;
      }
    </style>
  </defs>
  <path id="vk" class="cls-1" d="M1669.15,4372.07h4.47a3.794,3.794,0,0,0,2.04-.89,3.317,3.317,0,0,0,.61-1.97s-0.08-5.99,2.7-6.87c2.74-.87,6.26,5.79,9.99,8.35,2.82,1.94,4.97,1.52,4.97,1.52l9.97-.14s5.22-.33,2.75-4.43c-0.2-.33-1.44-3.03-7.42-8.58-6.26-5.81-5.42-4.87,2.12-14.91,4.59-6.12,6.42-9.85,5.85-11.45-0.55-1.53-3.92-1.12-3.92-1.12l-11.24.07a2.516,2.516,0,0,0-1.45.25,3.156,3.156,0,0,0-.99,1.21,65.547,65.547,0,0,1-4.15,8.76c-5,8.49-7,8.94-7.82,8.41-1.9-1.23-1.43-4.94-1.43-7.57,0-8.23,1.25-11.67-2.43-12.56a19.777,19.777,0,0,0-5.24-.52c-4.01-.04-7.4.02-9.33,0.96-1.27.62-2.26,2.02-1.66,2.1a5.08,5.08,0,0,1,3.32,1.66c1.15,1.57,1.11,5.09,1.11,5.09s0.66,9.69-1.55,10.89c-1.51.83-3.59-.86-8.05-8.57a71.953,71.953,0,0,1-4.01-8.31,3.317,3.317,0,0,0-.93-1.25,4.541,4.541,0,0,0-1.72-.69l-10.68.07a3.614,3.614,0,0,0-2.19.74,2.335,2.335,0,0,0-.04,1.9s8.36,19.55,17.82,29.4c8.68,9.04,18.53,8.45,18.53,8.45h0Z" transform="translate(-1632.59 -4329.62)"/>
</svg>
