<?xml version="1.0" encoding="utf-8"?>
<!-- Generator: Adobe Illustrator 25.2.1, SVG Export Plug-In . SVG Version: 6.00 Build 0)  -->
<svg version="1.1" id="Слой_1" xmlns="http://www.w3.org/2000/svg" xmlns:xlink="http://www.w3.org/1999/xlink" x="0px" y="0px"
	 width="117.9px" height="75.2px" viewBox="0 0 117.9 75.2" enable-background="new 0 0 117.9 75.2" xml:space="preserve">
<g id="קרית_צאנז_1_">
	<path fill="#BAE4BD" d="M2.5,54.7L13.7,5.6l19.3,4V2.5l11.7,1h39c0,0,19,2.3,21,3s10.8,7.1,10.8,7.1l-2.8,4.9c0,0-4,36-7.2,46.2
		H77.7l-14.2,4l-5,4h-17l-14-4l-3-4L2.5,54.7z"/>
	<path fill="none" stroke="#7BB985" stroke-width="5" stroke-linecap="round" stroke-linejoin="round" stroke-miterlimit="10" d="
		M2.5,54.7L13.7,5.6l19.3,4V2.5l11.7,1h39c0,0,19,2.3,21,3s10.8,7.1,10.8,7.1l-2.8,4.9c0,0-4,36-7.2,46.2H77.7l-14.2,4l-5,4h-17
		l-14-4l-3-4L2.5,54.7z"/>
</g>
</svg>
