<?xml version="1.0" encoding="utf-8"?>
<!-- Generator: Adobe Illustrator 25.2.1, SVG Export Plug-In . SVG Version: 6.00 Build 0)  -->
<svg version="1.1" id="Слой_1" xmlns="http://www.w3.org/2000/svg" xmlns:xlink="http://www.w3.org/1999/xlink" x="0px" y="0px"
	 width="113.5px" height="151px" viewBox="0 0 113.5 151" enable-background="new 0 0 113.5 151" xml:space="preserve">
<g id="כוכב_הצפון_1_">
	<polygon fill="#DEF3F2" points="59.5,148.5 111,22 70,9.1 36.5,2.5 11.5,56.5 20.8,54.8 45.5,59.5 39.5,75.5 26.5,72.5 21.5,86.5 
		14.5,85.5 11.5,95.5 3.5,93.5 2.5,99.5 30.5,106.5 22.5,138.5 	"/>
	
		<polygon fill="none" stroke="#A2CBC4" stroke-width="5" stroke-linecap="round" stroke-linejoin="round" stroke-miterlimit="10" points="
		59.5,148.5 111,22 70,9.1 36.5,2.5 11.5,56.5 20.8,54.8 45.5,59.5 39.5,75.5 26.5,72.5 21.5,86.5 14.5,85.5 11.5,95.5 3.5,93.5 
		2.5,99.5 30.5,106.5 22.5,138.5 	"/>
</g>
</svg>
