<?xml version="1.0" encoding="utf-8"?>
<!-- Generator: Adobe Illustrator 25.2.1, SVG Export Plug-In . SVG Version: 6.00 Build 0)  -->
<svg version="1.1" id="Слой_1" xmlns="http://www.w3.org/2000/svg" xmlns:xlink="http://www.w3.org/1999/xlink" x="0px" y="0px"
	 width="218px" height="214px" viewBox="0 0 218 214" enable-background="new 0 0 218 214" xml:space="preserve">
<g id="קרית_אליעזר">
	<path fill="#A892C6" d="M30.5,192.5l5-28h-33v-36l5-42l18-84l115,11v5l75,10v65l-3,17c0,0-46,45-58,60s-24,41-24,41l-45-22
		L30.5,192.5z"/>
	<path fill="none" stroke="#765DAA" stroke-width="5" stroke-linecap="round" stroke-linejoin="round" stroke-miterlimit="10" d="
		M30.5,192.5l5-28h-33v-36l5-42l18-84l115,11v5l75,10v65l-3,17c0,0-46,45-58,60s-24,41-24,41l-45-22L30.5,192.5z"/>
</g>
</svg>
