<?xml version="1.0" encoding="utf-8"?>
<!-- Generator: Adobe Illustrator 25.2.1, SVG Export Plug-In . SVG Version: 6.00 Build 0)  -->
<svg version="1.1" id="Слой_1" xmlns="http://www.w3.org/2000/svg" xmlns:xlink="http://www.w3.org/1999/xlink" x="0px" y="0px"
	 width="120px" height="124px" viewBox="0 0 120 124" enable-background="new 0 0 120 124" xml:space="preserve">
<g id="קרית_המדע">
	<path fill="#FDCF86" d="M90.5,121.5l21.9-84.2l5.2-17.8l-19-3l-13,31l-17-30l-12-15c0,0-6,11-14,11s-27-2-27-2l-2,15l-7.9,3.7
		l5.1,18.1L40.1,89L38,106L90.5,121.5z"/>
	<path fill="none" stroke="#D89A4B" stroke-width="5" stroke-linecap="round" stroke-linejoin="round" stroke-miterlimit="10" d="
		M90.5,121.5l20-84l7-18l-19-3l-13,31l-17-30l-12-15c0,0-6,11-14,11s-27-2-27-2l-2,15l-11,2l6,21l29,40l-2,17L90.5,121.5z"/>
</g>
</svg>
