<?xml version="1.0" encoding="utf-8"?>
<!-- Generator: Adobe Illustrator 25.2.1, SVG Export Plug-In . SVG Version: 6.00 Build 0)  -->
<svg version="1.1" id="Слой_1" xmlns="http://www.w3.org/2000/svg" xmlns:xlink="http://www.w3.org/1999/xlink" x="0px" y="0px"
	 width="173px" height="368.7px" viewBox="0 0 173 368.7" enable-background="new 0 0 173 368.7" xml:space="preserve">
<g id="אזור_תעשייה_ספיר">
	<polygon fill="#FEE7D9" points="2.5,340.2 33.5,359.2 50.5,366.2 67.5,366.2 101.5,346.2 111.5,349.2 121.5,340.2 161.5,194.2 
		168.5,147.2 170.5,54.2 161.5,54.2 150.5,12.2 102.9,2.5 88.6,58.5 66.5,150.5 39.4,236.2 21,295.7 12.5,327.2 	"/>
	
		<polygon fill="none" stroke="#E3A887" stroke-width="5" stroke-linecap="round" stroke-linejoin="round" stroke-miterlimit="10" points="
		2.5,340.2 33.5,359.2 50.5,366.2 67.5,366.2 101.5,346.2 111.5,349.2 121.5,340.2 161.5,194.2 168.5,147.2 170.5,54.2 161.5,54.2 
		150.5,12.2 102.9,2.5 88.6,58.5 66.5,150.5 39.4,236.2 21,295.7 12.5,327.2 	"/>
</g>
</svg>
