<?xml version="1.0" encoding="utf-8"?>
<!-- Generator: Adobe Illustrator 25.2.1, SVG Export Plug-In . SVG Version: 6.00 Build 0)  -->
<svg version="1.1" id="Слой_1" xmlns="http://www.w3.org/2000/svg" xmlns:xlink="http://www.w3.org/1999/xlink" x="0px" y="0px"
	 width="195.5px" height="225.6px" viewBox="0 0 195.5 225.6" enable-background="new 0 0 195.5 225.6" xml:space="preserve">
<g id="נאות_גנים_1_">
	<path fill="#EDE1EF" d="M123.2,225.4l35-75l19-29v-5l6-13l8-20l4-32l-12-15l-9-28h-51l-39-4v65l-3,17c0,0-44.7,39.7-60.9,68.2
		C4.7,182.1,3.7,185.2,3.7,185.2l33.6,14.7l22,7.2l14,5.3l11-4L123.2,225.4z"/>
	<path fill="none" stroke="#A28CBF" stroke-width="5" stroke-linecap="round" stroke-linejoin="round" stroke-miterlimit="10" d="
		M121,223.1l35-75l19-29v-5l6-13l8-20l4-32l-12-15l-9-28h-51L86,2.5l-1.3,65.2L82,86c0,0-5,4.8-6.2,6.1
		c-19.7,21.9-46.2,44.1-54.6,58.5c-8.9,15.3-18.7,32.9-18.7,32.9L35,197.6l22,7.2l14,5.3l11-4L121,223.1z"/>
</g>
</svg>
