<?xml version="1.0" encoding="utf-8"?>
<!-- Generator: Adobe Illustrator 25.2.1, SVG Export Plug-In . SVG Version: 6.00 Build 0)  -->
<svg version="1.1" id="Слой_1" xmlns="http://www.w3.org/2000/svg" xmlns:xlink="http://www.w3.org/1999/xlink" x="0px" y="0px"
	 width="244px" height="328px" viewBox="0 0 244 328" enable-background="new 0 0 244 328" xml:space="preserve">
<g id="גלי_הים_1_">
	<path fill="#F8966F" d="M222.5,48.5l6-8l13,4l-12,68l-64-19l-24,51l-2,18l8.8,23h-14.4l-3.4,3l-15.7-4l-24.3-1l-4,16l0.1,9.7
		l6.9,64.3l13.9,35.6L56,314.6L2.5,325.5l9-45l1-14l14-37l14-57l12-43l13-50l11-41l10-36c0,0,31,6,32,6s16,0,16,0l-3,24l19,1l36,10
		L222.5,48.5z"/>
	<path fill="none" stroke="#C26441" stroke-width="5" stroke-linecap="round" stroke-linejoin="round" stroke-miterlimit="10" d="
		M222.5,48.5l6-8l13,4l-12,68l-64-19l-24,51l-2,18l8.8,23h-14.4l-3.4,3l-15.7-4l-24.3-1l-4,16l0.1,9.7l6.9,64.3l13.9,35.6L56,314.6
		L2.5,325.5l9-45l1-14l14-37l14-57l12-43l13-50l11-41l10-36c0,0,31,6,32,6s16,0,16,0l-3,24l19,1l36,10L222.5,48.5z"/>
</g>
</svg>
