<svg fill='#fff' viewBox="0 0 20 20" xmlns="http://www.w3.org/2000/svg">
  <path d="M5.3125 8.20312C4.3432 8.20312 3.55469 8.99164 3.55469 9.96094V14.7266C3.55469 15.6959 4.3432 16.4844 5.3125 16.4844C6.2818 16.4844 7.07031 15.6959 7.07031 14.7266V9.96094C7.07031 8.99164 6.2818 8.20312 5.3125 8.20312Z"></path>
  <path d="M2.38281 9.96105C2.38281 9.79202 2.40512 9.62874 2.43273 9.46753C1.72656 9.69577 1.21094 10.3517 1.21094 11.1329V13.5548C1.21094 14.336 1.72656 14.9919 2.43273 15.2202C2.40512 15.059 2.38281 14.8957 2.38281 14.7267V9.96105Z"></path>
  <path d="M14.6875 8.20312C13.7182 8.20312 12.9297 8.99164 12.9297 9.96094V14.7266C12.9297 15.6959 13.7182 16.4844 14.6875 16.4844C14.8637 16.4844 15.0305 16.4505 15.1911 16.402C14.973 17.125 14.3088 17.6562 13.5156 17.6562H11.6499C11.4072 16.9757 10.7629 16.4844 10 16.4844C9.0307 16.4844 8.24219 17.2729 8.24219 18.2422C8.24219 19.2115 9.0307 20 10 20C10.7629 20 11.4072 19.5087 11.6499 18.8281H13.5156C15.131 18.8281 16.4453 17.5138 16.4453 15.8984V14.7266V9.96094C16.4453 8.99164 15.6568 8.20312 14.6875 8.20312Z"></path>
  <path d="M17.5673 9.46753C17.5949 9.62874 17.6172 9.79202 17.6172 9.96105V14.7267C17.6172 14.8957 17.5949 15.059 17.5673 15.2202C18.2734 14.9919 18.7891 14.336 18.7891 13.5548V11.1329C18.7891 10.3517 18.2734 9.69577 17.5673 9.46753Z"></path>
  <path d="M10 0C5.15344 0 1.21094 3.9425 1.21094 8.78906V8.80402C1.56004 8.53973 1.96395 8.34633 2.40965 8.25973C2.68352 4.30668 5.97867 1.17188 10 1.17188C14.0213 1.17188 17.3165 4.30668 17.5904 8.25969C18.036 8.34629 18.4399 8.53973 18.7891 8.80399V8.78906C18.7891 3.9425 14.8466 0 10 0Z"></path>
</svg>