<?xml version="1.0" encoding="utf-8"?>
<!-- Generator: Adobe Illustrator 24.0.3, SVG Export Plug-In . SVG Version: 6.00 Build 0)  -->
<svg version="1.1" id="Слой_1" xmlns="http://www.w3.org/2000/svg" xmlns:xlink="http://www.w3.org/1999/xlink" x="0px" y="0px"
	 viewBox="0 0 29.2 32.6" style="enable-background:new 0 0 29.2 32.6;" xml:space="preserve">
<style type="text/css">
	.st0{fill-rule:evenodd;clip-rule:evenodd;fill:#FFFFFF;}
</style>
<path class="st0" d="M13.2,9.6c5.6-0.6,11.2,2.8,12.7,8.3c0.6,2.3,0.6,4.2-1,5.3c-1.9,1.3-4,0.5-4.9-0.9c-0.8-1.3-0.1-2.3-1.2-4.1
	c-2.5-3.8-8.7-2.6-9.3,1.9c-0.3,1.9,0.4,4.3,1.1,5.8c1.5,3.1,4.2,5.4,7.5,6.5c0.4,0.1,1,0.4,1.4,0.2c0.4-0.2,0.6-0.7,0.4-1.1
	c-0.2-0.5-1.5-0.6-2.4-1.1c-3-1.3-5.5-3.9-6.3-7.8c-0.2-1-0.3-2.3,0.1-3.2c1.2-2.7,5.4-2.6,6.4,0.2c0.4,1.1-0.1,3.2,2.2,4.9
	c1.5,1.1,3.7,1.3,5.5,0.3c3.7-2.1,2.7-6.9,1.1-10C25,12,22.3,9.7,18.7,8.5c-4-1.3-8.4-0.5-11.4,1.4c-2.6,1.6-5.1,4.2-5.9,8.1
	c-0.5,2.6-0.1,6.8,1,9.2c0.4,0.9,1.9,0.6,1.4-0.9C2.3,22.4,2.3,18,4.4,14.8C6,12.3,9,10.1,13.2,9.6z"/>
<path class="st0" d="M13.7,13.6c3.9-0.5,7.1,2.1,8,4.8c0.5,1.4,0.3,2.4,0.5,2.7c0.3,0.5,1.6,0.8,1.5-1c-0.1-1.9-0.9-3.5-1.8-4.6
	c-4.8-6-13.9-4.1-16.2,2.4c-0.6,1.8-0.6,3.8-0.2,5.7c0.6,3.4,2.4,6.1,4.6,8.3c0.9,0.9,1.9-0.1,1.5-0.8c-0.1-0.2-0.6-0.6-0.7-0.8
	c-0.3-0.3-0.5-0.5-0.7-0.8C7.3,26.2,5,19.2,9.3,15.5C10.5,14.5,11.6,13.8,13.7,13.6z"/>
<path class="st0" d="M0,11.3v1c1,0.7,1.2,0.2,1.7-0.6c0.7-0.9,1.8-2,2.7-2.8c5.4-4.2,13.2-4.5,19-0.8c2,1.2,2.9,2.4,4.2,4.1
	c0.5,0.6,1.5,0.3,1.5-0.5c0-0.7-2.1-2.7-2.5-3.1c-0.9-0.8-1.9-1.6-3.2-2.3C20.9,4.9,18.3,4,14.8,4c-3.4,0-6.4,0.8-8.9,2.1
	C4.8,6.7,3.3,7.6,2.6,8.4C2.1,8.9,1.7,9.3,1.2,9.8C0.8,10.2,0.2,11.1,0,11.3z"/>
<path class="st0" d="M13.6,0c-2,0.1-3.9,0.5-5.7,1.1c-0.6,0.2-3,1.1-3.4,1.6C4,3.2,4.4,4.5,5.8,3.8c1-0.5,2.6-1.2,3.6-1.4
	c4.8-1.3,9.7-0.8,14,1.5c1.2,0.6,1.8-0.7,1.1-1.3C23.8,2,20.9,1,19.7,0.6C17.8,0.1,15.7-0.1,13.6,0z"/>
<path class="st0" d="M13.7,21.3c0.4,4.4,3.8,7.5,7.9,7.9c0.7,0.1,2.9,0.1,3.4-0.4c0.2-0.3,0.3-0.7,0.1-1c-0.4-0.6-1.4-0.2-2.2-0.2
	c-3.7,0.1-6.8-2.2-7.5-5.7c-0.1-0.8,0.1-1.7-0.6-2C13.7,19.6,13.6,20.5,13.7,21.3z"/>
</svg>
