<?xml version="1.0" encoding="utf-8"?>
<!-- Generator: Adobe Illustrator 25.2.1, SVG Export Plug-In . SVG Version: 6.00 Build 0)  -->
<svg version="1.1" id="Layer_1" xmlns="http://www.w3.org/2000/svg" xmlns:xlink="http://www.w3.org/1999/xlink" x="0px" y="0px"
	 width="137.8px" height="122.2px" viewBox="0 0 137.8 122.2" enable-background="new 0 0 137.8 122.2" xml:space="preserve">
<g id="רקע_1_">
	<g>
		<circle fill="#FFFFFF" cx="62.1" cy="61.1" r="61.1"/>
		<g>
			<g>
				<g>
					<g>
						<g>
							<circle fill="#227cb3" cx="61.6" cy="32.2" r="8.8"/>
							<g>
								
									<line fill="none" stroke="#227cb3" stroke-width="1.7127" stroke-linecap="round" stroke-linejoin="round" stroke-miterlimit="10" x1="60.3" y1="19.4" x2="59.9" y2="14.2"/>
								
									<line fill="none" stroke="#227cb3" stroke-width="1.7127" stroke-linecap="round" stroke-linejoin="round" stroke-miterlimit="10" x1="62.9" y1="50.4" x2="62.5" y2="45.3"/>
							</g>
							<g>
								
									<line fill="none" stroke="#227cb3" stroke-width="1.7127" stroke-linecap="round" stroke-linejoin="round" stroke-miterlimit="10" x1="74.3" y1="31.2" x2="79.5" y2="30.8"/>
								
									<line fill="none" stroke="#227cb3" stroke-width="1.7127" stroke-linecap="round" stroke-linejoin="round" stroke-miterlimit="10" x1="43.3" y1="33.9" x2="48.5" y2="33.4"/>
							</g>
							<g>
								
									<line fill="none" stroke="#227cb3" stroke-width="1.7127" stroke-linecap="round" stroke-linejoin="round" stroke-miterlimit="10" x1="71.3" y1="40.7" x2="75.3" y2="44"/>
								
									<line fill="none" stroke="#227cb3" stroke-width="1.7127" stroke-linecap="round" stroke-linejoin="round" stroke-miterlimit="10" x1="47.5" y1="20.6" x2="51.5" y2="24"/>
							</g>
							<g>
								
									<line fill="none" stroke="#227cb3" stroke-width="1.7127" stroke-linecap="round" stroke-linejoin="round" stroke-miterlimit="10" x1="53" y1="42.2" x2="49.7" y2="46.2"/>
								
									<line fill="none" stroke="#227cb3" stroke-width="1.7127" stroke-linecap="round" stroke-linejoin="round" stroke-miterlimit="10" x1="73.1" y1="18.5" x2="69.8" y2="22.4"/>
							</g>
						</g>
					</g>
				</g>
				<g>
					<g>
						<g>
							<path fill="#227cb3" d="M27.4,99.1V81.3H58v17.8C58,99.1,41.8,90,27.4,99.1"/>
							
								<path fill="none" stroke="#227cb3" stroke-width="2" stroke-linecap="round" stroke-linejoin="round" stroke-miterlimit="10" d="
								M26.8,80.9h31.5c1.2,0,1.6-1.5,0.6-2.1l-15.7-9.1c-0.3-0.2-0.8-0.2-1.1,0l-15.7,9.1C25.2,79.3,25.6,80.9,26.8,80.9z"/>
						</g>
						<g>
							<path fill="#227cb3" d="M83.3,88.2V74h30.7v20.2C113.9,94.2,103.1,82.4,83.3,88.2"/>
							
								<path fill="none" stroke="#227cb3" stroke-width="2" stroke-linecap="round" stroke-linejoin="round" stroke-miterlimit="10" d="
								M82.1,73.5h32.6c1,0,1.3-1.3,0.5-1.8l-16.3-9.4c-0.3-0.2-0.7-0.2-1,0l-16.3,9.4C80.8,72.2,81.1,73.5,82.1,73.5z"/>
						</g>
						<g>
							<path fill="#227cb3" d="M33.9,73.6V54.3H3.3v24.9l16.5-8.8c1.3-0.7,2.8-0.8,4.1-0.3L33.9,73.6z"/>
							
								<path fill="none" stroke="#227cb3" stroke-width="2" stroke-linecap="round" stroke-linejoin="round" stroke-miterlimit="10" d="
								M1.9,53.9H35c0.9,0,1.3-1.2,0.5-1.7l-16.5-9.6c-0.3-0.2-0.6-0.2-0.9,0L1.5,52.2C0.7,52.6,1,53.9,1.9,53.9z"/>
						</g>
						<g>
							<path fill="#227cb3" d="M134.8,59.7V40.5h-30.7v24.9l16.5-8.8c1.3-0.7,2.8-0.8,4.1-0.3L134.8,59.7z"/>
							
								<path fill="none" stroke="#227cb3" stroke-width="2" stroke-linecap="round" stroke-linejoin="round" stroke-miterlimit="10" d="
								M102.8,40h33.1c0.9,0,1.3-1.2,0.5-1.7l-16.5-9.6c-0.3-0.2-0.6-0.2-0.9,0l-16.5,9.6C101.5,38.8,101.9,40,102.8,40z"/>
						</g>
					</g>
				</g>
			</g>
			<path fill="none" stroke="#227cb3" stroke-width="2" stroke-linecap="round" stroke-linejoin="round" stroke-miterlimit="10" d="
				M11.1,113.7c4.8-10.5,16.2-17.6,29.5-17.9c4.2-0.1,7.9,0.6,11,1.7c7.2,2.4,15.1,1,21.1-3.7c5.6-4.3,12.8-6.9,20.7-6.9
				c13.2,0,24.5,7.3,29.4,17.6"/>
			<path fill="none" stroke="#227cb3" stroke-width="2" stroke-linecap="round" stroke-linejoin="round" stroke-miterlimit="10" d="
				M32.2,66.8c4.9-2.7,10.7-4.3,16.9-4.5c4.2-0.1,7.9,0.6,11,1.7c7.2,2.4,15.1,1,21.1-3.7c5.6-4.3,12.8-6.9,20.7-6.9"/>
		</g>
	</g>
</g>
<g id="נאות_שקד">
	<g opacity="0.3">
		<path display="none" fill="#020203" d="M-79.8,1165.8l2-18l24-51l64,19c0,0-9,46-11,53s-2,27-2,27l-51-3l-2-4h-15.5L-79.8,1165.8z
			"/>
	</g>
	<g>
		<g>
			<path display="none" fill="#FCAD95" d="M-80.8,1163.8l2-18l24-51l64,19c0,0-9,46-11,53s-2,27-2,27l-51-3l-2-4h-15.5L-80.8,1163.8
				z"/>
		</g>
	</g>
</g>
</svg>
