<?xml version="1.0" encoding="utf-8"?>
<!-- Generator: Adobe Illustrator 24.0.3, SVG Export Plug-In . SVG Version: 6.00 Build 0)  -->
<svg version="1.1" id="Слой_1" xmlns:xodm="http://www.corel.com/coreldraw/odm/2003"
	 xmlns="http://www.w3.org/2000/svg" xmlns:xlink="http://www.w3.org/1999/xlink" x="0px" y="0px" width="238.2px" height="34.1px"
	 viewBox="0 0 238.2 34.1" style="enable-background:new 0 0 238.2 34.1;" xml:space="preserve">
<style type="text/css">
	.st0{fill:#FFFFFF;}
	.st1{fill-rule:evenodd;clip-rule:evenodd;fill:#8ECF12;}
</style>
<g id="Слой_x0020_1">
	<g id="_1735757478288">
		<g>
			<path class="st0" d="M12.4,24.5c-0.9,0-1.8-0.1-2.6-0.3c-0.8-0.2-1.5-0.4-2.2-0.7c-0.6-0.3-1.2-0.6-1.7-0.9
				c-0.5-0.3-0.8-0.5-1.1-0.7c-0.2-0.2-0.4-0.3-0.4-0.3l-4.4,7c0,0,0.1,0.1,0.4,0.4c0.2,0.3,0.6,0.6,1.1,1c0.5,0.4,1.1,0.9,1.9,1.3
				c0.8,0.5,1.7,0.9,2.8,1.3c1.1,0.4,2.3,0.8,3.7,1c1.4,0.3,2.9,0.4,4.6,0.4c2,0,3.9-0.3,5.5-0.9c1.6-0.6,3-1.4,4.2-2.3
				c1.2-1,2-2.1,2.6-3.4c0.6-1.3,0.9-2.6,0.9-3.9c0-1.5-0.2-2.7-0.7-3.8c-0.4-1.1-1-2-1.8-2.8c-0.7-0.8-1.6-1.4-2.5-1.9
				c-0.9-0.5-1.8-1-2.7-1.4c-0.9-0.4-1.7-0.7-2.5-1c-0.7-0.3-1.3-0.6-1.8-0.8c-0.5-0.3-0.7-0.6-0.7-0.9c0-0.2,0.1-0.5,0.2-0.7
				c0.1-0.2,0.4-0.4,0.6-0.5c0.3-0.1,0.6-0.2,1-0.2c0.7,0,1.3,0.1,1.9,0.3c0.6,0.2,1.2,0.4,1.7,0.6c0.5,0.3,0.9,0.5,1.3,0.8
				c0.4,0.2,0.7,0.5,0.9,0.6c0.2,0.2,0.3,0.3,0.3,0.3l4.4-7c0,0-0.1-0.1-0.3-0.4c-0.2-0.2-0.6-0.6-1.1-0.9c-0.5-0.4-1-0.8-1.7-1.2
				c-0.7-0.4-1.5-0.8-2.5-1.2c-0.9-0.4-2-0.7-3.1-0.9C17.6,0.1,16.3,0,14.9,0c-2,0-3.9,0.3-5.5,0.9c-1.6,0.6-3,1.4-4.2,2.3
				c-1.2,1-2,2.1-2.7,3.4c-0.6,1.2-0.9,2.6-0.9,3.9c0,1.5,0.2,2.7,0.7,3.8c0.4,1.1,1,2,1.8,2.8c0.7,0.8,1.6,1.4,2.5,1.9
				c0.9,0.5,1.8,1,2.7,1.4c0.9,0.4,1.7,0.7,2.5,1c0.7,0.3,1.3,0.6,1.8,0.8c0.5,0.3,0.7,0.6,0.7,0.9c0,0.2-0.1,0.5-0.2,0.7
				c-0.1,0.2-0.4,0.4-0.6,0.5C13.1,24.4,12.8,24.5,12.4,24.5L12.4,24.5z M29.2,0.7l9.1,32.7h15.9l9.1-32.7H49.7l-3.5,19.2L42.7,0.7
				C42.7,0.7,29.2,0.7,29.2,0.7z M76.6,24.5c-0.9,0-1.8-0.1-2.6-0.3s-1.5-0.4-2.2-0.7c-0.7-0.3-1.2-0.6-1.7-0.9
				c-0.5-0.3-0.8-0.5-1.1-0.7c-0.2-0.2-0.4-0.3-0.4-0.3l-4.4,7c0,0,0.1,0.1,0.4,0.4c0.2,0.3,0.6,0.6,1.1,1c0.5,0.4,1.1,0.9,1.9,1.3
				c0.8,0.5,1.7,0.9,2.8,1.3c1.1,0.4,2.3,0.8,3.7,1c1.4,0.3,2.9,0.4,4.6,0.4c2,0,3.9-0.3,5.5-0.9c1.6-0.6,3-1.4,4.2-2.3
				c1.2-1,2-2.1,2.7-3.4c0.6-1.3,0.9-2.6,0.9-3.9c0-1.5-0.2-2.7-0.7-3.8c-0.4-1.1-1-2-1.8-2.8c-0.7-0.8-1.6-1.4-2.5-1.9
				c-0.9-0.5-1.8-1-2.7-1.4c-0.9-0.4-1.7-0.7-2.5-1c-0.7-0.3-1.3-0.6-1.8-0.8c-0.5-0.3-0.7-0.6-0.7-0.9c0-0.2,0.1-0.5,0.2-0.7
				c0.1-0.2,0.4-0.4,0.6-0.5c0.3-0.1,0.6-0.2,1-0.2c0.7,0,1.3,0.1,1.9,0.3c0.6,0.2,1.2,0.4,1.7,0.6c0.5,0.3,1,0.5,1.3,0.8
				c0.4,0.2,0.7,0.5,0.9,0.6c0.2,0.2,0.3,0.3,0.3,0.3l4.4-7c0,0-0.1-0.1-0.3-0.4c-0.2-0.2-0.6-0.6-1-0.9c-0.5-0.4-1-0.8-1.7-1.2
				c-0.7-0.4-1.5-0.8-2.5-1.2c-0.9-0.4-2-0.7-3.2-0.9C81.8,0.1,80.6,0,79.2,0c-2,0-3.9,0.3-5.5,0.9c-1.6,0.6-3,1.4-4.2,2.3
				c-1.2,1-2,2.1-2.6,3.4c-0.6,1.2-0.9,2.6-0.9,3.9c0,1.5,0.2,2.7,0.7,3.8c0.4,1.1,1,2,1.8,2.8s1.6,1.4,2.5,1.9
				c0.9,0.5,1.8,1,2.7,1.4c0.9,0.4,1.7,0.7,2.5,1c0.7,0.3,1.3,0.6,1.8,0.8c0.5,0.3,0.7,0.6,0.7,0.9c0,0.2-0.1,0.5-0.2,0.7
				c-0.1,0.2-0.4,0.4-0.6,0.5C77.3,24.4,77,24.5,76.6,24.5L76.6,24.5z M118.8,0.7H103l-9.6,32.7h13.5l0.9-4.7h6.1l0.9,4.7h13.5
				c0,0-0.1-0.3-0.3-0.9c-0.2-0.6-0.4-1.4-0.7-2.5c-0.3-1.1-0.7-2.3-1.1-3.6c-0.4-1.4-0.8-2.8-1.3-4.4c-0.5-1.6-0.9-3.2-1.4-4.8
				c-0.5-1.6-0.9-3.3-1.4-4.8c-0.5-1.6-0.9-3.1-1.3-4.4c-0.4-1.4-0.8-2.6-1.1-3.7c-0.3-1.1-0.6-1.9-0.7-2.5
				C118.9,1,118.9,0.7,118.8,0.7L118.8,0.7z M109.3,21.3l1.6-8.4l1.6,8.4H109.3z M151.8,33.4h13.5V0.7h-12.1v14.5l-7.9-14.5h-13.5
				v32.7h12.1V18.9L151.8,33.4z"/>
			<g>
				<path class="st1" d="M182.7,0.7h50.5c2.8,0,5.1,2.3,5.1,5.2V29c0,2.8-2.3,5.1-5.1,5.1h-50.5c-2.8,0-5-2.3-5-5.1V5.9
					C177.6,3,179.9,0.7,182.7,0.7z"/>
				<path class="st0" d="M185.8,19.8v6.4h6.7v-6.4H185.8z M203.3,11.2l-0.6-1.9h-7.3v16.8h7.6v-7c0-0.7,0.1-1.4,0.4-1.9
					c0.3-0.5,0.6-0.9,1-1.2c0.4-0.3,0.9-0.4,1.4-0.4c0.2,0,0.5,0,0.7,0.1c0.2,0.1,0.5,0.1,0.7,0.2c0.2,0.1,0.4,0.1,0.5,0.2
					c0.1,0.1,0.2,0.1,0.2,0.1l1.3-7c0,0-0.1,0-0.3-0.1c-0.2-0.1-0.4-0.1-0.8-0.2c-0.3-0.1-0.7-0.1-1.1-0.1c-0.5,0-1,0.1-1.4,0.2
					c-0.4,0.2-0.8,0.3-1.1,0.6c-0.3,0.2-0.6,0.5-0.8,0.7c-0.2,0.2-0.3,0.4-0.4,0.6C203.3,11.1,203.3,11.2,203.3,11.2L203.3,11.2
					L203.3,11.2z M216.3,26.6c0.6,0,1.1-0.1,1.5-0.2c0.4-0.2,0.8-0.4,1.2-0.6c0.3-0.2,0.6-0.5,0.8-0.7c0.2-0.2,0.4-0.4,0.5-0.6
					c0.1-0.2,0.1-0.2,0.1-0.2l0.6,1.9h7.3V9.3h-7.6v8.9c0,0.4-0.1,0.8-0.2,1.1c-0.1,0.3-0.3,0.5-0.5,0.6c-0.2,0.1-0.4,0.2-0.6,0.2
					c-0.2,0-0.4-0.1-0.6-0.2c-0.2-0.1-0.3-0.4-0.5-0.6c-0.1-0.3-0.2-0.6-0.2-1.1V9.3h-7.6v8.9c0,1.5,0.2,2.7,0.4,3.8
					c0.3,1.1,0.7,1.9,1.2,2.6c0.5,0.7,1.1,1.2,1.8,1.5C214.7,26.4,215.5,26.6,216.3,26.6L216.3,26.6z"/>
			</g>
		</g>
	</g>
</g>
</svg>
