<?xml version="1.0" encoding="utf-8"?>
<!-- Generator: Adobe Illustrator 24.0.3, SVG Export Plug-In . SVG Version: 6.00 Build 0)  -->
<svg version="1.1" id="Слой_1" xmlns="http://www.w3.org/2000/svg" xmlns:xlink="http://www.w3.org/1999/xlink" x="0px" y="0px"
	 width="36px" height="28px" viewBox="0 0 36 28" style="enable-background:new 0 0 36 28;" xml:space="preserve">
<style type="text/css">
	.st0{fill:#FFFFFF;filter:url(#Adobe_OpacityMaskFilter);}
	.st1{mask:url(#path-1-inside-1_1_);fill:#5AC37D;}
	.st2{fill:none;stroke:#5AC37D;stroke-width:2;}
</style>
<defs>
	<filter id="Adobe_OpacityMaskFilter" filterUnits="userSpaceOnUse" x="-2" y="-2" width="34" height="32">
		<feColorMatrix  type="matrix" values="1 0 0 0 0  0 1 0 0 0  0 0 1 0 0  0 0 0 1 0"/>
	</filter>
</defs>
<mask maskUnits="userSpaceOnUse" x="-2" y="-2" width="34" height="32" id="path-1-inside-1_1_">
	<path class="st0" d="M30,23v1.5c0,0.5-0.1,0.9-0.3,1.3c-0.2,0.4-0.5,0.8-0.8,1.1c-0.3,0.3-0.7,0.6-1.2,0.8
		c-0.4,0.2-0.9,0.3-1.4,0.3H3.6c-1,0-1.9-0.4-2.6-1C0.4,26.3,0,25.4,0,24.5v-21C0,2.6,0.4,1.7,1.1,1c0.7-0.7,1.6-1,2.6-1h22.7
		c1,0,1.9,0.4,2.6,1C29.6,1.7,30,2.6,30,3.5v4.1"/>
</mask>
<path class="st1" d="M30,24.5h-2v0L30,24.5z M26.4,28v-2V28z M3.6,28v2V28z M0,3.5h-2H0z M26.4,0v2V0z M28,23v1.5h4V23H28z M28,24.5
	c0,0.2,0,0.4-0.1,0.5l3.7,1.6c0.3-0.7,0.4-1.4,0.4-2.1L28,24.5z M27.9,25.1c-0.1,0.2-0.2,0.3-0.3,0.5l2.8,2.9
	c0.5-0.5,0.9-1.1,1.2-1.8L27.9,25.1z M27.5,25.5c-0.1,0.1-0.3,0.3-0.5,0.3l1.5,3.7c0.7-0.3,1.3-0.7,1.8-1.2L27.5,25.5z M27,25.9
	C26.8,26,26.6,26,26.4,26v4c0.7,0,1.5-0.1,2.1-0.4L27,25.9z M26.4,26H3.6v4h22.7V26z M3.6,26c-0.5,0-0.9-0.2-1.2-0.5l-2.8,2.9
	c1.1,1,2.5,1.6,4,1.6V26z M2.5,25.5c-0.3-0.3-0.5-0.7-0.5-1h-4c0,1.5,0.6,2.9,1.7,3.9L2.5,25.5z M2,24.5v-21h-4v21H2z M2,3.5
	c0-0.4,0.2-0.7,0.5-1l-2.8-2.9C-1.4,0.6-2,2-2,3.5H2z M2.5,2.5C2.8,2.2,3.2,2,3.6,2v-4c-1.5,0-2.9,0.6-4,1.6L2.5,2.5z M3.6,2h22.7
	v-4H3.6V2z M26.4,2c0.5,0,0.9,0.2,1.2,0.5l2.8-2.9c-1.1-1-2.5-1.6-4-1.6V2z M27.5,2.5c0.3,0.3,0.5,0.7,0.5,1h4
	c0-1.5-0.6-2.9-1.7-3.9L27.5,2.5z M28,3.5v4.1h4V3.5H28z"/>
<path class="st2" d="M0.8,7H30"/>
<path class="st2" d="M21.1,22.8l0.4-2.9L32.1,9l2.5,2.5L23.9,22.4L21.1,22.8z"/>
<path class="st2" d="M32.3,14.5l-3-3"/>
</svg>
