<svg width="33" height="33" viewBox="0 0 33 33" fill="none" xmlns="http://www.w3.org/2000/svg">
<mask id="path-1-inside-1" fill="white">
<path d="M14.667 2.94064V0H29.3336C30.306 0 31.2386 0.386305 31.9263 1.07393C32.6139 1.76156 33.0002 2.69418 33.0002 3.66664V27.4998H24"/>
</mask>
<path d="M14.667 0V-2H12.667V0H14.667ZM29.3336 0V-2V0ZM33.0002 27.4998V29.4998H35.0002V27.4998H33.0002ZM16.667 2.94064V0H12.667V2.94064H16.667ZM14.667 2H29.3336V-2H14.667V2ZM29.3336 2C29.7756 2 30.1995 2.17559 30.5121 2.48815L33.3405 -0.340281C32.2778 -1.40298 30.8364 -2 29.3336 -2V2ZM30.5121 2.48815C30.8246 2.8007 31.0002 3.22462 31.0002 3.66664H35.0002C35.0002 2.16375 34.4032 0.722419 33.3405 -0.340281L30.5121 2.48815ZM31.0002 3.66664V27.4998H35.0002V3.66664H31.0002ZM33.0002 25.4998H24V29.4998H33.0002V25.4998Z" fill="#5AC37D" mask="url(#path-1-inside-1)"/>
<path d="M1 29.4V7H21V32H4.4C3.44057 32 2.55121 31.6865 1.92197 31.1716C1.29831 30.6614 1 30.0174 1 29.4Z" stroke="#5AC37D" stroke-width="2"/>
<path d="M5 18H17" stroke="#5AC37D" stroke-width="2"/>
<path d="M5 14H17" stroke="#5AC37D" stroke-width="2"/>
<path d="M4.91504 22.0908H11.9431" stroke="#5AC37D" stroke-width="2"/>
</svg>
