<svg width="94" height="88" viewBox="0 0 94 88" fill="none" xmlns="http://www.w3.org/2000/svg">
<path d="M43.0001 0L81.1053 22V66L43.0001 88L4.89502 66V22L43.0001 0Z" fill="#94949A"/>
<path d="M43.2059 5.29413L77.3629 24.75V63.6618L43.2059 83.1177L9.04883 63.6618V24.75L43.2059 5.29413Z" fill="#2B2936"/>
<path d="M43.9707 60V55.4926H44.7648C45.956 55.4926 46.9486 55.1838 47.7428 54.5662C48.581 53.9485 49.3531 52.6471 50.0589 50.6618L68.5 10L73.4854 11.75L87.3163 50.7279C87.9781 52.5809 88.706 53.8382 89.5001 54.5C90.3383 55.1618 91.2869 55.4926 92.3457 55.4926H93.5369V60H71.6986V55.4926H74.2795C74.9413 55.4926 75.581 55.2941 76.1986 54.8971C76.8163 54.5 77.1251 53.8382 77.1251 52.9118C77.1251 52.3824 77.0589 51.875 76.9266 51.3897C76.7942 50.8603 76.6619 50.4191 76.5295 50.0662L74.2134 43.4485H58.1325L56.2134 49.1397C56.0369 49.6691 55.8604 50.3088 55.6839 51.0588C55.5075 51.7647 55.4192 52.3824 55.4192 52.9118C55.4192 53.75 55.7281 54.3897 56.3457 54.8309C56.9634 55.2721 57.6472 55.4926 58.3972 55.4926H61.1766V60H43.9707ZM59.5222 39.4118H72.8898L69.3825 28.5588C68.9413 27.0588 68.4339 25.3824 67.8604 23.5294C67.331 21.6765 66.8898 19.9779 66.5369 18.4338C66.1398 19.8456 65.6545 21.4559 65.081 23.2647C64.5075 25.0294 63.956 26.6838 63.4266 28.2279L59.5222 39.4118Z" fill="#2B2936"/>
<path d="M38.9707 57V53.4926H39.7648C40.956 53.4926 41.9486 53.1838 42.7428 52.5662C43.581 51.9485 44.3531 50.6471 45.0589 48.6618L59.4192 9.75H68.4854L82.3163 48.7279C82.9781 50.5809 83.706 51.8382 84.5001 52.5C85.3383 53.1618 86.2869 53.4926 87.3457 53.4926H88.5369V57H66.6986V53.4926H69.2795C69.9413 53.4926 70.581 53.2941 71.1986 52.8971C71.8163 52.5 72.1251 51.8382 72.1251 50.9118C72.1251 50.3824 72.0589 49.875 71.9266 49.3897C71.7942 48.8603 71.6619 48.4191 71.5295 48.0662L69.2134 41.4485H53.1325L51.2134 47.1397C51.0369 47.6691 50.8604 48.3088 50.6839 49.0588C50.5075 49.7647 50.4192 50.3824 50.4192 50.9118C50.4192 51.75 50.7281 52.3897 51.3457 52.8309C51.9634 53.2721 52.6472 53.4926 53.3972 53.4926H56.1766V57H38.9707ZM54.5222 37.4118H67.8898L64.3825 26.5588C63.9413 25.0588 63.4339 23.3824 62.8604 21.5294C62.331 19.6765 61.8898 17.9779 61.5369 16.4338C61.1398 17.8456 60.6545 19.4559 60.081 21.2647C59.5075 23.0294 58.956 24.6838 58.4266 26.2279L54.5222 37.4118Z" fill="white"/>
<path d="M5.26465 72.7059L0.5 69.5L6.05877 69.1985C7.24994 69.1985 8.24259 68.8897 9.03671 68.272C9.87494 67.6544 10.647 66.3529 11.3529 64.3676L25.7132 25.4559H34.7794L48.6102 64.4338C49.272 66.2868 49.9999 67.5441 50.7941 68.2059C51.6323 68.8676 52.5808 69.1985 53.6396 69.1985H54.8308V72.7059H32.9926V69.1985H35.5735C36.2352 69.1985 36.8749 69 37.4926 68.6029C38.1102 68.2059 38.4191 67.5441 38.4191 66.6176C38.4191 66.0882 38.3529 65.5809 38.2205 65.0956C38.0882 64.5662 37.9558 64.125 37.8235 63.772L35.5073 57.1544H19.4264L17.5073 62.8456C17.3308 63.375 17.1544 64.0147 16.9779 64.7647C16.8014 65.4706 16.7132 66.0882 16.7132 66.6176C16.7132 67.4559 17.022 68.0956 17.6396 68.5368C18.2573 68.9779 18.9411 69.1985 19.6911 69.1985H25.5V72.7059H5.26465ZM20.8161 53.1176H34.1838L30.6764 42.2647C30.2352 40.7647 29.7279 39.0882 29.1544 37.2353C28.6249 35.3823 28.1838 33.6838 27.8308 32.1397C27.4338 33.5515 26.9485 35.1618 26.3749 36.9706C25.8014 38.7353 25.2499 40.3897 24.7205 41.9338L20.8161 53.1176Z" fill="#2B2936"/>
<path d="M0.264648 69.7059V66.1985H1.05877C2.24994 66.1985 3.24259 65.8897 4.03671 65.272C4.87494 64.6544 5.647 63.3529 6.35288 61.3676L20.7132 22.4559H29.7794L43.6102 61.4338C44.272 63.2868 44.9999 64.5441 45.7941 65.2059C46.6323 65.8676 47.5808 66.1985 48.6396 66.1985H49.8308V69.7059H27.9926V66.1985H30.5735C31.2352 66.1985 31.8749 66 32.4926 65.6029C33.1102 65.2059 33.4191 64.5441 33.4191 63.6176C33.4191 63.0882 33.3529 62.5809 33.2205 62.0956C33.0882 61.5662 32.9558 61.125 32.8235 60.772L30.5073 54.1544H14.4264L12.5073 59.8456C12.3308 60.375 12.1544 61.0147 11.9779 61.7647C11.8014 62.4706 11.7132 63.0882 11.7132 63.6176C11.7132 64.4559 12.022 65.0956 12.6396 65.5368C13.2573 65.9779 13.9411 66.1985 14.6911 66.1985H17.4705V69.7059H0.264648ZM15.8161 50.1176H29.1838L25.6764 39.2647C25.2352 37.7647 24.7279 36.0882 24.1544 34.2353C23.6249 32.3823 23.1838 30.6838 22.8308 29.1397C22.4338 30.5515 21.9485 32.1618 21.3749 33.9706C20.8014 35.7353 20.2499 37.3897 19.7205 38.9338L15.8161 50.1176Z" fill="white"/>
</svg>
