<svg width="755" height="537" viewBox="0 0 755 537" fill="none" xmlns="http://www.w3.org/2000/svg">
<path d="M330.533 17.075C329.745 17.3332 329.317 18.1806 329.575 18.9678C329.833 19.755 330.68 20.1838 331.467 19.9256L330.533 17.075ZM689 88.0003L690.017 86.8975L689 88.0003ZM705 370L703.817 369.078L705 370ZM349.5 535L349.45 533.501L349.5 535ZM2.12099 456.135C1.36688 455.792 0.47754 456.125 0.134578 456.879C-0.208383 457.633 0.124912 458.523 0.879014 458.866L2.12099 456.135ZM331.467 19.9256C367.603 8.07372 427.675 -1.46505 493.27 5.39781C558.85 12.2592 629.849 35.5023 687.983 89.1031L690.017 86.8975C631.286 32.7467 559.618 9.32317 493.582 2.4141C427.559 -4.49347 367.063 5.09357 330.533 17.075L331.467 19.9256ZM687.983 89.1031C742.088 138.988 755.21 197.151 750.244 248.77C745.27 300.461 722.149 345.571 703.817 369.078L706.183 370.923C724.816 347.031 748.195 301.391 753.23 249.057C758.272 196.65 744.912 137.512 690.017 86.8975L687.983 89.1031ZM703.817 369.078C642.093 448.224 514.51 528.016 349.45 533.501L349.55 536.499C515.49 530.985 643.907 450.776 706.183 370.923L703.817 369.078ZM349.45 533.501C217.388 537.89 62.8692 483.763 2.12099 456.135L0.879014 458.866C61.7975 486.571 216.812 540.911 349.55 536.499L349.45 533.501Z" fill="#FFE9BE"/>
</svg>
