<svg width="100" height="100" viewBox="0 0 100 100" fill="none" xmlns="http://www.w3.org/2000/svg">
<circle cx="50" cy="50" r="50" fill="#FFB520"/>
<path d="M29 72L31.0696 66.4264M29 72L34.4128 69.8689M29 72H71M34.4128 57.4229C36.2452 57.1768 36.7241 58.1571 37.3274 60.4241M34.4128 57.4229L52.7331 38.5585M34.4128 57.4229L31.0696 66.4264M43.1566 66.4264C43.0884 64.7393 42.5034 64.1934 40.6584 63.854M43.1566 66.4264L61.4769 47.562M43.1566 66.4264L34.4128 69.8689M40.6584 63.854C39.8811 61.7375 39.1774 60.9486 37.3274 60.4241M40.6584 63.854L58.9571 45.0117M37.3274 60.4241L55.6477 41.5596M61.4769 47.562L69.3879 39.416C74.8007 33.8424 65.2242 25.6962 60.6441 30.4125L52.7331 38.5585M61.4769 47.562L52.7331 38.5585M63.9751 44.9897L55.2313 35.9862M31.0696 66.4264L34.4128 69.8689" stroke="#7B5302" stroke-width="1.5"/>
</svg>
