<?xml version="1.0" encoding="UTF-8"?>
<!DOCTYPE svg PUBLIC "-//W3C//DTD SVG 1.1//EN" "http://www.w3.org/Graphics/SVG/1.1/DTD/svg11.dtd">
<!-- Creator: CorelDRAW 2017 -->
<svg xmlns="http://www.w3.org/2000/svg" xml:space="preserve" width="100px" height="100px" version="1.1" style="shape-rendering:geometricPrecision; text-rendering:geometricPrecision; image-rendering:optimizeQuality; fill-rule:evenodd; clip-rule:evenodd"
viewBox="0 0 100 100"
 xmlns:xlink="http://www.w3.org/1999/xlink">
 <defs>
  <style type="text/css">
   <![CDATA[
    .str1 {stroke:black;stroke-width:8.86;stroke-miterlimit:22.9256}
    .str0 {stroke:black;stroke-width:5;stroke-miterlimit:22.9256}
    .fil0 {fill:none}
   ]]>
  </style>
 </defs>
 <g id="Слой_x0020_1">
  <metadata id="CorelCorpID_0Corel-Layer"/>
  <path class="fil0 str0" d="M95.24 55.3c-4.63,3.33 -31.38,2.29 -48.6,3.05 -12.29,0.55 -26.88,7.25 -42.26,5.91 0,0 0,-4.13 0,-9.03 51.34,0.05 90.86,0.07 90.86,0.07z"/>
  <path class="fil0 str0" d="M99.5 92.41c-62.32,-0.08 -96.82,-0.36 -96.82,-0.36 0,0 0,-19.32 0,-39.22"/>
  <path class="fil0 str0" d="M97.07 52.89c0,20.38 0,40.59 0,40.59"/>
  <path class="fil0 str1" d="M32.89 57.89c-21.75,2.08 -28.51,1.86 -28.51,1.86"/>
  <path class="fil0 str1" d="M32.23 57.26c2.16,1.04 3.23,1.56 3.23,1.56"/>
  <g id="_889196640">
   <path class="fil0 str0" d="M2.5 14.16c0.2,-10.07 15.04,-9.99 16.05,-0.91"/>
   <path class="fil0 str0" d="M14.83 17.23c0.52,-6.03 3.59,-7.51 9.2,-4.42 -2.78,1.27 -5.85,2.74 -9.2,4.42z"/>
   <line class="fil0 str0" x1="2.51" y1="13.99" x2="2.68" y2= "54.04" />
  </g>
 </g>
</svg>
