<?xml version="1.0" encoding="UTF-8"?>
<!DOCTYPE svg PUBLIC "-//W3C//DTD SVG 1.1//EN" "http://www.w3.org/Graphics/SVG/1.1/DTD/svg11.dtd">
<!-- Creator: CorelDRAW 2017 -->
<svg xmlns="http://www.w3.org/2000/svg" xml:space="preserve" width="100px" height="100px" version="1.1" style="shape-rendering:geometricPrecision; text-rendering:geometricPrecision; image-rendering:optimizeQuality; fill-rule:evenodd; clip-rule:evenodd"
viewBox="0 0 100 100"
 xmlns:xlink="http://www.w3.org/1999/xlink">
 <defs>
  <style type="text/css">
   <![CDATA[
    .str1 {stroke:black;stroke-width:8.86;stroke-miterlimit:22.9256}
    .str0 {stroke:black;stroke-width:5;stroke-miterlimit:22.9256}
    .fil0 {fill:none}
   ]]>
  </style>
 </defs>
 <g id="Слой_x0020_1">
  <metadata id="CorelCorpID_0Corel-Layer"/>
  <path class="fil0 str0" d="M81.5 53.23c-15.67,4.68 -41.94,6.21 -78.82,6.39 0,0 0,-1.56 0,-6.46 52.55,0.05 78.82,0.07 78.82,0.07z"/>
  <path class="fil0 str0" d="M99.61 89.8c-62.4,-0.07 -96.93,-0.35 -96.93,-0.35 0,0 0,-16.37 0,-36.29"/>
  <path class="fil0 str0" d="M97.19 50.82c-0.01,21 -0.01,41.4 -0.01,41.4"/>
  <line class="fil0 str1" x1="52.97" y1="55.39" x2="3.82" y2= "56.37" />
  <g id="_887890352">
   <path class="fil0 str0" d="M2.5 13.57c0.2,-10.11 15.1,-10.03 16.11,-0.91"/>
   <path class="fil0 str0" d="M14.87 16.65c0.53,-6.06 3.61,-7.53 9.24,-4.44 -2.79,1.28 -5.87,2.75 -9.24,4.44z"/>
   <line class="fil0 str0" x1="2.5" y1="13.39" x2="2.68" y2= "53.61" />
  </g>
 </g>
</svg>
