<!-- SVG Sprite -->
<svg width="0" height="0" class="hidden">
  <symbol xmlns="http://www.w3.org/2000/svg" viewBox="0 0 117 47.4" id="logo">
    <path d="M43.5 18.3h-.3s-.4 2.1-1.3 4l-1.7 3.4h3.6l-.5-3.3c-.2-2 .2-4.1.2-4.1zm30.5-.8c-2 0-2.8.7-3 1.9-.2 1.2.3 1.8 2.3 1.8 1.3 0 2.2-.2 2.7-.3l.2-1.1c.3-1.5-.2-2.3-2.2-2.3z"></path>
    <path d="M114.3 0L0 7.8l2.7 39.6L117 39.6 114.3 0zm-86 37.7h-3.1c-.9 0-1.1-.3-1-1.2l.5-3.2H14.2l-.5 3.2c-.2.9-.5 1.2-1.4 1.2H9.1c-.9 0-1.1-.3-1-1.2l1.2-7c.2-.9.5-1.2 1.4-1.2h.6c1.7-1.2 2.8-3 3.6-7.6l1.1-6.5c.1-.9.5-1.2 1.4-1.2h12.5c.9 0 1.2.3 1 1.2l-2.5 14.1h1.4c.9 0 1.2.3 1 1.2l-1.2 7c0 .9-.4 1.2-1.3 1.2zm21.2-4.3h-2.9c-1.5 0-1.9-.3-1.9-1.2l-.3-2.1h-6.2l-1 2.1c-.4.9-.9 1.2-2.3 1.2h-3.1c-.9 0-1-.4-.5-1.2l9.8-18.1c.4-.8.8-1 1.7-1H46c.8 0 1.2.2 1.3.9l3.4 18.2c0 .8-.3 1.2-1.2 1.2zm13.3-11l-.4 2.4c-.1.9-.5 1.2-1.4 1.2h-6.6c-.9 0-1.2-.3-1-1.2l.4-2.4c.2-.9.5-1.2 1.4-1.2h6.6c.9 0 1.1.3 1 1.2zm18.9-1.7l-1 5.7c-.9 4.9-4.2 7.4-9.5 7.4-4.3 0-6.6-1.5-7.2-4.5-.2-.9.1-1.2 1-1.5l2.8-1c.9-.3 1.1.1 1.4.8.4.9 1 1.3 2.6 1.3 1.9 0 3-.8 3.3-2.7l.1-.5c-.7.1-1.7.2-3 .2-5.5 0-7.6-2.2-6.8-6.6.8-4.4 4.3-6.6 9.4-6.6 5.5 0 7.8 3.1 6.9 8zm16.5-2.6H91l-.5 2h2c5.3 0 7 3.1 6.3 6.9-.7 3.9-3.7 6.8-8.8 6.8-4.6 0-7-1.5-7.6-4.7-.2-.9.1-1.2 1-1.5l3.3-1.1c.8-.3 1.2-.2 1.4.7.3 1 .9 1.6 2.5 1.6 1.3 0 2.2-.7 2.5-2.1.2-1.3-.4-1.9-1.9-1.9h-6c-1 0-1.3-.4-1-1.4l2.3-8.5c.4-1.3.9-1.7 2.2-1.7h10.5c.9 0 1.2.3 1 1.2l-.5 2.6c-.2.8-.6 1.1-1.5 1.1zm7.8 12.3l-.2 1c-.3 1.7-.9 2.2-2.7 2.2h-1.4c-1.7 0-2.1-.5-1.9-2.2l.2-1c.3-1.7.9-2.2 2.7-2.2h1.4c1.8 0 2.2.5 1.9 2.2zm2.8-17.1l-2.7 12.3c-.2.8-.4 1.1-1.3 1.1h-2.3c-.8 0-1-.3-.9-1.1l1.7-12.3c.1-.8.5-1.1 1.3-1.1h3.2c.9.1 1.2.3 1 1.1z"></path>
    <path d="M20.5 20.8c-.6 3.5-1.5 5.9-2.7 7.6h5.1l1.8-10.3h-3.8l-.4 2.7z"></path>
  </symbol>
</svg>