<?xml version="1.0" encoding="utf-8"?>
<!-- Generator: Adobe Illustrator 24.0.3, SVG Export Plug-In . SVG Version: 6.00 Build 0)  -->
<svg version="1.1" id="Слой_1" xmlns="http://www.w3.org/2000/svg" xmlns:xlink="http://www.w3.org/1999/xlink" x="0px" y="0px"
	 viewBox="0 0 70 50.9" style="enable-background:new 0 0 70 50.9;" xml:space="preserve">
<style type="text/css">
	.st0{fill:#0057FF;}
</style>
<path class="st0" d="M67.6,0H2.4C1.1,0,0,1.1,0,2.4v46.1c0,1.3,1.1,2.4,2.4,2.4h65.3c1.3,0,2.4-1.1,2.4-2.4V2.4
	C70,1.1,68.9,0,67.6,0z M65.3,46.1H4.7V4.7h60.5V46.1z"/>
<path class="st0" d="M11,15.9l22.8,14c0.4,0.2,0.8,0.4,1.2,0.4c0.4,0,0.9-0.1,1.2-0.4l22.8-14c1.1-0.7,1.5-2.1,0.8-3.3
	c-0.7-1.1-2.2-1.5-3.3-0.8L35,25.2L13.5,11.9c-1.1-0.7-2.6-0.3-3.3,0.8C9.5,13.8,9.9,15.2,11,15.9z"/>
</svg>
