<?xml version="1.0" encoding="utf-8"?>
<!-- Generator: Adobe Illustrator 25.2.1, SVG Export Plug-In . SVG Version: 6.00 Build 0)  -->
<svg version="1.1" id="Слой_1" xmlns="http://www.w3.org/2000/svg" xmlns:xlink="http://www.w3.org/1999/xlink" x="0px" y="0px"
	 viewBox="0 0 21.1 15.2" style="enable-background:new 0 0 21.1 15.2;" xml:space="preserve">
<style type="text/css">
	.st0{fill:none;stroke:#AD9A60;stroke-miterlimit:10;}
</style>
<path class="st0" d="M20.2,2.7c-0.2-0.9-0.9-1.6-1.8-1.8c-1.6-0.4-7.9-0.4-7.9-0.4s-6.3,0-7.9,0.4C1.8,1.2,1.2,1.8,0.9,2.7
	C0.5,4.3,0.5,7.6,0.5,7.6s0,3.3,0.4,4.9c0.2,0.9,0.9,1.6,1.8,1.8c1.6,0.4,7.9,0.4,7.9,0.4s6.3,0,7.9-0.4c0.9-0.2,1.5-0.9,1.8-1.8
	c0.4-1.6,0.4-4.9,0.4-4.9S20.6,4.3,20.2,2.7z M8.5,10.6v-6l5.3,3L8.5,10.6z"/>
</svg>
