<svg width="17" height="18" viewBox="0 0 17 18" fill="none" xmlns="http://www.w3.org/2000/svg">
<path d="M17.0005 6.99961V1.36861L14.8995 3.46961C13.3625 1.92961 11.2425 0.974609 8.89453 0.974609C4.20053 0.974609 0.394531 4.78061 0.394531 9.47461C0.394531 14.1686 4.20053 17.9746 8.89453 17.9746C12.0535 17.9746 14.8045 16.2476 16.2695 13.6886L14.5325 12.6956C13.4105 14.6506 11.3065 15.9736 8.89453 15.9736C5.31053 15.9736 2.39453 13.0576 2.39453 9.47361C2.39453 5.88961 5.31053 2.97361 8.89453 2.97361C10.6865 2.97361 12.3085 3.70561 13.4845 4.88361L11.3695 6.99961H17.0005Z" fill="white"/>
</svg>
