<svg width="264" height="69" viewBox="0 0 264 69" fill="none" xmlns="http://www.w3.org/2000/svg">
<path fill-rule="evenodd" clip-rule="evenodd" d="M22.6097 61.3974C18.8349 61.3974 6.46836 55.9493 5.68066 50.8299C5.68066 40.8942 5.68066 30.9585 5.68066 21.0227H22.5548H22.6648H39.5387C39.5387 30.9585 39.5387 40.8942 39.5387 50.8299C38.7512 55.9493 26.1724 61.3974 22.6097 61.3974H22.6097Z" fill="white" stroke="black" stroke-width="1.3" stroke-linecap="square"/>
<path d="M39.5389 21.7224H6.09863V30.2286H39.5389V21.7224Z" fill="#00CCFF"/>
<path fill-rule="evenodd" clip-rule="evenodd" d="M12.0328 26.2128C14.9532 26.2128 17.3207 29.9494 17.3207 31.4993C17.3207 33.0492 17.3116 38.0335 17.2941 38.209L11.6512 32.0329L6.77147 38.3404C6.75378 38.165 6.74463 32.2105 6.74463 30.6606C6.74463 29.1107 9.11228 26.2128 12.0328 26.2128L12.0328 26.2128Z" fill="#999933"/>
<path fill-rule="evenodd" clip-rule="evenodd" d="M22.7891 26.2172C25.7096 26.2172 28.0772 29.9538 28.0772 31.5037C28.0772 33.0536 28.0681 38.0379 28.0504 38.2134L22.4077 32.0373L17.5278 38.345C17.5101 38.1695 17.501 32.2149 17.501 30.665C17.501 29.1151 19.8686 26.2172 22.7891 26.2172L22.7891 26.2172Z" fill="#990000"/>
<path fill-rule="evenodd" clip-rule="evenodd" d="M33.6011 26.1216C36.5216 26.1216 38.8891 29.8582 38.8891 31.4081C38.8891 32.958 38.8799 37.9423 38.8624 38.1178L33.2196 31.9417L28.3398 38.2492C28.3221 38.0738 28.313 32.1193 28.313 30.5695C28.313 29.0196 30.6806 26.1216 33.6011 26.1216L33.6011 26.1216Z" fill="#CC9933"/>
<path d="M15.285 12.879C15.5125 12.879 15.6969 12.6947 15.6969 12.4672C15.6969 12.2398 15.5125 12.0554 15.285 12.0554C15.0575 12.0554 14.873 12.2398 14.873 12.4672C14.873 12.6947 15.0575 12.879 15.285 12.879Z" fill="black"/>
<path d="M14.6898 11.424C14.9173 11.424 15.1017 11.2396 15.1017 11.0122C15.1017 10.7847 14.9173 10.6003 14.6898 10.6003C14.4623 10.6003 14.2778 10.7847 14.2778 11.0122C14.2778 11.2396 14.4623 11.424 14.6898 11.424Z" fill="black"/>
<path d="M14.5252 9.88649C14.7527 9.88649 14.9372 9.70212 14.9372 9.47468C14.9372 9.24724 14.7527 9.06287 14.5252 9.06287C14.2977 9.06287 14.1133 9.24724 14.1133 9.47468C14.1133 9.70212 14.2977 9.88649 14.5252 9.88649Z" fill="black"/>
<path d="M14.9647 8.51369C15.1922 8.51369 15.3766 8.32932 15.3766 8.10188C15.3766 7.87444 15.1922 7.69006 14.9647 7.69006C14.7372 7.69006 14.5527 7.87444 14.5527 8.10188C14.5527 8.32932 14.7372 8.51369 14.9647 8.51369Z" fill="black"/>
<path d="M16.1727 7.47036C16.4002 7.47036 16.5846 7.28598 16.5846 7.05854C16.5846 6.8311 16.4002 6.64673 16.1727 6.64673C15.9452 6.64673 15.7607 6.8311 15.7607 7.05854C15.7607 7.28598 15.9452 7.47036 16.1727 7.47036Z" fill="black"/>
<path d="M17.7108 7.14089C17.9383 7.14089 18.1227 6.95651 18.1227 6.72908C18.1227 6.50164 17.9383 6.31726 17.7108 6.31726C17.4833 6.31726 17.2988 6.50164 17.2988 6.72908C17.2988 6.95651 17.4833 7.14089 17.7108 7.14089Z" fill="black"/>
<path d="M19.4139 7.58022C19.6414 7.58022 19.8258 7.39584 19.8258 7.1684C19.8258 6.94097 19.6414 6.75659 19.4139 6.75659C19.1864 6.75659 19.002 6.94097 19.002 7.1684C19.002 7.39584 19.1864 7.58022 19.4139 7.58022Z" fill="black"/>
<path d="M20.8963 8.40383C21.1238 8.40383 21.3083 8.21945 21.3083 7.99201C21.3083 7.76458 21.1238 7.5802 20.8963 7.5802C20.6688 7.5802 20.4844 7.76458 20.4844 7.99201C20.4844 8.21945 20.6688 8.40383 20.8963 8.40383Z" fill="black"/>
<path d="M21.5008 11.0396C21.7283 11.0396 21.9128 10.8552 21.9128 10.6278C21.9128 10.4003 21.7283 10.2159 21.5008 10.2159C21.2733 10.2159 21.0889 10.4003 21.0889 10.6278C21.0889 10.8552 21.2733 11.0396 21.5008 11.0396Z" fill="black"/>
<path d="M21.3363 9.66689C21.5638 9.66689 21.7482 9.48251 21.7482 9.25508C21.7482 9.02764 21.5638 8.84326 21.3363 8.84326C21.1087 8.84326 20.9243 9.02764 20.9243 9.25508C20.9243 9.48251 21.1087 9.66689 21.3363 9.66689Z" fill="black"/>
<path d="M20.1707 9.53507C18.2641 6.86933 14.74 8.63145 16.3584 11.7128" stroke="black" stroke-width="1.3"/>
<path fill-rule="evenodd" clip-rule="evenodd" d="M23.1703 6.98838H23.1821H24.4373L23.5882 6.13965H23.1821H23.1703H22.7642L21.915 6.98838H23.1703Z" fill="black"/>
<path fill-rule="evenodd" clip-rule="evenodd" d="M23.1703 3.8689H23.1821H24.4373L23.5882 4.71779H23.1821H23.1703H22.7642L21.915 3.8689H23.1703Z" fill="black"/>
<path fill-rule="evenodd" clip-rule="evenodd" d="M21.0791 5.38809V5.37634V4.12146L22.4558 4.97035V5.37634V5.38809V5.79408L21.0791 6.64297V5.38809Z" fill="black"/>
<path fill-rule="evenodd" clip-rule="evenodd" d="M25.299 5.38809V5.37634V4.12146L23.9224 4.97035V5.37634V5.38809V5.79408L25.299 6.64297V5.38809Z" fill="black"/>
<path d="M5.68066 39.2718L11.7222 32.4528L17.1022 38.8326L22.6091 32.3038L27.8939 38.8326L33.2868 32.4528L39.8189 39.4419" stroke="black" stroke-width="1.3"/>
<path d="M5.68066 41.9432L11.7222 35.1241L17.1022 41.5038L22.6091 34.9752L27.8939 41.5038L33.2868 35.1241L39.8189 42.1133" stroke="black" stroke-width="1.3"/>
<path d="M5.68066 50.8298H39.5386" stroke="black" stroke-width="1.3"/>
<path d="M22.5654 61.0557V50.9451" stroke="black" stroke-width="1.3"/>
<path d="M30.1421 59.5557V50.9451" stroke="black" stroke-width="1.3"/>
<path d="M25.167 60.9715V50.9451" stroke="black" stroke-width="1.3"/>
<path d="M27.665 59.5557V50.9451" stroke="black" stroke-width="1.3"/>
<path d="M32.4585 58.3626V50.9451" stroke="black" stroke-width="1.3"/>
<path d="M34.895 56.4317V50.9451" stroke="black" stroke-width="1.3"/>
<path d="M37.0605 55.0448V50.9451" stroke="black" stroke-width="1.3"/>
<path d="M14.9883 59.5557V50.9451" stroke="black" stroke-width="1.3"/>
<path d="M19.9629 60.9715V50.9451" stroke="black" stroke-width="1.3"/>
<path d="M17.4644 59.5557V50.9451" stroke="black" stroke-width="1.3"/>
<path d="M12.6719 58.3626V50.9451" stroke="black" stroke-width="1.3"/>
<path d="M10.2349 56.4317V50.9451" stroke="black" stroke-width="1.3"/>
<path d="M8.06934 55.0448V50.9451" stroke="black" stroke-width="1.3"/>
<path d="M6.2334 31.1847C6.2334 28.3831 8.69926 26.1119 11.741 26.1119C14.7827 26.1119 17.2486 28.3831 17.2486 31.1847" stroke="black" stroke-width="1.3"/>
<path d="M17.2627 31.1847C17.2627 28.3831 19.6612 26.1119 22.6196 26.1119C25.5782 26.1119 27.9765 28.3831 27.9765 31.1847" stroke="black" stroke-width="1.3"/>
<path d="M27.9771 31.1847C27.9771 28.3831 30.4191 26.1119 33.4314 26.1119C36.4439 26.1119 38.886 28.3831 38.886 31.1847" stroke="black" stroke-width="1.3"/>
<path d="M17.249 38.2492V30.4979" stroke="black" stroke-width="1.3"/>
<path d="M27.9409 38.2492V30.4979" stroke="black" stroke-width="1.3"/>
<path d="M23.1104 14.608V7.72742" stroke="black" stroke-width="1.3"/>
<path d="M30.8621 12.879C31.0896 12.879 31.2741 12.6947 31.2741 12.4672C31.2741 12.2398 31.0896 12.0554 30.8621 12.0554C30.6346 12.0554 30.4502 12.2398 30.4502 12.4672C30.4502 12.6947 30.6346 12.879 30.8621 12.879Z" fill="black"/>
<path d="M31.4574 11.424C31.6849 11.424 31.8693 11.2396 31.8693 11.0122C31.8693 10.7847 31.6849 10.6003 31.4574 10.6003C31.2298 10.6003 31.0454 10.7847 31.0454 11.0122C31.0454 11.2396 31.2298 11.424 31.4574 11.424Z" fill="black"/>
<path d="M31.6219 9.88649C31.8494 9.88649 32.0338 9.70212 32.0338 9.47468C32.0338 9.24724 31.8494 9.06287 31.6219 9.06287C31.3944 9.06287 31.21 9.24724 31.21 9.47468C31.21 9.70212 31.3944 9.88649 31.6219 9.88649Z" fill="black"/>
<path d="M31.1825 8.51369C31.41 8.51369 31.5944 8.32932 31.5944 8.10188C31.5944 7.87444 31.41 7.69006 31.1825 7.69006C30.9549 7.69006 30.7705 7.87444 30.7705 8.10188C30.7705 8.32932 30.9549 8.51369 31.1825 8.51369Z" fill="black"/>
<path d="M29.9744 7.47036C30.2019 7.47036 30.3864 7.28598 30.3864 7.05854C30.3864 6.8311 30.2019 6.64673 29.9744 6.64673C29.7469 6.64673 29.5625 6.8311 29.5625 7.05854C29.5625 7.28598 29.7469 7.47036 29.9744 7.47036Z" fill="black"/>
<path d="M28.4364 7.14089C28.6639 7.14089 28.8483 6.95651 28.8483 6.72908C28.8483 6.50164 28.6639 6.31726 28.4364 6.31726C28.2088 6.31726 28.0244 6.50164 28.0244 6.72908C28.0244 6.95651 28.2088 7.14089 28.4364 7.14089Z" fill="black"/>
<path d="M26.7332 7.58022C26.9607 7.58022 27.1452 7.39584 27.1452 7.1684C27.1452 6.94097 26.9607 6.75659 26.7332 6.75659C26.5057 6.75659 26.3213 6.94097 26.3213 7.1684C26.3213 7.39584 26.5057 7.58022 26.7332 7.58022Z" fill="black"/>
<path d="M25.2503 8.40383C25.4778 8.40383 25.6623 8.21945 25.6623 7.99201C25.6623 7.76458 25.4778 7.5802 25.2503 7.5802C25.0228 7.5802 24.8384 7.76458 24.8384 7.99201C24.8384 8.21945 25.0228 8.40383 25.2503 8.40383Z" fill="black"/>
<path d="M24.6463 11.0396C24.8738 11.0396 25.0583 10.8552 25.0583 10.6278C25.0583 10.4003 24.8738 10.2159 24.6463 10.2159C24.4188 10.2159 24.2344 10.4003 24.2344 10.6278C24.2344 10.8552 24.4188 11.0396 24.6463 11.0396Z" fill="black"/>
<path d="M24.8114 9.66689C25.0389 9.66689 25.2233 9.48251 25.2233 9.25508C25.2233 9.02764 25.0389 8.84326 24.8114 8.84326C24.5838 8.84326 24.3994 9.02764 24.3994 9.25508C24.3994 9.48251 24.5838 9.66689 24.8114 9.66689Z" fill="black"/>
<path d="M25.9761 9.53507C27.8827 6.86933 31.4068 8.63145 29.7884 11.7128" stroke="black" stroke-width="1.3"/>
<path d="M17.5786 15.7692V16.7489H17.0723V15.7692H17.5786ZM28.2601 16.7489H17.5786V15.7692H28.2601V16.7489ZM28.2601 16.7489V15.7692H28.7664V16.7489H28.2601Z" fill="black"/>
<path d="M16.1361 14.4728C16.3636 14.4728 16.548 14.2884 16.548 14.061C16.548 13.8335 16.3636 13.6492 16.1361 13.6492C15.9086 13.6492 15.7241 13.8335 15.7241 14.061C15.7241 14.2884 15.9086 14.4728 16.1361 14.4728Z" fill="black"/>
<path d="M29.658 14.5738C29.8855 14.5738 30.07 14.3894 30.07 14.1619C30.07 13.9345 29.8855 13.7501 29.658 13.7501C29.4305 13.7501 29.2461 13.9345 29.2461 14.1619C29.2461 14.3894 29.4305 14.5738 29.658 14.5738Z" fill="black"/>
<path d="M27.9409 50.647V41.5038" stroke="black" stroke-width="1.3"/>
<path d="M17.2637 50.647V41.5038" stroke="black" stroke-width="1.3"/>
<path d="M17.5786 17.8615V18.8411H17.0723V17.8615H17.5786ZM28.2601 18.8411H17.5786V17.8615H28.2601V18.8411ZM28.2601 18.8411V17.8615H28.7664V18.8411H28.2601Z" fill="black"/>
<path d="M25.1366 64.1194C25.3641 64.1194 25.5485 63.935 25.5485 63.7076C25.5485 63.4802 25.3641 63.2958 25.1366 63.2958C24.909 63.2958 24.7246 63.4802 24.7246 63.7076C24.7246 63.935 24.909 64.1194 25.1366 64.1194Z" fill="black"/>
<path d="M27.6654 63.3694C27.8929 63.3694 28.0773 63.185 28.0773 62.9576C28.0773 62.7302 27.8929 62.5458 27.6654 62.5458C27.4378 62.5458 27.2534 62.7302 27.2534 62.9576C27.2534 63.185 27.4378 63.3694 27.6654 63.3694Z" fill="black"/>
<path d="M30.1424 62.2787C30.3699 62.2787 30.5544 62.0943 30.5544 61.8669C30.5544 61.6395 30.3699 61.4551 30.1424 61.4551C29.9149 61.4551 29.7305 61.6395 29.7305 61.8669C29.7305 62.0943 29.9149 62.2787 30.1424 62.2787Z" fill="black"/>
<path d="M32.4588 61.1875C32.6863 61.1875 32.8708 61.0031 32.8708 60.7757C32.8708 60.5483 32.6863 60.3639 32.4588 60.3639C32.2313 60.3639 32.0469 60.5483 32.0469 60.7757C32.0469 61.0031 32.2313 61.1875 32.4588 61.1875Z" fill="black"/>
<path d="M34.8948 59.6875C35.1224 59.6875 35.3068 59.5031 35.3068 59.2757C35.3068 59.0483 35.1224 58.8639 34.8948 58.8639C34.6673 58.8639 34.4829 59.0483 34.4829 59.2757C34.4829 59.5031 34.6673 59.6875 34.8948 59.6875Z" fill="black"/>
<path d="M37.0487 58.1258C37.2762 58.1258 37.4606 57.9414 37.4606 57.7139C37.4606 57.4865 37.2762 57.3021 37.0487 57.3021C36.8211 57.3021 36.6367 57.4865 36.6367 57.7139C36.6367 57.9414 36.8211 58.1258 37.0487 58.1258Z" fill="black"/>
<path d="M22.5047 64.6172C22.7322 64.6172 22.9167 64.4328 22.9167 64.2054C22.9167 63.978 22.7322 63.7936 22.5047 63.7936C22.2772 63.7936 22.0928 63.978 22.0928 64.2054C22.0928 64.4328 22.2772 64.6172 22.5047 64.6172Z" fill="black"/>
<path d="M19.889 64.1194C20.1165 64.1194 20.3009 63.935 20.3009 63.7076C20.3009 63.4802 20.1165 63.2958 19.889 63.2958C19.6615 63.2958 19.4771 63.4802 19.4771 63.7076C19.4771 63.935 19.6615 64.1194 19.889 64.1194Z" fill="black"/>
<path d="M17.3607 63.3694C17.5882 63.3694 17.7726 63.185 17.7726 62.9576C17.7726 62.7302 17.5882 62.5458 17.3607 62.5458C17.1332 62.5458 16.9487 62.7302 16.9487 62.9576C16.9487 63.185 17.1332 63.3694 17.3607 63.3694Z" fill="black"/>
<path d="M14.8836 62.2787C15.1111 62.2787 15.2956 62.0943 15.2956 61.8669C15.2956 61.6395 15.1111 61.4551 14.8836 61.4551C14.6561 61.4551 14.4717 61.6395 14.4717 61.8669C14.4717 62.0943 14.6561 62.2787 14.8836 62.2787Z" fill="black"/>
<path d="M12.5672 61.1875C12.7947 61.1875 12.9792 61.0031 12.9792 60.7757C12.9792 60.5483 12.7947 60.3639 12.5672 60.3639C12.3397 60.3639 12.1553 60.5483 12.1553 60.7757C12.1553 61.0031 12.3397 61.1875 12.5672 61.1875Z" fill="black"/>
<path d="M10.1307 59.6875C10.3582 59.6875 10.5426 59.5031 10.5426 59.2757C10.5426 59.0483 10.3582 58.8639 10.1307 58.8639C9.90318 58.8639 9.71875 59.0483 9.71875 59.2757C9.71875 59.5031 9.90318 59.6875 10.1307 59.6875Z" fill="black"/>
<path d="M7.97688 58.1258C8.20439 58.1258 8.38882 57.9414 8.38882 57.7139C8.38882 57.4865 8.20439 57.3021 7.97688 57.3021C7.74937 57.3021 7.56494 57.4865 7.56494 57.7139C7.56494 57.9414 7.74937 58.1258 7.97688 58.1258Z" fill="black"/>
<path d="M6.01741 56.6563C6.24492 56.6563 6.42935 56.4719 6.42935 56.2445C6.42935 56.017 6.24492 55.8326 6.01741 55.8326C5.7899 55.8326 5.60547 56.017 5.60547 56.2445C5.60547 56.4719 5.7899 56.6563 6.01741 56.6563Z" fill="black"/>
<path d="M5.38069 18.7493C5.6082 18.7493 5.79263 18.5649 5.79263 18.3375C5.79263 18.11 5.6082 17.9257 5.38069 17.9257C5.15318 17.9257 4.96875 18.11 4.96875 18.3375C4.96875 18.5649 5.15318 18.7493 5.38069 18.7493Z" fill="black"/>
<path d="M32.328 18.7493C32.5555 18.7493 32.7399 18.5649 32.7399 18.3375C32.7399 18.11 32.5555 17.9257 32.328 17.9257C32.1004 17.9257 31.916 18.11 31.916 18.3375C31.916 18.5649 32.1004 18.7493 32.328 18.7493Z" fill="black"/>
<path d="M7.34065 18.7493C7.56816 18.7493 7.75259 18.5649 7.75259 18.3375C7.75259 18.11 7.56816 17.9257 7.34065 17.9257C7.11314 17.9257 6.92871 18.11 6.92871 18.3375C6.92871 18.5649 7.11314 18.7493 7.34065 18.7493Z" fill="black"/>
<path d="M34.2869 18.7493C34.5144 18.7493 34.6989 18.5649 34.6989 18.3375C34.6989 18.11 34.5144 17.9257 34.2869 17.9257C34.0594 17.9257 33.875 18.11 33.875 18.3375C33.875 18.5649 34.0594 18.7493 34.2869 18.7493Z" fill="black"/>
<path d="M9.30012 18.7493C9.52763 18.7493 9.71206 18.5649 9.71206 18.3375C9.71206 18.11 9.52763 17.9257 9.30012 17.9257C9.07261 17.9257 8.88818 18.11 8.88818 18.3375C8.88818 18.5649 9.07261 18.7493 9.30012 18.7493Z" fill="black"/>
<path d="M36.2469 18.7493C36.4744 18.7493 36.6588 18.5649 36.6588 18.3375C36.6588 18.11 36.4744 17.9257 36.2469 17.9257C36.0194 17.9257 35.835 18.11 35.835 18.3375C35.835 18.5649 36.0194 18.7493 36.2469 18.7493Z" fill="black"/>
<path d="M11.2596 18.7493C11.4871 18.7493 11.6715 18.5649 11.6715 18.3375C11.6715 18.11 11.4871 17.9257 11.2596 17.9257C11.0321 17.9257 10.8477 18.11 10.8477 18.3375C10.8477 18.5649 11.0321 18.7493 11.2596 18.7493Z" fill="black"/>
<path d="M38.2064 18.7493C38.4339 18.7493 38.6183 18.5649 38.6183 18.3375C38.6183 18.11 38.4339 17.9257 38.2064 17.9257C37.9789 17.9257 37.7944 18.11 37.7944 18.3375C37.7944 18.5649 37.9789 18.7493 38.2064 18.7493Z" fill="black"/>
<path d="M13.22 18.7493C13.4476 18.7493 13.632 18.5649 13.632 18.3375C13.632 18.11 13.4476 17.9257 13.22 17.9257C12.9925 17.9257 12.8081 18.11 12.8081 18.3375C12.8081 18.5649 12.9925 18.7493 13.22 18.7493Z" fill="black"/>
<path d="M40.1663 18.7493C40.3938 18.7493 40.5783 18.5649 40.5783 18.3375C40.5783 18.11 40.3938 17.9257 40.1663 17.9257C39.9388 17.9257 39.7544 18.11 39.7544 18.3375C39.7544 18.5649 39.9388 18.7493 40.1663 18.7493Z" fill="black"/>
<path d="M38.8177 56.6563C39.0452 56.6563 39.2296 56.4719 39.2296 56.2445C39.2296 56.017 39.0452 55.8326 38.8177 55.8326C38.5902 55.8326 38.4058 56.017 38.4058 56.2445C38.4058 56.4719 38.5902 56.6563 38.8177 56.6563Z" fill="black"/>
<path d="M19.8047 14.6596V12.147" stroke="black" stroke-width="1.3"/>
<path d="M26.4004 14.6596V12.147" stroke="black" stroke-width="1.3"/>
<path d="M15.1087 18.7493C15.3362 18.7493 15.5207 18.5649 15.5207 18.3375C15.5207 18.11 15.3362 17.9257 15.1087 17.9257C14.8812 17.9257 14.6968 18.11 14.6968 18.3375C14.6968 18.5649 14.8812 18.7493 15.1087 18.7493Z" fill="black"/>
<path d="M30.3182 18.7493C30.5457 18.7493 30.7301 18.5649 30.7301 18.3375C30.7301 18.11 30.5457 17.9257 30.3182 17.9257C30.0907 17.9257 29.9062 18.11 29.9062 18.3375C29.9062 18.5649 30.0907 18.7493 30.3182 18.7493Z" fill="black"/>
<path fill-rule="evenodd" clip-rule="evenodd" d="M22.6097 61.3974C18.8349 61.3974 6.46836 55.9493 5.68066 50.8299C5.68066 40.8942 5.68066 30.9585 5.68066 21.0227H22.5548H22.6648H39.5387C39.5387 30.9585 39.5387 40.8942 39.5387 50.8299C38.7512 55.9493 26.1724 61.3974 22.6097 61.3974H22.6097Z" stroke="black" stroke-width="2" stroke-linecap="square"/>
<path d="M13.3585 43.0356H10.312V46.562H13.3585V43.0356Z" stroke="black" stroke-width="1.3"/>
<path d="M24.2389 43.0356H21.1924V46.562H24.2389V43.0356Z" stroke="black" stroke-width="1.3"/>
<path d="M35.148 43.0356H32.1016V46.562H35.148V43.0356Z" stroke="black" stroke-width="1.3"/>
<path d="M84.0558 53.4926C81.0896 55.1806 77.4008 56.0246 72.9876 56.0246C68.1048 56.0246 64.2492 54.687 61.4279 52.0122C58.6138 49.3371 57.2031 45.6534 57.2031 40.9613C57.2031 36.2407 58.7443 32.3921 61.8186 29.4171C64.9004 26.4417 69.0023 24.9538 74.1166 24.9538C77.3353 24.9538 80.1786 25.3898 82.6307 26.2696V32.6213C80.2871 31.2767 77.4223 30.6114 74.0292 30.6114C71.1867 30.6114 68.8786 31.5197 67.0924 33.3438C65.2979 35.1679 64.4084 37.5996 64.4084 40.6464C64.4084 43.7291 65.2113 46.1182 66.8099 47.8133C68.4157 49.5016 70.5786 50.3456 73.3061 50.3456C74.9482 50.3456 76.2503 50.1163 77.2048 49.6586V43.7863H71.1288V38.3792H84.0558V53.4926L84.0558 53.4926ZM98.1522 56.0246C94.5352 56.0246 91.6924 55.0231 89.6237 53.0207C87.5546 51.0175 86.5199 48.2927 86.5199 44.8592C86.5199 41.3116 87.5909 38.5292 89.739 36.5267C91.8879 34.5239 94.7882 33.5229 98.4491 33.5229C102.051 33.5229 104.88 34.5239 106.927 36.5267C108.974 38.5291 110.002 41.1826 110.002 44.4804C110.002 48.0421 108.945 50.8605 106.833 52.9272C104.721 54.9947 101.827 56.0245 98.1522 56.0245V56.0246ZM98.3262 38.5935C96.7416 38.5935 95.5117 39.1305 94.6366 40.2033C93.7615 41.2828 93.3201 42.8062 93.3201 44.7735C93.3201 48.8936 95.0057 50.9532 98.3693 50.9532C101.574 50.9532 103.18 48.8364 103.18 44.609C103.18 40.5967 101.559 38.5934 98.3262 38.5934V38.5935ZM123.187 56.0246C119.57 56.0246 116.727 55.0231 114.658 53.0207C112.589 51.0175 111.554 48.2927 111.554 44.8592C111.554 41.3116 112.625 38.5292 114.774 36.5267C116.922 34.5239 119.823 33.5229 123.483 33.5229C127.086 33.5229 129.914 34.5239 131.961 36.5267C134.009 38.5291 135.036 41.1826 135.036 44.4804C135.036 48.0421 133.98 50.8605 131.867 52.9272C129.755 54.9947 126.862 56.0245 123.187 56.0245V56.0246ZM123.36 38.5935C121.776 38.5935 120.546 39.1305 119.671 40.2033C118.796 41.2828 118.354 42.8062 118.354 44.7735C118.354 48.8936 120.04 50.9532 123.404 50.9532C126.609 50.9532 128.215 48.8364 128.215 44.609C128.215 40.5967 126.594 38.5934 123.36 38.5934L123.36 38.5935ZM159.115 55.5025H152.417V52.5484H152.337C150.811 54.8661 148.568 56.0245 145.617 56.0245C142.904 56.0245 140.72 55.0803 139.07 53.1848C137.413 51.2968 136.589 48.6501 136.589 45.2529C136.589 41.705 137.5 38.8657 139.323 36.7271C141.147 34.5882 143.534 33.5229 146.485 33.5229C149.284 33.5229 151.23 34.5097 152.337 36.4979H152.417V23.7377H159.115V55.5025V55.5025ZM152.547 45.067V43.4505C152.547 42.0557 152.135 40.8969 151.318 39.9744C150.5 39.0515 149.429 38.5934 148.12 38.5934C146.637 38.5934 145.472 39.166 144.64 40.3173C143.808 41.4761 143.389 43.0571 143.389 45.0671C143.389 46.9547 143.794 48.4071 144.597 49.4227C145.407 50.4458 146.521 50.9532 147.946 50.9532C149.306 50.9532 150.413 50.417 151.267 49.3442C152.12 48.2638 152.547 46.8406 152.547 45.0671V45.067ZM182.139 55.5025H163.909V25.4544H181.437V30.9621H170.76V37.6492H180.699V43.1356H170.76V50.009H182.139V55.5025L182.139 55.5025ZM199.013 40.017C198.203 39.5806 197.263 39.366 196.192 39.366C194.738 39.366 193.602 39.8955 192.778 40.947C191.96 42.0056 191.548 43.4359 191.548 45.2529V55.5025H184.857V34.0449H191.548V38.0288H191.635C192.698 35.1173 194.601 33.6653 197.357 33.6653C198.066 33.6653 198.616 33.7517 199.013 33.9158V40.017V40.017ZM218.688 55.5025H212.351V52.4198H212.264C210.81 54.823 208.654 56.0245 205.804 56.0245C203.692 56.0245 202.035 55.4382 200.827 54.2576C199.619 53.0779 199.018 51.4969 199.018 49.53C199.018 45.3669 201.514 42.964 206.498 42.3201L212.394 41.5475C212.394 39.2018 211.106 38.0288 208.531 38.0288C205.949 38.0288 203.489 38.7868 201.16 40.3102V35.3248C202.092 34.8458 203.366 34.4312 204.986 34.0662C206.599 33.7012 208.075 33.5229 209.407 33.5229C215.591 33.5229 218.687 36.5764 218.687 42.6775V55.5025L218.688 55.5025ZM212.394 46.7834V45.3385L208.452 45.8392C206.274 46.1182 205.189 47.0908 205.189 48.7574C205.189 49.5086 205.449 50.1309 205.977 50.6103C206.513 51.0893 207.229 51.3327 208.133 51.3327C209.392 51.3327 210.412 50.9034 211.208 50.0449C211.996 49.1867 212.394 48.0993 212.394 46.7834V46.7834Z" fill="black"/>
</svg>
