<svg width="25" height="25" viewBox="0 0 25 25" fill="none" xmlns="http://www.w3.org/2000/svg">
  <path d="M15.6311 6.58594H8.46804C7.32472 6.58594 6.39453 7.51484 6.39453 8.65657V15.8097C6.39453 16.9514 7.32472 17.8806 8.46804 17.8806H15.6311C16.7744 17.8806 17.7049 16.9517 17.7049 15.8097V8.65657C17.7049 7.51484 16.7747 6.58594 15.6311 6.58594ZM12.0496 15.9514C9.99667 15.9514 8.3264 14.2834 8.3264 12.2331C8.3264 10.1831 9.99667 8.51512 12.0496 8.51512C14.1027 8.51512 15.773 10.1831 15.773 12.2331C15.773 14.2832 14.1025 15.9514 12.0496 15.9514ZM15.8927 9.28386C15.4067 9.28386 15.0115 8.8892 15.0115 8.40416C15.0115 7.91912 15.4067 7.52446 15.8927 7.52446C16.3784 7.52446 16.7736 7.91912 16.7736 8.40416C16.7736 8.8892 16.3784 9.28386 15.8927 9.28386Z" fill="white" />
  <path d="M12.0485 10.0859C10.8634 10.0859 9.89844 11.0491 9.89844 12.2325C9.89844 13.4165 10.8634 14.3799 12.0485 14.3799C13.2342 14.3799 14.1983 13.4165 14.1983 12.2325C14.1983 11.0493 13.2339 10.0859 12.0485 10.0859Z" fill="white" />
  <path d="M12.0479 0.199219C5.41156 0.199219 0.03125 5.57207 0.03125 12.1992C0.03125 18.8264 5.41156 24.1992 12.0479 24.1992C18.6843 24.1992 24.0646 18.8264 24.0646 12.1992C24.0646 5.57207 18.6843 0.199219 12.0479 0.199219ZM19.2763 15.8081C19.2763 17.8165 17.6406 19.4499 15.6294 19.4499H8.4664C6.45554 19.4499 4.81955 17.8165 4.81955 15.8081V8.65502C4.81955 6.64696 6.45554 5.01323 8.4664 5.01323H15.6294C17.6406 5.01323 19.2763 6.64696 19.2763 8.65502V15.8081Z" fill="white" />
</svg>
