<?xml version="1.0" encoding="UTF-8"?>
<!DOCTYPE svg PUBLIC "-//W3C//DTD SVG 1.1//EN" "http://www.w3.org/Graphics/SVG/1.1/DTD/svg11.dtd">
<!-- Creator: CorelDRAW -->
<svg xmlns="http://www.w3.org/2000/svg" xml:space="preserve" width="115px" height="158px" style="shape-rendering:geometricPrecision; text-rendering:geometricPrecision; image-rendering:optimizeQuality; fill-rule:evenodd; clip-rule:evenodd"
viewBox="0 0 115 158.463"
 xmlns:xlink="http://www.w3.org/1999/xlink">
 <defs>
  <style type="text/css">
   <![CDATA[
    .str1 {stroke:black;stroke-width:2.00519}
    .str0 {stroke:black;stroke-width:4.21954;stroke-linecap:square}
    .fil6 {fill:none}
    .fil5 {fill:black}
    .fil1 {fill:#00CCFF}
    .fil3 {fill:#990000}
    .fil2 {fill:#999933}
    .fil4 {fill:#CC9933}
    .fil0 {fill:white}
    .fil7 {fill:black;fill-rule:nonzero}
    .fil8 {fill:#990000;fill-rule:nonzero}
   ]]>
  </style>
 </defs>
 <g id="Layer_x0020_1">
  <metadata id="CorelCorpID_0Corel-Layer"/>
  <g id="_463737256">
   <path id="_463737088" class="fil0 str0" d="M58.2346 107.233c-7.03408,0 -30.0781,-10.1552 -31.5459,-19.6978 0,-18.5202 0,-37.0403 0,-55.5605l31.4436 0 0.204895 0 31.4433 0c0,18.5202 0,37.0403 0,55.5605 -1.46752,9.54255 -24.9071,19.6978 -31.5459,19.6978z"/>
   <rect id="_463736968" class="fil1" x="27.4673" y="33.2788" width="62.3133" height="15.8555"/>
   <path id="_463736800" class="fil2" d="M38.5254 41.6489c5.44209,0 9.85373,6.96502 9.85373,9.85402 0,2.889 -0.0170509,12.1798 -0.0497319,12.5069l-10.515 -11.5122 -9.09298 11.7572c-0.0329651,-0.327094 -0.0500161,-11.4261 -0.0500161,-14.3151 0,-2.889 4.41193,-8.29073 9.85402,-8.29073z"/>
   <path id="_463736632" class="fil3" d="M58.5691 41.6571c5.44209,0 9.85402,6.96502 9.85402,9.85402 0,2.889 -0.0170509,12.1798 -0.0500161,12.5069l-10.5147 -11.5122 -9.09326 11.7575c-0.0329651,-0.327094 -0.0500161,-11.4264 -0.0500161,-14.3154 0,-2.889 4.41193,-8.29073 9.85402,-8.29073z"/>
   <path id="_463736464" class="fil4" d="M78.7162 41.4789c5.44209,0 9.85373,6.96502 9.85373,9.85402 0,2.889 -0.0170509,12.1798 -0.0497319,12.5069l-10.515 -11.5122 -9.09298 11.7572c-0.0329651,-0.327094 -0.0500161,-11.4261 -0.0500161,-14.3151 0,-2.889 4.41193,-8.29073 9.85402,-8.29073z"/>
   <circle id="_463736368" class="fil5" cx="44.5855" cy="16.0272" r="0.767619"/>
   <circle id="_463736272" class="fil5" cx="43.4767" cy="13.3149" r="0.767619"/>
   <circle id="_463736176" class="fil5" cx="43.1696" cy="10.4491" r="0.767619"/>
   <circle id="_463736080" class="fil5" cx="43.9884" cy="7.89028" r="0.767619"/>
   <circle id="_463735984" class="fil5" cx="46.2402" cy="5.94558" r="0.767619"/>
   <circle id="_463735888" class="fil5" cx="49.106" cy="5.33147" r="0.767619"/>
   <circle id="_463735792" class="fil5" cx="52.2789" cy="6.15029" r="0.767619"/>
   <circle id="_463735696" class="fil5" cx="55.0424" cy="7.68556" r="0.767619"/>
   <circle id="_463735600" class="fil5" cx="56.1683" cy="12.5984" r="0.767619"/>
   <circle id="_463735504" class="fil5" cx="55.8613" cy="10.0397" r="0.767619"/>
   <path id="_463735408" class="fil6 str1" d="M53.6903 10.5616c-3.55285,-4.96893 -10.1197,-1.68435 -7.10399,4.05926"/>
   <polygon id="_463735240" class="fil5" points="59.2787,5.81465 59.3006,5.81465 61.6397,5.81465 60.0574,4.23261 59.3006,4.23261 59.2787,4.23261 58.5219,4.23261 56.9396,5.81465 "/>
   <polygon id="_463735072" class="fil5" points="59.2787,0 59.3006,0 61.6397,0 60.0574,1.58233 59.3006,1.58233 59.2787,1.58233 58.5219,1.58233 56.9396,0 "/>
   <polygon id="_463734904" class="fil5" points="55.3823,2.83188 55.3823,2.80999 55.3823,0.47089 57.9476,2.05322 57.9476,2.80999 57.9476,2.83188 57.9476,3.58865 55.3823,5.17098 "/>
   <polygon id="_463734736" class="fil5" points="63.2462,2.83188 63.2462,2.80999 63.2462,0.47089 60.6809,2.05322 60.6809,2.80999 60.6809,2.83188 60.6809,3.58865 63.2462,5.17098 "/>
   <polyline id="_463734568" class="fil6 str1" points="26.6887,65.9908 37.9466,53.2802 47.9719,65.1721 58.2335,53.0025 68.0812,65.1721 78.1305,53.2802 90.3026,66.3079 "/>
   <polyline id="_463734400" class="fil6 str1" points="26.6887,70.9702 37.9466,58.2596 47.9719,70.1512 58.2335,57.982 68.0812,70.1512 78.1305,58.2596 90.3026,71.2874 "/>
   <path id="_463734304" class="fil7" d="M19.1229 138.308c-2.11233,1.21573 -4.73931,1.8236 -7.88208,1.8236 -3.47725,0 -6.22302,-0.963378 -8.23219,-2.88985 -2.00405,-1.92676 -3.00864,-4.57988 -3.00864,-7.95937 0,-3.39996 1.09751,-6.17187 3.28685,-8.3146 2.19474,-2.14302 5.11585,-3.21467 8.75793,-3.21467 2.29221,0 4.31701,0.314021 6.06331,0.947748l0 4.57476c-1.669,-0.968493 -3.70915,-1.44762 -6.12555,-1.44762 -2.02423,0 -3.66794,0.654187 -4.93994,1.96796 -1.27797,1.31377 -1.91141,3.06519 -1.91141,5.25964 0,2.22032 0.571775,3.94104 1.71021,5.16188 1.14355,1.21602 2.68382,1.82388 4.6262,1.82388 1.16941,0 2.0967,-0.16511 2.77646,-0.494761l0 -4.22948 -4.32696 0 0 -3.89443 9.2058 0 0 10.8853zm10.0387 1.8236c-2.57583,0 -4.60034,-0.721254 -6.07354,-2.16348 -1.47348,-1.44279 -2.21037,-3.40535 -2.21037,-5.87831 0,-2.55508 0.762745,-4.55913 2.2925,-6.00136 1.53032,-1.44251 3.59576,-2.16348 6.20284,-2.16348 2.56531,0 4.5796,0.72097 6.03745,2.16348 1.45785,1.44222 2.18962,3.35335 2.18962,5.72854 0,2.56531 -0.75223,4.59523 -2.25669,6.08377 -1.50389,1.48911 -3.56478,2.23083 -6.18181,2.23083zm0.123903 -12.5546c-1.12849,0 -2.00434,0.386772 -2.62755,1.15946 -0.623212,0.777522 -0.937517,1.87475 -0.937517,3.29168 0,2.96743 1.20039,4.45086 3.59576,4.45086 2.28227,0 3.42582,-1.52464 3.42582,-4.56937 0,-2.88985 -1.15406,-4.33264 -3.45651,-4.33264zm17.7043 12.5546c-2.57583,0 -4.60034,-0.721254 -6.07383,-2.16348 -1.4732,-1.44279 -2.21008,-3.40535 -2.21008,-5.87831 0,-2.55508 0.762461,-4.55913 2.2925,-6.00136 1.53004,-1.44251 3.59576,-2.16348 6.20256,-2.16348 2.5656,0 4.57988,0.72097 6.03745,2.16348 1.45814,1.44222 2.18962,3.35335 2.18962,5.72854 0,2.56531 -0.751946,4.59523 -2.25641,6.08377 -1.50418,1.48911 -3.56478,2.23083 -6.18181,2.23083zm0.123619 -12.5546c-1.1282,0 -2.00405,0.386772 -2.62726,1.15946 -0.623212,0.777522 -0.937801,1.87475 -0.937801,3.29168 0,2.96743 1.20039,4.45086 3.59576,4.45086 2.28255,0 3.4261,-1.52464 3.4261,-4.56937 0,-2.88985 -1.15406,-4.33264 -3.45679,-4.33264zm25.4627 12.1786l-4.77028 0 0 -2.12767 -0.0568364 0c-1.087,1.66929 -2.6841,2.50364 -4.78591,2.50364 -1.93159,0 -3.48748,-0.680048 -4.66201,-2.04526 -1.17992,-1.35981 -1.76733,-3.26611 -1.76733,-5.71291 0,-2.55537 0.649356,-4.60034 1.9475,-6.14061 1.29843,-1.54055 2.99841,-2.30784 5.10022,-2.30784 1.99354,0 3.37921,0.71074 4.16753,2.14273l0.0568364 0 0 -9.19045 4.77028 0 0 22.8784zm-4.67764 -7.51605l0 -1.16429c0,-1.00458 -0.29356,-1.83923 -0.875565,-2.50364 -0.582573,-0.664702 -1.34475,-0.994638 -2.27715,-0.994638 -1.05631,0 -1.88555,0.412348 -2.47807,1.24159 -0.59252,0.834643 -0.891195,1.97336 -0.891195,3.42099 0,1.35953 0.288445,2.4056 0.860219,3.13709 0.577174,0.736884 1.37061,1.10234 2.38514,1.10234 0.968777,0 1.75681,-0.386204 2.36468,-1.15889 0.607866,-0.778091 0.911941,-1.80314 0.911941,-3.08053zm21.0735 7.51605l-12.982 0 0 -21.6419 12.4824 0 0 3.9669 -7.60386 0 0 4.81632 7.07841 0 0 3.95155 -7.07841 0 0 4.95045 8.10345 0 0 3.95667zm12.0172 -11.1533c-0.57689,-0.314305 -1.24642,-0.468901 -2.00917,-0.468901 -1.03528,0 -1.84434,0.381372 -2.43118,1.13872 -0.582573,0.762461 -0.876134,1.79262 -0.876134,3.10128l0 7.3822 -4.76517 0 0 -15.4547 4.76517 0 0 2.86939 0.0619517 0c0.757345,-2.09698 2.11204,-3.14277 4.07489,-3.14277 0.504708,0 0.896595,0.0622359 1.17964,0.180456l0 4.39431zm14.0107 11.1533l-4.51281 0 0 -2.22032 -0.0619517 0c-1.03528,1.73095 -2.57071,2.59629 -4.60034,2.59629 -1.50418,0 -2.68382,-0.422295 -3.54404,-1.27257 -0.860504,-0.849705 -1.2882,-1.98842 -1.2882,-3.40507 0,-2.99841 1.77756,-4.72908 5.32699,-5.19286l4.19822 -0.556429c0,-1.68946 -0.916772,-2.53434 -2.75088,-2.53434 -1.83894,0 -3.59036,0.545914 -5.24913,1.64314l0 -3.59064c0.664134,-0.344997 1.57124,-0.643673 2.72502,-0.906541 1.14866,-0.262869 2.19957,-0.391319 3.14789,-0.391319 4.40426,0 6.60922,2.19929 6.60922,6.59359l0 9.23706zm-4.48212 -6.27986l0 -1.04068 -2.80715 0.360627c-1.55078,0.200917 -2.32347,0.901426 -2.32347,2.10181 0,0.541083 0.185287,0.989238 0.56126,1.33452 0.381372,0.344997 0.891479,0.520338 1.53515,0.520338 0.896595,0 1.62296,-0.30919 2.18962,-0.927571 0.561544,-0.618096 0.844589,-1.4013 0.844589,-2.34905z"/>
   <path id="_463734208" class="fil8" d="M18.288 155.658l-2.24646 -5.41907 1.9924 -3.61707 -0.951726 0 -2.47494 4.54322 0 -4.54322 -0.938938 0 0 9.03614 0.938938 0 0 -2.94441 0.824981 -1.47235 1.85315 4.41676 1.00259 0zm4.40397 -2.01798l0 -2.19559c0,-0.230756 -0.0213137,-0.452418 -0.0636568,-0.666407 -0.0423431,-0.213705 -0.101169,-0.410359 -0.17733,-0.590246 -0.120777,-0.272815 -0.289866,-0.475721 -0.507834,-0.611276 -0.215694,-0.132997 -0.473732,-0.200917 -0.774112,-0.200917 -0.213705,0 -0.400128,0.0298391 -0.55245,0.0846863 -0.154311,0.0531421 -0.285319,0.131292 -0.393308,0.228482 -0.105716,0.0994638 -0.198643,0.213705 -0.272815,0.346702l0 -0.609002 -0.888069 0 0 9.03642 0.888069 0 0 -3.35051c0.110263,0.202906 0.260311,0.357217 0.448724,0.463217 0.188129,0.105716 0.437641,0.158574 0.744273,0.158574 0.317431,0 0.583994,-0.0636568 0.801678,-0.194665 0.215978,-0.131292 0.385067,-0.332209 0.505844,-0.605024 0.0505844,-0.116231 0.0949168,-0.242976 0.131008,-0.387056 0.035807,-0.141807 0.0613833,-0.289866 0.0801394,-0.444177 0.0193244,-0.156584 0.0298391,-0.308906 0.0298391,-0.463217zm-0.875849 -0.0886648c0,0.352954 -0.0380804,0.632305 -0.111968,0.835496 -0.0741715,0.204895 -0.179887,0.348976 -0.317147,0.435651 -0.135555,0.0866756 -0.298391,0.126745 -0.484531,0.124756 -0.194665,0.00198928 -0.366027,-0.0446166 -0.509823,-0.135271 -0.143796,-0.0932118 -0.256048,-0.241271 -0.334198,-0.448439 -0.0804236,-0.20518 -0.120493,-0.476005 -0.120493,-0.812193l0 -1.99297c0,-0.340166 0.0400697,-0.613265 0.120493,-0.818445 0.0781501,-0.204895 0.190402,-0.352954 0.334198,-0.444177 0.143796,-0.0909383 0.315158,-0.135271 0.509823,-0.132997 0.186139,-0.00227346 0.348976,0.0380804 0.484531,0.124472 0.13726,0.0866756 0.242976,0.230756 0.317147,0.435935 0.0738874,0.20319 0.111968,0.482257 0.111968,0.835211l0 1.99297zm5.43214 0.0505844l0 -2.10664c-0.00198928,-0.490783 -0.0781501,-0.8929 -0.228482,-1.20806 -0.148059,-0.314874 -0.357217,-0.547619 -0.626338,-0.697667 -0.270541,-0.152322 -0.585699,-0.226493 -0.947179,-0.226493 -0.357785,0 -0.67067,0.0741715 -0.937233,0.226493 -0.268552,0.150048 -0.475721,0.382793 -0.626053,0.697667 -0.148059,0.315158 -0.22422,0.717276 -0.226209,1.20806l0 2.10664c0.00198928,0.497035 0.0781501,0.903415 0.226209,1.21829 0.150332,0.315158 0.357501,0.54563 0.626053,0.693689 0.266563,0.148343 0.579447,0.22223 0.937233,0.220241 0.36148,0.00198928 0.676638,-0.0718981 0.947179,-0.220241 0.269121,-0.148059 0.478279,-0.378531 0.626338,-0.693689 0.150332,-0.314874 0.226493,-0.721254 0.228482,-1.21829zm-0.875849 -0.0505844c0,0.357217 -0.035807,0.636284 -0.107705,0.841748 -0.0721823,0.202906 -0.175909,0.346986 -0.313169,0.431389 -0.137544,0.0846863 -0.306633,0.124756 -0.505276,0.122767 -0.194665,0.00198928 -0.359775,-0.0380804 -0.497035,-0.122767 -0.135555,-0.0844021 -0.239281,-0.228482 -0.30919,-0.431389 -0.0716139,-0.205464 -0.107705,-0.484531 -0.107705,-0.841748l0 -2.00547c0,-0.353238 0.0360911,-0.630032 0.107705,-0.833506 0.0699088,-0.200633 0.173635,-0.344713 0.30919,-0.429115 0.13726,-0.0824128 0.30237,-0.122767 0.497035,-0.120493 0.198643,-0.00227346 0.367732,0.0380804 0.505276,0.120493 0.13726,0.0844021 0.240986,0.228482 0.313169,0.429115 0.0718981,0.203474 0.107705,0.480268 0.107705,0.833506l0 2.00547zm5.45772 0.443893l0 -0.190402c0,-0.221662 -0.0318284,-0.425137 -0.0954852,-0.609002 -0.0613833,-0.183866 -0.152322,-0.338177 -0.270541,-0.46748 -0.118504,-0.126745 -0.264574,-0.215978 -0.433662,-0.268552 0.173351,-0.0656461 0.313169,-0.158574 0.418885,-0.28333 0.105432,-0.12504 0.183866,-0.270826 0.232745,-0.440198 0.0485952,-0.167099 0.0718981,-0.348976 0.0718981,-0.54563l0 -0.177898c0.00198928,-0.52659 -0.127029,-0.922171 -0.38734,-1.18845 -0.260027,-0.264574 -0.668396,-0.397855 -1.22483,-0.397855l-1.73834 0 0 6.23155 1.7895 0c0.376257,-0.00227346 0.685163,-0.0679195 0.92615,-0.198928 0.241271,-0.133281 0.421158,-0.323683 0.537388,-0.570922 0.116231,-0.247807 0.173635,-0.54364 0.173635,-0.8929zm-0.95201 -2.85546c0.00227346,0.215694 -0.0213137,0.395582 -0.0699088,0.537388 -0.0508686,0.143796 -0.141523,0.249512 -0.274804,0.32141 -0.131292,0.0699088 -0.321694,0.106 -0.568933,0.106l-0.685447 0 0 -1.94182 0.659871 0c0.238997,-0.00227346 0.427126,0.0295549 0.564954,0.0949168 0.13726,0.0656461 0.234734,0.169373 0.291571,0.313169 0.0574048,0.143796 0.0849705,0.331925 0.082697,0.568933zm0.0761608 2.74122c0.00227346,0.219957 -0.0252922,0.40837 -0.0807077,0.562681 -0.0568364,0.154595 -0.154311,0.272815 -0.295834,0.355228 -0.139533,0.0807077 -0.336188,0.123051 -0.588257,0.123051l-0.710455 0 0 -2.08163 0.710455 0c0.256048,0 0.454976,0.0423431 0.594509,0.122767 0.139818,0.0824128 0.237008,0.201201 0.292139,0.355512 0.0548472,0.154311 0.0804236,0.342724 0.0781501,0.562397zm5.35598 -1.06597l0 -1.29473c-0.00198928,-0.497035 -0.0699088,-0.904836 -0.209442,-1.22255 -0.137828,-0.314874 -0.336472,-0.549608 -0.596783,-0.697951 -0.262016,-0.150048 -0.575185,-0.226209 -0.94519,-0.22422 -0.357785,-0.00198928 -0.67067,0.0741715 -0.937233,0.22422 -0.268552,0.152322 -0.475721,0.38933 -0.626053,0.713013 -0.148059,0.325673 -0.22422,0.744557 -0.226209,1.25864l0 1.95432c0.00198928,0.522611 0.0804236,0.947748 0.230472,1.27115 0.152322,0.325957 0.363753,0.564954 0.634295,0.715002 0.270826,0.150332 0.588257,0.22422 0.950021,0.22223 0.368016,-0.00227346 0.674648,-0.0718981 0.919898,-0.211716 0.245533,-0.139533 0.433946,-0.338177 0.562681,-0.596214 0.129303,-0.260311 0.200917,-0.569217 0.217968,-0.930981l-0.850273 0c-0.0107989,0.344713 -0.0846863,0.594509 -0.219957,0.744841 -0.137544,0.150048 -0.346702,0.22422 -0.630316,0.219957 -0.198928,0.00198928 -0.370005,-0.0400697 -0.511812,-0.129303 -0.141807,-0.0886648 -0.249796,-0.240986 -0.325957,-0.456965 -0.0761608,-0.217399 -0.114241,-0.515791 -0.114241,-0.898584l0 -0.660155 2.67813 0zm-0.863061 -0.697951l-1.81507 0 0 -0.533126c0,-0.374552 0.0360911,-0.666123 0.107989,-0.877839 0.0718981,-0.211432 0.175625,-0.35949 0.312885,-0.444177 0.137544,-0.0866756 0.306633,-0.129019 0.505844,-0.124756 0.202906,-0.00198928 0.370005,0.0380804 0.501297,0.124756 0.131008,0.0869597 0.228482,0.230472 0.291571,0.435935 0.0636568,0.202906 0.0954852,0.482257 0.0954852,0.835496l0 0.58371zm5.36849 3.54091l0 -6.23155 -3.08423 0 -0.088949 3.83276c-0.00625201,0.351249 -0.0380804,0.649356 -0.0909383,0.892616 -0.0551313,0.24326 -0.145785,0.42741 -0.272815,0.554155 -0.127029,0.127029 -0.30237,0.190402 -0.5246,0.190402l-0.114241 0 0 0.761608 0.292139 0c0.315158,-0.00426273 0.573195,-0.0679195 0.774112,-0.194665 0.200917,-0.126745 0.355228,-0.298391 0.465206,-0.512096 0.112252,-0.213421 0.190402,-0.450145 0.234734,-0.712445 0.0446166,-0.2623 0.0699088,-0.528863 0.0741715,-0.801678l0.0761608 -3.27435 1.3834 0 0 5.49523 0.875849 0zm4.73362 -1.76392l0 -0.254059c0,-0.58371 -0.139249,-1.02391 -0.416611,-1.32003 -0.279067,-0.295834 -0.693689,-0.443893 -1.24557,-0.443893l-0.825265 0 0 -2.44965 -0.888069 0 0 6.23155 1.71333 0c0.558134,0 0.974745,-0.148059 1.24983,-0.444461 0.275088,-0.295834 0.412348,-0.736032 0.412348,-1.31946zm-0.875565 -0.0511528c0.00198928,0.260311 -0.0272815,0.467764 -0.0866756,0.620086 -0.0593941,0.152322 -0.154311,0.259743 -0.287877,0.325389 -0.131008,0.0659303 -0.306633,0.0974745 -0.526305,0.0954852l-0.711024 0 0 -2.25925 0.711024 0c0.211432,-0.00227346 0.382793,0.0318284 0.515791,0.0974745 0.133566,0.0676354 0.230756,0.177614 0.292139,0.332209 0.0630884,0.1563 0.0929276,0.363469 0.0929276,0.62378l0 0.164826zm5.39406 1.81507l0 -6.23155 -0.875849 0 0 2.69064 -1.71333 0 0 -2.69064 -0.888353 0 0 6.23155 0.888353 0 0 -2.75401 1.71333 0 0 2.75401 0.875849 0zm6.21847 0l0 -6.23155 -0.875565 0 0 6.23155 0.875565 0zm-1.48485 -1.76392l0 -0.254059c0,-0.58371 -0.139249,-1.02391 -0.416611,-1.32003 -0.279067,-0.295834 -0.693689,-0.443893 -1.24557,-0.443893l-0.825265 0 0 -2.44965 -0.888353 0 0 6.23155 1.71362 0c0.558134,0 0.974745,-0.148059 1.24983,-0.444461 0.275088,-0.295834 0.412348,-0.736032 0.412348,-1.31946zm-0.875565 -0.0511528c0.00198928,0.260311 -0.0272815,0.467764 -0.0866756,0.620086 -0.0593941,0.152322 -0.154311,0.259743 -0.287877,0.325389 -0.131008,0.0659303 -0.306633,0.0974745 -0.526305,0.0954852l-0.711024 0 0 -2.25925 0.711024 0c0.211147,-0.00227346 0.382793,0.0318284 0.515791,0.0974745 0.133566,0.0676354 0.230472,0.177614 0.292139,0.332209 0.0630884,0.1563 0.0929276,0.363469 0.0929276,0.62378l0 0.164826zm7.06903 -1.02789l0 -1.29473c-0.00198928,-0.497035 -0.0696246,-0.904836 -0.209442,-1.22255 -0.137544,-0.314874 -0.336472,-0.549608 -0.596498,-0.697951 -0.262016,-0.150048 -0.575469,-0.226209 -0.945474,-0.22422 -0.357501,-0.00198928 -0.67067,0.0741715 -0.936949,0.22422 -0.268836,0.152322 -0.476005,0.38933 -0.626053,0.713013 -0.148059,0.325673 -0.22422,0.744557 -0.226493,1.25864l0 1.95432c0.00227346,0.522611 0.0804236,0.947748 0.230756,1.27115 0.152322,0.325957 0.363469,0.564954 0.634295,0.715002 0.270826,0.150332 0.588257,0.22422 0.949737,0.22223 0.3683,-0.00227346 0.674933,-0.0718981 0.920182,-0.211716 0.245533,-0.139533 0.433662,-0.338177 0.562681,-0.596214 0.129019,-0.260311 0.200917,-0.569217 0.217968,-0.930981l-0.850273 0c-0.0107989,0.344713 -0.0849705,0.594509 -0.219957,0.744841 -0.137828,0.150048 -0.346986,0.22422 -0.6306,0.219957 -0.198643,0.00198928 -0.370005,-0.0400697 -0.511812,-0.129303 -0.141807,-0.0886648 -0.249796,-0.240986 -0.325957,-0.456965 -0.0758766,-0.217399 -0.113957,-0.515791 -0.113957,-0.898584l0 -0.660155 2.67785 0zm-0.863061 -0.697951l-1.81479 0 0 -0.533126c0,-0.374552 0.035807,-0.666123 0.107705,-0.877839 0.0721823,-0.211432 0.175909,-0.35949 0.313169,-0.444177 0.137544,-0.0866756 0.306633,-0.129019 0.50556,-0.124756 0.20319,-0.00198928 0.370005,0.0380804 0.501297,0.124756 0.131008,0.0869597 0.228482,0.230472 0.291855,0.435935 0.0633726,0.202906 0.095201,0.482257 0.095201,0.835496l0 0.58371zm7.69111 3.54091l0 -6.23155 -3.47725 0 0 6.23155 0.888069 0 0 -5.45715 1.71333 0 0 5.45715 0.875849 0zm4.7592 -2.05606l0 -2.10664c-0.00198928,-0.490783 -0.0781501,-0.8929 -0.228482,-1.20806 -0.148059,-0.314874 -0.357217,-0.547619 -0.626053,-0.697667 -0.270826,-0.152322 -0.585984,-0.226493 -0.947463,-0.226493 -0.357785,0 -0.67067,0.0741715 -0.937233,0.226493 -0.268552,0.150048 -0.475721,0.382793 -0.626053,0.697667 -0.148059,0.315158 -0.22422,0.717276 -0.226209,1.20806l0 2.10664c0.00198928,0.497035 0.0781501,0.903415 0.226209,1.21829 0.150332,0.315158 0.357501,0.54563 0.626053,0.693689 0.266563,0.148343 0.579447,0.22223 0.937233,0.220241 0.36148,0.00198928 0.676638,-0.0718981 0.947463,-0.220241 0.268836,-0.148059 0.477994,-0.378531 0.626053,-0.693689 0.150332,-0.314874 0.226493,-0.721254 0.228482,-1.21829zm-0.875565 -0.0505844c0,0.357217 -0.0360911,0.636284 -0.107989,0.841748 -0.0718981,0.202906 -0.175625,0.346986 -0.312885,0.431389 -0.137828,0.0846863 -0.306917,0.124756 -0.50556,0.122767 -0.194665,0.00198928 -0.359775,-0.0380804 -0.497035,-0.122767 -0.135555,-0.0844021 -0.239281,-0.228482 -0.30919,-0.431389 -0.0716139,-0.205464 -0.107705,-0.484531 -0.107705,-0.841748l0 -2.00547c0,-0.353238 0.0360911,-0.630032 0.107705,-0.833506 0.0699088,-0.200633 0.173635,-0.344713 0.30919,-0.429115 0.13726,-0.0824128 0.30237,-0.122767 0.497035,-0.120493 0.198643,-0.00227346 0.367732,0.0380804 0.50556,0.120493 0.13726,0.0844021 0.240986,0.228482 0.312885,0.429115 0.0718981,0.203474 0.107989,0.480268 0.107989,0.833506l0 2.00547zm5.76208 2.10664l-1.77699 -3.64265 1.54851 -2.5889 -0.913646 0 -1.71362 2.83017 0 -2.83017 -0.875565 0 0 6.23155 0.875565 0 0 -1.96739 0.507834 -0.837485 1.3959 2.80488 0.95201 0zm4.45456 -2.01798l0 -2.19559c0,-0.230756 -0.0213137,-0.452418 -0.0633726,-0.666407 -0.0423431,-0.213705 -0.101453,-0.410359 -0.177614,-0.590246 -0.120777,-0.272815 -0.289866,-0.475721 -0.507834,-0.611276 -0.21541,-0.132997 -0.473732,-0.200917 -0.774112,-0.200917 -0.213705,0 -0.399844,0.0298391 -0.552166,0.0846863 -0.154311,0.0531421 -0.285319,0.131292 -0.393308,0.228482 -0.105716,0.0994638 -0.198643,0.213705 -0.272815,0.346702l0 -0.609002 -0.888353 0 0 9.03642 0.888353 0 0 -3.35051c0.109979,0.202906 0.260311,0.357217 0.448439,0.463217 0.188413,0.105716 0.437641,0.158574 0.744557,0.158574 0.317431,0 0.583994,-0.0636568 0.801678,-0.194665 0.215694,-0.131292 0.384783,-0.332209 0.50556,-0.605024 0.0505844,-0.116231 0.095201,-0.242976 0.131008,-0.387056 0.0360911,-0.141807 0.0613833,-0.289866 0.0804236,-0.444177 0.0190402,-0.156584 0.0295549,-0.308906 0.0295549,-0.463217zm-0.875565 -0.0886648c0,0.352954 -0.0380804,0.632305 -0.112252,0.835496 -0.0738874,0.204895 -0.179887,0.348976 -0.317147,0.435651 -0.135555,0.0866756 -0.298107,0.126745 -0.484531,0.124756 -0.194381,0.00198928 -0.366027,-0.0446166 -0.509539,-0.135271 -0.143796,-0.0932118 -0.256048,-0.241271 -0.334198,-0.448439 -0.0804236,-0.20518 -0.120493,-0.476005 -0.120493,-0.812193l0 -1.99297c0,-0.340166 0.0400697,-0.613265 0.120493,-0.818445 0.0781501,-0.204895 0.190402,-0.352954 0.334198,-0.444177 0.143512,-0.0909383 0.315158,-0.135271 0.509539,-0.132997 0.186424,-0.00227346 0.348976,0.0380804 0.484531,0.124472 0.13726,0.0866756 0.24326,0.230756 0.317147,0.435935 0.0741715,0.20319 0.112252,0.482257 0.112252,0.835211l0 1.99297zm6.89142 2.10664l0 -6.23155 -0.875565 0 0 6.23155 0.875565 0zm-1.48485 -1.76392l0 -0.254059c0,-0.58371 -0.139533,-1.02391 -0.416895,-1.32003 -0.279067,-0.295834 -0.693689,-0.443893 -1.24557,-0.443893l-0.824981 0 0 -2.44965 -0.888353 0 0 6.23155 1.71333 0c0.558134,0 0.975029,-0.148059 1.24983,-0.444461 0.275373,-0.295834 0.412633,-0.736032 0.412633,-1.31946zm-0.875849 -0.0511528c0.00227346,0.260311 -0.0272815,0.467764 -0.0866756,0.620086 -0.0591099,0.152322 -0.154311,0.259743 -0.287592,0.325389 -0.131008,0.0659303 -0.306917,0.0974745 -0.52659,0.0954852l-0.71074 0 0 -2.25925 0.71074 0c0.211432,-0.00227346 0.382793,0.0318284 0.516075,0.0974745 0.133281,0.0676354 0.230472,0.177614 0.291855,0.332209 0.0633726,0.1563 0.0929276,0.363469 0.0929276,0.62378l0 0.164826zm6.73938 -3.64208l0 -0.774396 -3.59178 0 0 0.774396 1.35782 0 0 5.45715 0.875849 0 0 -5.45715 1.35811 0zm4.35339 5.45715l0 -6.23155 -0.837769 0 -1.89123 4.50542c0.00426273,-0.0656461 0.00625201,-0.152037 0.0105147,-0.260027 0.00426273,-0.106 0.00852547,-0.215978 0.0130724,-0.33022 0.00397855,-0.114241 0.00824128,-0.213421 0.0105147,-0.30237 0.00198928,-0.0866756 0.00397855,-0.14607 0.00397855,-0.173351l0 -3.43946 -0.888069 0 0 6.23155 0.837485 0 1.90374 -4.48013c-0.00454691,0.0446166 -0.0107989,0.107705 -0.0150617,0.192676 -0.00426273,0.0824128 -0.00824128,0.173351 -0.0144933,0.272815 -0.00426273,0.0971903 -0.00653619,0.194665 -0.0105147,0.287592 -0.00255764,0.0932118 -0.00682037,0.173635 -0.00880965,0.238713 0,0.0659303 -0.00198928,0.107989 -0.00198928,0.12504l0 3.3633 0.888638 0zm4.60659 0l0 -6.23155 -1.85287 0c-0.346702,0.00227346 -0.636568,0.0696246 -0.871303,0.20319 -0.232745,0.132997 -0.40837,0.319137 -0.524884,0.558134 -0.11822,0.239281 -0.177614,0.518348 -0.177614,0.837769l0 0.393592c0.00198928,0.405812 0.0846863,0.744273 0.245533,1.01084 0.162836,0.268552 0.393308,0.458954 0.693689,0.575469l-1.11684 2.65256 0.926434 0 1.06597 -2.52553 0.723528 0 0 2.52553 0.888353 0zm-0.875849 -3.24905l-0.849989 0c-0.177898,0.00227346 -0.33022,-0.0315442 -0.454976,-0.095201 -0.124756,-0.0653619 -0.217968,-0.169088 -0.28333,-0.313169 -0.0656461,-0.143796 -0.0994638,-0.334198 -0.0994638,-0.568933l0 -0.266563c-0.00198928,-0.352954 0.0656461,-0.609002 0.198643,-0.767576 0.135555,-0.158574 0.348976,-0.237008 0.639126,-0.234734l0.849989 0 0 2.24618z"/>
   <line id="_463734112" class="fil6 str1" x1="26.689" y1="87.5349" x2="89.7805" y2= "87.5349" />
   <line id="_463734016" class="fil6 str1" x1="58.1519" y1="106.596" x2="58.1519" y2= "87.7498" />
   <line id="_463733920" class="fil6 str1" x1="72.2707" y1="103.8" x2="72.2707" y2= "87.7498" />
   <line id="_463733824" class="fil6 str1" x1="63.0001" y1="106.439" x2="63.0001" y2= "87.7498" />
   <line id="_463733728" class="fil6 str1" x1="67.6552" y1="103.8" x2="67.6552" y2= "87.7498" />
   <line id="_463733632" class="fil6 str1" x1="76.5871" y1="101.576" x2="76.5871" y2= "87.7498" />
   <line id="_463733536" class="fil6 str1" x1="81.1278" y1="97.9769" x2="81.1278" y2= "87.7498" />
   <line id="_463733440" class="fil6 str1" x1="85.1629" y1="95.3917" x2="85.1629" y2= "87.7498" />
   <line id="_463733344" class="fil6 str1" x1="44.032" y1="103.8" x2="44.032" y2= "87.7498" />
   <line id="_463733248" class="fil6 str1" x1="53.3026" y1="106.439" x2="53.3026" y2= "87.7498" />
   <line id="_463733152" class="fil6 str1" x1="48.6477" y1="103.8" x2="48.6477" y2= "87.7498" />
   <line id="_463733056" class="fil6 str1" x1="39.7156" y1="101.576" x2="39.7156" y2= "87.7498" />
   <line id="_463732960" class="fil6 str1" x1="35.1749" y1="97.9769" x2="35.1749" y2= "87.7498" />
   <line id="_463732864" class="fil6 str1" x1="31.1398" y1="95.3917" x2="31.1398" y2= "87.7498" />
   <path id="_463732768" class="fil6 str1" d="M27.7191 50.9166c0,-5.22213 4.59494,-9.45559 10.263,-9.45559 5.66801,0 10.263,4.23346 10.263,9.45559"/>
   <path id="_463732672" class="fil6 str1" d="M48.2709 50.9166c0,-5.22213 4.46933,-9.45559 9.98218,-9.45559 5.51313,0 9.98218,4.23346 9.98218,9.45559"/>
   <path id="_463732576" class="fil6 str1" d="M68.2355 50.9166c0,-5.22213 4.55061,-9.45559 10.1638,-9.45559 5.61345,0 10.1641,4.23346 10.1641,9.45559"/>
   <line id="_463732480" class="fil6 str1" x1="48.2459" y1="64.0848" x2="48.2459" y2= "49.6364" />
   <line id="_463732384" class="fil6 str1" x1="68.1691" y1="64.0848" x2="68.1691" y2= "49.6364" />
   <line id="_463732288" class="fil6 str1" x1="59.1679" y1="20.0178" x2="59.1679" y2= "7.19237" />
   <circle id="_463732192" class="fil5" cx="73.6127" cy="16.0272" r="0.767619"/>
   <circle id="_463732096" class="fil5" cx="74.7215" cy="13.3149" r="0.767619"/>
   <circle id="_463732000" class="fil5" cx="75.0285" cy="10.4491" r="0.767619"/>
   <circle id="_463731904" class="fil5" cx="74.2097" cy="7.89028" r="0.767619"/>
   <circle id="_463731808" class="fil5" cx="71.958" cy="5.94558" r="0.767619"/>
   <circle id="_463731712" class="fil5" cx="69.0921" cy="5.33147" r="0.767619"/>
   <circle id="_463731616" class="fil5" cx="65.9192" cy="6.15029" r="0.767619"/>
   <circle id="_463731520" class="fil5" cx="63.1557" cy="7.68556" r="0.767619"/>
   <circle id="_463731424" class="fil5" cx="62.0298" cy="12.5984" r="0.767619"/>
   <circle id="_463731328" class="fil5" cx="62.3369" cy="10.0397" r="0.767619"/>
   <path id="_463731232" class="fil6 str1" d="M64.5079 10.5616c3.55285,-4.96893 10.1197,-1.68435 7.10399,4.05926"/>
   <g>
    <path id="_463731136" class="fil7" d="M48.86 22.1821l0 1.82615 -0.943485 0 0 -1.82615 0.943485 0zm19.9041 1.82615l-19.9041 0 0 -1.82615 19.9041 0 0 1.82615zm0 0l0 -1.82615 0.943485 0 0 1.82615 -0.943485 0z"/>
   </g>
   <circle class="fil5" cx="46.1712" cy="18.998" r="0.767619"/>
   <circle class="fil5" cx="71.3695" cy="19.1861" r="0.767619"/>
   <line class="fil6 str1" x1="68.1691" y1="87.1942" x2="68.1691" y2= "70.1512" />
   <line class="fil6 str1" x1="48.2732" y1="87.1942" x2="48.2732" y2= "70.1512" />
   <g>
    <path class="fil7" d="M48.86 26.082l0 1.82615 -0.943485 0 0 -1.82615 0.943485 0zm19.9041 1.82615l-19.9041 0 0 -1.82615 19.9041 0 0 1.82615zm0 0l0 -1.82615 0.943485 0 0 1.82615 -0.943485 0z"/>
   </g>
   <circle class="fil5" cx="62.9435" cy="111.539" r="0.767619"/>
   <circle class="fil5" cx="67.6553" cy="110.141" r="0.767619"/>
   <circle class="fil5" cx="72.2709" cy="108.108" r="0.767619"/>
   <circle class="fil5" cx="76.5872" cy="106.074" r="0.767619"/>
   <circle class="fil5" cx="81.128" cy="103.278" r="0.767619"/>
   <circle class="fil5" cx="85.1408" cy="100.367" r="0.767619"/>
   <circle class="fil5" cx="58.0392" cy="112.467" r="0.767619"/>
   <circle class="fil5" cx="53.1652" cy="111.539" r="0.767619"/>
   <circle class="fil5" cx="48.4534" cy="110.141" r="0.767619"/>
   <circle class="fil5" cx="43.8379" cy="108.108" r="0.767619"/>
   <circle class="fil5" cx="39.5215" cy="106.074" r="0.767619"/>
   <circle class="fil5" cx="34.9808" cy="103.278" r="0.767619"/>
   <circle class="fil5" cx="30.9679" cy="100.367" r="0.767619"/>
   <circle class="fil5" cx="27.3161" cy="97.6278" r="0.767619"/>
   <circle class="fil5" cx="26.1298" cy="26.9693" r="0.767619"/>
   <circle class="fil5" cx="76.3427" cy="26.9693" r="0.767619"/>
   <circle class="fil5" cx="29.7817" cy="26.9693" r="0.767619"/>
   <circle class="fil5" cx="79.9945" cy="26.9693" r="0.767619"/>
   <circle class="fil5" cx="33.4335" cy="26.9693" r="0.767619"/>
   <circle class="fil5" cx="83.6464" cy="26.9693" r="0.767619"/>
   <circle class="fil5" cx="37.0853" cy="26.9693" r="0.767619"/>
   <circle class="fil5" cx="87.2982" cy="26.9693" r="0.767619"/>
   <circle class="fil5" cx="40.7372" cy="26.9693" r="0.767619"/>
   <circle class="fil5" cx="90.9501" cy="26.9693" r="0.767619"/>
   <circle class="fil5" cx="88.4369" cy="97.6278" r="0.767619"/>
   <line class="fil6 str1" x1="53.0074" y1="20.1138" x2="53.0074" y2= "15.4302" />
   <line class="fil6 str1" x1="65.2988" y1="20.1138" x2="65.2988" y2= "15.4302" />
   <circle class="fil5" cx="44.2576" cy="26.9693" r="0.767619"/>
   <circle class="fil5" cx="72.598" cy="26.9693" r="0.767619"/>
   <path class="fil6 str0" d="M58.2346 107.233c-7.03408,0 -30.0781,-10.1552 -31.5459,-19.6978 0,-18.5202 0,-37.0403 0,-55.5605l31.4436 0 0.204895 0 31.4433 0c0,18.5202 0,37.0403 0,55.5605 -1.46752,9.54255 -24.9071,19.6978 -31.5459,19.6978z"/>
   <rect class="fil6 str1" x="35.3188" y="73.0066" width="5.67685" height="6.5732"/>
   <rect class="fil6 str1" x="55.5937" y="73.0066" width="5.67685" height="6.5732"/>
   <rect class="fil6 str1" x="75.9213" y="73.0066" width="5.67685" height="6.5732"/>
  </g>
 </g>
</svg>
