<svg width="25" height="25" viewBox="0 0 25 25" fill="none" xmlns="http://www.w3.org/2000/svg">
  <g clip-path="url(#clip0)">
    <path d="M12.083 24.199C18.7195 24.199 24.0995 18.8265 24.0995 12.1991C24.0995 5.57175 18.7195 0.199219 12.083 0.199219C5.4464 0.199219 0.0664062 5.57175 0.0664062 12.1991C0.0664062 18.8265 5.4464 24.199 12.083 24.199Z" fill="white" />
    <path d="M19.4415 8.82553C18.9266 9.05356 18.3726 9.20779 17.7917 9.27667C18.3848 8.92179 18.84 8.36028 19.0549 7.6901C18.4999 8.01888 17.8849 8.25739 17.2309 8.38595C16.707 7.82871 15.9604 7.48047 15.1338 7.48047C13.5478 7.48047 12.2615 8.765 12.2615 10.3488C12.2615 10.5736 12.287 10.7924 12.3363 11.0025C9.94917 10.8829 7.83259 9.74106 6.41583 8.00519C6.16864 8.42873 6.02683 8.92179 6.02683 9.44737C6.02683 10.4423 6.53429 11.3206 7.30457 11.8348C6.83396 11.8201 6.39077 11.6911 6.0037 11.4757C6.00348 11.4878 6.00348 11.5 6.00348 11.512C6.00348 12.9018 6.99398 14.061 8.3077 14.3243C8.06694 14.3902 7.81267 14.425 7.55113 14.425C7.36562 14.425 7.1859 14.4073 7.01068 14.3739C7.37612 15.5132 8.43666 16.3425 9.69384 16.3658C8.71063 17.1353 7.4723 17.5937 6.12622 17.5937C5.89488 17.5937 5.66568 17.5802 5.44141 17.5535C6.71187 18.3676 8.22202 18.8423 9.84399 18.8423C15.1272 18.8423 18.0164 14.4717 18.0164 10.681C18.0164 10.5567 18.0136 10.4328 18.008 10.3101C18.5697 9.90577 19.0566 9.40073 19.4415 8.82553Z" fill="#4F4F4F" />
  </g>
  <defs>
    <clipPath id="clip0">
      <rect x="0.0664062" y="0.199219" width="24.0333" height="24" fill="white" />
    </clipPath>
  </defs>
</svg>
