<svg width="32" height="32" viewBox="0 0 32 32" fill="none" xmlns="http://www.w3.org/2000/svg">
<path d="M15.9987 13.3346C17.0535 13.3346 18.0847 13.0218 18.9617 12.4358C19.8388 11.8498 20.5224 11.0168 20.9261 10.0423C21.3297 9.06774 21.4353 7.99539 21.2296 6.96082C21.0238 5.92626 20.5158 4.97595 19.7699 4.23007C19.0241 3.48419 18.0737 2.97624 17.0392 2.77045C16.0046 2.56466 14.9323 2.67028 13.9577 3.07395C12.9832 3.47761 12.1502 4.1612 11.5642 5.03826C10.9782 5.91533 10.6654 6.94647 10.6654 8.0013C10.6654 9.41579 11.2273 10.7723 12.2275 11.7725C13.2277 12.7727 14.5842 13.3346 15.9987 13.3346ZM26.2787 21.6013C23.5494 18.8802 19.8527 17.3522 15.9987 17.3522C12.1447 17.3522 8.44796 18.8802 5.7187 21.6013L5.33203 22.0013V28.0013H26.6654V22.0013L26.2787 21.6013Z" fill="#D9D9DE"/>
</svg>
