<svg width="25" height="25" viewBox="0 0 25 25" fill="none" xmlns="http://www.w3.org/2000/svg">
  <g clip-path="url(#clip0)">
    <path d="M12.1182 24.1992C18.7549 24.1992 24.1349 18.8266 24.1349 12.1992C24.1349 5.5718 18.7549 0.199219 12.1182 0.199219C5.48161 0.199219 0.101562 5.5718 0.101562 12.1992C0.101562 18.8266 5.48161 24.1992 12.1182 24.1992Z" fill="white" />
    <path d="M19.5853 8.90186C19.5853 8.90186 19.4276 7.76695 18.9807 7.2655C18.4024 6.60567 17.7452 6.60567 17.456 6.57927C15.3267 6.42093 12.1196 6.39453 12.1196 6.39453C12.1196 6.39453 8.91244 6.42093 6.78314 6.57927C6.49398 6.60567 5.83678 6.63207 5.25844 7.2655C4.78525 7.76698 4.65383 8.90186 4.65383 8.90186C4.65383 8.90186 4.49609 10.2479 4.49609 11.594V12.8344C4.49609 14.1805 4.65383 15.5001 4.65383 15.5001C4.65383 15.5001 4.81157 16.635 5.25844 17.1365C5.83678 17.7963 6.59913 17.7699 6.94088 17.8491C8.15009 17.981 12.1196 18.0074 12.1196 18.0074C12.1196 18.0074 15.3267 18.0074 17.456 17.8227C17.7452 17.7963 18.4024 17.7699 18.9807 17.1365C19.4276 16.635 19.5853 15.5001 19.5853 15.5001C19.5853 15.5001 19.743 14.1541 19.743 12.8344V11.5939C19.743 10.2479 19.5853 8.90186 19.5853 8.90186Z" fill="#4F4F4F" />
    <path d="M10.2148 9.47656V15.4015L15.2177 12.5073L10.2148 9.47656Z" fill="white" />
  </g>
  <defs>
    <clipPath id="clip0">
      <rect x="0.101562" y="0.199219" width="24.0333" height="24" fill="white" />
    </clipPath>
  </defs>
</svg>
