<svg width="197" height="19" viewBox="0 0 197 19" fill="none" xmlns="http://www.w3.org/2000/svg">
<path d="M13.08 18.528C22.464 18.528 24.144 15.456 24.144 12.456V12.12C24.144 8.52 21.504 6.936 14.712 6.744L11.496 6.672C8.136 6.6 7.608 6.024 7.608 5.304V5.28C7.608 4.584 7.968 3.96 11.544 3.96H11.784C15.648 3.96 16.032 5.208 16.104 5.856H23.52V5.664C23.52 2.832 21.504 0.0239992 12.672 0.0239992H10.536C2.208 0.0239992 0.264 2.568 0.264 5.472V5.688C0.264 8.448 2.112 10.872 9.024 11.064L12.336 11.16C16.08 11.28 16.536 11.856 16.536 12.768V12.792C16.536 13.656 15.984 14.472 12.168 14.472H11.952C8.064 14.472 7.56 12.912 7.488 11.952H0V12.192C0 14.52 1.032 18.528 10.896 18.528H13.08Z" fill="black"/>
<path d="M32.2727 18.192H39.0887V5.208H46.7927V0.335999H24.5687V5.208H32.2727V18.192Z" fill="black"/>
<path d="M55.3742 4.68H63.1982C64.7342 4.68 65.2622 5.352 65.2622 6.192V6.216C65.2622 7.08 64.7102 7.752 63.1982 7.752H55.3742V4.68ZM55.3742 12.072H61.9022C64.5902 12.072 65.5262 13.128 65.5262 15.168V17.256C65.5262 17.76 65.5742 18 65.7422 18.192H72.7022V18.072C72.5342 17.76 72.3662 17.304 72.3662 16.056V13.416C72.3662 11.112 70.9022 9.672 68.6942 9.168C70.0382 8.856 72.2942 7.776 72.2942 5.184V4.92C72.2942 2.016 69.9902 0.335999 64.7822 0.335999H48.5582V18.192H55.3742V12.072Z" fill="black"/>
<path d="M86.5839 0C75.0159 0 73.5519 5.496 73.5519 8.856V9.576C73.5519 12.912 75.0159 18.528 86.5839 18.528H87.6639C99.2079 18.528 100.672 12.912 100.672 9.576V8.856C100.672 5.496 99.1839 0 87.6639 0H86.5839ZM93.6159 9.36C93.6159 11.28 92.3919 13.704 87.1119 13.704C81.8319 13.704 80.6079 11.184 80.6079 9.312V9.024C80.6079 7.128 81.7359 4.8 87.1119 4.8C92.3919 4.8 93.6159 7.128 93.6159 9.024V9.36Z" fill="black"/>
<path d="M108.069 18.192H114.885V11.52L124.437 0.335999H116.973L111.669 6.504L106.461 0.335999H98.3012L108.069 11.472V18.192Z" fill="black"/>
<path d="M131.921 18.192V10.2L140.633 18.192H149.513L138.785 8.448L149.177 0.335999H140.705L131.921 7.392V0.335999H125.105V18.192H131.921Z" fill="black"/>
<path d="M150.207 0.335999V18.192H170.151V13.728H156.927V11.28H169.695V6.936H156.927V4.704H169.959V0.335999H150.207Z" fill="black"/>
<path d="M178.937 4.68H186.761C188.297 4.68 188.825 5.352 188.825 6.192V6.216C188.825 7.08 188.273 7.752 186.761 7.752H178.937V4.68ZM178.937 12.072H185.465C188.153 12.072 189.089 13.128 189.089 15.168V17.256C189.089 17.76 189.137 18 189.305 18.192H196.265V18.072C196.097 17.76 195.929 17.304 195.929 16.056V13.416C195.929 11.112 194.465 9.672 192.257 9.168C193.601 8.856 195.857 7.776 195.857 5.184V4.92C195.857 2.016 193.553 0.335999 188.345 0.335999H172.121V18.192H178.937V12.072Z" fill="black"/>
</svg>