<svg width="0" height="0" class="hidden">
  <symbol xmlns="http://www.w3.org/2000/svg" viewBox="0 0 196.3 18.5" id="logo">
    <path d="M13.1 18.5c9.4 0 11.1-3.1 11.1-6.1v-.3c0-3.6-2.6-5.2-9.4-5.4l-3.2-.1c-3.5 0-4-.6-4-1.3 0-.7.4-1.3 3.9-1.3h.2c3.9 0 4.2 1.2 4.3 1.9h7.4v-.2c0-2.8-2-5.6-10.8-5.6h-2.1C2.2 0 .3 2.6.3 5.5v.2c0 2.8 1.8 5.2 8.8 5.4l3.3.1c3.7.1 4.2.7 4.2 1.6 0 .9-.6 1.7-4.4 1.7H12c-3.9 0-4.4-1.6-4.5-2.5H0v.2c0 2.3 1 6.3 10.9 6.3h2.2zm19.2-.3h6.8v-13h7.7V.3H24.6v4.9h7.7v13zM55.4 4.7h7.8c1.5 0 2.1.7 2.1 1.5 0 .9-.6 1.5-2.1 1.5h-7.8v-3zm0 7.4h6.5c2.7 0 3.6 1.1 3.6 3.1v2.1c0 .5 0 .7.2.9h7v-.1c-.2-.3-.3-.8-.3-2v-2.6c0-2.3-1.5-3.7-3.7-4.2 1.3-.3 3.6-1.4 3.6-4v-.4C72.3 2 70 .3 64.8.3H48.6v17.9h6.8v-6.1zM86.6 0c-11.6 0-13 5.5-13 8.9v.7c0 3.3 1.5 9 13 9h1.1c11.5 0 13-5.6 13-9v-.7c0-3.4-1.5-8.9-13-8.9h-1.1zm7 9.4c0 1.9-1.2 4.3-6.5 4.3s-6.5-2.5-6.5-4.4V9c0-1.9 1.1-4.2 6.5-4.2 5.3 0 6.5 2.3 6.5 4.2v.4z"></path>
    <path d="M108.1 18.2h6.8v-6.7L124.5.3H117l-5.3 6.2-5.2-6.2h-8.2l9.8 11.1v6.8zm23.8 0v-8l8.7 8h8.9l-10.7-9.7L149.2.4h-8.5l-8.8 7.1V.3h-6.8v17.9h6.8zM150.2.3v17.9h19.9v-4.5h-13.2v-2.4h12.8V6.9h-12.8V4.7h13V.3h-19.7zm28.7 4.4h7.8c1.5 0 2.1.7 2.1 1.5 0 .9-.6 1.5-2.1 1.5h-7.8v-3zm0 7.4h6.5c2.7 0 3.6 1.1 3.6 3.1v2.1c0 .5 0 .7.2.9h7v-.1c-.2-.3-.3-.8-.3-2v-2.6c0-2.3-1.5-3.7-3.7-4.2 1.3-.3 3.6-1.4 3.6-4v-.4c0-2.9-2.3-4.6-7.5-4.6h-16.2v17.9h6.8v-6.1z"></path>
  </symbol>
</svg>
