<svg width="375" height="375" fill="none" xmlns="http://www.w3.org/2000/svg"><g clip-path="url(#clip0)"><path d="M114.067 247.467H55.573V358.48h58.494V247.467z" fill="#D7D9D9"/><path d="M114.081 247.467H86.654V358.48h27.427V247.467z" fill="#E5E5E4"/><path d="M73.1 257.904h-5.26v12.779h5.26v-12.779zm0 50.079h-5.26v12.777h5.26v-12.777zm13.54-32.211c0 .11-6.955.199-15.534.199-8.58 0-15.533-.089-15.533-.199 0-.11 6.953-.199 15.533-.199 8.579 0 15.534.089 15.534.199zm-13.54 7.4h-5.26v12.779h5.26v-12.779zm13.54 17.778c0 .109-6.955.199-15.534.199-8.58 0-15.533-.09-15.533-.199 0-.111 6.953-.199 15.533-.199 8.579 0 15.534.088 15.534.199z" fill="#F0F0F0"/><path d="M97.728 257.904h-5.26v12.779h5.26v-12.779zm11.397 0h-5.258v12.779h5.258v-12.779zm-11.397 24.262h-5.26v12.778h5.26v-12.778zm11.397 0h-5.258v12.778h5.258v-12.778zm-11.397 24.261h-5.26v12.777h5.26v-12.777zm11.397 0h-5.258v12.777h5.258v-12.777zm9.341-61.615H51.178v2.781h67.288v-2.781z" fill="#D7D9D9"/><path d="M114.474 247.849c0 .111-13.074.199-29.197.199-16.13 0-29.2-.088-29.2-.199 0-.11 13.07-.199 29.2-.199 16.123 0 29.197.089 29.197.199zm-44.988 41.275H17.12v69.069h52.366v-69.069z" fill="#E5E5E4"/><path d="M69.505 289.124H44.952v69.069h24.553v-69.069z" fill="#D7D9D9"/><path d="M32.815 298.462h-4.708v11.44h4.708v-11.44zm0 44.769h-4.708v11.44h4.708v-11.44zm12.118-28.789c0 .128-6.227.232-13.905.232-7.683 0-13.908-.104-13.908-.232 0-.13 6.225-.233 13.908-.233 7.678 0 13.905.103 13.905.233zm-12.118 6.631h-4.708v11.44h4.708v-11.44zm12.118 15.891c0 .128-6.227.232-13.905.232-7.683 0-13.908-.104-13.908-.232s6.225-.233 13.908-.233c7.678 0 13.905.105 13.905.233zm9.947-38.502h-4.71v11.44h4.71v-11.44zm10.208 0h-4.709v11.44h4.709v-11.44zM54.88 320.16h-4.71v11.44h4.71v-11.44zm10.208 0h-4.709v11.44h4.709v-11.44zM54.88 341.858h-4.71v11.439h4.71v-11.439zm10.208 0h-4.709v11.439h4.709v-11.439z" fill="#F0F0F0"/><path d="M73.423 286.743h-60.24v2.491h60.24v-2.491z" fill="#D7D9D9"/><path d="M69.858 289.448c0 .128-11.704.232-26.139.232-14.44 0-26.14-.104-26.14-.232s11.7-.233 26.14-.233c14.435 0 26.139.105 26.139.233zM44.825 29.494s-8.332 2.512-.642 20.421c7.69 17.91 13.245 26.892 13.245 26.892s1.301 4.125-2.126 4.526c-.914.107-2.11.065-3.404.023-3.56-.113-7.874-.227-9.18 2.737-1.85 4.193 1.003 8.453 7.094 12.428 6.092 3.974 19.12 13.172 20.294 14.008 1.154.821 2.235 2.772-.055 3.419-2.29.647-19.174 1.286-18.392 9.279.784 7.993 19.574 16.277 21.61 17.223 2.037.945 2.479 1.864 2.232 3-.246 1.136-5.941.815-10.735 1.194-4.795.378-10.288 1.657-9.45 6.231.838 4.574 11.617 14.781 39.133 19.331l12.888 1.274 7.752-10.446c15.227-23.365 14.979-38.209 12.172-41.915-2.807-3.707-7.46-.52-10.977 2.76-3.517 3.281-7.127 7.697-8.131 7.112-1.005-.586-1.385-1.533-.706-3.673.678-2.14 7.258-21.593 1.892-27.568-5.366-5.975-17.24 6.044-19.263 7.297-2.024 1.252-2.733-.863-2.56-2.269.177-1.43 2.192-17.25 3.375-24.427 1.182-7.177-.033-12.158-4.374-13.626-4.186-1.414-7.926 5.161-10.535 7.418-2.61 2.257-4.773-1.489-4.773-1.489s-2.874-10.163-10.888-27.93c-8.014-17.765-15.66-13.167-15.66-13.167l.164-.063z" fill="#E5E5E4"/><path d="M107.8 174.519c-5.835-13.072-15.814-36.477-24.488-56.528-8.669-20.044-16.535-38.184-22.302-51.283l-6.847-15.506c-.802-1.82-1.426-3.238-1.86-4.218l-.473-1.101c-.105-.25-.149-.381-.149-.381s.07.12.187.364l.51 1.084 1.927 4.187c1.67 3.638 4.05 8.92 6.965 15.456 5.834 13.07 13.742 31.195 22.412 51.238 8.673 20.051 18.611 43.474 24.378 56.573l-.26.115z" fill="#D7D9D9"/><path d="M52.918 86.887c.012-.025.325.086.884.31.56.222 1.36.566 2.345 1 1.966.874 4.652 2.15 7.59 3.61l7.509 3.768 2.28 1.126c.54.264.835.422.824.447-.011.025-.326-.084-.886-.304-.56-.223-1.36-.568-2.34-1.013-1.96-.893-4.628-2.203-7.565-3.664l-7.532-3.71-2.289-1.116c-.539-.268-.831-.429-.82-.454zm22.387 9.43c-.102-.045 2.283-5.697 5.327-12.625 3.044-6.93 5.594-12.509 5.695-12.464.102.045-2.283 5.697-5.327 12.626-3.044 6.927-5.594 12.508-5.695 12.463zm11.901 31.377c-.02-.019.187-.289.578-.763l1.668-1.992a206.918 206.918 0 0 0 5.377-6.669 201.772 201.772 0 0 0 5.076-6.903l1.5-2.123c.358-.499.566-.768.589-.753.024.015-.14.313-.459.84a65.545 65.545 0 0 1-1.395 2.196 116.372 116.372 0 0 1-4.992 6.988 118.186 118.186 0 0 1-5.48 6.61 69.663 69.663 0 0 1-1.768 1.911c-.428.441-.673.677-.695.658zm-22.112-4.087c.005-.028.319 0 .882.073l2.377.348c2.006.311 4.77.768 7.82 1.298 3.05.53 5.806 1.031 7.799 1.414l2.356.474c.554.12.859.2.855.228-.006.027-.32 0-.882-.074l-2.378-.347c-2.005-.312-4.77-.769-7.82-1.299a471.545 471.545 0 0 1-7.798-1.414l-2.356-.474c-.555-.12-.86-.2-.855-.227zm7.004 29.02c.005-.027.406.011 1.127.106l3.049.434c2.571.384 6.119.943 10.034 1.584a764.99 764.99 0 0 1 10.017 1.701l3.028.56c.714.142 1.106.233 1.101.261-.005.027-.405-.012-1.126-.106l-3.05-.434a772.084 772.084 0 0 1-10.035-1.585 766.045 766.045 0 0 1-10.015-1.7l-3.028-.561c-.713-.142-1.106-.233-1.102-.26zm27.742 4.356c-.022-.018.231-.369.706-.985l2.025-2.602a336.31 336.31 0 0 0 6.547-8.68 324.775 324.775 0 0 0 6.247-8.903c.752-1.105 1.376-2.022 1.854-2.727.44-.642.695-.99.718-.975.024.015-.186.391-.587 1.06a105 105 0 0 1-1.748 2.8 188.956 188.956 0 0 1-6.157 8.982 190.345 190.345 0 0 1-6.652 8.62 111.977 111.977 0 0 1-2.125 2.524c-.513.587-.807.904-.829.886z" fill="#D7D9D9"/><path d="M293.398 207.637c-17.225-12.034-21.133-34.372-20.452-54.451.114-3.352-.255-6.885 1.339-9.826 1.595-2.941 5.315-4.95 8.316-3.538 2.489 1.172 3.574 4.068 4.966 6.461a19.613 19.613 0 0 0 7.862 7.509c2.133 1.107 4.774 1.784 6.881.622 2.892-1.595 3.232-5.589 3.211-8.923l-.116-18.639c-.021-3.333-.031-6.736 1.007-9.9 1.035-3.165 3.327-6.103 6.497-6.992 3.173-.888 7.094.941 7.763 4.203.279 1.358.002 2.767.094 4.151.094 1.384.738 2.916 2.052 3.301 1.331.391 2.664-.555 3.661-1.531 3.441-3.365 5.775-7.701 7.958-12.013 2.182-4.312 4.299-8.726 7.422-12.397 3.121-3.671 7.44-6.58 12.213-6.85 4.776-.271 9.862 2.675 11.068 7.362 1.21 4.699-1.532 9.468-4.516 13.272a74.399 74.399 0 0 1-15.492 14.768c-1.051.745-2.191 1.551-2.591 2.786-.725 2.223 1.381 4.43 3.576 5.161 2.484.827 5.181.569 7.779.876 2.6.305 5.415 1.452 6.399 3.909 1.365 3.407-1.485 6.978-4.288 9.317a63.783 63.783 0 0 1-18.866 10.89c-2.452.897-5.032 1.685-7.01 3.407-1.977 1.724-3.17 4.719-1.976 7.067 1.195 2.351 4.263 3.103 6.831 2.626 2.568-.477 4.867-1.871 7.315-2.795 4.581-1.729 10.497-1.414 13.431 2.546 1.929 2.602 2.098 6.226 1.124 9.328-.976 3.102-2.955 5.775-5.055 8.239-7.342 8.614-16.741 15.549-27.369 19.234-10.626 3.685-20.473 4.682-31.034.82z" fill="#F0F0F0"/><path d="M293.152 222.554c.728-7.954 2.472-17.348 5.447-27.473 2.955-10.134 7.116-20.973 11.857-32.16l3.541-8.27c1.168-2.711 2.327-5.401 3.623-7.961 2.569-5.133 5.431-9.873 8.289-14.286 2.855-4.416 5.727-8.503 8.44-12.304 2.722-3.797 5.325-7.289 7.833-10.37 5-6.183 9.616-10.683 12.909-13.643a112.744 112.744 0 0 1 3.858-3.339c.434-.35.773-.628 1.029-.836.234-.185.357-.276.364-.267.008.008-.102.115-.323.316l-.99.883c-.873.772-2.16 1.91-3.778 3.421a125.017 125.017 0 0 0-12.733 13.743c-2.48 3.09-5.058 6.587-7.757 10.393-2.693 3.812-5.545 7.903-8.381 12.316-2.836 4.411-5.676 9.139-8.224 14.247-1.286 2.548-2.431 5.215-3.6 7.934-1.164 2.718-2.343 5.476-3.537 8.267-4.736 11.179-8.903 21.985-11.88 32.078-2.994 10.085-4.776 19.433-5.556 27.353l-.431-.042z" fill="#D7D9D9"/><path d="M317.762 146.63c-.042.007-.156-.5-.326-1.422-.175-.921-.384-2.262-.619-3.922-.471-3.319-.965-7.925-1.491-13.005-.527-5.083-1.085-9.668-1.605-12.971a194.437 194.437 0 0 0-.64-3.908c-.16-.922-.229-1.437-.187-1.447.041-.009.188.488.419 1.397.237.908.524 2.236.833 3.884.633 3.295 1.262 7.892 1.788 12.978l1.313 13.017.425 3.943c.097.93.132 1.449.09 1.456zm42.876-7.976c.001.043-.609.113-1.709.205-1.101.098-2.693.231-4.654.459-3.926.423-9.327 1.199-15.249 2.315-5.923 1.127-11.239 2.375-15.057 3.389-1.915.492-3.453.934-4.517 1.232-1.063.302-1.659.45-1.672.41-.014-.041.557-.266 1.602-.641a81.085 81.085 0 0 1 4.472-1.426c3.801-1.124 9.12-2.444 15.059-3.575 5.941-1.119 11.373-1.829 15.322-2.141a72.298 72.298 0 0 1 4.682-.262c1.107-.017 1.719-.008 1.721.035zm-61.514 55.611c-.02.01-.12-.17-.294-.522l-.733-1.551c-.631-1.349-1.492-3.325-2.524-5.78-2.068-4.91-4.711-11.783-7.525-19.404-2.815-7.626-5.391-14.514-7.353-19.459l-2.341-5.852-.628-1.596c-.138-.367-.201-.564-.18-.575.018-.007.119.173.293.524l.733 1.55c.63 1.349 1.492 3.325 2.524 5.781 2.068 4.91 4.711 11.782 7.525 19.407 2.815 7.624 5.391 14.51 7.352 19.457.963 2.402 1.754 4.382 2.341 5.85l.629 1.596c.138.369.2.566.181.574z" fill="#D7D9D9"/><path d="M356.054 175.878c.006.02-.188.1-.564.233l-1.654.554c-1.528.496-3.59 1.165-6.099 1.977-5.149 1.67-12.235 4.058-20.061 6.707-7.828 2.652-14.943 4.976-20.128 6.54-2.593.783-4.696 1.396-6.159 1.788l-1.687.443c-.386.095-.594.134-.599.114-.006-.022.189-.1.565-.235.444-.147.991-.33 1.653-.553 1.529-.496 3.59-1.162 6.098-1.976 5.15-1.669 12.237-4.059 20.065-6.708 7.826-2.651 14.939-4.976 20.125-6.54a226.32 226.32 0 0 1 6.16-1.788l1.686-.443c.388-.094.593-.133.599-.113z" fill="#D7D9D9"/><path d="M374.554 359.748c0 .122-83.852.222-187.267.222C83.836 359.97 0 359.87 0 359.748s83.836-.221 187.287-.221c103.415 0 187.267.099 187.267.221z" fill="#0C2B34"/><path d="M103.352 227.648c13.519-13.644 13.374-34.373 9.472-52.318-.651-2.996-.898-6.234-2.814-8.618-1.916-2.382-5.591-3.581-8.058-1.819-2.047 1.461-2.548 4.243-3.408 6.625a17.918 17.918 0 0 1-5.84 8.039c-1.737 1.346-4.001 2.387-6.086 1.688-2.862-.962-3.822-4.498-4.35-7.499l-2.949-16.781c-.527-3.001-1.075-6.064-2.526-8.739-1.45-2.675-3.992-4.943-6.99-5.224-2.998-.278-6.224 2.009-6.292 5.052-.028 1.267.451 2.49.595 3.749.143 1.26-.186 2.742-1.304 3.304-1.133.57-2.488-.062-3.544-.776-3.645-2.463-6.456-5.98-9.124-9.5-2.67-3.521-5.297-7.144-8.706-9.934-3.409-2.79-7.77-4.698-12.106-4.16-4.338.539-8.43 4.022-8.747 8.435-.318 4.425 2.929 8.263 6.235 11.196a68.041 68.041 0 0 0 16.352 10.742c1.067.499 2.224 1.038 2.788 2.082 1.015 1.88-.518 4.21-2.371 5.226-2.099 1.152-4.567 1.362-6.854 2.062-2.287.702-4.631 2.194-5.113 4.564-.67 3.287 2.478 6.032 5.383 7.677a58.296 58.296 0 0 0 18.749 6.703c2.352.405 4.802.691 6.863 1.916 2.06 1.226 3.624 3.724 2.934 6.031-.69 2.31-3.324 3.488-5.712 3.48-2.387-.008-4.684-.885-7.037-1.315-4.403-.804-9.672.449-11.661 4.491-1.308 2.656-.868 5.943.517 8.573 1.386 2.629 3.602 4.709 5.895 6.581 8.014 6.543 17.604 11.241 27.764 12.814 10.161 1.573 19.18.857 28.045-4.347z" fill="#F58429"/><path d="M106.041 241.03c-1.958-7.034-5.066-15.197-9.399-23.816-4.318-8.628-9.835-17.694-15.932-26.978l-4.54-6.858c-1.494-2.246-2.977-4.475-4.561-6.565-3.152-4.196-6.502-7.988-9.794-11.489-3.293-3.504-6.545-6.709-9.607-9.683-3.07-2.969-5.983-5.683-8.744-8.042-5.51-4.742-10.397-8.033-13.844-10.156a102.298 102.298 0 0 0-4.016-2.37l-1.062-.583c-.241-.129-.367-.19-.372-.181-.005.008.111.086.344.232.256.156.6.365 1.034.632.912.55 2.256 1.364 3.959 2.457a114.682 114.682 0 0 1 13.701 10.273c2.737 2.372 5.628 5.096 8.679 8.076 3.046 2.987 6.28 6.199 9.554 9.703 3.274 3.502 6.602 7.289 9.73 11.465 1.574 2.082 3.04 4.292 4.538 6.546l4.535 6.855c6.091 9.276 11.608 18.312 15.939 26.902 4.345 8.58 7.479 16.694 9.477 23.689" fill="#0C2B34"/><path d="M71.43 176.785c.038 0 .056-.474.059-1.331a82.624 82.624 0 0 0-.086-3.629c-.12-3.062-.43-7.285-.79-11.939-.359-4.658-.607-8.874-.68-11.928a165.25 165.25 0 0 1-.065-3.62c-.008-.855-.03-1.33-.07-1.332-.039-.001-.089.47-.148 1.325-.064.855-.104 2.096-.113 3.629-.029 3.067.158 7.304.52 11.965.365 4.593.696 8.747.95 11.921l.263 3.615c.066.852.12 1.326.16 1.324zm-39.844-.12c.006.038.565.002 1.57-.096 1.005-.092 2.46-.233 4.26-.35 3.6-.262 8.585-.45 14.093-.416 5.511.043 10.497.294 14.097.58 1.802.131 3.257.275 4.264.369 1.006.098 1.565.133 1.571.095.005-.039-.545-.148-1.546-.315-1-.16-2.453-.365-4.256-.548-3.602-.39-8.602-.705-14.129-.749-5.525-.033-10.526.218-14.128.585-1.803.168-3.255.37-4.254.53-.999.166-1.547.275-1.542.315zm64.459 39.887c.02.005.08-.173.18-.518l.404-1.515c.346-1.316.797-3.234 1.322-5.611 1.056-4.755 2.307-11.368 3.589-18.683 1.283-7.319 2.47-13.935 3.425-18.704l1.147-5.647.304-1.538c.063-.352.087-.54.068-.546-.019-.003-.079.175-.179.52l-.405 1.513c-.346 1.317-.796 3.235-1.323 5.613-1.055 4.754-2.306 11.367-3.588 18.686-1.283 7.316-2.47 13.931-3.425 18.701-.471 2.319-.858 4.228-1.147 5.645l-.303 1.538c-.063.354-.088.542-.07.546zm-54.251-7.156c-.002.019.186.058.546.116l1.578.228 5.809.778c4.905.658 11.668 1.645 19.14 2.746 7.474 1.102 14.253 2.027 19.173 2.584 2.46.28 4.452.485 5.831.599l1.59.122c.364.022.557.023.558.003.001-.018-.187-.058-.546-.118-.425-.059-.946-.135-1.579-.226-1.455-.196-3.418-.457-5.807-.778-4.905-.658-11.67-1.645-19.143-2.747-7.472-1.102-14.25-2.027-19.17-2.583a205.02 205.02 0 0 0-5.832-.599l-1.59-.122c-.364-.022-.555-.024-.558-.003z" fill="#0C2B34"/><path d="M258.13 73.551c2.629-2.038 3.804-5.649 3.255-8.928-.549-3.282-2.667-6.186-5.411-8.067-1.268-.869-2.841-1.558-4.316-1.125-1.379.406-2.339 1.748-2.619 3.158-.279 1.41.022 2.875.492 4.233 1.614 4.661 4.03 8.874 8.599 10.73zm4.328 7.914c5.18-4.727 12.736-6.704 19.568-5.123 1.74.403 3.699 1.323 3.985 3.085.288 1.766-1.29 3.263-2.837 4.16-6.439 3.733-15.162 3.032-20.921-1.683m25.167-37.268c-2.872-.788-6.02-.08-8.561 1.473-2.542 1.552-4.53 3.88-6.122 6.396-3.082 4.868-4.168 11.41-4.304 17.17 6.393-.258 11.855-5.283 14.467-8.007 4.127-4.303 8.972-14.589 4.52-17.032z" fill="#36404C"/><path d="M252.777 90.167c.374-.68.986-1.16 1.595-2.41 1.2-2.495 2.817-6.042 3.601-10.265.78-4.229.251-8.22-.799-10.828-.512-1.31-1.085-2.301-1.546-2.934-.458-.636-.761-.947-.791-.923-.109.07 1.022 1.413 1.909 4.012.91 2.574 1.35 6.437.592 10.558-.764 4.123-2.29 7.655-3.381 10.189" fill="#E5E5E4"/><path d="M252.704 90.306l3.33-4.294a1142.78 1142.78 0 0 1 11.046-14.113c4.36-5.472 8.375-10.374 11.29-13.916l3.442-4.203c.807-.999 1.237-1.565 1.203-1.594-.033-.029-.528.481-1.394 1.43a213.1 213.1 0 0 0-3.6 4.073 451.13 451.13 0 0 0-11.446 13.807 450.337 450.337 0 0 0-10.906 14.242 218.277 218.277 0 0 0-3.167 4.418" fill="#E5E5E4"/><path d="M278.037 80.123c.011-.044-.382-.162-1.108-.34a9.3 9.3 0 0 0-1.336-.254c-.527-.068-1.124-.18-1.795-.193-1.335-.105-2.937-.049-4.697.178a27.007 27.007 0 0 0-5.573 1.453 26.999 26.999 0 0 0-5.093 2.696c-1.45 1.021-2.668 2.064-3.583 3.043-.485.462-.85.948-1.192 1.354-.348.4-.611.776-.812 1.09-.415.622-.357.913-.32.937.103.075.754-1.234 2.646-3.058.938-.92 2.159-1.902 3.594-2.873a28.868 28.868 0 0 1 4.994-2.587 28.953 28.953 0 0 1 5.428-1.466c1.712-.254 3.277-.356 4.589-.31 2.628.065 4.234.453 4.258.33z" fill="#E5E5E4"/><path d="M228.463 359.661l-113.834-.527c-13.69-.062-24.738-11.516-24.678-25.584l1.241-293.252c.06-14.076 11.215-25.439 24.913-25.375l113.834.527c13.691.063 24.738 11.516 24.679 25.585l-1.241 293.25c-.06 14.077-11.216 25.44-24.914 25.376z" fill="#282B30"/><path d="M245.571 282.751a2.508 2.508 0 1 1-5.016 0 2.508 2.508 0 0 1 5.016 0z" fill="#D7D9D9"/><path d="M243.065 288.308c-.123 0-.221-1.231-.221-2.75 0-1.52.098-2.752.221-2.752.122 0 .221 1.232.221 2.752 0 1.519-.099 2.75-.221 2.75z" fill="#D7D9D9"/><path d="M232.201 25.078l-22.764-.105c-3.053-.014-5.54 2.562-5.553 5.753l-.018 4.13c-.013 3.19-2.499 5.767-5.551 5.753l-44.375-.206c-3.052-.014-5.516-2.612-5.503-5.804l.017-4.129c.014-3.191-2.45-5.79-5.503-5.804l-8.007-.038-19.925-.092c-9.895-.045-17.952 7.942-17.995 17.837L95.81 329.695c-.043 9.89 7.939 17.943 17.83 17.989l117.181.54c9.895.046 17.952-7.94 17.995-17.836l1.215-287.323c.042-9.89-7.94-17.942-17.83-17.987z" fill="#F9F9F9"/><path d="M103.608 251.849c.997-.75 50.006-22.339 50.006-22.339L96.37 200.958l-.194 45.985 7.432 4.906z" fill="#E5E5E4"/><path d="M106.567 200.002l41.755-21.224L103.45 153.9l-6.92 1.733-.17 40.256 10.207 4.113z" fill="#F15B66"/><path d="M106.587 200.002l-9.999-4.028.134-32.58.03-7.811 6.718-1.683 44.872 24.878-41.755 21.224z" fill="#F1C39D"/><path d="M98.053 151.047l128.719-60.12L99.238 49.254l-1.185 101.792zm-1.51 156.547l58.817-30.189 87.558 51.518-20.858 18.285h-74.721l-50.796-31.047v-8.567zm70.404-33.447l72.739 43.124 8.108-.921v-41.47l-39.86-21.096-40.987 20.363zm11.947-41.177l68.579 38.58v-50.437l-24.811-10.633-43.768 22.49zm-73.242 21.236l40.23 22.075 48.822-25.287-38.786-19.732-50.266 22.944zm60.379-75.697l56.994 28.241 26.425-13.501.174-18.923-38.503-18.686-45.09 22.869zm-58.273 24.628l56.994 28.241 26.425-13.501.173-18.923-38.502-18.686-45.09 22.869zm7.919-50.733l46.443 23.262 43.314-23.262-44.879-20.477-44.878 20.477z" fill="#E5E5E4"/><path d="M205.44 301.05c-.012.019-.295-.124-.838-.422l-2.404-1.353-9.219-5.331-34.153-20.023-.711-.417.737-.374 44.795-22.779-.011 1.032-33.451-17.829-1.058-.563 1.062-.558 46.468-24.391.009 1.18-5.545-2.805c-38.935-19.755-74.962-38.033-104.079-52.805l-.978-.496.988-.472 55.232-26.342 15.331-7.22 4.036-1.856 1.041-.457c.236-.097.358-.142.364-.129.006.013-.105.081-.328.204l-1.006.529-3.968 1.999-15.202 7.485-55.032 26.759.01-.967 104.192 52.581 5.543 2.807 1.151.583-1.142.598-46.494 24.339.004-1.123 33.399 17.923.988.53-.999.501c-16.934 8.502-32.176 16.154-44.914 22.547l.028-.791 33.943 20.375c3.958 2.409 7.018 4.272 9.099 5.537 1.025.639 1.805 1.128 2.339 1.461.522.334.784.514.773.533z" fill="#F58429"/><path d="M186.89 96.663c-6.109 3.551-12.3-3.015-8.951-9.494a5.09 5.09 0 0 1 1.94-2.058c6.11-3.553 12.302 3.013 8.952 9.494a5.098 5.098 0 0 1-1.941 2.058zm8.538-7.383c0-8.483-8.913-13.858-18-9.605a10.328 10.328 0 0 0-4.783 4.583c-2.285 4.43-1.276 9.486.797 13.686l7.073 17.924c1.02 2.584 4.681 2.569 5.679-.023l6.934-18.018c2.402-5.488 2.3-8.547 2.3-8.547z" fill="#F58429"/><path d="M181.846 182.139l-.205-10.02 26.113 12.648v10.404l-25.908-13.032z" fill="#F0F0F0"/><path d="M207.779 184.757l32.435-16.117v11.22l-32.435 15.301v-10.404z" fill="#D7D9D9"/><path d="M181.641 172.101l31.824-15.912 26.724 12.444-32.435 16.116-26.113-12.648z" fill="#F0F0F0"/><path d="M185.074 176.422v4.858l2.552 1.152v-4.643l-2.552-1.367zm4.074 1.831v4.859l2.553 1.153v-4.645l-2.553-1.367z" fill="#F9F9F9"/><path d="M99.7 118.967v-13.041l30.913 14.973v12.316l-30.912-14.248z" fill="#D7D9D9"/><path d="M130.6 120.885l38.398-19.078v13.282L130.6 133.201v-12.316z" fill="#F0F0F0"/><path d="M99.7 105.902l37.674-18.835 31.636 14.73-38.397 19.078-30.912-14.973zm4.029 5.06v5.751l3.022 1.365v-5.498l-3.022-1.618zm4.853 2.197v5.751l3.022 1.365v-5.499l-3.022-1.617z" fill="#F9F9F9"/><path d="M192.856 227.875v10.275l11.016 5.433v-10.608l-11.016-5.1zm25.108-1.648l-14.076 6.732v10.608l14.076-7.855v-9.485z" fill="#D7D9D9"/><path d="M192.856 227.856l13.952-6.756 11.141 5.124-14.077 6.732-11.016-5.1z" fill="#F0F0F0"/><path d="M196.792 235.29v4.858l2.552 1.154v-4.645l-2.552-1.367z" fill="#F9F9F9"/><path d="M103.912 222.565v10.274l11.016 5.433v-10.608l-11.016-5.099z" fill="#D7D9D9"/><path d="M128.974 220.917l-14.075 6.732v10.608l14.075-7.854v-9.486z" fill="#D7D9D9"/><path d="M103.912 222.547l13.952-6.757 11.14 5.124-14.076 6.732-11.016-5.099z" fill="#F0F0F0"/><path d="M107.804 229.98v4.859l2.551 1.154v-4.645l-2.551-1.368z" fill="#F9F9F9"/><path d="M149.552 154.724V165l11.016 5.432v-10.608l-11.016-5.1z" fill="#F0F0F0"/><path d="M174.66 153.167l-14.077 6.733v10.608l14.077-7.854v-9.487z" fill="#D7D9D9"/><path d="M149.552 154.797l13.952-6.756 11.14 5.123-14.076 6.732-11.016-5.099z" fill="#F0F0F0"/><path d="M153.488 162.14v4.858l2.553 1.153v-4.645l-2.553-1.366zm-16.159 80.658v10.275l11.016 5.433v-10.607l-11.016-5.101z" fill="#D7D9D9"/><path d="M162.392 241.15l-14.077 6.732v10.607l14.077-7.853v-9.486z" fill="#E5E5E4"/><path d="M137.329 242.777l13.952-6.754 11.141 5.123-14.077 6.732-11.016-5.101z" fill="#F0F0F0"/><path d="M141.22 250.213v4.858l2.553 1.153v-4.644l-2.553-1.367z" fill="#F9F9F9"/><path d="M182.785 267.609v12.884l23.217 13.671v-13.303l-23.217-13.252z" fill="#F0F0F0"/><path d="M223.645 271.362l-17.651 9.508v13.303l17.651-9.849v-12.962z" fill="#D7D9D9"/><path d="M182.785 267.658l17.496-8.472 23.372 12.216-17.651 9.508-23.217-13.252zm8.789 11.853v6.091l3.201 1.926V281.5l-3.201-1.989z" fill="#F9F9F9"/><path d="M126.938 294.159v12.885l23.216 13.669v-13.302l-23.216-13.252z" fill="#D7D9D9"/><path d="M177.892 292.419l-27.7 15.011v13.302l27.781-15.394-.081-12.919z" fill="#F9F9F9"/><path d="M126.938 294.156l29.301-14.188 21.696 12.477-27.781 14.964-23.216-13.253z" fill="#F0F0F0"/><path d="M135.727 306.061v6.092l3.2 1.926v-6.029l-3.2-1.989z" fill="#F9F9F9"/><path d="M214.829 246.002v51.452l14.486 7.493v-52.106l-14.486-6.839z" fill="#F0F0F0"/><path d="M225.529 241.058l-10.7 4.939 14.486 6.839 9.747-5.489-13.533-6.289z" fill="#F9F9F9"/><path d="M229.34 252.773v52.105l8.818-4.746.929-52.848-9.747 5.489z" fill="#D7D9D9"/><path d="M153.58 204.254v51.453l14.486 7.493v-52.106l-14.486-6.84z" fill="#F0F0F0"/><path d="M164.281 199.311l-10.701 4.938 14.486 6.84 9.748-5.489-13.533-6.289z" fill="#F9F9F9"/><path d="M168.091 211.116v52.106l8.811-4.349.936-53.246-9.747 5.489zm-7.92 91.008v12.884l23.217 13.671v-13.302l-23.217-13.253z" fill="#D7D9D9"/><path d="M201.032 305.878l-17.652 9.507v13.302l17.652-9.849v-12.96z" fill="#F9F9F9"/><path d="M160.171 302.182l17.698-9.763 23.17 13.508-17.651 9.508-23.217-13.253z" fill="#F0F0F0"/><path d="M168.959 314.026v6.093l3.201 1.924v-6.027l-3.201-1.99z" fill="#F9F9F9"/><path d="M211.794 148.541l-42.284-19.057 58.879-29.966 19.318 28.808-35.913 20.215z" fill="#E5E5E4"/><path d="M249.417 166.018l.292-32.992-32.775 18.654 32.483 14.338z" fill="#F58429"/><path d="M224.515 199.071a2.509 2.509 0 1 1-5.017 0 2.509 2.509 0 0 1 5.017 0z" fill="#D7D9D9"/><path d="M222.008 204.538c-.123 0-.221-1.232-.221-2.75 0-1.52.098-2.752.221-2.752.122 0 .221 1.232.221 2.752 0 1.518-.099 2.75-.221 2.75zm-65.884-11.601a2.508 2.508 0 1 1-5.015 0 2.508 2.508 0 0 1 5.015 0z" fill="#D7D9D9"/><path d="M153.618 198.403c-.122 0-.222-1.232-.222-2.751s.1-2.75.222-2.75c.123 0 .221 1.231.221 2.75s-.098 2.751-.221 2.751zm-31.049 29.509a2.507 2.507 0 1 1-5.015 0 2.508 2.508 0 1 1 5.015 0z" fill="#D7D9D9"/><path d="M120.064 233.467c-.122 0-.221-1.231-.221-2.751 0-1.519.099-2.75.221-2.75.123 0 .222 1.231.222 2.75 0 1.52-.099 2.751-.222 2.751zm5.024-32.564a2.508 2.508 0 1 1-5.016-.002 2.508 2.508 0 0 1 5.016.002z" fill="#D7D9D9"/><path d="M122.582 206.46c-.123 0-.222-1.231-.222-2.751 0-1.52.099-2.751.222-2.751.122 0 .221 1.231.221 2.751 0 1.52-.099 2.751-.221 2.751zm64.395-8.029a2.508 2.508 0 1 1-5.016-.002 2.508 2.508 0 0 1 5.016.002z" fill="#D7D9D9"/><path d="M184.471 203.988c-.122 0-.221-1.232-.221-2.75 0-1.521.099-2.752.221-2.752s.221 1.231.221 2.752c0 1.518-.099 2.75-.221 2.75zm42.149 13.211a2.508 2.508 0 1 1-5.017 0 2.508 2.508 0 0 1 5.017 0z" fill="#D7D9D9"/><path d="M224.114 222.756c-.123 0-.222-1.232-.222-2.751s.099-2.75.222-2.75c.122 0 .22 1.231.22 2.75s-.098 2.751-.22 2.751zm4.109 9.275a2.509 2.509 0 1 1-5.017-.001 2.509 2.509 0 0 1 5.017.001z" fill="#D7D9D9"/><path d="M225.715 237.496c-.122 0-.221-1.231-.221-2.751 0-1.518.099-2.75.221-2.75.123 0 .222 1.232.222 2.75 0 1.52-.099 2.751-.222 2.751zm-67.851 25.114a2.508 2.508 0 1 1-5.016-.002 2.508 2.508 0 0 1 5.016.002z" fill="#D7D9D9"/><path d="M155.357 268.074c-.122 0-.221-1.231-.221-2.75s.099-2.751.221-2.751c.123 0 .221 1.232.221 2.751s-.098 2.75-.221 2.75zm84.949 38.297a2.509 2.509 0 1 1-5.018 0 2.509 2.509 0 0 1 5.018 0z" fill="#D7D9D9"/><path d="M237.756 311.837c-.123 0-.222-1.231-.222-2.75 0-1.52.099-2.752.222-2.752.121 0 .221 1.232.221 2.752 0 1.519-.1 2.75-.221 2.75zm-45.423 21.909a2.508 2.508 0 1 1-5.015 0 2.508 2.508 0 0 1 5.015 0z" fill="#D7D9D9"/><path d="M189.827 339.303c-.123 0-.221-1.232-.221-2.752 0-1.519.098-2.75.221-2.75.121 0 .221 1.231.221 2.75 0 1.52-.1 2.752-.221 2.752zm-16.766-13.155a2.507 2.507 0 1 1-5.015 0 2.507 2.507 0 0 1 5.015 0z" fill="#D7D9D9"/><path d="M170.555 331.704c-.123 0-.221-1.233-.221-2.752 0-1.519.098-2.75.221-2.75.122 0 .222 1.231.222 2.75s-.1 2.752-.222 2.752zm46.773-11.05a2.508 2.508 0 1 1-5.017 0 2.508 2.508 0 0 1 5.017 0z" fill="#D7D9D9"/><path d="M214.821 326.212c-.123 0-.221-1.233-.221-2.751 0-1.521.098-2.752.221-2.752.122 0 .221 1.231.221 2.752 0 1.518-.099 2.751-.221 2.751zm-35.259-53.807a2.509 2.509 0 1 1-5.016 0 2.509 2.509 0 0 1 5.016 0z" fill="#D7D9D9"/><path d="M177.055 277.871c-.121 0-.221-1.231-.221-2.75s.1-2.752.221-2.752c.123 0 .222 1.233.222 2.752 0 1.519-.099 2.75-.222 2.75zm8.824-30.001a2.509 2.509 0 1 1-5.018-.002 2.509 2.509 0 0 1 5.018.002z" fill="#D7D9D9"/><path d="M183.373 253.426c-.122 0-.222-1.232-.222-2.75 0-1.52.1-2.751.222-2.751s.221 1.231.221 2.751c0 1.518-.099 2.75-.221 2.75zm-58.285-2.81a2.509 2.509 0 1 1-5.018-.002 2.509 2.509 0 0 1 5.018.002z" fill="#D7D9D9"/><path d="M122.582 256.173c-.123 0-.222-1.232-.222-2.751s.099-2.751.222-2.751c.122 0 .221 1.232.221 2.751s-.099 2.751-.221 2.751zm118.322-28.261a2.508 2.508 0 1 1-5.016 0 2.508 2.508 0 0 1 5.016 0z" fill="#D7D9D9"/><path d="M238.397 233.467c-.124 0-.222-1.231-.222-2.751 0-1.519.098-2.75.222-2.75.121 0 .22 1.231.22 2.75 0 1.52-.099 2.751-.22 2.751zm-4.18-43a2.507 2.507 0 1 1-5.016 0 2.509 2.509 0 1 1 5.016 0z" fill="#D7D9D9"/><path d="M231.667 195.931c-.122 0-.222-1.233-.222-2.751 0-1.52.1-2.75.222-2.75s.221 1.23.221 2.75c0 1.518-.099 2.751-.221 2.751zm-48.261-38.699a2.508 2.508 0 1 1-5.015 0 2.508 2.508 0 0 1 5.015 0z" fill="#D7D9D9"/><path d="M180.901 162.789c-.122 0-.222-1.231-.222-2.751 0-1.519.1-2.751.222-2.751s.221 1.232.221 2.751c0 1.52-.099 2.751-.221 2.751zm-45.468 41.776a2.507 2.507 0 1 1-5.014 0 2.507 2.507 0 0 1 5.014 0z" fill="#D7D9D9"/><path d="M132.928 210.122c-.123 0-.222-1.231-.222-2.75 0-1.521.099-2.752.222-2.752.121 0 .221 1.231.221 2.752 0 1.519-.1 2.75-.221 2.75zm31.984-70.742a2.507 2.507 0 1 1-5.015 0 2.508 2.508 0 1 1 5.015 0z" fill="#D7D9D9"/><path d="M162.407 144.845c-.122 0-.221-1.232-.221-2.751s.099-2.751.221-2.751.221 1.232.221 2.751-.099 2.751-.221 2.751zm53.683-10.958a2.507 2.507 0 1 1-5.015 0 2.508 2.508 0 1 1 5.015 0z" fill="#D7D9D9"/><path d="M213.585 139.352c-.121 0-.222-1.232-.222-2.751 0-1.52.101-2.751.222-2.751.123 0 .222 1.231.222 2.751 0 1.519-.099 2.751-.222 2.751zm16.605-7.846a2.508 2.508 0 1 1-5.016 0 2.508 2.508 0 0 1 5.016 0z" fill="#D7D9D9"/><path d="M227.684 137.063c-.122 0-.221-1.232-.221-2.751s.099-2.751.221-2.751c.123 0 .222 1.232.222 2.751s-.099 2.751-.222 2.751zm-3.169-24.051a2.508 2.508 0 1 1-5.017 0 2.508 2.508 0 0 1 5.017 0z" fill="#D7D9D9"/><path d="M222.008 118.569c-.123 0-.221-1.231-.221-2.751 0-1.519.098-2.75.221-2.75.122 0 .221 1.231.221 2.75 0 1.52-.099 2.751-.221 2.751zm-76.23 37.106a2.508 2.508 0 1 1-5.017.001 2.508 2.508 0 0 1 5.017-.001z" fill="#D7D9D9"/><path d="M143.272 161.141c-.122 0-.221-1.231-.221-2.75 0-1.52.099-2.751.221-2.751s.222 1.231.222 2.751c0 1.519-.1 2.75-.222 2.75zm60.78-29.178a2.51 2.51 0 1 1-5.018 0 2.51 2.51 0 0 1 5.018 0z" fill="#D7D9D9"/><path d="M201.546 137.429c-.123 0-.222-1.232-.222-2.751s.099-2.751.222-2.751.222 1.232.222 2.751-.099 2.751-.222 2.751zm-67.898-61.953a2.508 2.508 0 1 1-5.015 0 2.508 2.508 0 0 1 5.015 0z" fill="#D7D9D9"/><path d="M131.141 80.941c-.122 0-.221-1.232-.221-2.75 0-1.52.099-2.752.221-2.752.123 0 .222 1.232.222 2.751s-.099 2.751-.222 2.751zm31.254 8.267a2.508 2.508 0 1 1-5.016 0 2.508 2.508 0 0 1 5.016 0z" fill="#D7D9D9"/><path d="M159.89 94.674c-.123 0-.222-1.232-.222-2.75 0-1.52.099-2.752.222-2.752.122 0 .221 1.232.221 2.751s-.099 2.751-.221 2.751zm-43.226 37.84a2.507 2.507 0 1 1-5.015 0 2.507 2.507 0 0 1 5.015 0z" fill="#D7D9D9"/><path d="M114.158 138.07c-.122 0-.221-1.232-.221-2.751s.099-2.751.221-2.751c.123 0 .222 1.232.222 2.751s-.099 2.751-.222 2.751zm5.024-46.39a2.508 2.508 0 1 1-5.017 0 2.508 2.508 0 0 1 5.017 0z" fill="#D7D9D9"/><path d="M116.677 97.146c-.122 0-.222-1.231-.222-2.75 0-1.52.1-2.752.222-2.752s.221 1.233.221 2.752c0 1.519-.099 2.75-.221 2.75z" fill="#D7D9D9"/><path d="M227.142 208.623l20.676-10.961-.084 19.766-20.592-8.805zm-85.93 70.119l-45.31 23.386v-43.63l5.024-2.242 40.286 22.486z" fill="#E5E5E4"/><path d="M208.891 302.177a2.89 2.89 0 1 1-5.78-.002 2.89 2.89 0 0 1 5.78.002z" fill="#F58325"/><path d="M235.336 95.764l14.432 4.384v22.742l-14.432-27.126z" fill="#E5E5E4"/><path d="M249.956 65.382l-.09-24.814c-1.181-8.71-8.605-15.448-17.646-15.49l-22.764-.105c-3.053-.014-5.54 2.562-5.552 5.753l-.019 4.13c-.013 3.19-2.499 5.766-5.551 5.753l-44.375-.206c-3.052-.014-5.516-2.612-5.504-5.804l.018-4.13c.014-3.19-2.45-5.79-5.503-5.803l-8.007-.038-19.925-.091c-4.679-.023-8.933 1.767-12.137 4.69-1.999 3.844-4.178 9.314-3.178 13.512l150.122 48.868.111-26.225z" fill="#F15B66"/><path d="M249.731 91.595L99.723 42.765a9.808 9.808 0 0 1-.251-2.29c.003-3.599 1.627-7.676 3.213-10.803a18.282 18.282 0 0 1 5.247-3.496c2.368-1.059 4.934-1.457 7.468-1.457l.364.003 15.614.063c2.538.012 5.042.022 7.512.032l3.681.015a5.391 5.391 0 0 1 3.351.94 5.627 5.627 0 0 1 2.072 2.739c.435 1.09.327 2.271.337 3.44l-.006 1.743c0 .575-.025 1.158.052 1.745a5.967 5.967 0 0 0 1.397 3.153 5.571 5.571 0 0 0 2.877 1.796 6.203 6.203 0 0 0 1.681.172l1.65.006 6.466.026 23.621.09 10.414.04.289-.003c.197 0 .393.003.588.005.196.003.391.006.586.006.331 0 .664-.008.999-.035a5.471 5.471 0 0 0 2.277-.797c1.366-.846 2.288-2.248 2.604-3.725.17-.741.142-1.494.147-2.213l.007-2.142c.01-.705-.031-1.4.096-2.062a5.88 5.88 0 0 1 .659-1.865 5.491 5.491 0 0 1 2.783-2.454c.744-.324 1.524-.372 2.295-.372.158 0 .316.003.473.005.158.001.314.004.469.004.089 0 .178-.001.265-.003l11.619.032 7.147.011c1.609 0 2.434-.01 2.434-.01.43.001.856.018 1.278.05-.261-.01-.484-.01-.664-.03-.408-.017-.614-.02-.614-.02s.206.018.612.044c.405.048 1.02.01 1.81.172 1.581.209 3.98.748 6.668 2.381 1.357.782 2.735 1.9 4.035 3.326a17.846 17.846 0 0 1 3.347 5.335 17.55 17.55 0 0 1 1.177 4.811l.047 13.07-.185 37.352z" fill="#F1C39D"/><path d="M232.19 25.051s.206.004.614.022c.404.041 1.022-.004 1.815.15 1.587.194 3.999.72 6.707 2.35 1.369.778 2.757 1.898 4.071 3.328a17.919 17.919 0 0 1 3.388 5.36c.876 2.133 1.345 4.62 1.309 7.273l-.025 8.445-.357 101.068-.586 149.896-.087 21.414-.022 5.432c-.027 1.819-.152 3.686-.708 5.454-.522 1.767-1.261 3.49-2.304 5.031a19.32 19.32 0 0 1-3.742 4.119c-2.917 2.321-6.567 3.796-10.343 3.967-.947.062-1.878.049-2.813.043l-2.808-.013-5.636-.025-22.815-.103-46.818-.213c-7.926-.035-15.909-.072-23.947-.109l-12.093-.056c-4.059.191-8.256-.896-11.636-3.262-3.395-2.351-5.893-5.894-7.05-9.82-.622-1.957-.73-4.042-.722-6.054l.026-6.04.102-23.954.201-46.831.387-88.533.36-80.11c.056-12.546.112-24.66.165-36.307.008-1.455.014-2.904.02-4.344.013-.722.068-1.45.11-2.17.129-.712.186-1.436.374-2.131.666-2.799 1.973-5.415 3.794-7.566a18.622 18.622 0 0 1 6.654-4.933c2.522-1.126 5.289-1.516 7.96-1.473l15.615.08 7.512.039 3.68.018c1.23-.055 2.505.286 3.511.997a5.908 5.908 0 0 1 2.173 2.876c.453 1.149.339 2.386.349 3.533l-.009 1.744c-.001.58-.025 1.157.049 1.71a5.679 5.679 0 0 0 1.33 3.014 5.308 5.308 0 0 0 2.74 1.717 6.112 6.112 0 0 0 1.618.165c.553.003 1.103.005 1.651.009l6.465.034 23.621.127 10.414.058c.291-.004.582 0 .873.005.533.008 1.061.017 1.568-.026a5.29 5.29 0 0 0 2.202-.765c1.32-.815 2.221-2.172 2.53-3.607.167-.718.141-1.45.148-2.177l.013-2.142c.011-.7-.029-1.403.102-2.088a6.03 6.03 0 0 1 .682-1.912 5.644 5.644 0 0 1 2.864-2.513c.926-.398 1.897-.384 2.821-.37.249.005.494.008.733.005l11.62.075c3.139.024 5.532.043 7.147.054 1.608.016 2.433.035 2.433.035s-.825.011-2.434.011c-1.614-.002-4.008-.007-7.146-.01-3.142-.01-7.028-.02-11.62-.033-.241.004-.486.002-.733-.002-.922-.012-1.873-.024-2.769.368a5.49 5.49 0 0 0-2.783 2.454 5.88 5.88 0 0 0-.659 1.865c-.127.662-.086 1.357-.096 2.061l-.007 2.142c-.005.72.023 1.473-.147 2.214-.316 1.477-1.238 2.88-2.604 3.725a5.47 5.47 0 0 1-2.277.796c-.533.044-1.056.038-1.584.03-.291-.003-.583-.008-.878-.003l-10.414-.039-23.621-.09-6.466-.026-1.65-.006a6.364 6.364 0 0 1-1.681-.172 5.57 5.57 0 0 1-2.877-1.797 5.957 5.957 0 0 1-1.396-3.152c-.078-.587-.053-1.17-.053-1.746l.006-1.743c-.01-1.168.098-2.35-.337-3.44a5.628 5.628 0 0 0-2.072-2.738c-.966-.673-2.144-.994-3.35-.94l-3.682-.015c-2.47-.01-4.974-.02-7.512-.032-5.074-.02-10.281-.041-15.614-.064-2.65-.04-5.35.346-7.832 1.454a18.29 18.29 0 0 0-6.531 4.85c-1.786 2.114-3.066 4.684-3.717 7.43-.184.682-.24 1.393-.367 2.091-.039.71-.093 1.417-.105 2.136l-.017 4.345-.14 36.306-.319 80.111-.36 88.532-.196 46.832-.1 23.954-.025 6.039c-.007 2.009.096 4.011.704 5.93 1.129 3.828 3.566 7.286 6.878 9.579 3.313 2.308 7.357 3.369 11.384 3.183l12.095.057a374861.517 374861.517 0 0 1 70.765.33 130201.126 130201.126 0 0 0 28.45.135l2.808.013c.935.007 1.87.019 2.786-.041 3.689-.165 7.252-1.605 10.102-3.871a18.958 18.958 0 0 0 3.657-4.022c1.019-1.505 1.741-3.187 2.252-4.913.544-1.732.664-3.539.693-5.341l.024-5.432.095-21.415c.255-56.416.487-107.224.681-149.895.211-42.668.38-77.199.497-101.067l.046-8.445c.043-2.64-.415-5.103-1.28-7.224a17.845 17.845 0 0 0-3.347-5.335c-1.3-1.426-2.677-2.545-4.035-3.326-2.687-1.634-5.087-2.173-6.668-2.382-.79-.16-1.405-.123-1.809-.172a24.693 24.693 0 0 1-.613-.044z" fill="#0C2B34"/><path d="M285.37 194c12.594.318 25.324.654 37.502 3.879 12.177 3.225 23.936 9.662 31.16 19.981 7.956 11.363 9.536 25.889 10.334 39.737 1.322 22.967 1.171 46.044-1.084 68.939-1.141 11.605-5.254 22.38-16.046 26.8-12.98 5.314-30.418 0-30.418 0L285.37 194z" fill="#282B30"/><path d="M319.153 350.581s.161-.015.477-.023l1.4-.022 5.385-.041c2.338-.015 5.202.014 8.484-.446.816-.134 1.669-.231 2.527-.449l1.314-.29c.44-.117.88-.258 1.33-.388.909-.237 1.796-.619 2.725-.959.894-.419 1.836-.806 2.721-1.351 1.799-1.025 3.564-2.343 5.056-4.043 1.492-1.692 2.696-3.775 3.33-6.119 1.211-4.745 1.72-9.995 1.91-15.504.173-5.517.112-11.323.161-17.337l.085-18.62c.028-6.381.093-12.61-.114-18.617-.21-6.003-.68-11.792-1.625-17.227-1.836-10.876-5.643-20.309-10.554-27.057-2.445-3.377-5.118-6.071-7.519-8.354-2.42-2.268-4.598-4.123-6.385-5.628l-4.132-3.45-1.069-.905c-.238-.207-.354-.321-.354-.321s.135.09.383.286l1.096.871 4.187 3.387c1.805 1.486 4.001 3.323 6.444 5.58 2.422 2.272 5.123 4.958 7.603 8.35 4.977 6.769 8.836 16.251 10.703 27.171.96 5.458 1.439 11.266 1.655 17.283.213 6.02.151 12.253.124 18.633-.032 6.378-.063 12.605-.095 18.62-.054 6.015-.001 11.816-.186 17.349-.203 5.527-.725 10.797-1.963 15.585-.659 2.403-1.9 4.53-3.428 6.249-1.53 1.729-3.329 3.06-5.159 4.09-.9.549-1.854.937-2.762 1.354-.94.339-1.839.72-2.757.953-.455.129-.9.268-1.345.383l-1.325.287c-.866.212-1.725.304-2.548.433-3.305.439-6.185.384-8.518.373l-5.385-.042c-.602-.008-1.068-.016-1.4-.022-.316-.007-.477-.022-.477-.022z" fill="#335863"/><path d="M356.232 288.291c-.03-.109 1.923-.679 4.415-.791 2.493-.123 4.492.261 4.471.372-.015.13-2.003-.052-4.45.071-2.445.108-4.408.476-4.436.348z" fill="#335863"/><path d="M301.849 194.742c0-.007.111-.011.328-.009l.959.018c.843.033 2.091.029 3.69.139 3.185.328 7.827.941 13.265 2.831l2.068.766 1.068.399 1.059.481c.715.323 1.443.654 2.185.991.745.331 1.457.762 2.207 1.15 2.994 1.564 6.022 3.559 9.017 5.891 2.997 2.331 5.955 5.035 8.672 8.157 2.724 3.11 5.162 6.697 7.016 10.674 3.791 7.949 5.438 16.271 6.277 23.789.802 7.552.836 14.392.88 20.117.021 5.73.037 10.365.117 13.565l.104 3.687.025.96c.004.216.001.327-.006.327-.007.001-.021-.11-.039-.325l-.069-.957c-.06-.842-.124-2.084-.187-3.686-.132-3.202-.198-7.841-.258-13.568-.083-5.723-.151-12.554-.973-20.075-.857-7.489-2.51-15.76-6.269-23.642-1.843-3.95-4.245-7.488-6.944-10.581-2.693-3.102-5.627-5.795-8.597-8.121-2.971-2.326-5.971-4.32-8.94-5.889-.744-.389-1.451-.821-2.189-1.154-.736-.34-1.458-.671-2.166-.997l-1.051-.485-1.06-.403-2.05-.775c-5.395-1.917-10.009-2.577-13.177-2.955-1.592-.136-2.837-.16-3.677-.222l-.958-.062c-.216-.015-.327-.028-.327-.036z" fill="#D7D9D9"/><path d="M293.976 194.671s3.09-8.154 14.084-6.61c0 0 4.9-.27 5.787 2.453 0 0-10.24-2.544-14.602 4.543l-5.269-.386z" fill="#0C2B34"/><path d="M325.288 204.633h-6.44s-1.249-17.033-16.861-16.372c0 0 19.406-6.496 23.301 16.372z" fill="#36404C"/><path d="M356.356 298.736l9.231 1.284-.919 3.282-8.619-.664.307-3.902z" fill="#335863"/><path d="M356.922 301.669c-.056-.044.367-.685 1.08-1.658l.128-.176.145.176 1.289 1.567-.298-.04.924-.684.953-.691.177-.129.124.174 1.184 1.665-.239-.036c.984-.657 1.627-1.041 1.667-.985.04.056-.529.542-1.466 1.265l-.131.101-.108-.139-1.253-1.614.3.045-.946.701-.93.674-.172.125-.125-.165-1.223-1.619.273-.001c-.776.924-1.299 1.488-1.353 1.444z" fill="#F58325"/><path d="M222.119 359.444s-1.788-5.815-1.429-8.276c.358-2.46 3.666-4.696 3.666-4.696l-3.587-93.245s-.465-40.782 21.12-53.459l12.882-3.246 31.778-1.881c1.028.343 38.373 14.39 43.512 19.872l-16.103 82.226s1.957 24.298 3.911 41.758c.4 3.567 3.075 21.2 3.075 21.2l-98.825-.253z" fill="#F58429"/><path d="M310.725 339.198c-1.198 0-2.407-.155-3.586-.366-7.965-1.418-15.295-5.16-22.491-8.856-13.449-6.908-27.021-13.897-38.631-23.581-1.632-1.362-3.376-3.487-2.377-5.362.54-1.012 1.544-1.381 2.684-1.381 1.255 0 2.676.448 3.823.976 22.807 10.516 44.317 21.86 67.124 32.375v.001c-.301 2.267-1.162 5.029-3.339 5.731-1.037.335-2.117.463-3.207.463z" fill="#DC6606"/><path d="M237.072 202.332s-14.224 4.746-18.825 17.924c-5.081 14.561-8.454 42.826-8.454 42.826l14.056 1.767 13.223-62.517zm92.988 12.205s7.631 10.033 11.343 22.228c3.711 12.194 5.832 47.53 5.832 47.53l-38.262-.532-2.034-31.092s-3.862-51.879 23.121-38.134z" fill="#F58429"/><path d="M214.828 232.942s.277-.432 1.056-.999c.762-.548 2.204-1.13 4.027-.772 1.854.275 3.654 1.73 6.026 2.635 1.174.453 2.547.803 3.942.488 1.4-.305 2.613-1.306 3.891-2.28.647-.486 1.326-.989 2.13-1.335.791-.357 1.772-.473 2.643-.114.888.326 1.546 1.072 2.056 1.834.526.77.951 1.605 1.504 2.353.54.751 1.252 1.403 2.158 1.668.892.296 1.895.226 2.844-.023.956-.245 1.884-.675 2.767-1.194.881-.517 1.736-1.153 2.65-1.716.909-.572 1.88-1.108 2.958-1.439 1.071-.317 2.283-.395 3.388-.007 1.11.362 2.074 1.049 2.944 1.796.879.746 1.696 1.559 2.598 2.263.894.705 1.898 1.314 3.028 1.484 1.114.218 2.294.062 3.392-.351 2.213-.831 4.164-2.333 6.338-3.533 1.091-.59 2.223-1.15 3.463-1.381 1.228-.235 2.531-.155 3.687.289 2.319.904 4.037 2.657 6.094 3.637a7.226 7.226 0 0 0 1.584.566 6.335 6.335 0 0 0 1.648.104c1.103-.075 2.167-.445 3.169-.906 2.015-.912 3.838-2.186 5.917-2.87 1.032-.34 2.146-.495 3.214-.288 1.076.182 2.018.773 2.797 1.429 1.561 1.304 2.789 2.96 4.574 3.514.871.277 1.799.255 2.678.077.883-.175 1.726-.477 2.558-.766 1.641-.575 3.361-1.17 5.026-.793.827.164 1.543.598 2.16 1.067.619.477 1.161.998 1.704 1.475.54.481 1.093.911 1.682 1.231.59.318 1.221.504 1.843.596 1.25.179 2.446-.018 3.473-.356 1.035-.339 1.906-.841 2.645-1.349 1.474-1.031 2.453-2.047 3.133-2.71l.764-.765c.173-.171.265-.258.27-.252.005.005-.075.101-.237.283l-.733.796c-.66.682-1.622 1.723-3.098 2.79-.74.524-1.622 1.048-2.677 1.407-1.048.357-2.274.575-3.575.4a5.855 5.855 0 0 1-1.933-.605c-.619-.331-1.193-.771-1.742-1.253-1.097-.932-2.189-2.131-3.747-2.449-1.547-.346-3.204.221-4.844.809-.83.293-1.685.605-2.602.792-.912.189-1.91.223-2.859-.074-.953-.289-1.774-.893-2.515-1.545-.743-.659-1.429-1.387-2.197-2.02-.76-.634-1.63-1.172-2.624-1.337-.984-.188-2.022-.045-3.011.284-1.996.658-3.814 1.929-5.869 2.866-1.023.473-2.132.866-3.313.95a6.768 6.768 0 0 1-1.771-.111 7.699 7.699 0 0 1-1.679-.596c-2.146-1.029-3.863-2.768-6.062-3.615-1.09-.415-2.286-.486-3.446-.269-1.167.218-2.266.757-3.335 1.336-2.137 1.175-4.097 2.691-6.402 3.558-1.144.432-2.418.606-3.623.369-1.224-.189-2.297-.848-3.214-1.573-1.842-1.439-3.32-3.311-5.404-3.999-1.02-.359-2.126-.291-3.14.004-1.019.31-1.964.824-2.861 1.385-.906.554-1.749 1.18-2.664 1.716-.909.53-1.866.971-2.872 1.227-.996.256-2.073.333-3.057.007-.995-.295-1.784-1.03-2.338-1.813-.573-.784-.996-1.624-1.502-2.371-.493-.746-1.097-1.423-1.886-1.714-.78-.325-1.646-.231-2.393.097-.754.319-1.422.804-2.067 1.283-1.276.956-2.526 1.987-4.019 2.305-1.483.322-2.904-.062-4.093-.532-2.409-.95-4.174-2.41-5.969-2.697-1.77-.373-3.176.162-3.943.677-.782.533-1.084.949-1.107.925zm-4.531 23.001c0-.007.127 0 .375.023l1.099.111c.967.06 2.396.464 4.184-.107a67.615 67.615 0 0 1 3.018-.568c1.103-.192 2.294-.462 3.604-.616 1.304-.155 2.764-.155 4.206.303 1.445.427 2.847 1.166 4.393 1.684 1.539.54 3.281.608 5.005.145 1.734-.41 3.435-1.206 5.275-1.844 1.812-.653 3.912-1.154 5.995-.581 2.059.579 3.717 2.097 5.782 2.602a4.925 4.925 0 0 0 1.565.11 7.439 7.439 0 0 0 1.568-.376c1.036-.361 2.039-.887 3.139-1.268 1.077-.4 2.365-.569 3.524-.12 1.151.442 2.041 1.281 2.975 1.976.468.35.953.672 1.479.893a4.208 4.208 0 0 0 1.667.315c1.155-.044 2.284-.502 3.384-1.013 1.104-.508 2.224-1.078 3.468-1.392.626-.133 1.278-.217 1.932-.132.654.075 1.281.304 1.853.603 1.149.606 2.099 1.448 3.11 2.137.505.344 1.028.651 1.581.865.277.104.557.2.848.239l.435.076.441.016c1.183.029 2.349-.316 3.47-.725 1.125-.408 2.228-.887 3.382-1.233 1.144-.343 2.391-.558 3.584-.257 1.209.258 2.189 1.034 3.02 1.815.837.791 1.595 1.626 2.486 2.246a4.684 4.684 0 0 0 2.989.852c1.049-.066 2.051-.454 2.992-.909.944-.46 1.842-.997 2.748-1.5 1.788-.989 3.754-1.907 5.784-1.671 2.012.235 3.656 1.349 5.104 2.391 1.462 1.052 2.793 2.167 4.269 2.859 1.458.72 2.99 1.091 4.454 1.211 1.469.09 2.858-.057 4.129-.319 2.53-.613 4.532-1.735 5.941-2.898 1.42-1.17 2.239-2.358 2.767-3.164.241-.418.399-.753.522-.97.117-.218.181-.329.188-.326.006.002-.043.12-.148.347-.108.222-.255.566-.485.994-.506.826-1.312 2.046-2.733 3.25-1.41 1.199-3.43 2.363-5.996 3.007-1.291.28-2.703.441-4.205.36a12.62 12.62 0 0 1-4.572-1.21c-1.524-.706-2.873-1.827-4.331-2.864-1.443-1.031-3.051-2.093-4.943-2.304-1.9-.215-3.781.656-5.555 1.648-.899.501-1.799 1.045-2.764 1.517-.961.468-2.006.883-3.14.957a5.096 5.096 0 0 1-3.251-.915c-.946-.658-1.717-1.509-2.539-2.281-.819-.766-1.731-1.475-2.828-1.705-1.086-.274-2.252-.079-3.363.256-1.119.335-2.216.813-3.358 1.227-1.135.415-2.348.784-3.627.755l-.477-.018-.474-.083a4.19 4.19 0 0 1-.924-.259c-.599-.232-1.151-.557-1.67-.912-1.04-.71-1.982-1.54-3.066-2.11-.539-.282-1.11-.487-1.7-.554-.591-.08-1.191-.001-1.777.121-1.172.294-2.271.849-3.387 1.363-1.11.511-2.287 1.001-3.557 1.049a4.638 4.638 0 0 1-1.847-.35c-.578-.244-1.09-.589-1.571-.948-.955-.718-1.822-1.524-2.866-1.921-1.039-.403-2.188-.264-3.235.118-1.059.363-2.066.889-3.14 1.261a7.773 7.773 0 0 1-1.663.392 5.29 5.29 0 0 1-1.7-.122c-2.206-.562-3.847-2.084-5.795-2.624-1.953-.546-3.97-.089-5.768.553-1.82.621-3.536 1.417-5.316 1.829-1.759.468-3.612.388-5.183-.18-1.578-.541-2.968-1.286-4.376-1.711-1.398-.455-2.807-.467-4.096-.327-1.294.14-2.486.397-3.596.579-1.11.178-2.116.344-3.019.528-.453.088-.874.188-1.285.248-.414.06-.806.038-1.161.005-.708-.073-1.302-.162-1.783-.226l-1.094-.155c-.245-.037-.371-.06-.37-.068zm14.145 20.092c.001-.007.087-.004.254.011l.739.073c.649.07 1.603.195 2.829.379 2.453.338 5.976 1.067 10.378 1.431 2.204.186 4.615.168 7.203-.13 1.297-.117 2.664-.236 4.071-.034a7.254 7.254 0 0 1 2.073.61c.668.317 1.269.753 1.85 1.206 1.157.895 2.257 1.976 3.67 2.404.7.22 1.449.181 2.175-.016.727-.204 1.43-.549 2.156-.883.727-.328 1.485-.677 2.337-.786.845-.134 1.761.08 2.485.539 1.468.891 2.429 2.379 3.931 3.013 1.505.658 3.203.247 4.743-.209 1.562-.463 3.117-1.073 4.777-1.108.822-.009 1.657.142 2.392.495.737.345 1.374.83 1.964 1.33 1.174.998 2.212 2.107 3.504 2.701 1.288.624 2.744.442 4.029.011 1.306-.409 2.509-1.044 3.82-1.34 1.283-.287 2.661-.319 3.803.281.562.3 1.022.772 1.297 1.315.277.541.418 1.101.595 1.616.17.519.394.994.733 1.363.335.369.767.629 1.219.784.914.31 1.874.229 2.69-.015a4.761 4.761 0 0 0 2.017-1.244c.528-.522.915-1.09 1.23-1.616.618-1.063.952-1.971 1.197-2.573l.271-.69c.063-.155.098-.233.106-.231.007.003-.015.086-.063.246l-.23.706c-.219.614-.528 1.533-1.132 2.627-.308.542-.692 1.13-1.228 1.679a4.99 4.99 0 0 1-2.094 1.333c-.853.267-1.86.368-2.854.045a3.21 3.21 0 0 1-1.348-.851c-.384-.407-.631-.931-.81-1.46-.186-.529-.33-1.075-.59-1.567a2.77 2.77 0 0 0-1.167-1.166c-1.025-.534-2.332-.509-3.56-.224-1.238.284-2.444.923-3.783 1.352-.667.221-1.377.389-2.116.422a4.829 4.829 0 0 1-2.2-.431c-1.396-.64-2.453-1.779-3.609-2.751-.579-.487-1.19-.945-1.873-1.263-.679-.324-1.435-.458-2.203-.451-1.55.032-3.078.623-4.656 1.097-.794.236-1.611.454-2.468.539-.849.084-1.761.022-2.577-.345-1.66-.723-2.625-2.236-3.984-3.043a3.232 3.232 0 0 0-2.202-.482c-.763.095-1.492.421-2.211.746-.721.329-1.443.684-2.224.902-.778.214-1.637.256-2.406.01-1.56-.485-2.666-1.612-3.805-2.49-.57-.447-1.147-.868-1.77-1.166a6.908 6.908 0 0 0-1.959-.586c-1.345-.201-2.688-.096-3.979.015-2.59.283-5.054.284-7.262.076-4.428-.406-7.937-1.184-10.381-1.573l-2.813-.462-.733-.115c-.164-.03-.248-.048-.248-.056zm-1.145 56.699c-.002-.006.083-.04.251-.1l.745-.26c.655-.229 1.617-.578 2.873-.987 1.258-.39 2.802-.913 4.695-1.092.955-.105 1.989.136 2.986.495 1.007.344 2.045.797 3.189.909 1.146.114 2.333-.26 3.489-.787 1.165-.514 2.353-1.189 3.748-1.504 1.4-.318 2.9-.125 4.335.251 1.443.387 2.862.953 4.344 1.386 1.47.439 3.059.728 4.617.399 1.56-.326 3.017-1.163 4.61-1.796.797-.314 1.653-.573 2.556-.603a4.635 4.635 0 0 1 2.603.683c1.556.923 2.669 2.433 4.298 3.038.802.29 1.678.269 2.511.058.835-.207 1.635-.565 2.432-.923.797-.358 1.597-.73 2.453-.971.847-.243 1.784-.327 2.649-.055.877.248 1.573.844 2.163 1.436.597.598 1.123 1.229 1.729 1.741 1.178 1.095 2.849 1.239 4.326.905 1.504-.296 2.919-.88 4.362-1.26.725-.174 1.453-.349 2.199-.333.734-.005 1.493.136 2.116.514.657.325 1.148.88 1.54 1.432.389.564.697 1.15 1.014 1.706.611 1.104 1.37 2.129 2.471 2.473 1.075.361 2.223.126 3.146-.324a7.354 7.354 0 0 0 2.326-1.775c1.192-1.412 1.824-2.932 2.457-4.082.607-1.171 1.165-2.043 1.6-2.587.436-.545.719-.781.719-.781.017.015-.239.277-.648.834-.408.558-.934 1.433-1.518 2.613-.612 1.161-1.21 2.687-2.423 4.166a7.566 7.566 0 0 1-2.391 1.865c-.957.479-2.18.754-3.369.367-1.217-.37-2.046-1.493-2.667-2.6-.643-1.095-1.237-2.372-2.434-2.986-1.16-.688-2.653-.491-4.039-.125-1.412.376-2.822.97-4.382 1.284-.773.163-1.601.24-2.423.09-.419-.042-.806-.222-1.203-.368a5.367 5.367 0 0 1-1.052-.704c-.644-.543-1.179-1.184-1.76-1.762-.575-.575-1.214-1.111-1.985-1.325-.766-.238-1.603-.169-2.406.062-.807.228-1.591.592-2.388.952-.801.359-1.619.729-2.509.951-.883.226-1.871.254-2.767-.071-1.798-.688-2.908-2.225-4.372-3.076a4.19 4.19 0 0 0-2.363-.625c-.826.027-1.637.264-2.412.57-1.555.61-3.032 1.462-4.684 1.807-1.661.346-3.326.028-4.818-.422-1.507-.448-2.917-1.017-4.328-1.402-1.404-.374-2.833-.562-4.156-.269-1.324.29-2.504.943-3.688 1.458-1.175.527-2.432.919-3.657.787-1.214-.13-2.261-.607-3.253-.955-.992-.368-1.953-.601-2.877-.515-1.846.152-3.4.647-4.66 1.011-1.235.386-2.206.691-2.897.906l-.759.219c-.173.045-.262.064-.264.057zm47.733-21.115c.008.012-.159.119-.484.309-.327.184-.826.435-1.497.685-1.333.499-3.43.976-5.997.618-.636-.102-1.3-.239-1.97-.459-.673-.216-1.342-.522-2.022-.807-.68-.275-1.412-.514-2.161-.441-.751.067-1.466.441-2.139.919-.676.475-1.331 1.045-2.107 1.519a4.867 4.867 0 0 1-1.272.558c-.229.07-.467.092-.708.107-.24.037-.479.008-.719-.014-1.944-.249-3.492-1.532-5.182-2.388-.841-.437-1.744-.777-2.622-.672l-.326.042c-.105.024-.206.071-.308.104a2.45 2.45 0 0 0-.591.27c-.369.237-.693.546-.998.873-.613.653-1.135 1.409-1.869 1.986-.362.285-.798.511-1.269.582a2.358 2.358 0 0 1-1.364-.2c-.834-.411-1.339-1.137-1.799-1.784-.456-.661-.863-1.314-1.352-1.849-.985-1.06-2.397-1.496-3.616-1.441-1.247.028-2.259.648-3.056 1.229-.797.598-1.386 1.244-1.767 1.829-.794 1.19-.627 2.055-.685 2.038 0 0-.062-.196-.023-.576.032-.378.186-.935.562-1.554.372-.619.957-1.299 1.763-1.932.796-.612 1.853-1.292 3.19-1.347 1.3-.078 2.813.361 3.9 1.503.529.567.949 1.231 1.404 1.877.453.635.951 1.304 1.652 1.637.7.341 1.568.191 2.202-.346.657-.519 1.176-1.262 1.809-1.947.317-.342.664-.678 1.081-.947.213-.13.436-.243.678-.315.12-.039.236-.091.359-.119l.376-.052c1.024-.117 2.004.269 2.87.717 1.737.892 3.27 2.132 5.029 2.35.866.109 1.707-.128 2.435-.582.732-.441 1.389-1.003 2.09-1.491.697-.488 1.484-.903 2.339-.972.854-.073 1.641.202 2.334.49.697.301 1.34.604 1.989.822.648.221 1.292.363 1.911.472a12.566 12.566 0 0 0 5.892-.47c1.343-.447 2.015-.877 2.038-.831zm-46.909 43.852c.003-.006.091.017.258.071l.308.101c.126.026.276.039.443.064.675.084 1.684-.111 2.847-.69 1.181-.52 2.505-1.487 4.359-1.92a4.78 4.78 0 0 1 1.471-.071 4.824 4.824 0 0 1 1.488.492c.961.493 1.802 1.243 2.736 1.919.919.676 2.027 1.272 3.262 1.158 1.231-.097 2.401-.76 3.654-1.32.631-.281 1.299-.542 2.024-.669.724-.129 1.48-.093 2.211.047 1.473.273 2.86.904 4.323 1.302 1.458.438 3.033.417 4.584.069 1.556-.331 3.083-.943 4.65-1.541 1.565-.593 3.193-1.208 4.953-1.424 1.752-.27 3.611.085 5.245.829 1.651.716 3.158 1.638 4.743 2.277 1.572.65 3.28.909 4.858.45 3.176-.911 5.495-3.483 8.514-4.479a6.999 6.999 0 0 1 4.544-.023c1.431.448 2.654 1.228 3.807 1.969 1.148.753 2.227 1.52 3.324 2.142a12.157 12.157 0 0 0 3.337 1.337c2.256.49 4.394.252 6.147-.26a12.74 12.74 0 0 0 4.167-2.135c2.051-1.611 2.656-3.007 2.724-2.946.006.003-.038.082-.13.234l-.416.663c-.417.543-1.035 1.369-2.071 2.184a12.737 12.737 0 0 1-4.201 2.237c-1.781.546-3.962.813-6.286.329a12.43 12.43 0 0 1-3.439-1.345c-1.122-.625-2.21-1.391-3.357-2.132-1.147-.729-2.354-1.486-3.723-1.905a6.601 6.601 0 0 0-4.297.038c-1.433.477-2.749 1.358-4.098 2.235-1.347.875-2.762 1.811-4.432 2.276-1.675.494-3.522.21-5.136-.46-1.632-.659-3.141-1.581-4.755-2.279-1.602-.724-3.327-1.053-5.016-.8-1.688.206-3.29.805-4.853 1.394-1.563.594-3.109 1.212-4.716 1.548-1.591.357-3.271.373-4.778-.088-1.506-.417-2.879-1.048-4.287-1.314-.7-.137-1.404-.172-2.077-.056-.674.115-1.318.359-1.938.632-1.237.54-2.439 1.224-3.778 1.324-1.353.115-2.548-.551-3.472-1.244-.943-.698-1.769-1.445-2.681-1.923a4.563 4.563 0 0 0-1.395-.48 4.547 4.547 0 0 0-1.387.052c-1.781.389-3.132 1.33-4.334 1.833-1.186.563-2.239.74-2.93.622-.17-.032-.323-.053-.449-.086l-.307-.125c-.164-.068-.245-.106-.242-.113zm2.106-146.272c.022-.02.249.306.825.766.575.455 1.545 1.003 2.922 1.278 1.374.299 3.099.294 5.092.1.997-.08 2.07-.18 3.217-.166 1.142.018 2.377.162 3.574.64 1.197.469 2.32 1.197 3.52 1.846.601.323 1.227.623 1.893.84.666.21 1.374.322 2.101.347 1.459.058 2.964-.235 4.516-.515 1.551-.279 3.195-.572 4.901-.371 1.724.193 3.293 1.071 4.772 1.976 1.486.896 3.013 1.875 4.765 2.117.87.105 1.764.04 2.639-.178.874-.231 1.727-.576 2.572-.962 1.692-.767 3.356-1.754 5.272-2.245.954-.243 1.957-.322 2.932-.176.975.16 1.884.544 2.713 1.01 1.656.937 3.074 2.15 4.692 2.897 1.609.758 3.405.901 5.101.63 1.706-.236 3.328-.792 4.922-1.274 1.592-.495 3.173-.955 4.765-1.154 1.593-.205 3.173-.053 4.628.29 2.925.695 5.413 1.963 7.756 2.866 2.306 1.034 4.601 1.227 6.584 1.043 1.982-.179 3.652-.667 4.93-1.236 2.592-1.156 3.432-2.628 3.483-2.551 0 0-.2.342-.724.873-.514.543-1.405 1.224-2.688 1.835-1.285.601-2.969 1.119-4.978 1.326a14.434 14.434 0 0 1-3.232-.029c-1.145-.12-2.32-.506-3.489-.968-2.363-.892-4.855-2.137-7.724-2.801-1.428-.328-2.955-.466-4.499-.262-1.547.201-3.104.658-4.691 1.157-1.591.487-3.223 1.054-4.982 1.304-1.742.284-3.652.142-5.344-.655-1.691-.782-3.116-2.002-4.726-2.908-.802-.449-1.662-.807-2.567-.957-.907-.134-1.843-.062-2.754.168-1.829.467-3.483 1.439-5.195 2.217-.859.391-1.736.746-2.649.987a7.763 7.763 0 0 1-2.805.183c-1.882-.268-3.448-1.293-4.925-2.185-1.478-.91-2.979-1.746-4.604-1.934-1.743-.19-3.429.105-5.082.4-1.453.259-2.881.519-4.3.449a8.257 8.257 0 0 1-2.196-.377c-.694-.23-1.337-.546-1.946-.876-1.214-.668-2.317-1.394-3.473-1.856-2.328-.928-4.682-.634-6.657-.518-1.994.171-3.758.151-5.146-.178-1.396-.307-2.376-.892-2.942-1.378-.567-.491-.769-.835-.769-.835z" fill="#F9F9F9"/><path d="M307.595 286.705c-2.203 0-4.418-.87-6.211-2.195-2.335-1.723-4.059-4.14-5.585-6.607-2.928-4.735-5.313-10.969-6.907-17.893.316-.098.628-.206.933-.317 1.141-.415 2.238-.893 3.358-1.228.744-.225 1.512-.386 2.264-.386.372 0 .739.039 1.098.13 1.098.23 2.009.939 2.828 1.706.823.771 1.593 1.622 2.539 2.28a5.104 5.104 0 0 0 3.251.915c.284-.019.562-.059.835-.115.551 1.091 1.204 2.192 1.837 3.3l1.141 17.444 2.621.036c-.088.939-.386 1.71-1.026 2.208l.131-.366.23-.706c.048-.16.07-.243.063-.246-.009 0-.044.079-.105.231l-.272.69-.205.51a2.819 2.819 0 0 1-.839.36c-.65.17-1.314.249-1.979.249zm-2.743-23.993c-.95 0-1.901-.29-2.703-.859-.891-.621-1.65-1.456-2.487-2.247-.83-.781-1.811-1.557-3.02-1.815a4.926 4.926 0 0 0-1.205-.143c-.807 0-1.616.171-2.378.4-1.154.346-2.258.825-3.383 1.233-.291.106-.585.208-.882.3-1.765-7.865-2.509-16.595-1.87-25.014 1.065.725 2.11 1.502 3.284 2.064.53.267 1.101.457 1.678.596.426.088.861.125 1.292.125.16 0 .32-.005.479-.015 1.181-.084 2.29-.477 3.313-.95 1.201-.547 2.321-1.209 3.442-1.796-.567 8.281 2.082 17.856 4.603 26.046.203.656.477 1.317.797 1.981a5.635 5.635 0 0 1-.675.086c-.094.006-.19.008-.285.008zm-11.665-25.79c-.405 0-.81-.034-1.209-.116a7.254 7.254 0 0 1-1.583-.567c-1.198-.57-2.279-1.402-3.432-2.176.427-5.178 1.383-10.233 2.951-14.886.194.062.39.116.586.164l11.49 7.946c-.851 2.112-1.336 4.407-1.54 6.818-1.216.62-2.398 1.33-3.655 1.898-1.002.462-2.065.832-3.169.906a8.012 8.012 0 0 1-.439.013z" fill="#DD6726"/><path d="M311.608 283.807l-2.621-.036-1.141-17.444c1.368 2.394 2.634 4.82 2.519 7.252-.142 2.978 1.513 7.377 1.243 10.228z" fill="#BA3D48"/><path d="M293.181 237.389c-.432 0-.866-.037-1.292-.125a7.786 7.786 0 0 1-1.679-.596c-1.173-.563-2.218-1.339-3.284-2.064l.04-.504c1.152.774 2.234 1.606 3.431 2.176a7.28 7.28 0 0 0 1.584.567 5.99 5.99 0 0 0 1.209.116c.147 0 .293-.005.439-.013 1.103-.074 2.167-.444 3.169-.906 1.257-.568 2.439-1.278 3.655-1.898-.014.162-.027.325-.038.486-1.121.587-2.241 1.249-3.442 1.796-1.023.473-2.132.866-3.313.95-.159.01-.319.015-.479.015zm11.664 25.714a5.1 5.1 0 0 1-2.924-.926c-.946-.658-1.717-1.509-2.539-2.28-.819-.766-1.73-1.476-2.828-1.706a4.452 4.452 0 0 0-1.098-.13c-.753 0-1.52.161-2.265.386-1.119.335-2.216.813-3.358 1.228-.305.111-.616.219-.932.317a53.899 53.899 0 0 1-.098-.429c.297-.092.591-.194.882-.3 1.125-.408 2.228-.887 3.382-1.233.763-.229 1.572-.4 2.379-.4.404 0 .807.043 1.205.143 1.209.258 2.189 1.034 3.02 1.815.837.791 1.595 1.626 2.486 2.247a4.68 4.68 0 0 0 2.989.851 5.66 5.66 0 0 0 .675-.086c.06.126.122.252.186.377a5.908 5.908 0 0 1-1.162.126zm5.565 23.056c.075-.188.143-.358.205-.509l.271-.691c.061-.152.097-.23.105-.23.007.002-.014.086-.063.246l-.23.705-.13.366c-.05.039-.103.077-.158.113zm-19.922-66.805a8.631 8.631 0 0 1-.586-.163l.066-.197.52.36z" fill="#A5A7A8"/><path d="M226.776 348.18c.004-.015.16.004.457.053l1.292.237c1.183.224 2.789.53 4.744.903a344.84 344.84 0 0 0 15.712 2.576 344.29 344.29 0 0 0 15.822 1.818l4.808.428c.527.052.959.093 1.307.126.3.034.455.06.454.074-.001.016-.158.02-.459.015l-1.314-.042c-1.14-.044-2.788-.141-4.823-.288-4.07-.293-9.685-.834-15.856-1.692a247.265 247.265 0 0 1-15.713-2.708 155.727 155.727 0 0 1-4.717-1.042l-1.276-.318c-.291-.077-.441-.126-.438-.14zm18.677-2.192c.003-.015.247.037.707.151.461.1 1.124.319 2.006.487 1.745.402 4.312.829 7.508.967 3.194.144 7.026-.097 11.151-1.029a41.702 41.702 0 0 0 12.66-5.167 41.695 41.695 0 0 0 10.207-9.107c2.649-3.297 4.548-6.635 5.821-9.567 1.28-2.931 2.024-5.426 2.429-7.17.236-.865.332-1.557.445-2.017.099-.461.159-.703.174-.7.014.002-.015.248-.087.717-.085.465-.152 1.163-.364 2.038-.355 1.763-1.057 4.286-2.309 7.257-1.246 2.971-3.133 6.354-5.79 9.697a41.487 41.487 0 0 1-10.291 9.227 41.48 41.48 0 0 1-12.806 5.19c-4.17.92-8.038 1.129-11.254.943-3.219-.179-5.794-.656-7.534-1.111-.88-.195-1.537-.441-1.993-.569-.45-.141-.685-.223-.68-.237zm7.559-149.492c.016 0 .022.212.018.613l-.012 1.755c.02 1.512-.017 3.746.646 6.37.355 1.295.887 2.699 1.84 3.96.917 1.281 2.247 2.377 3.804 3.228 1.56.855 3.349 1.474 5.248 1.88 1.898.42 3.915.629 5.975.576 4.124-.082 8.019-1.23 11.043-3.122 3.052-1.87 5.123-4.488 6.342-6.881 1.22-2.421 1.579-4.632 1.654-6.136.055-1.516-.102-2.352-.047-2.358.015-.003.052.205.109.603.072.398.105.993.111 1.761-.022 1.523-.339 3.784-1.547 6.269-1.206 2.458-3.295 5.154-6.405 7.088-3.08 1.952-7.052 3.135-11.25 3.219a24.954 24.954 0 0 1-6.078-.596c-1.931-.419-3.754-1.057-5.352-1.946-1.594-.883-2.966-2.029-3.904-3.369-.974-1.317-1.503-2.772-1.847-4.098-.636-2.689-.546-4.933-.514-6.452.026-.763.065-1.354.096-1.754.031-.401.055-.611.07-.61z" fill="#0C2B34"/><path d="M247.816 198.028s-20.692.784-25.603 21.446c-5.688 23.931-2.257 50.315 4.896 63.528l.335-23.537a108.108 108.108 0 0 1 11.502-46.997l8.87-14.44z" fill="#36404C"/><path d="M223.496 265.876c-.016 0-.034-.248-.054-.72-.015-.513-.038-1.202-.065-2.07a47.744 47.744 0 0 1-.012-3.276c.031-1.277.023-2.733.144-4.338.049-.804.101-1.645.153-2.52.058-.876.17-1.784.259-2.725.156-1.887.464-3.885.758-5.992.678-4.2 1.626-8.788 2.943-13.519a124.576 124.576 0 0 1 4.558-13.068c.85-1.951 1.633-3.815 2.485-5.506.416-.849.794-1.682 1.204-2.458l1.187-2.229c.734-1.431 1.503-2.668 2.144-3.774a47.754 47.754 0 0 1 1.722-2.787l1.137-1.73c.263-.392.409-.594.421-.586.014.01-.107.227-.346.635l-1.066 1.773a57.274 57.274 0 0 0-1.655 2.819c-.619 1.115-1.366 2.361-2.081 3.797l-1.158 2.236c-.4.779-.769 1.612-1.178 2.462-.835 1.692-1.603 3.555-2.439 5.504a130.441 130.441 0 0 0-4.509 13.031 130.632 130.632 0 0 0-2.966 13.464c-.304 2.097-.624 4.088-.796 5.966-.097.938-.216 1.842-.283 2.715l-.18 2.511c-.142 1.598-.156 3.051-.21 4.325a56.47 56.47 0 0 0-.064 3.269l-.017 2.069c-.009.472-.022.721-.036.722zm9.463-62.629c.013.007-.073.198-.248.555l-.788 1.547c-.707 1.331-1.66 3.294-2.774 5.743-.534 1.236-1.154 2.574-1.71 4.057-.285.738-.603 1.492-.887 2.286l-.857 2.454a96.707 96.707 0 0 0-2.994 11.169 90.065 90.065 0 0 0-.634 3.573c-1.054 6.677-1.29 12.762-1.279 17.337.014 2.692.07 4.874.147 6.379l.061 1.734c.009.397.007.607-.007.608-.017.001-.043-.205-.081-.601l-.146-1.732c-.129-1.503-.232-3.686-.287-6.385-.094-5.391.186-12.896 1.793-21a91.696 91.696 0 0 1 3.041-11.213l.879-2.459c.292-.794.618-1.548.91-2.287.573-1.483 1.213-2.818 1.766-4.05 1.154-2.44 2.153-4.386 2.907-5.694l.861-1.51c.201-.342.313-.518.327-.511z" fill="#0C2B34"/><path d="M314.664 205.99s-13.898 37.829-3.653 69.757l.557 11.285s-7.836-.533-13.762-11.732c-5.929-11.198-7.848-22.754-9.858-39.406-2.01-16.654 7.118-37.866 7.118-37.866s16.187 3.546 19.598 7.962z" fill="#36404C"/><path d="M311.928 286.043c-.003.007-.072-.027-.202-.097l-.577-.325c-.496-.302-1.198-.805-1.99-1.581-1.599-1.539-3.324-4.361-4.405-8.17-.566-1.894-.998-4.019-1.362-6.305-.398-2.282-.72-4.738-1.013-7.327a130.785 130.785 0 0 1-.727-16.923c.126-6.015.674-11.73 1.467-16.881.794-5.148 1.76-9.75 2.892-13.531 1.119-3.785 2.469-6.705 3.563-8.619a27.667 27.667 0 0 1 1.352-2.147l.388-.534c.09-.119.139-.177.145-.172.007.004-.03.071-.107.198l-.352.557a36.968 36.968 0 0 0-1.275 2.182c-1.042 1.93-2.339 4.847-3.413 8.624-1.088 3.77-2.02 8.366-2.79 13.502a134.729 134.729 0 0 0-.737 33.701c.281 2.582.588 5.031.971 7.31.346 2.285.757 4.395 1.299 6.278 1.034 3.784 2.689 6.581 4.227 8.137 1.53 1.572 2.692 2.061 2.646 2.123z" fill="#0C2B34"/><path d="M311.429 285.652c-.004.008-.081-.019-.23-.078l-.656-.274a14.368 14.368 0 0 1-2.336-1.42c-1.925-1.408-4.239-4.05-6.329-7.747-2.016-3.724-4.329-8.241-6.088-13.576a86.134 86.134 0 0 1-4.017-17.761 88.002 88.002 0 0 1-.222-18.214c.465-5.596 1.602-10.541 2.688-14.632.606-2.031 1.11-3.882 1.733-5.449.584-1.578 1.042-2.956 1.555-4.026.472-1.058.842-1.893 1.109-2.492l.299-.643c.068-.144.108-.216.115-.213.007.004-.019.082-.075.233l-.258.659-1.031 2.522c-.486 1.077-.921 2.459-1.481 4.041-.598 1.569-1.079 3.421-1.664 5.45-1.042 4.087-2.142 9.015-2.584 14.588a89.238 89.238 0 0 0 .256 18.125 87.354 87.354 0 0 0 3.963 17.681c1.729 5.315 4.003 9.826 5.974 13.552 2.043 3.694 4.291 6.33 6.162 7.766.924.729 1.73 1.173 2.271 1.476l.635.312c.142.072.213.113.211.12zm-6.609-65.376l9.009 2.378-1.305 3.148-8.477-1.689.773-3.837z" fill="#0C2B34"/><path d="M305.012 223.325c-.051-.05.447-.636 1.271-1.516l.149-.16.122.192 1.092 1.71-.29-.076.998-.568 1.029-.572.192-.106.102.187.977 1.795-.233-.065c1.055-.535 1.739-.839 1.772-.779.034.062-.59.475-1.607 1.08l-.142.085-.091-.15-1.051-1.752.293.08-1.024.583-1.003.558-.186.103-.104-.179-1.021-1.753.272.033c-.881.823-1.468 1.32-1.517 1.27z" fill="#DD6726"/><path d="M230.989 274.267l-9.813-18.102h-29.847l-.945 1.795 25.265 42.009 28.605 1.379-13.265-27.081z" fill="#335863"/><path d="M344.799 284.266v31.637a19.228 19.228 0 0 1-26.483 17.806l-69.659-30.872 6.823-23.235 56.042 18.471-.065-14.404 33.342.597z" fill="#F9B299"/><path d="M230.043 276.098l-9.812-18.102h-29.847l24.319 43.805 28.605 1.379-13.265-27.082z" fill="#282B30"/><path d="M258.231 282.131l-4.722-5.859a16.378 16.378 0 0 0-12.751-6.1h-4.123l-2.814 3.166s-20.186.879-20.93 3.369l-.018.803-.011.47 17.265 1.161s-14.687-.046-15.565-.014c-.968.037-4.099-.246-4.036 1.478.054 1.417 1.73 2.534 4.269 2.906 1.043.151 13.765 1.257 13.765 1.257s-13.358-.127-14.003-.131c-1.57-.007-1.372 2.51-.439 2.825.737.249 18.674 5.483 18.674 5.483s-3.016 2.023-5.477 1.847c-2.463-.176-6.683-3.341-7.563-1.847-.879 1.496-.703 2.375-.176 2.726.528.352 6.331 3.342 8.266 3.869 1.934.528 17.726 3.028 17.726 3.028l5.701.918 6.962-21.355zm-63.665-17.086s-3.123 1.089-1.535 5.101c2.326 5.87 6.335 10.028 6.335 10.028s-.553 2.073 1.244 3.593c0 0-2.211.552-.829 4.283 0 0-1.52 3.869 2.625 5.528 0 0-1.105 3.178 2.902 4.698 4.008 1.52 7.876-1.108 7.876-1.108l-18.618-32.123z" fill="#F9B299"/><path d="M200.867 279.877c2.837.765 5.954 1.376 8.578 2.372.864.327 1.719.345 2.291 1.07.573.724.705 1.878.05 2.53-.576.573-1.5.562-2.307.465-3.027-.367-5.926-1.406-8.795-2.437" fill="#F9B299"/><path d="M202.012 284.637c2.837.766 5.953 1.376 8.577 2.373.863.327 1.72.344 2.291 1.069.573.724.706 1.879.051 2.53-.577.573-1.501.563-2.308.465-3.026-.366-5.926-1.405-8.795-2.437" fill="#F9B299"/><path d="M203.613 289.49c2.838.765 5.954 1.376 8.578 2.372.862.327 1.719.345 2.291 1.068.573.726.705 1.879.05 2.531-.576.574-1.5.563-2.308.465-3.026-.367-5.925-1.405-8.794-2.436" fill="#F9B299"/><path d="M200.867 284.01c.047-.119 2.05.582 4.563 1.279 2.513.706 4.588 1.143 4.567 1.269-.018.116-2.147-.129-4.686-.842-2.54-.705-4.489-1.599-4.444-1.706zm-.549 4.119c.044-.119 2.338.641 5.192 1.475 2.854.84 5.193 1.439 5.167 1.562-.024.116-2.419-.291-5.292-1.137-2.872-.84-5.109-1.79-5.067-1.9zm1.877 5.408c.029-.117 2.211.325 4.874.991 2.664.665 4.798 1.301 4.768 1.419-.029.119-2.212-.324-4.875-.99-2.663-.665-4.797-1.301-4.767-1.42zm-3.663-14.198c.045-.122 2.558.73 5.719 1.542 3.16.823 5.77 1.296 5.75 1.425-.009.058-.675.014-1.741-.145a40.88 40.88 0 0 1-4.12-.851 41.355 41.355 0 0 1-4.015-1.253c-1.009-.379-1.613-.663-1.593-.718zm28.382-5.792c-.001-.123 3.17-.238 7.082-.259 3.914-.02 7.086.061 7.086.184.001.123-3.17.238-7.083.259-3.913.021-7.085-.062-7.085-.184z" fill="#F79570"/><path d="M205.549 265.609a1.499 1.499 0 1 0 1.874-2.34 1.499 1.499 0 0 0-1.874 2.34z" fill="#E5E5E4"/><path d="M307.846 297.283c.007-.029.251-.001.688.077.44.071 1.066.228 1.826.463 1.52.469 3.564 1.357 5.572 2.746 2.004 1.395 3.551 2.998 4.522 4.259.488.628.853 1.16 1.074 1.546.227.383.339.602.313.619-.063.04-.605-.775-1.628-1.967a24.61 24.61 0 0 0-4.533-4.093 24.632 24.632 0 0 0-5.421-2.813c-1.475-.542-2.429-.764-2.413-.837z" fill="#F79570"/><path d="M269.836 213.444c-9.19-.733-16.133-8.64-15.674-17.848.321-6.461.654-12.288.654-12.288s-13.853-2.154-14.024-16.004c-.17-13.85 2.23-45.656 2.23-45.656a48.142 48.142 0 0 1 48.37 6.081l2.052 1.579-5.247 68.44c-.721 9.412-8.951 16.448-18.361 15.696z" fill="#F9B299"/><path d="M254.823 183.11s8.753.712 18.057-5.131c0 0-4.268 9.967-18.089 8.72l.032-3.589z" fill="#F79570"/><path d="M246.461 143.42c-.036 1.044.817 1.937 1.907 1.995 1.088.059 2.002-.738 2.039-1.783.037-1.045-.817-1.938-1.905-1.997-1.09-.059-2.003.741-2.041 1.785zm-.794-2.271c.245.257 1.745-.852 3.873-.846 2.126-.025 3.688 1.07 3.918.809.114-.115-.136-.581-.816-1.076-.669-.493-1.811-.972-3.137-.967-1.326.007-2.441.495-3.082.995-.655.502-.876.969-.756 1.085zm20.844 2.729c-.036 1.044.817 1.937 1.908 1.996 1.088.057 2.001-.739 2.039-1.785.036-1.044-.818-1.937-1.906-1.996-1.09-.059-2.004.74-2.041 1.785zm.076-2.364c.245.258 1.745-.851 3.872-.845 2.125-.025 3.688 1.07 3.92.809.113-.115-.135-.581-.818-1.076-.669-.493-1.811-.973-3.136-.967-1.326.008-2.442.495-3.084.995-.651.502-.875.969-.754 1.084zm-7.746 15.839c.009-.122-1.313-.35-3.458-.624-.542-.056-1.057-.164-1.149-.535-.128-.393.1-.979.363-1.611.511-1.315 1.045-2.694 1.608-4.138 2.232-5.893 3.847-10.738 3.609-10.826-.238-.088-2.24 4.617-4.473 10.509-.536 1.454-1.051 2.839-1.539 4.164-.205.617-.559 1.318-.282 2.133.146.406.546.701.894.794.348.107.654.113.922.129 2.158.116 3.497.126 3.505.005zm6.26 1.491c-.346-.02-.35 2.291-2.328 3.93-1.974 1.646-4.437 1.386-4.456 1.709-.031.145.55.449 1.59.477 1.019.035 2.508-.292 3.718-1.295 1.207-1.006 1.725-2.348 1.804-3.296.088-.966-.17-1.538-.328-1.525zm.917-25.596c.21.579 2.335.304 4.832.605 2.503.251 4.517.982 4.848.463.148-.249-.202-.793-1.017-1.352-.807-.56-2.094-1.092-3.594-1.259-1.5-.163-2.872.074-3.781.444-.917.37-1.378.824-1.288 1.099zm-19.595 1.709c.375.483 1.84-.018 3.604-.042 1.763-.085 3.257.325 3.6-.181.152-.245-.085-.73-.736-1.187-.643-.456-1.719-.829-2.93-.793-1.212.039-2.262.477-2.875.972-.623.497-.828.995-.663 1.231z" fill="#0C2B34"/><path d="M291.769 143.716c.237-.102 9.518-2.815 9.215 6.655-.302 9.468-9.747 7.211-9.755 6.939-.007-.271.54-13.594.54-13.594z" fill="#F9B299"/><path d="M294.215 153.738c.042-.03.161.12.435.257.269.133.733.234 1.233.065 1.011-.336 1.905-1.897 2.005-3.602a5.45 5.45 0 0 0-.386-2.376c-.268-.703-.699-1.2-1.2-1.307a.842.842 0 0 0-.988.421c-.136.261-.081.452-.132.466-.027.023-.198-.164-.11-.552a1.05 1.05 0 0 1 .391-.582c.234-.178.571-.262.92-.213.73.074 1.365.767 1.677 1.523.351.762.546 1.692.487 2.659-.121 1.906-1.155 3.66-2.536 4.012-.672.152-1.222-.066-1.501-.299-.287-.242-.329-.456-.295-.472z" fill="#F79570"/><path d="M237.746 109.683c2.011-3.972 5.928-6.926 10.3-7.767 4.373-.841 9.105.449 12.447 3.393 2.095-4.17 6.341-7.183 10.969-7.784 4.628-.601 9.503 1.23 12.593 4.727 2.655 3.006 4.03 7.095 7.141 9.628 2.692 2.191 6.342 2.92 9.05 5.092 2.98 2.392 4.466 6.508 3.699 10.251-.766 3.744-3.75 6.945-7.431 7.973 2.97 5.357.186 13.042-5.526 15.253l-1.381-.573c-5.24-5.751-6.437-14.83-2.867-21.744-.17.009-.331-.018-.497-.022-1.824.995-3.922 1.493-5.997 1.373-3.311-.194-6.497-1.961-8.415-4.668-3.781 2.728-9.201 2.956-13.197.555-.63-.378-1.258-.826-1.989-.904-.87-.093-1.693.357-2.48.743-2.077 1.019-4.412 1.686-6.703 1.354-2.137-.311-4.19-1.639-5.034-3.603l-.158-.019c-2.67-.482-4.81-2.76-5.545-5.372-.735-2.611-.205-5.465 1.021-7.886z" fill="#282B30"/></g><defs><clipPath id="clip0"><path fill="#fff" d="M0 0h375v375H0z"/></clipPath></defs></svg>