<svg width="29" height="29" fill="none" xmlns="http://www.w3.org/2000/svg"><rect width="29" height="29" rx="5" fill="#FFD9BB"/><g clip-path="url(#clip0)" fill="#F58429"><path d="M21.936 14.207a.469.469 0 0 1 0-.414l.597-1.221a1.39 1.39 0 0 0-.6-1.845l-1.2-.636a.47.47 0 0 1-.243-.336l-.235-1.338a1.39 1.39 0 0 0-1.57-1.14l-1.345.19a.47.47 0 0 1-.394-.128l-.976-.945a1.389 1.389 0 0 0-1.94 0l-.976.945a.469.469 0 0 1-.394.128l-1.346-.19a1.389 1.389 0 0 0-1.569 1.14L9.51 9.755a.469.469 0 0 1-.243.336l-1.2.637a1.389 1.389 0 0 0-.6 1.844l.597 1.22a.469.469 0 0 1 0 .415l-.597 1.221a1.39 1.39 0 0 0 .6 1.845l1.2.636c.13.07.218.191.243.336l.235 1.338a1.388 1.388 0 0 0 1.57 1.14l1.345-.19a.469.469 0 0 1 .394.128l.976.944a1.39 1.39 0 0 0 1.94 0l.976-.944a.47.47 0 0 1 .394-.128l1.346.19a1.389 1.389 0 0 0 1.569-1.14l.235-1.338a.469.469 0 0 1 .243-.336l1.2-.636a1.39 1.39 0 0 0 .6-1.845l-.597-1.22zm-8.782-4.36c.933 0 1.692.76 1.692 1.692 0 .933-.759 1.692-1.692 1.692a1.694 1.694 0 0 1-1.691-1.692c0-.933.759-1.692 1.691-1.692zm-.873 7.524a.46.46 0 0 1-.652 0 .462.462 0 0 1 0-.652l6.09-6.09a.461.461 0 1 1 .652.652l-6.09 6.09zm4.565.782a1.694 1.694 0 0 1-1.692-1.692c0-.933.759-1.692 1.692-1.692a1.693 1.693 0 0 1 0 3.384z"/><path d="M16.846 15.692a.77.77 0 1 0 .001 1.54.77.77 0 0 0-.001-1.54zm-3.691-4.922a.77.77 0 1 0 .001 1.54.77.77 0 0 0-.002-1.54z"/></g><defs><clipPath id="clip0"><path fill="#fff" d="M7 6h16v16H7z"/></clipPath></defs></svg>