<svg width="8" height="8" fill="none" xmlns="http://www.w3.org/2000/svg"><path d="M4.881 4l2.992-2.991a.435.435 0 0 0 0-.62L7.61.129A.434.434 0 0 0 7.3 0a.434.434 0 0 0-.31.128L4 3.119 1.008.128A.434.434 0 0 0 .699 0 .433.433 0 0 0 .39.128L.128.39a.438.438 0 0 0 0 .619L3.119 4 .128 6.991a.435.435 0 0 0-.128.31c0 .117.046.227.128.31l.262.261A.434.434 0 0 0 .7 8a.434.434 0 0 0 .309-.128L4 4.881l2.992 2.991A.434.434 0 0 0 7.3 8a.434.434 0 0 0 .31-.128l.262-.262A.435.435 0 0 0 8 7.3a.435.435 0 0 0-.127-.309L4.88 4z" fill="#2C2C2C"/></svg>