<svg width="24" height="24" fill="none" xmlns="http://www.w3.org/2000/svg"><circle cx="12" cy="12" r="12" fill="#fff"/><g clip-path="url(#clip0)" fill="#F58429"><path d="M13.06 11.314a1.5 1.5 0 1 1-2.12 2.122 1.5 1.5 0 0 1 2.12-2.122z"/><path d="M16.5 8.25h-1.036l-.75-1.5H9.285l-.75 1.5-1.034.002a1.503 1.503 0 0 0-1.498 1.5L6 15.75c0 .827.673 1.5 1.5 1.5h9c.827 0 1.5-.673 1.5-1.5v-6c0-.827-.673-1.5-1.5-1.5zM12 15.375c-1.654 0-3-1.346-3-3s1.346-3 3-3 3 1.346 3 3-1.346 3-3 3z"/></g><defs><clipPath id="clip0"><path fill="#fff" d="M6 6h12v12H6z"/></clipPath></defs></svg>