<svg width="22" height="22" fill="none" xmlns="http://www.w3.org/2000/svg"><circle cx="11" cy="11" r="11" fill="#fff"/><path d="M11.881 11l2.992-2.991a.435.435 0 0 0 0-.62l-.262-.261A.434.434 0 0 0 14.3 7a.434.434 0 0 0-.31.128L11 10.119 8.008 7.128A.434.434 0 0 0 7.699 7a.434.434 0 0 0-.309.128l-.262.262a.438.438 0 0 0 0 .619L10.119 11l-2.991 2.991a.435.435 0 0 0-.128.31c0 .117.046.227.128.31l.262.261A.434.434 0 0 0 7.7 15a.434.434 0 0 0 .309-.128L11 11.881l2.992 2.991A.434.434 0 0 0 14.3 15a.434.434 0 0 0 .31-.128l.262-.262a.435.435 0 0 0 0-.619L11.88 11z" fill="#2C2C2C"/></svg>