<?xml version="1.0" encoding="utf-8"?>
<!-- Generator: Adobe Illustrator 24.0.3, SVG Export Plug-In . SVG Version: 6.00 Build 0)  -->
<svg version="1.1" id="Слой_1" xmlns="http://www.w3.org/2000/svg" xmlns:xlink="http://www.w3.org/1999/xlink" x="0px" y="0px"
	 viewBox="0 0 14 7" style="enable-background:new 0 0 14 7;" xml:space="preserve">
<style type="text/css">
	.st0{fill:#6E6E6E;}
</style>
<path class="st0" d="M7,7C6.8,7,6.5,6.9,6.4,6.8l-6-5C0.2,1.6,0,1.4,0,1.1c0-0.3,0.1-0.5,0.2-0.7C0.4,0.2,0.6,0,0.9,0
	c0.3,0,0.5,0.1,0.7,0.2L7,4.7l5.4-4.3c0.1-0.1,0.2-0.1,0.3-0.2c0.1,0,0.3,0,0.4,0c0.1,0,0.3,0.1,0.4,0.1c0.1,0.1,0.2,0.1,0.3,0.3
	c0.1,0.1,0.2,0.2,0.2,0.4C14,1,14,1.2,14,1.3c0,0.1-0.1,0.3-0.1,0.4c-0.1,0.1-0.2,0.2-0.3,0.3l-6,4.8C7.4,7,7.2,7,7,7z"/>
</svg>
