<svg width="120" height="120" viewBox="0 0 120 120" fill="none" xmlns="http://www.w3.org/2000/svg">
<g clip-path="url(#clip0)">
<path d="M114.999 69.9986C114.999 69.9983 114.999 69.9981 114.999 69.9976C114.998 55.4454 108.78 42.3483 98.8577 33.2121L108.52 23.5495C110.473 21.597 110.473 18.4311 108.52 16.4786C106.568 14.526 103.402 14.526 101.449 16.4786L90.7769 27.1511C87.4212 25.1282 83.8091 23.4883 79.9999 22.2921V4.99981C79.9999 2.23847 77.7612 0 74.9998 0H55.0003C52.239 0 50.0005 2.23847 50.0005 4.99981V22.3324C47.5284 23.1176 45.113 24.0914 42.7735 25.2552C40.3011 26.4852 39.294 29.4866 40.524 31.9589C41.754 34.4313 44.7553 35.4384 47.2277 34.2084C49.9703 32.8439 52.8343 31.7996 55.7822 31.0922C55.8923 31.0746 56.0025 31.0543 56.1131 31.0289C57.4125 30.7325 58.7078 30.5026 60.0004 30.3333V34.9992C60.0004 37.7605 62.2388 39.999 65.0002 39.999C67.7615 39.999 70 37.7605 70 34.9992V30.3333C71.2926 30.5026 72.5879 30.7325 73.8873 31.0289C74.0654 31.0695 74.2426 31.099 74.4193 31.1199C80.0036 32.4677 85.1305 34.9856 89.5258 38.4018L86.2128 41.7148C84.2602 43.6673 84.2602 46.8332 86.2128 48.7858C88.1653 50.7383 91.3312 50.7383 93.2837 48.7858L96.5972 45.4722C100.898 51.0043 103.778 57.6949 104.689 64.9983H99.9996C97.2382 64.9983 94.9998 67.2368 94.9998 69.9981C94.9998 72.7595 97.2382 74.9979 99.9996 74.9979H104.689C103.779 82.3014 100.899 88.9924 96.5984 94.5254L93.2837 91.2107C91.3312 89.2582 88.1653 89.2582 86.2128 91.2107C84.2602 93.1632 84.2602 96.3291 86.2128 98.2816L89.5279 101.597C83.9954 105.898 77.3041 108.779 70.0002 109.689V104.998C70.0002 102.236 67.7618 99.9979 65.0004 99.9979C62.2391 99.9979 60.0006 102.236 60.0006 104.998V109.679C55.5631 109.112 51.2659 107.798 47.2282 105.789C44.7558 104.559 41.7547 105.566 40.5245 108.038C39.2943 110.511 40.3016 113.512 42.774 114.742C49.6776 118.177 57.2245 120 65.0007 120C92.6148 120 114.999 97.6137 114.999 70.0014C114.999 70.0007 114.999 70 114.999 69.9995C114.999 69.9988 114.999 69.9986 114.999 69.9986ZM60.0001 9.99986H70V20.2503C68.9489 20.146 67.8876 20.0768 66.8184 20.0386C66.2126 20.0154 65.6065 19.9997 65 19.9997C64.5251 19.9997 64.0505 20.0089 63.5762 20.0229C63.5058 20.025 63.4355 20.029 63.3652 20.0314C63.0167 20.0433 62.6682 20.0576 62.3199 20.0773C62.0333 20.0928 61.7474 20.1132 61.4612 20.1336C61.3604 20.1411 61.2594 20.1476 61.1586 20.1558C60.7717 20.1858 60.3854 20.2207 60.0001 20.2599V9.99986Z" fill="#D99E2A"/>
<path d="M68.5353 73.534L83.535 58.5344C85.4876 56.5818 85.4876 53.416 83.535 51.4634C81.5825 49.5109 78.4166 49.5109 76.4641 51.4634L61.4644 66.4631C59.5119 68.4156 59.5119 71.5815 61.4644 73.534C63.4169 75.4866 66.5826 75.4866 68.5353 73.534Z" fill="#D99E2A"/>
<path d="M35.0008 64.9985H10.0013C7.23993 64.9985 5.00146 67.237 5.00146 69.9983C5.00146 72.7597 7.23993 74.9982 10.0013 74.9982H35.0008C37.7622 74.9982 40.0006 72.7597 40.0006 69.9983C40.0006 67.2372 37.7622 64.9985 35.0008 64.9985Z" fill="#D99E2A"/>
<path d="M35.001 39.9991H20.0013C17.2399 39.9991 15.0015 42.2376 15.0015 44.999C15.0015 47.7603 17.2399 49.9988 20.0013 49.9988H35.001C37.7623 49.9988 40.0008 47.7603 40.0008 44.999C40.0008 42.2376 37.7623 39.9991 35.001 39.9991Z" fill="#D99E2A"/>
<path d="M35.001 89.998H20.0013C17.2399 89.998 15.0015 92.2365 15.0015 94.9979C15.0015 97.7592 17.2399 99.9977 20.0013 99.9977H35.001C37.7623 99.9977 40.0008 97.7592 40.0008 94.9979C40.0008 92.2365 37.7623 89.998 35.001 89.998Z" fill="#D99E2A"/>
</g>
<defs>
<clipPath id="clip0">
<rect width="120" height="120" fill="white"/>
</clipPath>
</defs>
</svg>
