<svg width="139" height="139" viewBox="0 0 139 139" fill="none" xmlns="http://www.w3.org/2000/svg">
<path d="M138.613 73.8161C137.893 70.413 134.214 67.674 127.546 65.6542C121.957 63.9665 114.93 62.9705 107.183 62.8045L106.436 31.3192C105.412 28.2205 101.732 25.7028 95.5072 23.8214C89.2821 21.9401 81.1756 20.9164 72.6264 20.9164C64.1049 20.9164 56.0537 21.9401 49.967 23.8214C44.9592 25.3708 38.9554 28.2482 38.9554 33.2006C38.9554 33.505 38.9831 33.8093 39.0384 34.1136L39.3428 46.7299C37.2954 46.3425 35.2203 46.1489 33.1176 46.1489C14.8573 46.1489 0 61.0062 0 79.2665C0 97.5545 14.802 112.384 33.09 112.384C40.6984 112.384 48.0856 109.756 53.9787 104.969C59.1801 106.187 65.2946 106.851 71.7687 106.906C73.1797 114.57 89.8077 118.084 105.301 118.084C113.823 118.084 121.846 117.032 127.988 115.151C133.052 113.602 139 110.696 139 105.744L138.613 73.8161ZM51.5163 29.1335C57.1051 27.4182 64.6029 26.4498 72.5711 26.4498C80.4562 26.4498 88.2307 27.4182 93.8748 29.1335C99.9062 30.9596 101.207 32.8409 101.207 33.2283C101.207 33.6156 99.9062 35.497 93.8748 37.323C88.2584 39.0107 80.4839 40.0068 72.5987 40.0068C64.9626 40.0068 57.7138 39.1214 52.208 37.5167C46.2596 35.8013 44.5719 33.8923 44.4335 33.2836C44.4335 33.256 44.4058 33.2283 44.3782 33.2006C44.3782 32.6196 46.2319 30.7659 51.5163 29.1335ZM101.649 40.0621V46.9789C101.345 47.4492 101.207 47.9749 101.207 48.5282C101.207 48.8879 99.9062 50.797 93.9025 52.623C88.286 54.3384 80.5115 55.3067 72.6264 55.3067C65.7926 55.3067 59.0971 54.5874 53.785 53.2317C53.702 53.204 53.619 53.204 53.5637 53.1763C50.963 51.1013 48.0303 49.4413 44.9315 48.2792L44.7379 40.4771C46.6469 41.4454 48.6389 42.2201 50.714 42.7735C56.7178 44.5165 64.4922 45.4572 72.6541 45.4572C81.2032 45.4572 89.3097 44.4335 95.5072 42.5521C97.6099 41.9988 99.6849 41.1411 101.649 40.0621ZM51.6547 99.6572C40.3941 109.922 22.9361 109.092 12.6992 97.8312C2.46238 86.5706 3.26473 69.1126 14.5253 58.8758C19.616 54.2554 26.2285 51.6823 33.09 51.6823C35.8567 51.6823 38.5957 52.0973 41.2518 52.8997C44.8485 54.0064 48.1963 55.8601 51.046 58.3501C55.6941 62.3065 58.8758 67.7293 60.1208 73.7054C60.4805 75.5314 60.6742 77.4128 60.6742 79.2665C60.7018 87.041 57.4094 94.4558 51.6547 99.6572ZM58.6821 100.266C60.9232 97.5269 62.7215 94.4558 63.9942 91.1634C66.3736 91.3571 68.8637 91.4954 71.4367 91.5231C71.3814 91.8551 71.3814 92.1594 71.4367 92.4914L71.5474 101.4C67.259 101.345 62.9705 100.985 58.6821 100.266ZM66.0693 75.9741C67.7016 76.0848 69.3893 76.1401 71.1324 76.1678C71.16 76.3614 71.2154 76.5551 71.2707 76.7488L71.3814 85.962C69.3893 85.9343 67.425 85.8513 65.5713 85.713C65.9863 83.5826 66.2076 81.3969 66.2076 79.2388C66.2076 78.1598 66.1523 77.0808 66.0693 75.9741ZM72.8201 70.662C72.7371 70.662 72.6817 70.662 72.5987 70.662C69.915 70.662 67.3696 70.5513 64.9902 70.3577C63.9666 66.6779 62.2789 63.1919 60.0655 60.0655C64.2156 60.5911 68.421 60.8678 72.5987 60.8678C81.1479 60.8678 89.2544 59.8441 95.4518 57.9628C97.6099 57.3541 99.6572 56.4964 101.622 55.4174V62.8045C94.7048 62.9982 88.203 63.8835 83.0293 65.3499C78.1598 66.7333 74.7568 68.504 72.8201 70.662ZM76.6381 74.7844C77.1085 73.9267 79.1835 72.239 84.5786 70.745C90.0014 69.2233 97.0565 68.3933 104.471 68.3933H104.693C112.605 68.3933 120.352 69.3063 125.969 71.0217C131.779 72.7924 133.19 74.5631 133.273 75.0334V75.0611C133.245 75.4761 131.89 77.3851 125.747 79.2112C120.076 80.8989 112.578 81.8119 104.693 81.8119C97.3609 81.8119 90.3057 80.9819 84.883 79.5155C79.6815 78.1045 77.4405 76.4721 76.7765 75.5314C76.7765 75.2824 76.7211 75.0334 76.6381 74.7844ZM133.467 105.716C133.467 106.104 132.249 108.013 126.356 109.839C120.712 111.582 113.242 112.55 105.274 112.55C97.2779 112.55 89.8354 111.609 84.2743 109.922C78.9899 108.289 77.2191 106.463 77.2191 105.855C77.2191 105.827 77.2191 105.827 77.2191 105.799L77.1915 104.112L77.1085 97.8589C79.3219 98.9379 81.6182 99.7679 83.9976 100.349C89.8077 101.871 97.1395 102.701 104.693 102.701C113.242 102.701 121.265 101.677 127.463 99.7956C129.482 99.1869 131.807 98.3569 133.467 97.2779V105.716ZM133.107 90.3887C133.107 90.7761 131.834 92.6574 125.886 94.4835C120.214 96.1988 112.688 97.1395 104.665 97.1395C89.6141 97.1395 79.3772 93.7918 76.9978 91.1357L76.8871 82.3929C83.4166 85.796 94.4005 87.3453 104.693 87.3453C113.104 87.3453 121.099 86.3493 127.269 84.5233C129.427 83.9146 131.502 83.0846 133.494 82.0056V88.9224C133.467 89.3374 133.107 89.8354 133.107 90.3887Z" fill="#D99E2A"/>
<path d="M33.1178 60.9785C23.0192 60.9785 14.8574 69.168 14.8574 79.2389C14.8574 89.3097 23.0469 97.4992 33.1178 97.4992C43.1886 97.4992 51.3781 89.3097 51.3781 79.2389C51.3505 69.168 43.1886 61.0062 33.1178 60.9785ZM33.1178 91.9934C26.0903 91.9934 20.3909 86.294 20.3909 79.2665C20.3909 72.2391 26.0903 66.5396 33.1178 66.5396C40.1452 66.5396 45.8447 72.2391 45.8447 79.2665C45.8447 86.294 40.1452 91.9934 33.1178 91.9934Z" fill="#D99E2A"/>
</svg>
