<svg width="31" height="20" viewBox="0 0 31 20" fill="none" xmlns="http://www.w3.org/2000/svg">
<path d="M1.61751 2.1383L14.0881 8.83751C14.5071 9.06199 15.0492 9.1684 15.5946 9.1684C16.14 9.1684 16.682 9.06199 17.101 8.83751L29.5717 2.1383C30.3847 1.70099 31.1529 0 29.6614 0H1.52938C0.0378946 0 0.806085 1.70099 1.61751 2.1383ZM29.9491 5.80133L17.101 12.4972C16.5357 12.7932 16.14 12.8281 15.5946 12.8281C15.0492 12.8281 14.6535 12.7932 14.0881 12.4972C13.5228 12.2013 2.22774 6.28021 1.30491 5.79967C0.656438 5.46047 0.663089 5.85787 0.663089 6.16381V18.2902C0.663089 18.9886 1.60421 19.953 2.32584 19.953H28.9298C29.6515 19.953 30.5926 18.9886 30.5926 18.2902V6.16548C30.5926 5.85953 30.5992 5.46213 29.9491 5.80133Z" fill="#128093"/>
</svg>
