<?xml version="1.0" encoding="utf-8"?>
<!-- Generator: Adobe Illustrator 25.2.0, SVG Export Plug-In . SVG Version: 6.00 Build 0)  -->
<svg version="1.1" id="Capa_1" xmlns="http://www.w3.org/2000/svg" xmlns:xlink="http://www.w3.org/1999/xlink" x="0px" y="0px"
	 viewBox="0 0 457.2 457.2" style="enable-background:new 0 0 457.2 457.2;" xml:space="preserve">
<path d="M454.7,133.6L366.2,57c-2.4-2.1-5.9-2.4-8.7-0.8l-18.4,10.6l-7.1-4.1l10.9-6.3c2.5-1.5,4-4.3,3.7-7.2s-2.2-5.4-5-6.4
	L231.1,4.5c-2.2-0.8-4.6-0.4-6.4,0.7c0,0-221.4,127.8-221.6,128c-1,0.7-1.8,1.7-2.3,2.9c-0.5,1.1-0.7,2.2-0.7,3.3l0,178.4
	c0,2.7,1.4,5.2,3.7,6.5l221.1,127.8c1.2,0.7,2.5,1,3.8,1c1.3,0,2.6-0.3,3.8-1l221.1-127.7c2.3-1.3,3.8-3.8,3.8-6.5V139.4
	C457.3,137.2,456.3,135.1,454.7,133.6z M324.2,75.4L136.4,183.8c-2.1,1.2-3.5,3.4-3.7,5.8c-0.2,2.4,0.7,4.8,2.6,6.4l29,25.1
	l-84.9-49l36.2,12.6c2.1,0.7,4.3,0.5,6.2-0.6L317.1,71.3L324.2,75.4z M229.4,19.8l91.8,31.8L117.3,169.4l-91.8-31.8L229.4,19.8z
	 M221.1,432.6L15,313.6l0-161.3l206.1,119L221.1,432.6z M229.5,257.8L153,191.6L360.4,71.8l76.5,66.2L229.5,257.8z M442.2,313.7
	l-206.1,119l0-161.4l206.1-119V313.7z"/>
</svg>
