<?xml version="1.0" encoding="utf-8"?>
<!-- Generator: Adobe Illustrator 25.2.0, SVG Export Plug-In . SVG Version: 6.00 Build 0)  -->
<svg version="1.1" id="Layer_1" xmlns="http://www.w3.org/2000/svg" xmlns:xlink="http://www.w3.org/1999/xlink" x="0px" y="0px"
	 viewBox="0 0 512 512" style="enable-background:new 0 0 512 512;" xml:space="preserve">
<g>
	<g>
		<path d="M500.7,160c-9.5-13.2-30.2-24.6-53.3-18.5c-24.2,6.4-36.2,23.5-47.8,40c-2.9,4.2-6,8.5-9.2,12.7
			c-3.3,4.3-8.7,8.7-15.1,12.8v-73.4c0-27-21.9-49-48.8-49c-11.7,0-22.5,4.2-30.9,11.1c-6.1-20.1-24.7-34.7-46.7-34.7
			s-40.6,14.7-46.7,34.7c-8.4-6.9-19.2-11.1-30.9-11.1c-20.6,0-38.3,13-45.4,31.2L84,27.7C73.6,5.9,51.7-4.8,31.9,2.1
			C11,9.4-0.1,33.3,7.1,55.4l54.6,166.7v63.7c0,23.2,6.3,46,12.4,68.1c5,18.2,9.8,35.6,11.2,52.8h-2c-5.5,0-10,4.5-10,10V502
			c0,5.5,4.5,10,10,10h276.9c5.5,0,10-4.5,10-10v-85.4c0-5.5-4.5-10-10-10H358c2.8-43.2,24.6-60.1,49.6-79.5
			c21.7-16.8,46.4-35.9,60.1-73.8c10.5-29,21.2-42.9,29.1-53c2.3-3,4.5-5.9,6.4-8.7C509.2,182.4,508.3,170.6,500.7,160L500.7,160z
			 M326.4,104.5c15.9,0,28.8,13,28.8,29v83.9c-11.6,5-23.7,8.8-33.2,10.1c-8.3,1.2-16.5,2.4-24.4,4v-98
			C297.6,117.6,310.5,104.5,326.4,104.5L326.4,104.5z M220,110c0-16,12.9-29,28.8-29c15.9,0,28.8,13,28.8,29v23.6v103
			c-11.5,3.6-22.2,8.5-31.5,15.6c-6.3,4.8-11.8,10.5-16.3,17.1c-6.1-5.5-9.8-13.4-9.8-21.7V224v-90.4L220,110z M142.4,133.6
			c0-16,12.9-29,28.8-29s28.8,13,28.8,29V224c0,16-12.9,29-28.8,29s-28.8-13-28.8-29V133.6z M486.4,180.7c-1.4,2.2-3.3,4.6-5.5,7.4
			c-8.1,10.5-20.5,26.5-32,58.4c-11.8,32.5-33,48.9-53.6,64.8c-26.8,20.7-54.5,42.1-57.4,95.3h-71.3c-5.5,0-10,4.5-10,10
			s4.5,10,10,10h83.4V492H93.2v-65.4h83.4c5.5,0,10-4.5,10-10s-4.5-10-10-10h-71.4c-1.4-19.7-6.8-39.2-12-58.1
			c-6-21.8-11.6-42.3-11.6-62.8v-65.3c0-1.1-0.2-2.1-0.5-3.1L26.1,49.2C22.2,37.4,27.8,24.7,38.5,21c11.9-4.1,22.5,5,27.4,15.3
			l56.5,119.1V224c0,27,21.9,49,48.8,49c11.7,0,22.5-4.2,30.9-11.1c3.1,10.2,9.5,19.1,18.1,25.4c-5.8,14.8-8.6,32.6-8.6,53.8
			c0,5.5,4.5,10,10,10c5.5,0,10-4.5,10-10c0-35.9,8.4-59.1,26.6-73c16.7-12.8,41-17.1,66.5-20.7c22.8-3.2,65-19.7,81.4-41
			c3.5-4.6,6.7-9.1,9.8-13.5c10.8-15.4,19.4-27.6,36.5-32.1c13.4-3.5,26.2,2.8,32,10.8C485.4,173,488.4,177.7,486.4,180.7z"/>
		<path d="M221.7,406.6L221.7,406.6c-5.5,0-10,4.5-10,10s4.5,10,10,10c5.5,0,10-4.5,10-10S227.2,406.6,221.7,406.6z"/>
	</g>
</g>
</svg>
