<?xml version="1.0" encoding="utf-8"?>
<!-- Generator: Adobe Illustrator 25.2.0, SVG Export Plug-In . SVG Version: 6.00 Build 0)  -->
<svg version="1.1" id="Layer_1" xmlns="http://www.w3.org/2000/svg" xmlns:xlink="http://www.w3.org/1999/xlink" x="0px" y="0px"
	 viewBox="0 0 512 512" style="enable-background:new 0 0 512 512;" xml:space="preserve">
<g>
	<path d="M41.3,216.8c10,0,10-15,0-15C31.3,201.8,31.3,216.8,41.3,216.8z"/>
	<path d="M124.7,262.6C55.9,262.6,0,318.5,0,387.3c0,66.4,58.3,124.7,124.7,124.7c68.7,0,124.7-55.9,124.7-124.7
		S193.4,262.6,124.7,262.6L124.7,262.6z M124.7,496.9c-27.6,0-55.5-12.1-76.6-33.1c-70.4-68.7-19.8-186.2,76.6-186.3
		C270.1,283.6,270.1,490.9,124.7,496.9L124.7,496.9z"/>
	<path d="M68.4,367.2c4.1,0,7.5-3.4,7.5-7.5c0-5.3,4.3-9.6,9.6-9.6c5.3,0,9.6,4.3,9.6,9.6c0.3,9.9,14.7,9.9,15,0
		c0-13.5-11-24.6-24.6-24.6c-13.5,0-24.6,11-24.6,24.6C60.9,363.9,64.3,367.2,68.4,367.2z"/>
	<path d="M147.2,367.2c4.1,0,7.5-3.4,7.5-7.5c0-5.3,4.3-9.6,9.6-9.6c5.3,0,9.6,4.3,9.6,9.6c0.3,9.9,14.7,9.9,15,0
		c0-13.5-11-24.6-24.6-24.6c-13.5,0-24.6,11-24.6,24.6C139.7,363.9,143,367.2,147.2,367.2z"/>
	<path d="M35.8,387c0,17.3,5,34.1,14.4,48.6c2.3,3.5,6.9,4.4,10.4,2.2c3.5-2.3,4.4-6.9,2.2-10.4c-6.5-9.9-10.4-21.2-11.6-32.9h147.4
		c-4.6,51.9-63.8,83.4-109.6,57.4c-8.8-4.5-15.8,8-7.3,13.1c58.4,33,132.8-10.8,132.2-78c0-4.1-3.4-7.5-7.5-7.5H43.3
		C39.1,379.5,35.8,382.8,35.8,387L35.8,387z"/>
	<path d="M207.7,249.5c27.4,0,54.2-9.1,75.8-25.7c6.2,3.4,10.7,5.2,11.3,5.4c1.8,0.7,3.6,0.7,5.4,0c2.2-0.8,52.9-21,52.9-60.5
		c0-14.3-8.9-26.5-21.5-31.2c3.1-30.5-5.1-61.1-23.1-85.8c-5.5-7.6-17.9,0.9-12.1,8.8c15.8,21.6,23,48.4,20.4,75.1
		c-7.3,0.8-14,3.9-19.3,8.9c-6-5.8-14-9.1-22.7-9.1c-18.2,0-32.9,14.9-32.9,33.3c0,20.9,14.2,36.4,27.9,46.5
		c-72.2,50.4-170.2-4.4-171.9-90.3c-0.8-87,99.8-140.3,171.2-90.8c7.8,5.3,16.5-6.9,8.4-12.4C196.5-34.6,82.2,25.9,83,124.8
		C83,191.2,141.3,249.5,207.7,249.5L207.7,249.5z M257,168.6c0-10.1,8-18.3,17.9-18.3c6.8,0,12.9,3.8,16,10c1.3,2.6,4,3.9,6.7,4.1
		c2.8,0,5.4-1.6,6.7-4.1c3.1-6.2,9.2-10,16-10c9.9,0,17.9,8.2,17.9,18.3c0,24.9-31.1,41-40.6,45.4C288.1,209.7,257,193.7,257,168.6
		L257,168.6z"/>
	<path d="M204.5,140c-9.6-0.2-9.8,14.9-0.1,15c3.6,0,6.6,2.9,6.6,6.5c0,2.4-1.4,4.6-3.6,5.7c-5.4,2.7-5.5,10.6-0.1,13.4
		c2.2,1.1,3.6,3.3,3.5,5.7c0,3.5-3,6.3-6.6,6.3c-9.8-0.1-9.8,15,0,15c11.8,0,21.5-9.5,21.6-21.2c0-4.5-1.4-8.9-3.9-12.4
		c2.6-3.5,4-7.8,4.1-12.4C226.1,149.8,216.4,140.1,204.5,140L204.5,140z"/>
	<path d="M143.8,105.8c0.3,9.9,14.7,9.9,15,0c0-5.3,4.3-9.6,9.6-9.6c5.3,0,9.6,4.3,9.6,9.6c0.3,9.9,14.7,9.9,15,0
		C191.5,73.2,145.1,73.2,143.8,105.8z"/>
	<path d="M237.5,105.8c0.5-12.7,18.6-12.7,19.1,0c0.3,9.9,14.7,9.9,15,0c0-13.5-11-24.6-24.6-24.6c-13.5,0-24.6,11-24.6,24.6
		C222.5,115.2,237.5,115.6,237.5,105.8z"/>
	<path d="M506,304.9c5.8-18.4-1.4-27.8-16.1-33c-47.2-71.3-158.7-71.9-205.6,0c-16.6,2.1-20.6,18.8-15.9,32.3
		c-26.4,78.9,35.4,163.9,118.7,162.9C467.8,467.6,532.4,382.1,506,304.9L506,304.9z M487.5,286.8c4.4,0.8,6.2,3.4,5.6,7.8
		l-12.8,43.2c-2.7,9.7-11.7,16.5-21.8,16.5h-24.6c-10,0-18.6-6.4-21.6-15.9l-12.5-40.3C412.3,293.7,443.5,284.8,487.5,286.8
		L487.5,286.8z M387.1,232.8c32.4,0,62.9,14.3,83.6,38.7c-45.3,0.6-74.7,11.7-81.7,14.6h-3.8c-7-2.9-36.4-14-81.7-14.6
		C324.3,247.1,354.8,232.8,387.1,232.8z M282.1,289.3c0.6-0.9,2.1-2.4,4.7-2.5c29.3-1.3,59.8,1.6,87.7,11.3L362,338.4
		c-3,9.5-11.6,15.9-21.6,15.9h-24.6c-10.1,0-19-6.8-21.8-16.6l-12.8-43.2C280.7,292.8,281,290.9,282.1,289.3L282.1,289.3z
		 M463.7,419.1c-71.2,72.8-192.1,16.1-186-83.5l1.9,6.4c4.5,16.1,19.4,27.4,36.2,27.4h24.6c16.6,0,31-10.6,35.9-26.5l10.9-35
		l10.9,35c4.9,15.8,19.3,26.5,35.9,26.5h24.6c16.8,0,31.6-11.3,36.2-27.3l1.9-6.4C498.6,365.9,486.5,396.2,463.7,419.1z"/>
	<path d="M424.5,389.5c-19.7,20.5-55,20.5-74.6,0c-7.2-6.8-17.4,3.3-10.6,10.6c25.3,26.3,70.6,26.3,95.8,0
		C441.8,392.8,431.7,382.7,424.5,389.5L424.5,389.5z"/>
	<path d="M306.2,321.8c1.9,0,3.8-0.7,5.3-2.2l10.7-10.7c6.6-6.6-3.7-17.5-10.6-10.6L300.9,309C296.4,313.5,299.4,321.8,306.2,321.8
		L306.2,321.8z"/>
	<path d="M320,339.9c3.5,2.9,7.1,2.9,10.6,0l23.9-23.9c6.6-6.6-3.7-17.5-10.6-10.6L320,329.3C317.1,332.3,317.1,337,320,339.9z"/>
	<path d="M425.2,321.8c1.9,0,3.8-0.7,5.3-2.2l10.7-10.7c6.6-6.6-3.7-17.5-10.6-10.6L419.9,309C415.3,313.5,418.4,321.8,425.2,321.8
		L425.2,321.8z"/>
	<path d="M438.9,339.9c3.5,2.9,7.1,2.9,10.6,0l23.9-23.9c6.6-6.6-3.7-17.5-10.6-10.6l-23.9,23.9C436,332.3,436,337,438.9,339.9z"/>
	<path d="M384,82.2c10,0,10-15,0-15C374,67.2,374,82.2,384,82.2z"/>
	<path d="M436.1,181.3c10,0,10-15,0-15C426.1,166.3,426.1,181.3,436.1,181.3z"/>
	<path d="M282.5,479.5c-10,0-10,15,0,15C292.5,494.4,292.5,479.5,282.5,479.5z"/>
</g>
</svg>
