<?xml version="1.0" encoding="utf-8"?>
<!-- Generator: Adobe Illustrator 25.2.0, SVG Export Plug-In . SVG Version: 6.00 Build 0)  -->
<svg version="1.1" id="Layer_1" xmlns="http://www.w3.org/2000/svg" xmlns:xlink="http://www.w3.org/1999/xlink" x="0px" y="0px"
	 viewBox="0 0 512 512" style="enable-background:new 0 0 512 512;" xml:space="preserve">
<path d="M352.7,291.5h-264l228.6-145.3c2.8-1.8,3.6-5.5,1.8-8.3c0,0,0,0,0,0l-22.6-35.6c-10.8-16.9-33.1-21.9-50-11.1l-32.2,20.5
	l2.5-12.2c4.2-18.5-7.4-36.9-25.8-41.1s-36.9,7.4-41.1,25.8c0,0.1-0.1,0.2-0.1,0.3l-16.7,75.1l-56-12.5c-18.5-4.1-36.8,7.5-41,26
	c-3.6,16.1,4.8,32.5,20,39L21.8,234c-16.9,10.8-21.9,33.1-11.1,50l22.6,35.6c1.8,2.8,5.5,3.6,8.3,1.8c0,0,0,0,0,0l21.1-13.4V460
	c0,20,16.2,36.2,36.2,36.2h223.6c20,0,36.2-16.2,36.2-36.2V297.5C358.7,294.2,356.1,291.5,352.7,291.5
	C352.7,291.5,352.7,291.5,352.7,291.5L352.7,291.5z M253,101.2c3.9-2.5,8.4-3.8,13-3.8c1.8,0,3.6,0.2,5.3,0.6
	c6.3,1.4,11.8,5.2,15.2,10.7l19.4,30.6l-94.5,60.1l-32.4-51L253,101.2z M161.6,87.1c2.7-12,14.6-19.6,26.7-16.9
	c12,2.7,19.6,14.6,16.9,26.7l-4.9,23.6l-53.7,34.2L161.6,87.1z M168.8,154.7l32.4,51l-54.8,34.8l-32.4-51L168.8,154.7z M51,192.5
	c-6.6-10.4-3.5-24.2,6.9-30.8c5-3.2,11-4.2,16.8-3l48.5,10.8l-53.8,33.7l-4.4-1C59.2,201,54.1,197.5,51,192.5z M40.2,308.1
	l-19.4-30.6c-7.2-11.3-3.8-26.3,7.4-33.5l75.7-48.1l32.4,51L40.2,308.1z M156.6,484.2H98.9c-13.4,0-24.2-10.9-24.2-24.2V303.5h81.9
	L156.6,484.2z M232.8,484.2h-64.3V303.5h64.3V484.2z M346.7,460c0,13.4-10.9,24.2-24.2,24.2h-77.7V303.5h101.9V460z"/>
<path d="M419.8,237l2.9-16.7c0.6-3.3-1.6-6.4-4.9-6.9c-1.3-0.2-2.6,0-3.8,0.6l-15,7.9l-15-7.9c-2.9-1.5-6.6-0.4-8.1,2.5
	c-0.6,1.2-0.8,2.5-0.6,3.8l2.9,16.7l-12.2,11.9c-2.4,2.3-2.4,6.1-0.1,8.5c0.9,0.9,2.1,1.6,3.4,1.8l16.8,2.4l7.5,15.2
	c1.5,3,5.1,4.2,8,2.7c1.2-0.6,2.1-1.5,2.7-2.7l7.5-15.2l16.8-2.4c3.3-0.5,5.6-3.5,5.1-6.8c-0.2-1.3-0.8-2.5-1.8-3.4L419.8,237z
	 M407,250.1c-2,0.3-3.6,1.5-4.5,3.3l-3.5,7.2l-3.5-7.2c-0.9-1.8-2.6-3-4.5-3.3l-7.9-1.1l5.7-5.6c1.4-1.4,2.1-3.4,1.7-5.3l-1.3-7.9
	l7.1,3.7c1.7,0.9,3.8,0.9,5.6,0l7.1-3.7l-1.3,7.9c-0.3,1.9,0.3,3.9,1.7,5.3l5.7,5.6L407,250.1z"/>
<path d="M488.8,154.3l-16.5-4l-6.1-15.9c-1.2-3.1-4.6-4.6-7.7-3.5c-1.2,0.5-2.3,1.3-3,2.5l-8.9,14.5l-17,0.9c-3.3,0.2-5.9,3-5.7,6.3
	c0.1,1.3,0.6,2.6,1.4,3.6l11,12.9l-4.4,16.4c-0.9,3.2,1,6.5,4.2,7.4c1.3,0.3,2.6,0.3,3.8-0.2l15.7-6.5l14.2,9.3
	c2.8,1.8,6.5,1,8.3-1.7c0.7-1.1,1.1-2.4,1-3.7l-1.3-16.9l13.2-10.7c2.6-2.1,3-5.9,0.9-8.4C491.3,155.3,490.1,154.6,488.8,154.3
	L488.8,154.3z M468,168.1c-1.5,1.2-2.4,3.2-2.2,5.1l0.6,8l-6.7-4.4c-1.7-1.1-3.7-1.3-5.6-0.5l-7.4,3l2.1-7.7
	c0.5-1.9,0.1-3.9-1.2-5.4l-5.2-6.1l8-0.4c2-0.1,3.8-1.2,4.8-2.8l4.2-6.8l2.8,7.5c0.7,1.8,2.3,3.2,4.2,3.7l7.8,1.9L468,168.1z"/>
<path d="M400.6,56.8l-4.4,16.4c-0.9,3.2,1,6.5,4.2,7.4c1.3,0.3,2.6,0.3,3.8-0.2l15.7-6.5l14.2,9.3c2.8,1.8,6.5,1,8.3-1.7
	c0.7-1.1,1.1-2.4,1-3.7l-1.3-16.9L455.4,50c2.6-2.1,3-5.9,0.9-8.4c-0.8-1-2-1.8-3.3-2.1l-16.5-4l-6-15.9c-1.2-3.1-4.6-4.6-7.7-3.5
	c-1.2,0.5-2.3,1.3-3,2.5l-8.9,14.5l-17,0.9c-3.3,0.2-5.9,3-5.7,6.3c0.1,1.3,0.6,2.6,1.4,3.6L400.6,56.8z M414.6,44.9
	c2-0.1,3.8-1.2,4.8-2.8l4.2-6.8l2.8,7.5c0.7,1.8,2.3,3.2,4.2,3.7l7.8,1.9l-6.2,5c-1.5,1.2-2.4,3.2-2.2,5.1l0.6,8l-6.7-4.4
	c-1.7-1.1-3.7-1.3-5.6-0.5l-7.4,3l2.1-7.7c0.5-1.9,0.1-3.9-1.2-5.5l-5.2-6.1L414.6,44.9z"/>
<path d="M291.7,237.8c-13.5,8.5-20.2,18.9-20.4,19.3c-1.8,2.8-0.9,6.5,1.9,8.3c2.8,1.8,6.5,0.9,8.3-1.9c0.9-1.4,22.6-34.2,69.9-22.5
	c3.2,0.8,6.5-1.2,7.2-4.5c0.8-3.2-1.2-6.4-4.3-7.2C325.1,222.2,304.2,230,291.7,237.8L291.7,237.8z"/>
<path d="M405.6,174.3c3.1,1.3,6.6-0.2,7.8-3.2c1.3-3.1-0.2-6.6-3.2-7.8c-42.7-17.7-73.8-4.5-92.3,9.8c-12.3,9.6-22.5,21.6-29.9,35.2
	c-1.5,3-0.3,6.6,2.7,8c3,1.5,6.6,0.3,8-2.7c6.6-12,15.6-22.6,26.4-31.1C348.5,164.6,375.6,161.8,405.6,174.3L405.6,174.3z"/>
<path d="M338.2,129.8c-1,3.2,0.7,6.5,3.9,7.6c8.3,2.4,16.8,3.7,25.4,3.7c10,0,21.6-1.8,32-8c13.6-8.1,22.3-21.8,25.9-40.8
	c0.6-3.3-1.5-6.4-4.7-7s-6.4,1.5-7,4.7c0,0,0,0,0,0c-2.9,15.5-9.7,26.5-20.2,32.7c-19.9,11.9-47.3,3.4-47.7,3.2
	C342.6,125,339.2,126.7,338.2,129.8L338.2,129.8z"/>
<path d="M258.9,284.9c6,0,10.8-4.8,10.8-10.8s-4.8-10.8-10.8-10.8s-10.8,4.8-10.8,10.8c0,0,0,0,0,0
	C248.1,280,252.9,284.9,258.9,284.9z M258.9,272.9c0.7,0,1.2,0.5,1.2,1.2c0,0.7-0.5,1.2-1.2,1.2c-0.7,0-1.2-0.5-1.2-1.2c0,0,0,0,0,0
	C257.7,273.4,258.2,272.9,258.9,272.9z"/>
<path d="M343.9,88.9c6,0,10.8-4.8,10.8-10.8s-4.8-10.8-10.8-10.8s-10.8,4.8-10.8,10.8C333.1,84,337.9,88.9,343.9,88.9z M343.9,76.9
	c0.7,0,1.2,0.5,1.2,1.2c0,0.7-0.5,1.2-1.2,1.2c-0.7,0-1.2-0.5-1.2-1.2c0,0,0,0,0,0C342.7,77.4,343.2,76.9,343.9,76.9z"/>
<path d="M496.2,80.6c-6,0-10.8,4.8-10.8,10.8s4.8,10.8,10.8,10.8S507,97.4,507,91.4c0,0,0,0,0,0C507,85.5,502.2,80.6,496.2,80.6z
	 M496.2,92.6c-0.7,0-1.2-0.5-1.2-1.2c0-0.7,0.5-1.2,1.2-1.2c0.7,0,1.2,0.5,1.2,1.2C497.4,92.1,496.9,92.6,496.2,92.6z"/>
<path d="M254.4,224c0-6-4.8-10.8-10.8-10.8s-10.8,4.8-10.8,10.8s4.8,10.8,10.8,10.8c0,0,0,0,0,0C249.6,234.8,254.4,230,254.4,224z
	 M243.6,225.2c-0.7,0-1.2-0.5-1.2-1.2c0-0.7,0.5-1.2,1.2-1.2c0.7,0,1.2,0.5,1.2,1.2C244.8,224.7,244.3,225.2,243.6,225.2
	L243.6,225.2z"/>
<path d="M478.4,230.8c-6,0-10.8,4.8-10.8,10.8s4.8,10.8,10.8,10.8s10.8-4.8,10.8-10.8C489.2,235.7,484.4,230.8,478.4,230.8z
	 M478.4,242.8c-0.7,0-1.2-0.5-1.2-1.2s0.5-1.2,1.2-1.2c0.7,0,1.2,0.5,1.2,1.2C479.6,242.3,479.1,242.8,478.4,242.8z"/>
</svg>
