<svg width="0" height="0" class="hidden">
  <symbol xmlns="http://www.w3.org/2000/svg" viewBox="0 0 477.2 477.2" id="arrow-right">
    <path d="M360.7 229.1L135.6 4c-5.3-5.3-13.8-5.3-19.1 0s-5.3 13.8 0 19.1L332 238.6 116.5 454.1c-5.3 5.3-5.3 13.8 0 19.1 2.6 2.6 6.1 4 9.5 4 3.4 0 6.9-1.3 9.5-4l225.1-225.1c5.3-5.2 5.3-13.8.1-19z"></path>
  </symbol>
  <symbol xmlns="http://www.w3.org/2000/svg" viewBox="0 0 457.2 457.2" id="box">
    <path d="M454.7 133.6L366.2 57c-2.4-2.1-5.9-2.4-8.7-.8l-18.4 10.6-7.1-4.1 10.9-6.3c2.5-1.5 4-4.3 3.7-7.2s-2.2-5.4-5-6.4L231.1 4.5c-2.2-.8-4.6-.4-6.4.7 0 0-221.4 127.8-221.6 128-1 .7-1.8 1.7-2.3 2.9-.5 1.1-.7 2.2-.7 3.3v178.4c0 2.7 1.4 5.2 3.7 6.5l221.1 127.8c1.2.7 2.5 1 3.8 1 1.3 0 2.6-.3 3.8-1l221.1-127.7c2.3-1.3 3.8-3.8 3.8-6.5V139.4c-.1-2.2-1.1-4.3-2.7-5.8zM324.2 75.4L136.4 183.8c-2.1 1.2-3.5 3.4-3.7 5.8-.2 2.4.7 4.8 2.6 6.4l29 25.1-84.9-49 36.2 12.6c2.1.7 4.3.5 6.2-.6L317.1 71.3l7.1 4.1zm-94.8-55.6l91.8 31.8-203.9 117.8-91.8-31.8L229.4 19.8zm-8.3 412.8L15 313.6V152.3l206.1 119v161.3zm8.4-174.8L153 191.6 360.4 71.8l76.5 66.2-207.4 119.8zm212.7 55.9l-206.1 119V271.3l206.1-119v161.4z"></path>
  </symbol>
  <symbol xmlns="http://www.w3.org/2000/svg" viewBox="0 0 512 512" id="calendar">
    <path d="M456 64h-40V48c0-17.7-14.3-32-32-32s-32 14.3-32 32v16h-64V48c0-17.7-14.3-32-32-32s-32 14.3-32 32v16h-64V48c0-17.7-14.3-32-32-32S96 30.3 96 48v16H56c-22.1 0-40 17.9-40 40v320c0 22.1 17.9 40 40 40h224c4.4 0 8-3.6 8-8s-3.6-8-8-8H56c-13.2 0-24-10.8-24-24V176h448v136c0 4.4 3.6 8 8 8s8-3.6 8-8V104c0-22.1-17.9-40-40-40zm-88-16c0-8.8 7.2-16 16-16s16 7.2 16 16v48c0 8.8-7.2 16-16 16s-16-7.2-16-16V48zm-128 0c0-8.8 7.2-16 16-16s16 7.2 16 16v48c0 8.8-7.2 16-16 16s-16-7.2-16-16V48zm-128 0c0-8.8 7.2-16 16-16s16 7.2 16 16v48c0 8.8-7.2 16-16 16s-16-7.2-16-16V48zm368 112H32v-56c0-13.2 10.8-24 24-24h40v16c0 17.7 14.3 32 32 32s32-14.3 32-32V80h64v16c0 17.7 14.3 32 32 32s32-14.3 32-32V80h64v16c0 17.7 14.3 32 32 32s32-14.3 32-32V80h40c13.2 0 24 10.8 24 24v56z"></path>
    <path d="M240 232c0-8.8-7.2-16-16-16h-32c-8.8 0-16 7.2-16 16v24c0 8.8 7.2 16 16 16h32c8.8 0 16-7.2 16-16v-24zm-48 24v-24h32v24h-32zm-48-24c0-8.8-7.2-16-16-16H96c-8.8 0-16 7.2-16 16v24c0 8.8 7.2 16 16 16h32c8.8 0 16-7.2 16-16v-24zm-48 24v-24h32v24H96zm320 16c8.8 0 16-7.2 16-16v-24c0-8.8-7.2-16-16-16h-32c-8.8 0-16 7.2-16 16v24c0 8.8 7.2 16 16 16h32zm-32-40h32v24h-32v-24zm-144 72c0-8.8-7.2-16-16-16h-32c-8.8 0-16 7.2-16 16v24c0 8.8 7.2 16 16 16h32c8.8 0 16-7.2 16-16v-24zm-48 24v-24h32v24h-32zm-48-24c0-8.8-7.2-16-16-16H96c-8.8 0-16 7.2-16 16v24c0 8.8 7.2 16 16 16h32c8.8 0 16-7.2 16-16v-24zm-48 24v-24h32v24H96zm128 32h-32c-8.8 0-16 7.2-16 16v24c0 8.8 7.2 16 16 16h32c8.8 0 16-7.2 16-16v-24c0-8.8-7.2-16-16-16zm-32 40v-24h32v24h-32zm96-128h32c8.8 0 16-7.2 16-16v-24c0-8.8-7.2-16-16-16h-32c-8.8 0-16 7.2-16 16v24c0 8.8 7.2 16 16 16zm0-40h32v24h-32v-24zm-16 96c0 8.8 7.2 16 16 16 4.4 0 8-3.6 8-8s-3.6-8-8-8v-24h32c4.4 0 8-3.6 8-8s-3.6-8-8-8h-32c-8.8 0-16 7.2-16 16v24zm-144 32H96c-8.8 0-16 7.2-16 16v24c0 8.8 7.2 16 16 16h32c8.8 0 16-7.2 16-16v-24c0-8.8-7.2-16-16-16zm-32 40v-24h32v24H96z"></path>
    <path d="M392 288c-57.4 0-104 46.6-104 104s46.6 104 104 104 104-46.6 104-104c-.1-57.4-46.6-103.9-104-104zm0 192c-48.6 0-88-39.4-88-88s39.4-88 88-88 88 39.4 88 88c-.1 48.6-39.4 87.9-88 88z"></path>
    <path d="M438.2 358.5L376 420.7l-28.3-28.3c-3.2-3.1-8.2-3-11.3.2-3 3.1-3 8 0 11.1l33.9 33.9c3.1 3.1 8.2 3.1 11.3 0l67.9-67.9c3.1-3.2 3-8.2-.2-11.3-3.1-2.9-8-2.9-11.1.1z"></path>
  </symbol>
  <symbol xmlns="http://www.w3.org/2000/svg" viewBox="0 0 512 512" id="certificate">
    <path d="M258.8 181.5h-192c-4.1 0-7.5 3.4-7.5 7.5s3.4 7.5 7.5 7.5h192c4.1 0 7.5-3.4 7.5-7.5s-3.4-7.5-7.5-7.5zm0 52.7h-192c-4.1 0-7.5 3.4-7.5 7.5s3.4 7.5 7.5 7.5h192c4.1 0 7.5-3.4 7.5-7.5s-3.4-7.5-7.5-7.5zm0 52.7h-192c-4.1 0-7.5 3.4-7.5 7.5s3.4 7.5 7.5 7.5h192c4.1 0 7.5-3.4 7.5-7.5s-3.4-7.5-7.5-7.5zm7.5 60.2c0-4.1-3.4-7.5-7.5-7.5h-192c-4.1 0-7.5 3.4-7.5 7.5s3.4 7.5 7.5 7.5h192c4.1 0 7.5-3.4 7.5-7.5zM66.8 416.8c-4.1 0-7.5 3.4-7.5 7.5s3.4 7.5 7.5 7.5H163c4.1 0 7.5-3.4 7.5-7.5s-3.4-7.5-7.5-7.5H66.8zM345.2 92.9V68.5c0-9.3-7.5-16.8-16.8-16.8h-154c-9.3 0-16.8 7.5-16.8 16.8v24.3c0 9.3 7.5 16.8 16.8 16.8h13c4.1 0 7.5-3.4 7.5-7.5s-3.4-7.5-7.5-7.5h-13c-1 0-1.8-.8-1.8-1.8V68.5c0-1 .8-1.8 1.8-1.8h154c1 0 1.8.8 1.8 1.8v24.3c0 1-.8 1.8-1.8 1.8H222.5c-4.1 0-7.5 3.4-7.5 7.5s3.4 7.5 7.5 7.5h105.9c9.3.1 16.8-7.5 16.8-16.7z"></path>
    <path d="M401.3 457.3c-4.1 0-7.5 3.4-7.5 7.5v10.1c0 12.2-9.9 22.1-22.1 22.1H39.9c-12.2 0-22.1-9.9-22.1-22.1V114.4c0-1.6.2-3.2.5-4.8h68.3c14.3 0 25.9-11.6 25.9-25.9V15.5c1.5-.3 3.1-.5 4.8-.5h254.4c12.2 0 22.1 9.9 22.1 22.1v99.8c0 4.1 3.4 7.5 7.5 7.5s7.5-3.4 7.5-7.5V37.1c0-20.5-16.6-37.1-37.1-37.1H117.2C107.3 0 98 3.9 91 10.9L13.7 88.2c-7 7-10.9 16.3-10.9 26.2v360.5c0 20.5 16.6 37.1 37.1 37.1h331.8c20.5 0 37.1-16.6 37.1-37.1v-10.1c0-4.1-3.4-7.5-7.5-7.5zM97.5 25.6v58.2c0 6-4.9 10.9-10.9 10.9H28.4l69.1-69.1z"></path>
    <path d="M504 268c5.3-7.7 6.6-17.3 3.7-26.1s-9.6-15.8-18.4-19c-5.8-2.1-9.7-7.5-9.9-13.7-.3-9.3-4.8-17.9-12.3-23.4-7.6-5.5-17.1-7.1-26-4.5-6 1.7-12.3-.3-16.1-5.2-5.7-7.4-14.4-11.6-23.7-11.6-9.3 0-18 4.2-23.7 11.6-3.8 4.9-10.1 7-16 5.2-9-2.6-18.5-1-26 4.5-7.6 5.5-12.1 14-12.3 23.4-.2 6.2-4.1 11.6-9.9 13.7-8.8 3.2-15.5 10.1-18.4 19-2.9 8.9-1.5 18.4 3.7 26.1 3.5 5.1 3.5 11.8 0 16.9-5.3 7.7-6.6 17.3-3.7 26.1 2.9 8.9 9.6 15.8 18.4 19 5.8 2.1 9.7 7.5 9.9 13.7.3 8.6 4.2 16.7 10.8 22.2 4.4 3.6 9.6 5.9 15.1 6.6v68.3c0 5.8 3.1 11.1 8.2 13.9 5 2.8 11.2 2.7 16.1-.3l27.5-16.9c.4-.3.7-.2 1 0l27.5 16.9c4.9 3 11.1 3.1 16.1.3 5-2.8 8.2-8.1 8.2-13.9v-68.3c5.5-.8 10.7-3 15.1-6.6 6.6-5.5 10.6-13.6 10.8-22.2.2-6.2 4.1-11.6 9.9-13.7 8.8-3.2 15.5-10.1 18.4-19 2.9-8.9 1.5-18.4-3.7-26.1-3.8-5.1-3.8-11.8-.3-16.9zm-66.9 173.5l-27.5-16.9c-5.1-3.1-11.6-3.2-16.7 0l-27.5 16.9c-.6.4-1.4-.1-1.4-.8V371c5.2-.6 10.3 1.5 13.5 5.7 5.7 7.4 14.4 11.6 23.7 11.6 9.3 0 18-4.2 23.7-11.6 3.3-4.2 8.4-6.3 13.5-5.7v69.7c.1.7-.7 1.2-1.3.8zm54.5-148.2c2.6 3.9 3.3 8.6 1.9 13.1s-4.8 7.9-9.2 9.5c-11.7 4.2-19.5 14.9-19.8 27.3-.1 4.4-2 8.3-5.4 11.1-3.8 3.1-8.9 4.3-13.8 2.9-11.9-3.5-24.5.6-32.1 10.4-2.9 3.7-7.2 5.8-11.9 5.8s-9-2.1-11.9-5.8c-5.8-7.5-14.5-11.7-23.6-11.7-2.8 0-5.7.4-8.5 1.2-5 1.4-10.1.2-13.8-2.9-3.3-2.8-5.3-6.7-5.4-11.1-.4-12.4-8.2-23.1-19.8-27.3-4.4-1.6-7.7-5-9.2-9.5-1.4-4.4-.8-9.2 1.9-13.1 7-10.3 7-23.5 0-33.8-2.6-3.9-3.3-8.6-1.9-13.1 1.4-4.4 4.8-7.9 9.2-9.5 11.7-4.2 19.5-14.9 19.8-27.3.1-4.7 2.4-8.9 6.2-11.7 3.8-2.7 8.5-3.6 13-2.3 11.9 3.5 24.5-.6 32.1-10.4 2.9-3.7 7.2-5.8 11.9-5.8s9 2.1 11.9 5.8c7.6 9.8 20.2 13.9 32.1 10.4 4.5-1.3 9.2-.5 13 2.3 3.8 2.7 6 7 6.2 11.7.4 12.4 8.2 23.1 19.8 27.3 4.4 1.6 7.7 5 9.2 9.5 1.4 4.4.8 9.2-1.9 13.1-7 10.4-7 23.7 0 33.9z"></path>
    <path d="M401.3 213.6c-34.7 0-62.9 28.2-62.9 62.9s28.2 62.9 62.9 62.9 62.9-28.2 62.9-62.9-28.3-62.9-62.9-62.9zm0 110.7c-26.4 0-47.9-21.5-47.9-47.9s21.5-47.9 47.9-47.9 47.9 21.5 47.9 47.9-21.5 47.9-47.9 47.9z"></path>
  </symbol>
  <symbol xmlns="http://www.w3.org/2000/svg" viewBox="0 0 512 512" id="cool">
    <path d="M500.7 160c-9.5-13.2-30.2-24.6-53.3-18.5-24.2 6.4-36.2 23.5-47.8 40-2.9 4.2-6 8.5-9.2 12.7-3.3 4.3-8.7 8.7-15.1 12.8v-73.4c0-27-21.9-49-48.8-49-11.7 0-22.5 4.2-30.9 11.1-6.1-20.1-24.7-34.7-46.7-34.7s-40.6 14.7-46.7 34.7c-8.4-6.9-19.2-11.1-30.9-11.1-20.6 0-38.3 13-45.4 31.2L84 27.7C73.6 5.9 51.7-4.8 31.9 2.1 11 9.4-.1 33.3 7.1 55.4l54.6 166.7v63.7c0 23.2 6.3 46 12.4 68.1 5 18.2 9.8 35.6 11.2 52.8h-2c-5.5 0-10 4.5-10 10V502c0 5.5 4.5 10 10 10h276.9c5.5 0 10-4.5 10-10v-85.4c0-5.5-4.5-10-10-10H358c2.8-43.2 24.6-60.1 49.6-79.5 21.7-16.8 46.4-35.9 60.1-73.8 10.5-29 21.2-42.9 29.1-53 2.3-3 4.5-5.9 6.4-8.7 6-9.2 5.1-21-2.5-31.6zm-174.3-55.5c15.9 0 28.8 13 28.8 29v83.9c-11.6 5-23.7 8.8-33.2 10.1-8.3 1.2-16.5 2.4-24.4 4v-98c0-15.9 12.9-29 28.8-29zM220 110c0-16 12.9-29 28.8-29s28.8 13 28.8 29v126.6c-11.5 3.6-22.2 8.5-31.5 15.6-6.3 4.8-11.8 10.5-16.3 17.1-6.1-5.5-9.8-13.4-9.8-21.7V110zm-77.6 23.6c0-16 12.9-29 28.8-29s28.8 13 28.8 29V224c0 16-12.9 29-28.8 29s-28.8-13-28.8-29v-90.4zm344 47.1c-1.4 2.2-3.3 4.6-5.5 7.4-8.1 10.5-20.5 26.5-32 58.4-11.8 32.5-33 48.9-53.6 64.8-26.8 20.7-54.5 42.1-57.4 95.3h-71.3c-5.5 0-10 4.5-10 10s4.5 10 10 10H350V492H93.2v-65.4h83.4c5.5 0 10-4.5 10-10s-4.5-10-10-10h-71.4c-1.4-19.7-6.8-39.2-12-58.1-6-21.8-11.6-42.3-11.6-62.8v-65.3c0-1.1-.2-2.1-.5-3.1l-55-168.1C22.2 37.4 27.8 24.7 38.5 21c11.9-4.1 22.5 5 27.4 15.3l56.5 119.1V224c0 27 21.9 49 48.8 49 11.7 0 22.5-4.2 30.9-11.1 3.1 10.2 9.5 19.1 18.1 25.4-5.8 14.8-8.6 32.6-8.6 53.8 0 5.5 4.5 10 10 10s10-4.5 10-10c0-35.9 8.4-59.1 26.6-73 16.7-12.8 41-17.1 66.5-20.7 22.8-3.2 65-19.7 81.4-41 3.5-4.6 6.7-9.1 9.8-13.5 10.8-15.4 19.4-27.6 36.5-32.1 13.4-3.5 26.2 2.8 32 10.8 1 1.4 4 6.1 2 9.1z"></path>
    <path d="M221.7 406.6c-5.5 0-10 4.5-10 10s4.5 10 10 10 10-4.5 10-10-4.5-10-10-10z"></path>
  </symbol>
  <symbol xmlns="http://www.w3.org/2000/svg" viewBox="0 0 512 512" id="heart">
    <path d="M256 483.5c-7.3 0-14.3-2.6-19.8-7.4C215.5 458 195.6 441 178 426l-.1-.1C126.3 382 81.8 344 50.8 306.6 16.1 264.8 0 225.2 0 181.9 0 139.8 14.4 101 40.6 72.6 67.1 43.8 103.5 28 143 28c29.6 0 56.6 9.3 80.4 27.8 12 9.3 22.9 20.7 32.5 34 9.6-13.3 20.5-24.7 32.5-34 24-18.5 51-27.8 80.6-27.8 39.5 0 75.9 15.8 102.4 44.6C497.6 101 512 139.8 512 181.9c0 43.3-16.1 82.9-50.8 124.7-31 37.4-75.5 75.4-127.1 119.3-17.6 15-37.6 32-58.3 50.2-5.5 4.8-12.5 7.4-19.8 7.4zM143 58c-31 0-59.6 12.4-80.3 34.9-21.1 22.9-32.7 54.4-32.7 89 0 36.4 13.5 69 43.9 105.6 29.3 35.4 73 72.6 123.5 115.6l.1.1c17.7 15.1 37.7 32.1 58.5 50.3 21-18.3 41-35.3 58.7-50.4 50.5-43.1 94.1-80.2 123.5-115.6 30.3-36.6 43.9-69.2 43.9-105.6 0-34.5-11.6-66.1-32.7-89C428.6 70.4 400 58 369 58c-22.8 0-43.7 7.2-62.1 21.5-16.4 12.7-27.9 28.8-34.6 40-3.5 5.8-9.5 9.2-16.3 9.2s-12.8-3.5-16.3-9.2c-6.7-11.2-18.2-27.3-34.6-40C186.7 65.2 165.8 58 143 58z"></path>
  </symbol>
  <symbol xmlns="http://www.w3.org/2000/svg" viewBox="0 0 512 512" id="family">
    <path d="M157.9 185.9c-3.2-2.6-7.9-2.1-10.5 1.1-3 3.7-7 5.8-11.3 5.8s-8.3-2.1-11.3-5.8c-2.6-3.2-7.3-3.7-10.5-1.1s-3.7 7.3-1.1 10.5c5.8 7.2 14.2 11.3 23 11.3s17.1-4.1 23-11.3c2.4-3.2 1.9-7.9-1.3-10.5zm-56.1-44.5c-4.1 0-7.5 3.4-7.5 7.5v8.6c0 4.1 3.4 7.5 7.5 7.5s7.5-3.4 7.5-7.5v-8.6c0-4.2-3.4-7.5-7.5-7.5zm68.5 0c-4.1 0-7.5 3.4-7.5 7.5v8.6c0 4.1 3.4 7.5 7.5 7.5s7.5-3.4 7.5-7.5v-8.6c0-4.2-3.3-7.5-7.5-7.5zm236.1 87.4c-3.2-2.6-7.9-2.1-10.5 1.1-3 3.7-7 5.8-11.3 5.8-4.3 0-8.3-2.1-11.3-5.8-2.6-3.2-7.3-3.7-10.5-1.1s-3.7 7.3-1.1 10.5c5.8 7.2 14.2 11.3 23 11.3s17.1-4.1 23-11.3c2.4-3.2 1.9-7.9-1.3-10.5zm-56.1-44.6c-4.1 0-7.5 3.4-7.5 7.5v8.6c0 4.1 3.4 7.5 7.5 7.5s7.5-3.4 7.5-7.5v-8.6c0-4.1-3.4-7.5-7.5-7.5zm68.5 0c-4.1 0-7.5 3.4-7.5 7.5v8.6c0 4.1 3.4 7.5 7.5 7.5s7.5-3.4 7.5-7.5v-8.6c0-4.1-3.3-7.5-7.5-7.5z"></path>
    <path d="M491.1 332.5L432.4 309c-.3-.1-.6-.3-.9-.4 40.6-9.2 59.8-24.7 60.7-25.4 2-1.7 3-4.3 2.7-6.9-.1-.6-8.5-60.1-8.5-118.9 0-56.1-45.6-101.8-101.8-101.8s-101.8 45.6-101.8 101.8c0 15.4-.7 34.2-1.8 52l-16.4 8.2-48.1-24c-.1-.1-.3-.1-.4-.2 2.3-6.7 3.8-13.7 4.3-21 10.1-3.1 17.4-12.5 17.4-23.5 0-7.4-3.3-14.1-8.6-18.7V80.3c0-13.8-7-26.7-18.4-34.4-3.9-14.4-16.8-24.5-32-24.5h-68.6c-37.2 0-67.5 30.3-67.5 67.5v41.3c-5.2 4.5-8.6 11.2-8.6 18.7 0 11.1 7.3 20.4 17.4 23.5 1.9 25.2 14.9 47.3 34 61.5v20.7l-62 18.6C9.5 277.6 0 290.3 0 305.1v83.7c0 4.1 3.4 7.5 7.5 7.5h1.1v86.8c0 4.1 3.4 7.5 7.5 7.5s7.5-3.4 7.5-7.5v-86.8h27.8v86.8c0 4.1 3.4 7.5 7.5 7.5s7.5-3.4 7.5-7.5V353.8c0-6.6-1.9-12.9-5.6-18.4L48 316.1c-2.3-3.4-7-4.4-10.4-2.1-3.4 2.3-4.4 7-2.1 10.4l12.8 19.2c2 3 3.1 6.5 3.1 10.1v27.6H15v-76.2c0-8.1 5.2-15.1 13-17.4l25.7-7.7c9 37.5 43 64.9 82.3 64.9 14.1 0 27.8-3.5 40.1-10.1 4.5 6.1 11.7 10.1 19.9 10.1h1.1v1.1c0 25.1 13.8 47.1 34.3 58.7v12.2c0 .5-.3.9-.7 1l-28 9.3c-13.6 4.5-22.7 17.2-22.7 31.5V483c0 4.1 3.4 7.5 7.5 7.5s7.5-3.4 7.5-7.5v-24.3c0-7.8 5-14.8 12.4-17.3l8.2-2.7c10.9 16.2 29.2 26.1 48.9 26.1 19.8 0 38.1-9.9 48.9-26.1l8.2 2.7c7.4 2.5 12.4 9.4 12.4 17.3V483c0 4.1 3.4 7.5 7.5 7.5s7.5-3.4 7.5-7.5v-24.3c0-14.3-9.1-27-22.7-31.5l-28-9.3c-.4-.1-.7-.6-.7-1v-12.2c15.3-8.7 26.9-23.2 31.8-40.5 14.2 14.8 34 23.5 55 23.5 33.2 0 62.4-21.5 72.4-52.7l28.6 11.5c7 2.8 11.4 9.4 11.4 16.9v35.1h-27.9v-9.6c0-4.1-3.4-7.5-7.5-7.5s-7.5 3.4-7.5 7.5v94.3c0 4.1 3.4 7.5 7.5 7.5s7.5-3.4 7.5-7.5v-69.6h19.3v69.6c0 4.1 3.4 7.5 7.5 7.5s7.5-3.4 7.5-7.5v-69.6h1.1c2 0 3.9-.8 5.3-2.2 1.4-1.4 2.2-3.3 2.2-5.3v-42.6c.2-13.8-8-25.9-20.7-31zm-193.3-175c0-47.8 38.9-86.8 86.8-86.8s86.8 38.9 86.8 86.8c0 50.4 6.1 101.3 8 116.5-6.7 4.4-23.9 14.1-53 20.4v-11.9c4-2.3 7.8-4.8 11.4-7.7 14.8-11.9 25.2-28.6 29.4-47 1.4-6.1 2.1-12.5 2.1-18.8 0-42.4-30.7-48.5-60.3-54.4-18.9-3.7-38.4-7.6-53.9-20-2.3-1.8-5.3-2.2-7.9-.9s-4.3 3.9-4.3 6.8c0 .2-.3 19.9-28.6 27-4 1-6.5 5.1-5.5 9.1s5.1 6.5 9.1 5.5c23.7-5.9 33.3-19.2 37.2-29.2 16.3 9.6 34.5 13.3 50.9 16.5 31.7 6.3 48.2 10.9 48.2 39.6 0 5.2-.6 10.4-1.7 15.5-3.4 15.1-12 28.9-24.2 38.7-12.5 10.1-27.6 15.4-43.7 15.4-14.7 0-28.7-4.5-40.5-13-4.3-11.9-11.3-22.7-20.5-31.6v-33.5c0-2.6-1.3-5-3.6-6.4s-5-1.5-7.3-.3l-16.2 8.1c.8-15.8 1.3-30.7 1.3-44.4zm10.7 54.9v27.1L281.3 226l27.2-13.6zm-87.8 0l27.1 13.6-27.1 13.6v-27.2zm-40.8 82.2v7.1c-5.4 4.6-8.6 11.4-8.6 18.6-10.7 6.3-22.8 9.6-35.3 9.6-32.6 0-60.8-23-67.9-54.3l18.5-5.6c4.6 23.1 25 40.6 49.4 40.6 19.4 0 36.2-11 44.6-27.1-.4 3.7-.7 7.3-.7 11.1zm-79.2-34.3v-17.4c10.8 5 22.7 7.7 35.3 7.7 12.6 0 24.6-2.8 35.3-7.7v17.4c0 19.5-15.9 35.3-35.3 35.3-19.5 0-35.3-15.8-35.3-35.2v-.1zm35.3-24.7c-38.4 0-69.6-31.2-69.6-69.6 0-4.1-3.4-7.5-7.5-7.5-5.3 0-9.6-4.3-9.6-9.6s4.3-9.6 9.6-9.6H76c3.2 0 6.1-2.1 7.1-5.1l6.9-20.7c17.2-.4 70.7-2.8 100.8-17.9 3.7-1.9 5.2-6.4 3.4-10.1-1.9-3.7-6.4-5.2-10.1-3.4-32.3 16.1-98.8 16.3-99.5 16.3-3.2 0-6.1 2.1-7.1 5.1l-6.9 20.6H57.8V88.9c0-28.9 23.5-52.5 52.5-52.5h68.6c9 0 16.5 6.5 17.9 15.3.4 2.3 1.7 4.2 3.7 5.4 8.5 4.8 13.7 13.7 13.7 23.2v43.9h-9.7c-4.1 0-7.5 3.4-7.5 7.5s3.4 7.5 7.5 7.5h8.6c5.3 0 9.6 4.3 9.6 9.6s-4.3 9.6-9.6 9.6c-4.1 0-7.5 3.4-7.5 7.5.1 38.5-31.2 69.7-69.6 69.7zm50.4 24.7V234c7.5-5.5 14-12.3 19.3-19.9v19.8c-8.4 8.2-14.9 17.9-19.3 28.5v-2.1zm112.1 173.5c-8.3 10.1-20.7 16.1-34 16.1s-25.7-6-34-16.1l4.8-1.6c6.6-2.2 11-8.3 11-15.2v-6c5.8 1.6 11.9 2.5 18.2 2.5s12.4-.9 18.2-2.5v6c0 6.9 4.4 13.1 11 15.2l4.8 1.6zm26.1-103.9c-4.1 0-7.5 3.4-7.5 7.5v8.6c0 28.9-23.5 52.5-52.5 52.5S212.1 375 212.1 346v-8.6c0-4.1-3.4-7.5-7.5-7.5H196c-5.3 0-9.6-4.3-9.6-9.6 0-3.4 1.8-6.5 4.8-8.3.7-.4 1.3-.9 1.8-1.5 18.5-.5 78.6-4 118.1-26.6 3.6-2.1 4.8-6.6 2.8-10.2a7.52 7.52 0 00-10.2-2.8c-34.6 19.8-89 23.7-108.7 24.5v-.9c0-13.9 4.2-27.5 11.9-38.8.6.9 1.4 1.8 2.4 2.4 1.2.7 2.6 1.1 3.9 1.1 1.1 0 2.3-.3 3.4-.8l48.1-24 48.1 24c1.1.5 2.2.8 3.4.8 1.4 0 2.7-.4 3.9-1.1 1-.6 1.8-1.4 2.4-2.4 7.7 11.4 11.9 24.9 11.9 38.8v10.9c0 2.7 1.4 5.1 3.7 6.5 3 1.8 4.8 4.9 4.8 8.3 0 5.3-4.3 9.6-9.6 9.6h-8.7zm59.9 42.8c-20.8 0-40-10.6-51.2-27.8 13.5-.1 24.5-11.1 24.5-24.6 0-7.2-3.2-13.9-8.6-18.6v-7.1c0-3-.2-6-.5-9 11.1 5.2 23.3 7.9 35.8 7.9 9.1 0 18.2-1.5 26.8-4.4v11c0 10.1 6.1 19.1 15.5 22.9l16.2 6.5c-7.8 25.6-31.5 43.2-58.5 43.2z"></path>
    <path d="M286.4 357.3c-3.2-2.6-7.9-2.1-10.5 1.1-3 3.7-7 5.8-11.3 5.8-4.3 0-8.3-2.1-11.3-5.8-2.6-3.2-7.3-3.7-10.5-1.1s-3.7 7.3-1.1 10.5c5.8 7.2 14.2 11.3 23 11.3s17.1-4.1 23-11.3c2.4-3.2 1.9-7.9-1.3-10.5z"></path>
    <circle cx="239" cy="328.9" r="7.5"></circle>
    <circle cx="290" cy="328.9" r="7.5"></circle>
  </symbol>
  <symbol xmlns="http://www.w3.org/2000/svg" viewBox="0 0 512 512" id="gift-box">
    <path d="M352.7 291.5h-264l228.6-145.3c2.8-1.8 3.6-5.5 1.8-8.3l-22.6-35.6c-10.8-16.9-33.1-21.9-50-11.1l-32.2 20.5 2.5-12.2C221 81 209.4 62.6 191 58.4s-36.9 7.4-41.1 25.8c0 .1-.1.2-.1.3l-16.7 75.1-56-12.5c-18.5-4.1-36.8 7.5-41 26-3.6 16.1 4.8 32.5 20 39L21.8 234C4.9 244.8-.1 267.1 10.7 284l22.6 35.6c1.8 2.8 5.5 3.6 8.3 1.8L62.7 308v152c0 20 16.2 36.2 36.2 36.2h223.6c20 0 36.2-16.2 36.2-36.2V297.5c0-3.3-2.6-6-6-6zM253 101.2c3.9-2.5 8.4-3.8 13-3.8 1.8 0 3.6.2 5.3.6 6.3 1.4 11.8 5.2 15.2 10.7l19.4 30.6-94.5 60.1-32.4-51 74-47.2zm-91.4-14.1c2.7-12 14.6-19.6 26.7-16.9 12 2.7 19.6 14.6 16.9 26.7l-4.9 23.6-53.7 34.2 15-67.6zm7.2 67.6l32.4 51-54.8 34.8-32.4-51 54.8-34.8zM51 192.5c-6.6-10.4-3.5-24.2 6.9-30.8 5-3.2 11-4.2 16.8-3l48.5 10.8-53.8 33.7-4.4-1c-5.8-1.2-10.9-4.7-14-9.7zM40.2 308.1l-19.4-30.6c-7.2-11.3-3.8-26.3 7.4-33.5l75.7-48.1 32.4 51-96.1 61.2zm116.4 176.1H98.9c-13.4 0-24.2-10.9-24.2-24.2V303.5h81.9v180.7zm76.2 0h-64.3V303.5h64.3v180.7zM346.7 460c0 13.4-10.9 24.2-24.2 24.2h-77.7V303.5h101.9V460zm73.1-223l2.9-16.7c.6-3.3-1.6-6.4-4.9-6.9-1.3-.2-2.6 0-3.8.6l-15 7.9-15-7.9c-2.9-1.5-6.6-.4-8.1 2.5-.6 1.2-.8 2.5-.6 3.8l2.9 16.7-12.2 11.9c-2.4 2.3-2.4 6.1-.1 8.5.9.9 2.1 1.6 3.4 1.8l16.8 2.4 7.5 15.2c1.5 3 5.1 4.2 8 2.7 1.2-.6 2.1-1.5 2.7-2.7l7.5-15.2 16.8-2.4c3.3-.5 5.6-3.5 5.1-6.8-.2-1.3-.8-2.5-1.8-3.4l-12.1-12zM407 250.1c-2 .3-3.6 1.5-4.5 3.3l-3.5 7.2-3.5-7.2c-.9-1.8-2.6-3-4.5-3.3l-7.9-1.1 5.7-5.6c1.4-1.4 2.1-3.4 1.7-5.3l-1.3-7.9 7.1 3.7c1.7.9 3.8.9 5.6 0l7.1-3.7-1.3 7.9c-.3 1.9.3 3.9 1.7 5.3l5.7 5.6-8.1 1.1zm81.8-95.8l-16.5-4-6.1-15.9c-1.2-3.1-4.6-4.6-7.7-3.5-1.2.5-2.3 1.3-3 2.5l-8.9 14.5-17 .9c-3.3.2-5.9 3-5.7 6.3.1 1.3.6 2.6 1.4 3.6l11 12.9-4.4 16.4c-.9 3.2 1 6.5 4.2 7.4 1.3.3 2.6.3 3.8-.2l15.7-6.5 14.2 9.3c2.8 1.8 6.5 1 8.3-1.7.7-1.1 1.1-2.4 1-3.7l-1.3-16.9L491 165c2.6-2.1 3-5.9.9-8.4-.6-1.3-1.8-2-3.1-2.3zM468 168.1c-1.5 1.2-2.4 3.2-2.2 5.1l.6 8-6.7-4.4c-1.7-1.1-3.7-1.3-5.6-.5l-7.4 3 2.1-7.7c.5-1.9.1-3.9-1.2-5.4l-5.2-6.1 8-.4c2-.1 3.8-1.2 4.8-2.8l4.2-6.8 2.8 7.5c.7 1.8 2.3 3.2 4.2 3.7l7.8 1.9-6.2 4.9zM400.6 56.8l-4.4 16.4c-.9 3.2 1 6.5 4.2 7.4 1.3.3 2.6.3 3.8-.2l15.7-6.5 14.2 9.3c2.8 1.8 6.5 1 8.3-1.7.7-1.1 1.1-2.4 1-3.7l-1.3-16.9L455.4 50c2.6-2.1 3-5.9.9-8.4-.8-1-2-1.8-3.3-2.1l-16.5-4-6-15.9c-1.2-3.1-4.6-4.6-7.7-3.5-1.2.5-2.3 1.3-3 2.5l-8.9 14.5-17 .9c-3.3.2-5.9 3-5.7 6.3.1 1.3.6 2.6 1.4 3.6l11 12.9zm14-11.9c2-.1 3.8-1.2 4.8-2.8l4.2-6.8 2.8 7.5c.7 1.8 2.3 3.2 4.2 3.7l7.8 1.9-6.2 5c-1.5 1.2-2.4 3.2-2.2 5.1l.6 8-6.7-4.4c-1.7-1.1-3.7-1.3-5.6-.5l-7.4 3 2.1-7.7c.5-1.9.1-3.9-1.2-5.5l-5.2-6.1 8-.4z"></path>
    <path d="M291.7 237.8c-13.5 8.5-20.2 18.9-20.4 19.3-1.8 2.8-.9 6.5 1.9 8.3 2.8 1.8 6.5.9 8.3-1.9.9-1.4 22.6-34.2 69.9-22.5 3.2.8 6.5-1.2 7.2-4.5.8-3.2-1.2-6.4-4.3-7.2-29.2-7.1-50.1.7-62.6 8.5zm113.9-63.5c3.1 1.3 6.6-.2 7.8-3.2 1.3-3.1-.2-6.6-3.2-7.8-42.7-17.7-73.8-4.5-92.3 9.8-12.3 9.6-22.5 21.6-29.9 35.2-1.5 3-.3 6.6 2.7 8 3 1.5 6.6.3 8-2.7 6.6-12 15.6-22.6 26.4-31.1 23.4-17.9 50.5-20.7 80.5-8.2zm-67.4-44.5c-1 3.2.7 6.5 3.9 7.6 8.3 2.4 16.8 3.7 25.4 3.7 10 0 21.6-1.8 32-8 13.6-8.1 22.3-21.8 25.9-40.8.6-3.3-1.5-6.4-4.7-7s-6.4 1.5-7 4.7c-2.9 15.5-9.7 26.5-20.2 32.7-19.9 11.9-47.3 3.4-47.7 3.2-3.2-.9-6.6.8-7.6 3.9zm-79.3 155.1c6 0 10.8-4.8 10.8-10.8s-4.8-10.8-10.8-10.8-10.8 4.8-10.8 10.8c0 5.9 4.8 10.8 10.8 10.8zm0-12c.7 0 1.2.5 1.2 1.2s-.5 1.2-1.2 1.2-1.2-.5-1.2-1.2.5-1.2 1.2-1.2zm85-184c6 0 10.8-4.8 10.8-10.8s-4.8-10.8-10.8-10.8-10.8 4.8-10.8 10.8c0 5.9 4.8 10.8 10.8 10.8zm0-12c.7 0 1.2.5 1.2 1.2s-.5 1.2-1.2 1.2-1.2-.5-1.2-1.2.5-1.2 1.2-1.2zm152.3 3.7c-6 0-10.8 4.8-10.8 10.8s4.8 10.8 10.8 10.8S507 97.4 507 91.4c0-5.9-4.8-10.8-10.8-10.8zm0 12c-.7 0-1.2-.5-1.2-1.2s.5-1.2 1.2-1.2 1.2.5 1.2 1.2-.5 1.2-1.2 1.2zM254.4 224c0-6-4.8-10.8-10.8-10.8s-10.8 4.8-10.8 10.8 4.8 10.8 10.8 10.8c6 0 10.8-4.8 10.8-10.8zm-10.8 1.2c-.7 0-1.2-.5-1.2-1.2s.5-1.2 1.2-1.2 1.2.5 1.2 1.2-.5 1.2-1.2 1.2zm234.8 5.6c-6 0-10.8 4.8-10.8 10.8s4.8 10.8 10.8 10.8 10.8-4.8 10.8-10.8c0-5.9-4.8-10.8-10.8-10.8zm0 12c-.7 0-1.2-.5-1.2-1.2s.5-1.2 1.2-1.2 1.2.5 1.2 1.2-.5 1.2-1.2 1.2z"></path>
  </symbol>
  <symbol xmlns="http://www.w3.org/2000/svg" viewBox="0 0 512 512" id="emoticons">
    <path d="M41.3 216.8c10 0 10-15 0-15s-10 15 0 15zm83.4 45.8C55.9 262.6 0 318.5 0 387.3 0 453.7 58.3 512 124.7 512c68.7 0 124.7-55.9 124.7-124.7s-56-124.7-124.7-124.7zm0 234.3c-27.6 0-55.5-12.1-76.6-33.1-70.4-68.7-19.8-186.2 76.6-186.3 145.4 6.1 145.4 213.4 0 219.4z"></path>
    <path d="M68.4 367.2c4.1 0 7.5-3.4 7.5-7.5 0-5.3 4.3-9.6 9.6-9.6s9.6 4.3 9.6 9.6c.3 9.9 14.7 9.9 15 0 0-13.5-11-24.6-24.6-24.6-13.5 0-24.6 11-24.6 24.6 0 4.2 3.4 7.5 7.5 7.5zm78.8 0c4.1 0 7.5-3.4 7.5-7.5 0-5.3 4.3-9.6 9.6-9.6s9.6 4.3 9.6 9.6c.3 9.9 14.7 9.9 15 0 0-13.5-11-24.6-24.6-24.6-13.5 0-24.6 11-24.6 24.6 0 4.2 3.3 7.5 7.5 7.5zM35.8 387c0 17.3 5 34.1 14.4 48.6 2.3 3.5 6.9 4.4 10.4 2.2 3.5-2.3 4.4-6.9 2.2-10.4-6.5-9.9-10.4-21.2-11.6-32.9h147.4c-4.6 51.9-63.8 83.4-109.6 57.4-8.8-4.5-15.8 8-7.3 13.1 58.4 33 132.8-10.8 132.2-78 0-4.1-3.4-7.5-7.5-7.5H43.3c-4.2 0-7.5 3.3-7.5 7.5zm171.9-137.5c27.4 0 54.2-9.1 75.8-25.7 6.2 3.4 10.7 5.2 11.3 5.4 1.8.7 3.6.7 5.4 0 2.2-.8 52.9-21 52.9-60.5 0-14.3-8.9-26.5-21.5-31.2 3.1-30.5-5.1-61.1-23.1-85.8-5.5-7.6-17.9.9-12.1 8.8 15.8 21.6 23 48.4 20.4 75.1-7.3.8-14 3.9-19.3 8.9-6-5.8-14-9.1-22.7-9.1-18.2 0-32.9 14.9-32.9 33.3 0 20.9 14.2 36.4 27.9 46.5-72.2 50.4-170.2-4.4-171.9-90.3-.8-87 99.8-140.3 171.2-90.8 7.8 5.3 16.5-6.9 8.4-12.4-81-56.3-195.3 4.2-194.5 103.1 0 66.4 58.3 124.7 124.7 124.7zm49.3-80.9c0-10.1 8-18.3 17.9-18.3 6.8 0 12.9 3.8 16 10 1.3 2.6 4 3.9 6.7 4.1 2.8 0 5.4-1.6 6.7-4.1 3.1-6.2 9.2-10 16-10 9.9 0 17.9 8.2 17.9 18.3 0 24.9-31.1 41-40.6 45.4-9.5-4.3-40.6-20.3-40.6-45.4z"></path>
    <path d="M204.5 140c-9.6-.2-9.8 14.9-.1 15 3.6 0 6.6 2.9 6.6 6.5 0 2.4-1.4 4.6-3.6 5.7-5.4 2.7-5.5 10.6-.1 13.4 2.2 1.1 3.6 3.3 3.5 5.7 0 3.5-3 6.3-6.6 6.3-9.8-.1-9.8 15 0 15 11.8 0 21.5-9.5 21.6-21.2 0-4.5-1.4-8.9-3.9-12.4 2.6-3.5 4-7.8 4.1-12.4.1-11.8-9.6-21.5-21.5-21.6zm-60.7-34.2c.3 9.9 14.7 9.9 15 0 0-5.3 4.3-9.6 9.6-9.6s9.6 4.3 9.6 9.6c.3 9.9 14.7 9.9 15 0-1.5-32.6-47.9-32.6-49.2 0zm93.7 0c.5-12.7 18.6-12.7 19.1 0 .3 9.9 14.7 9.9 15 0 0-13.5-11-24.6-24.6-24.6-13.5 0-24.6 11-24.6 24.6.1 9.4 15.1 9.8 15.1 0zM506 304.9c5.8-18.4-1.4-27.8-16.1-33-47.2-71.3-158.7-71.9-205.6 0-16.6 2.1-20.6 18.8-15.9 32.3-26.4 78.9 35.4 163.9 118.7 162.9 80.7.5 145.3-85 118.9-162.2zm-18.5-18.1c4.4.8 6.2 3.4 5.6 7.8l-12.8 43.2c-2.7 9.7-11.7 16.5-21.8 16.5h-24.6c-10 0-18.6-6.4-21.6-15.9l-12.5-40.3c12.5-4.4 43.7-13.3 87.7-11.3zm-100.4-54c32.4 0 62.9 14.3 83.6 38.7-45.3.6-74.7 11.7-81.7 14.6h-3.8c-7-2.9-36.4-14-81.7-14.6 20.8-24.4 51.3-38.7 83.6-38.7zm-105 56.5c.6-.9 2.1-2.4 4.7-2.5 29.3-1.3 59.8 1.6 87.7 11.3L362 338.4c-3 9.5-11.6 15.9-21.6 15.9h-24.6c-10.1 0-19-6.8-21.8-16.6l-12.8-43.2c-.5-1.7-.2-3.6.9-5.2zm181.6 129.8c-71.2 72.8-192.1 16.1-186-83.5l1.9 6.4c4.5 16.1 19.4 27.4 36.2 27.4h24.6c16.6 0 31-10.6 35.9-26.5l10.9-35 10.9 35c4.9 15.8 19.3 26.5 35.9 26.5h24.6c16.8 0 31.6-11.3 36.2-27.3l1.9-6.4c1.9 30.2-10.2 60.5-33 83.4z"></path>
    <path d="M424.5 389.5c-19.7 20.5-55 20.5-74.6 0-7.2-6.8-17.4 3.3-10.6 10.6 25.3 26.3 70.6 26.3 95.8 0 6.7-7.3-3.4-17.4-10.6-10.6zm-118.3-67.7c1.9 0 3.8-.7 5.3-2.2l10.7-10.7c6.6-6.6-3.7-17.5-10.6-10.6L300.9 309c-4.5 4.5-1.5 12.8 5.3 12.8zm13.8 18.1c3.5 2.9 7.1 2.9 10.6 0l23.9-23.9c6.6-6.6-3.7-17.5-10.6-10.6L320 329.3c-2.9 3-2.9 7.7 0 10.6zm105.2-18.1c1.9 0 3.8-.7 5.3-2.2l10.7-10.7c6.6-6.6-3.7-17.5-10.6-10.6L419.9 309c-4.6 4.5-1.5 12.8 5.3 12.8zm13.7 18.1c3.5 2.9 7.1 2.9 10.6 0l23.9-23.9c6.6-6.6-3.7-17.5-10.6-10.6l-23.9 23.9c-2.9 3-2.9 7.7 0 10.6zM384 82.2c10 0 10-15 0-15s-10 15 0 15zm52.1 99.1c10 0 10-15 0-15s-10 15 0 15zM282.5 479.5c-10 0-10 15 0 15 10-.1 10-15 0-15z"></path>
  </symbol>
  <symbol xmlns="http://www.w3.org/2000/svg" viewBox="0 0 512 512" id="logs">
    <path d="M70.1 417.8c-4.1 0-7.5 3.4-7.5 7.5s3.4 7.5 7.5 7.5c23.3 0 42.2-21.4 42.2-47.6s-18.9-47.6-42.2-47.6-42.2 21.4-42.2 47.6c0 4.1 3.4 7.5 7.5 7.5s7.5-3.4 7.5-7.5c0-18 12.2-32.6 27.2-32.6s27.2 14.6 27.2 32.6-12.2 32.6-27.2 32.6zm79.7-114c4.1 0 7.5-3.4 7.5-7.5s-3.4-7.5-7.5-7.5c-15.1 0-27.4-14.7-27.4-32.8s12.3-32.8 27.4-32.8 27.4 14.7 27.4 32.8c0 4.1 3.4 7.5 7.5 7.5s7.5-3.4 7.5-7.5c0-26.4-19-47.8-42.4-47.8s-42.4 21.5-42.4 47.8 19 47.8 42.4 47.8z"></path>
    <path d="M441.9 305.4h-25.8c9.7-13.9 15-31.2 15-49.4 0-11.9-2.2-23.3-6.6-33.9-1.6-3.8-6-5.6-9.8-4.1-3.8 1.6-5.7 6-4.1 9.8 3.6 8.8 5.5 18.3 5.5 28.2 0 6.9-.9 13.7-2.7 20.1H294c-4.1 0-7.5 3.4-7.5 7.5s3.4 7.5 7.5 7.5h113.3c-2.9 5.3-6.5 10.1-10.7 14.3h-166c-12.5 0-24.2 3.8-34.4 10.4 14.5-14.6 23.7-36 23.7-59.8 0-3.6-.2-7.1-.6-10.6H294c4.1 0 7.5-3.4 7.5-7.5s-3.4-7.5-7.5-7.5h-77.8c-4.7-15.9-13.8-29.6-25.5-39.2H361c12.1 0 23.7 4.6 33.3 13.2 3.1 2.8 7.8 2.5 10.6-.6s2.5-7.8-.6-10.6c-12.5-11.2-27.4-17.1-43.3-17.1H219.2l-7.7-21.2c16.1-14.3 27-34.1 19.6-54.3-14.4-39.7-53.4-51.4-61-53.3-3.8-1-7.7.5-10 3.6-4.6 6.4-27 40.4-12.6 80.1 7.3 20.1 28.3 28.4 49.9 29l5.9 16.1h-53.5c-38.7 0-70.1 35.8-70.1 79.8 0 18.6 5.6 35.8 15.1 49.4H70c-10.8 0-21.2 2.8-30.8 8.2-3.6 2-4.9 6.6-2.9 10.2 2 3.6 6.6 4.9 10.2 2.9 7.4-4.1 15.3-6.2 23.6-6.2 30.4 0 55.1 29.1 55.1 64.8S100.5 450 70.1 450 15 420.9 15 385.2c0-14.2 3.9-27.8 11.2-39.1 2.2-3.5 1.2-8.1-2.2-10.4-3.5-2.2-8.1-1.2-10.4 2.2C4.7 351.7 0 368 0 385.2c0 43.9 31.3 79.7 69.9 79.8h314c4.1 0 7.5-3.4 7.5-7.5s-3.4-7.5-7.5-7.5H271.6c17.7-14.5 29.2-38.2 29.2-64.8 0-6.1-.6-12-1.7-17.7h136.1c4.1 0 7.5-3.4 7.5-7.5s-3.4-7.5-7.5-7.5H294.6c-5.1-12.9-13.1-23.9-23.1-32.1h170.3c30.4 0 55.1 29.1 55.1 64.8 0 8.1-1.3 15.8-3.5 22.9h-92.1c-4.1 0-7.5 3.4-7.5 7.5s3.4 7.5 7.5 7.5h85.2c-10 16.3-26.3 26.9-44.7 26.9h-25.9c-4.1 0-7.5 3.4-7.5 7.5s3.4 7.5 7.5 7.5h25.9c38.6 0 70.1-35.8 70.1-79.8.1-44-31.3-79.8-70-79.8zM161.6 125.9c-10.3-28.4 2.5-53.4 8.5-63 10.7 3.4 36.6 14.4 46.9 42.8 4.9 13.5-4 26.3-11.1 33.8l-19.4-53.3c-1.4-3.9-5.7-5.9-9.6-4.5-3.9 1.4-5.9 5.7-4.5 9.6l19.4 53.3c-10.3-1.2-25.3-5.2-30.2-18.7zm-11.9 65.2c.1 0 .1 0 0 0h.3c30.3.2 54.8 29.2 54.8 64.8 0 35.7-24.7 64.8-55.1 64.8s-55-29-55-64.7c0-35.8 24.7-64.8 55-64.9zm-9.5 194.1c0-22.8-8.4-43.4-22-58 9.4 5.4 20.1 8.5 31.4 8.6h26.1c-9.4 13.6-15.1 30.8-15.1 49.4 0 26.7 11.5 50.3 29.2 64.8H111c17.6-14.5 29.2-38.2 29.2-64.8zm145.6 0c0 35.7-24.7 64.8-55.1 64.8s-55.1-29.1-55.1-64.8 24.7-64.8 55.1-64.8 55.1 29 55.1 64.8z"></path>
    <path d="M230.7 335.5c-4.1 0-7.5 3.4-7.5 7.5s3.4 7.5 7.5 7.5c16 0 29 15.5 29 34.6s-13 34.6-29 34.6-29-15.5-29-34.6c0-4.1-3.4-7.5-7.5-7.5s-7.5 3.4-7.5 7.5c0 27.4 19.7 49.6 44 49.6s44-22.3 44-49.6-19.7-49.6-44-49.6zm108.5-105.1c-4.1 0-7.5 3.4-7.5 7.5s3.4 7.5 7.5 7.5h28.4c4.1 0 7.5-3.4 7.5-7.5s-3.4-7.5-7.5-7.5h-28.4zm-13.3 177.7c-4.1 0-7.5 3.4-7.5 7.5s3.4 7.5 7.5 7.5h23.4c4.1 0 7.5-3.4 7.5-7.5s-3.4-7.5-7.5-7.5h-23.4z"></path>
  </symbol>
  <symbol xmlns="http://www.w3.org/2000/svg" viewBox="0 0 661 661" id="manufacture">
    <path d="M30 288.9h55.4c3.3 11.8 8 23.2 14.1 33.9L60.3 362c-1.9 1.9-2.9 4.4-2.9 7.1s1.1 5.2 2.9 7.1l42.4 42.4c3.9 3.9 10.2 3.9 14.1 0l39.2-39.3c10.7 6.1 22 10.8 33.9 14.1v55.4c0 5.5 4.5 10 10 10h60c5.5 0 10-4.5 10-10v-55.4c11.8-3.3 23.2-8 33.9-14.1l39.2 39.3c4 3.7 10.2 3.7 14.1 0l42.4-42.4c1.9-1.9 2.9-4.4 2.9-7.1s-1.1-5.2-2.9-7.1l-39.3-39.2c6.1-10.7 10.8-22 14.1-33.9h55.4c5.5 0 10-4.5 10-10v-60c0-5.5-4.5-10-10-10h-55.4c-3.3-11.8-8-23.2-14.1-33.9l39.2-39.2c1.9-1.9 2.9-4.4 2.9-7.1s-1.1-5.2-2.9-7.1L357 79.2c-3.9-3.9-10.2-3.9-14.1 0l-39.2 39.3c-10.7-6.1-22-10.8-33.9-14.1V49c0-5.5-4.5-10-10-10h-60c-5.5 0-10 4.5-10 10v55.5c-11.8 3.3-23.2 8-33.9 14.1l-39.2-39.3c-4-3.7-10.2-3.7-14.1 0l-42.4 42.4c-1.9 1.9-2.9 4.4-2.9 7.1s1.1 5.2 2.9 7.1L99.5 175c-6.1 10.7-10.8 22-14.1 33.9H30c-5.5 0-10 4.5-10 10v60c0 5.5 4.5 10 10 10zm10-60h53.3c4.7 0 8.8-3.3 9.8-7.9 3.3-15 9.2-29.2 17.5-42.1 2.5-4 2-9.1-1.4-12.5l-37.7-37.7 28.3-28.3 37.7 37.7c3.3 3.3 8.5 3.9 12.5 1.4 12.9-8.3 27.2-14.2 42.1-17.5 4.6-1 7.9-5.1 7.9-9.8V59h40v53.3c0 4.7 3.3 8.8 7.9 9.8 15 3.3 29.2 9.2 42.1 17.5 4 2.5 9.2 2 12.5-1.4l37.7-37.7 28.3 28.3-37.7 37.7c-3.3 3.3-3.9 8.5-1.4 12.5 8.3 12.9 14.2 27.2 17.5 42.1 1 4.6 5.1 7.9 9.8 7.9H420v40h-53.3c-4.7 0-8.8 3.3-9.8 7.9-3.3 15-9.2 29.2-17.5 42.1-2.5 4-2 9.1 1.4 12.5l37.7 37.7-28.5 28.1-37.7-37.7c-3.3-3.3-8.5-3.9-12.5-1.4-12.9 8.3-27.1 14.2-42.1 17.5-4.6 1-7.9 5.1-7.9 9.8v53.3h-40v-53.3c0-4.7-3.3-8.8-7.9-9.8-15-3.3-29.2-9.2-42.1-17.5-4-2.5-9.2-2-12.5 1.4l-37.7 37.7L81.5 369l37.7-37.7c3.3-3.3 3.9-8.5 1.4-12.5-8.3-12.9-14.2-27.2-17.5-42.1-1-4.6-5.1-7.8-9.8-7.8H40v-40z"></path>
    <path d="M229.9 328.8c44.2 0 80-35.8 80-80s-35.8-80-80-80-80 35.8-80 80c.1 44.2 35.8 80 80 80zm0-139.9c33.1 0 60 26.9 60 60s-26.9 60-60 60-60-26.8-60-60c0-33.1 26.9-60 60-60z"></path>
    <path d="M229.9 358.8c60.7 0 109.9-49.2 109.9-109.9S290.6 139 229.9 139 120 188.2 120 248.9s49.2 109.8 109.9 109.9zm0-199.9c49.7 0 90 40.3 90 90s-40.3 90-90 90-90-40.3-90-90c.1-49.7 40.3-89.9 90-90zm359.8 339.8v-80c0-5.5-4.5-10-10-10h-20v-80c0-5.5-4.5-10-10-10h-90c-5.5 0-10 4.5-10 10v80h-50c-5.5 0-10 4.5-10 10v80H70c-27.6 0-49.9 22.4-50 50v20c0 27.6 22.4 49.9 50 50h519.7c27.6 0 49.9-22.4 50-50v-20c-.1-27.6-22.4-49.9-50-50zm-20 0h-70v-70h70v70zm-99.9-159.9h70v70h-70v-70zm-60 90h70v70h-70v-70zm209.9 139.9c0 16.6-13.4 30-30 30H70c-16.6 0-30-13.4-30-30v-20c0-16.6 13.4-30 30-30h519.7c16.6 0 30 13.4 30 30v20z"></path>
    <path d="M329.8 528.7c-16.6 0-30 13.4-30 30s13.4 30 30 30 30-13.4 30-30c0-16.5-13.4-30-30-30zm0 40c-5.5 0-10-4.5-10-10s4.5-10 10-10 10 4.5 10 10-4.4 10-10 10zm-99.9-40c-16.6 0-30 13.4-30 30s13.4 30 30 30 30-13.4 30-30c0-16.5-13.5-30-30-30zm0 40c-5.5 0-10-4.5-10-10s4.5-10 10-10 10 4.5 10 10-4.5 10-10 10zm199.9-40c-16.6 0-30 13.4-30 30s13.4 30 30 30 30-13.4 30-30c0-16.5-13.5-30-30-30zm0 40c-5.5 0-10-4.5-10-10s4.5-10 10-10 10 4.5 10 10-4.5 10-10 10zm-299.9-40c-16.6 0-30 13.4-30 30s13.4 30 30 30 30-13.4 30-30c0-16.5-13.4-30-30-30zm0 40c-5.5 0-10-4.5-10-10s4.5-10 10-10 10 4.5 10 10-4.4 10-10 10zm399.8-40c-16.6 0-30 13.4-30 30s13.4 30 30 30 30-13.4 30-30c0-16.5-13.4-30-30-30zm0 40c-5.5 0-10-4.5-10-10s4.5-10 10-10 10 4.5 10 10-4.4 10-10 10z"></path>
  </symbol>
  <symbol xmlns="http://www.w3.org/2000/svg" viewBox="0 0 320 384" id="play">
    <path d="M309.2 168.9L30.8 3.2C27.4 1.2 23.9 0 19.9 0 9 0 .1 9 .1 20H0v344h.1c0 11 8.9 20 19.8 20 4.1 0 7.5-1.4 11.2-3.4l278.1-165.5c6.6-5.5 10.8-13.8 10.8-23.1s-4.2-17.5-10.8-23.1z"></path>
  </symbol>
  <symbol xmlns="http://www.w3.org/2000/svg" viewBox="0 0 512 512" id="shooting-stars">
    <path d="M410 335.7l-2.6 2c-2.7 2-3.2 5.7-1.3 8.4 2 2.7 5.7 3.2 8.4 1.3 0 0 .1 0 .1-.1l2.6-2c2.7-2 3.2-5.7 1.3-8.4-2-2.6-5.8-3.2-8.5-1.2zM370.2 93.2c1.4 0 2.7-.5 3.8-1.3l24.1-19.6c2.6-2.1 2.9-5.9.8-8.4-2.1-2.6-5.8-2.9-8.4-.9l-24.1 19.6c-2.6 2.1-3 5.9-.9 8.4 1.2 1.3 2.9 2.2 4.7 2.2zm-37.1 16.3l-43.9 35.6c-2.6 2.1-3 5.9-.9 8.4 2.1 2.6 5.9 3 8.4.9l43.9-35.6c2.6-2.1 3-5.9.9-8.4s-5.8-3-8.4-.9zm-109.9 103c1.4 0 2.7-.5 3.8-1.3l31.8-25.8c2.6-2.1 3-5.9.9-8.4-2.1-2.6-5.9-3-8.4-.9l-31.8 25.8c-2.6 2.1-3 5.9-.9 8.4 1.1 1.4 2.8 2.2 4.6 2.2zm257.4-41.1l-21.9 18.4c-2.5 2.2-2.8 5.9-.6 8.5 2.1 2.5 5.9 2.8 8.4.7l21.9-18.4c2.5-2.1 2.9-5.9.7-8.5s-6-2.8-8.5-.7zm-60.4 50.8l-74.4 62.6c-2.5 2.1-2.9 5.9-.8 8.5 2.1 2.5 5.9 2.9 8.5.8l74.4-62.6c2.5-2.1 2.9-5.9.7-8.5s-5.9-2.9-8.4-.8zM321 313.6c-2.1-2.5-5.9-2.9-8.5-.7l-12.3 10.3c-2.5 2.1-2.9 5.9-.7 8.5s5.9 2.9 8.5.7l12.3-10.3c2.5-2.2 2.8-6 .7-8.5zM487.3 82.4l-89.7 70.4c-2.6 2-3.1 5.8-1.1 8.4 2 2.6 5.8 3.1 8.4 1.1l89.7-70.4c2.6-2 3.1-5.8 1.1-8.4-2-2.6-5.8-3.1-8.4-1.1.1 0 0 0 0 0zM349.7 204c1.3 0 2.6-.4 3.7-1.3l14-11c2.6-2 3.1-5.8 1-8.4-2-2.6-5.8-3.1-8.4-1l-14 11c-2.6 2-3.1 5.8-1 8.4 1.1 1.5 2.9 2.3 4.7 2.3zm-131.2 97.6c2.1 2.6 5.8 3 8.4 1l88.3-69.9c2.6-2.1 3-5.8 1-8.4s-5.8-3-8.4-1l-88.3 69.9c-2.6 2-3 5.8-1 8.4zM27.1 227.5c-6.7 0-12.1 5.4-12.1 12.1 0 6.7 5.4 12.1 12.1 12.1s12.1-5.4 12.1-12.1c.1-6.6-5.4-12.1-12.1-12.1zm55.2-25.6c4 0 7.2-3.2 7.2-7.2s-3.2-7.2-7.2-7.2-7.2 3.2-7.2 7.2 3.2 7.2 7.2 7.2zm245.4 226.7c-6 0-10.9 4.9-10.9 10.9s4.9 10.9 10.9 10.9 10.9-4.9 10.9-10.9-4.9-10.9-10.9-10.9zM311.5 80.5c5.2 0 9.4-4.2 9.4-9.4s-4.2-9.4-9.4-9.4-9.4 4.2-9.4 9.4 4.2 9.4 9.4 9.4zm-16.3 272l-12.3-8.1-.4-14.7c-.1-3.3-2.8-5.9-6.1-5.9-1.3 0-2.6.5-3.6 1.3l-11.5 9.2-14.1-4.2c-3.2-.9-6.5.9-7.5 4-.4 1.3-.3 2.6.1 3.9l5.2 13.8-8.4 12.1c-1.9 2.7-1.2 6.5 1.5 8.3 1.1.7 2.4 1.1 3.7 1.1l14.7-.7 8.9 11.7c2 2.6 5.8 3.1 8.4 1.1 1-.8 1.8-1.9 2.2-3.2l4-14.2 13.9-4.9c3.1-1.1 4.8-4.5 3.7-7.6-.4-1.3-1.3-2.3-2.4-3zm-22.1 5.2c-1.9.7-3.3 2.2-3.8 4.1l-1.5 5.5-3.5-4.5c-1.1-1.5-2.9-2.4-4.8-2.4h-.3l-5.7.3 3.2-4.7c1.1-1.6 1.4-3.7.7-5.5l-2-5.3 5.5 1.6c1.9.6 3.9.2 5.5-1.1l4.5-3.6.1 5.7c0 2 1.1 3.8 2.7 4.9l4.8 3.1-5.4 1.9zM162.6 246.3l14.7-.7 8.9 11.7c2 2.6 5.8 3.1 8.4 1.1 1-.8 1.8-1.9 2.2-3.2l3.9-14.2 13.9-4.9c3.1-1.1 4.8-4.5 3.7-7.7-.4-1.2-1.3-2.3-2.4-3l-12.3-8.1-.4-14.7c-.1-3.3-2.8-5.9-6.1-5.9-1.3 0-2.6.5-3.6 1.3l-11.5 9.2-14.1-4.2c-3.2-.9-6.5.9-7.5 4-.4 1.3-.3 2.6.1 3.9l5.2 13.8-8.4 12.1c-1.9 2.7-1.2 6.5 1.5 8.3 1.2.9 2.5 1.3 3.8 1.2zm15.5-22.8l-2-5.3 5.5 1.6c1.9.6 3.9.2 5.5-1.1l4.5-3.6.1 5.7c0 2 1.1 3.8 2.7 4.9l4.8 3.1-5.4 1.9c-1.9.7-3.3 2.2-3.8 4.1l-1.5 5.5-3.5-4.5c-1.1-1.5-2.9-2.4-4.8-2.4h-.3l-5.7.3 3.2-4.7c1.1-1.6 1.4-3.7.7-5.5zm45.8 124.8l-43.3-20.8-7.4-47.4c-.5-3.3-3.6-5.5-6.9-5-1.3.2-2.5.8-3.4 1.8l-33.2 34.7-47.4-7.6c-3.3-.5-6.4 1.7-6.9 5-.2 1.3 0 2.6.6 3.8L98.9 355 77 397.7c-1.5 2.9-.3 6.6 2.6 8.1 1.2.6 2.5.8 3.8.6l47.2-8.6 33.9 34c2.3 2.3 6.1 2.4 8.5 0 .9-.9 1.5-2.1 1.7-3.5l6.4-47.6 42.8-21.7c3-1.5 4.1-5.1 2.6-8.1-.5-1.1-1.4-2-2.6-2.6zm-51 23.2c-1.8.9-3 2.6-3.2 4.6l-5.2 38.7L137 387c-1.1-1.1-2.7-1.8-4.3-1.8-.4 0-.7 0-1.1.1l-38.4 7 17.8-34.7c.9-1.8.9-3.8-.1-5.6l-18.5-34.3 38.5 6.2c1.9.3 3.9-.4 5.3-1.8l26.9-28.2 6 38.5c.3 2 1.5 3.6 3.3 4.5l35.2 16.9-34.7 17.7z"></path>
  </symbol>
  <symbol xmlns="http://www.w3.org/2000/svg" viewBox="0 0 512 512" id="weight-scale">
    <path d="M421.8 59.3c-18.1-13.8-39-26-60.7-35.4C321.8 6.8 280.5-1.2 238.5.1 159.6 2.7 102.1 37.4 73.7 59H11.2v453h489.7V59l-79.1.3zm63.9 437.6H26.3V74.2h52.5l2-1.6c26.2-20.4 81.6-54.9 158-57.3 39.8-1.3 78.9 6.3 116.2 22.5 21.3 9.2 41.9 21.4 59.5 35.1l2.1 1.6 69-.2.1 422.6z"></path>
    <path d="M449.6 460.4H61.3v-356h39.2V89.2H46.2v386.3h418.6V251.9h-15.1v208.5zm0-244.7h15.1v18.1h-15.1v-18.1z"></path>
    <path d="M172.7 190.9c26.5-8.4 53.9-12.3 81.6-11.7 24.1.5 48 4.5 71 11.8l6.3 2 52.9-111.7L378 78c-29.2-15.1-76.4-32.9-135.6-31.6-42.7.9-85.4 11.8-123.5 31.6l-6.5 3.4 54 111.5 6.3-2zM154.4 79.1l11.6 24.5 13.7-6.5-11-23.3c9.3-2.9 18.8-5.4 28.4-7.3l3.1 26 15-1.8L212 64c9.6-1.3 19.3-2.2 29-2.4v35.7h15.1V61.5c9.6.3 18.8 1.1 27.6 2.3l-3.2 26.9 15 1.8 3.2-26.2c10.1 2 19.7 4.4 28.5 7.2L316 97l13.7 6.5L341.3 79s14.5 4.8 23.2 9.1l-41 86.6c-18.8-5.5-35.6-8.8-55.1-10.1l-26-46.1-13.2 7.4 21.4 38.2h-1.9c-25.2 0-50.1 3.5-74.4 10.6l-41.9-86.5c8.4-4.1 22-9.1 22-9.1zm242.3 25.3h53v93.3h15.1V89.2h-68.1v15.2zM101.5 379.1h15.2v15.2h-15.2v-15.2zm0 50.5h15.2v15.2h-15.2v-15.2zm25.3-25.3H142v15.2h-15.2v-15.2zm-50.6 0h15.2v15.2H76.2v-15.2z"></path>
    <path d="M403 150.7h15.2v15.2H403v-15.2zm0-29.7h15.2v15.2H403V121z"></path>
  </symbol>
  <symbol xmlns="http://www.w3.org/2000/svg" viewBox="0 0 480 480" id="tag">
    <path d="M160 280c8.8 0 16 7.2 16 16 0 4.4 3.6 8 8 8s8-3.6 8-8c-.1-14.5-9.9-27.2-24-30.9V256c0-4.4-3.6-8-8-8s-8 3.6-8 8v9.1c-15.6 4-25.7 19-23.7 35S143.9 328 160 328c8.8 0 16 7.2 16 16s-7.2 16-16 16-16-7.2-16-16c0-4.4-3.6-8-8-8s-8 3.6-8 8c.1 14.5 9.9 27.2 24 30.9v9.1c0 4.4 3.6 8 8 8s8-3.6 8-8v-9.1c15.6-4 25.9-19 23.8-35-2-16-15.7-28-31.8-27.9-8.8 0-16-7.2-16-16s7.2-16 16-16zm24-80h-48c-4.4 0-8 3.6-8 8s3.6 8 8 8h48c4.4 0 8-3.6 8-8s-3.6-8-8-8zm0 224h-48c-4.4 0-8 3.6-8 8s3.6 8 8 8h48c4.4 0 8-3.6 8-8s-3.6-8-8-8z"></path>
    <path d="M438.3 308L320.9 104.6c7.2-7.2 13.6-15.1 19.1-23.7 13.3-21.6 15.7-42.1 6.7-57.7-17.9-31.1-74.6-30.8-129 .6-7.2 4.2-14.2 8.9-20.8 14l-6.5-7.3A40.66 40.66 0 00160 16.8c-11.6 0-22.7 5-30.4 13.7l-87.5 99.1C35.6 137 32 146.5 32 156.4V408c0 39.7 32.3 72 72 72h112c39.7 0 72-32.3 72-72V156.3c0-7.7-2.2-15.2-6.4-21.7h.1c9.6-5.5 18.6-11.9 27.1-18.9L424.5 316c15.5 26.8 6.3 61-20.5 76.5l-97 56c-4.3 2.4-8.8 4.3-13.6 5.5-4.3 1.1-6.8 5.5-5.7 9.8 1.1 4.3 5.5 6.8 9.8 5.7 6.1-1.6 12-4 17.4-7.1l97-56c34.5-19.9 46.3-63.9 26.4-98.4zM272 408c0 30.9-25.1 56-56 56H104c-30.9 0-56-25.1-56-56V156.3c0-6 2.2-11.8 6.1-16.2L141.6 41c4.7-5.3 11.4-8.3 18.4-8.3 7 0 13.7 3 18.4 8.3l78 88.4c-17.8 8.4-37.3 12.7-57 12.7.4-2 .6-4 .6-6.1 0-22.1-17.9-40-40-40-.9 0-1.7.2-2.6.5-4-.5-7.8 2.1-8.7 6.1-2.8 10.9-1.4 22.5 3.9 32.5 5.3 8.8 13.6 15.4 23.3 18.7-7 6.4-17.1 8-25.8 4.2-8.7-3.9-14.2-12.5-14.2-22 0-4.4-3.6-8-8-8s-8 3.6-8 8c0 17.7 11.7 33.4 28.7 38.4s35.3-1.8 44.9-16.7c3.1.3 6.3.5 9.5.5 22.3-.7 44.3-6.2 64.2-16.2 3.1 4.2 4.7 9.2 4.7 14.3V408zm-88-272c0 1.2-.1 2.3-.4 3.5-7.1-1.8-13.2-6.3-17.1-12.4-2.5-4.5-3.5-9.6-3-14.8 11.7 1.8 20.5 11.8 20.5 23.7zm89.7-15.3c-.8.5-1.6.9-2.4 1.3l-63.8-72.3c5.8-4.4 11.9-8.4 18.2-12.1 45.1-26 94.1-29 107.1-6.4 5.9 10.3 3.6 25-6.5 41.3-4 6.3-8.6 12.3-13.8 17.7l-.1-.1c-4.9-8.6-12.8-15-22.2-18.2L259 61.4c-4.1-1.3-8.5 1-9.9 5.1-1.4 4.1.8 8.6 4.8 10.1l31.3 10.5c5.7 1.9 10.4 5.8 13.4 11l2 3.5c-8.3 7.2-17.4 13.6-26.9 19.1z"></path>
    <path d="M305.1 322.5c2.2 3.8 7.1 5.1 10.9 2.9l55.4-32c2.5-1.4 4-4.1 4-6.9 0-2.9-1.5-5.5-4-7-2.5-1.4-5.6-1.4-8 0l-55.4 32c-3.8 2.2-5.1 7.1-2.9 11zm10.1 49.5c2.2 3.8 7.1 5.1 10.9 2.9l69.3-40c3.8-2.2 5.1-7.1 2.9-10.9-2.2-3.8-7.1-5.1-10.9-2.9l-69.3 40c-3.8 2.2-5.1 7.1-2.9 10.9zm4.5-96.2c1.4 0 2.8-.4 4-1.1l27.7-16c2.5-1.4 4-4.1 4-6.9 0-2.9-1.5-5.5-4-7-2.5-1.4-5.6-1.4-8 0l-27.7 16c-3.1 1.8-4.7 5.5-3.7 9 .9 3.6 4.1 6 7.7 6z"></path>
  </symbol>
  <symbol xmlns="http://www.w3.org/2000/svg" viewBox="0 0 511 511" id="star">
    <path d="M114.4 500.7c-5.6 0-11.2-1.7-15.9-5.2-8.8-6.4-13-17.4-10.6-28l32.9-144.8L9.3 224.9c-8.2-7.2-11.3-18.5-8-28.9 3.4-10.3 12.5-17.7 23.4-18.7L172.2 164l58.3-136.5c4.3-10 14.1-16.5 25-16.5s20.7 6.5 25 16.5L338.8 164l147.5 13.4c10.9 1 20 8.3 23.4 18.7 3.4 10.3.3 21.7-7.9 28.9l-111.5 97.8 32.9 144.8c2.4 10.6-1.7 21.7-10.6 28-8.8 6.4-20.6 6.9-29.9 1.3l-127.2-76L128.3 497c-4.3 2.4-9.1 3.7-13.9 3.7zM255.5 388c4.8 0 9.6 1.3 13.9 3.9l120 71.8-31-136.7c-2.2-9.7 1.1-19.9 8.6-26.5l105.3-92.3L333 195.5c-10-.9-18.7-7.2-22.6-16.5l-55-128.8-55 128.8c-3.9 9.2-12.5 15.5-22.5 16.4L38.7 208.2 144 300.5c7.5 6.6 10.8 16.7 8.6 26.5l-31 136.7 120-71.8c4.3-2.6 9.1-3.9 13.9-3.9zm-84.4-221.4zm168.8-.1z"></path>
  </symbol>
  <symbol xmlns="http://www.w3.org/2000/svg" viewBox="0 0 512 512" id="winner">
    <path d="M446 332H336v-50c0-16.5-13.5-30-30-30H206c-16.5 0-30 13.5-30 30v10H66c-16.5 0-30 13.5-30 30v180c0 5.5 4.5 10 10 10h420c5.5 0 10-4.5 10-10V362c0-16.5-13.5-30-30-30zM316 492H196v-25c0-5.5-4.5-10-10-10s-10 4.5-10 10v25H56V322c0-5.5 4.5-10 10-10h110v65c0 5.5 4.5 10 10 10s10-4.5 10-10v-95c0-5.5 4.5-10 10-10h100c5.5 0 10 4.5 10 10v210zm140 0H336V352h110c5.5 0 10 4.5 10 10v130z"></path>
    <path d="M421 402c0-16.5-13.4-30-29.9-30-8.7 0-17 3.8-22.7 10.5-3.6 4.2-3.1 10.5 1.1 14.1 4.2 3.6 10.5 3.1 14.1-1.1 1.9-2.2 4.6-3.5 7.5-3.5 5.5 0 9.9 4.5 9.9 10 0 2.7-1.1 5.3-3 7.2-2.1 2.1-3.2 5-2.9 8 .3 3 1.9 5.7 4.3 7.4 4.1 2.8 6.6 7.5 6.6 12.4 0 8.3-6.7 15-14.9 15-3.3 0-6.4-1.1-9-3.1-4.4-3.4-10.7-2.5-14 1.8-3.4 4.4-2.5 10.7 1.8 14 6.1 4.7 13.5 7.2 21.2 7.2 19.2 0 34.9-15.7 34.9-35 0-8.2-2.8-16-7.9-22.1 1.9-3.9 2.9-8.3 2.9-12.8zm-285 10h-24.1c2.2-2 5-4.2 8.2-6.7 11.4-8.8 25.7-19.8 25.9-40.5.2-15.2-9.5-28.3-23.6-31.9-13.5-3.4-26.6 2.7-33.5 15.6-2.6 4.9-.7 10.9 4.1 13.5 4.9 2.6 10.9.7 13.5-4.1 3.4-6.4 8.3-6.3 10.9-5.6 4.3 1.1 8.7 5.3 8.6 12.3-.1 10.3-6.9 16.2-18.1 24.9C97.6 397.4 86 406.4 86 422c0 5.5 4.5 10 10 10h40c5.5 0 10-4.5 10-10s-4.5-10-10-10zm131.1-40H266v-70c0-3.6-1.9-6.9-5-8.7-3.1-1.8-6.9-1.8-10 0l-11.1 6.4c-4.8 2.8-6.4 8.9-3.7 13.7 2 3.5 5.9 5.4 9.7 4.9V372h-1.1c-5.5 0-10 4.5-10 10s4.5 10 10 10H267c5.5 0 10-4.5 10-10 .1-5.5-4.4-10-9.9-10zm-78.4-224.9l-5 38.2c-1 5.5-.3 11.1 2.2 16.2 4.5 9.2 13.7 14.6 23.3 14.6 3.8 0 7.7-.8 11.3-2.6l35.2-17.1 36.1 17.2c4.5 2.2 9.6 2.9 14.7 2.2 6.8-.9 12.9-4.5 17.1-10 4.2-5.5 5.9-12.3 5-19.2l-5.4-38.8 26.7-28.1c4-3.8 6.6-8.8 7.6-14.2 1.2-6.8-.3-13.7-4.3-19.4s-9.9-9.4-16.7-10.6L298 68.7l-19.1-35.1c-2.4-4.4-6.1-8.1-10.5-10.5-6.1-3.2-13.1-3.9-19.7-1.9s-12 6.5-15.3 12.6L215 68.3l-38.7 7.2c-5.2.8-10 3.2-13.9 6.9-5 4.8-7.8 11.2-7.9 18.1-.1 6.9 2.4 13.5 7.2 18.5l27 28.1zm-12.6-50.4c1.1-1.1 2.4-1.5 3.2-1.6.1 0 .2 0 .3-.1l43.6-8.1c3-.6 5.6-2.4 7-5.1L250.9 43c.7-1.4 2-2.4 3.5-2.8.6-.2 1.1-.3 1.7-.3.9 0 1.9.2 2.7.7 1 .5 1.8 1.4 2.4 2.4l21.4 39.4c1.5 2.7 4 4.5 7 5.1l43.3 7.7c1.6.3 2.9 1.1 3.8 2.4.9 1.3 1.3 2.9 1 4.4-.3 1.6-1.1 2.7-1.8 3.3l-.4.4-30.2 31.8c-2.1 2.2-3.1 5.2-2.6 8.3l6.1 43.5c.2 1.6-.2 3.1-1.1 4.4-.9 1.3-2.3 2.1-3.9 2.3-1.2.2-2.3 0-3.3-.5L260 176.2c-2.7-1.3-5.9-1.3-8.7 0l-39.5 19.2c-2.9 1.4-6.5.2-7.9-2.7-.7-1.5-.7-2.9-.5-3.8 0-.2.1-.5.1-.7l5.7-43.3c.4-3-.6-6-2.7-8.2L176 105.1c-1.1-1.1-1.7-2.6-1.6-4.2-.1-1.6.5-3.1 1.7-4.2zm-76.6-78L139 41.5c1.6.9 3.3 1.3 5 1.3 3.5 0 6.8-1.8 8.7-5 2.8-4.8 1.1-10.9-3.7-13.7L109.5 1.3C104.7-1.4 98.6.2 95.8 5c-2.7 4.8-1.1 10.9 3.7 13.7zM70.6 138.5c.5 0 1 0 1.5-.1l45.1-6.6c5.5-.8 9.3-5.9 8.5-11.3-.8-5.5-5.9-9.2-11.3-8.5l-45.1 6.6c-5.5.8-9.3 5.9-8.5 11.3.7 5.1 5 8.6 9.8 8.6zm68.8 60.9l-32.2 32.2c-3.9 3.9-3.9 10.2 0 14.1 2 2 4.5 2.9 7.1 2.9 2.6 0 5.1-1 7.1-2.9l32.2-32.2c3.9-3.9 3.9-10.2 0-14.1s-10.3-3.9-14.2 0zM368 42.8c1.7 0 3.4-.4 5-1.3l39.5-22.8c4.8-2.8 6.4-8.9 3.7-13.7-2.8-4.8-8.9-6.4-13.7-3.7L363 24.1c-4.8 2.8-6.4 8.9-3.7 13.7 1.9 3.2 5.3 5 8.7 5zm18.3 77.7c-.8 5.5 3 10.5 8.5 11.3l45.1 6.6c.5.1 1 .1 1.5.1 4.9 0 9.2-3.6 9.9-8.6.8-5.5-3-10.5-8.5-11.3l-45.1-6.6c-5.5-.7-10.6 3.1-11.4 8.5zm-27.8 78.9c-3.9 3.9-3.9 10.2 0 14.1l32.2 32.2c2 2 4.5 2.9 7.1 2.9 2.6 0 5.1-1 7.1-2.9 3.9-3.9 3.9-10.2 0-14.1l-32.2-32.2c-4-3.9-10.3-3.9-14.2 0zM186 412c-5.5 0-10 4.5-10 10s4.5 10 10 10 10-4.5 10-10-4.5-10-10-10z"></path>
  </symbol>
</svg>