<?xml version="1.0" encoding="utf-8"?>
<!-- Generator: Adobe Illustrator 25.2.0, SVG Export Plug-In . SVG Version: 6.00 Build 0)  -->
<svg version="1.1" id="Capa_1" xmlns="http://www.w3.org/2000/svg" xmlns:xlink="http://www.w3.org/1999/xlink" x="0px" y="0px"
	 viewBox="0 0 512 512" style="enable-background:new 0 0 512 512;" xml:space="preserve">
<g>
	<g id="Lines_40_">
		<path d="M421.8,59.3c-18.1-13.8-39-26-60.7-35.4C321.8,6.8,280.5-1.2,238.5,0.1C159.6,2.7,102.1,37.4,73.7,59H11.2v453h489.7V59
			L421.8,59.3z M485.7,496.9H26.3V74.2h52.5l2-1.6c26.2-20.4,81.6-54.9,158-57.3c39.8-1.3,78.9,6.3,116.2,22.5
			c21.3,9.2,41.9,21.4,59.5,35.1l2.1,1.6l69-0.2L485.7,496.9z"/>
		<path d="M449.6,460.4H61.3V104.4h39.2V89.2H46.2v386.3h418.6V251.9h-15.1V460.4z"/>
		<path d="M449.6,215.7h15.1v18.1h-15.1V215.7z"/>
		<path d="M172.7,190.9c26.5-8.4,53.9-12.3,81.6-11.7c24.1,0.5,48,4.5,71,11.8l6.3,2l52.9-111.7L378,78
			c-29.2-15.1-76.4-32.9-135.6-31.6C199.7,47.3,157,58.2,118.9,78l-6.5,3.4l54,111.5L172.7,190.9z M154.4,79.1l11.6,24.5l13.7-6.5
			l-11-23.3c9.3-2.9,18.8-5.4,28.4-7.3l3.1,26l15-1.8L212,64c9.6-1.3,19.3-2.2,29-2.4v35.7h15.1V61.5c9.6,0.3,18.8,1.1,27.6,2.3
			l-3.2,26.9l15,1.8l3.2-26.2c10.1,2,19.7,4.4,28.5,7.2L316,97l13.7,6.5l11.6-24.5c0,0,14.5,4.8,23.2,9.1l-41,86.6
			c-18.8-5.5-35.6-8.8-55.1-10.1l-26-46.1l-13.2,7.4l21.4,38.2c-0.6,0-1.2,0-1.9,0c-25.2,0-50.1,3.5-74.4,10.6l-41.9-86.5
			C140.8,84.1,154.4,79.1,154.4,79.1L154.4,79.1z"/>
		<path d="M396.7,104.4h53v93.3h15.1V89.2h-68.1V104.4z"/>
	</g>
	<g>
		<path d="M101.5,379.1h15.2v15.2h-15.2V379.1z"/>
		<path d="M101.5,429.6h15.2v15.2h-15.2V429.6z"/>
		<path d="M126.8,404.3h15.2v15.2h-15.2V404.3z"/>
		<path d="M76.2,404.3h15.2v15.2H76.2V404.3z"/>
	</g>
	<g>
		<path d="M403,150.7h15.2v15.2H403V150.7z"/>
		<path d="M403,121h15.2v15.2H403V121z"/>
	</g>
</g>
</svg>
