<svg width="0" height="0" class="hidden">
  <symbol xmlns="http://www.w3.org/2000/svg" viewBox="0 0 512 512" id="like">
    <path d="M0 192v256c0 17.7 14.3 32 32 32h96V160H32c-17.7 0-32 14.3-32 32zm452.9 0h-94.5c-8.3 0-12.4-5.5-13.8-7.9-1.4-2.4-4.2-8.7-.2-15.9l33.3-60c7.3-13.1 8.1-28.6 2.1-42.4-6-13.8-17.8-23.8-32.4-27.4l-23.5-5.9c-5.7-1.4-11.8.4-15.8 4.8L180.5 179a79.975 79.975 0 0 0-20.5 53.5V400c0 44.1 35.9 80 80 80h159.2c35.9 0 67.7-24.2 77.2-58.8l34.2-156.8c1-4.4 1.5-8.8 1.5-13.3-.1-32.6-26.6-59.1-59.2-59.1z"></path>
  </symbol>
  <symbol xmlns="http://www.w3.org/2000/svg" viewBox="0 0 512 512" id="maths">
    <path d="M410.7 0H101.3C69 0 42.7 26.3 42.7 58.7v394.7c0 32.4 26.3 58.7 58.7 58.7h309.3c32.4 0 58.7-26.3 58.7-58.7V58.7C469.3 26.3 443 0 410.7 0zM208.6 399.4c6.3 6.3 6.3 16.4 0 22.6-3.1 3.1-7.2 4.7-11.3 4.7-4.1 0-8.2-1.6-11.3-4.7l-15.4-15.3-15.3 15.3c-3.1 3.1-7.2 4.7-11.3 4.7-4.1 0-8.2-1.6-11.3-4.7-6.3-6.3-6.3-16.4 0-22.6L148 384l-15.4-15.4c-6.3-6.3-6.3-16.4 0-22.6s16.4-6.3 22.6 0l15.4 15.4L186 346c6.3-6.3 16.4-6.3 22.6 0 6.3 6.3 6.3 16.4 0 22.6L193.3 384l15.3 15.4zM197.3 272h-10.7v10.7c0 8.8-7.2 16-16 16s-16-7.2-16-16V272H144c-8.8 0-16-7.2-16-16s7.2-16 16-16h10.7v-10.7c0-8.8 7.2-16 16-16s16 7.2 16 16V240h10.7c8.8 0 16 7.2 16 16-.1 8.8-7.2 16-16.1 16zM368 426.7h-53.3c-8.8 0-16-7.2-16-16s7.2-16 16-16H368c8.8 0 16 7.2 16 16s-7.2 16-16 16zm0-53.4h-53.3c-8.8 0-16-7.2-16-16s7.2-16 16-16H368c8.8 0 16 7.2 16 16s-7.2 16-16 16zm0-96h-53.3c-8.8 0-16-7.2-16-16s7.2-16 16-16H368c8.8 0 16 7.2 16 16s-7.2 16-16 16zm37.3-144c0 20.6-16.7 37.3-37.3 37.3H144c-20.6 0-37.3-16.7-37.3-37.3v-32c0-20.6 16.7-37.3 37.3-37.3h224c20.6 0 37.3 16.7 37.3 37.3v32z"></path>
  </symbol>
  <symbol xmlns="http://www.w3.org/2000/svg" viewBox="0 0 512 512" id="next">
    <path d="M388.4 242L151.6 5.8c-7.8-7.7-20.3-7.7-28.1 0-7.7 7.8-7.7 20.3 0 28.1L346.3 256 123.6 478.1c-7.8 7.7-7.8 20.3 0 28.1 3.9 3.9 9 5.8 14.1 5.8s10.1-1.9 14-5.8L388.5 270c3.7-3.7 5.8-8.8 5.8-14s-2.1-10.3-5.9-14z"></path>
  </symbol>
</svg>