<svg width="30" height="30" viewBox="0 0 30 30" fill="none" xmlns="http://www.w3.org/2000/svg">
<path d="M15 30C23.2843 30 30 23.2843 30 15C30 6.71573 23.2843 0 15 0C6.71573 0 0 6.71573 0 15C0 23.2843 6.71573 30 15 30Z" fill="#F99400"/>
<path fill-rule="evenodd" clip-rule="evenodd" d="M13.5751 18.0847C13.0341 17.9591 12.5298 17.7774 12.0505 17.5307C11.8788 17.4421 11.7098 17.3471 11.5458 17.2451C11.0621 16.9431 10.9118 16.3201 11.2025 15.8407C11.5015 15.3484 12.1211 15.1884 12.6158 15.4884C13.1025 15.7827 13.6181 15.9967 14.1785 16.0977C15.2811 16.2957 16.3171 16.1134 17.2825 15.5457C17.4795 15.4297 17.6785 15.3387 17.9135 15.3401C18.3691 15.3427 18.7681 15.6344 18.9005 16.0681C19.0335 16.5051 18.8678 16.9781 18.4808 17.2271C17.8778 17.6151 17.2248 17.8884 16.5295 18.0597C16.4995 18.0667 16.4701 18.0754 16.4281 18.0864C16.4565 18.1171 16.4785 18.1411 16.5018 18.1644C17.1198 18.7824 17.7381 19.3994 18.3555 20.0184C18.7165 20.3804 18.7925 20.8771 18.5528 21.2911C18.2078 21.8874 17.4145 21.9864 16.9175 21.4924C16.3015 20.8797 15.6888 20.2644 15.0751 19.6507C15.0531 19.6287 15.0325 19.6051 14.9835 19.5517C14.9631 19.5881 14.9521 19.6234 14.9295 19.6461C14.3145 20.2634 13.6995 20.8797 13.0818 21.4944C12.6581 21.9171 12.0111 21.9144 11.6011 21.4931C11.2261 21.1077 11.2155 20.4957 11.5781 20.0914C11.6271 20.0361 11.6805 19.9841 11.7325 19.9317C12.3225 19.3414 12.9121 18.7521 13.5021 18.1614C13.5225 18.1407 13.5435 18.1177 13.5751 18.0847Z" fill="white"/>
<path fill-rule="evenodd" clip-rule="evenodd" d="M15.0007 8.18848C16.9357 8.18848 18.5144 9.76781 18.514 11.7028C18.5137 13.6401 16.95 15.2171 15.002 15.2178C13.043 15.2198 11.4874 13.6405 11.4844 11.7095C11.481 9.77181 13.0487 8.19381 15.0007 8.18848ZM16.453 11.7061C16.4537 10.9055 15.806 10.2525 15.0094 10.2505C14.202 10.2485 13.5444 10.8958 13.543 11.6931C13.5417 12.4918 14.1894 13.1568 14.971 13.1575C15.7994 13.1581 16.4524 12.5188 16.453 11.7061Z" fill="white"/>
</svg>
