<?xml version="1.0" encoding="utf-8"?>
<!-- Generator: Adobe Illustrator 24.0.3, SVG Export Plug-In . SVG Version: 6.00 Build 0)  -->
<svg version="1.1" id="Capa_1" xmlns="http://www.w3.org/2000/svg" xmlns:xlink="http://www.w3.org/1999/xlink" x="0px" y="0px"
	 viewBox="0 0 490 365.2" style="enable-background:new 0 0 490 365.2;" xml:space="preserve">
<style type="text/css">
	.st0{fill:#D51E28;}
</style>
<g>
	<path class="st0" d="M490,206.2L402.1,107h-81.5V67.7h-97.2C204.7,27.7,164.1,0,117.2,0C52.6,0,0,52.6,0,117.2
		c0,44.9,25.3,83.9,62.5,103.6v92.5H107c1.2,28.8,25,51.9,54.1,51.9s52.9-23.1,54.1-51.9h121.9c1.2,28.8,25,51.9,54.1,51.9
		c29.1,0,52.9-23.1,54.1-51.9H490V206.2z M20.4,117.2c0-53.4,43.4-96.8,96.8-96.8c53.4,0,96.8,43.4,96.8,96.8
		c0,53.4-43.4,96.8-96.8,96.8C63.8,213.9,20.4,170.5,20.4,117.2z M161.1,344.8c-18.6,0-33.8-15.1-33.8-33.8s15.1-33.8,33.8-33.8
		s33.8,15.1,33.8,33.8S179.8,344.8,161.1,344.8z M300.2,292.9h-88c-7.5-21-27.5-36-51-36s-43.6,15.1-51,36H82.9v-63.6
		c10.9,3.3,22.4,5.1,34.3,5.1c64.6,0,117.2-52.6,117.2-117.2c0-10-1.3-19.8-3.6-29.1h69.5L300.2,292.9L300.2,292.9z M391.3,344.8
		c-18.6,0-33.8-15.1-33.8-33.8s15.1-33.8,33.8-33.8c18.6,0,33.8,15.1,33.8,33.8C425.1,329.6,409.9,344.8,391.3,344.8z M469.6,292.9
		h-27.2c-7.5-21-27.5-36-51-36c-23.5,0-43.6,15.1-51,36h-19.7V127.4h72.3l76.7,86.6L469.6,292.9L469.6,292.9z"/>
	<polygon class="st0" points="163,132 127.4,111.3 127.4,43.1 107,43.1 107,123 152.7,149.7 	"/>
</g>
</svg>
