<svg width="30" height="30" viewBox="0 0 30 30" fill="none" xmlns="http://www.w3.org/2000/svg">
<path d="M15 30C23.2843 30 30 23.2843 30 15C30 6.71573 23.2843 0 15 0C6.71573 0 0 6.71573 0 15C0 23.2843 6.71573 30 15 30Z" fill="#197BC1"/>
<path d="M9.41992 12.1507C9.9161 13.3853 10.5899 14.5408 11.4199 15.5807C11.5348 15.7198 11.6696 15.8411 11.8199 15.9407C11.8582 15.9774 11.9056 16.0033 11.9572 16.0157C12.0088 16.0282 12.0628 16.0267 12.1136 16.0114C12.1645 15.9962 12.2103 15.9677 12.2466 15.9289C12.2828 15.8902 12.3081 15.8425 12.3199 15.7907C12.4192 15.4657 12.4796 15.13 12.4999 14.7907C12.4999 14.0807 12.4999 13.6207 12.4999 12.9207C12.5123 12.7988 12.4999 12.6756 12.4634 12.5586C12.427 12.4415 12.3673 12.3331 12.2879 12.2397C12.2085 12.1463 12.1111 12.0699 12.0015 12.0151C11.8918 11.9603 11.7723 11.9282 11.6499 11.9207C11.4499 11.9207 11.4299 11.7107 11.5599 11.5507C11.6936 11.4022 11.8596 11.2862 12.0451 11.2117C12.2305 11.1371 12.4306 11.106 12.6299 11.1207C13.2999 11.1207 13.9699 11.1207 14.6299 11.1207C14.9053 11.1191 15.1801 11.1459 15.4499 11.2007C15.6089 11.2325 15.7533 11.315 15.8615 11.4358C15.9697 11.5566 16.0358 11.7092 16.0499 11.8707C16.0671 12.0503 16.0671 12.2311 16.0499 12.4107C16.0499 13.1807 15.9899 13.9507 15.9899 14.7207C15.9825 15.0228 16.0093 15.3247 16.0699 15.6207C16.1599 16.0307 16.4399 16.1307 16.7199 15.8407C17.0848 15.461 17.4192 15.0531 17.7199 14.6207C18.2437 13.8266 18.6732 12.9742 18.9999 12.0807C19.1799 11.6207 19.3199 11.5207 19.8099 11.5207H22.5799C22.7458 11.5195 22.911 11.543 23.0699 11.5907C23.1241 11.6046 23.1749 11.6292 23.2194 11.663C23.264 11.6969 23.3013 11.7392 23.3292 11.7877C23.3572 11.8361 23.3752 11.8896 23.3822 11.9451C23.3891 12.0006 23.385 12.0569 23.3699 12.1107C23.2072 12.7 22.9284 13.2507 22.5499 13.7307C21.9899 14.5307 21.3899 15.3007 20.8199 16.0907C20.7466 16.1931 20.6798 16.3 20.6199 16.4107C20.5649 16.4769 20.5237 16.5532 20.4984 16.6354C20.4732 16.7176 20.4645 16.804 20.4728 16.8895C20.4812 16.9751 20.5065 17.0581 20.5472 17.1339C20.5879 17.2096 20.6432 17.2765 20.7099 17.3307C21.2099 17.8507 21.7099 18.3307 22.2399 18.8607C22.6097 19.2469 22.9444 19.6652 23.2399 20.1107C23.3303 20.213 23.3892 20.3392 23.4097 20.4742C23.4302 20.6091 23.4113 20.7471 23.3554 20.8716C23.2995 20.9962 23.2088 21.1019 23.0944 21.1762C22.9799 21.2506 22.8464 21.2903 22.7099 21.2907C22.2899 21.3507 20.2599 21.2907 20.1599 21.2907C19.6346 21.2965 19.1281 21.0953 18.7499 20.7307C18.3199 20.3207 17.9299 19.8607 17.5199 19.4307C17.3962 19.3005 17.2624 19.1801 17.1199 19.0707C16.7799 18.8107 16.4499 18.8707 16.2899 19.2707C16.1537 19.7045 16.0567 20.1496 15.9999 20.6007C15.9986 20.6922 15.9792 20.7825 15.9426 20.8664C15.9061 20.9503 15.8533 21.0261 15.7872 21.0893C15.7212 21.1526 15.6432 21.2021 15.5578 21.235C15.4724 21.2678 15.3814 21.2834 15.2899 21.2807C14.0154 21.3982 12.7335 21.1557 11.5899 20.5807C10.6287 20.0482 9.79044 19.319 9.12992 18.4407C8.06963 17.0566 7.15166 15.5691 6.38992 14.0007C6.38992 13.9207 5.55992 12.2407 5.53992 12.1607C5.49123 12.0503 5.48692 11.9253 5.52788 11.8117C5.56883 11.6982 5.65193 11.6047 5.75992 11.5507C5.89992 11.4907 8.50992 11.5507 8.54992 11.5507C8.73935 11.5477 8.92499 11.6039 9.08094 11.7115C9.2369 11.8191 9.3554 11.9726 9.41992 12.1507Z" fill="white"/>
</svg>
