<svg width="64" height="64" viewBox="0 0 64 64" fill="none" xmlns="http://www.w3.org/2000/svg">
<path d="M59.6149 17.663L59.5676 17.5812C59.5019 17.445 59.4262 17.3145 59.3416 17.1905L50.438 1.79763C49.7968 0.688876 48.6028 0 47.3219 0H16.6797C15.3965 0 14.2015 0.690501 13.5607 1.80213L4.51194 17.5004C4.43057 17.6417 4.37194 17.7894 4.33032 17.9397C4.20269 18.2838 4.13257 18.6557 4.13257 19.0435V59.5892C4.13257 62.0213 6.1112 63.9999 8.5432 63.9999H55.4563C57.8883 63.9999 59.8668 62.0213 59.8668 59.5892V18.8949C59.8669 18.8404 59.8653 18.7864 59.8624 18.7325C59.8881 18.3718 59.8097 17.9998 59.6149 17.663ZM33.9399 3.75138H47.2345L54.2385 15.8605H33.9399V3.75138ZM16.7671 3.75138H30.1885V15.8605H9.7872L16.7671 3.75138ZM56.1157 59.5894C56.1157 59.9529 55.82 60.2486 55.4565 60.2486H8.54333C8.17983 60.2486 7.88408 59.9529 7.88408 59.5894V19.6119H56.1157V59.5894Z" fill="#1F613B"/>
<path d="M38.4171 43.2918C37.6036 42.6509 36.424 42.7912 35.7831 43.605L33.9738 45.9023V28.487C33.9738 27.4512 33.1341 26.6114 32.0982 26.6114C31.0623 26.6114 30.2226 27.4512 30.2226 28.487V45.7885L28.5626 43.624C27.9323 42.802 26.7547 42.6468 25.9328 43.2771C25.1108 43.9075 24.9554 45.0848 25.5859 45.9068L30.5883 52.4298C30.9327 52.879 31.4408 53.1262 31.9646 53.1578C31.9672 53.1581 31.9697 53.1581 31.9723 53.1582C32.0076 53.1602 32.0427 53.1641 32.0779 53.1641C32.0822 53.1641 32.0863 53.1636 32.0906 53.1636C32.0931 53.1636 32.0956 53.164 32.0981 53.164C32.1007 53.164 32.1032 53.1636 32.1058 53.1636C32.1099 53.1636 32.1142 53.1641 32.1185 53.1641C32.1531 53.1641 32.1876 53.1602 32.2222 53.1583C32.2243 53.1582 32.2265 53.1582 32.2286 53.158C32.7455 53.1277 33.2477 52.8873 33.5932 52.4487L38.7302 45.9258C39.3712 45.112 39.231 43.9326 38.4171 43.2918Z" fill="#B7AA74"/>
</svg>
