<svg width="64" height="64" viewBox="0 0 64 64" fill="none" xmlns="http://www.w3.org/2000/svg">
<path d="M26.375 24.5C26.375 19.3306 22.1694 15.125 17 15.125C11.8306 15.125 7.625 19.3306 7.625 24.5C7.625 29.6694 11.8306 33.875 17 33.875C22.1694 33.875 26.375 29.6694 26.375 24.5ZM17 30.125C13.8984 30.125 11.375 27.6016 11.375 24.5C11.375 21.3984 13.8984 18.875 17 18.875C20.1016 18.875 22.625 21.3984 22.625 24.5C22.625 27.6016 20.1016 30.125 17 30.125Z" fill="#B7AA74"/>
<path d="M62.125 30.125H48.875V5.625C48.875 4.5895 48.0355 3.75 47 3.75H37.625V1.875C37.625 0.8395 36.7855 0 35.75 0C34.7145 0 33.875 0.8395 33.875 1.875V3.75H26.375V1.875C26.375 0.8395 25.5355 0 24.5 0C23.4645 0 22.625 0.8395 22.625 1.875V3.75H15.125V1.875C15.125 0.8395 14.2855 0 13.25 0C12.2145 0 11.375 0.8395 11.375 1.875V3.75H1.875C0.8395 3.75 0 4.5895 0 5.625V62.125C0 63.1605 0.8395 64 1.875 64H54.5C59.6824 64 64 59.8081 64 54.625V32C64 30.9645 63.1605 30.125 62.125 30.125ZM3.75 7.5H11.375V9.375C11.375 10.4105 12.2145 11.25 13.25 11.25C14.2855 11.25 15.125 10.4105 15.125 9.375V7.5H22.625V9.375C22.625 10.4105 23.4645 11.25 24.5 11.25C25.5355 11.25 26.375 10.4105 26.375 9.375V7.5H33.875V9.375C33.875 10.4105 34.7145 11.25 35.75 11.25C36.7855 11.25 37.625 10.4105 37.625 9.375V7.5H45.125V30.125H32C30.9645 30.125 30.125 30.9645 30.125 32V37.625H24.5C21.3984 37.625 18.875 40.1484 18.875 43.25V47C18.875 52.1824 23.0669 56.5 28.25 56.5H30.3136C30.5959 57.8848 31.1845 59.1594 32.0051 60.25H3.75V7.5ZM28.25 52.75C25.2009 52.75 22.625 50.1169 22.625 47V43.25C22.625 42.2161 23.4661 41.375 24.5 41.375H30.125V52.75H28.25ZM60.25 54.625C60.25 57.6741 57.6169 60.25 54.5 60.25H39.5C36.3984 60.25 33.875 57.7266 33.875 54.625V33.875H60.25V54.625Z" fill="#1F613B"/>
<path d="M37.625 47C37.625 52.1824 41.8169 56.5 47 56.5C52.1823 56.5 56.375 52.1831 56.375 47C56.375 41.8306 52.1694 37.625 47 37.625C41.8306 37.625 37.625 41.8306 37.625 47ZM52.625 47C52.625 50.1169 50.0491 52.75 47 52.75C43.9509 52.75 41.375 50.1169 41.375 47C41.375 43.8984 43.8984 41.375 47 41.375C50.1016 41.375 52.625 43.8984 52.625 47Z" fill="#1F613B"/>
<path d="M32 18.875H39.5C40.5355 18.875 41.375 18.0355 41.375 17C41.375 15.9645 40.5355 15.125 39.5 15.125H32C30.9645 15.125 30.125 15.9645 30.125 17C30.125 18.0355 30.9645 18.875 32 18.875Z" fill="#B7AA74"/>
<path d="M32 26.375H39.5C40.5355 26.375 41.375 25.5355 41.375 24.5C41.375 23.4645 40.5355 22.625 39.5 22.625H32C30.9645 22.625 30.125 23.4645 30.125 24.5C30.125 25.5355 30.9645 26.375 32 26.375Z" fill="#B7AA74"/>
</svg>
