<?xml version="1.0" encoding="utf-8"?>
<!-- Generator: Adobe Illustrator 25.2.1, SVG Export Plug-In . SVG Version: 6.00 Build 0)  -->
<svg version="1.1" id="Слой_1" xmlns="http://www.w3.org/2000/svg" xmlns:xlink="http://www.w3.org/1999/xlink" x="0px" y="0px"
	 viewBox="0 0 15 18.3" style="enable-background:new 0 0 15 18.3;" xml:space="preserve">
<style type="text/css">
	.st0{fill-rule:evenodd;clip-rule:evenodd;fill:#FFFFFF;}
</style>
<path class="st0" d="M5,0.8C5.6,0.3,6.5,0,7.5,0c1,0,1.9,0.3,2.5,0.8h0.8c0.9,0,1.7,0.7,1.7,1.7h0.8c0.9,0,1.7,0.7,1.7,1.7v12.5
	c0,0.9-0.7,1.7-1.7,1.7H1.7c-0.9,0-1.7-0.7-1.7-1.7V4.2c0-0.9,0.7-1.7,1.7-1.7h0.8c0-0.9,0.7-1.7,1.7-1.7H5z M10.8,5
	c0.6,0,1.2-0.3,1.4-0.8h1.1v12.5H1.7V4.2h1.1C3,4.7,3.5,5,4.2,5H10.8z M4.2,12.5v-1.7h5v1.7H4.2z M4.2,7.5v1.7h6.7V7.5H4.2z
	 M5.7,2.5L6,2.2c0.3-0.3,0.9-0.5,1.5-0.5c0.7,0,1.3,0.2,1.5,0.5l0.2,0.3h1.5v0.8H4.2V2.5h1.2H5.7z"/>
</svg>
