<svg width="64" height="64" viewBox="0 0 64 64" fill="none" xmlns="http://www.w3.org/2000/svg">
<path d="M62.0664 3H1.93359C0.866211 3 0 3.86475 0 4.93359V59.085C0 60.1538 0.866211 61.0186 1.93359 61.0186H62.0664C63.1338 61.0186 64 60.1538 64 59.085C64 57.7031 64 6.38281 64 4.93359C64 3.86475 63.1338 3 62.0664 3ZM60.1328 57.1514H3.86719V18.8657H60.1328V57.1514ZM3.86719 6.86719H60.1328V14.9985H3.86719V6.86719Z" fill="#1F613B"/>
<path d="M32 8.99951H8.08789C7.02051 8.99951 6.15381 9.86572 6.15381 10.9331C6.15381 12.0005 7.02051 12.8667 8.08789 12.8667H32C33.0674 12.8667 33.9336 12.0005 33.9336 10.9331C33.9336 9.86572 33.0674 8.99951 32 8.99951Z" fill="#1F613B"/>
<path d="M49.231 8.99951C48.1626 8.99951 47.2974 9.86572 47.2974 10.9331C47.2974 12.0005 48.1626 12.8667 49.231 12.8667C50.2983 12.8667 51.1646 12.0005 51.1646 10.9331C51.1646 9.86572 50.2983 8.99951 49.231 8.99951Z" fill="#1F613B"/>
<path d="M54.9028 8.99951C53.8345 8.99951 52.9692 9.86572 52.9692 10.9331C52.9692 12.0005 53.8345 12.8667 54.9028 12.8667C55.9702 12.8667 56.8364 12.0005 56.8364 10.9331C56.8364 9.86572 55.9702 8.99951 54.9028 8.99951Z" fill="#1F613B"/>
<path d="M24.1675 36.998C27.9731 36.998 31.041 33.917 31.041 30.1245C31.041 26.3193 27.9609 23.25 24.1675 23.25C20.3696 23.25 17.293 26.3237 17.293 30.1245C17.293 33.9097 20.3535 36.998 24.1675 36.998ZM24.1675 27.1172C25.8257 27.1172 27.1738 28.4595 27.1738 30.1245C27.1738 31.7939 25.8228 33.1309 24.1675 33.1309C22.5024 33.1309 21.1602 31.7832 21.1602 30.1245C21.1602 28.4653 22.5059 27.1172 24.1675 27.1172Z" fill="#B7AA74"/>
<path d="M32.959 45.7896C32.959 49.5952 36.0391 52.6641 39.8325 52.6641C43.6372 52.6641 46.707 49.583 46.707 45.7896C46.707 42.0044 43.6465 38.916 39.8325 38.916C36.0332 38.916 32.959 41.9907 32.959 45.7896ZM42.8398 45.7896C42.8398 47.4419 41.501 48.7969 39.8325 48.7969C38.1743 48.7969 36.8262 47.4551 36.8262 45.7896C36.8262 44.1265 38.1704 42.7832 39.8325 42.7832C41.4976 42.7832 42.8398 44.1309 42.8398 45.7896Z" fill="#B7AA74"/>
<path d="M22.3346 47.6226C23.088 48.376 24.3131 48.3784 25.069 47.6226L41.6656 31.0259C42.421 30.2715 42.421 29.0469 41.6656 28.2915C40.9103 27.5361 39.6857 27.5361 38.9313 28.2915L22.3346 44.8887C21.5792 45.6426 21.5792 46.8672 22.3346 47.6226Z" fill="#B7AA74"/>
</svg>
