<svg width="27" height="27" viewBox="0 0 27 27" fill="none" xmlns="http://www.w3.org/2000/svg">
<rect width="27" height="27" rx="2" fill="#28C66B"/>
<path d="M19.7368 15.5347C18.7499 15.5347 17.7832 15.3806 16.8669 15.0783C16.4198 14.9242 15.912 15.0429 15.6181 15.3427L13.8017 16.7145C11.7175 15.6021 10.3836 14.2691 9.28633 12.2L10.6211 10.4265C10.9571 10.0905 11.0775 9.59873 10.9335 9.13811C10.6286 8.216 10.4737 7.24842 10.4737 6.26316C10.4737 5.56672 9.90698 5 9.21054 5H6.26316C5.56672 5 5 5.56672 5 6.26316C5 14.3886 11.6114 21 19.7368 21C20.4333 21 21 20.4333 21 19.7368V16.7979C21 16.1015 20.4333 15.5347 19.7368 15.5347Z" fill="white"/>
</svg>
