<?xml version="1.0" encoding="utf-8"?>
<!-- Generator: Adobe Illustrator 25.2.1, SVG Export Plug-In . SVG Version: 6.00 Build 0)  -->
<svg version="1.1" id="Слой_1" xmlns="http://www.w3.org/2000/svg" xmlns:xlink="http://www.w3.org/1999/xlink" x="0px" y="0px"
	 viewBox="0 0 40 38" style="enable-background:new 0 0 40 38;" xml:space="preserve">
<style type="text/css">
	.st0{fill:#B7AA74;}
	.st1{fill:#D5C88E;}
</style>
<g>
	<path class="st0" d="M20,21l0.3-21l-5.1,14.2L20,21z"/>
	<path class="st1" d="M20,21l0.3-21l4.8,14.2L20,21z"/>
	<path class="st0" d="M40,14.2H25.1L20,21L40,14.2z"/>
	<path class="st1" d="M28.2,23.5L40,14.2L20,21L28.2,23.5z"/>
	<path class="st0" d="M28.2,23.5L20,21l12.4,17L28.2,23.5z"/>
	<path class="st1" d="M32.4,38L20,21v8.5L32.4,38z"/>
	<path class="st0" d="M20,29.5V21L7.9,37.4L20,29.5z"/>
	<path class="st1" d="M7.9,37.4L20,21l-7.9,2.3L7.9,37.4z"/>
	<path class="st0" d="M12.1,23.3L20,21L0,14.2L12.1,23.3z"/>
	<path class="st1" d="M0,14.2L20,21l-4.8-6.8H0z"/>
</g>
</svg>
