<?xml version="1.0" encoding="utf-8"?>
<!-- Generator: Adobe Illustrator 25.2.1, SVG Export Plug-In . SVG Version: 6.00 Build 0)  -->
<svg version="1.1" id="Слой_1" xmlns="http://www.w3.org/2000/svg" xmlns:xlink="http://www.w3.org/1999/xlink" x="0px" y="0px"
	 viewBox="0 0 215 215" style="enable-background:new 0 0 215 215;" xml:space="preserve">
<style type="text/css">
	.st0{fill:url(#SVGID_1_);}
	.st1{fill-rule:evenodd;clip-rule:evenodd;fill:#FFFFFF;}
</style>
<linearGradient id="SVGID_1_" gradientUnits="userSpaceOnUse" x1="0" y1="107.5" x2="215" y2="107.5">
	<stop  offset="0" style="stop-color:#2BA5CA"/>
	<stop  offset="1" style="stop-color:#279BC5"/>
</linearGradient>
<circle class="st0" cx="107.5" cy="107.5" r="107.5"/>
<path id="Telegram" class="st1" d="M49.3,105.6C80.6,92,101.4,83,111.8,78.7c29.8-12.4,36-14.5,40-14.6c0.9,0,2.9,0.2,4.2,1.2
	c1.1,0.9,1.4,2.1,1.5,2.9c0.1,0.8,0.3,2.7,0.2,4.2c-1.6,17-8.6,58.1-12.1,77.1c-1.5,8-4.5,10.7-7.3,11c-6.2,0.6-11-4.1-17-8.1
	c-9.4-6.2-14.8-10-23.9-16.1c-10.6-7-3.7-10.8,2.3-17.1c1.6-1.6,29-26.6,29.5-28.9c0.1-0.3,0.1-1.3-0.5-1.9
	c-0.6-0.6-1.6-0.4-2.2-0.2c-0.9,0.2-16,10.2-45.2,29.9c-4.3,2.9-8.2,4.4-11.6,4.3c-3.8-0.1-11.2-2.2-16.7-3.9
	c-6.7-2.2-12.1-3.3-11.6-7C41.6,109.6,44.2,107.7,49.3,105.6z"/>
</svg>
