<?xml version="1.0" encoding="utf-8"?>
<!-- Generator: Adobe Illustrator 25.2.1, SVG Export Plug-In . SVG Version: 6.00 Build 0)  -->
<svg version="1.1" id="Слой_1" xmlns="http://www.w3.org/2000/svg" xmlns:xlink="http://www.w3.org/1999/xlink" x="0px" y="0px"
	 viewBox="0 0 215 215" style="enable-background:new 0 0 215 215;" xml:space="preserve">
<style type="text/css">
	.st0{fill:#715DA9;}
	.st1{fill:#FFFFFF;}
</style>
<circle class="st0" cx="107.5" cy="107.5" r="107.5"/>
<path class="st1" d="M148.4,66.8c-2.8-2.5-13.9-10.6-38.7-10.7c0,0-29.3-1.8-43.6,11.3c-7.9,7.9-10.7,19.6-11,34
	c-0.3,14.4-0.7,41.4,25.4,48.8h0l0,11.2c0,0-0.2,4.5,2.8,5.4c3.6,1.1,5.7-2.3,9.2-6c1.9-2,4.5-5,6.5-7.3c17.8,1.5,31.5-1.9,33.1-2.4
	c3.6-1.2,23.9-3.8,27.3-30.8C162.6,92.4,157.5,74.8,148.4,66.8z M151.4,118.2c-2.8,22.6-19.3,24-22.3,25c-1.3,0.4-13.3,3.4-28.5,2.4
	c0,0-11.3,13.6-14.8,17.1c-0.5,0.6-1.2,0.8-1.6,0.7c-0.6-0.1-0.8-0.9-0.8-1.9c0-1.5,0.1-18.6,0.1-18.6s0,0,0,0
	c-22-6.1-20.7-29.1-20.5-41.2s2.5-21.9,9.2-28.5c12.1-10.9,36.9-9.3,36.9-9.3c21,0.1,31.1,6.4,33.4,8.5
	C150.3,79.1,154.3,95,151.4,118.2L151.4,118.2z"/>
<path class="st1" d="M119.9,102.2c-0.7,0-1.4-0.6-1.4-1.3c-0.2-4.8-2.5-7.1-7.1-7.3c-0.8,0-1.4-0.7-1.3-1.5c0-0.8,0.7-1.4,1.5-1.3
	c6.1,0.3,9.4,3.8,9.7,10C121.3,101.5,120.7,102.1,119.9,102.2C119.9,102.2,119.9,102.2,119.9,102.2z"/>
<path class="st1" d="M127.1,104.6C127.1,104.6,127,104.6,127.1,104.6c-0.8,0-1.4-0.7-1.4-1.4c0.1-4.8-1.3-8.7-4.2-11.9
	c-2.9-3.2-6.9-4.9-12.2-5.3c-0.8-0.1-1.4-0.7-1.3-1.5c0.1-0.8,0.7-1.4,1.5-1.3c6,0.4,10.7,2.5,14.1,6.2c3.4,3.7,5,8.4,4.9,13.8
	C128.5,104,127.8,104.6,127.1,104.6z"/>
<path class="st1" d="M134.4,107.5c-0.8,0-1.4-0.6-1.4-1.4c-0.1-8.5-2.6-15.2-7.6-20c-5-4.8-11.2-7.3-18.6-7.4
	c-0.8,0-1.4-0.6-1.4-1.4c0-0.8,0.6-1.4,1.4-1.4c0,0,0,0,0,0c8.2,0.1,15.1,2.8,20.6,8.2c5.5,5.4,8.3,12.8,8.4,22
	C135.8,106.8,135.2,107.5,134.4,107.5C134.4,107.5,134.4,107.5,134.4,107.5z"/>
<path class="st1" d="M111.7,119.6c0,0,2,0.2,3-1.1l2.1-2.6c1-1.3,3.4-2.1,5.8-0.8c1.8,1,3.5,2.1,5.1,3.3c1.6,1.2,4.8,3.8,4.8,3.8
	c1.5,1.3,1.9,3.2,0.8,5.2c0,0,0,0,0,0c-1.1,2-2.6,3.8-4.3,5.3c0,0,0,0,0,0c-1.5,1.2-2.9,1.9-4.4,2.1c-0.2,0-0.4,0.1-0.6,0
	c-0.6,0-1.3-0.1-1.9-0.3l0-0.1c-2.2-0.6-5.9-2.2-12-5.6c-3.6-1.9-6.9-4.2-10.1-6.7c-1.6-1.3-3.1-2.6-4.5-4l-0.2-0.2l-0.2-0.2l0,0
	l-0.2-0.2c-0.1,0-0.1-0.1-0.2-0.2c-1.4-1.4-2.8-3-4-4.5c-2.5-3.2-4.7-6.6-6.7-10.1c-3.4-6.1-4.9-9.8-5.6-12l-0.1,0
	c-0.2-0.6-0.3-1.2-0.3-1.9c0-0.2,0-0.4,0-0.6c0.2-1.4,0.9-2.9,2.1-4.4c0,0,0,0,0,0c1.5-1.7,3.3-3.2,5.3-4.3c0,0,0,0,0,0
	c2-1,3.9-0.7,5.2,0.8c0,0,2.7,3.2,3.8,4.8c1.2,1.7,2.3,3.4,3.3,5.2c1.3,2.4,0.5,4.8-0.8,5.8l-2.6,2.1c-1.3,1.1-1.1,3-1.1,3
	S97.3,115.9,111.7,119.6z"/>
</svg>
