<svg width="0" height="0" class="hidden">
  <symbol xmlns="http://www.w3.org/2000/svg" viewBox="0 0 289 492" id="next">
    <path d="M281.2 226.8L62.3 7.9C57.2 2.8 50.4 0 43.2 0s-14 2.8-19 7.9L8.1 24c-10.5 10.5-10.5 27.6 0 38L192 245.9 7.9 430C2.8 435 0 441.8 0 449c0 7.2 2.8 14 7.9 19L24 484.1c5.1 5.1 11.8 7.9 19 7.9s14-2.8 19-7.9L281.2 265c5.1-5.1 7.9-11.9 7.8-19.1.1-7.2-2.7-14-7.8-19.1z"></path>
  </symbol>
  <symbol xmlns="http://www.w3.org/2000/svg" viewBox="0 0 513.64 513.64" id="phone">
    <path d="M499.66 376.96l-71.68-71.68c-25.6-25.6-69.12-15.359-79.36 17.92-7.68 23.041-33.28 35.841-56.32 30.72-51.2-12.8-120.32-79.36-133.12-133.12-7.68-23.041 7.68-48.641 30.72-56.32 33.28-10.24 43.52-53.76 17.92-79.36l-71.68-71.68c-20.48-17.92-51.2-17.92-69.12 0L18.38 62.08c-48.64 51.2 5.12 186.88 125.44 307.2s256 176.641 307.2 125.44l48.64-48.64c17.921-20.48 17.921-51.2 0-69.12z"></path>
  </symbol>
  <symbol xmlns="http://www.w3.org/2000/svg" viewBox="0 0 341.3 512" id="pin">
    <path d="M170.7 0C76.6 0 0 76.6 0 170.7c0 28.2 7.1 56.3 20.5 81.1l140.8 254.7c1.9 3.4 5.4 5.5 9.3 5.5 3.9 0 7.5-2.1 9.3-5.5l140.9-254.8c13.4-24.8 20.4-52.8 20.4-81C341.3 76.6 264.8 0 170.7 0zm0 256c-47.1 0-85.3-38.3-85.3-85.3s38.3-85.3 85.3-85.3 85.3 38.3 85.3 85.3-38.3 85.3-85.3 85.3z"></path>
  </symbol>
</svg>