<?xml version="1.0" encoding="utf-8"?>
<!-- Generator: Adobe Illustrator 24.0.3, SVG Export Plug-In . SVG Version: 6.00 Build 0)  -->
<svg version="1.1" id="Слой_1" xmlns="http://www.w3.org/2000/svg" xmlns:xlink="http://www.w3.org/1999/xlink" x="0px" y="0px"
	 viewBox="0 0 172.4 173.8" style="enable-background:new 0 0 172.4 173.8;" xml:space="preserve">
<style type="text/css">
	.st0{fill:#0074EB;}
	.st1{fill:#FFFFFF;}
	.st2{fill:#010B17;}
</style>
<path class="st0" d="M5.6,31.7V5.6h25.8V0H0v31.7H5.6z"/>
<path class="st0" d="M172.4,31.7V0H141v5.6h25.9v26.1H172.4z"/>
<path class="st0" d="M0,142.1v31.7h31.4v-5.6H5.6v-26.1H0L0,142.1z"/>
<path class="st0" d="M166.8,142.1v26.1H141v5.6h31.4v-31.7H166.8z"/>
<path class="st1" d="M151,147.3h-5.9v5.9h5.9V147.3z"/>
<path class="st1" d="M151,141.4h-5.9v5.9h5.9V141.4z"/>
<path class="st1" d="M151,135.4h-5.9v5.9h5.9V135.4z"/>
<path class="st1" d="M151,129.5h-5.9v5.9h5.9V129.5z"/>
<path class="st1" d="M151,123.6h-5.9v5.9h5.9V123.6z"/>
<path class="st1" d="M151,117.7h-5.9v5.9h5.9V117.7z"/>
<path class="st1" d="M151,111.8h-5.9v5.9h5.9V111.8z"/>
<path class="st1" d="M151,105.9h-5.9v5.9h5.9V105.9z"/>
<path class="st1" d="M151,100h-5.9v5.9h5.9V100z"/>
<path class="st1" d="M151,94.1h-5.9v5.9h5.9V94.1z"/>
<path class="st1" d="M151,88.2h-5.9v5.9h5.9V88.2z"/>
<path class="st1" d="M151,82.3h-5.9v5.9h5.9V82.3z"/>
<path class="st1" d="M151,76.4h-5.9v5.9h5.9V76.4z"/>
<path class="st1" d="M151,70.4h-5.9v5.9h5.9V70.4z"/>
<path class="st1" d="M151,64.5h-5.9v5.9h5.9V64.5z"/>
<path class="st1" d="M151,58.6h-5.9v5.9h5.9V58.6z"/>
<path class="st1" d="M151,52.7h-5.9v5.9h5.9V52.7z"/>
<path class="st1" d="M151,46.8h-5.9v5.9h5.9V46.8z"/>
<path class="st1" d="M151,40.9h-5.9v5.9h5.9V40.9z"/>
<path class="st1" d="M151,35h-5.9v5.9h5.9V35z"/>
<path class="st1" d="M151,29.1h-5.9V35h5.9V29.1z"/>
<path class="st1" d="M151,23.2h-5.9v5.9h5.9V23.2z"/>
<path class="st1" d="M145.1,147.3h-5.9v5.9h5.9V147.3z"/>
<path class="st2" d="M145.1,141.4h-5.9v5.9h5.9V141.4z"/>
<path class="st2" d="M145.1,135.4h-5.9v5.9h5.9V135.4z"/>
<path class="st2" d="M145.1,129.5h-5.9v5.9h5.9V129.5z"/>
<path class="st1" d="M145.1,123.6h-5.9v5.9h5.9V123.6z"/>
<path class="st2" d="M145.1,117.7h-5.9v5.9h5.9V117.7z"/>
<path class="st2" d="M145.1,111.8h-5.9v5.9h5.9V111.8z"/>
<path class="st2" d="M145.1,105.9h-5.9v5.9h5.9V105.9z"/>
<path class="st2" d="M145.1,100h-5.9v5.9h5.9V100z"/>
<path class="st1" d="M145.1,94.1h-5.9v5.9h5.9V94.1z"/>
<path class="st2" d="M145.1,88.2h-5.9v5.9h5.9V88.2z"/>
<path class="st2" d="M145.1,82.3h-5.9v5.9h5.9V82.3z"/>
<path class="st1" d="M145.1,76.4h-5.9v5.9h5.9V76.4z"/>
<path class="st2" d="M145.1,70.4h-5.9v5.9h5.9V70.4z"/>
<path class="st2" d="M145.1,64.5h-5.9v5.9h5.9V64.5z"/>
<path class="st1" d="M145.1,58.6h-5.9v5.9h5.9V58.6z"/>
<path class="st2" d="M145.1,52.7h-5.9v5.9h5.9V52.7z"/>
<path class="st2" d="M145.1,46.8h-5.9v5.9h5.9V46.8z"/>
<path class="st2" d="M145.1,40.9h-5.9v5.9h5.9V40.9z"/>
<path class="st2" d="M145.1,35h-5.9v5.9h5.9V35z"/>
<path class="st2" d="M145.1,29.1h-5.9V35h5.9V29.1z"/>
<path class="st1" d="M145.1,23.2h-5.9v5.9h5.9V23.2z"/>
<path class="st1" d="M139.2,147.3h-5.9v5.9h5.9V147.3z"/>
<path class="st1" d="M139.2,141.4h-5.9v5.9h5.9V141.4z"/>
<path class="st1" d="M139.2,135.4h-5.9v5.9h5.9V135.4z"/>
<path class="st1" d="M139.2,129.5h-5.9v5.9h5.9V129.5z"/>
<path class="st2" d="M139.2,123.6h-5.9v5.9h5.9V123.6z"/>
<path class="st1" d="M139.2,117.7h-5.9v5.9h5.9V117.7z"/>
<path class="st1" d="M139.2,111.8h-5.9v5.9h5.9V111.8z"/>
<path class="st1" d="M139.2,105.9h-5.9v5.9h5.9V105.9z"/>
<path class="st2" d="M139.2,100h-5.9v5.9h5.9V100z"/>
<path class="st1" d="M139.2,94.1h-5.9v5.9h5.9V94.1z"/>
<path class="st1" d="M139.2,88.2h-5.9v5.9h5.9V88.2z"/>
<path class="st2" d="M139.2,82.3h-5.9v5.9h5.9V82.3z"/>
<path class="st1" d="M139.2,76.4h-5.9v5.9h5.9V76.4z"/>
<path class="st2" d="M139.2,70.4h-5.9v5.9h5.9V70.4z"/>
<path class="st1" d="M139.2,64.5h-5.9v5.9h5.9V64.5z"/>
<path class="st1" d="M139.2,58.6h-5.9v5.9h5.9V58.6z"/>
<path class="st2" d="M139.2,52.7h-5.9v5.9h5.9V52.7z"/>
<path class="st1" d="M139.2,46.8h-5.9v5.9h5.9V46.8z"/>
<path class="st1" d="M139.2,40.9h-5.9v5.9h5.9V40.9z"/>
<path class="st1" d="M139.2,35h-5.9v5.9h5.9V35z"/>
<path class="st2" d="M139.2,29.1h-5.9V35h5.9V29.1z"/>
<path class="st1" d="M139.2,23.2h-5.9v5.9h5.9V23.2z"/>
<path class="st1" d="M133.2,147.3h-5.9v5.9h5.9V147.3z"/>
<path class="st2" d="M133.2,141.4h-5.9v5.9h5.9V141.4z"/>
<path class="st1" d="M133.2,135.4h-5.9v5.9h5.9V135.4z"/>
<path class="st2" d="M133.2,129.5h-5.9v5.9h5.9V129.5z"/>
<path class="st1" d="M133.2,123.6h-5.9v5.9h5.9V123.6z"/>
<path class="st2" d="M133.2,117.7h-5.9v5.9h5.9V117.7z"/>
<path class="st1" d="M133.2,111.8h-5.9v5.9h5.9V111.8z"/>
<path class="st1" d="M133.2,105.9h-5.9v5.9h5.9V105.9z"/>
<path class="st2" d="M133.2,100h-5.9v5.9h5.9V100z"/>
<path class="st2" d="M133.2,94.1h-5.9v5.9h5.9V94.1z"/>
<path class="st2" d="M133.2,88.2h-5.9v5.9h5.9V88.2z"/>
<path class="st2" d="M133.2,82.3h-5.9v5.9h5.9V82.3z"/>
<path class="st2" d="M133.2,76.4h-5.9v5.9h5.9V76.4z"/>
<path class="st2" d="M133.2,70.4h-5.9v5.9h5.9V70.4z"/>
<path class="st1" d="M133.2,64.5h-5.9v5.9h5.9V64.5z"/>
<path class="st1" d="M133.2,58.6h-5.9v5.9h5.9V58.6z"/>
<path class="st2" d="M133.2,52.7h-5.9v5.9h5.9V52.7z"/>
<path class="st1" d="M133.2,46.8h-5.9v5.9h5.9V46.8z"/>
<path class="st2" d="M133.2,40.9h-5.9v5.9h5.9V40.9z"/>
<path class="st1" d="M133.2,35h-5.9v5.9h5.9V35z"/>
<path class="st2" d="M133.2,29.1h-5.9V35h5.9V29.1z"/>
<path class="st1" d="M133.2,23.2h-5.9v5.9h5.9V23.2z"/>
<path class="st1" d="M127.3,147.3h-5.9v5.9h5.9V147.3z"/>
<path class="st2" d="M127.3,141.4h-5.9v5.9h5.9V141.4z"/>
<path class="st1" d="M127.3,135.4h-5.9v5.9h5.9V135.4z"/>
<path class="st1" d="M127.3,129.5h-5.9v5.9h5.9V129.5z"/>
<path class="st1" d="M127.3,123.6h-5.9v5.9h5.9V123.6z"/>
<path class="st1" d="M127.3,117.7h-5.9v5.9h5.9V117.7z"/>
<path class="st1" d="M127.3,111.8h-5.9v5.9h5.9V111.8z"/>
<path class="st1" d="M127.3,105.9h-5.9v5.9h5.9V105.9z"/>
<path class="st1" d="M127.3,100h-5.9v5.9h5.9V100z"/>
<path class="st1" d="M127.3,94.1h-5.9v5.9h5.9V94.1z"/>
<path class="st1" d="M127.3,88.2h-5.9v5.9h5.9V88.2z"/>
<path class="st1" d="M127.3,82.3h-5.9v5.9h5.9V82.3z"/>
<path class="st1" d="M127.3,76.4h-5.9v5.9h5.9V76.4z"/>
<path class="st2" d="M127.3,70.4h-5.9v5.9h5.9V70.4z"/>
<path class="st1" d="M127.3,64.5h-5.9v5.9h5.9V64.5z"/>
<path class="st1" d="M127.3,58.6h-5.9v5.9h5.9V58.6z"/>
<path class="st2" d="M127.3,52.7h-5.9v5.9h5.9V52.7z"/>
<path class="st1" d="M127.3,46.8h-5.9v5.9h5.9V46.8z"/>
<path class="st1" d="M127.3,40.9h-5.9v5.9h5.9V40.9z"/>
<path class="st1" d="M127.3,35h-5.9v5.9h5.9V35z"/>
<path class="st2" d="M127.3,29.1h-5.9V35h5.9V29.1z"/>
<path class="st1" d="M127.3,23.2h-5.9v5.9h5.9V23.2z"/>
<path class="st1" d="M121.4,147.3h-5.9v5.9h5.9V147.3z"/>
<path class="st2" d="M121.4,141.4h-5.9v5.9h5.9V141.4z"/>
<path class="st1" d="M121.4,135.4h-5.9v5.9h5.9V135.4z"/>
<path class="st2" d="M121.4,129.5h-5.9v5.9h5.9V129.5z"/>
<path class="st1" d="M121.4,123.6h-5.9v5.9h5.9V123.6z"/>
<path class="st1" d="M121.4,117.7h-5.9v5.9h5.9V117.7z"/>
<path class="st1" d="M121.4,111.8h-5.9v5.9h5.9V111.8z"/>
<path class="st1" d="M121.4,105.9h-5.9v5.9h5.9V105.9z"/>
<path class="st1" d="M121.4,100h-5.9v5.9h5.9V100z"/>
<path class="st1" d="M121.4,94.1h-5.9v5.9h5.9V94.1z"/>
<path class="st2" d="M121.4,88.2h-5.9v5.9h5.9V88.2z"/>
<path class="st2" d="M121.4,82.3h-5.9v5.9h5.9V82.3z"/>
<path class="st1" d="M121.4,76.4h-5.9v5.9h5.9V76.4z"/>
<path class="st2" d="M121.4,70.4h-5.9v5.9h5.9V70.4z"/>
<path class="st2" d="M121.4,64.5h-5.9v5.9h5.9V64.5z"/>
<path class="st1" d="M121.4,58.6h-5.9v5.9h5.9V58.6z"/>
<path class="st2" d="M121.4,52.7h-5.9v5.9h5.9V52.7z"/>
<path class="st2" d="M121.4,46.8h-5.9v5.9h5.9V46.8z"/>
<path class="st2" d="M121.4,40.9h-5.9v5.9h5.9V40.9z"/>
<path class="st2" d="M121.4,35h-5.9v5.9h5.9V35z"/>
<path class="st2" d="M121.4,29.1h-5.9V35h5.9V29.1z"/>
<path class="st1" d="M121.4,23.2h-5.9v5.9h5.9V23.2z"/>
<path class="st1" d="M115.5,147.3h-5.9v5.9h5.9V147.3z"/>
<path class="st2" d="M115.5,141.4h-5.9v5.9h5.9V141.4z"/>
<path class="st1" d="M115.5,135.4h-5.9v5.9h5.9V135.4z"/>
<path class="st2" d="M115.5,129.5h-5.9v5.9h5.9V129.5z"/>
<path class="st1" d="M115.5,123.6h-5.9v5.9h5.9V123.6z"/>
<path class="st1" d="M115.5,117.7h-5.9v5.9h5.9V117.7z"/>
<path class="st2" d="M115.5,111.8h-5.9v5.9h5.9V111.8z"/>
<path class="st2" d="M115.5,105.9h-5.9v5.9h5.9V105.9z"/>
<path class="st1" d="M115.5,100h-5.9v5.9h5.9V100z"/>
<path class="st1" d="M115.5,94.1h-5.9v5.9h5.9V94.1z"/>
<path class="st2" d="M115.5,88.2h-5.9v5.9h5.9V88.2z"/>
<path class="st1" d="M115.5,82.3h-5.9v5.9h5.9V82.3z"/>
<path class="st1" d="M115.5,76.4h-5.9v5.9h5.9V76.4z"/>
<path class="st1" d="M115.5,70.4h-5.9v5.9h5.9V70.4z"/>
<path class="st1" d="M115.5,64.5h-5.9v5.9h5.9V64.5z"/>
<path class="st1" d="M115.5,58.6h-5.9v5.9h5.9V58.6z"/>
<path class="st1" d="M115.5,52.7h-5.9v5.9h5.9V52.7z"/>
<path class="st1" d="M115.5,46.8h-5.9v5.9h5.9V46.8z"/>
<path class="st1" d="M115.5,40.9h-5.9v5.9h5.9V40.9z"/>
<path class="st1" d="M115.5,35h-5.9v5.9h5.9V35z"/>
<path class="st1" d="M115.5,29.1h-5.9V35h5.9V29.1z"/>
<path class="st1" d="M115.5,23.2h-5.9v5.9h5.9V23.2z"/>
<path class="st1" d="M109.6,147.3h-5.9v5.9h5.9V147.3z"/>
<path class="st2" d="M109.6,141.4h-5.9v5.9h5.9V141.4z"/>
<path class="st1" d="M109.6,135.4h-5.9v5.9h5.9V135.4z"/>
<path class="st2" d="M109.6,129.5h-5.9v5.9h5.9V129.5z"/>
<path class="st1" d="M109.6,123.6h-5.9v5.9h5.9V123.6z"/>
<path class="st2" d="M109.6,117.7h-5.9v5.9h5.9V117.7z"/>
<path class="st2" d="M109.6,111.8h-5.9v5.9h5.9V111.8z"/>
<path class="st2" d="M109.6,105.9h-5.9v5.9h5.9V105.9z"/>
<path class="st2" d="M109.6,100h-5.9v5.9h5.9V100z"/>
<path class="st1" d="M109.6,94.1h-5.9v5.9h5.9V94.1z"/>
<path class="st2" d="M109.6,88.2h-5.9v5.9h5.9V88.2z"/>
<path class="st2" d="M109.6,82.3h-5.9v5.9h5.9V82.3z"/>
<path class="st1" d="M109.6,76.4h-5.9v5.9h5.9V76.4z"/>
<path class="st1" d="M109.6,70.4h-5.9v5.9h5.9V70.4z"/>
<path class="st2" d="M109.6,64.5h-5.9v5.9h5.9V64.5z"/>
<path class="st1" d="M109.6,58.6h-5.9v5.9h5.9V58.6z"/>
<path class="st1" d="M109.6,52.7h-5.9v5.9h5.9V52.7z"/>
<path class="st2" d="M109.6,46.8h-5.9v5.9h5.9V46.8z"/>
<path class="st1" d="M109.6,40.9h-5.9v5.9h5.9V40.9z"/>
<path class="st1" d="M109.6,35h-5.9v5.9h5.9V35z"/>
<path class="st2" d="M109.6,29.1h-5.9V35h5.9V29.1z"/>
<path class="st1" d="M109.6,23.2h-5.9v5.9h5.9V23.2z"/>
<path class="st1" d="M103.7,147.3h-5.9v5.9h5.9V147.3z"/>
<path class="st1" d="M103.7,141.4h-5.9v5.9h5.9V141.4z"/>
<path class="st1" d="M103.7,135.4h-5.9v5.9h5.9V135.4z"/>
<path class="st2" d="M103.7,129.5h-5.9v5.9h5.9V129.5z"/>
<path class="st1" d="M103.7,123.6h-5.9v5.9h5.9V123.6z"/>
<path class="st2" d="M103.7,117.7h-5.9v5.9h5.9V117.7z"/>
<path class="st1" d="M103.7,111.8h-5.9v5.9h5.9V111.8z"/>
<path class="st1" d="M103.7,105.9h-5.9v5.9h5.9V105.9z"/>
<path class="st2" d="M103.7,100h-5.9v5.9h5.9V100z"/>
<path class="st1" d="M103.7,94.1h-5.9v5.9h5.9V94.1z"/>
<path class="st1" d="M103.7,88.2h-5.9v5.9h5.9V88.2z"/>
<path class="st1" d="M103.7,82.3h-5.9v5.9h5.9V82.3z"/>
<path class="st1" d="M103.7,76.4h-5.9v5.9h5.9V76.4z"/>
<path class="st1" d="M103.7,70.4h-5.9v5.9h5.9V70.4z"/>
<path class="st2" d="M103.7,64.5h-5.9v5.9h5.9V64.5z"/>
<path class="st2" d="M103.7,58.6h-5.9v5.9h5.9V58.6z"/>
<path class="st1" d="M103.7,52.7h-5.9v5.9h5.9V52.7z"/>
<path class="st1" d="M103.7,46.8h-5.9v5.9h5.9V46.8z"/>
<path class="st2" d="M103.7,40.9h-5.9v5.9h5.9V40.9z"/>
<path class="st2" d="M103.7,35h-5.9v5.9h5.9V35z"/>
<path class="st2" d="M103.7,29.1h-5.9V35h5.9V29.1z"/>
<path class="st1" d="M103.7,23.2h-5.9v5.9h5.9V23.2z"/>
<path class="st1" d="M97.8,147.3h-5.9v5.9h5.9V147.3z"/>
<path class="st2" d="M97.8,141.4h-5.9v5.9h5.9V141.4z"/>
<path class="st1" d="M97.8,135.4h-5.9v5.9h5.9V135.4z"/>
<path class="st1" d="M97.8,129.5h-5.9v5.9h5.9V129.5z"/>
<path class="st1" d="M97.8,123.6h-5.9v5.9h5.9V123.6z"/>
<path class="st1" d="M97.8,117.7h-5.9v5.9h5.9V117.7z"/>
<path class="st2" d="M97.8,111.8h-5.9v5.9h5.9V111.8z"/>
<path class="st1" d="M97.8,105.9h-5.9v5.9h5.9V105.9z"/>
<path class="st1" d="M97.8,100h-5.9v5.9h5.9V100z"/>
<path class="st2" d="M97.8,94.1h-5.9v5.9h5.9V94.1z"/>
<path class="st2" d="M97.8,88.2h-5.9v5.9h5.9V88.2z"/>
<path class="st2" d="M97.8,82.3h-5.9v5.9h5.9V82.3z"/>
<path class="st2" d="M97.8,76.4h-5.9v5.9h5.9V76.4z"/>
<path class="st1" d="M97.8,70.4h-5.9v5.9h5.9V70.4z"/>
<path class="st2" d="M97.8,64.5h-5.9v5.9h5.9V64.5z"/>
<path class="st1" d="M97.8,58.6h-5.9v5.9h5.9V58.6z"/>
<path class="st2" d="M97.8,52.7h-5.9v5.9h5.9V52.7z"/>
<path class="st1" d="M97.8,46.8h-5.9v5.9h5.9V46.8z"/>
<path class="st2" d="M97.8,40.9h-5.9v5.9h5.9V40.9z"/>
<path class="st1" d="M97.8,35h-5.9v5.9h5.9V35z"/>
<path class="st2" d="M97.8,29.1h-5.9V35h5.9V29.1z"/>
<path class="st1" d="M97.8,23.2h-5.9v5.9h5.9V23.2z"/>
<path class="st1" d="M91.9,147.3H86v5.9h5.9V147.3z"/>
<path class="st1" d="M91.9,141.4H86v5.9h5.9V141.4z"/>
<path class="st2" d="M91.9,135.4H86v5.9h5.9V135.4z"/>
<path class="st2" d="M91.9,129.5H86v5.9h5.9V129.5z"/>
<path class="st2" d="M91.9,123.6H86v5.9h5.9V123.6z"/>
<path class="st2" d="M91.9,117.7H86v5.9h5.9V117.7z"/>
<path class="st2" d="M91.9,111.8H86v5.9h5.9V111.8z"/>
<path class="st1" d="M91.9,105.9H86v5.9h5.9V105.9z"/>
<path class="st1" d="M91.9,100H86v5.9h5.9V100z"/>
<path class="st1" d="M91.9,94.1H86v5.9h5.9V94.1z"/>
<path class="st1" d="M91.9,88.2H86v5.9h5.9V88.2z"/>
<path class="st1" d="M91.9,82.3H86v5.9h5.9V82.3z"/>
<path class="st1" d="M91.9,76.4H86v5.9h5.9V76.4z"/>
<path class="st1" d="M91.9,70.4H86v5.9h5.9V70.4z"/>
<path class="st1" d="M91.9,64.5H86v5.9h5.9V64.5z"/>
<path class="st1" d="M91.9,58.6H86v5.9h5.9V58.6z"/>
<path class="st1" d="M91.9,52.7H86v5.9h5.9V52.7z"/>
<path class="st1" d="M91.9,46.8H86v5.9h5.9V46.8z"/>
<path class="st1" d="M91.9,40.9H86v5.9h5.9V40.9z"/>
<path class="st1" d="M91.9,35H86v5.9h5.9V35z"/>
<path class="st2" d="M91.9,29.1H86V35h5.9V29.1z"/>
<path class="st1" d="M91.9,23.2H86v5.9h5.9V23.2z"/>
<path class="st1" d="M86,147.3h-5.9v5.9H86V147.3z"/>
<path class="st2" d="M86,141.4h-5.9v5.9H86V141.4z"/>
<path class="st1" d="M86,135.4h-5.9v5.9H86V135.4z"/>
<path class="st1" d="M86,129.5h-5.9v5.9H86V129.5z"/>
<path class="st1" d="M86,123.6h-5.9v5.9H86V123.6z"/>
<path class="st1" d="M86,117.7h-5.9v5.9H86V117.7z"/>
<path class="st1" d="M86,111.8h-5.9v5.9H86V111.8z"/>
<path class="st1" d="M86,105.9h-5.9v5.9H86V105.9z"/>
<path class="st1" d="M86,100h-5.9v5.9H86V100z"/>
<path class="st1" d="M86,94.1h-5.9v5.9H86V94.1z"/>
<path class="st1" d="M86,88.2h-5.9v5.9H86V88.2z"/>
<path class="st1" d="M86,82.3h-5.9v5.9H86V82.3z"/>
<path class="st2" d="M86,76.4h-5.9v5.9H86V76.4z"/>
<path class="st1" d="M86,70.4h-5.9v5.9H86V70.4z"/>
<path class="st1" d="M86,64.5h-5.9v5.9H86V64.5z"/>
<path class="st2" d="M86,58.6h-5.9v5.9H86V58.6z"/>
<path class="st2" d="M86,52.7h-5.9v5.9H86V52.7z"/>
<path class="st1" d="M86,46.8h-5.9v5.9H86V46.8z"/>
<path class="st1" d="M86,40.9h-5.9v5.9H86V40.9z"/>
<path class="st2" d="M86,35h-5.9v5.9H86V35z"/>
<path class="st1" d="M86,29.1h-5.9V35H86V29.1z"/>
<path class="st1" d="M86,23.2h-5.9v5.9H86V23.2z"/>
<path class="st1" d="M80.1,147.3h-5.9v5.9h5.9V147.3z"/>
<path class="st2" d="M80.1,141.4h-5.9v5.9h5.9V141.4z"/>
<path class="st1" d="M80.1,135.4h-5.9v5.9h5.9V135.4z"/>
<path class="st1" d="M80.1,129.5h-5.9v5.9h5.9V129.5z"/>
<path class="st1" d="M80.1,123.6h-5.9v5.9h5.9V123.6z"/>
<path class="st2" d="M80.1,117.7h-5.9v5.9h5.9V117.7z"/>
<path class="st1" d="M80.1,111.8h-5.9v5.9h5.9V111.8z"/>
<path class="st1" d="M80.1,105.9h-5.9v5.9h5.9V105.9z"/>
<path class="st1" d="M80.1,100h-5.9v5.9h5.9V100z"/>
<path class="st2" d="M80.1,94.1h-5.9v5.9h5.9V94.1z"/>
<path class="st1" d="M80.1,88.2h-5.9v5.9h5.9V88.2z"/>
<path class="st2" d="M80.1,82.3h-5.9v5.9h5.9V82.3z"/>
<path class="st1" d="M80.1,76.4h-5.9v5.9h5.9V76.4z"/>
<path class="st1" d="M80.1,70.4h-5.9v5.9h5.9V70.4z"/>
<path class="st2" d="M80.1,64.5h-5.9v5.9h5.9V64.5z"/>
<path class="st2" d="M80.1,58.6h-5.9v5.9h5.9V58.6z"/>
<path class="st2" d="M80.1,52.7h-5.9v5.9h5.9V52.7z"/>
<path class="st2" d="M80.1,46.8h-5.9v5.9h5.9V46.8z"/>
<path class="st2" d="M80.1,40.9h-5.9v5.9h5.9V40.9z"/>
<path class="st2" d="M80.1,35h-5.9v5.9h5.9V35z"/>
<path class="st2" d="M80.1,29.1h-5.9V35h5.9V29.1z"/>
<path class="st1" d="M80.1,23.2h-5.9v5.9h5.9V23.2z"/>
<path class="st1" d="M74.2,147.3h-5.9v5.9h5.9V147.3z"/>
<path class="st1" d="M74.2,141.4h-5.9v5.9h5.9V141.4z"/>
<path class="st1" d="M74.2,135.4h-5.9v5.9h5.9V135.4z"/>
<path class="st1" d="M74.2,129.5h-5.9v5.9h5.9V129.5z"/>
<path class="st1" d="M74.2,123.6h-5.9v5.9h5.9V123.6z"/>
<path class="st2" d="M74.2,117.7h-5.9v5.9h5.9V117.7z"/>
<path class="st2" d="M74.2,111.8h-5.9v5.9h5.9V111.8z"/>
<path class="st2" d="M74.2,105.9h-5.9v5.9h5.9V105.9z"/>
<path class="st2" d="M74.2,100h-5.9v5.9h5.9V100z"/>
<path class="st1" d="M74.2,94.1h-5.9v5.9h5.9V94.1z"/>
<path class="st2" d="M74.2,88.2h-5.9v5.9h5.9V88.2z"/>
<path class="st2" d="M74.2,82.3h-5.9v5.9h5.9V82.3z"/>
<path class="st2" d="M74.2,76.4h-5.9v5.9h5.9V76.4z"/>
<path class="st1" d="M74.2,70.4h-5.9v5.9h5.9V70.4z"/>
<path class="st2" d="M74.2,64.5h-5.9v5.9h5.9V64.5z"/>
<path class="st1" d="M74.2,58.6h-5.9v5.9h5.9V58.6z"/>
<path class="st2" d="M74.2,52.7h-5.9v5.9h5.9V52.7z"/>
<path class="st1" d="M74.2,46.8h-5.9v5.9h5.9V46.8z"/>
<path class="st1" d="M74.2,40.9h-5.9v5.9h5.9V40.9z"/>
<path class="st2" d="M74.2,35h-5.9v5.9h5.9V35z"/>
<path class="st1" d="M74.2,29.1h-5.9V35h5.9V29.1z"/>
<path class="st1" d="M74.2,23.2h-5.9v5.9h5.9V23.2z"/>
<path class="st1" d="M68.2,147.3h-5.9v5.9h5.9V147.3z"/>
<path class="st2" d="M68.2,141.4h-5.9v5.9h5.9V141.4z"/>
<path class="st2" d="M68.2,135.4h-5.9v5.9h5.9V135.4z"/>
<path class="st2" d="M68.2,129.5h-5.9v5.9h5.9V129.5z"/>
<path class="st2" d="M68.2,123.6h-5.9v5.9h5.9V123.6z"/>
<path class="st2" d="M68.2,117.7h-5.9v5.9h5.9V117.7z"/>
<path class="st1" d="M68.2,111.8h-5.9v5.9h5.9V111.8z"/>
<path class="st1" d="M68.2,105.9h-5.9v5.9h5.9V105.9z"/>
<path class="st1" d="M68.2,100h-5.9v5.9h5.9V100z"/>
<path class="st1" d="M68.2,94.1h-5.9v5.9h5.9V94.1z"/>
<path class="st1" d="M68.2,88.2h-5.9v5.9h5.9V88.2z"/>
<path class="st1" d="M68.2,82.3h-5.9v5.9h5.9V82.3z"/>
<path class="st1" d="M68.2,76.4h-5.9v5.9h5.9V76.4z"/>
<path class="st1" d="M68.2,70.4h-5.9v5.9h5.9V70.4z"/>
<path class="st2" d="M68.2,64.5h-5.9v5.9h5.9V64.5z"/>
<path class="st1" d="M68.2,58.6h-5.9v5.9h5.9V58.6z"/>
<path class="st1" d="M68.2,52.7h-5.9v5.9h5.9V52.7z"/>
<path class="st2" d="M68.2,46.8h-5.9v5.9h5.9V46.8z"/>
<path class="st1" d="M68.2,40.9h-5.9v5.9h5.9V40.9z"/>
<path class="st2" d="M68.2,35h-5.9v5.9h5.9V35z"/>
<path class="st1" d="M68.2,29.1h-5.9V35h5.9V29.1z"/>
<path class="st1" d="M68.2,23.2h-5.9v5.9h5.9V23.2z"/>
<path class="st1" d="M62.3,147.3h-5.9v5.9h5.9V147.3z"/>
<path class="st1" d="M62.3,141.4h-5.9v5.9h5.9V141.4z"/>
<path class="st1" d="M62.3,135.4h-5.9v5.9h5.9V135.4z"/>
<path class="st1" d="M62.3,129.5h-5.9v5.9h5.9V129.5z"/>
<path class="st1" d="M62.3,123.6h-5.9v5.9h5.9V123.6z"/>
<path class="st1" d="M62.3,117.7h-5.9v5.9h5.9V117.7z"/>
<path class="st1" d="M62.3,111.8h-5.9v5.9h5.9V111.8z"/>
<path class="st2" d="M62.3,105.9h-5.9v5.9h5.9V105.9z"/>
<path class="st2" d="M62.3,100h-5.9v5.9h5.9V100z"/>
<path class="st2" d="M62.3,94.1h-5.9v5.9h5.9V94.1z"/>
<path class="st1" d="M62.3,88.2h-5.9v5.9h5.9V88.2z"/>
<path class="st1" d="M62.3,82.3h-5.9v5.9h5.9V82.3z"/>
<path class="st2" d="M62.3,76.4h-5.9v5.9h5.9V76.4z"/>
<path class="st2" d="M62.3,70.4h-5.9v5.9h5.9V70.4z"/>
<path class="st2" d="M62.3,64.5h-5.9v5.9h5.9V64.5z"/>
<path class="st1" d="M62.3,58.6h-5.9v5.9h5.9V58.6z"/>
<path class="st1" d="M62.3,52.7h-5.9v5.9h5.9V52.7z"/>
<path class="st1" d="M62.3,46.8h-5.9v5.9h5.9V46.8z"/>
<path class="st1" d="M62.3,40.9h-5.9v5.9h5.9V40.9z"/>
<path class="st1" d="M62.3,35h-5.9v5.9h5.9V35z"/>
<path class="st1" d="M62.3,29.1h-5.9V35h5.9V29.1z"/>
<path class="st1" d="M62.3,23.2h-5.9v5.9h5.9V23.2z"/>
<path class="st1" d="M56.4,147.3h-5.9v5.9h5.9V147.3z"/>
<path class="st2" d="M56.4,141.4h-5.9v5.9h5.9V141.4z"/>
<path class="st2" d="M56.4,135.4h-5.9v5.9h5.9V135.4z"/>
<path class="st2" d="M56.4,129.5h-5.9v5.9h5.9V129.5z"/>
<path class="st2" d="M56.4,123.6h-5.9v5.9h5.9V123.6z"/>
<path class="st2" d="M56.4,117.7h-5.9v5.9h5.9V117.7z"/>
<path class="st1" d="M56.4,111.8h-5.9v5.9h5.9V111.8z"/>
<path class="st1" d="M56.4,105.9h-5.9v5.9h5.9V105.9z"/>
<path class="st1" d="M56.4,100h-5.9v5.9h5.9V100z"/>
<path class="st2" d="M56.4,94.1h-5.9v5.9h5.9V94.1z"/>
<path class="st1" d="M56.4,88.2h-5.9v5.9h5.9V88.2z"/>
<path class="st1" d="M56.4,82.3h-5.9v5.9h5.9V82.3z"/>
<path class="st1" d="M56.4,76.4h-5.9v5.9h5.9V76.4z"/>
<path class="st1" d="M56.4,70.4h-5.9v5.9h5.9V70.4z"/>
<path class="st2" d="M56.4,64.5h-5.9v5.9h5.9V64.5z"/>
<path class="st1" d="M56.4,58.6h-5.9v5.9h5.9V58.6z"/>
<path class="st2" d="M56.4,52.7h-5.9v5.9h5.9V52.7z"/>
<path class="st2" d="M56.4,46.8h-5.9v5.9h5.9V46.8z"/>
<path class="st2" d="M56.4,40.9h-5.9v5.9h5.9V40.9z"/>
<path class="st2" d="M56.4,35h-5.9v5.9h5.9V35z"/>
<path class="st2" d="M56.4,29.1h-5.9V35h5.9V29.1z"/>
<path class="st1" d="M56.4,23.2h-5.9v5.9h5.9V23.2z"/>
<path class="st1" d="M50.5,147.3h-5.9v5.9h5.9V147.3z"/>
<path class="st2" d="M50.5,141.4h-5.9v5.9h5.9V141.4z"/>
<path class="st1" d="M50.5,135.4h-5.9v5.9h5.9V135.4z"/>
<path class="st1" d="M50.5,129.5h-5.9v5.9h5.9V129.5z"/>
<path class="st1" d="M50.5,123.6h-5.9v5.9h5.9V123.6z"/>
<path class="st2" d="M50.5,117.7h-5.9v5.9h5.9V117.7z"/>
<path class="st1" d="M50.5,111.8h-5.9v5.9h5.9V111.8z"/>
<path class="st1" d="M50.5,105.9h-5.9v5.9h5.9V105.9z"/>
<path class="st1" d="M50.5,100h-5.9v5.9h5.9V100z"/>
<path class="st2" d="M50.5,94.1h-5.9v5.9h5.9V94.1z"/>
<path class="st1" d="M50.5,88.2h-5.9v5.9h5.9V88.2z"/>
<path class="st2" d="M50.5,82.3h-5.9v5.9h5.9V82.3z"/>
<path class="st1" d="M50.5,76.4h-5.9v5.9h5.9V76.4z"/>
<path class="st1" d="M50.5,70.4h-5.9v5.9h5.9V70.4z"/>
<path class="st2" d="M50.5,64.5h-5.9v5.9h5.9V64.5z"/>
<path class="st1" d="M50.5,58.6h-5.9v5.9h5.9V58.6z"/>
<path class="st2" d="M50.5,52.7h-5.9v5.9h5.9V52.7z"/>
<path class="st1" d="M50.5,46.8h-5.9v5.9h5.9V46.8z"/>
<path class="st1" d="M50.5,40.9h-5.9v5.9h5.9V40.9z"/>
<path class="st1" d="M50.5,35h-5.9v5.9h5.9V35z"/>
<path class="st2" d="M50.5,29.1h-5.9V35h5.9V29.1z"/>
<path class="st1" d="M50.5,23.2h-5.9v5.9h5.9V23.2z"/>
<path class="st1" d="M44.6,147.3h-5.9v5.9h5.9V147.3z"/>
<path class="st2" d="M44.6,141.4h-5.9v5.9h5.9V141.4z"/>
<path class="st1" d="M44.6,135.4h-5.9v5.9h5.9V135.4z"/>
<path class="st2" d="M44.6,129.5h-5.9v5.9h5.9V129.5z"/>
<path class="st1" d="M44.6,123.6h-5.9v5.9h5.9V123.6z"/>
<path class="st2" d="M44.6,117.7h-5.9v5.9h5.9V117.7z"/>
<path class="st1" d="M44.6,111.8h-5.9v5.9h5.9V111.8z"/>
<path class="st2" d="M44.6,105.9h-5.9v5.9h5.9V105.9z"/>
<path class="st1" d="M44.6,100h-5.9v5.9h5.9V100z"/>
<path class="st2" d="M44.6,94.1h-5.9v5.9h5.9V94.1z"/>
<path class="st1" d="M44.6,88.2h-5.9v5.9h5.9V88.2z"/>
<path class="st2" d="M44.6,82.3h-5.9v5.9h5.9V82.3z"/>
<path class="st1" d="M44.6,76.4h-5.9v5.9h5.9V76.4z"/>
<path class="st1" d="M44.6,70.4h-5.9v5.9h5.9V70.4z"/>
<path class="st1" d="M44.6,64.5h-5.9v5.9h5.9V64.5z"/>
<path class="st1" d="M44.6,58.6h-5.9v5.9h5.9V58.6z"/>
<path class="st2" d="M44.6,52.7h-5.9v5.9h5.9V52.7z"/>
<path class="st1" d="M44.6,46.8h-5.9v5.9h5.9V46.8z"/>
<path class="st2" d="M44.6,40.9h-5.9v5.9h5.9V40.9z"/>
<path class="st1" d="M44.6,35h-5.9v5.9h5.9V35z"/>
<path class="st2" d="M44.6,29.1h-5.9V35h5.9V29.1z"/>
<path class="st1" d="M44.6,23.2h-5.9v5.9h5.9V23.2z"/>
<path class="st1" d="M38.7,147.3h-5.9v5.9h5.9V147.3z"/>
<path class="st2" d="M38.7,141.4h-5.9v5.9h5.9V141.4z"/>
<path class="st1" d="M38.7,135.4h-5.9v5.9h5.9V135.4z"/>
<path class="st1" d="M38.7,129.5h-5.9v5.9h5.9V129.5z"/>
<path class="st1" d="M38.7,123.6h-5.9v5.9h5.9V123.6z"/>
<path class="st2" d="M38.7,117.7h-5.9v5.9h5.9V117.7z"/>
<path class="st1" d="M38.7,111.8h-5.9v5.9h5.9V111.8z"/>
<path class="st1" d="M38.7,105.9h-5.9v5.9h5.9V105.9z"/>
<path class="st2" d="M38.7,100h-5.9v5.9h5.9V100z"/>
<path class="st2" d="M38.7,94.1h-5.9v5.9h5.9V94.1z"/>
<path class="st1" d="M38.7,88.2h-5.9v5.9h5.9V88.2z"/>
<path class="st2" d="M38.7,82.3h-5.9v5.9h5.9V82.3z"/>
<path class="st1" d="M38.7,76.4h-5.9v5.9h5.9V76.4z"/>
<path class="st2" d="M38.7,70.4h-5.9v5.9h5.9V70.4z"/>
<path class="st2" d="M38.7,64.5h-5.9v5.9h5.9V64.5z"/>
<path class="st1" d="M38.7,58.6h-5.9v5.9h5.9V58.6z"/>
<path class="st2" d="M38.7,52.7h-5.9v5.9h5.9V52.7z"/>
<path class="st1" d="M38.7,46.8h-5.9v5.9h5.9V46.8z"/>
<path class="st1" d="M38.7,40.9h-5.9v5.9h5.9V40.9z"/>
<path class="st1" d="M38.7,35h-5.9v5.9h5.9V35z"/>
<path class="st2" d="M38.7,29.1h-5.9V35h5.9V29.1z"/>
<path class="st1" d="M38.7,23.2h-5.9v5.9h5.9V23.2z"/>
<path class="st1" d="M32.8,147.3h-5.9v5.9h5.9V147.3z"/>
<path class="st2" d="M32.8,141.4h-5.9v5.9h5.9V141.4z"/>
<path class="st2" d="M32.8,135.4h-5.9v5.9h5.9V135.4z"/>
<path class="st2" d="M32.8,129.5h-5.9v5.9h5.9V129.5z"/>
<path class="st2" d="M32.8,123.6h-5.9v5.9h5.9V123.6z"/>
<path class="st2" d="M32.8,117.7h-5.9v5.9h5.9V117.7z"/>
<path class="st1" d="M32.8,111.8h-5.9v5.9h5.9V111.8z"/>
<path class="st2" d="M32.8,105.9h-5.9v5.9h5.9V105.9z"/>
<path class="st1" d="M32.8,100h-5.9v5.9h5.9V100z"/>
<path class="st1" d="M32.8,94.1h-5.9v5.9h5.9V94.1z"/>
<path class="st2" d="M32.8,88.2h-5.9v5.9h5.9V88.2z"/>
<path class="st2" d="M32.8,82.3h-5.9v5.9h5.9V82.3z"/>
<path class="st1" d="M32.8,76.4h-5.9v5.9h5.9V76.4z"/>
<path class="st2" d="M32.8,70.4h-5.9v5.9h5.9V70.4z"/>
<path class="st2" d="M32.8,64.5h-5.9v5.9h5.9V64.5z"/>
<path class="st1" d="M32.8,58.6h-5.9v5.9h5.9V58.6z"/>
<path class="st2" d="M32.8,52.7h-5.9v5.9h5.9V52.7z"/>
<path class="st2" d="M32.8,46.8h-5.9v5.9h5.9V46.8z"/>
<path class="st2" d="M32.8,40.9h-5.9v5.9h5.9V40.9z"/>
<path class="st2" d="M32.8,35h-5.9v5.9h5.9V35z"/>
<path class="st2" d="M32.8,29.1h-5.9V35h5.9V29.1z"/>
<path class="st1" d="M32.8,23.2h-5.9v5.9h5.9V23.2z"/>
<path class="st1" d="M26.9,147.3H21v5.9h5.9V147.3z"/>
<path class="st1" d="M26.9,141.4H21v5.9h5.9V141.4z"/>
<path class="st1" d="M26.9,135.4H21v5.9h5.9V135.4z"/>
<path class="st1" d="M26.9,129.5H21v5.9h5.9V129.5z"/>
<path class="st1" d="M26.9,123.6H21v5.9h5.9V123.6z"/>
<path class="st1" d="M26.9,117.7H21v5.9h5.9V117.7z"/>
<path class="st1" d="M26.9,111.8H21v5.9h5.9V111.8z"/>
<path class="st1" d="M26.9,105.9H21v5.9h5.9V105.9z"/>
<path class="st1" d="M26.9,100H21v5.9h5.9V100z"/>
<path class="st1" d="M26.9,94.1H21v5.9h5.9V94.1z"/>
<path class="st1" d="M26.9,88.2H21v5.9h5.9V88.2z"/>
<path class="st1" d="M26.9,82.3H21v5.9h5.9V82.3z"/>
<path class="st1" d="M26.9,76.4H21v5.9h5.9V76.4z"/>
<path class="st1" d="M26.9,70.4H21v5.9h5.9V70.4z"/>
<path class="st1" d="M26.9,64.5H21v5.9h5.9V64.5z"/>
<path class="st1" d="M26.9,58.6H21v5.9h5.9V58.6z"/>
<path class="st1" d="M26.9,52.7H21v5.9h5.9V52.7z"/>
<path class="st1" d="M26.9,46.8H21v5.9h5.9V46.8z"/>
<path class="st1" d="M26.9,40.9H21v5.9h5.9V40.9z"/>
<path class="st1" d="M26.9,35H21v5.9h5.9V35z"/>
<path class="st1" d="M26.9,29.1H21V35h5.9V29.1z"/>
<path class="st1" d="M26.8,23.2h-5.9v5.9h5.9V23.2z"/>
</svg>
