<svg width="14" height="14" viewBox="0 0 14 14" fill="none" xmlns="http://www.w3.org/2000/svg">
<g clip-path="url(#clip0)">
<path d="M12.9752 1.27274H2.54545C2.51404 1.27274 2.48537 1.28455 2.45593 1.29341L2.19957 0.450993C2.11805 0.183094 1.87094 0 1.5909 0H0.318192C0.142466 0 0 0.142466 0 0.318192V0.954546C0 1.13027 0.142466 1.27274 0.318192 1.27274H1.11956L3.10758 7.80571L2.3651 8.67193C2.07163 9.01429 1.93949 9.48601 2.07456 9.91621C2.2473 10.4664 2.7329 10.8182 3.29277 10.8182H12.4091C12.5848 10.8182 12.7273 10.6757 12.7273 10.5V9.86362C12.7273 9.6879 12.5848 9.54543 12.4091 9.54543H3.29274L4.30136 8.36871C4.32672 8.33912 4.34536 8.30571 4.3646 8.27269H10.5305C11.0236 8.27269 11.4724 7.98788 11.6824 7.54166L13.9028 2.82352C13.9664 2.68773 14 2.53703 14 2.38756V2.29744C14 1.73155 13.5412 1.27274 12.9752 1.27274Z" fill="#F58429"/>
<path d="M3.81815 14.0001C4.52106 14.0001 5.09089 13.4302 5.09089 12.7273C5.09089 12.0244 4.52106 11.4546 3.81815 11.4546C3.11523 11.4546 2.54541 12.0244 2.54541 12.7273C2.54541 13.4302 3.11523 14.0001 3.81815 14.0001Z" fill="#F58429"/>
<path d="M11.4545 14.0001C12.1574 14.0001 12.7272 13.4302 12.7272 12.7273C12.7272 12.0244 12.1574 11.4546 11.4545 11.4546C10.7516 11.4546 10.1818 12.0244 10.1818 12.7273C10.1818 13.4302 10.7516 14.0001 11.4545 14.0001Z" fill="#F58429"/>
</g>
<defs>
<clipPath id="clip0">
<rect width="14" height="14" fill="white"/>
</clipPath>
</defs>
</svg>
