<svg width="364" height="349" viewBox="0 0 364 349" fill="none" xmlns="http://www.w3.org/2000/svg">
<path d="M34.9406 229.43L92.5402 199.182C96.4887 196.906 96.4913 193.208 92.5402 190.926L89.9981 189.452C86.0495 187.178 86.052 183.485 89.9981 181.202L157.234 142.393C161.183 140.116 167.586 140.111 171.524 142.393L174.071 143.872C178.02 146.146 184.418 146.143 188.361 143.872C192.315 141.591 198.71 141.596 202.651 143.872L212.348 149.468L294.546 196.743C298.49 199.021 298.482 202.714 294.546 204.996L141.108 290.549C137.147 292.828 130.757 292.833 126.806 290.549L44.6152 243.269L34.9154 237.679C30.9794 235.407 30.9845 231.712 34.9406 229.43Z" fill="url(#paint0_linear)"/>
<path d="M205.131 71.1199C205.131 69.7119 206.07 68.2985 207.935 67.2261L240.431 48.483C244.158 46.3355 250.196 46.3301 253.924 48.483L286.376 67.2043C288.246 68.2958 289.175 69.7037 289.161 71.1226V202.169C289.161 203.574 288.222 204.974 286.365 206.049L253.869 224.792C250.139 226.945 244.101 226.945 240.379 224.792L207.927 206.065C206.059 204.993 205.131 203.577 205.136 202.161L205.131 71.1199Z" fill="white"/>
<path d="M205.166 70.8987C205.06 72.3776 205.964 73.8811 207.924 75.0108L240.376 93.7321C242.247 94.8235 244.691 95.3474 247.141 95.3392V226.402C244.683 226.402 242.247 225.873 240.376 224.8L207.924 206.074C206.057 205.001 205.128 203.585 205.134 202.169V71.1197C205.134 71.046 205.166 70.9669 205.166 70.8987Z" fill="#CEE7FD"/>
<g opacity="0.5">
<path opacity="0.5" d="M253.866 93.7268L286.362 74.9836C288.214 73.9167 289.142 72.5279 289.159 71.1199V202.166C289.159 203.572 288.219 204.971 286.362 206.046L253.866 224.79C252.007 225.859 249.574 226.397 247.141 226.399V95.3394C249.574 95.3367 252.007 94.7964 253.866 93.7268Z" fill="#CEE7FD"/>
</g>
<path d="M247.113 227.283C244.533 227.283 241.955 226.702 239.948 225.545L207.493 206.819C205.437 205.637 204.295 204.011 204.273 202.234C204.272 202.213 204.272 202.191 204.273 202.169V71.1198C204.273 69.3243 205.423 67.6789 207.506 66.481L240.002 47.7379C244.03 45.4158 250.335 45.4158 254.358 47.7379L286.807 66.4565C288.902 67.668 290.043 69.3297 290.024 71.1334V202.147C290.024 203.948 288.877 205.591 286.802 206.786L254.306 225.529C252.282 226.699 249.696 227.283 247.113 227.283ZM205.994 202.109V202.172C205.994 203.331 206.829 204.45 208.353 205.326L240.808 224.045C244.287 226.053 249.953 226.05 253.435 224.045L285.931 205.301C287.452 204.42 288.29 203.304 288.293 202.163V71.1225C288.293 69.9573 287.474 68.8331 285.939 67.9491L253.487 49.2278C250.008 47.2195 244.341 47.2195 240.854 49.2278L208.367 67.9654C206.837 68.8441 205.994 69.9628 205.994 71.117V202.109Z" fill="#93D0FF"/>
<path d="M147.894 146.946C147.894 145.538 148.831 144.13 150.693 143.053L183.189 124.318C186.917 122.162 192.954 122.157 196.676 124.318L229.134 143.042C231.005 144.133 231.93 145.541 231.922 146.957V235.197C231.922 236.607 230.983 238.01 229.126 239.082L196.63 257.825C192.894 259.973 186.859 259.973 183.137 257.825L150.682 239.104C148.82 238.012 147.892 236.61 147.9 235.194L147.894 146.946Z" fill="#5F98ED"/>
<g style="mix-blend-mode:overlay" opacity="0.3">
<path d="M147.933 146.725C147.826 148.204 148.73 149.705 150.685 150.835L183.14 169.559C185.008 170.65 187.46 171.171 189.904 171.166V259.424C187.446 259.424 185.008 258.897 183.14 257.817L150.685 239.096C148.823 238.004 147.894 236.602 147.903 235.185V146.946C147.908 146.872 147.918 146.798 147.933 146.725Z" fill="#5F98ED"/>
</g>
<path opacity="0.2" d="M196.63 169.553L229.126 150.815C230.975 149.74 231.906 148.36 231.922 146.946V235.185C231.922 236.596 230.983 237.999 229.126 239.071L196.63 257.814C194.768 258.884 192.337 259.424 189.901 259.424V171.166C192.34 171.163 194.77 170.625 196.63 169.553Z" fill="#4279E8"/>
<path d="M189.877 260.3C187.296 260.3 184.718 259.719 182.709 258.562L150.254 239.843C148.222 238.667 147.086 237.063 147.042 235.311C147.04 235.269 147.04 235.227 147.042 235.186V146.946C147.042 145.156 148.195 143.511 150.27 142.308L182.766 123.57C186.791 121.245 193.094 121.24 197.116 123.57L229.574 142.291C231.663 143.5 232.804 145.159 232.791 146.963V235.177C232.791 236.989 231.633 238.632 229.563 239.816L197.067 258.559C195.046 259.719 192.46 260.3 189.877 260.3ZM148.757 235.071C148.761 235.111 148.761 235.151 148.757 235.191C148.757 236.348 149.576 237.469 151.111 238.351L183.572 257.061C187.048 259.064 192.714 259.064 196.204 257.061L228.7 238.318C230.215 237.445 231.057 236.329 231.065 235.175V146.946C231.065 145.784 230.245 144.66 228.708 143.776L196.25 125.052C192.771 123.043 187.108 123.049 183.626 125.052L151.13 143.789C149.609 144.668 148.768 145.787 148.765 146.935L148.757 235.071Z" fill="#93D0FF"/>
<path d="M90.6606 226.688C90.6606 225.283 91.5973 223.875 93.4597 222.803L125.956 204.054C129.683 201.907 135.721 201.904 139.445 204.054L171.895 222.778C173.774 223.87 174.697 225.278 174.683 226.694V268.213C174.683 269.616 173.744 271.018 171.881 272.09L139.385 290.836C135.661 292.989 129.628 292.989 125.898 290.836L93.4488 272.11C91.5782 271.018 90.6497 269.613 90.6552 268.205L90.6606 226.688Z" fill="white"/>
<path d="M90.6989 226.468C90.5897 227.949 91.4935 229.45 93.4542 230.577L125.909 249.304C127.774 250.379 130.224 250.914 132.671 250.914V292.441C130.213 292.441 127.774 291.914 125.904 290.839L93.4542 272.113C91.5837 271.021 90.6552 269.616 90.6607 268.208V226.689C90.6607 226.618 90.6962 226.544 90.6989 226.468Z" fill="#CEE7FD"/>
<g opacity="0.5">
<path opacity="0.5" d="M139.391 249.298L171.887 230.555C173.746 229.491 174.675 228.099 174.686 226.689V268.208C174.686 269.61 173.746 271.013 171.884 272.085L139.388 290.831C137.534 291.901 135.101 292.438 132.668 292.441V250.914C135.104 250.903 137.537 250.368 139.391 249.298Z" fill="#CEE7FD"/>
</g>
<path d="M132.643 293.32C130.063 293.32 127.485 292.741 125.472 291.584L93.0227 272.857C90.9365 271.654 89.7923 270.001 89.7977 268.205V226.689C89.7977 224.901 90.9474 223.256 93.0282 222.05L125.524 203.304C129.552 200.985 135.854 200.979 139.874 203.304L172.326 222.025C174.385 223.212 175.524 224.839 175.543 226.615C175.544 226.64 175.544 226.664 175.543 226.689V268.183C175.543 269.995 174.388 271.635 172.313 272.822L139.817 291.568C137.812 292.738 135.226 293.32 132.643 293.32ZM132.706 203.293C130.415 203.293 128.124 203.795 126.379 204.799L93.8829 223.548C92.3537 224.427 91.5126 225.543 91.5126 226.689V268.208C91.5126 269.365 92.3482 270.484 93.8775 271.365L126.324 290.092C129.809 292.097 135.475 292.094 138.954 290.092L171.45 271.346C172.971 270.467 173.812 269.354 173.817 268.208V226.773C173.817 226.746 173.817 226.719 173.817 226.691C173.817 225.534 172.998 224.41 171.461 223.529L139.011 204.805C137.272 203.792 134.989 203.307 132.706 203.307V203.293Z" fill="#93D0FF"/>
<path d="M117.998 222.271L164.836 141.265L222.474 105.364L259.006 42.1906L262.337 44.1089L272.146 39.9286L275.876 4.94995L268.806 0.870605L240.325 21.5975L241.608 32.171L244.937 34.0865L211.149 92.5234L153.509 128.422L103.932 214.159L117.998 222.271Z" fill="white"/>
<path d="M111.016 218.235L103.946 214.159L153.522 128.422L211.149 92.5234L244.937 34.0865L241.608 32.1764L240.325 21.6029L268.806 0.865112L275.876 4.94446L247.392 25.6822L248.675 36.2558L256.343 30.6729L218.216 96.6164L160.576 132.501L111.016 218.235ZM222.487 105.364L259.019 42.1906L262.351 44.1007L263.353 34.6868L222.487 105.364Z" fill="#CEE7FD"/>
<path d="M117.998 223.133C117.847 223.133 117.699 223.092 117.569 223.016L103.501 214.906C103.303 214.791 103.159 214.603 103.099 214.382C103.07 214.273 103.062 214.16 103.077 214.048C103.092 213.936 103.129 213.828 103.187 213.73L152.761 127.996C152.833 127.874 152.933 127.772 153.053 127.696L210.51 91.9122L243.76 34.403L241.177 32.9159C241.061 32.8494 240.962 32.7569 240.888 32.6456C240.814 32.5343 240.767 32.4073 240.751 32.2747L239.47 21.7011C239.452 21.5491 239.474 21.395 239.535 21.2546C239.596 21.1141 239.693 20.9923 239.817 20.9016L268.298 0.163841C268.434 0.0663606 268.594 0.00989598 268.761 0.00118584C268.928 -0.0075243 269.093 0.0318907 269.238 0.114727L276.308 4.19407C276.452 4.27712 276.569 4.40022 276.645 4.54843C276.72 4.69665 276.751 4.8636 276.734 5.02904L273.004 40.0186C272.987 40.171 272.931 40.3163 272.839 40.4396C272.748 40.5629 272.626 40.6596 272.485 40.7199L262.676 44.9001C262.553 44.9528 262.42 44.9761 262.287 44.968C262.153 44.96 262.024 44.9208 261.909 44.8538L259.323 43.3666L223.219 105.796C223.148 105.918 223.047 106.021 222.927 106.096L165.475 141.882L118.746 222.702C118.67 222.833 118.561 222.942 118.43 223.017C118.299 223.093 118.15 223.133 117.998 223.133ZM105.109 213.856L117.684 221.106L164.09 140.845C164.16 140.723 164.26 140.619 164.38 140.545L221.835 104.759L258.26 41.7704C258.374 41.5733 258.562 41.4296 258.782 41.3708C259.003 41.3119 259.237 41.3428 259.434 41.4566L262.395 43.1593L271.343 39.3392L274.962 5.42197L268.853 1.89654L241.234 21.9958L242.403 31.6389L245.36 33.3416C245.558 33.4568 245.702 33.645 245.762 33.8655C245.791 33.9746 245.798 34.0884 245.783 34.2003C245.768 34.3122 245.731 34.4201 245.674 34.5176L211.895 92.9545C211.824 93.0765 211.725 93.1795 211.605 93.2547L154.145 129.038L105.109 213.856Z" fill="#93D0FF"/>
<path d="M51.2452 261.466C50.9259 259.967 50.2725 258.558 49.3337 257.346C45.8684 257.51 42.3157 256.83 39.6696 255.308C37.0235 253.785 35.8466 251.73 36.1196 249.736C34.9973 249.463 33.8449 249.19 32.6297 249.021C31.4146 248.852 30.1884 248.712 28.9787 248.633C27.4877 250.442 24.686 251.878 21.0596 252.453C17.4331 253.029 13.7739 252.573 10.9176 251.438C9.05335 252.213 7.29523 253.222 5.68545 254.44V261.584C5.86295 261.731 6.01315 261.881 6.1688 262.036C4.90173 263.281 3.0339 264.258 0.838379 264.861V272.004C1.1617 273.501 1.8147 274.906 2.7499 276.119C6.21249 275.958 9.77066 276.635 12.4222 278.16C15.0738 279.685 16.2452 281.735 15.9558 283.732C17.0836 284.005 18.2387 284.259 19.4539 284.447C20.6691 284.635 21.887 284.75 23.0994 284.834C24.5904 283.023 27.3867 281.59 31.0186 281.028C34.6505 280.466 38.3042 280.905 41.1633 282.043C43.028 281.267 44.7869 280.259 46.3982 279.041V271.898C46.2234 271.75 46.0677 271.595 45.9148 271.445C47.1792 270.201 49.047 269.226 51.2398 268.623L51.2452 261.466ZM15.4725 266.743C18.2032 264.056 23.7657 262.629 29.2245 263.469C32.4604 263.968 35.0464 265.172 36.6166 266.719C33.8859 269.409 28.3206 270.834 22.8673 269.993C19.6368 269.48 17.0563 268.288 15.4834 266.732L15.4725 266.743Z" fill="#EB5757"/>
<path opacity="0.3" d="M32.5668 269.128C34.0763 268.619 35.4603 267.795 36.6274 266.711C35.0573 265.164 32.4712 263.96 29.2353 263.461C23.7738 262.618 18.2031 264.045 15.4833 266.735C16.1347 267.359 16.87 267.889 17.6679 268.31C14.4893 266.582 13.0256 263.944 14.2271 261.324C15.983 257.553 22.7061 255.321 29.2462 256.32C35.7864 257.319 39.664 261.204 37.9082 264.978C37.0589 266.771 35.0928 268.214 32.5668 269.128ZM31.024 273.868C27.4057 274.43 24.6094 275.865 23.1048 277.688C21.8923 277.603 20.6772 277.489 19.4593 277.301C18.2413 277.112 17.089 276.859 15.9612 276.58C16.2342 274.583 15.0709 272.539 12.4276 271.011C9.78422 269.483 6.21786 268.806 2.75527 268.967C1.81965 267.756 1.16658 266.351 0.84375 264.855V271.999C1.16707 273.495 1.82007 274.901 2.75527 276.114C6.21786 275.953 9.77603 276.629 12.4276 278.155C15.0791 279.68 16.2506 281.729 15.9612 283.727C17.089 283.999 18.2441 284.253 19.4593 284.441C20.6744 284.63 21.8923 284.744 23.1048 284.829C24.5958 283.017 27.3921 281.585 31.024 281.022C34.6558 280.46 38.3096 280.9 41.1687 282.038C43.0333 281.262 44.7922 280.253 46.4035 279.036V271.892C44.7918 273.113 43.0331 274.127 41.1687 274.91C38.3096 273.745 34.6449 273.306 31.024 273.868ZM51.2315 261.455C48.0938 262.312 45.5952 263.911 44.6231 266.018C43.6509 268.124 44.4101 270.22 46.3899 271.871C46.2151 271.723 46.0594 271.568 45.9065 271.418C47.1708 270.173 49.0387 269.199 51.2315 268.596V261.455ZM7.45761 260.279C8.42975 258.192 7.67062 256.077 5.69629 254.426V261.57C5.87379 261.717 6.02398 261.867 6.17964 262.023C6.71083 261.523 7.14827 260.933 7.47127 260.279H7.45761Z" fill="#FFDFC0"/>
<path d="M23.1185 285.681H23.0612C21.6248 285.582 20.4424 285.457 19.3392 285.285C18.2359 285.113 17.0781 284.878 15.7674 284.554C15.5607 284.502 15.3804 284.376 15.2613 284.2C15.1423 284.024 15.093 283.809 15.1229 283.599C15.3632 281.89 14.2299 280.174 12.0098 278.892C9.60679 277.508 6.25072 276.802 2.80998 276.965C2.66972 276.971 2.53015 276.943 2.4032 276.883C2.27625 276.823 2.16568 276.733 2.08086 276.621C1.06941 275.306 0.364972 273.782 0.0191338 272.16C0.00588275 272.105 -0.000521987 272.048 3.32252e-05 271.991V264.847C0.00233164 264.661 0.0654037 264.48 0.179705 264.332C0.294006 264.184 0.453306 264.078 0.633551 264.029C2.19285 263.636 3.65917 262.94 4.94814 261.979C4.88397 261.856 4.85026 261.72 4.84984 261.581V254.427C4.84941 254.295 4.87923 254.166 4.93701 254.048C4.99479 253.93 5.07895 253.827 5.18298 253.747C6.84894 252.48 8.6695 251.43 10.6008 250.623C10.8117 250.537 11.048 250.537 11.2589 250.623C14.0961 251.752 17.627 252.104 20.9503 251.589C24.2272 251.081 26.9088 249.804 28.3233 248.085C28.4109 247.981 28.5216 247.898 28.6468 247.844C28.772 247.79 28.9081 247.766 29.0442 247.774C30.4287 247.867 31.6494 247.995 32.7717 248.17C33.894 248.344 35.0601 248.579 36.3408 248.901C36.5472 248.953 36.7269 249.08 36.8453 249.257C36.9638 249.434 37.0126 249.648 36.9825 249.859C36.7395 251.564 37.8782 253.28 40.101 254.563C42.5068 255.949 45.8547 256.648 49.2927 256.473C49.4338 256.464 49.5748 256.491 49.7027 256.551C49.8306 256.611 49.9413 256.703 50.0245 256.817C51.0396 258.132 51.7461 259.659 52.0917 261.284C52.1027 261.339 52.1082 261.396 52.1081 261.453V268.594C52.1058 268.78 52.0427 268.961 51.9284 269.109C51.8141 269.257 51.6548 269.363 51.4746 269.412C49.9179 269.805 48.4538 270.499 47.1655 271.456C47.2317 271.579 47.2664 271.717 47.2665 271.857V279.001C47.2664 279.132 47.2361 279.262 47.1778 279.38C47.1196 279.498 47.035 279.6 46.9306 279.68C45.2622 280.947 43.44 281.998 41.5074 282.807C41.2967 282.894 41.0599 282.894 40.8492 282.807C38.012 281.678 34.4811 281.326 31.1578 281.844C27.8809 282.352 25.1993 283.629 23.7848 285.345C23.706 285.447 23.6052 285.53 23.4898 285.588C23.3745 285.647 23.2477 285.678 23.1185 285.681ZM16.8788 283.05C17.8509 283.277 18.7302 283.449 19.6095 283.596C20.5516 283.741 21.562 283.852 22.7581 283.942C24.4893 282.079 27.4222 280.714 30.8984 280.174C34.3747 279.634 38.0994 279.972 41.1524 281.11C42.7048 280.434 44.179 279.592 45.5488 278.597V272.264L45.3741 272.095L45.3222 272.043C45.2374 271.964 45.1694 271.869 45.1225 271.764C45.0756 271.658 45.0506 271.544 45.0491 271.429C45.0492 271.315 45.072 271.202 45.116 271.096C45.1601 270.991 45.2246 270.895 45.3058 270.815C46.5429 269.598 48.2878 268.632 50.3768 267.963V261.554C50.1088 260.356 49.6057 259.224 48.8967 258.222C45.3004 258.32 41.7968 257.535 39.2326 256.056C36.6685 254.577 35.2512 252.555 35.2184 250.402C34.26 250.178 33.367 250.003 32.4877 249.872C31.5292 249.722 30.4915 249.6 29.3337 249.523C27.5997 251.387 24.6669 252.751 21.1933 253.291C17.7198 253.832 13.9924 253.491 10.9394 252.353C9.38968 253.029 7.91826 253.872 6.55109 254.866V261.194L6.775 261.415C6.93741 261.578 7.0286 261.799 7.0286 262.029C7.0286 262.259 6.93741 262.479 6.775 262.643C5.53524 263.86 3.7903 264.842 1.70128 265.497V271.906C1.9688 273.103 2.47093 274.234 3.17862 275.235C6.77775 275.145 10.2785 275.926 12.8509 277.418C15.4233 278.911 16.846 280.9 16.8788 283.05ZM25.9967 271.08C24.9079 271.081 23.8207 270.999 22.7444 270.834C19.443 270.324 16.6494 269.085 14.8799 267.347C14.7989 267.267 14.7346 267.171 14.6907 267.066C14.6468 266.961 14.6242 266.848 14.6242 266.734C14.6242 266.62 14.6468 266.507 14.6907 266.402C14.7346 266.297 14.7989 266.202 14.8799 266.122C17.84 263.194 23.7985 261.756 29.3692 262.613C32.6734 263.12 35.4669 264.356 37.2337 266.097C37.3154 266.177 37.3803 266.272 37.4246 266.377C37.4689 266.482 37.4917 266.595 37.4917 266.71C37.4917 266.824 37.4689 266.937 37.4246 267.042C37.3803 267.147 37.3154 267.242 37.2337 267.322C34.8443 269.685 30.5052 271.08 25.9967 271.08ZM16.7941 266.733C18.3151 267.901 20.4806 268.741 23.0093 269.131C27.6516 269.849 32.5341 268.858 35.3167 266.711C33.7985 265.543 31.633 264.703 29.1043 264.312C24.4593 263.595 19.5767 264.583 16.7941 266.733Z" fill="#EB5757"/>
<path d="M344.271 193.5L363.14 204.385V215.935L346.084 225.777L327.212 214.89V203.34L344.271 193.5Z" fill="white"/>
<path d="M346.084 225.777L327.212 214.89V203.339L346.081 214.227L346.084 225.777Z" fill="#CEE7FD"/>
<g opacity="0.5">
<path opacity="0.5" d="M363.14 215.935L346.084 225.777L346.081 214.227L363.14 204.385V215.935Z" fill="#CEE7FD"/>
</g>
<path d="M346.084 226.639C345.932 226.64 345.783 226.599 345.652 226.522L326.78 215.635C326.649 215.559 326.541 215.45 326.466 215.32C326.391 215.189 326.351 215.041 326.351 214.89V203.339C326.351 203.188 326.391 203.04 326.466 202.909C326.541 202.778 326.65 202.668 326.78 202.592L343.839 192.755C343.97 192.678 344.119 192.638 344.27 192.638C344.422 192.638 344.571 192.678 344.702 192.755L363.571 203.64C363.702 203.715 363.81 203.824 363.886 203.955C363.961 204.085 364 204.234 364 204.384V215.935C364 216.086 363.96 216.235 363.885 216.365C363.809 216.496 363.7 216.605 363.569 216.68L346.51 226.522C346.381 226.599 346.234 226.64 346.084 226.639ZM328.061 214.393L346.084 224.784L362.28 215.438V204.881L344.273 194.493L328.077 203.836L328.061 214.393Z" fill="#93D0FF"/>
<path d="M137.837 315.468L156.707 326.35V337.903L139.648 347.746L120.778 336.855V325.305L137.837 315.468Z" fill="white"/>
<path d="M139.648 347.745L120.778 336.855V325.305L139.648 336.195V347.745Z" fill="#CEE7FD"/>
<g opacity="0.5">
<path opacity="0.5" d="M156.707 337.903L139.648 347.745V336.195L156.707 326.35V337.903Z" fill="#CEE7FD"/>
</g>
<path d="M139.647 348.605C139.496 348.605 139.347 348.565 139.216 348.49L120.347 337.603C120.215 337.527 120.107 337.418 120.031 337.287C119.955 337.156 119.915 337.007 119.915 336.855V325.305C119.915 325.154 119.955 325.005 120.03 324.874C120.106 324.744 120.215 324.635 120.347 324.56L137.405 314.721C137.537 314.645 137.686 314.606 137.837 314.606C137.988 314.606 138.137 314.645 138.268 314.721L157.138 325.605C157.268 325.681 157.376 325.79 157.451 325.921C157.526 326.051 157.566 326.199 157.566 326.35V337.903C157.566 338.054 157.526 338.202 157.451 338.333C157.376 338.463 157.268 338.572 157.138 338.648L140.079 348.49C139.948 348.566 139.799 348.605 139.647 348.605ZM121.638 336.359L139.647 346.749L155.843 337.404V326.849L137.837 316.461L121.638 325.802V336.359Z" fill="#93D0FF"/>
<path d="M63.5606 294.299C64.6263 293.234 65.9843 292.508 67.4629 292.214C68.9414 291.92 70.4741 292.07 71.867 292.646C73.2598 293.223 74.4504 294.199 75.2881 295.451C76.1257 296.704 76.5728 298.176 76.5728 299.683C76.5728 301.189 76.1257 302.662 75.2881 303.914C74.4504 305.167 73.2598 306.143 71.867 306.719C70.4741 307.295 68.9414 307.446 67.4629 307.152C65.9843 306.858 64.6263 306.132 63.5606 305.066C62.852 304.36 62.2898 303.521 61.9062 302.597C61.5226 301.673 61.3252 300.683 61.3252 299.683C61.3252 298.683 61.5226 297.692 61.9062 296.769C62.2898 295.845 62.852 295.006 63.5606 294.299Z" fill="white"/>
<path d="M71.8321 302.564C73.0414 301.354 73.807 299.772 74.0052 298.074C74.2034 296.376 73.8227 294.66 72.9244 293.205C73.4385 293.51 73.9135 293.877 74.3389 294.296C75.1104 295.054 75.7117 295.967 76.1026 296.975C76.4935 297.983 76.6652 299.062 76.6063 300.141C76.5473 301.22 76.259 302.275 75.7606 303.234C75.2622 304.193 74.5651 305.036 73.7156 305.705C72.8662 306.374 71.8839 306.855 70.834 307.115C69.7842 307.375 68.6909 307.409 67.6269 307.215C66.5629 307.02 65.5526 306.601 64.6632 305.986C63.7737 305.371 63.0255 304.574 62.4684 303.647C63.9239 304.545 65.6395 304.926 67.3384 304.729C69.0373 304.533 70.6204 303.77 71.8321 302.564Z" fill="#CEE7FD"/>
<path d="M68.962 308.158C67.2855 308.158 65.6467 307.661 64.2525 306.73C62.8583 305.8 61.7713 304.478 61.1285 302.93C60.4858 301.383 60.3162 299.68 60.6411 298.037C60.9661 296.393 61.7711 294.883 62.9544 293.696C63.741 292.905 64.6772 292.277 65.7085 291.851C66.7399 291.424 67.8458 291.206 68.962 291.21C70.0889 291.19 71.2084 291.394 72.2553 291.811C73.3022 292.228 74.2555 292.849 75.0596 293.639C75.8636 294.428 76.5022 295.369 76.9382 296.407C77.3741 297.446 77.5987 298.561 77.5987 299.687C77.5987 300.813 77.3741 301.928 76.9382 302.966C76.5022 304.005 75.8636 304.946 75.0596 305.735C74.2555 306.524 73.3022 307.146 72.2553 307.562C71.2084 307.979 70.0889 308.184 68.962 308.164V308.158ZM68.962 292.927C68.0743 292.924 67.195 293.098 66.3751 293.438C65.5552 293.778 64.8111 294.278 64.186 294.908C63.0831 296.012 62.3976 297.464 62.246 299.017C62.0945 300.57 62.4864 302.128 63.355 303.424C64.2235 304.721 65.515 305.676 67.0095 306.128C68.504 306.58 70.1091 306.5 71.5513 305.902C72.9935 305.304 74.1837 304.225 74.9192 302.849C75.6547 301.473 75.8899 299.884 75.5849 298.354C75.2799 296.824 74.4535 295.447 73.2464 294.457C72.0393 293.468 70.5262 292.927 68.9648 292.927H68.962Z" fill="#93D0FF"/>
<path d="M310.36 21.7556C311.426 20.6901 312.784 19.9644 314.262 19.6702C315.741 19.376 317.274 19.5266 318.666 20.1029C320.059 20.6792 321.25 21.6553 322.088 22.9078C322.925 24.1602 323.372 25.6328 323.372 27.1393C323.372 28.6457 322.925 30.1182 322.088 31.3707C321.25 32.6232 320.059 33.5993 318.666 34.1756C317.274 34.7519 315.741 34.9025 314.262 34.6083C312.784 34.3141 311.426 33.5884 310.36 32.5229C308.932 31.0948 308.129 29.1583 308.129 27.1393C308.129 25.1202 308.932 23.1837 310.36 21.7556Z" fill="white"/>
<path d="M318.642 30.0209C319.852 28.8115 320.617 27.2301 320.815 25.5322C321.013 23.8343 320.633 22.1192 319.735 20.6643C320.649 21.2275 321.434 21.9778 322.038 22.8657C322.642 23.7537 323.051 24.7593 323.238 25.8164C323.425 26.8736 323.386 27.9583 323.123 28.9993C322.861 30.0403 322.381 31.014 321.715 31.8564C321.049 32.6988 320.212 33.3908 319.259 33.887C318.307 34.3832 317.26 34.6723 316.187 34.7352C315.115 34.7982 314.041 34.6336 313.037 34.2524C312.032 33.8711 311.12 33.2817 310.36 32.523C309.943 32.0952 309.577 31.621 309.268 31.1096C310.725 32.0086 312.443 32.3902 314.144 32.1926C315.846 31.995 317.43 31.2299 318.642 30.0209Z" fill="#CEE7FD"/>
<path d="M315.759 35.6173C314.082 35.6168 312.443 35.12 311.049 34.1895C309.655 33.2591 308.568 31.9369 307.925 30.3896C307.283 28.8424 307.113 27.1395 307.438 25.496C307.763 23.8526 308.568 22.3421 309.751 21.1554C310.737 20.1687 311.95 19.4401 313.285 19.0342C314.619 18.6283 316.034 18.5575 317.402 18.8282C318.771 19.099 320.051 19.7028 321.13 20.5862C322.209 21.4697 323.054 22.6054 323.588 23.8929C324.123 25.1803 324.332 26.5797 324.196 27.9671C324.06 29.3544 323.584 30.6868 322.81 31.8464C322.036 33.0059 320.987 33.9566 319.757 34.6144C318.527 35.2722 317.154 35.6166 315.759 35.6173ZM315.759 20.3859C314.871 20.3828 313.991 20.5561 313.171 20.8957C312.35 21.2354 311.606 21.7345 310.98 22.3642C309.873 23.4697 309.184 24.9244 309.03 26.4807C308.876 28.0369 309.267 29.5982 310.137 30.8987C311.006 32.1991 312.299 33.1581 313.797 33.6123C315.294 34.0665 316.903 33.9878 318.349 33.3896C319.795 32.7913 320.989 31.7106 321.727 30.3316C322.464 28.9525 322.701 27.3604 322.396 25.8267C322.091 24.2929 321.262 22.9124 320.053 21.9203C318.843 20.9282 317.327 20.3859 315.762 20.3859H315.759Z" fill="#93D0FF"/>
<path d="M264.442 305.652C264.442 305.652 257.644 318.179 243.111 326.983L168.885 290.101L214.669 272.232L264.442 305.652Z" fill="url(#paint1_linear)"/>
<path d="M265.348 322.906L242.259 309.498L242.282 316.46L265.37 329.891L265.348 322.906Z" fill="#93D0FF"/>
<path d="M265.37 331.014C265.569 331.018 265.764 330.964 265.932 330.857C266.101 330.759 266.242 330.618 266.341 330.449C266.439 330.28 266.492 330.087 266.493 329.891V322.906C266.492 322.71 266.439 322.518 266.341 322.349C266.242 322.179 266.101 322.039 265.932 321.941L242.843 308.465C242.672 308.366 242.479 308.314 242.281 308.314C242.084 308.314 241.891 308.366 241.72 308.465C241.547 308.559 241.403 308.699 241.304 308.869C241.205 309.04 241.155 309.234 241.159 309.431V316.393C241.156 316.593 241.206 316.79 241.305 316.963C241.404 317.137 241.547 317.281 241.72 317.381L264.809 330.857C264.976 330.964 265.172 331.018 265.37 331.014ZM264.225 323.558V328.05L243.404 315.787V311.407L264.225 323.558Z" fill="#93D0FF"/>
<path d="M251.917 280.031C252.504 279.693 253.074 279.326 253.624 278.93L254.163 278.526C254.552 278.254 254.927 277.961 255.286 277.65C255.499 277.483 255.701 277.303 255.892 277.111C256.229 276.842 256.566 276.527 256.88 276.235L257.509 275.606C257.801 275.292 258.115 274.977 258.407 274.641L258.969 274.012C259.418 273.495 259.845 272.956 260.272 272.395L260.541 272.058C261.035 271.384 261.529 270.688 261.979 269.969L262.315 269.407C262.675 268.846 262.989 268.307 263.304 267.745L263.663 267.072C264 266.398 264.337 265.747 264.629 265.073L264.786 264.781C265.145 263.927 265.482 263.051 265.797 262.198L265.999 261.569C266.268 260.716 266.515 259.885 266.718 259.054C266.708 259.009 266.708 258.963 266.718 258.919C266.92 258.043 267.054 257.189 267.167 256.336C267.167 256.111 267.167 255.909 267.167 255.707C267.262 254.857 267.315 254.002 267.324 253.147C267.324 248.228 265.572 244.769 262.832 243.152L285.921 256.628C288.728 258.267 290.412 261.726 290.412 266.622C290.405 267.478 290.352 268.333 290.255 269.183C290.266 269.392 290.266 269.602 290.255 269.812C290.149 270.68 289.999 271.542 289.806 272.395C289.806 272.395 289.806 272.507 289.806 272.552C289.604 273.383 289.357 274.214 289.087 275.045L288.885 275.674C288.571 276.55 288.234 277.403 287.875 278.257L287.74 278.526C287.448 279.177 287.133 279.851 286.774 280.503C286.774 280.727 286.549 280.952 286.415 281.176C286.1 281.738 285.786 282.299 285.449 282.838L285.09 283.422C284.64 284.119 284.146 284.815 283.652 285.489L283.383 285.848C282.956 286.409 282.529 286.948 282.08 287.465L281.855 287.735L281.518 288.094L280.62 289.037L279.991 289.666L279.025 290.564L278.397 291.104C278.037 291.418 277.655 291.687 277.274 291.979L276.735 292.384C276.173 292.765 275.612 293.147 275.028 293.484C270.693 295.977 266.785 296.202 263.955 294.562L240.866 281.086C243.674 282.771 247.582 282.524 251.917 280.031Z" fill="white"/>
<path d="M268.02 296.718C270.688 296.64 273.29 295.866 275.567 294.472C276.173 294.113 276.779 293.731 277.363 293.327L277.925 292.9L279.093 292.002L279.609 291.53L280.777 290.452L281.406 289.801C281.743 289.486 282.035 289.149 282.349 288.813L282.686 288.453L282.844 288.274C283.383 287.622 283.832 287.083 284.281 286.499L284.55 286.14C285.067 285.444 285.561 284.725 286.033 284.006L286.28 283.602C286.752 282.838 287.088 282.277 287.403 281.693L287.785 280.997C288.122 280.323 288.458 279.649 288.773 278.953L288.908 278.683C289.312 277.762 289.649 276.887 289.963 275.988L290.165 275.382C290.457 274.461 290.727 273.607 290.929 272.731C291.153 271.798 291.325 270.854 291.446 269.902V269.25C291.56 268.356 291.62 267.456 291.625 266.555C291.625 261.389 289.784 257.571 286.527 255.595L263.416 242.119C263.163 242.004 262.876 241.988 262.611 242.073C262.346 242.158 262.122 242.337 261.983 242.578C261.843 242.818 261.797 243.102 261.855 243.374C261.912 243.646 262.068 243.887 262.293 244.05C264.853 245.533 266.268 248.745 266.291 253.034C266.283 253.845 266.231 254.655 266.134 255.46V256.066C266.134 256.897 265.886 257.706 265.684 258.559C265.482 259.413 265.213 260.289 264.943 261.097L264.741 261.726C264.449 262.557 264.135 263.388 263.775 264.197L264.651 264.96L263.64 264.489C263.349 265.14 263.034 265.791 262.697 266.42L262.383 266.982C262.046 267.633 261.731 268.172 261.395 268.711L261.058 269.25C260.608 269.946 260.159 270.62 259.665 271.272L259.396 271.608C258.991 272.147 258.565 272.664 258.138 273.181L257.599 273.787L256.723 274.708L256.117 275.314L255.173 276.168L254.589 276.684L253.511 277.515L253.017 277.897C252.49 278.278 251.942 278.63 251.378 278.953C247.559 281.199 244.011 281.558 241.428 280.031C241.3 279.957 241.158 279.909 241.011 279.89C240.864 279.871 240.715 279.881 240.573 279.92C240.43 279.959 240.296 280.025 240.179 280.115C240.061 280.206 239.963 280.318 239.889 280.446C239.816 280.575 239.768 280.716 239.749 280.863C239.73 281.01 239.74 281.159 239.779 281.302C239.817 281.445 239.883 281.578 239.974 281.696C240.064 281.813 240.177 281.911 240.305 281.985L263.393 295.461C264.796 296.284 266.393 296.718 268.02 296.718ZM286.707 278.032C286.415 278.683 286.1 279.335 285.763 279.963L285.404 280.615C285.119 281.154 284.805 281.693 284.461 282.232L284.124 282.793C283.675 283.467 283.225 284.141 282.731 284.792L282.462 285.129C282.057 285.691 281.631 286.207 281.204 286.701L281.047 286.881L280.822 287.128L280.665 287.308L279.789 288.251L279.183 288.835L278.262 289.689L277.655 290.228L276.577 291.059L276.083 291.44C275.544 291.8 275.005 292.159 274.444 292.474C270.625 294.719 267.077 295.079 264.494 293.574L246.526 283.175C248.608 282.815 250.599 282.052 252.388 280.929C253.01 280.585 253.61 280.202 254.185 279.784L254.544 279.514L254.746 279.357L255.914 278.459L256.408 278.009C256.903 277.605 257.239 277.291 257.576 276.976L258.205 276.325L259.149 275.337L259.71 274.685C260.182 274.146 260.631 273.585 261.08 273.023L261.35 272.664C261.859 271.975 262.353 271.227 262.832 270.418L263.191 269.834C263.551 269.273 263.888 268.689 264.202 268.127L264.561 267.431C264.921 266.757 265.258 266.061 265.572 265.387L264.696 264.624L265.707 265.073C266.111 264.197 266.448 263.298 266.762 262.4L266.92 261.906C267.256 260.895 267.504 260.019 267.728 259.166C267.952 258.225 268.124 257.273 268.245 256.313V255.662C268.36 254.776 268.42 253.883 268.424 252.989C268.447 250.944 268.097 248.912 267.391 246.993L285.359 257.392C287.919 258.874 289.334 262.086 289.357 266.375C289.348 267.186 289.295 267.996 289.2 268.801V269.407C289.091 270.238 288.942 271.063 288.75 271.878C288.526 272.821 288.279 273.63 288.032 274.416L287.807 275.045C287.515 275.876 287.201 276.707 286.841 277.538L287.717 278.301L286.707 278.032Z" fill="#93D0FF"/>
<path d="M306.696 223.141L283.607 209.71L278.374 216.223L301.463 229.654L306.696 223.141Z" fill="white"/>
<path d="M301.462 230.777C301.631 230.774 301.797 230.735 301.948 230.661C302.099 230.587 302.233 230.481 302.338 230.35L307.572 223.837C307.673 223.713 307.746 223.568 307.785 223.413C307.824 223.257 307.828 223.095 307.796 222.938C307.774 222.777 307.714 222.623 307.62 222.49C307.526 222.358 307.402 222.249 307.257 222.175L284.169 208.699C283.935 208.569 283.664 208.525 283.401 208.574C283.139 208.624 282.902 208.763 282.731 208.968L277.498 215.482C277.396 215.605 277.323 215.75 277.284 215.906C277.246 216.061 277.242 216.223 277.273 216.38C277.3 216.54 277.363 216.691 277.456 216.823C277.549 216.956 277.671 217.065 277.812 217.144L300.901 230.62C301.07 230.724 301.264 230.778 301.462 230.777ZM305.011 223.455L301.193 228.194L280.058 215.908L283.877 211.169L305.011 223.455Z" fill="#93D0FF"/>
<path d="M301.463 229.654L278.374 216.223L261.484 214.763L284.573 228.194L301.463 229.654Z" fill="white"/>
<path d="M301.463 230.777C301.703 230.778 301.937 230.703 302.131 230.561C302.325 230.42 302.469 230.22 302.541 229.991C302.619 229.747 302.611 229.484 302.517 229.246C302.422 229.009 302.248 228.811 302.024 228.688L278.936 215.212C278.793 215.124 278.631 215.07 278.464 215.055L261.597 213.595C261.343 213.581 261.092 213.651 260.881 213.792C260.67 213.934 260.512 214.141 260.429 214.381C260.348 214.622 260.354 214.883 260.444 215.121C260.534 215.358 260.703 215.557 260.923 215.684L284.012 229.16C284.154 229.245 284.317 229.292 284.483 229.294L301.373 230.777H301.463ZM278.037 217.301L296.566 228.194L284.932 227.183L266.403 216.403L278.037 217.301Z" fill="#93D0FF"/>
<path d="M238.665 307.701L215.577 294.293L210.344 300.806L233.432 314.214L238.665 307.701Z" fill="white"/>
<path d="M233.432 315.337C233.599 315.339 233.764 315.304 233.916 315.234C234.067 315.164 234.201 315.061 234.308 314.933L239.541 308.42C239.644 308.292 239.717 308.143 239.755 307.984C239.794 307.825 239.798 307.66 239.766 307.499C239.727 307.347 239.654 307.205 239.553 307.085C239.452 306.964 239.325 306.868 239.182 306.803L216.093 293.327C215.861 293.193 215.588 293.146 215.325 293.196C215.061 293.245 214.824 293.387 214.656 293.596L209.423 300.11C209.321 300.233 209.248 300.378 209.209 300.534C209.17 300.689 209.167 300.851 209.198 301.008C209.223 301.168 209.285 301.32 209.379 301.453C209.472 301.585 209.595 301.694 209.737 301.772L232.826 315.248C233.017 315.329 233.226 315.36 233.432 315.337ZM236.936 308.016L233.118 312.777L211.983 300.492L215.801 295.753L236.936 308.016Z" fill="#93D0FF"/>
<path d="M233.432 314.215L210.344 300.806L220.136 314.552L243.225 327.982L233.432 314.215Z" fill="white"/>
<path d="M243.225 329.105C243.379 329.103 243.531 329.068 243.67 329.002C243.81 328.936 243.934 328.841 244.033 328.724C244.198 328.529 244.288 328.282 244.288 328.027C244.288 327.772 244.198 327.526 244.033 327.331L234.353 313.541C234.249 313.419 234.128 313.313 233.994 313.226L210.905 299.751C210.685 299.621 210.427 299.57 210.173 299.607C209.92 299.643 209.687 299.765 209.513 299.953C209.354 300.154 209.268 300.404 209.268 300.66C209.268 300.917 209.354 301.166 209.513 301.368L219.305 315.113C219.388 315.245 219.504 315.354 219.642 315.427L242.731 328.903C242.88 329.003 243.048 329.072 243.225 329.105ZM232.669 315.068L239.407 324.389L221.012 313.698L214.274 304.377L232.669 315.068Z" fill="#93D0FF"/>
<path d="M238.598 285.331L215.509 271.923L215.577 294.293L238.665 307.701L238.598 285.331Z" fill="white"/>
<path d="M238.665 308.824C238.861 308.825 239.053 308.779 239.227 308.689C239.4 308.589 239.543 308.445 239.642 308.272C239.74 308.098 239.791 307.901 239.788 307.701V285.241C239.771 285.053 239.707 284.871 239.601 284.714C239.495 284.557 239.35 284.429 239.182 284.343L216.093 270.867C215.923 270.769 215.729 270.717 215.532 270.717C215.335 270.717 215.141 270.769 214.97 270.867C214.801 270.965 214.659 271.106 214.561 271.275C214.462 271.445 214.41 271.637 214.409 271.833V294.293C214.41 294.489 214.462 294.681 214.561 294.85C214.659 295.02 214.801 295.16 214.97 295.258L238.059 308.734C238.25 308.816 238.459 308.847 238.665 308.824ZM237.475 285.983V305.747L216.722 293.641V273.877L237.475 285.983Z" fill="#93D0FF"/>
<path d="M265.1 232.484L242.012 219.053L242.034 226.015L265.123 239.424L265.1 232.484Z" fill="white"/>
<path d="M265.123 240.547C265.321 240.548 265.516 240.494 265.684 240.39C265.833 240.278 265.952 240.132 266.031 239.963C266.109 239.795 266.144 239.609 266.134 239.424V232.461C266.128 232.266 266.074 232.076 265.976 231.907C265.878 231.738 265.739 231.597 265.572 231.496L242.484 218.02C242.313 217.921 242.119 217.869 241.922 217.869C241.725 217.869 241.531 217.921 241.361 218.02C241.188 218.114 241.044 218.254 240.945 218.424C240.846 218.594 240.796 218.789 240.799 218.985V225.948C240.806 226.143 240.862 226.332 240.959 226.501C241.057 226.669 241.195 226.811 241.361 226.914L264.449 240.39C264.65 240.515 264.887 240.57 265.123 240.547ZM263.977 233.113V237.47L243.135 225.364V221.007L263.977 233.113Z" fill="#93D0FF"/>
<path d="M284.551 221.231L261.462 207.823L242.012 219.053L265.1 232.484L284.551 221.231Z" fill="white"/>
<path d="M265.1 233.584C265.295 233.583 265.487 233.537 265.662 233.45L285.134 222.22C285.3 222.117 285.438 221.975 285.536 221.807C285.633 221.638 285.688 221.449 285.696 221.254C285.695 221.058 285.642 220.866 285.544 220.696C285.445 220.527 285.304 220.386 285.134 220.288L262.046 206.812C261.871 206.714 261.674 206.662 261.473 206.662C261.273 206.662 261.075 206.714 260.9 206.812L241.45 218.042C241.277 218.137 241.134 218.277 241.035 218.447C240.936 218.617 240.885 218.811 240.889 219.008C240.888 219.202 240.937 219.393 241.031 219.562C241.126 219.731 241.262 219.873 241.428 219.974L264.539 233.45C264.711 233.542 264.905 233.588 265.1 233.584ZM282.327 221.232L265.1 231.181L244.235 219.053L261.462 209.103L282.327 221.232Z" fill="#93D0FF"/>
<path d="M265.123 239.424L242.034 226.016L225.19 246.948L248.278 260.356L265.123 239.424Z" fill="white"/>
<path d="M248.166 261.48C248.335 261.482 248.503 261.445 248.655 261.371C248.807 261.297 248.94 261.188 249.042 261.053L265.887 240.12C265.983 239.994 266.053 239.849 266.092 239.694C266.13 239.54 266.137 239.379 266.111 239.222C266.077 239.065 266.012 238.916 265.92 238.785C265.827 238.654 265.709 238.543 265.572 238.458L242.484 224.983C242.247 224.851 241.972 224.806 241.705 224.856C241.439 224.905 241.198 225.045 241.024 225.252L224.314 246.162C224.211 246.29 224.138 246.439 224.1 246.598C224.061 246.757 224.057 246.922 224.089 247.083C224.114 247.243 224.176 247.395 224.27 247.528C224.363 247.66 224.486 247.769 224.628 247.847L247.717 261.322C247.852 261.41 248.006 261.464 248.166 261.48ZM263.304 239.739L247.896 258.897L226.762 246.634L242.169 227.453L263.304 239.739Z" fill="#93D0FF"/>
<path d="M248.278 260.356L225.19 246.948L219.934 246.476L243.023 259.907L248.278 260.356Z" fill="white"/>
<path d="M248.166 261.479C248.411 261.477 248.648 261.394 248.842 261.244C249.036 261.094 249.175 260.884 249.239 260.648C249.302 260.411 249.287 260.16 249.194 259.933C249.102 259.706 248.938 259.515 248.727 259.39L225.639 245.915C225.493 245.836 225.332 245.79 225.167 245.78L219.911 245.308C219.65 245.277 219.387 245.339 219.166 245.482C218.946 245.625 218.783 245.841 218.706 246.092C218.628 246.343 218.641 246.614 218.742 246.856C218.844 247.099 219.027 247.298 219.26 247.419L242.349 260.895C242.491 260.984 242.653 261.037 242.82 261.052L248.076 261.502L248.166 261.479Z" fill="#93D0FF"/>
<path d="M243.023 259.907L219.934 246.476L210.254 271.474L233.343 284.905L243.023 259.907Z" fill="white"/>
<path d="M233.342 286.028C233.469 286.051 233.598 286.051 233.724 286.028C233.876 285.973 234.015 285.886 234.131 285.774C234.247 285.662 234.338 285.526 234.398 285.377L244.078 260.311C244.165 260.058 244.163 259.782 244.073 259.529C243.984 259.277 243.811 259.062 243.584 258.919L220.496 245.443C220.347 245.378 220.186 245.344 220.024 245.344C219.861 245.344 219.701 245.378 219.552 245.443C219.402 245.501 219.264 245.588 219.149 245.7C219.033 245.812 218.941 245.946 218.878 246.095L209.221 271.092C209.124 271.343 209.117 271.62 209.204 271.874C209.29 272.129 209.463 272.345 209.692 272.485L232.781 285.96C232.959 286.034 233.153 286.057 233.342 286.028ZM241.63 260.379L232.781 283.265L211.646 271.002L220.496 248.116L241.63 260.379Z" fill="#93D0FF"/>
<path d="M238.598 285.331L233.342 284.905L243.022 259.907L248.278 260.356L265.123 239.424V232.461L284.573 221.231V228.194L301.463 229.654L306.696 223.14L316.488 236.886L311.255 243.399V265.859L316.51 266.308L306.83 291.306L301.575 290.856L284.753 311.766V318.729L265.28 329.959V322.974L248.39 321.536L243.157 328.05L233.365 314.282L238.598 307.768V285.331ZM275.005 293.462C279.538 290.514 283.309 286.535 286.01 281.851C288.712 277.167 290.266 271.91 290.547 266.51C290.547 256.628 283.517 252.652 274.825 257.526C270.286 260.466 266.512 264.443 263.813 269.129C261.115 273.816 259.57 279.077 259.306 284.478C259.396 294.45 266.403 298.425 275.005 293.462Z" fill="white"/>
<path d="M265.37 331.015C265.568 331.019 265.764 330.964 265.931 330.857L285.404 319.628C285.574 319.524 285.715 319.379 285.813 319.206C285.911 319.033 285.964 318.838 285.965 318.639V312.081L302.159 291.867L306.83 292.249C307.068 292.27 307.306 292.214 307.508 292.088C307.711 291.963 307.867 291.775 307.953 291.553L317.656 266.555C317.728 266.401 317.766 266.232 317.766 266.061C317.766 265.89 317.728 265.722 317.656 265.567C317.56 265.418 317.431 265.291 317.279 265.198C317.128 265.105 316.957 265.047 316.78 265.028L312.558 264.669V243.714L317.544 237.537C317.691 237.34 317.771 237.099 317.771 236.852C317.771 236.606 317.691 236.365 317.544 236.167L307.751 222.422C307.654 222.279 307.523 222.161 307.371 222.079C307.219 221.997 307.049 221.953 306.875 221.95C306.701 221.945 306.529 221.978 306.369 222.048C306.21 222.118 306.068 222.223 305.955 222.355L301.103 228.419L285.831 227.094V221.232C285.825 221.034 285.768 220.841 285.666 220.672C285.564 220.503 285.419 220.363 285.247 220.266C285.08 220.167 284.89 220.115 284.696 220.115C284.503 220.115 284.313 220.167 284.146 220.266L264.674 231.496C264.501 231.596 264.357 231.74 264.259 231.914C264.16 232.087 264.109 232.284 264.112 232.484V239.042L247.919 259.256L243.247 258.852C243.004 258.831 242.761 258.89 242.554 259.019C242.347 259.149 242.189 259.342 242.102 259.57L232.444 284.568C232.381 284.73 232.356 284.905 232.371 285.078C232.387 285.252 232.443 285.419 232.534 285.567C232.626 285.715 232.751 285.84 232.899 285.932C233.047 286.023 233.214 286.079 233.387 286.095L237.61 286.432V307.387L232.444 313.541C232.298 313.735 232.219 313.972 232.219 314.215C232.219 314.458 232.298 314.694 232.444 314.889L242.236 328.656C242.34 328.794 242.472 328.907 242.623 328.988C242.774 329.069 242.941 329.117 243.112 329.128C243.285 329.131 243.456 329.094 243.611 329.02C243.767 328.946 243.904 328.837 244.011 328.701L248.884 322.66L264.157 323.962V329.914C264.158 330.11 264.211 330.302 264.309 330.472C264.408 330.641 264.549 330.782 264.719 330.88C264.914 330.997 265.144 331.044 265.37 331.015ZM283.719 318.033L266.493 327.96V322.929C266.493 322.649 266.387 322.378 266.195 322.174C266.003 321.969 265.74 321.846 265.46 321.829L248.57 320.391C248.388 320.373 248.205 320.401 248.036 320.471C247.867 320.542 247.719 320.653 247.604 320.796L243.292 326.141L234.87 314.282L239.564 308.443C239.724 308.237 239.811 307.984 239.811 307.724V285.264C239.811 284.984 239.705 284.714 239.513 284.509C239.321 284.304 239.058 284.181 238.778 284.164L235.027 283.849L243.674 261.098L248.166 261.48C248.349 261.493 248.534 261.461 248.702 261.387C248.87 261.312 249.018 261.198 249.132 261.053L265.976 240.12C266.105 239.912 266.16 239.667 266.134 239.424V233.113L283.36 223.186V228.194C283.36 228.475 283.466 228.745 283.658 228.95C283.85 229.154 284.113 229.278 284.393 229.295L301.283 230.777C301.466 230.789 301.65 230.756 301.818 230.682C301.986 230.607 302.134 230.494 302.249 230.35L306.561 225.005L315.006 236.864L310.289 242.681C310.129 242.886 310.042 243.139 310.042 243.399V265.859C310.042 266.14 310.148 266.41 310.34 266.614C310.532 266.819 310.795 266.942 311.075 266.96L314.826 267.297L305.999 290.116L301.507 289.734C301.324 289.72 301.14 289.752 300.971 289.827C300.803 289.901 300.655 290.016 300.542 290.16L283.719 311.07C283.562 311.269 283.476 311.514 283.472 311.767L283.719 318.033ZM267.998 296.741C270.666 296.663 273.267 295.889 275.544 294.495C280.233 291.445 284.135 287.331 286.933 282.487C289.732 277.644 291.347 272.208 291.648 266.623C291.648 261.457 289.806 257.639 286.504 255.64C283.203 253.641 278.868 254.135 274.331 256.763C269.645 259.808 265.745 263.919 262.95 268.759C260.155 273.599 258.545 279.032 258.25 284.613C258.25 289.801 260.069 293.709 263.371 295.596C264.791 296.383 266.397 296.771 268.02 296.719L267.998 296.741ZM274.421 292.496C270.603 294.742 267.077 295.102 264.494 293.619C261.911 292.137 260.496 288.925 260.496 284.635C260.77 279.442 262.268 274.387 264.868 269.883C267.467 265.378 271.095 261.553 275.454 258.717C279.272 256.471 282.799 256.134 285.381 257.616C287.964 259.099 289.379 262.311 289.402 266.6C289.12 271.791 287.616 276.842 285.013 281.342C282.41 285.842 278.781 289.664 274.421 292.496Z" fill="#93D0FF"/>
<path d="M93.4537 123.439C88.7638 120.717 81.1495 120.717 76.4479 123.439C71.7463 126.161 71.7386 130.544 76.4479 133.254C81.1573 135.965 88.7599 135.977 93.4615 133.254C98.1631 130.532 98.1514 126.153 93.4537 123.439Z" fill="#3199F0"/>
<path d="M84.9371 136.564C81.655 136.564 78.3767 135.825 75.8217 134.351C73.1579 132.796 71.6879 130.692 71.6918 128.378C71.6957 126.064 73.1657 123.945 75.8334 122.409C80.9433 119.453 88.9543 119.445 94.0681 122.409C96.7358 123.964 98.2019 126.072 98.2019 128.382C98.2019 130.692 96.7319 132.819 94.0603 134.359C91.5014 135.805 88.2193 136.564 84.9371 136.564ZM84.9682 122.642C82.106 122.642 79.24 123.272 77.0623 124.536C75.1801 125.617 74.1456 126.982 74.1456 128.382C74.1456 129.782 75.1762 131.143 77.0506 132.228C81.3983 134.74 88.4798 134.74 92.8353 132.228C94.7136 131.147 95.748 129.778 95.748 128.378C95.748 126.978 94.7175 125.613 92.8392 124.528C90.6692 123.249 87.8187 122.622 84.9682 122.622V122.642Z" fill="#93D0FF"/>
<path d="M96.5024 114.899C90.1325 111.228 79.7805 111.228 73.3989 114.899C67.0174 118.57 67.0096 124.555 73.3989 128.23C79.7883 131.905 90.1209 131.917 96.5102 128.23C102.9 124.543 102.876 118.586 96.5024 114.899Z" fill="#3199F0"/>
<path d="M84.9333 132.216C80.5273 132.216 76.1251 131.244 72.773 129.307C69.3002 127.304 67.3831 124.563 67.3831 121.588C67.3831 118.613 69.3003 115.86 72.7846 113.853C79.4967 109.964 90.4087 109.964 97.117 113.853C100.594 115.864 102.511 118.609 102.511 121.588C102.511 124.567 100.594 127.308 97.1131 129.319C93.7531 131.244 89.3432 132.216 84.9333 132.216ZM84.9722 113.359C81.0017 113.359 77.0351 114.234 74.0096 115.976C71.3185 117.532 69.8369 119.519 69.8369 121.584C69.8369 123.649 71.3147 125.636 74.0018 127.184C80.0295 130.684 89.8448 130.684 95.8842 127.184C98.5752 125.628 100.057 123.637 100.057 121.572C100.057 119.507 98.5752 117.52 95.8881 115.965C92.882 114.226 88.9271 113.359 84.9722 113.359Z" fill="#93D0FF"/>
<path d="M96.5024 108.125C90.1325 104.446 79.7805 104.446 73.3989 108.125C67.0174 111.804 67.0096 117.777 73.3989 121.452C79.7883 125.127 90.1209 125.139 96.5102 121.452C102.9 117.765 102.876 111.808 96.5024 108.125Z" fill="#3199F0"/>
<path d="M84.9333 125.434C80.5273 125.434 76.1251 124.466 72.773 122.525C69.3002 120.523 67.3831 117.781 67.3831 114.806C67.3831 111.831 69.3003 109.082 72.7846 107.075C79.4967 103.186 90.4126 103.186 97.117 107.075C100.594 109.086 102.511 111.835 102.511 114.806C102.511 117.777 100.594 120.527 97.1131 122.537C93.7531 124.462 89.3432 125.434 84.9333 125.434ZM84.9722 106.581C81.0017 106.581 77.0351 107.452 74.0135 109.198C71.3185 110.754 69.8369 112.745 69.8369 114.806C69.8369 116.867 71.3147 118.854 74.0018 120.402C80.0295 123.902 89.8448 123.902 95.8842 120.402C98.5752 118.847 100.057 116.855 100.057 114.794C100.057 112.733 98.5752 110.742 95.8881 109.191C92.8781 107.448 88.9271 106.581 84.9722 106.581Z" fill="#93D0FF"/>
<path d="M84.9448 30.2435C78.74 30.2438 72.6556 31.9563 67.3616 35.1924C62.0675 38.4285 57.7692 43.0628 54.9398 48.5849C52.1104 54.107 50.8596 60.3028 51.3253 66.4901C51.791 72.6774 53.955 78.6162 57.5792 83.6526C63.7002 92.1419 65.9207 93.7091 65.9207 105.908C65.9207 108.716 67.7873 111.524 71.4973 113.686C75.2072 115.848 80.0799 116.906 84.9448 116.906C89.8097 116.906 94.6669 115.829 98.3962 113.686C102.126 111.543 103.965 108.735 103.969 105.908C103.969 93.7091 106.193 92.1419 112.31 83.6526C115.935 78.6162 118.099 72.6774 118.564 66.4901C119.03 60.3028 117.779 54.107 114.95 48.5849C112.12 43.0628 107.822 38.4285 102.528 35.1924C97.234 31.9563 91.1496 30.2438 84.9448 30.2435Z" fill="white"/>
<path d="M117.288 73.4406C114.913 77.4357 111.657 80.8355 107.768 83.3806C103.879 85.9256 99.4596 87.5487 94.8478 88.1259C90.2359 88.7032 85.5532 88.2193 81.1568 86.7113C76.7604 85.2032 72.7666 82.7109 69.4801 79.4244C66.1936 76.1379 63.7013 72.1441 62.1933 67.7477C60.6852 63.3514 60.2013 58.6686 60.7786 54.0568C61.3558 49.4449 62.9789 45.0259 65.524 41.1368C68.069 37.2478 71.4688 33.9914 75.464 31.6163C70.337 33.1137 65.6397 35.8091 61.7599 39.4799C57.8801 43.1507 54.9291 47.6918 53.1504 52.728C51.3717 57.7643 50.8164 63.1514 51.5304 68.4446C52.2443 73.7379 54.207 78.7854 57.2565 83.1704C57.3692 83.3337 57.4703 83.5048 57.587 83.6682C63.708 92.1575 65.9286 93.7247 65.9286 105.924C65.9286 106.029 65.9558 106.134 65.9597 106.235C65.9938 106.923 66.1342 107.601 66.3757 108.246C66.4987 108.577 66.6456 108.899 66.8152 109.21C66.8351 109.235 66.8521 109.263 66.8657 109.292C67.0335 109.593 67.2192 109.884 67.4219 110.163C67.4646 110.221 67.5191 110.279 67.5618 110.334C67.7563 110.59 67.9507 110.843 68.184 111.092C68.2735 111.189 68.3824 111.279 68.4757 111.376C68.6818 111.582 68.8879 111.792 69.1174 111.994C69.2846 112.138 69.4829 112.274 69.6657 112.422C69.8485 112.57 70.0196 112.714 70.2218 112.85C70.6107 113.134 71.0462 113.402 71.4973 113.667C75.215 115.809 80.0799 116.886 84.9448 116.886C89.8098 116.886 94.6669 115.809 98.3963 113.667C101.97 111.605 103.806 108.922 103.942 106.219C103.106 108.141 101.41 109.96 98.8085 111.465C95.1569 113.573 90.4203 114.643 85.6371 114.744C88.122 89.0775 97.0624 100.324 108.484 88.9025C109.542 87.3937 110.817 85.7253 112.311 83.6409C112.427 83.4776 112.528 83.3065 112.641 83.1432L112.567 83.2443C114.659 80.2525 116.254 76.9418 117.288 73.4406Z" fill="#CEE7FD"/>
<path d="M84.9449 118.123C79.6678 118.123 74.6707 116.922 70.883 114.74C66.8969 112.438 64.6997 109.296 64.6959 105.92C64.6959 95.4202 63.1131 93.2581 58.4154 86.8648C57.8476 86.0871 57.2488 85.2665 56.5838 84.3604C52.8263 79.1406 50.5823 72.9851 50.0989 66.5717C49.6154 60.1583 50.9113 53.7359 53.8438 48.0118C56.7762 42.2877 61.2316 37.4839 66.7191 34.1294C72.2066 30.775 78.5134 29 84.9449 29C91.3765 29 97.6833 30.775 103.171 34.1294C108.658 37.4839 113.114 42.2877 116.046 48.0118C118.979 53.7359 120.274 60.1583 119.791 66.5717C119.308 72.9851 117.064 79.1406 113.306 84.3604C112.653 85.2665 112.042 86.0949 111.474 86.8648C106.777 93.2503 105.194 95.3969 105.194 105.897C105.194 109.296 102.993 112.426 99.0108 114.728C95.2192 116.922 90.2259 118.123 84.9449 118.123ZM84.9449 31.4686C78.9651 31.4677 73.1011 33.1173 67.9987 36.2356C62.8964 39.354 58.7537 43.8201 56.027 49.142C53.3002 54.464 52.0953 60.4353 52.5449 66.3982C52.9944 72.361 55.081 78.0842 58.5749 82.9371C59.2243 83.8354 59.8271 84.656 60.391 85.4221C65.1703 91.9164 67.1497 94.6036 67.1497 105.908C67.1497 108.389 68.9153 110.769 72.108 112.617C75.5301 114.584 80.0878 115.673 84.9411 115.673C89.7943 115.673 94.3559 114.584 97.7742 112.613C100.967 110.769 102.729 108.389 102.732 105.916C102.732 94.6036 104.712 91.9164 109.491 85.4221C110.055 84.6443 110.658 83.8354 111.311 82.9371C114.804 78.0835 116.889 72.3603 117.338 66.3976C117.786 60.4349 116.581 54.464 113.854 49.1424C111.127 43.8209 106.985 39.355 101.882 36.2367C96.7804 33.1183 90.9168 31.4684 84.9372 31.4686H84.9449Z" fill="#93D0FF"/>
<defs>
<linearGradient id="paint0_linear" x1="189.78" y1="306.699" x2="70.7192" y2="170.591" gradientUnits="userSpaceOnUse">
<stop stop-color="#CCE5FB"/>
<stop offset="1" stop-color="#CEE7FD" stop-opacity="0"/>
</linearGradient>
<linearGradient id="paint1_linear" x1="275.756" y1="325.486" x2="191.037" y2="270.678" gradientUnits="userSpaceOnUse">
<stop offset="0.333852" stop-color="#CCE5FB"/>
<stop offset="1" stop-color="#CEE7FD" stop-opacity="0"/>
</linearGradient>
</defs>
</svg>
