<svg width="113" height="116" viewBox="0 0 113 116" fill="none" xmlns="http://www.w3.org/2000/svg">
<path d="M57.542 73.5975C57.2472 73.9851 56.9115 74.3397 56.5407 74.6553C54.0713 76.5563 43.7421 85.0109 36.5221 82.485C26.4941 78.9729 32.1669 71.1733 34.3426 68.0452C33.9097 67.9812 33.4994 67.9323 33.0853 67.8833C34.4518 66.1856 35.2837 63.193 35.2837 57.1325C35.2837 48.9113 41.4119 43.9575 46.3469 44.2774C51.2819 44.5974 57.5457 47.1722 56.1341 54.091C55.1705 58.721 52.8705 69.167 57.542 73.5975Z" fill="white"/>
<path opacity="0.56" d="M110.536 81.9635L92.0017 71.8921C90.3721 71.0637 88.5699 70.6318 86.7418 70.6318C84.9137 70.6318 83.1114 71.0637 81.4818 71.8921L44.7417 95.1318C41.8442 96.7781 40.8607 100.453 43.7418 102.132L60.505 111.021C62.1346 111.849 63.9136 113.632 65.7417 113.632C67.5698 113.632 69.3953 111.849 71.0249 111.021L110.536 88.0548C113.466 86.3756 113.45 83.6427 110.536 81.9635Z" fill="url(#paint0_linear)"/>
<path d="M70.7657 57.4635L52.2313 47.3921C50.6017 46.5637 48.7995 46.1318 46.9714 46.1318C45.1433 46.1318 43.341 46.5637 41.7114 47.3921L4.97133 70.6318C2.07385 72.2781 1.09035 75.9526 3.97137 77.6318L20.7347 86.5206C22.3642 87.3491 24.1432 89.1318 25.9713 89.1318C27.7994 89.1318 29.6249 87.3491 31.2545 86.5206L70.7657 63.5548C73.6961 61.8756 73.6796 59.1427 70.7657 57.4635Z" fill="url(#paint1_linear)"/>
<path d="M55.1475 63.6318C55.1475 62.0318 55.4808 57.2985 55.6475 55.1318C55.3141 55.2985 54.4475 55.8318 53.6475 56.6318L46.6475 63.6318C45.1475 65.1318 40.6475 67.1318 37.6475 67.6318C34.6475 68.1318 34.1475 68.1318 32.6475 70.6318C31.1475 73.1318 30.4341 74.0781 31.7418 79.1318C32.6475 82.6318 38.7418 83.1318 45.2418 81.6318C50.4418 80.4318 55.8141 74.7985 57.6475 72.6318C57.1475 72.1318 56.0475 70.8318 55.6475 69.6318C55.1475 68.1318 55.1475 65.6318 55.1475 63.6318Z" fill="white"/>
<g style="mix-blend-mode:overlay" opacity="0.5">
<path d="M57.5419 73.5974C57.2471 73.985 56.9114 74.3396 56.5406 74.6552C55.9496 75.1069 54.9069 75.9388 53.5706 76.9138C48.3006 74.2449 48.8727 65.8656 49.0083 58.0471C49.0798 54.121 46.2716 50.2061 42.1497 45.2109C43.4486 44.5546 44.8927 44.2386 46.3469 44.2924C51.2781 44.5898 57.5457 47.1871 56.1341 54.1059C55.1704 58.7209 52.8704 69.1669 57.5419 73.5974Z" fill="#5F98ED"/>
</g>
<path d="M39.4319 83.4111C38.3924 83.4211 37.3588 83.2544 36.3753 82.918C33.2321 81.8151 31.2897 80.1813 30.6046 78.0583C29.4753 74.5801 31.9673 70.7029 33.5596 68.4029L33.1417 68.3502H33.0326C32.9505 68.3437 32.8719 68.3146 32.8054 68.2661C32.739 68.2176 32.6873 68.1515 32.6561 68.0754C32.6266 68.0014 32.6173 67.9209 32.6292 67.8422C32.6411 67.7635 32.6738 67.6893 32.7239 67.6274C34.1731 65.8206 34.8206 62.5908 34.8206 57.1552C34.8206 53.0483 36.3263 49.3706 39.0517 46.8033C41.2049 44.7782 43.8737 43.7016 46.3582 43.8559C50.2542 44.093 53.6044 45.5686 55.3172 47.8084C56.646 49.5437 57.0601 51.6969 56.5444 54.2077L56.4691 54.5841C55.4904 59.3159 53.4576 69.1557 57.8317 73.3153C57.9133 73.392 57.9628 73.4966 57.9705 73.6083C57.9782 73.72 57.9434 73.8304 57.8731 73.9176C57.5587 74.3328 57.1989 74.7116 56.8003 75.0469L56.3787 75.3706C53.6233 77.4899 46.0194 83.4111 39.4319 83.4111ZM33.8795 67.5446L34.4065 67.6161C34.482 67.6267 34.5535 67.6565 34.6141 67.7026C34.6748 67.7488 34.7225 67.8098 34.7527 67.8797C34.783 67.9497 34.7947 68.0262 34.7868 68.102C34.7789 68.1778 34.7517 68.2503 34.7077 68.3125L34.5835 68.4932C33.1191 70.5937 30.3938 74.5161 31.4516 77.7835C32.0501 79.628 33.8043 81.0697 36.6689 82.0748C43.2978 84.3974 52.7424 77.0532 55.848 74.6403L56.2696 74.3128C56.5152 74.1101 56.7397 73.8831 56.9396 73.6352C52.5843 69.0014 54.6208 59.1578 55.6108 54.3733L55.6823 54.0157C56.1453 51.7572 55.7915 49.875 54.6246 48.3392C53.0661 46.3027 49.9606 44.9513 46.3205 44.7367C44.1109 44.5975 41.6265 45.6138 39.6803 47.4433C37.1319 49.8374 35.7278 53.2855 35.7278 57.1439C35.7278 62.237 35.1556 65.5006 33.8795 67.5446Z" fill="#93D0FF"/>
<path d="M27.6044 44.492C27.6044 53.6581 27.3108 68.1092 34.3802 69.1068C41.4495 70.1043 58.6034 58.3409 58.6034 45.2863C58.6034 32.2317 48.3532 25.1849 39.5674 27.4473C31.1805 29.608 27.6044 38.8117 27.6044 44.492Z" fill="white"/>
<g style="mix-blend-mode:overlay" opacity="0.5">
<path d="M58.6072 45.2863C58.6072 58.3408 41.4646 70.1043 34.384 69.1067C33.6783 68.9934 33.0031 68.7378 32.3993 68.3553C31.7955 67.9729 31.2758 67.4716 30.8719 66.882C32.0878 67.5144 34.0565 68.8319 36.4732 67.6913C40.9527 65.572 47.4687 59.8992 47.894 54.8927C48.4286 48.6553 50.0096 44.9512 50.9883 41.7177C50.9883 41.7177 51.0222 40.0313 52.2456 30.5415C55.976 33.6282 58.6072 38.6874 58.6072 45.2863Z" fill="#5F98ED"/>
</g>
<path d="M35.2648 69.6111C34.95 69.6135 34.6354 69.5921 34.3238 69.5471C27.1339 68.5345 27.149 55.2428 27.1716 45.5498V44.492C27.1716 38.5519 30.9848 29.2014 39.4658 27.0144C43.7684 25.9077 48.3759 26.9316 52.1101 29.8225C56.5293 33.248 59.0627 38.8832 59.0627 45.2863C59.0627 51.1096 55.6109 57.4525 49.588 62.6848C44.7433 66.8858 39.0479 69.6111 35.2648 69.6111ZM42.9064 27.451C41.8168 27.4508 40.7315 27.5887 39.6766 27.8613C31.6586 29.9279 28.0524 38.8192 28.0524 44.4732V45.5347C28.0524 54.377 28.0261 67.744 34.4517 68.6475C37.9412 69.1368 43.9227 66.3889 48.997 61.9922C54.8241 56.9292 58.163 50.8348 58.163 45.2674C58.163 39.0526 55.8179 33.8127 51.5567 30.5114C49.0911 28.565 46.0476 27.4949 42.9064 27.4698V27.451Z" fill="#93D0FF"/>
<path d="M31.2821 30.0634C26.7876 34.5805 21.8337 35.8415 31.6774 40.7013C38.7204 44.1795 42.0668 39.6962 47.4234 41.4993C50.5666 42.5571 47.7321 50.2889 48.5941 50.5336C49.4561 50.7783 51.1764 51.5763 51.6583 50.1346C53.5818 44.3602 57.5757 47.4996 57.188 50.5788C56.8003 53.658 53.706 57.3545 54.553 60.3659C55.3999 63.3774 56.7137 57.4373 59.8795 51.3053C63.0452 45.1732 63.3163 33.7147 54.2067 28.0833C45.0971 22.452 36.507 24.8272 31.2821 30.0634Z" fill="#5F98ED"/>
<path d="M54.2255 28.0835C63.3351 33.7299 63.0566 45.1809 59.8983 51.3054C56.7401 57.4299 55.4452 63.3738 54.5719 60.3661C53.6986 57.3584 56.8003 53.6506 57.2069 50.5789C57.6134 47.5073 53.6007 44.3603 51.6771 50.1347C51.2028 51.5501 49.5465 50.7935 48.6657 50.545C49.5691 47.4019 51.0899 45.2186 52.3735 43.0165C54.0411 40.1443 54.873 35.932 51.9594 31.5918C46.9793 24.1611 37.8546 26.51 34.2861 27.6581C39.4883 24.259 46.6781 23.4308 54.2255 28.0835Z" fill="#4E8AE3"/>
<path d="M55.129 61.6195H55.0876C54.4777 61.5894 54.2556 60.8214 54.1578 60.4902C53.5931 58.5215 54.5342 56.3758 55.4602 54.2979C56.055 52.9503 56.6159 51.6629 56.7627 50.511C56.9358 49.1258 56.0663 47.6314 54.9407 47.3754C53.8152 47.1194 52.7913 48.1772 52.0987 50.2626C51.5416 51.9189 49.8138 51.3693 48.8877 51.0719C48.7447 51.0268 48.6092 50.9816 48.5113 50.9515C47.8337 50.7708 47.9617 49.8937 48.2139 48.1471C48.5377 45.8885 49.0308 42.5006 47.3143 41.9247C45.1009 41.1718 43.2225 41.5671 41.2349 41.9774C38.5999 42.5194 35.6337 43.1368 31.5118 41.1041C27.5367 39.1391 25.7637 37.6673 25.5755 36.1766C25.3872 34.6859 26.8102 33.4475 28.617 31.9041C29.3699 31.2717 30.1943 30.5565 30.9998 29.7472C35.9386 24.8009 44.7019 21.6652 54.4928 27.7032C63.8621 33.4927 63.5271 45.3314 60.3274 51.5086C59.1982 53.6655 58.3286 55.8112 57.6209 57.5315C56.3448 60.5429 55.8818 61.6195 55.129 61.6195ZM54.6245 46.4494C54.7938 46.4465 54.9629 46.4616 55.129 46.4945C56.6987 46.871 57.8694 48.7757 57.6397 50.6127C57.4741 51.9076 56.8605 53.3004 56.2695 54.6442C55.4151 56.5791 54.5342 58.5779 55.0085 60.2304C55.0456 60.3675 55.0947 60.501 55.1553 60.6295C55.5317 60.1966 56.1829 58.6043 56.7702 57.1814C57.4854 55.4423 58.3775 53.2816 59.5068 51.0907C62.5409 45.2071 62.8947 33.9444 53.9997 28.4523C44.6492 22.6854 36.3075 25.6592 31.6059 30.3645C30.774 31.1964 29.9195 31.923 29.1704 32.5666C27.5705 33.9331 26.3057 35.0134 26.4337 36.0524C26.5768 37.1817 28.3159 38.5218 31.8807 40.2872C35.7278 42.1694 38.423 41.6273 41.0279 41.089C43.0456 40.6712 45.131 40.242 47.5702 41.0627C50.0095 41.8833 49.4524 45.7191 49.076 48.26C48.9644 48.8753 48.9002 49.4982 48.884 50.1233L49.155 50.2061C50.3859 50.6014 51.0146 50.6654 51.248 49.9652C52.2342 46.9839 53.6948 46.4494 54.6095 46.4494H54.6245Z" fill="#93D0FF"/>
<path d="M41.9539 26.3857L45.3869 24.4057L68.8347 37.9572V65.0036L65.4055 66.9837L59.9698 63.848V43.054L41.9539 32.6533V26.3857ZM41.9539 101.024L65.4055 114.576L68.8347 112.592V85.5379L63.4104 82.3985L59.9811 84.3822V101.197L45.3869 92.7954L41.9539 94.7566V101.024ZM0.689697 2.56151V29.608L6.12157 32.7474L9.55461 30.7636V13.9485L24.1375 22.3692L27.5743 20.3855V14.1217L4.12273 0.57019L0.689697 2.56151ZM0.689697 77.2L24.1375 90.7514L27.5705 88.7714V82.4926L9.55461 72.0918V51.3129L4.12273 48.1772L0.689697 50.1573V77.2Z" fill="white"/>
<path d="M27.5706 14.1217V20.3854L24.1337 22.3692V16.1017L0.685958 2.55021L4.12276 0.57019L27.5706 14.1217ZM6.11407 32.7474L9.5471 30.7636V13.9485L24.13 22.3692L6.11407 11.9685V32.7474ZM9.5471 51.3129L4.11523 48.1772L0.68219 50.1573L6.11407 53.2929V74.0718L24.13 84.4763V90.7401L27.563 88.7601V82.4926L9.55464 72.0918L9.5471 51.3129ZM45.387 92.7954L41.9539 94.7566L59.9698 105.161V101.197L45.387 92.7954ZM45.387 24.4245L41.9539 26.3857L65.4055 39.9372V66.9724L68.8348 64.9923V37.9459L45.387 24.4245ZM59.9736 84.4011L65.4055 87.5254V114.572L68.8348 112.588V85.5379L63.4104 82.3985L59.9736 84.4011Z" fill="#CEE7FD"/>
<path d="M65.4055 115.005C65.3278 115.005 65.2514 114.986 65.1834 114.948L41.7318 101.397C41.666 101.358 41.6111 101.303 41.5722 101.237C41.5334 101.171 41.5119 101.097 41.5097 101.02V94.7565C41.5126 94.6803 41.5344 94.6059 41.5731 94.5402C41.6119 94.4745 41.6664 94.4195 41.7318 94.3801L45.1649 92.4001C45.2324 92.3611 45.309 92.3406 45.387 92.3406C45.4649 92.3406 45.5415 92.3611 45.6091 92.4001L59.537 100.437V84.3821C59.5388 84.3052 59.5605 84.23 59.6001 84.1641C59.6397 84.0981 59.6958 84.0435 59.7628 84.0057L63.1883 82.0219C63.2565 81.983 63.3337 81.9625 63.4123 81.9625C63.4908 81.9625 63.568 81.983 63.6363 82.0219L69.0569 85.1501C69.1229 85.1886 69.178 85.2434 69.2169 85.3093C69.2558 85.3752 69.2772 85.45 69.279 85.5265V112.569C69.2768 112.646 69.2548 112.721 69.2153 112.787C69.1757 112.853 69.1199 112.908 69.0531 112.946L65.6238 114.929C65.5586 114.973 65.4834 114.998 65.4055 115.005ZM42.4019 100.764L65.4055 114.045L68.3868 112.321V85.7938L63.4104 82.9141L60.4253 84.6381V101.201C60.4225 101.277 60.4007 101.352 60.3619 101.417C60.3232 101.483 60.2686 101.538 60.2032 101.577C60.135 101.616 60.0578 101.637 59.9793 101.637C59.9007 101.637 59.8235 101.616 59.7553 101.577L45.3945 93.296L42.4094 95.02L42.4019 100.764ZM24.1375 91.1805C24.0594 91.181 23.9826 91.1601 23.9154 91.1202L0.463864 77.5688C0.397779 77.5302 0.342649 77.4754 0.303771 77.4095C0.264893 77.3436 0.243551 77.2688 0.24176 77.1923V50.1572C0.24319 50.0806 0.264397 50.0057 0.303311 49.9397C0.342226 49.8738 0.397535 49.819 0.463864 49.7807L3.8969 47.8007C3.96442 47.7617 4.04101 47.7412 4.11898 47.7412C4.19695 47.7412 4.27356 47.7617 4.34108 47.8007L9.77673 50.9364C9.84211 50.9757 9.89664 51.0307 9.93542 51.0965C9.9742 51.1622 9.99598 51.2365 9.99881 51.3128V71.832L27.7926 82.1085C27.8592 82.1465 27.9147 82.2012 27.9537 82.2672C27.9926 82.3333 28.0137 82.4083 28.0147 82.4849V88.7525C28.0129 88.8294 27.9912 88.9046 27.9516 88.9706C27.912 89.0365 27.8559 89.0911 27.7889 89.1289L24.3558 91.1089C24.2916 91.154 24.2159 91.1801 24.1375 91.1842V91.1805ZM1.1339 76.9401L24.1375 90.2206L27.1264 88.4965V82.7522L9.33254 72.4681C9.26597 72.4301 9.21046 72.3754 9.17151 72.3094C9.13256 72.2434 9.1115 72.1684 9.11044 72.0917V51.5688L4.12275 48.6891L1.13766 50.4131L1.1339 76.9401ZM65.4055 67.4165C65.3273 67.4176 65.2503 67.3967 65.1834 67.3562L59.7478 64.2168C59.6812 64.1788 59.6257 64.1241 59.5867 64.0581C59.5478 63.9921 59.5267 63.917 59.5257 63.8404V43.3137L41.7281 33.0409C41.662 33.0023 41.6069 32.9475 41.568 32.8816C41.5291 32.8157 41.5078 32.741 41.506 32.6645V26.3856C41.507 26.309 41.5281 26.2339 41.567 26.1679C41.606 26.1019 41.6615 26.0472 41.7281 26.0092L45.1611 24.0254C45.2286 23.9864 45.3052 23.9659 45.3832 23.9659C45.4612 23.9659 45.5378 23.9864 45.6053 24.0254L69.0569 37.5769C69.1229 37.6154 69.178 37.6703 69.2169 37.7362C69.2558 37.8021 69.2772 37.8768 69.279 37.9533V64.9998C69.2761 65.076 69.2543 65.1504 69.2155 65.2161C69.1768 65.2818 69.1222 65.3369 69.0569 65.3762L65.6238 67.3562C65.5581 67.3968 65.4827 67.4189 65.4055 67.4202V67.4165ZM60.4178 63.5731L65.4055 66.4453L68.3906 64.725V38.213L45.387 24.9326L42.4019 26.6566V32.4085L60.1957 42.6813C60.2627 42.7191 60.3188 42.7736 60.3584 42.8396C60.398 42.9056 60.4197 42.9808 60.4216 43.0577L60.4178 63.5731ZM6.12159 33.1915C6.04345 33.192 5.96665 33.1712 5.89949 33.1312L0.463864 29.9956C0.397779 29.957 0.342649 29.9022 0.303771 29.8363C0.264893 29.7704 0.243551 29.6956 0.24176 29.6192V2.5614C0.243905 2.48499 0.26541 2.41037 0.304253 2.34453C0.343097 2.2787 0.398018 2.22379 0.463864 2.18497L3.8969 0.193651C3.96461 0.153196 4.04199 0.131836 4.12086 0.131836C4.19974 0.131836 4.27715 0.153196 4.34485 0.193651L27.7964 13.7451C27.8625 13.7837 27.9176 13.8385 27.9565 13.9044C27.9954 13.9703 28.0167 14.0451 28.0185 14.1215V20.3853C28.0174 20.462 27.9964 20.537 27.9574 20.603C27.9185 20.6691 27.863 20.7238 27.7964 20.7618L24.3596 22.7418C24.2926 22.7823 24.2158 22.8037 24.1375 22.8037C24.0592 22.8037 23.9824 22.7823 23.9154 22.7418L9.98753 14.7088V30.7522C9.98574 30.8287 9.96437 30.9035 9.92549 30.9693C9.88662 31.0352 9.83151 31.0901 9.76542 31.1286L6.32862 33.1087C6.26811 33.154 6.19669 33.1826 6.12159 33.1915ZM1.1339 29.3519L6.12159 32.2316L9.11044 30.5075V13.9446C9.11225 13.8677 9.13403 13.7925 9.17362 13.7266C9.21322 13.6606 9.26926 13.606 9.33629 13.5682C9.40328 13.5277 9.4801 13.5063 9.55839 13.5063C9.63669 13.5063 9.7135 13.5277 9.7805 13.5682L24.1413 21.8496L27.1301 20.1256V14.3775L4.12275 1.09708L1.13766 2.82866L1.1339 29.3519Z" fill="#93D0FF"/>
<defs>
<linearGradient id="paint0_linear" x1="48.0934" y1="107.67" x2="97.1307" y2="77.5806" gradientUnits="userSpaceOnUse">
<stop stop-color="#CCE5FB"/>
<stop offset="1" stop-color="#CEE7FD" stop-opacity="0"/>
</linearGradient>
<linearGradient id="paint1_linear" x1="8.32297" y1="83.1702" x2="33.723" y2="66.8823" gradientUnits="userSpaceOnUse">
<stop stop-color="#CCE5FB"/>
<stop offset="1" stop-color="#CEE7FD" stop-opacity="0"/>
</linearGradient>
</defs>
</svg>
