<svg width="879" height="408" viewBox="0 0 879 408" fill="none" xmlns="http://www.w3.org/2000/svg">
<path d="M35 349V378" stroke="black" stroke-opacity="0.26"/>
<path d="M745 349V378" stroke="black" stroke-opacity="0.26"/>
<path d="M390 349V378" stroke="black" stroke-opacity="0.26"/>
<path d="M20.858 392.888V394.318C21.794 393.642 22.769 393.33 23.666 393.33C24.758 393.33 25.421 393.733 25.421 394.5C25.421 395.501 24.524 395.956 23.497 396.554C22.158 397.347 20.559 398.166 20.559 400.324V401H26.968V399.661L22.223 399.674C22.236 398.79 23.315 398.244 24.459 397.568C25.655 396.853 26.903 395.969 26.903 394.474C26.903 392.823 25.59 391.991 23.796 391.991C22.769 391.991 21.768 392.264 20.858 392.888ZM28.2285 396.58C28.2285 399.167 29.4505 401.169 32.1935 401.169C34.9365 401.169 36.1585 399.167 36.1585 396.58C36.1585 393.993 34.9365 391.991 32.1935 391.991C29.4505 391.991 28.2285 393.993 28.2285 396.58ZM34.6635 396.58C34.6635 398.634 33.8835 399.817 32.1935 399.817C30.4905 399.817 29.7235 398.634 29.7235 396.58C29.7235 394.526 30.4905 393.343 32.1935 393.343C33.8835 393.343 34.6635 394.526 34.6635 396.58ZM39.6042 392.16L37.4592 392.979V394.344L39.2272 393.681V399.661H37.4592V401H42.2692V399.661H40.6962V392.16H39.6042ZM43.0146 394.955C43.0146 396.827 44.5486 397.763 46.0696 397.763C47.0186 397.763 47.7986 397.555 48.6436 397.048C48.4616 399.167 47.2526 399.856 45.9006 399.856C45.1726 399.856 44.4056 399.661 43.7556 399.297V400.649C44.4576 400.987 45.2506 401.169 46.0436 401.169C48.3056 401.169 50.1386 399.739 50.1386 396.502C50.1386 393.707 48.9816 391.991 46.2906 391.991C44.5226 391.991 43.0146 393.005 43.0146 394.955ZM46.3946 393.265C47.6426 393.265 48.4616 393.954 48.6306 395.735C47.9936 396.242 47.2266 396.476 46.4986 396.476C45.4586 396.476 44.5096 396.099 44.5096 394.89C44.5096 393.72 45.3676 393.265 46.3946 393.265Z" fill="black" fill-opacity="0.75"/>
<path d="M374.858 392.888V394.318C375.794 393.642 376.769 393.33 377.666 393.33C378.758 393.33 379.421 393.733 379.421 394.5C379.421 395.501 378.524 395.956 377.497 396.554C376.158 397.347 374.559 398.166 374.559 400.324V401H380.968V399.661L376.223 399.674C376.236 398.79 377.315 398.244 378.459 397.568C379.655 396.853 380.903 395.969 380.903 394.474C380.903 392.823 379.59 391.991 377.796 391.991C376.769 391.991 375.768 392.264 374.858 392.888ZM382.228 396.58C382.228 399.167 383.45 401.169 386.193 401.169C388.936 401.169 390.158 399.167 390.158 396.58C390.158 393.993 388.936 391.991 386.193 391.991C383.45 391.991 382.228 393.993 382.228 396.58ZM388.663 396.58C388.663 398.634 387.883 399.817 386.193 399.817C384.49 399.817 383.723 398.634 383.723 396.58C383.723 394.526 384.49 393.343 386.193 393.343C387.883 393.343 388.663 394.526 388.663 396.58ZM391.641 392.888V394.318C392.577 393.642 393.552 393.33 394.449 393.33C395.541 393.33 396.204 393.733 396.204 394.5C396.204 395.501 395.307 395.956 394.28 396.554C392.941 397.347 391.342 398.166 391.342 400.324V401H397.751V399.661L393.006 399.674C393.019 398.79 394.098 398.244 395.242 397.568C396.438 396.853 397.686 395.969 397.686 394.474C397.686 392.823 396.373 391.991 394.579 391.991C393.552 391.991 392.551 392.264 391.641 392.888ZM399.012 396.58C399.012 399.167 400.234 401.169 402.977 401.169C405.72 401.169 406.942 399.167 406.942 396.58C406.942 393.993 405.72 391.991 402.977 391.991C400.234 391.991 399.012 393.993 399.012 396.58ZM405.447 396.58C405.447 398.634 404.667 399.817 402.977 399.817C401.274 399.817 400.507 398.634 400.507 396.58C400.507 394.526 401.274 393.343 402.977 393.343C404.667 393.343 405.447 394.526 405.447 396.58Z" fill="black" fill-opacity="0.75"/>
<path d="M729.858 392.888V394.318C730.794 393.642 731.769 393.33 732.666 393.33C733.758 393.33 734.421 393.733 734.421 394.5C734.421 395.501 733.524 395.956 732.497 396.554C731.158 397.347 729.559 398.166 729.559 400.324V401H735.968V399.661L731.223 399.674C731.236 398.79 732.315 398.244 733.459 397.568C734.655 396.853 735.903 395.969 735.903 394.474C735.903 392.823 734.59 391.991 732.796 391.991C731.769 391.991 730.768 392.264 729.858 392.888ZM737.228 396.58C737.228 399.167 738.45 401.169 741.193 401.169C743.936 401.169 745.158 399.167 745.158 396.58C745.158 393.993 743.936 391.991 741.193 391.991C738.45 391.991 737.228 393.993 737.228 396.58ZM743.663 396.58C743.663 398.634 742.883 399.817 741.193 399.817C739.49 399.817 738.723 398.634 738.723 396.58C738.723 394.526 739.49 393.343 741.193 393.343C742.883 393.343 743.663 394.526 743.663 396.58ZM746.641 392.888V394.318C747.577 393.642 748.552 393.33 749.449 393.33C750.541 393.33 751.204 393.733 751.204 394.5C751.204 395.501 750.307 395.956 749.28 396.554C747.941 397.347 746.342 398.166 746.342 400.324V401H752.751V399.661L748.006 399.674C748.019 398.79 749.098 398.244 750.242 397.568C751.438 396.853 752.686 395.969 752.686 394.474C752.686 392.823 751.373 391.991 749.579 391.991C748.552 391.991 747.551 392.264 746.641 392.888ZM756.209 392.16L754.064 392.979V394.344L755.832 393.681V399.661H754.064V401H758.874V399.661H757.301V392.16H756.209Z" fill="black" fill-opacity="0.75"/>
<g filter="url(#filter0_d)">
<rect x="21" y="9" width="830" height="346" rx="21" fill="#F3F9FF"/>
<rect x="26.5" y="14.5" width="819" height="335" rx="15.5" stroke="white" stroke-width="11"/>
</g>
<mask id="mask0" mask-type="alpha" maskUnits="userSpaceOnUse" x="33" y="24" width="806" height="320">
<rect x="33" y="24" width="806" height="320" rx="10" fill="#F1F6FC"/>
</mask>
<g mask="url(#mask0)">
<path d="M37.9551 -8H107.326C110.062 -8 112.281 -5.78061 112.281 -3.04286V16.7857C112.281 19.5235 110.062 21.7429 107.326 21.7429H37.9551C35.2185 21.7429 33 19.5235 33 16.7857V-3.04286C33 -5.78061 35.2185 -8 37.9551 -8Z" fill="url(#paint0_radial)" fill-opacity="0.74"/>
<path d="M37.9551 31.6571H107.326C110.062 31.6571 112.281 33.8765 112.281 36.6143V56.4429C112.281 59.1806 110.062 61.4 107.326 61.4H37.9551C35.2185 61.4 33 59.1806 33 56.4429V36.6143C33 33.8765 35.2185 31.6571 37.9551 31.6571Z" fill="url(#paint1_radial)" fill-opacity="0.74"/>
<path d="M37.9551 71.3143H107.326C110.062 71.3143 112.281 73.5337 112.281 76.2714V96.1C112.281 98.8378 110.062 101.057 107.326 101.057H37.9551C35.2185 101.057 33 98.8378 33 96.1V76.2714C33 73.5337 35.2185 71.3143 37.9551 71.3143Z" fill="url(#paint2_radial)" fill-opacity="0.74"/>
<path d="M37.9551 110.971H107.326C110.062 110.971 112.281 113.191 112.281 115.929V135.757C112.281 138.495 110.062 140.714 107.326 140.714H37.9551C35.2185 140.714 33 138.495 33 135.757V115.929C33 113.191 35.2185 110.971 37.9551 110.971Z" fill="url(#paint3_radial)" fill-opacity="0.74"/>
<path d="M37.9551 150.629H107.326C110.062 150.629 112.281 152.848 112.281 155.586V175.414C112.281 178.152 110.062 180.371 107.326 180.371H37.9551C35.2185 180.371 33 178.152 33 175.414V155.586C33 152.848 35.2185 150.629 37.9551 150.629Z" fill="url(#paint4_radial)" fill-opacity="0.74"/>
<path d="M37.9551 190.286H107.326C110.062 190.286 112.281 192.505 112.281 195.243V215.071C112.281 217.809 110.062 220.029 107.326 220.029H37.9551C35.2185 220.029 33 217.809 33 215.071V195.243C33 192.505 35.2185 190.286 37.9551 190.286Z" fill="url(#paint5_radial)" fill-opacity="0.74"/>
<path d="M37.9551 229.943H107.326C110.062 229.943 112.281 232.162 112.281 234.9V254.729C112.281 257.466 110.062 259.686 107.326 259.686H37.9551C35.2185 259.686 33 257.466 33 254.729V234.9C33 232.162 35.2185 229.943 37.9551 229.943Z" fill="url(#paint6_radial)" fill-opacity="0.74"/>
<path d="M37.9551 269.6H107.326C110.062 269.6 112.281 271.819 112.281 274.557V294.386C112.281 297.123 110.062 299.343 107.326 299.343H37.9551C35.2185 299.343 33 297.123 33 294.386V274.557C33 271.819 35.2185 269.6 37.9551 269.6Z" fill="url(#paint7_radial)" fill-opacity="0.74"/>
<path d="M37.9551 309.257H107.326C110.062 309.257 112.281 311.477 112.281 314.214V334.043C112.281 336.781 110.062 339 107.326 339H37.9551C35.2185 339 33 336.781 33 334.043V314.214C33 311.477 35.2185 309.257 37.9551 309.257Z" fill="url(#paint8_radial)" fill-opacity="0.74"/>
<path d="M196.517 309.257H127.146C124.409 309.257 122.191 311.477 122.191 314.214V334.043C122.191 336.781 124.409 339 127.146 339H196.517C199.253 339 201.472 336.781 201.472 334.043V314.214C201.472 311.477 199.253 309.257 196.517 309.257Z" fill="url(#paint9_radial)" fill-opacity="0.74"/>
<path d="M216.337 309.257H285.708C288.444 309.257 290.663 311.477 290.663 314.214V334.043C290.663 336.781 288.444 339 285.708 339H216.337C213.6 339 211.382 336.781 211.382 334.043V314.214C211.382 311.477 213.6 309.257 216.337 309.257Z" fill="url(#paint10_radial)" fill-opacity="0.74"/>
<path d="M374.899 309.257H305.528C302.792 309.257 300.573 311.477 300.573 314.214V334.043C300.573 336.781 302.792 339 305.528 339H374.899C377.635 339 379.854 336.781 379.854 334.043V314.214C379.854 311.477 377.635 309.257 374.899 309.257Z" fill="url(#paint11_radial)" fill-opacity="0.74"/>
<path d="M394.719 309.257H464.09C466.827 309.257 469.045 311.477 469.045 314.214V334.043C469.045 336.781 466.827 339 464.09 339H394.719C391.983 339 389.764 336.781 389.764 334.043V314.214C389.764 311.477 391.983 309.257 394.719 309.257Z" fill="url(#paint12_radial)" fill-opacity="0.74"/>
<path d="M553.281 309.257H483.91C481.174 309.257 478.955 311.477 478.955 314.214V334.043C478.955 336.781 481.174 339 483.91 339H553.281C556.018 339 558.236 336.781 558.236 334.043V314.214C558.236 311.477 556.018 309.257 553.281 309.257Z" fill="url(#paint13_radial)" fill-opacity="0.74"/>
<path d="M573.101 309.257H642.472C645.208 309.257 647.427 311.477 647.427 314.214V334.043C647.427 336.781 645.208 339 642.472 339H573.101C570.365 339 568.146 336.781 568.146 334.043V314.214C568.146 311.477 570.365 309.257 573.101 309.257Z" fill="url(#paint14_radial)" fill-opacity="0.74"/>
<path d="M731.663 309.257H662.292C659.556 309.257 657.337 311.477 657.337 314.214V334.043C657.337 336.781 659.556 339 662.292 339H731.663C734.4 339 736.618 336.781 736.618 334.043V314.214C736.618 311.477 734.4 309.257 731.663 309.257Z" fill="url(#paint15_radial)" fill-opacity="0.74"/>
<path d="M751.483 309.257H820.854C823.591 309.257 825.809 311.477 825.809 314.214V334.043C825.809 336.781 823.591 339 820.854 339H751.483C748.747 339 746.528 336.781 746.528 334.043V314.214C746.528 311.477 748.747 309.257 751.483 309.257Z" fill="url(#paint16_radial)" fill-opacity="0.74"/>
<path d="M910.045 309.257H840.674C837.938 309.257 835.719 311.477 835.719 314.214V334.043C835.719 336.781 837.938 339 840.674 339H910.045C912.782 339 915 336.781 915 334.043V314.214C915 311.477 912.782 309.257 910.045 309.257Z" fill="url(#paint17_radial)" fill-opacity="0.74"/>
<path d="M196.517 269.6H127.146C124.409 269.6 122.191 271.819 122.191 274.557V294.386C122.191 297.123 124.409 299.343 127.146 299.343H196.517C199.253 299.343 201.472 297.123 201.472 294.386V274.557C201.472 271.819 199.253 269.6 196.517 269.6Z" fill="url(#paint18_radial)" fill-opacity="0.74"/>
<path d="M216.337 269.6H285.708C288.444 269.6 290.663 271.819 290.663 274.557V294.386C290.663 297.123 288.444 299.343 285.708 299.343H216.337C213.6 299.343 211.382 297.123 211.382 294.386V274.557C211.382 271.819 213.6 269.6 216.337 269.6Z" fill="url(#paint19_radial)" fill-opacity="0.74"/>
<path d="M374.899 269.6H305.528C302.792 269.6 300.573 271.819 300.573 274.557V294.386C300.573 297.123 302.792 299.343 305.528 299.343H374.899C377.635 299.343 379.854 297.123 379.854 294.386V274.557C379.854 271.819 377.635 269.6 374.899 269.6Z" fill="url(#paint20_radial)" fill-opacity="0.74"/>
<path d="M394.719 269.6H464.09C466.827 269.6 469.045 271.819 469.045 274.557V294.386C469.045 297.123 466.827 299.343 464.09 299.343H394.719C391.983 299.343 389.764 297.123 389.764 294.386V274.557C389.764 271.819 391.983 269.6 394.719 269.6Z" fill="url(#paint21_radial)" fill-opacity="0.74"/>
<path d="M553.281 269.6H483.91C481.174 269.6 478.955 271.819 478.955 274.557V294.386C478.955 297.123 481.174 299.343 483.91 299.343H553.281C556.018 299.343 558.236 297.123 558.236 294.386V274.557C558.236 271.819 556.018 269.6 553.281 269.6Z" fill="url(#paint22_radial)" fill-opacity="0.74"/>
<path d="M573.101 269.6H642.472C645.208 269.6 647.427 271.819 647.427 274.557V294.386C647.427 297.123 645.208 299.343 642.472 299.343H573.101C570.365 299.343 568.146 297.123 568.146 294.386V274.557C568.146 271.819 570.365 269.6 573.101 269.6Z" fill="url(#paint23_radial)" fill-opacity="0.74"/>
<path d="M731.663 269.6H662.292C659.556 269.6 657.337 271.819 657.337 274.557V294.386C657.337 297.123 659.556 299.343 662.292 299.343H731.663C734.4 299.343 736.618 297.123 736.618 294.386V274.557C736.618 271.819 734.4 269.6 731.663 269.6Z" fill="url(#paint24_radial)" fill-opacity="0.74"/>
<path d="M751.483 269.6H820.854C823.591 269.6 825.809 271.819 825.809 274.557V294.386C825.809 297.123 823.591 299.343 820.854 299.343H751.483C748.747 299.343 746.528 297.123 746.528 294.386V274.557C746.528 271.819 748.747 269.6 751.483 269.6Z" fill="url(#paint25_radial)" fill-opacity="0.74"/>
<path d="M910.045 269.6H840.674C837.938 269.6 835.719 271.819 835.719 274.557V294.386C835.719 297.123 837.938 299.343 840.674 299.343H910.045C912.782 299.343 915 297.123 915 294.386V274.557C915 271.819 912.782 269.6 910.045 269.6Z" fill="url(#paint26_radial)" fill-opacity="0.74"/>
<path d="M196.517 229.943H127.146C124.409 229.943 122.191 232.162 122.191 234.9V254.729C122.191 257.466 124.409 259.686 127.146 259.686H196.517C199.253 259.686 201.472 257.466 201.472 254.729V234.9C201.472 232.162 199.253 229.943 196.517 229.943Z" fill="url(#paint27_radial)" fill-opacity="0.74"/>
<path d="M216.337 229.943H285.708C288.444 229.943 290.663 232.162 290.663 234.9V254.729C290.663 257.466 288.444 259.686 285.708 259.686H216.337C213.6 259.686 211.382 257.466 211.382 254.729V234.9C211.382 232.162 213.6 229.943 216.337 229.943Z" fill="url(#paint28_radial)" fill-opacity="0.74"/>
<path d="M374.899 229.943H305.528C302.792 229.943 300.573 232.162 300.573 234.9V254.729C300.573 257.466 302.792 259.686 305.528 259.686H374.899C377.635 259.686 379.854 257.466 379.854 254.729V234.9C379.854 232.162 377.635 229.943 374.899 229.943Z" fill="url(#paint29_radial)" fill-opacity="0.74"/>
<path d="M394.719 229.943H464.09C466.827 229.943 469.045 232.162 469.045 234.9V254.729C469.045 257.466 466.827 259.686 464.09 259.686H394.719C391.983 259.686 389.764 257.466 389.764 254.729V234.9C389.764 232.162 391.983 229.943 394.719 229.943Z" fill="url(#paint30_radial)" fill-opacity="0.74"/>
<path d="M553.281 229.943H483.91C481.174 229.943 478.955 232.162 478.955 234.9V254.729C478.955 257.466 481.174 259.686 483.91 259.686H553.281C556.018 259.686 558.236 257.466 558.236 254.729V234.9C558.236 232.162 556.018 229.943 553.281 229.943Z" fill="url(#paint31_radial)" fill-opacity="0.74"/>
<path d="M573.101 229.943H642.472C645.208 229.943 647.427 232.162 647.427 234.9V254.729C647.427 257.466 645.208 259.686 642.472 259.686H573.101C570.365 259.686 568.146 257.466 568.146 254.729V234.9C568.146 232.162 570.365 229.943 573.101 229.943Z" fill="url(#paint32_radial)" fill-opacity="0.74"/>
<path d="M731.663 229.943H662.292C659.556 229.943 657.337 232.162 657.337 234.9V254.729C657.337 257.466 659.556 259.686 662.292 259.686H731.663C734.4 259.686 736.618 257.466 736.618 254.729V234.9C736.618 232.162 734.4 229.943 731.663 229.943Z" fill="url(#paint33_radial)" fill-opacity="0.74"/>
<path d="M751.483 229.943H820.854C823.591 229.943 825.809 232.162 825.809 234.9V254.729C825.809 257.466 823.591 259.686 820.854 259.686H751.483C748.747 259.686 746.528 257.466 746.528 254.729V234.9C746.528 232.162 748.747 229.943 751.483 229.943Z" fill="url(#paint34_radial)" fill-opacity="0.74"/>
<path d="M910.045 229.943H840.674C837.938 229.943 835.719 232.162 835.719 234.9V254.729C835.719 257.466 837.938 259.686 840.674 259.686H910.045C912.782 259.686 915 257.466 915 254.729V234.9C915 232.162 912.782 229.943 910.045 229.943Z" fill="url(#paint35_radial)" fill-opacity="0.74"/>
<path d="M196.517 190.286H127.146C124.409 190.286 122.191 192.505 122.191 195.243V215.071C122.191 217.809 124.409 220.029 127.146 220.029H196.517C199.253 220.029 201.472 217.809 201.472 215.071V195.243C201.472 192.505 199.253 190.286 196.517 190.286Z" fill="url(#paint36_radial)" fill-opacity="0.74"/>
<path d="M216.337 190.286H285.708C288.444 190.286 290.663 192.505 290.663 195.243V215.071C290.663 217.809 288.444 220.029 285.708 220.029H216.337C213.6 220.029 211.382 217.809 211.382 215.071V195.243C211.382 192.505 213.6 190.286 216.337 190.286Z" fill="url(#paint37_radial)" fill-opacity="0.74"/>
<path d="M374.899 190.286H305.528C302.792 190.286 300.573 192.505 300.573 195.243V215.071C300.573 217.809 302.792 220.029 305.528 220.029H374.899C377.635 220.029 379.854 217.809 379.854 215.071V195.243C379.854 192.505 377.635 190.286 374.899 190.286Z" fill="url(#paint38_radial)" fill-opacity="0.74"/>
<path d="M394.719 190.286H464.09C466.827 190.286 469.045 192.505 469.045 195.243V215.071C469.045 217.809 466.827 220.029 464.09 220.029H394.719C391.983 220.029 389.764 217.809 389.764 215.071V195.243C389.764 192.505 391.983 190.286 394.719 190.286Z" fill="url(#paint39_radial)" fill-opacity="0.74"/>
<path d="M553.281 190.286H483.91C481.174 190.286 478.955 192.505 478.955 195.243V215.071C478.955 217.809 481.174 220.029 483.91 220.029H553.281C556.018 220.029 558.236 217.809 558.236 215.071V195.243C558.236 192.505 556.018 190.286 553.281 190.286Z" fill="url(#paint40_radial)" fill-opacity="0.74"/>
<path d="M573.101 190.286H642.472C645.208 190.286 647.427 192.505 647.427 195.243V215.071C647.427 217.809 645.208 220.029 642.472 220.029H573.101C570.365 220.029 568.146 217.809 568.146 215.071V195.243C568.146 192.505 570.365 190.286 573.101 190.286Z" fill="url(#paint41_radial)" fill-opacity="0.74"/>
<path d="M731.663 190.286H662.292C659.556 190.286 657.337 192.505 657.337 195.243V215.071C657.337 217.809 659.556 220.029 662.292 220.029H731.663C734.4 220.029 736.618 217.809 736.618 215.071V195.243C736.618 192.505 734.4 190.286 731.663 190.286Z" fill="url(#paint42_radial)" fill-opacity="0.74"/>
<path d="M751.483 190.286H820.854C823.591 190.286 825.809 192.505 825.809 195.243V215.071C825.809 217.809 823.591 220.029 820.854 220.029H751.483C748.747 220.029 746.528 217.809 746.528 215.071V195.243C746.528 192.505 748.747 190.286 751.483 190.286Z" fill="url(#paint43_radial)" fill-opacity="0.74"/>
<path d="M910.045 190.286H840.674C837.938 190.286 835.719 192.505 835.719 195.243V215.071C835.719 217.809 837.938 220.029 840.674 220.029H910.045C912.782 220.029 915 217.809 915 215.071V195.243C915 192.505 912.782 190.286 910.045 190.286Z" fill="url(#paint44_radial)" fill-opacity="0.74"/>
<path d="M196.517 150.629H127.146C124.409 150.629 122.191 152.848 122.191 155.586V175.414C122.191 178.152 124.409 180.371 127.146 180.371H196.517C199.253 180.371 201.472 178.152 201.472 175.414V155.586C201.472 152.848 199.253 150.629 196.517 150.629Z" fill="url(#paint45_radial)" fill-opacity="0.74"/>
<path d="M216.337 150.629H285.708C288.444 150.629 290.663 152.848 290.663 155.586V175.414C290.663 178.152 288.444 180.371 285.708 180.371H216.337C213.6 180.371 211.382 178.152 211.382 175.414V155.586C211.382 152.848 213.6 150.629 216.337 150.629Z" fill="url(#paint46_radial)" fill-opacity="0.74"/>
<path d="M374.899 150.629H305.528C302.792 150.629 300.573 152.848 300.573 155.586V175.414C300.573 178.152 302.792 180.371 305.528 180.371H374.899C377.635 180.371 379.854 178.152 379.854 175.414V155.586C379.854 152.848 377.635 150.629 374.899 150.629Z" fill="url(#paint47_radial)" fill-opacity="0.74"/>
<path d="M394.719 150.629H464.09C466.827 150.629 469.045 152.848 469.045 155.586V175.414C469.045 178.152 466.827 180.371 464.09 180.371H394.719C391.983 180.371 389.764 178.152 389.764 175.414V155.586C389.764 152.848 391.983 150.629 394.719 150.629Z" fill="url(#paint48_radial)" fill-opacity="0.74"/>
<path d="M553.281 150.629H483.91C481.174 150.629 478.955 152.848 478.955 155.586V175.414C478.955 178.152 481.174 180.371 483.91 180.371H553.281C556.018 180.371 558.236 178.152 558.236 175.414V155.586C558.236 152.848 556.018 150.629 553.281 150.629Z" fill="url(#paint49_radial)" fill-opacity="0.74"/>
<path d="M573.101 150.629H642.472C645.208 150.629 647.427 152.848 647.427 155.586V175.414C647.427 178.152 645.208 180.371 642.472 180.371H573.101C570.365 180.371 568.146 178.152 568.146 175.414V155.586C568.146 152.848 570.365 150.629 573.101 150.629Z" fill="url(#paint50_radial)" fill-opacity="0.74"/>
<path d="M731.663 150.629H662.292C659.556 150.629 657.337 152.848 657.337 155.586V175.414C657.337 178.152 659.556 180.371 662.292 180.371H731.663C734.4 180.371 736.618 178.152 736.618 175.414V155.586C736.618 152.848 734.4 150.629 731.663 150.629Z" fill="url(#paint51_radial)" fill-opacity="0.74"/>
<path d="M751.483 150.629H820.854C823.591 150.629 825.809 152.848 825.809 155.586V175.414C825.809 178.152 823.591 180.371 820.854 180.371H751.483C748.747 180.371 746.528 178.152 746.528 175.414V155.586C746.528 152.848 748.747 150.629 751.483 150.629Z" fill="url(#paint52_radial)" fill-opacity="0.74"/>
<path d="M910.045 150.629H840.674C837.938 150.629 835.719 152.848 835.719 155.586V175.414C835.719 178.152 837.938 180.371 840.674 180.371H910.045C912.782 180.371 915 178.152 915 175.414V155.586C915 152.848 912.782 150.629 910.045 150.629Z" fill="url(#paint53_radial)" fill-opacity="0.74"/>
<path d="M196.517 110.971H127.146C124.409 110.971 122.191 113.191 122.191 115.929V135.757C122.191 138.495 124.409 140.714 127.146 140.714H196.517C199.253 140.714 201.472 138.495 201.472 135.757V115.929C201.472 113.191 199.253 110.971 196.517 110.971Z" fill="url(#paint54_radial)" fill-opacity="0.74"/>
<path d="M216.337 110.971H285.708C288.444 110.971 290.663 113.191 290.663 115.929V135.757C290.663 138.495 288.444 140.714 285.708 140.714H216.337C213.6 140.714 211.382 138.495 211.382 135.757V115.929C211.382 113.191 213.6 110.971 216.337 110.971Z" fill="url(#paint55_radial)" fill-opacity="0.74"/>
<path d="M374.899 110.971H305.528C302.792 110.971 300.573 113.191 300.573 115.929V135.757C300.573 138.495 302.792 140.714 305.528 140.714H374.899C377.635 140.714 379.854 138.495 379.854 135.757V115.929C379.854 113.191 377.635 110.971 374.899 110.971Z" fill="url(#paint56_radial)" fill-opacity="0.74"/>
<path d="M394.719 110.971H464.09C466.827 110.971 469.045 113.191 469.045 115.929V135.757C469.045 138.495 466.827 140.714 464.09 140.714H394.719C391.983 140.714 389.764 138.495 389.764 135.757V115.929C389.764 113.191 391.983 110.971 394.719 110.971Z" fill="url(#paint57_radial)" fill-opacity="0.74"/>
<path d="M553.281 110.971H483.91C481.174 110.971 478.955 113.191 478.955 115.929V135.757C478.955 138.495 481.174 140.714 483.91 140.714H553.281C556.018 140.714 558.236 138.495 558.236 135.757V115.929C558.236 113.191 556.018 110.971 553.281 110.971Z" fill="url(#paint58_radial)" fill-opacity="0.74"/>
<path d="M573.101 110.971H642.472C645.208 110.971 647.427 113.191 647.427 115.929V135.757C647.427 138.495 645.208 140.714 642.472 140.714H573.101C570.365 140.714 568.146 138.495 568.146 135.757V115.929C568.146 113.191 570.365 110.971 573.101 110.971Z" fill="url(#paint59_radial)" fill-opacity="0.74"/>
<path d="M731.663 110.971H662.292C659.556 110.971 657.337 113.191 657.337 115.929V135.757C657.337 138.495 659.556 140.714 662.292 140.714H731.663C734.4 140.714 736.618 138.495 736.618 135.757V115.929C736.618 113.191 734.4 110.971 731.663 110.971Z" fill="url(#paint60_radial)" fill-opacity="0.74"/>
<path d="M751.483 110.971H820.854C823.591 110.971 825.809 113.191 825.809 115.929V135.757C825.809 138.495 823.591 140.714 820.854 140.714H751.483C748.747 140.714 746.528 138.495 746.528 135.757V115.929C746.528 113.191 748.747 110.971 751.483 110.971Z" fill="url(#paint61_radial)" fill-opacity="0.74"/>
<path d="M910.045 110.971H840.674C837.938 110.971 835.719 113.191 835.719 115.929V135.757C835.719 138.495 837.938 140.714 840.674 140.714H910.045C912.782 140.714 915 138.495 915 135.757V115.929C915 113.191 912.782 110.971 910.045 110.971Z" fill="url(#paint62_radial)" fill-opacity="0.74"/>
<path d="M196.517 71.3143H127.146C124.409 71.3143 122.191 73.5337 122.191 76.2714V96.1C122.191 98.8378 124.409 101.057 127.146 101.057H196.517C199.253 101.057 201.472 98.8378 201.472 96.1V76.2714C201.472 73.5337 199.253 71.3143 196.517 71.3143Z" fill="url(#paint63_radial)" fill-opacity="0.74"/>
<path d="M216.337 71.3143H285.708C288.444 71.3143 290.663 73.5337 290.663 76.2714V96.1C290.663 98.8378 288.444 101.057 285.708 101.057H216.337C213.6 101.057 211.382 98.8378 211.382 96.1V76.2714C211.382 73.5337 213.6 71.3143 216.337 71.3143Z" fill="url(#paint64_radial)" fill-opacity="0.74"/>
<path d="M374.899 71.3143H305.528C302.792 71.3143 300.573 73.5337 300.573 76.2714V96.1C300.573 98.8378 302.792 101.057 305.528 101.057H374.899C377.635 101.057 379.854 98.8378 379.854 96.1V76.2714C379.854 73.5337 377.635 71.3143 374.899 71.3143Z" fill="url(#paint65_radial)" fill-opacity="0.74"/>
<path d="M394.719 71.3143H464.09C466.827 71.3143 469.045 73.5337 469.045 76.2714V96.1C469.045 98.8378 466.827 101.057 464.09 101.057H394.719C391.983 101.057 389.764 98.8378 389.764 96.1V76.2714C389.764 73.5337 391.983 71.3143 394.719 71.3143Z" fill="url(#paint66_radial)" fill-opacity="0.74"/>
<path d="M553.281 71.3143H483.91C481.174 71.3143 478.955 73.5337 478.955 76.2714V96.1C478.955 98.8378 481.174 101.057 483.91 101.057H553.281C556.018 101.057 558.236 98.8378 558.236 96.1V76.2714C558.236 73.5337 556.018 71.3143 553.281 71.3143Z" fill="url(#paint67_radial)" fill-opacity="0.74"/>
<path d="M573.101 71.3143H642.472C645.208 71.3143 647.427 73.5337 647.427 76.2714V96.1C647.427 98.8378 645.208 101.057 642.472 101.057H573.101C570.365 101.057 568.146 98.8378 568.146 96.1V76.2714C568.146 73.5337 570.365 71.3143 573.101 71.3143Z" fill="url(#paint68_radial)" fill-opacity="0.74"/>
<path d="M731.663 71.3143H662.292C659.556 71.3143 657.337 73.5337 657.337 76.2714V96.1C657.337 98.8378 659.556 101.057 662.292 101.057H731.663C734.4 101.057 736.618 98.8378 736.618 96.1V76.2714C736.618 73.5337 734.4 71.3143 731.663 71.3143Z" fill="url(#paint69_radial)" fill-opacity="0.74"/>
<path d="M751.483 71.3143H820.854C823.591 71.3143 825.809 73.5337 825.809 76.2714V96.1C825.809 98.8378 823.591 101.057 820.854 101.057H751.483C748.747 101.057 746.528 98.8378 746.528 96.1V76.2714C746.528 73.5337 748.747 71.3143 751.483 71.3143Z" fill="url(#paint70_radial)" fill-opacity="0.74"/>
<path d="M910.045 71.3143H840.674C837.938 71.3143 835.719 73.5337 835.719 76.2714V96.1C835.719 98.8378 837.938 101.057 840.674 101.057H910.045C912.782 101.057 915 98.8378 915 96.1V76.2714C915 73.5337 912.782 71.3143 910.045 71.3143Z" fill="url(#paint71_radial)" fill-opacity="0.74"/>
<path d="M196.517 31.6571H127.146C124.409 31.6571 122.191 33.8765 122.191 36.6143V56.4429C122.191 59.1806 124.409 61.4 127.146 61.4H196.517C199.253 61.4 201.472 59.1806 201.472 56.4429V36.6143C201.472 33.8765 199.253 31.6571 196.517 31.6571Z" fill="url(#paint72_radial)" fill-opacity="0.74"/>
<path d="M216.337 31.6571H285.708C288.444 31.6571 290.663 33.8765 290.663 36.6143V56.4429C290.663 59.1806 288.444 61.4 285.708 61.4H216.337C213.6 61.4 211.382 59.1806 211.382 56.4429V36.6143C211.382 33.8765 213.6 31.6571 216.337 31.6571Z" fill="url(#paint73_radial)" fill-opacity="0.74"/>
<path d="M374.899 31.6571H305.528C302.792 31.6571 300.573 33.8765 300.573 36.6143V56.4429C300.573 59.1806 302.792 61.4 305.528 61.4H374.899C377.635 61.4 379.854 59.1806 379.854 56.4429V36.6143C379.854 33.8765 377.635 31.6571 374.899 31.6571Z" fill="url(#paint74_radial)" fill-opacity="0.74"/>
<path d="M394.719 31.6571H464.09C466.827 31.6571 469.045 33.8765 469.045 36.6143V56.4429C469.045 59.1806 466.827 61.4 464.09 61.4H394.719C391.983 61.4 389.764 59.1806 389.764 56.4429V36.6143C389.764 33.8765 391.983 31.6571 394.719 31.6571Z" fill="url(#paint75_radial)" fill-opacity="0.74"/>
<path d="M553.281 31.6571H483.91C481.174 31.6571 478.955 33.8765 478.955 36.6143V56.4429C478.955 59.1806 481.174 61.4 483.91 61.4H553.281C556.018 61.4 558.236 59.1806 558.236 56.4429V36.6143C558.236 33.8765 556.018 31.6571 553.281 31.6571Z" fill="url(#paint76_radial)" fill-opacity="0.74"/>
<path d="M573.101 31.6571H642.472C645.208 31.6571 647.427 33.8765 647.427 36.6143V56.4429C647.427 59.1806 645.208 61.4 642.472 61.4H573.101C570.365 61.4 568.146 59.1806 568.146 56.4429V36.6143C568.146 33.8765 570.365 31.6571 573.101 31.6571Z" fill="url(#paint77_radial)" fill-opacity="0.74"/>
<path d="M731.663 31.6571H662.292C659.556 31.6571 657.337 33.8765 657.337 36.6143V56.4429C657.337 59.1806 659.556 61.4 662.292 61.4H731.663C734.4 61.4 736.618 59.1806 736.618 56.4429V36.6143C736.618 33.8765 734.4 31.6571 731.663 31.6571Z" fill="url(#paint78_radial)" fill-opacity="0.74"/>
<path d="M751.483 31.6571H820.854C823.591 31.6571 825.809 33.8765 825.809 36.6143V56.4429C825.809 59.1806 823.591 61.4 820.854 61.4H751.483C748.747 61.4 746.528 59.1806 746.528 56.4429V36.6143C746.528 33.8765 748.747 31.6571 751.483 31.6571Z" fill="url(#paint79_radial)" fill-opacity="0.74"/>
<path d="M910.045 31.6571H840.674C837.938 31.6571 835.719 33.8765 835.719 36.6143V56.4429C835.719 59.1806 837.938 61.4 840.674 61.4H910.045C912.782 61.4 915 59.1806 915 56.4429V36.6143C915 33.8765 912.782 31.6571 910.045 31.6571Z" fill="url(#paint80_radial)" fill-opacity="0.74"/>
<path d="M196.517 -8H127.146C124.409 -8 122.191 -5.78061 122.191 -3.04286V16.7857C122.191 19.5235 124.409 21.7429 127.146 21.7429H196.517C199.253 21.7429 201.472 19.5235 201.472 16.7857V-3.04286C201.472 -5.78061 199.253 -8 196.517 -8Z" fill="url(#paint81_radial)" fill-opacity="0.74"/>
<path d="M216.337 -8H285.708C288.444 -8 290.663 -5.78061 290.663 -3.04286V16.7857C290.663 19.5235 288.444 21.7429 285.708 21.7429H216.337C213.6 21.7429 211.382 19.5235 211.382 16.7857V-3.04286C211.382 -5.78061 213.6 -8 216.337 -8Z" fill="url(#paint82_radial)" fill-opacity="0.74"/>
<path d="M374.899 -8H305.528C302.792 -8 300.573 -5.78061 300.573 -3.04286V16.7857C300.573 19.5235 302.792 21.7429 305.528 21.7429H374.899C377.635 21.7429 379.854 19.5235 379.854 16.7857V-3.04286C379.854 -5.78061 377.635 -8 374.899 -8Z" fill="url(#paint83_radial)" fill-opacity="0.74"/>
<path d="M394.719 -8H464.09C466.827 -8 469.045 -5.78061 469.045 -3.04286V16.7857C469.045 19.5235 466.827 21.7429 464.09 21.7429H394.719C391.983 21.7429 389.764 19.5235 389.764 16.7857V-3.04286C389.764 -5.78061 391.983 -8 394.719 -8Z" fill="url(#paint84_radial)" fill-opacity="0.74"/>
<path d="M553.281 -8H483.91C481.174 -8 478.955 -5.78061 478.955 -3.04286V16.7857C478.955 19.5235 481.174 21.7429 483.91 21.7429H553.281C556.018 21.7429 558.236 19.5235 558.236 16.7857V-3.04286C558.236 -5.78061 556.018 -8 553.281 -8Z" fill="url(#paint85_radial)" fill-opacity="0.74"/>
<path d="M573.101 -8H642.472C645.208 -8 647.427 -5.78061 647.427 -3.04286V16.7857C647.427 19.5235 645.208 21.7429 642.472 21.7429H573.101C570.365 21.7429 568.146 19.5235 568.146 16.7857V-3.04286C568.146 -5.78061 570.365 -8 573.101 -8Z" fill="url(#paint86_radial)" fill-opacity="0.74"/>
<path d="M731.663 -8H662.292C659.556 -8 657.337 -5.78061 657.337 -3.04286V16.7857C657.337 19.5235 659.556 21.7429 662.292 21.7429H731.663C734.4 21.7429 736.618 19.5235 736.618 16.7857V-3.04286C736.618 -5.78061 734.4 -8 731.663 -8Z" fill="url(#paint87_radial)" fill-opacity="0.74"/>
<path d="M751.483 -8H820.854C823.591 -8 825.809 -5.78061 825.809 -3.04286V16.7857C825.809 19.5235 823.591 21.7429 820.854 21.7429H751.483C748.747 21.7429 746.528 19.5235 746.528 16.7857V-3.04286C746.528 -5.78061 748.747 -8 751.483 -8Z" fill="url(#paint88_radial)" fill-opacity="0.74"/>
<path d="M910.045 -8H840.674C837.938 -8 835.719 -5.78061 835.719 -3.04286V16.7857C835.719 19.5235 837.938 21.7429 840.674 21.7429H910.045C912.782 21.7429 915 19.5235 915 16.7857V-3.04286C915 -5.78061 912.782 -8 910.045 -8Z" fill="url(#paint89_radial)" fill-opacity="0.74"/>
<path d="M16.0001 329.965L21.6402 325.985C30.903 319.45 42.9942 318.49 53.172 323.483V323.483C61.5345 327.585 71.298 327.71 79.7632 323.825L83.9006 321.925C91.5463 318.416 100.093 317.368 108.36 318.927L117.661 320.681C132.183 323.42 147.199 321.513 160.575 315.232L162.571 314.295C173.287 309.263 185.017 306.765 196.853 306.995L206.072 307.174C213.899 307.326 221.681 308.397 229.259 310.364L277.379 322.858C290.033 326.143 303.44 324.864 315.245 319.246V319.246C328.139 313.109 342.9 312.169 356.469 316.62L372.601 321.912V321.912C385.088 326.995 398.981 327.446 411.771 323.181L445.81 311.832V311.832C457.749 306.309 471.412 305.842 483.7 310.537L489.302 312.677L503.515 319.978C509.476 323.04 516.057 324.699 522.757 324.83L530.241 324.975C539.56 325.156 548.407 320.881 554.056 313.467V313.467C558.197 308.034 564.109 304.222 570.768 302.694L608.745 293.98C616.714 292.152 624.877 291.307 633.052 291.466L657.282 291.937C668.822 292.161 680.228 294.459 690.955 298.721V298.721C706.347 304.837 723.057 306.877 739.469 304.645L744.743 303.928C750.267 303.177 755.719 301.965 761.041 300.305L764.722 299.157C774.983 295.957 785.692 294.432 796.438 294.641L825.303 295.202C831.887 295.329 838.442 296.107 844.873 297.524L870.35 303.136C876.781 304.553 883.336 305.331 889.92 305.459L923.817 306.117C931.198 306.261 938.529 304.871 945.345 302.035V302.035C952.161 299.199 959.492 297.809 966.873 297.952L978.89 298.186C990.653 298.414 1002.13 301.289 1013.58 303.999C1028.96 307.638 1041.08 305.959 1060.16 299.765L1097.01 284.274C1107.95 279.675 1119.74 277.418 1131.6 277.649V277.649" stroke="#2784ED" stroke-width="3" stroke-linecap="round" stroke-linejoin="round"/>
<path d="M25.6375 323.165L25.075 323.562C19.3845 327.577 16.0001 334.107 16.0001 341.071C16.0001 352.906 25.5941 362.5 37.429 362.5L1088.77 362.5C1112.42 362.5 1131.6 343.321 1131.6 319.662L1131.6 292.452C1131.6 284.23 1125.02 277.521 1116.8 277.361C1114.7 277.32 1112.6 277.721 1110.66 278.538L1060.16 299.765C1041.08 305.959 1028.96 307.638 1013.58 303.999C1002.13 301.289 990.653 298.414 978.89 298.186L966.873 297.952C959.492 297.809 952.161 299.199 945.345 302.035C938.529 304.871 931.198 306.261 923.817 306.117L889.92 305.459C883.336 305.331 876.781 304.553 870.35 303.136L844.873 297.524C838.442 296.107 831.887 295.329 825.303 295.202L796.438 294.641C785.692 294.432 774.983 295.957 764.722 299.157L761.041 300.305C755.719 301.965 750.267 303.177 744.743 303.928L739.469 304.645C723.057 306.877 706.347 304.837 690.955 298.721C680.228 294.459 668.822 292.161 657.282 291.937L633.052 291.466C624.877 291.307 616.714 292.152 608.745 293.98L570.768 302.694C564.109 304.222 558.197 308.034 554.056 313.467C548.407 320.881 539.56 325.156 530.241 324.975L522.757 324.83C516.057 324.699 509.476 323.04 503.515 319.978L489.302 312.677L483.7 310.537C471.412 305.842 457.749 306.309 445.81 311.832L411.771 323.181C398.981 327.446 385.088 326.995 372.601 321.912L356.469 316.62C342.9 312.169 328.139 313.109 315.245 319.246C303.44 324.864 290.033 326.143 277.379 322.858L229.259 310.364C221.681 308.397 213.899 307.326 206.072 307.174L196.853 306.995C185.017 306.765 173.287 309.263 162.571 314.295L160.575 315.232C147.199 321.513 132.183 323.42 117.661 320.681L108.36 318.927C100.093 317.368 91.5463 318.416 83.9006 321.925L79.7632 323.825C71.2981 327.71 61.5345 327.585 53.1721 323.483L48.7799 321.328C41.31 317.664 32.4359 318.368 25.6375 323.165Z" fill="#2784ED" fill-opacity="0.14" stroke="#2784ED" stroke-width="3" stroke-linecap="round" stroke-linejoin="round"/>
<circle cx="58.5" cy="44.5" r="5.5" fill="#EB5757"/>
<circle cx="259.5" cy="44.5" r="5.5" fill="#2784ED"/>
<circle cx="351.5" cy="44.5" r="5.5" fill="#6FCF97"/>
<path d="M34.5 342L206.5 286.5L286.846 258.851C315.556 248.971 345.106 241.726 375.129 237.208L526 214.5L698 171L836.5 119" stroke="#EB5757" stroke-width="3"/>
<path d="M17.5 355.5L41.1249 324.733C53.7303 308.316 71.1192 296.216 90.8929 290.1L96.5229 288.359C104.806 285.797 112.72 282.169 120.068 277.566L136.967 266.979C145.789 261.451 152.77 253.426 157.022 243.922L157.706 242.393C168.15 219.046 194.37 207.158 218.814 214.687V214.687C232.568 218.924 247.475 217.105 259.808 209.687L269.712 203.729C281.682 196.528 296.462 195.799 309.083 201.786V201.786C326.388 209.995 347.061 205.361 359.206 190.549L362.809 186.155C373.35 173.299 389.694 166.668 406.212 168.547L426.631 170.868C446.796 173.161 467.126 168.308 484.082 157.155L515.201 136.686C533.621 124.569 555.53 118.88 577.518 120.503L618.108 123.5L689.256 129.884C710.427 131.783 731.168 123.092 744.66 106.667L752.163 97.5329C765.501 81.2948 787.83 75.5834 807.327 83.4225V83.4225C826.108 90.9738 847.606 85.9714 861.124 70.9046L867.925 63.3244C879.815 50.0714 896.781 42.5 914.586 42.5H929.88C937.671 42.5 945.433 41.561 952.998 39.7035L969.971 35.5363C981.309 32.7528 993.045 31.9759 1004.65 33.2408L1022.07 35.139C1035.29 36.5808 1048.68 35.368 1061.43 31.5715L1125.5 12.5" stroke="#6FCF97" stroke-width="3" stroke-linecap="round" stroke-linejoin="round"/>
</g>
<path d="M77.786 63V58.758H79.746L82.7 63H84.506L81.006 57.974L84.254 53.2H82.448L79.718 57.288H77.786V53.2H76.19V63H77.786ZM84.5141 59.64C84.5141 61.964 86.2781 63.182 88.1541 63.182C90.0441 63.182 91.7941 61.964 91.7941 59.64C91.7941 57.316 90.0441 56.098 88.1541 56.098C86.2781 56.098 84.5141 57.316 84.5141 59.64ZM90.2681 59.64C90.2681 60.956 89.4001 61.81 88.1541 61.81C86.8941 61.81 86.0261 60.956 86.0261 59.64C86.0261 58.324 86.8941 57.47 88.1541 57.47C89.4001 57.47 90.2681 58.324 90.2681 59.64ZM95.7839 57.554H98.0519V63H99.5499V56.28H94.3699C94.2439 59.612 93.9359 61.852 92.8019 61.852C92.6619 61.852 92.5219 61.824 92.3679 61.768V62.944C92.7039 63.07 93.0119 63.126 93.2919 63.126C95.0839 63.126 95.5879 60.802 95.7839 57.554ZM102.71 63L106.308 58.604V63H107.806V56.28H106.518L102.92 60.676V56.28H101.422V63H102.71ZM115.252 63V56.28H113.754V59.528C113.306 59.696 112.872 59.78 112.312 59.78C111.374 59.78 110.772 59.486 110.772 58.506V56.28H109.274V58.632C109.274 60.326 110.38 61.096 111.878 61.096C112.634 61.096 113.18 60.984 113.754 60.774V63H115.252ZM116.711 59.64C116.711 62.006 118.461 63.182 120.519 63.182C121.457 63.182 122.311 63.014 122.927 62.72V61.432C122.353 61.712 121.611 61.908 120.799 61.908C119.567 61.908 118.391 61.404 118.223 60.2H123.277C123.711 58.254 122.787 56.098 120.113 56.098C118.559 56.098 116.711 57.204 116.711 59.64ZM121.933 59.08H118.209C118.265 57.946 119.175 57.344 120.183 57.344C121.653 57.344 122.017 58.492 121.933 59.08ZM124.354 59.696C124.354 62.09 126.188 63.182 127.98 63.182C128.834 63.182 129.562 63.028 130.206 62.72V61.334C129.674 61.642 128.96 61.852 128.246 61.852C127.042 61.852 125.88 61.166 125.88 59.64C125.88 58.058 127.084 57.428 128.274 57.428C128.96 57.428 129.646 57.638 130.136 57.988V56.616C129.548 56.266 128.82 56.098 128.064 56.098C126.272 56.098 124.354 57.19 124.354 59.696ZM134.828 63V57.596H137.138V56.28H131.006V57.596H133.33V63H134.828ZM142.257 63C143.811 63 144.469 62.188 144.469 61.152C144.469 60.326 143.951 59.794 143.321 59.598C143.895 59.346 144.273 58.814 144.273 58.072C144.273 57.022 143.503 56.28 142.145 56.28H138.309V63H142.257ZM139.807 60.144H141.921C142.439 60.144 142.957 60.326 142.957 61.012C142.957 61.656 142.509 61.866 141.893 61.866H139.807V60.144ZM139.807 57.414H141.809C142.271 57.414 142.761 57.61 142.761 58.268C142.761 58.87 142.341 59.08 141.809 59.08H139.807V57.414ZM145.559 59.64C145.559 61.964 147.323 63.182 149.199 63.182C151.089 63.182 152.839 61.964 152.839 59.64C152.839 57.316 151.089 56.098 149.199 56.098C147.323 56.098 145.559 57.316 145.559 59.64ZM151.313 59.64C151.313 60.956 150.445 61.81 149.199 61.81C147.939 61.81 147.071 60.956 147.071 59.64C147.071 58.324 147.939 57.47 149.199 57.47C150.445 57.47 151.313 58.324 151.313 59.64ZM157.18 59.696C157.18 62.09 159.014 63.182 160.806 63.182C161.66 63.182 162.388 63.028 163.032 62.72V61.334C162.5 61.642 161.786 61.852 161.072 61.852C159.868 61.852 158.706 61.166 158.706 59.64C158.706 58.058 159.91 57.428 161.1 57.428C161.786 57.428 162.472 57.638 162.962 57.988V56.616C162.374 56.266 161.646 56.098 160.89 56.098C159.098 56.098 157.18 57.19 157.18 59.696ZM167.654 63V57.596H169.964V56.28H163.832V57.596H166.156V63H167.654ZM176.779 61.446V59.038C176.779 57.008 175.575 56.098 173.671 56.098C172.593 56.098 171.627 56.364 171.095 56.546V57.918C171.697 57.652 172.523 57.4 173.517 57.4C174.665 57.4 175.281 57.988 175.281 58.828V59.066C174.749 58.954 174.105 58.87 173.531 58.87C172.131 58.87 170.535 59.402 170.535 61.124C170.535 62.51 171.669 63.182 172.887 63.182C173.937 63.182 174.763 62.846 175.421 62.314C175.659 62.86 176.149 63.098 176.765 63.098C177.101 63.098 177.437 63.042 177.717 62.93V61.852C177.577 61.894 177.423 61.936 177.269 61.936C177.003 61.936 176.779 61.824 176.779 61.446ZM173.825 59.92C174.301 59.92 174.875 60.004 175.281 60.088V61.222C174.749 61.754 174.049 62.02 173.335 62.02C172.663 62.02 172.075 61.684 172.075 61.026C172.075 60.186 172.971 59.92 173.825 59.92ZM182.794 63C184.348 63 185.006 62.188 185.006 61.152C185.006 60.326 184.488 59.794 183.858 59.598C184.432 59.346 184.81 58.814 184.81 58.072C184.81 57.022 184.04 56.28 182.682 56.28H178.846V63H182.794ZM180.344 60.144H182.458C182.976 60.144 183.494 60.326 183.494 61.012C183.494 61.656 183.046 61.866 182.43 61.866H180.344V60.144ZM180.344 57.414H182.346C182.808 57.414 183.298 57.61 183.298 58.268C183.298 58.87 182.878 59.08 182.346 59.08H180.344V57.414ZM186.096 59.64C186.096 61.964 187.86 63.182 189.736 63.182C191.626 63.182 193.376 61.964 193.376 59.64C193.376 57.316 191.626 56.098 189.736 56.098C187.86 56.098 186.096 57.316 186.096 59.64ZM191.85 59.64C191.85 60.956 190.982 61.81 189.736 61.81C188.476 61.81 187.608 60.956 187.608 59.64C187.608 58.324 188.476 57.47 189.736 57.47C190.982 57.47 191.85 58.324 191.85 59.64ZM196.327 63V60.214H197.405L199.617 63H201.339L198.637 59.612L201.073 56.28H199.365L197.433 58.94H196.327V56.28H194.829V63H196.327Z" fill="black" fill-opacity="0.75"/>
<path d="M279.786 63V59.332H281.774L284.714 63H286.632L283.496 59.164C284.784 58.856 285.876 58.016 285.876 56.266C285.876 53.928 283.944 53.2 282.11 53.2H278.19V63H279.786ZM279.786 54.656H282.18C283.23 54.656 284.252 55.034 284.252 56.294C284.252 57.54 283.23 57.918 282.18 57.918H279.786V54.656ZM287.253 58.1C287.253 60.69 288.947 63.182 292.405 63.182C295.849 63.182 297.557 60.69 297.557 58.1C297.557 55.51 295.849 53.018 292.405 53.018C288.947 53.018 287.253 55.51 287.253 58.1ZM295.933 58.1C295.933 59.976 294.785 61.684 292.405 61.684C290.039 61.684 288.877 59.976 288.877 58.1C288.877 56.224 290.039 54.516 292.405 54.516C294.785 54.516 295.933 56.224 295.933 58.1ZM299.313 53.2V63H300.909V53.2H299.313Z" fill="black" fill-opacity="0.75"/>
<path d="M365.786 57.008V54.67H371.176V53.2H364.19V63H368.194C370.056 63 371.946 62.426 371.946 60.018C371.946 57.596 370.056 57.008 368.194 57.008H365.786ZM365.786 61.544V58.464H368.222C369.258 58.464 370.322 58.66 370.322 60.018C370.322 61.362 369.272 61.544 368.222 61.544H365.786ZM379.07 61.446V59.038C379.07 57.008 377.866 56.098 375.962 56.098C374.884 56.098 373.918 56.364 373.386 56.546V57.918C373.988 57.652 374.814 57.4 375.808 57.4C376.956 57.4 377.572 57.988 377.572 58.828V59.066C377.04 58.954 376.396 58.87 375.822 58.87C374.422 58.87 372.826 59.402 372.826 61.124C372.826 62.51 373.96 63.182 375.178 63.182C376.228 63.182 377.054 62.846 377.712 62.314C377.95 62.86 378.44 63.098 379.056 63.098C379.392 63.098 379.728 63.042 380.008 62.93V61.852C379.868 61.894 379.714 61.936 379.56 61.936C379.294 61.936 379.07 61.824 379.07 61.446ZM376.116 59.92C376.592 59.92 377.166 60.004 377.572 60.088V61.222C377.04 61.754 376.34 62.02 375.626 62.02C374.954 62.02 374.366 61.684 374.366 61.026C374.366 60.186 375.262 59.92 376.116 59.92ZM382.635 63V60.298H385.995V63H387.493V56.28H385.995V58.982H382.635V56.28H381.137V63H382.635ZM390.866 63V60.214H391.944L394.156 63H395.878L393.176 59.612L395.612 56.28H393.904L391.972 58.94H390.866V56.28H389.368V63H390.866ZM398.19 57.33V56.28H396.86V66.08H398.358V62.132C398.82 62.664 399.604 63.182 400.78 63.182C402.796 63.182 404.112 61.572 404.112 59.64C404.112 57.708 402.796 56.098 400.78 56.098C399.52 56.098 398.722 56.686 398.19 57.33ZM402.586 59.64C402.586 60.956 401.718 61.866 400.5 61.866C399.464 61.866 398.68 61.194 398.358 60.452V58.814C398.68 58.086 399.464 57.414 400.5 57.414C401.718 57.414 402.586 58.324 402.586 59.64ZM405.149 59.64C405.149 61.964 406.913 63.182 408.789 63.182C410.679 63.182 412.429 61.964 412.429 59.64C412.429 57.316 410.679 56.098 408.789 56.098C406.913 56.098 405.149 57.316 405.149 59.64ZM410.903 59.64C410.903 60.956 410.035 61.81 408.789 61.81C407.529 61.81 406.661 60.956 406.661 59.64C406.661 58.324 407.529 57.47 408.789 57.47C410.035 57.47 410.903 58.324 410.903 59.64ZM416.419 57.554H418.687V63H420.185V56.28H415.005C414.879 59.612 414.571 61.852 413.437 61.852C413.297 61.852 413.157 61.824 413.003 61.768V62.944C413.339 63.07 413.647 63.126 413.927 63.126C415.719 63.126 416.223 60.802 416.419 57.554ZM424.731 57.554H426.999V63H428.497V56.28H423.317C423.191 59.612 422.883 61.852 421.749 61.852C421.609 61.852 421.469 61.824 421.315 61.768V62.944C421.651 63.07 421.959 63.126 422.239 63.126C424.031 63.126 424.535 60.802 424.731 57.554Z" fill="black" fill-opacity="0.75"/>
<defs>
<filter id="filter0_d" x="0" y="4" width="872" height="388" filterUnits="userSpaceOnUse" color-interpolation-filters="sRGB">
<feFlood flood-opacity="0" result="BackgroundImageFix"/>
<feColorMatrix in="SourceAlpha" type="matrix" values="0 0 0 0 0 0 0 0 0 0 0 0 0 0 0 0 0 0 127 0"/>
<feOffset dy="16"/>
<feGaussianBlur stdDeviation="10.5"/>
<feColorMatrix type="matrix" values="0 0 0 0 0 0 0 0 0 0 0 0 0 0 0 0 0 0 0.06 0"/>
<feBlend mode="normal" in2="BackgroundImageFix" result="effect1_dropShadow"/>
<feBlend mode="normal" in="SourceGraphic" in2="effect1_dropShadow" result="shape"/>
</filter>
<radialGradient id="paint0_radial" cx="0" cy="0" r="1" gradientUnits="userSpaceOnUse" gradientTransform="translate(460 187) rotate(9.54038) scale(422.341 209.77)">
<stop stop-color="white"/>
<stop offset="1" stop-color="white" stop-opacity="0"/>
</radialGradient>
<radialGradient id="paint1_radial" cx="0" cy="0" r="1" gradientUnits="userSpaceOnUse" gradientTransform="translate(460 187) rotate(9.54038) scale(422.341 209.77)">
<stop stop-color="white"/>
<stop offset="1" stop-color="white" stop-opacity="0"/>
</radialGradient>
<radialGradient id="paint2_radial" cx="0" cy="0" r="1" gradientUnits="userSpaceOnUse" gradientTransform="translate(460 187) rotate(9.54038) scale(422.341 209.77)">
<stop stop-color="white"/>
<stop offset="1" stop-color="white" stop-opacity="0"/>
</radialGradient>
<radialGradient id="paint3_radial" cx="0" cy="0" r="1" gradientUnits="userSpaceOnUse" gradientTransform="translate(460 187) rotate(9.54038) scale(422.341 209.77)">
<stop stop-color="white"/>
<stop offset="1" stop-color="white" stop-opacity="0"/>
</radialGradient>
<radialGradient id="paint4_radial" cx="0" cy="0" r="1" gradientUnits="userSpaceOnUse" gradientTransform="translate(460 187) rotate(9.54038) scale(422.341 209.77)">
<stop stop-color="white"/>
<stop offset="1" stop-color="white" stop-opacity="0"/>
</radialGradient>
<radialGradient id="paint5_radial" cx="0" cy="0" r="1" gradientUnits="userSpaceOnUse" gradientTransform="translate(460 187) rotate(9.54038) scale(422.341 209.77)">
<stop stop-color="white"/>
<stop offset="1" stop-color="white" stop-opacity="0"/>
</radialGradient>
<radialGradient id="paint6_radial" cx="0" cy="0" r="1" gradientUnits="userSpaceOnUse" gradientTransform="translate(460 187) rotate(9.54038) scale(422.341 209.77)">
<stop stop-color="white"/>
<stop offset="1" stop-color="white" stop-opacity="0"/>
</radialGradient>
<radialGradient id="paint7_radial" cx="0" cy="0" r="1" gradientUnits="userSpaceOnUse" gradientTransform="translate(460 187) rotate(9.54038) scale(422.341 209.77)">
<stop stop-color="white"/>
<stop offset="1" stop-color="white" stop-opacity="0"/>
</radialGradient>
<radialGradient id="paint8_radial" cx="0" cy="0" r="1" gradientUnits="userSpaceOnUse" gradientTransform="translate(460 187) rotate(9.54038) scale(422.341 209.77)">
<stop stop-color="white"/>
<stop offset="1" stop-color="white" stop-opacity="0"/>
</radialGradient>
<radialGradient id="paint9_radial" cx="0" cy="0" r="1" gradientUnits="userSpaceOnUse" gradientTransform="translate(460 187) rotate(9.54038) scale(422.341 209.77)">
<stop stop-color="white"/>
<stop offset="1" stop-color="white" stop-opacity="0"/>
</radialGradient>
<radialGradient id="paint10_radial" cx="0" cy="0" r="1" gradientUnits="userSpaceOnUse" gradientTransform="translate(460 187) rotate(9.54038) scale(422.341 209.77)">
<stop stop-color="white"/>
<stop offset="1" stop-color="white" stop-opacity="0"/>
</radialGradient>
<radialGradient id="paint11_radial" cx="0" cy="0" r="1" gradientUnits="userSpaceOnUse" gradientTransform="translate(460 187) rotate(9.54038) scale(422.341 209.77)">
<stop stop-color="white"/>
<stop offset="1" stop-color="white" stop-opacity="0"/>
</radialGradient>
<radialGradient id="paint12_radial" cx="0" cy="0" r="1" gradientUnits="userSpaceOnUse" gradientTransform="translate(460 187) rotate(9.54038) scale(422.341 209.77)">
<stop stop-color="white"/>
<stop offset="1" stop-color="white" stop-opacity="0"/>
</radialGradient>
<radialGradient id="paint13_radial" cx="0" cy="0" r="1" gradientUnits="userSpaceOnUse" gradientTransform="translate(460 187) rotate(9.54038) scale(422.341 209.77)">
<stop stop-color="white"/>
<stop offset="1" stop-color="white" stop-opacity="0"/>
</radialGradient>
<radialGradient id="paint14_radial" cx="0" cy="0" r="1" gradientUnits="userSpaceOnUse" gradientTransform="translate(460 187) rotate(9.54038) scale(422.341 209.77)">
<stop stop-color="white"/>
<stop offset="1" stop-color="white" stop-opacity="0"/>
</radialGradient>
<radialGradient id="paint15_radial" cx="0" cy="0" r="1" gradientUnits="userSpaceOnUse" gradientTransform="translate(460 187) rotate(9.54038) scale(422.341 209.77)">
<stop stop-color="white"/>
<stop offset="1" stop-color="white" stop-opacity="0"/>
</radialGradient>
<radialGradient id="paint16_radial" cx="0" cy="0" r="1" gradientUnits="userSpaceOnUse" gradientTransform="translate(460 187) rotate(9.54038) scale(422.341 209.77)">
<stop stop-color="white"/>
<stop offset="1" stop-color="white" stop-opacity="0"/>
</radialGradient>
<radialGradient id="paint17_radial" cx="0" cy="0" r="1" gradientUnits="userSpaceOnUse" gradientTransform="translate(460 187) rotate(9.54038) scale(422.341 209.77)">
<stop stop-color="white"/>
<stop offset="1" stop-color="white" stop-opacity="0"/>
</radialGradient>
<radialGradient id="paint18_radial" cx="0" cy="0" r="1" gradientUnits="userSpaceOnUse" gradientTransform="translate(460 187) rotate(9.54038) scale(422.341 209.77)">
<stop stop-color="white"/>
<stop offset="1" stop-color="white" stop-opacity="0"/>
</radialGradient>
<radialGradient id="paint19_radial" cx="0" cy="0" r="1" gradientUnits="userSpaceOnUse" gradientTransform="translate(460 187) rotate(9.54038) scale(422.341 209.77)">
<stop stop-color="white"/>
<stop offset="1" stop-color="white" stop-opacity="0"/>
</radialGradient>
<radialGradient id="paint20_radial" cx="0" cy="0" r="1" gradientUnits="userSpaceOnUse" gradientTransform="translate(460 187) rotate(9.54038) scale(422.341 209.77)">
<stop stop-color="white"/>
<stop offset="1" stop-color="white" stop-opacity="0"/>
</radialGradient>
<radialGradient id="paint21_radial" cx="0" cy="0" r="1" gradientUnits="userSpaceOnUse" gradientTransform="translate(460 187) rotate(9.54038) scale(422.341 209.77)">
<stop stop-color="white"/>
<stop offset="1" stop-color="white" stop-opacity="0"/>
</radialGradient>
<radialGradient id="paint22_radial" cx="0" cy="0" r="1" gradientUnits="userSpaceOnUse" gradientTransform="translate(460 187) rotate(9.54038) scale(422.341 209.77)">
<stop stop-color="white"/>
<stop offset="1" stop-color="white" stop-opacity="0"/>
</radialGradient>
<radialGradient id="paint23_radial" cx="0" cy="0" r="1" gradientUnits="userSpaceOnUse" gradientTransform="translate(460 187) rotate(9.54038) scale(422.341 209.77)">
<stop stop-color="white"/>
<stop offset="1" stop-color="white" stop-opacity="0"/>
</radialGradient>
<radialGradient id="paint24_radial" cx="0" cy="0" r="1" gradientUnits="userSpaceOnUse" gradientTransform="translate(460 187) rotate(9.54038) scale(422.341 209.77)">
<stop stop-color="white"/>
<stop offset="1" stop-color="white" stop-opacity="0"/>
</radialGradient>
<radialGradient id="paint25_radial" cx="0" cy="0" r="1" gradientUnits="userSpaceOnUse" gradientTransform="translate(460 187) rotate(9.54038) scale(422.341 209.77)">
<stop stop-color="white"/>
<stop offset="1" stop-color="white" stop-opacity="0"/>
</radialGradient>
<radialGradient id="paint26_radial" cx="0" cy="0" r="1" gradientUnits="userSpaceOnUse" gradientTransform="translate(460 187) rotate(9.54038) scale(422.341 209.77)">
<stop stop-color="white"/>
<stop offset="1" stop-color="white" stop-opacity="0"/>
</radialGradient>
<radialGradient id="paint27_radial" cx="0" cy="0" r="1" gradientUnits="userSpaceOnUse" gradientTransform="translate(460 187) rotate(9.54038) scale(422.341 209.77)">
<stop stop-color="white"/>
<stop offset="1" stop-color="white" stop-opacity="0"/>
</radialGradient>
<radialGradient id="paint28_radial" cx="0" cy="0" r="1" gradientUnits="userSpaceOnUse" gradientTransform="translate(460 187) rotate(9.54038) scale(422.341 209.77)">
<stop stop-color="white"/>
<stop offset="1" stop-color="white" stop-opacity="0"/>
</radialGradient>
<radialGradient id="paint29_radial" cx="0" cy="0" r="1" gradientUnits="userSpaceOnUse" gradientTransform="translate(460 187) rotate(9.54038) scale(422.341 209.77)">
<stop stop-color="white"/>
<stop offset="1" stop-color="white" stop-opacity="0"/>
</radialGradient>
<radialGradient id="paint30_radial" cx="0" cy="0" r="1" gradientUnits="userSpaceOnUse" gradientTransform="translate(460 187) rotate(9.54038) scale(422.341 209.77)">
<stop stop-color="white"/>
<stop offset="1" stop-color="white" stop-opacity="0"/>
</radialGradient>
<radialGradient id="paint31_radial" cx="0" cy="0" r="1" gradientUnits="userSpaceOnUse" gradientTransform="translate(460 187) rotate(9.54038) scale(422.341 209.77)">
<stop stop-color="white"/>
<stop offset="1" stop-color="white" stop-opacity="0"/>
</radialGradient>
<radialGradient id="paint32_radial" cx="0" cy="0" r="1" gradientUnits="userSpaceOnUse" gradientTransform="translate(460 187) rotate(9.54038) scale(422.341 209.77)">
<stop stop-color="white"/>
<stop offset="1" stop-color="white" stop-opacity="0"/>
</radialGradient>
<radialGradient id="paint33_radial" cx="0" cy="0" r="1" gradientUnits="userSpaceOnUse" gradientTransform="translate(460 187) rotate(9.54038) scale(422.341 209.77)">
<stop stop-color="white"/>
<stop offset="1" stop-color="white" stop-opacity="0"/>
</radialGradient>
<radialGradient id="paint34_radial" cx="0" cy="0" r="1" gradientUnits="userSpaceOnUse" gradientTransform="translate(460 187) rotate(9.54038) scale(422.341 209.77)">
<stop stop-color="white"/>
<stop offset="1" stop-color="white" stop-opacity="0"/>
</radialGradient>
<radialGradient id="paint35_radial" cx="0" cy="0" r="1" gradientUnits="userSpaceOnUse" gradientTransform="translate(460 187) rotate(9.54038) scale(422.341 209.77)">
<stop stop-color="white"/>
<stop offset="1" stop-color="white" stop-opacity="0"/>
</radialGradient>
<radialGradient id="paint36_radial" cx="0" cy="0" r="1" gradientUnits="userSpaceOnUse" gradientTransform="translate(460 187) rotate(9.54038) scale(422.341 209.77)">
<stop stop-color="white"/>
<stop offset="1" stop-color="white" stop-opacity="0"/>
</radialGradient>
<radialGradient id="paint37_radial" cx="0" cy="0" r="1" gradientUnits="userSpaceOnUse" gradientTransform="translate(460 187) rotate(9.54038) scale(422.341 209.77)">
<stop stop-color="white"/>
<stop offset="1" stop-color="white" stop-opacity="0"/>
</radialGradient>
<radialGradient id="paint38_radial" cx="0" cy="0" r="1" gradientUnits="userSpaceOnUse" gradientTransform="translate(460 187) rotate(9.54038) scale(422.341 209.77)">
<stop stop-color="white"/>
<stop offset="1" stop-color="white" stop-opacity="0"/>
</radialGradient>
<radialGradient id="paint39_radial" cx="0" cy="0" r="1" gradientUnits="userSpaceOnUse" gradientTransform="translate(460 187) rotate(9.54038) scale(422.341 209.77)">
<stop stop-color="white"/>
<stop offset="1" stop-color="white" stop-opacity="0"/>
</radialGradient>
<radialGradient id="paint40_radial" cx="0" cy="0" r="1" gradientUnits="userSpaceOnUse" gradientTransform="translate(460 187) rotate(9.54038) scale(422.341 209.77)">
<stop stop-color="white"/>
<stop offset="1" stop-color="white" stop-opacity="0"/>
</radialGradient>
<radialGradient id="paint41_radial" cx="0" cy="0" r="1" gradientUnits="userSpaceOnUse" gradientTransform="translate(460 187) rotate(9.54038) scale(422.341 209.77)">
<stop stop-color="white"/>
<stop offset="1" stop-color="white" stop-opacity="0"/>
</radialGradient>
<radialGradient id="paint42_radial" cx="0" cy="0" r="1" gradientUnits="userSpaceOnUse" gradientTransform="translate(460 187) rotate(9.54038) scale(422.341 209.77)">
<stop stop-color="white"/>
<stop offset="1" stop-color="white" stop-opacity="0"/>
</radialGradient>
<radialGradient id="paint43_radial" cx="0" cy="0" r="1" gradientUnits="userSpaceOnUse" gradientTransform="translate(460 187) rotate(9.54038) scale(422.341 209.77)">
<stop stop-color="white"/>
<stop offset="1" stop-color="white" stop-opacity="0"/>
</radialGradient>
<radialGradient id="paint44_radial" cx="0" cy="0" r="1" gradientUnits="userSpaceOnUse" gradientTransform="translate(460 187) rotate(9.54038) scale(422.341 209.77)">
<stop stop-color="white"/>
<stop offset="1" stop-color="white" stop-opacity="0"/>
</radialGradient>
<radialGradient id="paint45_radial" cx="0" cy="0" r="1" gradientUnits="userSpaceOnUse" gradientTransform="translate(460 187) rotate(9.54038) scale(422.341 209.77)">
<stop stop-color="white"/>
<stop offset="1" stop-color="white" stop-opacity="0"/>
</radialGradient>
<radialGradient id="paint46_radial" cx="0" cy="0" r="1" gradientUnits="userSpaceOnUse" gradientTransform="translate(460 187) rotate(9.54038) scale(422.341 209.77)">
<stop stop-color="white"/>
<stop offset="1" stop-color="white" stop-opacity="0"/>
</radialGradient>
<radialGradient id="paint47_radial" cx="0" cy="0" r="1" gradientUnits="userSpaceOnUse" gradientTransform="translate(460 187) rotate(9.54038) scale(422.341 209.77)">
<stop stop-color="white"/>
<stop offset="1" stop-color="white" stop-opacity="0"/>
</radialGradient>
<radialGradient id="paint48_radial" cx="0" cy="0" r="1" gradientUnits="userSpaceOnUse" gradientTransform="translate(460 187) rotate(9.54038) scale(422.341 209.77)">
<stop stop-color="white"/>
<stop offset="1" stop-color="white" stop-opacity="0"/>
</radialGradient>
<radialGradient id="paint49_radial" cx="0" cy="0" r="1" gradientUnits="userSpaceOnUse" gradientTransform="translate(460 187) rotate(9.54038) scale(422.341 209.77)">
<stop stop-color="white"/>
<stop offset="1" stop-color="white" stop-opacity="0"/>
</radialGradient>
<radialGradient id="paint50_radial" cx="0" cy="0" r="1" gradientUnits="userSpaceOnUse" gradientTransform="translate(460 187) rotate(9.54038) scale(422.341 209.77)">
<stop stop-color="white"/>
<stop offset="1" stop-color="white" stop-opacity="0"/>
</radialGradient>
<radialGradient id="paint51_radial" cx="0" cy="0" r="1" gradientUnits="userSpaceOnUse" gradientTransform="translate(460 187) rotate(9.54038) scale(422.341 209.77)">
<stop stop-color="white"/>
<stop offset="1" stop-color="white" stop-opacity="0"/>
</radialGradient>
<radialGradient id="paint52_radial" cx="0" cy="0" r="1" gradientUnits="userSpaceOnUse" gradientTransform="translate(460 187) rotate(9.54038) scale(422.341 209.77)">
<stop stop-color="white"/>
<stop offset="1" stop-color="white" stop-opacity="0"/>
</radialGradient>
<radialGradient id="paint53_radial" cx="0" cy="0" r="1" gradientUnits="userSpaceOnUse" gradientTransform="translate(460 187) rotate(9.54038) scale(422.341 209.77)">
<stop stop-color="white"/>
<stop offset="1" stop-color="white" stop-opacity="0"/>
</radialGradient>
<radialGradient id="paint54_radial" cx="0" cy="0" r="1" gradientUnits="userSpaceOnUse" gradientTransform="translate(460 187) rotate(9.54038) scale(422.341 209.77)">
<stop stop-color="white"/>
<stop offset="1" stop-color="white" stop-opacity="0"/>
</radialGradient>
<radialGradient id="paint55_radial" cx="0" cy="0" r="1" gradientUnits="userSpaceOnUse" gradientTransform="translate(460 187) rotate(9.54038) scale(422.341 209.77)">
<stop stop-color="white"/>
<stop offset="1" stop-color="white" stop-opacity="0"/>
</radialGradient>
<radialGradient id="paint56_radial" cx="0" cy="0" r="1" gradientUnits="userSpaceOnUse" gradientTransform="translate(460 187) rotate(9.54038) scale(422.341 209.77)">
<stop stop-color="white"/>
<stop offset="1" stop-color="white" stop-opacity="0"/>
</radialGradient>
<radialGradient id="paint57_radial" cx="0" cy="0" r="1" gradientUnits="userSpaceOnUse" gradientTransform="translate(460 187) rotate(9.54038) scale(422.341 209.77)">
<stop stop-color="white"/>
<stop offset="1" stop-color="white" stop-opacity="0"/>
</radialGradient>
<radialGradient id="paint58_radial" cx="0" cy="0" r="1" gradientUnits="userSpaceOnUse" gradientTransform="translate(460 187) rotate(9.54038) scale(422.341 209.77)">
<stop stop-color="white"/>
<stop offset="1" stop-color="white" stop-opacity="0"/>
</radialGradient>
<radialGradient id="paint59_radial" cx="0" cy="0" r="1" gradientUnits="userSpaceOnUse" gradientTransform="translate(460 187) rotate(9.54038) scale(422.341 209.77)">
<stop stop-color="white"/>
<stop offset="1" stop-color="white" stop-opacity="0"/>
</radialGradient>
<radialGradient id="paint60_radial" cx="0" cy="0" r="1" gradientUnits="userSpaceOnUse" gradientTransform="translate(460 187) rotate(9.54038) scale(422.341 209.77)">
<stop stop-color="white"/>
<stop offset="1" stop-color="white" stop-opacity="0"/>
</radialGradient>
<radialGradient id="paint61_radial" cx="0" cy="0" r="1" gradientUnits="userSpaceOnUse" gradientTransform="translate(460 187) rotate(9.54038) scale(422.341 209.77)">
<stop stop-color="white"/>
<stop offset="1" stop-color="white" stop-opacity="0"/>
</radialGradient>
<radialGradient id="paint62_radial" cx="0" cy="0" r="1" gradientUnits="userSpaceOnUse" gradientTransform="translate(460 187) rotate(9.54038) scale(422.341 209.77)">
<stop stop-color="white"/>
<stop offset="1" stop-color="white" stop-opacity="0"/>
</radialGradient>
<radialGradient id="paint63_radial" cx="0" cy="0" r="1" gradientUnits="userSpaceOnUse" gradientTransform="translate(460 187) rotate(9.54038) scale(422.341 209.77)">
<stop stop-color="white"/>
<stop offset="1" stop-color="white" stop-opacity="0"/>
</radialGradient>
<radialGradient id="paint64_radial" cx="0" cy="0" r="1" gradientUnits="userSpaceOnUse" gradientTransform="translate(460 187) rotate(9.54038) scale(422.341 209.77)">
<stop stop-color="white"/>
<stop offset="1" stop-color="white" stop-opacity="0"/>
</radialGradient>
<radialGradient id="paint65_radial" cx="0" cy="0" r="1" gradientUnits="userSpaceOnUse" gradientTransform="translate(460 187) rotate(9.54038) scale(422.341 209.77)">
<stop stop-color="white"/>
<stop offset="1" stop-color="white" stop-opacity="0"/>
</radialGradient>
<radialGradient id="paint66_radial" cx="0" cy="0" r="1" gradientUnits="userSpaceOnUse" gradientTransform="translate(460 187) rotate(9.54038) scale(422.341 209.77)">
<stop stop-color="white"/>
<stop offset="1" stop-color="white" stop-opacity="0"/>
</radialGradient>
<radialGradient id="paint67_radial" cx="0" cy="0" r="1" gradientUnits="userSpaceOnUse" gradientTransform="translate(460 187) rotate(9.54038) scale(422.341 209.77)">
<stop stop-color="white"/>
<stop offset="1" stop-color="white" stop-opacity="0"/>
</radialGradient>
<radialGradient id="paint68_radial" cx="0" cy="0" r="1" gradientUnits="userSpaceOnUse" gradientTransform="translate(460 187) rotate(9.54038) scale(422.341 209.77)">
<stop stop-color="white"/>
<stop offset="1" stop-color="white" stop-opacity="0"/>
</radialGradient>
<radialGradient id="paint69_radial" cx="0" cy="0" r="1" gradientUnits="userSpaceOnUse" gradientTransform="translate(460 187) rotate(9.54038) scale(422.341 209.77)">
<stop stop-color="white"/>
<stop offset="1" stop-color="white" stop-opacity="0"/>
</radialGradient>
<radialGradient id="paint70_radial" cx="0" cy="0" r="1" gradientUnits="userSpaceOnUse" gradientTransform="translate(460 187) rotate(9.54038) scale(422.341 209.77)">
<stop stop-color="white"/>
<stop offset="1" stop-color="white" stop-opacity="0"/>
</radialGradient>
<radialGradient id="paint71_radial" cx="0" cy="0" r="1" gradientUnits="userSpaceOnUse" gradientTransform="translate(460 187) rotate(9.54038) scale(422.341 209.77)">
<stop stop-color="white"/>
<stop offset="1" stop-color="white" stop-opacity="0"/>
</radialGradient>
<radialGradient id="paint72_radial" cx="0" cy="0" r="1" gradientUnits="userSpaceOnUse" gradientTransform="translate(460 187) rotate(9.54038) scale(422.341 209.77)">
<stop stop-color="white"/>
<stop offset="1" stop-color="white" stop-opacity="0"/>
</radialGradient>
<radialGradient id="paint73_radial" cx="0" cy="0" r="1" gradientUnits="userSpaceOnUse" gradientTransform="translate(460 187) rotate(9.54038) scale(422.341 209.77)">
<stop stop-color="white"/>
<stop offset="1" stop-color="white" stop-opacity="0"/>
</radialGradient>
<radialGradient id="paint74_radial" cx="0" cy="0" r="1" gradientUnits="userSpaceOnUse" gradientTransform="translate(460 187) rotate(9.54038) scale(422.341 209.77)">
<stop stop-color="white"/>
<stop offset="1" stop-color="white" stop-opacity="0"/>
</radialGradient>
<radialGradient id="paint75_radial" cx="0" cy="0" r="1" gradientUnits="userSpaceOnUse" gradientTransform="translate(460 187) rotate(9.54038) scale(422.341 209.77)">
<stop stop-color="white"/>
<stop offset="1" stop-color="white" stop-opacity="0"/>
</radialGradient>
<radialGradient id="paint76_radial" cx="0" cy="0" r="1" gradientUnits="userSpaceOnUse" gradientTransform="translate(460 187) rotate(9.54038) scale(422.341 209.77)">
<stop stop-color="white"/>
<stop offset="1" stop-color="white" stop-opacity="0"/>
</radialGradient>
<radialGradient id="paint77_radial" cx="0" cy="0" r="1" gradientUnits="userSpaceOnUse" gradientTransform="translate(460 187) rotate(9.54038) scale(422.341 209.77)">
<stop stop-color="white"/>
<stop offset="1" stop-color="white" stop-opacity="0"/>
</radialGradient>
<radialGradient id="paint78_radial" cx="0" cy="0" r="1" gradientUnits="userSpaceOnUse" gradientTransform="translate(460 187) rotate(9.54038) scale(422.341 209.77)">
<stop stop-color="white"/>
<stop offset="1" stop-color="white" stop-opacity="0"/>
</radialGradient>
<radialGradient id="paint79_radial" cx="0" cy="0" r="1" gradientUnits="userSpaceOnUse" gradientTransform="translate(460 187) rotate(9.54038) scale(422.341 209.77)">
<stop stop-color="white"/>
<stop offset="1" stop-color="white" stop-opacity="0"/>
</radialGradient>
<radialGradient id="paint80_radial" cx="0" cy="0" r="1" gradientUnits="userSpaceOnUse" gradientTransform="translate(460 187) rotate(9.54038) scale(422.341 209.77)">
<stop stop-color="white"/>
<stop offset="1" stop-color="white" stop-opacity="0"/>
</radialGradient>
<radialGradient id="paint81_radial" cx="0" cy="0" r="1" gradientUnits="userSpaceOnUse" gradientTransform="translate(460 187) rotate(9.54038) scale(422.341 209.77)">
<stop stop-color="white"/>
<stop offset="1" stop-color="white" stop-opacity="0"/>
</radialGradient>
<radialGradient id="paint82_radial" cx="0" cy="0" r="1" gradientUnits="userSpaceOnUse" gradientTransform="translate(460 187) rotate(9.54038) scale(422.341 209.77)">
<stop stop-color="white"/>
<stop offset="1" stop-color="white" stop-opacity="0"/>
</radialGradient>
<radialGradient id="paint83_radial" cx="0" cy="0" r="1" gradientUnits="userSpaceOnUse" gradientTransform="translate(460 187) rotate(9.54038) scale(422.341 209.77)">
<stop stop-color="white"/>
<stop offset="1" stop-color="white" stop-opacity="0"/>
</radialGradient>
<radialGradient id="paint84_radial" cx="0" cy="0" r="1" gradientUnits="userSpaceOnUse" gradientTransform="translate(460 187) rotate(9.54038) scale(422.341 209.77)">
<stop stop-color="white"/>
<stop offset="1" stop-color="white" stop-opacity="0"/>
</radialGradient>
<radialGradient id="paint85_radial" cx="0" cy="0" r="1" gradientUnits="userSpaceOnUse" gradientTransform="translate(460 187) rotate(9.54038) scale(422.341 209.77)">
<stop stop-color="white"/>
<stop offset="1" stop-color="white" stop-opacity="0"/>
</radialGradient>
<radialGradient id="paint86_radial" cx="0" cy="0" r="1" gradientUnits="userSpaceOnUse" gradientTransform="translate(460 187) rotate(9.54038) scale(422.341 209.77)">
<stop stop-color="white"/>
<stop offset="1" stop-color="white" stop-opacity="0"/>
</radialGradient>
<radialGradient id="paint87_radial" cx="0" cy="0" r="1" gradientUnits="userSpaceOnUse" gradientTransform="translate(460 187) rotate(9.54038) scale(422.341 209.77)">
<stop stop-color="white"/>
<stop offset="1" stop-color="white" stop-opacity="0"/>
</radialGradient>
<radialGradient id="paint88_radial" cx="0" cy="0" r="1" gradientUnits="userSpaceOnUse" gradientTransform="translate(460 187) rotate(9.54038) scale(422.341 209.77)">
<stop stop-color="white"/>
<stop offset="1" stop-color="white" stop-opacity="0"/>
</radialGradient>
<radialGradient id="paint89_radial" cx="0" cy="0" r="1" gradientUnits="userSpaceOnUse" gradientTransform="translate(460 187) rotate(9.54038) scale(422.341 209.77)">
<stop stop-color="white"/>
<stop offset="1" stop-color="white" stop-opacity="0"/>
</radialGradient>
</defs>
</svg>
