<svg width="48" height="48" viewBox="0 0 48 48" fill="none" xmlns="http://www.w3.org/2000/svg">
<path d="M44.8484 43.8513C45.7867 43.3258 46.5718 42.5597 47.1248 41.6298C47.6778 40.6999 47.9793 39.6391 47.999 38.554C48.0186 37.4688 47.7558 36.3976 47.2368 35.4478C46.7178 34.4981 45.961 33.7033 45.0424 33.1433L44.196 32.6436C39.5 29.7827 34.1572 28.1893 28.6787 28.0158C23.2003 27.8424 17.7695 29.0948 12.9061 31.6531L2 37.3908L12.5799 43.5569C17.4772 46.417 23.0219 47.9471 28.6759 47.9987C34.3298 48.0502 39.9009 46.6216 44.8484 43.8513Z" fill="url(#paint0_linear)" fill-opacity="0.39"/>
<path d="M32.5785 4.02172V4.03273C35.3132 5.73114 37.0043 9.25132 37 14.2408C37 24.3938 30.0311 36.7453 21.4334 41.8295C17.2163 44.3253 13.3952 44.5896 10.5895 43.0278V43.041L5.57207 40.0782C2.74922 38.4128 1 34.8486 1 29.7666C1 19.6114 7.97109 7.25993 16.5644 2.17793C20.8676 -0.359773 24.7554 -0.606499 27.5761 1.05666L32.5785 4.02172Z" fill="#6FCF97"/>
<g style="mix-blend-mode:overlay" opacity="0.3">
<path d="M32.9865 4.02868C30.0355 2.26816 25.9114 2.47282 21.3468 5.05638C12.3568 10.1311 5.08386 22.4723 5.08161 32.6151C5.08161 37.7955 6.99426 41.3891 10.0531 43C10.0406 42.9962 10.0285 42.991 10.0171 42.9846V42.9978L4.77593 40.0379C1.82721 38.3742 0 34.8136 0 29.7367C0 19.5917 7.28191 7.25264 16.2584 2.17574C20.7534 -0.359411 24.8146 -0.60589 27.7611 1.0556L33 4.01768L32.9865 4.02868Z" fill="black"/>
</g>
<path d="M14.41 43.9996C16.6968 43.9996 19.2162 43.2633 21.8014 41.8057C30.738 36.7693 38.0044 24.5027 38 14.4599C38 9.62262 36.332 5.94326 33.2947 4.08325C33.2599 4.04923 33.2208 4.01974 33.1784 3.9955L28.0627 1.11452C24.8586 -0.683417 20.6449 -0.295999 16.1942 2.20399C7.26203 7.23821 -0.00219727 19.5048 0 29.5476C0 34.5283 1.75571 38.2676 4.9445 40.0805L4.9796 40.1019L10.0997 42.9765C10.1455 43.0017 10.1941 43.0218 10.2445 43.0364C11.5321 43.6828 12.9619 44.0134 14.41 43.9996ZM32.4256 5.00149C32.4561 5.02872 32.4892 5.05308 32.5244 5.07426C35.2391 6.67956 36.7315 10.0122 36.7293 14.4599C36.7293 24.1088 29.7525 35.896 21.1672 40.7333C17.2168 42.9551 13.5145 43.366 10.7274 41.8891C10.6925 41.8705 10.6557 41.8555 10.6176 41.8442L5.65117 39.051L5.61607 39.0296C2.81353 37.4564 1.2707 34.0874 1.2707 29.5476C1.2707 19.8987 8.2474 8.11363 16.8306 3.27633C20.8687 1.00751 24.6325 0.62009 27.4284 2.189L32.4256 5.00149Z" fill="#4EC078"/>
<path d="M9 32.783C9 23.6482 15.2683 12.537 23 7.96198C30.7317 3.38691 37 7.08553 37 16.2247C37 25.3639 30.7317 36.4663 23.0021 41.0392C15.2726 45.6121 9.00428 41.9135 9 32.783Z" fill="white"/>
<path d="M16.5812 43.9994C18.6622 43.9994 20.954 43.3163 23.3205 41.9632C31.4143 37.3273 38 26.0323 38 16.7801C38 12.1638 36.3953 8.70266 33.48 7.03409C30.5647 5.36551 26.7275 5.72882 22.6817 8.03263C14.5857 12.6685 8 23.9678 8 33.22C8 37.8363 9.60913 41.2975 12.5244 42.9639C13.7602 43.6592 15.1602 44.0165 16.5812 43.9994ZM29.4166 7.25599C30.6172 7.2402 31.8005 7.54049 32.8456 8.12617C35.3504 9.55979 36.7312 12.6337 36.7312 16.7823C36.7312 25.632 30.4287 36.4419 22.6817 40.8755C19.0508 42.9552 15.6569 43.312 13.1566 41.8762C10.6562 40.4404 9.27544 37.373 9.27544 33.22C9.27544 24.3681 15.5779 13.5583 23.3249 9.12253C25.4828 7.88252 27.5617 7.25599 29.4166 7.25599Z" fill="#4EC078"/>
<g clip-path="url(#clip0)">
<path d="M20.1889 35.1692L21.7903 34.2445L21.7904 31.4708L26.5945 28.697L26.5946 26.8478L21.7904 29.6217L21.7905 27.7725L25.3936 25.6921C27.6011 24.4175 29.3971 21.3068 29.3972 18.7577C29.3973 16.2087 27.6014 15.1718 25.3939 16.4464L20.9901 18.9891C20.7778 19.1117 20.5741 19.3267 20.4239 19.5868C20.2738 19.8469 20.1894 20.1308 20.1894 20.376L20.1892 26.848L17.7871 28.235L17.7871 30.0841L20.1891 28.6972L20.1891 30.5463L17.787 31.9332L17.7869 33.7824L20.189 32.3955L20.1889 35.1692ZM21.7907 20.376L25.3938 18.2956C26.7182 17.5309 27.7959 18.1531 27.7958 19.6823C27.7958 21.2116 26.718 23.0783 25.3937 23.843L21.7906 25.9234L21.7907 20.376Z" fill="#4EC078"/>
</g>
<defs>
<linearGradient id="paint0_linear" x1="11" y1="39.5" x2="52.5" y2="46" gradientUnits="userSpaceOnUse">
<stop stop-color="#93D0FF"/>
<stop offset="1" stop-color="#93D0FF" stop-opacity="0"/>
</linearGradient>
<clipPath id="clip0">
<rect width="22.1897" height="22.1897" fill="white" transform="matrix(0.86601 -0.500028 -3.18351e-05 1 13.7837 19.4514)"/>
</clipPath>
</defs>
</svg>
