<svg width="141" height="125" viewBox="0 0 141 125" fill="none" xmlns="http://www.w3.org/2000/svg">
<circle r="1.55725" transform="matrix(0 -1 -1 0 117.832 117.832)" fill="#C4C4C4" fill-opacity="0.48"/>
<circle r="1.55725" transform="matrix(0 -1 -1 0 109.527 117.832)" fill="#C4C4C4" fill-opacity="0.48"/>
<circle r="1.55725" transform="matrix(0 -1 -1 0 101.221 117.832)" fill="#C4C4C4" fill-opacity="0.48"/>
<circle r="1.55725" transform="matrix(0 -1 -1 0 92.9161 117.832)" fill="#C4C4C4" fill-opacity="0.48"/>
<circle r="1.55725" transform="matrix(0 -1 -1 0 84.6107 117.832)" fill="#C4C4C4" fill-opacity="0.48"/>
<circle r="1.55725" transform="matrix(0 -1 -1 0 76.3053 117.832)" fill="#C4C4C4" fill-opacity="0.48"/>
<circle r="1.55725" transform="matrix(0 -1 -1 0 67.9999 117.832)" fill="#C4C4C4" fill-opacity="0.48"/>
<circle r="1.55725" transform="matrix(0 -1 -1 0 59.6947 117.832)" fill="#C4C4C4" fill-opacity="0.48"/>
<circle r="1.55725" transform="matrix(0 -1 -1 0 51.3893 117.832)" fill="#C4C4C4" fill-opacity="0.48"/>
<circle r="1.55725" transform="matrix(0 -1 -1 0 43.0841 117.832)" fill="#C4C4C4" fill-opacity="0.48"/>
<circle r="1.55725" transform="matrix(0 -1 -1 0 34.7787 117.832)" fill="#C4C4C4" fill-opacity="0.48"/>
<circle r="1.55725" transform="matrix(0 -1 -1 0 26.4733 117.832)" fill="#C4C4C4" fill-opacity="0.48"/>
<circle r="1.55725" transform="matrix(0 -1 -1 0 18.1678 117.832)" fill="#C4C4C4" fill-opacity="0.48"/>
<circle r="1.55725" transform="matrix(0 -1 -1 0 9.86267 117.832)" fill="#C4C4C4" fill-opacity="0.48"/>
<circle r="1.55725" transform="matrix(0 -1 -1 0 1.55725 117.832)" fill="#C4C4C4" fill-opacity="0.48"/>
<circle r="1.55725" transform="matrix(0 -1 -1 0 117.832 109.527)" fill="#C4C4C4" fill-opacity="0.48"/>
<circle r="1.55725" transform="matrix(0 -1 -1 0 109.527 109.527)" fill="#C4C4C4" fill-opacity="0.48"/>
<circle r="1.55725" transform="matrix(0 -1 -1 0 101.221 109.527)" fill="#C4C4C4" fill-opacity="0.48"/>
<circle r="1.55725" transform="matrix(0 -1 -1 0 92.9161 109.527)" fill="#C4C4C4" fill-opacity="0.48"/>
<circle r="1.55725" transform="matrix(0 -1 -1 0 84.6107 109.527)" fill="#C4C4C4" fill-opacity="0.48"/>
<circle r="1.55725" transform="matrix(0 -1 -1 0 76.3053 109.527)" fill="#C4C4C4" fill-opacity="0.48"/>
<circle r="1.55725" transform="matrix(0 -1 -1 0 67.9999 109.527)" fill="#C4C4C4" fill-opacity="0.48"/>
<circle r="1.55725" transform="matrix(0 -1 -1 0 59.6947 109.527)" fill="#C4C4C4" fill-opacity="0.48"/>
<circle r="1.55725" transform="matrix(0 -1 -1 0 51.3893 109.527)" fill="#C4C4C4" fill-opacity="0.48"/>
<circle r="1.55725" transform="matrix(0 -1 -1 0 43.0841 109.527)" fill="#C4C4C4" fill-opacity="0.48"/>
<circle r="1.55725" transform="matrix(0 -1 -1 0 34.7787 109.527)" fill="#C4C4C4" fill-opacity="0.48"/>
<circle r="1.55725" transform="matrix(0 -1 -1 0 26.4733 109.527)" fill="#C4C4C4" fill-opacity="0.48"/>
<circle r="1.55725" transform="matrix(0 -1 -1 0 18.1678 109.527)" fill="#C4C4C4" fill-opacity="0.48"/>
<circle r="1.55725" transform="matrix(0 -1 -1 0 9.86267 109.527)" fill="#C4C4C4" fill-opacity="0.48"/>
<circle r="1.55725" transform="matrix(0 -1 -1 0 1.55725 109.527)" fill="#C4C4C4" fill-opacity="0.48"/>
<circle r="1.55725" transform="matrix(0 -1 -1 0 134.443 101.221)" fill="#C4C4C4" fill-opacity="0.48"/>
<circle r="1.55725" transform="matrix(0 -1 -1 0 126.137 101.221)" fill="#C4C4C4" fill-opacity="0.48"/>
<circle r="1.55725" transform="matrix(0 -1 -1 0 117.832 101.221)" fill="#C4C4C4" fill-opacity="0.48"/>
<circle r="1.55725" transform="matrix(0 -1 -1 0 109.527 101.221)" fill="#C4C4C4" fill-opacity="0.48"/>
<circle r="1.55725" transform="matrix(0 -1 -1 0 101.221 101.221)" fill="#C4C4C4" fill-opacity="0.48"/>
<circle r="1.55725" transform="matrix(0 -1 -1 0 92.9161 101.221)" fill="#C4C4C4" fill-opacity="0.48"/>
<circle r="1.55725" transform="matrix(0 -1 -1 0 84.6107 101.221)" fill="#C4C4C4" fill-opacity="0.48"/>
<circle r="1.55725" transform="matrix(0 -1 -1 0 76.3053 101.221)" fill="#C4C4C4" fill-opacity="0.48"/>
<circle r="1.55725" transform="matrix(0 -1 -1 0 67.9999 101.221)" fill="#C4C4C4" fill-opacity="0.48"/>
<circle r="1.55725" transform="matrix(0 -1 -1 0 59.6947 101.221)" fill="#C4C4C4" fill-opacity="0.48"/>
<circle r="1.55725" transform="matrix(0 -1 -1 0 51.3893 101.221)" fill="#C4C4C4" fill-opacity="0.48"/>
<circle r="1.55725" transform="matrix(0 -1 -1 0 43.0841 101.221)" fill="#C4C4C4" fill-opacity="0.48"/>
<circle r="1.55725" transform="matrix(0 -1 -1 0 34.7787 101.221)" fill="#C4C4C4" fill-opacity="0.48"/>
<circle r="1.55725" transform="matrix(0 -1 -1 0 26.4733 101.221)" fill="#C4C4C4" fill-opacity="0.48"/>
<circle r="1.55725" transform="matrix(0 -1 -1 0 18.1678 101.221)" fill="#C4C4C4" fill-opacity="0.48"/>
<circle r="1.55725" transform="matrix(0 -1 -1 0 9.86267 101.221)" fill="#C4C4C4" fill-opacity="0.48"/>
<circle r="1.55725" transform="matrix(0 -1 -1 0 1.55725 101.221)" fill="#C4C4C4" fill-opacity="0.48"/>
<circle r="1.55725" transform="matrix(0 -1 -1 0 134.443 92.9159)" fill="#C4C4C4" fill-opacity="0.48"/>
<circle r="1.55725" transform="matrix(0 -1 -1 0 126.137 92.9159)" fill="#C4C4C4" fill-opacity="0.48"/>
<circle r="1.55725" transform="matrix(0 -1 -1 0 117.832 92.9159)" fill="#C4C4C4" fill-opacity="0.48"/>
<circle r="1.55725" transform="matrix(0 -1 -1 0 109.527 92.9159)" fill="#C4C4C4" fill-opacity="0.48"/>
<circle r="1.55725" transform="matrix(0 -1 -1 0 101.221 92.9159)" fill="#C4C4C4" fill-opacity="0.48"/>
<circle r="1.55725" transform="matrix(0 -1 -1 0 92.9161 92.9159)" fill="#C4C4C4" fill-opacity="0.48"/>
<circle r="1.55725" transform="matrix(0 -1 -1 0 84.6107 92.9159)" fill="#C4C4C4" fill-opacity="0.48"/>
<circle r="1.55725" transform="matrix(0 -1 -1 0 76.3053 92.9159)" fill="#C4C4C4" fill-opacity="0.48"/>
<circle r="1.55725" transform="matrix(0 -1 -1 0 67.9999 92.9159)" fill="#C4C4C4" fill-opacity="0.48"/>
<circle r="1.55725" transform="matrix(0 -1 -1 0 59.6947 92.9159)" fill="#C4C4C4" fill-opacity="0.48"/>
<circle r="1.55725" transform="matrix(0 -1 -1 0 51.3893 92.9159)" fill="#C4C4C4" fill-opacity="0.48"/>
<circle r="1.55725" transform="matrix(0 -1 -1 0 43.0841 92.9159)" fill="#C4C4C4" fill-opacity="0.48"/>
<circle r="1.55725" transform="matrix(0 -1 -1 0 34.7787 92.9159)" fill="#C4C4C4" fill-opacity="0.48"/>
<circle r="1.55725" transform="matrix(0 -1 -1 0 26.4733 92.9159)" fill="#C4C4C4" fill-opacity="0.48"/>
<circle r="1.55725" transform="matrix(0 -1 -1 0 18.1678 92.9159)" fill="#C4C4C4" fill-opacity="0.48"/>
<circle r="1.55725" transform="matrix(0 -1 -1 0 9.86267 92.9159)" fill="#C4C4C4" fill-opacity="0.48"/>
<circle r="1.55725" transform="matrix(0 -1 -1 0 1.55725 92.9159)" fill="#C4C4C4" fill-opacity="0.48"/>
<circle r="1.55725" transform="matrix(0 -1 -1 0 134.443 84.6105)" fill="#C4C4C4" fill-opacity="0.48"/>
<circle r="1.55725" transform="matrix(0 -1 -1 0 126.137 84.6105)" fill="#C4C4C4" fill-opacity="0.48"/>
<circle r="1.55725" transform="matrix(0 -1 -1 0 117.832 84.6105)" fill="#C4C4C4" fill-opacity="0.48"/>
<circle r="1.55725" transform="matrix(0 -1 -1 0 109.527 84.6105)" fill="#C4C4C4" fill-opacity="0.48"/>
<circle r="1.55725" transform="matrix(0 -1 -1 0 101.221 84.6105)" fill="#C4C4C4" fill-opacity="0.48"/>
<circle r="1.55725" transform="matrix(0 -1 -1 0 92.9161 84.6105)" fill="#C4C4C4" fill-opacity="0.48"/>
<circle r="1.55725" transform="matrix(0 -1 -1 0 84.6107 84.6105)" fill="#C4C4C4" fill-opacity="0.48"/>
<circle r="1.55725" transform="matrix(0 -1 -1 0 76.3053 84.6105)" fill="#C4C4C4" fill-opacity="0.48"/>
<circle r="1.55725" transform="matrix(0 -1 -1 0 67.9999 84.6105)" fill="#C4C4C4" fill-opacity="0.48"/>
<circle r="1.55725" transform="matrix(0 -1 -1 0 59.6947 84.6105)" fill="#C4C4C4" fill-opacity="0.48"/>
<circle r="1.55725" transform="matrix(0 -1 -1 0 51.3893 84.6105)" fill="#C4C4C4" fill-opacity="0.48"/>
<circle r="1.55725" transform="matrix(0 -1 -1 0 43.0841 84.6105)" fill="#C4C4C4" fill-opacity="0.48"/>
<circle r="1.55725" transform="matrix(0 -1 -1 0 34.7787 84.6105)" fill="#C4C4C4" fill-opacity="0.48"/>
<circle r="1.55725" transform="matrix(0 -1 -1 0 26.4733 84.6105)" fill="#C4C4C4" fill-opacity="0.48"/>
<circle r="1.55725" transform="matrix(0 -1 -1 0 18.1678 84.6105)" fill="#C4C4C4" fill-opacity="0.48"/>
<circle r="1.55725" transform="matrix(0 -1 -1 0 9.86267 84.6105)" fill="#C4C4C4" fill-opacity="0.48"/>
<circle r="1.55725" transform="matrix(0 -1 -1 0 1.55725 84.6105)" fill="#C4C4C4" fill-opacity="0.48"/>
<circle r="1.55725" transform="matrix(0 -1 -1 0 134.443 76.3052)" fill="#C4C4C4" fill-opacity="0.48"/>
<circle r="1.55725" transform="matrix(0 -1 -1 0 126.137 76.3052)" fill="#C4C4C4" fill-opacity="0.48"/>
<circle r="1.55725" transform="matrix(0 -1 -1 0 117.832 76.3052)" fill="#C4C4C4" fill-opacity="0.48"/>
<circle r="1.55725" transform="matrix(0 -1 -1 0 109.527 76.3052)" fill="#C4C4C4" fill-opacity="0.48"/>
<circle r="1.55725" transform="matrix(0 -1 -1 0 101.221 76.3052)" fill="#C4C4C4" fill-opacity="0.48"/>
<circle r="1.55725" transform="matrix(0 -1 -1 0 92.9161 76.3052)" fill="#C4C4C4" fill-opacity="0.48"/>
<circle r="1.55725" transform="matrix(0 -1 -1 0 84.6107 76.3052)" fill="#C4C4C4" fill-opacity="0.48"/>
<circle r="1.55725" transform="matrix(0 -1 -1 0 76.3053 76.3052)" fill="#C4C4C4" fill-opacity="0.48"/>
<circle r="1.55725" transform="matrix(0 -1 -1 0 67.9999 76.3052)" fill="#C4C4C4" fill-opacity="0.48"/>
<circle r="1.55725" transform="matrix(0 -1 -1 0 59.6947 76.3052)" fill="#C4C4C4" fill-opacity="0.48"/>
<circle r="1.55725" transform="matrix(0 -1 -1 0 51.3893 76.3052)" fill="#C4C4C4" fill-opacity="0.48"/>
<circle r="1.55725" transform="matrix(0 -1 -1 0 43.0841 76.3052)" fill="#C4C4C4" fill-opacity="0.48"/>
<circle r="1.55725" transform="matrix(0 -1 -1 0 34.7787 76.3052)" fill="#C4C4C4" fill-opacity="0.48"/>
<circle r="1.55725" transform="matrix(0 -1 -1 0 26.4733 76.3052)" fill="#C4C4C4" fill-opacity="0.48"/>
<circle r="1.55725" transform="matrix(0 -1 -1 0 18.1678 76.3052)" fill="#C4C4C4" fill-opacity="0.48"/>
<circle r="1.55725" transform="matrix(0 -1 -1 0 9.86267 76.3052)" fill="#C4C4C4" fill-opacity="0.48"/>
<circle r="1.55725" transform="matrix(0 -1 -1 0 1.55725 76.3052)" fill="#C4C4C4" fill-opacity="0.48"/>
<circle r="1.55725" transform="matrix(0 -1 -1 0 134.443 67.9999)" fill="#C4C4C4" fill-opacity="0.48"/>
<circle r="1.55725" transform="matrix(0 -1 -1 0 126.137 67.9999)" fill="#C4C4C4" fill-opacity="0.48"/>
<circle r="1.55725" transform="matrix(0 -1 -1 0 117.832 67.9999)" fill="#C4C4C4" fill-opacity="0.48"/>
<circle r="1.55725" transform="matrix(0 -1 -1 0 109.527 67.9999)" fill="#C4C4C4" fill-opacity="0.48"/>
<circle r="1.55725" transform="matrix(0 -1 -1 0 101.221 67.9999)" fill="#C4C4C4" fill-opacity="0.48"/>
<circle r="1.55725" transform="matrix(0 -1 -1 0 92.9161 67.9999)" fill="#C4C4C4" fill-opacity="0.48"/>
<circle r="1.55725" transform="matrix(0 -1 -1 0 84.6107 67.9999)" fill="#C4C4C4" fill-opacity="0.48"/>
<circle r="1.55725" transform="matrix(0 -1 -1 0 76.3053 67.9999)" fill="#C4C4C4" fill-opacity="0.48"/>
<circle r="1.55725" transform="matrix(0 -1 -1 0 67.9999 67.9999)" fill="#C4C4C4" fill-opacity="0.48"/>
<circle r="1.55725" transform="matrix(0 -1 -1 0 59.6947 67.9999)" fill="#C4C4C4" fill-opacity="0.48"/>
<circle r="1.55725" transform="matrix(0 -1 -1 0 51.3893 67.9999)" fill="#C4C4C4" fill-opacity="0.48"/>
<circle r="1.55725" transform="matrix(0 -1 -1 0 43.0841 67.9999)" fill="#C4C4C4" fill-opacity="0.48"/>
<circle r="1.55725" transform="matrix(0 -1 -1 0 34.7787 67.9999)" fill="#C4C4C4" fill-opacity="0.48"/>
<circle r="1.55725" transform="matrix(0 -1 -1 0 26.4733 67.9999)" fill="#C4C4C4" fill-opacity="0.48"/>
<circle r="1.55725" transform="matrix(0 -1 -1 0 18.1678 67.9999)" fill="#C4C4C4" fill-opacity="0.48"/>
<circle r="1.55725" transform="matrix(0 -1 -1 0 9.86267 67.9999)" fill="#C4C4C4" fill-opacity="0.48"/>
<circle r="1.55725" transform="matrix(0 -1 -1 0 1.55725 67.9999)" fill="#C4C4C4" fill-opacity="0.48"/>
<circle r="1.55725" transform="matrix(0 -1 -1 0 134.443 59.6945)" fill="#C4C4C4" fill-opacity="0.48"/>
<circle r="1.55725" transform="matrix(0 -1 -1 0 126.137 59.6945)" fill="#C4C4C4" fill-opacity="0.48"/>
<circle r="1.55725" transform="matrix(0 -1 -1 0 117.832 59.6945)" fill="#C4C4C4" fill-opacity="0.48"/>
<circle r="1.55725" transform="matrix(0 -1 -1 0 109.527 59.6945)" fill="#C4C4C4" fill-opacity="0.48"/>
<circle r="1.55725" transform="matrix(0 -1 -1 0 101.221 59.6945)" fill="#C4C4C4" fill-opacity="0.48"/>
<circle r="1.55725" transform="matrix(0 -1 -1 0 92.9161 59.6945)" fill="#C4C4C4" fill-opacity="0.48"/>
<circle r="1.55725" transform="matrix(0 -1 -1 0 84.6107 59.6945)" fill="#C4C4C4" fill-opacity="0.48"/>
<circle r="1.55725" transform="matrix(0 -1 -1 0 76.3053 59.6945)" fill="#C4C4C4" fill-opacity="0.48"/>
<circle r="1.55725" transform="matrix(0 -1 -1 0 59.6947 59.6945)" fill="#C4C4C4" fill-opacity="0.48"/>
<circle r="1.55725" transform="matrix(0 -1 -1 0 67.9999 59.6945)" fill="#C4C4C4" fill-opacity="0.48"/>
<circle r="1.55725" transform="matrix(0 -1 -1 0 51.3893 59.6945)" fill="#C4C4C4" fill-opacity="0.48"/>
<circle r="1.55725" transform="matrix(0 -1 -1 0 43.0841 59.6945)" fill="#C4C4C4" fill-opacity="0.48"/>
<circle r="1.55725" transform="matrix(0 -1 -1 0 34.7787 59.6945)" fill="#C4C4C4" fill-opacity="0.48"/>
<circle r="1.55725" transform="matrix(0 -1 -1 0 26.4733 59.6945)" fill="#C4C4C4" fill-opacity="0.48"/>
<circle r="1.55725" transform="matrix(0 -1 -1 0 18.1678 59.6945)" fill="#C4C4C4" fill-opacity="0.48"/>
<circle r="1.55725" transform="matrix(0 -1 -1 0 9.86267 59.6945)" fill="#C4C4C4" fill-opacity="0.48"/>
<circle r="1.55725" transform="matrix(0 -1 -1 0 1.55725 59.6945)" fill="#C4C4C4" fill-opacity="0.48"/>
<circle r="1.55725" transform="matrix(0 -1 -1 0 134.443 51.3892)" fill="#C4C4C4" fill-opacity="0.48"/>
<circle r="1.55725" transform="matrix(0 -1 -1 0 126.137 51.3892)" fill="#C4C4C4" fill-opacity="0.48"/>
<circle r="1.55725" transform="matrix(0 -1 -1 0 117.832 51.3892)" fill="#C4C4C4" fill-opacity="0.48"/>
<circle r="1.55725" transform="matrix(0 -1 -1 0 109.527 51.3892)" fill="#C4C4C4" fill-opacity="0.48"/>
<circle r="1.55725" transform="matrix(0 -1 -1 0 101.221 51.3892)" fill="#C4C4C4" fill-opacity="0.48"/>
<circle r="1.55725" transform="matrix(0 -1 -1 0 92.9161 51.3892)" fill="#C4C4C4" fill-opacity="0.48"/>
<circle r="1.55725" transform="matrix(0 -1 -1 0 84.6107 51.3892)" fill="#C4C4C4" fill-opacity="0.48"/>
<circle r="1.55725" transform="matrix(0 -1 -1 0 76.3053 51.3892)" fill="#C4C4C4" fill-opacity="0.48"/>
<circle r="1.55725" transform="matrix(0 -1 -1 0 67.9999 51.3892)" fill="#C4C4C4" fill-opacity="0.48"/>
<circle r="1.55725" transform="matrix(0 -1 -1 0 59.6947 51.3892)" fill="#C4C4C4" fill-opacity="0.48"/>
<circle r="1.55725" transform="matrix(0 -1 -1 0 51.3893 51.3892)" fill="#C4C4C4" fill-opacity="0.48"/>
<circle r="1.55725" transform="matrix(0 -1 -1 0 43.0841 51.3892)" fill="#C4C4C4" fill-opacity="0.48"/>
<circle r="1.55725" transform="matrix(0 -1 -1 0 134.443 43.0839)" fill="#C4C4C4" fill-opacity="0.48"/>
<circle r="1.55725" transform="matrix(0 -1 -1 0 126.137 43.0839)" fill="#C4C4C4" fill-opacity="0.48"/>
<circle r="1.55725" transform="matrix(0 -1 -1 0 117.832 43.0839)" fill="#C4C4C4" fill-opacity="0.48"/>
<circle r="1.55725" transform="matrix(0 -1 -1 0 109.527 43.0839)" fill="#C4C4C4" fill-opacity="0.48"/>
<circle r="1.55725" transform="matrix(0 -1 -1 0 101.221 43.0839)" fill="#C4C4C4" fill-opacity="0.48"/>
<circle r="1.55725" transform="matrix(0 -1 -1 0 92.9161 43.0839)" fill="#C4C4C4" fill-opacity="0.48"/>
<circle r="1.55725" transform="matrix(0 -1 -1 0 84.6107 43.0839)" fill="#C4C4C4" fill-opacity="0.48"/>
<circle r="1.55725" transform="matrix(0 -1 -1 0 76.3053 43.0839)" fill="#C4C4C4" fill-opacity="0.48"/>
<circle r="1.55725" transform="matrix(0 -1 -1 0 67.9999 43.0839)" fill="#C4C4C4" fill-opacity="0.48"/>
<circle r="1.55725" transform="matrix(0 -1 -1 0 59.6947 43.0839)" fill="#C4C4C4" fill-opacity="0.48"/>
<circle r="1.55725" transform="matrix(0 -1 -1 0 51.3893 43.0839)" fill="#C4C4C4" fill-opacity="0.48"/>
<circle r="1.55725" transform="matrix(0 -1 -1 0 43.0841 43.0839)" fill="#C4C4C4" fill-opacity="0.48"/>
<circle r="1.55725" transform="matrix(0 -1 -1 0 134.443 34.7784)" fill="#C4C4C4" fill-opacity="0.48"/>
<circle r="1.55725" transform="matrix(0 -1 -1 0 126.137 34.7784)" fill="#C4C4C4" fill-opacity="0.48"/>
<circle r="1.55725" transform="matrix(0 -1 -1 0 117.832 34.7784)" fill="#C4C4C4" fill-opacity="0.48"/>
<circle r="1.55725" transform="matrix(0 -1 -1 0 109.527 34.7784)" fill="#C4C4C4" fill-opacity="0.48"/>
<circle r="1.55725" transform="matrix(0 -1 -1 0 101.221 34.7784)" fill="#C4C4C4" fill-opacity="0.48"/>
<circle r="1.55725" transform="matrix(0 -1 -1 0 92.9161 34.7784)" fill="#C4C4C4" fill-opacity="0.48"/>
<circle r="1.55725" transform="matrix(0 -1 -1 0 84.6107 34.7784)" fill="#C4C4C4" fill-opacity="0.48"/>
<circle r="1.55725" transform="matrix(0 -1 -1 0 76.3053 34.7784)" fill="#C4C4C4" fill-opacity="0.48"/>
<circle r="1.55725" transform="matrix(0 -1 -1 0 67.9999 34.7784)" fill="#C4C4C4" fill-opacity="0.48"/>
<circle r="1.55725" transform="matrix(0 -1 -1 0 59.6947 34.7784)" fill="#C4C4C4" fill-opacity="0.48"/>
<circle r="1.55725" transform="matrix(0 -1 -1 0 51.3893 34.7784)" fill="#C4C4C4" fill-opacity="0.48"/>
<circle r="1.55725" transform="matrix(0 -1 -1 0 43.0841 34.7784)" fill="#C4C4C4" fill-opacity="0.48"/>
<circle r="1.55725" transform="matrix(0 -1 -1 0 134.443 26.4731)" fill="#C4C4C4" fill-opacity="0.48"/>
<circle r="1.55725" transform="matrix(0 -1 -1 0 126.137 26.4731)" fill="#C4C4C4" fill-opacity="0.48"/>
<circle r="1.55725" transform="matrix(0 -1 -1 0 117.832 26.4731)" fill="#C4C4C4" fill-opacity="0.48"/>
<circle r="1.55725" transform="matrix(0 -1 -1 0 109.527 26.4731)" fill="#C4C4C4" fill-opacity="0.48"/>
<circle r="1.55725" transform="matrix(0 -1 -1 0 101.221 26.4731)" fill="#C4C4C4" fill-opacity="0.48"/>
<circle r="1.55725" transform="matrix(0 -1 -1 0 92.9161 26.4731)" fill="#C4C4C4" fill-opacity="0.48"/>
<circle r="1.55725" transform="matrix(0 -1 -1 0 84.6107 26.4731)" fill="#C4C4C4" fill-opacity="0.48"/>
<circle r="1.55725" transform="matrix(0 -1 -1 0 76.3053 26.4731)" fill="#C4C4C4" fill-opacity="0.48"/>
<circle r="1.55725" transform="matrix(0 -1 -1 0 67.9999 26.4731)" fill="#C4C4C4" fill-opacity="0.48"/>
<circle r="1.55725" transform="matrix(0 -1 -1 0 59.6947 26.4731)" fill="#C4C4C4" fill-opacity="0.48"/>
<circle r="1.55725" transform="matrix(0 -1 -1 0 51.3893 26.4731)" fill="#C4C4C4" fill-opacity="0.48"/>
<circle r="1.55725" transform="matrix(0 -1 -1 0 43.0841 26.4731)" fill="#C4C4C4" fill-opacity="0.48"/>
<circle r="1.55725" transform="matrix(0 -1 -1 0 134.443 18.1678)" fill="#C4C4C4" fill-opacity="0.48"/>
<circle r="1.55725" transform="matrix(0 -1 -1 0 126.137 18.1678)" fill="#C4C4C4" fill-opacity="0.48"/>
<circle r="1.55725" transform="matrix(0 -1 -1 0 117.832 18.1678)" fill="#C4C4C4" fill-opacity="0.48"/>
<circle r="1.55725" transform="matrix(0 -1 -1 0 109.527 18.1678)" fill="#C4C4C4" fill-opacity="0.48"/>
<circle r="1.55725" transform="matrix(0 -1 -1 0 101.221 18.1678)" fill="#C4C4C4" fill-opacity="0.48"/>
<circle r="1.55725" transform="matrix(0 -1 -1 0 92.9161 18.1678)" fill="#C4C4C4" fill-opacity="0.48"/>
<circle r="1.55725" transform="matrix(0 -1 -1 0 84.6107 18.1678)" fill="#C4C4C4" fill-opacity="0.48"/>
<circle r="1.55725" transform="matrix(0 -1 -1 0 76.3053 18.1678)" fill="#C4C4C4" fill-opacity="0.48"/>
<circle r="1.55725" transform="matrix(0 -1 -1 0 67.9999 18.1678)" fill="#C4C4C4" fill-opacity="0.48"/>
<circle r="1.55725" transform="matrix(0 -1 -1 0 59.6947 18.1678)" fill="#C4C4C4" fill-opacity="0.48"/>
<circle r="1.55725" transform="matrix(0 -1 -1 0 51.3893 18.1678)" fill="#C4C4C4" fill-opacity="0.48"/>
<circle r="1.55725" transform="matrix(0 -1 -1 0 43.0841 18.1678)" fill="#C4C4C4" fill-opacity="0.48"/>
<circle r="1.55725" transform="matrix(0 -1 -1 0 134.443 9.86243)" fill="#C4C4C4" fill-opacity="0.48"/>
<circle r="1.55725" transform="matrix(0 -1 -1 0 126.137 9.86243)" fill="#C4C4C4" fill-opacity="0.48"/>
<circle r="1.55725" transform="matrix(0 -1 -1 0 117.832 9.86243)" fill="#C4C4C4" fill-opacity="0.48"/>
<circle r="1.55725" transform="matrix(0 -1 -1 0 109.527 9.86243)" fill="#C4C4C4" fill-opacity="0.48"/>
<circle r="1.55725" transform="matrix(0 -1 -1 0 101.221 9.86243)" fill="#C4C4C4" fill-opacity="0.48"/>
<circle r="1.55725" transform="matrix(0 -1 -1 0 92.9161 9.86243)" fill="#C4C4C4" fill-opacity="0.48"/>
<circle r="1.55725" transform="matrix(0 -1 -1 0 84.6107 9.86243)" fill="#C4C4C4" fill-opacity="0.48"/>
<circle r="1.55725" transform="matrix(0 -1 -1 0 76.3053 9.86243)" fill="#C4C4C4" fill-opacity="0.48"/>
<circle r="1.55725" transform="matrix(0 -1 -1 0 67.9999 9.86243)" fill="#C4C4C4" fill-opacity="0.48"/>
<circle r="1.55725" transform="matrix(0 -1 -1 0 59.6947 9.86243)" fill="#C4C4C4" fill-opacity="0.48"/>
<circle r="1.55725" transform="matrix(0 -1 -1 0 51.3893 9.86243)" fill="#C4C4C4" fill-opacity="0.48"/>
<circle r="1.55725" transform="matrix(0 -1 -1 0 43.0841 9.86243)" fill="#C4C4C4" fill-opacity="0.48"/>
<circle r="1.55725" transform="matrix(0 -1 -1 0 134.443 1.55713)" fill="#C4C4C4" fill-opacity="0.48"/>
<circle r="1.55725" transform="matrix(0 -1 -1 0 126.137 1.55713)" fill="#C4C4C4" fill-opacity="0.48"/>
<circle r="1.55725" transform="matrix(0 -1 -1 0 117.832 1.55713)" fill="#C4C4C4" fill-opacity="0.48"/>
<circle r="1.55725" transform="matrix(0 -1 -1 0 109.527 1.55713)" fill="#C4C4C4" fill-opacity="0.48"/>
<circle r="1.55725" transform="matrix(0 -1 -1 0 101.221 1.55713)" fill="#C4C4C4" fill-opacity="0.48"/>
<circle r="1.55725" transform="matrix(0 -1 -1 0 92.9161 1.55713)" fill="#C4C4C4" fill-opacity="0.48"/>
<circle r="1.55725" transform="matrix(0 -1 -1 0 84.6107 1.55713)" fill="#C4C4C4" fill-opacity="0.48"/>
<circle r="1.55725" transform="matrix(0 -1 -1 0 76.3053 1.55713)" fill="#C4C4C4" fill-opacity="0.48"/>
<circle r="1.55725" transform="matrix(0 -1 -1 0 67.9999 1.55713)" fill="#C4C4C4" fill-opacity="0.48"/>
<circle r="1.55725" transform="matrix(0 -1 -1 0 59.6947 1.55713)" fill="#C4C4C4" fill-opacity="0.48"/>
<circle r="1.55725" transform="matrix(0 -1 -1 0 51.3893 1.55713)" fill="#C4C4C4" fill-opacity="0.48"/>
<circle r="1.55725" transform="matrix(0 -1 -1 0 43.0841 1.55713)" fill="#C4C4C4" fill-opacity="0.48"/>
<path d="M134.398 110.523C134.583 110.347 134.829 110.25 135.084 110.252C135.339 110.254 135.584 110.355 135.766 110.533C135.948 110.712 136.054 110.955 136.061 111.21C136.068 111.465 135.975 111.713 135.802 111.901L130.565 118.451C130.475 118.548 130.367 118.625 130.246 118.679C130.125 118.734 129.995 118.763 129.862 118.765C129.73 118.768 129.599 118.743 129.476 118.694C129.353 118.644 129.242 118.57 129.148 118.477L125.675 115.004C125.578 114.914 125.501 114.805 125.447 114.684C125.393 114.564 125.364 114.433 125.362 114.301C125.36 114.169 125.384 114.038 125.433 113.915C125.483 113.793 125.557 113.681 125.65 113.588C125.744 113.494 125.855 113.421 125.978 113.371C126.1 113.322 126.231 113.297 126.364 113.3C126.496 113.302 126.626 113.331 126.747 113.385C126.868 113.438 126.976 113.516 127.066 113.613L129.815 116.36L134.373 110.552C134.381 110.542 134.39 110.532 134.399 110.523H134.398Z" fill="#5F98ED"/>
</svg>
