<?xml version="1.0" encoding="utf-8"?>
<!-- Generator: Adobe Illustrator 25.2.1, SVG Export Plug-In . SVG Version: 6.00 Build 0)  -->
<svg version="1.1" id="Слой_1" xmlns="http://www.w3.org/2000/svg" xmlns:xlink="http://www.w3.org/1999/xlink" x="0px" y="0px"
	 viewBox="0 0 20.2 20.1" style="enable-background:new 0 0 20.2 20.1;" xml:space="preserve">
<style type="text/css">
	.st0{fill:#AD9A60;}
</style>
<path class="st0" d="M4.1,1.4C4.1,1.4,4.1,1.4,4.1,1.4C4.1,1.4,4.1,1.4,4.1,1.4L4.1,1.4z M4.1,1.4C4.1,1.4,4.1,1.4,4.1,1.4
	C4.1,1.4,4.1,1.4,4.1,1.4L4.1,1.4z M4.1,1.4C4.1,1.4,4.1,1.4,4.1,1.4C4.1,1.4,4.1,1.4,4.1,1.4L4.1,1.4z M4.2,1.4
	C4.2,1.4,4.2,1.4,4.2,1.4C4.2,1.4,4.2,1.4,4.2,1.4L4.2,1.4z M4.2,1.4C4.2,1.4,4.2,1.4,4.2,1.4C4.2,1.4,4.2,1.4,4.2,1.4L4.2,1.4z
	 M4.2,1.4c-1.8,0-3.3,1.5-3.3,3.3c0,0,0,0,0,0c0,0,0,0,0,0c0.1,8,6.6,14.5,14.6,14.5c1.8,0,3.3-1.5,3.3-3.3c0-0.3,0-0.5-0.1-0.8
	c0-0.1,0-0.2-0.1-0.3L13,13.8c-0.4,0.4-0.6,0.9-0.8,1.5c0,0.1-0.1,0.2-0.2,0.3c-0.1,0.1-0.2,0.1-0.3,0c-3.2-1.1-5.9-3.7-7-7
	c0-0.1,0-0.2,0-0.4C4.7,8.1,4.8,8,4.9,8c0.5-0.1,1-0.4,1.5-0.7L5.2,1.6c-0.1,0-0.2,0-0.2-0.1C4.7,1.5,4.5,1.4,4.2,1.4
	C4.2,1.5,4.2,1.5,4.2,1.4L4.2,1.4z M15.4,20.1C7,20.1,0.1,13.3,0,4.8c0,0,0,0,0-0.1c0,0,0,0,0,0c0-2.3,1.9-4.1,4.2-4.1c0,0,0,0,0,0
	c0,0,0,0,0,0c0.3,0,0.6,0,0.9,0.1c0.2,0,0.4,0.1,0.6,0.2C5.8,0.9,5.9,1,5.9,1.2l1.4,6.1c0,0.1,0,0.3-0.1,0.4c-0.4,0.5-1,0.8-1.6,1
	c1.1,2.7,3.2,4.8,5.9,5.9c0.2-0.6,0.6-1.1,1-1.6c0.1-0.1,0.2-0.1,0.4-0.1l6.1,1.3c0.1,0,0.3,0.1,0.3,0.3c0.1,0.2,0.1,0.4,0.2,0.6
	c0.1,0.3,0.1,0.6,0.1,0.9C19.6,18.3,17.7,20.1,15.4,20.1L15.4,20.1z"/>
<path class="st0" d="M15,9.6h-0.9c0-1.3-0.7-2.4-1.8-3.1l0.4-0.7C14.1,6.6,15,8,15,9.6L15,9.6z"/>
<path class="st0" d="M11.6,6.2c-0.3-0.1-0.6-0.1-1-0.1V5.2c0.4,0,0.8,0.1,1.2,0.2L11.6,6.2L11.6,6.2z"/>
<path class="st0" d="M20.2,8.7h-0.9c0-0.8-0.1-1.6-0.4-2.4L19.8,6C20,6.9,20.2,7.8,20.2,8.7L20.2,8.7z"/>
<path class="st0" d="M18.6,5.4c-1.3-2.8-4.1-4.6-7.1-4.6V0c3.4,0,6.5,2,7.9,5.1L18.6,5.4L18.6,5.4z"/>
</svg>
