<?xml version="1.0" encoding="utf-8"?>
<!-- Generator: Adobe Illustrator 25.2.1, SVG Export Plug-In . SVG Version: 6.00 Build 0)  -->
<svg version="1.1" id="Слой_1" xmlns="http://www.w3.org/2000/svg" xmlns:xlink="http://www.w3.org/1999/xlink" x="0px" y="0px"
	 viewBox="0 0 15.2 22.7" style="enable-background:new 0 0 15.2 22.7;" xml:space="preserve">
<style type="text/css">
	.st0{fill:#AD9A60;}
</style>
<g>
	<path class="st0" d="M7.6,0.9c-3.7,0-6.8,3-6.8,6.8c0,2.6,3.4,9,6.7,14.2c0,0,0.1,0.1,0.1,0.1c0,0,0.1,0,0.1-0.1
		c3.2-5.2,6.7-11.6,6.7-14.2C14.4,3.9,11.4,0.9,7.6,0.9L7.6,0.9z M7.6,22.7c-0.3,0-0.6-0.2-0.8-0.5C4.8,19,0,11,0,7.6
		C0,3.4,3.4,0,7.6,0c4.2,0,7.6,3.4,7.6,7.6c0,3.4-4.8,11.4-6.8,14.7C8.3,22.6,8,22.7,7.6,22.7L7.6,22.7z"/>
	<path class="st0" d="M7.6,9.4C6,9.4,4.7,8.1,4.7,6.6C4.7,5,6,3.7,7.6,3.7c1.6,0,2.9,1.3,2.9,2.9H9.6c0-1.1-0.9-2-2-2
		c-1.1,0-2,0.9-2,2s0.9,2,2,2V9.4L7.6,9.4z"/>
</g>
</svg>
