<?xml version="1.0" encoding="utf-8"?>
<!-- Generator: Adobe Illustrator 25.2.1, SVG Export Plug-In . SVG Version: 6.00 Build 0)  -->
<svg version="1.1" id="Слой_1" xmlns="http://www.w3.org/2000/svg" xmlns:xlink="http://www.w3.org/1999/xlink" x="0px" y="0px"
	 viewBox="0 0 24.9 15.2" style="enable-background:new 0 0 24.9 15.2;" xml:space="preserve">
<style type="text/css">
	.st0{fill-rule:evenodd;clip-rule:evenodd;fill:none;stroke:#AD9A60;stroke-miterlimit:10;}
</style>
<path id="Logo" class="st0" d="M23.8,1.5c0.2-0.6,0-1-0.8-1h-2.6c-0.7,0-1,0.4-1.1,0.7c0,0-1.3,3.2-3.2,5.3
	c-0.6,0.6-0.9,0.8-1.2,0.8c-0.2,0-0.4-0.2-0.4-0.7V1.5c0-0.7-0.2-1-0.7-1H9.6c-0.4,0-0.7,0.3-0.7,0.6c0,0.6,0.9,0.8,1,2.5v3.8
	c0,0.8-0.1,1-0.5,1c-0.9,0-3-3.2-4.3-7c-0.3-0.7-0.5-1-1.2-1H1.4c-0.7,0-0.9,0.4-0.9,0.7c0,0.7,0.9,4.1,4.1,8.7
	c2.2,3.1,5.2,4.8,8,4.8c1.7,0,1.9-0.4,1.9-1v-2.3c0-0.7,0.1-0.9,0.7-0.9c0.4,0,1,0.2,2.6,1.7c1.8,1.8,2.1,2.6,3.1,2.6h2.6
	c0.7,0,1.1-0.4,0.9-1.1c-0.2-0.7-1.1-1.8-2.2-3.1c-0.6-0.7-1.5-1.5-1.8-1.9c-0.4-0.5-0.3-0.7,0-1.2C20.3,7.5,23.5,3,23.8,1.5
	L23.8,1.5z"/>
</svg>
