<?xml version="1.0" encoding="utf-8"?>
<!-- Generator: Adobe Illustrator 25.2.0, SVG Export Plug-In . SVG Version: 6.00 Build 0)  -->
<svg version="1.1" id="Слой_1" xmlns="http://www.w3.org/2000/svg" xmlns:xlink="http://www.w3.org/1999/xlink" x="0px" y="0px"
	 viewBox="0 0 282.7 287.7" style="enable-background:new 0 0 282.7 287.7;" xml:space="preserve">
<style type="text/css">
	.st0{fill:#05A0C4;}
	.st1{fill:#DBDBDB;}
</style>
<g>
	<path class="st0" d="M0,287.7v-6.5h1.7c1-1.6,1.5-4.1,1.6-7.5l0.1-2.6h11.1v10.1h2.2v6.5h-3.5v-3.4H3.6v3.4H0z M10.8,281.2v-7H6.7
		c0,2.8-0.4,5.1-1.2,7H10.8z"/>
	<path class="st0" d="M31.1,282.7c-1.4-1.3-2.1-3-2.1-5.1c0-2,0.6-3.6,1.9-4.9c1.3-1.4,2.9-2,5-2c1.9,0,3.5,0.7,4.6,2
		c1.1,1.4,1.7,3,1.7,5v1h-9.5c0.4,1.8,2.1,2.8,4.4,2.8c1.5,0,2.9-0.4,4.2-1.2v3c-1.2,0.9-2.9,1.4-5,1.4
		C34.3,284.6,32.5,284,31.1,282.7 M38.5,276.3c-0.1-1.5-1.1-2.7-2.8-2.7c-1.7,0-2.8,1.1-3,2.7H38.5z"/>
	<path class="st0" d="M55.7,284.3V271h7.5c2.8,0,4.2,1.5,4.2,3.4c0,1.3-0.5,2.3-1.6,2.8c1.7,0.6,2.5,1.7,2.5,3.4
		c0,2.2-1.8,3.6-4.8,3.6H55.7z M59.4,276.3H62c1.2,0,1.8-0.5,1.8-1.4c0-0.9-0.6-1.4-1.8-1.4h-2.6V276.3z M59.4,281.7h3.2
		c1.3,0,1.9-0.5,1.9-1.5c0-1-0.6-1.5-1.9-1.5h-3.2V281.7z"/>
	<path class="st0" d="M83.1,282.7c-1.4-1.3-2.1-3-2.1-5.1c0-2,0.6-3.6,1.9-4.9c1.3-1.4,2.9-2,5-2c1.9,0,3.5,0.7,4.6,2
		c1.1,1.4,1.7,3,1.7,5v1h-9.5c0.4,1.8,2.1,2.8,4.4,2.8c1.5,0,2.9-0.4,4.2-1.2v3c-1.2,0.9-2.9,1.4-5,1.4
		C86.3,284.6,84.5,284,83.1,282.7 M90.5,276.3c-0.1-1.5-1.1-2.7-2.8-2.7c-1.7,0-2.8,1.1-3,2.7H90.5z"/>
	<path class="st0" d="M113,274.2L113,276c-0.1,1.8-0.2,3.1-0.6,4.6c-0.6,2.2-1.9,3.6-4.5,3.7c-0.6,0-1.1-0.1-1.4-0.2v-3.1
		c0.2,0.1,0.5,0.1,0.8,0.1c0.9,0,1.4-0.5,1.7-1.7c0.3-1.2,0.4-2.4,0.4-4.6l0.1-3.9h11.4v13.2h-3.7v-10.1H113z"/>
	<path class="st0" d="M136.3,272.7c1.4-1.4,3.1-2,5.3-2c2.1,0,3.9,0.7,5.3,2c1.4,1.4,2.1,3,2.1,4.9c0,2-0.7,3.6-2.1,5
		c-1.4,1.3-3.1,2-5.3,2c-2.2,0-3.9-0.7-5.3-2c-1.4-1.4-2.1-3-2.1-5C134.3,275.7,134.9,274,136.3,272.7 M141.6,281.4
		c1.1,0,1.9-0.3,2.6-1.1c0.7-0.7,1-1.6,1-2.7c0-1.1-0.3-1.9-1-2.6c-0.7-0.7-1.6-1.1-2.6-1.1c-1.1,0-1.9,0.3-2.6,1.1
		c-0.7,0.7-1,1.6-1,2.6c0,1.1,0.3,1.9,1,2.7C139.7,281,140.5,281.4,141.6,281.4"/>
	<polygon class="st0" points="162.3,284.3 162.3,271 175.1,271 175.1,284.3 171.4,284.3 171.4,274.2 166.1,274.2 166.1,284.3 	"/>
	<polygon class="st0" points="189.4,284.3 189.4,271 193.1,271 196.9,276 200.8,271 204.5,271 204.5,284.3 201,284.3 201,276.1 
		197.7,280.2 196.2,280.2 192.9,276.1 192.9,284.3 	"/>
	<path class="st0" d="M220,282.7c-1.4-1.3-2.1-3-2.1-5.1c0-2,0.6-3.6,1.9-4.9c1.3-1.4,2.9-2,5-2c1.9,0,3.5,0.7,4.6,2
		c1.1,1.4,1.7,3,1.7,5v1h-9.5c0.4,1.8,2.1,2.8,4.4,2.8c1.5,0,2.9-0.4,4.2-1.2v3c-1.2,0.9-2.9,1.4-5,1.4
		C223.2,284.6,221.5,284,220,282.7 M227.5,276.3c-0.1-1.5-1.1-2.7-2.8-2.7c-1.7,0-2.8,1.1-3,2.7H227.5z"/>
	<polygon class="st0" points="244.6,284.3 244.6,271 248.4,271 248.4,276 253.8,276 253.8,271 257.6,271 257.6,284.3 253.8,284.3 
		253.8,279.1 248.4,279.1 248.4,284.3 	"/>
	<polygon class="st0" points="274.6,284.3 274.6,274.2 270.4,274.2 270.4,271 282.5,271 282.5,274.2 278.3,274.2 278.3,284.3 	"/>
	<polygon class="st1" points="0.8,256.7 0.8,223.6 28.5,223.6 28.5,256.7 21.7,256.7 21.7,229.7 7.6,229.7 7.6,256.7 	"/>
	<path class="st1" d="M42.4,256.7l14.2-33.3h6.5l14.2,33.3H70l-3.3-7.7h-14l-3.3,7.7H42.4z M54.9,243.4h9.7l-4.8-11.5L54.9,243.4z"
		/>
	<path class="st1" d="M91.1,256.7v-33.1h14.5c3.5,0,6.4,0.9,8.4,2.8c2.1,1.8,3.1,4.2,3.1,7.2s-1,5.4-3.1,7.2c-2,1.8-4.9,2.8-8.4,2.8
		h-7.7v13.1H91.1z M97.9,237.8h7.2c3.3,0,5.2-1.5,5.2-4.1c0-2.6-1.9-4.1-5.2-4.1h-7.2V237.8z"/>
	<polygon class="st1" points="129.5,223.6 157.2,223.6 157.2,229.7 146.7,229.7 146.7,256.7 139.9,256.7 139.9,229.7 129.5,229.7 	
		"/>
	<polygon class="st1" points="171.7,256.7 171.7,223.6 178.5,223.6 178.5,236 193.4,236 193.4,223.6 200.2,223.6 200.2,256.7 
		193.4,256.7 193.4,242.2 178.5,242.2 178.5,256.7 	"/>
	<polygon class="st1" points="217,256.7 217,223.6 241.3,223.6 241.3,229.7 223.8,229.7 223.8,236.1 237.9,236.1 237.9,242.1 
		223.8,242.1 223.8,250.6 241.8,250.6 241.8,256.7 	"/>
	<path class="st1" d="M256.7,256.7v-33.1h14.5c3.5,0,6.4,0.9,8.4,2.8c2.1,1.8,3.1,4.2,3.1,7.2s-1,5.4-3.1,7.2
		c-2,1.8-4.9,2.8-8.4,2.8h-7.7v13.1H256.7z M263.5,237.8h7.2c3.3,0,5.2-1.5,5.2-4.1c0-2.6-1.9-4.1-5.2-4.1h-7.2V237.8z"/>
	<path class="st1" d="M44.1,132.2c0,27.8,11.5,53,30,71.1v-14.8c-12.5-15.4-20-35-20-56.3c0-48,38-87.3,85.5-89.3v-10
		C86.5,34.9,44.1,78.7,44.1,132.2"/>
	<path class="st0" d="M212.8,61v14.8c12.6,15.4,20.1,35.1,20.1,56.4c0,21.7-7.8,41.7-20.7,57.2h12.6c11.4-16.2,18.2-35.9,18.2-57.2
		C242.9,104.3,231.3,79.1,212.8,61"/>
	<path class="st0" d="M207.7,196h-2v-3.9V52.6L180.4,29v167h-7.8V23.6L147.4,0v196v7.6h49.8c0,0,0,0,0,0h15.3c2.5-2.4,4.9-5,7.1-7.6
		H207.7z"/>
	<polygon class="st1" points="106.5,94.8 81.3,118.4 81.3,203.6 106.5,203.6 	"/>
	<polygon class="st1" points="114.3,87.9 114.3,203.6 139.6,203.6 139.6,196 139.6,64.2 	"/>
</g>
</svg>
