<?xml version="1.0" encoding="utf-8"?>
<!-- Generator: Adobe Illustrator 25.2.0, SVG Export Plug-In . SVG Version: 6.00 Build 0)  -->
<svg version="1.1" id="Слой_1" xmlns="http://www.w3.org/2000/svg" xmlns:xlink="http://www.w3.org/1999/xlink" x="0px" y="0px"
	 viewBox="0 0 396.5 80.9" style="enable-background:new 0 0 396.5 80.9;" xml:space="preserve">
<style type="text/css">
	.st0{fill:#05A0C4;}
	.st1{fill:#FFFFFF;}
</style>
<g>
	<path class="st0" d="M96,80.9V74h1.8c1.1-1.7,1.6-4.3,1.7-8l0.1-2.7h11.9V74h2.3v6.9H110v-3.6H99.8v3.6H96z M107.5,74v-7.4h-4.4
		c0,2.9-0.4,5.4-1.2,7.4H107.5z"/>
	<path class="st0" d="M129.1,75.7c-1.5-1.4-2.3-3.2-2.3-5.4c0-2.1,0.7-3.8,2-5.2c1.4-1.4,3.1-2.1,5.3-2.1c2.1,0,3.7,0.7,4.9,2.2
		c1.2,1.4,1.8,3.2,1.8,5.3v1h-10.1c0.4,1.9,2.2,2.9,4.7,2.9c1.6,0,3.1-0.4,4.5-1.2v3.2c-1.3,1-3,1.4-5.4,1.4
		C132.5,77.7,130.6,77,129.1,75.7 M137,68.9c-0.1-1.6-1.2-2.8-3-2.8c-1.8,0-3,1.2-3.2,2.8H137z"/>
	<path class="st0" d="M155.2,77.4V63.3h8c2.9,0,4.5,1.6,4.5,3.6c0,1.4-0.6,2.4-1.7,3c1.8,0.6,2.7,1.8,2.7,3.6c0,2.4-1.9,3.9-5.1,3.9
		H155.2z M159.2,68.9h2.8c1.3,0,1.9-0.5,1.9-1.4c0-1-0.6-1.4-1.9-1.4h-2.8V68.9z M159.2,74.6h3.4c1.4,0,2.1-0.5,2.1-1.6
		c0-1-0.7-1.6-2.1-1.6h-3.4V74.6z"/>
	<path class="st0" d="M184.4,75.7c-1.5-1.4-2.3-3.2-2.3-5.4c0-2.1,0.7-3.8,2-5.2c1.4-1.4,3.1-2.1,5.3-2.1c2.1,0,3.7,0.7,4.9,2.2
		c1.2,1.4,1.8,3.2,1.8,5.3v1h-10.1c0.4,1.9,2.2,2.9,4.7,2.9c1.6,0,3.1-0.4,4.5-1.2v3.2c-1.3,1-3,1.4-5.4,1.4
		C187.7,77.7,185.9,77,184.4,75.7 M192.2,68.9c-0.1-1.6-1.2-2.8-3-2.8c-1.8,0-3,1.2-3.2,2.8H192.2z"/>
	<path class="st0" d="M216.1,66.6l-0.1,2c-0.1,1.9-0.2,3.2-0.6,4.9c-0.7,2.4-2,3.9-4.8,3.9c-0.7,0-1.2-0.1-1.5-0.3V74
		c0.2,0.1,0.5,0.1,0.8,0.1c0.9,0,1.5-0.5,1.8-1.8c0.3-1.3,0.4-2.5,0.5-4.9l0.1-4.1h12.2v14.1h-4V66.6H216.1z"/>
	<path class="st0" d="M240.9,65.1c1.5-1.4,3.3-2.1,5.6-2.1c2.3,0,4.1,0.7,5.6,2.1c1.5,1.4,2.2,3.2,2.2,5.2c0,2.1-0.7,3.9-2.2,5.3
		c-1.5,1.4-3.3,2.1-5.6,2.1c-2.3,0-4.1-0.7-5.6-2.1c-1.5-1.4-2.2-3.2-2.2-5.3C238.7,68.2,239.5,66.5,240.9,65.1 M246.5,74.3
		c1.1,0,2.1-0.4,2.8-1.1c0.7-0.8,1.1-1.7,1.1-2.8s-0.4-2.1-1.1-2.8c-0.7-0.8-1.7-1.1-2.8-1.1c-1.1,0-2.1,0.4-2.8,1.1
		c-0.7,0.7-1.1,1.7-1.1,2.8s0.4,2.1,1.1,2.8C244.5,73.9,245.4,74.3,246.5,74.3"/>
	<polygon class="st0" points="268.6,77.4 268.6,63.3 282.2,63.3 282.2,77.4 278.2,77.4 278.2,66.6 272.6,66.6 272.6,77.4 	"/>
	<polygon class="st0" points="297.3,77.4 297.3,63.3 301.3,63.3 305.4,68.5 309.5,63.3 313.4,63.3 313.4,77.4 309.6,77.4 
		309.6,68.7 306.1,73 304.6,73 301.1,68.7 301.1,77.4 	"/>
	<path class="st0" d="M329.9,75.7c-1.5-1.4-2.3-3.2-2.3-5.4c0-2.1,0.7-3.8,2-5.2c1.4-1.4,3.1-2.1,5.3-2.1c2.1,0,3.7,0.7,4.9,2.2
		c1.2,1.4,1.8,3.2,1.8,5.3v1h-10.1c0.4,1.9,2.2,2.9,4.7,2.9c1.6,0,3.1-0.4,4.5-1.2v3.2c-1.3,1-3,1.4-5.4,1.4
		C333.3,77.7,331.4,77,329.9,75.7 M337.8,68.9c-0.1-1.6-1.2-2.8-3-2.8c-1.8,0-3,1.2-3.2,2.8H337.8z"/>
	<polygon class="st0" points="356,77.4 356,63.3 360,63.3 360,68.5 365.8,68.5 365.8,63.3 369.8,63.3 369.8,77.4 365.8,77.4 
		365.8,71.8 360,71.8 360,77.4 	"/>
	<polygon class="st0" points="387.9,77.4 387.9,66.6 383.5,66.6 383.5,63.3 396.3,63.3 396.3,66.6 391.8,66.6 391.8,77.4 	"/>
	<polygon class="st1" points="96.8,48 96.8,12.8 126.3,12.8 126.3,48 119.1,48 119.1,19.3 104.1,19.3 104.1,48 	"/>
	<path class="st1" d="M141.1,48l15.1-35.4h6.9L178.1,48h-7.7l-3.5-8.1h-14.9l-3.5,8.1H141.1z M154.4,33.9h10.3l-5.1-12.2L154.4,33.9
		z"/>
	<path class="st1" d="M192.8,48V12.8h15.4c3.8,0,6.8,1,8.9,3c2.2,2,3.3,4.5,3.3,7.6c0,3.2-1.1,5.7-3.3,7.7c-2.2,2-5.2,3-8.9,3h-8.1
		V48H192.8z M200.1,27.9h7.6c3.5,0,5.5-1.6,5.5-4.4c0-2.8-2.1-4.4-5.5-4.4h-7.6V27.9z"/>
	<polygon class="st1" points="233.6,12.8 263.1,12.8 263.1,19.3 252,19.3 252,48 244.7,48 244.7,19.3 233.6,19.3 	"/>
	<polygon class="st1" points="278.5,48 278.5,12.8 285.8,12.8 285.8,26 301.6,26 301.6,12.8 308.8,12.8 308.8,48 301.6,48 
		301.6,32.6 285.8,32.6 285.8,48 	"/>
	<polygon class="st1" points="326.6,48 326.6,12.8 352.5,12.8 352.5,19.3 333.9,19.3 333.9,26.1 348.8,26.1 348.8,32.5 333.9,32.5 
		333.9,41.5 353,41.5 353,48 	"/>
	<path class="st1" d="M368.8,48V12.8h15.4c3.8,0,6.8,1,8.9,3c2.2,2,3.3,4.5,3.3,7.6c0,3.2-1.1,5.7-3.3,7.7c-2.2,2-5.2,3-8.9,3h-8.1
		V48H368.8z M376.1,27.9h7.6c3.5,0,5.5-1.6,5.5-4.4c0-2.8-2.1-4.4-5.5-4.4h-7.6V27.9z"/>
	<path class="st1" d="M0,50.3c0,10.6,4.4,20.2,11.4,27v-5.6c-4.8-5.8-7.6-13.3-7.6-21.4c0-18.3,14.5-33.2,32.5-34v-3.8
		C16.2,13.3,0,29.9,0,50.3"/>
	<path class="st0" d="M64.2,23.2v5.6c4.8,5.9,7.6,13.3,7.6,21.5c0,8.3-3,15.9-7.9,21.8h4.8c4.3-6.2,6.9-13.7,6.9-21.8
		C75.6,39.7,71.2,30.1,64.2,23.2"/>
	<path class="st0" d="M62.3,74.6h-0.8v-1.5V20l-9.6-9v63.5h-3V9l-9.6-9v74.6v2.9h19c0,0,0,0,0,0h5.8c0.9-0.9,1.8-1.9,2.7-2.9H62.3z"
		/>
	<polygon class="st1" points="23.8,36.1 14.2,45.1 14.2,77.4 23.8,77.4 	"/>
	<polygon class="st1" points="26.7,33.4 26.7,77.4 36.3,77.4 36.3,74.6 36.3,24.4 	"/>
</g>
</svg>
