<?xml version="1.0" encoding="utf-8"?>
<!-- Generator: Adobe Illustrator 25.2.0, SVG Export Plug-In . SVG Version: 6.00 Build 0)  -->
<svg version="1.1" id="Слой_1" xmlns="http://www.w3.org/2000/svg" xmlns:xlink="http://www.w3.org/1999/xlink" x="0px" y="0px"
	 viewBox="0 0 198.8 203.6" style="enable-background:new 0 0 198.8 203.6;" xml:space="preserve">
<style type="text/css">
	.st0{fill:#1e3649;}
</style>
<path class="st0" d="M0,132.2c0,27.8,11.5,53,30,71.1v-14.8c-12.5-15.4-20-35-20-56.3c0-48,38-87.3,85.5-89.3v-10
	C42.5,34.9,0,78.7,0,132.2"/>
<path class="st0" d="M168.7,61v14.8c12.6,15.4,20.1,35.1,20.1,56.4c0,21.7-7.8,41.7-20.7,57.2h12.6c11.4-16.2,18.2-35.9,18.2-57.2
	C198.8,104.3,187.3,79.1,168.7,61"/>
<path class="st0" d="M163.6,196h-2v-3.9V52.6L136.4,29v167h-7.8V23.6L103.4,0v196v7.6h49.8c0,0,0,0,0,0h15.3c2.5-2.4,4.9-5,7.1-7.6
	H163.6z"/>
<polygon class="st0" points="62.5,94.8 37.2,118.4 37.2,203.6 62.5,203.6 "/>
<polygon class="st0" points="70.2,87.9 70.2,203.6 95.5,203.6 95.5,196 95.5,64.2 "/>
</svg>
