<svg width="464" height="392" viewBox="0 0 464 392" fill="none" xmlns="http://www.w3.org/2000/svg">
<path d="M3.24997 322.575L140.986 243.056C144.539 241.007 144.542 237.679 140.986 235.626L138.698 234.299C135.144 232.253 135.146 228.929 138.698 226.874L199.211 191.945C202.765 189.896 208.528 189.892 212.073 191.945L214.365 193.276C217.919 195.323 223.677 195.32 227.226 193.276C230.785 191.223 236.541 191.227 240.088 193.276L248.815 198.312L322.795 240.861C326.344 242.912 326.338 246.235 322.795 248.289L98.8028 377.583C95.2377 379.634 89.4862 379.639 85.9302 377.583L11.9573 335.03L3.22739 329.999C-0.315094 327.954 -0.310577 324.629 3.24997 322.575Z" fill="url(#paint0_linear)"/>
<path d="M114.782 234.402V233.273C114.773 233.18 114.739 233.091 114.685 233.016C114.63 232.94 114.556 232.881 114.47 232.843L109.793 230.155C109.562 230.036 109.305 229.974 109.045 229.974C108.784 229.974 108.528 230.036 108.296 230.155L106.097 231.42C106.012 231.458 105.939 231.518 105.885 231.593C105.831 231.668 105.799 231.757 105.791 231.849V232.928C105.784 233.026 105.808 233.124 105.86 233.208C105.912 233.292 105.989 233.358 106.08 233.397L110.757 236.091C110.989 236.208 111.245 236.269 111.505 236.269C111.765 236.269 112.022 236.208 112.254 236.091L114.47 234.854C114.555 234.812 114.628 234.75 114.682 234.673C114.737 234.596 114.771 234.507 114.782 234.413V234.402Z" fill="white"/>
<path d="M111.566 237.168C111.969 237.169 112.366 237.068 112.719 236.874L114.955 235.582C115.168 235.472 115.348 235.307 115.475 235.104C115.603 234.901 115.674 234.668 115.681 234.428V233.274C115.675 233.035 115.604 232.801 115.476 232.598C115.348 232.395 115.168 232.23 114.955 232.121L110.2 229.37C109.84 229.176 109.437 229.075 109.027 229.075C108.618 229.075 108.215 229.176 107.855 229.37L105.618 230.667C105.404 230.775 105.223 230.94 105.095 231.143C104.967 231.346 104.897 231.581 104.892 231.821V232.923C104.889 232.978 104.889 233.034 104.892 233.09C104.918 233.308 104.997 233.516 105.122 233.697C105.246 233.878 105.413 234.026 105.607 234.128L110.362 236.874C110.73 237.077 111.146 237.178 111.566 237.168ZM114.05 234.203L111.912 235.437C111.803 235.484 111.685 235.509 111.566 235.509C111.447 235.509 111.33 235.484 111.22 235.437L106.569 232.75V232.04L108.702 230.806C108.812 230.759 108.931 230.734 109.05 230.734C109.17 230.734 109.289 230.759 109.399 230.806L114.05 233.494V234.203Z" fill="#93D0FF"/>
<path d="M376.469 54.0991V211.776C376.469 219.787 370.842 229.528 363.909 233.539L106.872 382.033C103.432 384.018 100.317 384.221 98.0488 382.95L87.9256 377.099C85.6051 375.793 84.207 372.977 84.207 368.972V211.277C84.207 203.272 89.8342 193.531 96.7725 189.514L353.821 41.0435C357.36 38.9943 360.55 38.8492 362.836 40.254L372.814 45.9662C375.065 47.2782 376.469 50.0936 376.469 54.0991Z" fill="white"/>
<path d="M84.207 368.864V211.227C84.207 203.224 89.8355 193.486 96.7753 189.47L353.874 41.043C357.414 38.9944 360.605 38.8494 362.891 40.2538L372.872 45.9643C370.597 44.6527 367.452 44.8442 363.988 46.8522L106.872 195.297C99.9377 199.312 94.3034 209.051 94.2976 217.059V374.69C94.2976 378.753 95.7367 381.556 98.0518 382.85L87.9265 377C85.6461 375.7 84.207 372.885 84.207 368.864Z" fill="#CEE7FD"/>
<path d="M101.185 384.648C103.322 384.574 105.403 383.941 107.221 382.813L364.384 234.278C371.541 230.138 377.368 220.046 377.368 211.789V54.0683C377.368 49.8817 375.917 46.7345 373.276 45.2131L363.322 39.4645C363.281 39.4376 363.236 39.4161 363.189 39.4006C360.542 37.8561 357.094 38.1638 353.461 40.2658L96.2916 188.795C89.1293 192.947 83.3077 203.039 83.3077 211.29V369.017C83.3077 373.186 84.7588 376.321 87.3706 377.848L87.4345 377.889L97.5569 383.736L97.673 383.794C98.7545 384.366 99.9613 384.66 101.185 384.648ZM362.614 41.0091L372.429 46.6764C374.536 47.8958 375.697 50.5262 375.691 54.0915V211.812C375.691 219.541 370.241 228.983 363.537 232.862L106.373 381.396C103.315 383.138 100.471 383.481 98.3695 382.308L98.2824 382.262L88.3109 376.507L88.2471 376.461C86.1169 375.253 84.9503 372.617 84.9445 369.04V211.29C84.9445 203.567 90.3946 194.125 97.0984 190.241L354.297 41.7117C357.448 39.8884 360.35 39.6039 362.469 40.9046C362.514 40.9434 362.563 40.9784 362.614 41.0091Z" fill="#93D0FF"/>
<path d="M352.189 85.5354V99.5498L339.122 107.071C339.38 100.545 340.42 94.0737 342.221 87.7946L349.159 83.8104C350.831 82.8405 352.194 83.6246 352.189 85.5354ZM291.605 134.432V120.417C291.655 119.37 291.956 118.349 292.48 117.44C293.005 116.531 293.739 115.76 294.622 115.19L301.572 111.183C303.32 115.347 304.45 120.667 304.677 126.864L291.605 134.432ZM291.605 153.267V139.252L304.683 131.702C304.427 138.226 303.386 144.696 301.584 150.973L294.628 154.963C292.945 155.962 291.599 155.195 291.588 153.267H291.605ZM352.189 104.405V118.42C352.128 119.466 351.823 120.484 351.297 121.392C350.77 122.299 350.039 123.072 349.159 123.647L342.221 127.637C340.474 123.478 339.35 118.158 339.122 111.955L352.189 104.405ZM131.868 328.711C131.868 334.519 135.946 336.842 140.985 333.938C146.024 331.035 150.107 323.978 150.107 318.193C150.107 312.409 146.03 310.062 140.979 312.966C135.928 315.87 131.851 322.915 131.868 328.711Z" fill="#CEE7FD"/>
<path d="M231.887 263.845C231.887 265.781 233.242 266.555 234.9 265.59L349.147 199.648C350.031 199.079 350.767 198.307 351.295 197.397C351.823 196.487 352.127 195.465 352.183 194.415C352.183 192.502 350.833 191.711 349.164 192.671L234.9 258.623C234.022 259.198 233.292 259.972 232.769 260.881C232.246 261.79 231.944 262.809 231.887 263.857V263.845ZM273.874 253.559C273.927 252.509 274.228 251.487 274.754 250.577C275.28 249.667 276.015 248.895 276.898 248.325L349.164 206.609C350.833 205.649 352.183 206.434 352.183 208.353C352.126 209.403 351.822 210.424 351.295 211.333C350.768 212.243 350.034 213.015 349.153 213.587L276.893 255.297C275.241 256.251 273.88 255.477 273.874 253.553V253.559ZM337.782 89.6886L324.033 97.6143V115.123L334.938 108.837C335.17 102.368 336.124 95.9457 337.782 89.6886ZM319.833 117.542L308.928 123.834C308.73 117.687 307.765 112.343 306.078 107.976L319.839 100.045L319.833 117.542ZM308.934 128.683L319.827 122.386V139.9L306.066 147.838C307.735 141.58 308.696 135.155 308.934 128.683ZM324.056 119.961L334.961 113.687C335.171 119.821 336.159 125.171 337.805 129.532L324.033 137.464L324.056 119.961ZM299.954 175.697L349.153 147.285C350.833 146.314 352.189 147.099 352.189 149.03V163.049C352.127 164.098 351.82 165.118 351.293 166.027C350.766 166.936 350.033 167.708 349.153 168.283L299.93 196.7C298.267 197.666 296.9 196.875 296.9 194.956V180.942C296.955 179.891 297.259 178.867 297.785 177.956C298.312 177.044 299.047 176.27 299.93 175.697H299.954ZM240.443 210.051L289.642 181.657C291.323 180.686 292.683 181.477 292.683 183.402V197.357C292.622 198.411 292.315 199.436 291.787 200.35C291.259 201.263 290.524 202.041 289.642 202.62L240.42 231.026C238.756 231.985 237.389 231.212 237.389 229.281V215.296C237.445 214.245 237.749 213.222 238.276 212.311C238.802 211.399 239.537 210.625 240.42 210.051H240.443ZM180.932 244.394L230.137 215.965C231.812 214.988 233.161 215.773 233.178 217.71V231.712C233.118 232.761 232.812 233.781 232.284 234.69C231.757 235.6 231.023 236.372 230.142 236.945L180.914 265.392C179.239 266.345 177.878 265.578 177.89 263.647V249.645C177.945 248.594 178.247 247.571 178.772 246.659C179.296 245.747 180.028 244.971 180.909 244.394H180.932ZM121.409 278.766L170.655 250.325C172.312 249.36 173.667 250.139 173.685 252.07V266.066C173.623 267.115 173.317 268.134 172.791 269.043C172.265 269.951 171.533 270.724 170.655 271.3L121.433 299.706C119.763 300.665 118.408 299.892 118.408 297.961V284C118.462 282.953 118.762 281.934 119.284 281.025C119.805 280.115 120.533 279.342 121.409 278.766ZM118.379 219.832C118.379 221.757 119.728 222.53 121.398 221.577L156.585 201.265C157.467 200.693 158.2 199.921 158.724 199.011C159.249 198.102 159.551 197.08 159.604 196.032C159.604 194.118 158.26 193.339 156.58 194.287L121.392 214.639C120.512 215.212 119.781 215.985 119.257 216.895C118.734 217.804 118.433 218.825 118.379 219.873V219.832ZM118.379 233.788C118.379 235.713 119.734 236.486 121.403 235.532L177.588 203.103C178.469 202.53 179.202 201.758 179.727 200.848C180.253 199.939 180.556 198.918 180.612 197.869C180.612 195.956 179.268 195.165 177.588 196.125L121.403 228.566C120.52 229.136 119.786 229.908 119.26 230.818C118.734 231.728 118.432 232.75 118.379 233.799V233.788Z" fill="#5F98ED"/>
<mask id="mask0" mask-type="alpha" maskUnits="userSpaceOnUse" x="118" y="90" width="235" height="211">
<path d="M231.832 264.144C231.832 266.079 233.186 266.852 234.842 265.887L348.978 199.996C349.861 199.426 350.597 198.655 351.124 197.746C351.651 196.837 351.955 195.816 352.011 194.766C352.011 192.855 350.663 192.065 348.995 193.023L234.842 258.926C233.965 259.501 233.236 260.273 232.713 261.182C232.19 262.09 231.888 263.109 231.832 264.156V264.144ZM273.778 253.865C273.831 252.816 274.132 251.795 274.658 250.886C275.183 249.976 275.917 249.205 276.8 248.636L348.995 206.951C350.663 205.992 352.011 206.777 352.011 208.694C351.954 209.743 351.65 210.763 351.124 211.672C350.598 212.581 349.865 213.352 348.984 213.924L276.794 255.603C275.144 256.556 273.784 255.783 273.778 253.859V253.865ZM337.624 90.119L323.888 98.0388V115.534L334.783 109.253C335.015 102.789 335.968 96.3714 337.624 90.119ZM319.693 117.951L308.798 124.238C308.601 118.097 307.636 112.757 305.951 108.393L319.699 100.468L319.693 117.951ZM308.804 129.084L319.687 122.792V140.293L305.939 148.224C307.606 141.971 308.567 135.551 308.804 129.084ZM323.911 120.369L334.806 114.099C335.015 120.229 336.003 125.575 337.647 129.933L323.888 137.858L323.911 120.369ZM299.833 176.062L348.984 147.672C350.663 146.702 352.017 147.486 352.017 149.415V163.425C351.955 164.473 351.649 165.492 351.122 166.4C350.595 167.308 349.863 168.08 348.984 168.654L299.809 197.05C298.148 198.015 296.782 197.224 296.782 195.307V181.303C296.837 180.253 297.14 179.23 297.666 178.319C298.193 177.409 298.927 176.635 299.809 176.062H299.833ZM240.379 210.391L289.531 182.018C291.21 181.048 292.569 181.838 292.569 183.761V197.707C292.508 198.759 292.202 199.783 291.674 200.697C291.146 201.61 290.412 202.387 289.531 202.965L240.356 231.35C238.694 232.308 237.329 231.535 237.329 229.606V215.632C237.385 214.582 237.688 213.56 238.214 212.649C238.74 211.738 239.474 210.964 240.356 210.391H240.379ZM180.926 244.708L230.083 216.3C231.757 215.324 233.105 216.108 233.122 218.043V232.035C233.062 233.084 232.756 234.103 232.229 235.011C231.702 235.92 230.969 236.692 230.089 237.265L180.909 265.69C179.235 266.643 177.876 265.876 177.887 263.947V249.955C177.942 248.905 178.244 247.883 178.768 246.971C179.292 246.059 180.023 245.284 180.903 244.708H180.926ZM121.461 279.054L170.659 250.635C172.315 249.67 173.669 250.449 173.686 252.378V266.364C173.625 267.411 173.319 268.43 172.793 269.338C172.268 270.246 171.537 271.018 170.659 271.593L121.484 299.978C119.817 300.936 118.463 300.163 118.463 298.234V284.283C118.517 283.237 118.817 282.219 119.338 281.311C119.859 280.402 120.586 279.629 121.461 279.054ZM118.434 220.164C118.434 222.088 119.782 222.86 121.45 221.907L156.603 201.611C157.484 201.04 158.216 200.268 158.74 199.359C159.264 198.45 159.566 197.43 159.619 196.382C159.619 194.47 158.277 193.692 156.597 194.639L121.444 214.975C120.565 215.548 119.834 216.32 119.311 217.229C118.788 218.138 118.488 219.158 118.434 220.205V220.164ZM118.434 234.109C118.434 236.033 119.788 236.806 121.455 235.853L177.585 203.447C178.465 202.876 179.198 202.104 179.723 201.195C180.248 200.286 180.551 199.266 180.607 198.218C180.607 196.306 179.264 195.516 177.585 196.475L121.455 228.892C120.573 229.461 119.839 230.233 119.314 231.142C118.789 232.051 118.487 233.072 118.434 234.121V234.109Z" fill="#5F98ED"/>
</mask>
<g mask="url(#mask0)">
<path d="M297.183 175.366H235.01V242.187L297.183 217.492V175.366Z" fill="#EB5757"/>
<path d="M175.743 244.511H113.57V311.332L175.743 286.637V244.511Z" fill="#E7E7E7"/>
</g>
<path d="M216.365 360.374C216.36 361.054 216.194 361.723 215.879 362.326C215.565 362.928 215.111 363.448 214.556 363.84C204.26 371.385 193.168 377.779 181.478 382.906C177.629 384.541 171.741 384.241 168.504 382.369L167.874 382.005C166.071 380.965 165.147 379.44 165.141 377.914V384.905H165.176C165.176 386.43 166.106 387.938 167.915 388.984C168.117 389.1 168.331 389.221 168.539 389.348C171.775 391.208 177.664 391.515 181.513 389.88C193.202 384.751 204.294 378.357 214.591 370.814C215.137 370.427 215.585 369.918 215.9 369.327C216.214 368.736 216.385 368.08 216.399 367.411V360.368L216.365 360.374Z" fill="#5F98ED"/>
<g style="mix-blend-mode:overlay" opacity="0.3">
<path d="M216.365 360.374C216.36 361.054 216.194 361.723 215.879 362.326C215.565 362.928 215.111 363.448 214.556 363.84C204.26 371.385 193.168 377.779 181.478 382.906C177.629 384.541 171.741 384.241 168.504 382.369L167.874 382.005C166.071 380.965 165.147 379.44 165.141 377.914V384.905H165.176C165.176 386.43 166.106 387.938 167.915 388.984C168.117 389.1 168.331 389.221 168.539 389.348C171.775 391.208 177.664 391.515 181.513 389.88C193.202 384.751 204.294 378.357 214.591 370.814C215.137 370.427 215.585 369.918 215.9 369.327C216.214 368.736 216.385 368.08 216.399 367.411V360.368L216.365 360.374Z" fill="#5F98ED"/>
</g>
<g style="mix-blend-mode:overlay" opacity="0.2">
<path d="M168.267 382.662L167.682 382.31C166.006 381.304 165.146 379.829 165.141 378.354V385.115H165.173C165.173 386.59 166.038 388.049 167.719 389.06C167.908 389.172 168.106 389.29 168.3 389.413C168.728 389.662 169.175 389.873 169.637 390.044V383.299C169.163 383.129 168.705 382.916 168.267 382.662Z" fill="#5F98ED"/>
</g>
<path d="M175.581 391.841C177.712 391.867 179.827 391.473 181.806 390.682C193.582 385.501 204.755 379.045 215.127 371.429C215.743 370.982 216.253 370.405 216.622 369.739C216.991 369.073 217.21 368.334 217.264 367.574C217.287 367.501 217.299 367.425 217.299 367.348V360.304C217.299 360.177 217.27 360.052 217.215 359.937C217.16 359.823 217.08 359.722 216.98 359.644C216.894 359.579 216.798 359.53 216.696 359.499C216.57 359.464 216.437 359.459 216.308 359.486C216.179 359.512 216.059 359.569 215.956 359.651C215.853 359.733 215.771 359.838 215.717 359.957C215.662 360.077 215.637 360.208 215.642 360.339C215.628 360.889 215.485 361.428 215.225 361.913C214.964 362.397 214.593 362.813 214.143 363.128C203.87 370.655 192.805 377.033 181.146 382.148C177.59 383.656 171.973 383.43 168.898 381.65L168.261 381.279C166.819 380.45 165.979 379.244 165.944 377.974V377.882C165.941 377.741 165.902 377.603 165.831 377.481C165.76 377.36 165.66 377.258 165.539 377.185C165.418 377.113 165.281 377.072 165.14 377.068C164.999 377.063 164.86 377.093 164.734 377.157C164.681 377.183 164.633 377.216 164.589 377.256C164.484 377.329 164.397 377.427 164.336 377.541C164.276 377.655 164.244 377.782 164.242 377.911V384.925C164.241 385.022 164.259 385.119 164.294 385.209C164.416 387.006 165.545 388.647 167.438 389.737L168.064 390.096C170.027 391.256 172.807 391.841 175.581 391.841ZM215.637 367.163C215.618 367.233 215.608 367.305 215.608 367.377C215.592 367.921 215.449 368.453 215.19 368.931C214.932 369.409 214.565 369.82 214.119 370.131C203.854 377.664 192.797 384.052 181.146 389.18C177.59 390.688 171.979 390.462 168.898 388.682L168.267 388.317C166.801 387.47 165.95 386.241 165.95 384.943C165.949 384.86 165.935 384.778 165.91 384.699V381.569C166.367 382.02 166.881 382.409 167.438 382.728L168.075 383.093C171.596 385.14 177.758 385.412 181.812 383.673C193.587 378.492 204.761 372.036 215.133 364.421C215.312 364.276 215.486 364.125 215.642 363.974L215.637 367.163Z" fill="#93D0FF"/>
<path d="M216.398 325.243C216.433 323.662 215.508 322.08 213.671 320.993C213.469 320.881 213.255 320.752 213.047 320.628C209.816 318.729 203.916 318.423 200.074 320.081C188.381 325.297 177.287 331.803 166.991 339.483C166.436 339.883 165.983 340.411 165.669 341.025C165.354 341.638 165.187 342.318 165.182 343.01H165.147V378.238C165.055 379.878 165.985 381.536 167.881 382.647L168.51 383.018C171.747 384.923 177.635 385.228 181.484 383.564C193.173 378.347 204.265 371.841 214.561 364.163C215.116 363.764 215.57 363.235 215.884 362.622C216.199 362.008 216.365 361.328 216.369 360.636V325.243H216.398Z" fill="white"/>
<path d="M166.873 339.988C166.354 340.384 165.929 340.907 165.635 341.514C165.341 342.121 165.184 342.795 165.179 343.48H165.147V378.354C165.06 379.978 165.931 381.619 167.706 382.719L168.296 383.086C168.724 383.348 169.173 383.57 169.637 383.749V337.886C168.745 338.602 167.76 339.266 166.873 339.988Z" fill="#CEE7FD"/>
<path d="M175.579 385.546C177.713 385.572 179.83 385.177 181.812 384.385C193.591 379.194 204.768 372.726 215.143 365.097C215.772 364.641 216.292 364.048 216.664 363.364C217.036 362.68 217.25 361.921 217.292 361.142C217.301 361.075 217.301 361.007 217.292 360.939V326.006C217.3 325.936 217.3 325.866 217.292 325.797C217.246 323.938 216.133 322.231 214.141 321.087L213.521 320.732C209.987 318.682 203.824 318.409 199.769 320.152C187.987 325.344 176.808 331.816 166.433 339.451C165.809 339.904 165.294 340.49 164.923 341.167C164.552 341.844 164.336 342.594 164.289 343.365C164.265 343.44 164.251 343.518 164.249 343.597V378.397C164.239 378.467 164.239 378.537 164.249 378.606C164.249 380.511 165.407 382.317 167.406 383.473L168.043 383.839C170.03 384.96 172.804 385.546 175.579 385.546ZM215.653 360.788C215.644 360.86 215.644 360.932 215.653 361.003C215.645 361.558 215.504 362.104 215.243 362.594C214.982 363.084 214.608 363.504 214.152 363.82C203.878 371.354 192.812 377.738 181.152 382.858C177.595 384.368 171.976 384.141 168.9 382.358L168.263 381.986C166.711 381.092 165.865 379.785 165.946 378.409C165.952 378.315 165.941 378.22 165.911 378.13V343.806C165.937 343.73 165.949 343.649 165.946 343.568C165.955 343.014 166.096 342.47 166.357 341.981C166.618 341.492 166.991 341.072 167.446 340.757C177.722 333.201 188.794 326.799 200.464 321.667C204.015 320.157 209.634 320.384 212.71 322.167L213.353 322.539C214.842 323.404 215.67 324.664 215.67 325.983C215.661 326.058 215.661 326.134 215.67 326.209L215.653 360.788Z" fill="#93D0FF"/>
<path d="M165.141 336.435H165.176C165.193 335.763 165.365 335.103 165.679 334.509C165.993 333.915 166.44 333.403 166.984 333.014C177.28 325.401 188.372 318.95 200.063 313.777C203.917 312.134 209.811 312.437 213.042 314.319L213.666 314.681C215.457 315.73 216.382 317.252 216.399 318.761V318.732V325.832C216.386 326.507 216.216 327.169 215.903 327.765C215.59 328.361 215.142 328.875 214.596 329.266C204.299 336.882 193.202 343.333 181.507 348.502C177.658 350.152 171.781 349.848 168.539 347.966C168.331 347.843 168.129 347.715 167.915 347.598C166.106 346.549 165.187 345.022 165.176 343.477H165.141V336.435Z" fill="#5F98ED"/>
<g style="mix-blend-mode:overlay" opacity="0.3">
<path d="M165.141 336.167H165.176C165.176 337.737 166.112 339.302 167.915 340.367C168.129 340.485 168.331 340.616 168.539 340.741C171.781 342.662 177.664 342.972 181.512 341.294C193.203 336.018 204.296 329.435 214.591 321.665C215.141 321.265 215.592 320.736 215.906 320.122C216.22 319.508 216.389 318.826 216.399 318.132V318.103V325.347C216.386 326.036 216.216 326.711 215.903 327.32C215.59 327.928 215.142 328.453 214.596 328.851C204.299 336.623 193.202 343.205 181.507 348.48C177.658 350.163 171.781 349.854 168.539 347.933C168.331 347.808 168.129 347.677 167.915 347.558C166.106 346.487 165.187 344.929 165.176 343.352H165.141V336.167Z" fill="#5F98ED"/>
</g>
<g style="mix-blend-mode:overlay" opacity="0.2">
<path d="M175.971 337.591L175.841 331.806C176.101 331.662 175.399 329.73 174.45 327.434C171.757 329.169 169.146 330.939 166.665 332.767C166.44 332.942 166.231 333.135 166.04 333.345L173.566 337.614C173.94 337.797 174.354 337.89 174.772 337.886C175.19 337.882 175.601 337.781 175.971 337.591ZM202.31 321.117L194.159 316.49C196.21 315.512 198.285 314.546 200.4 313.598C201.524 313.15 202.703 312.851 203.907 312.707C204.449 314.13 204.768 315.171 204.585 315.275L204.709 321.088C204.34 321.28 203.93 321.382 203.513 321.387C203.096 321.392 202.684 321.3 202.31 321.117Z" fill="#5F98ED"/>
</g>
<g style="mix-blend-mode:overlay" opacity="0.2">
<path d="M169.637 341.423C169.173 341.23 168.722 340.999 168.288 340.732C168.096 340.605 167.908 340.473 167.71 340.353C166.03 339.264 165.178 337.682 165.173 336.088H165.141V343.366H165.173C165.173 344.96 166.035 346.536 167.71 347.619C167.908 347.739 168.096 347.872 168.288 347.998C168.714 348.264 169.158 348.491 169.616 348.678L169.637 341.423Z" fill="#5F98ED"/>
</g>
<path d="M175.557 350.474C177.686 350.506 179.802 350.119 181.785 349.335C193.571 344.118 204.754 337.612 215.132 329.933C215.748 329.482 216.259 328.9 216.629 328.228C216.998 327.556 217.217 326.81 217.27 326.044C217.288 325.971 217.298 325.897 217.299 325.822V318.708C217.3 318.621 217.286 318.534 217.258 318.451C217.136 316.652 216.007 315.005 214.118 313.901L213.539 313.557C209.987 311.483 203.817 311.221 199.756 312.944C187.974 318.166 176.796 324.674 166.42 332.351C165.806 332.801 165.296 333.38 164.927 334.049C164.557 334.718 164.338 335.46 164.282 336.224C164.254 336.3 164.241 336.381 164.242 336.463V343.53C164.241 343.628 164.259 343.725 164.294 343.816C164.41 345.627 165.54 347.274 167.44 348.378L167.764 348.565L168.077 348.751C170.012 349.89 172.781 350.474 175.557 350.474ZM215.636 325.623C215.627 325.691 215.627 325.76 215.636 325.828C215.62 326.375 215.477 326.911 215.218 327.393C214.96 327.875 214.593 328.289 214.147 328.602C203.87 336.199 192.796 342.635 181.124 347.794C177.573 349.312 171.959 349.084 168.877 347.297L168.587 347.122L168.234 346.918C166.774 346.071 165.916 344.827 165.916 343.518C165.917 343.433 165.904 343.348 165.876 343.267V336.714C165.899 336.635 165.911 336.552 165.91 336.469C165.924 335.919 166.066 335.381 166.325 334.897C166.584 334.413 166.952 333.997 167.399 333.683C177.678 326.086 188.752 319.649 200.422 314.485C203.979 312.967 209.599 313.195 212.675 314.988L213.313 315.356C214.767 316.208 215.63 317.447 215.63 318.743C215.631 318.816 215.64 318.889 215.659 318.959L215.636 325.623Z" fill="#93D0FF"/>
<path d="M209.205 319.098V301.141C209.205 295.223 206.92 290.491 202.887 288.153C198.854 285.816 193.644 286.179 188.548 289.149C179.459 294.434 172.335 306.852 172.335 317.422V335.269C172.335 335.943 172.758 336.616 173.638 337.129C174.611 337.627 175.688 337.886 176.78 337.886C177.872 337.886 178.948 337.627 179.922 337.129C180.801 336.616 181.236 335.943 181.224 335.275V317.428C181.224 310.013 186.611 300.617 192.992 296.904C195.232 295.603 197.271 295.229 198.448 295.914C199.625 296.599 200.322 298.551 200.322 301.147V319.098C200.376 319.471 200.523 319.825 200.749 320.127C200.974 320.429 201.271 320.669 201.613 320.825C202.586 321.323 203.663 321.583 204.755 321.583C205.847 321.583 206.923 321.323 207.897 320.825C208.238 320.668 208.535 320.428 208.76 320.127C208.986 319.825 209.133 319.471 209.188 319.098H209.205Z" fill="white"/>
<path d="M191.36 289.629C195.385 287.324 199.484 286.748 202.859 288.039C198.834 285.838 193.689 286.218 188.652 289.139C179.505 294.427 172.335 306.853 172.335 317.43V335.288C172.335 335.962 172.761 336.636 173.646 337.149C174.562 337.633 175.583 337.886 176.618 337.886V315.16C176.641 305.62 183.127 294.41 191.36 289.629ZM204.664 306.847V321.589C203.676 321.571 202.706 321.323 201.83 320.863C201.486 320.707 201.187 320.467 200.96 320.165C200.733 319.863 200.585 319.509 200.53 319.135V301.162C200.53 298.564 199.823 296.611 198.645 295.925C197.886 295.487 196.747 295.528 195.448 295.925C195.517 295.896 195.569 295.856 195.638 295.833C205.877 291.864 204.664 303.956 204.664 306.847Z" fill="#CEE7FD"/>
<path d="M176.696 338.784C177.943 338.808 179.174 338.506 180.27 337.907C180.763 337.674 181.183 337.31 181.487 336.854C181.79 336.399 181.964 335.869 181.991 335.322V317.433C181.991 310.261 187.217 301.166 193.401 297.577C195.329 296.458 197.158 296.065 198.053 296.59C198.948 297.115 199.522 298.898 199.522 301.114V319.101C199.513 319.17 199.513 319.24 199.522 319.309C199.611 319.797 199.813 320.256 200.112 320.65C200.411 321.045 200.799 321.362 201.243 321.577C202.346 322.151 203.569 322.451 204.811 322.451C206.053 322.451 207.276 322.151 208.379 321.577C208.83 321.36 209.222 321.037 209.522 320.636C209.821 320.234 210.02 319.764 210.1 319.268C210.103 319.222 210.103 319.176 210.1 319.13C210.106 319.076 210.106 319.022 210.1 318.968V301.103C210.1 294.865 207.639 289.862 203.348 287.369C199.057 284.876 193.504 285.24 188.123 288.361C178.767 293.797 171.436 306.562 171.436 317.422V335.311C171.463 335.857 171.638 336.386 171.941 336.84C172.244 337.295 172.664 337.657 173.157 337.89C174.241 338.488 175.46 338.796 176.696 338.784ZM197.021 294.692C195.439 294.784 193.907 295.28 192.569 296.134C185.944 299.983 180.339 309.73 180.339 317.422V335.311C180.339 335.709 180.018 336.118 179.444 336.465C178.592 336.892 177.654 337.114 176.702 337.114C175.75 337.114 174.812 336.892 173.96 336.465C173.386 336.13 173.059 335.715 173.065 335.311V317.422C173.065 307.098 180.035 294.963 188.927 289.798C193.785 286.977 198.736 286.613 202.511 288.8C206.285 290.987 208.436 295.477 208.436 301.103V319.061C208.385 319.299 208.277 319.521 208.123 319.709C207.968 319.897 207.771 320.045 207.547 320.14C206.695 320.568 205.755 320.791 204.802 320.791C203.85 320.791 202.91 320.568 202.057 320.14C201.833 320.045 201.635 319.896 201.48 319.707C201.326 319.518 201.219 319.295 201.168 319.055C201.168 319.055 201.168 318.997 201.168 318.968V301.08C201.168 298.137 200.337 295.967 198.874 295.119C198.311 294.82 197.68 294.673 197.044 294.692H197.021Z" fill="#93D0FF"/>
<path d="M197.509 350.968C199.497 349.82 201.112 350.756 201.112 353.011C201.045 354.477 200.543 355.892 199.667 357.081C199.305 357.587 199.102 358.186 199.082 358.804V362.001C199.052 362.532 198.895 363.049 198.624 363.51C198.352 363.97 197.974 364.362 197.52 364.653C196.661 365.147 195.959 364.745 195.959 363.775V360.577C195.99 360.367 195.95 360.153 195.844 359.968C195.738 359.784 195.573 359.638 195.374 359.555C194.45 359.286 193.918 358.407 193.918 357.127C193.98 355.896 194.337 354.696 194.961 353.625C195.585 352.555 196.458 351.644 197.509 350.968Z" fill="#5F98ED"/>
<g style="mix-blend-mode:overlay" opacity="0.3">
<path d="M196.025 363.066C196.578 362.472 196.907 361.71 196.956 360.907V357.649C196.977 357.02 197.185 356.41 197.553 355.894C198.452 354.685 198.966 353.242 199.033 351.747C199.037 351.326 198.962 350.907 198.812 350.512C198.977 350.484 199.145 350.472 199.313 350.477C198.712 350.472 198.122 350.634 197.612 350.945C196.538 351.629 195.643 352.552 195.001 353.639C194.359 354.725 193.988 355.945 193.918 357.199C193.918 358.497 194.461 359.398 195.404 359.673C195.607 359.758 195.775 359.906 195.883 360.094C195.991 360.282 196.033 360.501 196.001 360.714L196.025 363.066Z" fill="#5F98ED"/>
</g>
<path d="M196.806 365.763C197.206 365.754 197.597 365.642 197.94 365.438C198.53 365.073 199.021 364.573 199.37 363.98C199.719 363.388 199.916 362.721 199.943 362.036V358.803C199.969 358.355 200.127 357.923 200.398 357.561C201.38 356.218 201.94 354.622 202.011 352.97C202.011 351.554 201.479 350.474 200.516 349.928C199.553 349.383 198.336 349.476 197.095 350.184C195.902 350.934 194.909 351.954 194.199 353.159C193.49 354.364 193.085 355.718 193.018 357.108C193.018 358.751 193.775 359.958 195.051 360.347C195.077 360.428 195.089 360.512 195.086 360.597V363.83C195.06 364.172 195.129 364.514 195.285 364.821C195.441 365.127 195.679 365.387 195.973 365.571C196.228 365.706 196.516 365.772 196.806 365.763ZM199.169 351.252C199.352 351.25 199.533 351.294 199.695 351.38C199.931 351.57 200.114 351.817 200.226 352.096C200.339 352.375 200.378 352.678 200.339 352.976C200.271 354.29 199.815 355.557 199.027 356.621C198.561 357.261 198.298 358.022 198.271 358.809V362.042C198.237 362.436 198.114 362.816 197.909 363.156C197.704 363.496 197.424 363.786 197.089 364.004C197.007 364.06 196.911 364.093 196.812 364.103C196.805 364.014 196.805 363.925 196.812 363.836V360.603C196.846 360.208 196.745 359.814 196.526 359.482C196.307 359.15 195.981 358.899 195.6 358.768C194.856 358.554 194.744 357.608 194.744 357.114C194.814 356.018 195.141 354.953 195.701 354.002C196.261 353.051 197.037 352.241 197.97 351.635C198.322 351.41 198.726 351.276 199.145 351.246L199.169 351.252Z" fill="#93D0FF"/>
<path d="M325.211 347.664C321.677 348.63 318.679 350.205 316.638 352.219C316.895 352.459 317.14 352.71 317.42 352.95V364.478C314.831 366.452 312.004 368.089 309.005 369.349C303.809 367.387 298.193 366.82 292.712 367.704C286.881 368.617 282.408 370.93 280.011 373.857C278.064 373.723 276.11 373.535 274.18 373.231C272.25 372.926 270.372 372.522 268.564 372.06C269.013 368.834 267.13 365.532 262.885 363.067C258.639 360.602 252.907 359.508 247.35 359.771C245.846 357.813 244.796 355.543 244.277 353.126V341.592C247.81 340.626 250.814 339.046 252.843 337.038C252.599 336.78 252.342 336.536 252.073 336.306V324.772C254.658 322.8 257.481 321.165 260.476 319.907C265.672 321.87 271.289 322.435 276.769 321.546C282.548 320.674 287.067 318.332 289.435 315.405C291.388 315.534 293.354 315.721 295.307 316.025C297.261 316.33 299.115 316.734 300.917 317.196C300.462 320.41 302.351 323.724 306.603 326.183C310.854 328.642 316.568 329.737 322.132 329.473C323.637 331.434 324.688 333.705 325.211 336.124V347.664ZM279.621 349.9C288.368 351.258 297.342 348.958 301.716 344.631C299.191 342.137 295.039 340.199 289.837 339.391C281.09 338.027 272.11 340.328 267.742 344.66C270.267 347.143 274.419 349.092 279.621 349.9Z" fill="white"/>
<path d="M303.759 342.157C306.58 336.128 300.349 329.942 289.85 328.332C279.351 326.721 268.55 330.301 265.728 336.325C263.781 340.489 266.148 344.723 271.255 347.474C269.977 346.804 268.799 345.96 267.757 344.966C272.123 340.669 281.077 338.392 289.844 339.754C295.044 340.553 299.171 342.47 301.718 344.937C299.847 346.674 297.623 347.991 295.195 348.801C299.259 347.306 302.418 345.024 303.759 342.157ZM309.005 357.987C311.994 356.74 314.813 355.123 317.393 353.174V364.578C314.806 366.531 311.979 368.15 308.982 369.397C303.788 367.456 298.174 366.895 292.695 367.77C286.865 368.673 282.394 370.961 279.998 373.857C278.051 373.724 276.099 373.539 274.169 373.237C272.24 372.936 270.363 372.536 268.556 372.079C269.004 368.888 267.122 365.621 262.878 363.182C258.634 360.744 252.904 359.661 247.349 359.921C245.845 357.985 244.795 355.739 244.277 353.347V341.937C244.795 344.328 245.845 346.574 247.349 348.511C252.904 348.256 258.617 349.334 262.878 351.772C267.139 354.21 269.004 357.477 268.556 360.669C270.363 361.115 272.222 361.514 274.169 361.827C276.116 362.14 278.081 362.314 279.998 362.447C282.394 359.551 286.889 357.263 292.695 356.359C298.183 355.482 303.807 356.043 309.011 357.987H309.005ZM325.211 347.943C321.678 348.899 318.682 350.457 316.642 352.45C316.898 352.687 317.143 352.936 317.423 353.174C314.246 350.533 313.027 347.156 314.59 343.82C316.152 340.483 320.162 337.9 325.211 336.533V347.943ZM252.84 337.46C252.596 337.205 252.339 336.964 252.07 336.736V325.297C255.236 327.938 256.454 331.315 254.897 334.651C254.385 335.701 253.688 336.653 252.84 337.46Z" fill="#CEE7FD"/>
<path d="M279.986 374.751C280.109 374.75 280.231 374.723 280.343 374.67C280.455 374.617 280.554 374.541 280.634 374.445C282.969 371.564 287.441 369.422 292.829 368.577C298.168 367.715 303.639 368.265 308.703 370.173C308.908 370.258 309.139 370.258 309.345 370.173C312.411 368.881 315.302 367.205 317.95 365.185C318.051 365.105 318.132 365.004 318.189 364.888C318.246 364.772 318.276 364.645 318.277 364.516V352.956C318.281 352.831 318.258 352.706 318.208 352.592C318.159 352.477 318.085 352.375 317.991 352.293L317.903 352.216C320.131 350.424 322.721 349.14 325.493 348.455C325.669 348.406 325.824 348.3 325.935 348.154C326.046 348.008 326.106 347.829 326.106 347.645V336.096C326.111 336.04 326.111 335.983 326.106 335.926C325.56 333.381 324.457 330.989 322.877 328.925C322.794 328.816 322.686 328.728 322.562 328.67C322.438 328.612 322.302 328.584 322.165 328.591C316.531 328.855 311.032 327.693 307.08 325.404C303.297 323.215 301.376 320.24 301.796 317.242C301.826 317.036 301.778 316.827 301.662 316.654C301.547 316.482 301.372 316.359 301.172 316.309C299.117 315.786 297.254 315.399 295.48 315.135C293.705 314.871 291.808 314.66 289.531 314.507C289.398 314.499 289.266 314.523 289.144 314.576C289.023 314.629 288.915 314.71 288.83 314.812C286.466 317.693 282.023 319.829 276.635 320.68C271.296 321.547 265.825 320.999 260.761 319.09C260.556 319.005 260.325 319.005 260.119 319.09C257.056 320.377 254.168 322.052 251.526 324.072C251.425 324.151 251.343 324.251 251.286 324.366C251.23 324.481 251.2 324.607 251.199 324.735V336.296C251.199 336.419 251.226 336.54 251.277 336.651C251.329 336.763 251.403 336.862 251.497 336.941L251.59 337.018C249.362 338.812 246.772 340.098 244.001 340.785C243.823 340.833 243.666 340.938 243.555 341.084C243.443 341.231 243.382 341.41 243.382 341.595V353.155C243.376 353.21 243.376 353.265 243.382 353.32C243.922 355.866 245.023 358.258 246.604 360.32C246.685 360.431 246.791 360.52 246.915 360.579C247.038 360.637 247.174 360.663 247.311 360.655C252.95 360.391 258.45 361.553 262.408 363.847C266.179 366.042 268.105 369.017 267.662 372.016C267.634 372.221 267.682 372.43 267.797 372.602C267.912 372.774 268.087 372.898 268.286 372.949C270.376 373.471 272.186 373.847 273.984 374.123C275.782 374.398 277.645 374.598 279.922 374.756L279.986 374.751ZM297.791 366.535C296.044 366.536 294.3 366.669 292.572 366.934C286.985 367.814 282.298 370.038 279.624 373.06C277.581 372.914 275.864 372.726 274.247 372.474C272.63 372.221 271.147 371.922 269.396 371.499C269.53 368.061 267.323 364.78 263.231 362.404C259.138 360.027 253.458 358.765 247.667 358.971C246.389 357.221 245.488 355.222 245.022 353.103V342.223C248.125 341.385 250.981 339.806 253.347 337.622C253.498 337.465 253.583 337.254 253.583 337.035C253.583 336.816 253.498 336.606 253.347 336.448C253.172 336.278 253.003 336.102 252.816 335.932V325.14C255.168 323.39 257.715 321.92 260.405 320.763C265.661 322.673 271.314 323.21 276.833 322.323C282.414 321.455 287.102 319.231 289.782 316.203C291.819 316.35 293.541 316.537 295.164 316.79C296.688 317.024 298.282 317.377 300.01 317.77C299.87 321.209 302.082 324.483 306.181 326.86C310.279 329.236 315.953 330.486 321.733 330.293C323.015 332.041 323.92 334.04 324.389 336.161V347.011C321.287 347.851 318.432 349.429 316.064 351.612C315.986 351.688 315.924 351.78 315.881 351.88C315.838 351.981 315.815 352.089 315.813 352.199C315.819 352.42 315.908 352.63 316.064 352.786L316.187 352.909L316.596 353.302V364.059C314.243 365.811 311.696 367.284 309.006 368.448C305.415 367.128 301.615 366.472 297.791 366.511V366.535ZM284.627 351.119C291.738 351.119 298.556 348.918 302.304 345.192C302.455 345.035 302.54 344.824 302.54 344.605C302.54 344.386 302.455 344.176 302.304 344.018C299.549 341.29 295.164 339.324 289.957 338.532C281.159 337.164 271.766 339.435 267.119 344.054C266.966 344.211 266.878 344.421 266.874 344.64C266.875 344.75 266.898 344.858 266.941 344.959C266.984 345.06 267.046 345.151 267.125 345.227C269.886 347.962 274.27 349.922 279.472 350.72C281.178 350.984 282.901 351.117 284.627 351.119ZM300.477 344.605C295.982 348.467 287.633 350.297 279.723 349.065C275.263 348.373 271.48 346.812 268.94 344.635C273.43 340.773 281.784 338.948 289.694 340.175C294.16 340.873 297.943 342.428 300.477 344.605Z" fill="#93D0FF"/>
<path d="M282.968 314.634C283.391 312.624 284.253 310.737 285.491 309.111C290.064 309.334 294.73 308.419 298.252 306.379C301.774 304.338 303.299 301.577 302.923 298.903C304.401 298.522 305.926 298.188 307.542 297.941C309.159 297.695 310.764 297.531 312.364 297.419C314.333 299.853 318.028 301.776 322.803 302.526C327.296 303.257 331.898 302.789 336.159 301.166C338.628 302.213 340.956 303.574 343.087 305.218V314.804C342.856 314.998 342.654 315.203 342.452 315.391C344.449 317.234 346.869 318.538 349.491 319.184V328.765C349.064 330.774 348.202 332.66 346.968 334.288C342.4 334.071 337.7 334.974 334.207 337.026C330.714 339.079 329.166 341.823 329.536 344.502C328.046 344.878 326.522 345.206 324.917 345.464C323.311 345.722 321.7 345.868 320.101 345.98C318.132 343.547 314.442 341.629 309.662 340.873C305.157 340.133 300.541 340.604 296.272 342.239C293.804 341.191 291.476 339.832 289.343 338.193V328.613C289.574 328.413 289.77 328.208 289.978 328.026C287.981 326.188 285.564 324.886 282.945 324.238L282.968 314.634ZM330.177 321.717C326.591 318.111 319.235 316.2 312.029 317.331C307.756 318 304.344 319.612 302.265 321.688C305.862 325.3 313.236 327.211 320.419 326.074C324.697 325.405 328.075 323.787 330.177 321.717Z" fill="#5F98ED"/>
<g style="mix-blend-mode:overlay" opacity="0.3">
<path d="M307.615 325.086C305.62 324.408 303.791 323.311 302.249 321.868C304.328 319.809 307.742 318.209 312.016 317.545C319.224 316.422 326.583 318.319 330.17 321.897C329.309 322.73 328.337 323.437 327.282 323.998C331.481 321.671 333.428 318.179 331.822 314.688C329.512 309.661 320.628 306.676 311.993 308.021C303.358 309.365 298.228 314.526 300.556 319.547C301.683 321.95 304.276 323.87 307.615 325.086ZM309.648 331.399C314.43 332.149 318.121 334.058 320.091 336.473C321.691 336.362 323.296 336.211 324.908 335.961C326.52 335.71 328.033 335.379 329.529 335C329.159 332.341 330.684 329.618 334.202 327.588C337.719 325.557 342.398 324.679 346.967 324.865C348.202 323.252 349.064 321.381 349.491 319.39V328.897C349.064 330.89 348.202 332.763 346.967 334.378C342.398 334.163 337.696 335.059 334.202 337.095C330.707 339.132 329.159 341.855 329.529 344.514C328.039 344.886 326.514 345.212 324.908 345.468C323.302 345.724 321.691 345.869 320.091 345.98C318.121 343.565 314.43 341.663 309.648 340.912C305.142 340.178 300.524 340.645 296.253 342.268C293.784 341.228 291.456 339.879 289.322 338.253V328.74C291.456 330.366 293.784 331.715 296.253 332.755C300.526 331.141 305.142 330.674 309.648 331.399ZM282.945 314.869C287.092 316.033 290.39 318.162 291.673 320.949C292.955 323.736 291.95 326.541 289.362 328.74C289.593 328.542 289.79 328.338 289.998 328.158C288 326.334 285.582 325.042 282.962 324.399L282.945 314.869ZM340.775 313.309C339.487 310.528 340.492 307.712 343.085 305.513V315.026C342.854 315.218 342.652 315.422 342.45 315.608C341.759 314.949 341.191 314.171 340.775 313.309Z" fill="#5F98ED"/>
</g>
<path d="M320.106 346.879H320.164C322.04 346.75 323.592 346.585 325.057 346.356C326.522 346.127 328.086 345.769 329.765 345.375C329.964 345.325 330.138 345.202 330.252 345.029C330.367 344.857 330.414 344.647 330.385 344.441C330.049 342.01 331.607 339.59 334.658 337.798C337.895 335.907 342.401 334.949 347.004 335.167C347.14 335.173 347.275 335.146 347.398 335.088C347.521 335.03 347.629 334.942 347.711 334.832C349.023 333.101 349.938 331.094 350.386 328.958C350.392 328.901 350.392 328.844 350.386 328.788V319.172C350.388 318.991 350.333 318.814 350.229 318.667C350.125 318.52 349.977 318.411 349.807 318.355C347.601 317.804 345.536 316.783 343.75 315.36C343.904 315.204 343.992 314.993 343.993 314.772V305.174C343.993 305.046 343.965 304.92 343.909 304.805C343.854 304.69 343.774 304.589 343.674 304.511C341.487 302.825 339.098 301.427 336.563 300.352C336.463 300.31 336.356 300.288 336.248 300.288C336.14 300.288 336.032 300.31 335.932 300.352C331.783 301.92 327.303 302.367 322.932 301.65C318.525 300.957 314.9 299.201 312.978 296.828C312.894 296.724 312.786 296.642 312.664 296.589C312.542 296.536 312.41 296.513 312.277 296.522C310.453 296.646 308.849 296.822 307.378 297.051C305.908 297.28 304.373 297.597 302.676 298.026C302.477 298.077 302.303 298.202 302.189 298.375C302.075 298.549 302.028 298.759 302.057 298.966C302.398 301.392 300.835 303.818 297.777 305.609C294.546 307.495 290.047 308.458 285.437 308.235C285.301 308.226 285.165 308.252 285.042 308.31C284.918 308.369 284.811 308.458 284.731 308.57C283.415 310.299 282.499 312.307 282.05 314.443C282.044 314.498 282.044 314.553 282.05 314.608V324.212C282.051 324.396 282.112 324.575 282.222 324.722C282.333 324.868 282.488 324.974 282.664 325.022C284.863 325.581 286.923 326.602 288.709 328.018C288.632 328.095 288.571 328.186 288.53 328.287C288.488 328.388 288.466 328.496 288.466 328.605V338.209C288.466 338.338 288.495 338.465 288.551 338.58C288.607 338.695 288.689 338.795 288.79 338.873C290.976 340.561 293.366 341.959 295.901 343.032C296.002 343.075 296.11 343.098 296.22 343.098C296.329 343.098 296.438 343.075 296.538 343.032C300.682 341.457 305.158 341.003 309.527 341.716C313.933 342.409 317.564 344.165 319.481 346.533C319.553 346.634 319.647 346.718 319.755 346.778C319.863 346.838 319.983 346.872 320.106 346.879ZM328.682 343.883C327.31 344.212 326.036 344.471 324.803 344.665C323.569 344.858 322.11 345.023 320.46 345.146C318.236 342.638 314.368 340.794 309.764 340.065C305.216 339.332 300.56 339.774 296.226 341.352C294.061 340.406 292.01 339.214 290.111 337.798V328.987L290.336 328.764L290.493 328.611C290.652 328.457 290.745 328.247 290.753 328.024C290.747 327.803 290.658 327.593 290.504 327.437C288.566 325.632 286.231 324.321 283.694 323.613V314.696C284.076 312.976 284.804 311.354 285.831 309.932C290.585 310.097 295.235 309.051 298.634 307.066C302.034 305.08 303.846 302.367 303.788 299.494C305.166 299.16 306.434 298.907 307.651 298.719C308.965 298.513 310.39 298.355 311.999 298.231C314.235 300.745 318.097 302.59 322.701 303.312C327.239 304.042 331.885 303.599 336.21 302.026C338.374 302.97 340.423 304.163 342.319 305.58V314.391C342.186 314.514 342.059 314.643 341.926 314.778C341.776 314.936 341.692 315.146 341.692 315.366C341.692 315.585 341.776 315.795 341.926 315.953C343.862 317.762 346.197 319.076 348.736 319.783V328.67C348.363 330.386 347.646 332.006 346.628 333.428C341.856 333.275 337.218 334.315 333.824 336.3C330.431 338.286 328.619 341.005 328.682 343.883ZM316.284 327.231C317.721 327.236 319.155 327.128 320.575 326.908C324.884 326.232 328.52 324.605 330.819 322.314C330.974 322.159 331.063 321.948 331.068 321.727C331.067 321.617 331.044 321.509 331.001 321.408C330.959 321.307 330.897 321.216 330.819 321.14C326.968 317.269 319.186 315.371 311.907 316.511C307.593 317.187 303.956 318.819 301.663 321.11C301.585 321.187 301.523 321.278 301.48 321.379C301.438 321.479 301.415 321.588 301.414 321.698C301.417 321.918 301.504 322.129 301.657 322.285C304.744 325.392 310.395 327.231 316.284 327.231ZM328.972 321.704C326.905 323.466 323.87 324.682 320.286 325.228C313.916 326.232 307.135 324.776 303.441 321.662C305.508 319.9 308.548 318.69 312.127 318.138C318.531 317.134 325.283 318.596 328.972 321.704Z" fill="#93D0FF"/>
<path d="M312.408 2.45542C316.007 0.369287 318.916 2.05334 318.916 6.22561V31.3699C318.916 35.5363 316.018 40.606 312.414 42.6863L174.134 122.962V82.754L312.408 2.45542Z" fill="white"/>
<path d="M174.064 123.861C174.21 123.861 174.354 123.823 174.481 123.75L312.856 43.3897C316.678 41.173 319.815 35.7597 319.815 31.3321V6.1729C319.815 3.83956 318.992 2.08955 317.495 1.21455C315.999 0.339545 314.062 0.508709 312.056 1.67538L173.646 82.0065C173.521 82.0801 173.416 82.1857 173.344 82.3127C173.272 82.4397 173.234 82.5835 173.235 82.7298V122.98C173.234 123.127 173.271 123.272 173.343 123.4C173.416 123.528 173.52 123.634 173.646 123.709C173.769 123.797 173.913 123.85 174.064 123.861ZM315.35 2.32288C315.798 2.31662 316.24 2.42929 316.631 2.64956C317.594 3.23289 318.122 4.45206 318.122 6.14957V31.3205C318.122 35.2172 315.385 39.9772 312.027 41.9255L174.893 121.562V83.2315L312.856 3.11039C313.606 2.63678 314.465 2.36556 315.35 2.32288Z" fill="#93D0FF"/>
<path d="M120.396 113.911L174.134 82.4945V123.013L120.396 154.436C116.795 156.532 113.883 154.841 113.883 150.636V125.321C113.854 121.122 116.795 116.019 120.396 113.911Z" fill="white"/>
<path d="M117.419 155.334C118.602 155.296 119.754 154.949 120.762 154.329L174.62 123.245C174.747 123.171 174.851 123.064 174.924 122.937C174.996 122.81 175.034 122.665 175.033 122.519V82.4287C175.033 82.2823 174.995 82.1384 174.922 82.0116C174.849 81.8848 174.744 81.7795 174.617 81.7063C174.49 81.6332 174.346 81.5949 174.2 81.5952C174.053 81.5955 173.91 81.6345 173.783 81.7082L119.925 112.793C116.03 115.041 112.949 120.346 112.984 124.802V149.873C112.984 152.197 113.809 153.94 115.309 154.812C115.954 155.168 116.682 155.348 117.419 155.334ZM173.37 122.042L119.925 152.883C118.448 153.737 117.105 153.899 116.14 153.342C115.175 152.784 114.652 151.546 114.646 149.855V124.779C114.646 120.898 117.384 116.157 120.756 114.216L173.365 83.8522L173.37 122.042Z" fill="#93D0FF"/>
<path d="M192.346 98.5701C194.933 97.0724 197.028 93.436 197.028 90.4115C197.028 87.3871 194.933 86.2099 192.346 87.7017C189.758 89.1936 187.67 92.8416 187.67 95.8603C187.67 98.8789 189.764 100.074 192.346 98.5701ZM209.681 83.1038C209.681 80.1085 211.776 76.4663 214.363 74.9453C216.951 73.4243 219.039 74.6597 219.039 77.6551C219.039 80.6504 216.945 84.2868 214.363 85.8136C211.782 87.3404 209.681 86.07 209.681 83.1038ZM231.728 70.2832C231.728 67.2879 233.822 63.6457 236.41 62.1247C238.997 60.6037 241.092 61.8333 241.086 64.8345C241.08 67.8357 238.986 71.4662 236.41 72.9639C233.834 74.4616 231.728 73.2902 231.728 70.2832ZM253.774 57.521C253.774 54.5198 255.875 50.8776 258.462 49.3624C261.05 47.8472 263.103 49.071 263.103 52.0722C263.103 55.0734 261.015 58.7098 258.421 60.2308C255.828 61.7517 253.774 60.5047 253.774 57.521ZM275.821 44.7353C275.821 41.7342 277.915 38.092 280.509 36.5768C283.102 35.0616 285.185 36.2913 285.15 39.2866C285.115 42.282 283.055 45.9242 280.474 47.4451C277.892 48.9661 275.821 47.7249 275.821 44.7353ZM297.867 31.9497C297.867 28.9486 299.962 25.3064 302.549 23.7912C305.137 22.276 307.225 23.5115 307.225 26.5068C307.225 29.5022 305.131 33.1444 302.543 34.6654C299.956 36.1864 297.867 34.9393 297.867 31.9497ZM127.373 130.82C127.363 131.266 127.45 131.71 127.628 132.119C127.781 131.972 127.946 131.838 128.121 131.717C129.229 131.076 130.128 131.589 130.146 132.853C130.287 132.799 130.425 132.735 130.558 132.661L134.224 130.534C134.266 129.826 134.472 129.137 134.826 128.523C135.179 127.909 135.671 127.387 136.261 126.997C137.386 126.344 138.297 126.874 138.297 128.162L142.358 125.831C142.396 125.123 142.599 124.433 142.952 123.818C143.305 123.204 143.797 122.681 144.389 122.294C145.509 121.641 146.425 122.166 146.425 123.459L151.519 120.505C152.558 121.752 154.356 121.938 156.416 120.744C159.642 118.873 162.258 114.334 162.264 110.581C162.27 106.828 159.642 105.336 156.416 107.195C154.356 108.36 152.564 110.691 151.519 113.116L130.546 125.272C129.627 125.886 128.864 126.708 128.317 127.671C127.77 128.634 127.455 129.712 127.396 130.82H127.373ZM154.287 115.214C154.326 114.467 154.54 113.741 154.912 113.094C155.284 112.446 155.804 111.897 156.428 111.49C157.588 110.802 158.568 111.356 158.568 112.731C158.526 113.477 158.311 114.202 157.939 114.849C157.567 115.496 157.05 116.046 156.428 116.455C155.261 117.142 154.304 116.589 154.31 115.214H154.287Z" fill="#CEE7FD"/>
<path d="M460.584 275.968L408.217 245.782C406.366 244.841 404.318 244.35 402.242 244.35C400.165 244.35 398.117 244.841 396.266 245.782L351.38 271.854C348.088 273.724 348.107 276.866 351.38 278.774L403.747 308.978C405.598 309.92 407.646 310.41 409.723 310.41C411.8 310.41 413.847 309.92 415.698 308.978L460.584 282.888C463.914 280.981 463.895 277.876 460.584 275.968Z" fill="url(#paint1_linear)"/>
<path d="M432.677 297.858V285.402L328.41 271.151V283.606L360.841 302.328L365.572 305.058L393.009 320.899L432.677 297.858Z" fill="white"/>
<path d="M393.009 321.835C392.847 321.835 392.686 321.797 392.542 321.722L327.943 284.411C327.799 284.332 327.679 284.216 327.597 284.074C327.514 283.932 327.472 283.77 327.475 283.606V271.132C327.473 270.997 327.5 270.864 327.555 270.741C327.61 270.618 327.691 270.509 327.793 270.421C327.89 270.331 328.006 270.264 328.132 270.226C328.258 270.187 328.392 270.177 328.522 270.197L432.808 284.467C433.031 284.502 433.235 284.616 433.382 284.787C433.529 284.958 433.611 285.176 433.613 285.402V297.858C433.608 298.02 433.563 298.179 433.481 298.319C433.4 298.46 433.284 298.578 433.145 298.662L393.533 321.722C393.372 321.806 393.191 321.845 393.009 321.835ZM329.42 283.064L393.009 319.833L431.742 297.39V286.281L329.345 272.291L329.42 283.064Z" fill="#93D0FF"/>
<path d="M432.677 285.402L405.241 269.561L395.422 263.894L368.06 248.09L328.41 271.15L360.841 289.872L365.572 292.602L393.009 308.443L432.677 285.402Z" fill="white"/>
<path d="M393.009 309.379C392.844 309.382 392.681 309.336 392.542 309.248L327.943 271.955C327.799 271.876 327.679 271.76 327.597 271.618C327.514 271.476 327.472 271.314 327.475 271.15C327.473 270.986 327.513 270.824 327.591 270.68C327.67 270.536 327.785 270.414 327.924 270.327L367.592 247.286C367.734 247.204 367.896 247.161 368.06 247.161C368.224 247.161 368.385 247.204 368.527 247.286L433.145 284.579C433.289 284.66 433.409 284.779 433.492 284.922C433.575 285.065 433.619 285.227 433.619 285.392C433.619 285.558 433.575 285.72 433.492 285.863C433.409 286.006 433.289 286.124 433.145 286.206L393.533 309.248C393.377 309.348 393.193 309.394 393.009 309.379ZM330.262 271.132L393.009 307.34L430.807 285.383L368.079 249.156L330.262 271.132Z" fill="#93D0FF"/>
<path d="M355.754 286.935V299.41L365.572 305.058V292.602L355.754 286.935Z" fill="#5F98ED"/>
<path d="M365.572 306.012C365.409 306.004 365.249 305.959 365.105 305.881L355.286 300.271C355.147 300.186 355.031 300.069 354.95 299.928C354.868 299.788 354.823 299.629 354.818 299.466V286.992C354.819 286.829 354.863 286.669 354.945 286.527C355.027 286.386 355.145 286.269 355.286 286.188C355.428 286.105 355.589 286.062 355.753 286.062C355.918 286.062 356.079 286.105 356.221 286.188L366.04 291.798C366.184 291.877 366.304 291.993 366.386 292.135C366.468 292.277 366.51 292.439 366.508 292.603V305.077C366.507 305.24 366.463 305.4 366.381 305.542C366.299 305.683 366.181 305.8 366.04 305.881C365.897 305.962 365.736 306.007 365.572 306.012ZM356.689 298.868L364.637 303.45V293.145L356.689 288.563V298.868Z" fill="#93D0FF"/>
<path d="M393.009 308.444V320.9L432.677 297.858V285.402L393.009 308.444Z" fill="white"/>
<path d="M393.009 321.835C392.847 321.835 392.686 321.797 392.542 321.722C392.398 321.639 392.278 321.519 392.196 321.374C392.114 321.23 392.072 321.066 392.074 320.9V308.537C392.071 308.373 392.113 308.211 392.196 308.07C392.278 307.928 392.398 307.811 392.542 307.733L432.21 284.673C432.352 284.59 432.513 284.547 432.678 284.547C432.842 284.547 433.003 284.59 433.145 284.673C433.287 284.759 433.404 284.879 433.486 285.023C433.568 285.167 433.611 285.33 433.613 285.495V297.951C433.608 298.114 433.563 298.273 433.481 298.413C433.4 298.554 433.284 298.671 433.145 298.756L393.533 321.722C393.372 321.806 393.191 321.845 393.009 321.835ZM393.944 308.986V319.272L431.742 297.316V287.01L393.944 308.986Z" fill="#93D0FF"/>
<path d="M417.846 287.385C415.359 285.945 415.34 283.644 417.846 282.167L400.621 272.217L372.96 256.263C371.567 256.973 370.025 257.343 368.462 257.343C366.899 257.343 365.357 256.973 363.964 256.263L342.437 268.775C344.925 270.216 344.943 272.516 342.437 273.994L370.061 289.947L387.286 299.878C388.681 299.173 390.222 298.806 391.784 298.806C393.347 298.806 394.888 299.173 396.282 299.878L396.899 300.289L418.52 287.74L417.846 287.385Z" fill="white"/>
<path d="M396.993 301.224C396.784 301.228 396.58 301.163 396.413 301.037C396.26 300.904 396.09 300.791 395.908 300.701C394.657 300.074 393.277 299.747 391.878 299.747C390.478 299.747 389.098 300.074 387.847 300.701C387.705 300.783 387.544 300.826 387.38 300.826C387.215 300.826 387.054 300.783 386.912 300.701L342.026 274.798C341.881 274.719 341.761 274.602 341.677 274.461C341.593 274.319 341.549 274.158 341.549 273.993C341.549 273.829 341.593 273.667 341.677 273.526C341.761 273.384 341.881 273.268 342.026 273.189C342.905 272.665 343.41 272.03 343.41 271.319C343.361 270.911 343.205 270.524 342.959 270.196C342.713 269.867 342.384 269.61 342.007 269.449C341.863 269.367 341.743 269.249 341.66 269.106C341.577 268.963 341.533 268.8 341.533 268.635C341.533 268.47 341.577 268.307 341.66 268.164C341.743 268.021 341.863 267.903 342.007 267.821L363.609 255.459C363.751 255.377 363.912 255.334 364.076 255.334C364.24 255.334 364.402 255.377 364.544 255.459C365.795 256.086 367.175 256.412 368.574 256.412C369.973 256.412 371.353 256.086 372.605 255.459C372.747 255.377 372.908 255.334 373.072 255.334C373.236 255.334 373.397 255.377 373.54 255.459L418.426 281.362C418.569 281.442 418.687 281.559 418.769 281.701C418.852 281.842 418.894 282.003 418.894 282.166C418.893 282.33 418.849 282.49 418.767 282.631C418.685 282.772 418.567 282.889 418.426 282.971C418.037 283.084 417.696 283.32 417.453 283.644C417.211 283.968 417.079 284.361 417.079 284.766C417.079 285.171 417.211 285.565 417.453 285.888C417.696 286.212 418.037 286.448 418.426 286.562L419.043 286.879C419.202 286.948 419.339 287.06 419.438 287.202C419.537 287.344 419.594 287.511 419.604 287.684C419.613 287.856 419.575 288.028 419.492 288.18C419.409 288.332 419.287 288.458 419.137 288.544L397.46 301.056C397.321 301.15 397.16 301.208 396.993 301.224ZM391.868 297.858C393.603 297.829 395.317 298.248 396.843 299.074L397.03 299.186L416.761 287.74C416.268 287.411 415.86 286.97 415.571 286.453C415.281 285.936 415.119 285.358 415.097 284.766C415.101 284.298 415.201 283.836 415.391 283.408C415.581 282.98 415.856 282.596 416.2 282.279L372.96 257.348C371.547 257.963 370.022 258.281 368.481 258.281C366.939 258.281 365.414 257.963 364.001 257.348L344.139 268.888C344.485 269.209 344.762 269.596 344.955 270.027C345.148 270.457 345.252 270.922 345.261 271.394C345.255 271.861 345.154 272.323 344.964 272.75C344.775 273.178 344.5 273.563 344.158 273.881L387.342 298.812C388.76 298.159 390.307 297.833 391.868 297.858Z" fill="#93D0FF"/>
<path d="M391.419 271.936C386.875 269.318 378.328 270.066 372.287 273.545C366.246 277.023 365.049 281.998 369.593 284.635C374.138 287.272 382.685 286.505 388.726 283.027C394.767 279.548 395.945 274.555 391.419 271.936Z" fill="white"/>
<path d="M376.7 287.16C374.07 287.247 371.461 286.654 369.126 285.439C368.192 284.986 367.4 284.286 366.833 283.417C366.266 282.547 365.947 281.539 365.909 280.502C365.909 277.753 368.06 274.891 371.819 272.722C378.197 268.981 387.006 268.327 391.887 271.132C392.818 271.584 393.609 272.281 394.175 273.147C394.742 274.013 395.063 275.017 395.104 276.051C395.104 278.819 392.953 281.662 389.194 283.831C385.382 285.99 381.081 287.137 376.7 287.16ZM384.331 271.282C380.274 271.306 376.291 272.361 372.754 274.349C369.631 276.219 367.779 278.463 367.779 280.502C367.83 281.207 368.068 281.886 368.469 282.468C368.871 283.05 369.42 283.514 370.061 283.812C374.325 286.281 382.498 285.57 388.259 282.223C391.363 280.352 393.234 278.108 393.234 276.051C393.18 275.349 392.94 274.674 392.539 274.096C392.138 273.517 391.59 273.056 390.952 272.759C388.907 271.71 386.628 271.202 384.331 271.282Z" fill="#93D0FF"/>
<path d="M395.422 263.894L390.84 266.55L383.957 270.552L367.237 280.278L360.354 284.28L355.754 286.936L365.572 292.603L370.155 289.947L376.962 286.001L393.87 276.163L400.659 272.217L405.241 269.561L395.422 263.894Z" fill="#5F98ED"/>
<path d="M365.572 293.575C365.41 293.574 365.25 293.535 365.105 293.463L355.286 287.852C355.142 287.77 355.022 287.652 354.939 287.509C354.856 287.366 354.812 287.204 354.812 287.038C354.812 286.873 354.856 286.711 354.939 286.568C355.022 286.425 355.142 286.306 355.286 286.225L394.954 263.183C395.097 263.101 395.258 263.058 395.422 263.058C395.586 263.058 395.747 263.101 395.889 263.183L405.708 268.794C405.852 268.876 405.972 268.994 406.055 269.137C406.139 269.28 406.182 269.442 406.182 269.608C406.182 269.773 406.139 269.936 406.055 270.078C405.972 270.221 405.852 270.34 405.708 270.421L366.04 293.425C365.9 293.515 365.739 293.567 365.572 293.575ZM357.624 286.973L365.572 291.574L403.371 269.598L395.403 264.979L357.624 286.973Z" fill="#93D0FF"/>
<path d="M431.293 280.689V268.233L327.008 253.982V266.456L359.438 285.178L364.188 287.908L391.625 303.749L431.293 280.689Z" fill="white"/>
<path d="M391.663 304.684C391.497 304.69 391.334 304.644 391.195 304.554L326.577 267.26C326.439 267.176 326.323 267.058 326.241 266.918C326.16 266.777 326.114 266.619 326.11 266.456V253.982C326.114 253.851 326.144 253.722 326.198 253.603C326.253 253.484 326.331 253.378 326.428 253.29C326.528 253.199 326.647 253.133 326.777 253.094C326.906 253.055 327.042 253.045 327.176 253.065L431.406 267.391C431.631 267.419 431.838 267.526 431.989 267.695C432.141 267.864 432.226 268.081 432.229 268.308V280.764C432.23 280.927 432.187 281.088 432.104 281.23C432.022 281.371 431.904 281.488 431.761 281.568L392.093 304.628C391.956 304.683 391.808 304.702 391.663 304.684ZM327.98 265.914L391.569 302.665L430.321 280.221V269.131L327.905 255.141L327.98 265.914Z" fill="#93D0FF"/>
<path d="M431.293 268.233L403.857 252.392L394.038 246.725L366.676 230.94L327.008 253.982L359.438 272.722L364.188 275.452L391.625 291.293L431.293 268.233Z" fill="white"/>
<path d="M391.663 292.228C391.498 292.225 391.337 292.18 391.195 292.097L326.577 254.786C326.435 254.705 326.316 254.589 326.234 254.447C326.152 254.306 326.109 254.145 326.11 253.981C326.111 253.818 326.155 253.658 326.237 253.517C326.319 253.376 326.436 253.259 326.577 253.177L366.246 230.117C366.388 230.035 366.549 229.991 366.713 229.991C366.877 229.991 367.039 230.035 367.181 230.117L431.761 267.391C431.905 267.47 432.026 267.586 432.11 267.728C432.194 267.869 432.238 268.031 432.238 268.195C432.238 268.36 432.194 268.521 432.11 268.663C432.026 268.804 431.905 268.921 431.761 269L392.093 292.06C391.963 292.146 391.816 292.203 391.663 292.228ZM328.915 253.981L391.663 290.208L429.479 268.233L366.732 232.006L328.915 253.981Z" fill="#93D0FF"/>
<path d="M354.37 269.785V282.241L364.188 287.908V275.452L354.37 269.785Z" fill="#5F98ED"/>
<path d="M364.188 288.843C364.023 288.846 363.86 288.801 363.721 288.712L353.902 283.102C353.761 283.02 353.643 282.903 353.561 282.762C353.479 282.621 353.435 282.461 353.434 282.297V269.841C353.435 269.678 353.479 269.517 353.562 269.376C353.644 269.234 353.762 269.117 353.904 269.036C354.046 268.954 354.207 268.912 354.371 268.912C354.535 268.912 354.695 268.955 354.837 269.037L364.656 274.648C364.799 274.728 364.917 274.845 364.999 274.986C365.082 275.128 365.124 275.289 365.123 275.452V287.964C365.122 288.127 365.079 288.287 364.997 288.429C364.915 288.57 364.797 288.687 364.656 288.768C364.51 288.838 364.348 288.864 364.188 288.843ZM355.305 281.699L363.253 286.281V275.995L355.305 271.394V281.699Z" fill="#93D0FF"/>
<path d="M391.625 291.293V303.749L431.293 280.689V268.233L391.625 291.293Z" fill="white"/>
<path d="M391.663 304.684C391.497 304.69 391.334 304.644 391.195 304.553C391.051 304.475 390.931 304.358 390.849 304.217C390.767 304.075 390.724 303.913 390.727 303.749V291.293C390.725 291.129 390.765 290.967 390.844 290.823C390.922 290.679 391.037 290.557 391.176 290.47L430.807 267.391C430.95 267.311 431.112 267.269 431.276 267.269C431.44 267.269 431.602 267.311 431.745 267.392C431.888 267.473 432.007 267.59 432.092 267.73C432.177 267.871 432.224 268.031 432.229 268.196V280.651C432.23 280.815 432.187 280.976 432.104 281.117C432.022 281.259 431.904 281.376 431.761 281.456L392.093 304.516C391.967 304.61 391.818 304.668 391.663 304.684ZM392.598 291.817V302.122L430.396 280.147V269.86L392.598 291.817Z" fill="#93D0FF"/>
<path d="M416.518 270.216C414.031 268.775 414.012 266.475 416.518 264.997L399.312 255.066L371.688 239.113C370.295 239.822 368.754 240.192 367.19 240.192C365.627 240.192 364.086 239.822 362.692 239.113L341.166 251.625C343.653 253.065 343.672 255.366 341.166 256.843L368.789 272.778L386.052 282.728C387.445 282.018 388.986 281.648 390.55 281.648C392.113 281.648 393.655 282.018 395.048 282.728C395.263 282.849 395.47 282.987 395.665 283.139L417.285 270.571L416.518 270.216Z" fill="white"/>
<path d="M395.609 284.074C395.398 284.071 395.194 283.999 395.029 283.868L394.524 283.532C393.271 282.913 391.892 282.591 390.494 282.591C389.096 282.591 387.717 282.913 386.463 283.532C386.321 283.614 386.16 283.657 385.996 283.657C385.832 283.657 385.67 283.614 385.528 283.532L340.642 257.647C340.498 257.566 340.378 257.447 340.295 257.304C340.212 257.161 340.168 256.999 340.168 256.834C340.168 256.668 340.212 256.506 340.295 256.363C340.378 256.22 340.498 256.102 340.642 256.02C341.017 255.858 341.342 255.599 341.585 255.271C341.828 254.943 341.98 254.556 342.026 254.15C341.971 253.744 341.814 253.359 341.568 253.032C341.323 252.704 340.997 252.445 340.623 252.279C340.479 252.201 340.359 252.084 340.277 251.943C340.195 251.801 340.153 251.639 340.156 251.475C340.155 251.314 340.195 251.155 340.274 251.014C340.353 250.873 340.467 250.755 340.604 250.671L362.131 238.159C362.277 238.077 362.441 238.034 362.608 238.034C362.775 238.034 362.939 238.077 363.085 238.159C364.337 238.782 365.717 239.106 367.115 239.106C368.514 239.106 369.894 238.782 371.146 238.159C371.288 238.077 371.449 238.034 371.613 238.034C371.778 238.034 371.939 238.077 372.081 238.159L416.967 264.043C417.111 264.122 417.231 264.239 417.313 264.38C417.396 264.522 417.438 264.684 417.435 264.848C417.437 265.012 417.397 265.174 417.318 265.318C417.24 265.462 417.125 265.584 416.986 265.671C416.623 265.825 416.306 266.069 416.064 266.38C415.822 266.691 415.663 267.058 415.602 267.447C415.653 267.854 415.809 268.241 416.055 268.569C416.301 268.897 416.628 269.155 417.005 269.318L417.603 269.617C417.767 269.681 417.908 269.791 418.011 269.934C418.114 270.076 418.174 270.245 418.183 270.421C418.192 270.594 418.153 270.765 418.071 270.917C417.988 271.069 417.865 271.195 417.715 271.281L396.095 283.849C395.962 283.975 395.791 284.054 395.609 284.074ZM390.484 280.707C392.219 280.681 393.932 281.1 395.459 281.923L395.646 282.035L415.359 270.571C414.869 270.24 414.465 269.798 414.179 269.281C413.893 268.765 413.733 268.187 413.713 267.597C413.721 267.13 413.823 266.669 414.013 266.241C414.202 265.814 414.476 265.429 414.816 265.109L371.632 240.179C370.222 240.808 368.696 241.132 367.153 241.132C365.609 241.132 364.083 240.808 362.674 240.179L342.811 251.737C343.16 252.053 343.439 252.438 343.63 252.868C343.821 253.298 343.92 253.763 343.92 254.234C343.92 254.704 343.821 255.17 343.63 255.6C343.439 256.03 343.16 256.415 342.811 256.731L386.052 281.661C387.441 281.02 388.955 280.694 390.484 280.707Z" fill="#93D0FF"/>
<path d="M390.036 254.786C385.491 252.167 376.944 252.915 370.903 256.375C364.862 259.835 363.665 264.848 368.21 267.466C372.754 270.085 381.301 269.336 387.324 265.858C393.346 262.379 394.562 257.404 390.036 254.786Z" fill="white"/>
<path d="M375.279 269.954C372.683 270.04 370.107 269.461 367.798 268.271C366.859 267.828 366.062 267.134 365.494 266.266C364.926 265.398 364.61 264.389 364.581 263.352C364.581 260.584 366.732 257.741 370.491 255.571C376.869 251.831 385.678 251.158 390.559 253.982C391.494 254.427 392.288 255.122 392.852 255.99C393.417 256.858 393.73 257.865 393.757 258.9C393.757 261.65 391.625 264.511 387.847 266.681C384.007 268.829 379.68 269.956 375.279 269.954ZM382.947 254.131C378.892 254.147 374.907 255.196 371.37 257.18C368.247 259.05 366.377 261.313 366.395 263.352C366.446 264.057 366.684 264.736 367.085 265.318C367.487 265.9 368.036 266.364 368.677 266.662C372.941 269.112 381.096 268.401 386.856 265.054C389.979 263.183 391.85 260.939 391.831 258.9C391.78 258.198 391.544 257.521 391.146 256.94C390.749 256.358 390.204 255.893 389.568 255.59C387.521 254.548 385.242 254.046 382.947 254.131Z" fill="#93D0FF"/>
<path d="M394.038 246.725L389.456 249.399L382.573 253.402L365.834 263.108L358.952 267.111L354.37 269.785L364.188 275.452L368.771 272.778L375.578 268.831L392.467 259.012L399.275 255.066L403.857 252.392L394.038 246.725Z" fill="#5F98ED"/>
<path d="M364.188 276.387C364.023 276.391 363.86 276.345 363.721 276.256L353.902 270.646C353.758 270.567 353.637 270.45 353.553 270.309C353.469 270.167 353.425 270.006 353.425 269.841C353.425 269.677 353.469 269.515 353.553 269.374C353.637 269.232 353.758 269.116 353.902 269.037L393.533 245.921C393.675 245.839 393.836 245.795 394 245.795C394.165 245.795 394.326 245.839 394.468 245.921L404.287 251.531C404.428 251.613 404.546 251.73 404.628 251.871C404.71 252.012 404.753 252.172 404.754 252.336C404.753 252.501 404.709 252.664 404.627 252.808C404.546 252.952 404.428 253.073 404.287 253.159L364.619 276.2C364.496 276.302 364.347 276.367 364.188 276.387ZM356.24 269.785L364.188 274.367L401.986 252.429L394.038 247.847L356.24 269.785Z" fill="#93D0FF"/>
<path d="M440.383 268.944V256.488L336.116 242.236V254.692L368.546 273.432L373.278 276.163L400.715 292.004L440.383 268.944Z" fill="white"/>
<path d="M400.715 292.939C400.549 292.942 400.387 292.897 400.247 292.808L335.555 255.515C335.416 255.431 335.3 255.313 335.219 255.173C335.137 255.032 335.092 254.873 335.087 254.711V242.236C335.086 242.105 335.114 241.975 335.169 241.855C335.224 241.735 335.305 241.629 335.405 241.544C335.502 241.454 335.618 241.388 335.744 241.349C335.87 241.31 336.004 241.3 336.135 241.32L440.42 255.571C440.642 255.603 440.845 255.712 440.992 255.88C441.14 256.049 441.222 256.264 441.225 256.488V268.944C441.223 269.109 441.18 269.272 441.098 269.416C441.016 269.56 440.899 269.681 440.757 269.767L401.089 292.808C400.976 292.881 400.848 292.926 400.715 292.939ZM337.126 254.169L400.715 290.919L439.448 268.476V257.385L337.051 243.396L337.126 254.169Z" fill="#93D0FF"/>
<path d="M440.383 256.488L412.946 240.647L403.127 234.98L375.765 219.195L336.116 242.236L368.546 260.976L373.278 263.707L400.715 279.548L440.383 256.488Z" fill="white"/>
<path d="M400.715 280.483C400.551 280.478 400.39 280.433 400.247 280.352L335.555 243.078C335.411 242.996 335.291 242.878 335.208 242.735C335.124 242.592 335.081 242.43 335.081 242.264C335.081 242.099 335.124 241.937 335.208 241.794C335.291 241.651 335.411 241.532 335.555 241.451L375.223 218.409C375.365 218.327 375.526 218.284 375.69 218.284C375.855 218.284 376.016 218.327 376.158 218.409L440.776 255.814C440.92 255.893 441.041 256.01 441.124 256.151C441.208 256.293 441.253 256.454 441.253 256.619C441.253 256.783 441.208 256.945 441.124 257.086C441.041 257.228 440.92 257.344 440.776 257.423L401.107 280.483C400.978 280.508 400.844 280.508 400.715 280.483ZM337.967 242.236L400.715 278.463L438.513 256.488L375.784 220.279L337.967 242.236Z" fill="#93D0FF"/>
<path d="M363.459 258.04V270.496L373.278 276.163V263.707L363.459 258.04Z" fill="#5F98ED"/>
<path d="M373.278 277.098C373.113 277.099 372.951 277.054 372.81 276.967L362.991 271.356C362.85 271.275 362.733 271.158 362.651 271.017C362.569 270.876 362.525 270.715 362.524 270.552V258.04C362.525 257.877 362.569 257.717 362.651 257.576C362.733 257.435 362.85 257.318 362.991 257.236C363.134 257.154 363.295 257.111 363.459 257.111C363.623 257.111 363.784 257.154 363.927 257.236L373.746 262.847C373.889 262.925 374.009 263.042 374.092 263.184C374.174 263.325 374.216 263.487 374.213 263.651V276.107C374.218 276.271 374.177 276.434 374.094 276.576C374.012 276.718 373.891 276.834 373.746 276.911C373.612 277.02 373.449 277.085 373.278 277.098ZM364.394 269.954L372.343 274.555V264.249L364.394 259.667V269.954Z" fill="#93D0FF"/>
<path d="M400.715 279.548V292.004L440.383 268.944V256.488L400.715 279.548Z" fill="white"/>
<path d="M400.715 292.939C400.549 292.942 400.387 292.897 400.247 292.808C400.103 292.729 399.983 292.613 399.901 292.471C399.819 292.329 399.776 292.168 399.779 292.004V279.548C399.777 279.381 399.819 279.218 399.901 279.073C399.984 278.928 400.103 278.808 400.247 278.725L439.915 255.683C440.057 255.601 440.219 255.558 440.383 255.558C440.547 255.558 440.708 255.601 440.85 255.683C440.992 255.765 441.109 255.882 441.191 256.023C441.273 256.164 441.317 256.324 441.318 256.488V268.943C441.317 269.109 441.273 269.272 441.191 269.416C441.109 269.56 440.992 269.68 440.85 269.766L401.182 292.808C401.043 292.897 400.88 292.942 400.715 292.939ZM401.65 280.072V290.377L439.448 268.401V258.04L401.65 280.072Z" fill="#93D0FF"/>
<path d="M425.608 258.47C423.12 257.03 423.102 254.73 425.608 253.252L408.383 243.321L380.759 227.368C379.366 228.077 377.824 228.447 376.261 228.447C374.697 228.447 373.156 228.077 371.763 227.368L350.236 239.88C352.724 241.32 352.742 243.62 350.236 245.098L377.86 261.033L395.085 270.982C396.478 270.273 398.02 269.903 399.583 269.903C401.147 269.903 402.688 270.273 404.081 270.982C404.297 271.104 404.503 271.242 404.698 271.394L426.319 258.826L425.608 258.47Z" fill="white"/>
<path d="M404.755 272.329C404.544 272.326 404.34 272.254 404.175 272.123L403.67 271.786C402.416 271.168 401.037 270.846 399.639 270.846C398.242 270.846 396.862 271.168 395.609 271.786C395.467 271.869 395.305 271.912 395.141 271.912C394.977 271.912 394.816 271.869 394.674 271.786L349.787 245.902C349.644 245.82 349.524 245.702 349.441 245.559C349.357 245.416 349.313 245.254 349.313 245.088C349.313 244.923 349.357 244.761 349.441 244.618C349.524 244.475 349.644 244.356 349.787 244.275C350.15 244.121 350.467 243.877 350.71 243.566C350.952 243.255 351.111 242.887 351.171 242.498C351.121 242.091 350.964 241.705 350.718 241.377C350.472 241.049 350.145 240.791 349.769 240.628C349.624 240.549 349.504 240.433 349.42 240.291C349.336 240.15 349.292 239.988 349.292 239.824C349.292 239.659 349.336 239.498 349.42 239.356C349.504 239.215 349.624 239.098 349.769 239.019L371.295 226.507C371.438 226.425 371.599 226.382 371.763 226.382C371.927 226.382 372.088 226.425 372.231 226.507C373.483 227.13 374.863 227.454 376.261 227.454C377.66 227.454 379.039 227.13 380.292 226.507C380.434 226.425 380.595 226.382 380.759 226.382C380.923 226.382 381.084 226.425 381.227 226.507L426.113 252.392C426.257 252.473 426.377 252.592 426.46 252.735C426.543 252.877 426.587 253.04 426.587 253.205C426.587 253.371 426.543 253.533 426.46 253.676C426.377 253.819 426.257 253.937 426.113 254.019C425.75 254.173 425.433 254.417 425.191 254.728C424.949 255.039 424.79 255.406 424.729 255.796C424.78 256.202 424.936 256.589 425.182 256.917C425.428 257.245 425.755 257.503 426.132 257.666L426.749 257.965C426.906 258.036 427.042 258.148 427.141 258.29C427.239 258.431 427.298 258.597 427.31 258.769C427.324 258.943 427.287 259.116 427.204 259.269C427.121 259.422 426.995 259.547 426.842 259.63L405.222 272.198C405.082 272.287 404.92 272.332 404.755 272.329ZM399.63 268.962C401.365 268.933 403.079 269.352 404.605 270.178L404.792 270.29L424.523 258.826C424.03 258.497 423.622 258.056 423.333 257.539C423.043 257.022 422.881 256.444 422.859 255.852C422.867 255.384 422.969 254.924 423.159 254.496C423.348 254.069 423.621 253.684 423.962 253.364L380.778 228.434C379.368 229.062 377.842 229.387 376.298 229.387C374.755 229.387 373.229 229.062 371.819 228.434L351.957 239.973C352.301 240.299 352.578 240.69 352.771 241.123C352.963 241.557 353.068 242.024 353.079 242.498C353.071 242.965 352.969 243.426 352.779 243.854C352.59 244.281 352.316 244.666 351.976 244.986L395.16 269.916C396.544 269.279 398.051 268.954 399.574 268.962H399.63Z" fill="#93D0FF"/>
<path d="M399.144 243.078C394.599 240.46 386.052 241.208 380.011 244.668C373.97 248.128 372.773 253.14 377.318 255.759C381.862 258.377 390.41 257.629 396.45 254.15C402.491 250.671 403.651 245.659 399.144 243.078Z" fill="white"/>
<path d="M403.127 234.979L398.545 237.654L391.663 241.656L374.942 251.382L368.06 255.365L363.459 258.04L373.278 263.707L377.86 261.032L384.668 257.086L401.575 247.267L408.364 243.321L412.946 240.646L403.127 234.979Z" fill="#5F98ED"/>
<path d="M373.278 264.642C373.113 264.643 372.951 264.598 372.81 264.511L362.991 258.9C362.847 258.821 362.727 258.705 362.643 258.564C362.559 258.422 362.514 258.261 362.514 258.096C362.514 257.932 362.559 257.77 362.643 257.629C362.727 257.487 362.847 257.371 362.991 257.292L402.66 234.232C402.802 234.15 402.963 234.106 403.127 234.106C403.291 234.106 403.453 234.15 403.595 234.232L413.414 239.842C413.558 239.921 413.677 240.037 413.76 240.179C413.842 240.321 413.884 240.483 413.881 240.647C413.884 240.813 413.842 240.977 413.759 241.122C413.677 241.266 413.558 241.386 413.414 241.47L373.745 264.511C373.607 264.602 373.444 264.648 373.278 264.642ZM365.329 258.04L373.278 262.622L411.076 240.665L403.127 236.064L365.329 258.04Z" fill="#93D0FF"/>
<path d="M57.0255 130.626L70.7419 138.539V146.935L58.3436 154.089L44.6252 146.175V137.779L57.0255 130.626Z" fill="white"/>
<path d="M58.3436 154.089L44.6252 146.175V137.779L58.3416 145.693L58.3436 154.089Z" fill="#CEE7FD"/>
<g opacity="0.5">
<path opacity="0.5" d="M70.742 146.935L58.3437 154.089L58.3417 145.693L70.742 138.538V146.935Z" fill="#CEE7FD"/>
</g>
<path d="M58.3436 154.716C58.2332 154.716 58.1248 154.687 58.0299 154.63L44.3116 146.716C44.2167 146.661 44.1379 146.582 44.0832 146.487C44.0285 146.392 43.9998 146.284 44 146.175V137.779C44.0001 137.669 44.0289 137.561 44.0835 137.466C44.1382 137.37 44.2168 137.291 44.3116 137.235L56.7119 130.085C56.8071 130.029 56.9153 130 57.0255 130C57.1357 130 57.244 130.029 57.3391 130.085L71.0555 137.997C71.1504 138.052 71.2292 138.131 71.2839 138.226C71.3386 138.321 71.3672 138.429 71.3671 138.538V146.935C71.3673 147.044 71.3383 147.152 71.2832 147.247C71.2282 147.343 71.1489 147.421 71.0535 147.476L58.6532 154.63C58.5597 154.687 58.4527 154.716 58.3436 154.716ZM45.2426 145.814L58.3436 153.367L70.1165 146.574V138.899L57.0275 131.348L45.2545 138.14L45.2426 145.814Z" fill="#93D0FF"/>
<defs>
<linearGradient id="paint0_linear" x1="155.381" y1="387.442" x2="48.2237" y2="264.942" gradientUnits="userSpaceOnUse">
<stop stop-color="#CCE5FB"/>
<stop offset="1" stop-color="#CEE7FD" stop-opacity="0"/>
</linearGradient>
<linearGradient id="paint1_linear" x1="389.647" y1="305.172" x2="450.741" y2="259.189" gradientUnits="userSpaceOnUse">
<stop stop-color="#CCE5FB"/>
<stop offset="1" stop-color="#CEE7FD" stop-opacity="0"/>
</linearGradient>
</defs>
</svg>
