<svg width="128" height="85" viewBox="0 0 128 85" fill="none" xmlns="http://www.w3.org/2000/svg">
<path d="M126.165 55.8478L61.6506 19.7183C60.2858 19.0308 58.7765 18.6725 57.2455 18.6725C55.7145 18.6725 54.2051 19.0308 52.8404 19.7183L19.7502 38.7628C17.3236 40.129 17.3374 42.4242 19.7502 43.8177L84.2642 79.9608C85.6289 80.6483 87.1383 81.0067 88.6693 81.0067C90.2003 81.0067 91.7096 80.6483 93.0744 79.9608L126.165 60.9027C128.619 59.5092 128.605 57.2413 126.165 55.8478Z" fill="url(#paint0_linear)"/>
<path d="M84.1956 30.7531L84.1956 30.753C82.3269 29.6391 80.2669 28.8833 78.1212 28.5242L77.5965 28.4364L77.3946 27.9443C73.3393 18.0643 66.1352 8.89589 57.9783 4.18477L84.1956 30.7531ZM84.1956 30.7531L84.207 30.7596M84.1956 30.7531L84.207 30.7596M84.207 30.7596C89.1013 33.5865 93.5899 38.4733 96.8571 44.1235C100.124 49.7737 102.118 56.0976 102.118 61.7441C102.118 67.2114 98.2051 73.7768 92.9176 78.2897C90.2934 80.5295 87.3974 82.2028 84.5893 82.97C81.7895 83.735 79.1297 83.5891 76.8681 82.2826L76.8661 82.2815L11.9694 45.0004C11.9692 45.0003 11.969 45.0001 11.9687 45C10.2318 43.9975 9.06626 42.3379 8.31145 40.1646C7.55262 37.9797 7.23146 35.3356 7.15564 32.4786C7.07998 29.6276 7.24921 26.6235 7.44064 23.7307C7.4672 23.3294 7.49423 22.9297 7.52108 22.5327C7.68639 20.0884 7.84492 17.7444 7.84492 15.731C7.84492 11.7071 10.9597 8.61291 15.3289 7.05412C19.6836 5.50051 24.9319 5.62552 28.6242 7.75279C29.669 8.38218 30.3744 9.17519 31.0586 10.1181C31.2664 10.4045 31.4822 10.7209 31.7097 11.0545C32.1999 11.7732 32.7447 12.5721 33.3828 13.3245L34.7158 14.8964M84.207 30.7596L34.7158 14.8964M34.7158 14.8964L35.055 12.8635M34.7158 14.8964L35.055 12.8635M35.055 12.8635C35.9689 7.38575 38.9851 3.69715 43.0379 2.10982M35.055 12.8635L43.0379 2.10982M43.0379 2.10982C47.1119 0.514218 52.4108 0.974385 57.9778 4.18445L43.0379 2.10982Z" fill="white" stroke="#93D0FF" stroke-width="1.91209"/>
<path d="M69.5287 39.439L69.5288 39.4389C67.66 38.325 65.6 37.5692 63.4543 37.2101L62.9297 37.1224L62.7277 36.6302C58.6725 26.7502 51.4683 17.5818 43.3115 12.8707L69.5287 39.439ZM69.5287 39.439L69.5401 39.4456M69.5287 39.439L69.5401 39.4456M69.5401 39.4456C74.4344 42.2724 78.923 47.1592 82.1902 52.8094C85.4575 58.4597 87.4513 64.7835 87.4513 70.43C87.4513 76.0822 85.4694 79.7979 82.5408 81.4826C79.6113 83.1678 75.3944 83.0168 70.4934 80.1855L70.4931 80.1853L14.9175 48.0987L14.9172 48.0986C11.1097 45.9016 7.60862 42.0929 5.05724 37.6769C2.50584 33.2608 0.956044 28.3272 0.956044 23.9351C0.956044 19.537 2.4941 16.702 4.70707 15.4271C6.91917 14.1527 10.1458 14.241 13.9574 16.4388C16.2735 17.8314 18.3466 19.5931 20.0946 21.6543L21.4275 23.2261M69.5401 39.4456L21.4275 23.2261M21.4275 23.2261L21.7667 21.1933M21.4275 23.2261L21.7667 21.1933M21.7667 21.1933C22.6892 15.6647 25.3944 12.095 29.0691 10.6142M21.7667 21.1933L29.0691 10.6142M29.0691 10.6142C32.7689 9.1233 37.7134 9.64272 43.3109 12.8704L29.0691 10.6142Z" fill="white" stroke="#93D0FF" stroke-width="1.91209"/>
<path d="M50.9284 44.2878L40.3535 25.9412C39.7869 24.9521 38.8563 24.4177 38.2846 24.7491L27.7097 30.851C27.2944 31.0925 27.1663 31.7425 27.3944 32.5106C27.6119 33.26 28.0903 33.9063 28.7429 34.3322L32.3755 36.4338V51.6819C32.4026 52.1898 32.5488 52.6841 32.8023 53.1246C33.0557 53.5652 33.4093 53.9397 33.8342 54.2177L44.8065 60.5662C45.614 61.0338 46.2677 60.6587 46.2677 59.7209V44.4728L49.9004 46.5744C50.4874 46.9161 51.0232 46.8107 51.2488 46.3175C51.4744 45.8242 51.3514 45.0123 50.9284 44.2878Z" fill="#5F98ED"/>
<defs>
<linearGradient id="paint0_linear" x1="73.8695" y1="77.1805" x2="118.609" y2="43.1966" gradientUnits="userSpaceOnUse">
<stop stop-color="#CCE5FB"/>
<stop offset="1" stop-color="#CEE7FD" stop-opacity="0"/>
</linearGradient>
</defs>
</svg>
