<svg width="390" height="337" viewBox="0 0 390 337" fill="none" xmlns="http://www.w3.org/2000/svg">
<path d="M369.022 203.486L388.233 214.568V226.328L370.868 236.348L351.653 225.264V213.504L369.022 203.486Z" fill="white"/>
<path d="M370.868 236.348L351.653 225.263V213.504L370.865 224.588L370.868 236.348Z" fill="#CEE7FD"/>
<g opacity="0.5">
<path opacity="0.5" d="M388.233 226.328L370.868 236.348L370.865 224.588L388.233 214.568V226.328Z" fill="#CEE7FD"/>
</g>
<path d="M370.868 237.226C370.713 237.227 370.561 237.185 370.428 237.107L351.214 226.022C351.081 225.945 350.971 225.834 350.894 225.701C350.817 225.568 350.777 225.417 350.777 225.264V213.504C350.778 213.35 350.818 213.199 350.894 213.065C350.971 212.932 351.081 212.82 351.214 212.742L368.582 202.727C368.716 202.649 368.867 202.608 369.021 202.608C369.176 202.608 369.328 202.649 369.461 202.727L388.672 213.809C388.805 213.886 388.916 213.997 388.992 214.13C389.069 214.263 389.109 214.414 389.109 214.568V226.328C389.109 226.481 389.069 226.633 388.991 226.766C388.914 226.899 388.803 227.01 388.67 227.086L371.301 237.107C371.17 237.185 371.02 237.227 370.868 237.226ZM352.518 224.758L370.868 235.337L387.357 225.822V215.073L369.024 204.497L352.535 214.009L352.518 224.758Z" fill="#93D0FF"/>
<path d="M174.309 278.122L314.543 197.161C318.161 195.075 318.163 191.687 314.543 189.596L312.213 188.245C308.595 186.162 308.597 182.778 312.213 180.685L243.072 220.601C246.69 218.515 252.557 218.51 256.166 220.601L258.5 221.956C262.119 224.04 267.981 224.037 271.595 221.956C275.218 219.865 281.078 219.87 284.689 221.956L293.575 227.084L368.896 270.403C372.51 272.492 372.503 275.876 368.896 277.966L271.595 334.127C267.965 336.216 262.109 336.22 258.489 334.127L183.175 290.803L174.286 285.68C170.68 283.599 170.684 280.212 174.309 278.122Z" fill="url(#paint0_linear)"/>
<path d="M75.5508 212.486L215.784 131.525C219.402 129.439 219.404 126.051 215.784 123.96L213.455 122.609C209.836 120.526 209.839 117.142 213.455 115.049L144.313 154.965C147.931 152.879 153.799 152.874 157.408 154.965L159.742 156.32C163.36 158.404 169.223 158.401 172.836 156.32C176.459 154.23 182.319 154.234 185.931 156.32L194.817 161.448L270.138 204.768C273.751 206.856 273.744 210.24 270.138 212.33L172.836 268.492C169.206 270.58 163.351 270.584 159.73 268.492L84.416 225.167L75.5278 220.044C71.921 217.963 71.9256 214.577 75.5508 212.486Z" fill="url(#paint1_linear)"/>
<path d="M3.26334 148.344L143.497 67.3827C147.115 65.2968 147.117 61.9083 143.497 59.8178L141.167 58.467C137.549 56.3834 137.551 52.9994 141.167 50.9066L72.0257 90.8224C75.644 88.7364 81.5112 88.7318 85.1203 90.8224L87.4543 92.1778C91.0725 94.2614 96.9352 94.2591 100.549 92.1778C104.172 90.0872 110.032 90.0918 113.643 92.1778L122.529 97.3053L197.85 140.625C201.464 142.713 201.457 146.097 197.85 148.188L100.549 204.349C96.9191 206.437 91.0633 206.442 87.4428 204.349L12.1286 161.025L3.24034 155.902C-0.366394 153.82 -0.361771 150.434 3.26334 148.344Z" fill="url(#paint2_linear)"/>
<path d="M104.338 212.772C104.377 212.805 104.42 212.832 104.466 212.855L104.563 212.9C105.56 213.387 106.887 213.289 108.357 212.442L196.495 161.551C198.121 160.491 199.475 159.063 200.447 157.383C201.419 155.703 201.981 153.817 202.088 151.879V88.1071C202.088 86.4502 201.533 85.2881 200.649 84.6583L200.521 84.5833C200.461 84.5383 200.394 84.5084 200.334 84.4709L181.935 73.8472C180.916 73.1799 179.476 73.2099 177.857 74.1396L89.7112 125.031C88.0831 126.089 86.7278 127.516 85.7559 129.197C84.7839 130.878 84.2228 132.764 84.1181 134.703V198.482C84.1181 200.297 84.7779 201.549 85.8275 202.111L104.338 212.772Z" fill="#5F98ED"/>
<g style="mix-blend-mode:overlay" opacity="0.3">
<path d="M102.756 209.241V145.454C102.862 143.515 103.424 141.628 104.396 139.946C105.368 138.264 106.722 136.835 108.35 135.775L196.495 84.876C197.995 84.0138 199.344 83.9238 200.349 84.4486L181.95 73.825C180.931 73.1577 179.491 73.1877 177.872 74.1174L89.7262 125.009C88.0981 126.067 86.7429 127.494 85.771 129.175C84.799 130.855 84.2379 132.742 84.1332 134.681V198.46C84.1332 200.274 84.793 201.526 85.8426 202.089L104.346 212.765C103.364 212.18 102.756 210.958 102.756 209.241Z" fill="#5F98ED"/>
</g>
<g style="mix-blend-mode:overlay" opacity="0.2">
<path d="M94.4495 204.42V140.648C94.5554 138.71 95.117 136.824 96.0888 135.143C97.0606 133.463 98.4152 132.035 100.042 130.977L188.188 80.0849C189.808 79.1478 191.247 79.1253 192.267 79.7926L191.262 79.2153C190.242 78.5405 188.803 78.5705 187.176 79.5002L99.0378 130.399C97.4085 131.456 96.0524 132.883 95.0803 134.564C94.1082 136.245 93.5478 138.132 93.4449 140.071V203.843C93.4449 205.665 94.1047 206.917 95.1543 207.479L96.1664 208.056C95.1093 207.501 94.4495 206.242 94.4495 204.42Z" fill="#5F98ED"/>
</g>
<path d="M105.875 214.264C106.936 214.228 107.969 213.918 108.874 213.364L197.013 162.48C198.806 161.329 200.298 159.765 201.363 157.92C202.429 156.074 203.037 154 203.138 151.872V88.1071C203.187 87.3309 203.062 86.5536 202.771 85.8322C202.481 85.1108 202.032 84.4637 201.458 83.9386C201.383 83.8457 201.292 83.767 201.188 83.7062L201.061 83.6312C200.992 83.5858 200.919 83.5457 200.844 83.5112L182.453 72.8951L182.363 72.8501C180.961 72.0104 179.131 72.1004 177.295 73.1875L89.1415 124.087C87.3472 125.236 85.8541 126.798 84.7871 128.642C83.7202 130.486 83.1103 132.559 83.0086 134.688V198.467C83.0086 200.634 83.8258 202.261 85.2578 203.048L103.731 213.664C103.811 213.724 103.897 213.777 103.986 213.822L104.099 213.874L104.241 213.927C104.756 214.152 105.313 214.267 105.875 214.264ZM199.914 85.438C199.946 85.4738 199.984 85.5041 200.026 85.528C200.381 85.8509 200.654 86.2525 200.825 86.7005C200.995 87.1485 201.058 87.6303 201.009 88.1071V151.872C200.899 153.62 200.386 155.319 199.509 156.836C198.632 158.353 197.416 159.646 195.955 160.613L107.817 211.49C106.738 212.12 105.748 212.24 105.036 211.917L104.953 211.88L104.878 211.835L86.3749 201.159C85.6252 200.746 85.2054 199.794 85.1979 198.452V134.688C85.3079 132.94 85.8215 131.242 86.6982 129.727C87.575 128.211 88.7911 126.92 90.251 125.953L178.404 75.0393C179.589 74.3571 180.653 74.2446 181.358 74.7169C181.413 74.7538 181.471 74.7864 181.531 74.8144L199.809 85.3631L199.914 85.438Z" fill="#93D0FF"/>
<path d="M126.066 111.686V102.907C126.14 101.613 126.518 100.355 127.169 99.2349C127.821 98.1147 128.727 97.1637 129.814 96.459L153.806 82.6265V91.3909L157.554 93.5426L161.303 91.3909V82.619C161.303 80.2574 160.471 78.6005 159.136 77.8208L155.388 75.6315C154.038 74.8818 152.194 74.9943 150.139 76.1714L126.148 90.0039C122.04 92.373 118.651 98.1609 118.651 102.899V111.679L122.399 113.83L126.066 111.686Z" fill="white"/>
<path d="M153.753 82.6265V91.3908L157.502 93.5426V84.7857C157.479 82.4016 155.807 81.4344 153.753 82.6265ZM122.339 105.066V113.838L118.591 111.686V102.907C118.591 98.1684 121.942 92.4104 126.088 90.0113L150.079 76.1788C152.119 75.0018 153.963 74.8818 155.327 75.639L159.076 77.8282C157.727 77.041 155.852 77.1385 153.828 78.3381L129.837 92.1705C125.683 94.5322 122.339 100.328 122.339 105.066Z" fill="#CEE7FD"/>
<path d="M122.339 114.91C122.529 114.912 122.715 114.862 122.879 114.767L126.628 112.616C126.792 112.522 126.928 112.387 127.023 112.223C127.118 112.06 127.168 111.875 127.168 111.686V102.907C127.237 101.804 127.56 100.733 128.113 99.7769C128.666 98.8208 129.433 98.0059 130.354 97.3961L152.711 84.4858V91.3908C152.71 91.579 152.758 91.7641 152.852 91.9275C152.945 92.0908 153.08 92.2263 153.243 92.3204L156.992 94.4722C157.156 94.5677 157.342 94.618 157.532 94.618C157.721 94.618 157.908 94.5677 158.072 94.4722L161.82 92.3279C161.984 92.2342 162.12 92.0989 162.215 91.9356C162.31 91.7724 162.36 91.587 162.36 91.3983V82.6189C162.36 80.0099 161.445 78.0081 159.773 76.966L159.653 76.8835L155.905 74.7018L155.77 74.6343C154.038 73.7272 151.856 73.9446 149.607 75.2416L125.616 89.0816C121.207 91.6232 117.624 97.8234 117.624 102.907V111.686C117.624 111.874 117.673 112.058 117.766 112.221C117.86 112.385 117.994 112.52 118.156 112.616L121.905 114.767C122.038 114.845 122.186 114.894 122.339 114.91ZM124.986 111.064L122.339 112.563L119.685 111.064V102.907C119.685 98.5807 122.849 93.1076 126.598 90.9109L150.589 77.0784C152.209 76.1413 153.693 75.9539 154.758 76.5461L154.855 76.5986L158.416 78.6529L158.514 78.7203C159.571 79.3351 160.156 80.7071 160.156 82.589V90.7835L157.509 92.283L154.863 90.7835V82.6264C154.863 82.4375 154.814 82.2519 154.719 82.0885C154.624 81.9251 154.487 81.7899 154.323 81.6968C154.16 81.6027 153.975 81.5531 153.787 81.5531C153.599 81.5531 153.414 81.6027 153.251 81.6968L129.26 95.5368C128.01 96.3359 126.971 97.4228 126.229 98.7065C125.487 99.9901 125.063 101.433 124.994 102.914L124.986 111.064Z" fill="#93D0FF"/>
<path d="M115.142 125.084V123.584C115.127 123.462 115.082 123.346 115.012 123.245C114.941 123.144 114.847 123.063 114.737 123.007L108.552 119.438C108.245 119.283 107.906 119.202 107.562 119.202C107.218 119.202 106.879 119.283 106.573 119.438L103.664 121.118C103.551 121.168 103.453 121.247 103.38 121.347C103.308 121.447 103.263 121.564 103.251 121.687V123.127C103.243 123.258 103.276 123.389 103.346 123.501C103.416 123.612 103.519 123.699 103.641 123.749L109.826 127.325C110.132 127.484 110.471 127.567 110.816 127.567C111.161 127.567 111.5 127.484 111.806 127.325L114.715 125.646C114.829 125.594 114.927 125.513 114.998 125.41C115.07 125.307 115.111 125.186 115.119 125.061L115.142 125.084Z" fill="white"/>
<path d="M110.839 128.668C111.363 128.666 111.879 128.532 112.338 128.278L115.239 126.598C115.517 126.457 115.752 126.242 115.918 125.978C116.084 125.715 116.176 125.411 116.184 125.099V123.599C116.175 123.289 116.084 122.986 115.919 122.722C115.755 122.459 115.522 122.244 115.247 122.1L109.062 118.524C108.591 118.276 108.068 118.147 107.536 118.147C107.004 118.147 106.481 118.276 106.01 118.524L103.094 120.211C102.817 120.353 102.582 120.567 102.416 120.831C102.25 121.095 102.158 121.398 102.149 121.71V123.149C102.142 123.222 102.142 123.295 102.149 123.367C102.183 123.648 102.285 123.918 102.445 124.151C102.606 124.385 102.821 124.576 103.071 124.709L109.257 128.278C109.738 128.551 110.285 128.686 110.839 128.668ZM114.07 124.806L111.288 126.418C111.147 126.481 110.994 126.514 110.839 126.514C110.684 126.514 110.53 126.481 110.389 126.418L104.331 122.917V122.002L107.105 120.39C107.398 120.27 107.726 120.27 108.02 120.39L114.07 123.892V124.806Z" fill="#93D0FF"/>
<path d="M163 265.396C163 270.136 166.328 272.047 170.442 269.675L255.543 220.538C259.64 218.179 262.973 212.418 262.973 207.678V88.2986C262.973 83.5631 259.632 81.6471 255.535 84.0149L170.429 133.148C166.328 135.524 163 141.285 163 146.02V265.396Z" fill="white"/>
<path d="M166.94 271C168.372 270.956 169.768 270.538 170.989 269.788L256.09 220.651C260.656 218.044 264.236 211.827 264.236 206.549V87.1689C264.236 84.3493 263.211 82.203 261.343 81.1256C259.475 80.0481 257.098 80.2306 254.657 81.647L169.547 130.775C164.98 133.421 161.405 139.621 161.405 144.891V264.266C161.405 267.081 162.422 269.228 164.285 270.305C165.092 270.77 166.009 271.01 166.94 271ZM258.693 83.3153C259.119 83.3059 259.54 83.4093 259.913 83.615C260.843 84.1537 261.373 85.4528 261.373 87.1819V206.562C261.373 210.767 258.302 216.089 254.661 218.183L169.56 267.307C168.048 268.176 166.653 268.367 165.719 267.829C164.785 267.29 164.264 265.995 164.264 264.266V144.891C164.264 140.69 167.34 135.363 170.98 133.256L256.086 84.1277C256.868 83.6309 257.767 83.3465 258.693 83.3022V83.3153Z" fill="#93D0FF"/>
<path d="M179.796 156.356C179.83 155.737 180.009 155.135 180.318 154.597C180.628 154.06 181.059 153.603 181.577 153.263L202.431 141.246C203.417 140.663 204.212 141.133 204.212 142.267C204.18 142.887 204.001 143.49 203.69 144.027C203.379 144.564 202.944 145.02 202.422 145.356L181.568 157.386C180.578 157.955 179.787 157.49 179.791 156.356H179.796ZM179.237 148.254C179.237 149.388 180.036 149.848 181.027 149.284L195.751 140.781C196.269 140.44 196.701 139.983 197.011 139.445C197.321 138.907 197.501 138.304 197.536 137.684C197.536 136.554 196.737 136.094 195.751 136.671L181.018 145.169C180.501 145.509 180.07 145.964 179.761 146.5C179.451 147.036 179.272 147.636 179.237 148.254ZM179.77 164.585C179.805 163.966 179.984 163.365 180.293 162.829C180.603 162.292 181.033 161.836 181.551 161.496L202.405 149.466C203.382 148.905 204.182 149.357 204.186 150.491C204.156 151.112 203.979 151.717 203.668 152.256C203.357 152.794 202.923 153.251 202.4 153.589L181.546 165.61C180.56 166.188 179.765 165.727 179.761 164.585H179.77ZM179.77 181.042C179.805 180.424 179.985 179.824 180.296 179.289C180.606 178.754 181.037 178.299 181.555 177.961L202.409 165.927C203.387 165.358 204.182 165.814 204.186 166.952C204.153 167.573 203.974 168.178 203.664 168.717C203.354 169.256 202.921 169.714 202.4 170.054L181.546 182.076C180.56 182.649 179.765 182.184 179.761 181.042H179.77ZM179.795 172.589C179.795 173.74 180.586 174.196 181.577 173.619L192.438 167.358C192.956 167.018 193.388 166.561 193.697 166.023C194.006 165.486 194.185 164.884 194.219 164.265C194.219 163.126 193.424 162.662 192.438 163.248L181.577 169.5C181.06 169.841 180.63 170.297 180.32 170.834C180.011 171.37 179.831 171.971 179.795 172.589ZM179.77 201.739C179.805 201.122 179.984 200.521 180.293 199.985C180.603 199.45 181.034 198.994 181.551 198.655L248.983 159.723C249.973 159.154 250.773 159.614 250.773 160.744C250.738 161.363 250.559 161.965 250.251 162.503C249.942 163.041 249.513 163.499 248.996 163.842L181.555 202.769C180.569 203.342 179.774 202.882 179.77 201.739ZM179.243 219.754C179.278 219.136 179.458 218.535 179.77 218C180.081 217.465 180.513 217.01 181.033 216.674L236.07 184.898C237.06 184.337 237.855 184.789 237.855 185.914C237.823 186.536 237.644 187.141 237.333 187.68C237.022 188.219 236.587 188.677 236.066 189.016L181.024 220.797C180.038 221.357 179.243 220.897 179.243 219.754ZM179.795 209.708C179.795 210.855 180.599 211.316 181.576 210.751L224.227 186.122C224.745 185.782 225.176 185.325 225.486 184.789C225.796 184.253 225.976 183.651 226.012 183.033C226.012 181.899 225.213 181.434 224.235 182.007L181.576 206.637C181.06 206.974 180.63 207.427 180.32 207.961C180.011 208.494 179.831 209.093 179.795 209.708ZM179.77 230.544C179.802 229.927 179.981 229.326 180.29 228.792C180.6 228.257 181.032 227.803 181.551 227.468L248.983 188.527C249.973 187.954 250.773 188.423 250.773 189.553C250.737 190.172 250.556 190.774 250.245 191.31C249.934 191.847 249.502 192.303 248.983 192.642L181.551 231.578C180.569 232.151 179.77 231.686 179.77 230.544ZM179.388 248.421C179.422 247.802 179.601 247.201 179.91 246.664C180.22 246.128 180.651 245.671 181.169 245.332L236.214 213.56C237.201 212.987 237.991 213.443 238 214.577C237.969 215.197 237.792 215.801 237.481 216.339C237.171 216.877 236.736 217.333 236.214 217.67L181.178 249.446C180.191 250.011 179.388 249.555 179.388 248.421ZM179.243 239.5C179.243 240.638 180.051 241.103 181.024 240.538L223.684 215.909C224.202 215.57 224.633 215.113 224.942 214.577C225.252 214.04 225.431 213.438 225.465 212.82C225.465 211.677 224.661 211.217 223.675 211.795L181.02 236.42C180.505 236.76 180.076 237.215 179.767 237.75C179.459 238.284 179.279 238.884 179.243 239.5Z" fill="#EB5757"/>
<path d="M240.331 127.834C244.493 126.787 247.813 128.464 249.303 132.226C246.37 138.269 241.808 143.717 236.656 146.685C231.503 149.652 226.941 149.483 224 146.837C225.577 141.183 228.679 136.073 232.967 132.065C231.395 131.631 230.361 130.128 230.361 127.721C230.361 123.737 233.167 118.862 236.647 116.859C240.127 114.856 242.938 116.473 242.938 120.483C242.938 122.885 241.904 125.601 240.331 127.834Z" fill="#5F98ED"/>
<path d="M366.189 3.22022C370.887 5.93355 373.885 10.0035 374.107 13.4348C374.348 14.6516 374.467 15.8895 374.46 17.13V256.737C374.46 267.131 367.16 279.768 358.149 284.973L273.16 334.024C272.032 334.678 270.837 335.209 269.596 335.608C266.492 336.922 261.678 336.305 257.154 333.692C254.979 332.467 253.065 330.828 251.521 328.867C249.737 326.882 248.692 323.836 248.687 319.893V80.3019C248.687 69.9078 255.987 57.2703 264.998 52.0654L349.993 3.00907C351.075 2.38056 352.218 1.86239 353.403 1.46237C356.486 -0.0526597 361.501 0.517456 366.189 3.22022Z" fill="#3199F0"/>
<g style="mix-blend-mode:overlay" opacity="0.3">
<path d="M248.718 80.3019C248.718 69.9078 256.019 57.2703 265.03 52.0654L349.993 3.00907C351.075 2.38056 352.218 1.86239 353.403 1.46237C356.486 -0.0526597 361.501 0.517456 366.189 3.22022C370.876 5.92299 373.885 10.0035 374.107 13.4348C372.56 5.80157 366.004 3.17271 358.149 7.71252L273.16 56.7688C264.149 61.9685 256.848 74.606 256.848 85.0001V324.607C256.848 333.581 262.311 337.936 269.612 335.592C266.508 336.906 261.694 336.289 257.17 333.676C254.995 332.451 253.081 330.812 251.537 328.851C249.753 326.866 248.708 323.82 248.703 319.877L248.718 80.3019Z" fill="#5F98ED"/>
</g>
<path d="M266.001 336.896C267.318 336.918 268.626 336.679 269.85 336.194C271.125 335.783 272.351 335.234 273.508 334.557L358.46 285.501C367.635 280.222 375.089 267.3 375.083 256.726V17.1194C375.096 15.8532 374.982 14.5889 374.746 13.345C374.476 9.59173 371.251 5.42672 366.516 2.67645C361.781 -0.0738315 356.565 -0.760075 353.187 0.876366C351.971 1.28477 350.801 1.81537 349.692 2.46002L264.735 51.511C255.565 56.7899 248.106 69.7178 248.106 80.2913V319.898C248.106 323.852 249.162 327.093 251.105 329.273C252.7 331.285 254.672 332.967 256.911 334.225C259.664 335.876 262.793 336.795 266.001 336.896ZM365.877 3.76389C370.211 6.26607 373.268 10.1671 373.484 13.4717C373.481 13.4998 373.481 13.5281 373.484 13.5561C373.717 14.7294 373.832 15.9231 373.827 17.1194V256.726C373.827 266.898 366.658 279.325 357.832 284.419L272.843 333.47C271.756 334.108 270.601 334.625 269.401 335.011H269.348C266.323 336.294 261.657 335.539 257.466 333.132C255.363 331.945 253.511 330.36 252.013 328.466C250.234 326.481 249.31 323.53 249.304 319.887V80.3018C249.304 70.1242 256.484 57.7031 265.305 52.609L350.294 3.55274C351.34 2.9431 352.445 2.4425 353.593 2.05882L353.672 2.02715C356.639 0.564911 361.538 1.267 365.867 3.76389H365.877Z" fill="#93D0FF"/>
<path d="M374.624 19.1042V258.711C374.624 268.049 368.041 279.441 359.938 284.123L274.975 333.174C266.883 337.846 260.295 334.051 260.295 324.728V85.1055C260.295 75.7673 266.883 64.3702 274.97 59.6985L359.965 10.6422C368.047 5.95456 374.629 9.76589 374.624 19.1042Z" fill="#CEE7FD"/>
<path d="M268.44 335.803C270.873 335.713 273.24 334.985 275.303 333.692L360.26 284.678C368.527 279.895 375.258 268.255 375.252 258.721V19.1042C375.252 14.3532 373.616 10.7953 370.644 9.07436C367.672 7.35346 363.755 7.7177 359.637 10.0985L274.648 59.1495C266.381 63.9268 259.656 75.5667 259.656 85.1003V324.707C259.656 329.458 261.298 333.011 264.27 334.737C265.541 335.456 266.98 335.824 268.44 335.803ZM366.495 9.2644C367.722 9.25393 368.929 9.56905 369.995 10.1776C372.565 11.661 373.98 14.8389 373.98 19.12V258.727C373.98 267.859 367.535 279.019 359.611 283.595L274.653 332.646C270.958 334.795 267.469 335.154 264.898 333.665C262.327 332.177 260.907 329.009 260.907 324.728V85.1055C260.907 75.9679 267.353 64.8137 275.276 60.2422L360.266 11.1859C362.139 10.0144 364.287 9.35208 366.495 9.2644Z" fill="#93D0FF"/>
<path d="M274.975 64.4019L359.965 15.3456C365.772 11.9777 370.522 14.7122 370.522 21.4585V261.065C370.522 267.806 365.771 276.041 359.923 279.414L274.975 328.492C269.126 331.87 264.37 329.131 264.365 322.39V82.7512C264.386 76.0048 269.142 67.7751 274.975 64.4019Z" fill="white"/>
<path d="M252.889 137.704L251.305 138.628C251.056 138.743 250.781 138.79 250.508 138.763C250.235 138.736 249.975 138.636 249.753 138.475C249.116 138.058 248.585 137.497 248.203 136.838C247.822 136.179 247.601 135.44 247.557 134.679V110.354C247.528 110.083 247.572 109.809 247.684 109.56C247.796 109.311 247.973 109.097 248.196 108.94L249.779 108.01H249.811C250.056 107.906 250.324 107.867 250.588 107.897C250.853 107.926 251.105 108.024 251.321 108.179C251.959 108.595 252.49 109.156 252.87 109.815C253.251 110.475 253.471 111.215 253.512 111.975V136.295C253.538 136.56 253.496 136.828 253.389 137.072C253.281 137.316 253.113 137.528 252.899 137.688H252.868L252.889 137.704Z" fill="#CEE7FD"/>
<path d="M250.693 139.398C251.002 139.402 251.306 139.324 251.574 139.171L253.158 138.264L253.216 138.237L253.29 138.179C253.581 137.961 253.813 137.673 253.963 137.342C254.113 137.01 254.178 136.647 254.15 136.284V111.964C254.109 111.095 253.861 110.247 253.427 109.493C252.993 108.738 252.385 108.098 251.653 107.625C251.357 107.428 251.018 107.305 250.664 107.266C250.311 107.227 249.953 107.275 249.621 107.403H249.558L249.473 107.451L247.89 108.375C247.571 108.588 247.314 108.882 247.146 109.227C246.978 109.572 246.905 109.956 246.934 110.338V134.658C246.976 135.527 247.225 136.374 247.661 137.128C248.096 137.882 248.705 138.521 249.436 138.992C249.813 139.235 250.246 139.375 250.693 139.398ZM252.503 137.187L250.92 138.089C250.765 138.14 250.6 138.152 250.439 138.125C250.278 138.099 250.126 138.034 249.996 137.936C249.452 137.575 249 137.093 248.674 136.528C248.348 135.963 248.157 135.33 248.117 134.679V110.354C248.096 110.193 248.115 110.028 248.172 109.876C248.229 109.723 248.322 109.586 248.444 109.478L249.991 108.586L250.075 108.549C250.228 108.504 250.389 108.495 250.546 108.523C250.703 108.552 250.851 108.617 250.978 108.713C251.52 109.073 251.971 109.555 252.296 110.119C252.621 110.683 252.811 111.315 252.852 111.964V136.284C252.873 136.442 252.856 136.603 252.802 136.752C252.748 136.902 252.658 137.037 252.54 137.144L252.503 137.171V137.187Z" fill="#93D0FF"/>
<path d="M351.18 117.315L360.982 122.959C361.178 123.102 361.333 123.294 361.432 123.517C361.531 123.739 361.57 123.983 361.545 124.225V173.827C361.545 196.835 327.574 234.255 326.095 235.836C325.868 236.088 325.604 236.304 325.312 236.477C325.077 236.623 324.811 236.712 324.536 236.736C323.596 236.792 308.927 237.569 298.764 231.796L288.861 226.079C283.442 222.961 279.334 217.97 279.334 209.974V160.367C279.392 159.686 279.606 159.028 279.958 158.443C280.31 157.857 280.792 157.361 281.366 156.991C294.927 149.164 307.565 138.084 314.362 128.068C315.054 127.055 316.011 126.509 316.703 126.723C323.495 128.884 336.127 125.373 349.801 117.478C349.987 117.321 350.215 117.221 350.456 117.19C350.698 117.159 350.943 117.199 351.163 117.304L351.18 117.315Z" fill="white"/>
<path d="M326.697 236.376C326.416 236.685 326.092 236.95 325.734 237.164C325.393 237.372 325.008 237.497 324.609 237.53M326.697 236.376L324.609 237.53M326.697 236.376C328.154 234.784 362.338 197.162 362.332 173.815V124.225L326.697 236.376ZM324.609 237.53L324.596 237.37C324.597 237.369 324.598 237.369 324.599 237.369C324.601 237.369 324.602 237.369 324.603 237.369L324.609 237.53ZM298.44 232.436L298.445 232.439L298.365 232.578L298.434 232.433L298.44 232.436ZM288.542 226.722L288.548 226.725L288.554 226.729L288.461 226.861L288.542 226.722ZM278.69 160.451V160.457C278.69 160.459 278.69 160.461 278.69 160.463L278.53 160.451H278.69ZM281.052 156.524C281.051 156.525 281.05 156.525 281.05 156.526C281.049 156.527 281.048 156.527 281.047 156.528L280.966 156.389L281.052 156.524ZM316.909 126.156C316.909 126.156 316.908 126.156 316.908 126.156C316.908 126.156 316.908 126.156 316.907 126.156L316.956 126.003L316.909 126.156ZM351.54 116.795H351.531L351.493 116.773L351.54 116.693L351.574 116.634V116.795H351.54ZM361.273 122.4L361.269 122.398C361.268 122.397 361.267 122.397 361.266 122.396L361.353 122.261L361.273 122.4ZM351.186 118.017L351.142 118.04L360.633 123.516C360.633 123.517 360.634 123.517 360.634 123.517C360.728 123.57 360.79 123.674 360.829 123.783C360.869 123.899 360.892 124.046 360.889 124.221V173.827C360.889 179.544 358.767 186.154 355.576 192.867C352.383 199.583 348.112 206.416 343.799 212.585C335.178 224.912 326.378 234.597 325.64 235.397C325.467 235.597 325.267 235.771 325.045 235.915L325.043 235.916C324.895 236.009 324.727 236.067 324.553 236.086L324.553 236.086L324.546 236.086C324.228 236.106 320.391 236.322 315.379 235.82C310.371 235.319 304.173 234.099 299.14 231.241L299.039 231.193L299.039 231.193L299.027 231.187L289.287 225.56L289.285 225.558L289.231 225.526C289.231 225.526 289.23 225.526 289.23 225.525C283.128 222.015 280.023 216.781 280.023 209.98V160.367V160.358L280.024 160.348C280.089 159.789 280.275 159.25 280.569 158.77C280.863 158.289 281.258 157.878 281.727 157.566L281.727 157.566L281.736 157.561C295.371 149.692 308.096 138.532 314.944 128.445L314.944 128.445L314.947 128.441C315.237 128.037 315.547 127.741 315.823 127.557C315.961 127.466 316.094 127.399 316.216 127.362C316.331 127.327 316.456 127.313 316.565 127.354C320.017 128.463 324.96 128.136 330.784 126.525C336.604 124.916 343.281 122.031 350.19 118.05C350.343 117.95 350.477 117.887 350.591 117.856C350.701 117.826 350.817 117.82 350.912 117.871L351.186 118.017Z" fill="#93D0FF" stroke="#93D0FF" stroke-width="0.321364"/>
<path d="M325.335 192.795L336.105 174.164L333.134 172.459L325.341 185.953L313.631 179.206L310.66 184.344L325.335 192.795Z" fill="white"/>
<path d="M325.335 192.795L336.105 174.164L333.134 172.476L325.341 185.981L315.403 180.219C317.829 175.622 321.391 171.542 325.363 169.246C332.678 165.021 338.615 168.442 338.615 176.877C338.615 185.311 332.684 195.592 325.363 199.818C318.042 204.044 312.106 200.628 312.106 192.182C312.135 189.999 312.474 187.832 313.113 185.745L325.335 192.795Z" fill="#5F98ED"/>
<path d="M280.939 156.332L280.96 156.318L280.981 156.306C294.467 148.522 307.002 137.519 313.714 127.628L313.716 127.626C314.117 127.038 314.614 126.557 315.15 126.25C315.674 125.949 316.323 125.771 316.957 125.967L316.964 125.969C320.136 126.978 324.808 126.689 330.472 125.109C336.095 123.54 342.589 120.73 349.362 116.825C349.654 116.597 350.003 116.452 350.371 116.405C350.766 116.354 351.167 116.418 351.526 116.59L351.554 116.603L351.581 116.619L361.383 122.262L360.636 123.684C360.558 123.646 360.47 123.632 360.384 123.644L360.37 123.533L360.384 123.644C360.298 123.655 360.216 123.69 360.15 123.747L360.095 123.793L360.032 123.829C353.149 127.793 346.51 130.677 340.716 132.296C334.952 133.907 329.914 134.298 326.294 133.145C326.236 133.128 326.06 133.118 325.762 133.29C325.472 133.457 325.145 133.756 324.858 134.179L324.857 134.18C317.978 144.311 305.24 155.466 291.611 163.337C291.148 163.639 290.759 164.043 290.475 164.518C290.192 164.988 290.019 165.517 289.968 166.063V215.624C289.968 219.368 292.126 223.343 295.072 226.832C297.462 229.663 300.299 232.087 302.705 233.702L304.285 234.684L303.465 236.065C302.948 235.772 302.401 235.433 301.834 235.053L288.51 226.774C282.903 223.544 278.593 218.316 278.593 209.98V160.367V160.334L278.595 160.302C278.66 159.506 278.904 158.735 279.31 158.047C279.716 157.36 280.273 156.773 280.939 156.332Z" fill="white" stroke="#93D0FF" stroke-width="1.60682"/>
<path d="M310.919 236.933H303.326L302.784 233.136L310.919 236.933Z" fill="#93D0FF"/>
<path d="M118.561 220.794L137.773 231.876V243.636L120.407 253.657L101.193 242.572V230.812L118.561 220.794Z" fill="white"/>
<path d="M120.407 253.657L101.193 242.572V230.812L120.404 241.897L120.407 253.657Z" fill="#CEE7FD"/>
<g opacity="0.5">
<path opacity="0.5" d="M137.773 243.636L120.407 253.657L120.404 241.897L137.773 231.876V243.636Z" fill="#CEE7FD"/>
</g>
<path d="M120.407 254.534C120.253 254.535 120.101 254.494 119.968 254.415L100.753 243.33C100.62 243.253 100.51 243.143 100.433 243.009C100.357 242.876 100.317 242.725 100.317 242.572V230.812C100.317 230.658 100.357 230.507 100.434 230.373C100.51 230.24 100.621 230.129 100.753 230.051L118.122 220.036C118.255 219.958 118.407 219.917 118.561 219.917C118.715 219.917 118.867 219.958 119 220.036L138.212 231.118C138.345 231.195 138.455 231.305 138.532 231.438C138.608 231.571 138.649 231.722 138.648 231.876V243.636C138.649 243.79 138.608 243.941 138.531 244.074C138.454 244.207 138.343 244.318 138.209 244.394L120.841 254.415C120.71 254.494 120.56 254.535 120.407 254.534ZM102.057 242.066L120.407 252.645L136.897 243.13V232.382L118.564 221.805L102.074 231.318L102.057 242.066Z" fill="#93D0FF"/>
<path d="M215.45 22.4893C216.536 21.4045 217.918 20.6656 219.424 20.3661C220.929 20.0666 222.489 20.2199 223.907 20.8066C225.326 21.3934 226.538 22.3872 227.391 23.6624C228.243 24.9376 228.699 26.4369 228.699 27.9706C228.699 29.5043 228.243 31.0036 227.391 32.2788C226.538 33.554 225.326 34.5478 223.907 35.1345C222.489 35.7213 220.929 35.8746 219.424 35.5751C217.918 35.2755 216.536 34.5366 215.45 33.4518C213.996 31.9978 213.179 30.0263 213.179 27.9706C213.179 25.9149 213.996 23.9433 215.45 22.4893Z" fill="white"/>
<path d="M223.883 30.9044C225.114 29.6731 225.893 28.063 226.095 26.3343C226.297 24.6057 225.909 22.8595 224.995 21.3782C225.926 21.9516 226.726 22.7154 227.34 23.6195C227.955 24.5236 228.371 25.5474 228.562 26.6237C228.752 27.7 228.712 28.8044 228.445 29.8643C228.178 30.9242 227.689 31.9155 227.011 32.7732C226.333 33.6309 225.481 34.3355 224.511 34.8406C223.541 35.3458 222.475 35.6401 221.383 35.7042C220.291 35.7683 219.198 35.6008 218.176 35.2126C217.153 34.8244 216.224 34.2244 215.45 33.4519C215.026 33.0164 214.653 32.5335 214.338 32.0129C215.822 32.9282 217.571 33.3166 219.303 33.1155C221.035 32.9143 222.649 32.1353 223.883 30.9044Z" fill="#CEE7FD"/>
<path d="M220.947 36.6023C219.24 36.6017 217.572 36.0959 216.152 35.1486C214.733 34.2013 213.626 32.8551 212.971 31.2798C212.317 29.7045 212.144 27.9708 212.475 26.2975C212.806 24.6242 213.626 23.0864 214.83 21.8781C215.834 20.8736 217.069 20.1317 218.428 19.7185C219.787 19.3052 221.227 19.2331 222.62 19.5088C224.013 19.7844 225.317 20.3992 226.416 21.2986C227.514 22.1981 228.374 23.3545 228.919 24.6652C229.463 25.976 229.676 27.4008 229.537 28.8133C229.399 30.2258 228.914 31.5824 228.126 32.7629C227.338 33.9435 226.27 34.9115 225.018 35.5812C223.766 36.2509 222.367 36.6016 220.947 36.6023ZM220.947 21.0947C220.043 21.0916 219.147 21.268 218.312 21.6138C217.477 21.9595 216.719 22.4678 216.082 23.1089C214.955 24.2344 214.253 25.7155 214.096 27.3C213.94 28.8844 214.338 30.4741 215.223 31.7981C216.108 33.1221 217.425 34.0985 218.95 34.5609C220.474 35.0234 222.112 34.9432 223.584 34.3341C225.056 33.7251 226.272 32.6247 227.023 31.2207C227.774 29.8166 228.015 28.1957 227.704 26.6341C227.394 25.0725 226.551 23.667 225.319 22.6569C224.087 21.6468 222.543 21.0947 220.95 21.0947H220.947Z" fill="#93D0FF"/>
<defs>
<linearGradient id="paint0_linear" x1="329.199" y1="344.164" x2="220.099" y2="219.444" gradientUnits="userSpaceOnUse">
<stop stop-color="#CCE5FB"/>
<stop offset="1" stop-color="#CEE7FD" stop-opacity="0"/>
</linearGradient>
<linearGradient id="paint1_linear" x1="230.44" y1="278.529" x2="138.622" y2="190.387" gradientUnits="userSpaceOnUse">
<stop stop-color="#CCE5FB"/>
<stop offset="1" stop-color="#CEE7FD" stop-opacity="0"/>
</linearGradient>
<linearGradient id="paint2_linear" x1="158.153" y1="214.386" x2="66.335" y2="126.245" gradientUnits="userSpaceOnUse">
<stop stop-color="#CCE5FB"/>
<stop offset="1" stop-color="#CEE7FD" stop-opacity="0"/>
</linearGradient>
</defs>
</svg>
