<svg width="40" height="54" viewBox="0 0 40 54" fill="none" xmlns="http://www.w3.org/2000/svg">
<path d="M13.2066 49.1889L20.1378 53.2164L20.266 53.2843C21.0317 53.6229 21.8981 53.6553 22.687 53.3748C22.8103 53.3343 22.9291 53.2813 23.0414 53.2164L34.9578 46.338C35.1235 46.2624 35.2665 46.1445 35.3723 45.9963C35.4782 45.8481 35.5433 45.6746 35.5612 45.4933V43.1629L33.7813 43.9699L28.0343 40.6287C27.585 40.3984 27.0873 40.2783 26.5824 40.2783C26.0775 40.2783 25.5799 40.3984 25.1306 40.6287L19.7003 43.7662L13.2142 47.5372C13.049 47.6027 12.9072 47.7161 12.8071 47.8628C12.7069 48.0095 12.6529 48.1829 12.6521 48.3605C12.6513 48.5382 12.7037 48.712 12.8025 48.8597C12.9013 49.0073 13.0421 49.122 13.2066 49.1889Z" fill="#D4E6FC"/>
<path d="M21.5932 53.9404C21.0729 53.9503 20.5571 53.842 20.0848 53.6236L19.9339 53.5482L12.9953 49.5132C12.7641 49.4184 12.5665 49.257 12.4273 49.0495C12.2882 48.842 12.2139 48.5978 12.2139 48.348C12.2139 48.0982 12.2882 47.854 12.4273 47.6465C12.5665 47.439 12.7641 47.2776 12.9953 47.1828L24.9117 40.2969C25.4194 40.0368 25.9816 39.9011 26.5521 39.9011C27.1225 39.9011 27.6847 40.0368 28.1924 40.2969L33.7735 43.5399L35.3725 42.7857C35.4287 42.7578 35.4907 42.7433 35.5535 42.7433C35.6163 42.7433 35.6782 42.7578 35.7345 42.7857C35.7876 42.8198 35.8313 42.8667 35.8616 42.922C35.8919 42.9774 35.9078 43.0394 35.9079 43.1025V45.3651C35.8982 45.6203 35.8194 45.8679 35.6799 46.0818C35.5405 46.2956 35.3456 46.4676 35.116 46.5794L23.1996 53.4577C23.0681 53.5365 22.9292 53.6022 22.7848 53.6538C22.4066 53.8159 22.0037 53.9129 21.5932 53.9404ZM26.586 40.6589C26.1457 40.6497 25.7101 40.7508 25.3189 40.953L13.4025 47.8314C13.1386 47.9897 12.9877 48.1783 12.9877 48.3518C12.9877 48.5252 13.131 48.7138 13.395 48.8646L20.3261 52.892L20.4242 52.9448C21.0999 53.2397 21.8619 53.2693 22.5585 53.0278L22.8527 52.892L34.7691 46.0062C35.033 45.8554 35.1839 45.6668 35.1839 45.4933V43.7436L33.9395 44.3092C33.8859 44.337 33.8264 44.3515 33.766 44.3515C33.7056 44.3515 33.6461 44.337 33.5925 44.3092L27.8455 40.9681C27.4587 40.7598 27.0253 40.6533 26.586 40.6589Z" fill="#93D0FF"/>
<path d="M20.1379 50.3279V53.2316L20.2662 53.2994C21.0319 53.6381 21.8983 53.6705 22.6871 53.3899V50.5014L20.9751 49.8452L20.1379 50.3279Z" fill="white"/>
<path d="M21.5856 53.9406C21.0653 53.9507 20.5495 53.8424 20.0772 53.6238L19.9264 53.5484C19.8693 53.5137 19.822 53.465 19.789 53.4069C19.756 53.3488 19.7384 53.2833 19.7378 53.2165V50.3279C19.7369 50.2608 19.7539 50.1947 19.787 50.1364C19.8202 50.078 19.8683 50.0296 19.9264 49.9961L20.7636 49.5058C20.8147 49.4836 20.8699 49.4722 20.9257 49.4722C20.9815 49.4722 21.0367 49.4836 21.0879 49.5058L22.7999 50.162C22.872 50.1886 22.934 50.2371 22.9772 50.3006C23.0205 50.3642 23.0429 50.4396 23.0412 50.5165V53.4051C23.0418 53.4817 23.019 53.5566 22.9758 53.62C22.9327 53.6833 22.8714 53.732 22.7999 53.7596C22.4087 53.8899 21.9978 53.9511 21.5856 53.9406ZM20.5147 52.9827C21.086 53.2079 21.7133 53.2501 22.3097 53.1034V50.7427L21.0124 50.245L20.5147 50.5391V52.9827Z" fill="#93D0FF"/>
<path d="M13.2066 49.1888L20.1378 53.2163L20.266 53.2841V50.388L22.2495 43.9622L19.6928 43.7661L13.2142 47.5371C13.049 47.6026 12.9072 47.7159 12.8071 47.8627C12.7069 48.0094 12.6529 48.1828 12.6521 48.3604C12.6513 48.5381 12.7037 48.7119 12.8025 48.8596C12.9013 49.0072 13.0421 49.1219 13.2066 49.1888Z" fill="white"/>
<path d="M20.2657 53.6613C20.2135 53.6721 20.1596 53.6721 20.1073 53.6613L19.9414 53.5708L13.0103 49.5433C12.7909 49.4366 12.6047 49.272 12.4719 49.0674C12.339 48.8627 12.2644 48.6257 12.2561 48.3819C12.2698 48.1336 12.3507 47.8936 12.4902 47.6877C12.6297 47.4818 12.8225 47.3177 13.048 47.2129L19.5341 43.4418C19.5968 43.4015 19.671 43.383 19.7453 43.3891L22.3021 43.5927C22.3584 43.5969 22.4132 43.6132 22.4627 43.6405C22.5122 43.6679 22.5551 43.7056 22.5887 43.7511C22.6196 43.7985 22.6397 43.8521 22.6475 43.9082C22.6553 43.9642 22.6507 44.0213 22.6339 44.0754L20.6126 50.4484V53.2842C20.6125 53.3473 20.5966 53.4093 20.5663 53.4647C20.536 53.52 20.4923 53.5669 20.4392 53.6009C20.3868 53.6342 20.3274 53.6549 20.2657 53.6613ZM19.783 44.181L13.4025 47.8615C13.1385 48.0199 12.9877 48.2084 12.9877 48.3819C12.9877 48.5553 13.131 48.7439 13.3949 48.8947L19.8886 52.6657V50.4031C19.8849 50.3655 19.8849 50.3276 19.8886 50.29L21.7364 44.3167L19.783 44.181Z" fill="#93D0FF"/>
<path d="M13.2139 45.3651L25.1303 38.4868C25.5801 38.2583 26.0776 38.1392 26.5821 38.1392C27.0867 38.1392 27.5841 38.2583 28.034 38.4868L34.9651 42.5143C35.1399 42.5748 35.2915 42.6883 35.3988 42.8391C35.5061 42.9898 35.5637 43.1702 35.5637 43.3552C35.5637 43.5402 35.5061 43.7206 35.3988 43.8713C35.2915 44.022 35.1399 44.1356 34.9651 44.1961L23.0411 51.0745C22.5932 51.3047 22.0967 51.4248 21.5931 51.4248C21.0894 51.4248 20.593 51.3047 20.145 51.0745L13.2139 47.047C13.0391 46.9864 12.8875 46.8729 12.7802 46.7222C12.6729 46.5715 12.6152 46.3911 12.6152 46.2061C12.6152 46.0211 12.6729 45.8407 12.7802 45.6899C12.8875 45.5392 13.0391 45.4257 13.2139 45.3651Z" fill="#D4E6FC"/>
<path d="M21.5856 51.8059C21.0148 51.8153 20.4511 51.6777 19.9489 51.4062L13.0103 47.3712C12.7909 47.2645 12.6047 47.0999 12.4719 46.8953C12.339 46.6906 12.2644 46.4536 12.2561 46.2098C12.2698 45.9614 12.3507 45.7215 12.4902 45.5156C12.6297 45.3097 12.8225 45.1456 13.048 45.0408L24.9644 38.1624C25.471 37.8987 26.0337 37.761 26.6048 37.761C27.1759 37.761 27.7386 37.8987 28.2452 38.1624L35.1763 42.1899C35.4104 42.2818 35.6113 42.4422 35.753 42.6501C35.8946 42.8579 35.9704 43.1036 35.9704 43.3551C35.9704 43.6066 35.8946 43.8523 35.753 44.0601C35.6113 44.268 35.4104 44.4284 35.1763 44.5204L23.2524 51.4062C22.7408 51.6818 22.1664 51.8195 21.5856 51.8059ZM26.5859 38.5169C26.1457 38.5077 25.7101 38.6088 25.3189 38.811L13.4025 45.6894C13.1385 45.8402 12.9877 46.0287 12.9877 46.2022C12.9877 46.3757 13.131 46.5642 13.3949 46.7151L20.326 50.7425C20.7167 50.9394 21.1481 51.042 21.5856 51.042C22.0231 51.042 22.4544 50.9394 22.8451 50.7425L34.769 43.8642C35.033 43.7058 35.1838 43.5173 35.1838 43.3438C35.1838 43.1703 35.033 42.9818 34.7766 42.8309L27.8454 38.8035C27.4566 38.603 27.0233 38.5044 26.5859 38.5169Z" fill="#93D0FF"/>
<path d="M2.9871 24.7904L3.04742 50.8104C3.01435 51.129 3.06681 51.4507 3.19938 51.7423C3.33194 52.034 3.53981 52.285 3.80162 52.4696L1.22227 50.9688C0.960452 50.7842 0.752557 50.5331 0.619995 50.2415C0.487434 49.9499 0.434995 49.6282 0.468064 49.3095L0.407715 23.2896L2.9871 24.7904Z" fill="white"/>
<path d="M3.80144 52.8469C3.73477 52.8482 3.66919 52.8299 3.61289 52.7941L1.00336 51.3234C0.682403 51.1081 0.425448 50.8102 0.259538 50.4611C0.0936284 50.1121 0.0249029 49.7247 0.0606073 49.3399L0.000281285 23.3199C-0.000653873 23.2533 0.0160838 23.1876 0.0487999 23.1295C0.0815159 23.0714 0.129022 23.0231 0.186507 22.9894C0.243992 22.9556 0.3094 22.9377 0.376047 22.9375C0.442694 22.9373 0.508218 22.9547 0.565933 22.988L3.13774 24.4964C3.19673 24.5296 3.24594 24.5778 3.28037 24.636C3.3148 24.6943 3.33324 24.7606 3.33384 24.8283L3.39419 50.8483C3.36437 51.1007 3.40085 51.3566 3.50004 51.5907C3.59923 51.8248 3.7577 52.029 3.95984 52.1832C4.03062 52.2252 4.08571 52.2892 4.11672 52.3654C4.14774 52.4417 4.15298 52.526 4.13161 52.6054C4.11025 52.6849 4.06345 52.7552 3.99839 52.8056C3.93334 52.856 3.85359 52.8838 3.77129 52.8846L3.80144 52.8469ZM0.784635 23.9685L0.844984 49.3399C0.815001 49.5913 0.851446 49.8461 0.950698 50.079C1.04995 50.3119 1.20854 50.5148 1.41064 50.6673L2.72294 51.4215C2.68534 51.2201 2.66765 51.0154 2.67014 50.8106L2.60981 25.0093L0.784635 23.9685Z" fill="#93D0FF"/>
<path d="M34.2715 0.791768C34.5346 0.601173 34.8438 0.483968 35.1671 0.452161C35.4905 0.420355 35.8165 0.475097 36.1117 0.610767L38.6911 2.08145C38.3961 1.945 38.0699 1.88984 37.7464 1.92167C37.4228 1.95349 37.1137 2.07115 36.8509 2.26247L5.52886 20.3256L2.95703 18.8549L34.2715 0.791768Z" fill="white"/>
<path d="M5.52869 20.7027C5.46552 20.703 5.40328 20.6874 5.34769 20.6574L2.76831 19.149C2.71026 19.1173 2.662 19.0704 2.62876 19.0132C2.59552 18.956 2.57857 18.8908 2.57976 18.8247C2.57771 18.7584 2.59428 18.6929 2.62761 18.6356C2.66094 18.5782 2.70969 18.5314 2.76831 18.5004L34.0526 0.399569C34.3725 0.174547 34.7468 0.0391015 35.1366 0.00727728C35.5265 -0.024547 35.9178 0.0483906 36.27 0.218545L38.8267 1.6817C38.8698 1.70591 38.9077 1.73854 38.938 1.77765C38.9683 1.81677 38.9904 1.86157 39.0031 1.9094C39.0158 1.95723 39.0187 2.00712 39.0117 2.05611C39.0047 2.10509 38.988 2.15216 38.9625 2.19455C38.912 2.27998 38.8304 2.34261 38.7348 2.36931C38.6393 2.39602 38.5371 2.38473 38.4496 2.33785C38.212 2.24411 37.9545 2.21223 37.7012 2.24521C37.448 2.27819 37.2072 2.37494 37.0015 2.5264L5.74742 20.6499C5.68315 20.693 5.60556 20.7117 5.52869 20.7027ZM3.71106 18.8549L5.52869 19.8881L36.6621 1.94567C36.839 1.83942 37.0259 1.75099 37.2202 1.6817L35.923 0.927496C35.684 0.829953 35.424 0.795384 35.1678 0.827076C34.9116 0.858768 34.6679 0.955677 34.4599 1.10852L3.71106 18.8549Z" fill="#93D0FF"/>
<path d="M2.98682 24.7905L3.03962 47.7711V50.7879C3.03962 52.432 4.20109 53.0505 5.63407 52.2963L36.9184 34.2331C37.6684 33.7434 38.2927 33.0841 38.7408 32.3085C39.1889 31.5328 39.4482 30.6627 39.4977 29.7683V26.7515L39.4676 3.74075C39.4676 2.09659 38.2985 1.44043 36.8731 2.23235L5.5888 20.2955C4.82758 20.7824 4.19409 21.4446 3.74139 22.2267C3.28868 23.0088 3.02995 23.8879 2.98682 24.7905Z" fill="#EB5757"/>
<path d="M4.48003 53.0204C4.17705 53.0222 3.8786 52.9469 3.6127 52.8017C3.29229 52.584 3.03593 52.2846 2.87016 51.9345C2.7044 51.5844 2.63528 51.1964 2.66995 50.8106L2.60962 24.7906C2.65566 23.8295 2.93091 22.8933 3.41241 22.0601C3.89391 21.227 4.5677 20.5212 5.37753 20.0014L36.6618 1.94584C36.9664 1.69479 37.3401 1.54229 37.7333 1.50858C38.1266 1.47487 38.5208 1.56155 38.8636 1.75711C39.2065 1.95267 39.4817 2.24786 39.6529 2.60351C39.8241 2.95916 39.883 3.35846 39.8219 3.7484L39.8823 29.7684C39.8362 30.7295 39.561 31.6657 39.0795 32.4988C38.598 33.3319 37.9242 34.0378 37.1144 34.5575L5.83005 52.6131C5.42318 52.8641 4.95782 53.0045 4.48003 53.0204ZM38.0043 2.28524C37.6618 2.30035 37.3291 2.40431 37.0389 2.58692L5.75463 20.65C5.05843 21.1034 4.47907 21.7147 4.06364 22.4342C3.6482 23.1537 3.40843 23.961 3.36382 24.7906L3.42415 50.8106C3.39433 51.0631 3.43081 51.3189 3.53 51.553C3.62919 51.7871 3.78766 51.9913 3.9898 52.1455C4.22879 52.2431 4.48883 52.2777 4.74501 52.246C5.00119 52.2143 5.24494 52.1174 5.45295 51.9645L36.7373 33.9014C37.4335 33.448 38.0128 32.8367 38.4282 32.1173C38.8437 31.3978 39.0835 30.5904 39.1281 29.7608L39.0677 3.74085C39.0983 3.48756 39.0613 3.23071 38.9607 2.99629C38.86 2.76187 38.6992 2.55819 38.4945 2.40589C38.3451 2.32185 38.1757 2.28015 38.0043 2.28524Z" fill="#93D0FF"/>
<path d="M5.00057 20.7175L4.90254 20.808L4.73662 20.9588L4.63857 21.0569C4.58441 21.1086 4.53399 21.164 4.48772 21.2228L4.39722 21.3209L4.17849 21.5924L4.13324 21.6527L3.89189 21.9921C3.89189 22.0298 3.8542 22.06 3.83911 22.0901C3.82403 22.1203 3.72598 22.2712 3.67319 22.3692L3.61284 22.4823C3.554 22.5874 3.50112 22.6957 3.45446 22.8066V22.867V22.9122L3.36396 23.1536L3.32624 23.2441L3.25836 23.4628C3.25836 23.4628 3.25836 23.5156 3.25836 23.5458C3.25836 23.5759 3.20559 23.7343 3.18296 23.8324C3.18296 23.9229 3.18296 24.0058 3.13016 24.0963C3.07737 24.1868 3.13016 24.1567 3.13016 24.1793C3.13016 24.2019 3.13016 24.3226 3.13016 24.3905C3.13016 24.4584 3.13016 24.4508 3.13016 24.481C3.13016 24.5111 3.13016 24.6695 3.13016 24.76L0.550781 23.2516C0.550781 23.1536 0.550781 23.0631 0.550781 22.965C0.554915 22.9375 0.554915 22.9096 0.550781 22.8821C0.550781 22.8142 0.550781 22.7463 0.550781 22.6709C0.550781 22.5955 0.550781 22.6105 0.550781 22.5804C0.550781 22.5502 0.588497 22.4145 0.603581 22.3239C0.603581 22.2259 0.65638 22.1279 0.679006 22.0298C0.701632 21.9318 0.679006 21.977 0.679006 21.9468L0.746881 21.7357L0.784582 21.6452C0.812679 21.5629 0.845417 21.4824 0.882632 21.4038C0.883595 21.3862 0.883595 21.3686 0.882632 21.351V21.3058C0.927884 21.1927 0.988214 21.0871 1.04101 20.9739L1.10136 20.8608C1.15415 20.7703 1.20695 20.6798 1.26728 20.5893C1.32762 20.4988 1.305 20.5214 1.32008 20.4912L1.56141 20.1443L1.60666 20.0915C1.67454 19.9935 1.74996 19.9105 1.82538 19.82L1.86311 19.7748L1.91588 19.7144L2.06673 19.556L2.17231 19.4504L2.33071 19.3071L2.43629 19.2166L2.61731 19.0733L2.70781 19.0055C2.79868 18.938 2.89449 18.8775 2.99441 18.8245L5.56622 20.2951L5.28717 20.4762L5.19667 20.544L5.00057 20.7175Z" fill="white"/>
<path d="M2.987 25.1674C2.92033 25.1687 2.85475 25.1504 2.79845 25.1146L0.219068 23.6062C0.162074 23.5733 0.114692 23.5261 0.081614 23.4692C0.0485363 23.4123 0.0309148 23.3477 0.0305176 23.2819C0.0305176 23.1839 0.0305176 23.0783 0.0305176 22.9727V22.8746V22.6484V22.5579C0.0305176 22.4598 0.0305231 22.3693 0.0833172 22.2713C0.136111 22.1732 0.14365 22.0299 0.173818 21.9243V21.8338L0.249243 21.6076L0.641419 21.6453L0.286943 21.5095C0.286943 21.4266 0.354833 21.3436 0.392543 21.2531C0.389703 21.2306 0.389703 21.2078 0.392543 21.1852C0.460421 21.0269 0.520757 20.9062 0.581093 20.793L0.641419 20.6724L0.814894 20.3782L0.87522 20.2802C0.958182 20.1595 1.04116 20.0313 1.13167 19.9182L1.18445 19.8503C1.25232 19.7522 1.32776 19.6617 1.41072 19.5637L1.48614 19.4732L1.75765 19.2922L1.87077 19.1866C1.92484 19.1275 1.9828 19.0721 2.04425 19.0207L2.15737 18.9226L2.35347 18.7718L2.45152 18.6964C2.55366 18.6256 2.65938 18.5601 2.76827 18.5003C2.8247 18.4686 2.88833 18.4519 2.95305 18.4519C3.01777 18.4519 3.0814 18.4686 3.13783 18.5003L5.71721 20.0087C5.77543 20.0405 5.82401 20.0874 5.85786 20.1445C5.89171 20.2015 5.90958 20.2666 5.90958 20.333C5.90958 20.3993 5.89171 20.4645 5.85786 20.5215C5.82401 20.5786 5.77543 20.6255 5.71721 20.6573L5.52866 20.8006L5.4457 20.8609L5.27223 20.9967L5.20435 21.057L5.03088 21.2154L4.93283 21.3059L4.79708 21.4567L4.70658 21.5548L4.51048 21.8037C4.38981 21.9621 4.3144 22.0752 4.23898 22.1883L3.86188 22.0752L4.18618 22.2713C4.13338 22.3618 4.08058 22.4447 4.03533 22.5352L3.975 22.6408C3.92221 22.7389 3.8694 22.8445 3.82415 22.9501L3.44705 22.8746L3.7789 23.0481L3.6884 23.2744L3.3113 23.214L3.65823 23.3573L3.59035 23.5534V23.6439C3.56328 23.7282 3.54062 23.8138 3.52248 23.9003C3.49745 23.9893 3.47979 24.0801 3.46968 24.1719H3.08505L3.4546 24.2247V24.4132V24.5716C3.4546 24.6546 3.4546 24.7375 3.4546 24.8205C3.4542 24.8863 3.43658 24.9508 3.4035 25.0077C3.37043 25.0646 3.32304 25.1119 3.26605 25.1448C3.22351 25.1673 3.17683 25.1809 3.12885 25.1848C3.08087 25.1887 3.03261 25.1828 2.987 25.1674ZM0.792269 23.1009L2.65515 24.1643V24.0663C2.65515 23.9758 2.65515 23.8853 2.70795 23.7872C2.76074 23.6892 2.76828 23.5459 2.79845 23.4403V23.3573C2.79845 23.2819 2.84371 23.2065 2.87387 23.1311V23.0255L2.9719 22.7766L3.01717 22.671L3.26605 22.309L3.32638 22.1959C3.37804 22.0943 3.43598 21.9961 3.49985 21.9017L3.5602 21.7961L3.81663 21.4341L3.86188 21.3662C3.9373 21.2757 4.01271 21.1777 4.09568 21.0872L4.19373 20.9741L4.3521 20.8006L4.45768 20.695L4.6387 20.5366L4.75183 20.4386L4.84233 20.3632L2.99455 19.2922L2.91912 19.345L2.6099 19.1036L2.83615 19.4053L2.67022 19.5335L2.5948 19.6014L2.42135 19.7522L2.18755 20.0011L1.8557 19.805L2.13475 20.0539C2.02916 20.1746 1.96128 20.2651 1.90095 20.3481L1.84815 20.4084L1.62942 20.7252L1.57665 20.8157C1.52196 20.9011 1.47161 20.9892 1.4258 21.0796L1.36547 21.1852C1.31268 21.2833 1.26741 21.3889 1.21462 21.4945V21.5623C1.17602 21.6428 1.14325 21.726 1.11657 21.8112H0.724393L1.07887 21.9394L1.01099 22.1355V22.2185L0.943118 22.4825C0.943118 22.5956 0.897861 22.671 0.890319 22.754V22.8369V23.0255V23.1386L0.792269 23.1009Z" fill="#93D0FF"/>
<path d="M4 47.3181V50.2342C4 51.8235 5.11502 52.4213 6.49069 51.6922L36.5238 34.232C37.2438 33.7586 37.8432 33.1213 38.2734 32.3715C38.7035 31.6218 38.9524 30.7807 39 29.9161V27L4 47.3181Z" fill="#EB5757"/>
<path d="M5.67944 24.7828C5.72472 24.3632 5.85751 23.9578 6.06927 23.5927C6.28103 23.2277 6.56702 22.9111 6.90877 22.6635L36.7525 5.4375L36.7978 25.1599L5.72469 43.1023L5.67944 24.7828Z" fill="white"/>
<path d="M5.72482 43.4797C5.65549 43.4836 5.58675 43.4651 5.52872 43.4269C5.47011 43.3959 5.42135 43.3491 5.38802 43.2918C5.35469 43.2344 5.33812 43.1689 5.34017 43.1026L5.29492 24.7831C5.34042 24.2974 5.49075 23.8275 5.73555 23.4056C5.98034 22.9837 6.31378 22.6199 6.71282 22.3395L36.5566 5.10594C36.6139 5.07284 36.679 5.05542 36.7451 5.05542C36.8113 5.05542 36.8764 5.07284 36.9337 5.10594C36.9908 5.14062 37.0381 5.1893 37.0711 5.24738C37.1041 5.30545 37.1217 5.371 37.1222 5.43779L37.1675 25.1602C37.1669 25.227 37.1493 25.2925 37.1163 25.3506C37.0833 25.4087 37.036 25.4573 36.9789 25.492L5.91337 43.4269C5.85673 43.4619 5.79138 43.4802 5.72482 43.4797ZM6.05667 24.7831L6.09437 42.454L36.451 24.949L36.4133 6.09394L7.09745 22.9881C6.52906 23.4272 6.15543 24.0716 6.05667 24.7831Z" fill="#93D0FF"/>
<path d="M13.0659 28.9263C12.9707 28.8943 12.8907 28.8283 12.8412 28.7409C12.7977 28.6509 12.7909 28.5475 12.8222 28.4526C12.8536 28.3577 12.9207 28.2788 13.0093 28.2325L30.4835 19.464C30.5735 19.4205 30.6769 19.4137 30.7718 19.445C30.8667 19.4764 30.9456 19.5435 30.992 19.6321C31.0145 19.6764 31.0281 19.7249 31.0318 19.7745C31.0356 19.8241 31.0295 19.874 31.0138 19.9213C30.9982 19.9686 30.9734 20.0123 30.9408 20.0499C30.9082 20.0875 30.8685 20.1183 30.8239 20.1405L13.3854 28.9208C13.3353 28.9432 13.2811 28.9553 13.2262 28.9562C13.1713 28.9572 13.1168 28.947 13.0659 28.9263Z" fill="#93D0FF"/>
<path d="M29.1359 23.2047L29.0571 23.1787C29.0143 23.1532 28.9769 23.1196 28.9472 23.0797C28.9174 23.0397 28.8959 22.9943 28.8838 22.946C28.8717 22.8977 28.8693 22.8474 28.8767 22.7982C28.8841 22.749 28.9012 22.7017 28.927 22.6591L30.6538 19.838L27.2422 19.4412C27.1921 19.435 27.1437 19.4191 27.0997 19.3942C27.0558 19.3694 27.0171 19.3361 26.986 19.2963C26.9549 19.2565 26.9319 19.211 26.9184 19.1623C26.9049 19.1137 26.9011 19.0628 26.9073 19.0127C26.9134 18.9626 26.9293 18.9142 26.9542 18.8702C26.979 18.8262 27.0123 18.7876 27.0521 18.7565C27.0919 18.7254 27.1374 18.7024 27.1861 18.6889C27.2347 18.6754 27.2856 18.6716 27.3357 18.6777L31.3294 19.1399C31.3926 19.1463 31.453 19.169 31.5049 19.2056C31.5568 19.2423 31.5984 19.2916 31.6257 19.349C31.654 19.4054 31.6674 19.4681 31.6646 19.5312C31.6619 19.5942 31.643 19.6555 31.6098 19.7092L29.6172 23.0222C29.5764 23.1093 29.5034 23.177 29.4135 23.211C29.3237 23.2451 29.2241 23.2428 29.1359 23.2047Z" fill="#93D0FF"/>
</svg>
