<svg width="520" height="415" viewBox="0 0 520 415" fill="none" xmlns="http://www.w3.org/2000/svg">
<path d="M188.032 278L98 227.956L187.258 174L282 223.511L188.032 278Z" fill="url(#paint0_linear)"/>
<path d="M279.911 391.274L289.599 385.781L258.827 368.776L255.812 380.101L279.911 391.274Z" fill="url(#paint1_linear)"/>
<path d="M266.099 398.776C266.099 398.776 259.793 400.782 251.764 405.878L203.437 379.173L226.204 365.546L266.099 398.776Z" fill="url(#paint2_linear)"/>
<path d="M66.0271 190.696L18.4374 164.376L65.6181 136L115.697 162.039L66.0271 190.696Z" fill="url(#paint3_linear)"/>
<path d="M63.2922 25.9524L94.6369 44.1609L126.169 25.9524L94.8356 7.7439L63.2922 25.9524Z" fill="white"/>
<path d="M94.6251 45.9143C94.9325 45.9131 95.2344 45.8326 95.5017 45.6806L127.045 27.4838C127.309 27.3278 127.528 27.1056 127.68 26.8391C127.832 26.5727 127.912 26.2712 127.912 25.9645C127.912 25.6577 127.832 25.3563 127.68 25.0899C127.528 24.8234 127.309 24.6012 127.045 24.4452L95.7004 6.23669C95.4343 6.08167 95.1318 6 94.8238 6C94.5159 6 94.2134 6.08167 93.9473 6.23669L62.3922 24.4452C62.1249 24.5973 61.9027 24.8174 61.7481 25.0833C61.5935 25.3491 61.5121 25.6511 61.5121 25.9586C61.5121 26.2662 61.5935 26.5682 61.7481 26.834C61.9027 27.0999 62.1249 27.32 62.3922 27.4721L93.7486 45.6689C94.0127 45.8297 94.316 45.9146 94.6251 45.9143ZM122.674 25.9411L94.6251 42.1277L66.7865 25.9528L94.8355 9.76619L122.674 25.9411Z" fill="#93D0FF"/>
<path d="M63.2922 25.9526L63.7597 189.046L95.0928 207.254L94.637 44.1611L63.2922 25.9526Z" fill="#D4E6FC"/>
<path d="M95.0926 209.007C95.4008 209.012 95.7041 208.931 95.9692 208.773C96.2366 208.62 96.4587 208.399 96.6127 208.132C96.7667 207.865 96.8471 207.562 96.8457 207.254L96.3782 44.1492C96.3787 43.8441 96.2991 43.5443 96.1473 43.2797C95.9955 43.0151 95.7769 42.7951 95.5133 42.6415L64.1803 24.433C63.9128 24.28 63.6099 24.1996 63.3018 24.2C62.9936 24.2003 62.6909 24.2813 62.4238 24.435C62.1567 24.5886 61.9344 24.8096 61.7792 25.0758C61.624 25.342 61.5411 25.6442 61.539 25.9524L62.0065 189.057C62.0083 189.363 62.0902 189.663 62.2439 189.928C62.3977 190.192 62.6181 190.412 62.883 190.565L94.2044 208.773C94.4751 208.927 94.7812 209.008 95.0926 209.007ZM92.8837 45.1659L93.3279 204.204L65.5126 188.041L65.0568 29.0027L92.8837 45.1659Z" fill="#93D0FF"/>
<path d="M94.637 44.1611L95.0928 207.254L126.636 189.046L126.169 25.9526L94.637 44.1611Z" fill="white"/>
<path d="M95.0927 209.007C95.4008 209.012 95.7042 208.931 95.9692 208.774L127.524 190.565C127.79 190.41 128.011 190.189 128.165 189.922C128.318 189.655 128.4 189.353 128.401 189.046L127.933 25.9408C127.932 25.6339 127.849 25.333 127.695 25.0679C127.54 24.8029 127.318 24.5831 127.052 24.4305C126.786 24.2779 126.485 24.1978 126.178 24.1982C125.871 24.1987 125.569 24.2797 125.304 24.4331L93.7486 42.6416C93.4828 42.7965 93.262 43.0181 93.1083 43.2847C92.9545 43.5512 92.8731 43.8532 92.8721 44.1609L93.3396 207.266C93.3403 207.572 93.4217 207.873 93.5756 208.137C93.7294 208.402 93.9504 208.621 94.2162 208.774C94.4812 208.931 94.7845 209.012 95.0927 209.007ZM124.871 188.041L96.8224 204.227L96.3782 45.166L124.427 28.9794L124.871 188.041Z" fill="#93D0FF"/>
<path d="M307.039 257.641L259.437 231.322L306.63 202.946L356.709 228.973L307.039 257.641Z" fill="url(#paint4_linear)"/>
<path d="M308.33 192.154L339.663 210.374L371.207 192.154L339.873 173.946L308.33 192.154Z" fill="#EB5757"/>
<path d="M339.767 211.922C340.077 211.923 340.38 211.838 340.644 211.677L372.199 193.469C372.465 193.316 372.686 193.097 372.84 192.832C372.994 192.568 373.075 192.267 373.076 191.961C373.075 191.653 372.993 191.351 372.84 191.085C372.686 190.818 372.465 190.596 372.199 190.442L340.936 172.233C340.669 172.08 340.367 172 340.06 172C339.752 172 339.45 172.08 339.183 172.233L307.628 190.453C307.361 190.605 307.138 190.825 306.984 191.091C306.829 191.357 306.748 191.659 306.748 191.967C306.748 192.274 306.829 192.576 306.984 192.842C307.138 193.108 307.361 193.328 307.628 193.48L338.938 211.677C339.188 211.83 339.474 211.914 339.767 211.922ZM367.816 191.949L339.767 208.136L311.929 191.961L339.978 175.774L367.816 191.949Z" fill="#F76C6C"/>
<path d="M308.481 191.949L308.949 257.28L340.282 275.489L339.814 210.169L308.481 191.949Z" fill="#EB5757"/>
<path d="M340.282 277.242C340.59 277.246 340.893 277.165 341.158 277.008C341.425 276.851 341.646 276.628 341.8 276.359C341.954 276.091 342.035 275.787 342.035 275.477L341.567 210.146C341.564 209.842 341.482 209.544 341.328 209.282C341.175 209.019 340.955 208.801 340.691 208.65L309.381 190.442C309.114 190.287 308.81 190.206 308.501 190.207C308.192 190.208 307.889 190.29 307.622 190.445C307.355 190.6 307.134 190.824 306.981 191.092C306.828 191.36 306.749 191.664 306.751 191.973L307.219 257.292C307.218 257.597 307.298 257.897 307.45 258.161C307.601 258.426 307.82 258.646 308.084 258.8L339.393 277.008C339.663 277.164 339.97 277.245 340.282 277.242ZM338.073 211.175L338.505 272.439L310.69 256.275L310.257 195.012L338.073 211.175Z" fill="#F76C6C"/>
<path d="M339.814 210.169L340.282 275.489L371.813 257.28L371.358 191.949L339.814 210.169Z" fill="#EB5757"/>
<path d="M340.282 277.242C340.59 277.244 340.893 277.164 341.158 277.008L372.714 258.799C372.984 258.646 373.208 258.423 373.362 258.154C373.516 257.885 373.595 257.579 373.59 257.268L373.134 191.938C373.13 191.631 373.046 191.33 372.89 191.066C372.734 190.802 372.512 190.582 372.246 190.43C371.981 190.278 371.681 190.198 371.375 190.198C371.07 190.198 370.77 190.278 370.505 190.43L338.95 208.638C338.681 208.793 338.459 209.017 338.305 209.286C338.151 209.555 338.071 209.86 338.073 210.169L338.541 275.489C338.54 275.795 338.621 276.096 338.775 276.361C338.929 276.626 339.151 276.845 339.417 276.996C339.678 277.156 339.977 277.24 340.282 277.242ZM370.061 256.275L342.012 272.462L341.579 211.175L369.628 194.941L370.061 256.275Z" fill="#F76C6C"/>
<path d="M158.267 12.655L160.744 14.0926V21.8528C160.744 22.6475 160.195 23.0215 159.505 22.5774C159.143 22.3402 158.842 22.0207 158.627 21.6449C158.411 21.2692 158.288 20.8478 158.267 20.4153V12.655ZM159.54 1.31857C159.902 1.55139 160.202 1.86672 160.418 2.23857C160.633 2.61043 160.757 3.02816 160.779 3.45731V11.2292L158.29 9.79171V2.0198C158.29 1.23677 158.863 0.921213 159.54 1.31857Z" fill="#93D0FF"/>
<path d="M151.511 5.8881L158.266 9.79159L160.756 11.2291L167.511 15.1209C167.875 15.3568 168.179 15.6757 168.396 16.0516C168.614 16.4274 168.739 16.8494 168.761 17.283C168.761 18.0661 168.2 18.4517 167.511 17.9959L160.744 14.0924L158.266 12.6549L151.5 8.75144C151.141 8.51337 150.842 8.19522 150.627 7.82205C150.412 7.44889 150.287 7.0309 150.261 6.60102C150.261 5.8063 150.822 5.49074 151.511 5.8881Z" fill="#93D0FF"/>
<path d="M8.029 226.587L10.5067 228.012V235.784C10.5067 236.579 9.9574 236.953 9.26786 236.497C8.90576 236.263 8.60461 235.945 8.38922 235.571C8.17384 235.198 8.05035 234.778 8.029 234.347V226.587ZM9.30292 215.25C9.66412 215.483 9.96481 215.798 10.1802 216.17C10.3956 216.542 10.5195 216.96 10.5417 217.389V225.149L8.05239 223.723V215.951C8.05239 215.157 8.61338 214.853 9.30292 215.25Z" fill="#93D0FF"/>
<path d="M1.27394 219.82L8.02908 223.724L10.5184 225.149L17.2502 229.053C17.6132 229.288 17.9156 229.605 18.1329 229.978C18.3502 230.352 18.4762 230.772 18.5007 231.203C18.5007 231.998 17.9397 232.372 17.2502 231.916L10.4834 228.013L8.00572 226.587L1.23888 222.683C0.878094 222.447 0.577965 222.13 0.362745 221.756C0.147526 221.382 0.0232677 220.963 5.53131e-05 220.533C5.53131e-05 219.738 0.561045 219.364 1.25058 219.82H1.27394Z" fill="#93D0FF"/>
<path d="M509.432 40.508L511.921 41.9455V49.7175C511.921 50.5005 511.36 50.8277 510.682 50.4304C510.32 50.1949 510.018 49.8777 509.801 49.5041C509.583 49.1306 509.457 48.7113 509.432 48.2799V40.508ZM510.717 29.1716C511.067 29.4108 511.355 29.7292 511.558 30.1009C511.761 30.4725 511.873 30.8869 511.886 31.3103V39.0822L509.396 37.6447V29.8845C509.396 29.0897 509.957 28.7742 510.647 29.1716H510.717Z" fill="#93D0FF"/>
<path d="M502.688 33.7409L509.443 37.6444L511.933 39.0819L518.688 42.9854C519.045 43.2191 519.344 43.5331 519.559 43.9024C519.774 44.2716 519.9 44.686 519.927 45.1124C519.927 45.9072 519.377 46.2227 518.676 45.8254L511.921 41.9219L509.432 40.4844L502.676 36.5809C502.313 36.3476 502.011 36.0306 501.795 35.6565C501.58 35.2823 501.457 34.8618 501.438 34.4305C501.438 33.6474 501.999 33.3202 502.688 33.7175V33.7409Z" fill="#93D0FF"/>
<path d="M152.212 404.791L154.702 406.217V413.989C154.702 414.784 154.141 415.099 153.463 414.702C153.1 414.467 152.798 414.15 152.58 413.777C152.363 413.403 152.237 412.983 152.212 412.552V404.791ZM153.498 393.455C153.859 393.688 154.16 394.003 154.375 394.375C154.591 394.747 154.715 395.165 154.737 395.594V403.354L152.247 401.928V394.156C152.247 393.361 152.808 393.058 153.498 393.455Z" fill="#93D0FF"/>
<path d="M145.469 398.025L152.224 401.928L154.714 403.354L161.469 407.257C161.83 407.493 162.131 407.81 162.346 408.184C162.561 408.558 162.685 408.977 162.708 409.408C162.708 410.203 162.158 410.577 161.457 410.121L154.702 406.217L152.213 404.791L145.457 400.888C145.095 400.654 144.793 400.337 144.577 399.963C144.362 399.589 144.239 399.169 144.219 398.738C144.219 397.943 144.78 397.627 145.469 398.025Z" fill="#93D0FF"/>
<path d="M346.612 37.9869L295.972 8.55878C295.295 8.16873 294.597 7.81755 293.88 7.50695C284.663 3.54892 270.849 5.78115 252.438 14.2036L303.066 43.6317C321.485 35.217 335.303 32.9848 344.52 36.935C345.239 37.2409 345.938 37.5922 346.612 37.9869Z" fill="white"/>
<path d="M263.836 393.162L245.897 382.737L245.92 388.16L263.848 398.573L263.836 393.162Z" fill="#93D0FF"/>
<path d="M263.848 400.326C264.156 400.331 264.46 400.25 264.725 400.092C264.994 399.941 265.217 399.72 265.371 399.453C265.526 399.186 265.605 398.882 265.601 398.573V393.139C265.603 392.83 265.522 392.527 265.368 392.261C265.214 391.994 264.992 391.772 264.725 391.619L246.797 381.194C246.528 381.04 246.224 380.958 245.914 380.958C245.605 380.958 245.3 381.04 245.032 381.194C244.765 381.351 244.544 381.575 244.39 381.843C244.236 382.112 244.155 382.416 244.155 382.725V388.137C244.155 388.442 244.234 388.741 244.386 389.006C244.538 389.271 244.757 389.491 245.02 389.644L262.972 400.151C263.242 400.288 263.545 400.348 263.848 400.326ZM262.083 394.179V395.476L247.65 387.096V385.741L262.083 394.179Z" fill="#93D0FF"/>
<path d="M253.4 359.854C253.856 359.597 254.3 359.305 254.732 359.001L255.153 358.685C255.445 358.463 255.737 358.241 256.018 358.007C256.298 357.774 256.333 357.727 256.497 357.587L257.257 356.897L257.736 356.406C257.977 356.173 258.211 355.927 258.437 355.67L258.869 355.179C259.22 354.77 259.559 354.361 259.886 353.929L260.108 353.648C260.494 353.134 260.868 352.585 261.218 352.035C261.312 351.895 261.394 351.743 261.487 351.591C261.756 351.171 262.002 350.738 262.247 350.294L262.527 349.78C262.796 349.265 263.053 348.751 263.287 348.237L263.392 347.992C263.684 347.337 263.942 346.671 264.175 345.993C264.234 345.83 264.292 345.666 264.339 345.502C264.549 344.859 264.748 344.205 264.9 343.562C264.904 343.523 264.904 343.484 264.9 343.445C265.06 342.783 265.181 342.112 265.262 341.435C265.262 341.272 265.262 341.108 265.321 340.944C265.403 340.289 265.446 339.63 265.449 338.969C265.449 335.147 264.093 332.459 261.943 331.197L279.871 341.622C282.045 342.884 283.377 345.572 283.377 349.394C283.369 350.054 283.326 350.713 283.249 351.369C283.249 351.533 283.249 351.696 283.249 351.86C283.155 352.526 283.05 353.192 282.886 353.87C282.886 353.87 282.886 353.94 282.886 353.987C282.734 354.63 282.536 355.273 282.325 355.927L282.162 356.418C281.928 357.096 281.671 357.762 281.379 358.417L281.274 358.615C281.04 359.129 280.794 359.644 280.526 360.146L280.245 360.672C280 361.116 279.743 361.549 279.485 361.969C279.392 362.121 279.31 362.273 279.217 362.413C278.854 362.963 278.492 363.512 278.048 364.026L277.838 364.307C277.51 364.728 277.171 365.148 276.821 365.557L276.645 365.768C276.564 365.873 276.47 365.955 276.388 366.048C276.306 366.142 275.933 366.551 275.687 366.784L275.208 367.275L274.448 367.965L273.969 368.386L273.104 369.063L272.684 369.379C272.239 369.683 271.807 369.975 271.351 370.232C267.985 372.172 264.947 372.359 262.749 371.074L244.81 360.649C246.995 361.981 250.046 361.794 253.4 359.854Z" fill="#D4E6FC"/>
<path d="M265.905 373.703C268.138 373.627 270.314 372.971 272.216 371.798C272.695 371.518 273.174 371.214 273.677 370.851L273.981 370.629L274.133 370.513C274.444 370.279 274.76 370.033 275.079 369.776L275.5 369.414L275.594 369.32C275.874 369.087 276.143 368.841 276.412 368.584L276.926 368.07L277.686 367.264C277.826 367.123 277.884 367.053 277.954 366.971L278.118 366.784C278.515 366.317 278.878 365.873 279.217 365.405L279.45 365.125C279.859 364.564 280.257 363.956 280.619 363.407L280.899 362.939C281.18 362.495 281.449 362.028 281.706 361.572L282.01 361.011C282.29 360.473 282.559 359.924 282.804 359.386L282.91 359.164V359.059C283.167 358.475 283.436 357.785 283.704 357.002L283.891 356.465C284.137 355.717 284.324 355.039 284.487 354.384V354.244C284.628 353.613 284.756 352.9 284.873 352.094L284.932 351.568C285.019 350.842 285.066 350.113 285.072 349.382C285.072 345.046 283.494 341.751 280.666 340.114L262.726 329.69C262.527 329.564 262.305 329.479 262.072 329.441C261.84 329.403 261.602 329.412 261.373 329.468C261.144 329.524 260.929 329.625 260.74 329.766C260.551 329.907 260.393 330.085 260.274 330.288C260.156 330.492 260.079 330.717 260.05 330.951C260.02 331.184 260.038 331.422 260.102 331.648C260.166 331.875 260.275 332.086 260.423 332.27C260.571 332.453 260.754 332.605 260.961 332.716C262.668 333.71 263.614 335.93 263.626 338.969C263.622 339.567 263.583 340.164 263.509 340.757V341.201C263.416 341.891 263.299 342.499 263.17 343.048C263.175 343.094 263.175 343.142 263.17 343.188C263.053 343.691 262.878 344.287 262.668 344.953L262.504 345.42C262.259 346.122 262.025 346.729 261.779 347.29L261.674 347.524C261.452 348.003 261.218 348.482 260.961 348.962L260.693 349.464C260.47 349.861 260.237 350.27 259.98 350.633L259.734 351.042C259.395 351.556 259.045 352.07 258.682 352.561L258.484 352.818C258.18 353.216 257.864 353.613 257.537 353.987L257.128 354.443C256.918 354.688 256.696 354.91 256.473 355.132C256.33 355.293 256.178 355.445 256.018 355.588C255.796 355.81 255.562 356.021 255.328 356.231L255.211 356.324L254.884 356.617L254.089 357.236L253.704 357.516C253.318 357.785 252.921 358.054 252.535 358.288C249.847 359.842 247.416 360.134 245.686 359.141C245.291 358.922 244.826 358.866 244.39 358.984C243.954 359.102 243.581 359.384 243.349 359.772C243.118 360.174 243.055 360.651 243.173 361.099C243.291 361.548 243.581 361.932 243.98 362.168L261.92 372.593C263.127 373.308 264.502 373.691 265.905 373.703ZM266.98 336.152L278.994 343.165C280.701 344.158 281.647 346.379 281.659 349.417C281.655 350.015 281.616 350.612 281.542 351.205V351.65C281.449 352.339 281.344 352.947 281.215 353.496V353.625C281.075 354.226 280.904 354.819 280.701 355.401L280.549 355.869C280.303 356.558 280.07 357.178 279.824 357.739V357.844L279.766 357.949C279.544 358.451 279.31 358.931 279.053 359.41L278.784 359.901C278.562 360.31 278.328 360.719 278.071 361.069L277.826 361.49C277.487 362.004 277.136 362.519 276.774 363.009L276.575 363.255C276.26 363.664 275.944 364.061 275.617 364.424L275.22 364.879C275.009 365.125 274.787 365.347 274.565 365.581L274.121 366.025L273.42 366.667L273.303 366.761L272.976 367.053C272.719 367.264 272.45 367.462 272.181 367.661L271.795 367.953C271.42 368.231 271.03 368.489 270.627 368.724C267.939 370.279 265.508 370.571 263.778 369.578L251.752 362.565C252.685 362.234 253.585 361.815 254.44 361.315C254.931 361.034 255.422 360.707 255.901 360.38L256.216 360.146L256.357 360.029C256.684 359.795 256.999 359.55 257.303 359.293L257.724 358.931L257.817 358.849L258.636 358.101L259.162 357.575C259.407 357.318 259.664 357.061 259.909 356.78L260.365 356.254C260.739 355.834 261.102 355.389 261.452 354.922L261.674 354.641C262.083 354.08 262.481 353.473 262.843 352.923L263.135 352.468C263.416 352.012 263.684 351.544 263.93 351.089L264.234 350.528C264.514 349.99 264.783 349.452 265.028 348.903L265.017 348.728C265.309 348.085 265.578 347.384 265.858 346.601L266.034 346.075C266.279 345.303 266.478 344.626 266.63 343.995V343.843C266.796 343.133 266.925 342.415 267.015 341.692L267.074 341.166C267.161 340.441 267.208 339.711 267.214 338.981C267.218 338.033 267.14 337.087 266.98 336.152Z" fill="#93D0FF"/>
<path d="M295.964 315.653L278.025 305.228L273.958 310.289L291.897 320.714L295.964 315.653Z" fill="white"/>
<path d="M291.897 322.467C292.159 322.465 292.417 322.405 292.654 322.292C292.89 322.179 293.098 322.015 293.265 321.812L297.332 316.752C297.488 316.554 297.601 316.325 297.661 316.08C297.722 315.835 297.729 315.579 297.683 315.331C297.636 315.083 297.537 314.848 297.392 314.641C297.246 314.435 297.059 314.262 296.841 314.134L278.901 303.709C278.538 303.5 278.113 303.427 277.701 303.504C277.29 303.581 276.919 303.803 276.657 304.13L272.59 309.19C272.429 309.387 272.314 309.616 272.251 309.862C272.188 310.108 272.18 310.364 272.227 310.613C272.273 310.863 272.374 311.099 272.522 311.305C272.669 311.512 272.86 311.683 273.081 311.808L291.009 322.233C291.281 322.384 291.586 322.464 291.897 322.467ZM293.311 316.144L291.476 318.482L276.599 309.845L278.445 307.507L293.311 316.144Z" fill="#93D0FF"/>
<path d="M291.897 320.714L273.957 310.289L260.844 309.156L278.772 319.58L291.897 320.714Z" fill="white"/>
<path d="M291.897 322.467C292.284 322.467 292.659 322.34 292.966 322.105C293.272 321.87 293.493 321.54 293.593 321.167C293.693 320.794 293.667 320.398 293.518 320.042C293.37 319.685 293.109 319.387 292.774 319.194L274.834 308.769C274.614 308.638 274.365 308.562 274.11 308.547L260.997 307.379C260.599 307.343 260.202 307.443 259.87 307.664C259.537 307.885 259.29 308.212 259.169 308.592C259.048 308.972 259.06 309.382 259.203 309.754C259.346 310.126 259.612 310.439 259.957 310.639L277.873 321.088C278.094 321.217 278.342 321.297 278.597 321.321L291.722 322.49L291.897 322.467ZM273.42 312.007L284.231 318.341L279.322 317.909L268.5 311.621L273.42 312.007Z" fill="#93D0FF"/>
<path d="M243.115 381.358L225.176 370.933L221.108 375.982L239.048 386.407L243.115 381.358Z" fill="#D4E6FC"/>
<path d="M239.048 388.16C239.31 388.16 239.569 388.102 239.806 387.988C240.043 387.875 240.251 387.71 240.415 387.506L244.483 382.445C244.639 382.248 244.751 382.02 244.812 381.776C244.872 381.532 244.88 381.277 244.833 381.03C244.786 380.783 244.687 380.548 244.542 380.343C244.397 380.137 244.209 379.966 243.992 379.839L226.052 369.414C225.689 369.205 225.264 369.132 224.852 369.209C224.441 369.286 224.07 369.508 223.808 369.835L219.741 374.884C219.584 375.082 219.47 375.312 219.407 375.558C219.345 375.804 219.335 376.06 219.379 376.31C219.429 376.554 219.532 376.785 219.679 376.986C219.826 377.188 220.015 377.355 220.232 377.478L238.136 387.927C238.413 388.087 238.728 388.167 239.048 388.16ZM240.474 381.838L238.639 384.175L223.761 375.527L225.608 373.189L240.474 381.838Z" fill="#93D0FF"/>
<path d="M239.048 386.407L221.108 375.982L228.705 386.664L246.645 397.089L239.048 386.407Z" fill="#D4E6FC"/>
<path d="M246.645 398.842C246.966 398.842 247.282 398.753 247.556 398.585C247.831 398.418 248.054 398.178 248.201 397.892C248.348 397.606 248.414 397.285 248.391 396.964C248.368 396.643 248.257 396.335 248.071 396.073L240.474 385.391C240.332 385.186 240.144 385.018 239.925 384.9L221.985 374.44C221.64 374.209 221.225 374.108 220.812 374.156C220.4 374.205 220.019 374.398 219.737 374.703C219.455 375.007 219.291 375.402 219.275 375.817C219.258 376.232 219.391 376.638 219.648 376.964L227.244 387.646C227.386 387.854 227.574 388.026 227.793 388.149L245.733 398.574C246.005 398.749 246.321 398.843 246.645 398.842ZM237.833 387.74L240.474 391.503L229.874 385.344L227.186 381.581L237.833 387.74Z" fill="#93D0FF"/>
<path d="M243.057 363.979L225.129 353.554L225.176 370.933L243.115 381.358L243.057 363.979Z" fill="#D4E6FC"/>
<path d="M243.115 383.1C243.423 383.102 243.726 383.021 243.992 382.866C244.258 382.711 244.478 382.489 244.632 382.223C244.786 381.956 244.867 381.654 244.868 381.346V363.968C244.869 363.663 244.789 363.363 244.637 363.098C244.486 362.834 244.267 362.614 244.003 362.46L226.064 352.035C225.798 351.88 225.495 351.799 225.187 351.799C224.879 351.799 224.577 351.88 224.311 352.035C224.041 352.186 223.818 352.407 223.664 352.675C223.51 352.942 223.43 353.246 223.434 353.555V370.933C223.434 371.238 223.513 371.538 223.665 371.803C223.817 372.067 224.035 372.287 224.299 372.441L242.239 382.866C242.505 383.02 242.807 383.1 243.115 383.1ZM241.315 364.985V378.296L226.893 369.917V356.605L241.315 364.985Z" fill="#93D0FF"/>
<path d="M263.638 322.9L245.698 312.487L245.721 317.886L263.649 328.311L263.638 322.9Z" fill="white"/>
<path d="M263.65 330.029C263.957 330.027 264.259 329.947 264.526 329.795C264.796 329.642 265.02 329.419 265.174 329.15C265.328 328.88 265.407 328.574 265.403 328.264V322.9C265.403 322.593 265.322 322.292 265.168 322.027C265.014 321.762 264.793 321.543 264.526 321.392L246.598 310.967C246.33 310.819 246.029 310.743 245.723 310.747C245.417 310.751 245.118 310.834 244.854 310.988C244.59 311.143 244.371 311.363 244.218 311.628C244.064 311.892 243.983 312.192 243.98 312.498V317.897C243.978 318.203 244.058 318.503 244.209 318.768C244.361 319.033 244.581 319.252 244.845 319.405L262.785 329.83C263.05 329.972 263.349 330.041 263.65 330.029ZM261.885 323.881V325.225L247.486 316.869V315.537L261.885 323.881Z" fill="#93D0FF"/>
<path d="M278.761 314.169L260.821 303.744L245.698 312.486L263.638 322.899L278.761 314.169Z" fill="white"/>
<path d="M263.638 324.664C263.947 324.664 264.25 324.579 264.514 324.419L279.637 315.688C279.905 315.536 280.127 315.316 280.282 315.05C280.436 314.784 280.518 314.482 280.518 314.175C280.518 313.867 280.436 313.565 280.282 313.299C280.127 313.034 279.905 312.813 279.637 312.661L261.709 302.236C261.441 302.082 261.137 302 260.827 302C260.517 302 260.213 302.082 259.945 302.236L244.822 310.967C244.554 311.119 244.332 311.339 244.178 311.605C244.023 311.871 243.942 312.173 243.942 312.48C243.942 312.788 244.023 313.09 244.178 313.356C244.332 313.621 244.554 313.842 244.822 313.994L262.761 324.419C263.025 324.579 263.329 324.664 263.638 324.664ZM275.325 314.146L263.638 320.854L249.204 312.498L260.821 305.789L275.325 314.146Z" fill="#93D0FF"/>
<path d="M263.649 328.31L245.721 317.885L232.632 334.142L250.572 344.567L263.649 328.31Z" fill="white"/>
<path d="M250.572 346.32C250.834 346.322 251.094 346.264 251.331 346.151C251.568 346.038 251.776 345.872 251.939 345.666L265.017 329.409C265.176 329.213 265.291 328.984 265.353 328.739C265.416 328.494 265.425 328.239 265.379 327.99C265.334 327.741 265.235 327.505 265.09 327.299C264.944 327.092 264.756 326.919 264.538 326.791L246.598 316.366C246.235 316.157 245.81 316.084 245.398 316.161C244.987 316.239 244.616 316.461 244.354 316.787L231.276 333.044C231.116 333.239 231.001 333.467 230.939 333.711C230.876 333.955 230.868 334.21 230.914 334.458C230.964 334.701 231.065 334.931 231.21 335.132C231.355 335.333 231.541 335.502 231.755 335.627L249.695 346.052C249.96 346.213 250.262 346.305 250.572 346.32ZM261.008 328.79L250.151 342.288L235.285 333.64L246.142 320.141L261.008 328.79Z" fill="#93D0FF"/>
<path d="M250.572 344.567L232.632 334.143L228.553 333.792L246.493 344.217L250.572 344.567Z" fill="white"/>
<path d="M250.572 346.32C250.959 346.323 251.336 346.198 251.645 345.964C251.953 345.73 252.176 345.4 252.277 345.026C252.379 344.653 252.353 344.256 252.206 343.898C252.058 343.54 251.795 343.241 251.46 343.048L233.462 332.623C233.235 332.497 232.984 332.421 232.725 332.401L228.647 332.039C228.25 332.006 227.855 332.109 227.525 332.331C227.195 332.552 226.95 332.879 226.831 333.258C226.711 333.638 226.724 334.046 226.867 334.417C227.01 334.788 227.275 335.099 227.618 335.299L245.558 345.724C245.779 345.854 246.027 345.934 246.282 345.958L250.361 346.309L250.572 346.32Z" fill="#93D0FF"/>
<path d="M246.493 344.217L228.553 333.792L221.038 353.204L238.978 363.629L246.493 344.217Z" fill="#D4E6FC"/>
<path d="M238.978 365.382C239.176 365.38 239.373 365.349 239.562 365.288C239.8 365.201 240.017 365.065 240.199 364.887C240.38 364.71 240.522 364.496 240.614 364.26L248.129 344.848C248.28 344.458 248.286 344.026 248.146 343.632C248.007 343.238 247.731 342.906 247.369 342.697L229.441 332.272C229.221 332.146 228.976 332.068 228.723 332.045C228.47 332.021 228.215 332.053 227.975 332.137C227.735 332.221 227.517 332.357 227.334 332.533C227.151 332.71 227.009 332.924 226.917 333.161L219.437 352.573C219.289 352.963 219.284 353.393 219.423 353.787C219.562 354.181 219.836 354.513 220.197 354.723L238.136 365.148C238.393 365.294 238.682 365.375 238.978 365.382ZM244.319 344.976L238.136 361.081L223.27 352.444L229.5 336.339L244.319 344.976Z" fill="#93D0FF"/>
<path d="M243.057 363.98V381.347L238.99 386.407L246.586 397.089L250.653 392.052L263.848 393.139V398.55L278.971 389.82V384.409L292.037 368.164L296.116 368.514L303.584 349.125L299.505 348.763V331.384L303.584 326.336L295.976 315.654L291.897 320.679L278.773 319.51V314.099L263.649 322.841V328.241L250.572 344.497L246.493 344.147L238.978 363.559L243.057 363.98ZM271.34 370.279C264.655 374.136 259.232 371.039 259.208 363.36C259.185 355.682 264.573 346.332 271.258 342.464C277.943 338.595 283.389 341.704 283.412 349.394C283.436 357.084 278.025 366.422 271.34 370.279Z" fill="white"/>
<path d="M263.848 400.326C264.156 400.331 264.459 400.25 264.724 400.092L279.848 391.362C280.117 391.211 280.34 390.99 280.494 390.723C280.649 390.455 280.728 390.151 280.724 389.843V385.051L292.82 370.01L295.976 370.279C296.352 370.31 296.728 370.218 297.048 370.018C297.368 369.818 297.615 369.52 297.752 369.168L305.279 349.756C305.371 349.505 305.405 349.235 305.376 348.969C305.348 348.703 305.259 348.446 305.115 348.22C304.971 347.994 304.777 347.804 304.548 347.665C304.319 347.526 304.061 347.442 303.794 347.419L301.317 347.208V332.015L304.998 327.457C305.228 327.15 305.352 326.777 305.352 326.394C305.352 326.01 305.228 325.637 304.998 325.33L297.39 314.648C297.233 314.427 297.026 314.246 296.787 314.118C296.548 313.99 296.282 313.92 296.011 313.912C295.74 313.898 295.469 313.95 295.223 314.064C294.976 314.178 294.762 314.351 294.597 314.566L291.091 318.891L280.502 317.979V314.181C280.504 313.872 280.424 313.569 280.27 313.302C280.116 313.035 279.894 312.813 279.627 312.66C279.359 312.507 279.056 312.427 278.748 312.429C278.44 312.432 278.138 312.516 277.872 312.673L262.749 321.403C262.484 321.558 262.263 321.78 262.109 322.046C261.955 322.313 261.874 322.615 261.873 322.923V327.691L249.823 342.744L246.668 342.463C246.283 342.436 245.9 342.535 245.577 342.746C245.254 342.958 245.009 343.269 244.88 343.632L237.365 363.044C237.277 363.297 237.248 363.566 237.279 363.831C237.31 364.097 237.401 364.351 237.545 364.577C237.689 364.802 237.882 364.991 238.11 365.131C238.338 365.27 238.595 365.356 238.861 365.382L241.339 365.58V380.774L237.669 385.343C237.432 385.642 237.297 386.009 237.284 386.389C237.272 386.77 237.382 387.145 237.599 387.459L245.207 398.141C245.362 398.362 245.566 398.543 245.803 398.671C246.041 398.799 246.305 398.869 246.574 398.877C246.847 398.89 247.119 398.837 247.367 398.723C247.615 398.609 247.832 398.438 248 398.223L251.506 393.91L262.095 394.81V398.62C262.098 398.927 262.182 399.228 262.337 399.492C262.493 399.757 262.716 399.976 262.983 400.128C263.248 400.271 263.547 400.34 263.848 400.326ZM277.218 388.838L265.601 395.546V393.209C265.602 392.77 265.438 392.347 265.142 392.024C264.845 391.702 264.437 391.503 264 391.467L250.864 390.299C250.579 390.277 250.294 390.324 250.031 390.436C249.769 390.548 249.537 390.721 249.356 390.941L246.738 394.19L241.257 386.477L244.494 382.445C244.743 382.133 244.879 381.746 244.88 381.346V363.968C244.879 363.53 244.714 363.108 244.417 362.786C244.121 362.464 243.715 362.264 243.279 362.226L241.526 362.074L247.72 346.075L250.49 346.308C250.776 346.336 251.066 346.292 251.331 346.18C251.596 346.068 251.829 345.891 252.009 345.666L265.017 329.409C265.284 329.08 265.421 328.664 265.402 328.24V323.858L277.089 317.149V319.487C277.093 319.924 277.259 320.344 277.555 320.665C277.851 320.987 278.255 321.187 278.691 321.228L291.815 322.397C292.102 322.423 292.391 322.379 292.656 322.267C292.921 322.154 293.154 321.978 293.334 321.754L295.941 318.493L301.445 326.218L298.208 330.227C297.954 330.541 297.817 330.934 297.822 331.337L297.741 348.728C297.744 349.165 297.91 349.585 298.206 349.906C298.502 350.228 298.907 350.429 299.342 350.469L301.095 350.621L294.889 366.632L292.119 366.399C291.833 366.375 291.545 366.421 291.28 366.533C291.016 366.645 290.782 366.819 290.6 367.041L277.534 383.286C277.287 383.6 277.151 383.986 277.148 384.385L277.218 388.838ZM265.905 373.703C268.138 373.627 270.314 372.971 272.216 371.798C279.497 367.591 285.189 357.773 285.165 349.382C285.165 345.035 283.576 341.727 280.724 340.091C277.872 338.455 274.191 338.747 270.381 340.956C263.112 345.151 257.432 354.98 257.455 363.372C257.455 367.719 259.045 371.015 261.885 372.651C263.107 373.354 264.495 373.717 265.905 373.703ZM276.704 342.557C277.52 342.536 278.327 342.734 279.041 343.13C280.759 344.123 281.706 346.344 281.718 349.394C281.718 356.5 276.715 365.183 270.521 368.759C267.845 370.302 265.414 370.606 263.684 369.613C261.955 368.619 261.031 366.41 261.02 363.36C261.02 356.242 266.01 347.559 272.193 343.983C273.549 343.129 275.103 342.638 276.704 342.557Z" fill="#93D0FF"/>
<path d="M350.643 3.34569C355.026 0.809589 361.091 1.1602 367.788 5.02863C381.029 12.707 391.793 31.3363 391.758 46.6113C391.828 49.9252 391.178 53.2147 389.853 56.2531C389.561 56.8834 389.225 57.4926 388.848 58.0763C388.145 59.1796 387.274 60.1655 386.265 60.9981C385.781 61.3973 385.265 61.7569 384.722 62.0733L371.364 69.8335C375.7 67.3208 378.376 61.9798 378.376 54.3832C378.376 39.0965 367.671 20.4906 354.359 12.7889C347.663 8.92043 341.597 8.56982 337.214 11.1176L350.643 3.34569Z" fill="white"/>
<path d="M371.376 71.6332C371.684 71.6347 371.986 71.554 372.252 71.3995L385.611 63.6392C386.233 63.272 386.827 62.8579 387.387 62.4004C388.528 61.4496 389.517 60.3303 390.321 59.0813C390.757 58.4273 391.147 57.7439 391.489 57.036C392.921 53.771 393.627 50.2341 393.558 46.6696C393.558 30.8453 382.432 11.5031 368.664 3.55592C361.652 -0.511187 354.909 -1.11892 349.766 1.88467L336.408 9.64489C336.2 9.75609 336.017 9.90799 335.87 10.0915C335.722 10.2751 335.613 10.4865 335.549 10.7132C335.485 10.9398 335.467 11.1771 335.496 11.4108C335.526 11.6445 335.602 11.8698 335.721 12.0733C335.84 12.2768 335.998 12.4543 336.187 12.5952C336.376 12.7361 336.591 12.8375 336.82 12.8934C337.049 12.9493 337.286 12.9584 337.519 12.9204C337.751 12.8823 337.974 12.7978 338.173 12.6719C342.181 10.3344 347.639 10.9422 353.553 14.3548C366.409 21.741 376.728 39.7158 376.693 54.4181C376.693 61.1148 374.485 66.1052 370.546 68.3608C370.21 68.554 369.948 68.8529 369.8 69.2109C369.652 69.5688 369.627 69.9656 369.729 70.3394C369.83 70.7132 370.052 71.0428 370.361 71.2769C370.67 71.5109 371.047 71.6362 371.434 71.6332H371.376ZM356.942 3.52086C360.461 3.66544 363.881 4.72485 366.865 6.59456C379.72 13.9808 390.04 31.9555 390.005 46.6579C390.078 49.7138 389.483 52.7489 388.264 55.5518C388.001 56.1107 387.704 56.6532 387.375 57.1763C386.768 58.1223 386.019 58.9697 385.155 59.689C384.746 60.0308 384.308 60.3358 383.846 60.6006L378.575 63.6626C379.662 60.7076 380.197 57.5781 380.153 54.4298C380.153 38.6055 369.038 19.2634 355.259 11.3161C352.483 9.64683 349.419 8.51305 346.225 7.97364L351.484 4.91162C353.142 3.9518 355.027 3.4553 356.942 3.47411V3.52086Z" fill="#93D0FF"/>
<path d="M354.383 12.7884C341.083 5.10999 330.261 11.2691 330.214 26.5558C330.167 41.8425 340.919 60.4483 354.231 68.1618C367.542 75.8753 378.353 69.6695 378.4 54.3827C378.446 39.096 367.694 20.4668 354.383 12.7884Z" fill="#D4E6FC"/>
<path d="M365.041 73.2227C367.551 73.2527 370.023 72.6154 372.206 71.3761C377.301 68.4427 380.129 62.4004 380.153 54.3831C380.153 38.5588 369.038 19.2167 355.259 11.2694C348.247 7.21403 341.55 6.59461 336.408 9.56313C331.266 12.5317 328.437 18.5388 328.437 26.5562C328.437 42.3805 339.564 61.7226 353.331 69.6698C356.856 71.8583 360.894 73.0834 365.041 73.2227ZM343.584 11.2811C347.103 11.4292 350.523 12.4927 353.506 14.3665C366.362 21.7528 376.682 39.7275 376.647 54.4299C376.647 61.1499 374.426 66.1169 370.453 68.4544C366.479 70.7918 360.998 70.1607 355.107 66.7597C342.31 59.2449 331.944 41.2468 331.944 26.5678C331.944 19.8478 334.164 14.8808 338.138 12.5433C339.82 11.6281 341.716 11.1764 343.631 11.2344L343.584 11.2811Z" fill="#93D0FF"/>
<path d="M378.4 58.1814C378.709 58.1817 379.012 58.0968 379.276 57.936L392.553 50.2109C392.941 49.9792 393.223 49.6059 393.341 49.1698C393.459 48.7336 393.403 48.2688 393.184 47.8734C392.948 47.4746 392.564 47.1849 392.115 47.0668C391.667 46.9487 391.19 47.0117 390.788 47.2423L377.523 54.9091C377.188 55.1023 376.925 55.4012 376.778 55.7591C376.63 56.1171 376.605 56.5139 376.706 56.8877C376.807 57.2614 377.03 57.5911 377.338 57.8251C377.647 58.0592 378.024 58.1845 378.412 58.1814H378.4Z" fill="#93D0FF"/>
<path d="M377.114 46.0853C377.422 46.0879 377.725 46.0071 377.991 45.8516L391.267 38.1264C391.475 38.0152 391.658 37.8633 391.806 37.6797C391.953 37.4962 392.062 37.2848 392.126 37.0581C392.191 36.8314 392.208 36.5942 392.179 36.3605C392.149 36.1268 392.073 35.9015 391.954 35.698C391.835 35.4945 391.677 35.317 391.488 35.1761C391.299 35.0352 391.084 34.9338 390.855 34.8779C390.627 34.822 390.389 34.8129 390.156 34.8509C389.924 34.889 389.701 34.9735 389.502 35.0994L376.226 42.8246C375.896 43.0203 375.639 43.3189 375.495 43.6744C375.351 44.03 375.328 44.4229 375.429 44.793C375.53 45.1631 375.749 45.4899 376.054 45.7233C376.358 45.9568 376.73 46.0839 377.114 46.0853Z" fill="#93D0FF"/>
<path d="M371.96 34.0009C372.269 34.0011 372.573 33.9162 372.837 33.7554L386.113 26.0536C386.313 25.9378 386.487 25.7837 386.627 25.6003C386.767 25.4169 386.87 25.2077 386.929 24.9847C386.988 24.7617 387.003 24.5292 386.972 24.3005C386.941 24.0718 386.866 23.8515 386.75 23.6519C386.634 23.4524 386.48 23.2777 386.297 23.1377C386.113 22.9977 385.904 22.8952 385.681 22.8361C385.458 22.7769 385.226 22.7623 384.997 22.793C384.768 22.8237 384.548 22.8991 384.348 23.015L371.084 30.7285C370.749 30.9212 370.487 31.219 370.339 31.5758C370.191 31.9326 370.165 32.3282 370.265 32.7014C370.365 33.0745 370.585 33.4041 370.892 33.6391C371.198 33.8741 371.574 34.0013 371.96 34.0009Z" fill="#93D0FF"/>
<path d="M364.504 22.7225C364.812 22.7269 365.115 22.646 365.38 22.4888L378.692 14.7636C378.899 14.6524 379.082 14.5005 379.23 14.317C379.378 14.1334 379.487 13.922 379.551 13.6953C379.615 13.4687 379.633 13.2314 379.603 12.9977C379.574 12.764 379.497 12.5387 379.379 12.3352C379.26 12.1317 379.102 11.9542 378.913 11.8133C378.724 11.6724 378.509 11.571 378.28 11.5151C378.051 11.4592 377.813 11.4501 377.581 11.4881C377.348 11.5262 377.126 11.6107 376.927 11.7366L363.662 19.4618C363.324 19.6511 363.059 19.9478 362.908 20.3049C362.757 20.662 362.73 21.0591 362.831 21.4334C362.932 21.8076 363.154 22.1376 363.463 22.3711C363.773 22.6046 364.151 22.7283 364.539 22.7225H364.504Z" fill="#93D0FF"/>
<path d="M353.261 13.8289C353.57 13.8274 353.873 13.7427 354.137 13.5835L367.414 5.87004C367.817 5.63602 368.11 5.25151 368.23 4.80111C368.349 4.3507 368.285 3.87129 368.051 3.46834C367.817 3.06539 367.432 2.77191 366.982 2.65246C366.532 2.53301 366.052 2.59738 365.649 2.8314L352.373 10.5566C352.037 10.7498 351.775 11.0487 351.627 11.4066C351.479 11.7646 351.454 12.1614 351.555 12.5352C351.657 12.9089 351.879 13.2386 352.188 13.4726C352.496 13.7067 352.874 13.832 353.261 13.8289Z" fill="#93D0FF"/>
<path d="M47.5899 346.892L6.86646e-05 320.573L47.1809 292.196L97.26 318.235L47.5899 346.892Z" fill="url(#paint5_linear)"/>
<path d="M44.0009 234.964L75.334 253.173L106.877 234.964L75.5444 216.756L44.0009 234.964Z" fill="#7ADCA3"/>
<path d="M75.3341 254.926C75.6415 254.925 75.9434 254.844 76.2107 254.692L107.766 236.472C108.032 236.32 108.252 236.101 108.406 235.836C108.56 235.571 108.642 235.271 108.642 234.964C108.641 234.657 108.56 234.355 108.406 234.088C108.252 233.822 108.032 233.6 107.766 233.445L76.4327 215.237C76.1666 215.082 75.8641 215 75.5562 215C75.2482 215 74.9457 215.082 74.6796 215.237L43.1245 233.445C42.8572 233.597 42.635 233.817 42.4804 234.083C42.3258 234.349 42.2444 234.651 42.2444 234.959C42.2444 235.266 42.3258 235.568 42.4804 235.834C42.635 236.1 42.8572 236.32 43.1245 236.472L74.4576 254.681C74.7217 254.841 75.025 254.926 75.3341 254.926ZM103.383 234.953L75.3341 251.139L47.4955 234.964L75.5445 218.778L103.383 234.953Z" fill="#89E1AE"/>
<path d="M44.0012 234.964L44.4687 343.736L75.8018 361.956L75.3343 253.173L44.0012 234.964Z" fill="#6FCF97"/>
<path d="M75.7547 363.709C75.9859 363.709 76.2148 363.664 76.4283 363.575C76.6418 363.486 76.8355 363.356 76.9985 363.192C77.1614 363.028 77.2903 362.833 77.3777 362.619C77.4651 362.405 77.5093 362.176 77.5078 361.945L77.0403 253.161C77.0408 252.856 76.9612 252.556 76.8094 252.292C76.6576 252.027 76.439 251.807 76.1754 251.654L44.8307 233.445C44.5641 233.291 44.2617 233.21 43.9539 233.21C43.6461 233.21 43.3437 233.291 43.0771 233.445C42.8106 233.599 42.5893 233.821 42.4355 234.087C42.2817 234.354 42.2009 234.657 42.2011 234.964L42.6686 343.748C42.6681 344.053 42.7477 344.353 42.8994 344.617C43.0512 344.882 43.2698 345.102 43.5334 345.255L74.9132 363.522C75.1738 363.654 75.463 363.718 75.7547 363.709ZM73.5458 254.178L73.9899 358.894L46.163 342.731L45.7189 238.015L73.5458 254.178Z" fill="#89E1AE"/>
<path d="M75.3343 253.173L75.8018 361.956L107.333 343.748L106.878 234.964L75.3343 253.173Z" fill="#7ADCA3"/>
<path d="M75.7548 363.71C76.062 363.707 76.3635 363.626 76.6313 363.476L108.186 345.256C108.456 345.106 108.681 344.885 108.835 344.617C108.989 344.35 109.068 344.045 109.063 343.736L108.607 234.953C108.602 234.647 108.517 234.349 108.362 234.086C108.207 233.823 107.986 233.604 107.72 233.453C107.455 233.301 107.155 233.22 106.85 233.219C106.544 233.218 106.244 233.296 105.978 233.445L74.4225 251.654C74.1566 251.809 73.9358 252.03 73.7821 252.297C73.6283 252.563 73.5469 252.865 73.5459 253.173L74.0134 361.957C74.0144 362.264 74.0958 362.566 74.2496 362.833C74.4033 363.099 74.6241 363.321 74.89 363.476C75.1537 363.626 75.4514 363.706 75.7548 363.71ZM105.534 342.673L77.4845 358.859L77.0404 254.12L105.089 237.933L105.534 342.673Z" fill="#89E1AE"/>
<path d="M177.349 242.542L214.038 263.724V291.799L177.349 270.616V242.542Z" fill="#3199F0"/>
<path d="M177.349 99.1941L214.038 120.376V237.867L177.349 216.685V99.1941Z" fill="#3199F0"/>
<path d="M299.364 188.606L250.731 216.685L228.336 203.759L276.973 175.675L299.364 188.606Z" fill="#227AEB"/>
<path d="M249.231 269.75L215.538 289.201V263.724V261.127L213.288 262.425L197.189 271.715V249.326L214.784 239.166L215.533 238.733L215.533 237.867L215.538 121.255L277.715 85.3579L277.715 85.3577C284.896 81.2097 289.927 79.4681 293.945 79.2688C297.874 79.0739 301.015 80.3466 304.472 82.6985C310.865 87.2984 314.5 97.5684 314.5 114.227C314.5 131.236 310.712 146.749 302.949 160.922C295.167 175.128 287.669 184.029 271.73 193.235L249.982 205.789L249.231 206.222V207.088V216.694V219.292L251.482 217.993L297.864 191.205V213.597L249.981 241.243L249.231 241.676V242.542V269.75ZM249.231 172.625V175.224L251.482 173.924L261.286 168.263C269.113 163.752 274.886 158.406 278.051 152.933L278.052 152.932C281.363 147.19 282.949 141.64 282.949 135.675C282.949 130.343 281.637 125.791 278.292 123.273C276.424 121.867 273.948 121.634 271.171 122.201C268.388 122.769 265.083 124.179 261.283 126.372L249.981 132.898L249.231 133.331V134.197V172.625Z" fill="white" stroke="#93D0FF" stroke-width="3"/>
<path d="M262.033 127.64L250.731 134.166V172.594L260.537 166.933C268.217 162.506 273.76 157.326 276.752 152.152C279.948 146.609 281.449 141.315 281.449 135.644C281.449 130.474 280.165 126.529 277.39 124.44C274.614 122.35 269.501 123.329 262.033 127.64Z" fill="#227AEB"/>
<path d="M195.694 274.313L159.004 253.13V227.274L195.694 248.456V274.313Z" fill="#3199F0"/>
<path d="M159 227.274L177.345 216.685L214.038 237.867L195.694 248.461L159 227.274Z" fill="#3199F0"/>
<path d="M214.038 120.389L276.965 84.0589C291.471 75.679 298.085 76.5334 305.331 81.4692C305.774 81.7791 306.177 82.1111 306.584 82.4653C296.974 73.4347 275.544 63.6426 268.642 60.2871C260.758 56.458 254.782 54.4969 240.276 62.8724L177.349 99.2029L214.038 120.389Z" fill="#3199F0"/>
<defs>
<linearGradient id="paint0_linear" x1="237.542" y1="270.022" x2="156.283" y2="183.251" gradientUnits="userSpaceOnUse">
<stop stop-color="#CCE5FB"/>
<stop offset="1" stop-color="#CEE7FD" stop-opacity="0"/>
</linearGradient>
<linearGradient id="paint1_linear" x1="281.435" y1="389.548" x2="263.904" y2="373.657" gradientUnits="userSpaceOnUse">
<stop stop-color="#CCE5FB"/>
<stop offset="1" stop-color="#CEE7FD" stop-opacity="0"/>
</linearGradient>
<linearGradient id="paint2_linear" x1="249.252" y1="402.784" x2="217.831" y2="374.378" gradientUnits="userSpaceOnUse">
<stop stop-color="#CCE5FB"/>
<stop offset="1" stop-color="#CEE7FD" stop-opacity="0"/>
</linearGradient>
<linearGradient id="paint3_linear" x1="92.1973" y1="186.5" x2="49.4765" y2="140.649" gradientUnits="userSpaceOnUse">
<stop stop-color="#CCE5FB"/>
<stop offset="1" stop-color="#CEE7FD" stop-opacity="0"/>
</linearGradient>
<linearGradient id="paint4_linear" x1="333.206" y1="253.446" x2="290.486" y2="207.59" gradientUnits="userSpaceOnUse">
<stop stop-color="#CCE5FB"/>
<stop offset="1" stop-color="#CEE7FD" stop-opacity="0"/>
</linearGradient>
<linearGradient id="paint5_linear" x1="73.76" y1="342.696" x2="31.0393" y2="296.846" gradientUnits="userSpaceOnUse">
<stop stop-color="#CCE5FB"/>
<stop offset="1" stop-color="#CEE7FD" stop-opacity="0"/>
</linearGradient>
</defs>
</svg>
