<svg width="238" height="160" viewBox="0 0 238 160" fill="none" xmlns="http://www.w3.org/2000/svg">
<path d="M58.074 105.963L64.2439 109.526L66.4535 108.252C66.7794 108.086 67.1399 107.999 67.5055 107.999C67.8712 107.999 68.2317 108.086 68.5576 108.252L69.5224 108.809C70.1018 109.145 70.1018 109.688 69.5224 110.024L67.3128 111.298L136.101 151.013L138.311 149.739C138.637 149.574 138.997 149.487 139.363 149.487C139.729 149.487 140.089 149.574 140.415 149.739L141.38 150.296C141.962 150.632 141.964 151.175 141.38 151.511L139.17 152.786L145.342 156.35C146.796 157.19 149.153 157.19 150.604 156.35L203.066 126.061C204.517 125.222 204.517 123.852 203.066 123.024L115.795 72.6297C114.339 71.7901 111.982 71.7901 110.533 72.6297L58.0691 102.926C56.6181 103.764 56.6206 105.124 58.074 105.963Z" fill="url(#paint0_linear)"/>
<path d="M25.3843 14.6416V86.0959C25.3843 88.208 26.867 90.7763 28.6981 91.8352L143.97 158.431C144.886 158.958 145.715 159.005 146.313 158.662L151.601 155.609C152.209 155.265 152.584 154.523 152.582 153.457V82.0139L147.277 85.0758L25.3843 14.6416Z" fill="white"/>
<path d="M147.284 85.0671V156.51C147.284 157.56 146.918 158.296 146.326 158.645L151.603 155.599C152.211 155.255 152.585 154.513 152.584 153.447V82.0038L147.284 85.0671Z" fill="#CEE7FD"/>
<path d="M145.45 159.258C144.858 159.238 144.282 159.064 143.778 158.753L28.5045 92.1567C26.573 91.0433 25.0014 88.3214 25 86.0888V14.6416C25.0001 14.5744 25.018 14.5083 25.0517 14.4501C25.0854 14.392 25.1339 14.3437 25.1921 14.3102C25.2505 14.277 25.3165 14.2595 25.3836 14.2595C25.4507 14.2595 25.5167 14.277 25.575 14.3102L147.282 84.6167L152.391 81.6652C152.449 81.6315 152.515 81.6137 152.582 81.6137C152.649 81.6137 152.715 81.6315 152.773 81.6652C152.831 81.6987 152.88 81.747 152.913 81.8052C152.947 81.8634 152.965 81.9294 152.965 81.9967V153.44C152.965 154.587 152.563 155.461 151.829 155.899L151.793 155.922L146.504 158.985C146.183 159.168 145.819 159.262 145.45 159.258ZM25.7671 15.3074V86.096C25.7671 88.0847 27.1681 90.5081 28.8888 91.4995L144.162 158.097C144.925 158.536 145.622 158.618 146.122 158.328L151.373 155.296L151.412 155.27C151.921 154.983 152.199 154.339 152.199 153.455V82.6754L147.467 85.4015C147.409 85.4353 147.344 85.4531 147.277 85.4531C147.21 85.4531 147.144 85.4353 147.086 85.4015L25.7671 15.3074Z" fill="#93D0FF"/>
<path d="M26.3879 7.29959L26.3262 7.33546L26.2674 7.3699V7.37994C25.7197 7.74439 25.3784 8.45032 25.3784 9.45326V14.6416L147.278 85.0643L152.583 82.0024V76.8155C152.583 74.7034 151.101 72.1365 149.27 71.0762L33.9963 4.48446C33.0643 3.9464 32.2254 3.91053 31.6246 4.27354L26.3879 7.29959Z" fill="#5F98ED"/>
<path d="M152.582 76.8155C152.582 74.7034 151.099 72.1365 149.268 71.0762L33.9965 4.48446C33.0645 3.9464 32.2256 3.91053 31.6248 4.27354L26.4067 7.28668C27.0018 6.97245 27.8062 7.03128 28.701 7.54351L143.973 74.1438C145.805 75.197 147.285 77.7668 147.288 79.876V85.0657L152.594 82.0038L152.582 76.8155Z" fill="#208FED"/>
<path d="M147.284 85.4503C147.217 85.4504 147.151 85.4325 147.093 85.3987L25.1936 14.9759C25.1351 14.9427 25.0865 14.8944 25.0528 14.8362C25.019 14.778 25.0013 14.7118 25.0015 14.6445V9.4533C25.0015 8.40874 25.3499 7.58802 25.9823 7.1174C26.008 7.08631 26.0391 7.06006 26.074 7.03992L26.1959 6.96818L31.4341 3.94213C32.1826 3.48729 33.1548 3.56046 34.1886 4.15305L149.46 70.7505C151.424 71.8811 152.962 74.5456 152.965 76.8155V82.0053C152.965 82.0726 152.947 82.1388 152.914 82.197C152.88 82.2552 152.831 82.3035 152.773 82.3367L147.467 85.3987C147.412 85.4313 147.348 85.4491 147.284 85.4503ZM25.7672 14.4264L147.284 84.6282L152.201 81.7872V76.8155C152.201 74.8269 150.797 72.4034 149.079 71.4134L33.8058 4.81594C33.0343 4.36971 32.3303 4.29366 31.8255 4.60071L26.5788 7.63107L26.5415 7.65259C26.5249 7.6702 26.5061 7.68562 26.4856 7.6985C26.0224 8.00699 25.7686 8.62971 25.7686 9.4533L25.7672 14.4264Z" fill="#93D0FF"/>
<path d="M92.3441 48.8235C92.3441 50.0632 91.4752 50.5639 90.3997 49.9441L32.3472 16.405C31.2732 15.7838 30.4028 14.2772 30.4028 13.0389C30.4028 11.7978 31.2732 11.2971 32.3487 11.9183L90.4012 45.4574C91.4766 46.0787 92.3456 47.5838 92.3441 48.8235ZM134.459 72.4106C134.103 72.204 133.815 72.3719 133.816 72.7794C133.828 73.0031 133.892 73.2208 134.004 73.4149C134.116 73.6089 134.272 73.7736 134.46 73.8956C134.814 74.1037 135.104 73.9344 135.102 73.524C135.09 73.3009 135.025 73.0838 134.913 72.8903C134.802 72.6968 134.646 72.5325 134.459 72.4106ZM138.684 75.593C138.684 76.002 138.398 76.167 138.04 75.9632C137.852 75.8422 137.695 75.6779 137.583 75.484C137.471 75.2901 137.406 75.0722 137.395 74.8484C137.395 74.438 137.682 74.2744 138.039 74.4796C138.226 74.6015 138.382 74.7659 138.494 74.9593C138.607 75.1527 138.672 75.3698 138.684 75.593ZM142.269 77.6621C142.269 78.071 141.982 78.236 141.625 78.0322C141.438 77.9102 141.281 77.7455 141.169 77.5515C141.058 77.3574 140.993 77.1397 140.981 76.916C140.981 76.507 141.268 76.342 141.625 76.5443C141.81 76.6687 141.964 76.8344 142.073 77.0285C142.183 77.2225 142.246 77.4394 142.258 77.6621H142.269Z" fill="white"/>
<path d="M73.4064 22.4155C72.7999 22.7556 72.4256 23.4988 72.4256 24.5606V25.9251C72.4244 26.1455 72.4037 26.3654 72.3639 26.5822C72.1559 26.506 71.9545 26.413 71.7617 26.3039L72.3568 26.6482C72.0514 28.2165 70.7135 28.7589 69.1118 27.8348L72.4242 29.7489L110.185 51.5583L113.498 53.4709L116.15 51.9471C114.322 50.8896 112.838 48.3199 112.838 46.2078V44.8418C112.838 42.7312 111.357 40.1629 109.526 39.1025L78.3893 21.1227C77.473 20.5933 76.6442 20.5488 76.0448 20.8917L73.4064 22.4155Z" fill="white"/>
<path d="M112.945 46.4661V45.1001C112.945 42.9895 111.464 40.4212 109.633 39.3608L78.4963 21.381C77.58 20.8516 76.7512 20.8071 76.1519 21.15L73.5134 22.6738C74.1114 22.3337 74.9344 22.3868 75.845 22.9106L106.981 40.899C108.811 41.9564 110.294 44.5248 110.292 46.6383V48.0028C110.292 50.1134 111.778 52.6832 113.606 53.7421L116.257 52.2054C114.429 51.1494 112.945 48.5796 112.945 46.4661Z" fill="#CEE7FD"/>
<path d="M113.607 54.1195C113.54 54.1196 113.474 54.1017 113.417 54.0679L110.101 52.1567L69.0351 28.4304C68.9514 28.3776 68.8913 28.2944 68.8676 28.1982C68.8439 28.102 68.8583 28.0004 68.9078 27.9147C68.9574 27.8289 69.0382 27.7657 69.1333 27.7382C69.2284 27.7108 69.3304 27.7213 69.418 27.7675C70.1235 28.175 70.7831 28.2755 71.2821 28.0545C71.6377 27.8909 71.8958 27.5652 72.0378 27.1018L71.6907 26.9023C71.6038 26.8511 71.5406 26.7677 71.5148 26.6702C71.489 26.5726 71.5027 26.4688 71.5529 26.3813C71.6032 26.2938 71.6859 26.2297 71.7831 26.2028C71.8803 26.176 71.9842 26.1886 72.0722 26.238L72.1625 26.2882C72.1625 26.2552 72.1625 26.2237 72.1625 26.1921V24.8276C72.1625 23.6797 72.5669 22.8045 73.2996 22.3711L73.334 22.3482L75.9724 20.8244C76.7209 20.394 77.6931 20.4729 78.6969 21.0554L109.833 39.0438C111.766 40.1587 113.338 42.8805 113.338 45.1103V46.4662C113.338 48.452 114.739 50.8754 116.459 51.8712C116.517 51.9048 116.566 51.9532 116.599 52.0113C116.633 52.0695 116.65 52.1355 116.65 52.2026C116.65 52.2697 116.633 52.3357 116.599 52.3939C116.566 52.452 116.517 52.5004 116.459 52.534L113.799 54.0707C113.741 54.1034 113.674 54.1202 113.607 54.1195ZM71.2935 28.8523L113.607 53.2945L115.533 52.1825C113.854 50.9156 112.562 48.4907 112.562 46.4705V45.1045C112.562 43.1173 111.162 40.6939 109.442 39.701L78.304 21.7126C77.5426 21.2721 76.8471 21.1903 76.3438 21.4816L73.7398 22.9852C73.7277 22.9945 73.7147 23.0027 73.7011 23.0096C73.1949 23.2966 72.9168 23.938 72.9168 24.8218V26.1863C72.9155 26.4271 72.8924 26.6672 72.8479 26.9038C72.85 26.9271 72.85 26.9507 72.8479 26.9741C72.683 27.8163 72.2371 28.4419 71.5932 28.736C71.4964 28.7823 71.3962 28.8212 71.2935 28.8523Z" fill="#93D0FF"/>
<path d="M96.766 38.4023C96.766 38.7051 96.5509 38.8328 96.2871 38.6778L76.9291 27.4862C76.7906 27.3957 76.6754 27.2739 76.5926 27.1305C76.5099 26.9872 76.4621 26.8264 76.453 26.6612C76.453 26.3584 76.6638 26.2307 76.9291 26.3871L96.2871 37.5788C96.4262 37.6684 96.5422 37.7898 96.6254 37.933C96.7087 38.0761 96.7568 38.237 96.766 38.4023ZM90.1398 36.7767C90.1311 36.6112 90.0832 36.4502 90.0002 36.3068C89.9172 36.1633 89.8014 36.0417 89.6623 35.9517L76.9262 28.5924C76.6624 28.4404 76.4487 28.5637 76.4487 28.8679C76.4574 29.0333 76.505 29.1942 76.5877 29.3376C76.6705 29.481 76.786 29.6028 76.9248 29.693L89.6623 37.0493C89.9262 37.2043 90.1384 37.0809 90.1398 36.7767ZM105.588 44.6008L106.239 44.2249C106.426 44.1158 106.425 43.7657 106.239 43.4458C106.052 43.1258 105.747 42.9479 105.562 43.0555L104.908 43.43L104.258 42.3008C104.07 41.9794 103.768 41.8058 103.586 41.9148C103.404 42.0239 103.398 42.3696 103.586 42.691L104.235 43.8188L103.583 44.1947C103.398 44.3023 103.396 44.6496 103.583 44.9738C103.769 45.2981 104.072 45.4689 104.258 45.3612L104.909 44.9868L105.56 46.116C105.748 46.4388 106.049 46.611 106.236 46.5048C106.422 46.3986 106.422 46.05 106.236 45.7257L105.588 44.6008Z" fill="#5F98ED"/>
<path d="M72.4258 25.9236V24.5591C72.4258 22.447 70.9431 19.8801 69.1134 18.8198L37.9714 0.832808C37.0551 0.303357 36.2263 0.258875 35.627 0.601799L32.9928 2.12272C33.5908 1.78553 32.0092 2.16433 32.0106 4.27496V5.63804C32.0106 7.74867 30.5265 8.60239 28.6982 7.54636L32.0106 9.46042L69.7701 31.2856L73.0839 33.1982L75.7338 31.6672C73.9056 30.604 72.4258 28.0342 72.4258 25.9236Z" fill="#5F98ED"/>
<path d="M72.4256 25.9236V24.5591C72.4256 22.447 70.9429 19.8801 69.1132 18.8198L37.9713 0.832808C37.055 0.303357 36.2262 0.258875 35.6268 0.601799L32.9927 2.12272C33.5906 1.78553 34.4137 1.83575 35.3228 2.36377L66.459 20.3536C68.2887 21.4097 69.7714 23.9794 69.7714 26.0929V27.4589C69.7714 29.5681 71.2555 32.1393 73.0852 33.1982L75.7351 31.6672C73.9054 30.604 72.4256 28.0342 72.4256 25.9236Z" fill="#93D0FF"/>
<path d="M75.7336 32.0432C75.6666 32.0428 75.6009 32.025 75.5429 31.9915C73.61 30.8752 72.037 28.1534 72.0384 25.9237V24.5591C72.0384 22.5748 70.6389 20.1485 68.9182 19.1541L37.7805 1.16428C37.0176 0.723791 36.3207 0.642004 35.8174 0.933274L33.1991 2.44558L33.179 2.45706C33.1399 2.47924 33.0972 2.4943 33.0528 2.50154C32.8119 2.7139 32.3904 3.2333 32.3918 4.27499V5.63807C32.3918 6.80028 31.9802 7.6784 31.2317 8.11028C30.4832 8.54216 29.511 8.46037 28.5073 7.87783C28.4235 7.82501 28.3635 7.74178 28.3398 7.64562C28.316 7.54946 28.3305 7.44784 28.38 7.36208C28.4295 7.27633 28.5103 7.2131 28.6054 7.18566C28.7006 7.15823 28.8026 7.16872 28.8901 7.21494C29.653 7.65544 30.3484 7.73866 30.8517 7.44739C31.355 7.15612 31.6289 6.51619 31.6304 5.63807V4.27499C31.6304 2.47284 32.6829 1.70091 33.0471 1.63777H33.0758L35.4389 0.273253C36.1888 -0.157195 37.1596 -0.0782775 38.1633 0.504262L69.2996 18.4913C71.2311 19.609 72.8027 22.3308 72.8027 24.5591V25.9237C72.8027 27.9095 74.2022 30.3343 75.9243 31.3286C75.9986 31.3702 76.0568 31.4353 76.09 31.5137C76.1231 31.592 76.1293 31.6792 76.1074 31.7615C76.0855 31.8437 76.0369 31.9163 75.9693 31.9679C75.9016 32.0194 75.8187 32.0469 75.7336 32.0461V32.0432Z" fill="#93D0FF"/>
<path d="M56.2424 17.8571C56.2424 18.1612 56.0287 18.2875 55.7663 18.1326L36.4083 6.94091C36.2691 6.8514 36.1532 6.73003 36.0702 6.58681C35.9872 6.4436 35.9394 6.28267 35.9308 6.11732C35.9308 5.81314 36.143 5.68687 36.4083 5.84184L55.7663 17.0335C55.905 17.124 56.0205 17.2461 56.1032 17.3897C56.1859 17.5333 56.2336 17.6944 56.2424 17.8599V17.8571ZM49.6262 16.23C49.6163 16.0644 49.5678 15.9035 49.4846 15.76C49.4015 15.6165 49.286 15.4944 49.1473 15.4035L36.404 8.04142C36.1402 7.89794 35.9265 8.01273 35.9265 8.31691C35.9355 8.48234 35.9835 8.6433 36.0665 8.78667C36.1495 8.93004 36.2651 9.05177 36.404 9.14194L49.1401 16.5026C49.4054 16.6561 49.6176 16.5313 49.6191 16.2271L49.6262 16.23ZM65.0696 24.0541L65.722 23.6767C65.9084 23.5705 65.907 23.2204 65.722 22.899C65.5371 22.5776 65.2316 22.4012 65.0452 22.5102L64.3942 22.8833L63.7432 21.7555C63.5582 21.4341 63.2543 21.2605 63.0693 21.3667C62.8843 21.4728 62.8814 21.8229 63.0693 22.1443L63.7203 23.2735L63.0693 23.6495C62.8843 23.7556 62.8829 24.1029 63.0693 24.4271C63.2557 24.7514 63.5582 24.9236 63.7432 24.816L64.3942 24.4401L65.0438 25.5693C65.2316 25.8921 65.5342 26.0671 65.7192 25.9595C65.9041 25.8519 65.9084 25.5018 65.7192 25.1804L65.0696 24.0541Z" fill="white"/>
<rect width="19.2119" height="13.0804" rx="5" transform="matrix(0.86601 0.500028 3.18907e-05 1 33.5566 26.5922)" fill="#EDF4FC"/>
<rect width="19.2119" height="13.0804" rx="5" transform="matrix(0.86601 0.500028 3.18743e-05 1 33.5571 42.534)" fill="#EDF4FC"/>
<rect width="19.2119" height="13.0804" rx="5" transform="matrix(0.86601 0.500028 3.18743e-05 1 33.5576 58.4758)" fill="#EDF4FC"/>
<rect width="19.2119" height="13.0804" rx="5" transform="matrix(0.86601 0.500028 3.18743e-05 1 33.5581 74.4176)" fill="#5F98ED"/>
<rect width="19.2119" height="13.0804" rx="5" transform="matrix(0.86601 0.500028 3.18743e-05 1 55.8582 39.469)" fill="#EDF4FC"/>
<rect width="19.2119" height="13.0804" rx="5" transform="matrix(0.86601 0.500028 3.18743e-05 1 55.8586 55.4108)" fill="#EDF4FC"/>
<rect width="19.2119" height="13.0804" rx="5" transform="matrix(0.86601 0.500028 3.18743e-05 1 55.8591 71.3526)" fill="#EDF4FC"/>
<rect width="19.2119" height="13.0804" rx="5" transform="matrix(0.86601 0.500028 3.18743e-05 1 55.8599 87.2944)" fill="#EDF4FC"/>
<rect width="19.2119" height="13.0804" rx="5" transform="matrix(0.86601 0.500028 3.18743e-05 1 78.1597 52.3458)" fill="#EDF4FC"/>
<rect width="19.2119" height="13.0804" rx="5" transform="matrix(0.86601 0.500028 3.18743e-05 1 78.1604 68.2876)" fill="#6FCF97"/>
<rect width="19.2119" height="13.0804" rx="5" transform="matrix(0.86601 0.500028 3.18743e-05 1 78.1609 84.2294)" fill="#EDF4FC"/>
<rect width="19.2119" height="13.0804" rx="5" transform="matrix(0.86601 0.500028 3.18743e-05 1 78.1614 100.171)" fill="#EDF4FC"/>
<rect width="19.2119" height="13.0804" rx="5" transform="matrix(0.86601 0.500028 3.18743e-05 1 100.461 65.2226)" fill="#EDF4FC"/>
<rect width="19.2119" height="13.0804" rx="5" transform="matrix(0.86601 0.500028 3.18743e-05 1 100.462 81.1644)" fill="#EDF4FC"/>
<rect width="19.2119" height="13.0804" rx="5" transform="matrix(0.86601 0.500028 3.18743e-05 1 100.462 97.1061)" fill="#EDF4FC"/>
<rect width="19.2119" height="13.0804" rx="5" transform="matrix(0.86601 0.500028 3.18743e-05 1 100.463 113.048)" fill="#EDF4FC"/>
<rect width="19.2119" height="13.0804" rx="5" transform="matrix(0.86601 0.500028 3.18743e-05 1 122.763 78.0994)" fill="#EDF4FC"/>
<rect width="19.2119" height="13.0804" rx="5" transform="matrix(0.86601 0.500028 3.18743e-05 1 122.763 94.0411)" fill="#EDF4FC"/>
<rect width="19.2119" height="13.0804" rx="5" transform="matrix(0.86601 0.500028 3.18743e-05 1 122.764 109.983)" fill="#EB5757"/>
<rect width="19.2119" height="13.0804" rx="5" transform="matrix(0.86601 0.500028 3.18743e-05 1 122.765 125.925)" fill="#EDF4FC"/>
<path d="M61 139.647H60.9918C60.9894 138.872 60.8509 138.103 60.583 137.377L44.8261 139.413L46.8444 133.944V129.247C41.0525 128.499 34.7646 129.447 30.2664 132.11C26.7496 134.191 24.9953 136.918 25 139.647V144.348C25.0071 147.073 26.7672 149.796 30.2817 151.874C37.3177 156.037 48.7188 156.043 55.7466 151.883C59.2634 149.803 60.9988 147.076 60.9918 144.348H61V139.647Z" fill="white"/>
<path d="M43.0694 140L46.5778 135.27L47 134.116V129.256C41.0623 128.483 34.6166 129.461 30 132.203L43.0694 140Z" fill="#CEE7FD"/>
<path d="M60.9918 140C61 142.666 59.2646 145.333 55.7466 147.367C48.7188 151.43 37.3177 151.424 30.2817 147.357C26.7661 145.323 25.0059 142.662 25 140V144.593C25.0071 147.255 26.7672 149.915 30.2817 151.946C37.3177 156.014 48.7188 156.02 55.7466 151.955C59.2634 149.922 60.9988 147.258 60.9918 144.593H61V140H60.9918Z" fill="#CEE7FD"/>
<path d="M43.0272 155C38.4383 155 33.8459 153.972 30.3497 151.919C26.9077 149.899 25.007 147.191 25 144.295V139.714C24.9942 136.814 26.8892 134.101 30.3346 132.077C34.6599 129.536 40.82 128.477 46.8125 129.246C46.8933 129.256 46.9677 129.296 47.0215 129.358C47.0754 129.42 47.1051 129.5 47.105 129.583V134.159C47.1048 134.199 47.0974 134.239 47.083 134.276L45.2991 139.076L60.2138 137.163C60.288 137.154 60.3631 137.17 60.4272 137.21C60.4912 137.249 60.5406 137.309 60.5676 137.379C60.8354 138.1 60.9782 138.862 60.9896 139.632C60.9965 139.658 61 139.685 61 139.712V144.291C60.9999 144.318 60.9968 144.345 60.9907 144.371C60.9641 147.247 59.0807 149.927 55.6723 151.926C52.1887 153.975 47.6079 155 43.0272 155ZM42.9439 129.68C38.3724 129.68 33.9673 130.729 30.6688 132.666C27.4396 134.563 25.6637 137.067 25.6683 139.714V144.279C25.6752 146.935 27.4569 149.435 30.6849 151.33C37.4867 155.329 48.5479 155.329 55.3405 151.339C58.5593 149.448 60.3271 146.946 60.319 144.295C60.3191 144.268 60.3223 144.241 60.3283 144.215V139.793C60.3222 139.768 60.3191 139.742 60.319 139.716C60.3169 139.09 60.2186 138.469 60.0276 137.875L44.8331 139.824C44.7759 139.831 44.7177 139.823 44.6644 139.801C44.611 139.778 44.5642 139.742 44.5285 139.696C44.4928 139.65 44.4694 139.595 44.4606 139.537C44.4518 139.479 44.4578 139.42 44.4782 139.365L46.4379 134.096V129.881C45.278 129.746 44.1114 129.679 42.9439 129.68Z" fill="#93D0FF"/>
<path d="M46.5879 125L42 137.108V140L63 137.355V134.466C61.2145 129.747 54.7741 126.032 46.5879 125Z" fill="#3199F0"/>
<g style="mix-blend-mode:overlay" opacity="0.3">
<path d="M43 136.865V140L63 137.132V134L43 136.865Z" fill="black"/>
</g>
<path d="M42.3465 140C42.2546 140 42.1665 139.964 42.1015 139.9C42.0365 139.836 42 139.749 42 139.658V136.898C42.0003 136.858 42.0076 136.818 42.0216 136.78L46.4575 125.221C46.4858 125.15 46.5373 125.089 46.6038 125.05C46.6704 125.01 46.7484 124.994 46.8256 125.002C54.8582 126.002 61.2029 129.635 62.9784 134.256C62.9924 134.294 62.9997 134.334 63 134.374V137.132C63.0001 137.215 62.9693 137.296 62.9134 137.358C62.8576 137.421 62.7805 137.461 62.6967 137.471L42.392 139.996C42.377 139.999 42.3617 140 42.3465 140ZM42.693 136.961V139.271L62.3046 136.832V134.438C60.607 130.128 54.6317 126.723 47.0066 125.714L42.693 136.961Z" fill="#93D0FF"/>
<path d="M175.501 99.8752L177.472 101.091L178.177 100.656C178.282 100.6 178.397 100.57 178.513 100.57C178.63 100.57 178.745 100.6 178.849 100.656L179.158 100.846C179.343 100.961 179.343 101.146 179.158 101.261L178.452 101.696L187.267 105.964L187.973 105.529C188.077 105.472 188.192 105.443 188.308 105.443C188.425 105.443 188.54 105.472 188.644 105.529L188.953 105.719C189.138 105.834 189.139 106.019 188.953 106.134L188.247 106.569L190.218 107.785C190.682 108.072 191.435 108.072 191.898 107.785L208.652 97.4488C209.116 97.1622 209.116 96.6947 208.652 96.4123L193.935 88.4999C193.47 88.2134 192.717 88.2134 192.255 88.4999L175.5 98.8388C175.036 99.1245 175.037 99.5887 175.501 99.8752Z" fill="url(#paint1_linear)"/>
<path d="M193.078 99.0251L193.193 106.544L186.86 110.333L178.112 109.118L175.705 104.119L175.589 96.6016L178 101.601L186.745 102.815L193.078 99.0251Z" fill="white"/>
<g opacity="0.5">
<path opacity="0.5" d="M178.161 109.332L177.895 101.704L186.696 102.601L186.965 110.231L178.161 109.332Z" fill="#CEE7FD"/>
</g>
<path d="M175.172 96.3694C175.132 96.4422 175.112 96.5244 175.113 96.6076L175.228 104.127C175.229 104.196 175.245 104.264 175.275 104.326L177.683 109.324C177.717 109.395 177.768 109.457 177.832 109.503C177.895 109.549 177.969 109.579 178.047 109.59L186.788 110.801C186.895 110.815 187.004 110.793 187.098 110.738L193.43 106.947C193.502 106.905 193.561 106.844 193.601 106.771C193.642 106.698 193.663 106.616 193.661 106.532L193.547 99.015C193.545 98.9319 193.521 98.8508 193.478 98.7796C193.435 98.7084 193.375 98.6498 193.302 98.6093C193.23 98.5689 193.148 98.5481 193.064 98.549C192.981 98.55 192.9 98.5726 192.828 98.6147L186.637 102.322L178.312 101.167L176.011 96.3957C175.973 96.3174 175.914 96.251 175.841 96.2038C175.767 96.1565 175.683 96.1302 175.596 96.1277C175.508 96.1252 175.422 96.1466 175.347 96.1895C175.271 96.2324 175.208 96.2953 175.166 96.3713L175.172 96.3694ZM176.177 104.008L176.094 98.7487L177.568 101.805C177.602 101.876 177.653 101.937 177.716 101.983C177.779 102.03 177.853 102.06 177.93 102.071L186.671 103.283C186.779 103.297 186.889 103.275 186.982 103.218L192.606 99.8524L192.704 106.272L186.75 109.835L178.421 108.678L176.177 104.008Z" fill="#93D0FF"/>
<path d="M181.925 92.8129L190.667 94.0216L193.078 99.0251L186.745 102.815L178 101.601L175.589 96.6016L181.925 92.8129Z" fill="#EDEDEF"/>
<path d="M192.272 46.7696L193.078 99.0251L186.745 102.815L178 101.601L175.589 96.6016L174.784 44.341L177.192 49.3428L185.939 50.5539L192.272 46.7696Z" fill="#3199F0"/>
<g style="mix-blend-mode:overlay" opacity="0.2">
<path d="M177.192 49.3428L178 101.601L186.745 102.815L185.939 50.5539L177.192 49.3428Z" fill="black"/>
</g>
<g style="mix-blend-mode:overlay" opacity="0.3">
<path d="M174.785 44.3409L175.589 96.6015L178 101.601L177.192 49.3428L174.785 44.3409Z" fill="black"/>
</g>
<path d="M174.37 44.1045C174.33 44.1774 174.309 44.2595 174.311 44.3427L175.112 96.6091C175.114 96.6777 175.13 96.7453 175.16 96.8071L177.572 101.808C177.606 101.878 177.657 101.939 177.72 101.986C177.783 102.032 177.857 102.062 177.934 102.073L186.675 103.285C186.783 103.3 186.893 103.277 186.986 103.221L193.318 99.432C193.39 99.3888 193.448 99.3278 193.489 99.2549C193.53 99.1821 193.551 99.1 193.55 99.0166L192.745 46.7597C192.744 46.6764 192.72 46.595 192.678 46.5235C192.635 46.4521 192.574 46.3931 192.501 46.3526C192.428 46.3121 192.346 46.2914 192.263 46.2926C192.18 46.2938 192.098 46.3168 192.026 46.3595L185.831 50.0646L177.504 48.9119L175.205 44.1403C175.167 44.062 175.108 43.9956 175.035 43.9483C174.962 43.9011 174.877 43.8748 174.79 43.8722C174.703 43.8697 174.617 43.8911 174.541 43.934C174.465 43.977 174.403 44.0399 174.36 44.1159L174.37 44.1045ZM176.064 96.4895L175.286 46.4976L176.756 49.5517C176.79 49.6223 176.842 49.6833 176.905 49.7295C176.969 49.7757 177.042 49.8057 177.12 49.8169L185.863 51.0256C185.97 51.0399 186.078 51.0175 186.171 50.962L191.807 47.6024L192.595 98.7598L186.641 102.322L178.315 101.167L176.064 96.4895Z" fill="#93D0FF"/>
<path d="M182.576 31.6913L185.333 32.0727L186.093 33.6502L184.097 34.8397L181.342 34.4576L180.586 32.884L182.576 31.6913Z" fill="#EDEDEF"/>
<path d="M186.093 33.6501L192.272 46.7695L185.939 50.5539L177.192 49.3428L174.784 44.3409L180.586 32.8839L181.342 34.4576L184.097 34.8397L186.093 33.6501Z" fill="white"/>
<g opacity="0.5">
<path opacity="0.5" d="M181.137 34.4809L177.259 49.5999L186.114 50.4802L183.926 34.7588L181.137 34.4809Z" fill="#CEE7FD"/>
</g>
<path d="M180.586 32.8839L174.784 44.3409L177.192 49.3428L181.342 34.4576L180.586 32.8839Z" fill="#CEE7FD"/>
<path d="M180.174 32.6492L180.166 32.665L174.364 44.122C174.331 44.187 174.313 44.2589 174.312 44.3319C174.311 44.405 174.327 44.4773 174.359 44.543L176.767 49.5449C176.801 49.6154 176.853 49.6765 176.916 49.7227C176.98 49.7689 177.054 49.7989 177.131 49.8101L185.874 51.0187C185.981 51.0331 186.09 51.0107 186.182 50.9552L192.518 47.1702C192.619 47.1095 192.694 47.0135 192.729 46.9007C192.763 46.788 192.754 46.6665 192.704 46.5598L186.523 33.4396C186.494 33.3797 186.454 33.3263 186.403 33.2831C186.353 33.2398 186.294 33.2075 186.231 33.1882C186.167 33.1689 186.1 33.1632 186.034 33.1712C185.968 33.1793 185.905 33.201 185.848 33.235L183.998 34.3382L181.661 34.0138L181.015 32.6712C180.977 32.5936 180.918 32.528 180.845 32.4814C180.772 32.4347 180.688 32.4089 180.601 32.4066C180.515 32.4044 180.429 32.4258 180.354 32.4685C180.279 32.5112 180.217 32.5737 180.174 32.6492ZM175.318 44.3427L180.578 33.9567L180.916 34.6611C180.95 34.7319 181.002 34.7932 181.065 34.8395C181.129 34.8857 181.203 34.9156 181.281 34.9263L184.036 35.3083C184.143 35.3229 184.252 35.3007 184.346 35.2456L185.889 34.3238L191.663 46.579L185.842 50.0555L177.514 48.9029L175.318 44.3427Z" fill="#93D0FF"/>
<path d="M184.177 27.7865L183.922 27.2603L182.997 27.1315L182.328 27.5347L180.586 32.884L181.342 34.4576L184.097 34.8397L186.093 33.6502L184.177 27.7865Z" fill="#3199F0"/>
<g style="mix-blend-mode:overlay" opacity="0.2">
<path d="M182.585 28.0579L183.507 28.1874L184.097 34.8397L181.342 34.4576L182.585 28.0579Z" fill="black"/>
</g>
<g style="mix-blend-mode:overlay" opacity="0.3">
<path d="M182.329 27.5347L182.585 28.0579L181.342 34.4576L180.586 32.884L182.329 27.5347Z" fill="black"/>
</g>
<path d="M181.912 27.3025C181.897 27.3296 181.884 27.3582 181.875 27.3878L180.133 32.7371C180.096 32.8534 180.105 32.9792 180.157 33.0895L180.912 34.6646C180.947 34.7354 180.998 34.7966 181.061 34.8429C181.125 34.8892 181.199 34.919 181.277 34.9298L184.032 35.3118C184.139 35.3263 184.248 35.3042 184.342 35.249L186.336 34.0587C186.429 34.0036 186.5 33.9184 186.538 33.8172C186.576 33.716 186.578 33.6049 186.544 33.5024L184.629 27.6395C184.623 27.619 184.614 27.5992 184.604 27.5802L184.35 27.0526C184.316 26.9819 184.265 26.9208 184.202 26.8746C184.138 26.8285 184.065 26.7988 183.987 26.7882L183.062 26.6608C182.954 26.6457 182.845 26.6679 182.752 26.7235L182.083 27.1268C182.011 27.169 181.952 27.2297 181.912 27.3025ZM181.098 32.8508L182.725 27.8499L183.098 27.6264L183.604 27.6954L183.738 27.9584L185.526 33.4305L184.002 34.3383L181.665 34.0139L181.098 32.8508Z" fill="#93D0FF"/>
<path d="M15.6049 96.0114C15.6049 94.8796 14.8684 93.7453 13.3633 92.8811C10.373 91.1625 5.52157 91.1625 2.52628 92.8811C1.02373 93.7453 0.274915 94.887 0.28228 96.0237V98.0738C0.28228 99.213 1.01883 100.352 2.52384 101.216C5.51176 102.935 10.3656 102.935 13.3584 101.216C14.8536 100.355 15.6024 99.2228 15.6049 98.091V96.0114Z" fill="#3199F0"/>
<g style="mix-blend-mode:overlay" opacity="0.3">
<path d="M15.6051 96.0114C15.6051 97.1432 14.8538 98.275 13.3586 99.1368C10.3658 100.868 5.50213 100.868 2.52403 99.1368C1.03375 98.2775 0.287381 97.153 0.282471 96.0261V98.0762C0.282471 99.2153 1.01902 100.355 2.52403 101.219C5.51195 102.937 10.3658 102.937 13.3586 101.219C14.8538 100.357 15.6026 99.2252 15.6051 98.0933V96.0089V96.0114Z" fill="black"/>
</g>
<path d="M7.93515 102.797C5.92438 102.797 3.91361 102.353 2.38405 101.469C0.854483 100.585 -0.00973783 99.375 8.27946e-05 98.0787V96.0311C8.27946e-05 94.7372 0.839739 93.5342 2.38649 92.6429C5.45052 90.8728 10.437 90.8679 13.5034 92.6429C15.0306 93.5268 15.8751 94.7151 15.885 95.9918C15.8861 96.0007 15.8861 96.0098 15.885 96.0188V98.1032C15.8862 98.113 15.8862 98.1229 15.885 98.1327C15.8727 99.4069 15.0256 100.588 13.501 101.472C11.9763 102.356 9.95084 102.795 7.93515 102.797ZM7.9548 91.8671C6.03977 91.8671 4.12475 92.2894 2.66884 93.1315C1.30377 93.9172 0.5574 94.9459 0.564766 96.0311V98.0811C0.564766 99.1663 1.30131 100.195 2.66392 100.981C5.57328 102.662 10.3068 102.66 13.2211 100.981C14.5763 100.197 15.3227 99.1761 15.3252 98.0983V96.0139C15.3252 94.9361 14.5886 93.9098 13.2236 93.1266C11.7701 92.2869 9.86245 91.8671 7.9548 91.8671Z" fill="#93D0FF"/>
<path d="M14.5762 92.9302C14.5762 88.2016 11.5441 87.4896 11.5441 85.3978C11.5441 83.306 14.5762 82.5916 14.5762 77.8629V74.8677C14.6155 73.8561 13.9747 72.8397 12.6391 72.0688C10.0489 70.5736 5.8432 70.5736 3.25055 72.0688C1.91249 72.8372 1.27171 73.8561 1.31099 74.8677V77.8556C1.31099 82.5842 4.34065 83.2986 4.34065 85.3904C4.34065 87.4822 1.31099 88.1942 1.31099 92.9228V95.9181C1.26925 96.9297 1.91249 97.9461 3.2481 98.717C5.83583 100.212 10.0415 100.212 12.6366 98.717C13.9722 97.9461 14.6155 96.9272 14.5762 95.9181V92.9302Z" fill="white"/>
<path d="M12.1775 83.7749C13.0638 82.5474 14.5762 81.2044 14.5762 77.8629V74.8677C14.6155 73.8561 13.9747 72.8397 12.6391 72.0688C10.9205 71.0867 8.5316 70.7725 6.34651 71.0867V71.0695C6.23111 71.0867 6.11819 71.1113 6.00525 71.1334L5.82111 71.1653C4.92077 71.3255 4.05306 71.6332 3.25301 72.0761C1.91495 72.8446 1.27415 73.8635 1.31343 74.875V77.8629C1.31343 82.5916 4.3431 83.306 4.3431 85.3978C4.3431 87.4896 1.31343 88.2016 1.31343 92.9302V95.9255C1.27169 96.937 1.91495 97.9535 3.25055 98.7244C3.53643 98.8853 3.83344 99.0256 4.13932 99.1442C4.26371 99.1933 4.39138 99.24 4.52232 99.2841C4.69173 99.3431 4.8636 99.3946 5.04037 99.4413C5.46809 99.5634 5.90368 99.6561 6.34406 99.7187C8.5267 100.031 10.9278 99.7064 12.6342 98.7195C13.9698 97.9485 14.613 96.9297 14.5737 95.9206V92.9302C14.5456 92.1075 14.4337 91.2898 14.2398 90.4898C15.6025 97.6294 6.40788 98.8741 6.40788 90.7353C6.41034 83.7332 8.81394 87.5019 12.1775 83.7749Z" fill="#CEE7FD"/>
<path d="M7.93504 100.121C6.18697 100.121 4.43891 99.7384 3.10576 98.9674C1.72105 98.1695 0.982044 97.0843 1.02869 95.9132V92.9302C1.02869 89.984 2.15315 88.5625 3.05419 87.4135C3.61642 86.699 4.0608 86.1344 4.0608 85.3978C4.0608 84.6613 3.61643 84.0941 3.05665 83.3797C2.15316 82.2307 1.02869 80.8018 1.02869 77.8629V74.875C0.982044 73.7137 1.72104 72.631 3.11066 71.8331C5.7745 70.2888 10.1128 70.2863 12.7815 71.8331C14.1662 72.6335 14.9028 73.7186 14.8561 74.8873V77.8703C14.8561 80.8165 13.7317 82.238 12.8306 83.387C12.2684 84.1015 11.8265 84.6662 11.8265 85.4052C11.8265 86.1442 12.2684 86.7064 12.8306 87.4209C13.7341 88.5699 14.8561 90.0012 14.8561 92.9376V95.928C14.9028 97.0868 14.1638 98.172 12.7766 98.9699C11.441 99.7359 9.68802 100.121 7.93504 100.121ZM7.95469 71.2267C6.30237 71.2267 4.65004 71.5925 3.39055 72.3192C2.19243 73.0091 1.55409 73.9126 1.59092 74.8627V77.8629C1.59092 80.6053 2.64664 81.9508 3.49612 83.0335C4.10009 83.802 4.62058 84.4649 4.62058 85.3978C4.62058 86.3308 4.10009 86.9937 3.49612 87.7621C2.64664 88.8424 1.59092 90.1878 1.59092 92.9302V95.9255C1.55163 96.8879 2.18997 97.7914 3.38563 98.4789C5.8948 99.9299 9.98019 99.9274 12.4943 98.4789C13.6899 97.789 14.3283 96.8855 14.2914 95.9329V92.9302C14.2914 90.1878 13.2333 88.8424 12.3838 87.7621C11.7823 86.9937 11.2593 86.3308 11.2593 85.3978C11.2593 84.4649 11.7823 83.802 12.3838 83.0335C13.2333 81.9508 14.2914 80.6053 14.2914 77.8629V74.8677C14.3307 73.9077 13.6924 73.0042 12.4967 72.3118C11.2446 71.59 9.59964 71.2267 7.95469 71.2267Z" fill="#93D0FF"/>
<path d="M15.6049 72.6997C15.6049 71.5654 14.8684 70.4311 13.3633 69.5645C10.373 67.8459 5.52157 67.8459 2.52628 69.5645C1.02373 70.4311 0.274915 71.5703 0.28228 72.7071V74.7571C0.28228 75.8963 1.01883 77.0355 2.52384 77.9022C5.51176 79.6208 10.3656 79.6208 13.3584 77.9022C14.8536 77.0404 15.6024 75.9086 15.6049 74.7792V72.6997Z" fill="#3199F0"/>
<g style="mix-blend-mode:overlay" opacity="0.3">
<path d="M15.6051 72.6997C15.6051 73.8291 14.8538 74.9609 13.3586 75.8227C10.3658 77.556 5.50213 77.556 2.52403 75.8227C1.03375 74.9658 0.287381 73.8389 0.282471 72.712V74.762C0.282471 75.9012 1.01902 77.0404 2.52403 77.9071C5.51195 79.6257 10.3658 79.6257 13.3586 77.9071C14.8538 77.0453 15.6026 75.9135 15.6051 74.7841V72.6997Z" fill="black"/>
</g>
<path d="M7.93514 79.4834C5.92437 79.4834 3.9136 79.0414 2.38404 78.1551C0.854481 77.2688 -0.00973781 76.0609 8.27945e-05 74.7646V72.717C8.27945e-05 71.4256 0.839738 70.2201 2.38648 69.3313C5.45051 67.5587 10.4369 67.5538 13.5034 69.3313C15.0305 70.2152 15.8751 71.4035 15.8849 72.6826C15.8863 72.6915 15.8863 72.7006 15.8849 72.7096V74.794C15.8861 74.803 15.8861 74.8121 15.8849 74.821C15.8726 76.0953 15.0256 77.2762 13.501 78.16C11.9763 79.0439 9.95082 79.4834 7.93514 79.4834ZM7.95478 68.553C6.03976 68.553 4.12474 68.9753 2.66883 69.8174C1.30377 70.6031 0.557399 71.6318 0.564765 72.717V74.767C0.564765 75.8547 1.30131 76.8834 2.66392 77.6666C5.57327 79.3508 10.3068 79.3483 13.2211 77.6666C14.5763 76.8834 15.3227 75.862 15.3251 74.7867V72.6998C15.3251 71.622 14.5886 70.5957 13.2235 69.8125C11.7701 68.9729 9.86243 68.553 7.95478 68.553Z" fill="#93D0FF"/>
<path d="M12.0597 93.6398C10.9254 92.9842 9.43516 90.1093 7.94734 90.1093C6.45952 90.1093 4.9717 92.9818 3.8276 93.6398C1.55414 94.9484 1.55168 97.077 3.8276 98.388C6.10353 99.6991 9.78379 99.7015 12.0573 98.388C14.3307 97.0745 14.3332 94.9459 12.0597 93.6398Z" fill="#CEE7FD"/>
<g style="mix-blend-mode:overlay" opacity="0.7">
<path d="M3.82761 93.6397C1.55414 94.9483 1.55168 97.0769 3.82761 98.388C6.10353 99.699 9.78379 99.7015 12.0573 98.388C13.6924 97.4452 14.1442 96.0826 13.4322 94.9016C11.3453 97.5876 6.52336 96.7037 6.41533 90.9292C5.46273 91.8302 4.57397 93.2076 3.82761 93.6397Z" fill="black"/>
</g>
<path d="M10.896 80.4458C9.2658 79.5055 6.61914 79.5055 4.98646 80.4458C4.05596 80.9835 3.67295 81.7102 3.80553 82.41C3.88416 82.7784 4.07448 83.1136 4.35057 83.3699C4.38985 83.4068 4.42668 83.4485 4.46351 83.4853C5.98571 85.0222 6.91866 84.8823 7.11507 85.393C7.17736 85.5583 7.29064 85.6995 7.4385 85.7961C7.58636 85.8928 7.76115 85.9399 7.93756 85.9306C8.11397 85.9399 8.28875 85.8928 8.43661 85.7961C8.58447 85.6995 8.69774 85.5583 8.76003 85.393C8.95399 84.8823 9.89432 85.0222 11.4239 83.473C11.7542 83.2018 11.982 82.8259 12.0696 82.4075C12.2071 81.7102 11.8265 80.9835 10.896 80.4458Z" fill="#CEE7FD"/>
<g style="mix-blend-mode:overlay" opacity="0.7">
<path d="M10.896 80.4458C9.2658 79.5055 6.61914 79.5055 4.98646 80.4458C4.05596 80.9835 3.67295 81.7102 3.80553 82.41C3.88416 82.7784 4.07448 83.1136 4.35057 83.3699C4.38985 83.4068 4.42668 83.4485 4.46351 83.4853C5.98571 85.0222 6.91866 84.8823 7.11507 85.393C7.17736 85.5583 7.29064 85.6995 7.4385 85.7961C7.58636 85.8928 7.76115 85.9399 7.93756 85.9306C8.11397 85.9399 8.28875 85.8928 8.43661 85.7961C8.58447 85.6995 8.69774 85.5583 8.76003 85.393C8.95399 84.8823 9.89432 85.0222 11.4239 83.473C11.7542 83.2018 11.982 82.8259 12.0696 82.4075C12.2071 81.7102 11.8265 80.9835 10.896 80.4458Z" fill="black"/>
</g>
<g style="mix-blend-mode:overlay" opacity="0.1">
<path d="M10.1791 80.7403C8.95156 80.0259 6.94078 80.0259 5.70338 80.7403C4.46599 81.4548 4.46353 82.6111 5.70338 83.3231C6.94324 84.0351 8.94418 84.0376 10.1816 83.3231C11.419 82.6087 11.4141 81.4523 10.1791 80.7403Z" fill="black"/>
</g>
<path d="M10.5206 29.6962L58.4794 57.398C59.097 57.7972 59.6116 58.3367 59.9812 58.9725C60.3509 59.6082 60.5651 60.3223 60.6064 61.0566V71.7452C60.6064 73.0924 59.6599 73.6383 58.4794 72.9647L10.5171 45.2736C9.89988 44.8747 9.3856 44.3358 9.01599 43.7007C8.64638 43.0656 8.43187 42.3522 8.38996 41.6185V30.9122C8.41124 29.5686 9.35425 29.0368 10.5206 29.6962Z" fill="white"/>
<path d="M59.4259 73.6523C59.6908 73.6543 59.9514 73.5858 60.1811 73.4538C60.7093 73.1489 61.0035 72.5356 61 71.7344V61.0458C60.9637 60.2408 60.7345 59.4564 60.3316 58.7586C59.9287 58.0608 59.3639 57.4701 58.685 57.0362L10.7227 29.3451C10.0137 28.9445 9.35424 28.8913 8.82601 29.1927C8.29778 29.494 8.00355 30.1073 8 30.912V41.6078C8.03872 42.4125 8.26935 43.1964 8.67268 43.8939C9.07601 44.5914 9.64035 45.1823 10.3185 45.6173L58.2773 73.3084C58.6239 73.5207 59.0197 73.6392 59.4259 73.6523ZM9.55633 29.8166C9.81952 29.8285 10.075 29.9091 10.2973 30.0506L58.2773 57.7523C58.8299 58.1184 59.29 58.6076 59.6216 59.1815C59.9532 59.7554 60.147 60.3984 60.1881 61.06V71.7486C60.241 71.94 60.2288 72.1435 60.1536 72.3272C60.0783 72.511 59.9442 72.6646 59.7723 72.7639C59.6004 72.8632 59.4004 72.9027 59.2036 72.8762C59.0068 72.8496 58.8244 72.7585 58.685 72.6171L10.7227 44.926C10.1711 44.5601 9.71173 44.0714 9.3808 43.4981C9.04987 42.9248 8.85634 42.2826 8.81541 41.6219V30.912C8.79373 30.7215 8.82071 30.5285 8.89386 30.3512C8.96702 30.1739 9.08395 30.018 9.23371 29.8981C9.3329 29.8448 9.44372 29.8168 9.55633 29.8166Z" fill="#93D0FF"/>
<path d="M51.1373 60.663L52.3817 62.4356L51.9066 63.8536C51.8842 64.002 51.9058 64.1536 51.9689 64.2897C52.0319 64.4259 52.1335 64.5405 52.2611 64.6194C52.2928 64.6414 52.3285 64.6569 52.3663 64.6648C52.4041 64.6727 52.443 64.6729 52.4809 64.6655L53.7323 64.3393L54.9802 66.1119C55.1114 66.2962 55.2887 66.399 55.4163 66.3636C55.5439 66.3281 55.6042 66.1651 55.5546 65.963L55.076 63.9884L56.3274 63.6693C56.4586 63.6303 56.5118 63.4707 56.4621 63.2651C56.4116 63.0587 56.285 62.8789 56.1076 62.7617L54.5619 61.8683L54.0833 59.9008C54.035 59.6943 53.9077 59.5148 53.7288 59.4009C53.5693 59.3088 53.4239 59.3407 53.3743 59.4896L52.8992 60.9076L51.3536 60.0142C51.1905 59.9221 51.0487 59.9575 50.9991 60.1064C50.9821 60.2037 50.9856 60.3035 51.0094 60.3993C51.0332 60.4952 51.0768 60.585 51.1373 60.663ZM41.3846 54.5618C41.4343 54.4094 41.5761 54.3739 41.7391 54.4661L43.2848 55.3595L43.7599 53.9414C43.8095 53.7961 43.9513 53.7571 44.1144 53.8528C44.292 53.968 44.4188 54.1469 44.4689 54.3526L44.9475 56.3237L46.4896 57.2171C46.6666 57.3315 46.7933 57.509 46.8442 57.7134C46.8938 57.9191 46.8442 58.068 46.7059 58.1176L45.458 58.4402L45.9366 60.4148C45.9862 60.6205 45.9366 60.7694 45.7983 60.8154C45.6601 60.8615 45.4934 60.7481 45.3623 60.5637L44.1144 58.7912L42.8629 59.1173C42.7869 59.1319 42.7082 59.1166 42.6431 59.0748C42.5557 59.0202 42.4808 58.9477 42.4233 58.8621C42.3618 58.7846 42.3179 58.6947 42.2946 58.5986C42.2713 58.5025 42.2693 58.4025 42.2886 58.3055L42.7672 56.8874L41.5158 55.1148C41.455 55.0378 41.4117 54.9484 41.389 54.8528C41.3663 54.7573 41.3649 54.658 41.3846 54.5618ZM31.7702 49.0066C31.8198 48.8577 31.9652 48.8222 32.1247 48.9144L33.6704 49.8078L34.1454 48.3897C34.1986 48.2408 34.3404 48.2018 34.4999 48.2975C34.6784 48.412 34.8054 48.5912 34.8545 48.7974L35.333 50.7685L36.8752 51.6619C37.0531 51.7769 37.18 51.9558 37.2297 52.1617C37.2794 52.3674 37.2297 52.5163 37.0915 52.5623L35.8436 52.8885L36.3222 54.8596C36.3718 55.0652 36.3222 55.2141 36.1839 55.2602C36.0456 55.3063 35.879 55.1964 35.7478 55.0085L34.4964 53.2359L33.2485 53.5621C33.1725 53.5763 33.0939 53.5611 33.0287 53.5195C32.9412 53.4649 32.8663 53.3925 32.8089 53.3068C32.749 53.2285 32.7061 53.1386 32.6829 53.0427C32.6597 52.9469 32.6567 52.8473 32.6742 52.7502L33.1528 51.3322L31.9014 49.5596C31.8416 49.4806 31.799 49.3899 31.7764 49.2934C31.7538 49.197 31.7517 49.0968 31.7702 48.9995V49.0066ZM22.1558 43.4549C22.2054 43.3095 22.3472 43.2705 22.5103 43.3627L24.056 44.2596L24.531 42.8416C24.5842 42.6927 24.726 42.6537 24.8855 42.7494C25.0632 42.8646 25.19 43.0435 25.24 43.2493L25.7222 45.2204L27.2643 46.1137C27.4417 46.2293 27.5684 46.408 27.6188 46.6136C27.6649 46.8192 27.6189 46.9681 27.4806 47.0177L26.2327 47.3403L26.7113 49.3114C26.7609 49.5171 26.7113 49.666 26.5766 49.7121C26.4418 49.7581 26.2681 49.6482 26.1334 49.4603L24.8855 47.6878L23.6341 48.0139C23.5592 48.0279 23.4818 48.0127 23.4178 47.9714C23.3312 47.9172 23.2565 47.846 23.198 47.7622C23.1368 47.684 23.0934 47.5933 23.0707 47.4966C23.0481 47.3999 23.0467 47.2994 23.0669 47.2021L23.5419 45.784L22.2905 44.0115C22.2282 43.9331 22.1838 43.842 22.1605 43.7446C22.1372 43.6472 22.1356 43.5459 22.1558 43.4478V43.4549Z" fill="#6FCF97"/>
<path d="M13.2467 37.492C13.2928 37.3431 13.4381 37.3076 13.6012 37.3998L15.1469 38.2932L15.6255 36.8751C15.6751 36.7262 15.8169 36.6872 15.98 36.7794C16.1566 36.8973 16.283 37.0768 16.3345 37.2828L16.8096 39.2539L18.3552 40.1473C18.5314 40.2625 18.6579 40.4396 18.7098 40.6436C18.7558 40.8528 18.7098 40.9981 18.5715 41.0478L17.3201 41.3739L17.8022 43.3415C17.8483 43.5506 17.8022 43.696 17.664 43.7456C17.5257 43.7953 17.3591 43.6783 17.2244 43.4904L15.9765 41.7178L14.7285 42.044C14.6907 42.0514 14.6517 42.0512 14.614 42.0433C14.5762 42.0354 14.5404 42.0199 14.5088 41.9979C14.4198 41.9467 14.3444 41.875 14.289 41.7887C14.2284 41.7107 14.1848 41.6209 14.161 41.525C14.1372 41.4292 14.1337 41.3294 14.1507 41.2321L14.6293 39.8141L13.3814 38.0415C13.3207 37.965 13.2771 37.8763 13.2539 37.7815C13.2306 37.6866 13.2282 37.5879 13.2467 37.492Z" fill="#6FCF97"/>
<defs>
<linearGradient id="paint0_linear" x1="142.998" y1="138.413" x2="191.337" y2="107.735" gradientUnits="userSpaceOnUse">
<stop stop-color="#B0DAFF"/>
<stop offset="0.822246" stop-color="#CEE7FD" stop-opacity="0"/>
</linearGradient>
<linearGradient id="paint1_linear" x1="189.469" y1="101.664" x2="205.478" y2="92.1562" gradientUnits="userSpaceOnUse">
<stop stop-color="#B0DAFF"/>
<stop offset="0.822246" stop-color="#CEE7FD" stop-opacity="0"/>
</linearGradient>
</defs>
</svg>
