<svg width="137" height="120" viewBox="0 0 137 120" fill="none" xmlns="http://www.w3.org/2000/svg">
<circle r="1.55725" transform="matrix(0 -1 -1 0 117.832 117.832)" fill="#C4C4C4" fill-opacity="0.48"/>
<circle r="1.55725" transform="matrix(0 -1 -1 0 109.527 117.832)" fill="#C4C4C4" fill-opacity="0.48"/>
<circle r="1.55725" transform="matrix(0 -1 -1 0 101.221 117.832)" fill="#C4C4C4" fill-opacity="0.48"/>
<circle r="1.55725" transform="matrix(0 -1 -1 0 92.9161 117.832)" fill="#C4C4C4" fill-opacity="0.48"/>
<circle r="1.55725" transform="matrix(0 -1 -1 0 84.6107 117.832)" fill="#C4C4C4" fill-opacity="0.48"/>
<circle r="1.55725" transform="matrix(0 -1 -1 0 76.3053 117.832)" fill="#C4C4C4" fill-opacity="0.48"/>
<circle r="1.55725" transform="matrix(0 -1 -1 0 67.9999 117.832)" fill="#C4C4C4" fill-opacity="0.48"/>
<circle r="1.55725" transform="matrix(0 -1 -1 0 59.6947 117.832)" fill="#C4C4C4" fill-opacity="0.48"/>
<circle r="1.55725" transform="matrix(0 -1 -1 0 51.3893 117.832)" fill="#C4C4C4" fill-opacity="0.48"/>
<circle r="1.55725" transform="matrix(0 -1 -1 0 43.0841 117.832)" fill="#C4C4C4" fill-opacity="0.48"/>
<circle r="1.55725" transform="matrix(0 -1 -1 0 34.7787 117.832)" fill="#C4C4C4" fill-opacity="0.48"/>
<circle r="1.55725" transform="matrix(0 -1 -1 0 26.4733 117.832)" fill="#C4C4C4" fill-opacity="0.48"/>
<circle r="1.55725" transform="matrix(0 -1 -1 0 18.1678 117.832)" fill="#C4C4C4" fill-opacity="0.48"/>
<circle r="1.55725" transform="matrix(0 -1 -1 0 9.86267 117.832)" fill="#C4C4C4" fill-opacity="0.48"/>
<circle r="1.55725" transform="matrix(0 -1 -1 0 1.55725 117.832)" fill="#C4C4C4" fill-opacity="0.48"/>
<circle r="1.55725" transform="matrix(0 -1 -1 0 117.832 109.527)" fill="#C4C4C4" fill-opacity="0.48"/>
<circle r="1.55725" transform="matrix(0 -1 -1 0 109.527 109.527)" fill="#C4C4C4" fill-opacity="0.48"/>
<circle r="1.55725" transform="matrix(0 -1 -1 0 101.221 109.527)" fill="#C4C4C4" fill-opacity="0.48"/>
<circle r="1.55725" transform="matrix(0 -1 -1 0 92.9161 109.527)" fill="#C4C4C4" fill-opacity="0.48"/>
<circle r="1.55725" transform="matrix(0 -1 -1 0 84.6107 109.527)" fill="#C4C4C4" fill-opacity="0.48"/>
<circle r="1.55725" transform="matrix(0 -1 -1 0 76.3053 109.527)" fill="#C4C4C4" fill-opacity="0.48"/>
<circle r="1.55725" transform="matrix(0 -1 -1 0 67.9999 109.527)" fill="#C4C4C4" fill-opacity="0.48"/>
<circle r="1.55725" transform="matrix(0 -1 -1 0 59.6947 109.527)" fill="#C4C4C4" fill-opacity="0.48"/>
<circle r="1.55725" transform="matrix(0 -1 -1 0 51.3893 109.527)" fill="#C4C4C4" fill-opacity="0.48"/>
<circle r="1.55725" transform="matrix(0 -1 -1 0 43.0841 109.527)" fill="#C4C4C4" fill-opacity="0.48"/>
<circle r="1.55725" transform="matrix(0 -1 -1 0 34.7787 109.527)" fill="#C4C4C4" fill-opacity="0.48"/>
<circle r="1.55725" transform="matrix(0 -1 -1 0 26.4733 109.527)" fill="#C4C4C4" fill-opacity="0.48"/>
<circle r="1.55725" transform="matrix(0 -1 -1 0 18.1678 109.527)" fill="#C4C4C4" fill-opacity="0.48"/>
<circle r="1.55725" transform="matrix(0 -1 -1 0 9.86267 109.527)" fill="#C4C4C4" fill-opacity="0.48"/>
<circle r="1.55725" transform="matrix(0 -1 -1 0 1.55725 109.527)" fill="#C4C4C4" fill-opacity="0.48"/>
<circle r="1.55725" transform="matrix(0 -1 -1 0 134.443 101.222)" fill="#C4C4C4" fill-opacity="0.48"/>
<circle r="1.55725" transform="matrix(0 -1 -1 0 126.137 101.222)" fill="#C4C4C4" fill-opacity="0.48"/>
<circle r="1.55725" transform="matrix(0 -1 -1 0 117.832 101.222)" fill="#C4C4C4" fill-opacity="0.48"/>
<circle r="1.55725" transform="matrix(0 -1 -1 0 109.527 101.222)" fill="#C4C4C4" fill-opacity="0.48"/>
<circle r="1.55725" transform="matrix(0 -1 -1 0 101.221 101.222)" fill="#C4C4C4" fill-opacity="0.48"/>
<circle r="1.55725" transform="matrix(0 -1 -1 0 92.9161 101.222)" fill="#C4C4C4" fill-opacity="0.48"/>
<circle r="1.55725" transform="matrix(0 -1 -1 0 84.6107 101.222)" fill="#C4C4C4" fill-opacity="0.48"/>
<circle r="1.55725" transform="matrix(0 -1 -1 0 76.3053 101.222)" fill="#C4C4C4" fill-opacity="0.48"/>
<circle r="1.55725" transform="matrix(0 -1 -1 0 67.9999 101.222)" fill="#C4C4C4" fill-opacity="0.48"/>
<circle r="1.55725" transform="matrix(0 -1 -1 0 59.6947 101.222)" fill="#C4C4C4" fill-opacity="0.48"/>
<circle r="1.55725" transform="matrix(0 -1 -1 0 51.3893 101.222)" fill="#C4C4C4" fill-opacity="0.48"/>
<circle r="1.55725" transform="matrix(0 -1 -1 0 43.0841 101.222)" fill="#C4C4C4" fill-opacity="0.48"/>
<circle r="1.55725" transform="matrix(0 -1 -1 0 34.7787 101.222)" fill="#C4C4C4" fill-opacity="0.48"/>
<circle r="1.55725" transform="matrix(0 -1 -1 0 26.4733 101.222)" fill="#C4C4C4" fill-opacity="0.48"/>
<circle r="1.55725" transform="matrix(0 -1 -1 0 18.1678 101.222)" fill="#C4C4C4" fill-opacity="0.48"/>
<circle r="1.55725" transform="matrix(0 -1 -1 0 9.86267 101.222)" fill="#C4C4C4" fill-opacity="0.48"/>
<circle r="1.55725" transform="matrix(0 -1 -1 0 1.55725 101.222)" fill="#C4C4C4" fill-opacity="0.48"/>
<circle r="1.55725" transform="matrix(0 -1 -1 0 134.443 92.9161)" fill="#C4C4C4" fill-opacity="0.48"/>
<circle r="1.55725" transform="matrix(0 -1 -1 0 126.137 92.9161)" fill="#C4C4C4" fill-opacity="0.48"/>
<circle r="1.55725" transform="matrix(0 -1 -1 0 117.832 92.9161)" fill="#C4C4C4" fill-opacity="0.48"/>
<circle r="1.55725" transform="matrix(0 -1 -1 0 109.527 92.9161)" fill="#C4C4C4" fill-opacity="0.48"/>
<circle r="1.55725" transform="matrix(0 -1 -1 0 101.221 92.9161)" fill="#C4C4C4" fill-opacity="0.48"/>
<circle r="1.55725" transform="matrix(0 -1 -1 0 92.9161 92.9161)" fill="#C4C4C4" fill-opacity="0.48"/>
<circle r="1.55725" transform="matrix(0 -1 -1 0 84.6107 92.9161)" fill="#C4C4C4" fill-opacity="0.48"/>
<circle r="1.55725" transform="matrix(0 -1 -1 0 76.3053 92.9161)" fill="#C4C4C4" fill-opacity="0.48"/>
<circle r="1.55725" transform="matrix(0 -1 -1 0 67.9999 92.9161)" fill="#C4C4C4" fill-opacity="0.48"/>
<circle r="1.55725" transform="matrix(0 -1 -1 0 59.6947 92.9161)" fill="#C4C4C4" fill-opacity="0.48"/>
<circle r="1.55725" transform="matrix(0 -1 -1 0 51.3893 92.9161)" fill="#C4C4C4" fill-opacity="0.48"/>
<circle r="1.55725" transform="matrix(0 -1 -1 0 43.0841 92.9161)" fill="#C4C4C4" fill-opacity="0.48"/>
<circle r="1.55725" transform="matrix(0 -1 -1 0 34.7787 92.9161)" fill="#C4C4C4" fill-opacity="0.48"/>
<circle r="1.55725" transform="matrix(0 -1 -1 0 26.4733 92.9161)" fill="#C4C4C4" fill-opacity="0.48"/>
<circle r="1.55725" transform="matrix(0 -1 -1 0 18.1678 92.9161)" fill="#C4C4C4" fill-opacity="0.48"/>
<circle r="1.55725" transform="matrix(0 -1 -1 0 9.86267 92.9161)" fill="#C4C4C4" fill-opacity="0.48"/>
<circle r="1.55725" transform="matrix(0 -1 -1 0 1.55725 92.9161)" fill="#C4C4C4" fill-opacity="0.48"/>
<circle r="1.55725" transform="matrix(0 -1 -1 0 134.443 84.6107)" fill="#C4C4C4" fill-opacity="0.48"/>
<circle r="1.55725" transform="matrix(0 -1 -1 0 126.137 84.6107)" fill="#C4C4C4" fill-opacity="0.48"/>
<circle r="1.55725" transform="matrix(0 -1 -1 0 117.832 84.6107)" fill="#C4C4C4" fill-opacity="0.48"/>
<circle r="1.55725" transform="matrix(0 -1 -1 0 109.527 84.6107)" fill="#C4C4C4" fill-opacity="0.48"/>
<circle r="1.55725" transform="matrix(0 -1 -1 0 101.221 84.6107)" fill="#C4C4C4" fill-opacity="0.48"/>
<circle r="1.55725" transform="matrix(0 -1 -1 0 92.9161 84.6107)" fill="#C4C4C4" fill-opacity="0.48"/>
<circle r="1.55725" transform="matrix(0 -1 -1 0 84.6107 84.6107)" fill="#C4C4C4" fill-opacity="0.48"/>
<circle r="1.55725" transform="matrix(0 -1 -1 0 76.3053 84.6107)" fill="#C4C4C4" fill-opacity="0.48"/>
<circle r="1.55725" transform="matrix(0 -1 -1 0 67.9999 84.6107)" fill="#C4C4C4" fill-opacity="0.48"/>
<circle r="1.55725" transform="matrix(0 -1 -1 0 59.6947 84.6107)" fill="#C4C4C4" fill-opacity="0.48"/>
<circle r="1.55725" transform="matrix(0 -1 -1 0 51.3893 84.6107)" fill="#C4C4C4" fill-opacity="0.48"/>
<circle r="1.55725" transform="matrix(0 -1 -1 0 43.0841 84.6107)" fill="#C4C4C4" fill-opacity="0.48"/>
<circle r="1.55725" transform="matrix(0 -1 -1 0 34.7787 84.6107)" fill="#C4C4C4" fill-opacity="0.48"/>
<circle r="1.55725" transform="matrix(0 -1 -1 0 26.4733 84.6107)" fill="#C4C4C4" fill-opacity="0.48"/>
<circle r="1.55725" transform="matrix(0 -1 -1 0 18.1678 84.6107)" fill="#C4C4C4" fill-opacity="0.48"/>
<circle r="1.55725" transform="matrix(0 -1 -1 0 9.86267 84.6107)" fill="#C4C4C4" fill-opacity="0.48"/>
<circle r="1.55725" transform="matrix(0 -1 -1 0 1.55725 84.6107)" fill="#C4C4C4" fill-opacity="0.48"/>
<circle r="1.55725" transform="matrix(0 -1 -1 0 134.443 76.3055)" fill="#C4C4C4" fill-opacity="0.48"/>
<circle r="1.55725" transform="matrix(0 -1 -1 0 126.137 76.3055)" fill="#C4C4C4" fill-opacity="0.48"/>
<circle r="1.55725" transform="matrix(0 -1 -1 0 117.832 76.3055)" fill="#C4C4C4" fill-opacity="0.48"/>
<circle r="1.55725" transform="matrix(0 -1 -1 0 109.527 76.3055)" fill="#C4C4C4" fill-opacity="0.48"/>
<circle r="1.55725" transform="matrix(0 -1 -1 0 101.221 76.3055)" fill="#C4C4C4" fill-opacity="0.48"/>
<circle r="1.55725" transform="matrix(0 -1 -1 0 92.9161 76.3055)" fill="#C4C4C4" fill-opacity="0.48"/>
<circle r="1.55725" transform="matrix(0 -1 -1 0 84.6107 76.3055)" fill="#C4C4C4" fill-opacity="0.48"/>
<circle r="1.55725" transform="matrix(0 -1 -1 0 76.3053 76.3055)" fill="#C4C4C4" fill-opacity="0.48"/>
<circle r="1.55725" transform="matrix(0 -1 -1 0 67.9999 76.3055)" fill="#C4C4C4" fill-opacity="0.48"/>
<circle r="1.55725" transform="matrix(0 -1 -1 0 59.6947 76.3055)" fill="#C4C4C4" fill-opacity="0.48"/>
<circle r="1.55725" transform="matrix(0 -1 -1 0 51.3893 76.3055)" fill="#C4C4C4" fill-opacity="0.48"/>
<circle r="1.55725" transform="matrix(0 -1 -1 0 43.0841 76.3055)" fill="#C4C4C4" fill-opacity="0.48"/>
<circle r="1.55725" transform="matrix(0 -1 -1 0 34.7787 76.3055)" fill="#C4C4C4" fill-opacity="0.48"/>
<circle r="1.55725" transform="matrix(0 -1 -1 0 26.4733 76.3055)" fill="#C4C4C4" fill-opacity="0.48"/>
<circle r="1.55725" transform="matrix(0 -1 -1 0 18.1678 76.3055)" fill="#C4C4C4" fill-opacity="0.48"/>
<circle r="1.55725" transform="matrix(0 -1 -1 0 9.86267 76.3055)" fill="#C4C4C4" fill-opacity="0.48"/>
<circle r="1.55725" transform="matrix(0 -1 -1 0 1.55725 76.3055)" fill="#C4C4C4" fill-opacity="0.48"/>
<circle r="1.55725" transform="matrix(0 -1 -1 0 134.443 68.0001)" fill="#C4C4C4" fill-opacity="0.48"/>
<circle r="1.55725" transform="matrix(0 -1 -1 0 126.137 68.0001)" fill="#C4C4C4" fill-opacity="0.48"/>
<circle r="1.55725" transform="matrix(0 -1 -1 0 117.832 68.0001)" fill="#C4C4C4" fill-opacity="0.48"/>
<circle r="1.55725" transform="matrix(0 -1 -1 0 109.527 68.0001)" fill="#C4C4C4" fill-opacity="0.48"/>
<circle r="1.55725" transform="matrix(0 -1 -1 0 101.221 68.0001)" fill="#C4C4C4" fill-opacity="0.48"/>
<circle r="1.55725" transform="matrix(0 -1 -1 0 92.9161 68.0001)" fill="#C4C4C4" fill-opacity="0.48"/>
<circle r="1.55725" transform="matrix(0 -1 -1 0 84.6107 68.0001)" fill="#C4C4C4" fill-opacity="0.48"/>
<circle r="1.55725" transform="matrix(0 -1 -1 0 76.3053 68.0001)" fill="#C4C4C4" fill-opacity="0.48"/>
<circle r="1.55725" transform="matrix(0 -1 -1 0 67.9999 68.0001)" fill="#C4C4C4" fill-opacity="0.48"/>
<circle r="1.55725" transform="matrix(0 -1 -1 0 59.6947 68.0001)" fill="#C4C4C4" fill-opacity="0.48"/>
<circle r="1.55725" transform="matrix(0 -1 -1 0 51.3893 68.0001)" fill="#C4C4C4" fill-opacity="0.48"/>
<circle r="1.55725" transform="matrix(0 -1 -1 0 43.0841 68.0001)" fill="#C4C4C4" fill-opacity="0.48"/>
<circle r="1.55725" transform="matrix(0 -1 -1 0 34.7787 68.0001)" fill="#C4C4C4" fill-opacity="0.48"/>
<circle r="1.55725" transform="matrix(0 -1 -1 0 26.4733 68.0001)" fill="#C4C4C4" fill-opacity="0.48"/>
<circle r="1.55725" transform="matrix(0 -1 -1 0 18.1678 68.0001)" fill="#C4C4C4" fill-opacity="0.48"/>
<circle r="1.55725" transform="matrix(0 -1 -1 0 9.86267 68.0001)" fill="#C4C4C4" fill-opacity="0.48"/>
<circle r="1.55725" transform="matrix(0 -1 -1 0 1.55725 68.0001)" fill="#C4C4C4" fill-opacity="0.48"/>
<circle r="1.55725" transform="matrix(0 -1 -1 0 134.443 59.6947)" fill="#C4C4C4" fill-opacity="0.48"/>
<circle r="1.55725" transform="matrix(0 -1 -1 0 126.137 59.6947)" fill="#C4C4C4" fill-opacity="0.48"/>
<circle r="1.55725" transform="matrix(0 -1 -1 0 117.832 59.6947)" fill="#C4C4C4" fill-opacity="0.48"/>
<circle r="1.55725" transform="matrix(0 -1 -1 0 109.527 59.6947)" fill="#C4C4C4" fill-opacity="0.48"/>
<circle r="1.55725" transform="matrix(0 -1 -1 0 101.221 59.6947)" fill="#C4C4C4" fill-opacity="0.48"/>
<circle r="1.55725" transform="matrix(0 -1 -1 0 92.9161 59.6947)" fill="#C4C4C4" fill-opacity="0.48"/>
<circle r="1.55725" transform="matrix(0 -1 -1 0 84.6107 59.6947)" fill="#C4C4C4" fill-opacity="0.48"/>
<circle r="1.55725" transform="matrix(0 -1 -1 0 76.3053 59.6947)" fill="#C4C4C4" fill-opacity="0.48"/>
<circle r="1.55725" transform="matrix(0 -1 -1 0 59.6947 59.6947)" fill="#C4C4C4" fill-opacity="0.48"/>
<circle r="1.55725" transform="matrix(0 -1 -1 0 67.9999 59.6947)" fill="#C4C4C4" fill-opacity="0.48"/>
<circle r="1.55725" transform="matrix(0 -1 -1 0 51.3893 59.6947)" fill="#C4C4C4" fill-opacity="0.48"/>
<circle r="1.55725" transform="matrix(0 -1 -1 0 43.0841 59.6947)" fill="#C4C4C4" fill-opacity="0.48"/>
<circle r="1.55725" transform="matrix(0 -1 -1 0 34.7787 59.6947)" fill="#C4C4C4" fill-opacity="0.48"/>
<circle r="1.55725" transform="matrix(0 -1 -1 0 26.4733 59.6947)" fill="#C4C4C4" fill-opacity="0.48"/>
<circle r="1.55725" transform="matrix(0 -1 -1 0 18.1678 59.6947)" fill="#C4C4C4" fill-opacity="0.48"/>
<circle r="1.55725" transform="matrix(0 -1 -1 0 9.86267 59.6947)" fill="#C4C4C4" fill-opacity="0.48"/>
<circle r="1.55725" transform="matrix(0 -1 -1 0 1.55725 59.6947)" fill="#C4C4C4" fill-opacity="0.48"/>
<circle r="1.55725" transform="matrix(0 -1 -1 0 134.443 51.3895)" fill="#C4C4C4" fill-opacity="0.48"/>
<circle r="1.55725" transform="matrix(0 -1 -1 0 126.137 51.3895)" fill="#C4C4C4" fill-opacity="0.48"/>
<circle r="1.55725" transform="matrix(0 -1 -1 0 117.832 51.3895)" fill="#C4C4C4" fill-opacity="0.48"/>
<circle r="1.55725" transform="matrix(0 -1 -1 0 109.527 51.3895)" fill="#C4C4C4" fill-opacity="0.48"/>
<circle r="1.55725" transform="matrix(0 -1 -1 0 101.221 51.3895)" fill="#C4C4C4" fill-opacity="0.48"/>
<circle r="1.55725" transform="matrix(0 -1 -1 0 92.9161 51.3895)" fill="#C4C4C4" fill-opacity="0.48"/>
<circle r="1.55725" transform="matrix(0 -1 -1 0 84.6107 51.3895)" fill="#C4C4C4" fill-opacity="0.48"/>
<circle r="1.55725" transform="matrix(0 -1 -1 0 76.3053 51.3895)" fill="#C4C4C4" fill-opacity="0.48"/>
<circle r="1.55725" transform="matrix(0 -1 -1 0 67.9999 51.3895)" fill="#C4C4C4" fill-opacity="0.48"/>
<circle r="1.55725" transform="matrix(0 -1 -1 0 59.6947 51.3895)" fill="#C4C4C4" fill-opacity="0.48"/>
<circle r="1.55725" transform="matrix(0 -1 -1 0 51.3893 51.3895)" fill="#C4C4C4" fill-opacity="0.48"/>
<circle r="1.55725" transform="matrix(0 -1 -1 0 43.0841 51.3895)" fill="#C4C4C4" fill-opacity="0.48"/>
<circle r="1.55725" transform="matrix(0 -1 -1 0 134.443 43.0841)" fill="#C4C4C4" fill-opacity="0.48"/>
<circle r="1.55725" transform="matrix(0 -1 -1 0 126.137 43.0841)" fill="#C4C4C4" fill-opacity="0.48"/>
<circle r="1.55725" transform="matrix(0 -1 -1 0 117.832 43.0841)" fill="#C4C4C4" fill-opacity="0.48"/>
<circle r="1.55725" transform="matrix(0 -1 -1 0 109.527 43.0841)" fill="#C4C4C4" fill-opacity="0.48"/>
<circle r="1.55725" transform="matrix(0 -1 -1 0 101.221 43.0841)" fill="#C4C4C4" fill-opacity="0.48"/>
<circle r="1.55725" transform="matrix(0 -1 -1 0 92.9161 43.0841)" fill="#C4C4C4" fill-opacity="0.48"/>
<circle r="1.55725" transform="matrix(0 -1 -1 0 84.6107 43.0841)" fill="#C4C4C4" fill-opacity="0.48"/>
<circle r="1.55725" transform="matrix(0 -1 -1 0 76.3053 43.0841)" fill="#C4C4C4" fill-opacity="0.48"/>
<circle r="1.55725" transform="matrix(0 -1 -1 0 67.9999 43.0841)" fill="#C4C4C4" fill-opacity="0.48"/>
<circle r="1.55725" transform="matrix(0 -1 -1 0 59.6947 43.0841)" fill="#C4C4C4" fill-opacity="0.48"/>
<circle r="1.55725" transform="matrix(0 -1 -1 0 51.3893 43.0841)" fill="#C4C4C4" fill-opacity="0.48"/>
<circle r="1.55725" transform="matrix(0 -1 -1 0 43.0841 43.0841)" fill="#C4C4C4" fill-opacity="0.48"/>
<circle r="1.55725" transform="matrix(0 -1 -1 0 134.443 34.7787)" fill="#C4C4C4" fill-opacity="0.48"/>
<circle r="1.55725" transform="matrix(0 -1 -1 0 126.137 34.7787)" fill="#C4C4C4" fill-opacity="0.48"/>
<circle r="1.55725" transform="matrix(0 -1 -1 0 117.832 34.7787)" fill="#C4C4C4" fill-opacity="0.48"/>
<circle r="1.55725" transform="matrix(0 -1 -1 0 109.527 34.7787)" fill="#C4C4C4" fill-opacity="0.48"/>
<circle r="1.55725" transform="matrix(0 -1 -1 0 101.221 34.7787)" fill="#C4C4C4" fill-opacity="0.48"/>
<circle r="1.55725" transform="matrix(0 -1 -1 0 92.9161 34.7787)" fill="#C4C4C4" fill-opacity="0.48"/>
<circle r="1.55725" transform="matrix(0 -1 -1 0 84.6107 34.7787)" fill="#C4C4C4" fill-opacity="0.48"/>
<circle r="1.55725" transform="matrix(0 -1 -1 0 76.3053 34.7787)" fill="#C4C4C4" fill-opacity="0.48"/>
<circle r="1.55725" transform="matrix(0 -1 -1 0 67.9999 34.7787)" fill="#C4C4C4" fill-opacity="0.48"/>
<circle r="1.55725" transform="matrix(0 -1 -1 0 59.6947 34.7787)" fill="#C4C4C4" fill-opacity="0.48"/>
<circle r="1.55725" transform="matrix(0 -1 -1 0 51.3893 34.7787)" fill="#C4C4C4" fill-opacity="0.48"/>
<circle r="1.55725" transform="matrix(0 -1 -1 0 43.0841 34.7787)" fill="#C4C4C4" fill-opacity="0.48"/>
<circle r="1.55725" transform="matrix(0 -1 -1 0 134.443 26.4733)" fill="#C4C4C4" fill-opacity="0.48"/>
<circle r="1.55725" transform="matrix(0 -1 -1 0 126.137 26.4733)" fill="#C4C4C4" fill-opacity="0.48"/>
<circle r="1.55725" transform="matrix(0 -1 -1 0 117.832 26.4733)" fill="#C4C4C4" fill-opacity="0.48"/>
<circle r="1.55725" transform="matrix(0 -1 -1 0 109.527 26.4733)" fill="#C4C4C4" fill-opacity="0.48"/>
<circle r="1.55725" transform="matrix(0 -1 -1 0 101.221 26.4733)" fill="#C4C4C4" fill-opacity="0.48"/>
<circle r="1.55725" transform="matrix(0 -1 -1 0 92.9161 26.4733)" fill="#C4C4C4" fill-opacity="0.48"/>
<circle r="1.55725" transform="matrix(0 -1 -1 0 84.6107 26.4733)" fill="#C4C4C4" fill-opacity="0.48"/>
<circle r="1.55725" transform="matrix(0 -1 -1 0 76.3053 26.4733)" fill="#C4C4C4" fill-opacity="0.48"/>
<circle r="1.55725" transform="matrix(0 -1 -1 0 67.9999 26.4733)" fill="#C4C4C4" fill-opacity="0.48"/>
<circle r="1.55725" transform="matrix(0 -1 -1 0 59.6947 26.4733)" fill="#C4C4C4" fill-opacity="0.48"/>
<circle r="1.55725" transform="matrix(0 -1 -1 0 51.3893 26.4733)" fill="#C4C4C4" fill-opacity="0.48"/>
<circle r="1.55725" transform="matrix(0 -1 -1 0 43.0841 26.4733)" fill="#C4C4C4" fill-opacity="0.48"/>
<circle r="1.55725" transform="matrix(0 -1 -1 0 134.443 18.1681)" fill="#C4C4C4" fill-opacity="0.48"/>
<circle r="1.55725" transform="matrix(0 -1 -1 0 126.137 18.1681)" fill="#C4C4C4" fill-opacity="0.48"/>
<circle r="1.55725" transform="matrix(0 -1 -1 0 117.832 18.1681)" fill="#C4C4C4" fill-opacity="0.48"/>
<circle r="1.55725" transform="matrix(0 -1 -1 0 109.527 18.1681)" fill="#C4C4C4" fill-opacity="0.48"/>
<circle r="1.55725" transform="matrix(0 -1 -1 0 101.221 18.1681)" fill="#C4C4C4" fill-opacity="0.48"/>
<circle r="1.55725" transform="matrix(0 -1 -1 0 92.9161 18.1681)" fill="#C4C4C4" fill-opacity="0.48"/>
<circle r="1.55725" transform="matrix(0 -1 -1 0 84.6107 18.1681)" fill="#C4C4C4" fill-opacity="0.48"/>
<circle r="1.55725" transform="matrix(0 -1 -1 0 76.3053 18.1681)" fill="#C4C4C4" fill-opacity="0.48"/>
<circle r="1.55725" transform="matrix(0 -1 -1 0 67.9999 18.1681)" fill="#C4C4C4" fill-opacity="0.48"/>
<circle r="1.55725" transform="matrix(0 -1 -1 0 59.6947 18.1681)" fill="#C4C4C4" fill-opacity="0.48"/>
<circle r="1.55725" transform="matrix(0 -1 -1 0 51.3893 18.1681)" fill="#C4C4C4" fill-opacity="0.48"/>
<circle r="1.55725" transform="matrix(0 -1 -1 0 43.0841 18.1681)" fill="#C4C4C4" fill-opacity="0.48"/>
<circle r="1.55725" transform="matrix(0 -1 -1 0 134.443 9.86267)" fill="#C4C4C4" fill-opacity="0.48"/>
<circle r="1.55725" transform="matrix(0 -1 -1 0 126.137 9.86267)" fill="#C4C4C4" fill-opacity="0.48"/>
<circle r="1.55725" transform="matrix(0 -1 -1 0 117.832 9.86267)" fill="#C4C4C4" fill-opacity="0.48"/>
<circle r="1.55725" transform="matrix(0 -1 -1 0 109.527 9.86267)" fill="#C4C4C4" fill-opacity="0.48"/>
<circle r="1.55725" transform="matrix(0 -1 -1 0 101.221 9.86267)" fill="#C4C4C4" fill-opacity="0.48"/>
<circle r="1.55725" transform="matrix(0 -1 -1 0 92.9161 9.86267)" fill="#C4C4C4" fill-opacity="0.48"/>
<circle r="1.55725" transform="matrix(0 -1 -1 0 84.6107 9.86267)" fill="#C4C4C4" fill-opacity="0.48"/>
<circle r="1.55725" transform="matrix(0 -1 -1 0 76.3053 9.86267)" fill="#C4C4C4" fill-opacity="0.48"/>
<circle r="1.55725" transform="matrix(0 -1 -1 0 67.9999 9.86267)" fill="#C4C4C4" fill-opacity="0.48"/>
<circle r="1.55725" transform="matrix(0 -1 -1 0 59.6947 9.86267)" fill="#C4C4C4" fill-opacity="0.48"/>
<circle r="1.55725" transform="matrix(0 -1 -1 0 51.3893 9.86267)" fill="#C4C4C4" fill-opacity="0.48"/>
<circle r="1.55725" transform="matrix(0 -1 -1 0 43.0841 9.86267)" fill="#C4C4C4" fill-opacity="0.48"/>
<circle r="1.55725" transform="matrix(0 -1 -1 0 134.443 1.55725)" fill="#C4C4C4" fill-opacity="0.48"/>
<circle r="1.55725" transform="matrix(0 -1 -1 0 126.137 1.55725)" fill="#C4C4C4" fill-opacity="0.48"/>
<circle r="1.55725" transform="matrix(0 -1 -1 0 117.832 1.55725)" fill="#C4C4C4" fill-opacity="0.48"/>
<circle r="1.55725" transform="matrix(0 -1 -1 0 109.527 1.55725)" fill="#C4C4C4" fill-opacity="0.48"/>
<circle r="1.55725" transform="matrix(0 -1 -1 0 101.221 1.55725)" fill="#C4C4C4" fill-opacity="0.48"/>
<circle r="1.55725" transform="matrix(0 -1 -1 0 92.9161 1.55725)" fill="#C4C4C4" fill-opacity="0.48"/>
<circle r="1.55725" transform="matrix(0 -1 -1 0 84.6107 1.55725)" fill="#C4C4C4" fill-opacity="0.48"/>
<circle r="1.55725" transform="matrix(0 -1 -1 0 76.3053 1.55725)" fill="#C4C4C4" fill-opacity="0.48"/>
<circle r="1.55725" transform="matrix(0 -1 -1 0 67.9999 1.55725)" fill="#C4C4C4" fill-opacity="0.48"/>
<circle r="1.55725" transform="matrix(0 -1 -1 0 59.6947 1.55725)" fill="#C4C4C4" fill-opacity="0.48"/>
<circle r="1.55725" transform="matrix(0 -1 -1 0 51.3893 1.55725)" fill="#C4C4C4" fill-opacity="0.48"/>
<circle r="1.55725" transform="matrix(0 -1 -1 0 43.0841 1.55725)" fill="#C4C4C4" fill-opacity="0.48"/>
<path d="M135.375 112.945V111.333C135.375 111.046 135.261 110.771 135.058 110.567C134.854 110.364 134.579 110.25 134.292 110.25H131.042V109.539C131.207 109.391 131.312 109.178 131.312 108.938C131.312 108.723 131.227 108.516 131.074 108.364C130.922 108.211 130.715 108.126 130.5 108.126C130.284 108.126 130.078 108.211 129.925 108.364C129.773 108.516 129.687 108.723 129.687 108.938C129.687 109.178 129.793 109.391 129.958 109.539V110.25H126.708C126.421 110.25 126.145 110.364 125.942 110.567C125.739 110.771 125.625 111.046 125.625 111.333V112.957L125.586 112.96C125.449 112.97 125.322 113.031 125.228 113.131C125.135 113.231 125.083 113.363 125.083 113.5V114.583C125.083 114.727 125.14 114.865 125.242 114.966C125.343 115.068 125.481 115.125 125.625 115.125V117.833C125.625 118.121 125.739 118.396 125.942 118.6C126.145 118.803 126.421 118.917 126.708 118.917H134.292C134.579 118.917 134.854 118.803 135.058 118.6C135.261 118.396 135.375 118.121 135.375 117.833V115.125C135.519 115.125 135.656 115.068 135.758 114.966C135.86 114.865 135.917 114.727 135.917 114.583V113.534C135.923 113.45 135.91 113.365 135.878 113.287C135.768 113.023 135.534 112.96 135.375 112.945ZM127.792 113.5C127.792 112.902 128.156 112.417 128.604 112.417C129.053 112.417 129.417 112.902 129.417 113.5C129.417 114.098 129.053 114.583 128.604 114.583C128.156 114.583 127.792 114.098 127.792 113.5ZM132.666 116.75C132.123 116.749 128.334 116.75 128.333 116.75V115.667C128.333 115.667 132.125 115.666 132.668 115.667L132.666 116.75ZM132.396 114.583C131.947 114.583 131.583 114.098 131.583 113.5C131.583 112.902 131.947 112.417 132.396 112.417C132.844 112.417 133.208 112.902 133.208 113.5C133.208 114.098 132.844 114.583 132.396 114.583Z" fill="#2784ED"/>
</svg>
