<?xml version="1.0" encoding="utf-8"?>
<!-- Generator: Adobe Illustrator 24.0.3, SVG Export Plug-In . SVG Version: 6.00 Build 0)  -->
<svg version="1.1" id="Слой_1" xmlns="http://www.w3.org/2000/svg" xmlns:xlink="http://www.w3.org/1999/xlink" x="0px" y="0px"
	 viewBox="0 0 32.3 32.4" style="enable-background:new 0 0 32.3 32.4;" xml:space="preserve">
<style type="text/css">
	.st0{fill:#FFFFFF;}
</style>
<path class="st0" d="M8.9,0C8,0,7.2,0.8,7.2,1.7S8,3.4,8.9,3.4c1,0,1.7-0.8,1.7-1.7S9.9,0,8.9,0z"/>
<path class="st0" d="M8.9,29c-0.9,0-1.7,0.7-1.7,1.7c0,0.9,0.8,1.7,1.7,1.7c1,0,1.7-0.8,1.7-1.7C10.6,29.7,9.9,29,8.9,29z"/>
<path class="st0" d="M8.9,21.7c-0.9,0-1.7,0.8-1.7,1.7c0,1,0.8,1.7,1.7,1.7c1,0,1.7-0.7,1.7-1.7C10.6,22.5,9.9,21.7,8.9,21.7z"/>
<path class="st0" d="M8.9,14.5c-0.9,0-1.7,0.8-1.7,1.7s0.8,1.7,1.7,1.7c1,0,1.7-0.8,1.7-1.7S9.9,14.5,8.9,14.5z"/>
<path class="st0" d="M8.9,7.2C8,7.2,7.2,8,7.2,8.9c0,1,0.8,1.8,1.7,1.8c1,0,1.7-0.8,1.7-1.8C10.6,8,9.9,7.2,8.9,7.2z"/>
<path class="st0" d="M1.7,0C0.7,0,0,0.8,0,1.7s0.7,1.7,1.7,1.7c0.9,0,1.7-0.8,1.7-1.7S2.6,0,1.7,0z"/>
<path class="st0" d="M1.7,29c-1,0-1.7,0.7-1.7,1.7c0,0.9,0.7,1.7,1.7,1.7c0.9,0,1.7-0.8,1.7-1.7C3.4,29.7,2.6,29,1.7,29z"/>
<path class="st0" d="M1.7,21.7c-1,0-1.7,0.8-1.7,1.7c0,1,0.7,1.7,1.7,1.7c0.9,0,1.7-0.7,1.7-1.7C3.4,22.5,2.6,21.7,1.7,21.7z"/>
<path class="st0" d="M1.7,14.5c-1,0-1.7,0.8-1.7,1.7s0.7,1.7,1.7,1.7c0.9,0,1.7-0.8,1.7-1.7S2.6,14.5,1.7,14.5z"/>
<path class="st0" d="M1.7,7.2C0.7,7.2,0,8,0,8.9c0,1,0.7,1.8,1.7,1.8c0.9,0,1.7-0.8,1.7-1.8C3.4,8,2.6,7.2,1.7,7.2z"/>
<path class="st0" d="M16.2,0c-1,0-1.7,0.8-1.7,1.7s0.7,1.7,1.7,1.7c0.9,0,1.7-0.8,1.7-1.7S17.1,0,16.2,0z"/>
<path class="st0" d="M16.2,29c-1,0-1.7,0.7-1.7,1.7c0,0.9,0.7,1.7,1.7,1.7c0.9,0,1.7-0.8,1.7-1.7C17.9,29.7,17.1,29,16.2,29z"/>
<path class="st0" d="M16.2,21.7c-1,0-1.7,0.8-1.7,1.7c0,1,0.7,1.7,1.7,1.7c0.9,0,1.7-0.7,1.7-1.7C17.9,22.5,17.1,21.7,16.2,21.7z"/>
<path class="st0" d="M16.2,14.5c-1,0-1.7,0.8-1.7,1.7s0.7,1.7,1.7,1.7c0.9,0,1.7-0.8,1.7-1.7S17.1,14.5,16.2,14.5z"/>
<path class="st0" d="M16.2,7.2c-1,0-1.7,0.8-1.7,1.7c0,1,0.7,1.8,1.7,1.8c0.9,0,1.7-0.8,1.7-1.8C17.9,8,17.1,7.2,16.2,7.2z"/>
<path class="st0" d="M30.6,0c-0.9,0-1.7,0.8-1.7,1.7s0.8,1.7,1.7,1.7c1,0,1.7-0.8,1.7-1.7S31.6,0,30.6,0z"/>
<path class="st0" d="M30.6,29c-0.9,0-1.7,0.7-1.7,1.7c0,0.9,0.8,1.7,1.7,1.7c1,0,1.7-0.8,1.7-1.7C32.3,29.7,31.6,29,30.6,29z"/>
<path class="st0" d="M30.6,21.7c-0.9,0-1.7,0.8-1.7,1.7c0,1,0.8,1.7,1.7,1.7c1,0,1.7-0.7,1.7-1.7C32.3,22.5,31.6,21.7,30.6,21.7z"/>
<path class="st0" d="M30.6,14.5c-0.9,0-1.7,0.8-1.7,1.7s0.8,1.7,1.7,1.7c1,0,1.7-0.8,1.7-1.7S31.6,14.5,30.6,14.5z"/>
<path class="st0" d="M30.6,7.2c-0.9,0-1.7,0.8-1.7,1.7c0,1,0.8,1.8,1.7,1.8c1,0,1.7-0.8,1.7-1.8C32.3,8,31.6,7.2,30.6,7.2z"/>
<path class="st0" d="M23.4,0c-0.9,0-1.7,0.8-1.7,1.7s0.8,1.7,1.7,1.7c0.9,0,1.7-0.8,1.7-1.7S24.3,0,23.4,0z"/>
<path class="st0" d="M23.4,29c-0.9,0-1.7,0.7-1.7,1.7c0,0.9,0.8,1.7,1.7,1.7c0.9,0,1.7-0.8,1.7-1.7C25.1,29.7,24.3,29,23.4,29z"/>
<path class="st0" d="M23.4,21.7c-0.9,0-1.7,0.8-1.7,1.7c0,1,0.8,1.7,1.7,1.7c0.9,0,1.7-0.7,1.7-1.7C25.1,22.5,24.3,21.7,23.4,21.7z"
	/>
<path class="st0" d="M23.4,14.5c-0.9,0-1.7,0.8-1.7,1.7s0.8,1.7,1.7,1.7c0.9,0,1.7-0.8,1.7-1.7S24.3,14.5,23.4,14.5z"/>
<path class="st0" d="M23.4,7.2c-0.9,0-1.7,0.8-1.7,1.7c0,1,0.8,1.8,1.7,1.8c0.9,0,1.7-0.8,1.7-1.8C25.1,8,24.3,7.2,23.4,7.2z"/>
</svg>
