<svg width="31" height="31" viewBox="0 0 31 31" fill="none" xmlns="http://www.w3.org/2000/svg">
<path d="M30.1022 22.8877C31.2139 23.7524 31.3055 25.3012 30.3081 26.2986L27.0008 29.6059C23.5205 33.0863 13.368 29.6593 7.35449 23.6457C1.34044 17.6315 -2.08648 7.47982 1.39435 3.99888L4.7016 0.691562C5.6995 -0.306359 7.24898 -0.212681 8.11243 0.897459L11.9971 5.89216C12.8244 6.95584 12.7211 8.56587 11.7668 9.52019L9.56448 11.7226C9.02668 12.2604 8.89246 13.2698 9.30157 13.9563C9.32844 14.0112 9.38872 14.1255 9.48372 14.292C9.64568 14.5758 9.84495 14.8976 10.0828 15.2501C10.7663 16.2633 11.6195 17.3148 12.6523 18.3477C13.6852 19.3805 14.7378 20.2345 15.7531 20.9193C16.1064 21.1576 16.429 21.3574 16.7136 21.5199C16.8806 21.6152 16.9953 21.6757 17.09 21.7239C17.7365 22.1003 18.7454 21.9675 19.2773 21.4356L21.4796 19.2332C22.4341 18.2788 24.0455 18.1769 25.1076 19.0029L30.1022 22.8877ZM29.3355 23.8734L24.3409 19.9886C23.7764 19.5496 22.8721 19.6067 22.3626 20.1162L20.1603 22.3186C19.2282 23.2507 17.5989 23.4651 16.5014 22.8243C16.423 22.7859 16.285 22.7131 16.0946 22.6044C15.7835 22.4268 15.4345 22.2107 15.0548 21.9546C13.9757 21.2267 12.8612 20.3225 11.7694 19.2307C10.6775 18.1388 9.77415 17.0255 9.0476 15.9485C8.79196 15.5695 8.57628 15.2213 8.39918 14.9109C8.29076 14.7209 8.21811 14.5832 8.20527 14.5518C7.52432 13.4164 7.74205 11.7791 8.68149 10.8396L10.8838 8.63721C11.3935 8.12747 11.4515 7.2246 11.0114 6.65882L7.12674 1.66414C6.72509 1.14769 6.05213 1.10702 5.58459 1.57458L2.27732 4.88191C-0.547069 7.70636 2.64896 17.1741 8.23746 22.7627C13.8254 28.3508 23.2939 31.5469 26.1179 28.7229L29.4251 25.4156C29.8927 24.948 29.8529 24.2758 29.3355 23.8734Z" fill="white"/>
</svg>
