<svg id="Layer_1" data-name="Layer 1" xmlns="http://www.w3.org/2000/svg" viewBox="0 0 283.46 283.46"><defs><style>.cls-1{fill:#192952;}.cls-2{fill:#232321;}.cls-3{fill:#eec338;}</style></defs><title>logo_VT</title><path class="cls-1" d="M132.33,128.4a8.72,8.72,0,0,1-.2,1.84,6.55,6.55,0,0,1-.62,1.71,4.93,4.93,0,0,1-1.12,1.41,4.79,4.79,0,0,1-1.66.93v.21a6.6,6.6,0,0,1,1.62.64,4.44,4.44,0,0,1,1.34,1.16,5.73,5.73,0,0,1,.91,1.78,8.11,8.11,0,0,1,.34,2.48,7.81,7.81,0,0,1-.66,3.34,6.28,6.28,0,0,1-1.78,2.3,7.47,7.47,0,0,1-2.62,1.32,11.52,11.52,0,0,1-3.18.43h-1.28q-.79,0-1.7-.05t-1.87-.16a12.59,12.59,0,0,1-1.78-.32V122.8q1.18-.21,2.91-.37t3.44-.16a17.68,17.68,0,0,1,3,.25,7,7,0,0,1,2.53.93,4.88,4.88,0,0,1,1.73,1.87A6.5,6.5,0,0,1,132.33,128.4Zm-8.74,4.82a9,9,0,0,0,.91-.05,7.59,7.59,0,0,0,.84-.12,4.17,4.17,0,0,0,1.77-1.28,3.54,3.54,0,0,0,.73-2.32,4.36,4.36,0,0,0-.25-1.57,2.4,2.4,0,0,0-1.69-1.55,4.8,4.8,0,0,0-1.27-.16,10.26,10.26,0,0,0-2.07.14v6.92Zm1.21,10.85a3.34,3.34,0,0,0,2.46-1,3.82,3.82,0,0,0,1-2.82,4.54,4.54,0,0,0-.32-1.87,2.6,2.6,0,0,0-.86-1.07,2.88,2.88,0,0,0-1.23-.48,9.44,9.44,0,0,0-1.44-.11h-1.82v7.1a4,4,0,0,0,1,.16Q124.23,144.07,124.8,144.07Z"/><path class="cls-1" d="M146.71,146.64a6,6,0,0,1-2.14,1.07,9.05,9.05,0,0,1-2.5.36,6.39,6.39,0,0,1-3.05-.66,5.38,5.38,0,0,1-2-1.89,8.49,8.49,0,0,1-1.12-3,20.21,20.21,0,0,1-.34-3.87q0-4.67,1.68-7a5.66,5.66,0,0,1,4.92-2.35,10,10,0,0,1,2.62.29,8.64,8.64,0,0,1,1.8.71l-1,3.53a6.71,6.71,0,0,0-1.23-.48,5.42,5.42,0,0,0-1.41-.16,2.43,2.43,0,0,0-2.25,1.3,11.33,11.33,0,0,0,0,8.15,2.56,2.56,0,0,0,2.44,1.53,4.37,4.37,0,0,0,1.52-.23,5.58,5.58,0,0,0,1.16-.59Z"/><path class="cls-1" d="M161,146.28a6.85,6.85,0,0,1-2.43,1.28,10.31,10.31,0,0,1-3.21.5,7.31,7.31,0,0,1-3.19-.64,5.61,5.61,0,0,1-2.19-1.86,8.39,8.39,0,0,1-1.27-2.94,17.1,17.1,0,0,1-.41-3.94q0-4.82,1.91-7.12a6.51,6.51,0,0,1,5.3-2.3,7.28,7.28,0,0,1,2.21.34,4.85,4.85,0,0,1,1.91,1.14,5.81,5.81,0,0,1,1.36,2.14,9.44,9.44,0,0,1,.52,3.37q0,.79-.09,1.68t-.27,1.93h-8.74a6,6,0,0,0,.94,3.39,3.21,3.21,0,0,0,2.78,1.18,6,6,0,0,0,2.11-.36,5.61,5.61,0,0,0,1.46-.75Zm-5.6-13.38a2.28,2.28,0,0,0-2.06,1.09,6.39,6.39,0,0,0-.8,3.05h5a6.21,6.21,0,0,0-.44-3.09A1.79,1.79,0,0,0,155.38,132.9Z"/><path class="cls-1" d="M180,126.76h-5.92V147.6h-4.5V126.76h-5.92v-4.14H180Z"/><path class="cls-1" d="M178.14,138.68q0-4.74,1.86-7.06a6.25,6.25,0,0,1,5.17-2.32,6.19,6.19,0,0,1,5.32,2.35q1.75,2.35,1.75,7t-1.86,7.08a6.31,6.31,0,0,1-5.21,2.3Q178.14,148.06,178.14,138.68Zm4.39,0a11.16,11.16,0,0,0,.61,4.14,2.09,2.09,0,0,0,2,1.46,2.14,2.14,0,0,0,2-1.27,10.16,10.16,0,0,0,.66-4.34,11.13,11.13,0,0,0-.61-4.17,2.11,2.11,0,0,0-2.07-1.43,2.14,2.14,0,0,0-1.94,1.27A9.69,9.69,0,0,0,182.53,138.68Z"/><path class="cls-1" d="M195.38,129.79q1-.11,2.55-.2t3.23-.09q3.35,0,4.75,1.11a4,4,0,0,1,1.39,3.35,5.2,5.2,0,0,1-.61,2.44,3.64,3.64,0,0,1-1.86,1.69v.14q3,.82,3,4.28a4.73,4.73,0,0,1-1.71,4q-1.71,1.32-5.57,1.32-1.25,0-2.73-.07t-2.48-.21Zm5.85,7.24a2,2,0,0,0,1.44-.53,1.82,1.82,0,0,0,.56-1.4,2.08,2.08,0,0,0-.46-1.49,2.33,2.33,0,0,0-1.69-.47l-1,0-.66.05V137Zm-1.78,7.07a5.06,5.06,0,0,0,.69.09l.8,0a3.13,3.13,0,0,0,2-.54,2.51,2.51,0,0,0,.09-3.23,2.46,2.46,0,0,0-1.85-.58h-1.78Z"/><path class="cls-1" d="M211,130.83a9.66,9.66,0,0,1,2.68-1,15.37,15.37,0,0,1,3.64-.39q3,0,4.23,1.57a7.24,7.24,0,0,1,1.2,4.46q0,1.68-.09,3.3t-.12,3.18q0,1.55.05,3a11.75,11.75,0,0,0,.48,2.73h-3.46l-.68-2.18h-.14a4.8,4.8,0,0,1-1.61,1.71,4.67,4.67,0,0,1-2.61.68,4.15,4.15,0,0,1-3.32-1.41,5.57,5.57,0,0,1-1.21-3.76,4.88,4.88,0,0,1,2.28-4.57,10.85,10.85,0,0,1,6.17-1.14,6.14,6.14,0,0,0-.27-3,1.9,1.9,0,0,0-1.91-.93,10.38,10.38,0,0,0-2.21.25,8.2,8.2,0,0,0-2,.71Zm5.1,13.38a2.45,2.45,0,0,0,1.57-.48,3.18,3.18,0,0,0,.89-1.05v-3a7,7,0,0,0-1.57,0,4.33,4.33,0,0,0-1.32.32,2.14,2.14,0,0,0-.91.73,2.09,2.09,0,0,0-.34,1.23,2.68,2.68,0,0,0,.45,1.68A1.47,1.47,0,0,0,216.14,144.21Z"/><path class="cls-1" d="M226.45,129.76h3.18l.43,2h.11a5.53,5.53,0,0,1,1.84-1.87,5,5,0,0,1,2.52-.59,4.6,4.6,0,0,1,4.08,2.05q1.37,2.05,1.37,6.83t-1.71,7.33a5.61,5.61,0,0,1-5,2.55,6.5,6.5,0,0,1-1.46-.14,4,4,0,0,1-1.14-.46v7.24h-4.25Zm4.25,13.84a2.36,2.36,0,0,0,.8.54,3.16,3.16,0,0,0,1.16.18,2.36,2.36,0,0,0,2.18-1.41,11,11,0,0,0,.75-4.8,9.41,9.41,0,0,0-.57-3.76,2,2,0,0,0-1.89-1.23q-1.79,0-2.43,2.1Z"/><path class="cls-1" d="M247.36,136.11a11.79,11.79,0,0,1,1.46-.2q.75-.05,1.36-.05a6.51,6.51,0,0,1,2.46.41,4,4,0,0,1,1.61,1.16,4.65,4.65,0,0,1,.87,1.77,8.58,8.58,0,0,1,.27,2.19,10,10,0,0,1-.36,2.82,4.56,4.56,0,0,1-1.18,2,5.22,5.22,0,0,1-2.14,1.21,11.23,11.23,0,0,1-3.28.41q-1.71,0-3-.07t-2.3-.18V129.76h4.25Zm0,7.74a5.56,5.56,0,0,0,1.53.21,2,2,0,0,0,1.62-.59,3.09,3.09,0,0,0,.48-1.94,3.05,3.05,0,0,0-.46-1.86,1.9,1.9,0,0,0-1.61-.61,5.68,5.68,0,0,0-1.57.21Zm9.56-14.09h4.25V147.6h-4.25Z"/><path class="cls-2" d="M118.85,165.08a.58.58,0,1,1,.42.17A.57.57,0,0,1,118.85,165.08Z"/><path class="cls-2" d="M132,164.8h-6.16a3.38,3.38,0,0,0,.42,1.68,3,3,0,0,0,1.14,1.16,3.41,3.41,0,0,0,3,.14,2.58,2.58,0,0,0,1-.8l.19.19a3,3,0,0,1-1.12.84,3.65,3.65,0,0,1-3.19-.15A3.22,3.22,0,0,1,126,166.6a3.64,3.64,0,0,1-.45-1.81A3.84,3.84,0,0,1,126,163a3.12,3.12,0,0,1,1.14-1.24,3.07,3.07,0,0,1,1.64-.45,3.13,3.13,0,0,1,2.79,1.66,3.65,3.65,0,0,1,.42,1.77Zm-4.67-2.85a2.91,2.91,0,0,0-1.05,1.07,3.32,3.32,0,0,0-.44,1.53h5.9a3.27,3.27,0,0,0-.44-1.53,3,3,0,0,0-1.06-1.07,2.93,2.93,0,0,0-2.92,0Z"/><path class="cls-2" d="M134,164.6h3.35v.25H134Z"/><path class="cls-2" d="M141,167.86a3.16,3.16,0,0,1-1.21-1.24,4,4,0,0,1,0-3.63,3.11,3.11,0,0,1,1.21-1.24,3.48,3.48,0,0,1,1.75-.44,3.45,3.45,0,0,1,1.41.29,2.79,2.79,0,0,1,1.08.84l-.19.2a2.43,2.43,0,0,0-1-.8,3.37,3.37,0,0,0-2.92.14,2.86,2.86,0,0,0-1.12,1.15,3.73,3.73,0,0,0,0,3.36,2.92,2.92,0,0,0,1.12,1.15,3.15,3.15,0,0,0,1.61.42,3.2,3.2,0,0,0,1.31-.27,2.42,2.42,0,0,0,1-.8l.19.2a2.78,2.78,0,0,1-1.08.84,3.63,3.63,0,0,1-3.16-.16Z"/><path class="cls-2" d="M148.4,167.86a3.16,3.16,0,0,1-1.2-1.25,3.73,3.73,0,0,1-.43-1.81,3.69,3.69,0,0,1,.43-1.8,3.17,3.17,0,0,1,1.2-1.24,3.52,3.52,0,0,1,3.44,0A3.17,3.17,0,0,1,153,163a3.7,3.7,0,0,1,.43,1.8,3.74,3.74,0,0,1-.43,1.81,3.16,3.16,0,0,1-1.2,1.25,3.52,3.52,0,0,1-3.44,0Zm3.3-.22a2.92,2.92,0,0,0,1.11-1.16,3.71,3.71,0,0,0,0-3.36A2.87,2.87,0,0,0,151.7,162a3.26,3.26,0,0,0-3.16,0,2.87,2.87,0,0,0-1.11,1.15,3.71,3.71,0,0,0,0,3.36,2.92,2.92,0,0,0,1.11,1.16,3.21,3.21,0,0,0,3.16,0Z"/><path class="cls-2" d="M166.58,162a3,3,0,0,1,.72,2.13v4.08H167v-4.08a2.76,2.76,0,0,0-.63-1.95,2.31,2.31,0,0,0-1.78-.68,2.71,2.71,0,0,0-2.07.81,3,3,0,0,0-.76,2.13v3.76h-.27v-4.08a2.76,2.76,0,0,0-.63-1.95,2.31,2.31,0,0,0-1.78-.68,2.71,2.71,0,0,0-2.07.81,3,3,0,0,0-.76,2.13v3.76H156v-6.92h.27v1.83a2.67,2.67,0,0,1,1-1.38,3.12,3.12,0,0,1,1.78-.5,2.76,2.76,0,0,1,1.74.53,2.46,2.46,0,0,1,.88,1.53,2.73,2.73,0,0,1,1-1.51,3.07,3.07,0,0,1,1.87-.56A2.61,2.61,0,0,1,166.58,162Z"/><path class="cls-2" d="M181.14,162a3,3,0,0,1,.72,2.13v4.08h-.27v-4.08a2.76,2.76,0,0,0-.63-1.95,2.31,2.31,0,0,0-1.78-.68,2.71,2.71,0,0,0-2.07.81,3,3,0,0,0-.76,2.13v3.76h-.27v-4.08a2.76,2.76,0,0,0-.63-1.95,2.31,2.31,0,0,0-1.78-.68,2.71,2.71,0,0,0-2.07.81,3,3,0,0,0-.76,2.13v3.76h-.27v-6.92h.27v1.83a2.67,2.67,0,0,1,1-1.38,3.12,3.12,0,0,1,1.78-.5,2.76,2.76,0,0,1,1.74.53,2.46,2.46,0,0,1,.88,1.53,2.73,2.73,0,0,1,1-1.51,3.07,3.07,0,0,1,1.87-.56A2.61,2.61,0,0,1,181.14,162Z"/><path class="cls-2" d="M190.72,164.8h-6.16a3.39,3.39,0,0,0,.42,1.68,3,3,0,0,0,1.14,1.16,3.41,3.41,0,0,0,3,.14,2.58,2.58,0,0,0,1-.8l.19.19a3,3,0,0,1-1.12.84,3.66,3.66,0,0,1-3.19-.15,3.22,3.22,0,0,1-1.23-1.25,3.64,3.64,0,0,1-.45-1.81,3.83,3.83,0,0,1,.42-1.8,3.12,3.12,0,0,1,1.14-1.24,3.07,3.07,0,0,1,1.64-.45,3.12,3.12,0,0,1,2.79,1.66,3.64,3.64,0,0,1,.42,1.77ZM186,161.95a2.91,2.91,0,0,0-1,1.07,3.32,3.32,0,0,0-.44,1.53h5.9A3.28,3.28,0,0,0,190,163a3,3,0,0,0-1.06-1.07,2.93,2.93,0,0,0-2.92,0Z"/><path class="cls-2" d="M194.5,161.78a3,3,0,0,1,1.73-.48v.27h-.08a2.44,2.44,0,0,0-1.94.8,3.19,3.19,0,0,0-.7,2.17v3.72h-.27v-6.92h.27v1.79A2.57,2.57,0,0,1,194.5,161.78Z"/><path class="cls-2" d="M199.26,167.86a3.15,3.15,0,0,1-1.21-1.24,4,4,0,0,1,0-3.63,3.11,3.11,0,0,1,1.21-1.24,3.66,3.66,0,0,1,3.17-.15,2.78,2.78,0,0,1,1.08.84l-.19.2a2.42,2.42,0,0,0-1-.8,3.37,3.37,0,0,0-2.92.14,2.86,2.86,0,0,0-1.12,1.15,3.73,3.73,0,0,0,0,3.36,2.92,2.92,0,0,0,1.12,1.15A3.15,3.15,0,0,0,201,168a3.19,3.19,0,0,0,1.31-.27,2.41,2.41,0,0,0,1-.8l.19.2a2.77,2.77,0,0,1-1.08.84,3.63,3.63,0,0,1-3.17-.16Z"/><path class="cls-2" d="M211.45,164.8H205.3a3.39,3.39,0,0,0,.42,1.68,3,3,0,0,0,1.14,1.16,3.41,3.41,0,0,0,3,.14,2.58,2.58,0,0,0,1-.8l.19.19a3,3,0,0,1-1.12.84,3.66,3.66,0,0,1-3.19-.15,3.22,3.22,0,0,1-1.23-1.25,3.64,3.64,0,0,1-.45-1.81,3.83,3.83,0,0,1,.42-1.8,3.12,3.12,0,0,1,1.14-1.24,3.07,3.07,0,0,1,1.64-.45A3.12,3.12,0,0,1,211,163a3.64,3.64,0,0,1,.42,1.77Zm-4.67-2.85a2.91,2.91,0,0,0-1,1.07,3.32,3.32,0,0,0-.44,1.53h5.9a3.28,3.28,0,0,0-.44-1.53,3,3,0,0,0-1.06-1.07,2.93,2.93,0,0,0-2.92,0Z"/><path class="cls-2" d="M218.42,167.86a3.16,3.16,0,0,1-1.2-1.25,3.73,3.73,0,0,1-.43-1.81,3.69,3.69,0,0,1,.43-1.8,3.17,3.17,0,0,1,1.2-1.24,3.52,3.52,0,0,1,3.44,0,3.17,3.17,0,0,1,1.2,1.24,3.7,3.7,0,0,1,.43,1.8,3.74,3.74,0,0,1-.43,1.81,3.16,3.16,0,0,1-1.2,1.25,3.52,3.52,0,0,1-3.44,0Zm3.3-.22a2.92,2.92,0,0,0,1.11-1.16,3.71,3.71,0,0,0,0-3.36,2.87,2.87,0,0,0-1.11-1.15,3.26,3.26,0,0,0-3.16,0,2.87,2.87,0,0,0-1.11,1.15,3.71,3.71,0,0,0,0,3.36,2.92,2.92,0,0,0,1.11,1.16,3.21,3.21,0,0,0,3.16,0Z"/><path class="cls-2" d="M231.83,161.35v6.92h-.27v-1.83a2.69,2.69,0,0,1-1,1.38,3,3,0,0,1-1.75.5,2.83,2.83,0,0,1-2.09-.74,2.87,2.87,0,0,1-.75-2.13v-4.08h.27v4.08a2.65,2.65,0,0,0,.67,1.95,2.53,2.53,0,0,0,1.89.68,2.66,2.66,0,0,0,2-.81,3,3,0,0,0,.75-2.13v-3.76Z"/><path class="cls-2" d="M238.31,167.81a1.46,1.46,0,0,1-.6.37,2.29,2.29,0,0,1-.76.13,1.62,1.62,0,0,1-1.24-.46,1.73,1.73,0,0,1-.44-1.24v-5h-1.34v-.25h1.34v-1.51h.27v1.51h2.34v.25h-2.34v4.94a1.59,1.59,0,0,0,.36,1.12A1.38,1.38,0,0,0,237,168a1.61,1.61,0,0,0,1.15-.43Z"/><path class="cls-2" d="M240.64,158.34h.27v9.93h-.27Z"/><path class="cls-2" d="M249.84,164.8h-6.16a3.39,3.39,0,0,0,.42,1.68,3,3,0,0,0,1.14,1.16,3.41,3.41,0,0,0,3,.14,2.58,2.58,0,0,0,1-.8l.19.19a3,3,0,0,1-1.12.84,3.66,3.66,0,0,1-3.19-.15,3.22,3.22,0,0,1-1.23-1.25,3.64,3.64,0,0,1-.45-1.81,3.83,3.83,0,0,1,.42-1.8,3.12,3.12,0,0,1,1.14-1.24,3.07,3.07,0,0,1,1.64-.45,3.12,3.12,0,0,1,2.79,1.66,3.64,3.64,0,0,1,.42,1.77Zm-4.67-2.85a2.91,2.91,0,0,0-1,1.07,3.32,3.32,0,0,0-.44,1.53h5.9a3.28,3.28,0,0,0-.44-1.53,3,3,0,0,0-1.06-1.07,2.93,2.93,0,0,0-2.92,0Z"/><path class="cls-2" d="M255.5,167.81a1.46,1.46,0,0,1-.6.37,2.29,2.29,0,0,1-.76.13,1.62,1.62,0,0,1-1.24-.46,1.73,1.73,0,0,1-.44-1.24v-5h-1.34v-.25h1.34v-1.51h.27v1.51h2.34v.25h-2.34v4.94a1.59,1.59,0,0,0,.36,1.12,1.38,1.38,0,0,0,1.06.39,1.61,1.61,0,0,0,1.15-.43Z"/><path class="cls-2" d="M261.22,165.08a.58.58,0,1,1,.41.17A.56.56,0,0,1,261.22,165.08Z"/><polygon class="cls-3" points="31.86 116.37 19.84 136.04 54.43 134.39 63.96 111.81 31.86 116.37"/><polygon class="cls-3" points="65.41 112.02 74.73 134.59 109.11 136.87 97.52 116.16 65.41 112.02"/><polygon class="cls-3" points="95.94 138.74 95.94 158.94 66.16 167.55 66.16 123.41 62.59 123.41 62.59 167.31 33.86 158.94 34.05 140.2 30.49 140.49 30.27 161.61 64.79 171.66 99.51 161.62 99.51 139 95.94 138.74"/></svg>