<svg xmlns="http://www.w3.org/2000/svg" width="58.1" height="58.06" viewBox="0 0 58.1 58.06">
  <path id="instagram" fill='#59add4' d="M1771.18,4325.78c7.76,0,8.68.03,11.74,0.17a16.135,16.135,0,0,1,5.4,1,9.588,9.588,0,0,1,5.51,5.51,16.135,16.135,0,0,1,1,5.4c0.14,3.06.17,3.98,0.17,11.73s-0.03,8.68-.17,11.74a16,16,0,0,1-1,5.39,9.642,9.642,0,0,1-5.51,5.52,16.4,16.4,0,0,1-5.4,1c-3.06.14-3.98,0.17-11.74,0.17s-8.67-.03-11.73-0.17a16.339,16.339,0,0,1-5.4-1,9.642,9.642,0,0,1-5.51-5.52,16,16,0,0,1-1-5.39c-0.14-3.06-.17-3.98-0.17-11.74s0.03-8.67.17-11.73a16.135,16.135,0,0,1,1-5.4,9.588,9.588,0,0,1,5.51-5.51,16.075,16.075,0,0,1,5.4-1c3.06-.14,3.98-0.17,11.73-0.17m0-5.23c-7.88,0-8.87.03-11.97,0.17a21.727,21.727,0,0,0-7.05,1.35,14.828,14.828,0,0,0-8.5,8.5,21.26,21.26,0,0,0-1.35,7.05c-0.14,3.1-.17,4.09-0.17,11.97s0.03,8.88.17,11.98a21.26,21.26,0,0,0,1.35,7.05,14.849,14.849,0,0,0,8.5,8.49,21.206,21.206,0,0,0,7.05,1.35c3.1,0.15,4.09.18,11.97,0.18s8.88-.03,11.98-0.18a21.26,21.26,0,0,0,7.05-1.35,14.2,14.2,0,0,0,5.15-3.35,14.345,14.345,0,0,0,3.35-5.14,21.26,21.26,0,0,0,1.35-7.05c0.14-3.1.17-4.09,0.17-11.98s-0.03-8.87-.17-11.97a21.26,21.26,0,0,0-1.35-7.05,14.828,14.828,0,0,0-8.5-8.5,21.783,21.783,0,0,0-7.05-1.35c-3.1-.14-4.09-0.17-11.98-0.17h0Zm0,14.13a14.915,14.915,0,1,0,14.92,14.91A14.916,14.916,0,0,0,1771.18,4334.68Zm0,24.6a9.685,9.685,0,1,1,9.69-9.69A9.69,9.69,0,0,1,1771.18,4359.28Zm19-25.19a3.49,3.49,0,1,1-3.49-3.49A3.493,3.493,0,0,1,1790.18,4334.09Z" transform="translate(-1742.12 -4320.56)"/>
</svg>
