<?xml version="1.0" encoding="utf-8"?>
<!-- Generator: Adobe Illustrator 24.0.3, SVG Export Plug-In . SVG Version: 6.00 Build 0)  -->
<svg version="1.1" id="Слой_1" xmlns="http://www.w3.org/2000/svg" xmlns:xlink="http://www.w3.org/1999/xlink" x="0px" y="0px"
	 viewBox="0 0 172.4 173.8" style="enable-background:new 0 0 172.4 173.8;" xml:space="preserve">
<style type="text/css">
	.st0{fill:#F9474E;}
	.st1{fill:#FFFFFF;}
	.st2{fill:#010B17;}
</style>
<path class="st0" d="M5.6,32.3V6.1h25.8V0.6H0v31.7H5.6z"/>
<path class="st0" d="M172.4,31.7V0H141v5.6h25.9v26.1H172.4z"/>
<path class="st0" d="M0,141.5v31.7h31.4v-5.6H5.6v-26.1H0L0,141.5z"/>
<path class="st0" d="M166.8,142.1v26.1H141v5.6h31.4v-31.7H166.8z"/>
<path class="st1" d="M150.9,141.7H145v5.9h5.9V141.7z"/>
<path class="st1" d="M150.9,135.8H145v5.9h5.9V135.8z"/>
<path class="st1" d="M150.9,129.9H145v5.9h5.9V129.9z"/>
<path class="st1" d="M150.9,124H145v5.9h5.9V124z"/>
<path class="st1" d="M150.9,118.1H145v5.9h5.9V118.1z"/>
<path class="st1" d="M150.9,112.2H145v5.9h5.9V112.2z"/>
<path class="st1" d="M150.9,106.3H145v5.9h5.9V106.3z"/>
<path class="st1" d="M150.9,100.4H145v5.9h5.9V100.4z"/>
<path class="st1" d="M150.9,94.4H145v5.9h5.9V94.4z"/>
<path class="st1" d="M150.9,88.5H145v5.9h5.9V88.5z"/>
<path class="st1" d="M150.9,82.6H145v5.9h5.9V82.6z"/>
<path class="st1" d="M150.9,76.7H145v5.9h5.9V76.7z"/>
<path class="st1" d="M150.9,70.8H145v5.9h5.9V70.8z"/>
<path class="st1" d="M150.9,64.9H145v5.9h5.9V64.9z"/>
<path class="st1" d="M150.9,59H145v5.9h5.9V59z"/>
<path class="st1" d="M150.9,53.1H145V59h5.9V53.1z"/>
<path class="st1" d="M150.9,47.2H145v5.9h5.9V47.2z"/>
<path class="st1" d="M150.9,41.3H145v5.9h5.9V41.3z"/>
<path class="st1" d="M150.9,35.4H145v5.9h5.9V35.4z"/>
<path class="st1" d="M150.9,29.4H145v5.9h5.9V29.4z"/>
<path class="st1" d="M150.9,23.5H145v5.9h5.9V23.5z"/>
<path class="st1" d="M150.9,17.6H145v5.9h5.9V17.6z"/>
<path class="st1" d="M145,141.7h-5.9v5.9h5.9V141.7z"/>
<path class="st2" d="M145,135.8h-5.9v5.9h5.9V135.8z"/>
<path class="st2" d="M145,129.9h-5.9v5.9h5.9V129.9z"/>
<path class="st2" d="M145,124h-5.9v5.9h5.9V124z"/>
<path class="st1" d="M145,118.1h-5.9v5.9h5.9V118.1z"/>
<path class="st2" d="M145,112.2h-5.9v5.9h5.9V112.2z"/>
<path class="st2" d="M145,106.3h-5.9v5.9h5.9V106.3z"/>
<path class="st2" d="M145,100.4h-5.9v5.9h5.9V100.4z"/>
<path class="st2" d="M145,94.4h-5.9v5.9h5.9V94.4z"/>
<path class="st1" d="M145,88.5h-5.9v5.9h5.9V88.5z"/>
<path class="st2" d="M145,82.6h-5.9v5.9h5.9V82.6z"/>
<path class="st2" d="M145,76.7h-5.9v5.9h5.9V76.7z"/>
<path class="st1" d="M145,70.8h-5.9v5.9h5.9V70.8z"/>
<path class="st2" d="M145,64.9h-5.9v5.9h5.9V64.9z"/>
<path class="st2" d="M145,59h-5.9v5.9h5.9V59z"/>
<path class="st1" d="M145,53.1h-5.9V59h5.9V53.1z"/>
<path class="st2" d="M145,47.2h-5.9v5.9h5.9V47.2z"/>
<path class="st2" d="M145,41.3h-5.9v5.9h5.9V41.3z"/>
<path class="st2" d="M145,35.4h-5.9v5.9h5.9V35.4z"/>
<path class="st2" d="M145,29.4h-5.9v5.9h5.9V29.4z"/>
<path class="st2" d="M145,23.5h-5.9v5.9h5.9V23.5z"/>
<path class="st1" d="M145,17.6h-5.9v5.9h5.9V17.6z"/>
<path class="st1" d="M139.1,141.7h-5.9v5.9h5.9V141.7z"/>
<path class="st1" d="M139.1,135.8h-5.9v5.9h5.9V135.8z"/>
<path class="st1" d="M139.1,129.9h-5.9v5.9h5.9V129.9z"/>
<path class="st1" d="M139.1,124h-5.9v5.9h5.9V124z"/>
<path class="st2" d="M139.1,118.1h-5.9v5.9h5.9V118.1z"/>
<path class="st1" d="M139.1,112.2h-5.9v5.9h5.9V112.2z"/>
<path class="st1" d="M139.1,106.3h-5.9v5.9h5.9V106.3z"/>
<path class="st1" d="M139.1,100.4h-5.9v5.9h5.9V100.4z"/>
<path class="st2" d="M139.1,94.4h-5.9v5.9h5.9V94.4z"/>
<path class="st1" d="M139.1,88.5h-5.9v5.9h5.9V88.5z"/>
<path class="st1" d="M139.1,82.6h-5.9v5.9h5.9V82.6z"/>
<path class="st2" d="M139.1,76.7h-5.9v5.9h5.9V76.7z"/>
<path class="st1" d="M139.1,70.8h-5.9v5.9h5.9V70.8z"/>
<path class="st2" d="M139.1,64.9h-5.9v5.9h5.9V64.9z"/>
<path class="st1" d="M139.1,59h-5.9v5.9h5.9V59z"/>
<path class="st1" d="M139.1,53.1h-5.9V59h5.9V53.1z"/>
<path class="st2" d="M139.1,47.2h-5.9v5.9h5.9V47.2z"/>
<path class="st1" d="M139.1,41.3h-5.9v5.9h5.9V41.3z"/>
<path class="st1" d="M139.1,35.4h-5.9v5.9h5.9V35.4z"/>
<path class="st1" d="M139.1,29.4h-5.9v5.9h5.9V29.4z"/>
<path class="st2" d="M139.1,23.5h-5.9v5.9h5.9V23.5z"/>
<path class="st1" d="M139.1,17.6h-5.9v5.9h5.9V17.6z"/>
<path class="st1" d="M133.2,141.7h-5.9v5.9h5.9V141.7z"/>
<path class="st2" d="M133.2,135.8h-5.9v5.9h5.9V135.8z"/>
<path class="st1" d="M133.2,129.9h-5.9v5.9h5.9V129.9z"/>
<path class="st2" d="M133.2,124h-5.9v5.9h5.9V124z"/>
<path class="st1" d="M133.2,118.1h-5.9v5.9h5.9V118.1z"/>
<path class="st2" d="M133.2,112.2h-5.9v5.9h5.9V112.2z"/>
<path class="st1" d="M133.2,106.3h-5.9v5.9h5.9V106.3z"/>
<path class="st1" d="M133.2,100.4h-5.9v5.9h5.9V100.4z"/>
<path class="st2" d="M133.2,94.4h-5.9v5.9h5.9V94.4z"/>
<path class="st2" d="M133.2,88.5h-5.9v5.9h5.9V88.5z"/>
<path class="st2" d="M133.2,82.6h-5.9v5.9h5.9V82.6z"/>
<path class="st2" d="M133.2,76.7h-5.9v5.9h5.9V76.7z"/>
<path class="st2" d="M133.2,70.8h-5.9v5.9h5.9V70.8z"/>
<path class="st2" d="M133.2,64.9h-5.9v5.9h5.9V64.9z"/>
<path class="st1" d="M133.2,59h-5.9v5.9h5.9V59z"/>
<path class="st1" d="M133.2,53.1h-5.9V59h5.9V53.1z"/>
<path class="st2" d="M133.2,47.2h-5.9v5.9h5.9V47.2z"/>
<path class="st1" d="M133.2,41.3h-5.9v5.9h5.9V41.3z"/>
<path class="st2" d="M133.2,35.4h-5.9v5.9h5.9V35.4z"/>
<path class="st1" d="M133.2,29.4h-5.9v5.9h5.9V29.4z"/>
<path class="st2" d="M133.2,23.5h-5.9v5.9h5.9V23.5z"/>
<path class="st1" d="M133.2,17.6h-5.9v5.9h5.9V17.6z"/>
<path class="st1" d="M127.3,141.7h-5.9v5.9h5.9V141.7z"/>
<path class="st2" d="M127.3,135.8h-5.9v5.9h5.9V135.8z"/>
<path class="st1" d="M127.3,129.9h-5.9v5.9h5.9V129.9z"/>
<path class="st1" d="M127.3,124h-5.9v5.9h5.9V124z"/>
<path class="st1" d="M127.3,118.1h-5.9v5.9h5.9V118.1z"/>
<path class="st1" d="M127.3,112.2h-5.9v5.9h5.9V112.2z"/>
<path class="st1" d="M127.3,106.3h-5.9v5.9h5.9V106.3z"/>
<path class="st1" d="M127.3,100.4h-5.9v5.9h5.9V100.4z"/>
<path class="st1" d="M127.3,94.4h-5.9v5.9h5.9V94.4z"/>
<path class="st1" d="M127.3,88.5h-5.9v5.9h5.9V88.5z"/>
<path class="st1" d="M127.3,82.6h-5.9v5.9h5.9V82.6z"/>
<path class="st1" d="M127.3,76.7h-5.9v5.9h5.9V76.7z"/>
<path class="st1" d="M127.3,70.8h-5.9v5.9h5.9V70.8z"/>
<path class="st2" d="M127.3,64.9h-5.9v5.9h5.9V64.9z"/>
<path class="st1" d="M127.3,59h-5.9v5.9h5.9V59z"/>
<path class="st1" d="M127.3,53.1h-5.9V59h5.9V53.1z"/>
<path class="st2" d="M127.3,47.2h-5.9v5.9h5.9V47.2z"/>
<path class="st1" d="M127.3,41.3h-5.9v5.9h5.9V41.3z"/>
<path class="st1" d="M127.3,35.4h-5.9v5.9h5.9V35.4z"/>
<path class="st1" d="M127.3,29.4h-5.9v5.9h5.9V29.4z"/>
<path class="st2" d="M127.3,23.5h-5.9v5.9h5.9V23.5z"/>
<path class="st1" d="M127.3,17.6h-5.9v5.9h5.9V17.6z"/>
<path class="st1" d="M121.4,141.7h-5.9v5.9h5.9V141.7z"/>
<path class="st2" d="M121.4,135.8h-5.9v5.9h5.9V135.8z"/>
<path class="st1" d="M121.4,129.9h-5.9v5.9h5.9V129.9z"/>
<path class="st2" d="M121.4,124h-5.9v5.9h5.9V124z"/>
<path class="st1" d="M121.4,118.1h-5.9v5.9h5.9V118.1z"/>
<path class="st1" d="M121.4,112.2h-5.9v5.9h5.9V112.2z"/>
<path class="st1" d="M121.4,106.3h-5.9v5.9h5.9V106.3z"/>
<path class="st1" d="M121.4,100.4h-5.9v5.9h5.9V100.4z"/>
<path class="st1" d="M121.4,94.4h-5.9v5.9h5.9V94.4z"/>
<path class="st1" d="M121.4,88.5h-5.9v5.9h5.9V88.5z"/>
<path class="st2" d="M121.4,82.6h-5.9v5.9h5.9V82.6z"/>
<path class="st2" d="M121.4,76.7h-5.9v5.9h5.9V76.7z"/>
<path class="st1" d="M121.4,70.8h-5.9v5.9h5.9V70.8z"/>
<path class="st2" d="M121.4,64.9h-5.9v5.9h5.9V64.9z"/>
<path class="st2" d="M121.4,59h-5.9v5.9h5.9V59z"/>
<path class="st1" d="M121.4,53.1h-5.9V59h5.9V53.1z"/>
<path class="st2" d="M121.4,47.2h-5.9v5.9h5.9V47.2z"/>
<path class="st2" d="M121.4,41.3h-5.9v5.9h5.9V41.3z"/>
<path class="st2" d="M121.4,35.4h-5.9v5.9h5.9V35.4z"/>
<path class="st2" d="M121.4,29.4h-5.9v5.9h5.9V29.4z"/>
<path class="st2" d="M121.4,23.5h-5.9v5.9h5.9V23.5z"/>
<path class="st1" d="M121.4,17.6h-5.9v5.9h5.9V17.6z"/>
<path class="st1" d="M115.5,141.7h-5.9v5.9h5.9V141.7z"/>
<path class="st2" d="M115.5,135.8h-5.9v5.9h5.9V135.8z"/>
<path class="st1" d="M115.5,129.9h-5.9v5.9h5.9V129.9z"/>
<path class="st2" d="M115.5,124h-5.9v5.9h5.9V124z"/>
<path class="st1" d="M115.5,118.1h-5.9v5.9h5.9V118.1z"/>
<path class="st1" d="M115.5,112.2h-5.9v5.9h5.9V112.2z"/>
<path class="st2" d="M115.5,106.3h-5.9v5.9h5.9V106.3z"/>
<path class="st2" d="M115.5,100.4h-5.9v5.9h5.9V100.4z"/>
<path class="st1" d="M115.5,94.4h-5.9v5.9h5.9V94.4z"/>
<path class="st1" d="M115.5,88.5h-5.9v5.9h5.9V88.5z"/>
<path class="st2" d="M115.5,82.6h-5.9v5.9h5.9V82.6z"/>
<path class="st1" d="M115.5,76.7h-5.9v5.9h5.9V76.7z"/>
<path class="st1" d="M115.5,70.8h-5.9v5.9h5.9V70.8z"/>
<path class="st1" d="M115.5,64.9h-5.9v5.9h5.9V64.9z"/>
<path class="st1" d="M115.5,59h-5.9v5.9h5.9V59z"/>
<path class="st1" d="M115.5,53.1h-5.9V59h5.9V53.1z"/>
<path class="st1" d="M115.5,47.2h-5.9v5.9h5.9V47.2z"/>
<path class="st1" d="M115.5,41.3h-5.9v5.9h5.9V41.3z"/>
<path class="st1" d="M115.5,35.4h-5.9v5.9h5.9V35.4z"/>
<path class="st1" d="M115.5,29.4h-5.9v5.9h5.9V29.4z"/>
<path class="st1" d="M115.5,23.5h-5.9v5.9h5.9V23.5z"/>
<path class="st1" d="M115.5,17.6h-5.9v5.9h5.9V17.6z"/>
<path class="st1" d="M109.6,141.7h-5.9v5.9h5.9V141.7z"/>
<path class="st2" d="M109.6,135.8h-5.9v5.9h5.9V135.8z"/>
<path class="st1" d="M109.6,129.9h-5.9v5.9h5.9V129.9z"/>
<path class="st2" d="M109.6,124h-5.9v5.9h5.9V124z"/>
<path class="st1" d="M109.6,118.1h-5.9v5.9h5.9V118.1z"/>
<path class="st2" d="M109.6,112.2h-5.9v5.9h5.9V112.2z"/>
<path class="st2" d="M109.6,106.3h-5.9v5.9h5.9V106.3z"/>
<path class="st2" d="M109.6,100.4h-5.9v5.9h5.9V100.4z"/>
<path class="st2" d="M109.6,94.4h-5.9v5.9h5.9V94.4z"/>
<path class="st1" d="M109.6,88.5h-5.9v5.9h5.9V88.5z"/>
<path class="st2" d="M109.6,82.6h-5.9v5.9h5.9V82.6z"/>
<path class="st2" d="M109.6,76.7h-5.9v5.9h5.9V76.7z"/>
<path class="st1" d="M109.6,70.8h-5.9v5.9h5.9V70.8z"/>
<path class="st1" d="M109.6,64.9h-5.9v5.9h5.9V64.9z"/>
<path class="st2" d="M109.6,59h-5.9v5.9h5.9V59z"/>
<path class="st1" d="M109.6,53.1h-5.9V59h5.9V53.1z"/>
<path class="st1" d="M109.6,47.2h-5.9v5.9h5.9V47.2z"/>
<path class="st2" d="M109.6,41.3h-5.9v5.9h5.9V41.3z"/>
<path class="st1" d="M109.6,35.4h-5.9v5.9h5.9V35.4z"/>
<path class="st1" d="M109.6,29.4h-5.9v5.9h5.9V29.4z"/>
<path class="st2" d="M109.6,23.5h-5.9v5.9h5.9V23.5z"/>
<path class="st1" d="M109.6,17.6h-5.9v5.9h5.9V17.6z"/>
<path class="st1" d="M103.7,141.7h-5.9v5.9h5.9V141.7z"/>
<path class="st1" d="M103.7,135.8h-5.9v5.9h5.9V135.8z"/>
<path class="st1" d="M103.7,129.9h-5.9v5.9h5.9V129.9z"/>
<path class="st2" d="M103.7,124h-5.9v5.9h5.9V124z"/>
<path class="st1" d="M103.7,118.1h-5.9v5.9h5.9V118.1z"/>
<path class="st2" d="M103.7,112.2h-5.9v5.9h5.9V112.2z"/>
<path class="st1" d="M103.7,106.3h-5.9v5.9h5.9V106.3z"/>
<path class="st1" d="M103.7,100.4h-5.9v5.9h5.9V100.4z"/>
<path class="st2" d="M103.7,94.4h-5.9v5.9h5.9V94.4z"/>
<path class="st1" d="M103.7,88.5h-5.9v5.9h5.9V88.5z"/>
<path class="st1" d="M103.7,82.6h-5.9v5.9h5.9V82.6z"/>
<path class="st1" d="M103.7,76.7h-5.9v5.9h5.9V76.7z"/>
<path class="st1" d="M103.7,70.8h-5.9v5.9h5.9V70.8z"/>
<path class="st1" d="M103.7,64.9h-5.9v5.9h5.9V64.9z"/>
<path class="st2" d="M103.7,59h-5.9v5.9h5.9V59z"/>
<path class="st2" d="M103.7,53.1h-5.9V59h5.9V53.1z"/>
<path class="st1" d="M103.7,47.2h-5.9v5.9h5.9V47.2z"/>
<path class="st1" d="M103.7,41.3h-5.9v5.9h5.9V41.3z"/>
<path class="st2" d="M103.7,35.4h-5.9v5.9h5.9V35.4z"/>
<path class="st2" d="M103.7,29.4h-5.9v5.9h5.9V29.4z"/>
<path class="st2" d="M103.7,23.5h-5.9v5.9h5.9V23.5z"/>
<path class="st1" d="M103.7,17.6h-5.9v5.9h5.9V17.6z"/>
<path class="st1" d="M97.7,141.7h-5.9v5.9h5.9V141.7z"/>
<path class="st2" d="M97.7,135.8h-5.9v5.9h5.9V135.8z"/>
<path class="st1" d="M97.7,129.9h-5.9v5.9h5.9V129.9z"/>
<path class="st1" d="M97.7,124h-5.9v5.9h5.9V124z"/>
<path class="st1" d="M97.7,118.1h-5.9v5.9h5.9V118.1z"/>
<path class="st1" d="M97.7,112.2h-5.9v5.9h5.9V112.2z"/>
<path class="st2" d="M97.7,106.3h-5.9v5.9h5.9V106.3z"/>
<path class="st1" d="M97.7,100.4h-5.9v5.9h5.9V100.4z"/>
<path class="st1" d="M97.7,94.4h-5.9v5.9h5.9V94.4z"/>
<path class="st2" d="M97.7,88.5h-5.9v5.9h5.9V88.5z"/>
<path class="st2" d="M97.7,82.6h-5.9v5.9h5.9V82.6z"/>
<path class="st2" d="M97.7,76.7h-5.9v5.9h5.9V76.7z"/>
<path class="st2" d="M97.7,70.8h-5.9v5.9h5.9V70.8z"/>
<path class="st1" d="M97.7,64.9h-5.9v5.9h5.9V64.9z"/>
<path class="st2" d="M97.7,59h-5.9v5.9h5.9V59z"/>
<path class="st1" d="M97.7,53.1h-5.9V59h5.9V53.1z"/>
<path class="st2" d="M97.7,47.2h-5.9v5.9h5.9V47.2z"/>
<path class="st1" d="M97.7,41.3h-5.9v5.9h5.9V41.3z"/>
<path class="st2" d="M97.7,35.4h-5.9v5.9h5.9V35.4z"/>
<path class="st1" d="M97.7,29.4h-5.9v5.9h5.9V29.4z"/>
<path class="st2" d="M97.7,23.5h-5.9v5.9h5.9V23.5z"/>
<path class="st1" d="M97.7,17.6h-5.9v5.9h5.9V17.6z"/>
<path class="st1" d="M91.8,141.7h-5.9v5.9h5.9V141.7z"/>
<path class="st1" d="M91.8,135.8h-5.9v5.9h5.9V135.8z"/>
<path class="st2" d="M91.8,129.9h-5.9v5.9h5.9V129.9z"/>
<path class="st2" d="M91.8,124h-5.9v5.9h5.9V124z"/>
<path class="st2" d="M91.8,118.1h-5.9v5.9h5.9V118.1z"/>
<path class="st2" d="M91.8,112.2h-5.9v5.9h5.9V112.2z"/>
<path class="st2" d="M91.8,106.3h-5.9v5.9h5.9V106.3z"/>
<path class="st1" d="M91.8,100.4h-5.9v5.9h5.9V100.4z"/>
<path class="st1" d="M91.8,94.4h-5.9v5.9h5.9V94.4z"/>
<path class="st1" d="M91.8,88.5h-5.9v5.9h5.9V88.5z"/>
<path class="st1" d="M91.8,82.6h-5.9v5.9h5.9V82.6z"/>
<path class="st1" d="M91.8,76.7h-5.9v5.9h5.9V76.7z"/>
<path class="st1" d="M91.8,70.8h-5.9v5.9h5.9V70.8z"/>
<path class="st1" d="M91.8,64.9h-5.9v5.9h5.9V64.9z"/>
<path class="st1" d="M91.8,59h-5.9v5.9h5.9V59z"/>
<path class="st1" d="M91.8,53.1h-5.9V59h5.9V53.1z"/>
<path class="st1" d="M91.8,47.2h-5.9v5.9h5.9V47.2z"/>
<path class="st1" d="M91.8,41.3h-5.9v5.9h5.9V41.3z"/>
<path class="st1" d="M91.8,35.4h-5.9v5.9h5.9V35.4z"/>
<path class="st1" d="M91.8,29.4h-5.9v5.9h5.9V29.4z"/>
<path class="st2" d="M91.8,23.5h-5.9v5.9h5.9V23.5z"/>
<path class="st1" d="M91.8,17.6h-5.9v5.9h5.9V17.6z"/>
<path class="st1" d="M85.9,141.7H80v5.9h5.9V141.7z"/>
<path class="st2" d="M85.9,135.8H80v5.9h5.9V135.8z"/>
<path class="st1" d="M85.9,129.9H80v5.9h5.9V129.9z"/>
<path class="st1" d="M85.9,124H80v5.9h5.9V124z"/>
<path class="st1" d="M85.9,118.1H80v5.9h5.9V118.1z"/>
<path class="st1" d="M85.9,112.2H80v5.9h5.9V112.2z"/>
<path class="st1" d="M85.9,106.3H80v5.9h5.9V106.3z"/>
<path class="st1" d="M85.9,100.4H80v5.9h5.9V100.4z"/>
<path class="st1" d="M85.9,94.4H80v5.9h5.9V94.4z"/>
<path class="st1" d="M85.9,88.5H80v5.9h5.9V88.5z"/>
<path class="st1" d="M85.9,82.6H80v5.9h5.9V82.6z"/>
<path class="st1" d="M85.9,76.7H80v5.9h5.9V76.7z"/>
<path class="st2" d="M85.9,70.8H80v5.9h5.9V70.8z"/>
<path class="st1" d="M85.9,64.9H80v5.9h5.9V64.9z"/>
<path class="st1" d="M85.9,59H80v5.9h5.9V59z"/>
<path class="st2" d="M85.9,53.1H80V59h5.9V53.1z"/>
<path class="st2" d="M85.9,47.2H80v5.9h5.9V47.2z"/>
<path class="st1" d="M85.9,41.3H80v5.9h5.9V41.3z"/>
<path class="st1" d="M85.9,35.4H80v5.9h5.9V35.4z"/>
<path class="st2" d="M85.9,29.4H80v5.9h5.9V29.4z"/>
<path class="st1" d="M85.9,23.5H80v5.9h5.9V23.5z"/>
<path class="st1" d="M85.9,17.6H80v5.9h5.9V17.6z"/>
<path class="st1" d="M80,141.7h-5.9v5.9H80V141.7z"/>
<path class="st2" d="M80,135.8h-5.9v5.9H80V135.8z"/>
<path class="st1" d="M80,129.9h-5.9v5.9H80V129.9z"/>
<path class="st1" d="M80,124h-5.9v5.9H80V124z"/>
<path class="st1" d="M80,118.1h-5.9v5.9H80V118.1z"/>
<path class="st2" d="M80,112.2h-5.9v5.9H80V112.2z"/>
<path class="st1" d="M80,106.3h-5.9v5.9H80V106.3z"/>
<path class="st1" d="M80,100.4h-5.9v5.9H80V100.4z"/>
<path class="st1" d="M80,94.4h-5.9v5.9H80V94.4z"/>
<path class="st2" d="M80,88.5h-5.9v5.9H80V88.5z"/>
<path class="st1" d="M80,82.6h-5.9v5.9H80V82.6z"/>
<path class="st2" d="M80,76.7h-5.9v5.9H80V76.7z"/>
<path class="st1" d="M80,70.8h-5.9v5.9H80V70.8z"/>
<path class="st1" d="M80,64.9h-5.9v5.9H80V64.9z"/>
<path class="st2" d="M80,59h-5.9v5.9H80V59z"/>
<path class="st2" d="M80,53.1h-5.9V59H80V53.1z"/>
<path class="st2" d="M80,47.2h-5.9v5.9H80V47.2z"/>
<path class="st2" d="M80,41.3h-5.9v5.9H80V41.3z"/>
<path class="st2" d="M80,35.4h-5.9v5.9H80V35.4z"/>
<path class="st2" d="M80,29.4h-5.9v5.9H80V29.4z"/>
<path class="st2" d="M80,23.5h-5.9v5.9H80V23.5z"/>
<path class="st1" d="M80,17.6h-5.9v5.9H80V17.6z"/>
<path class="st1" d="M74.1,141.7h-5.9v5.9h5.9V141.7z"/>
<path class="st1" d="M74.1,135.8h-5.9v5.9h5.9V135.8z"/>
<path class="st1" d="M74.1,129.9h-5.9v5.9h5.9V129.9z"/>
<path class="st1" d="M74.1,124h-5.9v5.9h5.9V124z"/>
<path class="st1" d="M74.1,118.1h-5.9v5.9h5.9V118.1z"/>
<path class="st2" d="M74.1,112.2h-5.9v5.9h5.9V112.2z"/>
<path class="st2" d="M74.1,106.3h-5.9v5.9h5.9V106.3z"/>
<path class="st2" d="M74.1,100.4h-5.9v5.9h5.9V100.4z"/>
<path class="st2" d="M74.1,94.4h-5.9v5.9h5.9V94.4z"/>
<path class="st1" d="M74.1,88.5h-5.9v5.9h5.9V88.5z"/>
<path class="st2" d="M74.1,82.6h-5.9v5.9h5.9V82.6z"/>
<path class="st2" d="M74.1,76.7h-5.9v5.9h5.9V76.7z"/>
<path class="st2" d="M74.1,70.8h-5.9v5.9h5.9V70.8z"/>
<path class="st1" d="M74.1,64.9h-5.9v5.9h5.9V64.9z"/>
<path class="st2" d="M74.1,59h-5.9v5.9h5.9V59z"/>
<path class="st1" d="M74.1,53.1h-5.9V59h5.9V53.1z"/>
<path class="st2" d="M74.1,47.2h-5.9v5.9h5.9V47.2z"/>
<path class="st1" d="M74.1,41.3h-5.9v5.9h5.9V41.3z"/>
<path class="st1" d="M74.1,35.4h-5.9v5.9h5.9V35.4z"/>
<path class="st2" d="M74.1,29.4h-5.9v5.9h5.9V29.4z"/>
<path class="st1" d="M74.1,23.5h-5.9v5.9h5.9V23.5z"/>
<path class="st1" d="M74.1,17.6h-5.9v5.9h5.9V17.6z"/>
<path class="st1" d="M68.2,141.7h-5.9v5.9h5.9V141.7z"/>
<path class="st2" d="M68.2,135.8h-5.9v5.9h5.9V135.8z"/>
<path class="st2" d="M68.2,129.9h-5.9v5.9h5.9V129.9z"/>
<path class="st2" d="M68.2,124h-5.9v5.9h5.9V124z"/>
<path class="st2" d="M68.2,118.1h-5.9v5.9h5.9V118.1z"/>
<path class="st2" d="M68.2,112.2h-5.9v5.9h5.9V112.2z"/>
<path class="st1" d="M68.2,106.3h-5.9v5.9h5.9V106.3z"/>
<path class="st1" d="M68.2,100.4h-5.9v5.9h5.9V100.4z"/>
<path class="st1" d="M68.2,94.4h-5.9v5.9h5.9V94.4z"/>
<path class="st1" d="M68.2,88.5h-5.9v5.9h5.9V88.5z"/>
<path class="st1" d="M68.2,82.6h-5.9v5.9h5.9V82.6z"/>
<path class="st1" d="M68.2,76.7h-5.9v5.9h5.9V76.7z"/>
<path class="st1" d="M68.2,70.8h-5.9v5.9h5.9V70.8z"/>
<path class="st1" d="M68.2,64.9h-5.9v5.9h5.9V64.9z"/>
<path class="st2" d="M68.2,59h-5.9v5.9h5.9V59z"/>
<path class="st1" d="M68.2,53.1h-5.9V59h5.9V53.1z"/>
<path class="st1" d="M68.2,47.2h-5.9v5.9h5.9V47.2z"/>
<path class="st2" d="M68.2,41.3h-5.9v5.9h5.9V41.3z"/>
<path class="st1" d="M68.2,35.4h-5.9v5.9h5.9V35.4z"/>
<path class="st2" d="M68.2,29.4h-5.9v5.9h5.9V29.4z"/>
<path class="st1" d="M68.2,23.5h-5.9v5.9h5.9V23.5z"/>
<path class="st1" d="M68.2,17.6h-5.9v5.9h5.9V17.6z"/>
<path class="st1" d="M62.3,141.7h-5.9v5.9h5.9V141.7z"/>
<path class="st1" d="M62.3,135.8h-5.9v5.9h5.9V135.8z"/>
<path class="st1" d="M62.3,129.9h-5.9v5.9h5.9V129.9z"/>
<path class="st1" d="M62.3,124h-5.9v5.9h5.9V124z"/>
<path class="st1" d="M62.3,118.1h-5.9v5.9h5.9V118.1z"/>
<path class="st1" d="M62.3,112.2h-5.9v5.9h5.9V112.2z"/>
<path class="st1" d="M62.3,106.3h-5.9v5.9h5.9V106.3z"/>
<path class="st2" d="M62.3,100.4h-5.9v5.9h5.9V100.4z"/>
<path class="st2" d="M62.3,94.4h-5.9v5.9h5.9V94.4z"/>
<path class="st2" d="M62.3,88.5h-5.9v5.9h5.9V88.5z"/>
<path class="st1" d="M62.3,82.6h-5.9v5.9h5.9V82.6z"/>
<path class="st1" d="M62.3,76.7h-5.9v5.9h5.9V76.7z"/>
<path class="st2" d="M62.3,70.8h-5.9v5.9h5.9V70.8z"/>
<path class="st2" d="M62.3,64.9h-5.9v5.9h5.9V64.9z"/>
<path class="st2" d="M62.3,59h-5.9v5.9h5.9V59z"/>
<path class="st1" d="M62.3,53.1h-5.9V59h5.9V53.1z"/>
<path class="st1" d="M62.3,47.2h-5.9v5.9h5.9V47.2z"/>
<path class="st1" d="M62.3,41.3h-5.9v5.9h5.9V41.3z"/>
<path class="st1" d="M62.3,35.4h-5.9v5.9h5.9V35.4z"/>
<path class="st1" d="M62.3,29.4h-5.9v5.9h5.9V29.4z"/>
<path class="st1" d="M62.3,23.5h-5.9v5.9h5.9V23.5z"/>
<path class="st1" d="M62.3,17.6h-5.9v5.9h5.9V17.6z"/>
<path class="st1" d="M56.4,141.7h-5.9v5.9h5.9V141.7z"/>
<path class="st2" d="M56.4,135.8h-5.9v5.9h5.9V135.8z"/>
<path class="st2" d="M56.4,129.9h-5.9v5.9h5.9V129.9z"/>
<path class="st2" d="M56.4,124h-5.9v5.9h5.9V124z"/>
<path class="st2" d="M56.4,118.1h-5.9v5.9h5.9V118.1z"/>
<path class="st2" d="M56.4,112.2h-5.9v5.9h5.9V112.2z"/>
<path class="st1" d="M56.4,106.3h-5.9v5.9h5.9V106.3z"/>
<path class="st1" d="M56.4,100.4h-5.9v5.9h5.9V100.4z"/>
<path class="st1" d="M56.4,94.4h-5.9v5.9h5.9V94.4z"/>
<path class="st2" d="M56.4,88.5h-5.9v5.9h5.9V88.5z"/>
<path class="st1" d="M56.4,82.6h-5.9v5.9h5.9V82.6z"/>
<path class="st1" d="M56.4,76.7h-5.9v5.9h5.9V76.7z"/>
<path class="st1" d="M56.4,70.8h-5.9v5.9h5.9V70.8z"/>
<path class="st1" d="M56.4,64.9h-5.9v5.9h5.9V64.9z"/>
<path class="st2" d="M56.4,59h-5.9v5.9h5.9V59z"/>
<path class="st1" d="M56.4,53.1h-5.9V59h5.9V53.1z"/>
<path class="st2" d="M56.4,47.2h-5.9v5.9h5.9V47.2z"/>
<path class="st2" d="M56.4,41.3h-5.9v5.9h5.9V41.3z"/>
<path class="st2" d="M56.4,35.4h-5.9v5.9h5.9V35.4z"/>
<path class="st2" d="M56.4,29.4h-5.9v5.9h5.9V29.4z"/>
<path class="st2" d="M56.4,23.5h-5.9v5.9h5.9V23.5z"/>
<path class="st1" d="M56.4,17.6h-5.9v5.9h5.9V17.6z"/>
<path class="st1" d="M50.5,141.7h-5.9v5.9h5.9V141.7z"/>
<path class="st2" d="M50.5,135.8h-5.9v5.9h5.9V135.8z"/>
<path class="st1" d="M50.5,129.9h-5.9v5.9h5.9V129.9z"/>
<path class="st1" d="M50.5,124h-5.9v5.9h5.9V124z"/>
<path class="st1" d="M50.5,118.1h-5.9v5.9h5.9V118.1z"/>
<path class="st2" d="M50.5,112.2h-5.9v5.9h5.9V112.2z"/>
<path class="st1" d="M50.5,106.3h-5.9v5.9h5.9V106.3z"/>
<path class="st1" d="M50.5,100.4h-5.9v5.9h5.9V100.4z"/>
<path class="st1" d="M50.5,94.4h-5.9v5.9h5.9V94.4z"/>
<path class="st2" d="M50.5,88.5h-5.9v5.9h5.9V88.5z"/>
<path class="st1" d="M50.5,82.6h-5.9v5.9h5.9V82.6z"/>
<path class="st2" d="M50.5,76.7h-5.9v5.9h5.9V76.7z"/>
<path class="st1" d="M50.5,70.8h-5.9v5.9h5.9V70.8z"/>
<path class="st1" d="M50.5,64.9h-5.9v5.9h5.9V64.9z"/>
<path class="st2" d="M50.5,59h-5.9v5.9h5.9V59z"/>
<path class="st1" d="M50.5,53.1h-5.9V59h5.9V53.1z"/>
<path class="st2" d="M50.5,47.2h-5.9v5.9h5.9V47.2z"/>
<path class="st1" d="M50.5,41.3h-5.9v5.9h5.9V41.3z"/>
<path class="st1" d="M50.5,35.4h-5.9v5.9h5.9V35.4z"/>
<path class="st1" d="M50.5,29.4h-5.9v5.9h5.9V29.4z"/>
<path class="st2" d="M50.5,23.5h-5.9v5.9h5.9V23.5z"/>
<path class="st1" d="M50.5,17.6h-5.9v5.9h5.9V17.6z"/>
<path class="st1" d="M44.6,141.7h-5.9v5.9h5.9V141.7z"/>
<path class="st2" d="M44.6,135.8h-5.9v5.9h5.9V135.8z"/>
<path class="st1" d="M44.6,129.9h-5.9v5.9h5.9V129.9z"/>
<path class="st2" d="M44.6,124h-5.9v5.9h5.9V124z"/>
<path class="st1" d="M44.6,118.1h-5.9v5.9h5.9V118.1z"/>
<path class="st2" d="M44.6,112.2h-5.9v5.9h5.9V112.2z"/>
<path class="st1" d="M44.6,106.3h-5.9v5.9h5.9V106.3z"/>
<path class="st2" d="M44.6,100.4h-5.9v5.9h5.9V100.4z"/>
<path class="st1" d="M44.6,94.4h-5.9v5.9h5.9V94.4z"/>
<path class="st2" d="M44.6,88.5h-5.9v5.9h5.9V88.5z"/>
<path class="st1" d="M44.6,82.6h-5.9v5.9h5.9V82.6z"/>
<path class="st2" d="M44.6,76.7h-5.9v5.9h5.9V76.7z"/>
<path class="st1" d="M44.6,70.8h-5.9v5.9h5.9V70.8z"/>
<path class="st1" d="M44.6,64.9h-5.9v5.9h5.9V64.9z"/>
<path class="st1" d="M44.6,59h-5.9v5.9h5.9V59z"/>
<path class="st1" d="M44.6,53.1h-5.9V59h5.9V53.1z"/>
<path class="st2" d="M44.6,47.2h-5.9v5.9h5.9V47.2z"/>
<path class="st1" d="M44.6,41.3h-5.9v5.9h5.9V41.3z"/>
<path class="st2" d="M44.6,35.4h-5.9v5.9h5.9V35.4z"/>
<path class="st1" d="M44.6,29.4h-5.9v5.9h5.9V29.4z"/>
<path class="st2" d="M44.6,23.5h-5.9v5.9h5.9V23.5z"/>
<path class="st1" d="M44.6,17.6h-5.9v5.9h5.9V17.6z"/>
<path class="st1" d="M38.7,141.7h-5.9v5.9h5.9V141.7z"/>
<path class="st2" d="M38.7,135.8h-5.9v5.9h5.9V135.8z"/>
<path class="st1" d="M38.7,129.9h-5.9v5.9h5.9V129.9z"/>
<path class="st1" d="M38.7,124h-5.9v5.9h5.9V124z"/>
<path class="st1" d="M38.7,118.1h-5.9v5.9h5.9V118.1z"/>
<path class="st2" d="M38.7,112.2h-5.9v5.9h5.9V112.2z"/>
<path class="st1" d="M38.7,106.3h-5.9v5.9h5.9V106.3z"/>
<path class="st1" d="M38.7,100.4h-5.9v5.9h5.9V100.4z"/>
<path class="st2" d="M38.7,94.4h-5.9v5.9h5.9V94.4z"/>
<path class="st2" d="M38.7,88.5h-5.9v5.9h5.9V88.5z"/>
<path class="st1" d="M38.7,82.6h-5.9v5.9h5.9V82.6z"/>
<path class="st2" d="M38.7,76.7h-5.9v5.9h5.9V76.7z"/>
<path class="st1" d="M38.7,70.8h-5.9v5.9h5.9V70.8z"/>
<path class="st2" d="M38.7,64.9h-5.9v5.9h5.9V64.9z"/>
<path class="st2" d="M38.7,59h-5.9v5.9h5.9V59z"/>
<path class="st1" d="M38.7,53.1h-5.9V59h5.9V53.1z"/>
<path class="st2" d="M38.7,47.2h-5.9v5.9h5.9V47.2z"/>
<path class="st1" d="M38.7,41.3h-5.9v5.9h5.9V41.3z"/>
<path class="st1" d="M38.7,35.4h-5.9v5.9h5.9V35.4z"/>
<path class="st1" d="M38.7,29.4h-5.9v5.9h5.9V29.4z"/>
<path class="st2" d="M38.7,23.5h-5.9v5.9h5.9V23.5z"/>
<path class="st1" d="M38.7,17.6h-5.9v5.9h5.9V17.6z"/>
<path class="st1" d="M32.7,141.7h-5.9v5.9h5.9V141.7z"/>
<path class="st2" d="M32.7,135.8h-5.9v5.9h5.9V135.8z"/>
<path class="st2" d="M32.7,129.9h-5.9v5.9h5.9V129.9z"/>
<path class="st2" d="M32.7,124h-5.9v5.9h5.9V124z"/>
<path class="st2" d="M32.7,118.1h-5.9v5.9h5.9V118.1z"/>
<path class="st2" d="M32.7,112.2h-5.9v5.9h5.9V112.2z"/>
<path class="st1" d="M32.7,106.3h-5.9v5.9h5.9V106.3z"/>
<path class="st2" d="M32.7,100.4h-5.9v5.9h5.9V100.4z"/>
<path class="st1" d="M32.7,94.4h-5.9v5.9h5.9V94.4z"/>
<path class="st1" d="M32.7,88.5h-5.9v5.9h5.9V88.5z"/>
<path class="st2" d="M32.7,82.6h-5.9v5.9h5.9V82.6z"/>
<path class="st2" d="M32.7,76.7h-5.9v5.9h5.9V76.7z"/>
<path class="st1" d="M32.7,70.8h-5.9v5.9h5.9V70.8z"/>
<path class="st2" d="M32.7,64.9h-5.9v5.9h5.9V64.9z"/>
<path class="st2" d="M32.7,59h-5.9v5.9h5.9V59z"/>
<path class="st1" d="M32.7,53.1h-5.9V59h5.9V53.1z"/>
<path class="st2" d="M32.7,47.2h-5.9v5.9h5.9V47.2z"/>
<path class="st2" d="M32.7,41.3h-5.9v5.9h5.9V41.3z"/>
<path class="st2" d="M32.7,35.4h-5.9v5.9h5.9V35.4z"/>
<path class="st2" d="M32.7,29.4h-5.9v5.9h5.9V29.4z"/>
<path class="st2" d="M32.7,23.5h-5.9v5.9h5.9V23.5z"/>
<path class="st1" d="M32.7,17.6h-5.9v5.9h5.9V17.6z"/>
<path class="st1" d="M26.8,141.7h-5.9v5.9h5.9V141.7z"/>
<path class="st1" d="M26.8,135.8h-5.9v5.9h5.9V135.8z"/>
<path class="st1" d="M26.8,129.9h-5.9v5.9h5.9V129.9z"/>
<path class="st1" d="M26.8,124h-5.9v5.9h5.9V124z"/>
<path class="st1" d="M26.8,118.1h-5.9v5.9h5.9V118.1z"/>
<path class="st1" d="M26.8,112.2h-5.9v5.9h5.9V112.2z"/>
<path class="st1" d="M26.8,106.3h-5.9v5.9h5.9V106.3z"/>
<path class="st1" d="M26.8,100.4h-5.9v5.9h5.9V100.4z"/>
<path class="st1" d="M26.8,94.4h-5.9v5.9h5.9V94.4z"/>
<path class="st1" d="M26.8,88.5h-5.9v5.9h5.9V88.5z"/>
<path class="st1" d="M26.8,82.6h-5.9v5.9h5.9V82.6z"/>
<path class="st1" d="M26.8,76.7h-5.9v5.9h5.9V76.7z"/>
<path class="st1" d="M26.8,70.8h-5.9v5.9h5.9V70.8z"/>
<path class="st1" d="M26.8,64.9h-5.9v5.9h5.9V64.9z"/>
<path class="st1" d="M26.8,59h-5.9v5.9h5.9V59z"/>
<path class="st1" d="M26.8,53.1h-5.9V59h5.9V53.1z"/>
<path class="st1" d="M26.8,47.2h-5.9v5.9h5.9V47.2z"/>
<path class="st1" d="M26.8,41.3h-5.9v5.9h5.9V41.3z"/>
<path class="st1" d="M26.8,35.4h-5.9v5.9h5.9V35.4z"/>
<path class="st1" d="M26.8,29.4h-5.9v5.9h5.9V29.4z"/>
<path class="st1" d="M26.8,23.5h-5.9v5.9h5.9V23.5z"/>
<path class="st1" d="M26.7,17.6h-5.9v5.9h5.9V17.6z"/>
</svg>
