<svg width="118" height="75" viewBox="0 0 118 75" fill="none" xmlns="http://www.w3.org/2000/svg">
<path d="M9.83333 45.6522C11.1991 45.6522 12.1551 45.1087 12.7014 44.0217C13.2477 42.9348 13.2477 41.8478 12.7014 40.7609C12.1551 39.6739 11.1991 39.1304 9.83333 39.1304C8.46759 39.1304 7.51157 39.6739 6.96528 40.7609C6.41898 41.8478 6.41898 42.9348 6.96528 44.0217C7.51157 45.1087 8.46759 45.6522 9.83333 45.6522ZM85.2734 42.697C84.932 42.2554 84.2747 41.4062 83.3016 40.1495C82.3286 38.8927 81.6201 37.9755 81.1762 37.3981C80.7323 36.8207 80.0836 35.9884 79.23 34.9015C78.3764 33.8145 77.6509 32.9144 77.0534 32.2011C76.4559 31.4878 75.7645 30.6895 74.9792 29.8064C74.1939 28.9232 73.4256 28.091 72.6745 27.3098L66.2726 34.4429C63.4387 37.6359 59.8792 39.1984 55.5942 39.1304C51.3092 39.0625 47.8009 37.3981 45.0694 34.1372C43.1233 31.7935 42.1587 29.1101 42.1758 26.087C42.1929 23.0639 43.1916 20.3974 45.1719 18.0876L54.237 7.59171C53.4858 7.21807 52.6152 6.93784 51.625 6.75102C50.6348 6.5642 49.8239 6.4623 49.1923 6.44531C48.5606 6.42833 47.5961 6.43682 46.2986 6.47079C45.0012 6.50476 44.1646 6.52174 43.7891 6.52174C40.6479 6.52174 37.9505 7.64266 35.697 9.88451L27.605 17.9348H19.6667V45.6522C19.8374 45.6522 20.1959 45.6437 20.7422 45.6267C21.2885 45.6097 21.6641 45.6097 21.8689 45.6267C22.0738 45.6437 22.4067 45.6777 22.8676 45.7286C23.3286 45.7796 23.6785 45.856 23.9175 45.9579C24.1565 46.0598 24.4553 46.2041 24.8138 46.391C25.1723 46.5778 25.4881 46.8071 25.7613 47.0788L40.9722 61.9565C44.8987 65.7269 48.774 67.6121 52.5981 67.6121C55.2613 67.6121 57.3953 66.8139 59 65.2174C60.9462 65.8967 62.8668 65.7609 64.7617 64.8098C66.6567 63.8587 67.8944 62.4151 68.4748 60.4789C71.0014 60.6827 73.1696 59.9355 74.9792 58.2371C75.662 57.6257 76.2766 56.8529 76.8229 55.9188C77.3692 54.9847 77.6082 54.127 77.5399 53.3458C77.8814 53.6855 78.6154 53.8553 79.7422 53.8553C81.2104 53.8553 82.5249 53.4986 83.6858 52.7853C84.8466 52.072 85.6917 51.1719 86.2209 50.0849C86.7501 48.998 86.955 47.7836 86.8355 46.4419C86.716 45.1002 86.1953 43.8519 85.2734 42.697ZM93.4167 45.6522H98.3333V19.5652H93.5703L85.5295 10.394C83.276 7.8125 80.3909 6.52174 76.8741 6.52174H68.3212C65.2824 6.52174 62.7899 7.65965 60.8437 9.93546L50.1398 22.3166C49.1837 23.4375 48.7057 24.7113 48.7057 26.1379C48.7057 27.5645 49.1667 28.8383 50.0885 29.9592C51.5567 31.6916 53.4346 32.5747 55.7222 32.6087C58.0098 32.6427 59.9048 31.8105 61.4071 30.1121L71.2917 19.0048C72.1453 18.2235 73.0586 17.8584 74.0317 17.9093C75.0048 17.9603 75.8071 18.4188 76.4388 19.285C77.0705 20.1512 77.2156 21.1107 76.8741 22.1637C77.4204 22.8091 78.3764 23.8791 79.7422 25.3736C81.1079 26.8682 82.1322 28.0231 82.8151 28.8383C83.8053 30.0611 85.2137 31.8529 87.0404 34.2137C88.867 36.5744 89.9682 38.0095 90.3438 38.519C92.1192 40.7609 93.1435 43.1386 93.4167 45.6522ZM108.167 45.6522C109.532 45.6522 110.488 45.1087 111.035 44.0217C111.581 42.9348 111.581 41.8478 111.035 40.7609C110.488 39.6739 109.532 39.1304 108.167 39.1304C106.801 39.1304 105.845 39.6739 105.299 40.7609C104.752 41.8478 104.752 42.9348 105.299 44.0217C105.845 45.1087 106.801 45.6522 108.167 45.6522ZM118 16.3043V48.913C118 49.7962 117.676 50.5605 117.027 51.2058C116.378 51.8512 115.61 52.1739 114.722 52.1739H92.4948C91.5729 54.3818 90.173 56.1906 88.2951 57.6002C86.4172 59.0098 84.2833 59.8845 81.8932 60.2242C80.7665 61.8546 79.3922 63.2388 77.7704 64.3767C76.1486 65.5146 74.3987 66.2874 72.5208 66.695C71.0868 68.4952 69.3028 69.8794 67.1688 70.8475C65.0349 71.8156 62.8411 72.2317 60.5877 72.0958C58.5391 73.2507 56.388 73.9215 54.1345 74.1084C51.8811 74.2952 49.7044 74.0574 47.6046 73.395C45.5048 72.7327 43.5074 71.8241 41.6124 70.6692C39.7174 69.5143 37.9505 68.1386 36.3116 66.5421L21.6128 52.1739H3.27778C2.39005 52.1739 1.62182 51.8512 0.97309 51.2058C0.324363 50.5605 0 49.7962 0 48.913V14.6739C0 13.7908 0.324363 13.0265 0.97309 12.3811C1.62182 11.7357 2.39005 11.413 3.27778 11.413H24.8394C25.3174 10.9375 26.1198 10.1223 27.2465 8.96739C28.3733 7.8125 29.1842 6.99728 29.6793 6.52174C30.1743 6.0462 30.9255 5.36685 31.9327 4.4837C32.94 3.60054 33.8021 2.96365 34.5191 2.57303C35.2361 2.1824 36.1068 1.74932 37.1311 1.27378C38.1554 0.798234 39.2138 0.467052 40.3064 0.280231C41.399 0.0934103 42.5599 0 43.7891 0H49.7812C53.1615 0 56.2514 0.951087 59.0512 2.85326C61.851 0.951087 64.941 0 68.3212 0H76.8741C78.0692 0 79.213 0.101902 80.3055 0.305707C81.3981 0.509511 82.3627 0.755774 83.1992 1.0445C84.0357 1.33322 84.9149 1.78329 85.8368 2.3947C86.7587 3.00611 87.5184 3.53261 88.1159 3.97418C88.7134 4.41576 89.4475 5.08662 90.3181 5.98675C91.1888 6.88689 91.8546 7.6002 92.3155 8.1267C92.7765 8.65319 93.4764 9.46841 94.4154 10.5724C95.3543 11.6763 96.0628 12.5 96.5408 13.0435H114.722C115.61 13.0435 116.378 13.3662 117.027 14.0115C117.676 14.6569 118 15.4212 118 16.3043Z" fill="#D99E2A"/>
</svg>
