<svg width="120" height="120" viewBox="0 0 120 120" fill="none" xmlns="http://www.w3.org/2000/svg">
<g clip-path="url(#clip0)">
<path d="M114.999 69.9986C114.998 55.4463 108.779 42.3483 98.8572 33.2121L108.52 23.5495C110.472 21.597 110.472 18.4311 108.52 16.4786C106.567 14.526 103.401 14.526 101.449 16.4786L90.7764 27.1511C87.4207 25.1282 83.8086 23.4883 79.9994 22.2921V4.99981C79.9994 2.23847 77.7607 0 74.9993 0H54.9998C52.2385 0 50 2.23847 50 4.99981V22.3324C47.5279 23.1176 45.1125 24.0914 42.773 25.2552C40.3006 26.4852 39.2935 29.4866 40.5235 31.9589C41.7535 34.4313 44.7548 35.4384 47.2272 34.2084C49.9698 32.8439 52.8338 31.7996 55.7817 31.0922C55.8919 31.0746 56.002 31.0543 56.1126 31.0289C57.412 30.7325 58.7073 30.5026 59.9999 30.3333V34.9992C59.9999 37.7605 62.2384 39.999 64.9997 39.999C67.761 39.999 69.9995 37.7605 69.9995 34.9992V30.3333C71.2921 30.5026 72.5874 30.7325 73.8868 31.0289C74.0649 31.0695 74.2421 31.099 74.4188 31.1199C80.0031 32.4677 85.13 34.9856 89.5253 38.4018L86.2123 41.7148C84.2598 43.6673 84.2598 46.8332 86.2123 48.7858C88.1648 50.7383 91.3307 50.7383 93.2832 48.7858L96.5968 45.4722C100.897 51.0043 103.777 57.6949 104.688 64.9983H99.9991C97.2378 64.9983 94.9993 67.2368 94.9993 69.9981C94.9993 72.7595 97.2378 74.9979 99.9991 74.9979H104.689C103.778 82.3014 100.898 88.9924 96.5979 94.5254L93.2832 91.2107C91.3307 89.2582 88.1648 89.2582 86.2123 91.2107C84.2598 93.1632 84.2598 96.3291 86.2123 98.2816L89.5275 101.597C83.9949 105.898 77.3037 108.779 69.9998 109.689V104.998C69.9998 102.236 67.7613 99.9979 64.9999 99.9979C62.2386 99.9979 60.0001 102.236 60.0001 104.998V109.679C55.5626 109.112 51.2654 107.798 47.2277 105.789C44.7553 104.559 41.7542 105.566 40.524 108.038C39.2938 110.511 40.3011 113.512 42.7735 114.742C49.6771 118.177 57.224 120 65.0002 120C92.6143 120 114.999 97.6137 114.999 70.0014V69.9995L114.999 69.9986ZM59.9997 9.99986H69.9995V20.2503C68.9484 20.146 67.8871 20.0768 66.8179 20.0386C66.2121 20.0154 65.606 19.9997 64.9995 19.9997C64.5246 19.9997 64.05 20.0089 63.5757 20.0229C63.5054 20.025 63.435 20.029 63.3647 20.0314C63.0162 20.0433 62.6677 20.0576 62.3195 20.0773C62.0328 20.0928 61.7469 20.1132 61.4607 20.1336C61.3599 20.1411 61.2589 20.1476 61.1581 20.1558C60.7712 20.1858 60.385 20.2207 59.9997 20.2599V9.99986Z" fill="#128093"/>
<path d="M68.5353 73.534L83.535 58.5344C85.4876 56.5818 85.4876 53.416 83.535 51.4634C81.5825 49.5109 78.4166 49.5109 76.4641 51.4634L61.4644 66.4631C59.5119 68.4156 59.5119 71.5815 61.4644 73.534C63.4169 75.4866 66.5826 75.4866 68.5353 73.534Z" fill="#45B5CD"/>
<path d="M35.0003 64.9985H10.0008C7.23944 64.9985 5.00098 67.237 5.00098 69.9983C5.00098 72.7597 7.23944 74.9982 10.0008 74.9982H35.0003C37.7617 74.9982 40.0001 72.7597 40.0001 69.9983C40.0001 67.2372 37.7617 64.9985 35.0003 64.9985Z" fill="#45B5CD"/>
<path d="M35.0005 39.9992H20.0008C17.2394 39.9992 15.001 42.2377 15.001 44.999C15.001 47.7604 17.2394 49.9988 20.0008 49.9988H35.0005C37.7618 49.9988 40.0003 47.7604 40.0003 44.999C40.0003 42.2377 37.7618 39.9992 35.0005 39.9992Z" fill="#45B5CD"/>
<path d="M35.0005 89.998H20.0008C17.2394 89.998 15.001 92.2365 15.001 94.9979C15.001 97.7592 17.2394 99.9977 20.0008 99.9977H35.0005C37.7618 99.9977 40.0003 97.7592 40.0003 94.9979C40.0003 92.2365 37.7618 89.998 35.0005 89.998Z" fill="#45B5CD"/>
</g>
<defs>
<clipPath id="clip0">
<rect width="120" height="120" fill="white"/>
</clipPath>
</defs>
</svg>
