<svg width="104" height="104" viewBox="0 0 104 104" fill="none" xmlns="http://www.w3.org/2000/svg">
<path d="M75.1423 56.9738L68.2113 63.9048L61.273 56.9665L77.92 40.3195C79.7501 40.8348 81.6183 41.0868 83.4759 41.0866C88.8213 41.0862 94.0694 38.9977 97.9902 35.0769C103.757 29.3097 105.56 20.6729 102.584 13.0738L100.886 8.73969L89.9905 19.6355L85.5912 18.4565L84.4123 14.057L95.3076 3.16146L90.9741 1.46399C83.3756 -1.51231 74.7387 0.290524 68.971 6.05777C63.6878 11.341 61.7313 19.0321 63.7286 26.1277L47.0816 42.7747L24.7271 20.4201L30.6579 14.4895L12.2753 0L0 12.2751L14.4893 30.6579L20.4204 24.7271L42.7749 47.0816L28.0794 61.7771C20.4474 59.3863 12.1208 61.3837 6.37631 67.1282C2.29699 71.2075 0.0503494 76.6312 0.0503494 82.4001C0.0503494 88.169 2.29699 93.5927 6.37631 97.672C10.5868 101.882 16.1173 103.988 21.6482 103.988C27.179 103.988 32.7097 101.882 36.9201 97.672C42.6646 91.9275 44.662 83.6008 42.2712 75.969L56.9667 61.2734L63.905 68.2117L56.974 75.1427L82.0661 100.235C84.4927 102.661 87.7189 103.998 91.1506 103.998C94.582 103.998 97.8083 102.661 100.235 100.235C105.244 95.2256 105.244 87.0755 100.235 82.0663L75.1423 56.9738ZM8.13367 12.7553L12.7555 8.13346L21.5043 15.0295L15.0297 21.5041L8.13367 12.7553ZM70.7753 27.6944L70.0485 25.839C67.9547 20.4942 69.2222 14.42 73.2777 10.3643C76.0914 7.55079 79.8753 6.0799 83.7155 6.1404L77.6191 12.2369L80.6182 23.4293L91.8108 26.4286L97.9069 20.3322C97.9684 24.1714 96.4967 27.9565 93.6833 30.77C89.6275 34.8254 83.5535 36.0932 78.2085 33.9991L76.3533 33.2724L56.9663 52.6594L51.3881 47.0812L70.7753 27.6944ZM35.1433 74.4828L35.9387 76.3705C38.4006 82.2123 37.0952 88.8832 32.6132 93.3651C29.5896 96.3885 25.6195 97.9 21.648 97.8996C17.6775 97.8994 13.7056 96.3879 10.6828 93.3651C7.75402 90.4361 6.1408 86.5421 6.1408 82.3999C6.1408 78.2576 7.75381 74.3637 10.6828 71.4347C13.6611 68.4566 17.6046 66.8811 21.6304 66.8811C23.663 66.8811 25.7172 67.2831 27.6772 68.1092L29.5649 68.9046L47.0814 51.3881L52.6596 56.9663L35.1433 74.4828ZM75.1423 65.587L80.7207 71.1655L71.1657 80.7205L65.5875 75.1423L75.1423 65.587ZM95.9281 95.928C94.6519 97.204 92.9552 97.9069 91.1506 97.9069C89.3459 97.9069 87.649 97.204 86.373 95.928L75.4724 85.0274L85.0274 75.4724L95.9281 86.373C98.5623 89.0072 98.5623 93.2936 95.9281 95.928Z" fill="#D99E2A"/>
<path d="M21.648 72.3641C18.9675 72.3641 16.4474 73.4081 14.5521 75.3035C12.6567 77.1989 11.6128 79.7188 11.6128 82.3993C11.6128 85.0798 12.6567 87.5997 14.5519 89.4951C16.4474 91.3905 18.9675 92.4345 21.648 92.4345C24.3285 92.4345 26.8484 91.3905 28.744 89.4951C32.6564 85.5825 32.6564 79.2159 28.744 75.3035C26.8486 73.4081 24.3285 72.3641 21.648 72.3641ZM24.4373 85.1884C23.6922 85.9333 22.7016 86.3436 21.6482 86.3436C20.5945 86.3436 19.6041 85.9333 18.859 85.1884C18.1142 84.4433 17.7039 83.4528 17.7039 82.3993C17.7039 81.3458 18.1142 80.3553 18.8593 79.6102C19.6041 78.8651 20.5947 78.455 21.6484 78.455C22.7018 78.455 23.6924 78.8653 24.4375 79.6102C25.975 81.1481 25.975 83.6505 24.4373 85.1884Z" fill="#D99E2A"/>
</svg>
