<svg width="116" height="116" viewBox="0 0 116 116" fill="none" xmlns="http://www.w3.org/2000/svg">
<path d="M21.4579 89.9692C21.0424 87.9788 19.065 86.8093 17.1374 87.3818C15.1706 88.0248 14.3728 89.9733 14.874 91.6186C15.4939 93.5606 17.4441 94.3901 19.1107 93.8842C20.8562 93.3298 21.7758 91.6688 21.4579 89.9692Z" fill="#D99E2A"/>
<path d="M50.4575 89.9691C50.0323 87.9318 48.0045 86.8156 46.1392 87.3817C44.2076 87.9996 43.3632 89.943 43.8736 91.6185C44.4799 93.5182 46.3837 94.3975 48.1126 93.8841C49.8952 93.3052 50.7675 91.6268 50.4575 89.9691Z" fill="#D99E2A"/>
<path d="M75.7898 87.2503C73.9748 87.4424 72.5791 89.0061 72.7425 90.9659C72.9296 92.8081 74.5758 94.2046 76.4604 94.0132C78.1773 93.87 79.6735 92.3287 79.5077 90.2975C79.3067 88.3645 77.5869 87.0677 75.7898 87.2503Z" fill="#D99E2A"/>
<path d="M101.756 38.5276L95.8883 28.6798C98.1056 26.4276 99.4772 23.3402 99.4772 19.9375C99.4772 13.062 93.8837 7.46838 87.0079 7.46838C80.4091 7.46838 74.9942 12.6218 74.569 19.1148L49.4151 39.1522L46.5853 33.0212C46.0298 31.8177 44.8252 31.047 43.4998 31.047H25.3748C23.4979 31.047 21.9763 32.5686 21.9763 34.4454V57.3531L15.7608 72.8919C7.09956 74.0211 0 81.3987 0 90.6331C0 100.528 8.23102 108.532 18.125 108.532H76.125C85.9943 108.532 94.0234 100.502 94.0234 90.6331C94.0234 81.5661 87.2449 74.0576 78.4903 72.8958L74.7581 63.5655C73.2699 59.8444 70.3701 57.0249 66.8115 55.6136L89.2325 32.2038C89.4849 32.1583 89.7351 32.1059 89.9818 32.0454L96.2712 42.6014C95.855 53.2007 88.2939 60.9695 88.2219 61.0427C86.2884 62.9762 87.3206 66.3008 90.019 66.7897C90.6325 66.9007 93.3351 67.3516 96.7886 67.3516C101.364 67.3516 107.258 66.56 111.356 63.1382C114.394 60.6011 116 56.9471 116 52.5706C116 44.4969 109.629 39.8247 101.756 38.5276ZM87.0082 14.2653C90.1359 14.2653 92.6806 16.8098 92.6806 19.9375C92.6806 21.8195 91.7585 23.4893 90.3432 24.5217C89.8726 24.6733 89.5121 24.8852 89.1664 25.1819C85.4521 26.7165 81.3359 23.9735 81.3359 19.9375C81.3359 16.8098 83.8805 14.2653 87.0082 14.2653ZM76.343 26.3916C77.49 28.2802 79.1242 29.8417 81.0702 30.8997L58.3616 54.6095H56.5493L52.3477 45.5057L76.343 26.3916ZM28.7734 37.8441H41.3255L49.0635 54.6097C46.84 54.6097 30.6274 54.6097 28.7734 54.6097V37.8441ZM87.2266 90.6331C87.2266 96.7546 82.2465 101.735 76.125 101.735H18.125C11.8787 101.735 6.79688 96.7546 6.79688 90.6331C6.79688 84.5117 11.8787 79.5316 18.125 79.5316H76.125C82.2465 79.5316 87.2266 84.5119 87.2266 90.6331ZM68.4473 66.0899L71.1053 72.7347H23.1445L27.6757 61.4066H61.5303C64.5943 61.4066 67.3095 63.2447 68.4473 66.0899ZM107.007 57.9152C104.64 59.897 100.666 60.4915 97.1733 60.5359C99.465 56.9952 102.007 51.869 102.82 45.7101C105.637 46.5284 109.203 48.3901 109.203 52.5706C109.203 54.962 108.505 56.6603 107.007 57.9152Z" fill="#D99E2A"/>
</svg>
