<svg width="116" height="102" viewBox="0 0 116 102" fill="none" xmlns="http://www.w3.org/2000/svg">
<g clip-path="url(#clip0)">
<path d="M21.4597 82.53C21.3272 81.856 20.9935 81.2379 20.5028 80.7572C20.012 80.2765 19.3872 79.9558 18.7105 79.8372C18.0339 79.7186 17.3372 79.8078 16.7122 80.0929C16.0873 80.3781 15.5634 80.8459 15.2095 81.4347C14.8556 82.0234 14.6884 82.7056 14.7298 83.3913C14.7713 84.077 15.0195 84.7341 15.4417 85.2759C15.8639 85.8178 16.4404 86.2191 17.0952 86.4269C17.7499 86.6347 18.4523 86.6392 19.1097 86.44C19.9152 86.1936 20.6009 85.6578 21.0348 84.9358C21.4687 84.2139 21.6201 83.3569 21.4597 82.53Z" fill="#45B5CD"/>
<path d="M50.4597 82.53C50.3272 81.856 49.9935 81.2379 49.5028 80.7572C49.012 80.2765 48.3872 79.9558 47.7105 79.8372C47.0339 79.7186 46.3372 79.8078 45.7122 80.0929C45.0873 80.3781 44.5633 80.8459 44.2095 81.4347C43.8556 82.0234 43.6884 82.7056 43.7298 83.3913C43.7713 84.077 44.0195 84.7341 44.4417 85.2759C44.8639 85.8178 45.4404 86.2191 46.0952 86.4269C46.7499 86.6347 47.4523 86.6392 48.1097 86.44C48.9152 86.1936 49.6009 85.6578 50.0348 84.9358C50.4687 84.2139 50.6201 83.3569 50.4597 82.53Z" fill="#45B5CD"/>
<path d="M75.7898 79.78C75.119 79.8477 74.4835 80.1134 73.964 80.5432C73.4446 80.973 73.0646 81.5475 72.8725 82.1938C72.6803 82.84 72.6846 83.5288 72.8849 84.1726C73.0851 84.8164 73.4723 85.3861 73.9971 85.8094C74.5219 86.2326 75.1607 86.4903 75.8323 86.5496C76.5039 86.6089 77.178 86.4672 77.7689 86.1425C78.3598 85.8178 78.8408 85.3247 79.1508 84.726C79.4608 84.1273 79.5857 83.4499 79.5098 82.78C79.4091 81.8911 78.9621 81.0777 78.2658 80.5162C77.5695 79.9546 76.6799 79.6901 75.7898 79.78Z" fill="#45B5CD"/>
<path d="M49.4199 31.68L46.5899 25.53C46.3201 24.936 45.8856 24.4318 45.3379 24.0773C44.7902 23.7228 44.1523 23.5329 43.4999 23.53H25.3699C24.9217 23.5339 24.4786 23.6264 24.0663 23.8022C23.654 23.9779 23.2805 24.2335 22.9673 24.5541C22.6541 24.8747 22.4074 25.2541 22.2414 25.6705C22.0753 26.0868 21.9932 26.5318 21.9999 26.98V49.88L15.7599 65.42C11.1965 65.9446 7.01016 68.2053 4.06875 71.7334C1.12733 75.2614 -0.343472 79.7861 -0.0386937 84.3694C0.266084 88.9526 2.32306 93.2428 5.70573 96.3503C9.0884 99.4578 13.5373 101.144 18.1299 101.06H76.1299C80.6783 101.072 85.0607 99.3518 88.3857 96.2482C91.7108 93.1446 93.7288 88.891 94.0294 84.3525C94.33 79.8139 92.8907 75.3313 90.004 71.8163C87.1173 68.3012 83.0002 66.0177 78.4899 65.43L74.7599 56.1C73.2699 52.37 70.7598 49.18 67.1699 47.77L89.2299 24.77C89.4799 24.77 89.7399 24.68 89.9799 24.62L96.2699 35.13C95.8598 45.73 88.2699 53.5 88.2699 53.57C87.8315 54.0043 87.5196 54.5497 87.3676 55.1478C87.2156 55.7458 87.2292 56.374 87.407 56.9649C87.5848 57.5558 87.9201 58.0871 88.3768 58.502C88.8336 58.9169 89.3946 59.1997 89.9999 59.32C92.2369 59.696 94.5015 59.8833 96.7699 59.88C101.34 59.88 107.24 59.09 111.34 55.67C112.862 54.3724 114.071 52.748 114.878 50.9178C115.685 49.0876 116.069 47.099 116 45.1C116 37.03 109.63 32.35 101.76 31.1L95.8899 21.25C97.2978 19.817 98.3383 18.0647 98.9227 16.1427C99.5072 14.2206 99.6182 12.1858 99.2464 10.2115C98.8745 8.23732 98.0308 6.38227 96.7872 4.80453C95.5436 3.2268 93.9369 1.97316 92.1042 1.15048C90.2714 0.327795 88.2669 -0.0395325 86.2615 0.0798062C84.2561 0.199145 82.3093 0.80161 80.587 1.83585C78.8648 2.87009 77.4181 4.30543 76.3704 6.01952C75.3227 7.73361 74.7049 9.67562 74.5699 11.68L49.4199 31.68ZM86.9999 6.80002C88.1983 6.79614 89.367 7.17276 90.3377 7.87563C91.3084 8.57851 92.0309 9.57135 92.4012 10.7112C92.7715 11.851 92.7705 13.0789 92.3982 14.218C92.026 15.3572 91.3017 16.3488 90.3299 17.05C89.8984 17.1867 89.5 17.4114 89.1599 17.71C88.385 18.0303 87.5487 18.1748 86.7113 18.133C85.8739 18.0912 85.0562 17.8642 84.317 17.4683C83.5779 17.0725 82.9357 16.5176 82.4368 15.8437C81.938 15.1698 81.5947 14.3937 81.4319 13.5712C81.269 12.7487 81.2906 11.9003 81.4951 11.0872C81.6996 10.274 82.0819 9.51638 82.6144 8.86875C83.147 8.22113 83.8165 7.69968 84.5749 7.34195C85.3332 6.98423 86.1614 6.79914 86.9999 6.80002ZM28.7699 30.37H41.3299L49.0599 47.14H28.7699V30.37ZM87.2299 83.16C87.2272 86.104 86.0572 88.9268 83.9764 91.0095C81.8956 93.0922 79.0739 94.2647 76.1299 94.27H18.1299C16.6435 94.3146 15.1633 94.0604 13.777 93.5224C12.3907 92.9844 11.1265 92.1735 10.0594 91.1379C8.9922 90.1023 8.14381 88.863 7.56446 87.4935C6.9851 86.124 6.68658 84.6521 6.68658 83.165C6.68658 81.678 6.9851 80.2061 7.56446 78.8365C8.14381 77.467 8.9922 76.2277 10.0594 75.1921C11.1265 74.1565 12.3907 73.3457 13.777 72.8076C15.1633 72.2696 16.6435 72.0154 18.1299 72.06H76.1299C79.0729 72.0627 81.8947 73.233 83.9758 75.3141C86.0569 77.3951 87.2272 80.2169 87.2299 83.16ZM68.4499 58.62L71.1099 65.26H23.1099L27.6499 53.94H61.5299C63.0202 53.9337 64.4777 54.377 65.7122 55.2119C66.9467 56.0468 67.9008 57.2345 68.4499 58.62ZM107 50.45C104.63 52.45 100.66 53.02 97.1599 53.07C100.111 48.6025 102.04 43.5388 102.81 38.24C105.63 39.06 109.19 40.92 109.19 45.1C109.264 46.1004 109.105 47.1044 108.725 48.0328C108.344 48.9611 107.754 49.7886 107 50.45ZM52.3499 38.04L76.3499 18.92C77.5013 20.8141 79.1331 22.37 81.0799 23.43L58.3599 47.14H56.5499L52.3499 38.04Z" fill="#45B5CD"/>
<path d="M49.4199 31.68L46.5899 25.53C46.3201 24.936 45.8856 24.4318 45.3379 24.0773C44.7902 23.7228 44.1523 23.5329 43.4999 23.53H25.3699C24.9217 23.5339 24.4786 23.6264 24.0663 23.8022C23.654 23.9779 23.2805 24.2335 22.9673 24.5541C22.6541 24.8747 22.4074 25.2541 22.2414 25.6705C22.0753 26.0868 21.9932 26.5319 21.9999 26.98V49.88L15.7599 65.42C11.1965 65.9446 7.01016 68.2053 4.06875 71.7334C1.12733 75.2614 -0.343472 79.7862 -0.0386937 84.3694C0.266084 88.9527 2.32306 93.2428 5.70573 96.3503C9.0884 99.4578 13.5373 101.144 18.1299 101.06H76.1299C80.6783 101.072 85.0607 99.3518 88.3857 96.2482C91.7108 93.1446 93.7288 88.891 94.0294 84.3525C94.33 79.814 92.8907 75.3314 90.004 71.8163C87.1173 68.3012 83.0002 66.0177 78.4899 65.43L74.7599 56.1C74.0852 54.1713 73.0119 52.4064 71.6099 50.92C69.4499 48.7 66.5199 46.28 59.9999 47.14C55.9999 47.67 57.3699 38.14 54.8299 36.06C54.7199 35.97 52.0099 38.28 51.9599 38.14C49.7999 32.73 49.4199 31.68 49.4199 31.68ZM28.7699 30.37H41.3299L49.0599 47.14H28.7699V30.37ZM87.2299 83.16C87.2272 86.104 86.0572 88.9269 83.9764 91.0095C81.8956 93.0922 79.0739 94.2647 76.1299 94.27H18.1299C16.6435 94.3146 15.1633 94.0604 13.777 93.5224C12.3907 92.9844 11.1265 92.1736 10.0594 91.1379C8.9922 90.1023 8.14381 88.863 7.56446 87.4935C6.9851 86.124 6.68658 84.6521 6.68658 83.165C6.68658 81.678 6.9851 80.2061 7.56446 78.8365C8.14381 77.467 8.9922 76.2277 10.0594 75.1921C11.1265 74.1565 12.3907 73.3457 13.777 72.8077C15.1633 72.2697 16.6435 72.0154 18.1299 72.06H76.1299C79.0729 72.0627 81.8947 73.233 83.9758 75.3141C86.0569 77.3952 87.2272 80.2169 87.2299 83.16ZM68.4499 58.62L71.1099 65.26H23.1099L27.6499 53.94H61.5299C63.0202 53.9338 64.4777 54.377 65.7122 55.2119C66.9467 56.0468 67.9008 57.2345 68.4499 58.62Z" fill="#128093"/>
<path d="M59.47 47.27H57.27L51.96 38.15L76.34 18.92L81.07 23.43L59.47 47.27Z" fill="white"/>
</g>
<defs>
<clipPath id="clip0">
<rect width="116" height="101.06" fill="white"/>
</clipPath>
</defs>
</svg>
