<svg width="105" height="105" viewBox="0 0 105 105" fill="none" xmlns="http://www.w3.org/2000/svg">
<path d="M87.9419 67.288L78.5159 76.7138L74.8905 73.0884C73.6893 71.8871 71.7415 71.8871 70.5402 73.0884C69.3388 74.2898 69.3388 76.2374 70.5402 77.4387L76.3406 83.2392C76.9413 83.8398 77.7286 84.1403 78.5157 84.1403C79.3028 84.1403 80.0903 83.8398 80.6907 83.2392L92.2918 71.6383C93.4931 70.4372 93.4931 68.4893 92.2918 67.288C91.0913 66.0866 89.1434 66.0866 87.9419 67.288Z" fill="#D99E2A"/>
<path d="M44.8405 66.3241C44.3654 66.1562 43.8814 65.9816 43.397 65.8014V57.1264C44.287 57.4332 44.7476 57.8796 44.8085 57.9417C45.7406 58.9948 47.3497 59.1006 48.412 58.1751C49.4794 57.2449 49.5908 55.6256 48.6605 54.5584C47.7846 53.5533 45.9687 52.2923 43.397 51.8624V50.4492C43.397 49.0334 42.2494 47.8857 40.8335 47.8857C39.4176 47.8857 38.27 49.0334 38.27 50.4492V52.1464C38.0904 52.1932 37.9093 52.2437 37.7262 52.2988C34.627 53.2323 32.3125 55.8787 31.6856 59.205C31.1108 62.2552 32.0998 65.2056 34.2663 66.9049C35.3034 67.7184 36.5693 68.4639 38.27 69.2405V80.502C37.0295 80.3371 36.1017 79.9315 34.6481 78.9807C33.4632 78.2055 31.8747 78.5377 31.0997 79.7227C30.3247 80.9074 30.6567 82.4962 31.8417 83.2711C34.3553 84.9155 36.1225 85.4821 38.27 85.6595V87.3633C38.27 88.7791 39.4176 89.9268 40.8335 89.9268C42.2494 89.9268 43.397 88.7791 43.397 87.3633V85.42C45.0815 85.0078 46.6134 84.1917 47.9108 82.9998C49.6455 81.406 50.8163 79.2465 51.2076 76.9193C52.0121 72.1344 49.5128 67.9754 44.8405 66.3241ZM37.4304 62.8708C36.7857 62.3651 36.5082 61.2989 36.7239 60.1545C36.8868 59.2908 37.3745 58.2883 38.27 57.6622V63.4522C37.9663 63.2623 37.6827 63.0687 37.4304 62.8708ZM46.1516 76.0692C45.902 77.5538 44.9687 79.1198 43.397 79.968V71.2585C46.4028 72.4633 46.33 75.0088 46.1516 76.0692Z" fill="#D99E2A"/>
<path d="M101.924 53.7305C98.0368 53.7305 94.542 51.5706 92.8034 48.0939L92.3707 47.2281C91.8496 46.1856 90.7844 45.5273 89.6191 45.5273H73.2129C72.0476 45.5273 70.9825 46.1856 70.4614 47.2279L70.0286 48.0937C69.8619 48.4269 69.6788 48.7481 69.4811 49.0563C65.2817 43.3931 60.6195 38.3535 56.3967 34.0194V23.9677C60.4788 18.2046 62.5488 11.8716 62.5488 5.12695V3.07617C62.5488 1.3773 61.1715 0 59.4727 0H57.4219C51.7248 0 44.2938 3.68977 41.0156 5.48502C37.7374 3.68977 30.3064 0 24.6094 0H22.5586C20.8597 0 19.4824 1.3773 19.4824 3.07617V5.12695C19.4824 11.8714 21.5525 18.2046 25.6348 23.9679V34.0206C12.8104 47.2039 0 63.0824 0 81.416L0.000205078 81.6367C0.028916 94.5193 10.6829 105 23.7503 105H58.2809C63.146 105 67.8825 103.512 71.8581 100.772C74.4971 102.552 77.4096 103.934 80.5319 104.87C80.8203 104.957 81.118 105 81.416 105C81.714 105 82.0116 104.957 82.3001 104.87C88.9106 102.887 94.5826 98.9118 98.7025 93.3747C102.822 87.8374 105 81.2624 105 74.3607V56.8066C105 55.1078 103.623 53.7305 101.924 53.7305ZM31.7871 26.0449H50.2441V32.1973H31.7871V26.0449ZM39.4375 11.664C40.4084 12.2442 41.6208 12.2442 42.5925 11.6646C44.9763 10.243 51.7484 6.71877 56.3752 6.21305C56.1801 11.1087 54.6562 15.6067 51.7396 19.8926H30.2919C27.3751 15.6064 25.8513 11.1085 25.6563 6.21305C30.2829 6.71877 37.055 10.243 39.4375 11.664ZM23.7503 98.8477C14.0679 98.8477 6.17367 91.1207 6.15255 81.6256L6.15234 81.416C6.15234 65.2844 18.0602 50.6344 30.006 38.3496H52.0259C56.1565 42.5906 60.7099 47.5158 64.7399 52.9916C63.5469 53.4725 62.2511 53.7305 60.9082 53.7305C59.2093 53.7305 57.832 55.1078 57.832 56.8066V74.3607C57.832 81.2624 60.0096 87.8374 64.1296 93.3747C64.985 94.5242 65.908 95.6054 66.8918 96.6164C64.2727 98.0671 61.3112 98.8477 58.2812 98.8477H23.7503ZM98.8477 74.3607C98.8477 85.4874 91.881 95.1526 81.416 98.6953C70.9511 95.1526 63.9844 85.4874 63.9844 74.3607V59.5961C68.6399 58.7174 72.6873 55.8637 75.0842 51.6795H87.7478C90.1448 55.8635 94.1922 58.7174 98.8477 59.5961V74.3607Z" fill="#D99E2A"/>
</svg>
