<svg width="188" height="188" viewBox="0 0 188 188" fill="none" xmlns="http://www.w3.org/2000/svg">
<path d="M176.25 117.5H164.5C167.805 117.5 170.589 118.632 172.854 120.896C175.118 123.161 176.25 125.915 176.25 129.158C176.25 132.402 175.118 135.186 172.854 137.512C170.589 139.837 167.805 141 164.5 141C167.805 141 170.589 142.132 172.854 144.396C175.118 146.661 176.25 149.415 176.25 152.658C176.25 155.902 175.118 158.686 172.854 161.012C170.589 163.337 167.805 164.5 164.5 164.5H152.75C156.055 164.5 158.839 165.632 161.104 167.896C163.368 170.161 164.5 172.945 164.5 176.25C164.5 179.555 163.368 182.339 161.104 184.604C158.839 186.868 156.055 188 152.75 188H58.75C54.8333 188 47 186.042 35.25 182.125C23.5 178.208 15.6667 176.25 11.75 176.25C8.32292 176.25 5.50781 175.24 3.30469 173.221C1.10156 171.201 0 168.294 0 164.5V117.5C0 113.216 1.13216 108.382 3.39648 102.996C5.66081 97.6107 8.20052 94.6732 11.0156 94.1836C11.138 94.0612 11.3828 94 11.75 94C18.3594 94 24.7852 93.1126 31.0273 91.3379C37.2695 89.5631 42.502 87.4824 46.7246 85.0957C50.9473 82.709 54.8945 80.0163 58.5664 77.0176C62.2383 74.0189 64.931 71.5404 66.6445 69.582C68.3581 67.6237 69.6432 65.9714 70.5 64.625C72.9479 60.9531 76.4056 56.8835 80.873 52.416C85.3405 47.9486 89.2878 44.1543 92.7148 41.0332C96.1419 37.9121 99.1712 34.2402 101.803 30.0176C104.434 25.7949 105.75 21.6641 105.75 17.625V11.75C105.75 8.44531 106.913 5.66081 109.238 3.39648C111.564 1.13216 114.318 0 117.5 0C120.682 0 123.436 1.13216 125.762 3.39648C128.087 5.66081 129.25 8.44531 129.25 11.75V35.25C129.25 40.513 128.638 45.0723 127.414 48.9277C126.19 52.7832 124.844 55.5677 123.375 57.2812C121.906 58.9948 120.56 60.9837 119.336 63.248C118.112 65.5124 117.5 67.9297 117.5 70.5C117.5 72.7031 118.112 74.6003 119.336 76.1914C120.56 77.7826 122.029 78.9453 123.742 79.6797C125.456 80.4141 127.169 80.9954 128.883 81.4238C130.596 81.8522 132.065 82.0664 133.289 82.0664L135.125 82.25C149.445 82.25 161.838 84.6673 172.303 89.502C182.768 94.3366 188 99.7526 188 105.75C188 108.932 186.868 111.686 184.604 114.012C182.339 116.337 179.555 117.5 176.25 117.5Z" fill="url(#paint0_linear)"/>
<defs>
<linearGradient id="paint0_linear" x1="116" y1="0.00010954" x2="116" y2="198" gradientUnits="userSpaceOnUse">
<stop stop-color="#EFA207"/>
<stop offset="1" stop-color="#EFA207" stop-opacity="0"/>
</linearGradient>
</defs>
</svg>
