<svg width="198" height="148" viewBox="0 0 198 148" fill="none" xmlns="http://www.w3.org/2000/svg">
<path d="M133.16 106.501C125.732 103.528 122.765 95.3576 122.765 95.3576C122.765 95.3576 119.419 97.2082 119.419 92.0107C119.419 86.8132 122.765 95.3576 126.112 75.2895C126.112 75.2895 135.385 72.6841 133.528 51.1394H131.297C131.297 51.1394 136.875 28.1051 131.297 20.2957C125.719 12.4994 123.5 7.30194 111.235 3.581C98.9698 -0.139933 103.439 0.60163 94.5204 0.982255C85.5954 1.36288 78.1666 6.18632 78.1666 8.79163C78.1666 8.79163 72.5885 9.15913 70.3704 11.3904C68.1391 13.6216 64.4248 24.0166 64.4248 26.6154C64.4248 29.2141 66.282 46.6966 68.1391 50.4044L65.9276 51.1526C64.0638 72.6973 73.3432 75.3026 73.3432 75.3026C76.6901 95.3707 80.0369 86.8263 80.0369 92.0238C80.0369 97.2213 76.6901 95.3707 76.6901 95.3707C76.6901 95.3707 73.7238 103.541 66.2951 106.514C58.8663 109.48 17.6276 125.453 14.2741 128.8C10.9141 132.147 11.2948 147.753 11.2948 147.753H188.134C188.134 147.753 188.528 132.154 185.168 128.8C181.821 125.453 140.576 109.48 133.147 106.514L133.16 106.501ZM51.326 105.372C50.6698 104.191 50.3548 103.338 50.3548 103.338C50.3548 103.338 47.5198 104.913 47.5198 100.503C47.5198 96.0926 50.3548 103.338 53.1898 86.3276C53.1898 86.3276 61.0648 84.1291 59.4898 65.8657H57.5866C57.5866 65.8657 58.5316 61.9938 59.1485 57.1113C59.1209 54.9299 59.2019 52.7484 59.3913 50.5751L59.6407 47.7794C59.5094 44.5507 58.9385 41.6107 57.5932 39.7338C52.8682 33.1254 50.9782 28.7088 40.5963 25.5588C30.2013 22.4088 33.9682 23.0388 26.4213 23.3604C18.8613 23.6885 12.5613 27.7704 12.5613 29.9885C12.5613 29.9885 7.83633 30.2969 5.94633 32.1869C4.17445 33.9588 1.31977 41.7813 0.978516 44.5573V46.3948C1.29352 50.6866 2.68477 62.4729 4.06289 65.2488L2.18602 65.8788C0.611016 84.1357 8.48602 86.3407 8.48602 86.3407C11.3079 103.338 14.1495 96.1057 14.1495 100.516C14.1495 104.926 11.3145 103.338 11.3145 103.338C11.3145 103.338 8.80101 110.281 2.50102 112.788L0.978516 113.391V147.739H4.75195C4.55508 139.353 5.25727 128.531 9.64758 124.154C11.9904 121.824 19.6488 117.985 51.3391 105.372H51.326ZM197.867 45.9419C197.604 43.4613 197.033 41.2498 195.95 39.7338C191.239 33.1188 189.342 28.7088 178.954 25.5588C168.565 22.4088 172.345 23.0388 164.779 23.3604C157.232 23.6885 150.932 27.7704 150.932 29.9885C150.932 29.9885 146.207 30.2969 144.317 32.1869C142.545 33.9719 139.657 41.8469 139.342 44.5901H139.559L140.084 50.5882C140.215 52.0976 140.228 53.4429 140.261 54.8144C140.852 59.1851 141.639 63.6738 142.427 65.2488L140.55 65.8723C138.975 84.1291 146.85 86.3341 146.85 86.3341C149.685 103.331 152.513 96.0991 152.513 100.509C152.513 104.919 149.691 103.331 149.691 103.331C149.691 103.331 149.337 104.269 148.615 105.562C179.918 118.031 187.511 121.837 189.828 124.154C194.224 128.538 194.907 139.353 194.717 147.746H197.867V112.932L197.539 112.788C191.239 110.274 188.719 103.338 188.719 103.338C188.719 103.338 185.877 104.913 185.877 100.516C185.877 96.1188 188.719 103.338 191.547 86.3407C191.547 86.3407 196.823 84.8313 197.867 74.2657V66.2069C197.867 66.0888 197.867 65.9904 197.847 65.8788H195.944C195.944 65.8788 197.361 60.0382 197.867 53.6594V45.9419Z" fill="url(#paint0_linear)"/>
<defs>
<linearGradient id="paint0_linear" x1="122.463" y1="0.655847" x2="122.463" y2="144" gradientUnits="userSpaceOnUse">
<stop stop-color="#EFA207"/>
<stop offset="1" stop-color="#EFA207" stop-opacity="0"/>
</linearGradient>
</defs>
</svg>
