<svg width="21" height="14" viewBox="0 0 21 14" fill="none" xmlns="http://www.w3.org/2000/svg">
<path d="M20.9983 13.1575L20.9378 11.874C20.8989 11.0183 20.86 10.167 20.8212 9.31128C20.8125 9.11279 20.778 8.85696 20.5793 8.65847C20.5274 8.60555 20.4626 8.55262 20.3892 8.51292C20.2812 8.45117 20.1732 8.4247 20.0695 8.4247C19.8189 8.4247 19.6548 8.59231 19.5381 8.7114L19.266 8.98929C19.0457 9.21424 18.8297 9.43478 18.6093 9.65973C18.5877 9.68179 18.5661 9.69943 18.5445 9.72149L14.3067 5.39445C14.095 5.17832 13.8142 5.05923 13.5204 5.05923C13.2267 5.05923 12.9415 5.17832 12.7342 5.39445L9.90461 8.28355L2.1157 0.335224C1.90403 0.119093 1.62755 0 1.32947 0C1.03139 0 0.750595 0.119093 0.538916 0.335224L0.327238 0.551355C-0.109079 0.996849 -0.109079 1.71582 0.327238 2.16131L9.10973 11.1285C9.32141 11.3447 9.59789 11.4638 9.89597 11.4638C10.194 11.4638 10.4748 11.3447 10.6865 11.1285L13.5161 8.23945L16.7561 11.5476C16.5271 11.7769 16.3025 12.0063 16.0778 12.2401L15.7538 12.5709C15.6242 12.7032 15.3564 12.9767 15.5508 13.3957C15.5897 13.4795 15.6372 13.5501 15.6934 13.6074C15.8791 13.7971 16.1167 13.8103 16.2852 13.8147C17.5726 13.8765 18.8642 13.9382 20.1516 14C20.1732 14 20.1991 14 20.225 14C20.4799 14 20.6786 13.9294 20.8125 13.7839C20.9508 13.6383 21.0112 13.431 20.9983 13.1575Z" fill="#A5A7A8"/>
</svg>
