<svg width="13" height="13" viewBox="0 0 13 13" fill="none" xmlns="http://www.w3.org/2000/svg">
<g clip-path="url(#clip0)">
<path d="M2.83016 7.46997H1.37535C0.602922 7.46997 -0.0253983 6.84165 -0.0253983 6.06932V1.98985C-0.0253983 1.21752 0.602922 0.589096 1.37535 0.589096H2.83016V7.46997Z"/>
<path d="M11.5739 8.28577H8.07932V10.9645C8.07932 11.7369 7.451 12.3652 6.67867 12.3652H5.8628C5.09037 12.3652 4.46205 11.7369 4.46205 10.9645V9.26241L3.59192 8.17478V0.589019H9.53423C10.2318 0.589019 11.0435 1.06668 11.3822 1.67645L12.4314 3.56498C12.736 4.11326 12.9747 5.03407 12.9747 5.6613V6.88511C12.9747 7.65745 12.3463 8.28577 11.5739 8.28577Z"/>
</g>
<defs>
<clipPath id="clip0">
<rect width="13" height="13" fill="white" transform="matrix(1 0 0 -1 0 13)"/>
</clipPath>
</defs>
</svg>
