<svg width="64" height="64" viewBox="0 0 64 64" fill="none" xmlns="http://www.w3.org/2000/svg">
<circle cx="32" cy="32" r="32" fill="#F5F5F5"/>
<g clip-path="url(#clip0)">
<path d="M34.121 30.6286C35.2926 31.8002 35.2926 33.6998 34.121 34.8714C32.9494 36.043 31.0498 36.043 29.8782 34.8714C28.7066 33.6998 28.7066 31.8002 29.8782 30.6286C31.0498 29.457 32.9494 29.457 34.121 30.6286" fill="#BFBFBF"/>
<path d="M40.9999 24.4998H38.9271L37.4263 21.4997H26.5722L25.0729 24.5013L23.003 24.505C21.3528 24.5079 20.0095 25.8527 20.0081 27.5036L20 39.4996C20 41.1542 21.3455 42.5004 23.0001 42.5004H40.9999C42.6546 42.5004 44.0001 41.1549 44.0001 39.5003V27.4999C44 25.8453 42.6545 24.4998 40.9999 24.4998V24.4998ZM31.9996 38.7503C28.6912 38.7503 25.9994 36.0585 25.9994 32.7501C25.9994 29.4416 28.6912 26.7498 31.9996 26.7498C35.3081 26.7498 37.9998 29.4416 37.9998 32.7501C37.9998 36.0585 35.3081 38.7503 31.9996 38.7503V38.7503Z" fill="#BFBFBF"/>
</g>
<circle cx="54" cy="54" r="9" fill="#009845" stroke="white" stroke-width="2"/>
<rect x="50" y="53.2" width="8" height="1.6" rx="0.8" fill="white"/>
<rect x="54.8" y="50" width="8" height="1.6" rx="0.8" transform="rotate(90 54.8 50)" fill="white"/>
<defs>
<clipPath id="clip0">
<rect width="24" height="24" fill="white" transform="translate(20 20)"/>
</clipPath>
</defs>
</svg>
