<svg width="730" height="180" viewBox="0 0 730 180" fill="none" xmlns="http://www.w3.org/2000/svg">
<mask id="mask0" mask-type="alpha" maskUnits="userSpaceOnUse" x="0" y="0" width="730" height="180">
<rect width="730" height="180" rx="20" fill="#F58429"/>
</mask>
<g mask="url(#mask0)">
<circle cx="668.5" cy="43.5" r="111.5" fill="#FD9038"/>
<path d="M732 150.991C668.444 74.0703 509.514 8.08291 382.245 359.495C223.159 798.761 -279.833 104.136 133.089 -54" stroke="#FDAB6A"/>
<path d="M746 79.4873C686.753 1.30563 529.437 -70.8561 374.149 265.951C180.037 686.959 -152.056 131.087 -5.88823 105.287" stroke="#FDAB6A"/>
<path d="M604.092 161.707C604.092 161.707 603.104 158.497 603.303 157.138C603.501 155.78 605.327 154.544 605.327 154.544L603.347 103.051C603.347 103.051 603.089 80.5289 615.009 73.528L622.124 71.7353L639.673 70.697C640.241 70.8859 660.864 78.643 663.702 81.6704L654.809 127.079C654.809 127.079 655.89 140.497 656.969 150.14C657.19 152.11 658.668 161.848 658.668 161.848L604.092 161.707Z" fill="#FFB800"/>
<path d="M653.029 150.5C652.368 150.5 651.7 150.414 651.049 150.298C646.65 149.515 642.602 147.448 638.628 145.408C631.201 141.592 623.706 137.733 617.294 132.385C616.393 131.633 615.43 130.459 615.982 129.424C616.28 128.865 616.834 128.661 617.464 128.661C618.157 128.661 618.942 128.908 619.576 129.201C632.171 135.007 644.049 141.272 656.645 147.078C656.644 147.078 656.644 147.079 656.644 147.079C656.478 148.332 656.003 149.857 654.8 150.244C654.227 150.429 653.631 150.5 653.029 150.5Z" fill="#E3A20C"/>
<path d="M612.349 74.9639C612.349 74.9639 604.493 77.5857 601.953 84.8626C599.146 92.9043 597.284 108.513 597.284 108.513L605.046 109.489L612.349 74.9639V74.9639Z" fill="#FFB800"/>
<path d="M663.702 81.6495C663.702 81.6495 667.916 87.1904 669.967 93.9254C672.016 100.659 673.187 120.173 673.187 120.173L652.057 119.879L650.934 102.709C650.934 102.709 648.801 74.0592 663.702 81.6495V81.6495Z" fill="#FFB800"/>
<path d="M600.056 91.831C600.056 91.831 600.209 91.5922 600.639 91.2797C601.06 90.9765 601.857 90.6556 602.863 90.8529C603.887 91.0045 604.881 91.8081 606.191 92.3078C606.839 92.5584 607.598 92.7515 608.368 92.5779C609.141 92.4094 609.811 91.8564 610.517 91.3186C610.873 91.0502 611.249 90.7724 611.693 90.581C612.129 90.3846 612.671 90.3202 613.152 90.5184C613.642 90.6979 614.007 91.1103 614.288 91.5312C614.578 91.9563 614.813 92.417 615.118 92.8303C615.417 93.2452 615.81 93.6051 616.31 93.7516C616.803 93.9151 617.357 93.877 617.88 93.7389C618.408 93.6034 618.921 93.3663 619.409 93.0801C619.896 92.7938 620.367 92.4424 620.872 92.1316C621.374 91.8157 621.91 91.5202 622.506 91.3373C623.097 91.162 623.766 91.1196 624.377 91.333C624.989 91.5337 625.522 91.9123 626.002 92.3255C626.487 92.7371 626.939 93.1868 627.438 93.5746C627.931 93.9642 628.485 94.3004 629.109 94.3944C629.725 94.5146 630.376 94.4291 630.982 94.2005C632.205 93.7415 633.282 92.9124 634.482 92.2493C635.085 91.9233 635.71 91.615 636.395 91.4872C637.073 91.3576 637.793 91.4016 638.431 91.6464C639.712 92.146 640.66 93.114 641.797 93.6551C642.078 93.7982 642.373 93.8947 642.671 93.9676C642.971 94.0302 643.279 94.0413 643.581 94.0252C644.191 93.9837 644.778 93.7796 645.331 93.5247C646.444 93.0208 647.451 92.3171 648.599 91.9394C649.169 91.7514 649.784 91.6667 650.374 91.7802C650.969 91.8818 651.488 92.2078 651.918 92.5694C652.78 93.2901 653.459 94.2047 654.444 94.5104C654.926 94.6637 655.438 94.651 655.924 94.5527C656.412 94.4562 656.877 94.2894 657.336 94.1302C658.242 93.8126 659.192 93.484 660.112 93.6924C660.569 93.7821 660.964 94.0226 661.305 94.2818C661.646 94.5443 661.946 94.8322 662.245 95.0956C662.544 95.3615 662.849 95.5986 663.174 95.7756C663.5 95.9517 663.849 96.0534 664.192 96.1042C664.882 96.2033 665.543 96.0949 666.11 95.9085C666.681 95.7205 667.163 95.4436 667.571 95.1633C668.385 94.5934 668.925 94.0328 669.301 93.6661C669.48 93.4866 669.62 93.3477 669.723 93.2444C669.819 93.1495 669.87 93.1021 669.872 93.1055C669.875 93.108 669.831 93.1605 669.741 93.2613C669.642 93.3689 669.508 93.5145 669.336 93.7008C668.972 94.0777 668.441 94.6527 667.625 95.2412C667.217 95.5309 666.73 95.8205 666.147 96.0186C665.568 96.216 664.892 96.3362 664.173 96.2397C663.815 96.1905 663.45 96.0864 663.106 95.9052C662.764 95.7231 662.447 95.4792 662.144 95.2133C661.537 94.6984 660.935 94.037 660.074 93.8609C659.22 93.6703 658.305 93.9828 657.399 94.308C656.941 94.4698 656.469 94.6417 655.962 94.745C655.459 94.85 654.908 94.8678 654.383 94.7043C653.857 94.5443 653.404 94.2106 652.994 93.8507C652.584 93.4866 652.205 93.0852 651.781 92.7354C651.362 92.3857 650.881 92.0884 650.332 91.997C649.788 91.8928 649.216 91.9724 648.67 92.1545C647.567 92.5169 646.563 93.219 645.428 93.7364C644.863 93.9981 644.251 94.2149 643.599 94.2614C643.275 94.2801 642.943 94.2674 642.621 94.2005C642.301 94.1234 641.986 94.0192 641.693 93.871C640.509 93.3028 639.56 92.3425 638.346 91.875C637.744 91.6455 637.083 91.6066 636.443 91.726C635.798 91.8462 635.191 92.1435 634.601 92.4636C633.421 93.1123 632.338 93.9498 631.065 94.4291C630.434 94.6671 629.73 94.7636 629.065 94.6324C628.389 94.5282 627.797 94.164 627.289 93.7635C626.272 92.9691 625.457 91.9351 624.305 91.5558C623.742 91.3576 623.131 91.394 622.572 91.5574C622.008 91.7285 621.487 92.0131 620.991 92.3222C620.491 92.6287 620.026 92.9742 619.52 93.2698C619.018 93.5628 618.49 93.8067 617.934 93.9472C617.384 94.0887 616.789 94.1319 616.246 93.9515C615.696 93.788 615.261 93.3824 614.955 92.9505C614.638 92.5169 614.405 92.0537 614.126 91.6413C613.853 91.2289 613.52 90.8554 613.084 90.6945C612.653 90.515 612.175 90.5666 611.762 90.7479C611.346 90.924 610.977 91.1916 610.621 91.4567C609.916 91.9851 609.226 92.5542 608.401 92.7295C607.582 92.9073 606.797 92.6956 606.141 92.4356C604.811 91.9106 603.836 91.1044 602.845 90.946C601.867 90.7402 601.091 91.0358 600.667 91.3203C600.235 91.6142 600.068 91.8445 600.056 91.831V91.831Z" fill="#F9F9F9"/>
<path d="M597.564 104.566C597.564 104.561 597.635 104.566 597.772 104.578C597.92 104.593 598.122 104.613 598.378 104.639C598.913 104.672 599.702 104.895 600.689 104.58C601.186 104.471 601.746 104.371 602.356 104.266C602.965 104.16 603.623 104.011 604.346 103.926C605.066 103.841 605.872 103.84 606.669 104.093C607.467 104.329 608.241 104.738 609.095 105.024C609.944 105.322 610.907 105.359 611.859 105.103C612.816 104.877 613.755 104.438 614.772 104.085C615.772 103.725 616.933 103.448 618.083 103.765C619.22 104.084 620.135 104.922 621.275 105.201C621.558 105.268 621.849 105.288 622.14 105.262C622.43 105.23 622.719 105.152 623.006 105.054C623.578 104.855 624.132 104.565 624.739 104.354C625.334 104.134 626.046 104.04 626.685 104.288C627.321 104.532 627.813 104.995 628.329 105.38C628.587 105.573 628.855 105.75 629.145 105.872C629.435 105.996 629.749 106.047 630.066 106.046C630.703 106.022 631.326 105.769 631.935 105.487C632.544 105.207 633.162 104.892 633.85 104.718C634.196 104.644 634.555 104.598 634.917 104.645C635.278 104.687 635.624 104.813 635.94 104.978C636.574 105.313 637.099 105.778 637.657 106.159C637.936 106.348 638.225 106.518 638.531 106.636C638.683 106.694 638.838 106.746 638.999 106.768L639.239 106.81L639.482 106.819C640.136 106.835 640.78 106.645 641.399 106.419C642.02 106.193 642.629 105.928 643.267 105.738C643.898 105.548 644.586 105.429 645.245 105.595C645.913 105.738 646.455 106.167 646.914 106.598C647.376 107.034 647.794 107.496 648.286 107.839C648.774 108.184 649.361 108.343 649.937 108.309C650.516 108.272 651.069 108.058 651.589 107.807C652.111 107.553 652.606 107.256 653.107 106.978C654.095 106.432 655.18 105.926 656.301 106.055C657.412 106.186 658.32 106.801 659.12 107.376C659.927 107.957 660.662 108.573 661.478 108.955C662.282 109.352 663.129 109.557 663.937 109.624C664.748 109.673 665.515 109.592 666.217 109.447C667.614 109.109 668.72 108.489 669.498 107.847C670.282 107.201 670.734 106.545 671.027 106.1C671.159 105.869 671.247 105.684 671.314 105.564C671.379 105.444 671.414 105.383 671.419 105.384C671.421 105.385 671.394 105.45 671.337 105.575C671.276 105.699 671.196 105.888 671.068 106.125C670.789 106.581 670.344 107.254 669.559 107.92C668.781 108.581 667.665 109.224 666.248 109.58C665.536 109.735 664.755 109.824 663.926 109.779C663.1 109.717 662.231 109.514 661.401 109.111C660.56 108.721 659.814 108.101 659.009 107.529C658.212 106.96 657.325 106.374 656.28 106.257C655.23 106.138 654.191 106.619 653.211 107.166C652.715 107.443 652.218 107.744 651.685 108.005C651.155 108.263 650.578 108.493 649.951 108.533C649.329 108.576 648.676 108.397 648.156 108.028C647.633 107.664 647.208 107.194 646.753 106.768C646.301 106.345 645.798 105.954 645.192 105.827C644.592 105.675 643.949 105.783 643.336 105.967C642.717 106.153 642.111 106.417 641.481 106.646C640.853 106.874 640.184 107.078 639.477 107.062L639.214 107.052L638.952 107.007C638.777 106.983 638.607 106.926 638.442 106.863C638.111 106.735 637.807 106.556 637.519 106.359C636.945 105.968 636.425 105.509 635.827 105.195C635.529 105.039 635.213 104.926 634.887 104.888C634.561 104.845 634.23 104.888 633.907 104.955C633.259 105.118 632.653 105.424 632.036 105.708C631.423 105.991 630.773 106.261 630.071 106.287C629.723 106.29 629.37 106.231 629.052 106.094C628.733 105.96 628.45 105.769 628.184 105.571C627.657 105.174 627.178 104.729 626.601 104.51C626.028 104.287 625.393 104.364 624.815 104.575C624.23 104.776 623.674 105.066 623.081 105.272C622.784 105.372 622.478 105.454 622.163 105.488C621.846 105.517 621.527 105.493 621.224 105.42C620.005 105.11 619.1 104.269 618.023 103.971C616.945 103.67 615.831 103.923 614.838 104.277C613.833 104.62 612.886 105.059 611.902 105.286C610.931 105.546 609.907 105.501 609.04 105.187C608.169 104.889 607.401 104.478 606.624 104.243C605.852 103.991 605.073 103.985 604.362 104.062C603.647 104.14 602.989 104.281 602.376 104.382C601.762 104.48 601.207 104.572 600.708 104.673C600.458 104.722 600.225 104.777 599.999 104.81C599.77 104.843 599.554 104.832 599.358 104.813C598.967 104.773 598.639 104.724 598.373 104.689C598.117 104.652 597.916 104.623 597.769 104.602C597.633 104.583 597.564 104.57 597.564 104.566V104.566Z" fill="#F9F9F9"/>
<path d="M605.383 115.648C605.384 115.643 605.432 115.646 605.524 115.653C605.63 115.664 605.764 115.677 605.932 115.694C606.29 115.733 606.817 115.802 607.494 115.903C608.849 116.09 610.795 116.493 613.225 116.693C614.443 116.797 615.774 116.787 617.203 116.621C617.919 116.557 618.675 116.491 619.451 116.603C619.839 116.66 620.229 116.765 620.596 116.94C620.965 117.115 621.297 117.356 621.617 117.606C622.257 118.1 622.864 118.697 623.645 118.933C624.031 119.055 624.445 119.033 624.845 118.925C625.247 118.812 625.636 118.622 626.036 118.437C626.438 118.256 626.857 118.064 627.327 118.003C627.793 117.929 628.3 118.047 628.699 118.301C629.51 118.793 630.041 119.614 630.87 119.965C631.702 120.328 632.639 120.101 633.489 119.849C634.352 119.593 635.211 119.257 636.127 119.237C636.581 119.232 637.043 119.316 637.448 119.511C637.856 119.701 638.207 119.969 638.533 120.245C639.182 120.796 639.754 121.409 640.468 121.736C641.179 122.081 641.983 121.981 642.693 121.743C643.414 121.517 644.079 121.166 644.802 121.003C645.511 120.845 646.272 120.827 646.903 121.158C647.213 121.324 647.467 121.585 647.619 121.884C647.772 122.183 647.849 122.493 647.947 122.777C648.041 123.063 648.165 123.325 648.352 123.529C648.538 123.733 648.776 123.876 649.025 123.962C649.53 124.134 650.06 124.089 650.511 123.954C650.966 123.815 651.338 123.56 651.625 123.267C651.917 122.979 652.13 122.665 652.304 122.374C652.646 121.787 652.83 121.287 652.965 120.954C653.028 120.797 653.076 120.671 653.115 120.573C653.15 120.487 653.169 120.444 653.173 120.445C653.178 120.447 653.166 120.492 653.139 120.581C653.106 120.682 653.064 120.81 653.012 120.971C652.89 121.31 652.72 121.818 652.387 122.421C652.216 122.721 652.004 123.046 651.708 123.349C651.419 123.655 651.027 123.933 650.552 124.085C650.081 124.232 649.524 124.288 648.976 124.11C648.705 124.019 648.44 123.865 648.231 123.64C648.019 123.415 647.883 123.126 647.784 122.834C647.682 122.542 647.602 122.239 647.459 121.968C647.318 121.697 647.093 121.472 646.814 121.324C646.248 121.029 645.526 121.043 644.848 121.2C644.165 121.357 643.498 121.71 642.759 121.947C642.39 122.069 641.998 122.162 641.59 122.18C641.181 122.196 640.758 122.119 640.375 121.942C639.604 121.589 639.02 120.96 638.382 120.423C638.062 120.154 637.725 119.901 637.348 119.725C636.973 119.546 636.556 119.473 636.131 119.476C635.275 119.494 634.432 119.821 633.56 120.082C633.122 120.212 632.67 120.333 632.197 120.38C631.728 120.426 631.225 120.392 630.773 120.189C629.857 119.79 629.324 118.954 628.573 118.509C628.206 118.278 627.778 118.179 627.358 118.243C626.936 118.295 626.534 118.475 626.137 118.655C625.738 118.837 625.339 119.032 624.908 119.153C624.479 119.271 624.005 119.294 623.579 119.158C622.718 118.89 622.108 118.269 621.478 117.783C621.164 117.536 620.845 117.304 620.501 117.14C620.157 116.974 619.79 116.872 619.42 116.815C618.676 116.705 617.934 116.763 617.221 116.824C615.791 116.98 614.431 116.98 613.212 116.866C610.766 116.642 608.828 116.212 607.478 115.997C606.817 115.889 606.298 115.803 605.925 115.742C605.758 115.716 605.625 115.695 605.52 115.678C605.43 115.662 605.383 115.652 605.383 115.648V115.648Z" fill="#F9F9F9"/>
<path d="M604.728 146.917C604.727 146.913 604.773 146.895 604.866 146.862C604.971 146.824 605.107 146.778 605.278 146.718C605.64 146.592 606.171 146.399 606.865 146.173C607.559 145.958 608.412 145.669 609.457 145.57C609.985 145.512 610.556 145.645 611.106 145.844C611.662 146.033 612.236 146.283 612.867 146.345C613.5 146.408 614.155 146.202 614.794 145.911C615.438 145.627 616.094 145.254 616.864 145.08C617.637 144.905 618.465 145.011 619.258 145.219C620.055 145.432 620.838 145.745 621.657 145.984C622.469 146.227 623.346 146.387 624.207 146.205C625.068 146.024 625.872 145.563 626.752 145.213C627.193 145.039 627.665 144.896 628.164 144.879C628.661 144.857 629.174 144.994 629.601 145.257C630.461 145.767 631.075 146.601 631.975 146.935C632.418 147.095 632.901 147.084 633.361 146.967C633.823 146.852 634.265 146.654 634.704 146.457C635.145 146.26 635.587 146.054 636.059 145.921C636.527 145.786 637.044 145.74 637.522 145.89C638.007 146.028 638.39 146.356 638.717 146.683C639.046 147.013 639.337 147.362 639.671 147.645C640.322 148.25 641.245 148.329 642.061 148.145C642.891 147.981 643.673 147.659 644.469 147.449C644.87 147.353 645.272 147.256 645.684 147.265C646.089 147.261 646.508 147.339 646.852 147.549C647.215 147.728 647.486 148.035 647.702 148.339C647.917 148.651 648.088 148.975 648.262 149.281C648.6 149.892 649.019 150.457 649.627 150.647C650.221 150.847 650.855 150.717 651.365 150.468C651.882 150.219 652.314 149.87 652.65 149.488C653.308 148.708 653.657 147.869 654.006 147.234C654.342 146.587 654.649 146.105 654.89 145.805C655.13 145.504 655.287 145.374 655.287 145.374C655.296 145.382 655.155 145.527 654.929 145.834C654.703 146.143 654.413 146.626 654.091 147.278C653.752 147.919 653.423 148.762 652.752 149.578C652.411 149.976 651.97 150.343 651.432 150.608C650.903 150.872 650.229 151.025 649.571 150.811C648.899 150.606 648.442 149.987 648.099 149.375C647.744 148.77 647.416 148.065 646.755 147.726C646.115 147.346 645.29 147.455 644.524 147.657C643.744 147.864 642.965 148.193 642.104 148.366C641.677 148.456 641.22 148.499 640.766 148.416C640.535 148.393 640.32 148.293 640.101 148.212C639.89 148.108 639.699 147.972 639.52 147.824C639.165 147.524 638.87 147.17 638.549 146.851C638.231 146.533 637.878 146.237 637.452 146.119C637.03 145.987 636.567 146.026 636.124 146.153C635.678 146.279 635.245 146.48 634.805 146.679C634.363 146.877 633.912 147.082 633.42 147.204C632.933 147.329 632.386 147.344 631.892 147.165C630.898 146.786 630.285 145.936 629.477 145.466C629.079 145.222 628.628 145.103 628.172 145.121C627.716 145.136 627.268 145.267 626.84 145.436C625.982 145.773 625.166 146.244 624.253 146.433C623.336 146.625 622.416 146.449 621.593 146.2C620.76 145.953 619.982 145.639 619.203 145.426C618.427 145.22 617.638 145.116 616.907 145.278C616.176 145.438 615.525 145.799 614.871 146.083C614.222 146.374 613.528 146.59 612.851 146.518C612.181 146.446 611.603 146.183 611.055 145.99C610.507 145.787 609.976 145.658 609.466 145.706C608.447 145.79 607.588 146.063 606.893 146.264C606.21 146.477 605.674 146.646 605.293 146.764C605.119 146.815 604.981 146.855 604.873 146.885C604.778 146.911 604.729 146.921 604.728 146.917V146.917Z" fill="#F9F9F9"/>
<path d="M631.107 135.276C631.111 135.283 631.019 135.342 630.84 135.447C630.659 135.549 630.383 135.687 630.012 135.825C629.277 136.101 628.119 136.364 626.701 136.166C626.35 136.11 625.983 136.035 625.613 135.914C625.241 135.795 624.872 135.625 624.496 135.468C624.121 135.316 623.717 135.184 623.303 135.224C622.888 135.261 622.493 135.468 622.122 135.731C621.749 135.994 621.386 136.309 620.958 136.57C620.745 136.701 620.509 136.811 620.256 136.879C620.129 136.917 619.998 136.929 619.865 136.938C619.732 136.958 619.6 136.942 619.468 136.93C618.394 136.793 617.539 136.084 616.605 135.611C616.142 135.369 615.643 135.182 615.158 135.24L614.978 135.264C614.92 135.277 614.864 135.303 614.807 135.321C614.691 135.354 614.584 135.408 614.481 135.47C614.278 135.601 614.099 135.772 613.93 135.952C613.592 136.313 613.303 136.73 612.899 137.049C612.698 137.206 612.457 137.331 612.197 137.371C611.939 137.41 611.673 137.368 611.445 137.26C610.984 137.033 610.704 136.631 610.45 136.275C610.199 135.91 609.974 135.549 609.704 135.253C609.161 134.667 608.381 134.427 607.707 134.458C607.018 134.473 606.46 134.816 606.02 135.137C605.579 135.467 605.254 135.823 605.044 136.147C604.605 136.803 604.697 137.282 604.666 137.271C604.666 137.271 604.631 137.164 604.653 136.954C604.671 136.746 604.755 136.437 604.963 136.096C605.169 135.754 605.491 135.378 605.937 135.028C606.376 134.691 606.96 134.315 607.698 134.285C608.416 134.241 609.252 134.484 609.852 135.115C610.144 135.428 610.376 135.795 610.627 136.151C610.877 136.502 611.152 136.872 611.539 137.055C611.926 137.243 612.406 137.161 612.755 136.864C613.119 136.578 613.405 136.167 613.755 135.789C613.93 135.601 614.121 135.414 614.352 135.266C614.469 135.194 614.592 135.131 614.726 135.093C614.792 135.071 614.856 135.042 614.924 135.026L615.132 134.998C615.697 134.933 616.239 135.146 616.717 135.394C617.676 135.886 618.523 136.571 619.494 136.691C619.972 136.751 620.437 136.621 620.839 136.37C621.243 136.127 621.606 135.817 621.994 135.546C622.378 135.277 622.813 135.048 623.284 135.01C623.757 134.97 624.191 135.121 624.574 135.281C624.958 135.447 625.314 135.614 625.672 135.734C626.03 135.856 626.385 135.934 626.728 135.995C628.105 136.21 629.247 135.98 629.981 135.735C630.723 135.489 631.094 135.252 631.107 135.276V135.276Z" fill="#F9F9F9"/>
<path d="M605.188 159.453C605.188 159.449 605.238 159.462 605.33 159.492C605.38 159.508 605.436 159.526 605.5 159.548C605.569 159.561 605.652 159.569 605.744 159.582C606.117 159.629 606.675 159.521 607.317 159.201C607.969 158.914 608.7 158.381 609.724 158.141C609.98 158.084 610.254 158.076 610.536 158.102C610.817 158.143 611.094 158.239 611.359 158.374C611.889 158.646 612.354 159.061 612.869 159.433C613.377 159.807 613.989 160.135 614.671 160.073C615.351 160.019 615.997 159.654 616.689 159.344C617.037 159.189 617.406 159.045 617.806 158.974C618.206 158.903 618.624 158.924 619.028 159.001C619.841 159.151 620.606 159.5 621.415 159.72C622.219 159.962 623.089 159.95 623.946 159.758C624.805 159.575 625.648 159.237 626.514 158.907C627.378 158.579 628.277 158.239 629.249 158.12C630.217 157.971 631.243 158.167 632.145 158.578C633.057 158.973 633.89 159.482 634.764 159.836C635.633 160.195 636.576 160.338 637.447 160.084C639.201 159.581 640.482 158.161 642.15 157.611C642.971 157.318 643.882 157.331 644.658 157.597C645.449 157.845 646.124 158.276 646.761 158.685C647.395 159.101 647.99 159.525 648.597 159.868C649.2 160.217 649.821 160.462 650.44 160.606C651.685 160.877 652.866 160.746 653.835 160.463C654.808 160.173 655.572 159.719 656.135 159.283C657.268 158.394 657.602 157.623 657.639 157.657C657.644 157.658 657.619 157.702 657.568 157.786C657.51 157.879 657.434 158 657.338 158.152C657.108 158.452 656.766 158.908 656.195 159.358C655.632 159.811 654.862 160.286 653.874 160.594C652.891 160.895 651.686 161.042 650.403 160.776C649.765 160.634 649.119 160.383 648.504 160.032C647.884 159.687 647.283 159.265 646.65 158.855C646.016 158.453 645.35 158.034 644.595 157.803C643.847 157.553 643.004 157.544 642.222 157.824C641.43 158.088 640.703 158.575 639.958 159.058C639.214 159.542 638.433 160.058 637.511 160.315C636.585 160.588 635.566 160.431 634.674 160.061C633.773 159.698 632.94 159.188 632.049 158.802C631.164 158.403 630.211 158.221 629.279 158.361C628.346 158.475 627.461 158.805 626.598 159.131C625.735 159.459 624.881 159.8 623.994 159.986C623.115 160.183 622.188 160.191 621.356 159.937C620.524 159.707 619.765 159.358 618.988 159.211C618.602 159.136 618.213 159.117 617.84 159.181C617.468 159.244 617.113 159.379 616.771 159.53C616.087 159.828 615.423 160.205 614.684 160.261C613.937 160.324 613.277 159.957 612.767 159.574C612.246 159.188 611.79 158.776 611.287 158.512C611.036 158.381 610.777 158.288 610.516 158.247C610.253 158.221 609.995 158.224 609.75 158.275C608.766 158.49 608.02 159.01 607.356 159.288C606.702 159.598 606.12 159.696 605.739 159.631C605.644 159.614 605.56 159.602 605.49 159.583C605.426 159.557 605.37 159.535 605.321 159.515C605.23 159.477 605.186 159.456 605.188 159.453V159.453Z" fill="#F9F9F9"/>
<path d="M606.348 78.7341C606.36 78.7231 606.485 78.9035 606.803 79.1575C607.121 79.4082 607.657 79.7114 608.416 79.863C609.175 80.0281 610.128 80.0256 611.229 79.918C611.779 79.874 612.371 79.8189 613.006 79.8266C613.636 79.8367 614.317 79.9163 614.979 80.1805C615.64 80.4388 616.26 80.8411 616.923 81.1993C617.255 81.378 617.601 81.5431 617.968 81.6634C618.336 81.7794 618.727 81.8412 619.128 81.8556C619.934 81.8869 620.765 81.7252 621.623 81.5702C622.478 81.4169 623.387 81.2543 624.329 81.3661C625.281 81.4728 626.148 81.9572 626.964 82.4568C627.785 82.9514 628.628 83.4925 629.596 83.6263C630.076 83.6839 630.57 83.6484 631.053 83.5281C631.536 83.4002 632.007 83.2097 632.474 82.9963C633.408 82.5729 634.327 82.0283 635.385 81.7565C635.912 81.6227 636.466 81.5787 637.004 81.6591C637.542 81.748 638.044 81.9598 638.502 82.2172C639.417 82.7346 640.199 83.4045 641.094 83.8169C641.982 84.2352 642.974 84.3148 643.91 84.1649C644.853 84.0345 645.748 83.728 646.629 83.4621C647.508 83.1877 648.381 82.9345 649.26 82.8244C650.14 82.7109 651.012 82.7947 651.816 82.9844C653.431 83.3681 654.805 84.0684 656.099 84.5672C657.373 85.138 658.639 85.2447 659.735 85.143C660.829 85.044 661.752 84.7747 662.457 84.4605C663.889 83.822 664.352 83.009 664.381 83.0513C664.381 83.0513 664.27 83.2402 663.981 83.534C663.698 83.8338 663.205 84.2098 662.497 84.5477C661.787 84.8788 660.857 85.1651 659.747 85.2794C659.193 85.3387 658.593 85.3387 657.963 85.2633C657.33 85.1972 656.682 84.9838 656.036 84.7289C654.731 84.2361 653.354 83.5493 651.771 83.1826C650.981 83.0014 650.139 82.9243 649.286 83.0378C648.432 83.1487 647.572 83.4002 646.696 83.6763C645.817 83.9456 644.916 84.2589 643.944 84.397C642.982 84.5536 641.928 84.4749 640.993 84.0345C640.059 83.6026 639.272 82.9294 638.383 82.4289C637.94 82.1808 637.465 81.9826 636.965 81.9005C636.465 81.8268 635.947 81.8658 635.444 81.9936C634.435 82.2511 633.521 82.788 632.575 83.2173C632.101 83.4333 631.617 83.6289 631.113 83.7618C630.606 83.8872 630.078 83.927 629.564 83.8635C628.524 83.7153 627.659 83.1496 626.844 82.6567C626.027 82.1545 625.198 81.693 624.302 81.5888C623.339 81.4838 622.408 81.6464 621.495 81.8099C620.692 81.953 619.904 82.0961 619.121 82.058C618.704 82.041 618.293 81.9741 617.908 81.8497C617.524 81.7226 617.169 81.5482 616.832 81.3661C616.163 80.9969 615.553 80.5955 614.915 80.3406C613.629 79.8282 612.33 79.9908 611.238 80.0543C610.137 80.1492 609.163 80.1382 608.396 79.957C607.626 79.7867 607.084 79.4633 606.772 79.1956C606.459 78.9247 606.348 78.7341 606.348 78.7341V78.7341Z" fill="#F9F9F9"/>
<path d="M643.333 94.2761C643.095 94.2761 642.855 94.2558 642.62 94.2075C642.301 94.1304 641.986 94.0263 641.692 93.8781C641.045 93.5673 640.467 93.1388 639.879 92.7382C639.886 92.6451 639.893 92.5536 639.901 92.4604C640.537 92.8881 641.134 93.3471 641.796 93.6621C642.077 93.8052 642.373 93.9018 642.671 93.9746C642.891 94.0203 643.114 94.039 643.338 94.039C643.419 94.039 643.501 94.0364 643.58 94.0322C644.19 93.9907 644.778 93.7866 645.331 93.5317C646.025 93.2175 646.677 92.8254 647.349 92.4833C647.342 92.5722 647.334 92.6628 647.328 92.7518C646.709 93.0761 646.09 93.4411 645.427 93.7434C644.862 94.0051 644.25 94.2219 643.598 94.2685C643.51 94.2735 643.422 94.2761 643.333 94.2761Z" fill="white"/>
<path d="M649.772 108.498C649.205 108.498 648.627 108.32 648.157 107.986C647.634 107.623 647.209 107.153 646.755 106.727C646.302 106.304 645.799 105.913 645.193 105.786C644.995 105.735 644.792 105.714 644.587 105.714C644.171 105.714 643.747 105.802 643.337 105.926C642.718 106.112 642.112 106.376 641.482 106.604C641.314 106.666 641.142 106.726 640.966 106.78C640.949 106.701 640.931 106.622 640.913 106.543C641.077 106.492 641.239 106.436 641.4 106.377C642.021 106.152 642.63 105.887 643.268 105.697C643.689 105.57 644.135 105.476 644.582 105.476C644.804 105.476 645.027 105.499 645.246 105.554C645.915 105.697 646.456 106.126 646.915 106.557C647.377 106.993 647.795 107.455 648.287 107.798C648.73 108.112 649.256 108.272 649.78 108.272C649.833 108.272 649.885 108.271 649.938 108.268C650.064 108.259 650.188 108.243 650.311 108.22C650.344 108.29 650.378 108.359 650.414 108.429C650.263 108.46 650.109 108.482 649.952 108.492C649.892 108.496 649.832 108.498 649.772 108.498V108.498Z" fill="white"/>
<path d="M652.853 121.201C652.894 121.098 652.931 121.004 652.965 120.92C653.028 120.763 653.076 120.637 653.115 120.539C653.149 120.454 653.169 120.411 653.173 120.411C653.178 120.413 653.166 120.459 653.139 120.547C653.106 120.648 653.064 120.776 653.012 120.937C652.99 120.999 652.966 121.066 652.94 121.139C652.912 121.161 652.883 121.182 652.853 121.201V121.201Z" fill="#A5A7A8"/>
<path d="M641.854 84.3382C641.746 84.3119 641.637 84.2823 641.531 84.2476C641.543 84.212 641.555 84.1756 641.567 84.1392L641.854 84.3382Z" fill="#A5A7A8"/>
<path d="M606.668 155.477C606.67 155.469 606.756 155.479 606.92 155.506C607.111 155.541 607.346 155.584 607.634 155.637C608.287 155.761 609.174 155.93 610.254 156.136C612.466 156.551 615.53 157.083 618.93 157.559C622.333 158.031 625.426 158.357 627.668 158.562C628.762 158.66 629.661 158.74 630.324 158.798C630.614 158.827 630.853 158.85 631.045 158.868C631.21 158.887 631.297 158.901 631.296 158.909C631.295 158.918 631.209 158.92 631.043 158.918C630.849 158.911 630.609 158.903 630.317 158.894C629.687 158.869 628.777 158.816 627.654 158.735C625.405 158.573 622.305 158.274 618.896 157.801C615.49 157.325 612.427 156.764 610.22 156.305C609.117 156.076 608.226 155.878 607.615 155.729C607.33 155.659 607.098 155.601 606.91 155.554C606.749 155.512 606.666 155.485 606.668 155.477V155.477Z" fill="#282B30"/>
<path d="M616.985 154.225C616.987 154.216 617.121 154.245 617.374 154.308C617.63 154.363 617.996 154.484 618.483 154.576C619.446 154.799 620.864 155.034 622.629 155.111C624.393 155.19 626.509 155.057 628.787 154.542C631.062 154.033 633.487 153.103 635.779 151.689C638.057 150.251 639.957 148.48 641.416 146.66C642.878 144.839 643.927 142.996 644.63 141.376C645.336 139.757 645.748 138.379 645.972 137.417C646.102 136.939 646.155 136.557 646.217 136.303C646.271 136.048 646.304 135.915 646.313 135.916C646.321 135.918 646.304 136.053 646.265 136.312C646.218 136.569 646.181 136.954 646.064 137.438C645.868 138.412 645.48 139.805 644.789 141.445C644.101 143.086 643.058 144.954 641.592 146.801C640.129 148.646 638.212 150.442 635.909 151.896C633.591 153.326 631.136 154.26 628.837 154.763C626.533 155.27 624.397 155.386 622.622 155.283C620.844 155.184 619.422 154.921 618.461 154.669C617.975 154.562 617.612 154.425 617.36 154.355C617.111 154.277 616.982 154.232 616.985 154.225V154.225Z" fill="#282B30"/>
<path d="M621.148 71.6862C621.156 71.6862 621.16 71.8031 621.158 72.0249C621.156 72.2705 621.155 72.5923 621.151 72.9937C621.162 73.8287 621.142 75.0626 621.508 76.5115C621.704 77.2263 621.998 78.002 622.524 78.6981C623.03 79.406 623.765 80.0107 624.624 80.4807C625.486 80.9532 626.475 81.2945 627.523 81.5189C628.571 81.751 629.685 81.8661 630.823 81.8373C633.1 81.7916 635.251 81.1582 636.921 80.1132C638.606 79.08 639.751 77.6353 640.423 76.3134C641.097 74.9762 641.296 73.755 641.337 72.9243C641.367 72.0876 641.281 71.6252 641.31 71.6218C641.319 71.621 641.34 71.7353 641.371 71.9555C641.41 72.1757 641.429 72.5034 641.432 72.9277C641.421 73.7686 641.245 75.0177 640.578 76.3896C639.912 77.7471 638.758 79.2358 637.041 80.3037C635.34 81.3826 633.146 82.0355 630.828 82.0821C629.67 82.1109 628.538 81.9915 627.472 81.7527C626.405 81.5215 625.398 81.1692 624.516 80.678C623.636 80.1902 622.878 79.5576 622.361 78.8175C621.822 78.09 621.53 77.2872 621.34 76.5547C620.989 75.0693 621.039 73.8304 621.056 72.9912C621.071 72.5703 621.092 72.2434 621.109 72.0224C621.127 71.8014 621.139 71.6853 621.148 71.6862V71.6862Z" fill="#282B30"/>
<path d="M671.835 120.212V137.685C671.835 140.873 670.402 143.894 667.931 145.91C664.92 148.367 660.808 148.984 657.21 147.517L618.741 130.469L622.509 117.637L653.458 127.837L653.422 119.883L671.835 120.212V120.212Z" fill="#F9B299"/>
<path d="M624.02 118.979L621.413 115.743C619.696 113.613 617.108 112.375 614.371 112.375H612.094L610.54 114.122C610.54 114.122 599.393 114.608 598.982 115.983L598.972 116.427L598.966 116.687L608.5 117.327C608.5 117.327 600.39 117.302 599.905 117.32C599.37 117.34 597.641 117.184 597.676 118.136C597.705 118.918 598.631 119.535 600.033 119.74C600.609 119.824 607.635 120.435 607.635 120.435C607.635 120.435 600.258 120.364 599.902 120.363C599.035 120.359 599.144 121.748 599.659 121.923C600.066 122.06 609.972 124.951 609.972 124.951C609.972 124.951 608.306 126.068 606.947 125.971C605.587 125.873 603.257 124.125 602.771 124.951C602.285 125.777 602.383 126.262 602.674 126.456C602.965 126.651 606.17 128.302 607.238 128.592C608.306 128.884 617.027 130.265 617.027 130.265L620.176 130.771L624.02 118.979V118.979Z" fill="#F9B299"/>
<path d="M592.358 117.779C593.925 118.202 595.647 118.54 597.095 119.089C597.572 119.27 598.045 119.28 598.361 119.68C598.677 120.08 598.75 120.718 598.389 121.078C598.07 121.394 597.56 121.388 597.114 121.334C595.443 121.132 593.841 120.558 592.257 119.989" fill="#F9B299"/>
<path d="M592.985 120.34C594.551 120.763 596.273 121.1 597.722 121.65C598.199 121.832 598.671 121.841 598.987 122.241C599.304 122.641 599.377 123.279 599.015 123.638C598.697 123.955 598.186 123.949 597.74 123.895C596.07 123.693 594.468 123.119 592.884 122.549" fill="#F9B299"/>
<path d="M593.876 123.042C595.442 123.465 597.164 123.803 598.613 124.353C599.089 124.533 599.562 124.543 599.878 124.943C600.195 125.343 600.267 125.98 599.905 126.34C599.588 126.657 599.077 126.651 598.632 126.597C596.96 126.394 595.359 125.821 593.775 125.252" fill="#F9B299"/>
<path d="M592.353 119.992C592.378 119.926 593.484 120.313 594.872 120.698C596.26 121.088 597.406 121.329 597.394 121.398C597.384 121.463 596.209 121.327 594.807 120.934C593.404 120.544 592.328 120.05 592.353 119.992V119.992Z" fill="#F79570"/>
<path d="M592.059 122.338C592.084 122.273 593.351 122.693 594.927 123.152C596.503 123.617 597.795 123.948 597.78 124.015C597.767 124.08 596.444 123.854 594.858 123.387C593.271 122.924 592.037 122.399 592.059 122.338V122.338Z" fill="#F79570"/>
<path d="M593.088 125.329C593.104 125.264 594.309 125.508 595.779 125.876C597.25 126.244 598.429 126.595 598.413 126.66C598.396 126.726 597.191 126.481 595.72 126.113C594.25 125.746 593.071 125.395 593.088 125.329V125.329Z" fill="#F79570"/>
<path d="M591.057 117.43C591.081 117.363 592.469 117.833 594.215 118.281C595.959 118.736 597.401 118.998 597.39 119.068C597.385 119.101 597.017 119.077 596.428 118.989C595.841 118.902 595.033 118.746 594.153 118.519C593.275 118.291 592.492 118.035 591.936 117.827C591.379 117.618 591.045 117.461 591.057 117.43Z" fill="#F79570"/>
<path d="M606.746 114.296C606.746 114.229 608.496 114.166 610.657 114.154C612.818 114.143 614.57 114.188 614.57 114.256C614.57 114.323 612.819 114.387 610.658 114.399C608.498 114.41 606.746 114.364 606.746 114.296V114.296Z" fill="#F79570"/>
<path d="M651.437 127.387C651.441 127.371 651.576 127.386 651.817 127.429C652.06 127.469 652.405 127.556 652.825 127.685C653.665 127.944 654.793 128.435 655.903 129.202C657.009 129.973 657.864 130.857 658.4 131.554C658.669 131.901 658.871 132.195 658.993 132.408C659.118 132.619 659.18 132.74 659.165 132.749C659.131 132.771 658.832 132.322 658.266 131.663C657.704 131.005 656.848 130.158 655.763 129.403C654.675 128.651 653.583 128.146 652.769 127.849C651.955 127.551 651.428 127.428 651.437 127.387V127.387Z" fill="#F79570"/>
<path d="M630.45 81.0909C625.376 80.6861 621.541 76.3197 621.794 71.2344C621.971 67.6658 622.156 64.4487 622.156 64.4487C622.156 64.4487 614.506 63.2588 614.412 55.6101C614.317 47.9614 615.643 30.397 615.643 30.397C624.498 26.5921 634.717 27.8768 642.354 33.7556L643.488 34.6279L640.59 72.4226C640.192 77.6205 635.647 81.5058 630.45 81.0909V81.0909Z" fill="#F9B299"/>
<path d="M622.144 64.3564C622.144 64.3564 626.978 64.7493 632.115 61.522C632.115 61.522 629.759 67.0265 622.126 66.338L622.144 64.3564V64.3564Z" fill="#F79570"/>
<path d="M617.53 42.3822C617.51 42.9589 617.982 43.4517 618.584 43.4839C619.184 43.5169 619.689 43.0757 619.709 42.499C619.731 41.9223 619.259 41.4286 618.658 41.3964C618.055 41.3642 617.552 41.8055 617.53 42.3822Z" fill="#0C2B34"/>
<path d="M617.089 41.1216C617.225 41.2639 618.053 40.6516 619.228 40.655C620.402 40.6406 621.264 41.2452 621.392 41.1013C621.455 41.0378 621.317 40.7803 620.941 40.5068C620.571 40.235 619.941 39.9699 619.209 39.9724C618.476 39.9767 617.861 40.2468 617.507 40.5229C617.145 40.7998 617.022 41.0572 617.089 41.1216V41.1216Z" fill="#0C2B34"/>
<path d="M628.614 42.6666C628.594 43.2433 629.065 43.7361 629.667 43.7683C630.268 43.8005 630.773 43.3601 630.793 42.7834C630.813 42.2067 630.341 41.713 629.741 41.6809C629.139 41.6487 628.634 42.089 628.614 42.6666Z" fill="#0C2B34"/>
<path d="M628.644 41.3344C628.78 41.4767 629.608 40.8644 630.783 40.8669C631.956 40.8534 632.819 41.458 632.947 41.3141C633.01 41.2506 632.873 40.9931 632.496 40.7196C632.127 40.4477 631.496 40.1827 630.764 40.1861C630.031 40.1903 629.416 40.4596 629.061 40.7357C628.701 41.0126 628.577 41.27 628.644 41.3344V41.3344Z" fill="#0C2B34"/>
<path d="M624.377 50.0506C624.382 49.9837 623.652 49.8576 622.469 49.706C622.169 49.6755 621.884 49.6154 621.834 49.4104C621.763 49.1936 621.889 48.8701 622.034 48.5212C622.316 47.7947 622.612 47.0333 622.922 46.2356C624.155 42.982 625.047 40.306 624.915 40.2577C624.784 40.2095 623.678 42.8067 622.446 46.0612C622.149 46.864 621.865 47.6287 621.596 48.3603C621.482 48.7016 621.286 49.0886 621.44 49.5383C621.52 49.7627 621.741 49.9253 621.933 49.977C622.126 50.0363 622.294 50.0388 622.442 50.0481C623.635 50.1125 624.373 50.1175 624.377 50.0506V50.0506Z" fill="#0C2B34"/>
<path d="M627.837 50.9249C627.646 50.9139 627.644 52.1901 626.551 53.0954C625.461 54.004 624.101 53.8609 624.091 54.0396C624.073 54.1192 624.394 54.2869 624.968 54.3021C625.532 54.3225 626.354 54.1412 627.022 53.5874C627.688 53.0319 627.974 52.2909 628.018 51.7667C628.067 51.234 627.924 50.9181 627.837 50.9249V50.9249Z" fill="#0C2B34"/>
<path d="M628.339 36.7285C628.455 37.0478 629.629 36.8962 631.009 37.063C632.391 37.2011 633.503 37.605 633.686 37.3188C633.768 37.1807 633.574 36.8801 633.124 36.5718C632.679 36.2627 631.967 35.9689 631.139 35.8766C630.311 35.786 629.553 35.9172 629.052 36.1213C628.545 36.3263 628.29 36.5769 628.339 36.7285V36.7285Z" fill="#0C2B34"/>
<path d="M617.522 37.7764C617.729 38.0432 618.538 37.7662 619.512 37.7527C620.486 37.7061 621.31 37.9322 621.5 37.6528C621.584 37.5173 621.454 37.2497 621.094 36.9973C620.739 36.7458 620.144 36.5392 619.475 36.5595C618.806 36.5815 618.226 36.8229 617.888 37.0964C617.544 37.3708 617.431 37.646 617.522 37.7764V37.7764Z" fill="#0C2B34"/>
<path d="M642.546 42.5596C642.676 42.5037 647.801 41.0057 647.633 46.2349C647.467 51.4642 642.251 50.2176 642.247 50.0678C642.242 49.9179 642.546 42.5596 642.546 42.5596V42.5596Z" fill="#F9B299"/>
<path d="M643.908 48.1329C643.931 48.1168 643.997 48.1989 644.148 48.2751C644.297 48.348 644.553 48.4039 644.829 48.3107C645.387 48.1253 645.881 47.2632 645.936 46.3215C645.965 45.8464 645.879 45.3899 645.723 45.0089C645.575 44.621 645.336 44.3466 645.06 44.2882C644.785 44.2154 644.583 44.3754 644.514 44.5202C644.44 44.6642 644.47 44.77 644.441 44.7777C644.427 44.7904 644.332 44.6871 644.381 44.4728C644.406 44.3695 644.471 44.2475 644.597 44.151C644.726 44.0528 644.912 44.0062 645.105 44.0341C645.508 44.0748 645.859 44.4576 646.031 44.8751C646.225 45.2959 646.332 45.8091 646.3 46.3426C646.233 47.3953 645.662 48.3641 644.899 48.5588C644.529 48.6427 644.225 48.5224 644.07 48.3937C643.912 48.2599 643.889 48.1422 643.908 48.1329V48.1329Z" fill="#F79570"/>
<path d="M612.714 23.7762C613.824 21.582 615.987 19.9518 618.402 19.4869C620.817 19.0228 623.43 19.735 625.276 21.361C626.433 19.0576 628.778 17.3935 631.333 17.0624C633.889 16.7304 636.581 17.7407 638.288 19.6724C639.754 21.3322 640.513 23.5907 642.231 24.9897C643.718 26.1999 645.733 26.6021 647.229 27.8012C648.875 29.1223 649.695 31.3952 649.271 33.4624C648.849 35.5304 647.201 37.2978 645.168 37.866C646.808 40.824 645.271 45.0676 642.116 46.2887L641.353 45.9728C638.46 42.7963 637.799 37.783 639.77 33.9646C639.676 33.9697 639.588 33.9544 639.496 33.9527C638.488 34.5015 637.33 34.7767 636.184 34.7106C634.355 34.6031 632.596 33.6275 631.537 32.1329C629.449 33.6394 626.455 33.7647 624.249 32.4394C623.901 32.2302 623.554 31.983 623.15 31.9398C622.67 31.889 622.215 32.1371 621.781 32.3505C620.633 32.9136 619.345 33.2812 618.079 33.0974C616.899 32.9263 615.766 32.193 615.299 31.1082L615.212 31.098C613.738 30.8312 612.555 29.5737 612.15 28.1315C611.744 26.6893 612.036 25.1134 612.714 23.7762V23.7762Z" fill="#282B30"/>
<path d="M627.895 112.6L633.241 162.304H562.874L557.528 112.6H627.895Z" fill="#282B30"/>
<path d="M561.114 160.005H630.864L625.584 110.914H555.834L561.114 160.005V160.005ZM631.546 160.619H560.563L555.151 110.3H626.136L631.546 160.619Z" fill="#282B30"/>
<path d="M599.75 136.626C600.382 139.719 598.939 142.625 596.528 143.116C594.117 143.609 591.65 141.503 591.018 138.41C590.386 135.319 591.829 132.413 594.239 131.919C596.651 131.426 599.118 133.534 599.75 136.626V136.626Z" fill="white"/>
<path d="M639.718 157.336H626.587V162.332H639.718V157.336Z" fill="#282B30"/>
<rect x="548.448" y="161.545" width="134.538" height="2.22378" rx="1.11189" fill="white"/>
</g>
</svg>
