<svg width="21" height="14" viewBox="0 0 21 14" fill="none" xmlns="http://www.w3.org/2000/svg">
<path d="M20.9983 0.842469L20.9378 2.12602C20.8989 2.98173 20.86 3.83302 20.8212 4.68872C20.8125 4.88721 20.778 5.14304 20.5793 5.34153C20.5274 5.39445 20.4626 5.44738 20.3892 5.48708C20.2812 5.54883 20.1732 5.5753 20.0695 5.5753C19.8189 5.5753 19.6548 5.40769 19.5381 5.2886L19.266 5.01071C19.0457 4.78576 18.8297 4.56522 18.6093 4.34027C18.5877 4.31821 18.5661 4.30057 18.5445 4.27851L14.3067 8.60555C14.095 8.82168 13.8142 8.94077 13.5204 8.94077C13.2267 8.94077 12.9415 8.82168 12.7342 8.60555L9.90461 5.71645L2.1157 13.6648C1.90403 13.8809 1.62755 14 1.32947 14C1.03139 14 0.750595 13.8809 0.538916 13.6648L0.327238 13.4486C-0.109079 13.0032 -0.109079 12.2842 0.327238 11.8387L9.10973 2.87146C9.32141 2.65532 9.59789 2.53623 9.89597 2.53623C10.194 2.53623 10.4748 2.65532 10.6865 2.87146L13.5161 5.76055L16.7561 2.45243C16.5271 2.22306 16.3025 1.9937 16.0778 1.75992L15.7538 1.42911C15.6242 1.29679 15.3564 1.02331 15.5508 0.604284C15.5897 0.520478 15.6372 0.449905 15.6934 0.392565C15.8791 0.202899 16.1167 0.189666 16.2852 0.185255C17.5726 0.123504 18.8642 0.0617523 20.1516 9.53674e-07C20.1732 9.53674e-07 20.1991 9.53674e-07 20.225 9.53674e-07C20.4799 9.53674e-07 20.6786 0.0705738 20.8125 0.216131C20.9508 0.361689 21.0112 0.568997 20.9983 0.842469Z" fill="#009845"/>
</svg>
