<?xml version="1.0" encoding="utf-8"?>
<!-- Generator: Adobe Illustrator 24.0.3, SVG Export Plug-In . SVG Version: 6.00 Build 0)  -->
<svg version="1.1" id="Слой_1" xmlns="http://www.w3.org/2000/svg" xmlns:xlink="http://www.w3.org/1999/xlink" x="0px" y="0px"
	 viewBox="0 0 42.3 50.1" style="enable-background:new 0 0 42.3 50.1;" xml:space="preserve">
<style type="text/css">
	.st0{fill:#007736;}
	.st1{fill:#009845;}
	.st2{clip-path:url(#SVGID_2_);}
	.st3{fill:#FFFFFF;}
</style>
<path class="st0" d="M42.3,46.1l-3.8,4v-4H42.3z"/>
<path class="st0" d="M42.3,4l-3.8-4v4"/>
<path class="st1" d="M0,25.1C0,13.4,9.5,3.9,21.1,3.9h21.1v42.3H21.1C9.5,46.2,0,36.8,0,25.1z"/>
<g>
	<defs>
		<rect id="SVGID_1_" x="12" y="13" width="20" height="20"/>
	</defs>
	<clipPath id="SVGID_2_">
		<use xlink:href="#SVGID_1_"  style="overflow:visible;"/>
	</clipPath>
	<g class="st2">
		<path class="st3" d="M27.9,22.4h2.3c0.3,0,0.6,0.3,0.6,0.6v9.4c0,0.3-0.3,0.6-0.6,0.6h-2.3c-0.3,0-0.6-0.3-0.6-0.6V23
			C27.3,22.7,27.5,22.4,27.9,22.4z"/>
		<path class="st3" d="M13.2,24c0.1-0.9,1-1.6,1.9-1.6h4.6c-0.4-0.7-0.6-2.7-0.6-3.5c0-1.3,1.1-2.4,2.5-2.4H22
			c0.3,0,0.6,0.3,0.6,0.6c0,1.4,0.5,3.8,1.5,4.8c0.7,0.7,1.2,0.9,2,1.3v8.8C25,32.4,23.5,33,21.3,33h-3.8c-1.3,0-2.3-1.2-1.8-2.4
			c-0.7-0.2-1.3-0.9-1.3-1.7c0-0.2,0-0.4,0.1-0.6c-1.3-0.3-1.7-1.9-0.8-2.9C13.3,25,13.1,24.5,13.2,24z"/>
	</g>
</g>
</svg>
