<svg width="25" height="25" viewBox="0 0 25 25" fill="none" xmlns="http://www.w3.org/2000/svg">
<path d="M12.5 21.875C17.0947 21.875 20.8333 18.1365 20.8333 13.5417C20.8333 10.6459 19.347 8.09372 17.0983 6.60063C16.434 6.15957 15.625 6.69362 15.625 7.49099C15.625 7.89122 15.8427 8.25497 16.1664 8.49038C17.7294 9.62713 18.75 11.4655 18.75 13.5417C18.75 16.9885 15.9468 19.7917 12.5 19.7917C9.05308 19.7917 6.24996 16.9885 6.24996 13.5417C6.24996 11.4656 7.27041 9.62652 8.83324 8.49034C9.15705 8.25492 9.37496 7.89111 9.37496 7.49077C9.37496 6.6935 8.56602 6.15952 7.90182 6.6005C5.65299 8.09358 4.16663 10.6458 4.16663 13.5417C4.16663 18.1365 7.90517 21.875 12.5 21.875Z" fill="#BFBFBF"/>
<path d="M11.4584 3.125C11.4584 2.54971 11.9247 2.08334 12.5 2.08334C13.0753 2.08334 13.5417 2.54971 13.5417 3.125V11.4583C13.5417 12.0336 13.0753 12.5 12.5 12.5C11.9247 12.5 11.4584 12.0336 11.4584 11.4583V3.125Z" fill="#BFBFBF"/>
</svg>
