<svg width="20" height="20" viewBox="0 0 20 20" fill="none" xmlns="http://www.w3.org/2000/svg">
<path d="M12.3437 0L11.9295 0.414258C11.5118 0.831953 10.832 0.831953 10.4143 0.414258L9.99999 0L9.58573 0.414258C9.16803 0.831953 8.48823 0.831953 8.07053 0.414258L7.65624 0L7.24198 0.414258C6.04678 1.60945 5.65588 2.59465 6.97018 4.14262C7.90811 3.76832 8.92784 3.55641 9.99772 3.55641C11.0692 3.55641 12.0905 3.76871 13.0297 4.14371C14.3459 2.59719 13.955 1.61121 12.758 0.414297L12.3437 0Z" fill="#FFB800"/>
<path d="M18.2031 17.0313C18.2031 15.7982 17.9039 15.1298 17.6137 14.4838C17.3145 13.8149 17.0312 13.1832 17.0312 11.7578C17.0312 7.98127 13.9684 4.72815 9.99769 4.72815C6.14715 4.72815 2.96875 7.83088 2.96875 11.7578C2.96875 13.1792 2.68492 13.8132 2.38512 14.4849C2.09555 15.131 1.79688 15.7999 1.79688 17.0313C1.79688 18.7576 3.95867 20 5.89844 20H14.1016C16.0413 20 18.2031 18.7576 18.2031 17.0313ZM10 11.7578C10.9693 11.7578 11.7578 12.5464 11.7578 13.5156C11.7578 14.2785 11.2665 14.9228 10.5859 15.1655V16.4453H9.41406V15.1655C8.73352 14.9228 8.24219 14.2785 8.24219 13.5156H9.41406C9.41406 13.8389 9.67672 14.1016 10 14.1016C10.3233 14.1016 10.5859 13.8389 10.5859 13.5156C10.5859 13.1924 10.3233 12.9297 10 12.9297C9.0307 12.9297 8.24219 12.1412 8.24219 11.1719C8.24219 10.409 8.73352 9.76471 9.41406 9.52202V8.24221H10.5859V9.52202C11.2665 9.76471 11.7578 10.409 11.7578 11.1719H10.5859C10.5859 10.8486 10.3233 10.586 10 10.586C9.67672 10.586 9.41406 10.8486 9.41406 11.1719C9.41406 11.4952 9.67672 11.7578 10 11.7578Z" fill="#FFB800"/>
</svg>
