<svg width="20" height="20" viewBox="0 0 20 20" fill="none" xmlns="http://www.w3.org/2000/svg">
<path d="M14.9741 1.25C12.9207 1.25 11.25 2.92068 11.25 4.97406C11.25 7.02728 12.9207 8.69797 14.9741 8.69797C17.0274 8.69797 18.698 7.02728 18.698 4.97406C18.698 2.92068 17.0274 1.25 14.9741 1.25Z" fill="#F58429"/>
<path d="M14.8737 13.9029V9.87366C12.2253 9.81415 10.0891 7.64145 10.0891 4.97925C10.0891 4.19861 10.2731 3.46039 10.5994 2.80487C9.99466 2.61047 9.35883 2.51038 8.70895 2.51038C5.30975 2.51038 2.54425 5.27588 2.54425 8.67508V13.9029C1.81549 14.1481 1.28906 14.838 1.28906 15.6485C1.28906 16.6637 2.11502 17.4896 3.13019 17.4896H14.2877C15.3029 17.4896 16.1288 16.6637 16.1288 15.6485C16.1288 14.838 15.6026 14.1481 14.8737 13.9029Z" fill="#BFBFBF"/>
<path d="M8.70895 20C9.76379 20 10.6967 19.4693 11.2559 18.6615H6.16195C6.72118 19.4693 7.65411 20 8.70895 20Z" fill="#BFBFBF"/>
<path d="M10.5295 1.5657C10.3961 0.680695 9.63058 0 8.70895 0C7.78686 0 7.02102 0.681458 6.88827 1.56723C7.4707 1.418 8.08074 1.3385 8.70895 1.3385C9.33013 1.3385 9.94033 1.41541 10.5295 1.5657Z" fill="#BFBFBF"/>
</svg>
