<svg width="48" height="48" viewBox="0 0 48 48" fill="none" xmlns="http://www.w3.org/2000/svg">
<circle cx="24" cy="24" r="24" fill="#FEF3EA"/>
<g clip-path="url(#clip0)">
<path d="M16.3698 30.2915C13.876 27.1686 13.8703 22.6729 16.3584 19.5442C19.6101 15.4517 25.59 15.18 29.2078 18.7177L30.8551 17.0704C30.9466 16.9789 31.1096 17.0447 31.1296 17.1791L32.0305 23.0618C32.0448 23.1619 31.9618 23.2448 31.8617 23.2305L25.979 22.3297C25.8446 22.3097 25.7817 22.1438 25.8703 22.0551L27.5147 20.4107C24.9609 17.9369 20.8084 18.0628 18.4232 20.7911C16.3698 23.1362 16.3784 26.7139 18.4375 29.0532C20.6196 31.5327 24.2659 31.8502 26.8227 30.0027C27.2974 29.6595 27.9523 29.7196 28.3641 30.1314C28.876 30.6433 28.8217 31.4984 28.2354 31.9245C24.6005 34.5642 19.3498 34.0208 16.3698 30.2915Z" fill="#F58429"/>
</g>
<defs>
<clipPath id="clip0">
<rect width="19.799" height="19.799" fill="white" transform="matrix(-0.707107 -0.707107 -0.707107 0.707107 38 24)"/>
</clipPath>
</defs>
</svg>
