<?xml version="1.0" encoding="utf-8"?>
<!-- Generator: Adobe Illustrator 24.0.3, SVG Export Plug-In . SVG Version: 6.00 Build 0)  -->
<svg version="1.1" id="Слой_1" xmlns="http://www.w3.org/2000/svg" xmlns:xlink="http://www.w3.org/1999/xlink" x="0px" y="0px"
	 viewBox="0 0 57 51" style="enable-background:new 0 0 57 51;" xml:space="preserve">
<style type="text/css">
	.st0{fill:#0057FF;}
</style>
<path class="st0" d="M45.9,51c-0.4,0-0.9-0.1-1.3-0.4l-14.3-9.7l-7.7,5.5c-0.6,0.4-1.4,0.5-2.1,0.3c-0.7-0.3-1.2-0.8-1.4-1.5
	l-3.9-14.6L1.5,25.3C0.6,24.9,0,24.1,0,23.2c0-0.9,0.6-1.8,1.4-2.1L53.9,0.2C54.1,0.1,54.4,0,54.6,0c0.1,0,0.2,0,0.3,0
	c0.5,0,1,0.2,1.4,0.6c0,0,0.1,0.1,0.1,0.1C56.8,1.2,57,1.6,57,2.1c0,0.1,0,0.2,0,0.4c0,0.1,0,0.2,0,0.3l-8.9,46.5
	c-0.1,0.7-0.7,1.4-1.4,1.7C46.5,50.9,46.2,51,45.9,51z M31.6,36.3l12.8,8.7l6.9-36.1L26.3,32.7L31.6,36.3
	C31.5,36.3,31.5,36.3,31.6,36.3z M20.9,34.4l1.7,6.5l3.7-2.7l-4.8-3.3C21.3,34.8,21.1,34.6,20.9,34.4z M8.5,23.1l9.5,3.6
	c0.7,0.3,1.2,0.8,1.4,1.5l1.2,4.6c0.1-0.5,0.3-1,0.7-1.4L44.9,8.6L8.5,23.1z"/>
</svg>
