<?xml version="1.0" encoding="utf-8"?>
<!-- Generator: Adobe Illustrator 24.0.3, SVG Export Plug-In . SVG Version: 6.00 Build 0)  -->
<svg version="1.1" id="Слой_1" xmlns="http://www.w3.org/2000/svg" xmlns:xlink="http://www.w3.org/1999/xlink" x="0px" y="0px"
	 viewBox="0 0 70 70" style="enable-background:new 0 0 70 70;" xml:space="preserve">
<style type="text/css">
	.st0{fill:#0057FF;}
</style>
<path class="st0" d="M60.1,9.9C53.6,3.5,45.1,0,36.1,0c0,0,0,0,0,0c-4.5,0-8.9,0.9-13,2.6c-4.1,1.7-7.8,4.2-11,7.4
	c-6.4,6.4-9.9,14.9-9.9,24c0,5.4,1.3,10.8,3.8,15.6L0.2,65.8c-0.4,1.1-0.1,2.4,0.7,3.3C1.5,69.7,2.3,70,3.1,70c0.3,0,0.7-0.1,1-0.2
	l16.3-5.7c4.8,2.5,10.2,3.8,15.6,3.8c9.1,0,17.6-3.5,24-9.9c6.4-6.4,9.9-14.9,9.9-24C70,24.9,66.5,16.4,60.1,9.9z M57.2,55
	c-5.6,5.6-13.1,8.7-21.1,8.7c-4.9,0-9.7-1.2-14-3.5c-0.8-0.4-1.7-0.5-2.5-0.2L4.7,65.3l5.2-14.8c0.3-0.8,0.2-1.7-0.2-2.5
	c-2.3-4.3-3.5-9.1-3.5-14c0-8,3.1-15.5,8.7-21.1c5.6-5.6,13.1-8.7,21.1-8.7h0c8,0,15.5,3.1,21.1,8.7c5.6,5.6,8.7,13.1,8.7,21.1
	S62.8,49.4,57.2,55z"/>
<path class="st0" d="M48.7,37c-1.6-1.6-4.1-1.6-5.7,0l-1.7,1.7c-4.2-2.3-7.7-5.7-10-10L33,27c1.6-1.6,1.6-4.1,0-5.7l-4.6-4.6
	c-1.6-1.6-4.1-1.6-5.7,0l-3.7,3.7c-2.1,2.1-2.2,5.7-0.3,10.2c1.7,3.9,4.7,8.2,8.6,12c3.9,3.9,8.1,6.9,12,8.6
	c2.1,0.9,4.1,1.4,5.7,1.4c1.8,0,3.4-0.6,4.5-1.7l3.7-3.7v0c0.8-0.8,1.2-1.8,1.2-2.8c0-1.1-0.4-2.1-1.2-2.8L48.7,37z M46.7,48
	c-0.6,0.6-2.5,0.8-5.7-0.6c-3.4-1.5-7.2-4.2-10.7-7.7c-3.5-3.5-6.2-7.3-7.7-10.7c-1.4-3.2-1.2-5.1-0.6-5.7l3.6-3.6l4.5,4.5l-2.1,2.1
	c-1,1-1.2,2.4-0.6,3.6c2.8,5.5,7.2,9.9,12.7,12.7c1.2,0.6,2.7,0.4,3.6-0.6l2.1-2.1l4.5,4.5L46.7,48z"/>
</svg>
