<?xml version="1.0" encoding="utf-8"?>
<!-- Generator: Adobe Illustrator 24.0.3, SVG Export Plug-In . SVG Version: 6.00 Build 0)  -->
<svg version="1.1" id="Слой_1" xmlns="http://www.w3.org/2000/svg" xmlns:xlink="http://www.w3.org/1999/xlink" x="0px" y="0px"
	 viewBox="0 0 66.8 73" style="enable-background:new 0 0 66.8 73;" xml:space="preserve">
<style type="text/css">
	.st0{fill:#0057FF;}
</style>
<path class="st0" d="M66.8,25.8c0-6.9-2.7-13.3-7.6-18.2C54.4,2.7,47.9,0,41,0H25.8c0,0,0,0,0,0C18.9,0,12.4,2.7,7.6,7.6
	C2.7,12.4,0,18.9,0,25.8v12c0,5.3,1.6,10.4,4.7,14.8c2.7,3.8,6.3,6.8,10.6,8.7v6.9c0,3.6,2,4.8,3.7,4.8c1.2,0,2.4-0.6,3.6-1.8
	l7.7-7.7l10.8,0c6.9,0,13.3-2.7,18.2-7.6c4.9-4.9,7.6-11.3,7.6-18.2L66.8,25.8z M41,59.3l-11.6,0c-0.6,0-1.1,0.2-1.5,0.6l-8.3,8.3
	c0,0,0,0,0,0c0,0,0,0,0,0v-8.3c0-0.9-0.5-1.7-1.4-2C9.9,54.7,4.3,46.6,4.3,37.8v-12c0-5.7,2.2-11.1,6.3-15.2
	c4.1-4.1,9.5-6.3,15.2-6.3H41c5.7,0,11.1,2.2,15.2,6.3c4.1,4.1,6.3,9.5,6.3,15.2l0,12C62.5,49.6,52.9,59.3,41,59.3z"/>
<path class="st0" d="M39.1,35c-0.8-0.8-2.2-0.8-3,0l-1.7,1.7L27.6,30l1.7-1.7c0.4-0.4,0.6-0.9,0.6-1.5c0-0.6-0.2-1.1-0.6-1.5
	l-8.1-8.1c-0.4-0.4-0.9-0.6-1.5-0.6c-0.6,0-1.1,0.2-1.5,0.6l-5.7,5.7c-3.1,3.1-3.1,8.1,0,11.1l17.8,17.8c1.5,1.5,3.5,2.3,5.6,2.3
	c2.1,0,4.1-0.8,5.6-2.3l5.7-5.7c0.4-0.4,0.6-0.9,0.6-1.5c0-0.6-0.2-1.1-0.6-1.5L39.1,35z M38.5,48.7c-0.7,0.7-1.6,1-2.5,1
	s-1.9-0.4-2.5-1L15.6,30.9c-1.4-1.4-1.4-3.7,0-5.1l4.2-4.2l5.1,5.1l-1.7,1.7c-0.4,0.4-0.6,0.9-0.6,1.5c0,0.6,0.2,1.1,0.6,1.5
	l9.7,9.7c0.8,0.8,2.2,0.8,3,0l1.7-1.7l5.1,5.1L38.5,48.7z"/>
<path class="st0" d="M33.9,9.5c-1.2,0-2.1,1-2.1,2.1c0,1.2,1,2.1,2.1,2.1c4.9,0,9.5,1.9,13,5.4c3.5,3.5,5.4,8.1,5.4,13
	c0,1.2,1,2.1,2.1,2.1c1.2,0,2.1-1,2.1-2.1c0-6-2.4-11.7-6.6-16S40,9.5,33.9,9.5z"/>
<path class="st0" d="M43.1,32.1c0,1.2,1,2.1,2.1,2.1c1.2,0,2.1-1,2.1-2.1c0-7.4-6-13.4-13.4-13.4c-1.2,0-2.1,1-2.1,2.1
	c0,1.2,1,2.1,2.1,2.1C39,22.9,43.1,27,43.1,32.1z"/>
</svg>
