<?xml version="1.0" encoding="utf-8"?>
<!-- Generator: Adobe Illustrator 24.0.3, SVG Export Plug-In . SVG Version: 6.00 Build 0)  -->
<svg version="1.1" id="Слой_1" xmlns="http://www.w3.org/2000/svg" xmlns:xlink="http://www.w3.org/1999/xlink" x="0px" y="0px"
	 viewBox="0 0 68 68" style="enable-background:new 0 0 68 68;" xml:space="preserve">
<style type="text/css">
	.st0{fill:#0057FF;}
</style>
<path class="st0" d="M66.3,50.2l-8.5-8.5c-2.3-2.3-6.1-2.3-8.5,0l-3.8,3.8c-1.8,1.8-4.6,1.8-6.4,0L22.4,28.9c-1.8-1.8-1.8-4.6,0-6.4
	c0.6-0.6,2.4-2.4,3.8-3.8c2.3-2.3,2.4-6.1,0-8.5l-8.5-8.4c-2.3-2.3-6.1-2.3-8.4,0C7.6,3.5,7.1,4,6.3,4.8c-8.4,8.4-8.4,22.1,0,30.5
	l26.4,26.4c8.4,8.4,22.1,8.4,30.5,0l3.1-3.1C68.6,56.3,68.6,52.5,66.3,50.2z M12.2,4.6c0.8-0.8,2-0.8,2.8,0l8.5,8.4
	c0.8,0.8,0.8,2,0,2.8l-1.4,1.4L10.8,6L12.2,4.6z M35.5,58.9L9.1,32.5C2.6,26,2.3,15.7,8,8.8l11.2,11.2c-3,3.3-2.8,8.4,0.4,11.6
	l16.7,16.7c0,0,0,0,0,0c3.2,3.2,8.3,3.3,11.6,0.4L59.2,60C52.2,65.7,42.1,65.4,35.5,58.9z M63.4,55.8L62,57.2L50.8,45.9l1.4-1.4
	c0.8-0.8,2-0.8,2.8,0l8.5,8.5C64.2,53.8,64.2,55,63.4,55.8z"/>
</svg>
