<?xml version="1.0" encoding="utf-8"?>
<!-- Generator: Adobe Illustrator 24.0.3, SVG Export Plug-In . SVG Version: 6.00 Build 0)  -->
<svg version="1.1" id="Слой_1" xmlns="http://www.w3.org/2000/svg" xmlns:xlink="http://www.w3.org/1999/xlink" x="0px" y="0px"
	 viewBox="0 0 72 75.6" style="enable-background:new 0 0 72 75.6;" xml:space="preserve">
<style type="text/css">
	.st0{fill:#0057FF;}
</style>
<path class="st0" d="M66.2,34.8c-2.3,2.5-4.5,5.3-6,9.1c-0.7,1.7-2.4,2.9-4.3,2.9c-1.9,0-3.6-1.1-4.3-2.9c-1.8-4.4-4.5-7.4-7.2-10.3
	c-0.7-0.7-1.3-1.5-2-2.2c0,0-0.1,0-0.1,0c-2.6,0.8-4.6,4.2-3.4,7c0.8,1.9,6.5,1.5,6,5.6c-0.4,3.3,4,4.2,5.5,4.1
	c1.6-0.2,3.9,2.5,2.7,3.8c-1.2,1.2-3.5,1.3-3.1,4.4c0.1,0.9,2.8,0.8,2.8,2.2c0,1.4-1.4,2.9-0.3,4.5c0.2,0.3,0.5,0.6,0.7,0.8
	c-5.2,4.8-12.2,7.8-19.9,7.8c-16.2,0-29.4-13.2-29.4-29.4c0-4.9,1.2-9.5,3.4-13.6c0,5.3,2.8,9.7,4.1,11c4.3,4.3,10.6,2.9,11.4,6.5
	c0.8,3.6-4.3,3.6-4,6.4c0.3,2.8,7,3.5,5.5,6c-2,3.4,1.3,3.6,0.4,7.8c-0.5,2.3,2.8,2.7,4,1c0.9-1.3,0.7-2.9,2.6-4.9
	c2.3-2.4,7.6-2.8,7-6.8c-1-6.7-7.5-7.7-10.3-9.3c-3.2-1.8-2.4-6-3.1-8c-1-2.9-4.3,0.8-6-0.9c-2.9-2.7,0.5-6.6,3-6.5
	c5.1,0.2,6.7,5.2,8.6,5c1.8-0.2,3-2.7,3.4-4.1c0.7-3-1.2-1.6-1.9-3.2c-1-2.1,3.5-4.1,5.2-5.6c0.3-0.2,0.5-0.5,0.6-0.7
	c0.5-1-0.2-1.8-1.3-2.5c-2.3-1.4-6.5-2.5-6.7-4.7c-0.1-1.3,2.5-2,5.4-2.1c0.5,0,1,0.1,1.4,0.1c0.2-1.4,0.6-2.7,1.2-4
	c-1.4-0.2-2.8-0.3-4.3-0.3C15,8.6,0,23.6,0,42.1c0,18.5,15,33.5,33.5,33.5C52,75.6,67,60.6,67,42.1C67,39.6,66.7,37.2,66.2,34.8z
	 M54.3,0.1C44.8,1,38.4,10.1,40,19.5c1.7,9.5,10.4,12.4,14.8,23.1c0.4,1,1.7,1,2.1,0C61.8,30.8,72,28.4,72,16.1
	C72,6.7,63.9-0.8,54.3,0.1z M55.9,24.7c-4.7,0-8.5-3.8-8.5-8.5c0-4.7,3.8-8.5,8.5-8.5s8.5,3.8,8.5,8.5S60.6,24.7,55.9,24.7z"/>
</svg>
