<?xml version="1.0" encoding="utf-8"?>
<!-- Generator: Adobe Illustrator 24.0.3, SVG Export Plug-In . SVG Version: 6.00 Build 0)  -->
<svg version="1.1" id="Слой_1" xmlns="http://www.w3.org/2000/svg" xmlns:xlink="http://www.w3.org/1999/xlink" x="0px" y="0px"
	 viewBox="0 0 23.6 23.6" style="enable-background:new 0 0 23.6 23.6;" xml:space="preserve">
<style type="text/css">
	.st0{fill:#0057FF;}
</style>
<path class="st0" d="M16.6,0H7C3.2,0,0,3.2,0,7v9.5c0,3.9,3.2,7,7,7h9.5c3.9,0,7-3.2,7-7V7C23.6,3.2,20.4,0,16.6,0z M21.2,16.6
	c0,2.6-2.1,4.7-4.7,4.7H7c-2.6,0-4.7-2.1-4.7-4.7V7c0-2.6,2.1-4.7,4.7-4.7h9.5c2.6,0,4.7,2.1,4.7,4.7V16.6z"/>
<path class="st0" d="M11.8,5.7c-3.4,0-6.1,2.7-6.1,6.1c0,3.4,2.7,6.1,6.1,6.1c3.4,0,6.1-2.7,6.1-6.1C17.9,8.4,15.2,5.7,11.8,5.7z
	 M11.8,15.5c-2.1,0-3.7-1.7-3.7-3.7c0-2.1,1.7-3.7,3.7-3.7s3.7,1.7,3.7,3.7S13.9,15.5,11.8,15.5z"/>
<path class="st0" d="M17.9,7.2c0.8,0,1.5-0.7,1.5-1.5s-0.7-1.5-1.5-1.5c-0.8,0-1.5,0.7-1.5,1.5S17.1,7.2,17.9,7.2z"/>
</svg>
