<svg width="0" height="0" class="hidden">
  <symbol xmlns="http://www.w3.org/2000/svg" viewBox="0 0 21 15.5" id="Group">
    <path d="M0 0h21v15.5H0V0z" fill-rule="evenodd" clip-rule="evenodd" fill="#fff"></path>
    <path d="M0 5.2h21v10.3H0V5.2z" fill-rule="evenodd" clip-rule="evenodd" fill="#0039a6"></path>
    <path d="M0 10.3h21v5.2H0v-5.2z" fill-rule="evenodd" clip-rule="evenodd" fill="#d52b1e"></path>
  </symbol>
  <symbol xmlns="http://www.w3.org/2000/svg" viewBox="0 0 21 15" id="Group 41">
    <path d="M0 0h21v15H0V0z" fill="#999"></path>
    <path d="M0 0v1.7L18.7 15H21v-1.7L2.3 0H0zm21 0v1.7L2.3 15H0v-1.7L18.7 0H21z"></path>
    <path d="M8.8 0v15h3.5V0H8.8zM0 5v5h21V5H0z"></path>
    <path d="M0 6v3h21V6H0zm9.4-6v15h2.1V0H9.4zM0 15l7-5h1.6l-7 5H0zM0 0l7 5H5.4L0 1.1V0zm12.4 5l7-5H21l-7 5h-1.6zM21 15l-7-5h1.6l5.4 3.9V15z" fill="#bbb"></path>
  </symbol>
</svg>