<?xml version="1.0" encoding="utf-8"?>
<!-- Generator: Adobe Illustrator 24.0.3, SVG Export Plug-In . SVG Version: 6.00 Build 0)  -->
<svg version="1.1" id="Слой_1" xmlns="http://www.w3.org/2000/svg" xmlns:xlink="http://www.w3.org/1999/xlink" x="0px" y="0px"
	 viewBox="0 0 23.6 23.6" style="enable-background:new 0 0 23.6 23.6;" xml:space="preserve">
<style type="text/css">
	.st0{fill:#0057FF;}
	.st1{fill-rule:evenodd;clip-rule:evenodd;fill:#FFFFFF;}
</style>
<path class="st0" d="M4,0h15.6c2.2,0,4,1.8,4,4v15.6c0,2.2-1.8,4-4,4H4c-2.2,0-4-1.8-4-4V4C0,1.8,1.8,0,4,0z"/>
<path class="st1" d="M17,13.4c0.5,0.5,1,0.9,1.4,1.4c0.2,0.2,0.4,0.5,0.5,0.7c0.2,0.4,0,0.8-0.3,0.8l-2.1,0c-0.5,0-1-0.2-1.3-0.5
	c-0.3-0.3-0.6-0.6-0.8-0.9c-0.1-0.1-0.2-0.2-0.4-0.3c-0.3-0.2-0.5-0.1-0.7,0.2c-0.2,0.3-0.2,0.6-0.2,1c0,0.5-0.2,0.6-0.7,0.6
	c-1.1,0.1-2.1-0.1-3-0.6c-0.8-0.5-1.5-1.1-2-1.9C6.2,12.3,5.4,10.7,4.6,9C4.4,8.7,4.6,8.5,5,8.5c0.7,0,1.4,0,2.1,0
	c0.3,0,0.5,0.2,0.6,0.4C8,9.8,8.5,10.7,9,11.5c0.2,0.2,0.3,0.4,0.5,0.6c0.2,0.2,0.4,0.1,0.5-0.2c0.1-0.2,0.1-0.4,0.1-0.5
	c0.1-0.6,0.1-1.3,0-1.9C10.1,9,9.9,8.8,9.5,8.7c-0.2,0-0.2-0.1-0.1-0.2c0.2-0.2,0.3-0.3,0.6-0.3h2.4c0.4,0.1,0.5,0.2,0.5,0.6l0,2.6
	c0,0.1,0.1,0.6,0.3,0.7c0.2,0.1,0.4-0.1,0.5-0.2c0.6-0.6,1-1.3,1.3-2.1c0.2-0.3,0.3-0.7,0.4-1c0.1-0.3,0.3-0.4,0.5-0.4l2.3,0
	c0.1,0,0.1,0,0.2,0C19,8.5,19.1,8.7,19,9.1c-0.2,0.6-0.6,1.1-0.9,1.6c-0.4,0.5-0.8,1-1.2,1.6C16.6,12.7,16.6,12.9,17,13.4z"/>
</svg>
