<svg width="0" height="0" class="hidden">
  <symbol xmlns="http://www.w3.org/2000/svg" viewBox="0 0 9 4.8" id="arrow-down">
    <path d="M0 .7L.6 0l3.9 3.5L8.4 0l.6.7-4.5 4L0 .7z" fill-rule="evenodd" clip-rule="evenodd"></path>
  </symbol>
  <symbol xmlns="http://www.w3.org/2000/svg" viewBox="0 0 17 18" id="comparison">
    <path d="M17 9h-3v9h3V9zM3 4.5H0V18h3V4.5zM10 0H7v18h3V0z"></path>
  </symbol>
  <symbol xmlns="http://www.w3.org/2000/svg" viewBox="0 0 20.2 20.2" id="search">
    <path d="M20.2 18.8l-5.9-5.9C15.4 11.5 16 9.8 16 8c0-1.6-.5-3.1-1.3-4.4-.9-1.3-2.1-2.3-3.6-2.9C9.6 0 8-.2 6.4.2s-3 1.1-4.1 2.2S.5 4.9.2 6.4C-.2 8 0 9.6.6 11.1c.6 1.5 1.6 2.7 2.9 3.6C4.9 15.5 6.4 16 8 16c1.8 0 3.5-.6 4.9-1.7l5.9 5.9 1.4-1.4zM8 14c-1.2 0-2.3-.4-3.3-1-1-.7-1.8-1.6-2.2-2.7C2 9.2 1.9 8 2.1 6.8c.2-1.2.8-2.2 1.6-3.1.8-.8 1.9-1.4 3.1-1.6 1.2-.2 2.4-.1 3.5.4s2 1.2 2.7 2.2c.7 1 1 2.1 1 3.3 0 1.6-.6 3.1-1.8 4.2C11.1 13.4 9.6 14 8 14z"></path>
  </symbol>
  <symbol xmlns="http://www.w3.org/2000/svg" viewBox="0 0 14 20" id="subtract">
    <path d="M5 0h9v20H0V5l5-5zm2 6h4v1H7V6zm4 4V9H3v1h8zm0 2v1H3v-1h8zm-4 4v-1H3v1h4z" fill-rule="evenodd" clip-rule="evenodd"></path>
  </symbol>
  <symbol xmlns="http://www.w3.org/2000/svg" viewBox="0 0 21.3 25.3" id="user">
    <path d="M10.7 10.7c1.1 0 2.1-.3 3-.9.9-.6 1.6-1.4 2-2.4.4-1 .5-2 .3-3.1-.2-1-.7-2-1.5-2.7C13.8.9 12.8.3 11.8.1c-1-.2-2.1-.1-3.1.3s-1.8 1.1-2.4 2c-.6.9-.9 1.9-.9 3 0 1.4.6 2.8 1.6 3.8.9.9 2.3 1.5 3.7 1.5zm10.2 8.2c-2.7-2.7-6.4-4.2-10.3-4.2-3.9 0-7.6 1.5-10.3 4.2l-.3.4v6h21.3v-6l-.4-.4z"></path>
  </symbol>
  <symbol viewBox="0 0 16 14" xmlns="http://www.w3.org/2000/svg" id="burger">
    <path d="M0 0v2h16V0H0zm0 8h16V6H0v2zm0 6h16v-2H0v2z"></path>
  </symbol>
</svg>