<?xml version="1.0" encoding="utf-8"?>
<!-- Generator: Adobe Illustrator 24.0.3, SVG Export Plug-In . SVG Version: 6.00 Build 0)  -->
<svg version="1.1" id="Слой_1" xmlns="http://www.w3.org/2000/svg" xmlns:xlink="http://www.w3.org/1999/xlink" x="0px" y="0px"
	 viewBox="0 0 21.3 25.3" style="enable-background:new 0 0 21.3 25.3;" xml:space="preserve">
<style type="text/css">
	.st0{fill:#FFFFFF;}
</style>
<path class="st0" d="M10.7,10.7c1.1,0,2.1-0.3,3-0.9c0.9-0.6,1.6-1.4,2-2.4c0.4-1,0.5-2,0.3-3.1c-0.2-1-0.7-2-1.5-2.7
	c-0.7-0.7-1.7-1.3-2.7-1.5c-1-0.2-2.1-0.1-3.1,0.3c-1,0.4-1.8,1.1-2.4,2c-0.6,0.9-0.9,1.9-0.9,3c0,1.4,0.6,2.8,1.6,3.8
	C7.9,10.1,9.3,10.7,10.7,10.7z M20.9,18.9c-2.7-2.7-6.4-4.2-10.3-4.2c-3.9,0-7.6,1.5-10.3,4.2L0,19.3v6h21.3v-6L20.9,18.9z"/>
</svg>
