<svg width="0" height="0" class="hidden">
  <symbol xmlns="http://www.w3.org/2000/svg" viewBox="0 0 451.846 451.847" id="arrow-point-to-right">
          <path d="M345.441 248.292L151.154 442.573c-12.359 12.365-32.397 12.365-44.75 0-12.354-12.354-12.354-32.391 0-44.744L278.318 225.92 106.409 54.017c-12.354-12.359-12.354-32.394 0-44.748 12.354-12.359 32.391-12.359 44.75 0l194.287 194.284c6.177 6.18 9.262 14.271 9.262 22.366 0 8.099-3.091 16.196-9.267 22.373z"
            ></path>
        </symbol>
  <symbol xmlns="http://www.w3.org/2000/svg" viewBox="0 0 223.708 223.708" id="camera">
    <path d="M222.399 60.893a7.003 7.003 0 0 0-5.505-2.922l-20.248-.539 2.301-7.406a7 7 0 0 0-4.607-8.762L70.194 2.69a6.995 6.995 0 0 0-8.761 4.607L42.146 69.37a7 7 0 0 0 4.607 8.762l25.148 7.814-4.154 13.37a7 7 0 0 0 4.607 8.761l11.424 3.55-28.371 45.868A33.12 33.12 0 0 0 42 154.67H7a7 7 0 0 0-7 7v52.667a7 7 0 0 0 7 7h35c18.38 0 33.333-14.953 33.333-33.333 0-8.571-3.254-16.395-8.588-22.307.132-.174.265-.347.382-.536l30.459-49.243 14.876 4.622a6.995 6.995 0 0 0 2.079.317 7.005 7.005 0 0 0 6.683-4.925l4.154-13.37 45.52 14.144a6.996 6.996 0 0 0 5.335-.49 6.999 6.999 0 0 0 3.426-4.118l2.301-7.406 16.989 11.031a7.001 7.001 0 0 0 10.497-3.794l13.946-44.883a7 7 0 0 0-.993-6.153zM14 168.669h9.333v38.667H14v-38.667zm28 38.667h-4.667v-38.667H42c10.66 0 19.333 8.673 19.333 19.333S52.66 207.336 42 207.336zm67.932-102.243l-26.739-8.309 2.077-6.685 26.739 8.309-2.077 6.685zm58.436-3.833L57.592 66.839l15.133-48.703 110.776 34.42-2.967 9.549-9.199 29.604-.001.005-2.966 9.546zm30.452-2.313l-12.543-8.144 6.053-19.481 14.95.398-8.46 27.227z"
      data-original="#000000"></path>
    <path d="M74.084 51.697c-1.84 0-3.65.75-4.95 2.05-1.3 1.31-2.05 3.11-2.05 4.95s.75 3.65 2.05 4.95a7.019 7.019 0 0 0 4.95 2.05c1.84 0 3.65-.74 4.95-2.05 1.3-1.3 2.05-3.11 2.05-4.95s-.75-3.64-2.05-4.95a7.061 7.061 0 0 0-4.95-2.05z" data-original="#000000"></path>
  </symbol>
  <symbol xmlns="http://www.w3.org/2000/svg" viewBox="0 0 512 512" id="email">
    <path d="M467 61H45C20.218 61 0 81.196 0 106v300c0 24.72 20.128 45 45 45h422c24.72 0 45-20.128 45-45V106c0-24.72-20.128-45-45-45zm-6.214 30L256.954 294.833 51.359 91h409.427zM30 399.788V112.069l144.479 143.24L30 399.788zM51.213 421l144.57-144.57 50.657 50.222c5.864 5.814 15.327 5.795 21.167-.046L317 277.213 460.787 421H51.213zM482 399.787L338.213 256 482 112.212v287.575z"></path>
  </symbol>
  <symbol xmlns="http://www.w3.org/2000/svg" viewBox="0 0 512 512" id="ethernet (1)">
    <path d="M230.4 8.533h-25.6A8.525 8.525 0 0 0 196.267 0h-51.2a8.525 8.525 0 0 0-8.533 8.533h-25.6a8.525 8.525 0 0 0-8.533 8.533V307.2c0 .132.069.242.075.372.005.115-.052.221-.042.336l7.875 94.575c.783 8.823 8.151 15.602 17.008 15.65H128v76.8c.012 9.421 7.646 17.054 17.067 17.067h51.2c9.421-.012 17.054-7.646 17.067-17.067v-76.8h.683c8.857-.046 16.223-6.827 17-15.65l5.096-61.126.004-.024-.002-.01 2.785-33.415c.01-.115-.047-.222-.042-.336.006-.131.075-.24.075-.372V17.067a8.532 8.532 0 0 0-8.533-8.534zm-76.8 8.534h34.133v25.6H153.6v-25.6zm0 42.666h34.133V102.4H153.6V59.733zm25.6 59.734v76.8h-17.067v-76.8H179.2zM119.467 25.6h17.067v17.067h-17.067V25.6zm0 34.133h17.067v51.2a8.525 8.525 0 0 0 8.533 8.533V179.2h-25.6V59.733zm25.6 435.2v-76.8h51.2l.017 76.8h-51.217zm68.95-85.333v-8.533h.009l-.009 8.533zm-.009-8.533h-86.692L125.895 384h89.536l-1.423 17.067zm2.847-34.134h-92.382l-1.421-17.067h95.226l-1.423 17.067zm2.847-34.133H121.63l-1.422-17.067h100.917l-1.423 17.067zm2.165-34.133h-102.4v-102.4h25.6v8.533a8.525 8.525 0 0 0 8.533 8.533h34.133a8.525 8.525 0 0 0 8.533-8.533v-8.533h25.6v102.4zm0-119.467h-25.6v-59.733a8.525 8.525 0 0 0 8.533-8.533v-51.2h17.067V179.2zm0-136.533H204.8V25.6h17.067v17.067zm185.235-31.636a8.529 8.529 0 0 0-6.035-2.498h-25.6A8.525 8.525 0 0 0 366.933 0h-51.2a8.525 8.525 0 0 0-8.533 8.533h-25.6a8.525 8.525 0 0 0-8.533 8.533V307.2c0 .132.069.242.075.372.005.115-.052.221-.042.336l7.875 94.575c.783 8.823 8.151 15.602 17.008 15.65h.683v76.8c.012 9.421 7.646 17.054 17.067 17.067h51.2c9.421-.012 17.054-7.646 17.067-17.067v-76.8h.683c8.857-.046 16.223-6.827 17-15.65l5.096-61.126.004-.024-.002-.01 2.785-33.415c.01-.115-.047-.222-.042-.336.006-.131.075-.24.075-.372V17.067a8.524 8.524 0 0 0-2.497-6.036zm-82.835 6.036H358.4v25.6h-34.133v-25.6zm0 42.666H358.4V102.4h-34.133V59.733zm25.6 59.734v76.8H332.8v-76.8h17.067zM290.133 25.6H307.2v17.067h-17.067V25.6zm0 34.133H307.2v51.2a8.525 8.525 0 0 0 8.533 8.533V179.2h-25.6V59.733zm25.6 435.2v-76.8h51.2l.017 76.8h-51.217zm68.951-85.333v-8.533h.009l-.009 8.533zm-.009-8.533h-86.692L296.562 384h89.536l-1.423 17.067zm2.847-34.134H295.14l-1.421-17.067h95.226l-1.423 17.067zm2.847-34.133h-98.072l-1.422-17.067h100.917l-1.423 17.067zm2.164-34.133h-102.4v-102.4h25.6v8.533a8.525 8.525 0 0 0 8.533 8.533H358.4a8.525 8.525 0 0 0 8.533-8.533v-8.533h25.6v102.4zm0-119.467h-25.6v-59.733a8.525 8.525 0 0 0 8.533-8.533v-51.2h17.067V179.2zm0-136.533h-17.067V25.6h17.067v17.067z"></path>
  </symbol>
  <symbol xmlns="http://www.w3.org/2000/svg" viewBox="0 0 512 512" id="intercom">
    <path d="M316 362c-24.813 0-45 20.187-45 45s20.187 45 45 45 45-20.187 45-45-20.187-45-45-45zm0 60c-8.271 0-15-6.729-15-15s6.729-15 15-15 15 6.729 15 15-6.729 15-15 15z"></path>
    <circle cx="256" cy="135" r="15"></circle>
    <path d="M256 60c-41.355 0-75 33.645-75 75s33.645 75 75 75 75-33.645 75-75-33.645-75-75-75zm0 120c-24.813 0-45-20.187-45-45s20.187-45 45-45 45 20.187 45 45-20.187 45-45 45z"></path>
    <path d="M376 0H136c-24.813 0-45 20.187-45 45v422c0 24.813 20.187 45 45 45h240c24.813 0 45-20.187 45-45V45c0-24.813-20.187-45-45-45zm15 467c0 8.271-6.729 15-15 15H136c-8.271 0-15-6.729-15-15V45c0-8.271 6.729-15 15-15h240c8.271 0 15 6.729 15 15v422z"></path>
    <path d="M346 242H166c-8.284 0-15 6.716-15 15s6.716 15 15 15h180c8.284 0 15-6.716 15-15s-6.716-15-15-15z"></path>
    <circle cx="346" cy="317" r="15"></circle>
    <circle cx="286" cy="317" r="15"></circle>
    <circle cx="226" cy="317" r="15"></circle>
    <circle cx="166" cy="317" r="15"></circle>
    <circle cx="166" cy="377" r="15"></circle>
    <circle cx="226" cy="377" r="15"></circle>
    <circle cx="226" cy="437" r="15"></circle>
    <circle cx="166" cy="437" r="15"></circle>
  </symbol>
  <symbol xmlns="http://www.w3.org/2000/svg" viewBox="0 0 512 512" id="magnifying-glass">
    <path d="M495 466.2L377.2 348.4c29.2-35.6 46.8-81.2 46.8-130.9C424 103.5 331.5 11 217.5 11 103.4 11 11 103.5 11 217.5S103.4 424 217.5 424c49.7 0 95.2-17.5 130.8-46.7L466.1 495c8 8 20.9 8 28.9 0 8-7.9 8-20.9 0-28.8zm-277.5-83.3C126.2 382.9 52 308.7 52 217.5S126.2 52 217.5 52C308.7 52 383 126.3 383 217.5s-74.3 165.4-165.5 165.4z"
      data-original="#000000"></path>
  </symbol>
  <symbol xmlns="http://www.w3.org/2000/svg" viewBox="0 0 512 512" id="phone-call">
    <path d="M498.846 397.887l-84.833-84.832c-17.581-17.582-46.039-17.585-63.623 0l-21.209 21.209c-17.544 17.542-46.084 17.54-63.694-.07l-88.822-87.646c-17.542-17.542-17.542-46.082 0-63.624l21.208-21.208c17.542-17.541 17.542-46.082 0-63.624L113.042 13.26C95.5-4.282 66.957-4.28 49.418 13.26L28.212 34.468C.684 61.995-7.412 122.687 7.083 192.857c9.238 44.721 35.815 130.824 110.02 205.029 74.055 74.056 159.46 99.471 203.777 108.029 48.713 9.407 121.92 11.639 156.757-23.196l21.21-21.209c17.538-17.541 17.538-46.082-.001-63.623zM70.628 34.468c5.848-5.847 15.36-5.848 21.209 0l84.832 84.832c5.848 5.848 5.848 15.361 0 21.209l-10.551 10.551L60.076 45.02l10.552-10.552zm255.94 441.999c-40.948-7.907-119.855-31.386-188.257-99.788-68.68-68.682-93.295-148.452-101.855-189.889-11.339-54.888-6.618-96.147 4.392-118.583l105.117 105.118c-19.291 29.105-16.121 68.817 9.564 94.501l88.822 87.646c25.611 25.611 65.3 28.8 94.43 9.494l105.202 105.203c-32.058 16.257-81.913 13.153-117.415 6.298zm151.07-36.165l-10.552 10.552-106.04-106.039 10.551-10.551c5.86-5.861 15.346-5.861 21.208 0l84.832 84.832c5.847 5.846 5.847 15.36.001 21.206zM287.033.115c-8.282 0-14.996 6.714-14.996 14.996s6.714 14.996 14.996 14.996c107.496 0 194.951 87.455 194.951 194.951 0 8.282 6.714 14.996 14.996 14.996s14.996-6.714 14.996-14.996C511.976 101.024 411.067.115 287.033.115z"
      data-original="#000000"></path>
    <path d="M287.033 60.1c-8.282 0-14.996 6.714-14.996 14.996s6.714 14.996 14.996 14.996c74.42 0 134.966 60.546 134.966 134.966 0 8.282 6.714 14.996 14.996 14.996s14.996-6.714 14.996-14.996c0-90.958-74-164.958-164.958-164.958z" data-original="#000000"></path>
    <path d="M287.033 120.085c-8.282 0-14.996 6.714-14.996 14.996s6.714 14.996 14.996 14.996c41.345 0 74.981 33.636 74.981 74.981 0 8.282 6.714 14.996 14.996 14.996s14.996-6.714 14.996-14.996c.001-57.882-47.091-104.973-104.973-104.973z" data-original="#000000"></path>
    <path d="M287.033 180.07c-8.282 0-14.996 6.714-14.996 14.996s6.714 14.996 14.996 14.996c8.269 0 14.996 6.727 14.996 14.996 0 8.282 6.714 14.996 14.996 14.996s14.996-6.714 14.996-14.996c.001-24.807-20.181-44.988-44.988-44.988z" data-original="#000000"></path>
  </symbol>
  <symbol xmlns="http://www.w3.org/2000/svg" viewBox="0 0 511.998 511.998" id="sketch">
    <path d="M74.664 85.179c-17.673 0-32 14.327-32 32v85.333h21.333v-85.333c0-5.891 4.776-10.667 10.667-10.667h256V85.179h-256zm0 320c-5.891 0-10.667-4.776-10.667-10.667V287.845H42.664v106.667c0 17.673 14.327 32 32 32h106.667v-21.333H74.664z" data-original="#000000"
       ></path>
    <path d="M338.206 432.688L79.155 173.637c-4.165-4.164-10.917-4.164-15.083 0l-60.949 60.95c-4.164 4.165-4.164 10.917 0 15.083l259.051 259.05a10.662 10.662 0 0 0 15.082 0l60.949-60.949c4.165-4.166 4.165-10.918.001-15.083zm-68.491 53.408L25.747 242.128l45.867-45.867L315.582 440.23l-45.867 45.866z"
      data-original="#000000"  ></path>
    <path d="M469.331 405.179h-160v21.333h117.333v53.333c0 5.891 4.776 10.667 10.667 10.667h32c23.564 0 42.667-19.102 42.667-42.667 0-23.564-19.103-42.666-42.667-42.666zm0 64h-21.333v-42.667h21.333c11.782 0 21.333 9.551 21.333 21.333 0 11.783-9.551 21.334-21.333 21.334z"
      data-original="#000000"  ></path>
    <path d="M469.331 85.179h-53.333v21.333h53.333c11.782 0 21.333 9.551 21.333 21.333v320h21.333v-320c.001-23.564-19.102-42.666-42.666-42.666zM163.124 333.638l32.003-32.003 15.084 15.085-32.002 32.002zm-42.665-42.668l32.002-32.002 15.085 15.085-32.003 32.003zm85.309 85.335l32.002-32.003 15.085 15.085-32.003 32.002zm42.686 42.688l32.002-32.003 15.085 15.085-32.003 32.002zM77.763 248.304l32.002-32.002 15.085 15.084-32.003 32.003z"
      data-original="#000000"  ></path>
    <path d="M460.094 23.824L445.352 9.083c-12.473-11.907-32.103-11.907-44.576 0L238.579 171.28c-4.164 4.165-4.164 10.917 0 15.083l44.235 44.235a10.588 10.588 0 0 0 7.541 3.125 10.67 10.67 0 0 0 7.541-3.125L460.094 68.4l.015-.015c12.301-12.309 12.294-32.26-.015-44.561zm-15.072 29.483L290.355 207.973l-29.152-29.152L415.87 24.165a10.422 10.422 0 0 1 14.4 0l14.752 14.731.005.005c3.976 3.979 3.974 10.429-.005 14.406z"
      data-original="#000000"  ></path>
    <path d="M286.931 212.944l-46.037 15.371 15.371-46.112-20.267-6.752-22.123 66.357a10.685 10.685 0 0 0-.547 3.373c.001 5.891 4.778 10.666 10.669 10.664a10.832 10.832 0 0 0 3.328-.512l66.357-22.123-6.751-20.266zM371.278 53.65l15.085-15.085L430.599 82.8l-15.085 15.085z"
      data-original="#000000"  ></path>
    <path data-original="#000000"   d="M223.998 234.512h160v21.333h-160zm181.333 0h21.333v21.333h-21.333zm42.667 0h21.333v21.333h-21.333z"></path>
  </symbol>
  <symbol xmlns="http://www.w3.org/2000/svg" viewBox="-26 0 511 512" id="wrench (1)">
    <path d="M458.8 294.844c0-24.203-19.69-43.895-43.894-43.895h-51.144v-68.64c29.707-17.204 48.418-49.153 48.418-83.926 0-20.063-6.078-39.32-17.586-55.688C383.359 26.72 367.8 14.621 349.598 7.72L329.25 0v65.14l-14.027 8.66-14.032-8.66V0l-20.343 7.715c-18.203 6.906-33.766 19.004-44.996 34.98-11.508 16.367-17.59 35.621-17.59 55.688 0 35.176 19.011 67.293 49.195 84.379v20.207h-63.605l-80.676 64.863h-10.531v-23.988H.5V512h112.148v-28.473L167.332 512H384.25v-.824c20.18-3.946 35.453-21.754 35.453-43.07a43.613 43.613 0 0 0-5.578-21.38c11.668-7.898 19.352-21.253 19.352-36.374 0-7.942-2.13-15.391-5.836-21.829 11.308-7.945 18.722-21.082 18.722-35.925a43.607 43.607 0 0 0-5.968-22.051c11.132-7.969 18.406-21 18.406-35.703zM248.298 98.383c0-19.52 8.664-37.797 22.86-50.305v33.813l44.066 27.214 44.062-27.21V48.078c14.2 12.508 22.86 30.785 22.86 50.305 0 26.308-15.524 50.277-39.551 61.066l-8.867 3.985v87.52h-36.235v-87.282l-9.008-3.934c-24.414-10.66-40.187-34.742-40.187-61.355zM82.613 481.965H30.535V273.879h52.078zm293.2 0h-201.13l-62.035-32.3V297.866h21.106l80.676-64.86h52.625v47.981h147.851c7.64 0 13.86 6.215 13.86 13.86 0 7.64-6.22 13.859-13.86 13.859h-87.52v30.035h75.083c7.64 0 13.855 6.215 13.855 13.86 0 7.64-6.215 13.859-13.855 13.859h-87.965v30.035h75.078c7.645 0 13.86 6.215 13.86 13.86 0 7.64-6.215 13.859-13.86 13.859H300.73v30.035h75.083c7.64 0 13.859 6.215 13.859 13.86 0 7.64-6.219 13.855-13.86 13.855zm0 0"
      data-original="#000000"  ></path>
  </symbol>
  <symbol viewBox="0 0 551.13 551.13" xmlns="http://www.w3.org/2000/svg" id="zoom-in">
    <path d="M223.896 103.337H189.45v86.114h-86.114v34.446h86.114v86.114h34.446v-86.114h86.114v-34.446h-86.114z"></path>
    <path d="M364.345 339.991c30.506-36.023 49.003-82.523 49.003-133.317C413.348 92.707 320.64 0 206.674 0S0 92.707 0 206.674s92.707 206.674 206.674 206.674c50.794 0 97.294-18.497 133.317-49.003L526.776 551.13l24.354-24.354-186.785-186.785zm-157.671 38.911c-94.961 0-172.228-77.267-172.228-172.228S111.713 34.446 206.674 34.446s172.228 77.267 172.228 172.228-77.267 172.228-172.228 172.228z"></path>
  </symbol>
  <symbol xmlns="http://www.w3.org/2000/svg" viewBox="0 0 512 512" id="calculator">
    <path d="M472.968 123.712H310.602v-48.23a15 15 0 0 0-4.394-10.607L245.72 4.393A15.003 15.003 0 0 0 235.113 0H47.896C21.486 0 0 21.49 0 47.904v292.479c0 26.414 21.486 47.904 47.896 47.904h153.502v84.68c0 21.522 17.51 39.032 39.032 39.032h232.537C494.49 512 512 494.49 512 472.968V162.744c0-21.522-17.51-39.032-39.032-39.032zM47.896 358.288c-9.868 0-17.896-8.032-17.896-17.904V47.904C30 38.032 38.028 30 47.896 30H228.9l51.701 51.695v42.017H240.43c-21.522 0-39.032 17.51-39.032 39.032v28.402h-122.7c-8.284 0-15 6.716-15 15s6.716 15 15 15h122.7v19.94h-122.7c-8.284 0-15 6.716-15 15s6.716 15 15 15h122.7v20.288h-122.7c-8.284 0-15 6.716-15 15s6.716 15 15 15h122.7v36.913H47.896zM482 472.968c0 4.98-4.052 9.032-9.032 9.032H240.431c-4.98 0-9.032-4.052-9.032-9.032V162.744c0-4.98 4.052-9.032 9.032-9.032h232.537c4.98 0 9.032 4.052 9.032 9.032z"
      data-original="#000000" data-old_color="#000000"></path>
    <path d="M78.698 89.54h44.987c8.284 0 15-6.716 15-15s-6.716-15-15-15H78.698c-8.284 0-15 6.716-15 15s6.716 15 15 15zm0 48.462h82.987c8.284 0 15-6.716 15-15s-6.716-15-15-15H78.698c-8.284 0-15 6.716-15 15s6.716 15 15 15zM452 168.723H261.398c-8.284 0-15 6.716-15 15v55.204c0 8.284 6.716 15 15 15H452c8.284 0 15-6.716 15-15v-55.204c0-8.285-6.716-15-15-15zm-15 55.204H276.398v-25.204H437zm-146.199 54.5h-29.402c-8.284 0-15 6.716-15 15s6.716 15 15 15h29.402c8.284 0 15-6.716 15-15s-6.716-15-15-15zm51.197 30H371.4c8.284 0 15-6.716 15-15s-6.716-15-15-15h-29.402c-8.284 0-15 6.716-15 15s6.716 15 15 15zm110.002-30h-29.402c-8.284 0-15 6.716-15 15s6.716 15 15 15H452c8.284 0 15-6.716 15-15s-6.716-15-15-15zM290.801 426.451h-29.402c-8.284 0-15 6.716-15 15s6.716 15 15 15h29.402c8.284 0 15-6.716 15-15s-6.716-15-15-15zm80.599 0h-29.402c-8.284 0-15 6.716-15 15s6.716 15 15 15H371.4c8.284 0 15-6.716 15-15s-6.715-15-15-15zm80.6 0h-29.402c-8.284 0-15 6.716-15 15s6.716 15 15 15H452c8.284 0 15-6.716 15-15s-6.716-15-15-15zm-161.199-98.682h-29.402c-8.284 0-15 6.716-15 15s6.716 15 15 15h29.402c8.284 0 15-6.716 15-15s-6.716-15-15-15zm0 49.34h-29.402c-8.284 0-15 6.716-15 15s6.716 15 15 15h29.402c8.284 0 15-6.716 15-15s-6.716-15-15-15zm51.197-19.34H371.4c8.284 0 15-6.716 15-15s-6.716-15-15-15h-29.402c-8.284 0-15 6.716-15 15s6.716 15 15 15zm110.002-30h-29.402c-8.284 0-15 6.716-15 15s6.716 15 15 15H452c8.284 0 15-6.716 15-15s-6.716-15-15-15z"
      data-original="#000000" data-old_color="#000000"></path>
    <path d="M452 377.109H341.998c-8.284 0-15 6.716-15 15s6.716 15 15 15H452c8.284 0 15-6.716 15-15s-6.716-15-15-15z"></path>
  </symbol>
</svg>