<?xml version="1.0" encoding="iso-8859-1"?>
<!-- Generator: Adobe Illustrator 19.0.0, SVG Export Plug-In . SVG Version: 6.00 Build 0)  -->
<svg version="1.1" id="Capa_1" xmlns="http://www.w3.org/2000/svg" xmlns:xlink="http://www.w3.org/1999/xlink" x="0px" y="0px"
	 viewBox="0 0 512 512" style="enable-background:new 0 0 512 512;" xml:space="preserve">
<g>
	<g>
		<path d="M316,362c-24.813,0-45,20.187-45,45s20.187,45,45,45s45-20.187,45-45S340.813,362,316,362z M316,422
			c-8.271,0-15-6.729-15-15s6.729-15,15-15s15,6.729,15,15S324.271,422,316,422z"/>
	</g>
</g>
<g>
	<g>
		<circle cx="256" cy="135" r="15"/>
	</g>
</g>
<g>
	<g>
		<path d="M256,60c-41.355,0-75,33.645-75,75s33.645,75,75,75c41.355,0,75-33.645,75-75S297.355,60,256,60z M256,180
			c-24.813,0-45-20.187-45-45s20.187-45,45-45s45,20.187,45,45S280.813,180,256,180z"/>
	</g>
</g>
<g>
	<g>
		<path d="M376,0H136c-24.813,0-45,20.187-45,45v422c0,24.813,20.187,45,45,45h240c24.813,0,45-20.187,45-45V45
			C421,20.187,400.813,0,376,0z M391,467c0,8.271-6.729,15-15,15H136c-8.271,0-15-6.729-15-15V45c0-8.271,6.729-15,15-15h240
			c8.271,0,15,6.729,15,15V467z"/>
	</g>
</g>
<g>
	<g>
		<path d="M346,242H166c-8.284,0-15,6.716-15,15s6.716,15,15,15h180c8.284,0,15-6.716,15-15S354.284,242,346,242z"/>
	</g>
</g>
<g>
	<g>
		<circle cx="346" cy="317" r="15"/>
	</g>
</g>
<g>
	<g>
		<circle cx="286" cy="317" r="15"/>
	</g>
</g>
<g>
	<g>
		<circle cx="226" cy="317" r="15"/>
	</g>
</g>
<g>
	<g>
		<circle cx="166" cy="317" r="15"/>
	</g>
</g>
<g>
	<g>
		<circle cx="166" cy="377" r="15"/>
	</g>
</g>
<g>
	<g>
		<circle cx="226" cy="377" r="15"/>
	</g>
</g>
<g>
	<g>
		<circle cx="226" cy="437" r="15"/>
	</g>
</g>
<g>
	<g>
		<circle cx="166" cy="437" r="15"/>
	</g>
</g>
<g>
</g>
<g>
</g>
<g>
</g>
<g>
</g>
<g>
</g>
<g>
</g>
<g>
</g>
<g>
</g>
<g>
</g>
<g>
</g>
<g>
</g>
<g>
</g>
<g>
</g>
<g>
</g>
<g>
</g>
</svg>
