<svg width="122" height="92" viewBox="0 0 122 92" fill="none" xmlns="http://www.w3.org/2000/svg">
<path d="M119.338 51.414L73.2419 24.8427C71.6123 24.0142 69.8101 23.5824 67.982 23.5824C66.1539 23.5824 64.3516 24.0142 62.7221 24.8427L23.2109 47.7921C20.3134 49.4384 20.3299 52.2042 23.2109 53.8834L69.3072 80.4711C70.9368 81.2996 72.7391 81.7314 74.5672 81.7314C76.3953 81.7314 78.1975 81.2996 79.8271 80.4711L119.338 57.5053C122.269 55.8261 122.252 53.0932 119.338 51.414Z" fill="url(#paint0_linear)"/>
<path d="M94.7731 70.6824V59.718L2.99194 47.1732V58.1376L31.5388 74.617L35.7039 77.0206L59.8551 90.9647L94.7731 70.6824Z" fill="white"/>
<path d="M59.8551 91.7878C59.712 91.7885 59.5708 91.7546 59.4436 91.689L2.58041 58.8454C2.45369 58.7762 2.34835 58.6737 2.2758 58.5489C2.20324 58.4241 2.16623 58.2818 2.16883 58.1375V47.1567C2.16669 47.0382 2.19065 46.9208 2.23902 46.8127C2.28739 46.7045 2.35901 46.6084 2.44873 46.5311C2.53402 46.452 2.63605 46.3932 2.74721 46.359C2.85837 46.3248 2.97577 46.3161 3.09076 46.3335L94.8884 58.8948C95.0847 58.926 95.2637 59.0258 95.3933 59.1765C95.5229 59.3273 95.5948 59.5191 95.5963 59.7179V70.6823C95.5923 70.8253 95.5525 70.965 95.4806 71.0886C95.4087 71.2123 95.307 71.316 95.1847 71.3902L60.3161 91.689C60.1741 91.7628 60.0149 91.797 59.8551 91.7878V91.7878ZM3.881 57.6601L59.8551 90.0263L93.95 70.2707V60.4917L3.81513 48.1774L3.881 57.6601Z" fill="#93D0FF"/>
<path d="M94.7731 59.7179L70.6219 45.7737L61.9788 40.7854L37.8935 26.8742L2.99194 47.1731L31.5388 63.6525L35.7039 66.0561L59.8551 80.0003L94.7731 59.7179Z" fill="white"/>
<path d="M59.8551 80.8235C59.7096 80.8264 59.5665 80.7863 59.4436 80.7082L2.5804 47.8811C2.45368 47.8119 2.34835 47.7094 2.27579 47.5846C2.20324 47.4598 2.16623 47.3175 2.16883 47.1732C2.16676 47.0286 2.20205 46.886 2.27127 46.7591C2.34049 46.6322 2.44133 46.5253 2.56398 46.4488L37.482 26.1664C37.6071 26.0941 37.749 26.0561 37.8935 26.0561C38.038 26.0561 38.18 26.0941 38.3051 26.1664L95.1847 58.9936C95.3114 59.0654 95.4167 59.1695 95.4901 59.2953C95.5634 59.4211 95.602 59.5641 95.602 59.7097C95.602 59.8553 95.5634 59.9983 95.4901 60.1241C95.4167 60.25 95.3114 60.354 95.1847 60.4258L60.3161 80.7082C60.1793 80.7962 60.0173 80.8367 59.8551 80.8235V80.8235ZM4.62185 47.1567L59.8551 79.029L93.1268 59.7015L37.91 27.8127L4.62185 47.1567Z" fill="#93D0FF"/>
<path d="M27.0609 61.0679V72.0487L35.7039 77.0206V66.0562L27.0609 61.0679Z" fill="#5F98ED"/>
<path d="M35.7039 77.8602C35.5598 77.8529 35.4192 77.8135 35.2923 77.745L26.6492 72.8061C26.527 72.7319 26.4252 72.6282 26.3533 72.5046C26.2814 72.3809 26.2417 72.2412 26.2377 72.0982V61.1174C26.2385 60.9738 26.277 60.8328 26.3492 60.7087C26.4214 60.5845 26.5248 60.4813 26.6492 60.4095C26.7744 60.3372 26.9163 60.2992 27.0608 60.2992C27.2053 60.2992 27.3473 60.3372 27.4724 60.4095L36.1155 65.3484C36.2422 65.4175 36.3476 65.5201 36.4201 65.6449C36.4927 65.7697 36.5296 65.912 36.527 66.0563V77.0371C36.5262 77.1807 36.4878 77.3217 36.4156 77.4459C36.3433 77.57 36.2399 77.6732 36.1155 77.745C35.9894 77.8157 35.8483 77.8552 35.7039 77.8602ZM27.884 71.5714L34.8807 75.6048V66.5337L27.884 62.5003V71.5714Z" fill="#93D0FF"/>
<path d="M59.8551 80.0004V90.9647L94.7731 70.6824V59.718L59.8551 80.0004Z" fill="white"/>
<path d="M59.8551 91.7879C59.712 91.7885 59.5708 91.7547 59.4436 91.6891C59.3167 91.6159 59.2117 91.5101 59.1394 91.3828C59.067 91.2555 59.03 91.1111 59.032 90.9647V80.0827C59.0294 79.9384 59.0664 79.7961 59.139 79.6713C59.2115 79.5465 59.3168 79.444 59.4436 79.3748L94.3615 59.0759C94.4867 59.0037 94.6286 58.9656 94.7731 58.9656C94.9176 58.9656 95.0596 59.0037 95.1847 59.0759C95.3093 59.1516 95.4125 59.2579 95.4845 59.3847C95.5566 59.5115 95.595 59.6545 95.5963 59.8003V70.7646C95.5923 70.9076 95.5525 71.0473 95.4806 71.171C95.4087 71.2947 95.307 71.3983 95.1847 71.4725L60.3161 91.6891C60.1741 91.7629 60.0149 91.797 59.8551 91.7879V91.7879ZM60.6783 80.4778V89.5324L93.95 70.2049V61.1338L60.6783 80.4778Z" fill="#93D0FF"/>
<path d="M81.718 61.4632C79.5284 60.1956 79.512 58.1706 81.718 56.87L66.5556 48.1117L42.2068 34.0688C40.9804 34.6933 39.6237 35.0188 38.2475 35.0188C36.8713 35.0188 35.5145 34.6933 34.2881 34.0688L15.3392 45.0825C17.5288 46.3502 17.5453 48.3751 15.3392 49.6757L39.6551 63.7186L54.8175 72.4605C56.045 71.8398 57.4013 71.5165 58.7768 71.5165C60.1524 71.5165 61.5086 71.8398 62.7362 72.4605L63.2794 72.8227L82.3106 61.776L81.718 61.4632Z" fill="white"/>
<path d="M63.3618 73.6457C63.1781 73.6493 62.9984 73.5914 62.8515 73.4811C62.7166 73.3637 62.5672 73.2641 62.4069 73.1847C61.3057 72.6329 60.0909 72.3455 58.8592 72.3455C57.6274 72.3455 56.4126 72.6329 55.3114 73.1847C55.1862 73.257 55.0443 73.295 54.8998 73.295C54.7553 73.295 54.6134 73.257 54.4882 73.1847L14.9771 50.3835C14.85 50.314 14.7439 50.2117 14.67 50.0871C14.5962 49.9626 14.5572 49.8204 14.5572 49.6756C14.5572 49.5308 14.5962 49.3886 14.67 49.2641C14.7439 49.1395 14.85 49.0371 14.9771 48.9677C15.7508 48.5067 16.1954 47.947 16.1954 47.3214C16.1522 46.9628 16.0153 46.6218 15.7986 46.3328C15.5818 46.0438 15.2928 45.817 14.9606 45.6751C14.834 45.6033 14.7286 45.4992 14.6553 45.3734C14.582 45.2475 14.5433 45.1046 14.5433 44.959C14.5433 44.8134 14.582 44.6703 14.6553 44.5445C14.7286 44.4187 14.834 44.3146 14.9606 44.2428L33.9754 33.3608C34.1005 33.2885 34.2424 33.2505 34.3869 33.2505C34.5314 33.2505 34.6734 33.2885 34.7985 33.3608C35.8997 33.9126 37.1145 34.2 38.3463 34.2C39.5781 34.2 40.7928 33.9126 41.8941 33.3608C42.0192 33.2885 42.1611 33.2505 42.3056 33.2505C42.4501 33.2505 42.5921 33.2885 42.7172 33.3608L82.2284 56.162C82.3539 56.2325 82.4583 56.3354 82.5307 56.4598C82.603 56.5843 82.6408 56.7259 82.6399 56.8699C82.6391 57.0136 82.6006 57.1545 82.5284 57.2787C82.4562 57.4029 82.3528 57.506 82.2284 57.5778C81.8864 57.6775 81.586 57.8855 81.3723 58.1705C81.1586 58.4555 81.043 58.8021 81.043 59.1583C81.043 59.5145 81.1586 59.8611 81.3723 60.1461C81.586 60.431 81.8864 60.639 82.2284 60.7387L82.7717 61.0186C82.9115 61.0793 83.0316 61.1776 83.1188 61.3026C83.206 61.4276 83.2568 61.5744 83.2655 61.7265C83.2736 61.8784 83.2394 62.0296 83.1668 62.1633C83.0941 62.297 82.9859 62.4079 82.854 62.4838L63.7734 73.4975C63.6507 73.5804 63.5092 73.6314 63.3618 73.6457V73.6457ZM58.8509 70.6824C60.3783 70.6569 61.8865 71.0254 63.2301 71.7525L63.3947 71.8512L80.7632 61.7759C80.3291 61.4868 79.9699 61.0987 79.7152 60.6436C79.4604 60.1885 79.3174 59.6795 79.298 59.1583C79.3015 58.7463 79.3896 58.3394 79.5567 57.9628C79.7237 57.5862 79.9663 57.2478 80.2693 56.9687L42.2069 35.0235C40.9629 35.5651 39.6207 35.8446 38.264 35.8446C36.9073 35.8446 35.565 35.5651 34.3211 35.0235L16.8374 45.1812C17.1416 45.4638 17.3858 45.8048 17.5555 46.1838C17.7252 46.5628 17.8169 46.9721 17.8252 47.3873C17.8197 47.7989 17.7308 48.2052 17.5638 48.5815C17.3969 48.9579 17.1554 49.2964 16.8539 49.5768L54.8669 71.522C56.1152 70.9471 57.4768 70.6602 58.8509 70.6824V70.6824Z" fill="#93D0FF"/>
<path d="M58.4557 47.8647C54.4552 45.5599 46.9317 46.2184 41.6141 49.2805C36.2966 52.3427 35.2429 56.7218 39.2434 59.0431C43.2439 61.3644 50.7675 60.6894 56.085 57.6272C61.4026 54.5651 62.4398 50.1695 58.4557 47.8647Z" fill="white"/>
<path d="M45.4994 61.2656C43.1836 61.342 40.8873 60.8204 38.8319 59.751C38.0101 59.3515 37.3124 58.736 36.8136 57.9704C36.3148 57.2048 36.0337 56.3179 36.0002 55.4048C36.0002 52.9847 37.8935 50.4659 41.2026 48.5562C46.8164 45.2636 54.5705 44.6874 58.8673 47.1568C59.6867 47.555 60.3827 48.168 60.8814 48.9304C61.38 49.6929 61.6626 50.5763 61.6989 51.4866C61.6989 53.9231 59.8057 56.4255 56.4966 58.3352C53.1416 60.236 49.3554 61.245 45.4994 61.2656V61.2656ZM52.2162 47.2885C48.6454 47.3098 45.1387 48.2389 42.0257 49.9885C39.2764 51.6348 37.6465 53.6103 37.6465 55.4048C37.6912 56.0255 37.9009 56.6229 38.254 57.1352C38.6071 57.6475 39.0909 58.0562 39.655 58.3187C43.4086 60.4918 50.6029 59.8662 55.6735 56.9194C58.4063 55.2731 60.0526 53.2975 60.0526 51.4866C60.0052 50.8688 59.7941 50.2748 59.4412 49.7656C59.0882 49.2564 58.606 48.8503 58.0442 48.5891V48.5891C56.2441 47.666 54.238 47.2183 52.2162 47.2885Z" fill="#93D0FF"/>
<path d="M61.9789 40.7856L57.9454 43.1233L51.8871 46.6464L37.1691 55.2072L31.1108 58.7302L27.0609 61.068L35.7039 66.0563L39.7374 63.7185L45.7299 60.2448L60.6124 51.5853L66.5885 48.1116L70.6219 45.7739L61.9789 40.7856Z" fill="#5F98ED"/>
<path d="M35.7039 66.9123C35.5609 66.9112 35.4202 66.8774 35.2923 66.8135L26.6492 61.8746C26.5225 61.8028 26.4172 61.6988 26.3439 61.5729C26.2706 61.4471 26.232 61.3041 26.232 61.1585C26.232 61.0129 26.2706 60.8699 26.3439 60.7441C26.4172 60.6183 26.5225 60.5142 26.6492 60.4424L61.5672 40.16C61.6924 40.0877 61.8343 40.0497 61.9788 40.0497C62.1233 40.0497 62.2653 40.0877 62.3904 40.16L71.0335 45.0989C71.1601 45.1707 71.2655 45.2747 71.3388 45.4006C71.4121 45.5264 71.4508 45.6694 71.4508 45.815C71.4508 45.9606 71.4121 46.1036 71.3388 46.2294C71.2655 46.3552 71.1601 46.4593 71.0335 46.5311L36.1154 66.7806C35.9921 66.8597 35.8502 66.9051 35.7039 66.9123V66.9123ZM28.7071 61.1009L35.7039 65.1508L68.9756 45.8068L61.9623 41.7404L28.7071 61.1009Z" fill="#93D0FF"/>
<path d="M93.5549 55.5694V44.6051L1.75726 32.0603V43.0411L30.3041 59.5206L34.4857 61.9242L58.6369 75.8683L93.5549 55.5694Z" fill="white"/>
<path d="M58.6698 76.6914C58.524 76.6963 58.3803 76.656 58.2582 76.5761L1.37862 43.7489C1.25633 43.6747 1.15459 43.5711 1.0827 43.4474C1.0108 43.3237 0.971039 43.184 0.967041 43.041V32.0602C0.970312 31.9451 0.996775 31.8318 1.04486 31.7271C1.09295 31.6225 1.16165 31.5286 1.24688 31.4511C1.33532 31.3717 1.44022 31.3128 1.55406 31.2787C1.6679 31.2445 1.78785 31.2359 1.90539 31.2535L93.6536 43.8642C93.8516 43.8881 94.0342 43.9831 94.1674 44.1314C94.3006 44.2798 94.3755 44.4715 94.378 44.6709V55.6352C94.3788 55.7792 94.3411 55.9208 94.2687 56.0453C94.1964 56.1698 94.092 56.2726 93.9664 56.3431L59.0485 76.642C58.9283 76.6898 58.7981 76.7068 58.6698 76.6914V76.6914ZM2.61334 42.5636L58.5875 74.9134L92.6988 55.1578V45.3952L2.54747 33.081L2.61334 42.5636Z" fill="#93D0FF"/>
<path d="M93.5549 44.6051L69.4037 30.6609L60.7606 25.6727L36.6753 11.7779L1.75726 32.0603L30.3041 48.5562L34.4857 50.9598L58.6369 64.904L93.5549 44.6051Z" fill="white"/>
<path d="M58.6698 65.7269C58.5251 65.7239 58.3835 65.6842 58.2582 65.6116L1.37863 32.768C1.25309 32.6975 1.1487 32.5946 1.07633 32.4701C1.00395 32.3456 0.966233 32.204 0.967054 32.0601C0.967921 31.9164 1.00634 31.7755 1.07854 31.6513C1.15074 31.5271 1.25422 31.424 1.37863 31.3521L36.2966 11.0533C36.4217 10.9811 36.5637 10.943 36.7082 10.943C36.8527 10.943 36.9946 10.9811 37.1198 11.0533L93.9664 43.864C94.0935 43.9335 94.1996 44.0358 94.2735 44.1604C94.3473 44.2849 94.3863 44.4271 94.3863 44.5719C94.3863 44.7167 94.3473 44.8589 94.2735 44.9834C94.1996 45.108 94.0935 45.2104 93.9664 45.2798L59.0485 65.5787C58.9341 65.6542 58.805 65.7047 58.6698 65.7269V65.7269ZM3.4365 32.0601L58.6698 63.9489L91.9579 44.6049L36.7247 12.716L3.4365 32.0601Z" fill="#93D0FF"/>
<path d="M25.8426 45.9715V56.9359L34.4857 61.9241V50.9598L25.8426 45.9715Z" fill="#5F98ED"/>
<path d="M34.4857 62.7471C34.3402 62.7499 34.197 62.7099 34.0741 62.6318L25.431 57.6929C25.3066 57.6211 25.2032 57.518 25.131 57.3938C25.0588 57.2696 25.0203 57.1287 25.0195 56.985V46.0207C25.0203 45.8766 25.059 45.7353 25.1316 45.6109C25.2042 45.4864 25.3082 45.3832 25.4332 45.3115C25.5582 45.2399 25.6998 45.2023 25.8439 45.2025C25.9879 45.2027 26.1294 45.2408 26.2542 45.3128L34.8973 50.2517C35.0228 50.3222 35.1272 50.425 35.1996 50.5495C35.2719 50.674 35.3097 50.8156 35.3088 50.9596V61.9733C35.308 62.117 35.2695 62.2579 35.1973 62.3821C35.1251 62.5063 35.0217 62.6094 34.8973 62.6812C34.7692 62.7421 34.6264 62.765 34.4857 62.7471ZM26.6658 56.4582L33.6625 60.4917V51.437L26.6658 47.3871V56.4582Z" fill="#93D0FF"/>
<path d="M58.6368 64.9037V75.8681L93.5548 55.5692V44.6049L58.6368 64.9037Z" fill="white"/>
<path d="M58.6697 76.6914C58.524 76.6963 58.3802 76.656 58.2582 76.5761C58.1314 76.507 58.0261 76.4045 57.9536 76.2797C57.881 76.1549 57.844 76.0126 57.8466 75.8682V64.9039C57.8445 64.7593 57.8798 64.6167 57.949 64.4898C58.0183 64.3629 58.119 64.256 58.2417 64.1795L93.1268 43.8642C93.2528 43.7933 93.395 43.7561 93.5396 43.7562C93.6842 43.7564 93.8263 43.7938 93.9521 43.865C94.078 43.9363 94.1833 44.0388 94.2579 44.1626C94.3325 44.2865 94.3739 44.4275 94.378 44.5721V55.5364C94.3788 55.6804 94.3411 55.822 94.2687 55.9465C94.1963 56.071 94.0919 56.1738 93.9664 56.2443L59.0484 76.5432C58.9377 76.6255 58.8069 76.6766 58.6697 76.6914V76.6914ZM59.4929 65.3648V74.436L92.7646 55.092V46.0373L59.4929 65.3648Z" fill="#93D0FF"/>
<path d="M80.5491 46.3501C78.3595 45.0824 78.3431 43.0575 80.5491 41.7569L65.4031 33.015L41.0873 18.9721C39.8609 19.5966 38.5042 19.9221 37.128 19.9221C35.7517 19.9221 34.395 19.5966 33.1686 18.9721L14.2197 29.9858C16.4093 31.2535 16.4258 33.2784 14.2197 34.579L38.5355 48.6055L53.7309 57.3638C54.9573 56.7393 56.314 56.4137 57.6902 56.4137C59.0665 56.4137 60.4232 56.7393 61.6496 57.3638C61.8393 57.4711 62.0209 57.5921 62.1929 57.726L81.2241 46.6629L80.5491 46.3501Z" fill="white"/>
<path d="M62.1434 58.5491C61.958 58.5468 61.7785 58.483 61.6331 58.368L61.1886 58.0717C60.0852 57.5272 58.8713 57.244 57.6408 57.244C56.4104 57.244 55.1965 57.5272 54.0931 58.0717C53.9679 58.1439 53.826 58.1819 53.6815 58.1819C53.537 58.1819 53.395 58.1439 53.2699 58.0717L13.7587 35.2869C13.6321 35.2151 13.5267 35.1109 13.4534 34.9851C13.3801 34.8593 13.3414 34.7164 13.3414 34.5708C13.3414 34.4251 13.3801 34.2821 13.4534 34.1563C13.5267 34.0305 13.6321 33.9264 13.7587 33.8546C14.0888 33.7118 14.3754 33.4843 14.5893 33.1953C14.8032 32.9062 14.9369 32.5657 14.977 32.2083C14.9291 31.8512 14.7904 31.5124 14.5743 31.2242C14.3581 30.936 14.0716 30.708 13.7423 30.562C13.6156 30.4928 13.5102 30.3903 13.4377 30.2655C13.3651 30.1407 13.3281 29.9984 13.3307 29.8541C13.3299 29.712 13.3659 29.5722 13.4351 29.4481C13.5043 29.3241 13.6045 29.22 13.7258 29.1462L32.6747 18.1324C32.8029 18.0603 32.9475 18.0224 33.0945 18.0224C33.2416 18.0224 33.3862 18.0603 33.5143 18.1324C34.6167 18.6806 35.831 18.9659 37.0621 18.9659C38.2932 18.9659 39.5075 18.6806 40.6099 18.1324C40.735 18.0602 40.877 18.0222 41.0214 18.0222C41.1659 18.0222 41.3079 18.0602 41.433 18.1324L80.9442 40.9172C81.0709 40.9863 81.1762 41.0889 81.2488 41.2137C81.3214 41.3385 81.3584 41.4808 81.3558 41.6251C81.3578 41.7697 81.3225 41.9123 81.2533 42.0392C81.1841 42.1661 81.0833 42.273 80.9607 42.3495C80.6415 42.4852 80.3621 42.7 80.1489 42.9737C79.9358 43.2473 79.7958 43.5708 79.7424 43.9135C79.7872 44.2716 79.9246 44.6118 80.1412 44.9005C80.3577 45.1892 80.6459 45.4165 80.9771 45.5598L81.5039 45.8232C81.6479 45.8798 81.7726 45.9767 81.8631 46.1022C81.9536 46.2277 82.0061 46.3766 82.0143 46.5311C82.0224 46.683 81.9882 46.8342 81.9155 46.9679C81.8429 47.1016 81.7346 47.2125 81.6027 47.2884L62.5715 58.3515C62.4541 58.4622 62.3038 58.5316 62.1434 58.5491ZM57.6326 55.5857C59.1598 55.5625 60.6674 55.9309 62.0118 56.6558L62.1764 56.7546L79.5284 46.6628C79.0974 46.3719 78.7413 45.983 78.4895 45.528C78.2377 45.073 78.0973 44.5649 78.0796 44.0452C78.087 43.6338 78.1768 43.2281 78.3436 42.852C78.5104 42.476 78.751 42.1371 79.051 41.8556L41.0379 19.9104C39.7971 20.4638 38.4536 20.7498 37.095 20.7498C35.7364 20.7498 34.393 20.4638 33.1521 19.9104L15.6685 30.0846C15.9756 30.3624 16.2212 30.7015 16.3892 31.0801C16.5573 31.4586 16.6441 31.8682 16.6441 32.2824C16.6441 32.6966 16.5573 33.1061 16.3892 33.4847C16.2212 33.8632 15.9756 34.2024 15.6685 34.4802L53.7309 56.4254C54.9535 55.8609 56.286 55.5741 57.6326 55.5857Z" fill="#93D0FF"/>
<path d="M57.2375 32.7682C53.237 30.4634 45.7134 31.1219 40.3959 34.1675C35.0783 37.2132 34.0247 41.6253 38.0252 43.9301C42.0257 46.2349 49.5493 45.5764 54.8504 42.5143C60.1515 39.4522 61.2216 35.073 57.2375 32.7682Z" fill="white"/>
<path d="M44.2482 46.1196C41.9627 46.1957 39.6957 45.6856 37.663 44.6379C36.8369 44.2486 36.1348 43.6378 35.6349 42.8735C35.1351 42.1091 34.8569 41.2211 34.8314 40.3082C34.8314 37.8716 36.7246 35.3693 40.0337 33.4596C45.6476 30.167 53.4017 29.5743 57.6985 32.0602C58.5216 32.4519 59.2202 33.0636 59.7171 33.8278C60.214 34.592 60.4897 35.4788 60.5137 36.39C60.5137 38.81 58.6369 41.3289 55.3113 43.2386C51.9309 45.1296 48.1217 46.1216 44.2482 46.1196V46.1196ZM50.9981 32.1919C47.4283 32.2053 43.9209 33.1289 40.8075 34.8754C38.0581 36.5217 36.4118 38.5137 36.4283 40.3082C36.4729 40.9288 36.6827 41.5263 37.0358 42.0386C37.389 42.551 37.8726 42.9595 38.4368 43.2221C42.1903 45.3787 49.3682 44.7532 54.4388 41.8063C57.1881 40.16 58.8344 38.1844 58.818 36.39C58.7732 35.7715 58.5653 35.176 58.2153 34.6641C57.8654 34.1522 57.386 33.7422 56.826 33.476V33.476C55.0244 32.5587 53.0183 32.1167 50.9981 32.1919V32.1919Z" fill="#93D0FF"/>
<path d="M60.7606 25.6725L56.7272 28.0267L50.6688 31.5498L35.9344 40.0941L29.876 43.6172L25.8426 45.9713L34.4857 50.9596L38.5191 48.6054L44.5116 45.1317L59.3777 36.4887L65.3702 33.015L69.4036 30.6608L60.7606 25.6725Z" fill="#5F98ED"/>
<path d="M34.4857 51.7828C34.3401 51.7857 34.197 51.7456 34.0741 51.6676L25.431 46.7287C25.3039 46.6593 25.1979 46.5569 25.124 46.4323C25.0501 46.3078 25.0111 46.1656 25.0111 46.0208C25.0111 45.876 25.0501 45.7338 25.124 45.6093C25.1979 45.4847 25.3039 45.3823 25.431 45.3129L60.3161 24.9646C60.4412 24.8924 60.5832 24.8544 60.7277 24.8544C60.8722 24.8544 61.0141 24.8924 61.1392 24.9646L69.7823 29.9035C69.9067 29.9754 70.0101 30.0785 70.0823 30.2027C70.1545 30.3269 70.193 30.4678 70.1939 30.6114C70.1926 30.7572 70.1542 30.9003 70.0821 31.0271C70.0101 31.1539 69.9069 31.2601 69.7823 31.3358L34.8643 51.6182C34.7563 51.7079 34.6249 51.765 34.4857 51.7828ZM27.4889 45.9714L34.4857 50.0049L67.7573 30.6938L60.7606 26.6603L27.4889 45.9714Z" fill="#93D0FF"/>
<path d="M101.556 45.2307V34.2664L9.77466 21.7216V32.6859L38.3215 49.1818L42.4867 51.5854L66.6378 65.5296L101.556 45.2307Z" fill="white"/>
<path d="M66.6379 66.3526C66.4924 66.3555 66.3492 66.3154 66.2263 66.2374L9.28086 33.4102C9.15858 33.3359 9.05684 33.2323 8.98494 33.1086C8.91304 32.9849 8.87328 32.8452 8.86928 32.7023V21.7214C8.86843 21.6056 8.89307 21.491 8.94143 21.3857C8.98979 21.2805 9.06073 21.1871 9.14918 21.1123C9.23447 21.0332 9.33645 20.9744 9.44761 20.9402C9.55877 20.906 9.67622 20.8973 9.79121 20.9148L101.589 33.4595C101.784 33.4871 101.962 33.5836 102.092 33.7316C102.222 33.8797 102.295 34.0694 102.297 34.2663V45.2306C102.295 45.3764 102.257 45.5194 102.185 45.6462C102.113 45.773 102.01 45.8792 101.885 45.9549L66.9672 66.2374C66.8682 66.3014 66.7553 66.3409 66.6379 66.3526V66.3526ZM10.6637 32.2248L66.6379 64.5746L100.733 44.819V35.0565L10.5979 22.7421L10.6637 32.2248Z" fill="#93D0FF"/>
<path d="M101.556 34.2662L77.4046 20.3221L68.7616 15.3338L44.6762 1.43903L9.77466 21.7214L38.3215 38.2174L42.4867 40.6209L66.6378 54.5651L101.556 34.2662Z" fill="white"/>
<path d="M66.6379 55.3883C66.4934 55.3833 66.3523 55.3438 66.2263 55.2731L9.28083 22.4624C9.15415 22.3906 9.04877 22.2864 8.97546 22.1606C8.90215 22.0348 8.86353 21.8918 8.86353 21.7462C8.86353 21.6006 8.90215 21.4576 8.97546 21.3318C9.04877 21.206 9.15415 21.1019 9.28083 21.0301L44.1988 0.747669C44.3239 0.675423 44.4659 0.63739 44.6104 0.63739C44.7549 0.63739 44.8968 0.675423 45.022 0.747669L101.902 33.6736C102.029 33.7431 102.135 33.8455 102.209 33.97C102.283 34.0946 102.321 34.2367 102.321 34.3815C102.321 34.5264 102.283 34.6686 102.209 34.7931C102.135 34.9177 102.029 35.02 101.902 35.0895L66.9836 55.3883C66.8694 55.4105 66.752 55.4105 66.6379 55.3883ZM11.4046 21.7215L66.6379 53.6103L99.9095 34.2663L44.6927 2.39397L11.4046 21.7215Z" fill="#93D0FF"/>
<path d="M33.8437 35.6326V46.597L42.4867 51.5853V40.6209L33.8437 35.6326Z" fill="#5F98ED"/>
<path d="M42.4868 52.4085C42.3415 52.4095 42.1989 52.3695 42.0752 52.2932L33.4321 47.3543C33.3077 47.2825 33.2043 47.1794 33.1321 47.0552C33.0599 46.931 33.0214 46.7901 33.0206 46.6464V35.6327C33.0214 35.489 33.0599 35.3481 33.1321 35.2239C33.2043 35.0997 33.3077 34.9966 33.4321 34.9248C33.5573 34.8525 33.6992 34.8145 33.8437 34.8145C33.9882 34.8145 34.1302 34.8525 34.2553 34.9248L42.8984 39.8637C43.0251 39.9328 43.1304 40.0354 43.203 40.1602C43.2755 40.285 43.3125 40.4273 43.3099 40.5716V51.5359C43.3144 51.6806 43.2782 51.8236 43.2054 51.9488C43.1327 52.0739 43.0263 52.1761 42.8984 52.2438C42.7812 52.3394 42.6376 52.3969 42.4868 52.4085ZM34.6669 46.1196L41.6636 50.1695V41.0984L34.6669 37.065V46.1196Z" fill="#93D0FF"/>
<path d="M66.6378 54.5651V65.5294L101.556 45.2305V34.2662L66.6378 54.5651Z" fill="white"/>
<path d="M66.6379 66.3525C66.4923 66.3554 66.3492 66.3153 66.2263 66.2373C66.0996 66.1681 65.9942 66.0656 65.9217 65.9408C65.8491 65.816 65.8121 65.6737 65.8147 65.5294V54.565C65.8127 54.4186 65.8497 54.2742 65.9221 54.1469C65.9944 54.0196 66.0994 53.9138 66.2263 53.8406L101.144 33.5582C101.269 33.486 101.411 33.4479 101.556 33.4479C101.7 33.4479 101.842 33.486 101.967 33.5582C102.092 33.63 102.195 33.7332 102.267 33.8574C102.34 33.9816 102.378 34.1225 102.379 34.2662V45.2305C102.378 45.3763 102.339 45.5193 102.267 45.6461C102.195 45.7729 102.092 45.8791 101.967 45.9548L67.0494 66.2373C66.9265 66.3153 66.7834 66.3554 66.6379 66.3525V66.3525ZM67.461 55.026V64.0971L100.733 44.7531V35.6326L67.461 55.026Z" fill="#93D0FF"/>
<path d="M88.55 36.0113C86.3605 34.7437 86.344 32.7187 88.55 31.4181L73.3876 22.6763L49.0718 8.63336C47.8454 9.25786 46.4887 9.58339 45.1125 9.58339C43.7362 9.58339 42.3795 9.25786 41.1531 8.63336L22.2042 19.6471C24.3938 20.9147 24.4103 22.9397 22.2042 24.2403L46.52 38.2667L61.6824 47.0251C62.9088 46.4006 64.2655 46.075 65.6418 46.075C67.018 46.075 68.3748 46.4006 69.6012 47.0251C69.7909 47.1323 69.9725 47.2534 70.1444 47.3872L89.1756 36.3241L88.55 36.0113Z" fill="white"/>
<path d="M70.1939 48.2104C70.0085 48.2081 69.829 48.1444 69.6836 48.0293L69.2391 47.733C68.1357 47.1885 66.9218 46.9053 65.6913 46.9053C64.4609 46.9053 63.2469 47.1885 62.1435 47.733C62.0184 47.8052 61.8764 47.8433 61.7319 47.8433C61.5875 47.8433 61.4455 47.8052 61.3204 47.733L21.8092 24.9482C21.6825 24.8764 21.5772 24.7723 21.5039 24.6465C21.4306 24.5207 21.392 24.3777 21.392 24.2321C21.392 24.0864 21.4306 23.9435 21.5039 23.8176C21.5772 23.6918 21.6825 23.5877 21.8092 23.5159C22.1284 23.3802 22.4078 23.1654 22.621 22.8918C22.8341 22.6181 22.974 22.2947 23.0275 21.9519C22.9827 21.5938 22.8452 21.2536 22.6287 20.9649C22.4121 20.6762 22.124 20.4489 21.7928 20.3056C21.6657 20.2362 21.5596 20.1338 21.4858 20.0093C21.4119 19.8847 21.3729 19.7425 21.3729 19.5977C21.3729 19.4529 21.4119 19.3108 21.4858 19.1862C21.5596 19.0616 21.6657 18.9593 21.7928 18.8898L40.7416 7.87609C40.8668 7.80384 41.0087 7.76581 41.1532 7.76581C41.2977 7.76581 41.4397 7.80384 41.5648 7.87609C42.6671 8.42423 43.8815 8.70949 45.1126 8.70949C46.3437 8.70949 47.5581 8.42423 48.6604 7.87609C48.7855 7.80384 48.9275 7.76581 49.072 7.76581C49.2164 7.76581 49.3584 7.80384 49.4835 7.87609L88.9947 30.6609C89.1214 30.7326 89.2267 30.8368 89.3 30.9626C89.3733 31.0884 89.4119 31.2314 89.4119 31.377C89.4119 31.5226 89.3733 31.6656 89.3 31.7914C89.2267 31.9172 89.1214 32.0214 88.9947 32.0932C88.6755 32.2289 88.3961 32.4437 88.1829 32.7173C87.9698 32.9909 87.8299 33.3144 87.7764 33.6571C87.8212 34.0152 87.9587 34.3555 88.1752 34.6442C88.3918 34.9329 88.6799 35.1601 89.0111 35.3034L89.5544 35.5668C89.6931 35.629 89.8123 35.7278 89.8993 35.8524C89.9863 35.9771 90.0378 36.1231 90.0483 36.2748C90.0604 36.4273 90.0279 36.58 89.9548 36.7144C89.8818 36.8489 89.7713 36.9592 89.6367 37.032L70.6055 48.0952C70.4826 48.1732 70.3395 48.2133 70.1939 48.2104V48.2104ZM65.6831 45.2471C67.2105 45.2216 68.7187 45.5901 70.0623 46.3171L70.2268 46.4159L87.5953 36.3242C87.1612 36.0351 86.802 35.647 86.5473 35.1919C86.2926 34.7368 86.1496 34.2277 86.1301 33.7065C86.1375 33.2951 86.2272 32.8894 86.3941 32.5134C86.5609 32.1373 86.8014 31.7985 87.1014 31.5169L49.0884 9.57177C47.8476 10.1252 46.5042 10.4111 45.1455 10.4111C43.7869 10.4111 42.4435 10.1252 41.2027 9.57177L23.7189 19.7294C24.0222 20.0163 24.2656 20.3604 24.4352 20.7419C24.6047 21.1234 24.697 21.5346 24.7067 21.9519C24.6993 22.3633 24.6096 22.769 24.4427 23.1451C24.2759 23.5211 24.0354 23.86 23.7354 24.1415L61.7484 46.0867C62.9665 45.5261 64.2928 45.2395 65.6337 45.2471H65.6831Z" fill="#93D0FF"/>
<path d="M65.255 22.4624C61.2545 20.1575 53.7309 20.8161 48.4134 23.8617C43.0958 26.9074 42.0422 31.3194 46.0427 33.6243C50.0432 35.9291 57.5668 35.2706 62.8843 32.2084C68.2019 29.1463 69.2226 24.7342 65.255 22.4624Z" fill="white"/>
<path d="M52.2821 35.8139C49.9664 35.8903 47.67 35.3687 45.6146 34.2993C44.7884 33.91 44.0864 33.2992 43.5865 32.5348C43.0866 31.7705 42.8085 30.8825 42.783 29.9695C42.783 27.5495 44.6762 25.0306 47.9853 23.1209C53.5991 19.8283 61.3696 19.2357 65.65 21.7216C66.4762 22.1109 67.1783 22.7217 67.6781 23.4861C68.178 24.2504 68.4561 25.1384 68.4817 26.0513C68.4817 28.4714 66.5884 30.9902 63.2793 32.8999C59.9203 34.7889 56.1357 35.7917 52.2821 35.8139V35.8139ZM58.999 21.8533C55.4295 21.8689 51.9226 22.7923 48.8084 24.5368C46.0591 26.183 44.4293 28.1751 44.4293 29.9695C44.4739 30.5902 44.6836 31.1876 45.0368 31.7C45.3899 32.2123 45.8736 32.6209 46.4377 32.8835C50.1913 35.0566 57.3856 34.4146 62.4562 31.4677C65.1891 29.8214 66.8354 27.8458 66.8354 26.0513C66.7874 25.4316 66.5763 24.8357 66.2236 24.3239C65.8708 23.8121 65.3889 23.4028 64.8269 23.1374V23.1374C63.0253 22.22 61.0193 21.778 58.999 21.8533Z" fill="#93D0FF"/>
<path d="M68.7616 15.3336L64.7282 17.6878L58.6698 21.2109L43.9519 29.7717L37.8935 33.2783L33.8437 35.6325L42.4867 40.6208L46.5201 38.2666L52.5127 34.7929L67.3952 26.1498L73.3712 22.6761L77.4047 20.3219L68.7616 15.3336Z" fill="#5F98ED"/>
<path d="M42.4866 41.4441C42.3414 41.4451 42.1987 41.4051 42.0751 41.3288L33.432 36.3899C33.3049 36.3205 33.1989 36.2181 33.125 36.0936C33.0511 35.969 33.0121 35.8269 33.0121 35.682C33.0121 35.5372 33.0511 35.3951 33.125 35.2705C33.1989 35.146 33.3049 35.0436 33.432 34.9741L68.35 14.6753C68.4751 14.603 68.6171 14.565 68.7616 14.565C68.906 14.565 69.048 14.603 69.1731 14.6753L77.8162 19.6142C77.9429 19.6833 78.0482 19.7859 78.1208 19.9106C78.1934 20.0354 78.2304 20.1777 78.2278 20.3221C78.2298 20.4685 78.1928 20.6128 78.1204 20.7402C78.0481 20.8675 77.943 20.9732 77.8162 21.0464L42.8982 41.3288C42.7762 41.4087 42.6324 41.449 42.4866 41.4441ZM35.4899 35.6327L42.4866 39.6661L75.7583 20.3386L68.7616 16.2886L35.4899 35.6327Z" fill="#93D0FF"/>
<defs>
<linearGradient id="paint0_linear" x1="56.8956" y1="77.1208" x2="110.674" y2="36.6438" gradientUnits="userSpaceOnUse">
<stop stop-color="#CCE5FB"/>
<stop offset="1" stop-color="#CEE7FD" stop-opacity="0"/>
</linearGradient>
</defs>
</svg>
