<svg width="89" height="90" viewBox="0 0 89 90" fill="none" xmlns="http://www.w3.org/2000/svg">
<path d="M86.2276 58.0362L63.2858 42.9416C61.6562 42.1131 59.854 41.6813 58.0259 41.6813C56.1978 41.6813 54.3956 42.1131 52.766 42.9416L13.2548 65.891C10.3573 67.5373 10.3738 70.3031 13.2548 71.9823L36.1966 87.0934C37.8262 87.9219 39.6284 88.3537 41.4565 88.3537C43.2846 88.3537 45.0868 87.9219 46.7164 87.0934L86.2276 64.1275C89.158 62.4483 89.1415 59.7154 86.2276 58.0362Z" fill="url(#paint0_linear)"/>
<path d="M8.59811 2.17065L1.54674 6.23065C1.40551 6.3338 1.2938 6.47219 1.22277 6.63201C1.15174 6.79182 1.12388 6.96747 1.14195 7.14142V42.8233C1.14195 59.375 25.5789 86.2933 26.6435 87.4307C26.8068 87.6119 26.9965 87.7675 27.2061 87.8922C27.3751 87.9973 27.5665 88.061 27.7647 88.0784C28.4407 88.1189 38.9935 88.6775 46.3039 84.5244L53.4282 80.4117C57.3262 78.1692 60.2812 74.5788 60.2812 68.8268V33.1408C60.2395 32.6512 60.0861 32.1777 59.8327 31.7567C59.5794 31.3356 59.2329 30.9783 58.8199 30.7121C49.0646 25.0815 39.9731 17.1113 35.0833 9.90611C34.5854 9.17749 33.8972 8.78485 33.3994 8.93867C28.5136 10.4931 19.4261 7.96718 9.58984 2.28803C9.45591 2.17513 9.29228 2.10325 9.11854 2.08099C8.9448 2.05873 8.76832 2.08705 8.61026 2.16255L8.59811 2.17065Z" fill="white"/>
<path d="M26.779 88.5908C27.0563 88.7594 27.3691 88.8611 27.6926 88.8875L27.6926 88.8877L26.2103 87.8194M26.779 88.5908C26.5018 88.425 26.2505 88.2192 26.0334 87.9801M26.779 88.5908C26.7793 88.591 26.7796 88.5911 26.7799 88.5913L26.9025 88.3862L26.7782 88.5903C26.7785 88.5905 26.7788 88.5906 26.779 88.5908ZM26.0334 87.9801L26.2103 87.8194M26.0334 87.9801C26.0336 87.9804 26.0338 87.9806 26.034 87.9808L26.2103 87.8194M26.0334 87.9801C25.5018 87.3992 19.0865 80.3399 12.802 71.3224C9.65861 66.812 6.54438 61.8067 4.21544 56.8734C1.88847 51.9443 0.335193 47.0659 0.336217 42.8153V7.14962M26.2103 87.8194C25.1619 86.6739 0.57118 59.6099 0.575228 42.8153V7.14154M0.336217 7.14962C0.336406 7.15251 0.336602 7.1554 0.336804 7.15828L0.575228 7.14154M0.336217 7.14962V7.14154H0.575228M0.336217 7.14962L0.575228 7.14154M8.28537 1.44196C8.26783 1.44991 8.2504 1.45817 8.2331 1.46672L8.31474 1.63181L8.33905 1.68097V1.44196H8.31474H8.28537ZM10.0432 1.64401C10.0385 1.64131 10.0338 1.6386 10.0291 1.63589L9.90959 1.84289L10.057 1.65477C10.0524 1.65116 10.0478 1.64757 10.0432 1.64401ZM35.7552 9.50173C35.755 9.50133 35.7547 9.50094 35.7544 9.50054L35.5569 9.63503L35.7559 9.50264C35.7557 9.50233 35.7555 9.50203 35.7552 9.50173ZM53.8846 81.1479L53.8931 81.142L53.756 80.9462L53.8757 81.1531C53.8786 81.1514 53.8816 81.1496 53.8846 81.1479ZM46.6154 85.3404C46.6175 85.3393 46.6196 85.3381 46.6216 85.337L46.5063 85.1276L46.6091 85.3434L46.6154 85.3404ZM8.95551 2.91106C8.99255 2.92477 9.04673 2.95096 9.11902 2.99823L9.11881 2.99855L9.13048 3.00527C14.1205 5.8808 18.9532 7.97051 23.1755 9.13829C27.3889 10.3036 31.0266 10.5598 33.6088 9.72942C33.6144 9.72989 33.6267 9.73157 33.6472 9.73778C33.6922 9.7514 33.7563 9.78111 33.8355 9.83389C33.9925 9.93855 34.1853 10.1185 34.3733 10.3792C39.3362 17.688 48.531 25.7463 58.3698 31.4253C58.6614 31.621 58.9073 31.8774 59.0905 32.177C59.2728 32.4749 59.3889 32.8085 59.431 33.1551V68.8309C59.431 73.5909 57.2699 77.2419 52.9851 79.7068L52.9813 79.709L52.9443 79.7313L52.9409 79.7333L45.9459 83.7743L45.8777 83.8066L45.8697 83.8104L45.862 83.8148C42.304 85.8368 37.9013 86.7076 34.3167 87.0665C30.7652 87.4222 28.0409 87.2732 27.7855 87.2574C27.716 87.2492 27.6491 87.2258 27.5896 87.1888C27.4583 87.1035 27.3396 87.0002 27.237 86.8818L27.2371 86.8817L27.2321 86.8763C26.7156 86.3155 20.3916 79.3579 14.1984 70.5013C11.1017 66.073 8.04129 61.1749 5.75586 56.3679C3.46836 51.5566 1.96789 46.8582 1.96789 42.8234V7.13749H1.96793L1.96786 7.1333C1.96622 7.03981 1.97889 6.97691 1.99136 6.94134C1.99354 6.93513 1.99559 6.9301 1.99738 6.92613L8.95551 2.91106Z" fill="#93D0FF" stroke="#93D0FF" stroke-width="0.478022"/>
<path d="M27.1899 56.4688L19.4423 43.0663L21.5796 41.8398L27.1859 51.5466L35.6095 46.6932L37.7467 50.3889L27.1899 56.4688Z" fill="white"/>
<path d="M27.1899 56.4688L19.4423 43.0663L21.5796 41.852L27.1859 51.5668L34.3344 47.4218C32.5898 44.1147 30.0275 41.18 27.1697 39.5285C21.9075 36.4886 17.637 38.9497 17.637 45.0174C17.637 51.0852 21.9034 58.4806 27.1697 61.5205C32.4359 64.5605 36.7064 62.1034 36.7064 56.0276C36.6856 54.4575 36.4416 52.8983 35.9819 51.3968L27.1899 56.4688Z" fill="#5F98ED"/>
<path d="M59.3357 29.9232L59.3112 29.907L59.2857 29.8923C49.6201 24.3135 40.6508 16.4335 35.8622 9.37743L35.8605 9.3749C35.5455 8.91396 35.148 8.52445 34.7047 8.27028C34.275 8.02391 33.6972 7.85047 33.105 8.03341L33.105 8.03337L33.0974 8.0358C30.9206 8.72832 27.6465 8.54315 23.5958 7.41322C19.5945 6.29707 14.9598 4.29415 10.1159 1.50293C9.85691 1.30734 9.55091 1.18225 9.22788 1.14087C8.87172 1.09525 8.51 1.15332 8.18605 1.30805L8.15291 1.32389L8.12108 1.34221L1.06971 5.40222L1.93393 7.04719L1.93491 7.04906L1.95834 7.09365C1.94905 7.09808 1.9387 7.09973 1.92853 7.09841C1.91836 7.0971 1.90877 7.09288 1.90091 7.08623L1.96659 7.14177L2.04113 7.1847C7.01308 10.048 11.8181 12.1365 16.0236 13.3118C20.1702 14.4707 23.8623 14.7783 26.5677 13.9336C26.589 13.9391 26.6305 13.9535 26.6942 13.9902C26.8448 14.0769 27.04 14.2487 27.2203 14.5147L27.2207 14.5154C32.2078 21.8598 41.4151 29.9175 51.2516 35.5992C51.5331 35.7852 51.7694 36.0319 51.9431 36.3214C52.1143 36.6067 52.2202 36.9262 52.2536 37.2569V72.8909C52.2536 75.4509 50.7705 78.2241 48.6715 80.7096C46.9755 82.718 44.963 84.4367 43.2644 85.5782L42.1328 86.2813L43.1094 87.9248C43.4871 87.7103 43.8866 87.4627 44.3008 87.1853L53.8746 81.2364C57.9967 78.8604 61.1927 74.9875 61.1927 68.8309V33.1409V33.1023L61.1896 33.0639C61.1387 32.4341 60.9454 31.8242 60.6242 31.2801C60.303 30.7361 59.8625 30.2721 59.3357 29.9232ZM26.5504 13.9303C26.5504 13.9303 26.5511 13.9303 26.5524 13.9305L26.5504 13.9303Z" fill="white" stroke="#93D0FF" stroke-width="1.91209"/>
<path d="M36.9011 88.5274H43.5934L44.0715 85.1813L36.9011 88.5274Z" fill="#93D0FF"/>
<defs>
<linearGradient id="paint0_linear" x1="24.5627" y1="83.5734" x2="83.5806" y2="43.7292" gradientUnits="userSpaceOnUse">
<stop stop-color="#CCE5FB"/>
<stop offset="1" stop-color="#CEE7FD" stop-opacity="0"/>
</linearGradient>
</defs>
</svg>
