<svg width="432" height="325" viewBox="0 0 432 325" fill="none" xmlns="http://www.w3.org/2000/svg">
<path opacity="0.64" d="M133.493 88.2982L243.526 33.5749C246.867 31.8823 250.561 31 254.308 31C258.056 31 261.75 31.8823 265.091 33.5749L340.405 81.056C346.344 84.4196 348.36 91.9269 342.454 95.3578L236.052 147.665C232.711 149.358 229.065 153 225.317 153C221.57 153 217.828 149.358 214.487 147.665L133.493 100.743C127.486 97.3126 127.519 91.7291 133.493 88.2982Z" fill="url(#paint0_linear)"/>
<path d="M190.035 130.676V122.57C190.035 121.476 190.76 120.371 192.216 119.531L301.388 56.6111C304.304 54.9301 309.032 54.9301 311.948 56.6111L354.81 81.3358C356.27 82.1762 357.001 83.2679 357.001 84.3853V92.3553H356.975C357.046 93.5113 356.331 94.6642 354.819 95.5465L245.632 158.463C242.732 160.134 237.991 160.141 235.071 158.463L192.21 133.738C190.747 132.894 190.015 131.771 190.025 130.666L190.035 130.676Z" fill="white"/>
<g style="mix-blend-mode:overlay" opacity="0.3">
<path d="M311.168 66.8028L210.731 124.75C216.042 121.678 210.025 115.969 207.05 110.968L288.809 63.8467C297.723 66.4744 306.821 69.3178 311.168 66.8028Z" fill="#5F98ED"/>
</g>
<path d="M192.216 119.518C189.316 121.195 189.316 123.923 192.216 125.607L235.078 150.328C237.994 152.016 242.725 152.006 245.635 150.328L354.807 87.4089C356.26 86.5684 356.988 85.4768 356.988 84.369V92.3551H356.963C357.034 93.5112 356.318 94.664 354.807 95.5464L245.632 158.463C242.732 160.134 237.991 160.14 235.072 158.463L192.21 133.738C190.747 132.894 190.015 131.77 190.025 130.666V122.561C190.028 121.463 190.76 120.371 192.216 119.518Z" fill="#C5EAFE"/>
<path d="M240.356 160.743C238.334 160.78 236.337 160.297 234.556 159.339L191.694 134.617C190.005 133.651 189.029 132.241 189 130.753C189 130.721 189 130.689 189 130.656V122.551C189 121.031 189.944 119.653 191.688 118.632L300.859 55.7158C304.104 53.8416 309.189 53.8416 312.438 55.7158L355.303 80.4405C357.043 81.4452 358 82.8428 358 84.3724V92.3553C358 92.4212 357.994 92.487 357.981 92.5517C357.965 94.0427 357.014 95.4499 355.315 96.416L246.141 159.336C244.365 160.29 242.373 160.775 240.356 160.743ZM191.05 130.576C191.05 130.611 191.05 130.64 191.05 130.676C191.05 131.442 191.652 132.238 192.725 132.856L235.587 157.581C238.165 159.068 242.541 159.071 245.132 157.581L354.3 94.661C355.415 94.0169 356.002 93.2151 355.95 92.4068C355.945 92.3118 355.952 92.2164 355.973 92.1234V84.3659C355.973 83.6027 355.361 82.8106 354.294 82.1955L311.432 57.4708C308.854 55.9799 304.475 55.9799 301.89 57.4708L192.716 120.387C191.649 121.002 191.04 121.788 191.046 122.541L191.05 130.576Z" fill="#93D0FF"/>
<path d="M227.405 92.2747C233.028 89.0352 236.886 92.3907 244.163 88.198C252.542 83.3677 252.542 68.149 260.898 63.3155C263.196 61.992 264.859 62.1272 266.244 62.9129L266.325 62.958C266.325 62.958 266.347 62.958 266.357 62.958L271.446 65.8981C271.53 65.9464 271.6 66.0075 271.681 66.0558L271.649 66.0365C273.112 66.9189 274.272 68.4903 275.516 69.8396C275.29 69.5981 275.065 69.3469 274.842 69.0925C275.832 68.9711 276.784 68.6348 277.63 68.1071C286.009 63.2768 288.491 49.9194 294.365 46.5318C295.574 45.8394 296.599 45.8877 297.511 46.4255V46.4094L302.667 49.3785V49.3945C308.175 52.3249 309.167 74.0259 316.389 69.8557L215.935 127.81L210.653 124.763C219.032 119.933 219.026 97.1083 227.405 92.2747Z" fill="#CEE7FD"/>
<g style="mix-blend-mode:overlay" opacity="0.7">
<path d="M299.644 49.5942C293.776 52.9754 291.265 66.3393 282.912 71.1696C278.922 73.472 276.837 71.3918 274.855 69.1055C275.845 68.9841 276.797 68.6477 277.643 68.1201C286.022 63.2898 288.503 49.9324 294.378 46.5447C295.587 45.8524 296.612 45.9007 297.524 46.4385V46.4223L302.68 49.3914V49.4075C301.781 48.9405 300.791 48.9341 299.644 49.5942ZM210.653 124.763L215.935 127.81C224.314 122.979 224.314 100.155 232.693 95.3243C238.323 92.0784 242.187 95.4338 249.451 91.2443C257.83 86.414 257.83 71.1954 266.19 66.3683C268.571 64.9868 270.266 65.2026 271.668 66.0656C271.588 66.0173 271.517 65.9561 271.433 65.9078L266.344 62.9677C266.344 62.9677 266.325 62.9677 266.312 62.9677L266.232 62.9226C264.846 62.1369 263.183 62.0017 260.885 63.3252C252.506 68.1555 252.506 83.3774 244.15 88.2077C236.886 92.3939 233.028 89.0449 227.392 92.2845C219.026 97.1083 219.032 119.933 210.653 124.763Z" fill="#5F98ED"/>
</g>
<path d="M215.935 128.827C215.757 128.828 215.581 128.781 215.426 128.692L210.144 125.643C209.989 125.554 209.861 125.426 209.772 125.271C209.682 125.117 209.635 124.942 209.635 124.763C209.635 124.585 209.682 124.41 209.772 124.256C209.861 124.101 209.989 123.973 210.144 123.884C213.985 121.669 216.054 114.832 218.056 108.221C220.173 101.237 222.358 94.0105 226.896 91.3925C229.748 89.7534 232.232 89.6729 234.63 89.5956C237.266 89.5087 239.992 89.4217 243.637 87.3189C247.527 85.0648 249.493 80.3601 251.578 75.3655C253.699 70.284 255.893 65.0254 260.376 62.4364C262.699 61.0936 264.752 60.9455 266.644 61.9792L266.718 62.0178L266.786 62.0532L266.85 62.0886L271.939 65.0287C271.98 65.0514 272.02 65.0772 272.058 65.106L272.148 65.1704C273.331 65.882 274.301 66.9544 275.229 68.0074C275.892 67.8491 276.526 67.5883 277.108 67.2345C281.417 64.7485 284.198 59.6477 286.66 55.1491C288.851 51.1367 290.924 47.3433 293.847 45.6592C295.245 44.8541 296.589 44.7865 297.839 45.4563C297.901 45.4779 297.96 45.5048 298.017 45.5368L303.173 48.5058C303.218 48.5318 303.261 48.5609 303.302 48.5928C305.88 50.1127 307.382 54.6307 308.974 59.4062C310.395 63.6633 312.006 68.4872 314.062 69.2665C314.404 69.3953 314.962 69.5048 315.874 68.9799C316.107 68.8544 316.38 68.8247 316.634 68.8969C316.889 68.9692 317.106 69.1377 317.238 69.3668C317.371 69.596 317.408 69.8676 317.344 70.1242C317.279 70.3808 317.117 70.6022 316.892 70.7413L216.46 128.682C216.302 128.778 216.12 128.828 215.935 128.827ZM212.519 124.667L215.935 126.638L312.654 70.8379C310.118 69.2794 308.619 64.7871 307.04 60.0567C305.677 55.9702 304.14 51.3428 302.174 50.2995C302.116 50.2687 302.061 50.232 302.01 50.19L297.176 47.3949C297.114 47.3735 297.054 47.3454 296.998 47.3111C296.557 47.0471 295.919 46.8281 294.878 47.427C292.448 48.8246 290.511 52.3733 288.461 56.1216C285.883 60.8585 282.944 66.2234 278.149 69.0024C277.637 69.3049 277.098 69.5572 276.538 69.7559C276.558 69.9669 276.512 70.1791 276.405 70.3624C276.299 70.5458 276.137 70.6912 275.944 70.7783C275.751 70.8653 275.535 70.8896 275.327 70.8478C275.119 70.8059 274.929 70.7 274.784 70.5449C274.549 70.2969 274.317 70.0361 274.085 69.7753L274.059 69.7431L273.853 69.5112C272.964 68.5001 272.122 67.5437 271.178 66.9576L271.149 66.9382C271.086 66.9008 271.025 66.86 270.966 66.8159C270.927 66.7938 270.891 66.7691 270.856 66.7418L265.88 63.8694L265.842 63.8469L265.751 63.7985C264.894 63.3123 263.628 62.9195 261.414 64.1979C257.527 66.452 255.561 71.16 253.476 76.1513C251.356 81.236 249.161 86.4945 244.678 89.0804C240.592 91.4375 237.472 91.5406 234.717 91.6276C232.368 91.7048 230.341 91.7692 227.93 93.1572C224.092 95.3726 222.023 102.206 220.022 108.814C218.11 115.064 216.161 121.505 212.519 124.667Z" fill="#93D0FF"/>
<path d="M232.68 100.651C240.009 96.4256 242.174 101.52 249.438 97.3305C257.817 92.5002 257.817 63.0804 266.177 58.2533C267.437 57.5256 268.51 57.5836 269.451 58.1825L274.572 61.1387C279.058 63.6375 283.273 79.5324 282.577 78.1767C282.69 78.122 282.802 78.0866 282.925 78.0189C291.304 73.1886 291.304 62.0306 299.657 57.2003C301.236 56.289 302.516 56.3438 303.618 57.0071L308.822 60.0116C313.592 62.7327 314.849 76.8564 321.671 72.9117L221.233 130.875L215.948 127.826C224.308 122.976 224.314 105.481 232.68 100.651Z" fill="#EB5757"/>
<g style="mix-blend-mode:overlay" opacity="0.7">
<path d="M304.929 60.25C296.55 65.0803 296.55 76.2415 288.191 81.0621C285.732 82.479 284.001 80.9333 282.564 78.164C282.677 78.1092 282.79 78.0738 282.912 78.0061C291.291 73.1758 291.291 62.0178 299.644 57.1875C301.223 56.2762 302.503 56.3309 303.605 56.9943L308.819 60.0052C307.736 59.3902 306.479 59.3547 304.929 60.25ZM215.935 127.81L221.22 130.859C229.599 126.029 229.599 108.527 237.978 103.703C245.297 99.4753 247.459 104.57 254.717 100.377C263.096 95.5466 263.096 66.1268 271.459 61.2997C272.648 60.6138 273.666 60.6332 274.565 61.1387L269.444 58.1826C268.503 57.5836 267.43 57.5385 266.17 58.2534C257.791 63.0837 257.791 92.5003 249.432 97.3306C242.174 101.517 240.009 96.4257 232.674 100.651C224.314 105.481 224.308 122.976 215.935 127.81Z" fill="#5F98ED"/>
</g>
<path d="M221.22 131.874C221.042 131.874 220.866 131.827 220.711 131.739L215.426 128.692C215.272 128.603 215.143 128.474 215.054 128.32C214.965 128.165 214.918 127.99 214.918 127.811C214.918 127.633 214.965 127.458 215.054 127.303C215.143 127.149 215.272 127.02 215.426 126.931C219.293 124.696 221.362 119.202 223.36 113.87C225.481 108.215 227.675 102.367 232.171 99.7715C236.125 97.4916 238.816 97.746 241.194 97.9682C243.45 98.1775 245.584 98.3804 248.929 96.4483C252.735 94.2521 254.81 85.7637 256.815 77.5554C259.019 68.5388 261.101 60.0052 265.664 57.3743C267.495 56.3213 268.948 56.7013 269.876 57.2519L269.957 57.2938L275.074 60.25L275.194 60.3305C278.884 62.5846 282.258 72.3837 283.312 76.57C286.644 74.2804 288.468 70.8058 290.379 67.1412C292.503 63.0805 294.697 58.8846 299.138 56.3213C300.933 55.2844 302.615 55.2232 304.13 56.1345L309.318 59.1293C311.439 60.3401 312.863 63.2931 314.214 66.1462C315.564 68.9993 316.982 71.9425 318.777 72.49C319.467 72.7057 320.24 72.5576 321.139 72.0391C321.372 71.9042 321.65 71.8674 321.91 71.9369C322.171 72.0063 322.393 72.1763 322.528 72.4095C322.663 72.6426 322.7 72.9198 322.63 73.1801C322.561 73.4404 322.391 73.6624 322.158 73.7974L221.73 131.739C221.574 131.827 221.399 131.873 221.22 131.874ZM217.833 127.733L221.22 129.684L317.478 74.1483C315.222 73.0084 313.785 69.9621 312.377 67.022C311.146 64.4459 309.873 61.7892 308.303 60.9036L303.095 57.896C302.493 57.5321 301.629 57.2519 300.153 58.0892C296.222 60.3433 294.259 64.1142 292.177 68.0944C290.053 72.1518 287.859 76.3478 283.421 78.9078C283.262 79.0986 283.038 79.2246 282.793 79.262C282.565 79.2961 282.332 79.2548 282.13 79.1443C281.928 79.0338 281.768 78.8602 281.674 78.6502C281.56 78.4292 281.529 78.1741 281.587 77.9321C281.11 75.5234 277.459 63.9114 274.079 62.0243C274.034 61.9994 273.991 61.9715 273.95 61.9406L269.054 59.1132C269.005 59.0931 268.957 59.0683 268.913 59.0392C268.455 58.7461 267.794 58.4982 266.689 59.1325C262.88 61.3287 260.804 69.8236 258.8 78.0352C256.596 87.0517 254.514 95.5788 249.954 98.2097C246.051 100.464 243.489 100.219 241.017 99.9905C238.739 99.778 236.593 99.5751 233.202 101.53C229.335 103.761 227.273 109.258 225.278 114.581C223.373 119.627 221.423 124.821 217.833 127.733Z" fill="#93D0FF"/>
<path d="M238.04 110.472C245.361 106.247 247.514 111.953 254.778 107.761C263.157 102.93 260.434 94.091 268.797 89.2607C277.159 84.4304 281.127 89.2607 288.262 85.0745C296.582 80.1765 295.235 77.0723 301.133 73.6427C309.486 68.7802 313.36 77.7453 321.729 72.9085L334.056 80.0219L233.615 137.986L221.282 130.869C229.667 126.029 229.664 115.293 238.04 110.472Z" fill="#CEE7FD"/>
<path d="M313.46 80.7626C307.562 84.1921 308.909 87.2996 300.585 92.1975C293.453 96.3838 289.496 91.5535 281.127 96.3838C272.757 101.214 275.477 110.054 267.105 114.881C259.841 119.067 257.685 113.364 250.366 117.586C241.987 122.416 241.987 133.149 233.608 137.979L221.275 130.862C229.654 126.032 229.654 115.302 238.033 110.482C245.355 106.257 247.508 111.963 254.772 107.77C263.15 102.94 260.427 94.1007 268.79 89.2704C277.153 84.4401 281.12 89.2704 288.255 85.0841C296.576 80.1862 295.229 77.0819 301.126 73.6524C309.48 68.7899 313.353 77.7549 321.723 72.9182L334.049 80.0316C325.693 84.8555 321.81 75.8936 313.46 80.7626Z" fill="#5F98ED"/>
<path d="M233.615 138.987C233.436 138.988 233.26 138.94 233.106 138.849L220.776 131.735C220.621 131.646 220.493 131.517 220.404 131.363C220.314 131.208 220.267 131.033 220.267 130.855C220.267 130.676 220.314 130.501 220.404 130.346C220.493 130.192 220.621 130.063 220.776 129.974C224.717 127.72 226.686 124.049 228.771 120.178C230.895 116.23 233.093 112.147 237.53 109.593C241.513 107.297 244.217 107.725 246.605 108.102C248.942 108.476 250.959 108.795 254.269 106.882C258.159 104.628 259.467 101.475 260.853 98.1228C262.306 94.6063 263.808 90.9707 268.291 88.3817C272.876 85.7315 276.312 85.8345 279.338 85.9182C282.138 86.0019 284.559 86.0728 287.746 84.1986C292.087 81.645 293.65 79.6549 295.158 77.7292C296.489 76.0354 297.736 74.4318 300.62 72.7637C305.193 70.1006 308.677 71.2727 311.752 72.3064C314.826 73.3401 317.433 74.216 321.217 72.0295C321.371 71.9392 321.547 71.8916 321.726 71.8916C321.905 71.8916 322.08 71.9392 322.235 72.0295L334.562 79.1429C334.716 79.2323 334.844 79.3607 334.934 79.5153C335.023 79.6699 335.07 79.8452 335.07 80.0236C335.07 80.2021 335.023 80.3774 334.934 80.532C334.844 80.6866 334.716 80.815 334.562 80.9043L234.121 138.849C233.967 138.939 233.793 138.987 233.615 138.987ZM223.225 130.801L233.615 136.797L332.032 80.022L321.719 74.0743C317.391 76.3285 314.059 75.2239 311.107 74.2321C308.058 73.2049 305.425 72.3193 301.645 74.5187C299.109 75.9936 298.02 77.3782 296.76 78.9851C295.21 80.9623 293.45 83.2004 288.777 85.9504C285.084 88.1176 282.132 88.0339 279.28 87.9501C276.254 87.8632 273.395 87.7795 269.306 90.1431C265.439 92.3973 264.117 95.5466 262.732 98.8956C261.278 102.415 259.773 106.054 255.287 108.643C251.349 110.913 248.661 110.485 246.286 110.108C244.03 109.754 241.903 109.413 238.552 111.351C234.617 113.605 232.651 117.27 230.566 121.138C228.678 124.641 226.734 128.248 223.225 130.801Z" fill="#93D0FF"/>
<path opacity="0.99" d="M5.05176 155.089L47.7738 131.902C51.53 129.994 55.6841 129 59.8978 129C64.1116 129 68.2658 129.994 72.022 131.902L156.708 185.407C163.387 189.197 165.654 197.657 159.013 201.523L120.374 221.988C116.618 223.896 112.517 228 108.303 228C104.089 228 99.8816 223.896 96.1254 221.988L5.05176 169.113C-1.70287 165.247 -1.66492 158.955 5.05176 155.089Z" fill="url(#paint1_linear)"/>
<path d="M191.361 234.718C191.361 234.611 191.361 234.496 191.31 234.389C191.332 234.496 191.346 234.647 191.361 234.718Z" fill="#80B6F1"/>
<path d="M191.353 235.973C191.041 235.971 190.741 235.854 190.511 235.643C190.28 235.432 190.136 235.144 190.106 234.833C190.113 234.762 190.113 234.69 190.106 234.618C190.106 234.539 190.106 234.468 190.106 234.389C190.096 234.071 190.208 233.761 190.42 233.523C190.631 233.285 190.925 233.137 191.242 233.109C191.558 233.08 191.874 233.174 192.124 233.371C192.374 233.567 192.54 233.852 192.587 234.166C192.587 234.31 192.637 234.46 192.651 234.604V234.719C192.652 235.032 192.536 235.334 192.325 235.565C192.114 235.796 191.823 235.939 191.511 235.966L191.353 235.973Z" fill="#5091DD"/>
<path d="M190.608 232.854C190.407 232.596 190.184 232.356 189.941 232.137C190.186 232.354 190.409 232.594 190.608 232.854Z" fill="#80B6F1"/>
<path d="M190.608 234.109C190.416 234.11 190.227 234.067 190.055 233.982C189.884 233.897 189.734 233.774 189.618 233.621C189.463 233.428 189.293 233.249 189.109 233.084C188.983 232.975 188.879 232.843 188.804 232.694C188.729 232.545 188.685 232.383 188.674 232.217C188.662 232.051 188.684 231.884 188.738 231.726C188.791 231.569 188.876 231.423 188.986 231.299C189.096 231.174 189.231 231.073 189.381 231C189.53 230.928 189.693 230.886 189.86 230.878C190.026 230.869 190.192 230.893 190.349 230.949C190.506 231.006 190.65 231.092 190.773 231.205C191.078 231.474 191.356 231.772 191.604 232.094C191.746 232.28 191.833 232.502 191.855 232.734C191.877 232.967 191.834 233.201 191.731 233.41C191.627 233.62 191.467 233.796 191.269 233.92C191.07 234.043 190.841 234.109 190.608 234.109Z" fill="#5091DD"/>
<path d="M101 205.25V222.729C101 224.077 101.901 225.433 103.674 226.495L148.568 252.447C152.142 254.518 157.918 254.518 161.492 252.447L206.334 226.48C208.121 225.441 209.015 224.085 209 222.714V205.272C209 205.205 209 205.144 209 205.077C209 205.009 209 205.077 209 205.122C208.983 204.916 208.948 204.712 208.895 204.512C208.895 204.587 208.94 204.655 208.947 204.73C208.929 204.611 208.904 204.493 208.872 204.376C208.872 204.309 208.827 204.241 208.797 204.165C208.767 204.078 208.732 203.993 208.692 203.909C208.692 203.977 208.737 204.045 208.767 204.105C208.685 203.901 208.584 203.704 208.467 203.518C208.542 203.653 208.632 203.774 208.692 203.909C208.615 203.757 208.53 203.608 208.437 203.465C208.396 203.39 208.351 203.317 208.301 203.247C208.276 203.201 208.246 203.158 208.211 203.119C208.233 203.145 208.253 203.173 208.271 203.201C207.747 202.523 207.09 201.959 206.341 201.545L161.447 175.548C157.872 173.484 152.09 173.484 148.523 175.548L103.681 201.507C103.087 201.803 102.557 202.213 102.122 202.715C101.686 203.216 101.354 203.799 101.143 204.429C101.071 204.674 101.028 204.927 101.015 205.182C101.015 205.182 101 205.22 101 205.25ZM208.977 205.491C208.967 205.692 208.934 205.892 208.88 206.086C208.931 205.891 208.962 205.692 208.97 205.491H208.977ZM208.226 207.374C208.058 207.587 207.875 207.789 207.678 207.976C207.885 207.791 208.075 207.59 208.249 207.374H208.226ZM208.737 206.447C208.655 206.652 208.554 206.849 208.437 207.035C208.562 206.849 208.67 206.653 208.759 206.447H208.737ZM206.311 209.023C206.706 208.796 207.078 208.531 207.423 208.232C207.085 208.53 206.721 208.794 206.334 209.023H206.311ZM102.111 207.75C102.202 207.848 102.277 207.946 102.374 208.044C102.299 207.946 102.224 207.848 102.134 207.75H102.111ZM101.023 205.544C101.023 205.611 101.023 205.687 101.023 205.762C101.068 205.687 101.053 205.611 101.045 205.544H101.023ZM101.345 206.666C101.398 206.756 101.443 206.862 101.503 206.959C101.453 206.864 101.407 206.766 101.368 206.666H101.345Z" fill="#3199F0"/>
<g style="mix-blend-mode:overlay" opacity="0.3">
<path d="M180.428 209.215C178.131 210.63 174.304 211.976 169.32 212.896C159.369 214.743 148.851 214.218 145.827 211.728C144.296 210.483 144.962 208.983 147.228 207.561C157.478 201.128 150.045 191.548 163.97 176L205 199.922C193.678 203.517 184.829 206.471 180.435 209.2L180.428 209.215Z" fill="#80B0F2"/>
</g>
<g style="mix-blend-mode:overlay" opacity="0.3">
<path d="M101.135 204.056C100.685 205.679 101.511 207.408 103.673 208.667L148.565 234.851C152.139 236.937 157.914 236.937 161.488 234.851L206.327 208.698C209.451 206.877 209.834 204.071 207.491 202C207.935 202.352 208.3 202.796 208.559 203.302C208.818 203.809 208.966 204.366 208.993 204.935V222.503C208.993 223.876 208.114 225.241 206.327 226.295L161.488 252.441C157.914 254.52 152.139 254.52 148.565 252.441L103.673 226.265C101.901 225.233 101.008 223.868 101 222.472V204.905C101.004 204.617 101.05 204.331 101.135 204.056Z" fill="#80B0F2"/>
</g>
<path d="M155.134 255.998C152.617 256.04 150.131 255.441 147.912 254.258L102.377 228.151C100.299 226.964 99.0737 225.239 99.0052 223.409V205.712C98.9983 205.629 98.9983 205.545 99.0052 205.462C99.0237 205.137 99.0798 204.814 99.1726 204.502V204.456C99.7125 202.877 100.851 201.569 102.346 200.811L147.782 174.741C151.831 172.42 158.171 172.42 162.243 174.741L207.74 200.849C208.588 201.313 209.34 201.934 209.954 202.679C210.03 202.757 210.096 202.844 210.152 202.936C210.208 203.007 210.256 203.083 210.297 203.163C210.32 203.191 210.34 203.222 210.358 203.254C210.464 203.417 210.561 203.586 210.647 203.761C210.7 203.882 210.746 203.987 210.784 204.101C210.822 204.214 210.86 204.313 210.898 204.426C210.939 204.568 210.972 204.712 210.997 204.857V204.978C210.997 204.978 210.997 205.031 210.997 205.061C210.997 205.092 210.997 205.19 210.997 205.258C210.997 205.326 210.997 205.341 210.997 205.379C210.993 205.414 210.993 205.45 210.997 205.485C211.001 205.558 211.001 205.631 210.997 205.704V223.22C211.001 223.268 211.001 223.316 210.997 223.364C210.951 225.224 209.757 226.918 207.633 228.144L162.182 254.221C160.02 255.391 157.596 256.002 155.134 255.998ZM101.699 223.152C101.704 223.187 101.704 223.223 101.699 223.258C101.699 224.173 102.46 225.118 103.739 225.859L149.236 251.967C152.425 253.797 157.813 253.797 161.01 251.967L206.423 225.882C207.74 225.126 208.463 224.188 208.455 223.258C208.455 223.212 208.455 223.167 208.455 223.129V205.833V205.681C208.447 205.564 208.429 205.448 208.402 205.334V205.243C208.402 205.243 208.402 205.197 208.402 205.175C208.405 205.152 208.405 205.129 208.402 205.107V205.069C208.349 204.94 208.285 204.816 208.212 204.698V204.645L208.158 204.547C208.155 204.535 208.155 204.522 208.158 204.509C207.748 203.975 207.23 203.532 206.636 203.208L161.132 177.101C157.943 175.271 152.554 175.271 149.365 177.101L103.922 203.171C103.015 203.598 102.314 204.365 101.973 205.303V205.349C101.938 205.477 101.918 205.609 101.912 205.742C101.916 205.79 101.916 205.838 101.912 205.886L101.699 223.152Z" fill="#93D0FF"/>
<path d="M145 237.035V246L107 223.973V215L145 237.035Z" fill="#DAE8FF"/>
<path d="M115.409 99.5936C117.607 99.2765 119.847 99.5992 121.88 100.526L126.751 97.5824V91.711C121.961 89.4996 117.667 89.4919 114.38 91.3411L109.086 94.5157C105.34 96.8273 103.007 101.736 103 108.686C103 127.857 116.082 150.11 128.113 158L133 155.072L130.283 147.051C122.057 139.738 112.765 124.004 112.765 108.678C112.788 104.756 113.743 101.682 115.409 99.5936Z" fill="white"/>
<path d="M121.426 94.6364V100.52L126.469 97.5782V91.71C121.51 89.4999 117.064 89.4921 113.661 91.3404L108.18 94.5132C111.637 92.457 116.252 92.3261 121.426 94.6364ZM112.013 108.706C112.013 104.771 113.025 101.698 114.749 99.6112C115.229 99.5345 115.713 99.4933 116.198 99.488C110.725 99.5958 107 104.008 107 111.64C107 126.95 116.627 142.667 125.128 149.991L127.941 158L133 155.074L130.187 147.057C121.61 139.749 112.013 124.023 112.013 108.706Z" fill="#CEE7FD"/>
<path d="M128.812 159C128.564 159 128.322 158.929 128.113 158.794C115.774 150.911 102 128.474 102 108.838C102 101.863 104.336 96.5364 108.579 93.8043C108.651 93.7331 108.732 93.6716 108.819 93.6212L114.182 90.477C114.273 90.4267 114.368 90.3857 114.467 90.3549C118.222 88.4089 122.984 88.5615 127.941 90.7975C128.168 90.9061 128.36 91.0791 128.493 91.2956C128.626 91.5122 128.695 91.7632 128.692 92.0185V97.8337C128.693 98.0684 128.633 98.2991 128.518 98.5028C128.403 98.7064 128.238 98.8757 128.038 98.9937L123.089 101.901C122.916 102.003 122.723 102.063 122.524 102.078C122.325 102.093 122.125 102.061 121.94 101.985C120.254 101.235 118.411 100.923 116.578 101.077C115.218 102.962 114.505 105.656 114.505 108.838C114.505 123.102 123.419 138.54 131.778 145.828C131.955 145.98 132.088 146.178 132.161 146.4L134.925 154.337C135.027 154.632 135.025 154.953 134.918 155.246C134.811 155.539 134.606 155.784 134.339 155.94L129.383 158.847C129.206 158.94 129.011 158.992 128.812 159ZM110.374 95.7809C110.316 95.8352 110.253 95.8837 110.186 95.9259C106.619 98.1085 104.651 102.687 104.651 108.815C104.651 127.2 117.276 148.201 128.857 156.131L132.169 154.192L129.916 147.629C120.949 139.685 111.966 123.918 111.966 108.846C111.966 104.778 112.995 101.367 114.97 98.9861C115.158 98.7449 115.424 98.5798 115.721 98.5206C117.969 98.1806 120.266 98.4437 122.383 99.2837L126.138 97.0782V92.9115C122.083 91.2631 118.425 91.2401 115.519 92.8351C115.454 92.872 115.386 92.9026 115.316 92.9267L110.374 95.7809Z" fill="#93D0FF"/>
<path d="M199.723 106.144C198.122 101.181 193.989 96.4307 187.302 92.5983C169.719 82.4749 141.225 82.4748 123.673 92.5527C116.955 96.423 112.83 101.204 111.259 106.213C92.8074 165.352 140.28 189.378 140.302 205.277C140.302 207.5 141.827 209.739 144.755 211.439C150.703 214.854 160.325 214.854 166.257 211.439C169.216 209.739 170.695 207.508 170.695 205.269C170.695 189.378 218.228 165.344 199.723 106.144Z" fill="white"/>
<path d="M140.081 205.343C140.081 207.55 141.611 209.771 144.549 211.458C150.516 214.847 160.171 214.847 166.123 211.458C169.091 209.771 170.576 207.557 170.576 205.336C170.576 189.52 218.277 165.707 199.709 106.957C198.102 102.032 193.956 97.3176 187.246 93.5144C181.236 90.234 174.683 88.0284 167.89 87C169.007 87.9371 170.032 88.976 170.951 90.1028C174.225 94.1394 164.149 121.055 164.149 121.055C169.199 127.08 170.966 136.283 171.035 146.548V146.669C171.035 155.45 169.834 165.037 168.319 174.142C159.138 207.226 129.217 192.307 114 163.952C123.739 184.06 140.081 196.11 140.081 205.336V205.343Z" fill="#CEE7FD"/>
<path d="M155.029 214.996C151.028 215.066 147.076 214.117 143.554 212.241C140.249 210.361 138.421 207.779 138.413 204.97C138.413 200.591 134.099 195.155 128.629 188.3C115.739 172.083 96.2539 147.576 109.335 106.006C111.072 100.51 115.593 95.557 122.394 91.6613C140.371 81.4312 169.61 81.4463 187.58 91.7066C194.281 95.5193 198.779 100.381 200.585 105.764C200.608 105.819 200.629 105.874 200.646 105.931C213.766 147.538 194.266 172.06 181.36 188.285C175.898 195.155 171.576 200.584 171.576 204.948C171.576 207.764 169.755 210.353 166.45 212.233C162.945 214.102 159.013 215.054 155.029 214.996ZM154.945 86.6481C143.646 86.6481 132.354 89.0943 123.748 93.9867C117.536 97.5427 113.444 101.982 111.906 106.821C99.2451 147.055 118.202 170.905 130.755 186.692C136.531 193.962 141.098 199.7 141.106 204.978C141.106 206.812 142.46 208.587 144.931 209.976C150.508 213.162 159.588 213.169 165.158 209.976C167.606 208.587 168.944 206.812 168.944 204.978C168.944 199.693 173.534 193.955 179.302 186.684C191.841 170.913 210.79 147.093 198.19 106.897C198.169 106.853 198.151 106.808 198.137 106.761C196.607 101.944 192.468 97.5427 186.279 94.0168C177.627 89.0792 166.282 86.618 154.945 86.618V86.6481Z" fill="#93D0FF"/>
<path d="M123.176 92.5947C140.714 82.4608 169.224 82.4608 186.807 92.6405C204.39 102.82 204.405 119.257 186.807 129.391C169.208 139.525 140.759 139.548 123.176 129.391C105.593 119.234 105.623 102.729 123.176 92.5947Z" fill="white"/>
<path d="M155.045 138C143.354 138 131.656 135.434 122.751 130.303C113.846 125.172 109 118.336 109 110.978C109 103.621 113.869 96.7619 122.728 91.6534C140.515 81.4288 169.455 81.4514 187.242 91.7062C196.116 96.7997 201 103.659 201 111.031C201 118.403 196.124 125.24 187.257 130.333C178.39 135.427 166.684 138 155.045 138ZM124 93.9398C115.997 98.5503 111.59 104.602 111.59 110.978C111.59 117.355 116.012 123.406 124.023 128.017C141.083 137.826 168.842 137.864 185.886 128.017C193.897 123.414 198.312 117.37 198.312 111.001C198.312 104.632 193.89 98.5654 185.871 93.9549C168.811 84.1453 141.06 84.1453 124 93.9096V93.9398Z" fill="#93D0FF"/>
<path d="M128.266 94.583C143.283 85.8057 167.669 85.8057 182.724 94.583C197.778 103.36 197.74 117.644 182.724 126.414C167.707 135.184 143.328 135.207 128.281 126.414C113.235 117.622 113.25 103.376 128.266 94.583Z" fill="#CEE7FD"/>
<g style="mix-blend-mode:overlay" opacity="0.2">
<path d="M165.804 146.347C151.427 138.029 128.144 138.029 113.795 146.304C110.584 148.06 107.804 150.51 105.656 153.475C100.4 145.831 103.104 136.781 113.795 130.6C128.137 122.325 151.427 122.325 165.804 130.6C176.517 136.774 179.242 145.831 173.964 153.475C171.806 150.523 169.019 148.089 165.804 146.347Z" fill="#80B0F2"/>
</g>
<path d="M194.529 185.938C189.834 188.792 183.799 188.7 178 185.555L180.71 180.836L185.606 177.913C188.145 178.735 190.859 178.785 193.426 178.059C196.299 175.22 198.232 170.517 198.232 163.574C198.232 153.73 192.152 141.946 184.243 135.777V129.931L189.123 127C199.728 134.818 208 150.508 208 163.574C208 173.302 204.593 179.732 199.684 182.869L194.544 185.938H194.529Z" fill="white"/>
<path d="M194.011 177.045C190.455 181.346 185.045 182.383 180 180.885L185.023 177.959C187.628 178.781 190.413 178.832 193.046 178.105C193.388 177.77 193.71 177.416 194.011 177.045ZM194.194 186L199.467 182.928C204.505 179.787 208 173.351 208 163.612C208 150.555 199.513 134.826 188.632 127L183.624 129.934C194.505 137.752 202.985 153.459 202.985 166.53C202.985 176.43 199.368 182.92 194.179 186H194.194Z" fill="#CEE7FD"/>
<path d="M187.455 189C184.048 188.954 180.703 188.071 177.708 186.427C177.549 186.344 177.408 186.23 177.295 186.09C177.181 185.95 177.097 185.788 177.048 185.614C177.001 185.441 176.988 185.259 177.011 185.081C177.034 184.902 177.093 184.73 177.183 184.575L179.935 179.899C180.051 179.705 180.213 179.543 180.407 179.429L185.363 176.537C185.517 176.447 185.687 176.389 185.864 176.368C186.041 176.347 186.22 176.363 186.39 176.416C188.619 177.123 190.995 177.204 193.265 176.651C196.032 173.805 197.487 169.273 197.487 163.505C197.487 154.397 191.623 143.012 183.848 137.069C183.686 136.946 183.553 136.785 183.462 136.601C183.371 136.416 183.324 136.213 183.324 136.007V130.223C183.324 129.989 183.385 129.76 183.501 129.557C183.617 129.355 183.783 129.187 183.983 129.07L188.924 126.178C189.142 126.051 189.392 125.989 189.643 126.002C189.894 126.014 190.136 126.099 190.341 126.246C201.55 134.322 210 150.344 210 163.505C210 172.803 206.859 179.93 201.145 183.603C201.078 183.663 201.005 183.716 200.928 183.763L195.725 186.799C195.649 186.843 195.569 186.879 195.485 186.905C193.033 188.297 190.266 189.019 187.455 189ZM180.182 184.689C185.22 186.966 190.334 186.897 194.428 184.484C194.504 184.438 194.584 184.4 194.667 184.37L199.458 181.577C199.507 181.534 199.56 181.496 199.616 181.463C204.647 178.328 207.413 171.953 207.413 163.505C207.413 151.361 199.773 136.675 189.532 128.91L185.985 130.982V135.354C194.233 141.927 200.148 153.653 200.148 163.505C200.148 170.169 198.326 175.459 194.9 178.799C194.745 178.948 194.558 179.057 194.353 179.118C191.7 179.854 188.9 179.854 186.248 179.118L182.072 181.554L180.182 184.689Z" fill="#93D0FF"/>
<path d="M238.807 228L222 237.78V248.158L237.193 257L254 247.215V236.842L238.807 228Z" fill="white"/>
<g opacity="0.5">
<path opacity="0.5" d="M237.183 257.348L254.226 247.505V237.071L237.183 246.909V257.348Z" fill="#CEE7FD"/>
</g>
<path d="M222 248.259L237 257V246.741L222 238V248.259Z" fill="#CEE7FD"/>
<path d="M237.183 258C237.046 258 236.911 257.963 236.792 257.892L221.387 248.915C221.269 248.846 221.171 248.747 221.103 248.628C221.035 248.509 221 248.374 221 248.237V237.711C221 237.574 221.035 237.439 221.103 237.32C221.171 237.201 221.269 237.102 221.387 237.033L238.425 227.105C238.543 227.036 238.678 227 238.814 227C238.951 227 239.085 227.036 239.204 227.105L254.608 236.082C254.727 236.15 254.826 236.249 254.895 236.368C254.963 236.487 255 236.622 255 236.76V247.286C254.999 247.424 254.963 247.56 254.894 247.679C254.825 247.799 254.727 247.898 254.608 247.968L237.566 257.892C237.45 257.962 237.318 257.999 237.183 258ZM222.557 247.788L237.183 256.317L253.447 246.841V237.213L238.821 228.685L222.557 238.156V247.788Z" fill="#93D0FF"/>
<path d="M325 1L409 22.9969L385.402 30.6055L381.108 45.5029L373.165 39.2073L363.501 49L325 1Z" fill="white"/>
<path d="M377.322 35.9021L325 1L386 30.9362L381.663 46L373.642 39.6341L377.322 35.9021Z" fill="#CEE7FD"/>
<g style="mix-blend-mode:overlay">
<path d="M342.67 61L347 71L339 64.6958L342.67 61Z" fill="#80B0F2"/>
</g>
<path d="M363.48 50C363.58 50 363.678 49.98 363.77 49.9413C363.862 49.9025 363.945 49.8458 364.015 49.7745L373.267 40.3553L380.722 46.3114C380.818 46.3896 380.932 46.4427 381.054 46.466C381.175 46.4893 381.301 46.482 381.419 46.4448C381.537 46.4076 381.644 46.3417 381.73 46.253C381.816 46.1644 381.878 46.0558 381.912 45.9371L386.121 31.2551L409.488 23.6866C409.641 23.6359 409.773 23.5377 409.865 23.4065C409.957 23.2753 410.004 23.1181 410 22.9581C409.995 22.7982 409.938 22.6441 409.839 22.5186C409.739 22.3931 409.601 22.3029 409.446 22.2614L324.936 0.0236313C324.784 -0.0153343 324.624 -0.00593591 324.477 0.0505198C324.331 0.106976 324.207 0.207628 324.121 0.338284C324.036 0.468939 323.994 0.623015 324.001 0.778758C324.008 0.934501 324.064 1.08406 324.161 1.20635L362.894 49.7192C362.96 49.8016 363.043 49.8691 363.138 49.9175C363.232 49.9659 363.336 49.994 363.441 50H363.48ZM373.203 38.611C373.002 38.6118 372.81 38.6913 372.668 38.8322L363.536 48.1451L326.749 2.03595L406.61 23.0442L385.282 29.9533C385.166 29.9903 385.06 30.0555 384.975 30.1432C384.89 30.2308 384.828 30.338 384.795 30.4553L380.774 44.4395L373.673 38.7854C373.542 38.6745 373.375 38.6128 373.203 38.611Z" fill="#93D0FF"/>
<path d="M306.521 225.443C307.165 226.289 307.898 227.064 308.708 227.753C314.101 231.905 336.659 250.369 352.427 244.853C374.327 237.182 361.938 220.149 357.187 213.317C358.132 213.177 359.028 213.071 359.932 212.964C356.948 209.256 355.131 202.72 355.131 189.485C355.131 171.53 341.748 160.712 330.97 161.41C320.193 162.109 306.513 167.732 309.596 182.842C311.7 192.954 316.723 215.767 306.521 225.443Z" fill="white"/>
<path opacity="0.56" d="M190.786 243.714L231.264 221.719C234.823 219.909 238.759 218.966 242.751 218.966C246.744 218.966 250.68 219.909 254.238 221.719L334.476 272.472C340.804 276.068 342.952 284.092 336.66 287.76L300.05 307.172C296.491 308.981 292.606 312.875 288.614 312.875C284.621 312.875 280.634 308.981 277.076 307.172L190.786 257.017C184.387 253.349 184.423 247.381 190.786 243.714Z" fill="url(#paint2_linear)"/>
<path d="M277.642 190.208L318.119 168.213C321.678 166.403 325.614 165.46 329.606 165.46C333.599 165.46 337.535 166.403 341.094 168.213L421.331 218.966C427.659 222.562 429.807 230.586 423.515 234.254L386.905 253.666C383.346 255.475 379.461 259.369 375.469 259.369C371.476 259.369 367.49 255.475 363.931 253.666L277.642 203.511C271.242 199.843 271.278 193.875 277.642 190.208Z" fill="url(#paint3_linear)"/>
<path d="M311.751 203.679C311.751 200.185 311.023 189.847 310.659 185.115C311.387 185.479 313.279 186.644 315.026 188.391L330.314 203.679C333.59 206.955 343.417 211.322 349.969 212.414C356.521 213.506 357.613 213.506 360.889 218.966C364.165 224.426 365.723 226.493 362.867 237.529C360.889 245.173 347.579 246.265 333.384 242.989C322.027 240.369 310.295 228.066 306.291 223.334C307.383 222.242 309.785 219.403 310.659 216.782C311.751 213.506 311.751 208.047 311.751 203.679Z" fill="white"/>
<g style="mix-blend-mode:overlay" opacity="0.5">
<path d="M306.521 225.443C307.165 226.289 307.898 227.064 308.708 227.753C309.999 228.739 312.276 230.556 315.194 232.685C326.704 226.857 325.454 208.557 325.158 191.482C325.002 182.908 331.135 174.358 340.137 163.449C337.3 162.016 334.146 161.325 330.97 161.443C320.201 162.092 306.513 167.765 309.596 182.875C311.701 192.954 316.724 215.767 306.521 225.443Z" fill="#5F98ED"/>
</g>
<path d="M346.072 246.875C348.342 246.897 350.599 246.533 352.747 245.798C359.612 243.389 363.854 239.822 365.35 235.185C367.816 227.589 362.374 219.121 358.897 214.098L359.809 213.983H360.048C360.227 213.969 360.398 213.906 360.544 213.8C360.689 213.694 360.802 213.549 360.87 213.383C360.934 213.222 360.954 213.046 360.928 212.874C360.902 212.702 360.831 212.54 360.722 212.405C357.557 208.459 356.143 201.405 356.143 189.534C356.143 180.565 352.854 172.533 346.902 166.927C342.2 162.504 336.371 160.153 330.946 160.49C322.437 161.008 315.12 164.23 311.38 169.122C308.478 172.912 307.573 177.614 308.7 183.097L308.864 183.919C311.002 194.253 315.441 215.742 305.888 224.827C305.71 224.994 305.602 225.223 305.585 225.467C305.568 225.71 305.644 225.952 305.798 226.142C306.484 227.049 307.27 227.876 308.141 228.608L309.061 229.315C315.079 233.944 331.685 246.875 346.072 246.875ZM358.198 212.224L357.047 212.38C356.882 212.403 356.726 212.468 356.594 212.569C356.461 212.67 356.357 212.803 356.291 212.956C356.225 213.109 356.199 213.276 356.216 213.441C356.234 213.607 356.293 213.765 356.389 213.901L356.661 214.296C359.859 218.883 365.81 227.449 363.5 234.585C362.193 238.613 358.362 241.762 352.106 243.957C337.629 249.029 317.003 232.99 310.221 227.72L309.3 227.005C308.763 226.562 308.273 226.067 307.837 225.525C317.348 215.405 312.901 193.908 310.739 183.459L310.582 182.678C309.571 177.745 310.344 173.635 312.892 170.281C316.296 165.833 323.078 162.882 331.028 162.413C335.853 162.109 341.279 164.329 345.529 168.324C351.095 173.553 354.161 181.083 354.161 189.51C354.161 200.632 355.411 207.76 358.198 212.224Z" fill="#93D0FF"/>
<path d="M371.902 161.879C371.902 181.897 372.543 213.457 357.105 215.635C341.666 217.814 304.203 192.124 304.203 163.614C304.203 135.103 326.589 119.714 345.776 124.655C364.092 129.373 371.902 149.474 371.902 161.879Z" fill="white"/>
<g style="mix-blend-mode:overlay" opacity="0.5">
<path d="M304.195 163.614C304.195 192.124 341.633 217.814 357.096 215.635C358.637 215.388 360.112 214.83 361.431 213.995C362.749 213.159 363.884 212.065 364.766 210.777C362.111 212.158 357.811 215.035 352.534 212.544C342.751 207.916 328.52 195.527 327.591 184.593C326.424 170.971 322.971 162.882 320.834 155.82C320.834 155.82 320.76 152.137 318.088 131.412C309.941 138.153 304.195 149.202 304.195 163.614Z" fill="#5F98ED"/>
</g>
<path d="M355.173 216.737C355.86 216.742 356.547 216.695 357.228 216.597C372.93 214.386 372.897 185.358 372.848 164.189V161.879C372.848 148.906 364.52 128.486 345.998 123.709C336.601 121.292 326.539 123.528 318.384 129.842C308.733 137.323 303.2 149.63 303.2 163.614C303.2 176.331 310.738 190.184 323.892 201.611C334.472 210.785 346.911 216.737 355.173 216.737ZM338.484 124.663C340.864 124.662 343.234 124.964 345.538 125.559C363.048 130.072 370.924 149.49 370.924 161.838V164.156C370.924 183.467 370.981 212.66 356.948 214.633C349.327 215.701 336.264 209.7 325.183 200.098C312.457 189.041 305.165 175.731 305.165 163.572C305.165 150 310.286 138.556 319.592 131.346C324.977 127.096 331.624 124.759 338.484 124.704V124.663Z" fill="#93D0FF"/>
<path d="M363.87 130.368C373.686 140.233 384.505 142.987 363.007 153.6C347.626 161.196 340.318 151.405 328.619 155.343C321.755 157.653 327.945 174.539 326.063 175.073C324.18 175.608 320.423 177.351 319.371 174.202C315.17 161.591 306.447 168.447 307.294 175.172C308.141 181.897 314.899 189.97 313.049 196.546C311.199 203.123 308.33 190.151 301.416 176.759C294.502 163.367 293.911 138.342 313.805 126.044C333.7 113.745 352.46 118.933 363.87 130.368Z" fill="#5F98ED"/>
<path d="M313.764 126.044C293.869 138.375 294.478 163.383 301.375 176.759C308.272 190.134 311.1 203.115 313.008 196.547C314.915 189.978 308.141 181.881 307.253 175.172C306.365 168.464 315.129 161.591 319.329 174.202C320.365 177.293 323.982 175.641 325.906 175.098C323.933 168.234 320.612 163.466 317.809 158.656C314.167 152.384 312.35 143.185 318.713 133.706C329.589 117.478 349.517 122.608 357.31 125.115C345.949 117.692 330.247 115.883 313.764 126.044Z" fill="#4E8AE3"/>
<path d="M311.791 199.284H311.881C313.213 199.218 313.698 197.541 313.912 196.818C315.145 192.518 313.09 187.832 311.067 183.294C309.769 180.351 308.544 177.54 308.223 175.024C307.845 171.999 309.744 168.735 312.202 168.176C314.66 167.617 316.896 169.927 318.409 174.482C319.625 178.099 323.399 176.898 325.421 176.249C325.734 176.15 326.03 176.052 326.243 175.986C327.723 175.591 327.444 173.676 326.893 169.861C326.186 164.929 325.109 157.53 328.858 156.272C333.691 154.628 337.794 155.491 342.134 156.387C347.889 157.571 354.367 158.919 363.369 154.48C372.05 150.189 375.922 146.974 376.333 143.719C376.744 140.463 373.637 137.759 369.691 134.388C368.047 133.007 366.246 131.445 364.487 129.678C353.701 118.875 334.563 112.027 313.18 125.214C292.718 137.857 293.45 163.712 300.438 177.203C302.904 181.913 304.803 186.599 306.349 190.356C309.136 196.933 310.147 199.284 311.791 199.284ZM312.893 166.154C312.523 166.147 312.154 166.18 311.791 166.252C308.363 167.074 305.806 171.234 306.308 175.246C306.669 178.074 308.009 181.116 309.3 184.051C311.166 188.276 313.09 192.642 312.054 196.25C311.973 196.55 311.866 196.841 311.733 197.122C310.911 196.176 309.489 192.699 308.207 189.592C306.645 185.794 304.696 181.075 302.23 176.29C295.604 163.441 294.831 138.844 314.257 126.85C334.678 114.255 352.895 120.75 363.163 131.026C364.98 132.843 366.846 134.429 368.482 135.835C371.976 138.819 374.738 141.179 374.459 143.448C374.147 145.914 370.348 148.841 362.563 152.696C354.162 156.807 348.275 155.623 342.586 154.447C338.18 153.535 333.626 152.597 328.299 154.39C322.971 156.182 324.188 164.559 325.01 170.108C325.254 171.452 325.394 172.812 325.429 174.177L324.837 174.358C322.149 175.221 320.776 175.361 320.267 173.832C318.113 167.321 314.923 166.154 312.925 166.154H312.893Z" fill="#93D0FF"/>
<path d="M340.564 122.336L333.067 118.012L281.859 147.607V206.675L289.348 210.999L301.219 204.151V158.738L340.564 136.024V122.336ZM340.564 285.341L289.348 314.936L281.859 310.603V251.52L293.705 244.663L301.194 248.996V285.719L333.067 267.37L340.564 271.653V285.341ZM430.682 70.3061V129.373L418.819 136.23L411.322 131.897V95.1744L379.474 113.565L371.968 109.232V95.5526L423.184 65.9573L430.682 70.3061ZM430.682 233.31L379.474 262.906L371.976 258.581V244.869L411.322 222.155V176.775L423.184 169.927L430.682 174.251V233.31Z" fill="white"/>
<path d="M371.976 95.5526V109.232L379.482 113.565V99.8768L430.69 70.2815L423.184 65.9573L371.976 95.5526ZM418.835 136.23L411.338 131.897V95.1744L379.49 113.565L418.835 90.8502V136.23ZM411.338 176.775L423.201 169.927L430.698 174.251L418.835 181.099V226.479L379.49 249.201V262.881L371.993 258.557V244.869L411.322 222.155L411.338 176.775ZM333.067 267.37L340.564 271.653L301.219 294.375V285.719L333.067 267.37ZM333.067 118.053L340.564 122.336L289.348 151.932V210.974L281.859 206.65V147.583L333.067 118.053ZM301.211 249.037L289.348 255.86V314.928L281.859 310.595V251.52L293.705 244.663L301.211 249.037Z" fill="#CEE7FD"/>
<path d="M289.348 315.873C289.517 315.874 289.684 315.832 289.833 315.75L341.049 286.154C341.193 286.069 341.313 285.95 341.398 285.806C341.483 285.662 341.53 285.499 341.534 285.332V271.653C341.528 271.486 341.48 271.324 341.396 271.18C341.311 271.037 341.192 270.916 341.049 270.83L333.552 266.506C333.404 266.421 333.237 266.376 333.067 266.376C332.896 266.376 332.729 266.421 332.582 266.506L302.164 284.058V248.996C302.16 248.828 302.113 248.664 302.026 248.519C301.94 248.375 301.817 248.256 301.671 248.174L294.19 243.841C294.041 243.756 293.872 243.711 293.701 243.711C293.529 243.711 293.361 243.756 293.212 243.841L281.374 250.673C281.229 250.757 281.109 250.877 281.024 251.021C280.939 251.165 280.892 251.328 280.889 251.495V310.554C280.893 310.722 280.941 310.886 281.028 311.03C281.114 311.173 281.236 311.293 281.382 311.376L288.871 315.708C289.014 315.803 289.178 315.859 289.348 315.873ZM339.586 284.773L289.348 313.777L282.837 310.011V252.079L293.705 245.79L300.224 249.555V285.727C300.23 285.893 300.278 286.056 300.363 286.199C300.447 286.343 300.566 286.463 300.709 286.549C300.858 286.634 301.027 286.679 301.198 286.679C301.37 286.679 301.538 286.634 301.687 286.549L333.05 268.463L339.569 272.228L339.586 284.773ZM379.474 263.843C379.644 263.844 379.812 263.798 379.959 263.711L431.175 234.116C431.319 234.032 431.44 233.912 431.525 233.768C431.61 233.624 431.656 233.461 431.66 233.294V174.251C431.657 174.084 431.611 173.92 431.526 173.776C431.441 173.632 431.32 173.513 431.175 173.429L423.678 169.105C423.53 169.02 423.363 168.975 423.193 168.975C423.022 168.975 422.855 169.02 422.707 169.105L410.836 175.953C410.694 176.039 410.575 176.159 410.49 176.303C410.405 176.446 410.358 176.608 410.351 176.775V221.587L371.491 244.03C371.346 244.113 371.225 244.233 371.14 244.377C371.054 244.521 371.009 244.685 371.006 244.852V258.54C371.01 258.708 371.058 258.872 371.144 259.016C371.231 259.161 371.353 259.28 371.499 259.362L378.997 263.687C379.137 263.785 379.303 263.842 379.474 263.851V263.843ZM429.712 232.743L379.474 261.746L372.946 257.981V245.436L411.807 222.977C411.952 222.894 412.073 222.774 412.158 222.63C412.243 222.486 412.289 222.322 412.292 222.154V177.334L423.184 171.045L429.703 174.81L429.712 232.743ZM289.348 211.944C289.519 211.946 289.687 211.901 289.833 211.813L301.704 204.956C301.849 204.873 301.971 204.754 302.056 204.61C302.141 204.465 302.187 204.302 302.189 204.134V159.306L341.057 136.871C341.202 136.786 341.322 136.667 341.407 136.523C341.492 136.379 341.539 136.216 341.542 136.049V122.336C341.54 122.169 341.494 122.005 341.409 121.861C341.324 121.716 341.203 121.597 341.057 121.514L333.56 117.182C333.412 117.096 333.245 117.052 333.075 117.052C332.905 117.052 332.737 117.096 332.59 117.182L281.374 146.777C281.229 146.861 281.109 146.981 281.024 147.125C280.939 147.269 280.892 147.432 280.889 147.599V206.666C280.895 206.833 280.942 206.995 281.027 207.139C281.112 207.282 281.231 207.402 281.374 207.488L288.871 211.813C289.015 211.901 289.179 211.949 289.348 211.952V211.944ZM300.241 203.551L289.348 209.823L282.829 206.066V148.166L333.067 119.163L339.586 122.928V135.49L300.726 157.924C300.579 158.007 300.457 158.126 300.37 158.27C300.284 158.414 300.236 158.579 300.232 158.747L300.241 203.551ZM418.819 137.2C418.99 137.201 419.157 137.155 419.304 137.068L431.175 130.22C431.319 130.136 431.44 130.016 431.525 129.872C431.61 129.728 431.656 129.565 431.66 129.398V70.306C431.655 70.1391 431.608 69.9761 431.524 69.8323C431.439 69.6886 431.319 69.5687 431.175 69.4839L423.678 65.135C423.53 65.0466 423.361 65 423.188 65C423.016 65 422.847 65.0466 422.699 65.135L371.483 94.7303C371.339 94.8145 371.218 94.9342 371.133 95.0782C371.049 95.2221 371.002 95.3853 370.998 95.5524V109.232C371 109.399 371.046 109.563 371.131 109.707C371.216 109.852 371.338 109.971 371.483 110.054L378.989 114.378C379.135 114.467 379.303 114.514 379.474 114.514C379.645 114.514 379.812 114.467 379.959 114.378L410.376 96.8348V131.872C410.38 132.039 410.427 132.203 410.512 132.347C410.596 132.49 410.717 132.61 410.861 132.694L418.367 137.019C418.499 137.118 418.655 137.18 418.819 137.2ZM429.712 128.814L418.819 135.103L412.292 131.338V95.166C412.288 94.998 412.24 94.8339 412.154 94.6897C412.067 94.5456 411.945 94.4265 411.798 94.3439C411.652 94.2554 411.484 94.2086 411.313 94.2086C411.142 94.2086 410.975 94.2554 410.828 94.3439L379.466 112.43L372.938 108.665V96.1114L423.184 67.108L429.703 70.8896L429.712 128.814Z" fill="#93D0FF"/>
<path d="M201.083 311.089C202.149 310.023 203.507 309.298 204.985 309.003C206.464 308.709 207.997 308.86 209.389 309.436C210.782 310.012 211.973 310.988 212.811 312.241C213.648 313.493 214.095 314.966 214.095 316.472C214.095 317.979 213.648 319.451 212.811 320.704C211.973 321.956 210.782 322.932 209.389 323.509C207.997 324.085 206.464 324.236 204.985 323.941C203.507 323.647 202.149 322.922 201.083 321.856C199.655 320.428 198.852 318.491 198.852 316.472C198.852 314.453 199.655 312.517 201.083 311.089Z" fill="white"/>
<path d="M209.365 319.354C210.575 318.145 211.34 316.563 211.538 314.865C211.736 313.167 211.356 311.452 210.458 309.997C211.372 310.561 212.157 311.311 212.761 312.199C213.365 313.087 213.774 314.092 213.961 315.15C214.148 316.207 214.109 317.291 213.846 318.332C213.584 319.373 213.104 320.347 212.438 321.19C211.772 322.032 210.935 322.724 209.982 323.22C209.03 323.716 207.983 324.005 206.91 324.068C205.838 324.131 204.764 323.967 203.76 323.585C202.755 323.204 201.843 322.615 201.083 321.856C200.666 321.428 200.3 320.954 199.991 320.443C201.448 321.342 203.166 321.723 204.867 321.526C206.569 321.328 208.153 320.563 209.365 319.354Z" fill="#CEE7FD"/>
<path d="M206.482 324.95C204.805 324.95 203.166 324.453 201.772 323.523C200.378 322.592 199.291 321.27 198.648 319.723C198.006 318.175 197.836 316.473 198.161 314.829C198.486 313.186 199.291 311.675 200.474 310.489C201.46 309.502 202.673 308.773 204.008 308.367C205.342 307.961 206.757 307.891 208.125 308.161C209.494 308.432 210.774 309.036 211.853 309.919C212.932 310.803 213.777 311.939 214.311 313.226C214.846 314.513 215.055 315.913 214.919 317.3C214.783 318.688 214.307 320.02 213.533 321.179C212.759 322.339 211.71 323.29 210.48 323.948C209.25 324.605 207.877 324.95 206.482 324.95ZM206.482 309.719C205.594 309.716 204.714 309.889 203.894 310.229C203.073 310.568 202.329 311.068 201.703 311.697C200.596 312.803 199.907 314.258 199.753 315.814C199.599 317.37 199.99 318.931 200.86 320.232C201.729 321.532 203.022 322.491 204.52 322.945C206.017 323.4 207.626 323.321 209.072 322.723C210.518 322.124 211.712 321.044 212.45 319.665C213.187 318.286 213.424 316.694 213.119 315.16C212.814 313.626 211.986 312.245 210.776 311.253C209.566 310.261 208.05 309.719 206.485 309.719H206.482Z" fill="#93D0FF"/>
<path d="M383.922 271.862L402.791 282.744V294.297L385.733 304.14L366.863 293.25V281.699L383.922 271.862Z" fill="white"/>
<path d="M385.732 304.14L366.863 293.25V281.699L385.732 292.589V304.14Z" fill="#CEE7FD"/>
<g opacity="0.5">
<path opacity="0.5" d="M402.792 294.297L385.733 304.14V292.589L402.792 282.744V294.297Z" fill="#CEE7FD"/>
</g>
<path d="M385.732 304.999C385.581 304.999 385.432 304.959 385.301 304.884L366.431 293.997C366.3 293.921 366.191 293.812 366.116 293.681C366.04 293.55 366 293.401 366 293.25V281.699C366 281.548 366.04 281.399 366.115 281.269C366.191 281.138 366.3 281.029 366.431 280.954L383.49 271.115C383.622 271.04 383.77 271 383.922 271C384.073 271 384.222 271.04 384.353 271.115L403.223 281.999C403.353 282.075 403.461 282.184 403.536 282.315C403.611 282.445 403.651 282.593 403.651 282.744V294.297C403.651 294.448 403.611 294.596 403.536 294.727C403.461 294.857 403.353 294.966 403.223 295.042L386.164 304.884C386.032 304.96 385.884 304.999 385.732 304.999ZM367.723 292.753L385.732 303.144L401.928 293.798V283.244L383.922 272.856L367.723 282.196V292.753Z" fill="#93D0FF"/>
<defs>
<linearGradient id="paint0_linear" x1="262" y1="107.5" x2="218.713" y2="40.1486" gradientUnits="userSpaceOnUse">
<stop stop-color="#CCE5FB"/>
<stop offset="1" stop-color="#CEE7FD" stop-opacity="0"/>
</linearGradient>
<linearGradient id="paint1_linear" x1="148.983" y1="214.274" x2="36.0233" y2="144.881" gradientUnits="userSpaceOnUse">
<stop stop-color="#CCE5FB"/>
<stop offset="1" stop-color="#CEE7FD" stop-opacity="0"/>
</linearGradient>
<linearGradient id="paint2_linear" x1="327.156" y1="299.855" x2="220.063" y2="234.142" gradientUnits="userSpaceOnUse">
<stop stop-color="#CCE5FB"/>
<stop offset="1" stop-color="#CEE7FD" stop-opacity="0"/>
</linearGradient>
<linearGradient id="paint3_linear" x1="414.011" y1="246.349" x2="358.54" y2="210.777" gradientUnits="userSpaceOnUse">
<stop stop-color="#CCE5FB"/>
<stop offset="1" stop-color="#CEE7FD" stop-opacity="0"/>
</linearGradient>
</defs>
</svg>
