<svg width="413" height="319" viewBox="0 0 413 319" fill="none" xmlns="http://www.w3.org/2000/svg">
<path d="M2.6749 248.986L140.411 169.466C143.964 167.418 143.967 164.09 140.411 162.036L138.123 160.71C134.569 158.663 134.571 155.339 138.123 153.284L198.636 118.355C202.19 116.306 207.953 116.302 211.498 118.355L213.79 119.686C217.344 121.733 223.102 121.731 226.651 119.686C230.21 117.633 235.966 117.638 239.513 119.686L248.24 124.723L322.22 167.271C325.769 169.322 325.762 172.646 322.22 174.699L98.2277 303.994C94.6627 306.045 88.9112 306.049 85.3551 303.994L11.3823 261.441L2.65231 256.409C-0.890167 254.365 -0.885651 251.039 2.6749 248.986Z" fill="url(#paint0_linear)"/>
<path d="M327.243 21.6504V162.365C327.243 166.524 324.323 171.582 320.717 173.667L93.7136 304.814C91.9092 305.851 90.277 305.944 89.0995 305.269L78.6853 299.256C77.488 298.578 76.7509 297.117 76.7538 295.018V154.326L87.2019 160.356L327.243 21.6504Z" fill="white"/>
<path d="M114 233.478V189.294C114 186.799 115.751 183.765 117.9 182.516L194.346 138.349C196.509 137.106 198.263 138.115 198.263 140.609V184.776C198.263 187.277 196.512 190.306 194.352 191.558L117.914 235.739C115.754 236.985 114 235.973 114 233.478Z" fill="#CEE7FD"/>
<path d="M87.1873 160.339V301.03C87.1873 303.099 87.9074 304.548 89.0736 305.235L78.682 299.236C77.4848 298.558 76.7477 297.097 76.7505 294.998V154.306L87.1873 160.339Z" fill="#CEE7FD"/>
<path d="M90.7996 306.442C91.965 306.403 93.0999 306.06 94.0921 305.447L321.099 174.3C324.902 172.107 327.997 166.747 328 162.351V21.6504C328 21.518 327.965 21.3879 327.898 21.2733C327.832 21.1588 327.736 21.0637 327.622 20.9977C327.507 20.9323 327.377 20.8979 327.245 20.8979C327.112 20.8979 326.983 20.9323 326.868 20.9977L87.1908 159.452L77.1295 153.639C77.0155 153.573 76.8859 153.538 76.7539 153.538C76.622 153.538 76.4923 153.573 76.3783 153.639C76.2636 153.705 76.1682 153.8 76.1018 153.915C76.0353 154.03 76.0003 154.16 76 154.292V294.984C76 297.244 76.7906 298.965 78.2364 299.827L78.307 299.872L88.7241 305.905C89.3563 306.264 90.0725 306.449 90.7996 306.442ZM326.489 22.9615V162.365C326.489 166.281 323.73 171.053 320.342 173.006L93.3354 304.156C91.8331 305.02 90.4607 305.181 89.4752 304.611L79.1344 298.64L79.0581 298.589C78.0557 298.024 77.5079 296.755 77.5079 295.015V155.629L86.8265 160.997C86.9405 161.064 87.0701 161.099 87.202 161.099C87.334 161.099 87.4636 161.064 87.5776 160.997L326.489 22.9615Z" fill="#93D0FF"/>
<path d="M325 6.70255L325.121 6.77319L325.237 6.84101V6.86079C326.316 7.57849 326.988 8.96867 326.988 10.9438V21.1611L87 160.317L84 159.358V149.143C84 144.984 86.9199 139.929 90.5259 137.841L317.532 6.70255C319.368 5.64295 321.02 5.57231 322.203 6.28718L325 6.70255Z" fill="#5F98ED"/>
<path d="M76.7539 144.089C76.7539 139.93 79.6738 134.875 83.2798 132.786L310.283 1.6481C312.119 0.588508 313.771 0.517868 314.954 1.23274L325.23 7.16648C324.058 6.54767 322.474 6.66352 320.712 7.67226L93.7081 138.828C90.0993 140.902 87.1851 145.962 87.1794 150.116V160.336L76.7313 154.306L76.7539 144.089Z" fill="#208FED"/>
<path d="M87.1879 161.093C87.3199 161.093 87.4496 161.058 87.5635 160.992L327.619 22.3088C327.734 22.2433 327.83 22.1483 327.896 22.0337C327.963 21.919 327.998 21.7887 327.997 21.6561V11.4331C327.997 9.3761 327.311 7.75987 326.066 6.83307C326.015 6.77184 325.954 6.72016 325.885 6.68049L325.645 6.53921L315.33 0.580045C313.856 -0.315667 311.941 -0.171561 309.905 0.995407L82.9014 132.145C79.0356 134.372 76.0057 139.619 76 144.089V154.309C75.9997 154.442 76.0345 154.572 76.101 154.687C76.1675 154.801 76.2632 154.896 76.3784 154.962L86.8265 160.992C86.9363 161.056 87.0607 161.091 87.1879 161.093ZM326.489 21.2266L87.1879 159.474L77.5051 153.88V144.089C77.5051 140.173 80.2696 135.4 83.6525 133.451L310.659 2.30083C312.178 1.42207 313.565 1.27231 314.559 1.87699L324.891 7.84464L324.964 7.88702C324.997 7.92169 325.034 7.95207 325.075 7.97743C325.987 8.58494 326.486 9.81124 326.486 11.4331L326.489 21.2266Z" fill="#93D0FF"/>
<path d="M92 149.019C92 151.46 93.7112 152.447 95.8291 151.226L210.151 85.1778C212.266 83.9543 213.98 80.9874 213.98 78.549C213.98 76.1048 212.266 75.1187 210.148 76.3422L95.8262 142.39C93.7084 143.614 91.9972 146.578 92 149.019Z" fill="white"/>
<path d="M316.646 19.7175C316.649 18.915 316.082 18.5844 315.381 18.9913C315.013 19.2314 314.706 19.555 314.485 19.9359C314.265 20.3169 314.138 20.7445 314.113 21.184C314.111 21.9921 314.681 22.3255 315.379 21.9158C315.748 21.6755 316.056 21.3511 316.276 20.969C316.497 20.5869 316.624 20.158 316.646 19.7175Z" fill="white"/>
<path d="M308.327 25.9875C307.624 26.3887 307.06 26.0637 307.06 25.2584C307.085 24.8188 307.213 24.3913 307.433 24.0104C307.654 23.6295 307.961 23.3059 308.33 23.0658C309.033 22.6617 309.598 22.9839 309.598 23.792C309.576 24.2327 309.45 24.6619 309.229 25.0437C309.008 25.4256 308.699 25.7491 308.327 25.9875Z" fill="white"/>
<path d="M301.268 30.062C300.565 30.4632 300 30.1382 300 29.3329H300.023C300.045 28.8945 300.169 28.4673 300.385 28.0852C300.602 27.7031 300.904 27.3767 301.268 27.1318C301.971 26.7334 302.536 27.0584 302.536 27.8637C302.513 28.3042 302.386 28.7331 302.166 29.1151C301.945 29.4972 301.638 29.8217 301.268 30.062Z" fill="white"/>
<path d="M162.175 78.2506C163.369 78.9203 164.106 80.3839 164.106 82.4749V85.162C164.109 85.5961 164.15 86.0291 164.228 86.4561C164.638 86.3061 165.034 86.1227 165.414 85.908L164.242 86.5861C164.844 89.6745 167.478 90.7425 170.632 88.9229L164.109 92.6922L89.747 135.641L83.224 139.408L77.9999 136.407C81.6003 134.324 84.5229 129.264 84.5229 125.105V122.415C84.5229 118.258 87.4399 113.2 91.0459 111.112L152.362 75.7047C154.167 74.6621 155.799 74.5745 156.979 75.2498L162.175 78.2506Z" fill="white"/>
<path d="M84.2969 125.322V122.632C84.2969 118.476 87.2139 113.418 90.8199 111.33L152.136 75.9225C153.941 74.8799 155.573 74.7923 156.753 75.4676L161.949 78.4684C160.771 77.7987 159.151 77.9033 157.357 78.9346L96.0411 114.359C92.4379 116.441 89.5181 121.499 89.5209 125.661V128.348C89.5209 132.505 86.5955 137.566 82.9951 139.651L77.7739 136.625C81.3743 134.545 84.2969 129.484 84.2969 125.322Z" fill="#CEE7FD"/>
<path d="M82.9925 140.394C83.1245 140.394 83.2541 140.359 83.368 140.292L89.8967 136.528L170.768 89.8044C170.933 89.7004 171.051 89.5365 171.098 89.3471C171.144 89.1577 171.116 88.9576 171.019 88.7887C170.921 88.6198 170.762 88.4953 170.575 88.4413C170.387 88.3873 170.186 88.4079 170.014 88.499C168.625 89.3014 167.326 89.4992 166.343 89.0641C165.643 88.742 165.134 88.1006 164.855 87.1879L165.538 86.7952C165.709 86.6944 165.834 86.5301 165.885 86.338C165.936 86.1458 165.908 85.9414 165.81 85.7691C165.711 85.5968 165.548 85.4705 165.356 85.4177C165.165 85.3648 164.96 85.3897 164.787 85.4869L164.609 85.5858C164.609 85.5208 164.609 85.4586 164.609 85.3965V82.7093C164.609 80.4489 163.813 78.7253 162.37 77.8719L162.302 77.8267L157.106 74.826C155.632 73.9783 153.718 74.1337 151.741 75.2809L90.4248 110.705C86.6183 112.901 83.5233 118.261 83.5233 122.652V125.322C83.5233 129.233 80.7645 134.005 77.3759 135.966C77.2616 136.032 77.1667 136.128 77.1007 136.242C77.0348 136.357 77 136.487 77 136.619C77 136.751 77.0348 136.881 77.1007 136.995C77.1667 137.11 77.2616 137.205 77.3759 137.271L82.6141 140.298C82.7297 140.362 82.8602 140.395 82.9925 140.394ZM166.32 90.6351L82.9925 138.769L79.2001 136.579C82.5068 134.084 85.0511 129.309 85.0511 125.331V122.641C85.0511 118.727 87.8071 113.955 91.1957 111.999L152.515 76.575C154.014 75.7075 155.384 75.5465 156.375 76.1201L161.503 79.0813C161.527 79.0995 161.552 79.1156 161.579 79.1293C162.576 79.6945 163.124 80.9575 163.124 82.6981V85.3852C163.126 85.8592 163.172 86.3321 163.259 86.798C163.255 86.844 163.255 86.8904 163.259 86.9364C163.584 88.5951 164.462 89.827 165.73 90.4062C165.921 90.4974 166.118 90.5739 166.32 90.6351Z" fill="#93D0FF"/>
<path d="M116.158 109.442C116.158 110.038 116.582 110.29 117.101 109.985L155.223 87.9451C155.495 87.7669 155.722 87.527 155.885 87.2447C156.048 86.9625 156.142 86.6458 156.16 86.3204C156.16 85.7242 155.745 85.4727 155.223 85.7807L117.101 107.82C116.827 107.997 116.599 108.236 116.435 108.518C116.271 108.8 116.176 109.117 116.158 109.442ZM129.207 106.241C129.224 105.915 129.318 105.598 129.482 105.315C129.645 105.033 129.873 104.793 130.147 104.616L155.228 90.1236C155.748 89.8241 156.169 90.0671 156.169 90.6662C156.152 90.9918 156.058 91.3088 155.895 91.5912C155.732 91.8736 155.504 92.1133 155.231 92.2909L130.147 106.778C129.628 107.083 129.21 106.84 129.207 106.241ZM98.7859 121.649L97.5038 120.908C97.1339 120.694 97.1367 120.004 97.5038 119.374C97.8709 118.744 98.4724 118.394 98.8367 118.606L100.124 119.343L101.404 117.119C101.773 116.486 102.369 116.144 102.728 116.359C103.087 116.574 103.098 117.255 102.728 117.888L101.449 120.109L102.734 120.849C103.098 121.061 103.101 121.745 102.734 122.383C102.366 123.022 101.771 123.358 101.404 123.146L100.122 122.409L98.8395 124.633C98.4696 125.268 97.8766 125.607 97.5095 125.398C97.1424 125.189 97.1424 124.503 97.5095 123.864L98.7859 121.649Z" fill="#5F98ED"/>
<path d="M164.091 84.8683V82.1811C164.091 78.0219 167.011 72.9669 170.614 70.8788L231.942 35.4572C233.746 34.4145 235.378 34.3269 236.558 35.0023L241.746 37.9974C240.568 37.3334 243.683 38.0793 243.68 42.2358V44.9201C243.68 49.0765 246.603 50.7577 250.203 48.6781L243.68 52.4475L169.321 95.4275L162.795 99.194L157.576 96.1791C161.177 94.0853 164.091 89.0247 164.091 84.8683Z" fill="#5F98ED"/>
<path d="M164.091 84.8683V82.1811C164.091 78.0219 167.011 72.9669 170.614 70.8788L231.942 35.4572C233.746 34.4145 235.378 34.3269 236.559 35.0023L241.746 37.9974C240.568 37.3334 238.947 37.4323 237.157 38.4721L175.841 73.8993C172.238 75.979 169.318 81.0396 169.318 85.2017V87.8916C169.318 92.0453 166.395 97.1087 162.792 99.194L157.574 96.1791C161.177 94.0853 164.091 89.0247 164.091 84.8683Z" fill="#93D0FF"/>
<path d="M157.576 96.9192C157.708 96.9185 157.838 96.8834 157.952 96.8175C161.759 94.6192 164.856 89.259 164.853 84.8681V82.1809C164.853 78.2732 167.609 73.4951 170.998 71.5369L232.317 36.1097C233.819 35.2422 235.192 35.0812 236.183 35.6548L241.339 38.633L241.379 38.6556C241.456 38.6992 241.54 38.7289 241.627 38.7432C242.102 39.1613 242.932 40.1842 242.929 42.2356V44.9199C242.929 47.2086 243.74 48.9379 245.214 49.7884C246.688 50.6389 248.602 50.4778 250.579 49.3306C250.744 49.2266 250.862 49.0627 250.909 48.8733C250.955 48.684 250.927 48.4839 250.829 48.315C250.732 48.1461 250.573 48.0216 250.386 47.9675C250.198 47.9135 249.997 47.9342 249.825 48.0252C248.323 48.8927 246.953 49.0566 245.962 48.483C244.971 47.9094 244.431 46.6492 244.429 44.9199V42.2356C244.429 38.6866 242.356 37.1665 241.639 37.0421H241.582L236.928 34.355C235.452 33.5073 233.54 33.6627 231.563 34.8099L170.247 70.2315C166.443 72.4327 163.348 77.7928 163.348 82.1809V84.8681C163.348 88.7787 160.592 93.5539 157.201 95.5121C157.055 95.5939 156.94 95.7221 156.875 95.8764C156.809 96.0308 156.797 96.2024 156.84 96.3644C156.883 96.5264 156.979 96.6694 157.112 96.7709C157.246 96.8723 157.409 96.9265 157.576 96.9249V96.9192Z" fill="#93D0FF"/>
<path d="M195.961 68.9826C195.961 69.5817 196.381 69.8303 196.898 69.5252L235.02 47.4856C235.294 47.3093 235.522 47.0703 235.685 46.7882C235.849 46.5062 235.943 46.1893 235.96 45.8637C235.96 45.2646 235.542 45.016 235.02 45.3212L196.898 67.3607C196.625 67.5391 196.398 67.7794 196.235 68.0622C196.072 68.345 195.978 68.6623 195.961 68.9883V68.9826ZM208.99 65.7784C209.009 65.4524 209.105 65.1354 209.269 64.8528C209.432 64.5703 209.66 64.3299 209.933 64.1509L235.028 49.6528C235.548 49.3702 235.968 49.5963 235.968 50.1953C235.951 50.5211 235.856 50.8381 235.693 51.1204C235.529 51.4027 235.302 51.6425 235.028 51.82L209.947 66.3153C209.425 66.6176 209.007 66.3718 209.004 65.7728L208.99 65.7784ZM178.577 81.1864L177.292 80.4432C176.925 80.2341 176.928 79.5447 177.292 78.9118C177.657 78.2788 178.258 77.9313 178.625 78.146L179.907 78.8807L181.189 76.6598C181.554 76.0268 182.152 75.6849 182.516 75.894C182.881 76.1031 182.886 76.7926 182.516 77.4255L181.234 79.6492L182.516 80.3895C182.881 80.5986 182.884 81.2824 182.516 81.921C182.149 82.5596 181.554 82.8987 181.189 82.6867L179.907 81.9464L178.628 84.1702C178.258 84.8059 177.662 85.1507 177.298 84.9387C176.934 84.7268 176.925 84.0374 177.298 83.4044L178.577 81.1864Z" fill="white"/>
<path d="M126.031 192.155C123.874 193.399 122.123 196.436 122.123 198.937V243.106C122.123 245.599 123.876 246.61 126.037 245.367L202.472 201.192C204.632 199.943 206.383 196.911 206.383 194.41V150.244C206.383 147.749 204.629 146.74 202.466 147.983L126.031 192.155Z" fill="white"/>
<path d="M124.283 246.647C125.037 246.624 125.771 246.403 126.412 246.006L202.859 201.844C205.262 200.454 207.145 197.191 207.145 194.413V150.244C207.145 148.757 206.603 147.627 205.623 147.062C204.643 146.497 203.389 146.593 202.099 147.344L125.664 191.497C123.258 192.884 121.377 196.145 121.377 198.926V243.095C121.377 244.581 121.917 245.712 122.899 246.277C123.32 246.52 123.797 246.648 124.283 246.647ZM204.231 148.209C204.455 148.204 204.676 148.259 204.872 148.367C205.36 148.65 205.64 149.334 205.64 150.244V194.413C205.64 196.626 204.022 199.431 202.107 200.539L125.664 244.7C124.873 245.161 124.136 245.265 123.648 244.983C123.159 244.7 122.88 244.016 122.88 243.107V198.931C122.88 196.716 124.495 193.913 126.412 192.808L202.859 148.644C203.271 148.383 203.744 148.233 204.231 148.209Z" fill="#93D0FF"/>
<path d="M192.086 178.889L197.829 175.572C198.349 175.27 198.767 175.513 198.772 176.109V193.452C198.755 193.778 198.661 194.096 198.498 194.378C198.335 194.661 198.108 194.901 197.835 195.08L192.088 198.397C191.572 198.697 191.148 198.457 191.148 197.852V180.511C191.166 180.186 191.26 179.87 191.423 179.588C191.585 179.306 191.813 179.067 192.086 178.889ZM181.852 177.273L187.599 173.953C188.113 173.654 188.536 173.897 188.536 174.493V199.358C188.517 199.683 188.423 199.999 188.259 200.281C188.096 200.563 187.869 200.802 187.596 200.98L181.858 204.308C181.338 204.611 180.915 204.368 180.917 203.766V178.901C180.936 178.575 181.031 178.258 181.195 177.975C181.358 177.693 181.585 177.452 181.858 177.273H181.852ZM171.616 198.245L177.362 194.922C177.882 194.639 178.3 194.868 178.303 195.464V205.275C178.285 205.6 178.19 205.917 178.027 206.2C177.863 206.482 177.636 206.722 177.362 206.899L171.616 210.219C171.099 210.522 170.678 210.282 170.678 209.68V199.872C170.697 199.546 170.791 199.23 170.954 198.947C171.117 198.664 171.343 198.424 171.616 198.245ZM161.382 180.477L167.129 177.157C167.646 176.858 168.069 177.098 168.066 177.697V211.189C168.05 211.514 167.956 211.831 167.793 212.114C167.63 212.396 167.402 212.636 167.129 212.813L161.382 216.133C160.863 216.436 160.442 216.193 160.445 215.594V182.111C160.461 181.783 160.554 181.465 160.717 181.181C160.88 180.897 161.108 180.656 161.382 180.477ZM151.146 202.517L156.898 199.194C157.415 198.911 157.838 199.14 157.833 199.737V217.077C157.816 217.403 157.723 217.721 157.56 218.004C157.397 218.287 157.169 218.527 156.895 218.705L151.146 222.028C150.632 222.31 150.209 222.081 150.211 221.482V204.167C150.228 203.841 150.321 203.524 150.484 203.241C150.646 202.958 150.873 202.718 151.146 202.54V202.517ZM130.687 214.339L136.428 211.019C136.951 210.72 137.371 210.965 137.371 211.562V228.899C137.353 229.225 137.258 229.542 137.094 229.824C136.93 230.107 136.702 230.346 136.428 230.524L130.682 233.847C130.168 234.147 129.744 233.906 129.744 233.307V215.989C129.763 215.663 129.858 215.346 130.022 215.063C130.186 214.78 130.414 214.54 130.687 214.362V214.339ZM140.913 200.923L146.662 197.6C147.179 197.301 147.599 197.547 147.596 198.146V223.011C147.581 223.337 147.487 223.655 147.324 223.938C147.161 224.221 146.933 224.461 146.659 224.638L140.913 227.947C140.39 228.247 139.972 228.004 139.975 227.405V202.54C139.993 202.215 140.088 201.9 140.251 201.619C140.413 201.338 140.64 201.1 140.913 200.923Z" fill="#CEE7FD"/>
<path opacity="0.58" d="M294.887 203.666C294.887 203.666 252.604 212.4 240.055 199.504C233.528 214.292 267.455 234.787 267.455 234.787L294.887 203.666Z" fill="url(#paint1_linear)"/>
<path opacity="0.58" d="M280.047 280.184C280.047 280.184 271.974 310.973 253.15 300.6L187 267.54L242.242 234.748L280.047 280.184Z" fill="url(#paint2_linear)"/>
<path d="M366.052 257.551L340.922 242.952L340.953 256.983L366.115 271.582L366.052 257.551Z" fill="#93D0FF"/>
<path d="M366.114 273.158C366.392 273.16 366.666 273.084 366.902 272.938C367.141 272.8 367.339 272.602 367.477 272.365C367.615 272.127 367.689 271.857 367.691 271.582V257.551C367.696 257.274 367.625 257.002 367.486 256.763C367.347 256.524 367.145 256.327 366.902 256.195L341.678 241.565C341.437 241.425 341.163 241.352 340.884 241.353C340.605 241.354 340.332 241.429 340.092 241.57C339.851 241.711 339.653 241.913 339.516 242.156C339.379 242.399 339.309 242.673 339.313 242.952V256.983C339.315 257.258 339.388 257.528 339.527 257.766C339.665 258.004 339.863 258.201 340.101 258.339L365.326 272.938C365.563 273.082 365.836 273.159 366.114 273.158ZM364.475 258.465V268.839L342.403 256.069V245.853L364.475 258.465Z" fill="#93D0FF"/>
<path d="M411.171 158.324L386.01 143.693L340.7 169.864L365.862 184.494L411.171 158.324Z" fill="#5F98ED"/>
<path d="M365.86 185.944C366.139 185.946 366.412 185.87 366.649 185.724L411.958 159.553C412.196 159.416 412.395 159.218 412.533 158.98C412.671 158.742 412.745 158.472 412.746 158.197C412.751 157.921 412.681 157.648 412.542 157.409C412.403 157.17 412.201 156.974 411.958 156.841L386.734 142.211C386.494 142.073 386.222 142 385.945 142C385.669 142 385.397 142.073 385.157 142.211L339.848 168.382C339.609 168.519 339.411 168.717 339.273 168.955C339.135 169.192 339.061 169.462 339.059 169.737C339.058 170.013 339.13 170.284 339.269 170.523C339.407 170.761 339.607 170.958 339.848 171.093L365.072 185.724C365.306 185.877 365.581 185.954 365.86 185.944ZM408.017 158.197L365.86 182.791L343.789 169.99L386.008 145.522L408.017 158.197Z" fill="#93D0FF"/>
<path d="M365.862 184.494L365.893 194.268L366.051 257.55L366.114 271.582L411.423 245.411L411.171 158.323L365.862 184.494Z" fill="#5F98ED"/>
<path d="M366.114 273.158C366.392 273.16 366.665 273.084 366.902 272.938L412.212 246.799C412.45 246.654 412.648 246.45 412.786 246.207C412.924 245.965 412.998 245.691 413 245.411L412.748 158.324C412.746 158.049 412.672 157.779 412.534 157.541C412.396 157.303 412.198 157.105 411.959 156.968C411.72 156.829 411.448 156.757 411.171 156.757C410.894 156.757 410.623 156.829 410.383 156.968L365.073 183.107C364.83 183.247 364.629 183.449 364.491 183.693C364.352 183.937 364.281 184.214 364.285 184.494L364.537 271.582C364.533 271.862 364.604 272.139 364.743 272.383C364.882 272.626 365.083 272.829 365.326 272.969C365.568 273.098 365.839 273.164 366.114 273.158ZM409.847 244.528L367.659 268.87L367.438 185.408L409.595 161.035L409.847 244.528Z" fill="#93D0FF"/>
<path d="M365.862 184.494L340.7 169.864L340.732 179.67L365.893 194.269L365.862 184.494Z" fill="#93D0FF"/>
<path d="M365.862 195.845C366.136 195.843 366.405 195.779 366.65 195.656C366.889 195.511 367.087 195.308 367.224 195.065C367.362 194.822 367.436 194.548 367.438 194.269V184.494C367.44 184.219 367.368 183.947 367.229 183.709C367.091 183.471 366.891 183.274 366.65 183.139L341.426 168.508C341.186 168.37 340.914 168.297 340.637 168.297C340.361 168.297 340.089 168.37 339.849 168.508C339.611 168.646 339.413 168.843 339.274 169.081C339.136 169.319 339.063 169.589 339.061 169.864V179.639C339.063 179.914 339.136 180.184 339.274 180.422C339.413 180.659 339.611 180.857 339.849 180.994L365.074 195.625C365.313 195.765 365.585 195.841 365.862 195.845ZM364.254 185.409V191.526L342.182 178.756V172.607L364.254 185.409Z" fill="#93D0FF"/>
<path d="M283.031 154.603L308.255 169.233C307.853 169.027 307.402 168.936 306.952 168.969C306.501 169.002 306.069 169.159 305.701 169.422L280.477 154.824C280.844 154.562 281.274 154.403 281.724 154.365C282.173 154.326 282.624 154.408 283.031 154.603Z" fill="#93D0FF"/>
<path d="M305.607 170.999C305.887 171.008 306.162 170.931 306.396 170.778C306.837 170.526 307.184 170.463 307.373 170.589C307.729 170.75 308.131 170.773 308.503 170.654C308.875 170.535 309.189 170.282 309.385 169.945C309.581 169.607 309.645 169.209 309.565 168.827C309.485 168.445 309.265 168.107 308.95 167.877L283.725 153.247C283.085 152.9 282.361 152.734 281.634 152.767C280.906 152.801 280.201 153.032 279.595 153.436C279.352 153.574 279.15 153.773 279.01 154.014C278.869 154.255 278.795 154.529 278.795 154.808C278.795 155.087 278.869 155.361 279.01 155.602C279.15 155.843 279.352 156.042 279.595 156.18L304.819 170.778C305.056 170.924 305.329 171.001 305.607 170.999Z" fill="#93D0FF"/>
<path d="M363.812 192.629L338.588 177.999C335.813 176.39 330.264 174.845 321.498 179.953C314.971 183.706 306.364 182.476 299.111 178.282L324.336 192.881C331.588 197.106 340.101 198.304 346.754 194.552C355.457 189.507 361.038 191.021 363.812 192.629Z" fill="white"/>
<path d="M337.799 198.556C341.2 198.601 344.551 197.741 347.511 196.065C355.709 191.336 360.722 192.912 362.992 194.142C363.357 194.351 363.789 194.408 364.196 194.302C364.602 194.196 364.951 193.935 365.168 193.575C365.275 193.397 365.345 193.201 365.374 192.996C365.403 192.791 365.391 192.582 365.338 192.382C365.285 192.182 365.192 191.995 365.066 191.832C364.939 191.668 364.781 191.532 364.6 191.43L339.376 176.8C336.506 175.161 330.295 173.206 320.71 178.724C315.16 181.877 307.215 181.309 299.931 177.084C299.564 176.884 299.135 176.831 298.731 176.936C298.326 177.042 297.977 177.298 297.755 177.652C297.558 178.022 297.51 178.454 297.621 178.859C297.733 179.264 297.995 179.61 298.354 179.827L323.579 194.426C327.874 197.027 332.779 198.452 337.799 198.556ZM355.583 189.822C352.165 190.35 348.885 191.551 345.934 193.354C340.385 196.507 332.408 195.908 325.092 191.683L311.755 183.926C315.449 184.134 319.125 183.28 322.349 181.467C330.579 176.706 335.592 178.314 337.862 179.543L355.583 189.822Z" fill="#93D0FF"/>
<path d="M363.812 192.629L338.588 177.999C335.813 176.391 330.264 174.846 321.498 179.954C314.971 183.706 306.363 182.476 299.111 178.283L324.336 192.881C331.588 197.107 340.101 198.305 346.754 194.553C355.457 189.508 361.037 191.021 363.812 192.629Z" fill="white"/>
<path d="M337.799 198.556C341.2 198.601 344.551 197.741 347.511 196.065C355.709 191.336 360.722 192.912 362.992 194.142C363.357 194.351 363.789 194.408 364.196 194.302C364.602 194.196 364.951 193.935 365.168 193.575C365.275 193.397 365.345 193.201 365.374 192.996C365.403 192.791 365.391 192.582 365.338 192.382C365.285 192.182 365.192 191.995 365.066 191.832C364.939 191.668 364.781 191.532 364.6 191.43L339.376 176.8C336.506 175.161 330.295 173.206 320.71 178.724C315.16 181.877 307.215 181.309 299.931 177.084C299.564 176.884 299.135 176.831 298.731 176.936C298.326 177.042 297.977 177.298 297.755 177.652C297.558 178.022 297.51 178.454 297.621 178.859C297.733 179.264 297.995 179.61 298.354 179.827L323.579 194.426C327.874 197.027 332.779 198.452 337.799 198.556ZM355.583 189.822C352.165 190.35 348.885 191.551 345.934 193.354C340.385 196.507 332.408 195.908 325.092 191.683L311.755 183.926C315.449 184.134 319.125 183.28 322.349 181.467C330.579 176.706 335.592 178.314 337.862 179.543L355.583 189.822Z" fill="#93D0FF"/>
<path d="M255.315 301.504L280.54 316.135C278.672 314.675 277.288 312.686 276.567 310.428C275.936 308.914 277.671 305.793 277.135 303.838C276.315 300.874 273.256 298.793 272.657 295.104C272.058 291.415 274.045 286.78 273.761 283.09C273.477 279.401 271.018 277.73 270.986 274.325C270.955 270.92 273.351 266.222 273.572 262.911C273.572 260.672 271.554 259.758 271.837 257.677C272.161 254.941 272.634 252.225 273.256 249.542C274.738 243.236 282.715 237.276 290.85 232.578C296.578 229.331 302.52 226.477 308.634 224.034L283.409 209.403C277.296 211.861 271.355 214.726 265.626 217.98C257.522 222.646 249.545 228.7 248.063 234.943C247.413 237.622 246.928 240.339 246.613 243.078C246.361 245.222 248.473 246.073 248.347 248.312C248.158 251.465 245.73 256.321 245.762 259.726C245.793 263.132 248.316 265.15 248.568 268.46C248.82 271.771 246.928 277.131 247.464 280.473C248 283.816 251.09 286.244 251.942 289.239C252.478 291.194 250.712 294.315 251.374 295.829C252.085 298.075 253.459 300.054 255.315 301.504Z" fill="white"/>
<path d="M280.477 317.711C280.821 317.708 281.155 317.592 281.427 317.381C281.699 317.17 281.894 316.876 281.983 316.544C282.073 316.212 282.051 315.859 281.921 315.541C281.792 315.222 281.561 314.955 281.265 314.779C279.746 313.479 278.648 311.756 278.112 309.829C278.101 309.102 278.207 308.377 278.428 307.685C278.866 306.31 278.964 304.849 278.711 303.428C278.231 301.929 277.484 300.53 276.504 299.297C275.413 298.02 274.655 296.493 274.297 294.852C274.175 292.956 274.345 291.052 274.802 289.208C275.265 287.139 275.467 285.02 275.401 282.901C275.209 281.227 274.684 279.608 273.856 278.14C273.088 276.969 272.622 275.626 272.5 274.231C272.648 272.278 273.072 270.356 273.761 268.523C274.401 266.716 274.845 264.845 275.085 262.943C275.118 261.646 274.707 260.378 273.919 259.348C273.446 258.591 273.288 258.276 273.32 257.803C273.651 255.121 274.125 252.458 274.738 249.826C275.874 245.096 281.675 239.578 291.576 233.871C297.226 230.688 303.083 227.886 309.107 225.484C309.382 225.371 309.622 225.185 309.8 224.946C309.977 224.707 310.087 224.425 310.116 224.128C310.139 223.836 310.077 223.544 309.937 223.286C309.797 223.029 309.585 222.817 309.328 222.678L284.103 208.048C283.893 207.94 283.661 207.884 283.425 207.884C283.189 207.884 282.957 207.94 282.747 208.048C276.635 210.496 270.694 213.35 264.964 216.593C254.149 222.899 248.001 228.889 246.645 234.565C246.006 237.31 245.522 240.089 245.194 242.889C245.069 244.186 245.441 245.482 246.235 246.515C246.646 246.989 246.88 247.591 246.897 248.218C246.695 249.865 246.304 251.484 245.73 253.042C244.92 255.185 244.441 257.439 244.311 259.726C244.415 261.581 244.955 263.386 245.888 264.992C246.52 266.102 246.938 267.322 247.118 268.587C247.146 270.421 246.955 272.252 246.55 274.041C246.023 276.228 245.842 278.483 246.014 280.726C246.453 282.851 247.394 284.84 248.757 286.527C249.517 287.473 250.114 288.538 250.523 289.681C250.602 290.586 250.495 291.498 250.208 292.361C249.77 293.692 249.77 295.128 250.208 296.46C251.036 298.996 252.648 301.204 254.811 302.766L280.036 317.396C280.161 317.529 280.311 317.636 280.477 317.711ZM305.008 223.781C299.868 225.975 294.857 228.459 289.999 231.223C279.184 237.529 273.036 243.52 271.68 249.195C271.03 251.929 270.535 254.698 270.198 257.488C270.098 258.797 270.479 260.097 271.27 261.145C271.688 261.615 271.923 262.219 271.932 262.848C271.696 264.489 271.306 266.104 270.766 267.672C269.964 269.774 269.486 271.985 269.347 274.231C269.469 276.078 269.997 277.876 270.892 279.496C271.539 280.602 271.967 281.823 272.153 283.091C272.153 284.915 271.953 286.734 271.554 288.514C271.036 290.713 270.866 292.979 271.049 295.23C271.489 297.345 272.43 299.324 273.793 301C274.557 301.942 275.155 303.009 275.558 304.153C275.622 305.05 275.504 305.951 275.211 306.802C274.806 308.149 274.806 309.585 275.211 310.932L256.293 299.896C255.662 299.55 254.433 298.415 253.14 294.946C253.131 294.219 253.237 293.495 253.455 292.802C253.904 291.43 254.013 289.969 253.771 288.545C253.273 287.057 252.515 285.669 251.532 284.446C250.459 283.158 249.703 281.635 249.325 280.001C249.233 278.095 249.402 276.185 249.829 274.325C250.289 272.256 250.5 270.139 250.46 268.019C250.254 266.353 249.718 264.745 248.883 263.289C248.193 262.092 247.773 260.757 247.654 259.38C247.805 257.428 248.229 255.506 248.915 253.673C249.573 251.87 250.017 249.997 250.239 248.092C250.262 246.802 249.863 245.54 249.104 244.497C248.6 243.74 248.442 243.425 248.505 242.952C248.812 240.279 249.275 237.626 249.892 235.006C251.027 230.245 256.861 224.727 266.73 219.02C272.076 216.055 277.605 213.433 283.283 211.169L305.008 223.781Z" fill="#93D0FF"/>
<path d="M308.571 224.034L283.346 209.404C277.233 211.861 271.292 214.727 265.563 217.98C257.46 222.646 249.482 228.7 248 234.943C247.35 237.623 246.865 240.339 246.55 243.078C246.298 245.222 248.41 246.074 248.284 248.312C248.095 251.465 245.667 256.321 245.699 259.726C245.73 263.132 248.253 265.15 248.505 268.46C248.757 271.771 246.865 277.131 247.401 280.474C247.937 283.816 251.027 286.244 251.879 289.239C252.415 291.194 250.649 294.316 251.311 295.829C252.022 298.076 253.396 300.054 255.252 301.505L280.477 316.135C278.609 314.675 277.225 312.686 276.504 310.428C275.874 308.914 277.608 305.793 277.072 303.838C276.252 300.874 273.193 298.793 272.594 295.104C271.995 291.415 273.982 286.78 273.698 283.091C273.414 279.402 270.955 277.73 270.923 274.325C270.892 270.92 273.288 266.222 273.509 262.911C273.509 260.672 271.491 259.758 271.775 257.677C272.098 254.941 272.572 252.226 273.193 249.542C274.675 243.236 282.653 237.277 290.788 232.579C296.515 229.332 302.457 226.477 308.571 224.034Z" fill="white"/>
<path d="M280.477 317.711C280.821 317.708 281.155 317.592 281.427 317.381C281.699 317.17 281.894 316.876 281.983 316.544C282.073 316.212 282.051 315.859 281.921 315.541C281.792 315.222 281.561 314.955 281.265 314.779C279.746 313.479 278.648 311.756 278.112 309.829C278.101 309.102 278.207 308.377 278.428 307.685C278.866 306.31 278.964 304.849 278.711 303.428C278.231 301.929 277.484 300.53 276.504 299.297C275.413 298.02 274.655 296.493 274.297 294.852C274.175 292.956 274.345 291.052 274.802 289.208C275.265 287.139 275.467 285.02 275.401 282.901C275.209 281.227 274.684 279.608 273.856 278.14C273.088 276.969 272.622 275.626 272.5 274.231C272.648 272.278 273.072 270.356 273.761 268.523C274.401 266.716 274.845 264.845 275.085 262.943C275.118 261.646 274.707 260.378 273.919 259.348C273.446 258.591 273.288 258.276 273.32 257.803C273.651 255.121 274.125 252.458 274.738 249.826C275.874 245.096 281.675 239.578 291.576 233.871C297.226 230.688 303.083 227.886 309.107 225.484C309.382 225.371 309.622 225.185 309.8 224.946C309.977 224.707 310.087 224.425 310.116 224.128C310.139 223.836 310.077 223.544 309.937 223.286C309.797 223.029 309.585 222.817 309.328 222.678L284.103 208.048C283.893 207.94 283.661 207.884 283.425 207.884C283.189 207.884 282.957 207.94 282.747 208.048C276.635 210.496 270.694 213.35 264.964 216.593C254.149 222.899 248.001 228.889 246.645 234.565C246.006 237.31 245.522 240.089 245.194 242.889C245.069 244.186 245.441 245.482 246.235 246.515C246.646 246.989 246.88 247.591 246.897 248.218C246.695 249.865 246.304 251.484 245.73 253.042C244.92 255.185 244.441 257.439 244.311 259.726C244.415 261.581 244.955 263.386 245.888 264.992C246.52 266.102 246.938 267.322 247.118 268.587C247.146 270.421 246.955 272.252 246.55 274.041C246.023 276.228 245.842 278.483 246.014 280.726C246.453 282.851 247.394 284.84 248.757 286.527C249.517 287.473 250.114 288.538 250.523 289.681C250.602 290.586 250.495 291.498 250.208 292.361C249.77 293.692 249.77 295.128 250.208 296.46C251.036 298.996 252.648 301.204 254.811 302.766L280.036 317.396C280.161 317.529 280.311 317.636 280.477 317.711ZM305.008 223.781C299.868 225.975 294.857 228.459 289.999 231.223C279.184 237.529 273.036 243.52 271.68 249.195C271.03 251.929 270.535 254.698 270.198 257.488C270.098 258.797 270.479 260.097 271.27 261.145C271.688 261.615 271.923 262.219 271.932 262.848C271.696 264.489 271.306 266.104 270.766 267.672C269.964 269.774 269.486 271.985 269.347 274.231C269.469 276.078 269.997 277.876 270.892 279.496C271.539 280.602 271.967 281.823 272.153 283.091C272.153 284.915 271.953 286.734 271.554 288.514C271.036 290.713 270.866 292.979 271.049 295.23C271.489 297.345 272.43 299.324 273.793 301C274.557 301.942 275.155 303.009 275.558 304.153C275.622 305.05 275.504 305.951 275.211 306.802C274.806 308.149 274.806 309.585 275.211 310.932L256.293 299.896C255.662 299.55 254.433 298.415 253.14 294.946C253.131 294.219 253.237 293.495 253.455 292.802C253.904 291.43 254.013 289.969 253.771 288.545C253.273 287.057 252.515 285.669 251.532 284.446C250.459 283.158 249.703 281.635 249.325 280.001C249.233 278.095 249.402 276.185 249.829 274.325C250.289 272.256 250.5 270.139 250.46 268.019C250.254 266.353 249.718 264.745 248.883 263.289C248.193 262.092 247.773 260.757 247.654 259.38C247.805 257.428 248.229 255.506 248.915 253.673C249.573 251.87 250.017 249.997 250.239 248.092C250.262 246.802 249.863 245.54 249.104 244.497C248.6 243.74 248.442 243.425 248.505 242.952C248.812 240.279 249.275 237.626 249.892 235.006C251.027 230.245 256.861 224.727 266.73 219.02C272.076 216.055 277.605 213.433 283.283 211.169L305.008 223.781Z" fill="#93D0FF"/>
<path d="M305.607 169.423C300.121 172.576 292.679 191.305 298.639 206.818C304.093 220.975 307.12 223.781 308.571 224.034C302.457 226.477 296.515 229.332 290.787 232.579C282.684 237.277 274.675 243.33 273.193 249.542C272.572 252.226 272.098 254.941 271.775 257.677C271.491 259.821 273.635 260.83 273.509 262.911C273.288 266.064 270.86 270.951 270.923 274.325C270.986 277.699 273.446 279.78 273.698 283.091C273.95 286.401 272.058 291.73 272.594 295.104C273.13 298.478 276.252 300.874 277.072 303.838C277.608 305.793 275.873 308.914 276.504 310.428C278.427 315 280.698 317.396 283.189 316.292C297.209 310.212 310.892 303.381 324.178 295.829C343.791 284.541 363.276 270.321 366.051 257.551V194.269C365.736 193.922 359.745 187.111 346.881 194.553C334.016 201.994 312.827 189.949 310.431 173.805C309.611 169.297 307.751 168.193 305.607 169.423Z" fill="white"/>
<path d="M281.99 318.153C282.611 318.14 283.223 318.001 283.787 317.743C297.809 311.629 311.492 304.767 324.777 297.185C350.664 282.239 365.042 268.996 367.438 257.898C367.454 257.782 367.454 257.666 367.438 257.551V194.269C367.431 193.884 367.285 193.515 367.028 193.228C366.303 192.408 359.493 185.346 345.903 193.228C342.938 194.672 339.666 195.372 336.37 195.268C333.073 195.163 329.852 194.258 326.984 192.629C323.127 190.897 319.73 188.282 317.068 184.996C314.406 181.71 312.554 177.844 311.661 173.711C311.65 172.555 311.357 171.42 310.807 170.403C310.258 169.386 309.468 168.52 308.507 167.878C307.879 167.601 307.192 167.487 306.508 167.548C305.824 167.609 305.167 167.841 304.598 168.224C298.292 171.819 290.693 191.336 296.936 207.543C298.859 213.376 301.712 218.859 305.386 223.781C300.116 226.018 294.978 228.555 289.999 231.38C279.184 237.686 273.035 243.677 271.68 249.353C271.03 252.087 270.535 254.855 270.198 257.645C270.136 258.901 270.515 260.139 271.27 261.145C271.688 261.615 271.923 262.219 271.932 262.848C271.696 264.489 271.305 266.104 270.765 267.672C269.964 269.774 269.486 271.985 269.346 274.23C269.469 276.078 269.996 277.876 270.891 279.496C271.538 280.602 271.967 281.823 272.153 283.091C272.153 284.915 271.952 286.734 271.554 288.514C271.036 290.712 270.866 292.979 271.049 295.23C271.488 297.345 272.429 299.324 273.792 301C274.557 301.942 275.154 303.009 275.558 304.153C275.622 305.05 275.504 305.951 275.211 306.802C274.805 308.149 274.805 309.585 275.211 310.932C276.044 313.778 277.941 316.195 280.508 317.68C280.97 317.924 281.472 318.085 281.99 318.153ZM364.474 257.393C362.173 267.42 347.952 280.253 323.485 294.442C310.255 301.968 296.635 308.788 282.684 314.873C282.519 314.944 282.342 314.98 282.164 314.98C281.985 314.98 281.808 314.944 281.643 314.873C281.139 314.653 279.72 313.738 278.112 309.797C278.1 309.07 278.207 308.346 278.427 307.653C278.866 306.278 278.963 304.817 278.711 303.396C278.231 301.897 277.483 300.498 276.504 299.266C275.413 297.989 274.655 296.461 274.297 294.82C274.174 292.924 274.344 291.02 274.801 289.176C275.265 287.107 275.466 284.989 275.4 282.87C275.209 281.196 274.683 279.577 273.855 278.109C273.092 276.947 272.627 275.615 272.499 274.23C272.647 272.278 273.072 270.356 273.761 268.523C274.4 266.716 274.844 264.845 275.085 262.942C275.118 261.646 274.706 260.378 273.918 259.348C273.445 258.591 273.288 258.276 273.319 257.803C273.651 255.121 274.125 252.458 274.738 249.826C275.873 245.096 281.675 239.578 291.576 233.871C297.226 230.688 303.082 227.886 309.107 225.484C309.427 225.362 309.698 225.139 309.88 224.849C310.062 224.559 310.145 224.217 310.116 223.876C310.085 223.534 309.941 223.212 309.707 222.961C309.473 222.709 309.162 222.543 308.823 222.489C308.823 222.489 305.985 221.637 300.089 206.25C294.382 191.462 301.634 173.522 306.395 170.778C306.647 170.778 307.089 170.432 307.341 170.558C307.593 170.684 308.381 171.819 308.697 174.026C309.629 178.692 311.664 183.066 314.631 186.785C317.599 190.504 321.413 193.459 325.755 195.404C329.064 197.26 332.78 198.274 336.574 198.357C340.368 198.439 344.124 197.588 347.511 195.877C357.601 190.075 362.835 193.575 364.317 194.899L364.474 257.393Z" fill="#93D0FF"/>
<path d="M282.747 209.151L307.971 223.75C306.332 222.804 303.399 219.083 298.701 206.818C292.742 191.305 300.183 172.607 305.67 169.422L280.445 154.824C274.927 157.977 267.486 176.674 273.445 192.188C278.207 204.453 281.107 208.205 282.747 209.151Z" fill="white"/>
<path d="M307.908 225.327C308.181 225.331 308.45 225.264 308.688 225.131C308.926 224.998 309.125 224.805 309.264 224.57C309.473 224.205 309.53 223.773 309.424 223.366C309.318 222.96 309.057 222.611 308.697 222.394C307.782 221.858 305.102 219.241 300.12 206.251C294.413 191.463 301.665 173.522 306.426 170.779C306.669 170.646 306.871 170.45 307.01 170.211C307.149 169.972 307.22 169.699 307.215 169.423C307.216 169.151 307.147 168.883 307.015 168.645C306.882 168.408 306.69 168.209 306.458 168.067L281.233 153.437C280.994 153.298 280.722 153.226 280.445 153.226C280.168 153.226 279.896 153.298 279.657 153.437C273.351 157.031 265.752 176.549 271.963 192.756C275.968 203.129 279.215 208.931 281.927 210.507L307.152 225.138C307.384 225.262 307.644 225.327 307.908 225.327ZM302.8 169.644C297.125 175.634 291.512 192.85 297.093 207.48C298.522 211.29 300.164 215.017 302.012 218.642L283.472 207.89C282.558 207.354 279.878 204.737 274.896 191.715C269.472 177.684 275.779 160.752 280.477 156.779L302.8 169.644Z" fill="#93D0FF"/>
<path d="M305.607 169.422L280.382 154.824C274.864 157.977 267.423 176.674 273.382 192.188C278.112 204.453 281.013 208.205 282.652 209.151L307.877 223.75C306.237 222.804 303.305 219.083 298.607 206.818C292.679 191.305 300.12 172.607 305.607 169.422Z" fill="white"/>
<path d="M307.908 225.327C308.181 225.331 308.45 225.264 308.688 225.131C308.926 224.998 309.125 224.805 309.264 224.57C309.473 224.205 309.53 223.773 309.424 223.366C309.318 222.96 309.057 222.611 308.697 222.394C307.782 221.858 305.102 219.241 300.12 206.251C294.413 191.463 301.665 173.522 306.426 170.779C306.669 170.646 306.871 170.45 307.01 170.211C307.149 169.972 307.22 169.699 307.215 169.423C307.216 169.151 307.147 168.883 307.015 168.645C306.882 168.408 306.69 168.209 306.458 168.067L281.233 153.437C280.994 153.298 280.722 153.226 280.445 153.226C280.168 153.226 279.896 153.298 279.657 153.437C273.351 157.031 265.752 176.549 271.963 192.756C275.968 203.129 279.215 208.931 281.927 210.507L307.152 225.138C307.384 225.262 307.644 225.327 307.908 225.327ZM302.8 169.644C297.125 175.634 291.512 192.85 297.093 207.48C298.522 211.29 300.164 215.017 302.012 218.642L283.472 207.89C282.558 207.354 279.878 204.737 274.896 191.715C269.472 177.684 275.779 160.752 280.477 156.779L302.8 169.644Z" fill="#93D0FF"/>
<path d="M278.551 98.1122L264.75 103.765L258.581 92.8843C258.412 92.5862 258.135 92.4261 257.793 92.4293C256.934 92.4356 255.89 93.4462 255.461 94.6858L249.291 112.691L235.489 122.976C235.109 123.259 234.761 123.667 234.494 124.134C234.172 124.702 233.995 125.319 234.001 125.849C234.007 126.378 234.196 126.777 234.527 126.959L244.512 132.435L242.153 149.671C242.097 150.072 242.133 150.432 242.255 150.708C242.377 150.985 242.581 151.168 242.843 151.237C243.106 151.305 243.417 151.257 243.74 151.097C244.064 150.936 244.388 150.671 244.675 150.33L257.02 135.708L269.364 136.075C269.701 136.087 270.092 135.93 270.467 135.638C271.413 134.904 272.049 133.501 271.886 132.503L269.528 117.991L279.514 100.984C279.785 100.519 279.965 100.014 280.019 99.5433C280.166 98.3601 279.503 97.7262 278.551 98.1122Z" fill="#EB5757"/>
<path d="M308.371 98.0428L301.696 100.777L298.712 95.5141C298.63 95.3699 298.496 95.2925 298.331 95.294C297.915 95.297 297.411 95.7858 297.203 96.3855L294.218 105.094L287.543 110.069C287.359 110.206 287.19 110.403 287.062 110.629C286.906 110.904 286.82 111.202 286.823 111.458C286.826 111.715 286.917 111.908 287.077 111.995L291.907 114.644L290.766 122.981C290.739 123.175 290.756 123.349 290.815 123.483C290.874 123.617 290.973 123.705 291.1 123.738C291.227 123.772 291.377 123.748 291.534 123.671C291.69 123.593 291.847 123.465 291.986 123.3L297.957 116.227L303.928 116.405C304.091 116.411 304.28 116.335 304.461 116.194C304.919 115.838 305.226 115.16 305.148 114.677L304.007 107.658L308.837 99.4317C308.968 99.2071 309.055 98.9627 309.081 98.735C309.152 98.1627 308.832 97.856 308.371 98.0428Z" fill="#EB5757"/>
<path d="M338.144 81.7161L331.468 84.4503L328.485 79.1874C328.403 79.0432 328.269 78.9658 328.103 78.9673C327.688 78.9704 327.183 79.4592 326.975 80.0588L323.991 88.7677L317.315 93.7424C317.131 93.879 316.963 94.0764 316.834 94.3026C316.678 94.5774 316.593 94.8756 316.596 95.1318C316.599 95.388 316.69 95.5811 316.85 95.6688L321.68 98.3176L320.538 106.654C320.512 106.849 320.529 107.022 320.588 107.156C320.647 107.29 320.745 107.379 320.872 107.412C320.999 107.445 321.15 107.421 321.306 107.344C321.463 107.266 321.619 107.138 321.758 106.973L327.729 99.9006L333.7 100.078C333.863 100.084 334.052 100.008 334.234 99.867C334.691 99.5118 334.999 98.8333 334.92 98.3505L333.779 91.3313L338.609 83.1051C338.741 82.8804 338.828 82.636 338.854 82.4083C338.925 81.836 338.604 81.5294 338.144 81.7161Z" fill="#EB5757"/>
<path d="M366.956 65.3892L360.281 68.1233L357.297 62.8605C357.215 62.7163 357.081 62.6389 356.916 62.6404C356.5 62.6435 355.995 63.1323 355.788 63.7319L352.803 72.4408L346.128 77.4155C345.944 77.5521 345.775 77.7495 345.647 77.9757C345.491 78.2505 345.405 78.5487 345.408 78.8049C345.411 79.0611 345.502 79.2542 345.662 79.3419L350.492 81.9907L349.351 90.3276C349.324 90.5216 349.341 90.6955 349.4 90.8293C349.459 90.9632 349.558 91.0517 349.685 91.0849C349.812 91.1181 349.962 91.0946 350.119 91.0171C350.275 90.9395 350.432 90.8111 350.571 90.6463L356.542 83.5737L362.513 83.7512C362.676 83.7572 362.865 83.6813 363.046 83.5401C363.504 83.1849 363.811 82.5064 363.733 82.0236L362.592 75.0044L367.422 66.7782C367.553 66.5535 367.64 66.3091 367.666 66.0814C367.737 65.5091 367.417 65.2025 366.956 65.3892Z" fill="#EB5757"/>
<path d="M395.769 49.0621L389.093 51.7962L386.109 46.5334C386.028 46.3892 385.893 46.3117 385.728 46.3133C385.312 46.3163 384.808 46.8051 384.6 47.4047L381.616 56.1137L374.94 61.0884C374.756 61.225 374.588 61.4223 374.459 61.6485C374.303 61.9233 374.217 62.2216 374.22 62.4777C374.223 62.7339 374.315 62.9271 374.474 63.0147L379.304 65.6635L378.163 74.0004C378.136 74.1945 378.153 74.3683 378.212 74.5022C378.271 74.636 378.37 74.7245 378.497 74.7577C378.624 74.7909 378.774 74.7674 378.931 74.6899C379.087 74.6124 379.244 74.484 379.383 74.3192L385.354 67.2466L391.325 67.424C391.488 67.4301 391.677 67.3542 391.858 67.213C392.316 66.8578 392.624 66.1792 392.545 65.6965L391.404 58.6773L396.234 50.451C396.365 50.2263 396.452 49.9819 396.478 49.7542C396.549 49.182 396.229 48.8753 395.769 49.0621Z" fill="#EB5757"/>
<defs>
<linearGradient id="paint0_linear" x1="154.806" y1="313.852" x2="47.6486" y2="191.352" gradientUnits="userSpaceOnUse">
<stop stop-color="#CCE5FB"/>
<stop offset="1" stop-color="#CEE7FD" stop-opacity="0"/>
</linearGradient>
<linearGradient id="paint1_linear" x1="274.482" y1="221.764" x2="240.06" y2="204.369" gradientUnits="userSpaceOnUse">
<stop stop-color="#CCE5FB"/>
<stop offset="1" stop-color="#CEE7FD" stop-opacity="0"/>
</linearGradient>
<linearGradient id="paint2_linear" x1="249.44" y1="293.754" x2="205.131" y2="255.209" gradientUnits="userSpaceOnUse">
<stop stop-color="#CCE5FB"/>
<stop offset="1" stop-color="#CEE7FD" stop-opacity="0"/>
</linearGradient>
</defs>
</svg>
