<svg width="117" height="92" viewBox="0 0 117 92" fill="none" xmlns="http://www.w3.org/2000/svg">
<path opacity="0.58" d="M61.2748 32.4858C61.2748 32.4858 83.0671 36.9873 89.535 30.3407C92.8989 37.9623 75.413 48.5254 75.413 48.5254L61.2748 32.4858Z" fill="url(#paint0_linear)"/>
<path opacity="0.58" d="M68.9231 71.9229C68.9231 71.9229 73.084 87.7916 82.7857 82.4451L116.879 65.4064L88.4078 48.5055L68.9231 71.9229Z" fill="url(#paint1_linear)"/>
<path d="M24.5966 60.2578L37.5485 52.7336L37.5323 59.9653L24.5641 67.4894L24.5966 60.2578Z" fill="#93D0FF"/>
<path d="M24.5643 68.3019C24.4208 68.3029 24.28 68.2634 24.158 68.1881C24.0352 68.1172 23.9331 68.0154 23.8618 67.8929C23.7905 67.7703 23.7526 67.6312 23.7517 67.4894V60.2577C23.7491 60.1153 23.7857 59.9748 23.8573 59.8516C23.9289 59.7284 24.0329 59.6272 24.158 59.559L37.1586 52.0186C37.283 51.9468 37.4242 51.9092 37.5678 51.9097C37.7114 51.9102 37.8523 51.9487 37.9762 52.0214C38.1 52.094 38.2024 52.1982 38.2729 52.3233C38.3434 52.4485 38.3795 52.59 38.3775 52.7336V59.9652C38.3766 60.107 38.3387 60.2461 38.2674 60.3687C38.1961 60.4913 38.094 60.5931 37.9712 60.664L24.9705 68.1881C24.8481 68.2627 24.7076 68.302 24.5643 68.3019ZM25.4093 60.729V66.0755L36.7849 59.4939V54.2287L25.4093 60.729Z" fill="#93D0FF"/>
<path d="M1.34192 9.11644L14.3101 1.57605L37.6625 15.0642L24.6944 22.6046L1.34192 9.11644Z" fill="#5F98ED"/>
<path d="M24.6951 23.352C24.5517 23.353 24.4109 23.3136 24.2889 23.2383L0.936427 9.75007C0.813621 9.67917 0.711508 9.57736 0.640235 9.45477C0.568962 9.33218 0.531012 9.19308 0.530156 9.05128C0.527588 8.9088 0.564094 8.76835 0.635716 8.64516C0.707338 8.52197 0.81134 8.42075 0.936427 8.35249L13.9371 0.812111C14.0606 0.740796 14.2007 0.703247 14.3434 0.703247C14.486 0.703247 14.6261 0.740796 14.7496 0.812111L38.1021 14.3003C38.2249 14.3712 38.327 14.473 38.3983 14.5956C38.4695 14.7182 38.5075 14.8573 38.5083 14.9991C38.5091 15.1412 38.4719 15.281 38.4005 15.4039C38.329 15.5267 38.226 15.6283 38.1021 15.6979L25.1014 23.2383C24.9809 23.3171 24.839 23.3568 24.6951 23.352ZM2.96778 9.05128L24.6951 21.7269L36.0707 15.1291L14.3109 2.51845L2.96778 9.05128Z" fill="#93D0FF"/>
<path d="M24.6945 22.6045L24.6782 27.6423L24.597 60.2577L24.5645 67.4893L1.21204 54.0011L1.34205 9.11633L24.6945 22.6045Z" fill="#5F98ED"/>
<path d="M24.5644 68.3019C24.421 68.3029 24.2802 68.2634 24.1581 68.1881L0.805685 54.7162C0.68268 54.6415 0.580797 54.5366 0.509698 54.4114C0.438598 54.2863 0.400638 54.1451 0.399414 54.0011L0.529424 9.11637C0.53028 8.97457 0.56823 8.83546 0.639503 8.71287C0.710775 8.59028 0.812888 8.48848 0.935694 8.41758C1.05922 8.34626 1.19933 8.30872 1.34196 8.30872C1.4846 8.30872 1.62471 8.34626 1.74824 8.41758L25.1007 21.8895C25.2259 21.9618 25.3295 22.0661 25.4009 22.1918C25.4724 22.3175 25.5089 22.46 25.5069 22.6045L25.3769 67.4893C25.3789 67.6339 25.3424 67.7763 25.2709 67.902C25.1995 68.0277 25.0959 68.1321 24.9707 68.2044C24.8458 68.271 24.7059 68.3046 24.5644 68.3019ZM2.0245 53.5461L23.7681 66.0918L23.8819 23.0758L2.15451 10.5139L2.0245 53.5461Z" fill="#93D0FF"/>
<path d="M24.6944 22.6046L37.6625 15.0642L37.6463 20.1182L24.6781 27.6423L24.6944 22.6046Z" fill="#93D0FF"/>
<path d="M24.6943 28.455C24.5532 28.4539 24.4142 28.4206 24.288 28.3575C24.165 28.2828 24.0631 28.1779 23.992 28.0528C23.9209 27.9276 23.883 27.7864 23.8817 27.6425V22.6047C23.8809 22.4626 23.9182 22.3228 23.9896 22.2C24.061 22.0771 24.1641 21.9756 24.288 21.906L37.2887 14.3656C37.4122 14.2943 37.5523 14.2567 37.6949 14.2567C37.8376 14.2567 37.9777 14.2943 38.1012 14.3656C38.224 14.4365 38.3261 14.5383 38.3974 14.6609C38.4687 14.7835 38.5066 14.9226 38.5075 15.0644V20.1021C38.5066 20.2439 38.4687 20.383 38.3974 20.5056C38.3261 20.6282 38.224 20.73 38.1012 20.8009L25.1005 28.3413C24.9772 28.4136 24.8372 28.4528 24.6943 28.455ZM25.5231 23.076V26.2287L36.8986 19.6471V16.4782L25.5231 23.076Z" fill="#93D0FF"/>
<path d="M67.3853 7.1988L54.3846 14.7392C54.5918 14.633 54.8243 14.5859 55.0565 14.6031C55.2887 14.6203 55.5117 14.7011 55.701 14.8367L68.7016 7.31256C68.5124 7.17769 68.2905 7.096 68.059 7.07599C67.8275 7.05599 67.5949 7.0984 67.3853 7.1988Z" fill="#93D0FF"/>
<path d="M55.7494 15.6493C55.6055 15.6541 55.4636 15.6144 55.3431 15.5355C55.1156 15.4055 54.9368 15.373 54.8393 15.438C54.656 15.5208 54.4485 15.5328 54.2569 15.4714C54.0653 15.4101 53.9033 15.2799 53.8022 15.106C53.7011 14.9321 53.6681 14.7269 53.7096 14.53C53.7511 14.3332 53.8641 14.1587 54.0268 14.0404L67.0274 6.50005C67.3576 6.32109 67.7303 6.23559 68.1054 6.25277C68.4806 6.26995 68.8439 6.38916 69.1563 6.59755C69.2813 6.66842 69.3854 6.77119 69.4577 6.89538C69.5301 7.01957 69.5682 7.16073 69.5682 7.30447C69.5682 7.4482 69.5301 7.58936 69.4577 7.71355C69.3854 7.83774 69.2813 7.94051 69.1563 8.01138L56.1556 15.5355C56.0336 15.6108 55.8928 15.6502 55.7494 15.6493Z" fill="#93D0FF"/>
<path d="M25.7506 26.7973L38.7513 19.2569C40.1813 18.4281 43.0415 17.6318 47.5592 20.2645C50.9231 22.1983 55.3596 21.5645 59.0973 19.4032L46.0966 26.9273C42.3589 29.1049 37.9712 29.7224 34.5423 27.7886C30.0571 25.1885 27.1807 25.9685 25.7506 26.7973Z" fill="white"/>
<path d="M39.1578 29.8522C37.4051 29.8751 35.6778 29.4321 34.1525 28.5684C29.9273 26.1308 27.3434 26.9433 26.1734 27.5771C25.9853 27.6845 25.7626 27.7141 25.5531 27.6594C25.3435 27.6047 25.1637 27.4702 25.052 27.2846C24.9971 27.1933 24.961 27.0918 24.946 26.9863C24.9309 26.8807 24.9372 26.7733 24.9645 26.6702C24.9918 26.5671 25.0395 26.4706 25.1048 26.3863C25.17 26.302 25.2516 26.2317 25.3446 26.1796L38.3452 18.6392C39.824 17.7941 43.0255 16.7866 47.9657 19.6305C50.8258 21.2556 54.9211 20.963 58.675 18.7854C58.864 18.6821 59.0853 18.6548 59.2937 18.7092C59.5021 18.7636 59.6819 18.8955 59.7963 19.0779C59.8982 19.2688 59.923 19.4916 59.8655 19.7002C59.8081 19.9088 59.6728 20.0874 59.4875 20.1993L46.4869 27.7234C44.2731 29.0642 41.7453 29.7984 39.1578 29.8522ZM29.9923 25.3508C31.7539 25.6229 33.444 26.2415 34.965 27.1709C37.8252 28.7959 41.9366 28.4872 45.7068 26.3096L52.5809 22.3119C50.6772 22.4189 48.7826 21.979 47.1207 21.0443C42.8792 18.5904 40.2953 19.4192 39.1253 20.053L29.9923 25.3508Z" fill="#93D0FF"/>
<path d="M25.7507 26.7974L38.7514 19.257C40.1815 18.4282 43.0416 17.6319 47.5593 20.2646C50.9233 22.1984 55.3597 21.5646 59.0974 19.4033L46.0968 26.9274C42.3591 29.105 37.9713 29.7226 34.5424 27.7887C30.0572 25.1886 27.1808 25.9686 25.7507 26.7974Z" fill="white"/>
<path d="M39.1576 29.8524C37.405 29.8752 35.6777 29.4322 34.1524 28.5685C29.9272 26.1309 27.3433 26.9435 26.1732 27.5772C25.9852 27.6847 25.7625 27.7142 25.553 27.6595C25.3434 27.6049 25.1635 27.4703 25.0519 27.2847C24.9969 27.1934 24.9609 27.092 24.9458 26.9864C24.9308 26.8809 24.9371 26.7734 24.9644 26.6703C24.9917 26.5673 25.0394 26.4707 25.1046 26.3864C25.1699 26.3022 25.2515 26.2319 25.3444 26.1797L38.3451 18.6393C39.8239 17.7943 43.0253 16.7867 47.9656 19.6306C50.8257 21.2557 54.9209 20.9632 58.6749 18.7856C58.8639 18.6822 59.0852 18.655 59.2936 18.7093C59.502 18.7637 59.6818 18.8956 59.7962 19.0781C59.8981 19.269 59.9228 19.4917 59.8654 19.7003C59.8079 19.9089 59.6727 20.0875 59.4874 20.1994L46.4868 27.7235C44.273 29.0643 41.7452 29.7985 39.1576 29.8524ZM29.9922 25.3509C31.7537 25.623 33.4439 26.2417 34.9649 27.171C37.8251 28.7961 41.9365 28.4873 45.7067 26.3097L52.5808 22.312C50.6771 22.419 48.7825 21.9792 47.1205 21.0444C42.8791 18.5905 40.2952 19.4193 39.1251 20.0531L29.9922 25.3509Z" fill="#93D0FF"/>
<path d="M81.6697 82.9113L68.6691 90.4517C69.6317 89.6993 70.3453 88.6743 70.7167 87.5103C71.0417 86.7302 70.1479 85.1214 70.4241 84.1138C70.8467 82.5863 72.423 81.5137 72.7318 79.6124C73.0405 77.711 72.0167 75.3221 72.163 73.4208C72.3092 71.5194 73.5768 70.6582 73.5931 68.9031C73.6093 67.148 72.3742 64.7266 72.2605 63.0203C72.2605 61.8665 73.3005 61.3952 73.1543 60.3226C72.9876 58.9127 72.7435 57.513 72.423 56.1299C71.6592 52.8798 67.5478 49.8084 63.355 47.387C60.4029 45.7135 57.3407 44.2422 54.1896 42.983L67.1902 35.4426C70.3408 36.7094 73.4028 38.1861 76.3557 39.8629C80.5322 42.268 84.6436 45.3881 85.4074 48.6058C85.7427 49.9866 85.9924 51.3869 86.1549 52.7985C86.285 53.9036 85.1961 54.3423 85.2611 55.4961C85.3586 57.1212 86.61 59.6239 86.5937 61.3789C86.5775 63.134 85.2774 64.1741 85.1474 65.8804C85.0174 67.5868 85.9924 70.3494 85.7162 72.072C85.4399 73.7946 83.8473 75.0459 83.4086 76.5897C83.1323 77.5973 84.0423 79.2061 83.7011 79.9861C83.3349 81.1439 82.6267 82.1637 81.6697 82.9113Z" fill="white"/>
<path d="M68.7014 91.2644C68.5241 91.2626 68.3522 91.2028 68.2121 91.0942C68.0719 90.9856 67.9711 90.8341 67.925 90.6628C67.879 90.4916 67.8903 90.31 67.9571 90.1457C68.0239 89.9814 68.1426 89.8435 68.2952 89.7531C69.0785 89.0831 69.6442 88.1948 69.9202 87.2017C69.9263 86.827 69.8714 86.4538 69.7577 86.0966C69.5317 85.3881 69.4815 84.6351 69.6115 83.9028C69.8589 83.1302 70.2443 82.409 70.749 81.7739C71.3114 81.1156 71.7022 80.3285 71.8866 79.4825C71.9497 78.5053 71.862 77.5242 71.6266 76.5737C71.3875 75.5075 71.2838 74.4155 71.3178 73.3235C71.4166 72.4605 71.6874 71.6261 72.1141 70.8696C72.5098 70.2659 72.7499 69.5736 72.8129 68.8545C72.7367 67.8482 72.5179 66.8578 72.1628 65.9131C71.8332 64.9815 71.6044 64.0171 71.4803 63.0367C71.4632 62.3686 71.6754 61.7148 72.0816 61.1841C72.3254 60.7941 72.4066 60.6316 72.3904 60.3878C72.2194 59.0054 71.9753 57.633 71.6591 56.2764C71.074 53.8387 68.0839 50.9948 62.9811 48.0534C60.069 46.4127 57.0505 44.9686 53.9457 43.7307C53.8037 43.6725 53.6803 43.5766 53.5887 43.4535C53.4971 43.3304 53.4407 43.1847 53.4257 43.0319C53.4137 42.8814 53.4458 42.7306 53.5179 42.5979C53.59 42.4652 53.6991 42.3563 53.8319 42.2844L66.8326 34.744C66.9407 34.6884 67.0604 34.6594 67.182 34.6594C67.3035 34.6594 67.4233 34.6884 67.5314 34.744C70.6815 36.0056 73.7435 37.4769 76.6968 39.148C82.2709 42.3982 85.4398 45.4858 86.1386 48.411C86.4676 49.826 86.7172 51.2583 86.8861 52.7012C86.9507 53.3696 86.759 54.0376 86.3498 54.57C86.138 54.8143 86.0174 55.1244 86.0086 55.4476C86.1126 56.2967 86.3144 57.1311 86.6098 57.934C87.0275 59.0384 87.2741 60.2002 87.3411 61.3791C87.2878 62.3351 87.0094 63.265 86.5286 64.093C86.2026 64.6652 85.9876 65.2937 85.8948 65.9456C85.8802 66.891 85.9784 67.8348 86.1873 68.757C86.459 69.8839 86.5522 71.0464 86.4636 72.2022C86.2372 73.2973 85.7524 74.3224 85.0498 75.1923C84.6579 75.6795 84.3503 76.2288 84.1397 76.8174C84.0989 77.2841 84.1543 77.7542 84.3022 78.1987C84.5279 78.8848 84.5279 79.6252 84.3022 80.3113C83.875 81.6184 83.0443 82.7564 81.9296 83.5615L68.9289 91.1019C68.8643 91.1702 68.787 91.2254 68.7014 91.2644ZM56.0583 42.8532C58.7075 43.9835 61.2902 45.264 63.7937 46.6884C69.3677 49.9385 72.5366 53.0262 73.2354 55.9513C73.5704 57.3605 73.8254 58.7874 73.9992 60.2253C74.0507 60.9 73.8542 61.5703 73.4467 62.1104C73.2312 62.3524 73.1101 62.6639 73.1054 62.988C73.227 63.8339 73.4283 64.6664 73.7067 65.4743C74.1196 66.5577 74.3661 67.6973 74.438 68.8545C74.3749 69.8066 74.1031 70.7332 73.6417 71.5684C73.3082 72.1385 73.0876 72.7675 72.9916 73.421C72.9914 74.3612 73.0949 75.2986 73.3004 76.2161C73.5673 77.3493 73.655 78.5173 73.5604 79.6776C73.334 80.7677 72.8491 81.7876 72.1466 82.6515C71.7524 83.137 71.4446 83.6867 71.2366 84.2765C71.2037 84.739 71.2645 85.2033 71.4153 85.6416C71.6245 86.3358 71.6245 87.0763 71.4153 87.7705L81.1658 82.0827C81.4908 81.9039 82.1246 81.3189 82.7909 79.5313C82.7958 79.1567 82.7409 78.7836 82.6284 78.4262C82.3969 77.719 82.3411 76.966 82.4659 76.2324C82.7223 75.4654 83.113 74.7501 83.6197 74.1198C84.1729 73.4555 84.5625 72.6707 84.7572 71.8284C84.8047 70.8461 84.7172 69.8618 84.4972 68.9033C84.2604 67.8366 84.1513 66.7455 84.1722 65.6531C84.2782 64.7946 84.5544 63.9659 84.9847 63.2155C85.3407 62.5982 85.5571 61.9103 85.6185 61.2004C85.5407 60.1943 85.3218 59.2042 84.9685 58.259C84.6294 57.3301 84.4004 56.3647 84.286 55.3826C84.2742 54.7178 84.4796 54.0674 84.871 53.53C85.131 53.14 85.2123 52.9775 85.1798 52.7337C85.0218 51.3558 84.783 49.9884 84.4647 48.6385C83.8797 46.1846 80.8733 43.3407 75.7868 40.3993C73.0315 38.8711 70.1819 37.5195 67.2551 36.3529L56.0583 42.8532Z" fill="#93D0FF"/>
<path d="M54.2219 42.9833L67.2226 35.4429C70.3731 36.7097 73.4352 38.1864 76.3881 39.8631C80.5645 42.2682 84.676 45.3884 85.4398 48.606C85.7751 49.9869 86.0247 51.3871 86.1873 52.7988C86.3173 53.9038 85.2285 54.3426 85.2935 55.4964C85.391 57.1215 86.6423 59.6241 86.6261 61.3792C86.6098 63.1343 85.3098 64.1743 85.1798 65.8807C85.0497 67.587 86.0248 70.3496 85.7485 72.0722C85.4723 73.7948 83.8797 75.0461 83.4409 76.59C83.1646 77.5975 84.0747 79.2063 83.7334 79.9864C83.3672 81.1442 82.659 82.164 81.7021 82.9115L68.7014 90.4519C69.6641 89.6995 70.3776 88.6745 70.749 87.5105C71.074 86.7305 70.1802 85.1216 70.4565 84.1141C70.879 82.5865 72.4554 81.514 72.7641 79.6126C73.0729 77.7113 72.0491 75.3224 72.1953 73.421C72.3416 71.5197 73.6092 70.6584 73.6254 68.9033C73.6417 67.1482 72.4066 64.7269 72.2928 63.0205C72.2928 61.8667 73.3329 61.3954 73.1866 60.3229C73.0199 58.913 72.7758 57.5133 72.4554 56.1302C71.6916 52.88 67.5801 49.8086 63.3874 47.3872C60.4353 45.7138 57.3731 44.2424 54.2219 42.9833Z" fill="white"/>
<path d="M68.7014 91.2644C68.5241 91.2626 68.3522 91.2028 68.2121 91.0942C68.0719 90.9856 67.9711 90.8341 67.925 90.6628C67.879 90.4916 67.8903 90.31 67.9571 90.1457C68.0239 89.9814 68.1426 89.8435 68.2952 89.7531C69.0785 89.0831 69.6442 88.1948 69.9202 87.2017C69.9263 86.827 69.8714 86.4538 69.7577 86.0966C69.5317 85.3881 69.4815 84.6351 69.6115 83.9028C69.8589 83.1302 70.2443 82.409 70.749 81.7739C71.3114 81.1156 71.7022 80.3285 71.8866 79.4825C71.9497 78.5053 71.862 77.5242 71.6266 76.5737C71.3875 75.5075 71.2838 74.4155 71.3178 73.3235C71.4166 72.4605 71.6874 71.6261 72.1141 70.8696C72.5098 70.2659 72.7499 69.5736 72.8129 68.8545C72.7367 67.8482 72.5179 66.8578 72.1628 65.9131C71.8332 64.9815 71.6044 64.0171 71.4803 63.0367C71.4632 62.3686 71.6754 61.7148 72.0816 61.1841C72.3254 60.7941 72.4066 60.6316 72.3904 60.3878C72.2194 59.0054 71.9753 57.633 71.6591 56.2764C71.074 53.8387 68.0839 50.9948 62.9811 48.0534C60.069 46.4127 57.0505 44.9686 53.9457 43.7307C53.8037 43.6725 53.6803 43.5766 53.5887 43.4535C53.4971 43.3304 53.4407 43.1847 53.4257 43.0319C53.4137 42.8814 53.4458 42.7306 53.5179 42.5979C53.59 42.4652 53.6991 42.3563 53.8319 42.2844L66.8326 34.744C66.9407 34.6884 67.0604 34.6594 67.182 34.6594C67.3035 34.6594 67.4233 34.6884 67.5314 34.744C70.6815 36.0056 73.7435 37.4769 76.6968 39.148C82.2709 42.3982 85.4398 45.4858 86.1386 48.411C86.4676 49.826 86.7172 51.2583 86.8861 52.7012C86.9507 53.3696 86.759 54.0376 86.3498 54.57C86.138 54.8143 86.0174 55.1244 86.0086 55.4476C86.1126 56.2967 86.3144 57.1311 86.6098 57.934C87.0275 59.0384 87.2741 60.2002 87.3411 61.3791C87.2878 62.3351 87.0094 63.265 86.5286 64.093C86.2026 64.6652 85.9876 65.2937 85.8948 65.9456C85.8802 66.891 85.9784 67.8348 86.1873 68.757C86.459 69.8839 86.5522 71.0464 86.4636 72.2022C86.2372 73.2973 85.7524 74.3224 85.0498 75.1923C84.6579 75.6795 84.3503 76.2288 84.1397 76.8174C84.0989 77.2841 84.1543 77.7542 84.3022 78.1987C84.5279 78.8848 84.5279 79.6252 84.3022 80.3113C83.875 81.6184 83.0443 82.7564 81.9296 83.5615L68.9289 91.1019C68.8643 91.1702 68.787 91.2254 68.7014 91.2644ZM56.0583 42.8532C58.7075 43.9835 61.2902 45.264 63.7937 46.6884C69.3677 49.9385 72.5366 53.0262 73.2354 55.9513C73.5704 57.3605 73.8254 58.7874 73.9992 60.2253C74.0507 60.9 73.8542 61.5703 73.4467 62.1104C73.2312 62.3524 73.1101 62.6639 73.1054 62.988C73.227 63.8339 73.4283 64.6664 73.7067 65.4743C74.1196 66.5577 74.3661 67.6973 74.438 68.8545C74.3749 69.8066 74.1031 70.7332 73.6417 71.5684C73.3082 72.1385 73.0876 72.7675 72.9916 73.421C72.9914 74.3612 73.0949 75.2986 73.3004 76.2161C73.5673 77.3493 73.655 78.5173 73.5604 79.6776C73.334 80.7677 72.8491 81.7876 72.1466 82.6515C71.7524 83.137 71.4446 83.6867 71.2366 84.2765C71.2037 84.739 71.2645 85.2033 71.4153 85.6416C71.6245 86.3358 71.6245 87.0763 71.4153 87.7705L81.1658 82.0827C81.4908 81.9039 82.1246 81.3189 82.7909 79.5313C82.7958 79.1567 82.7409 78.7836 82.6284 78.4262C82.3969 77.719 82.3411 76.966 82.4659 76.2324C82.7223 75.4654 83.113 74.7501 83.6197 74.1198C84.1729 73.4555 84.5625 72.6707 84.7572 71.8284C84.8047 70.8461 84.7172 69.8618 84.4972 68.9033C84.2604 67.8366 84.1513 66.7455 84.1722 65.6531C84.2782 64.7946 84.5544 63.9659 84.9847 63.2155C85.3407 62.5982 85.5571 61.9103 85.6185 61.2004C85.5407 60.1943 85.3218 59.2042 84.9685 58.259C84.6294 57.3301 84.4004 56.3647 84.286 55.3826C84.2742 54.7178 84.4796 54.0674 84.871 53.53C85.131 53.14 85.2123 52.9775 85.1798 52.7337C85.0218 51.3558 84.783 49.9884 84.4647 48.6385C83.8797 46.1846 80.8733 43.3407 75.7868 40.3993C73.0315 38.8711 70.1819 37.5195 67.2551 36.3529L56.0583 42.8532Z" fill="#93D0FF"/>
<path d="M55.7495 14.8367C58.5772 16.4618 62.4123 26.1148 59.3409 34.1102C56.5295 41.4068 54.9695 42.8531 54.2219 42.9831C57.3731 44.2423 60.4353 45.7136 63.3874 47.3871C67.5639 49.8085 71.6916 52.9286 72.4554 56.13C72.7758 57.5131 73.02 58.9128 73.1866 60.3227C73.3329 61.4278 72.2278 61.9478 72.2929 63.0204C72.4066 64.6455 73.6579 67.1643 73.6254 68.9032C73.5929 70.642 72.3254 71.7146 72.1954 73.4209C72.0653 75.1272 73.0404 77.8736 72.7641 79.6125C72.4879 81.3513 70.879 82.5864 70.4565 84.1139C70.1802 85.1215 71.074 86.7303 70.749 87.5104C69.7577 89.8667 68.5877 91.1018 67.3038 90.533C60.0776 87.3992 53.0254 83.8785 46.1778 79.9862C36.0698 74.1684 26.0268 66.8393 24.5967 60.2577V27.6423C24.7592 27.4636 27.8468 23.9534 34.4772 27.7886C41.1075 31.6238 52.0281 25.416 53.2631 17.0956C53.6857 14.7717 54.6445 14.2029 55.7495 14.8367Z" fill="white"/>
<path d="M67.9216 91.4917C67.6016 91.4854 67.2864 91.4135 66.9953 91.2805C59.7685 88.1297 52.7163 84.5927 45.8692 80.6849C32.5273 72.982 25.1169 66.1567 23.8819 60.4364C23.8738 60.3771 23.8738 60.3169 23.8819 60.2576V27.6422C23.8859 27.4439 23.9608 27.2537 24.0931 27.1059C24.4669 26.6834 27.9771 23.0432 34.9812 27.1059C36.5093 27.8501 38.1957 28.2109 39.8946 28.1571C41.5935 28.1033 43.2537 27.6366 44.7317 26.7972C46.72 25.9043 48.4706 24.5567 49.8425 22.863C51.2143 21.1694 52.169 19.177 52.6296 17.0467C52.6351 16.4511 52.7861 15.8659 53.0693 15.3419C53.3525 14.818 53.7594 14.3711 54.2547 14.0403C54.5784 13.8977 54.9329 13.8392 55.2852 13.8705C55.6376 13.9018 55.9762 14.0217 56.2698 14.219C59.5199 16.0716 63.4364 26.1309 60.2187 34.4838C59.2275 37.49 57.7568 40.3162 55.8635 42.853C58.5797 44.0057 61.2275 45.3133 63.7939 46.7695C69.3679 50.0196 72.5368 53.1073 73.2356 56.0324C73.5706 57.4415 73.8256 58.8685 73.9994 60.3064C74.0312 60.9537 73.8358 61.5918 73.4469 62.1102C73.2314 62.3522 73.1103 62.6638 73.1056 62.9878C73.2272 63.8337 73.4285 64.6662 73.7069 65.4741C74.1198 66.5575 74.3664 67.6971 74.4382 68.8543C74.3752 69.8064 74.1033 70.733 73.6419 71.5682C73.3085 72.1384 73.0878 72.7673 72.9919 73.4208C72.9916 74.361 73.0952 75.2984 73.3006 76.2159C73.5675 77.3491 73.6552 78.5171 73.5606 79.6774C73.3342 80.7675 72.8493 81.7874 72.1468 82.6513C71.7526 83.1368 71.4448 83.6865 71.2368 84.2763C71.2039 84.7388 71.2647 85.2031 71.4155 85.6414C71.6247 86.3356 71.6247 87.0761 71.4155 87.7703C70.9862 89.2372 70.0085 90.4826 68.6854 91.2479C68.4474 91.3741 68.1887 91.4567 67.9216 91.4917ZM25.4095 60.1764C26.5958 65.3441 33.9249 71.9582 46.5355 79.2711C53.3541 83.1502 60.3735 86.6653 67.5641 89.8016C67.6488 89.8378 67.7401 89.8565 67.8322 89.8565C67.9244 89.8565 68.0156 89.8378 68.1004 89.8016C68.3604 89.6879 69.0917 89.2166 69.9205 87.1852C69.9265 86.8105 69.8716 86.4373 69.758 86.0802C69.5319 85.3716 69.4817 84.6187 69.6117 83.8863C69.8591 83.1138 70.2445 82.3925 70.7492 81.7575C71.3116 81.0992 71.7024 80.312 71.8868 79.4661C71.95 78.4889 71.8623 77.5077 71.6268 76.5572C71.3877 75.4911 71.284 74.3991 71.318 73.307C71.4169 72.4441 71.6876 71.6097 72.1143 70.8532C72.5075 70.2542 72.7475 69.5678 72.8131 68.8543C72.737 67.848 72.5181 66.8576 72.1631 65.9129C71.8334 64.9813 71.6046 64.0169 71.4805 63.0365C71.4635 62.3684 71.6757 61.7146 72.0818 61.1839C72.3256 60.7939 72.4068 60.6314 72.3906 60.3876C72.2196 59.0052 71.9755 57.6328 71.6593 56.2762C71.0743 53.8386 68.0841 50.9947 62.9814 48.0533C60.0693 46.4125 57.0507 44.9684 53.9459 43.7305C53.781 43.6676 53.641 43.5527 53.5472 43.4032C53.4533 43.2537 53.4108 43.0776 53.4259 42.9017C53.4417 42.7255 53.5158 42.5595 53.6364 42.43C53.7571 42.3005 53.9174 42.2149 54.0922 42.1867C54.0922 42.1867 55.5547 41.7479 58.5936 33.8175C61.535 26.1959 57.7973 16.9492 55.3435 15.5354C55.2135 15.5354 54.986 15.3566 54.8559 15.4216C54.7259 15.4866 54.3197 16.0716 54.1572 17.2092C53.6767 19.6138 52.6279 21.8685 51.0985 23.7852C49.5691 25.7019 47.6034 27.225 45.3655 28.2273C43.6597 29.1841 41.7447 29.7067 39.7894 29.7493C37.834 29.7918 35.8982 29.3528 34.1524 28.471C28.9521 25.4809 26.2545 27.2847 25.4907 27.9672L25.4095 60.1764Z" fill="#93D0FF"/>
<path d="M67.5315 35.3127L54.5309 42.8368C55.3759 42.3493 56.8873 40.4317 59.3086 34.1101C62.38 26.1147 58.5448 16.478 55.7172 14.8366L68.7178 7.3125C71.5617 8.93758 75.3969 18.5743 72.3255 26.5697C69.8717 32.8913 68.3766 34.8251 67.5315 35.3127Z" fill="white"/>
<path d="M54.5634 43.6495C54.4229 43.652 54.2842 43.6172 54.1615 43.5487C54.0387 43.4802 53.9363 43.3804 53.8646 43.2595C53.7572 43.0714 53.7277 42.8488 53.7823 42.6392C53.837 42.4296 53.9715 42.2498 54.1571 42.1382C54.6284 41.8619 56.0097 40.5131 58.5774 33.8178C61.5188 26.1961 57.7811 16.9494 55.3272 15.5356C55.2021 15.4673 55.0981 15.3661 55.0265 15.2429C54.9549 15.1197 54.9184 14.9793 54.9209 14.8368C54.9201 14.6966 54.9556 14.5585 55.0239 14.4361C55.0923 14.3136 55.1912 14.2109 55.3109 14.138L68.3116 6.59763C68.4351 6.52631 68.5752 6.48877 68.7179 6.48877C68.8605 6.48877 69.0006 6.52631 69.1241 6.59763C72.3743 8.45022 76.2908 18.5095 73.0894 26.8624C71.0255 32.2089 69.3517 35.1991 67.9541 36.0116L54.9534 43.552C54.8334 43.616 54.6994 43.6495 54.5634 43.6495ZM57.196 14.9506C60.1212 18.0382 63.0138 26.9112 60.1374 34.4515C59.401 36.4152 58.5546 38.3358 57.6023 40.2043L67.1578 34.6628C67.6291 34.3865 69.0104 33.0377 71.578 26.3261C74.3732 19.0945 71.123 10.3678 68.7016 8.32022L57.196 14.9506Z" fill="#93D0FF"/>
<path d="M55.7497 14.8367L68.7503 7.31262C71.5942 8.9377 75.4294 18.5744 72.358 26.5698C69.9204 32.8914 68.4253 34.8253 67.5803 35.3128L54.5796 42.8369C55.4246 42.3494 56.936 40.4318 59.3573 34.1102C62.4125 26.1148 58.5773 16.4781 55.7497 14.8367Z" fill="white"/>
<path d="M54.5633 43.6496C54.4228 43.6521 54.2841 43.6173 54.1613 43.5488C54.0386 43.4803 53.9362 43.3805 53.8645 43.2596C53.7571 43.0716 53.7275 42.8489 53.7822 42.6393C53.8369 42.4298 53.9714 42.2499 54.157 42.1383C54.6283 41.862 56.0096 40.5132 58.5772 33.8179C61.5186 26.1963 57.781 16.9495 55.3271 15.5357C55.202 15.4674 55.098 15.3662 55.0264 15.243C54.9547 15.1198 54.9182 14.9794 54.9208 14.8369C54.92 14.6967 54.9555 14.5586 55.0238 14.4362C55.0922 14.3137 55.191 14.2111 55.3108 14.1381L68.3115 6.59775C68.435 6.52643 68.5751 6.48889 68.7178 6.48889C68.8604 6.48889 69.0005 6.52643 69.124 6.59775C72.3742 8.45034 76.2906 18.5096 73.0892 26.8625C71.0254 32.2091 69.3515 35.1992 67.954 36.0117L54.9533 43.5521C54.8333 43.6161 54.6993 43.6496 54.5633 43.6496ZM57.1959 14.9507C60.1211 18.0383 63.0137 26.9113 60.1373 34.4517C59.4009 36.4153 58.5545 38.3359 57.6022 40.2045L67.1577 34.6629C67.629 34.3867 69.0103 33.0378 71.5779 26.3263C74.373 19.0946 71.1229 10.3679 68.7015 8.32034L57.1959 14.9507Z" fill="#93D0FF"/>
<defs>
<linearGradient id="paint0_linear" x1="71.7913" y1="41.8132" x2="89.5321" y2="32.8479" gradientUnits="userSpaceOnUse">
<stop stop-color="#CCE5FB"/>
<stop offset="1" stop-color="#CEE7FD" stop-opacity="0"/>
</linearGradient>
<linearGradient id="paint1_linear" x1="84.6978" y1="78.917" x2="107.535" y2="59.0508" gradientUnits="userSpaceOnUse">
<stop stop-color="#CCE5FB"/>
<stop offset="1" stop-color="#CEE7FD" stop-opacity="0"/>
</linearGradient>
</defs>
</svg>
