<svg width="446" height="524" viewBox="0 0 446 524" fill="none" xmlns="http://www.w3.org/2000/svg">
<path d="M418.528 220.164V219.022C418.536 218.927 418.57 218.835 418.626 218.757C418.682 218.68 418.758 218.619 418.846 218.581L423.611 215.827C423.847 215.706 424.108 215.642 424.373 215.642C424.638 215.642 424.9 215.706 425.136 215.827L427.377 217.121C427.464 217.16 427.539 217.221 427.595 217.298C427.651 217.376 427.686 217.467 427.695 217.562V218.668C427.7 218.77 427.674 218.871 427.62 218.958C427.565 219.044 427.486 219.112 427.391 219.152L422.627 221.906C422.39 222.024 422.129 222.086 421.865 222.086C421.6 222.086 421.339 222.024 421.102 221.906L418.861 220.612C418.773 220.573 418.697 220.51 418.641 220.432C418.585 220.353 418.551 220.26 418.543 220.164H418.528Z" fill="white"/>
<path d="M421.854 222.912C421.443 222.916 421.037 222.813 420.676 222.615L418.435 221.321C418.221 221.21 418.041 221.043 417.914 220.838C417.787 220.633 417.717 220.398 417.712 220.157V219.015C417.717 218.775 417.787 218.541 417.914 218.337C418.041 218.133 418.221 217.968 418.435 217.858L423.206 215.097C423.569 214.902 423.973 214.801 424.385 214.801C424.796 214.801 425.201 214.902 425.563 215.097L427.804 216.391C428.019 216.502 428.2 216.67 428.328 216.876C428.455 217.083 428.524 217.32 428.527 217.562V218.654C428.534 218.714 428.534 218.774 428.527 218.834C428.497 219.051 428.415 219.256 428.29 219.435C428.164 219.614 427.998 219.76 427.804 219.861L423.047 222.608C422.682 222.81 422.271 222.914 421.854 222.912ZM419.36 219.94L421.529 221.184C421.643 221.235 421.766 221.262 421.891 221.262C422.015 221.262 422.138 221.235 422.252 221.184L426.915 218.495V217.772L424.746 216.535C424.632 216.486 424.509 216.461 424.385 216.461C424.26 216.461 424.137 216.486 424.023 216.535L419.36 219.232V219.94Z" fill="#93D0FF"/>
<path d="M174.958 2.04848L171.886 3.81967C170.498 4.63658 169.63 6.36438 169.637 8.81513V192.585C169.637 197.515 173.107 203.53 177.387 206.002L434.353 354.355C436.464 355.577 438.387 355.7 439.79 354.919H439.833L442.913 353.141C444.315 352.338 445.197 350.603 445.197 348.124V164.354C445.197 159.424 441.72 153.416 437.44 150.944L180.452 2.56176C178.349 1.34724 176.447 1.21711 175.052 1.97619L174.987 2.01234L174.958 2.04848Z" fill="#3199F0"/>
<g style="mix-blend-mode:overlay" opacity="0.3">
<path d="M220.011 199.134V230.632L357.245 309.866V237.356L220.011 199.134Z" fill="black"/>
</g>
<g style="mix-blend-mode:overlay" opacity="0.3">
<path d="M437.412 150.944L180.453 2.56176C178.349 1.34724 176.448 1.21711 175.052 1.97619L174.987 2.01234L171.929 3.77628C173.324 2.98829 175.247 3.11119 177.38 4.33295L434.346 152.7C438.634 155.173 442.096 161.18 442.096 166.111V349.895C442.096 352.353 441.236 354.088 439.841 354.897L442.906 353.126C444.309 352.324 445.19 350.589 445.19 348.109V164.354C445.169 159.438 441.691 153.416 437.412 150.944Z" fill="black"/>
</g>
<g style="mix-blend-mode:overlay" opacity="0.2">
<path d="M434.317 347.545L177.351 199.199C174.893 197.753 172.702 197.84 171.285 199.076C172.602 201.922 174.707 204.331 177.351 206.017L434.317 354.37C436.775 355.816 438.965 355.736 440.382 354.493C439.068 351.643 436.963 349.232 434.317 347.545Z" fill="black"/>
</g>
<path d="M437.773 356.242C436.402 356.198 435.066 355.797 433.898 355.078L176.931 206.718C172.428 204.115 168.77 197.775 168.77 192.585V8.8367C168.77 6.16908 169.709 4.13764 171.415 3.13276L171.495 3.08939L174.539 1.33267H174.575H174.618C174.673 1.30246 174.731 1.27822 174.792 1.26037C176.49 0.400079 178.638 0.63865 180.864 1.91824L437.831 150.279C442.334 152.874 445.992 159.214 446 164.405V348.124C446 350.827 445.038 352.866 443.289 353.864L440.267 355.613L440.195 355.656L440.086 355.707C439.37 356.071 438.576 356.255 437.773 356.242ZM172.269 4.55694C171.083 5.27987 170.425 6.77634 170.425 8.8367V192.585C170.425 197.247 173.707 202.944 177.756 205.279L434.722 353.639C436.5 354.666 438.141 354.861 439.342 354.196H439.421L442.45 352.439C443.665 351.753 444.33 350.227 444.33 348.138V164.354C444.33 159.691 441.033 154.002 436.985 151.659L180.04 3.28458C178.269 2.26525 176.642 2.06283 175.449 2.71347L175.348 2.75685L172.297 4.5208L172.269 4.55694Z" fill="#93D0FF"/>
<path d="M434.317 336.485L177.351 188.117C176.45 187.529 175.7 186.736 175.161 185.805C174.622 184.873 174.31 183.827 174.25 182.753V11.5263C174.25 9.55269 175.645 8.75023 177.351 9.74065L434.317 158.094C435.218 158.684 435.967 159.478 436.504 160.411C437.042 161.344 437.352 162.39 437.412 163.465V334.692C437.412 336.665 436.045 337.468 434.317 336.485Z" fill="white"/>
<path d="M266.007 187.4C266.007 190.147 264.07 191.253 261.669 189.879L212.358 161.41C211.098 160.597 210.048 159.497 209.294 158.2C208.54 156.904 208.104 155.447 208.021 153.95V72.981C208.021 70.2411 209.951 69.1278 212.358 70.5014L261.669 98.9849C262.931 99.7937 263.982 100.891 264.736 102.185C265.49 103.48 265.926 104.935 266.007 106.431V187.4Z" fill="#CEE7FD"/>
<path d="M418.926 163.053C420.187 163.863 421.238 164.962 421.992 166.257C422.746 167.553 423.182 169.009 423.263 170.506L421.987 265.367C421.987 268.115 420.057 269.228 417.65 267.847L333.486 219.259C332.227 218.446 331.178 217.347 330.424 216.052C329.67 214.757 329.233 213.302 329.148 211.805L330.424 116.915C330.424 114.175 332.355 113.062 334.762 114.436L418.926 163.053Z" fill="#CEE7FD"/>
<path d="M186.632 218.805L188.18 219.702L193.124 216.846V211.489L186.618 215.241C184.934 216.217 184.934 217.815 186.632 218.805Z" fill="#80B6F1"/>
<g style="mix-blend-mode:overlay" opacity="0.2">
<path d="M186.632 218.805L188.18 219.702L193.124 216.846V211.489L186.618 215.241C184.934 216.217 184.934 217.815 186.632 218.805Z" fill="black"/>
</g>
<path d="M191.441 225.225C191.777 225.378 192.147 225.439 192.514 225.402C192.881 225.365 193.232 225.232 193.53 225.015L205.155 218.306V211.439L200.991 209.031L189.359 215.747C188.494 216.31 187.775 217.069 187.258 217.962C186.742 218.855 186.444 219.857 186.388 220.887C186.355 221.241 186.411 221.596 186.551 221.922C186.691 222.248 186.911 222.534 187.19 222.753L191.441 225.225Z" fill="#7185A3"/>
<path d="M191.441 225.225C191.777 225.378 192.147 225.439 192.514 225.402C192.881 225.365 193.232 225.232 193.53 225.015L205.155 218.306V211.439L200.991 209.031L189.359 215.747C188.494 216.31 187.775 217.069 187.258 217.962C186.742 218.855 186.444 219.857 186.388 220.887C186.355 221.241 186.411 221.596 186.551 221.922C186.691 222.248 186.911 222.534 187.19 222.753L191.441 225.225Z" fill="#B7DAFE"/>
<g style="mix-blend-mode:overlay" opacity="0.5">
<path d="M205.155 211.395L193.53 218.111C192.664 218.675 191.944 219.434 191.428 220.329C190.911 221.223 190.613 222.227 190.559 223.259C190.559 225.153 191.889 225.919 193.53 224.972L205.155 218.263V211.395Z" fill="black"/>
</g>
<path d="M398.243 340.966L399.79 341.863L404.735 338.971V333.665L398.228 337.417C396.522 338.378 396.529 339.983 398.243 340.966Z" fill="#80B6F1"/>
<g style="mix-blend-mode:overlay" opacity="0.2">
<path d="M398.243 340.966L399.79 341.863L404.735 338.971V333.665L398.228 337.417C396.522 338.378 396.529 339.983 398.243 340.966Z" fill="black"/>
</g>
<path d="M403.036 347.328C403.373 347.477 403.743 347.535 404.11 347.497C404.476 347.459 404.826 347.326 405.126 347.111L416.743 340.395V333.542L412.572 331.127L400.94 337.843C400.077 338.409 399.358 339.17 398.842 340.064C398.326 340.957 398.027 341.96 397.969 342.991C397.94 343.343 397.998 343.698 398.138 344.023C398.278 344.348 398.495 344.634 398.771 344.856L403.036 347.328Z" fill="#7185A3"/>
<path d="M403.036 347.328C403.373 347.477 403.743 347.535 404.11 347.497C404.476 347.459 404.826 347.326 405.126 347.111L416.743 340.395V333.542L412.572 331.127L400.94 337.843C400.077 338.409 399.358 339.17 398.842 340.064C398.326 340.957 398.027 341.96 397.969 342.991C397.94 343.343 397.998 343.698 398.138 344.023C398.278 344.348 398.495 344.634 398.771 344.856L403.036 347.328Z" fill="white"/>
<path d="M416.75 333.542L405.118 340.251C404.255 340.816 403.537 341.577 403.022 342.471C402.507 343.365 402.21 344.368 402.154 345.398C402.154 347.292 403.484 348.058 405.125 347.111L416.743 340.395L416.75 333.542Z" fill="#CEE7FD"/>
<path d="M435.112 353.293C435.112 353.293 435.112 353.242 435.112 353.213C435.08 353.029 435.034 352.848 434.975 352.671C434.975 352.671 434.975 352.671 434.975 352.613C434.91 352.43 434.836 352.252 434.75 352.078V352.02C434.664 351.861 434.563 351.702 434.461 351.536L434.396 351.442C434.282 351.279 434.156 351.125 434.02 350.979L433.948 350.878C433.376 350.273 432.715 349.759 431.989 349.353L413.822 338.856L407.315 342.608C406.356 343.096 405.294 343.35 404.217 343.35C403.141 343.35 402.079 343.096 401.12 342.608L399.833 341.885L398.286 340.988C396.572 340.005 396.565 338.4 398.286 337.417L400.144 336.347L404.792 333.665L202.183 216.694L195.677 220.446C194.716 220.935 193.653 221.189 192.575 221.189C191.497 221.189 190.435 220.935 189.474 220.446L188.187 219.724L186.633 218.805C184.919 217.815 184.919 216.217 186.633 215.227L188.476 214.164L193.139 211.489L174.972 201C170.692 198.534 163.759 198.527 159.487 201L5.0031 290.173C4.74285 290.325 4.48982 290.484 4.28017 290.65C2.6608 291.793 1.84388 293.195 1.82942 294.598V299.911C1.78604 301.56 2.83428 303.215 5.02477 304.473L261.984 452.84C266.271 455.313 273.204 455.313 277.477 452.84L431.96 363.652C434.078 362.43 435.134 360.833 435.148 359.228V359.184V353.82C435.147 353.644 435.135 353.468 435.112 353.293Z" fill="#3199F0"/>
<g style="mix-blend-mode:overlay" opacity="0.3">
<path d="M435.119 353.401C435.322 355.158 434.273 356.95 431.953 358.288L277.477 447.483C273.197 449.948 266.264 449.948 261.977 447.483L5.01043 299.116C2.87778 297.88 1.80784 296.224 1.80061 294.641V299.904C1.75723 301.552 2.80547 303.208 4.99596 304.465L261.955 452.833C266.242 455.305 273.175 455.305 277.448 452.833L431.931 363.645C434.049 362.423 435.105 360.825 435.119 359.22V359.177V353.813C435.13 353.676 435.13 353.538 435.119 353.401Z" fill="black"/>
</g>
<path d="M269.77 455.515C266.925 455.572 264.113 454.9 261.601 453.563L4.59851 305.203C2.29236 303.873 0.983849 302.058 0.983849 300.077C0.976738 300.022 0.976738 299.966 0.983849 299.911V294.569C0.983849 292.863 2.01042 291.236 3.78883 289.978C4.04186 289.797 4.30934 289.624 4.59851 289.458L159.075 200.262C163.564 197.667 170.88 197.674 175.391 200.262L193.559 210.766C193.685 210.839 193.79 210.945 193.863 211.072C193.935 211.199 193.972 211.343 193.971 211.489C193.97 211.635 193.932 211.778 193.86 211.905C193.788 212.032 193.684 212.137 193.559 212.212L187.052 215.964C186.503 216.282 186.185 216.687 186.185 217.027C186.185 217.367 186.503 217.786 187.052 218.104L189.893 219.738C190.728 220.154 191.647 220.37 192.579 220.37C193.511 220.37 194.431 220.154 195.265 219.738L201.771 215.986C201.897 215.915 202.039 215.878 202.183 215.878C202.328 215.878 202.47 215.915 202.595 215.986L405.147 332.942C405.274 333.015 405.379 333.121 405.453 333.248C405.526 333.374 405.565 333.518 405.566 333.665C405.568 333.812 405.529 333.957 405.456 334.084C405.382 334.211 405.275 334.316 405.147 334.388L398.64 338.14C398.091 338.458 397.773 338.863 397.773 339.203C397.773 339.542 398.098 339.926 398.647 340.28L400.093 341.133L400.18 341.176L401.467 341.899C402.302 342.313 403.221 342.528 404.153 342.528C405.084 342.528 406.003 342.313 406.838 341.899L413.345 338.147C413.472 338.076 413.615 338.039 413.76 338.039C413.906 338.039 414.049 338.076 414.176 338.147L432.343 348.637C433.148 349.087 433.879 349.658 434.512 350.329L434.613 350.459C434.76 350.622 434.897 350.794 435.025 350.972C435.051 351.005 435.073 351.042 435.091 351.08C435.221 351.276 435.336 351.456 435.438 351.644C435.449 351.677 435.463 351.708 435.481 351.738C435.579 351.938 435.666 352.143 435.741 352.353V352.468C435.806 352.672 435.857 352.88 435.893 353.09C435.893 353.133 435.893 353.177 435.893 353.213C435.924 353.414 435.941 353.617 435.944 353.82V359.192C435.947 359.24 435.947 359.288 435.944 359.336C435.886 361.281 434.606 363.074 432.329 364.397L277.882 453.571C275.386 454.895 272.595 455.564 269.77 455.515ZM2.63211 299.752C2.64321 299.814 2.64321 299.878 2.63211 299.94C2.63211 301.35 3.58641 302.709 5.41543 303.764L262.396 452.132C266.438 454.46 273.016 454.467 277.057 452.132L431.534 362.944C433.312 361.917 434.302 360.601 434.317 359.228C434.313 359.187 434.313 359.146 434.317 359.105V353.82C434.328 353.683 434.328 353.545 434.317 353.408C434.317 353.408 434.317 353.358 434.317 353.329C434.293 353.192 434.259 353.056 434.216 352.924C434.216 352.924 434.216 352.873 434.216 352.844C434.17 352.708 434.114 352.575 434.049 352.447L434.013 352.367C433.955 352.266 433.876 352.136 433.782 351.998L433.724 351.912C433.637 351.789 433.529 351.659 433.421 351.529L433.334 351.427C432.827 350.887 432.239 350.429 431.591 350.068L413.836 339.817L407.764 343.331C406.676 343.892 405.47 344.184 404.247 344.184C403.023 344.184 401.817 343.892 400.729 343.331L399.529 342.608L399.435 342.564L397.888 341.661C397.387 341.461 396.957 341.115 396.655 340.669C396.352 340.222 396.19 339.695 396.19 339.156C396.19 338.616 396.352 338.089 396.655 337.642C396.957 337.196 397.387 336.85 397.888 336.651L403.151 333.622L202.183 217.656L196.096 221.162C195.011 221.725 193.806 222.019 192.583 222.019C191.36 222.019 190.155 221.725 189.069 221.162L186.235 219.528C185.732 219.33 185.3 218.984 184.995 218.537C184.691 218.09 184.528 217.561 184.528 217.02C184.528 216.479 184.691 215.95 184.995 215.502C185.3 215.055 185.732 214.71 186.235 214.511L191.491 211.475L174.56 201.701C170.512 199.373 163.933 199.373 159.899 201.701L5.42267 290.889C5.18783 291.02 4.96092 291.165 4.74311 291.323C3.39122 292.277 2.64657 293.441 2.63211 294.605V299.752Z" fill="#93D0FF"/>
<g style="mix-blend-mode:overlay" opacity="0.3">
<path d="M330.714 403.573C329.274 404.303 327.681 404.684 326.066 404.684C324.45 404.684 322.858 404.303 321.417 403.573L81.0855 264.798C78.519 263.352 78.519 260.916 81.0855 259.434L158.439 214.743C159.88 214.012 161.472 213.631 163.088 213.631C164.703 213.631 166.296 214.012 167.736 214.743L408.097 353.546C410.663 354.991 410.67 357.428 408.097 358.91L330.714 403.573Z" fill="black"/>
</g>
<path d="M106.388 270.343C105.428 270.832 104.367 271.086 103.29 271.086C102.213 271.086 101.152 270.832 100.192 270.343L88.8204 263.786C87.1143 262.796 87.107 261.191 88.8204 260.172L97.0763 255.4C98.0359 254.912 99.0974 254.658 100.174 254.658C101.251 254.658 102.312 254.912 103.272 255.4L114.644 261.965C116.35 262.948 116.357 264.553 114.644 265.579L106.388 270.343ZM149.764 265.586C151.484 264.603 151.477 262.998 149.764 261.972L120.846 245.272C119.885 244.784 118.823 244.529 117.745 244.529C116.667 244.529 115.604 244.784 114.644 245.272L106.388 250.043C104.682 251.027 104.682 252.624 106.388 253.615L135.305 270.322C136.266 270.81 137.328 271.064 138.406 271.064C139.484 271.064 140.547 270.81 141.508 270.322L149.764 265.586ZM132.218 275.707C133.931 274.717 133.924 273.112 132.218 272.093L123.948 267.314C122.988 266.828 121.926 266.574 120.85 266.574C119.774 266.574 118.712 266.828 117.752 267.314L109.496 272.078C107.783 273.069 107.79 274.666 109.496 275.693L117.767 280.464C118.726 280.953 119.788 281.207 120.864 281.207C121.941 281.207 123.003 280.953 123.962 280.464L132.218 275.707ZM149.793 285.829C151.499 284.845 151.499 283.24 149.793 282.257L141.529 277.486C140.57 276.998 139.508 276.743 138.432 276.743C137.355 276.743 136.293 276.998 135.334 277.486L127.071 282.25C125.365 283.24 125.365 284.838 127.071 285.865L135.341 290.636C136.302 291.124 137.365 291.379 138.443 291.379C139.52 291.379 140.583 291.124 141.544 290.636L149.793 285.829ZM167.36 295.95C169.066 294.959 169.066 293.354 167.36 292.371L159.097 287.6C158.137 287.113 157.075 286.86 155.999 286.86C154.923 286.86 153.861 287.113 152.901 287.6L144.638 292.364C142.932 293.354 142.932 294.959 144.638 295.942L152.908 300.714C153.868 301.202 154.929 301.456 156.006 301.456C157.083 301.456 158.144 301.202 159.104 300.714L167.36 295.95ZM284.735 363.717C286.441 362.727 286.441 361.122 284.735 360.139L264.493 348.456C263.533 347.97 262.472 347.716 261.395 347.716C260.319 347.716 259.258 347.97 258.298 348.456L250.034 353.228C248.328 354.211 248.328 355.816 250.034 356.842L270.277 368.525C271.236 369.013 272.298 369.268 273.374 369.268C274.451 369.268 275.512 369.013 276.472 368.525L284.735 363.717ZM319.855 363.717C321.569 362.734 321.561 361.129 319.855 360.146L299.613 348.456C298.653 347.97 297.592 347.716 296.515 347.716C295.439 347.716 294.378 347.97 293.418 348.456L285.154 353.22C283.448 354.211 283.448 355.816 285.154 356.835L305.397 368.518C306.358 369.004 307.42 369.258 308.498 369.258C309.575 369.258 310.638 369.004 311.599 368.518L319.855 363.717ZM255.203 346.656C256.909 345.666 256.909 344.068 255.203 343.078L246.94 338.306C245.982 337.818 244.922 337.564 243.846 337.564C242.771 337.564 241.71 337.818 240.752 338.306L232.496 343.07C230.783 344.054 230.783 345.658 232.496 346.649L240.759 351.42C241.719 351.907 242.781 352.16 243.857 352.16C244.933 352.16 245.995 351.907 246.955 351.42L255.203 346.656ZM237.6 336.557C239.313 335.581 239.313 333.976 237.6 332.985L176.628 297.786C175.666 297.299 174.604 297.046 173.526 297.046C172.449 297.046 171.386 297.299 170.425 297.786L162.169 302.579C160.463 303.562 160.463 305.167 162.169 306.15L223.141 341.357C224.102 341.845 225.165 342.1 226.243 342.1C227.321 342.1 228.383 341.845 229.344 341.357L237.6 336.557ZM189.525 236.134C191.238 235.144 191.231 233.546 189.525 232.563L166.21 219.08C165.25 218.594 164.189 218.34 163.113 218.34C162.036 218.34 160.975 218.594 160.015 219.08L158.981 219.673C157.275 220.663 157.275 222.261 158.981 223.251L182.296 236.727C183.256 237.213 184.317 237.467 185.393 237.467C186.47 237.467 187.531 237.213 188.491 236.727L189.525 236.134ZM207.092 246.255C208.806 245.272 208.806 243.667 207.092 242.641L198.822 237.869C197.862 237.381 196.801 237.126 195.724 237.126C194.647 237.126 193.586 237.381 192.626 237.869L191.592 238.462C189.886 239.452 189.886 241.05 191.592 242.077L199.863 246.848C200.823 247.335 201.884 247.588 202.961 247.588C204.037 247.588 205.098 247.335 206.058 246.848L207.092 246.255ZM224.667 256.376C226.373 255.393 226.373 253.788 224.667 252.798L216.404 248.026C215.443 247.538 214.38 247.284 213.302 247.284C212.224 247.284 211.162 247.538 210.201 248.026L209.174 248.619C207.461 249.61 207.461 251.207 209.174 252.234L217.445 257.005C218.405 257.492 219.466 257.745 220.542 257.745C221.619 257.745 222.68 257.492 223.64 257.005L224.667 256.376ZM242.234 266.497C243.94 265.514 243.94 263.909 242.234 262.919L233.971 258.147C233.011 257.661 231.949 257.407 230.873 257.407C229.797 257.407 228.735 257.661 227.775 258.147L226.741 258.747C225.028 259.731 225.028 261.336 226.741 262.319L235.07 267.155C236.029 267.643 237.091 267.898 238.167 267.898C239.244 267.898 240.306 267.643 241.265 267.155L242.234 266.497ZM259.801 276.618C261.515 275.628 261.507 274.023 259.801 273.004L251.538 268.232C250.578 267.744 249.517 267.49 248.44 267.49C247.364 267.49 246.302 267.744 245.343 268.232L244.309 268.825C242.603 269.816 242.603 271.413 244.309 272.404L252.579 277.175C253.539 277.663 254.6 277.918 255.677 277.918C256.754 277.918 257.815 277.663 258.775 277.175L259.801 276.618ZM277.368 286.739C279.075 285.756 279.075 284.151 277.368 283.125L269.105 278.353C268.145 277.867 267.084 277.613 266.008 277.613C264.931 277.613 263.87 277.867 262.91 278.353L261.876 278.946C260.17 279.937 260.17 281.534 261.876 282.561L270.139 287.332C271.101 287.819 272.163 288.072 273.241 288.072C274.318 288.072 275.38 287.819 276.342 287.332L277.368 286.739ZM294.936 296.861C296.642 295.87 296.642 294.265 294.936 293.246L286.665 288.474C285.705 287.99 284.644 287.737 283.568 287.737C282.492 287.737 281.431 287.99 280.47 288.474L279.436 289.067C277.73 290.058 277.73 291.663 279.436 292.682L287.706 297.461C288.667 297.945 289.728 298.198 290.804 298.198C291.88 298.198 292.941 297.945 293.902 297.461L294.936 296.861ZM312.503 306.982C314.216 305.991 314.209 304.386 312.503 303.403L304.233 298.632C303.273 298.143 302.212 297.889 301.135 297.889C300.058 297.889 298.997 298.143 298.037 298.632L297.011 299.224C295.297 300.215 295.297 301.82 297.011 302.803L305.274 307.582C306.234 308.068 307.295 308.322 308.371 308.322C309.448 308.322 310.509 308.068 311.469 307.582L312.503 306.982ZM330.07 317.103C331.784 316.112 331.776 314.507 330.07 313.488L321.807 308.717C320.846 308.228 319.784 307.974 318.706 307.974C317.628 307.974 316.565 308.228 315.604 308.717L314.578 309.302C312.864 310.293 312.872 311.898 314.578 312.881L322.841 317.659C323.801 318.146 324.862 318.399 325.939 318.399C327.015 318.399 328.076 318.146 329.036 317.659L330.07 317.103ZM347.638 327.224C349.351 326.233 349.351 324.628 347.638 323.609L339.374 318.83C338.414 318.346 337.353 318.093 336.277 318.093C335.201 318.093 334.139 318.346 333.179 318.83L332.145 319.43C330.432 320.414 330.439 322.019 332.145 323.002L340.408 327.78C341.369 328.265 342.43 328.518 343.506 328.518C344.582 328.518 345.643 328.265 346.604 327.78L347.638 327.224ZM365.212 337.345C366.925 336.354 366.918 334.757 365.212 333.766L356.942 328.988C355.981 328.503 354.92 328.25 353.844 328.25C352.768 328.25 351.707 328.503 350.746 328.988L349.712 329.588C347.999 330.571 348.006 332.176 349.712 333.159L357.975 337.938C358.936 338.422 359.997 338.675 361.073 338.675C362.149 338.675 363.21 338.422 364.171 337.938L365.212 337.345ZM382.779 347.466C384.485 346.475 384.485 344.87 382.779 343.887L374.516 339.109C373.554 338.624 372.492 338.371 371.415 338.371C370.338 338.371 369.275 338.624 368.313 339.109L367.294 339.709C365.581 340.699 365.588 342.297 367.294 343.287L375.564 348.059C376.524 348.547 377.586 348.801 378.662 348.801C379.739 348.801 380.8 348.547 381.76 348.059L382.779 347.466ZM400.347 357.587C402.06 356.596 402.053 354.992 400.347 353.972L392.076 349.208C391.116 348.722 390.055 348.468 388.978 348.468C387.902 348.468 386.841 348.722 385.881 349.208L384.854 349.808C383.141 350.799 383.148 352.396 384.854 353.387L393.117 358.158C394.077 358.645 395.139 358.898 396.215 358.898C397.291 358.898 398.353 358.645 399.313 358.158L400.347 357.587ZM167.309 275.729C169.015 274.739 169.015 273.141 167.309 272.114L159.046 267.343C158.085 266.857 157.022 266.603 155.945 266.603C154.867 266.603 153.805 266.857 152.843 267.343L144.587 272.114C142.881 273.105 142.881 274.703 144.587 275.729L152.858 280.508C153.818 280.993 154.879 281.245 155.956 281.245C157.032 281.245 158.093 280.993 159.053 280.508L167.309 275.729ZM184.876 285.85C186.59 284.867 186.583 283.262 184.876 282.272L176.606 277.5C175.645 277.014 174.582 276.76 173.505 276.76C172.427 276.76 171.365 277.014 170.403 277.5L162.147 282.265C160.441 283.255 160.441 284.86 162.147 285.879L170.418 290.643C171.377 291.131 172.439 291.386 173.516 291.386C174.592 291.386 175.654 291.131 176.613 290.643L184.876 285.85ZM202.444 295.971C204.157 294.974 204.15 293.376 202.444 292.357L194.173 287.585C193.214 287.097 192.152 286.843 191.076 286.843C189.999 286.843 188.937 287.097 187.978 287.585L179.722 292.458C178.009 293.448 178.009 295.046 179.722 296.073L187.985 300.837C188.946 301.325 190.009 301.579 191.086 301.579C192.164 301.579 193.227 301.325 194.188 300.837L202.444 295.971ZM220.011 306.092C221.724 305.109 221.717 303.504 220.011 302.478L211.741 297.706C210.781 297.218 209.72 296.964 208.643 296.964C207.566 296.964 206.505 297.218 205.545 297.706L197.289 302.579C195.576 303.569 195.583 305.174 197.289 306.194L205.56 310.965C206.52 311.451 207.581 311.705 208.657 311.705C209.734 311.705 210.795 311.451 211.755 310.965L220.011 306.092ZM237.578 316.213C239.292 315.223 239.284 313.618 237.578 312.599L229.286 307.95C228.326 307.464 227.265 307.21 226.188 307.21C225.112 307.21 224.051 307.464 223.091 307.95L214.828 312.7C213.114 313.683 213.114 315.288 214.828 316.271L223.098 321.05C224.059 321.538 225.121 321.793 226.199 321.793C227.277 321.793 228.34 321.538 229.301 321.05L237.578 316.213ZM255.146 326.334C256.859 325.344 256.852 323.739 255.146 322.756L246.875 317.977C245.915 317.493 244.853 317.24 243.777 317.24C242.701 317.24 241.64 317.493 240.68 317.977L232.424 322.742C230.71 323.732 230.718 325.33 232.424 326.356L240.687 331.128C241.648 331.616 242.71 331.87 243.788 331.87C244.866 331.87 245.929 331.616 246.89 331.128L255.146 326.334ZM272.72 336.456C274.433 335.472 274.426 333.867 272.72 332.884L264.45 328.113C263.491 327.621 262.429 327.365 261.352 327.365C260.275 327.365 259.213 327.621 258.254 328.113L249.991 332.877C248.285 333.86 248.285 335.458 249.991 336.448L258.254 341.227C259.215 341.715 260.278 341.97 261.355 341.97C262.433 341.97 263.496 341.715 264.457 341.227L272.72 336.456ZM290.287 346.577C292.001 345.586 291.993 343.981 290.287 342.962L282.024 338.191C281.064 337.704 280.003 337.451 278.926 337.451C277.85 337.451 276.789 337.704 275.829 338.191L267.602 343.143C265.888 344.133 265.888 345.738 267.602 346.757L275.872 351.521C276.832 352.01 277.893 352.264 278.97 352.264C280.046 352.264 281.108 352.01 282.068 351.521L290.287 346.577ZM212.211 281.252C213.924 280.269 213.917 278.664 212.211 277.638L203.984 273.062C203.023 272.575 201.962 272.321 200.886 272.321C199.809 272.321 198.748 272.575 197.788 273.062L189.525 277.826C187.819 278.816 187.812 280.414 189.525 281.44L197.788 286.212C198.749 286.7 199.812 286.954 200.889 286.954C201.967 286.954 203.03 286.7 203.991 286.212L212.211 281.252ZM229.785 291.373C231.491 290.383 231.491 288.785 229.785 287.759L221.522 282.987C220.562 282.499 219.501 282.245 218.424 282.245C217.347 282.245 216.286 282.499 215.326 282.987L207.071 287.752C205.357 288.742 205.357 290.34 207.071 291.366L215.334 296.138C216.293 296.626 217.355 296.88 218.431 296.88C219.508 296.88 220.57 296.626 221.529 296.138L229.785 291.373ZM247.352 301.494C249.058 300.504 249.051 298.906 247.352 297.916L239.082 293.145C238.122 292.658 237.061 292.405 235.984 292.405C234.908 292.405 233.847 292.658 232.886 293.145L224.631 297.916C222.924 298.899 222.924 300.504 224.631 301.494L232.894 306.266C233.855 306.752 234.918 307.006 235.995 307.006C237.073 307.006 238.135 306.752 239.096 306.266L247.352 301.494ZM264.912 311.616C266.626 310.632 266.618 309.027 264.912 308.037L256.642 303.266C255.682 302.777 254.621 302.523 253.544 302.523C252.468 302.523 251.406 302.777 250.446 303.266L242.191 308.03C240.484 309.02 240.484 310.618 242.191 311.608L250.454 316.387C251.415 316.87 252.476 317.122 253.551 317.122C254.627 317.122 255.688 316.87 256.649 316.387L264.912 311.616ZM282.487 321.737C284.193 320.746 284.193 319.149 282.487 318.122L274.224 313.351C273.262 312.864 272.2 312.61 271.122 312.61C270.045 312.61 268.982 312.864 268.021 313.351L259.765 318.115C258.059 319.105 258.059 320.703 259.765 321.729L268.035 326.501C268.997 326.987 270.059 327.241 271.137 327.241C272.214 327.241 273.277 326.987 274.238 326.501L282.487 321.737ZM300.054 331.858C301.76 330.874 301.76 329.27 300.054 328.243L291.784 323.472C290.824 322.985 289.762 322.732 288.686 322.732C287.61 322.732 286.548 322.985 285.588 323.472L277.332 328.236C275.619 329.226 275.619 330.824 277.332 331.85L285.603 336.629C286.562 337.114 287.622 337.366 288.697 337.366C289.772 337.366 290.832 337.114 291.791 336.629L300.054 331.858ZM317.621 341.979C319.335 340.988 319.327 339.391 317.621 338.4L309.358 333.629C308.398 333.144 307.337 332.891 306.26 332.891C305.184 332.891 304.123 333.144 303.163 333.629L294.9 338.4C293.193 339.383 293.193 340.988 294.9 341.979L303.17 346.757C304.131 347.242 305.192 347.495 306.268 347.495C307.344 347.495 308.405 347.242 309.365 346.757L317.621 341.979ZM335.189 352.1C336.902 351.117 336.895 349.512 335.189 348.521L326.926 343.75C325.965 343.263 324.904 343.01 323.828 343.01C322.751 343.01 321.69 343.263 320.73 343.75L312.496 348.847C310.79 349.837 310.782 351.435 312.496 352.461L320.766 357.225C321.726 357.712 322.787 357.965 323.864 357.965C324.94 357.965 326.001 357.712 326.962 357.225L335.189 352.1ZM372.477 373.629C374.191 372.646 374.191 371.041 372.477 370.057L344.486 353.893C343.527 353.406 342.467 353.153 341.391 353.153C340.316 353.153 339.256 353.406 338.297 353.893L330.063 358.968C328.357 359.958 328.357 361.556 330.063 362.582L358.055 378.747C359.017 379.232 360.079 379.485 361.156 379.485C362.234 379.485 363.296 379.232 364.258 378.747L372.477 373.629ZM354.932 383.75C356.645 382.767 356.645 381.162 354.932 380.179L346.662 375.4C345.701 374.913 344.64 374.66 343.564 374.66C342.487 374.66 341.426 374.913 340.466 375.4L332.21 380.157C330.497 381.147 330.497 382.752 332.21 383.771L340.481 388.543C341.441 389.031 342.504 389.286 343.582 389.286C344.66 389.286 345.722 389.031 346.683 388.543L354.932 383.75ZM337.386 393.871C339.1 392.88 339.092 391.283 337.386 390.256L329.123 385.485C328.163 384.998 327.102 384.745 326.025 384.745C324.949 384.745 323.888 384.998 322.928 385.485L314.665 390.249C312.958 391.239 312.958 392.837 314.665 393.864L322.935 398.635C323.895 399.123 324.956 399.378 326.033 399.378C327.109 399.378 328.171 399.123 329.13 398.635L337.386 393.871ZM319.819 383.75C321.525 382.759 321.525 381.162 319.819 380.135L311.549 375.371C310.589 374.885 309.527 374.631 308.451 374.631C307.375 374.631 306.313 374.885 305.353 375.371L297.097 380.142C295.391 381.126 295.391 382.73 297.097 383.757L305.368 388.528C306.327 389.017 307.389 389.271 308.465 389.271C309.542 389.271 310.604 389.017 311.563 388.528L319.819 383.75ZM337.365 373.629C339.078 372.638 339.071 371.033 337.365 370.014L329.094 365.235C328.133 364.749 327.07 364.495 325.993 364.495C324.915 364.495 323.853 364.749 322.892 365.235L314.643 370C312.929 370.99 312.929 372.595 314.643 373.578L322.913 378.357C323.873 378.843 324.935 379.097 326.011 379.097C327.087 379.097 328.149 378.843 329.109 378.357L337.365 373.629ZM302.252 373.629C303.958 372.646 303.951 371.041 302.252 370.057L293.981 365.286C293.022 364.798 291.96 364.543 290.884 364.543C289.807 364.543 288.746 364.798 287.786 365.286L279.53 370.043C277.824 371.033 277.824 372.638 279.53 373.658L287.793 378.429C288.753 378.917 289.814 379.172 290.891 379.172C291.968 379.172 293.029 378.917 293.989 378.429L302.252 373.629ZM159.509 250.73C161.215 249.74 161.215 248.142 159.509 247.116L138.327 234.883C137.367 234.395 136.306 234.141 135.229 234.141C134.152 234.141 133.091 234.395 132.131 234.883L123.875 239.648C122.162 240.631 122.162 242.236 123.875 243.226L145.065 255.458C146.023 255.946 147.083 256.201 148.159 256.201C149.234 256.201 150.294 255.946 151.253 255.458L159.509 250.73ZM177.076 260.851C178.789 259.861 178.782 258.256 177.076 257.273L168.813 252.494C167.852 252.009 166.791 251.757 165.715 251.757C164.639 251.757 163.578 252.009 162.617 252.494L154.354 257.265C152.648 258.249 152.648 259.854 154.354 260.844L162.625 265.615C163.585 266.102 164.646 266.355 165.722 266.355C166.799 266.355 167.86 266.102 168.82 265.615L177.076 260.851ZM194.643 270.972C196.357 269.989 196.349 268.384 194.643 267.358L186.38 262.586C185.42 262.1 184.359 261.846 183.282 261.846C182.206 261.846 181.145 262.1 180.185 262.586L171.929 267.358C170.215 268.341 170.215 269.946 171.929 270.936L180.199 275.707C181.159 276.196 182.22 276.45 183.297 276.45C184.374 276.45 185.435 276.196 186.395 275.707L194.643 270.972ZM257.141 286.797C258.854 285.807 258.847 284.202 257.141 283.183L248.899 278.722C247.941 278.236 246.88 277.982 245.805 277.982C244.73 277.982 243.67 278.236 242.711 278.722L234.448 283.493C232.735 284.484 232.742 286.082 234.448 287.065L242.718 291.843C243.678 292.332 244.739 292.586 245.816 292.586C246.893 292.586 247.954 292.332 248.914 291.843L257.141 286.797ZM274.715 296.918C276.421 295.928 276.421 294.323 274.715 293.304L266.445 288.532C265.486 288.046 264.426 287.792 263.351 287.792C262.276 287.792 261.216 288.046 260.257 288.532L251.994 293.304C250.28 294.287 250.287 295.892 251.994 296.918L260.257 301.69C261.218 302.176 262.281 302.43 263.358 302.43C264.436 302.43 265.498 302.176 266.459 301.69L274.715 296.918ZM292.283 307.039C293.989 306.056 293.989 304.451 292.283 303.461L284.012 298.69C283.054 298.201 281.994 297.947 280.918 297.947C279.843 297.947 278.782 298.201 277.824 298.69L269.561 303.454C267.855 304.444 267.855 306.042 269.561 307.068L277.831 311.84C278.791 312.326 279.853 312.58 280.929 312.58C282.005 312.58 283.067 312.326 284.027 311.84L292.283 307.039ZM309.85 317.16C311.563 316.17 311.556 314.572 309.85 313.582L301.587 308.811C300.627 308.324 299.565 308.071 298.489 308.071C297.413 308.071 296.351 308.324 295.391 308.811L287.135 313.582C285.422 314.572 285.422 316.17 287.135 317.16L295.398 321.932C296.359 322.42 297.422 322.675 298.5 322.675C299.578 322.675 300.64 322.42 301.601 321.932L309.85 317.16ZM327.417 327.282C329.13 326.291 329.123 324.693 327.417 323.667L319.147 318.888C318.186 318.405 317.125 318.153 316.049 318.153C314.973 318.153 313.912 318.405 312.951 318.888L304.695 323.66C302.982 324.65 302.982 326.248 304.695 327.274L312.958 332.046C313.919 332.532 314.98 332.786 316.056 332.786C317.133 332.786 318.194 332.532 319.154 332.046L327.417 327.282ZM344.984 337.403C346.698 336.419 346.698 334.814 344.984 333.788L336.714 329.017C335.754 328.53 334.693 328.277 333.616 328.277C332.54 328.277 331.479 328.53 330.519 329.017L322.263 333.788C320.556 334.771 320.556 336.376 322.263 337.403L330.533 342.174C331.494 342.659 332.555 342.911 333.631 342.911C334.707 342.911 335.768 342.659 336.728 342.174L344.984 337.403ZM362.552 347.524C364.265 346.54 364.265 344.936 362.552 343.909L354.289 339.138C353.328 338.651 352.267 338.398 351.191 338.398C350.114 338.398 349.053 338.651 348.093 339.138L339.895 344.364C338.182 345.355 338.189 346.953 339.895 347.936L348.158 352.714C349.119 353.199 350.18 353.452 351.256 353.452C352.332 353.452 353.393 353.199 354.354 352.714L362.552 347.524ZM390.023 363.385C391.729 362.402 391.729 360.789 390.023 359.77L371.856 349.28C370.896 348.794 369.834 348.54 368.758 348.54C367.682 348.54 366.62 348.794 365.66 349.28L357.397 354.052C355.691 355.042 355.691 356.64 357.397 357.63L375.564 368.12C376.524 368.608 377.586 368.863 378.662 368.863C379.739 368.863 380.8 368.608 381.76 368.12L390.023 363.385ZM222.057 266.808C223.77 265.818 223.763 264.213 222.057 263.194L213.765 258.48C212.804 257.995 211.743 257.743 210.667 257.743C209.591 257.743 208.53 257.995 207.569 258.48L199.313 263.251C197.6 264.235 197.6 265.839 199.313 266.823L207.598 271.565C208.557 272.055 209.619 272.31 210.696 272.31C211.773 272.31 212.835 272.055 213.794 271.565L222.057 266.808ZM239.624 276.929C241.337 275.939 241.33 274.334 239.624 273.315L231.332 268.601C230.372 268.115 229.311 267.861 228.234 267.861C227.158 267.861 226.097 268.115 225.137 268.601L216.873 273.372C215.175 274.356 215.175 275.96 216.873 276.944L225.137 281.722C226.097 282.209 227.158 282.462 228.234 282.462C229.311 282.462 230.372 282.209 231.332 281.722L239.624 276.929ZM169.355 236.358C171.061 235.368 171.061 233.763 169.355 232.78L155.923 225.023C154.963 224.536 153.902 224.283 152.825 224.283C151.749 224.283 150.688 224.536 149.727 225.023L141.464 229.794C139.758 230.784 139.765 232.382 141.464 233.373L154.882 241.13C155.841 241.614 156.901 241.867 157.976 241.867C159.051 241.867 160.111 241.614 161.07 241.13L169.355 236.358ZM186.922 246.479C188.629 245.489 188.629 243.891 186.922 242.865L178.659 238.093C177.699 237.607 176.638 237.353 175.561 237.353C174.485 237.353 173.424 237.607 172.464 238.093L164.201 242.857C162.494 243.848 162.494 245.446 164.201 246.472L172.449 251.251C173.409 251.739 174.47 251.993 175.547 251.993C176.624 251.993 177.685 251.739 178.645 251.251L186.922 246.479ZM204.49 256.6C206.203 255.61 206.196 254.005 204.49 252.986L196.219 248.214C195.26 247.726 194.198 247.472 193.121 247.472C192.045 247.472 190.983 247.726 190.024 248.214L181.768 252.978C180.062 253.969 180.055 255.574 181.768 256.593L190.031 261.372C190.991 261.858 192.052 262.112 193.129 262.112C194.205 262.112 195.266 261.858 196.227 261.372L204.49 256.6Z" fill="#CEE7FD"/>
<g style="mix-blend-mode:overlay" opacity="0.3">
<path d="M188.036 388.095C186.597 388.826 185.005 389.207 183.391 389.207C181.777 389.207 180.186 388.826 178.746 388.095L107.899 347.17C105.325 345.724 105.325 343.287 107.899 341.805L152.923 315.78C154.364 315.049 155.956 314.668 157.572 314.668C159.187 314.668 160.78 315.049 162.22 315.78L233.068 356.698C235.641 358.187 235.641 360.587 233.068 362.069L188.036 388.095Z" fill="black"/>
</g>
<g style="mix-blend-mode:overlay" opacity="0.2">
<path d="M107.834 343.598L152.858 317.573C154.299 316.844 155.892 316.464 157.506 316.464C159.121 316.464 160.714 316.844 162.155 317.573L233.002 358.491C233.758 358.882 234.363 359.512 234.723 360.283C235.243 359.04 234.687 357.674 233.002 356.669L162.155 315.751C160.714 315.02 159.122 314.639 157.506 314.639C155.891 314.639 154.299 315.02 152.858 315.751L107.834 341.776C106.149 342.745 105.593 344.111 106.113 345.391C106.473 344.619 107.078 343.989 107.834 343.598Z" fill="black"/>
</g>
<g style="mix-blend-mode:overlay" opacity="0.3">
<path d="M413.352 371.257C413.326 371.626 413.216 371.984 413.031 372.303C412.845 372.623 412.589 372.896 412.282 373.101L397.548 381.61C396.963 381.95 396.471 381.675 396.471 381.002C396.492 380.632 396.599 380.271 396.785 379.949C396.971 379.628 397.23 379.355 397.541 379.152L412.267 370.65C412.86 370.31 413.352 370.585 413.352 371.257ZM417.928 367.382C417.617 367.584 417.359 367.856 417.174 368.176C416.99 368.497 416.884 368.856 416.865 369.226C416.865 369.913 417.342 370.187 417.921 369.84C418.232 369.64 418.49 369.368 418.675 369.047C418.86 368.727 418.966 368.367 418.983 367.997C418.991 367.332 418.506 367.064 417.928 367.397V367.382ZM421.817 365.141C421.505 365.342 421.246 365.613 421.06 365.934C420.874 366.254 420.767 366.615 420.747 366.985C420.747 367.664 421.217 367.939 421.817 367.592C422.127 367.392 422.385 367.121 422.569 366.802C422.754 366.482 422.861 366.124 422.88 365.756C422.873 365.091 422.403 364.816 421.817 365.156V365.141ZM308.49 431.796C308.466 432.165 308.357 432.523 308.171 432.843C307.986 433.163 307.729 433.435 307.42 433.639L292.687 442.148C292.101 442.488 291.617 442.206 291.61 441.541C291.632 441.169 291.741 440.808 291.928 440.487C292.115 440.165 292.375 439.893 292.687 439.69L307.413 431.188C307.999 430.849 308.483 431.116 308.49 431.796Z" fill="black"/>
</g>
<g style="mix-blend-mode:overlay" opacity="0.3">
<path d="M170.844 306.092C170.844 307.639 171.835 309.179 173.873 310.35L253.671 356.43C257.719 358.765 264.291 358.758 268.346 356.43L356.262 305.673L261.818 251.12L173.888 301.856C171.871 303.041 170.859 304.567 170.844 306.092Z" fill="black"/>
</g>
<path d="M402.342 172.986C403.594 173.803 404.636 174.903 405.383 176.198C406.131 177.493 406.562 178.946 406.643 180.439L405.383 256.909C405.383 259.656 403.453 260.762 401.082 259.389L316.947 210.8C315.687 209.986 314.638 208.886 313.884 207.59C313.131 206.293 312.694 204.837 312.609 203.34L313.869 126.906C313.869 124.159 315.799 123.053 318.207 124.427L402.342 172.986Z" fill="white"/>
<path d="M402.581 271.002C401.75 270.971 400.942 270.722 400.239 270.279L316.075 221.69C314.693 220.802 313.544 219.597 312.723 218.175C311.901 216.753 311.432 215.154 311.354 213.514L313.01 126.906C313.01 125.265 313.61 124.014 314.687 123.4C315.764 122.785 317.145 122.886 318.562 123.711L402.791 172.263C404.174 173.149 405.324 174.354 406.146 175.777C406.967 177.199 407.436 178.798 407.511 180.439L405.856 267.098C405.856 268.732 405.263 269.99 404.178 270.597C403.694 270.878 403.141 271.018 402.581 271.002ZM316.248 124.629C315.996 124.619 315.746 124.679 315.525 124.802C315.217 125.044 314.977 125.362 314.827 125.724C314.678 126.086 314.625 126.481 314.672 126.87L313.017 213.528C313.1 214.876 313.494 216.186 314.169 217.355C314.844 218.524 315.781 219.521 316.906 220.266L401.135 268.862C401.419 269.149 401.79 269.333 402.19 269.387C402.59 269.441 402.997 269.361 403.347 269.16C403.697 268.959 403.97 268.647 404.124 268.274C404.279 267.901 404.305 267.488 404.2 267.098L405.856 180.439C405.774 179.092 405.381 177.783 404.707 176.614C404.034 175.444 403.098 174.448 401.974 173.701L317.81 125.106C317.339 124.814 316.801 124.65 316.248 124.629Z" fill="#93D0FF"/>
<path d="M254.361 194.029C254.361 196.776 252.431 197.89 250.023 196.516L200.741 168.047C199.482 167.232 198.433 166.132 197.679 164.836C196.925 163.539 196.488 162.083 196.403 160.586V79.6177C196.403 76.8706 198.334 75.7573 200.741 77.1309L250.052 105.585C251.312 106.398 252.362 107.496 253.116 108.792C253.869 110.087 254.306 111.542 254.39 113.039L254.361 194.029Z" fill="white"/>
<path d="M220.174 120.203C216.824 119.358 214.152 120.712 212.952 123.749C215.313 128.627 218.985 133.024 223.133 135.419C227.281 137.814 230.954 137.677 233.322 135.542C232.052 130.979 229.555 126.854 226.103 123.619C227.369 123.268 228.201 122.055 228.201 120.112C228.201 116.897 225.942 112.962 223.14 111.345C220.339 109.729 218.076 111.033 218.076 114.27C218.076 116.209 218.908 118.401 220.174 120.203Z" fill="#6FCF97"/>
<path d="M251.982 197.94C251.151 197.91 250.343 197.661 249.64 197.218L200.329 168.748C198.945 167.862 197.795 166.657 196.973 165.235C196.152 163.812 195.684 162.213 195.608 160.572V79.6036C195.608 77.9625 196.208 76.7118 197.285 76.0974C198.362 75.4829 199.743 75.5841 201.16 76.401L250.471 104.877C251.855 105.761 253.006 106.965 253.827 108.386C254.649 109.808 255.117 111.406 255.192 113.046V194.015C255.192 195.656 254.599 196.907 253.515 197.521C253.05 197.794 252.521 197.939 251.982 197.94ZM198.818 77.3914C198.566 77.3852 198.317 77.445 198.095 77.5649C197.788 77.8078 197.549 78.1257 197.401 78.4879C197.253 78.85 197.2 79.2442 197.249 79.6325V160.601C197.332 161.948 197.726 163.258 198.401 164.427C199.076 165.596 200.013 166.593 201.138 167.339L250.45 195.815C250.733 196.107 251.106 196.296 251.509 196.352C251.912 196.409 252.323 196.329 252.675 196.126C253.028 195.922 253.303 195.607 253.456 195.23C253.61 194.853 253.633 194.436 253.522 194.044V113.075C253.442 111.728 253.049 110.418 252.373 109.25C251.698 108.082 250.76 107.087 249.633 106.345L200.321 77.8685C199.869 77.5831 199.352 77.4188 198.818 77.3914Z" fill="#93D0FF"/>
<path d="M246.348 172.205C246.348 172.863 245.878 173.131 245.314 172.798L206.233 150.235C205.931 150.04 205.681 149.777 205.501 149.467C205.321 149.156 205.218 148.808 205.199 148.45C205.199 147.792 205.661 147.524 206.233 147.857L245.314 170.42C245.613 170.617 245.862 170.881 246.041 171.191C246.221 171.501 246.326 171.848 246.348 172.205ZM239.162 177.598C239.162 178.256 238.699 178.524 238.128 178.191L206.233 159.778C205.93 159.582 205.679 159.318 205.499 159.006C205.32 158.694 205.217 158.344 205.199 157.985C205.199 157.334 205.661 157.067 206.233 157.392L238.128 175.805C238.43 176.002 238.68 176.266 238.86 176.578C239.04 176.89 239.143 177.239 239.162 177.598ZM231.976 168.677C231.959 168.32 231.857 167.973 231.679 167.664C231.5 167.354 231.25 167.092 230.95 166.899L206.233 152.621C205.661 152.296 205.199 152.563 205.199 153.221C205.218 153.579 205.321 153.928 205.501 154.238C205.681 154.548 205.931 154.812 206.233 155.007L230.957 169.277C231.521 169.603 231.991 169.335 231.983 168.677H231.976ZM246.348 155.513C246.348 156.171 245.878 156.438 245.314 156.105L206.225 133.55C205.927 133.352 205.678 133.086 205.5 132.775C205.322 132.464 205.219 132.115 205.199 131.757C205.199 131.099 205.661 130.832 206.233 131.164L245.314 153.72C245.613 153.919 245.861 154.185 246.041 154.495C246.22 154.806 246.325 155.154 246.348 155.513ZM239.162 160.906C239.162 161.564 238.699 161.831 238.128 161.499L206.225 143.085C205.926 142.889 205.678 142.625 205.499 142.315C205.321 142.005 205.218 141.657 205.199 141.3C205.199 140.642 205.661 140.374 206.233 140.7L238.128 159.12C238.429 159.315 238.68 159.578 238.86 159.889C239.04 160.199 239.143 160.548 239.162 160.906ZM231.976 151.992C231.958 151.634 231.855 151.284 231.677 150.973C231.499 150.661 231.25 150.396 230.95 150.199L206.233 135.928C205.661 135.603 205.199 135.878 205.199 136.521C205.218 136.881 205.322 137.232 205.502 137.544C205.681 137.857 205.931 138.123 206.233 138.321L230.957 152.585C231.528 152.917 231.983 152.65 231.983 151.992H231.976Z" fill="#6FCF97" fill-opacity="0.34"/>
<path d="M319.224 477.639C319.231 478.619 319.471 479.584 319.924 480.453C320.378 481.322 321.032 482.071 321.832 482.637C336.678 493.516 352.673 502.735 369.528 510.129C375.078 512.486 383.569 512.053 388.235 509.354L389.143 508.829C391.743 507.329 393.076 505.13 393.085 502.931V513.011H393.035C393.035 515.21 391.693 517.385 389.085 518.892C388.793 519.059 388.485 519.234 388.185 519.417C383.519 522.1 375.028 522.541 369.478 520.184C352.623 512.788 336.63 503.57 321.782 492.692C320.994 492.135 320.348 491.401 319.895 490.549C319.442 489.697 319.195 488.75 319.174 487.786V477.631L319.224 477.639Z" fill="#5F98ED"/>
<g style="mix-blend-mode:overlay" opacity="0.3">
<path d="M319.224 477.639C319.231 478.619 319.471 479.584 319.924 480.453C320.378 481.322 321.032 482.071 321.832 482.637C336.678 493.516 352.673 502.735 369.528 510.129C375.078 512.486 383.569 512.053 388.235 509.354L389.143 508.829C391.743 507.329 393.076 505.13 393.085 502.931V513.011H393.035C393.035 515.21 391.693 517.385 389.085 518.892C388.793 519.059 388.485 519.234 388.185 519.417C383.519 522.1 375.028 522.541 369.478 520.184C352.623 512.788 336.63 503.57 321.782 492.692C320.994 492.135 320.348 491.401 319.895 490.549C319.442 489.697 319.195 488.75 319.174 487.786V477.631L319.224 477.639Z" fill="#5F98ED"/>
</g>
<g style="mix-blend-mode:overlay" opacity="0.2">
<path d="M388.577 509.776L389.421 509.269C391.838 507.818 393.077 505.691 393.085 503.564V513.314H393.039C393.039 515.441 391.791 517.544 389.367 519.003C389.096 519.164 388.809 519.333 388.53 519.51C387.913 519.869 387.268 520.174 386.602 520.421V510.695C387.285 510.45 387.946 510.143 388.577 509.776Z" fill="#5F98ED"/>
</g>
<path d="M378.032 523.013C374.959 523.049 371.909 522.481 369.056 521.341C352.076 513.87 335.965 504.561 321.009 493.58C320.121 492.935 319.386 492.103 318.853 491.142C318.321 490.182 318.005 489.117 317.928 488.021C317.894 487.916 317.878 487.806 317.878 487.695V477.539C317.878 477.356 317.919 477.175 317.998 477.01C318.078 476.845 318.194 476.7 318.337 476.586C318.461 476.493 318.599 476.423 318.746 476.377C318.929 476.327 319.121 476.32 319.306 476.359C319.492 476.397 319.666 476.478 319.814 476.596C319.962 476.714 320.08 476.866 320.159 477.038C320.237 477.211 320.274 477.4 320.266 477.589C320.286 478.382 320.493 479.159 320.868 479.858C321.244 480.556 321.778 481.156 322.429 481.61C337.24 492.464 353.195 501.661 370.008 509.036C375.135 511.209 383.234 510.883 387.668 508.317L388.587 507.782C390.666 506.587 391.877 504.848 391.927 503.017V502.884C391.932 502.681 391.988 502.482 392.09 502.306C392.192 502.131 392.337 501.984 392.511 501.88C392.686 501.775 392.883 501.717 393.086 501.71C393.289 501.703 393.491 501.747 393.672 501.839C393.748 501.876 393.818 501.924 393.881 501.981C394.033 502.087 394.158 502.228 394.245 502.393C394.332 502.557 394.379 502.74 394.382 502.926V513.04C394.383 513.18 394.357 513.319 394.306 513.45C394.131 516.041 392.503 518.407 389.772 519.978L388.871 520.496C386.04 522.168 382.032 523.013 378.032 523.013ZM320.274 487.428C320.301 487.529 320.315 487.633 320.316 487.737C320.339 488.521 320.545 489.288 320.918 489.978C321.29 490.667 321.819 491.26 322.462 491.708C337.264 502.57 353.207 511.78 370.008 519.176C375.135 521.349 383.226 521.023 387.668 518.457L388.578 517.93C390.691 516.71 391.918 514.938 391.918 513.065C391.92 512.946 391.94 512.828 391.977 512.714V508.2C391.317 508.85 390.576 509.412 389.772 509.872L388.854 510.399C383.777 513.349 374.892 513.742 369.047 511.235C352.068 503.763 335.957 494.454 321.001 483.474C320.742 483.265 320.492 483.048 320.266 482.83L320.274 487.428Z" fill="#93D0FF"/>
<path d="M319.176 426.983C319.126 424.703 320.459 422.423 323.109 420.854C323.4 420.693 323.708 420.507 324.008 420.329C328.666 417.59 337.174 417.15 342.715 419.54C359.574 427.061 375.571 436.442 390.418 447.515C391.217 448.092 391.87 448.855 392.324 449.739C392.777 450.623 393.018 451.604 393.026 452.602H393.076V503.397C393.209 505.763 391.867 508.153 389.134 509.755L388.226 510.29C383.56 513.036 375.069 513.477 369.52 511.078C352.665 503.554 336.671 494.173 321.825 483.103C321.025 482.527 320.371 481.765 319.917 480.88C319.464 479.996 319.224 479.014 319.217 478.017V426.983H319.176Z" fill="white"/>
<path d="M390.588 448.243C391.336 448.815 391.948 449.569 392.373 450.445C392.797 451.32 393.022 452.291 393.03 453.279H393.076V503.565C393.201 505.906 391.945 508.273 389.387 509.859L388.536 510.387C387.918 510.766 387.271 511.086 386.602 511.344V445.214C387.889 446.246 389.309 447.203 390.588 448.243Z" fill="#CEE7FD"/>
<path d="M378.034 513.936C374.958 513.972 371.904 513.403 369.047 512.261C352.063 504.776 335.947 495.45 320.986 484.45C320.078 483.791 319.329 482.937 318.793 481.95C318.257 480.964 317.947 479.869 317.888 478.747C317.875 478.65 317.875 478.551 317.888 478.454V428.083C317.875 427.983 317.875 427.881 317.888 427.781C317.954 425.102 319.558 422.639 322.431 420.99L323.325 420.479C328.42 417.523 337.307 417.129 343.154 419.641C360.143 427.128 376.262 436.46 391.223 447.469C392.122 448.123 392.865 448.968 393.399 449.944C393.934 450.92 394.246 452.002 394.313 453.113C394.349 453.222 394.368 453.335 394.372 453.448V503.627C394.385 503.727 394.385 503.828 394.372 503.929C394.372 506.675 392.701 509.28 389.82 510.946L388.901 511.474C386.036 513.09 382.035 513.936 378.034 513.936ZM320.251 478.236C320.264 478.339 320.264 478.443 320.251 478.546C320.263 479.347 320.465 480.133 320.842 480.84C321.218 481.546 321.757 482.153 322.415 482.608C337.229 493.472 353.186 502.677 369.999 510.059C375.127 512.236 383.229 511.909 387.665 509.338L388.583 508.802C390.822 507.513 392.041 505.629 391.924 503.644C391.915 503.508 391.932 503.371 391.974 503.242V453.75C391.937 453.64 391.92 453.523 391.924 453.407C391.911 452.607 391.708 451.822 391.332 451.117C390.956 450.412 390.417 449.808 389.761 449.353C374.944 438.458 358.979 429.227 342.152 421.827C337.032 419.65 328.93 419.976 324.494 422.547L323.567 423.083C321.421 424.331 320.226 426.148 320.226 428.049C320.239 428.158 320.239 428.267 320.226 428.376L320.251 478.236Z" fill="#93D0FF"/>
<path d="M393.085 443.121H393.035C393.01 442.151 392.761 441.2 392.309 440.344C391.856 439.487 391.212 438.749 390.427 438.188C375.581 427.211 359.587 417.909 342.731 410.45C337.173 408.08 328.674 408.517 324.016 411.232L323.116 411.753C320.533 413.266 319.199 415.46 319.174 417.637V417.595V427.832C319.194 428.805 319.439 429.76 319.89 430.62C320.342 431.479 320.987 432.22 321.774 432.783C336.622 443.765 352.622 453.067 369.487 460.52C375.036 462.899 383.51 462.462 388.185 459.747C388.485 459.57 388.777 459.386 389.085 459.217C391.693 457.705 393.018 455.502 393.035 453.275H393.085V443.121Z" fill="#5F98ED"/>
<g style="mix-blend-mode:overlay" opacity="0.3">
<path d="M393.085 442.735H393.035C393.035 444.999 391.685 447.255 389.085 448.79C388.777 448.961 388.485 449.15 388.185 449.33C383.51 452.101 375.028 452.547 369.478 450.128C352.621 442.519 336.626 433.028 321.782 421.824C320.989 421.247 320.339 420.484 319.886 419.599C319.432 418.713 319.189 417.73 319.174 416.73V416.687V427.134C319.194 428.126 319.439 429.1 319.89 429.978C320.342 430.855 320.987 431.611 321.774 432.185C336.622 443.392 352.622 452.883 369.487 460.489C375.036 462.916 383.51 462.47 388.185 459.7C388.485 459.519 388.777 459.331 389.085 459.159C391.693 457.615 393.018 455.368 393.035 453.095H393.085V442.735Z" fill="#5F98ED"/>
</g>
<g style="mix-blend-mode:overlay" opacity="0.2">
<path d="M377.469 444.787L377.656 436.447C377.282 436.238 378.293 433.453 379.661 430.141C383.545 432.644 387.31 435.196 390.887 437.831C391.211 438.084 391.513 438.363 391.788 438.665L380.936 444.82C380.397 445.085 379.801 445.219 379.198 445.214C378.595 445.208 378.003 445.062 377.469 444.787ZM339.49 421.034L351.243 414.362C348.286 412.952 345.294 411.559 342.243 410.191C340.623 409.546 338.923 409.114 337.187 408.907C336.405 410.959 335.946 412.46 336.21 412.61L336.031 420.992C336.563 421.268 337.154 421.416 337.755 421.423C338.357 421.43 338.951 421.297 339.49 421.034Z" fill="#5F98ED"/>
</g>
<g style="mix-blend-mode:overlay" opacity="0.2">
<path d="M386.602 450.314C387.271 450.035 387.921 449.702 388.547 449.316C388.824 449.134 389.095 448.943 389.38 448.77C391.804 447.2 393.031 444.919 393.039 442.62H393.085V453.115H393.039C393.039 455.414 391.796 457.686 389.38 459.247C389.095 459.421 388.824 459.612 388.547 459.794C387.933 460.177 387.293 460.505 386.632 460.774L386.602 450.314Z" fill="#5F98ED"/>
</g>
<path d="M378.067 463.364C374.996 463.41 371.946 462.852 369.086 461.722C352.091 454.199 335.966 444.817 321.002 433.746C320.113 433.095 319.376 432.256 318.844 431.287C318.311 430.317 317.996 429.243 317.92 428.137C317.893 428.033 317.879 427.925 317.878 427.817V417.56C317.876 417.434 317.896 417.309 317.936 417.189C318.112 414.596 319.741 412.221 322.464 410.629L323.3 410.132C328.42 407.143 337.317 406.764 343.173 409.248C360.161 416.779 376.28 426.163 391.241 437.233C392.127 437.881 392.862 438.716 393.394 439.681C393.926 440.645 394.244 441.715 394.323 442.816C394.363 442.927 394.383 443.044 394.382 443.161V453.351C394.382 453.492 394.357 453.632 394.306 453.764C394.139 456.375 392.51 458.75 389.77 460.341L389.302 460.611L388.851 460.88C386.061 462.522 382.068 463.364 378.067 463.364ZM320.276 427.531C320.288 427.629 320.288 427.728 320.276 427.826C320.298 428.615 320.504 429.388 320.877 430.083C321.25 430.778 321.779 431.375 322.422 431.826C337.241 442.781 353.209 452.061 370.039 459.499C375.16 461.689 383.254 461.36 387.699 458.783L388.116 458.531L388.626 458.236C390.731 457.015 391.967 455.221 391.967 453.334C391.966 453.211 391.985 453.089 392.026 452.972V443.523C391.992 443.409 391.975 443.289 391.976 443.17C391.955 442.377 391.751 441.601 391.378 440.903C391.005 440.205 390.474 439.606 389.829 439.153C375.008 428.199 359.04 418.917 342.212 411.471C337.083 409.282 328.98 409.61 324.544 412.196L323.625 412.726C321.529 413.956 320.284 415.741 320.284 417.611C320.283 417.716 320.269 417.82 320.242 417.922L320.276 427.531Z" fill="#93D0FF"/>
<path d="M329.547 418.122V392.23C329.547 383.696 332.842 376.873 338.658 373.503C344.473 370.132 351.986 370.655 359.333 374.939C372.439 382.559 382.711 400.465 382.711 415.706V441.44C382.711 442.411 382.101 443.382 380.833 444.121C379.429 444.839 377.877 445.214 376.302 445.214C374.728 445.214 373.176 444.839 371.772 444.121C370.503 443.382 369.877 442.411 369.894 441.448V415.714C369.894 405.022 362.126 391.475 352.925 386.12C349.696 384.244 346.755 383.705 345.058 384.693C343.361 385.68 342.356 388.495 342.356 392.238V418.122C342.278 418.661 342.066 419.171 341.741 419.606C341.416 420.041 340.987 420.387 340.495 420.612C339.091 421.331 337.539 421.706 335.964 421.706C334.39 421.706 332.837 421.331 331.434 420.612C330.942 420.387 330.514 420.041 330.189 419.606C329.863 419.171 329.651 418.66 329.572 418.122H329.547Z" fill="white"/>
<path d="M355.279 375.63C349.476 372.307 343.565 371.477 338.699 373.337C344.502 370.164 351.922 370.712 359.184 374.924C372.374 382.549 382.711 400.466 382.711 415.717V441.468C382.711 442.439 382.098 443.411 380.821 444.151C379.5 444.849 378.029 445.214 376.535 445.214V412.445C376.502 398.689 367.151 382.524 355.279 375.63ZM336.095 400.458V421.715C337.52 421.688 338.92 421.33 340.183 420.668C340.678 420.443 341.109 420.097 341.437 419.661C341.764 419.226 341.977 418.715 342.056 418.176V392.26C342.056 388.513 343.076 385.697 344.775 384.709C345.87 384.078 347.511 384.136 349.385 384.709C349.285 384.667 349.211 384.609 349.111 384.576C334.346 378.853 336.095 396.288 336.095 400.458Z" fill="#CEE7FD"/>
<path d="M376.423 446.509C374.625 446.543 372.849 446.107 371.27 445.244C370.559 444.907 369.953 444.382 369.516 443.726C369.079 443.069 368.827 442.305 368.788 441.516V415.722C368.788 405.38 361.253 392.266 352.336 387.091C349.557 385.477 346.918 384.911 345.628 385.668C344.337 386.425 343.51 388.996 343.51 392.191V418.127C343.522 418.226 343.522 418.327 343.51 418.426C343.382 419.13 343.09 419.792 342.659 420.361C342.228 420.929 341.669 421.387 341.029 421.696C339.438 422.524 337.674 422.957 335.884 422.957C334.093 422.957 332.329 422.524 330.739 421.696C330.089 421.385 329.523 420.919 329.091 420.339C328.659 419.76 328.373 419.083 328.257 418.368C328.253 418.302 328.253 418.235 328.257 418.168C328.249 418.091 328.249 418.013 328.257 417.935V392.175C328.257 383.18 331.806 375.966 337.993 372.372C344.18 368.777 352.187 369.301 359.946 373.803C373.437 381.641 384.008 400.046 384.008 415.706V441.5C383.968 442.288 383.716 443.05 383.279 443.705C382.842 444.36 382.236 444.884 381.526 445.219C379.963 446.081 378.206 446.525 376.423 446.509ZM347.116 382.93C349.397 383.063 351.607 383.779 353.535 385.011C363.089 390.56 371.17 404.614 371.17 415.706V441.5C371.17 442.074 371.634 442.665 372.461 443.164C373.689 443.779 375.042 444.1 376.415 444.1C377.787 444.1 379.14 443.779 380.368 443.164C381.196 442.681 381.667 442.082 381.659 441.5V415.706C381.659 400.82 371.609 383.321 358.788 375.874C351.782 371.806 344.643 371.281 339.201 374.435C333.758 377.589 330.656 384.062 330.656 392.175V418.069C330.73 418.412 330.885 418.733 331.109 419.004C331.332 419.274 331.616 419.487 331.938 419.625C333.167 420.242 334.522 420.563 335.896 420.563C337.27 420.563 338.625 420.242 339.854 419.625C340.177 419.487 340.463 419.273 340.686 419.001C340.909 418.728 341.064 418.406 341.136 418.06C341.136 418.06 341.136 417.977 341.136 417.935V392.141C341.136 387.898 342.335 384.769 344.445 383.546C345.257 383.116 346.166 382.904 347.083 382.93H347.116Z" fill="#93D0FF"/>
<path d="M346.412 464.076C343.545 462.421 341.217 463.77 341.217 467.023C341.314 469.137 342.038 471.176 343.3 472.891C343.822 473.621 344.115 474.484 344.144 475.375V479.985C344.187 480.751 344.414 481.496 344.805 482.161C345.196 482.825 345.741 483.389 346.396 483.809C347.635 484.521 348.647 483.941 348.647 482.543V477.932C348.602 477.63 348.66 477.321 348.813 477.054C348.965 476.788 349.204 476.578 349.491 476.459C350.823 476.07 351.591 474.803 351.591 472.958C351.501 471.182 350.985 469.451 350.086 467.908C349.186 466.365 347.927 465.052 346.412 464.076Z" fill="#5F98ED"/>
<g style="mix-blend-mode:overlay" opacity="0.3">
<path d="M348.554 481.521C347.755 480.665 347.281 479.566 347.211 478.408V473.71C347.18 472.803 346.881 471.924 346.35 471.18C345.054 469.435 344.312 467.355 344.216 465.199C344.209 464.592 344.317 463.989 344.534 463.42C344.296 463.378 344.054 463.361 343.812 463.369C344.678 463.361 345.529 463.595 346.264 464.044C347.813 465.03 349.103 466.36 350.029 467.927C350.955 469.494 351.49 471.253 351.592 473.061C351.592 474.933 350.808 476.232 349.449 476.628C349.156 476.75 348.913 476.964 348.757 477.235C348.601 477.507 348.542 477.822 348.588 478.13L348.554 481.521Z" fill="#5F98ED"/>
</g>
<path d="M347.427 485.409C346.85 485.397 346.285 485.235 345.791 484.941C344.941 484.415 344.233 483.694 343.73 482.839C343.226 481.985 342.943 481.023 342.903 480.036V475.374C342.866 474.728 342.638 474.105 342.247 473.583C340.832 471.646 340.024 469.345 339.921 466.963C339.921 464.921 340.688 463.364 342.077 462.577C343.466 461.791 345.221 461.925 347.01 462.946C348.731 464.027 350.162 465.498 351.185 467.236C352.208 468.973 352.792 470.926 352.888 472.93C352.888 475.299 351.798 477.04 349.957 477.601C349.92 477.717 349.902 477.839 349.906 477.961V482.622C349.944 483.115 349.845 483.609 349.62 484.051C349.395 484.493 349.052 484.867 348.628 485.133C348.26 485.328 347.845 485.423 347.427 485.409ZM344.019 464.486C343.755 464.483 343.494 464.546 343.261 464.67C342.921 464.945 342.657 465.301 342.495 465.703C342.332 466.106 342.277 466.542 342.332 466.971C342.431 468.867 343.088 470.693 344.224 472.227C344.896 473.151 345.275 474.248 345.314 475.383V480.044C345.363 480.612 345.541 481.161 345.836 481.651C346.131 482.141 346.535 482.559 347.018 482.873C347.137 482.953 347.275 483.002 347.419 483.016C347.428 482.887 347.428 482.759 347.419 482.631V477.969C347.369 477.4 347.514 476.831 347.83 476.352C348.147 475.874 348.616 475.512 349.165 475.324C350.239 475.014 350.4 473.65 350.4 472.939C350.3 471.358 349.827 469.822 349.02 468.451C348.213 467.081 347.093 465.912 345.749 465.038C345.241 464.714 344.658 464.521 344.053 464.477L344.019 464.486Z" fill="#93D0FF"/>
<path d="M39.3538 63.115L20.4054 74.0251C20.0258 74.3023 19.7257 74.6741 19.5348 75.1036C19.3439 75.5331 19.269 76.0051 19.3176 76.4725V172.357C19.3176 216.835 84.9847 289.17 87.8454 292.226C88.2843 292.713 88.794 293.131 89.3574 293.466C89.8115 293.749 90.3258 293.92 90.8585 293.967C92.675 294.076 121.032 295.577 140.677 284.416L159.821 273.365C170.296 267.339 178.237 257.69 178.237 242.234V146.338C178.125 145.023 177.713 143.75 177.032 142.619C176.351 141.487 175.42 140.527 174.31 139.812C148.096 124.681 123.665 103.264 110.525 83.9018C109.187 81.9438 107.338 80.8887 106 81.3021C92.8708 85.479 68.451 78.6915 42.0188 63.4304C41.6589 63.1271 41.2192 62.9339 40.7523 62.8741C40.2855 62.8143 39.8112 62.8904 39.3865 63.0932L39.3538 63.115Z" fill="#AEF2CA"/>
<path d="M88.6249 294.656L88.6237 294.656C87.9457 294.251 87.3312 293.747 86.8002 293.163L86.7998 293.162C85.3932 291.625 68.1741 272.68 51.3091 248.481C42.8765 236.381 34.5349 222.971 28.3025 209.77C22.0689 196.565 17.9524 183.583 17.9551 172.335V76.4726H17.9555L17.9547 76.4614C17.9045 75.7459 18.0468 75.03 18.3669 74.3881C18.6863 73.7474 19.1711 73.2038 19.7711 72.8135L38.635 61.9597H38.6574H38.695L38.7286 61.943C39.3744 61.6237 40.0973 61.4934 40.8139 61.5673C41.5305 61.6412 42.2116 61.9162 42.7787 62.3606L42.7876 62.3676L42.7975 62.3733C55.7448 69.8456 68.2336 75.2904 79.0818 78.3568C89.9236 81.4214 99.1496 82.117 105.558 80.0632C107.493 79.4637 109.952 80.6892 111.663 83.2622L111.664 83.2636C124.734 102.465 148.977 123.722 174.999 138.785C176.319 139.623 177.426 140.758 178.23 142.099C179.034 143.44 179.514 144.949 179.631 146.508V242.386C179.631 256.467 173.235 267.369 160.622 274.662L160.621 274.661L160.61 274.669L160.507 274.741L141.374 285.786L141.152 285.892L141.151 285.892L141.143 285.897C125.757 294.371 105.17 295.46 95.753 295.46C93.2345 295.46 91.5202 295.378 90.9186 295.349C90.8301 295.345 90.7657 295.342 90.7264 295.34C89.9822 295.279 89.2626 295.045 88.6249 294.656ZM39.667 64.4686L39.7433 64.5067L21.153 75.234C21.1527 75.2341 21.1524 75.2343 21.1521 75.2345C21.016 75.3115 20.9114 75.4715 20.8422 75.6689C20.7708 75.8725 20.7283 76.1391 20.7339 76.4632V172.357C20.7339 183.376 24.8247 196.13 30.9907 209.099C37.1581 222.071 45.4089 235.273 53.7446 247.194C70.4102 271.026 87.4246 289.747 88.835 291.279C89.1607 291.654 89.5377 291.982 89.955 292.253L89.957 292.254C90.2247 292.422 90.5269 292.526 90.8409 292.56L90.8409 292.56L90.8481 292.561C91.4571 292.599 98.8658 293.016 108.545 292.046C118.219 291.078 130.178 288.723 139.881 283.21L140.082 283.115L140.082 283.116L140.094 283.109L158.923 272.232L158.925 272.23L159.031 272.166C159.031 272.166 159.032 272.166 159.032 272.166C170.783 265.405 176.755 255.336 176.755 242.245V146.338V146.329L176.754 146.32C176.631 145.26 176.279 144.239 175.722 143.329C175.165 142.419 174.417 141.641 173.529 141.049L173.529 141.049L173.52 141.043C147.146 125.824 122.53 104.236 109.276 84.7145L109.274 84.7109C108.72 83.942 108.133 83.3836 107.617 83.0394C107.359 82.8675 107.115 82.7464 106.898 82.6808C106.688 82.617 106.483 82.5998 106.316 82.6625C99.6008 84.8221 90.0101 84.1814 78.7401 81.0644C67.4745 77.9487 54.5525 72.3646 41.1889 64.6642C40.899 64.475 40.6535 64.3607 40.452 64.3061C40.2545 64.2527 40.0756 64.2506 39.9415 64.3222L39.667 64.4686Z" fill="#6FCF97" stroke="#93D0FF" stroke-width="0.321364"/>
<path d="M89.3145 209.025L68.4951 173.01L74.2384 169.714L89.3037 195.798L111.94 182.756L117.683 192.687L89.3145 209.025Z" fill="white"/>
<path d="M89.3143 209.025L68.4949 173.01L74.2382 169.747L89.3034 195.853L108.513 184.714C103.825 175.827 96.9394 167.941 89.2599 163.503C75.1192 155.334 63.6436 161.948 63.6436 178.253C63.6436 194.558 75.1084 214.431 89.2599 222.6C103.411 230.769 114.887 224.167 114.887 207.84C114.831 203.62 114.176 199.431 112.94 195.396L89.3143 209.025Z" fill="#6FCF97"/>
<path d="M175.123 138.515L175.084 138.489L175.044 138.466C148.971 123.417 124.732 102.141 111.75 83.0128L111.748 83.0089C110.975 81.8783 110.02 80.9537 108.993 80.3648C107.987 79.7881 106.749 79.4493 105.541 79.8222L105.529 79.826C99.3825 81.7817 90.3392 81.2196 79.3854 78.164C68.5112 75.1307 55.9518 69.6958 42.8544 62.1432C42.2965 61.7078 41.631 61.4298 40.9273 61.3396C40.1742 61.2431 39.4093 61.3659 38.7243 61.6931L38.6723 61.718L38.6224 61.7467L19.6739 72.6568L21.0681 75.3106C21.2289 75.2339 21.4085 75.2052 21.5852 75.228C21.762 75.2509 21.9284 75.3242 22.0644 75.4393L22.1674 75.5264L22.2844 75.5938C35.5871 83.2547 48.4163 88.8264 59.6125 91.9554C70.7517 95.0686 80.4776 95.8214 87.4605 93.5975C87.591 93.559 87.9464 93.5443 88.5321 93.8815C89.1005 94.2088 89.7384 94.7929 90.2973 95.6177L90.2981 95.6187C103.591 115.195 128.208 136.755 154.551 151.965C155.453 152.555 156.21 153.342 156.765 154.266C157.315 155.184 157.652 156.214 157.751 157.279V253.086C157.751 260.344 153.571 268.039 147.873 274.786C143.249 280.263 137.76 284.952 133.106 288.078L130.05 289.977L131.582 292.556C132.579 291.99 133.635 291.335 134.732 290.6L160.489 274.595C171.315 268.359 179.634 258.268 179.634 242.176V146.27V146.209L179.629 146.149C179.506 144.618 179.036 143.136 178.255 141.813C177.474 140.49 176.403 139.363 175.123 138.515Z" fill="white" stroke="#6FCF97" stroke-width="3"/>
<path d="M116.803 417.28L115.71 416.657L116.803 416.034C118.071 415.297 118.071 414.111 116.803 413.378L42.8488 370.666C41.7962 370.126 40.588 369.972 39.4334 370.229L34.7556 371.218V373.721L31.75 374.355L28.5804 372.53L24.9245 373.3C24.5109 373.384 24.1128 373.532 23.7441 373.737C23.3177 373.95 22.9905 374.321 22.8315 374.77L21.0992 381.071C21.0828 381.174 21.0828 381.279 21.0992 381.382V385.312C21.1334 385.587 21.237 385.85 21.4005 386.074C21.564 386.299 21.7818 386.478 22.0336 386.596L95.9661 429.308C96.68 429.667 97.4679 429.854 98.2668 429.854C99.0657 429.854 99.8535 429.667 100.567 429.308L116.803 419.936C118.071 419.198 118.071 418.007 116.803 417.28Z" fill="white"/>
<path d="M116.803 417.28L115.71 416.657L116.803 416.034L100.567 425.401C99.854 425.762 99.0659 425.95 98.2665 425.95C97.4672 425.95 96.679 425.762 95.9659 425.401L21.9897 382.694C21.252 382.268 20.8967 381.666 21.0771 381.054C21.0607 381.158 21.0607 381.263 21.0771 381.366V385.295C21.1113 385.571 21.215 385.833 21.3784 386.058C21.5419 386.283 21.7597 386.462 22.0115 386.579L95.9659 429.308C96.6798 429.667 97.4676 429.853 98.2665 429.853C99.0654 429.853 99.8533 429.667 100.567 429.308L116.803 419.936C118.071 419.198 118.071 418.007 116.803 417.28Z" fill="#CEE7FD"/>
<path d="M89.4577 402.815L34.7338 371.218V373.721L31.7282 374.355L28.5586 372.53L85.2389 405.252C85.8931 405.582 86.6156 405.754 87.3483 405.754C88.081 405.754 88.8035 405.582 89.4577 405.252C90.6217 404.575 90.6217 403.487 89.4577 402.815Z" fill="#CEE7FD"/>
<g style="mix-blend-mode:overlay" opacity="0.25">
<path d="M89.4578 402.815L34.7339 371.218V373.721L89.3813 405.274H89.4469C90.6218 404.575 90.6218 403.487 89.4578 402.815Z" fill="black"/>
</g>
<path d="M98.2664 430.499C97.3522 430.517 96.4488 430.299 95.6434 429.865L21.6672 387.148C21.3479 386.988 21.0696 386.757 20.8536 386.473C20.6376 386.189 20.4897 385.859 20.4213 385.508C20.4037 385.446 20.3945 385.382 20.3939 385.317V381.388C20.3882 381.341 20.3882 381.293 20.3939 381.246C20.3937 381.133 20.4084 381.021 20.4376 380.912L22.1809 374.579C22.3842 373.962 22.8219 373.45 23.3995 373.152C23.8271 372.916 24.2876 372.745 24.7657 372.644L28.4216 371.874C28.5781 371.839 28.742 371.864 28.8807 371.945L31.8371 373.65L34.0885 373.174V371.196C34.0882 371.048 34.1392 370.904 34.2329 370.79C34.3266 370.675 34.4571 370.597 34.6022 370.568L39.28 369.578C40.5885 369.282 41.9599 369.46 43.1491 370.081L117.125 412.832C117.503 412.981 117.828 413.241 118.056 413.577C118.285 413.913 118.407 414.311 118.407 414.717C118.407 415.124 118.285 415.521 118.056 415.857C117.828 416.193 117.503 416.453 117.125 416.603L117.021 416.668L117.125 416.728C117.503 416.879 117.827 417.139 118.055 417.476C118.283 417.813 118.405 418.21 118.405 418.616C118.405 419.023 118.283 419.42 118.055 419.757C117.827 420.093 117.503 420.354 117.125 420.504L100.884 429.876C100.079 430.305 99.178 430.52 98.2664 430.499ZM21.6891 385.18C21.6918 385.215 21.6918 385.25 21.6891 385.284C21.7237 385.45 21.7979 385.604 21.9055 385.735C22.0131 385.865 22.1507 385.967 22.3066 386.033L96.2773 428.745C96.8922 429.05 97.5692 429.209 98.2555 429.209C98.9419 429.209 99.6189 429.05 100.234 428.745L116.48 419.39C116.879 419.16 117.109 418.876 117.109 418.619C117.109 418.362 116.879 418.073 116.48 417.854L115.387 417.231C115.295 417.173 115.219 417.092 115.166 416.997C115.113 416.901 115.085 416.794 115.085 416.684C115.085 416.575 115.113 416.468 115.166 416.372C115.219 416.277 115.295 416.196 115.387 416.138L116.48 415.515C116.879 415.286 117.109 415.007 117.109 414.75C117.109 414.493 116.879 414.204 116.48 413.985L42.4988 371.229C41.5881 370.766 40.5441 370.636 39.5478 370.863L35.3837 371.748V373.721C35.3833 373.869 35.3321 374.013 35.2387 374.128C35.1452 374.244 35.0151 374.323 34.87 374.355L31.8589 374.989C31.7041 375.02 31.5431 374.995 31.4054 374.917L28.449 373.212L25.0335 373.934C24.6874 374.006 24.3541 374.129 24.0444 374.3C23.7664 374.43 23.5478 374.66 23.4323 374.945L21.7 381.246C21.7 381.246 21.7 381.317 21.7 381.36C21.7051 381.419 21.7051 381.477 21.7 381.535L21.6891 385.18Z" fill="#93D0FF"/>
<path d="M112.705 410.93L116.77 408.58C117.863 407.968 117.94 406.985 117.011 406.302L106.743 398.744C106.093 398.32 105.333 398.094 104.557 398.094C103.764 398.051 102.974 398.224 102.272 398.596L73.7465 415.072C73.5038 415.178 73.294 415.346 73.1391 415.561C72.9843 415.775 72.8901 416.028 72.8667 416.291V424.089C72.8927 424.349 72.9866 424.598 73.1392 424.81C73.2917 425.022 73.4974 425.19 73.7356 425.297C73.9483 425.419 74.1737 425.518 74.4078 425.592L87.1133 431.374C87.7426 431.638 88.4217 431.763 89.1038 431.739C89.7858 431.715 90.4547 431.544 91.0643 431.237L116.792 416.379C117.885 415.767 117.962 414.783 117.033 414.105L112.705 410.93Z" fill="#3199F0"/>
<g style="mix-blend-mode:overlay" opacity="0.3">
<path d="M112.705 410.93L116.77 408.58L91.0424 423.439C90.4328 423.746 89.764 423.917 89.0819 423.94C88.3998 423.964 87.7207 423.839 87.0914 423.575L74.3859 417.821C74.1518 417.747 73.9264 417.648 73.7137 417.526C73.4738 417.419 73.2664 417.25 73.1129 417.037C72.9593 416.824 72.8649 416.574 72.8394 416.313V424.111C72.8653 424.371 72.9593 424.619 73.1118 424.831C73.2644 425.043 73.4701 425.211 73.7082 425.319C73.9209 425.441 74.1463 425.54 74.3804 425.614L87.1133 431.374C87.7426 431.638 88.4216 431.762 89.1037 431.739C89.7858 431.715 90.4547 431.544 91.0643 431.237L116.792 416.378C117.885 415.766 117.962 414.783 117.033 414.105L112.705 410.93Z" fill="black"/>
</g>
<path d="M88.9328 432.39C88.2077 432.396 87.4892 432.251 86.8234 431.964L74.1561 426.226C73.8896 426.141 73.6331 426.028 73.3911 425.887C73.0678 425.731 72.7891 425.496 72.5808 425.204C72.3725 424.912 72.2415 424.572 72.1998 424.215C72.1971 424.182 72.1971 424.149 72.1998 424.117V416.313C72.2214 415.94 72.3421 415.579 72.5496 415.267C72.7571 414.956 73.0438 414.706 73.3802 414.542H73.4129L101.961 398.061C102.769 397.633 103.676 397.429 104.589 397.471C105.49 397.483 106.368 397.755 107.119 398.252L117.388 405.81C117.668 405.988 117.897 406.236 118.054 406.529C118.211 406.822 118.29 407.15 118.284 407.482C118.245 407.842 118.114 408.186 117.905 408.482C117.695 408.777 117.414 409.014 117.087 409.171L113.89 410.996L117.399 413.581C117.679 413.759 117.908 414.007 118.065 414.3C118.222 414.593 118.301 414.921 118.295 415.253C118.256 415.613 118.125 415.957 117.916 416.253C117.706 416.548 117.425 416.785 117.098 416.941L91.3701 431.8C90.6211 432.201 89.7822 432.404 88.9328 432.39ZM73.4895 424.046C73.4895 424.046 73.4895 424.089 73.4895 424.117C73.4895 424.324 73.6917 424.57 74.0359 424.767C74.2095 424.864 74.3926 424.943 74.5824 425.002L74.6535 425.029L87.359 430.784C87.8945 431.006 88.4711 431.111 89.0506 431.093C89.63 431.075 90.199 430.934 90.7198 430.68L116.448 415.821C116.781 415.63 116.994 415.389 116.994 415.182C116.994 414.974 116.77 414.734 116.628 414.635L112.316 411.46C112.231 411.398 112.163 411.315 112.117 411.22C112.071 411.125 112.05 411.019 112.054 410.914C112.059 410.803 112.091 410.696 112.147 410.6C112.203 410.505 112.282 410.425 112.377 410.367L116.448 408.018C116.781 407.826 116.994 407.591 116.994 407.384C116.994 407.176 116.77 406.93 116.628 406.837L106.36 399.279C105.82 398.932 105.193 398.743 104.551 398.733C103.879 398.698 103.21 398.842 102.611 399.148L74.0851 415.619L74.0359 415.652C73.6917 415.843 73.4895 416.089 73.4895 416.308V424.046Z" fill="#93D0FF"/>
<path d="M143.4 407.165C128.902 398.793 105.382 398.804 90.8672 407.165C83.621 411.351 79.9869 416.838 79.9814 422.319V432.702C79.9814 438.194 83.5827 443.691 90.8399 447.883C105.338 456.255 128.858 456.244 143.367 447.883C150.624 443.697 154.258 438.205 154.264 432.713V422.33C154.264 416.843 150.646 411.351 143.4 407.165ZM135.252 432.806C130.722 435.412 123.388 435.418 118.858 432.806C114.327 430.193 114.338 425.964 118.858 423.352C123.377 420.739 130.716 420.734 135.252 423.352C139.788 425.969 139.771 430.188 135.246 432.806H135.252Z" fill="#3199F0"/>
<g style="mix-blend-mode:overlay" opacity="0.2">
<path d="M93.9167 435.735C106.715 443.117 127.476 443.112 140.285 435.735C146.684 432.035 149.892 427.188 149.903 422.351C149.914 417.515 146.712 412.657 140.312 408.963C127.514 401.575 106.759 401.575 93.944 408.963C87.5448 412.663 84.337 417.499 84.3315 422.341C84.3261 427.182 87.5175 432.035 93.9167 435.735Z" fill="black"/>
</g>
<g style="mix-blend-mode:overlay" opacity="0.3">
<path d="M143.362 437.494C128.853 445.872 105.332 445.877 90.8345 437.494C83.5828 433.303 79.9652 427.811 79.9761 422.319V432.702C79.9761 438.194 83.5774 443.691 90.8345 447.883C105.332 456.255 128.853 456.244 143.362 447.883C150.619 443.697 154.253 438.205 154.258 432.713V422.33C154.247 427.816 150.619 433.303 143.362 437.494Z" fill="black"/>
</g>
<path d="M117.071 454.806C107.448 454.806 97.8352 452.697 90.5125 448.467C83.3154 444.309 79.3426 438.751 79.3262 432.794C79.3262 432.794 79.3262 432.745 79.3262 432.723V422.34C79.3262 422.34 79.3262 422.291 79.3262 422.264C79.3699 416.329 83.3482 410.788 90.5398 406.624C105.213 398.159 129.066 398.148 143.717 406.624C150.942 410.788 154.914 416.378 154.909 422.351V432.734C154.909 438.707 150.914 444.292 143.684 448.467C136.345 452.686 126.705 454.806 117.071 454.806ZM80.6213 432.647V432.723C80.6213 438.221 84.3483 443.412 91.1628 447.347C105.459 455.599 128.727 455.593 143.04 447.347C149.849 443.418 153.608 438.232 153.608 432.74V422.357C153.608 416.892 149.876 411.679 143.067 407.749C128.777 399.492 105.502 399.503 91.1901 407.749C84.3811 411.679 80.6322 416.865 80.6213 422.34V432.652V432.647ZM127.072 435.379C124.108 435.438 121.18 434.738 118.563 433.346C116.169 431.964 114.852 430.067 114.852 428.062C114.852 426.056 116.175 424.149 118.574 422.767C123.268 420.034 130.908 420.034 135.602 422.767C137.996 424.149 139.313 426.045 139.313 428.056C139.313 430.067 137.996 431.964 135.597 433.346C132.967 434.749 130.024 435.456 127.044 435.401L127.072 435.379ZM127.072 422.007C124.331 421.954 121.623 422.601 119.202 423.887C117.219 425.034 116.126 426.515 116.126 428.062C116.126 429.608 117.219 431.084 119.191 432.226C123.52 434.729 130.58 434.723 134.93 432.226C136.908 431.084 137.996 429.603 137.996 428.056C137.996 426.51 136.903 425.029 134.935 423.892C132.514 422.612 129.805 421.97 127.066 422.029L127.072 422.007Z" fill="#93D0FF"/>
<path d="M118.864 432.806C118.962 432.866 119.077 432.904 119.175 432.959C123.618 430.56 130.498 430.56 134.935 432.959C135.034 432.904 135.149 432.866 135.247 432.817C139.772 430.199 139.772 425.964 135.247 423.357C130.722 420.751 123.394 420.745 118.853 423.357C114.312 425.969 114.344 430.199 118.864 432.806Z" fill="#3199F0"/>
<g style="mix-blend-mode:overlay" opacity="0.3">
<path d="M118.864 432.806C118.962 432.866 119.077 432.904 119.175 432.959C123.618 430.56 130.498 430.56 134.935 432.959C135.034 432.904 135.149 432.866 135.247 432.817C139.772 430.199 139.772 425.964 135.247 423.357C130.722 420.751 123.394 420.745 118.853 423.357C114.312 425.969 114.344 430.199 118.864 432.806Z" fill="black"/>
</g>
<path d="M119.175 433.598C119.068 433.597 118.963 433.571 118.869 433.522L118.776 433.478C118.693 433.445 118.613 433.407 118.535 433.363C116.142 431.981 114.825 430.084 114.825 428.079C114.825 426.073 116.147 424.166 118.546 422.783C123.24 420.051 130.88 420.051 135.574 422.783C137.968 424.166 139.285 426.062 139.285 428.073C139.285 430.084 137.968 431.981 135.569 433.363C135.499 433.403 135.426 433.438 135.35 433.467L135.246 433.516C135.152 433.567 135.045 433.594 134.938 433.594C134.83 433.594 134.724 433.567 134.629 433.516C130.377 431.232 123.699 431.237 119.481 433.516C119.387 433.568 119.282 433.596 119.175 433.598ZM127.066 422.024C124.325 421.971 121.617 422.618 119.196 423.904C117.213 425.051 116.12 426.532 116.12 428.079C116.12 429.625 117.213 431.09 119.164 432.226C123.727 429.915 130.383 429.909 134.951 432.226C136.908 431.09 137.99 429.614 137.99 428.073C137.99 426.532 136.897 425.046 134.929 423.909C132.511 422.624 129.804 421.977 127.066 422.029V422.024Z" fill="#93D0FF"/>
<g style="mix-blend-mode:overlay" opacity="0.2">
<path d="M93.944 410.908C106.759 403.509 127.514 403.509 140.312 410.908C146.274 414.351 149.417 418.788 149.821 423.302C149.821 422.98 149.903 422.663 149.903 422.346C149.903 417.493 146.712 412.651 140.312 408.957C127.514 401.569 106.759 401.569 93.944 408.957C87.5448 412.657 84.337 417.493 84.3315 422.335C84.3315 422.668 84.3807 423.002 84.4081 423.335C84.8124 418.843 87.9656 414.362 93.944 410.908Z" fill="black"/>
</g>
<path d="M334.424 162.705C334.887 162.973 335.348 163.05 335.717 162.872C341.371 160.185 348.626 161.096 356.148 165.439C363.669 169.782 370.924 177.249 376.579 186.468C377.365 187.748 378.579 188.381 379.294 187.891C380.009 187.399 379.952 185.961 379.168 184.683C372.802 174.307 364.627 165.898 356.147 161.002C347.668 156.106 339.493 155.075 333.127 158.099C332.343 158.472 332.287 159.842 333.002 161.162C333.381 161.861 333.901 162.403 334.424 162.705Z" fill="#EB5757"/>
<path d="M331.171 175.325C331.788 175.681 332.398 175.69 332.767 175.264C338.1 169.174 346.841 168.745 356.148 174.119C365.455 179.493 374.197 190.015 379.531 202.265C380.122 203.628 381.319 204.588 382.198 204.412C383.079 204.237 383.314 202.995 382.723 201.635C376.674 187.745 366.739 175.799 356.148 169.684C345.558 163.569 335.623 164.042 329.575 170.951C328.983 171.627 329.216 173.14 330.1 174.334C330.428 174.775 330.8 175.11 331.171 175.325Z" fill="#EB5757"/>
<path d="M362.219 235.503C362.713 235.788 363.208 235.855 363.584 235.635C364.004 235.389 373.849 229.469 373.849 218.295C373.848 206.699 365.909 192.682 356.148 187.046C346.388 181.41 338.449 186.26 338.449 197.856C338.449 199.081 339.31 200.572 340.371 201.184C341.431 201.797 342.292 201.3 342.292 200.075C342.292 190.925 348.507 187.071 356.149 191.483C363.791 195.896 370.006 206.927 370.006 216.077C370.006 225.445 360.946 230.881 360.853 230.934C360.105 231.372 360.11 232.78 360.866 234.08C361.24 234.725 361.73 235.22 362.219 235.503Z" fill="#EB5757"/>
<path d="M350.081 228.495C354.702 231.163 365.416 227.197 366.453 216.489C366.819 212.704 365.717 207.98 363.509 203.853C361.587 200.265 358.992 197.391 356.202 195.762L356.149 195.731C353.428 194.16 350.856 193.909 348.899 195.024C346.854 196.19 345.73 198.691 345.73 202.063L345.73 203.51C345.73 207.074 343.327 208.586 340.371 206.879C337.415 205.172 335.009 200.884 335.009 197.319L335.009 196.813C335.008 182.999 343.675 176.51 354.739 182.047C360.506 184.924 366.042 190.422 370.313 197.496C374.745 204.842 377.286 213.148 377.287 220.284C377.287 226.153 375.565 230.877 372.44 233.586C371.779 234.163 371.912 235.634 372.743 236.879C373.57 238.123 374.779 238.667 375.443 238.089C379.109 234.908 381.13 229.371 381.129 222.499C381.129 214.14 378.142 204.395 372.938 195.77C367.884 187.391 361.328 180.887 354.485 177.469C341.41 170.928 331.166 178.449 331.166 194.592L331.166 195.097C331.166 201.109 335.296 208.383 340.371 211.313C345.446 214.243 349.573 211.736 349.573 205.725L349.573 204.279C349.573 202.096 350.295 200.483 351.607 199.732C352.836 199.028 354.448 199.183 356.146 200.164C356.159 200.172 356.169 200.178 356.182 200.185C358.347 201.447 359.804 203.587 360.645 205.158C362.144 207.955 362.887 211.194 362.633 213.816C361.785 222.551 352.607 225.519 350.081 224.06C349.02 223.448 348.159 223.945 348.159 225.17C348.159 226.394 349.02 227.882 350.081 228.495Z" fill="#EB5757"/>
<path d="M342.951 220.038C349.827 224.008 358.222 219.153 358.222 207.826C358.222 206.601 357.361 205.11 356.3 204.498C355.24 203.885 354.379 204.382 354.379 205.607C354.379 214.387 347.988 218.509 342.951 215.601C341.891 214.989 341.03 215.486 341.03 216.71C341.03 217.935 341.891 219.426 342.951 220.038Z" fill="#EB5757"/>
</svg>
