<svg width="50" height="52" viewBox="0 0 50 52" fill="none" xmlns="http://www.w3.org/2000/svg">
<path d="M46.8484 47.8513C47.7867 47.3258 48.5718 46.5597 49.1248 45.6298C49.6778 44.6999 49.9793 43.6391 49.999 42.554C50.0186 41.4688 49.7558 40.3976 49.2368 39.4478C48.7178 38.4981 47.961 37.7033 47.0424 37.1433L46.196 36.6436C41.5 33.7827 36.1572 32.1893 30.6787 32.0158C25.2003 31.8424 19.7695 33.0948 14.9061 35.6531L4 41.3908L14.5799 47.5569C19.4772 50.417 25.0219 51.9471 30.6759 51.9987C36.3298 52.0502 41.9009 50.6216 46.8484 47.8513Z" fill="url(#paint0_linear)" fill-opacity="0.39"/>
<path d="M33 10L32.9646 36H17L17.0354 10H33Z" fill="#D4E6FC"/>
<path d="M32.5526 37H16.4474C16.3874 37.0008 16.3278 36.9896 16.2724 36.9669C16.217 36.9442 16.1669 36.9106 16.1253 36.8681C16.0443 36.7855 15.9993 36.6751 16 36.5604V10.4396C16 10.323 16.0471 10.2112 16.131 10.1288C16.2149 10.0463 16.3287 10 16.4474 10H32.5526C32.6721 9.99889 32.7874 10.0429 32.8747 10.1231C32.9548 10.2098 32.9994 10.3225 33 10.4396V36.5604C33 36.6769 32.9529 36.7888 32.869 36.8712C32.7851 36.9536 32.6713 37 32.5526 37ZM16.8769 36.1208H32.0874V10.8792H16.8769V36.1208Z" fill="#93D0FF"/>
<path d="M28.2711 3.63997C31.1867 5.2686 32.9911 7.51767 33 9.99939H17.0267L17.08 18.9956C13.1289 19.0712 9.22379 18.1634 5.73778 16.3588C2.82222 14.7302 1.01778 12.4811 1 9.99939C1 5.02733 8.11111 1.00315 17 1.00315C20.9271 0.939346 24.8062 1.84685 28.2711 3.63997Z" fill="#2784ED"/>
<path d="M16.5356 19.9951C12.5037 20.0786 8.51901 19.0936 4.96601 17.1354C1.77993 15.2533 0.0177993 12.7134 0 9.99987C0.0309259 9.03559 0.250087 8.08751 0.644497 7.21179C1.03891 6.33607 1.60054 5.55055 2.29611 4.90176C5.2241 1.87761 10.6529 0.00462895 16.4733 0.00462895C20.5038 -0.0763001 24.4871 0.905138 28.0428 2.85519C31.2289 4.74642 32.991 7.27721 32.9999 9.99072C33.002 10.1129 32.9573 10.231 32.8753 10.3196C32.7894 10.4055 32.6748 10.4545 32.555 10.4567H16.936L16.9894 19.5291C16.9909 19.5905 16.9797 19.6515 16.9567 19.7081C16.9337 19.7648 16.8994 19.8159 16.856 19.8581C16.8152 19.9031 16.7655 19.9387 16.7103 19.9623C16.655 19.986 16.5954 19.9971 16.5356 19.9951ZM16.4288 0.91827C10.8398 0.91827 5.65129 2.69073 2.88349 5.54129C2.2801 6.11242 1.79256 6.80031 1.44892 7.56545C1.10528 8.3306 0.912308 9.15792 0.881071 9.99987C0.881071 12.3753 2.50081 14.632 5.4021 16.3954C8.68378 18.2085 12.3549 19.1508 16.0817 19.1363L16.0372 10.0638C16.0395 9.9434 16.0871 9.82855 16.17 9.74338C16.253 9.65821 16.3649 9.60935 16.4822 9.60701H32.0566C31.8519 7.396 30.2766 5.32202 27.6067 3.71401C24.1805 1.80992 20.3331 0.846893 16.4377 0.91827H16.4288Z" fill="#93D0FF"/>
<path d="M17 19.3597V45.9955C13.0664 46.0741 9.17855 45.1296 5.70797 43.2521C2.81417 41.5577 1.0177 39.2177 1 36.6357V10C1 12.582 2.81416 14.9219 5.71681 16.6164C9.18477 18.4923 13.0694 19.4368 17 19.3597Z" fill="#2784ED"/>
<path d="M16.5369 45.9956C12.5039 46.0731 8.51809 45.1334 4.96019 43.2664C1.78104 41.4557 0.0178104 39.0326 0 36.4259V10.4374C0.00227979 10.3221 0.049934 10.2121 0.132947 10.1306C0.21596 10.049 0.327883 10.0022 0.445259 10C0.563349 10 0.67661 10.0461 0.760112 10.1281C0.843614 10.2101 0.890518 10.3214 0.890518 10.4374C0.890518 12.7117 2.51126 14.8723 5.41435 16.5606C8.83718 18.3595 12.6736 19.2632 16.5547 19.1848C16.6709 19.1841 16.7828 19.2281 16.8664 19.3073C16.9517 19.3907 16.9997 19.5039 17 19.6221V45.6107C16.9866 45.7204 16.9314 45.8212 16.8455 45.8926C16.7596 45.964 16.6493 46.0008 16.5369 45.9956ZM0.917246 13.534V36.4259C0.917246 38.7002 2.53798 40.8608 5.43217 42.5054C8.71643 44.24 12.3895 45.142 16.1184 45.1296V20.007C12.2242 20.027 8.38735 19.0855 4.96019 17.2691C3.28959 16.3985 1.88264 15.11 0.881618 13.534H0.917246Z" fill="#93D0FF"/>
<path d="M39 15C39 19.9655 31.9125 24 23.0532 24L23 15H39Z" fill="white"/>
<path d="M22.5011 25C22.3824 25 22.2686 24.9539 22.1847 24.872C22.1008 24.79 22.0537 24.6789 22.0537 24.5629L22 15.4371C22.0003 15.3189 22.0486 15.2058 22.1342 15.1224C22.2183 15.0432 22.3306 14.9993 22.4474 15H38.5526C38.6713 15 38.7851 15.046 38.869 15.128C38.9529 15.21 39 15.3212 39 15.4371C38.978 16.3558 38.7661 17.2607 38.3771 18.0974C37.9881 18.9341 37.43 19.6853 36.7363 20.3059C33.8105 23.1993 28.3526 25 22.5011 25ZM22.8947 15.8741L22.9484 24.1259C28.3974 24.0297 33.4168 22.3776 36.1189 19.6941C37.2306 18.6962 37.936 17.3397 38.1053 15.8741H22.8947Z" fill="#93D0FF"/>
<path d="M38.9999 15V40.8991C38.9999 45.929 31.8888 50 23 50L23.0444 24.1009C31.8799 24.1009 39.0354 20.0037 38.9999 15Z" fill="white"/>
<path d="M22.4471 51C22.3305 51.0007 22.2181 50.9567 22.1341 50.8775C22.0516 50.7921 22.0039 50.6801 22 50.5626L22.0447 24.5708C22.0447 24.4548 22.0918 24.3435 22.1757 24.2615C22.2595 24.1795 22.3733 24.1334 22.4918 24.1334C28.1078 24.1334 33.3304 22.4275 36.1026 19.6979C36.7021 19.1629 37.1877 18.5173 37.5314 17.7981C37.8752 17.079 38.0704 16.3005 38.1057 15.5074V15.4374C38.1057 15.3214 38.1528 15.2101 38.2367 15.1281C38.3205 15.0461 38.4343 15 38.5529 15C38.6715 15 38.7852 15.0461 38.869 15.1281C38.9529 15.2101 39 15.3214 39 15.4374V15.5162V41.4292C38.9757 42.3495 38.7629 43.2557 38.3743 44.0942C37.9857 44.9327 37.4291 45.6864 36.7375 46.3108C33.7596 49.2065 28.2956 51 22.4471 51ZM22.939 25.0083V50.1251C28.3851 50.0377 33.3929 48.3754 36.1026 45.6897C36.7093 45.1455 37.199 44.4884 37.543 43.7569C37.8869 43.0253 38.0783 42.2339 38.1057 41.4292V18.5956C37.7282 19.2338 37.2684 19.8219 36.7375 20.3453C33.8758 23.1361 28.6176 24.912 22.939 25.0083Z" fill="#93D0FF"/>
<defs>
<linearGradient id="paint0_linear" x1="13" y1="43.5" x2="54.5" y2="50" gradientUnits="userSpaceOnUse">
<stop stop-color="#93D0FF"/>
<stop offset="1" stop-color="#93D0FF" stop-opacity="0"/>
</linearGradient>
</defs>
</svg>
