<svg width="136" height="120" viewBox="0 0 136 120" fill="none" xmlns="http://www.w3.org/2000/svg">
<circle r="1.55725" transform="matrix(0 -1 -1 0 117.832 117.832)" fill="#C4C4C4" fill-opacity="0.28"/>
<circle r="1.55725" transform="matrix(0 -1 -1 0 109.527 117.832)" fill="#C4C4C4" fill-opacity="0.28"/>
<circle r="1.55725" transform="matrix(0 -1 -1 0 101.221 117.832)" fill="#C4C4C4" fill-opacity="0.28"/>
<circle r="1.55725" transform="matrix(0 -1 -1 0 92.9161 117.832)" fill="#C4C4C4" fill-opacity="0.28"/>
<circle r="1.55725" transform="matrix(0 -1 -1 0 84.6107 117.832)" fill="#C4C4C4" fill-opacity="0.28"/>
<circle r="1.55725" transform="matrix(0 -1 -1 0 76.3053 117.832)" fill="#C4C4C4" fill-opacity="0.28"/>
<circle r="1.55725" transform="matrix(0 -1 -1 0 67.9999 117.832)" fill="#C4C4C4" fill-opacity="0.28"/>
<circle r="1.55725" transform="matrix(0 -1 -1 0 59.6947 117.832)" fill="#C4C4C4" fill-opacity="0.28"/>
<circle r="1.55725" transform="matrix(0 -1 -1 0 51.3893 117.832)" fill="#C4C4C4" fill-opacity="0.28"/>
<circle r="1.55725" transform="matrix(0 -1 -1 0 43.0841 117.832)" fill="#C4C4C4" fill-opacity="0.28"/>
<circle r="1.55725" transform="matrix(0 -1 -1 0 34.7787 117.832)" fill="#C4C4C4" fill-opacity="0.28"/>
<circle r="1.55725" transform="matrix(0 -1 -1 0 26.4733 117.832)" fill="#C4C4C4" fill-opacity="0.28"/>
<circle r="1.55725" transform="matrix(0 -1 -1 0 18.1678 117.832)" fill="#C4C4C4" fill-opacity="0.28"/>
<circle r="1.55725" transform="matrix(0 -1 -1 0 9.86267 117.832)" fill="#C4C4C4" fill-opacity="0.28"/>
<circle r="1.55725" transform="matrix(0 -1 -1 0 1.55725 117.832)" fill="#C4C4C4" fill-opacity="0.28"/>
<circle r="1.55725" transform="matrix(0 -1 -1 0 117.832 109.527)" fill="#C4C4C4" fill-opacity="0.28"/>
<circle r="1.55725" transform="matrix(0 -1 -1 0 109.527 109.527)" fill="#C4C4C4" fill-opacity="0.28"/>
<circle r="1.55725" transform="matrix(0 -1 -1 0 101.221 109.527)" fill="#C4C4C4" fill-opacity="0.28"/>
<circle r="1.55725" transform="matrix(0 -1 -1 0 92.9161 109.527)" fill="#C4C4C4" fill-opacity="0.28"/>
<circle r="1.55725" transform="matrix(0 -1 -1 0 84.6107 109.527)" fill="#C4C4C4" fill-opacity="0.28"/>
<circle r="1.55725" transform="matrix(0 -1 -1 0 76.3053 109.527)" fill="#C4C4C4" fill-opacity="0.28"/>
<circle r="1.55725" transform="matrix(0 -1 -1 0 67.9999 109.527)" fill="#C4C4C4" fill-opacity="0.28"/>
<circle r="1.55725" transform="matrix(0 -1 -1 0 59.6947 109.527)" fill="#C4C4C4" fill-opacity="0.28"/>
<circle r="1.55725" transform="matrix(0 -1 -1 0 51.3893 109.527)" fill="#C4C4C4" fill-opacity="0.28"/>
<circle r="1.55725" transform="matrix(0 -1 -1 0 43.0841 109.527)" fill="#C4C4C4" fill-opacity="0.28"/>
<circle r="1.55725" transform="matrix(0 -1 -1 0 34.7787 109.527)" fill="#C4C4C4" fill-opacity="0.28"/>
<circle r="1.55725" transform="matrix(0 -1 -1 0 26.4733 109.527)" fill="#C4C4C4" fill-opacity="0.28"/>
<circle r="1.55725" transform="matrix(0 -1 -1 0 18.1678 109.527)" fill="#C4C4C4" fill-opacity="0.28"/>
<circle r="1.55725" transform="matrix(0 -1 -1 0 9.86267 109.527)" fill="#C4C4C4" fill-opacity="0.28"/>
<circle r="1.55725" transform="matrix(0 -1 -1 0 1.55725 109.527)" fill="#C4C4C4" fill-opacity="0.28"/>
<circle r="1.55725" transform="matrix(0 -1 -1 0 134.443 101.221)" fill="#C4C4C4" fill-opacity="0.28"/>
<circle r="1.55725" transform="matrix(0 -1 -1 0 126.137 101.221)" fill="#C4C4C4" fill-opacity="0.28"/>
<circle r="1.55725" transform="matrix(0 -1 -1 0 117.832 101.221)" fill="#C4C4C4" fill-opacity="0.28"/>
<circle r="1.55725" transform="matrix(0 -1 -1 0 109.527 101.221)" fill="#C4C4C4" fill-opacity="0.28"/>
<circle r="1.55725" transform="matrix(0 -1 -1 0 101.221 101.221)" fill="#C4C4C4" fill-opacity="0.28"/>
<circle r="1.55725" transform="matrix(0 -1 -1 0 92.9161 101.221)" fill="#C4C4C4" fill-opacity="0.28"/>
<circle r="1.55725" transform="matrix(0 -1 -1 0 84.6107 101.221)" fill="#C4C4C4" fill-opacity="0.28"/>
<circle r="1.55725" transform="matrix(0 -1 -1 0 76.3053 101.221)" fill="#C4C4C4" fill-opacity="0.28"/>
<circle r="1.55725" transform="matrix(0 -1 -1 0 67.9999 101.221)" fill="#C4C4C4" fill-opacity="0.28"/>
<circle r="1.55725" transform="matrix(0 -1 -1 0 59.6947 101.221)" fill="#C4C4C4" fill-opacity="0.28"/>
<circle r="1.55725" transform="matrix(0 -1 -1 0 51.3893 101.221)" fill="#C4C4C4" fill-opacity="0.28"/>
<circle r="1.55725" transform="matrix(0 -1 -1 0 43.0841 101.221)" fill="#C4C4C4" fill-opacity="0.28"/>
<circle r="1.55725" transform="matrix(0 -1 -1 0 34.7787 101.221)" fill="#C4C4C4" fill-opacity="0.28"/>
<circle r="1.55725" transform="matrix(0 -1 -1 0 26.4733 101.221)" fill="#C4C4C4" fill-opacity="0.28"/>
<circle r="1.55725" transform="matrix(0 -1 -1 0 18.1678 101.221)" fill="#C4C4C4" fill-opacity="0.28"/>
<circle r="1.55725" transform="matrix(0 -1 -1 0 9.86267 101.221)" fill="#C4C4C4" fill-opacity="0.28"/>
<circle r="1.55725" transform="matrix(0 -1 -1 0 1.55725 101.221)" fill="#C4C4C4" fill-opacity="0.28"/>
<circle r="1.55725" transform="matrix(0 -1 -1 0 134.443 92.916)" fill="#C4C4C4" fill-opacity="0.28"/>
<circle r="1.55725" transform="matrix(0 -1 -1 0 126.137 92.916)" fill="#C4C4C4" fill-opacity="0.28"/>
<circle r="1.55725" transform="matrix(0 -1 -1 0 117.832 92.916)" fill="#C4C4C4" fill-opacity="0.28"/>
<circle r="1.55725" transform="matrix(0 -1 -1 0 109.527 92.916)" fill="#C4C4C4" fill-opacity="0.28"/>
<circle r="1.55725" transform="matrix(0 -1 -1 0 101.221 92.916)" fill="#C4C4C4" fill-opacity="0.28"/>
<circle r="1.55725" transform="matrix(0 -1 -1 0 92.9161 92.916)" fill="#C4C4C4" fill-opacity="0.28"/>
<circle r="1.55725" transform="matrix(0 -1 -1 0 84.6107 92.916)" fill="#C4C4C4" fill-opacity="0.28"/>
<circle r="1.55725" transform="matrix(0 -1 -1 0 76.3053 92.916)" fill="#C4C4C4" fill-opacity="0.28"/>
<circle r="1.55725" transform="matrix(0 -1 -1 0 67.9999 92.916)" fill="#C4C4C4" fill-opacity="0.28"/>
<circle r="1.55725" transform="matrix(0 -1 -1 0 59.6947 92.916)" fill="#C4C4C4" fill-opacity="0.28"/>
<circle r="1.55725" transform="matrix(0 -1 -1 0 51.3893 92.916)" fill="#C4C4C4" fill-opacity="0.28"/>
<circle r="1.55725" transform="matrix(0 -1 -1 0 43.0841 92.916)" fill="#C4C4C4" fill-opacity="0.28"/>
<circle r="1.55725" transform="matrix(0 -1 -1 0 34.7787 92.916)" fill="#C4C4C4" fill-opacity="0.28"/>
<circle r="1.55725" transform="matrix(0 -1 -1 0 26.4733 92.916)" fill="#C4C4C4" fill-opacity="0.28"/>
<circle r="1.55725" transform="matrix(0 -1 -1 0 18.1678 92.916)" fill="#C4C4C4" fill-opacity="0.28"/>
<circle r="1.55725" transform="matrix(0 -1 -1 0 9.86267 92.916)" fill="#C4C4C4" fill-opacity="0.28"/>
<circle r="1.55725" transform="matrix(0 -1 -1 0 1.55725 92.916)" fill="#C4C4C4" fill-opacity="0.28"/>
<circle r="1.55725" transform="matrix(0 -1 -1 0 134.443 84.6107)" fill="#C4C4C4" fill-opacity="0.28"/>
<circle r="1.55725" transform="matrix(0 -1 -1 0 126.137 84.6107)" fill="#C4C4C4" fill-opacity="0.28"/>
<circle r="1.55725" transform="matrix(0 -1 -1 0 117.832 84.6107)" fill="#C4C4C4" fill-opacity="0.28"/>
<circle r="1.55725" transform="matrix(0 -1 -1 0 109.527 84.6107)" fill="#C4C4C4" fill-opacity="0.28"/>
<circle r="1.55725" transform="matrix(0 -1 -1 0 101.221 84.6107)" fill="#C4C4C4" fill-opacity="0.28"/>
<circle r="1.55725" transform="matrix(0 -1 -1 0 92.9161 84.6107)" fill="#C4C4C4" fill-opacity="0.28"/>
<circle r="1.55725" transform="matrix(0 -1 -1 0 84.6107 84.6107)" fill="#C4C4C4" fill-opacity="0.28"/>
<circle r="1.55725" transform="matrix(0 -1 -1 0 76.3053 84.6107)" fill="#C4C4C4" fill-opacity="0.28"/>
<circle r="1.55725" transform="matrix(0 -1 -1 0 67.9999 84.6107)" fill="#C4C4C4" fill-opacity="0.28"/>
<circle r="1.55725" transform="matrix(0 -1 -1 0 59.6947 84.6107)" fill="#C4C4C4" fill-opacity="0.28"/>
<circle r="1.55725" transform="matrix(0 -1 -1 0 51.3893 84.6107)" fill="#C4C4C4" fill-opacity="0.28"/>
<circle r="1.55725" transform="matrix(0 -1 -1 0 43.0841 84.6107)" fill="#C4C4C4" fill-opacity="0.28"/>
<circle r="1.55725" transform="matrix(0 -1 -1 0 34.7787 84.6107)" fill="#C4C4C4" fill-opacity="0.28"/>
<circle r="1.55725" transform="matrix(0 -1 -1 0 26.4733 84.6107)" fill="#C4C4C4" fill-opacity="0.28"/>
<circle r="1.55725" transform="matrix(0 -1 -1 0 18.1678 84.6107)" fill="#C4C4C4" fill-opacity="0.28"/>
<circle r="1.55725" transform="matrix(0 -1 -1 0 9.86267 84.6107)" fill="#C4C4C4" fill-opacity="0.28"/>
<circle r="1.55725" transform="matrix(0 -1 -1 0 1.55725 84.6107)" fill="#C4C4C4" fill-opacity="0.28"/>
<circle r="1.55725" transform="matrix(0 -1 -1 0 134.443 76.3053)" fill="#C4C4C4" fill-opacity="0.28"/>
<circle r="1.55725" transform="matrix(0 -1 -1 0 126.137 76.3053)" fill="#C4C4C4" fill-opacity="0.28"/>
<circle r="1.55725" transform="matrix(0 -1 -1 0 117.832 76.3053)" fill="#C4C4C4" fill-opacity="0.28"/>
<circle r="1.55725" transform="matrix(0 -1 -1 0 109.527 76.3053)" fill="#C4C4C4" fill-opacity="0.28"/>
<circle r="1.55725" transform="matrix(0 -1 -1 0 101.221 76.3053)" fill="#C4C4C4" fill-opacity="0.28"/>
<circle r="1.55725" transform="matrix(0 -1 -1 0 92.9161 76.3053)" fill="#C4C4C4" fill-opacity="0.28"/>
<circle r="1.55725" transform="matrix(0 -1 -1 0 84.6107 76.3053)" fill="#C4C4C4" fill-opacity="0.28"/>
<circle r="1.55725" transform="matrix(0 -1 -1 0 76.3053 76.3053)" fill="#C4C4C4" fill-opacity="0.28"/>
<circle r="1.55725" transform="matrix(0 -1 -1 0 67.9999 76.3053)" fill="#C4C4C4" fill-opacity="0.28"/>
<circle r="1.55725" transform="matrix(0 -1 -1 0 59.6947 76.3053)" fill="#C4C4C4" fill-opacity="0.28"/>
<circle r="1.55725" transform="matrix(0 -1 -1 0 51.3893 76.3053)" fill="#C4C4C4" fill-opacity="0.28"/>
<circle r="1.55725" transform="matrix(0 -1 -1 0 43.0841 76.3053)" fill="#C4C4C4" fill-opacity="0.28"/>
<circle r="1.55725" transform="matrix(0 -1 -1 0 34.7787 76.3053)" fill="#C4C4C4" fill-opacity="0.28"/>
<circle r="1.55725" transform="matrix(0 -1 -1 0 26.4733 76.3053)" fill="#C4C4C4" fill-opacity="0.28"/>
<circle r="1.55725" transform="matrix(0 -1 -1 0 18.1678 76.3053)" fill="#C4C4C4" fill-opacity="0.28"/>
<circle r="1.55725" transform="matrix(0 -1 -1 0 9.86267 76.3053)" fill="#C4C4C4" fill-opacity="0.28"/>
<circle r="1.55725" transform="matrix(0 -1 -1 0 1.55725 76.3053)" fill="#C4C4C4" fill-opacity="0.28"/>
<circle r="1.55725" transform="matrix(0 -1 -1 0 134.443 68)" fill="#C4C4C4" fill-opacity="0.28"/>
<circle r="1.55725" transform="matrix(0 -1 -1 0 126.137 68)" fill="#C4C4C4" fill-opacity="0.28"/>
<circle r="1.55725" transform="matrix(0 -1 -1 0 117.832 68)" fill="#C4C4C4" fill-opacity="0.28"/>
<circle r="1.55725" transform="matrix(0 -1 -1 0 109.527 68)" fill="#C4C4C4" fill-opacity="0.28"/>
<circle r="1.55725" transform="matrix(0 -1 -1 0 101.221 68)" fill="#C4C4C4" fill-opacity="0.28"/>
<circle r="1.55725" transform="matrix(0 -1 -1 0 92.9161 68)" fill="#C4C4C4" fill-opacity="0.28"/>
<circle r="1.55725" transform="matrix(0 -1 -1 0 84.6107 68)" fill="#C4C4C4" fill-opacity="0.28"/>
<circle r="1.55725" transform="matrix(0 -1 -1 0 76.3053 68)" fill="#C4C4C4" fill-opacity="0.28"/>
<circle r="1.55725" transform="matrix(0 -1 -1 0 67.9999 68)" fill="#C4C4C4" fill-opacity="0.28"/>
<circle r="1.55725" transform="matrix(0 -1 -1 0 59.6947 68)" fill="#C4C4C4" fill-opacity="0.28"/>
<circle r="1.55725" transform="matrix(0 -1 -1 0 51.3893 68)" fill="#C4C4C4" fill-opacity="0.28"/>
<circle r="1.55725" transform="matrix(0 -1 -1 0 43.0841 68)" fill="#C4C4C4" fill-opacity="0.28"/>
<circle r="1.55725" transform="matrix(0 -1 -1 0 34.7787 68)" fill="#C4C4C4" fill-opacity="0.28"/>
<circle r="1.55725" transform="matrix(0 -1 -1 0 26.4733 68)" fill="#C4C4C4" fill-opacity="0.28"/>
<circle r="1.55725" transform="matrix(0 -1 -1 0 18.1678 68)" fill="#C4C4C4" fill-opacity="0.28"/>
<circle r="1.55725" transform="matrix(0 -1 -1 0 9.86267 68)" fill="#C4C4C4" fill-opacity="0.28"/>
<circle r="1.55725" transform="matrix(0 -1 -1 0 1.55725 68)" fill="#C4C4C4" fill-opacity="0.28"/>
<circle r="1.55725" transform="matrix(0 -1 -1 0 134.443 59.6946)" fill="#C4C4C4" fill-opacity="0.28"/>
<circle r="1.55725" transform="matrix(0 -1 -1 0 126.137 59.6946)" fill="#C4C4C4" fill-opacity="0.28"/>
<circle r="1.55725" transform="matrix(0 -1 -1 0 117.832 59.6946)" fill="#C4C4C4" fill-opacity="0.28"/>
<circle r="1.55725" transform="matrix(0 -1 -1 0 109.527 59.6946)" fill="#C4C4C4" fill-opacity="0.28"/>
<circle r="1.55725" transform="matrix(0 -1 -1 0 101.221 59.6946)" fill="#C4C4C4" fill-opacity="0.28"/>
<circle r="1.55725" transform="matrix(0 -1 -1 0 92.9161 59.6946)" fill="#C4C4C4" fill-opacity="0.28"/>
<circle r="1.55725" transform="matrix(0 -1 -1 0 84.6107 59.6946)" fill="#C4C4C4" fill-opacity="0.28"/>
<circle r="1.55725" transform="matrix(0 -1 -1 0 76.3053 59.6946)" fill="#C4C4C4" fill-opacity="0.28"/>
<circle r="1.55725" transform="matrix(0 -1 -1 0 59.6947 59.6946)" fill="#C4C4C4" fill-opacity="0.28"/>
<circle r="1.55725" transform="matrix(0 -1 -1 0 67.9999 59.6946)" fill="#C4C4C4" fill-opacity="0.28"/>
<circle r="1.55725" transform="matrix(0 -1 -1 0 51.3893 59.6946)" fill="#C4C4C4" fill-opacity="0.28"/>
<circle r="1.55725" transform="matrix(0 -1 -1 0 43.0841 59.6946)" fill="#C4C4C4" fill-opacity="0.28"/>
<circle r="1.55725" transform="matrix(0 -1 -1 0 34.7787 59.6946)" fill="#C4C4C4" fill-opacity="0.28"/>
<circle r="1.55725" transform="matrix(0 -1 -1 0 26.4733 59.6946)" fill="#C4C4C4" fill-opacity="0.28"/>
<circle r="1.55725" transform="matrix(0 -1 -1 0 18.1678 59.6946)" fill="#C4C4C4" fill-opacity="0.28"/>
<circle r="1.55725" transform="matrix(0 -1 -1 0 9.86267 59.6946)" fill="#C4C4C4" fill-opacity="0.28"/>
<circle r="1.55725" transform="matrix(0 -1 -1 0 1.55725 59.6946)" fill="#C4C4C4" fill-opacity="0.28"/>
<circle r="1.55725" transform="matrix(0 -1 -1 0 134.443 51.3893)" fill="#C4C4C4" fill-opacity="0.28"/>
<circle r="1.55725" transform="matrix(0 -1 -1 0 126.137 51.3893)" fill="#C4C4C4" fill-opacity="0.28"/>
<circle r="1.55725" transform="matrix(0 -1 -1 0 117.832 51.3893)" fill="#C4C4C4" fill-opacity="0.28"/>
<circle r="1.55725" transform="matrix(0 -1 -1 0 109.527 51.3893)" fill="#C4C4C4" fill-opacity="0.28"/>
<circle r="1.55725" transform="matrix(0 -1 -1 0 101.221 51.3893)" fill="#C4C4C4" fill-opacity="0.28"/>
<circle r="1.55725" transform="matrix(0 -1 -1 0 92.9161 51.3893)" fill="#C4C4C4" fill-opacity="0.28"/>
<circle r="1.55725" transform="matrix(0 -1 -1 0 84.6107 51.3893)" fill="#C4C4C4" fill-opacity="0.28"/>
<circle r="1.55725" transform="matrix(0 -1 -1 0 76.3053 51.3893)" fill="#C4C4C4" fill-opacity="0.28"/>
<circle r="1.55725" transform="matrix(0 -1 -1 0 67.9999 51.3893)" fill="#C4C4C4" fill-opacity="0.28"/>
<circle r="1.55725" transform="matrix(0 -1 -1 0 59.6947 51.3893)" fill="#C4C4C4" fill-opacity="0.28"/>
<circle r="1.55725" transform="matrix(0 -1 -1 0 51.3893 51.3893)" fill="#C4C4C4" fill-opacity="0.28"/>
<circle r="1.55725" transform="matrix(0 -1 -1 0 43.0841 51.3893)" fill="#C4C4C4" fill-opacity="0.28"/>
<circle r="1.55725" transform="matrix(0 -1 -1 0 134.443 43.0839)" fill="#C4C4C4" fill-opacity="0.28"/>
<circle r="1.55725" transform="matrix(0 -1 -1 0 126.137 43.0839)" fill="#C4C4C4" fill-opacity="0.28"/>
<circle r="1.55725" transform="matrix(0 -1 -1 0 117.832 43.0839)" fill="#C4C4C4" fill-opacity="0.28"/>
<circle r="1.55725" transform="matrix(0 -1 -1 0 109.527 43.0839)" fill="#C4C4C4" fill-opacity="0.28"/>
<circle r="1.55725" transform="matrix(0 -1 -1 0 101.221 43.0839)" fill="#C4C4C4" fill-opacity="0.28"/>
<circle r="1.55725" transform="matrix(0 -1 -1 0 92.9161 43.0839)" fill="#C4C4C4" fill-opacity="0.28"/>
<circle r="1.55725" transform="matrix(0 -1 -1 0 84.6107 43.0839)" fill="#C4C4C4" fill-opacity="0.28"/>
<circle r="1.55725" transform="matrix(0 -1 -1 0 76.3053 43.0839)" fill="#C4C4C4" fill-opacity="0.28"/>
<circle r="1.55725" transform="matrix(0 -1 -1 0 67.9999 43.0839)" fill="#C4C4C4" fill-opacity="0.28"/>
<circle r="1.55725" transform="matrix(0 -1 -1 0 59.6947 43.0839)" fill="#C4C4C4" fill-opacity="0.28"/>
<circle r="1.55725" transform="matrix(0 -1 -1 0 51.3893 43.0839)" fill="#C4C4C4" fill-opacity="0.28"/>
<circle r="1.55725" transform="matrix(0 -1 -1 0 43.0841 43.0839)" fill="#C4C4C4" fill-opacity="0.28"/>
<circle r="1.55725" transform="matrix(0 -1 -1 0 134.443 34.7786)" fill="#C4C4C4" fill-opacity="0.28"/>
<circle r="1.55725" transform="matrix(0 -1 -1 0 126.137 34.7786)" fill="#C4C4C4" fill-opacity="0.28"/>
<circle r="1.55725" transform="matrix(0 -1 -1 0 117.832 34.7786)" fill="#C4C4C4" fill-opacity="0.28"/>
<circle r="1.55725" transform="matrix(0 -1 -1 0 109.527 34.7786)" fill="#C4C4C4" fill-opacity="0.28"/>
<circle r="1.55725" transform="matrix(0 -1 -1 0 101.221 34.7786)" fill="#C4C4C4" fill-opacity="0.28"/>
<circle r="1.55725" transform="matrix(0 -1 -1 0 92.9161 34.7786)" fill="#C4C4C4" fill-opacity="0.28"/>
<circle r="1.55725" transform="matrix(0 -1 -1 0 84.6107 34.7786)" fill="#C4C4C4" fill-opacity="0.28"/>
<circle r="1.55725" transform="matrix(0 -1 -1 0 76.3053 34.7786)" fill="#C4C4C4" fill-opacity="0.28"/>
<circle r="1.55725" transform="matrix(0 -1 -1 0 67.9999 34.7786)" fill="#C4C4C4" fill-opacity="0.28"/>
<circle r="1.55725" transform="matrix(0 -1 -1 0 59.6947 34.7786)" fill="#C4C4C4" fill-opacity="0.28"/>
<circle r="1.55725" transform="matrix(0 -1 -1 0 51.3893 34.7786)" fill="#C4C4C4" fill-opacity="0.28"/>
<circle r="1.55725" transform="matrix(0 -1 -1 0 43.0841 34.7786)" fill="#C4C4C4" fill-opacity="0.28"/>
<circle r="1.55725" transform="matrix(0 -1 -1 0 134.443 26.4732)" fill="#C4C4C4" fill-opacity="0.28"/>
<circle r="1.55725" transform="matrix(0 -1 -1 0 126.137 26.4732)" fill="#C4C4C4" fill-opacity="0.28"/>
<circle r="1.55725" transform="matrix(0 -1 -1 0 117.832 26.4732)" fill="#C4C4C4" fill-opacity="0.28"/>
<circle r="1.55725" transform="matrix(0 -1 -1 0 109.527 26.4732)" fill="#C4C4C4" fill-opacity="0.28"/>
<circle r="1.55725" transform="matrix(0 -1 -1 0 101.221 26.4732)" fill="#C4C4C4" fill-opacity="0.28"/>
<circle r="1.55725" transform="matrix(0 -1 -1 0 92.9161 26.4732)" fill="#C4C4C4" fill-opacity="0.28"/>
<circle r="1.55725" transform="matrix(0 -1 -1 0 84.6107 26.4732)" fill="#C4C4C4" fill-opacity="0.28"/>
<circle r="1.55725" transform="matrix(0 -1 -1 0 76.3053 26.4732)" fill="#C4C4C4" fill-opacity="0.28"/>
<circle r="1.55725" transform="matrix(0 -1 -1 0 67.9999 26.4732)" fill="#C4C4C4" fill-opacity="0.28"/>
<circle r="1.55725" transform="matrix(0 -1 -1 0 59.6947 26.4732)" fill="#C4C4C4" fill-opacity="0.28"/>
<circle r="1.55725" transform="matrix(0 -1 -1 0 51.3893 26.4732)" fill="#C4C4C4" fill-opacity="0.28"/>
<circle r="1.55725" transform="matrix(0 -1 -1 0 43.0841 26.4732)" fill="#C4C4C4" fill-opacity="0.28"/>
<circle r="1.55725" transform="matrix(0 -1 -1 0 134.443 18.1679)" fill="#C4C4C4" fill-opacity="0.28"/>
<circle r="1.55725" transform="matrix(0 -1 -1 0 126.137 18.1679)" fill="#C4C4C4" fill-opacity="0.28"/>
<circle r="1.55725" transform="matrix(0 -1 -1 0 117.832 18.1679)" fill="#C4C4C4" fill-opacity="0.28"/>
<circle r="1.55725" transform="matrix(0 -1 -1 0 109.527 18.1679)" fill="#C4C4C4" fill-opacity="0.28"/>
<circle r="1.55725" transform="matrix(0 -1 -1 0 101.221 18.1679)" fill="#C4C4C4" fill-opacity="0.28"/>
<circle r="1.55725" transform="matrix(0 -1 -1 0 92.9161 18.1679)" fill="#C4C4C4" fill-opacity="0.28"/>
<circle r="1.55725" transform="matrix(0 -1 -1 0 84.6107 18.1679)" fill="#C4C4C4" fill-opacity="0.28"/>
<circle r="1.55725" transform="matrix(0 -1 -1 0 76.3053 18.1679)" fill="#C4C4C4" fill-opacity="0.28"/>
<circle r="1.55725" transform="matrix(0 -1 -1 0 67.9999 18.1679)" fill="#C4C4C4" fill-opacity="0.28"/>
<circle r="1.55725" transform="matrix(0 -1 -1 0 59.6947 18.1679)" fill="#C4C4C4" fill-opacity="0.28"/>
<circle r="1.55725" transform="matrix(0 -1 -1 0 51.3893 18.1679)" fill="#C4C4C4" fill-opacity="0.28"/>
<circle r="1.55725" transform="matrix(0 -1 -1 0 43.0841 18.1679)" fill="#C4C4C4" fill-opacity="0.28"/>
<circle r="1.55725" transform="matrix(0 -1 -1 0 134.443 9.86258)" fill="#C4C4C4" fill-opacity="0.28"/>
<circle r="1.55725" transform="matrix(0 -1 -1 0 126.137 9.86258)" fill="#C4C4C4" fill-opacity="0.28"/>
<circle r="1.55725" transform="matrix(0 -1 -1 0 117.832 9.86258)" fill="#C4C4C4" fill-opacity="0.28"/>
<circle r="1.55725" transform="matrix(0 -1 -1 0 109.527 9.86258)" fill="#C4C4C4" fill-opacity="0.28"/>
<circle r="1.55725" transform="matrix(0 -1 -1 0 101.221 9.86258)" fill="#C4C4C4" fill-opacity="0.28"/>
<circle r="1.55725" transform="matrix(0 -1 -1 0 92.9161 9.86258)" fill="#C4C4C4" fill-opacity="0.28"/>
<circle r="1.55725" transform="matrix(0 -1 -1 0 84.6107 9.86258)" fill="#C4C4C4" fill-opacity="0.28"/>
<circle r="1.55725" transform="matrix(0 -1 -1 0 76.3053 9.86258)" fill="#C4C4C4" fill-opacity="0.28"/>
<circle r="1.55725" transform="matrix(0 -1 -1 0 67.9999 9.86258)" fill="#C4C4C4" fill-opacity="0.28"/>
<circle r="1.55725" transform="matrix(0 -1 -1 0 59.6947 9.86258)" fill="#C4C4C4" fill-opacity="0.28"/>
<circle r="1.55725" transform="matrix(0 -1 -1 0 51.3893 9.86258)" fill="#C4C4C4" fill-opacity="0.28"/>
<circle r="1.55725" transform="matrix(0 -1 -1 0 43.0841 9.86258)" fill="#C4C4C4" fill-opacity="0.28"/>
<circle r="1.55725" transform="matrix(0 -1 -1 0 134.443 1.55722)" fill="#C4C4C4" fill-opacity="0.28"/>
<circle r="1.55725" transform="matrix(0 -1 -1 0 126.137 1.55722)" fill="#C4C4C4" fill-opacity="0.28"/>
<circle r="1.55725" transform="matrix(0 -1 -1 0 117.832 1.55722)" fill="#C4C4C4" fill-opacity="0.28"/>
<circle r="1.55725" transform="matrix(0 -1 -1 0 109.527 1.55722)" fill="#C4C4C4" fill-opacity="0.28"/>
<circle r="1.55725" transform="matrix(0 -1 -1 0 101.221 1.55722)" fill="#C4C4C4" fill-opacity="0.28"/>
<circle r="1.55725" transform="matrix(0 -1 -1 0 92.9161 1.55722)" fill="#C4C4C4" fill-opacity="0.28"/>
<circle r="1.55725" transform="matrix(0 -1 -1 0 84.6107 1.55722)" fill="#C4C4C4" fill-opacity="0.28"/>
<circle r="1.55725" transform="matrix(0 -1 -1 0 76.3053 1.55722)" fill="#C4C4C4" fill-opacity="0.28"/>
<circle r="1.55725" transform="matrix(0 -1 -1 0 67.9999 1.55722)" fill="#C4C4C4" fill-opacity="0.28"/>
<circle r="1.55725" transform="matrix(0 -1 -1 0 59.6947 1.55722)" fill="#C4C4C4" fill-opacity="0.28"/>
<circle r="1.55725" transform="matrix(0 -1 -1 0 51.3893 1.55722)" fill="#C4C4C4" fill-opacity="0.28"/>
<circle r="1.55725" transform="matrix(0 -1 -1 0 43.0841 1.55722)" fill="#C4C4C4" fill-opacity="0.28"/>
<g clip-path="url(#clip0)">
<path d="M124 111.973C124.079 111.729 124.295 111.556 124.55 111.533L128.023 111.218L129.396 108.005C129.497 107.769 129.728 107.616 129.984 107.616C130.241 107.616 130.472 107.769 130.572 108.005L131.945 111.218L135.419 111.533C135.673 111.557 135.889 111.729 135.969 111.973C136.048 112.216 135.975 112.483 135.782 112.652L133.157 114.954L133.931 118.364C133.987 118.615 133.89 118.874 133.682 119.024C133.57 119.105 133.439 119.146 133.307 119.146C133.194 119.146 133.08 119.116 132.979 119.055L129.984 117.265L126.99 119.055C126.77 119.187 126.494 119.175 126.286 119.024C126.078 118.874 125.981 118.615 126.038 118.364L126.812 114.954L124.187 112.652C123.994 112.483 123.921 112.217 124 111.973Z" fill="#EB5757"/>
</g>
<defs>
<clipPath id="clip0">
<rect width="12.0315" height="12.0315" fill="white" transform="matrix(-1 0 0 1 136 107.358)"/>
</clipPath>
</defs>
</svg>
