<?xml version="1.0" encoding="utf-8"?>
<!-- Generator: Adobe Illustrator 24.0.3, SVG Export Plug-In . SVG Version: 6.00 Build 0)  -->
<svg version="1.1" id="Layer_1" xmlns="http://www.w3.org/2000/svg" xmlns:xlink="http://www.w3.org/1999/xlink" x="0px" y="0px"
	 viewBox="0 0 341.3 512" style="enable-background:new 0 0 341.3 512;" xml:space="preserve">
<g>
	<g>
		<path d="M170.7,0C76.6,0,0,76.6,0,170.7c0,28.2,7.1,56.3,20.5,81.1l140.8,254.7c1.9,3.4,5.4,5.5,9.3,5.5c3.9,0,7.5-2.1,9.3-5.5
			l140.9-254.8c13.4-24.8,20.4-52.8,20.4-81C341.3,76.6,264.8,0,170.7,0z M170.7,256c-47.1,0-85.3-38.3-85.3-85.3
			s38.3-85.3,85.3-85.3s85.3,38.3,85.3,85.3S217.7,256,170.7,256z"/>
	</g>
</g>
</svg>
