<?xml version="1.0" encoding="utf-8"?>
<!-- Generator: Adobe Illustrator 25.2.0, SVG Export Plug-In . SVG Version: 6.00 Build 0)  -->
<svg version="1.1" id="Слой_1" xmlns="http://www.w3.org/2000/svg" xmlns:xlink="http://www.w3.org/1999/xlink" x="0px" y="0px"
	 viewBox="0 0 32.5 31.1" style="enable-background:new 0 0 32.5 31.1;" xml:space="preserve">
<style type="text/css">
	.st0{fill:none;stroke:#1FA1C1;stroke-width:1.5;stroke-linecap:round;stroke-linejoin:round;stroke-miterlimit:10;}
	.st1{fill:#1FA1C1;}
</style>
<path class="st0" d="M22.8,30.4c5.3-2.5,9-7.8,9-14.1c0-8.6-6.9-15.5-15.5-15.5S0.8,7.7,0.8,16.3c0,4.3,1.7,8.1,4.5,10.9"/>
<g>
	<path class="st1" d="M7.9,29.7l9.1-8.8c3.5-3.3,5.4-5.5,5.4-8.8S19.9,6.4,16,6.4c-3.5,0-5.8,1.7-7.6,3.6V7.8
		c1.6-1.6,4.1-3.2,7.8-3.2c4.7,0,8.1,2.9,8.1,7.3c0,3.7-1.9,6.1-5.8,9.9l-7.9,7.7h12.2v1.7H7.8L7.9,29.7z"/>
</g>
</svg>
