<?xml version="1.0" encoding="utf-8"?>
<!-- Generator: Adobe Illustrator 25.2.0, SVG Export Plug-In . SVG Version: 6.00 Build 0)  -->
<svg version="1.1" id="Слой_1" xmlns="http://www.w3.org/2000/svg" xmlns:xlink="http://www.w3.org/1999/xlink" x="0px" y="0px"
	 viewBox="0 0 32.5 32.5" style="enable-background:new 0 0 32.5 32.5;" xml:space="preserve">
<style type="text/css">
	.st0{fill:none;stroke:#1FA1C1;stroke-width:1.5;stroke-linecap:round;stroke-linejoin:round;stroke-miterlimit:10;}
	.st1{fill:#1FA1C1;}
</style>
<path class="st0" d="M16.3,31.8c8.6,0,15.5-6.9,15.5-15.5S24.8,0.8,16.3,0.8S0.8,7.7,0.8,16.3c0,3.4,1.1,6.5,2.9,9"/>
<g>
	<path class="st1" d="M9.5,30.6v-2c1.7,1.3,4.4,2.2,7.3,2.2c4,0,8-2.4,8-6.8c0-3.8-3-6.5-7.7-6.5c-0.9,0-1.8,0.1-2.6,0.3v-1.3
		l8.7-8.7H10.7V6h15.1v1.4l-8.5,8.5c4.6,0,9.4,2.8,9.4,8.1c0,5.2-4.3,8.6-9.7,8.6C13.8,32.5,11.3,31.8,9.5,30.6z"/>
</g>
</svg>
