<?xml version="1.0" encoding="utf-8"?>
<!-- Generator: Adobe Illustrator 25.2.0, SVG Export Plug-In . SVG Version: 6.00 Build 0)  -->
<svg version="1.1" id="Слой_1" xmlns="http://www.w3.org/2000/svg" xmlns:xlink="http://www.w3.org/1999/xlink" x="0px" y="0px"
	 viewBox="0 0 20.8 20.8" style="enable-background:new 0 0 20.8 20.8;" xml:space="preserve">
<style type="text/css">
	.st0{fill:none;stroke:#1CA1C1;stroke-width:0.75;stroke-miterlimit:10;}
</style>
<g>
	<path class="st0" d="M16.2,11.9L8.8,4.5c-0.3-0.3-0.3-0.7,0-1l3-3c0.3-0.3,0.7-0.3,0.9,0L20.1,8c0.3,0.3,0.3,0.7,0,1l-3,3
		C16.9,12.2,16.4,12.2,16.2,11.9z"/>
	<path class="st0" d="M0.6,17.7l4.3-4.4c0.3-0.3,0.7-0.3,0.9,0l1.5,1.5c0.3,0.3,0.3,0.7,0,1L3,20.2c-0.3,0.3-0.7,0.3-0.9,0l-1.5-1.5
		C0.3,18.4,0.3,18,0.6,17.7z"/>
	<path class="st0" d="M6.6,14.1l3-3c0.5-0.5,1.3-0.5,1.8,0l4.5,4.5c0.5,0.5,1.3,0.5,1.8,0l2.4-2.4c0.5-0.5,0.5-1.3,0-1.8l-1.2-1.2"
		/>
</g>
</svg>
