<?xml version="1.0" encoding="utf-8"?>
<!-- Generator: Adobe Illustrator 25.2.0, SVG Export Plug-In . SVG Version: 6.00 Build 0)  -->
<svg version="1.1" id="Слой_1" xmlns="http://www.w3.org/2000/svg" xmlns:xlink="http://www.w3.org/1999/xlink" x="0px" y="0px"
	 viewBox="0 0 20.8 20.8" style="enable-background:new 0 0 20.8 20.8;" xml:space="preserve">
<style type="text/css">
	.st0{fill:none;stroke:#1CA1C1;stroke-width:0.75;stroke-miterlimit:10;}
</style>
<path class="st0" d="M13.8,7H0.4V1.8C0.4,1,1,0.4,1.8,0.4h10.7c0.8,0,1.4,0.6,1.4,1.4V7z"/>
<path class="st0" d="M17.4,13.7h-17V7H16c0.8,0,1.4,0.6,1.4,1.4V13.7z"/>
<path class="st0" d="M19,20.4H1.8c-0.8,0-1.4-0.6-1.4-1.4v-5.3H19c0.8,0,1.4,0.6,1.4,1.4V19C20.4,19.7,19.7,20.4,19,20.4z"/>
<path class="st0" d="M5.9,5.1H4.2c-0.2,0-0.4-0.2-0.4-0.4V2.8c0-0.2,0.2-0.4,0.4-0.4h1.8c0.2,0,0.4,0.2,0.4,0.4v1.8
	C6.4,4.9,6.2,5.1,5.9,5.1z"/>
<path class="st0" d="M5.9,18.4H4.2c-0.2,0-0.4-0.2-0.4-0.4v-1.8c0-0.2,0.2-0.4,0.4-0.4h1.8c0.2,0,0.4,0.2,0.4,0.4v1.8
	C6.4,18.2,6.2,18.4,5.9,18.4z"/>
<path class="st0" d="M5.9,11.7H4.2c-0.2,0-0.4-0.2-0.4-0.4V9.5C3.7,9.2,3.9,9,4.2,9h1.8c0.2,0,0.4,0.2,0.4,0.4v1.8
	C6.4,11.5,6.2,11.7,5.9,11.7z"/>
</svg>
