<?xml version="1.0" encoding="utf-8"?>
<!-- Generator: Adobe Illustrator 25.2.0, SVG Export Plug-In . SVG Version: 6.00 Build 0)  -->
<svg version="1.1" id="Слой_1" xmlns="http://www.w3.org/2000/svg" xmlns:xlink="http://www.w3.org/1999/xlink" x="0px" y="0px"
	 viewBox="0 0 20.8 20.8" style="enable-background:new 0 0 20.8 20.8;" xml:space="preserve">
<style type="text/css">
	.st0{fill:none;stroke:#1CA1C1;stroke-width:0.75;stroke-miterlimit:10;}
</style>
<line class="st0" x1="12.3" y1="16.7" x2="8.4" y2="16.7"/>
<path class="st0" d="M6,5.4v-4c0-0.6,0.5-1,1-1h6c0.6,0,1,0.5,1,1v7.1"/>
<path class="st0" d="M7.4,20.4h-6c-0.6,0-1-0.5-1-1V6.4c0-0.6,0.5-1,1-1h6c0.6,0,1,0.5,1,1v12.9C8.4,19.9,8,20.4,7.4,20.4z"/>
<path class="st0" d="M19.3,20.4h-6c-0.6,0-1-0.5-1-1V9.6c0-0.6,0.5-1,1-1h6c0.6,0,1,0.5,1,1v9.7C20.4,19.9,19.9,20.4,19.3,20.4z"/>
<path class="st0" d="M18.3,16.6h-0.8c-0.2,0-0.4-0.2-0.4-0.4v-0.8c0-0.2,0.2-0.4,0.4-0.4h0.8c0.2,0,0.4,0.2,0.4,0.4v0.8
	C18.7,16.4,18.5,16.6,18.3,16.6z"/>
<g>
	<path class="st0" d="M15.5,12.6h-0.8c-0.2,0-0.4-0.2-0.4-0.4v-0.8c0-0.2,0.2-0.4,0.4-0.4h0.8c0.2,0,0.4,0.2,0.4,0.4v0.8
		C15.9,12.5,15.8,12.6,15.5,12.6z"/>
</g>
<g>
	<path class="st0" d="M9.7,3.8H8.8c-0.2,0-0.4-0.2-0.4-0.4V2.6c0-0.2,0.2-0.4,0.4-0.4h0.8c0.2,0,0.4,0.2,0.4,0.4v0.8
		C10.1,3.6,9.9,3.8,9.7,3.8z"/>
</g>
<g>
	<path class="st0" d="M11.6,7.2h-0.8c-0.2,0-0.4-0.2-0.4-0.4V6c0-0.2,0.2-0.4,0.4-0.4h0.8C11.8,5.6,12,5.8,12,6v0.8
		C12,7,11.8,7.2,11.6,7.2z"/>
</g>
<g>
	<g>
		<path class="st0" d="M3.3,9.5H2.5c-0.2,0-0.4-0.2-0.4-0.4V8.3c0-0.2,0.2-0.4,0.4-0.4h0.8c0.2,0,0.4,0.2,0.4,0.4v0.8
			C3.7,9.3,3.5,9.5,3.3,9.5z"/>
	</g>
	<g>
		<path class="st0" d="M3.3,18.1H2.5c-0.2,0-0.4-0.2-0.4-0.4v-0.8c0-0.2,0.2-0.4,0.4-0.4h0.8c0.2,0,0.4,0.2,0.4,0.4v0.8
			C3.7,17.9,3.5,18.1,3.3,18.1z"/>
	</g>
</g>
<g>
	<path class="st0" d="M6.3,13.8H5.4c-0.2,0-0.4-0.2-0.4-0.4v-0.8c0-0.2,0.2-0.4,0.4-0.4h0.8c0.2,0,0.4,0.2,0.4,0.4v0.8
		C6.7,13.6,6.5,13.8,6.3,13.8z"/>
</g>
</svg>
