<?xml version="1.0" encoding="utf-8"?>
<!-- Generator: Adobe Illustrator 25.2.0, SVG Export Plug-In . SVG Version: 6.00 Build 0)  -->
<svg version="1.1" id="Слой_1" xmlns="http://www.w3.org/2000/svg" xmlns:xlink="http://www.w3.org/1999/xlink" x="0px" y="0px"
	 viewBox="0 0 783 85.4" style="enable-background:new 0 0 783 85.4;" xml:space="preserve">
<style type="text/css">
	.st0{fill:none;stroke:#05A0C4;stroke-width:3;stroke-linecap:round;stroke-linejoin:round;stroke-miterlimit:10;}
</style>
<line class="st0" x1="26.4" y1="1.5" x2="1.5" y2="83.9"/>
<line class="st0" x1="49.4" y1="1.5" x2="24.5" y2="83.9"/>
<line class="st0" x1="75.9" y1="1.5" x2="51" y2="83.9"/>
<line class="st0" x1="99" y1="1.5" x2="74.1" y2="83.9"/>
<line class="st0" x1="123.9" y1="1.5" x2="99" y2="83.9"/>
<line class="st0" x1="147" y1="1.5" x2="122.1" y2="83.9"/>
<line class="st0" x1="173.5" y1="1.5" x2="148.6" y2="83.9"/>
<line class="st0" x1="196.5" y1="1.5" x2="171.6" y2="83.9"/>
<line class="st0" x1="221.4" y1="1.5" x2="196.5" y2="83.9"/>
<line class="st0" x1="244.4" y1="1.5" x2="219.5" y2="83.9"/>
<line class="st0" x1="270.9" y1="1.5" x2="246" y2="83.9"/>
<line class="st0" x1="294" y1="1.5" x2="269.1" y2="83.9"/>
<line class="st0" x1="318.9" y1="1.5" x2="294" y2="83.9"/>
<line class="st0" x1="342" y1="1.5" x2="317.1" y2="83.9"/>
<line class="st0" x1="368.5" y1="1.5" x2="343.6" y2="83.9"/>
<line class="st0" x1="391.5" y1="1.5" x2="366.6" y2="83.9"/>
<line class="st0" x1="416.4" y1="1.5" x2="391.5" y2="83.9"/>
<line class="st0" x1="439.4" y1="1.5" x2="414.5" y2="83.9"/>
<line class="st0" x1="465.9" y1="1.5" x2="441" y2="83.9"/>
<line class="st0" x1="489" y1="1.5" x2="464.1" y2="83.9"/>
<line class="st0" x1="513.9" y1="1.5" x2="489" y2="83.9"/>
<line class="st0" x1="537" y1="1.5" x2="512.1" y2="83.9"/>
<line class="st0" x1="563.5" y1="1.5" x2="538.6" y2="83.9"/>
<line class="st0" x1="586.5" y1="1.5" x2="561.6" y2="83.9"/>
<line class="st0" x1="611.4" y1="1.5" x2="586.5" y2="83.9"/>
<line class="st0" x1="634.4" y1="1.5" x2="609.5" y2="83.9"/>
<line class="st0" x1="660.9" y1="1.5" x2="636" y2="83.9"/>
<line class="st0" x1="683.9" y1="1.5" x2="659.1" y2="83.9"/>
<line class="st0" x1="708.9" y1="1.5" x2="684" y2="83.9"/>
<line class="st0" x1="732" y1="1.5" x2="707.1" y2="83.9"/>
<line class="st0" x1="758.5" y1="1.5" x2="733.6" y2="83.9"/>
<line class="st0" x1="781.5" y1="1.5" x2="756.6" y2="83.9"/>
</svg>
