<?xml version="1.0" encoding="utf-8"?>
<!-- Generator: Adobe Illustrator 25.2.0, SVG Export Plug-In . SVG Version: 6.00 Build 0)  -->
<svg version="1.1" id="Слой_1" xmlns="http://www.w3.org/2000/svg" xmlns:xlink="http://www.w3.org/1999/xlink" x="0px" y="0px"
	 viewBox="0 0 44.4 40.1" style="enable-background:new 0 0 44.4 40.1;" xml:space="preserve">
<style type="text/css">
	.st0{fill:#EBF5FD;}
	.st1{fill:#1FA1C1;}
	.st2{fill:none;stroke:#19475E;stroke-width:0.75;stroke-linecap:round;stroke-linejoin:round;stroke-miterlimit:10;}
	.st3{fill:#19475E;}
</style>
<circle class="st0" cx="22.1" cy="17.5" r="17.5"/>
<path class="st1" d="M26.6,19.2v-3.7h-3.7l-2.6-2.6l-2.6,2.6h-3.7v3.7l-2.6,2.6l2.6,2.6v3.7h3.7l2.6,2.6l2.6-2.6h3.7v-3.7l2.6-2.6
	L26.6,19.2z M18.3,20c-0.8,0-1.5-0.7-1.5-1.5c0-0.8,0.7-1.5,1.5-1.5c0.8,0,1.5,0.7,1.5,1.5C19.9,19.4,19.2,20,18.3,20z M23.2,26.3
	c-0.8,0-1.5-0.7-1.5-1.5c0-0.8,0.7-1.5,1.5-1.5c0.8,0,1.5,0.7,1.5,1.5C24.8,25.6,24.1,26.3,23.2,26.3z"/>
<polyline class="st2" points="38.1,7.2 39.3,8.4 39.3,20.4 20.1,39.7 2.6,22.2 21.8,3 34,3.1 35.2,4.2 "/>
<polygon class="st2" points="23,28.2 26.7,28.2 26.7,24.5 29.3,21.9 26.7,19.2 26.7,15.5 23,15.5 20.3,12.9 17.7,15.5 14,15.5 
	14,19.2 11.3,21.9 14,24.5 14,28.2 17.7,28.2 20.3,30.9 "/>
<g>
	<path class="st3" d="M17.9,26.6c-0.1,0-0.1,0-0.2,0c-0.2-0.1-0.2-0.3-0.1-0.5l4.8-8.8c0.1-0.2,0.3-0.2,0.5-0.1
		c0.2,0.1,0.2,0.3,0.1,0.5l-4.8,8.8C18.2,26.6,18,26.6,17.9,26.6z"/>
</g>
<path class="st2" d="M32,12.6l-2.4-2.4c-0.7-0.7-0.7-1.9,0-2.6L30,7.1c0.7-0.7,1.9-0.7,2.6,0L35,9.6c0.7,0.7,0.7,1.9,0,2.6l-0.4,0.4
	C33.9,13.3,32.7,13.3,32,12.6z"/>
<circle class="st2" cx="18.4" cy="18.5" r="1.5"/>
<circle class="st2" cx="23.3" cy="24.7" r="1.5"/>
<line class="st2" x1="12.4" y1="7.2" x2="23.3" y2="7.2"/>
<line class="st2" x1="9.5" y1="7.2" x2="10.7" y2="7.2"/>
<g>
	<line class="st2" x1="32.8" y1="24.7" x2="42.9" y2="24.7"/>
	<line class="st2" x1="29.9" y1="24.7" x2="31.1" y2="24.7"/>
</g>
<line class="st2" x1="6.4" y1="7.2" x2="7.8" y2="7.2"/>
<line class="st2" x1="6.6" y1="33.8" x2="17.6" y2="33.8"/>
<line class="st2" x1="0.4" y1="14.1" x2="6.2" y2="14.1"/>
<line class="st2" x1="3.8" y1="33.8" x2="5" y2="33.8"/>
<line class="st2" x1="0.7" y1="33.8" x2="2.1" y2="33.8"/>
<path class="st2" d="M39.3,15.8c2.7-0.3,4.8-2.5,4.8-5.3c0-2.9-2.4-5.3-5.3-5.3c-2.2,0-4.1,1.3-4.9,3.2"/>
</svg>
