<?xml version="1.0" encoding="utf-8"?>
<!-- Generator: Adobe Illustrator 24.0.3, SVG Export Plug-In . SVG Version: 6.00 Build 0)  -->
<svg version="1.1" id="Слой_1" xmlns="http://www.w3.org/2000/svg" xmlns:xlink="http://www.w3.org/1999/xlink" x="0px" y="0px"
	 viewBox="0 0 67.5 35.3" style="enable-background:new 0 0 67.5 35.3;" xml:space="preserve">
<style type="text/css">
	.st0{fill:#FFFFFF;}
</style>
<path class="st0" d="M57.1,0l-25,24.9l-5.3-5.3l-5.4,5.3l-5.3-5.3l-5.4,5.3l-5.3-5.3L0,24.9v-3.5L5.4,16l5.3,5.4l5.4-5.4l5.3,5.4
	l5.4-5.3l5.3,5.3L53.5,0H57.1z"/>
<path class="st0" d="M46.4,0L32.1,14.2l-5.3-5.3l-5.4,5.3l-5.3-5.3l-5.4,5.3L5.4,8.9L0,14.2v-3.5l5.4-5.4l5.3,5.4l5.4-5.4l5.3,5.4
	l5.4-5.4l5.3,5.4L42.8,0H46.4z"/>
<path class="st0" d="M7.2,0l3.5,3.5L14.3,0H7.2z"/>
<path class="st0" d="M0,0v3.5L3.6,0H0z"/>
<path class="st0" d="M35.7,0l-3.6,3.5L28.6,0H35.7z"/>
<path class="st0" d="M17.9,0l3.5,3.5L25,0H17.9z"/>
<path class="st0" d="M67.5,0v0.3l-35,35h-0.7l-3.2-3.2l-1.8-1.8L25,32.1l-3.2,3.2h-0.7l-3.2-3.2l-1.8-1.8l-1.8,1.8l-3.2,3.2h-0.7
	l-3.2-3.2l-1.8-1.8l-1.8,1.8l-3.3,3.2H0v-3.2l5.4-5.3l5.3,5.3l5.4-5.3l5.3,5.3l5.4-5.3l5.3,5.3L64.2,0H67.5z"/>
<path class="st0" d="M67.5,18.2L50.3,35.3h3.6l13.6-13.6V18.2z"/>
<path class="st0" d="M67.5,32.4v-3.5L61,35.3h3.6L67.5,32.4z"/>
<path class="st0" d="M64.2,10.7L39.6,35.3h3.6l21-21.1l3.3-3.2V7.5L64.2,10.7z"/>
<path class="st0" d="M57.1,0l-25,24.9l-5.3-5.3l-5.4,5.3l-5.3-5.3l-5.4,5.3l-5.3-5.3L0,24.9v-3.5L5.4,16l5.3,5.4l5.4-5.4l5.3,5.4
	l5.4-5.3l5.3,5.3L53.5,0H57.1z"/>
<path class="st0" d="M46.4,0L32.1,14.2l-5.3-5.3l-5.4,5.3l-5.3-5.3l-5.4,5.3L5.4,8.9L0,14.2v-3.5l5.4-5.4l5.3,5.4l5.4-5.4l5.3,5.4
	l5.4-5.4l5.3,5.4L42.8,0H46.4z"/>
<path class="st0" d="M7.2,0l3.5,3.5L14.3,0H7.2z"/>
<path class="st0" d="M0,0v3.5L3.6,0H0z"/>
<path class="st0" d="M35.7,0l-3.6,3.5L28.6,0H35.7z"/>
<path class="st0" d="M17.9,0l3.5,3.5L25,0H17.9z"/>
</svg>
