<svg width="33" height="33" viewBox="0 0 33 33" fill="none" xmlns="http://www.w3.org/2000/svg">
<path d="M1.2 14C1.5 13.4 1.5 12.6 1.2 11.9L5.8 7.00002L10.4 11.9C10.1 12.6 10.1 13.4 10.4 14L5.8 19L1.2 14ZM15.7 19.9C15.4 20.5 15.4 21.3 15.7 21.9L11.1 26.9L6.5 21.9C6.8 21.3 6.8 20.5 6.5 19.9L11.1 14.9L15.7 19.9ZM11.8 11.9L16.4 7.00002L21 11.9C20.7 12.6 20.7 13.4 21 14L16.4 19L11.8 14C12.1 13.4 12.1 12.6 11.8 11.9ZM26.3 19.9C26 20.5 26 21.3 26.3 21.9L21.7 26.9L17.1 21.9C17.4 21.3 17.4 20.5 17.1 19.9L21.7 14.9L26.3 19.9ZM22.3 11.9L26.9 7.00002L31.5 11.9C31.2 12.6 31.2 13.4 31.5 14L26.9 19L22.3 14C22.6 13.4 22.6 12.6 22.3 11.9ZM2.2 32.5H3.7L1.2 29.9C1.4 29.5 1.5 29.2 1.5 28.8C1.5 28.5 1.4 28.1 1.2 27.8L5.8 22.8L10.4 27.8C10.3 28.1 10.2 28.5 10.2 28.8C10.2 29.2 10.3 29.5 10.4 29.9L7.9 32.5H9.4L11.1 30.8L12.8 32.5H14.3L11.8 29.9C11.9 29.5 12 29.2 12 28.8C12 28.5 11.9 28.1 11.8 27.8L16.4 22.8L21 27.8C20.8 28.1 20.8 28.4 20.8 28.8C20.8 29.2 20.8 29.5 21 29.9L18.5 32.5H20L21.7 30.8L23.3 32.5H24.8L22.3 29.9C22.5 29.5 22.6 29.2 22.6 28.8C22.6 28.5 22.5 28.1 22.3 27.8L26.9 22.8L31.5 27.8C31.4 28.1 31.3 28.4 31.3 28.8C31.3 29.2 31.4 29.5 31.5 29.9L29.1 32.5H30.6L32.2 30.8V26.9L27.6 21.9C27.9 21.3 27.9 20.5 27.6 19.9L32.2 14.9V11L27.6 6.10002C27.9 5.50002 27.9 4.70002 27.6 4.00002L30.6 0.900024H29.1L26.9 3.10002L24.8 0.900024H23.3L26.3 4.00002C26 4.70002 26 5.50002 26.3 6.10002L21.7 11L17.1 6.10002C17.4 5.50002 17.4 4.70002 17.1 4.00002L20 0.900024H18.5L16.4 3.10002L14.3 0.900024H12.8L15.7 4.00002C15.4 4.70002 15.4 5.50002 15.7 6.10002L11.1 11L6.5 6.10002C6.8 5.50002 6.8 4.70002 6.5 4.00002L9.4 0.900024H7.9L5.8 3.10002L3.7 0.900024H2.2L5.2 4.00002C4.8 4.70002 4.8 5.50002 5.2 6.10002L0.5 11V14.9L5.2 19.9C4.8 20.5 4.8 21.3 5.2 21.9L0.5 26.9V30.8L2.2 32.5Z" fill="white"/>
</svg>
