<?xml version="1.0" encoding="utf-8"?>
<!-- Generator: Adobe Illustrator 25.2.1, SVG Export Plug-In . SVG Version: 6.00 Build 0)  -->
<svg version="1.1" id="Слой_1" xmlns="http://www.w3.org/2000/svg" xmlns:xlink="http://www.w3.org/1999/xlink" x="0px" y="0px"
	 width="468.6px" height="81.7px" viewBox="0 0 468.6 81.7" style="enable-background:new 0 0 468.6 81.7;" xml:space="preserve">
<style type="text/css">
	.st0{fill:#E1101A;}
</style>
<path class="st0" d="M25.8,0c-4,0.2-7.8,1.1-11.1,2.6c-3.5,1.6-6.5,3.9-9,6.9C1.3,14.8-0.6,21,0.1,28C0.7,34,3.1,40,7.2,46.1
	c4.2,6.3,9.8,12.1,17.3,18.2c4.8,3.8,10.1,7.6,16.2,11.3c2.4,1.5,6.3,3.8,6.7,4c0.3,0.1,0.6,0.2,0.8,0.1c0.4,0,0.5-0.1,2.6-1.3
	c9.1-5.3,16.5-10.4,22.9-15.8c3.8-3.2,7.2-6.5,10-9.7c2-2.3,3.7-4.5,5.2-6.8c5.5-8.2,7.7-15.6,7.1-23.3c-0.2-2.3-0.7-4.4-1.4-6.2
	c-0.7-1.8-1.8-3.8-3.1-5.7c-1.9-2.6-4-4.7-6.5-6.4C80.8,1.7,75.8,0.3,69.8,0c-2.6-0.1-5.4,0.3-8.3,1.2c-4.5,1.3-8,3.5-10.6,6.6
	c-0.7,0.8-1.2,1.6-2.2,3.1c-0.3,0.4-0.5,0.8-0.5,0.8c-0.1,0-0.3-0.3-0.5-0.6c-1.3-2.3-2.7-4.1-4.5-5.6c-1.3-1.1-3.4-2.4-5.3-3.2
	C34.9,1,32,0.3,28.7,0C28.1,0,26.4,0,25.8,0z M63.3,11.8c3.3,0.3,6.9,1.3,10.7,3.1c4.5,2.1,7.5,4.5,9.2,7.2c1.3,2.1,1.6,4.3,1.1,6.5
	c-0.3,1.2-0.9,2.4-1.7,3.4c-0.3,0.4-1,1.1-1.4,1.4c-1.7,1.4-3.8,2-6.2,1.9c-3.2-0.1-6.9-1.7-9.8-4.2c-0.4-0.4-1.3-1.3-1.8-1.8
	c-1.1-1.3-2.3-2.8-3.5-4.7c-0.2-0.3-0.4-0.6-0.4-0.6c-0.1-0.1-0.2-0.1-0.3,0c-0.1,0.1-0.3,0.9-1.9,7.4c-0.5,2-0.5,2-0.5,2.1
	c0,0,0.2,0.1,0.3,0.2c2.1,1.4,3.8,4.2,4.6,7.6c0.5,1.9,0.6,3.7,0.3,5c-0.4,1.8-1.5,3.3-3.4,4.6c-1,0.7-2.3,1.3-4.1,2.1
	c-0.7,0.3-0.8,0.4-0.8,0.5c0,0.1,0.1,0.2,0.6,0.5c1.2,0.7,1.4,0.8,1.8,1.1c0.5,0.3,0.8,0.5,1.2,0.9c0.7,0.5,1.4,1.3,1.6,1.5
	c0.5,0.7,0.5,1.4-0.1,2c-0.4,0.5-1.1,0.8-1.7,0.8c-0.6,0-1.2-0.2-2-1c-0.5-0.5-0.7-0.8-1.1-1.4c-0.4-0.5-0.3-0.5-0.4-0.4
	c-0.1,0.1-0.2,0.6-0.2,0.9c0,0.5,0.1,1.3,0.7,4.6c0.3,2,0.4,2.5,0.4,3.2c0,1.1-0.2,1.6-0.8,1.8c-0.1,0-0.3,0.1-0.4,0.1
	c-0.3,0-2.4,0-2.6-0.1c-0.6-0.1-1.1-0.4-1.3-0.9c-0.2-0.3-0.2-0.6-0.4-1.3c-0.5-2.4-0.5-2.5-0.8-2.5c-0.2,0-0.2,0.1-0.3,0.4
	c-0.1,0.2-0.3,1.4-0.5,2.5c-0.1,0.4-0.2,0.8-0.3,1c-0.1,0.3-0.4,0.5-0.7,0.6C46.1,68,45.8,68,44.7,68c-1.5,0-1.8,0-2.1-0.1
	c-0.5-0.2-0.6-0.9-0.6-2c0-0.7,0.1-1.3,0.4-3.1c0.6-3.7,0.6-4.1,0.5-4.9c0-0.2-0.1-0.4-0.1-0.4c0-0.1,0-0.1-0.1-0.1
	c-0.5,0.8-1,1.4-1.5,2c-0.7,0.6-1.2,0.9-1.8,0.9c-1,0-2-0.7-2.3-1.5c-0.1-0.2-0.1-0.5,0-0.7c0.1-0.4,0.4-0.8,1-1.4
	c1.1-1,1.8-1.6,3.5-2.5c0.5-0.3,0.9-0.5,0.9-0.6c0.1-0.1,0.1-0.2,0-0.3c0,0-0.3-0.2-0.6-0.3c-2.4-1-4-1.8-5.2-2.7
	c-0.4-0.3-1.1-1-1.4-1.4c-0.8-1-1.2-2.1-1.3-3.4c0-0.4,0-1.5,0-2.1c0.3-2.6,1.2-5.2,2.5-7.1c0.7-1.1,1.6-2,2.5-2.6l0.3-0.2L38.8,31
	c-1.7-6.6-1.8-6.8-1.9-6.9c-0.1-0.1-0.2-0.1-0.3,0c0,0-0.2,0.3-0.4,0.6c-1.4,2.3-2.8,4.1-4.2,5.5c-2.6,2.7-6.2,4.7-9.5,5.2
	c-0.8,0.1-1,0.1-1.8,0.1c-0.8,0-1.2,0-1.8-0.1c-2.6-0.5-4.8-2.1-6.1-4.4c-1-1.8-1.4-4-0.9-5.8c0.7-3,3-5.7,6.6-8
	c1.9-1.2,4.5-2.5,6.9-3.4c2.5-0.9,4.8-1.5,7.1-1.8c0.7-0.1,2.1-0.1,2.7-0.1c2.3,0.2,4.1,0.8,5.8,2.1c2,1.5,3.4,3.7,4.1,6.6
	c0.4,1.6,0.6,3.2,0.7,5.9c0.1,1.4,0.3,4.9,0.3,4.9c0,0,0.1,0.1,0.1,0.1c0.1,0,0.1,0,0.8,0c0.5,0,1.1,0,1.9,0l1.1,0l0.1-0.1
	c0,0,0.1-0.1,0.1-0.1c0,0,0-0.9,0.1-1.8c0-1,0.1-2.2,0.1-2.7c0.1-2.2,0.1-3.3,0.3-4.5c0.5-3.7,1.9-6.5,4.2-8.3
	c1.8-1.4,3.8-2.2,6.3-2.3C61.6,11.7,62.7,11.7,63.3,11.8z"/>
<path d="M376.5,5.4c-4,0.2-7.1,1.4-9.7,3.6c-0.4,0.4-1.5,1.4-1.8,1.8c-2.7,3.2-4.2,7.4-4.8,12.9c-0.2,2.3-0.3,5-0.1,7.4
	c0.3,3.8,1,7.2,2.2,9.9c1.2,2.8,2.9,4.9,5,6.5c2.8,2.1,6.2,3.1,10.4,3.1c4.5,0,8.3-1.3,11.2-3.8c0.2-0.2,0.5-0.5,0.8-0.8
	c3.2-3.2,5-7.9,5.6-14c0.3-2.8,0.2-6-0.1-8.7c-0.4-3.6-1.3-6.8-2.6-9.3c-1.6-3.2-3.9-5.4-6.8-6.9c-1.9-1-3.9-1.5-6.3-1.7
	C378.9,5.4,377.1,5.4,376.5,5.4z M378.4,13c1.4,0.1,2.5,0.5,3.5,1.1c1.7,1.1,2.9,2.9,3.8,5.5c0.6,1.9,1,4.2,1.1,6.9
	c0.1,1.2,0,3.4-0.1,4.7c-0.3,3.8-1.1,6.6-2.4,8.4c-0.9,1.3-2,2.2-3.2,2.7c-1.9,0.8-4.4,0.9-6.3,0.2c-1.4-0.5-2.7-1.7-3.7-3.1
	c-1.2-1.8-2-4.3-2.3-7.4c-0.4-3.1-0.3-7.1,0.2-9.9c0.5-3.1,1.5-5.2,3-6.8c0.8-0.8,1.7-1.4,2.7-1.8C375.8,13.1,377.1,12.9,378.4,13z"
	/>
<path d="M130.4,5.6c-3.8,0.1-6.1,0.3-8.7,0.6c-0.9,0.1-2.3,0.3-2.4,0.3l-0.1,0V28c0,20.4,0,21.4,0,21.4c0.1,0,0.9,0.2,1.4,0.3
	c1.6,0.3,3.7,0.5,6.8,0.6c0.9,0,5.8,0.1,6.6,0c5.1-0.2,9.3-1.7,12.1-4.1c0.4-0.3,0.8-0.8,1.2-1.2c1.4-1.6,2.1-3.3,2.5-5.4
	c0.3-1.7,0.2-3.8-0.2-5.4c-0.3-1.1-0.8-2.3-1.4-3.2c-0.6-0.8-1.4-1.6-2.2-2.2c-1.2-0.8-2.9-1.5-4.7-1.9c-0.2,0-0.4-0.1-0.4-0.1
	c0,0,0-0.1,0-0.2v-0.2l0.4-0.1c1.9-0.5,3.4-1.3,4.7-2.6c1.4-1.4,2.2-3,2.5-5.1c0.4-2.2,0.2-4.5-0.5-6.2c-0.7-1.7-2-3.3-3.8-4.3
	c-0.4-0.3-1.4-0.7-1.9-0.9c-2-0.8-4.3-1.2-7.6-1.4C134.1,5.7,131,5.6,130.4,5.6z M133.4,12.7c1.6,0.1,2.7,0.3,3.6,0.8
	c0.7,0.3,1.1,0.6,1.5,1.1c0.8,0.8,1.1,1.7,1.3,2.9c0,0.5,0,1.3,0,1.7c-0.2,1.2-0.8,2.2-1.8,3c-1,0.9-2.2,1.5-3.7,2
	c-0.7,0.2-2.4,0.3-5.3,0.3h-1.6l0-5.8l0-5.8l0.2,0C128.6,12.7,132.1,12.6,133.4,12.7z M133.7,31.1c1.5,0.1,2.3,0.2,3,0.4
	c1.6,0.5,2.8,1.3,3.5,2.4c0.5,0.8,0.8,1.8,0.8,3.1c0,1.2-0.2,2-0.7,2.9c-1,1.7-2.6,2.7-5,3.2c-1.2,0.2-2.1,0.3-4.7,0.2
	c-1.9-0.1-2.6-0.1-3-0.3l-0.1,0v-6v-6l2.9,0C132.2,31,133.5,31,133.7,31.1z"/>
<path d="M201.1,27.9v21.9h4h4.1V38.4V27.1l-0.5-3.4c-0.3-1.9-0.5-3.4-0.5-3.4c0,0,0,0,0.1,0h0.1l1.7,3.4l1.7,3.4l8.2,11.5l8.2,11.5
	h3.1h3.1V28.2V6.2h-4h-4v11.5v11.5l0.5,3.2c0.3,1.8,0.5,3.3,0.5,3.3l0,0.1h-0.2h-0.2l-1.6-3.3l-1.6-3.3l-8.2-11.6L207.3,6l-3.1,0
	l-3.1,0V27.9z"/>
<path d="M245,27.9v21.9h4.1h4V38.4V27.1l-0.5-3.4c-0.3-1.9-0.5-3.4-0.5-3.4c0,0,0,0,0.1,0h0.1l1.7,3.4l1.7,3.4l8.2,11.5l8.2,11.5
	h3.1h3.1V28.2V6.2h-4h-4v11.5v11.5l0.5,3.2c0.3,1.8,0.5,3.3,0.5,3.3l0,0.1h-0.2H271l-1.6-3.3l-1.6-3.3l-8.2-11.6L251.3,6l-3.1,0
	L245,6V27.9z"/>
<path d="M158.9,20.7c0,8.4,0,14.8,0,15.3c0,1.3,0.1,2.2,0.3,3.2c1,5.8,4.4,9.3,10.2,10.7c1.9,0.4,4.1,0.6,6.3,0.6c0.5,0,1.1,0,1.3,0
	c3.8-0.3,6.7-1.3,8.9-3.2c0.4-0.3,1-1,1.3-1.3c0.8-1,1.5-2.1,2-3.3c0.9-2,1.4-4.2,1.5-6.9c0-0.3,0-5.6,0-15V6.2h-4h-4v14
	c0,8.9,0,14.2,0,14.6c-0.1,2.5-0.6,4.3-1.5,5.5c-0.7,1.1-1.8,1.8-3.2,2.2c-1.9,0.5-4.9,0.4-6.7-0.3c-1.3-0.5-2.4-1.5-3-2.8
	c-0.5-1-0.8-2.2-0.9-4.1c0-0.3,0-3.9,0-14.7l0-14.4h-4.3h-4.3V20.7z"/>
<path d="M285.2,6.3c0,0,3.2,6.2,7.1,13.7l7.1,13.6v8.1v8.1h4.3h4.3v-8.1v-8.1l6.9-13.2c3.8-7.3,7-13.4,7.1-13.6l0.2-0.4l-4.6,0
	l-4.6,0l-3.8,8.1l-3.9,8.1l-0.5,2.3c-0.3,1.3-0.5,2.3-0.5,2.4c0,0.1,0,0.1-0.2,0.1c-0.1,0-0.1,0-0.2,0c0,0-0.2-1.1-0.4-2.3l-0.4-2.3
	l-4-8.2l-4-8.2h-5.1C285.4,6.2,285.2,6.3,285.2,6.3z"/>
<path d="M328.9,28v21.8h13.8h13.8V46v-3.8h-9.5h-9.5v-18v-18h-4.3h-4.3V28z"/>
<path d="M397.8,6.3c0,0.1,15.9,42.8,16.2,43.6l0.1,0.2l3,0l3,0l8.1-21.9c4.4-12,8.1-21.9,8.1-21.9l0-0.1l-4.5,0l-4.5,0L423.2,19
	L419,31.7l-0.6,3.7l-0.6,3.7h-0.2c-0.1,0-0.2,0-0.2,0c0,0-0.3-1.7-0.6-3.7l-0.6-3.7l-4.2-12.3c-2.3-6.7-4.3-12.5-4.3-12.8l-0.2-0.5
	h-4.9L397.8,6.3L397.8,6.3z"/>
<path d="M442.5,28v21.8h13.1h13.1V46v-3.8h-8.8H451v-5.3v-5.3h7.9h7.9v-3.8V24h-7.9H451v-5.1v-5.1h8.6h8.6V10V6.2h-12.9h-12.9V28z"
	/>
<path d="M196.4,59.5c-0.1,0.1-0.3,0.2-0.5,0.3c-0.5,0.2-1.3,0.4-3.1,0.5c-0.7,0.1-1.5,0.2-1.9,0.3c-1.4,0.3-2.5,1-3.2,2
	c-0.7,1.1-1.2,2.6-1.4,4.8c-0.1,0.7-0.1,2.6,0,3.3c0.1,1.5,0.4,2.7,0.8,3.6c0.3,0.6,0.6,1.1,1.1,1.5c0.8,0.7,1.7,1.1,2.9,1.3
	c0.3,0,1.5,0,1.8,0c1.9-0.3,3.2-1.2,4-2.8c0.5-1,0.7-2.2,0.7-3.7c0-1.3-0.2-2.3-0.6-3.2c-0.4-0.8-0.9-1.4-1.7-1.8
	c-0.2-0.1-0.7-0.3-1-0.4c-1-0.3-2.3-0.2-3.3,0.1c-0.8,0.3-1.6,0.9-2,1.6c-0.1,0.2-0.2,0.2-0.2,0c0.3-1.9,0.7-2.8,1.5-3.3
	c0.6-0.4,1.1-0.5,2.5-0.6c1.5-0.1,2.4-0.3,2.9-0.4c0.2-0.1,0.6-0.3,0.8-0.4l0.1-0.1l-0.1-1.4C196.5,60.1,196.5,59.5,196.4,59.5
	C196.5,59.4,196.4,59.5,196.4,59.5z M192.7,67.9c0.9,0.2,1.4,0.9,1.6,2.2c0.1,0.4,0.1,1.5,0,1.9c-0.1,1-0.4,1.8-0.9,2.1
	c-0.5,0.4-1.2,0.6-1.9,0.4c-0.7-0.1-1.2-0.5-1.5-1.2c-0.6-1.2-0.6-3.2-0.1-4.3c0.4-0.7,0.9-1.1,1.7-1.2
	C191.8,67.8,192.4,67.8,192.7,67.9z"/>
<path d="M319.6,60.3c-0.7,0.2-1.3,0.3-1.3,0.3c0,0,0,0.1,0,0.2c0.3,1.4,1.4,2.4,2.9,2.7c1.4,0.3,2.8,0.1,3.8-0.6
	c0.6-0.4,1-0.9,1.2-1.5c0.1-0.2,0.3-0.8,0.2-0.8c0,0-2.3-0.6-2.3-0.6c-0.1,0-0.1,0-0.1,0.2c-0.2,0.9-0.6,1.3-1.2,1.5
	c-0.6,0.1-1.2-0.1-1.5-0.5c-0.2-0.2-0.4-0.7-0.4-1c0-0.1,0-0.2-0.1-0.2C320.9,60,320.3,60.1,319.6,60.3z"/>
<path d="M230.7,60.1c-0.1,0-0.3,0.1-0.4,0.1c-0.5,0.3-0.9,0.8-0.9,1.5c0,1,0.7,1.6,1.7,1.6c1,0,1.7-0.7,1.7-1.6
	c0-0.7-0.3-1.3-0.9-1.5C231.6,60,231.1,60,230.7,60.1z"/>
<path d="M236,60.1c-0.5,0.1-0.9,0.4-1.1,0.8c-0.2,0.3-0.2,0.5-0.2,0.9c0,0.3,0,0.4,0.1,0.6c0.2,0.5,0.5,0.8,1,1
	c0.3,0.1,0.8,0.1,1.1,0c0.5-0.1,0.9-0.5,1.1-1c0.1-0.2,0.1-0.7,0.1-1c-0.1-0.6-0.5-1-1.1-1.2C236.7,60,236.2,60,236,60.1z"/>
<path d="M170.3,64.6c-0.7,0.1-1.3,0.2-1.8,0.4c-0.5,0.2-0.8,0.4-1.1,0.7c-0.8,0.8-1.3,2-1.5,3.4l0,0.3h-0.9h-0.9v-2.3v-2.3h-1.6
	h-1.6v6v6h1.6h1.6v-2.4v-2.4h0.9h0.9l0,0.3c0.1,1.1,0.4,2.1,0.8,2.8c0.7,1.2,1.8,1.9,3.4,2.1c0.3,0,1.5,0,1.9,0
	c0.6-0.1,1.2-0.2,1.6-0.4c1.9-0.9,2.8-3,2.8-6.2c-0.1-2.6-0.8-4.3-2.3-5.3c-0.6-0.4-1.2-0.6-2-0.7C171.7,64.6,170.6,64.5,170.3,64.6
	z M171.3,67.2c0.4,0.1,0.9,0.3,1.1,0.6c0.3,0.4,0.5,1,0.6,1.9c0,0.4,0,2.2,0,2.6c-0.1,1-0.3,1.5-0.7,1.9c-0.2,0.2-0.4,0.3-0.7,0.4
	c-0.3,0.1-0.9,0.1-1.2,0c-0.9-0.2-1.3-0.9-1.6-2.2c-0.2-1.1-0.1-2.7,0.1-3.6c0.2-0.8,0.6-1.2,1.2-1.5
	C170.4,67.2,170.9,67.2,171.3,67.2z"/>
<path d="M233.2,64.6c-2.2,0.2-3.8,1.3-4.5,3.2c-0.4,1-0.5,2-0.5,3.4c0,1.1,0.1,1.8,0.4,2.6c0.6,1.8,1.7,2.9,3.3,3.3
	c1.1,0.3,2.4,0.3,3.6,0.1c0.9-0.2,1.9-0.6,2.6-1c0.1-0.1,0.3-0.2,0.3-0.2c0,0-0.2-0.5-0.5-1c-0.4-0.7-0.5-1-0.5-1
	c0,0-0.1,0.1-0.1,0.1c-0.2,0.1-0.9,0.4-1.2,0.5c-0.9,0.3-2.1,0.3-3,0.1c-0.6-0.2-1-0.6-1.3-1.1c-0.2-0.4-0.4-1-0.4-1.5l0-0.2h3.6
	h3.6l0-0.2c0.1-0.8,0.2-1.4,0.2-2.1c0-1.1-0.1-1.8-0.5-2.5c-0.4-0.8-1-1.5-1.8-1.8C235.6,64.6,234.4,64.5,233.2,64.6z M234.5,67.1
	c0.3,0.1,0.5,0.2,0.7,0.4c0.4,0.4,0.6,0.8,0.6,1.7l0,0.5h-2.2c-2.1,0-2.2,0-2.2,0c0,0,0-0.1,0-0.3c0.1-0.9,0.6-1.7,1.1-2.1
	c0.2-0.1,0.5-0.2,0.8-0.3c0.1,0,0.2,0,0.2,0C233.7,67,234.3,67.1,234.5,67.1z"/>
<path d="M378.6,64.6c-0.7,0.1-1.4,0.3-1.9,0.7c-0.3,0.2-0.7,0.6-0.9,0.9c-0.1,0.1-0.2,0.2-0.2,0.2c0,0-0.1-0.1-0.1-0.3
	c0-0.2-0.1-0.5-0.2-0.7l-0.1-0.4h-1.1h-1.1v8.4v8.4h1.6h1.6v-2.5v-2.5l0.1,0c0.7,0.3,1,0.4,1.8,0.4c2.7,0.1,4.6-1.3,5.4-3.8
	c0.3-0.8,0.4-1.7,0.4-2.9c0-1.2-0.1-2.1-0.3-2.9c-0.2-0.8-0.5-1.4-1-1.9c-0.8-0.8-1.8-1.2-3.2-1.2C379,64.6,378.7,64.6,378.6,64.6z
	 M378.9,67.3c0.1,0,0.3,0.1,0.4,0.1c1,0.5,1.4,1.9,1.2,4.2c-0.2,1.9-0.9,2.8-2.2,3c-0.5,0.1-1,0-1.4-0.1c-0.2-0.1-0.6-0.2-0.8-0.4
	l-0.1-0.1v-2.5V69l0.1-0.2c0.1-0.4,0.4-0.8,0.6-1.1c0.3-0.3,0.7-0.5,1.1-0.6C378.1,67.2,378.7,67.2,378.9,67.3z"/>
<path d="M398.8,64.6c-0.4,0-0.7,0.1-0.9,0.1c-2,0.4-3.4,1.8-3.9,3.9c-0.2,0.7-0.2,1.4-0.2,2.2c0,0.9,0.1,1.6,0.3,2.3
	c0.5,2,1.7,3.3,3.6,3.8c0.6,0.2,1,0.2,1.8,0.2c0.7,0,1,0,1.5-0.1c0.7-0.1,1.3-0.4,1.8-0.7c0.4-0.3,0.9-0.8,1.2-1.2
	c0.3-0.5,0.6-1.1,0.8-1.7c0.4-1.3,0.4-3.1,0.1-4.5c-0.3-1.3-0.7-2.2-1.5-2.9c-0.8-0.8-1.7-1.2-2.9-1.4
	C400.1,64.6,399.1,64.5,398.8,64.6z M400,67.3c0.7,0.2,1.2,0.6,1.5,1.5c0.3,0.7,0.4,1.8,0.3,2.8c-0.1,1.6-0.5,2.5-1.4,2.8
	c-0.3,0.2-0.5,0.2-1,0.2c-0.4,0-0.5,0-0.6-0.1c-0.9-0.3-1.5-1.1-1.7-2.5c-0.1-0.9-0.1-2.2,0.1-2.9c0.3-1.1,0.9-1.7,1.8-1.9
	C399.2,67.2,399.7,67.2,400,67.3z"/>
<path d="M122.5,64.7c-0.6,0-1.6,0.1-2.4,0.1c-0.3,0-0.5,0-0.5,0c0,0,0,2.7,0,6c0,3.3,0,6,0,6c0,0,0.2,0,0.4,0
	c1.7,0.2,4.1,0.2,5.2,0.1c2.2-0.2,3.4-0.9,4-2.1c0.3-0.7,0.4-1.8,0.1-2.6c-0.2-0.7-0.6-1.1-1.3-1.5c-0.2-0.1-0.7-0.3-0.9-0.3
	c-0.2,0-0.1-0.1,0.1-0.2c0.8-0.3,1.3-0.8,1.6-1.6c0.2-0.5,0.3-1,0.2-1.5c-0.2-1.3-1-2.1-2.5-2.4c-0.4-0.1-0.9-0.1-1.4-0.2
	C124.7,64.7,123.3,64.7,122.5,64.7z M124.7,67.3c0.3,0,0.7,0.1,0.8,0.2c0.2,0.1,0.4,0.3,0.4,0.5c0.1,0.2,0.1,0.6,0,0.8
	c-0.1,0.4-0.5,0.8-1.1,0.9c-0.2,0.1-0.3,0.1-1.2,0.1l-1,0v-1.3c0-0.7,0-1.3,0-1.3c0,0,0.2,0,0.4,0C123.6,67.2,124.4,67.2,124.7,67.3
	z M124.8,71.8c0.6,0.1,1,0.2,1.2,0.5c0.3,0.3,0.4,0.8,0.3,1.2c-0.1,0.6-0.6,0.9-1.5,1.1c-0.3,0-1.4,0-1.9,0l-0.3,0v-1.4v-1.4h0.9
	C124.1,71.7,124.7,71.8,124.8,71.8z"/>
<path d="M141.5,65.9c-0.1,4-0.4,6.4-0.9,7.5c-0.4,0.8-0.9,1-1.7,0.8c-0.1,0-0.1,0-0.1,0c0,0-0.4,2.5-0.4,2.5c0,0.1,0.4,0.2,0.7,0.3
	c0.6,0.1,1.5,0.1,2,0c0.5-0.1,0.9-0.4,1.2-0.8c0.7-0.8,1.1-1.9,1.5-3.5c0.2-0.9,0.3-1.8,0.5-3.7c0.1-0.5,0.1-1.1,0.1-1.2l0-0.2h1.2
	h1.2v4.6v4.6h1.6h1.6v-6v-6h-4.1h-4.1L141.5,65.9z"/>
<path d="M209.4,65.9c-0.1,4-0.4,6.4-0.9,7.5c-0.4,0.8-0.9,1-1.7,0.8c-0.1,0-0.1,0-0.1,0c0,0-0.4,2.5-0.4,2.5c0,0.1,0.4,0.2,0.7,0.3
	c0.6,0.1,1.5,0.1,2,0c0.5-0.1,0.9-0.4,1.2-0.8c0.7-0.8,1.1-1.9,1.5-3.5c0.2-0.9,0.3-1.8,0.5-3.7c0.1-0.5,0.1-1.1,0.1-1.2l0-0.2h1.2
	h1.2v4.6v4.6h1.6h1.6v-6v-6h-4.1h-4.1L209.4,65.9z"/>
<path d="M249.3,70.9v6h1.6h1.6v-2.4v-2.4h2h2v2.4v2.4h1.6h1.6v-6v-6h-1.6h-1.6v2.3v2.3h-2h-2v-2.3v-2.3h-1.6h-1.6V70.9z"/>
<path d="M270.5,70.9v6h1.6h1.6v-2.4v-2.4h2h2v2.4v2.4h1.6h1.6v-6v-6h-1.6h-1.6v2.3v2.3h-2h-2v-2.3v-2.3h-1.6h-1.6V70.9z"/>
<path d="M291.8,70.9v6l0.2,0c1.6,0.1,3.9,0.2,4.9,0.1c2.1-0.1,3.5-0.8,4.1-2c0.4-0.9,0.6-2.3,0.3-3.4c-0.3-1.5-1.4-2.3-3.2-2.5
	c-0.6-0.1-2-0.1-2.8,0.1c-0.2,0-0.4,0.1-0.4,0.1c0,0,0-1,0-2.1v-2.1h-1.6h-1.6V70.9z M296.8,71.3c0.8,0.1,1.2,0.4,1.4,1.1
	c0.1,0.3,0,0.9,0,1.1c-0.2,0.5-0.5,0.8-1.1,0.9c-0.3,0.1-1.2,0.1-1.7,0c-0.2,0-0.4-0.1-0.4-0.1c0,0,0-0.5,0-1.4v-1.4l0.2,0
	C295.6,71.3,296.3,71.2,296.8,71.3z"/>
<path d="M302.8,70.9v6h1.6h1.6v-6v-6h-1.6h-1.6V70.9z"/>
<path d="M317,70.9v6l1,0h1l2.1-2.7l2.1-2.7l0.5-0.9c0.3-0.5,0.5-0.9,0.6-0.9c0,0,0,0,0,0.1c0,0.1,0,0.5-0.1,0.9
	c0,0.7-0.1,1.1-0.1,3.5v2.7h1.6h1.6v-6v-6h-1h-1l-2.2,2.8l-2.2,2.8l-0.5,0.8c-0.4,0.6-0.5,0.9-0.5,0.9c0,0-0.1,0-0.1,0
	c0,0,0-0.3,0.1-0.8c0.1-0.7,0.1-0.8,0.1-3.7v-2.9h-1.6H317V70.9z"/>
<path d="M352.9,70.9v6h1.6h1.6v-2.5V72h0.4h0.4l1.5,2.5l1.5,2.5h1.8c1,0,1.8,0,1.8,0c0,0-0.7-1.3-1.6-2.8l-1.6-2.8l-0.7-0.5
	c-0.4-0.2-0.7-0.5-0.7-0.5c0,0,0.3-0.2,0.6-0.5l0.6-0.5l1.4-2.3c0.8-1.2,1.4-2.3,1.4-2.3c0,0-0.7,0-1.7,0h-1.7l-1.4,2.4l-1.4,2.4
	l-0.4,0.2L356,70l0-2.6l0-2.6h-1.6h-1.6V70.9z"/>
<path d="M416.9,65.9c-0.1,4-0.4,6.4-0.9,7.5c-0.4,0.8-0.9,1-1.7,0.8c-0.1,0-0.1,0-0.1,0c0,0-0.4,2.5-0.4,2.5c0,0.1,0.4,0.2,0.7,0.3
	c0.6,0.1,1.5,0.1,2,0c0.5-0.1,0.9-0.4,1.2-0.8c0.7-0.8,1.1-1.9,1.5-3.5c0.2-0.9,0.3-1.8,0.5-3.7c0.1-0.5,0.1-1.1,0.1-1.2l0-0.2h1.2
	h1.2v4.6v4.6h1.6h1.6v-6v-6H421h-4.1L416.9,65.9z"/>
<path d="M436.2,70.9v6l1,0h1l2.1-2.7l2.1-2.7l0.5-0.9c0.3-0.5,0.5-0.9,0.5-0.9c0,0,0,0,0,0.1c0,0.1,0,0.5-0.1,0.9
	c0,0.7-0.1,1-0.1,3.5v2.7h1.6h1.6v-6v-6h-1h-1l-2.2,2.8l-2.2,2.8l-0.5,0.9c-0.4,0.6-0.5,0.8-0.5,0.8c0,0-0.1,0-0.1,0
	c0,0,0-0.3,0.1-0.8c0.1-0.7,0.1-0.8,0.1-3.7v-2.9h-1.6h-1.6V70.9z"/>
<path d="M457.7,70.9v6h1.6h1.6v-2.5V72h0.4h0.4l1.5,2.5l1.5,2.5h1.8c1,0,1.8,0,1.8,0c0,0-0.7-1.3-1.6-2.8l-1.6-2.8l-0.7-0.5
	c-0.4-0.2-0.7-0.5-0.7-0.5c0,0,0.3-0.2,0.6-0.5l0.6-0.5l1.4-2.3c0.8-1.2,1.4-2.3,1.4-2.3c0,0-0.7,0-1.7,0h-1.7l-1.4,2.4l-1.4,2.4
	l-0.4,0.2l-0.4,0.2l0-2.6l0-2.6h-1.6h-1.6V70.9z"/>
</svg>
