<svg width="30" height="30" viewBox="0 0 30 30" fill="none" xmlns="http://www.w3.org/2000/svg">
<circle cx="15" cy="15" r="15" fill="#333333"/>
<mask id="path-2-inside-1" fill="white">
<path fill-rule="evenodd" clip-rule="evenodd" d="M12.1966 15.3253L9.73679 13.3213C9.27057 12.9415 9 12.3721 9 11.7707V6H20V11.7707C20 12.3721 19.7294 12.9415 19.2632 13.3213L16.8034 15.3253L19.2632 17.3292C19.7294 17.7091 20 18.2785 20 18.8798V24.6506H9V18.8798C9 18.2785 9.27057 17.7091 9.73679 17.3292L12.1966 15.3253Z"/>
</mask>
<path d="M12.1966 15.3253L12.8282 16.1006L13.7799 15.3253L12.8282 14.55L12.1966 15.3253ZM9.73679 13.3213L9.10518 14.0966H9.10518L9.73679 13.3213ZM9 6V5H8V6H9ZM20 6H21V5H20V6ZM19.2632 13.3213L19.8948 14.0966H19.8948L19.2632 13.3213ZM16.8034 15.3253L16.1718 14.55L15.2201 15.3253L16.1718 16.1006L16.8034 15.3253ZM19.2632 17.3292L19.8948 16.554H19.8948L19.2632 17.3292ZM20 24.6506V25.6506H21V24.6506H20ZM9 24.6506H8V25.6506H9V24.6506ZM9.73679 17.3292L9.10518 16.554H9.10518L9.73679 17.3292ZM12.8282 14.55L10.3684 12.546L9.10518 14.0966L11.565 16.1006L12.8282 14.55ZM10.3684 12.546C10.1353 12.3561 10 12.0714 10 11.7707H8C8 12.6727 8.40586 13.5269 9.10518 14.0966L10.3684 12.546ZM10 11.7707V6H8V11.7707H10ZM9 7H20V5H9V7ZM19 6V11.7707H21V6H19ZM19 11.7707C19 12.0714 18.8647 12.3561 18.6316 12.546L19.8948 14.0966C20.5942 13.5269 21 12.6727 21 11.7707H19ZM18.6316 12.546L16.1718 14.55L17.435 16.1006L19.8948 14.0966L18.6316 12.546ZM19.8948 16.554L17.435 14.55L16.1718 16.1006L18.6316 18.1045L19.8948 16.554ZM21 18.8798C21 17.9778 20.5942 17.1237 19.8948 16.554L18.6316 18.1045C18.8647 18.2944 19 18.5791 19 18.8798H21ZM21 24.6506V18.8798H19V24.6506H21ZM9 25.6506H20V23.6506H9V25.6506ZM8 18.8798V24.6506H10V18.8798H8ZM9.10518 16.554C8.40586 17.1237 8 17.9778 8 18.8798H10C10 18.5791 10.1353 18.2944 10.3684 18.1045L9.10518 16.554ZM11.565 14.55L9.10518 16.554L10.3684 18.1045L12.8282 16.1006L11.565 14.55Z" fill="white" mask="url(#path-2-inside-1)"/>
<path d="M10 19H19.5" stroke="white"/>
<path d="M24 16V10" stroke="white" stroke-linecap="round" stroke-linejoin="round"/>
<path d="M24 19.5V19" stroke="white" stroke-linecap="round" stroke-linejoin="round"/>
</svg>
