<svg width="30" height="30" viewBox="0 0 30 30" fill="none" xmlns="http://www.w3.org/2000/svg">
<path d="M15 30C23.2843 30 30 23.2843 30 15C30 6.71573 23.2843 0 15 0C6.71573 0 0 6.71573 0 15C0 23.2843 6.71573 30 15 30Z" fill="#005896"/>
<path d="M21.2701 6.41213H8.73017C8.42513 6.41081 8.12286 6.46991 7.84078 6.58603C7.55871 6.70216 7.30243 6.873 7.08674 7.08869C6.87104 7.30439 6.7002 7.56067 6.58408 7.84274C6.46796 8.12481 6.40885 8.42709 6.41018 8.73213V21.2721C6.41018 21.8848 6.65355 22.4723 7.08676 22.9055C7.51997 23.3388 8.10752 23.5821 8.72017 23.5821H14.9101V17.4521H13.3302C13.2311 17.4522 13.1359 17.4135 13.0649 17.3444C12.9939 17.2753 12.9528 17.1812 12.9502 17.0821V15.0821C12.9501 14.9831 12.9888 14.8879 13.0579 14.8169C13.127 14.7459 13.2211 14.7047 13.3202 14.7021H14.9101V12.8121C14.8637 12.3589 14.917 11.9009 15.0665 11.4705C15.216 11.04 15.4579 10.6475 15.7753 10.3206C16.0927 9.99369 16.4779 9.74025 16.9037 9.57812C17.3295 9.41598 17.7857 9.34909 18.2401 9.38213H19.8601C19.9609 9.38213 20.0576 9.42217 20.1288 9.49343C20.2001 9.56469 20.2401 9.66135 20.2401 9.76213V11.4321C20.2401 11.482 20.2303 11.5314 20.2112 11.5775C20.1921 11.6237 20.1641 11.6655 20.1288 11.7008C20.0935 11.7361 20.0517 11.7641 20.0055 11.7832C19.9594 11.8023 19.91 11.8121 19.8601 11.8121H18.8601C17.7801 11.8121 17.5801 12.3221 17.5801 13.0721V14.7221H20.0001C20.0527 14.7232 20.1045 14.7352 20.1523 14.7574C20.2 14.7795 20.2426 14.8114 20.2774 14.8509C20.3122 14.8903 20.3384 14.9366 20.3543 14.9868C20.3703 15.0369 20.3757 15.0898 20.3701 15.1421L20.1401 17.1421C20.1282 17.2323 20.0843 17.3152 20.0164 17.3758C19.9485 17.4363 19.8611 17.4705 19.7701 17.4721H17.6001V23.6121H21.2801C21.8928 23.6121 22.4803 23.3688 22.9135 22.9355C23.3467 22.5023 23.5901 21.9148 23.5901 21.3021V8.73213C23.5901 8.42878 23.5304 8.12839 23.4143 7.84813C23.2982 7.56787 23.128 7.31322 22.9135 7.09871C22.699 6.88421 22.4444 6.71406 22.1641 6.59797C21.8839 6.48188 21.5835 6.42213 21.2801 6.42213L21.2701 6.41213Z" fill="white"/>
</svg>
