<svg width="30" height="30" viewBox="0 0 30 30" fill="none" xmlns="http://www.w3.org/2000/svg">
<path d="M15 30C23.2843 30 30 23.2843 30 15C30 6.71573 23.2843 0 15 0C6.71573 0 0 6.71573 0 15C0 23.2843 6.71573 30 15 30Z" fill="#2CC0FF"/>
<path d="M23.312 9.51888C22.9318 9.68809 22.5368 9.82199 22.132 9.91888C22.5912 9.4952 22.9353 8.96187 23.132 8.36887C23.1471 8.33139 23.1498 8.29009 23.1397 8.25096C23.1297 8.21183 23.1075 8.17692 23.0763 8.15128C23.0451 8.12564 23.0065 8.11062 22.9662 8.10839C22.9258 8.10616 22.8859 8.11684 22.852 8.13888C22.2754 8.47813 21.6521 8.73083 21.002 8.88888H20.902C20.7842 8.88949 20.6703 8.84678 20.582 8.76888C19.9047 8.17399 19.0335 7.84684 18.132 7.84887C17.7501 7.84467 17.3696 7.89519 17.002 7.99888C16.4102 8.18339 15.8763 8.518 15.4522 8.97013C15.0281 9.42226 14.7283 9.97649 14.582 10.5789C14.4539 11.0406 14.4099 11.5216 14.452 11.9989C14.4586 12.0147 14.462 12.0317 14.462 12.0489C14.462 12.066 14.4586 12.083 14.452 12.0989C14.4198 12.1112 14.3842 12.1112 14.352 12.0989C13.0522 11.9919 11.7873 11.6242 10.6327 11.0177C9.47817 10.4113 8.45761 9.5784 7.63196 8.56887C7.61429 8.55104 7.59327 8.53688 7.5701 8.52721C7.54692 8.51755 7.52207 8.51257 7.49696 8.51257C7.47185 8.51257 7.447 8.51755 7.42382 8.52721C7.40065 8.53688 7.37963 8.55104 7.36196 8.56887V8.61888C6.94956 9.32951 6.78472 10.1569 6.89331 10.9714C7.0019 11.7858 7.37777 12.5411 7.96196 13.1189C7.6648 13.0485 7.37877 12.9374 7.11196 12.7889C7.08257 12.7706 7.04875 12.7608 7.01416 12.7603C6.97957 12.7599 6.94552 12.7689 6.91568 12.7864C6.88584 12.8039 6.86134 12.8292 6.84482 12.8596C6.8283 12.89 6.8204 12.9243 6.82196 12.9589C6.81245 13.6768 7.01146 14.3821 7.39487 14.9891C7.77828 15.5962 8.3296 16.079 8.98196 16.3789H8.87196C8.66387 16.3784 8.45629 16.3583 8.25196 16.3189C8.21875 16.3115 8.18415 16.3131 8.1518 16.3237C8.11944 16.3342 8.09051 16.3533 8.06803 16.3788C8.04555 16.4044 8.03034 16.4355 8.02399 16.4689C8.01765 16.5023 8.0204 16.5369 8.03196 16.5689C8.24939 17.2174 8.64184 17.7931 9.16597 18.2325C9.6901 18.672 10.3255 18.9579 11.002 19.0589C9.86975 19.8193 8.53581 20.2233 7.17196 20.2189H6.70196C6.63837 20.2169 6.576 20.2366 6.5251 20.2747C6.47421 20.3129 6.43783 20.3673 6.42196 20.4289C6.40735 20.4902 6.41312 20.5546 6.43838 20.6123C6.46364 20.6701 6.50702 20.718 6.56196 20.7489C8.11345 21.6523 9.87662 22.1284 11.672 22.1289C13.1642 22.1428 14.6416 21.8323 16.002 21.2189C17.2204 20.6534 18.307 19.8393 19.192 18.8289C20.0538 17.871 20.7318 16.7625 21.192 15.5589C21.6197 14.4203 21.8431 13.2151 21.852 11.9989V11.9389C21.8527 11.8444 21.8747 11.7514 21.9162 11.6665C21.9577 11.5817 22.0178 11.5073 22.092 11.4489C22.6604 10.9856 23.1559 10.4395 23.562 9.82888C23.5866 9.79432 23.5989 9.75252 23.597 9.71015C23.5951 9.66777 23.5791 9.62725 23.5515 9.59505C23.5239 9.56284 23.4863 9.5408 23.4447 9.53243C23.4031 9.52406 23.3599 9.52985 23.322 9.54888L23.312 9.51888Z" fill="white"/>
</svg>
