<svg width="64" height="38" viewBox="0 0 64 38" fill="none" xmlns="http://www.w3.org/2000/svg">
<path d="M31.7 33C35.5 29.5 37.9 24.5 37.9 19C37.9 13.4 35.5 8.39998 31.7 4.99998C28.3 1.99998 23.9 0.0999756 19 0.0999756C8.5 0.0999756 0 8.59998 0 19C0 29.5 8.5 38 19 38C23.9 37.9 28.3 36 31.7 33Z" fill="#3362AB"/>
<path d="M31.7002 33C35.5002 29.5 37.9002 24.5 37.9002 19C37.9002 13.4 35.5002 8.4 31.7002 5" fill="#3362AB"/>
<path d="M31.7002 33C35.5002 29.5 37.9002 24.5 37.9002 19C37.9002 13.4 35.5002 8.4 31.7002 5" stroke="#3362AB" stroke-width="0.3097"/>
<path d="M44.3998 0C39.4998 0 34.9998 1.89999 31.6998 4.89999C30.9998 5.49999 30.3998 6.19999 29.7998 6.89999H33.5998C34.0998 7.49999 34.5998 8.19999 34.9998 8.89999H28.2998C27.8998 9.49999 27.4998 10.2 27.1998 10.9H36.0998C36.3998 11.6 36.6998 12.2 36.8998 12.9H26.3998C26.1998 13.6 25.9998 14.2 25.7998 14.9H37.3998C37.6998 16.2 37.7998 17.5 37.7998 18.9C37.7998 21 37.4998 23 36.7998 24.9H26.2998C26.4998 25.6 26.7998 26.3 27.0998 26.9H35.9998C35.6998 27.6 35.2998 28.3 34.8998 28.9H28.1998C28.5998 29.6 29.0998 30.3 29.5998 30.9H33.3998C32.7998 31.6 32.1998 32.3 31.4998 32.9C34.8998 35.9 39.2998 37.8 44.1998 37.8C54.6998 37.8 63.0998 29.3 63.0998 18.8C63.3998 8.5 54.8998 0 44.3998 0Z" fill="#C9191B"/>
<path d="M16.5999 23.6H14.1999L15.5999 16.2L12.3999 23.6H10.2999L9.8999 16.3L8.49988 23.6H6.3999L8.19989 14H11.8999L12.0999 20L14.6999 14H18.4999L16.5999 23.6Z" fill="white"/>
<path d="M42.9999 23.6C42.3999 23.8 41.7999 23.9 41.2999 23.9C40.0999 23.9 39.3999 23.3 39.3999 22.2C39.3999 22 39.3999 21.7 39.4999 21.5L39.5999 20.7L39.6999 20.1L40.7999 14.1H43.0999L42.7999 15.9H43.9999L43.6999 17.8H42.4999L41.8999 21.1C41.8999 21.2 41.8999 21.4 41.8999 21.4C41.8999 21.8 42.1999 22 42.6999 22C42.9999 22 43.1999 22 43.2999 21.9L42.9999 23.6Z" fill="white"/>
<path d="M49.7998 15.9C49.5998 15.8 49.5998 15.8 49.4998 15.8C49.3998 15.8 49.2998 15.8 49.2998 15.8C49.1998 15.8 49.0998 15.8 48.9998 15.8C48.1998 15.8 47.6998 16.1 46.8998 17.1L47.0998 15.9H45.1998L43.7998 23.7H46.1998C46.9998 18.9 47.3998 18.1 48.4998 18.1C48.5998 18.1 48.6998 18.1 48.7998 18.1L49.0998 18.2L49.7998 15.9Z" fill="white"/>
<path d="M33.6002 18.3C33.6002 19.3 34.2002 20 35.4002 20.5C36.4002 20.9 36.5002 21 36.5002 21.4C36.5002 21.9 36.1002 22.1 35.1002 22.1C34.4002 22.1 33.7002 22 33.0002 21.8L32.7002 23.6H32.8002L33.2002 23.7C33.3002 23.7 33.6002 23.8 33.8002 23.8C34.4002 23.8 34.8002 23.9 35.1002 23.9C37.6002 23.9 38.8002 23.1 38.8002 21.3C38.8002 20.2 38.3002 19.6 37.1002 19.1C36.1002 18.7 36.0002 18.6 36.0002 18.2C36.0002 17.8 36.4002 17.6 37.2002 17.6C37.7002 17.6 38.3002 17.6 38.9002 17.7L39.2002 15.9C38.6002 15.8 37.7002 15.7 37.1002 15.7C34.5002 15.7 33.6002 16.9 33.6002 18.3Z" fill="white"/>
<path d="M22.5998 20.2C22.2998 20.2 22.1998 20.2 22.0998 20.2C20.7998 20.2 20.0998 20.6 20.0998 21.4C20.0998 21.9 20.3998 22.2 20.8998 22.2C21.7998 22.1 22.4998 21.3 22.5998 20.2ZM24.2998 23.6H22.2998L22.3998 22.8C21.7998 23.4 20.9998 23.7 19.8998 23.7C18.5998 23.7 17.7998 22.8 17.7998 21.6C17.7998 19.7 19.2998 18.6 21.8998 18.6C22.1998 18.6 22.4998 18.6 22.8998 18.7C22.9998 18.4 22.9998 18.3 22.9998 18.2C22.9998 17.7 22.5998 17.5 21.4998 17.5C20.7998 17.5 20.0998 17.6 19.5998 17.7L19.2998 17.8L19.0998 17.9L19.3998 16.1C20.5998 15.8 21.2998 15.7 22.1998 15.7C24.1998 15.7 25.2998 16.5 25.2998 18C25.2998 18.4 25.2998 18.7 25.0998 19.5L24.5998 22.3L24.4998 22.8L24.3998 23.2V23.5L24.2998 23.6Z" fill="white"/>
<path d="M30.8001 18.8C30.8001 18.6 30.8001 18.5 30.8001 18.4C30.8001 17.8 30.4001 17.4 29.7001 17.4C28.9001 17.4 28.4001 17.9 28.2001 18.8H30.8001ZM32.0001 23.5C31.2001 23.7 30.4001 23.8 29.6001 23.8C27.0001 23.8 25.6001 22.6 25.6001 20.3C25.6001 17.6 27.3001 15.6 29.7001 15.6C31.6001 15.6 32.9001 16.7 32.9001 18.4C32.9001 19 32.8001 19.5 32.6001 20.3H27.9001C27.9001 20.4 27.9001 20.5 27.9001 20.5C27.9001 21.4 28.6001 21.9 30.0001 21.9C30.8001 21.9 31.6001 21.7 32.5001 21.4L32.0001 23.5Z" fill="white"/>
<path d="M54.6999 19.1C54.6999 18.3 54.3999 17.5 53.3999 17.5C52.1999 17.5 51.4999 18.9 51.4999 20.2C51.4999 21.3 51.9999 22 52.8999 22C53.3999 22 54.4999 21.3 54.6999 20.1C54.6999 19.8 54.6999 19.4 54.6999 19.1ZM57.1999 20.1C56.7999 22.7 54.9999 23.9 52.5999 23.9C49.8999 23.9 48.8999 22.3 48.8999 20.3C48.8999 17.5 50.6999 15.7 53.4999 15.7C55.9999 15.7 57.1999 17.2 57.1999 19.2C57.2999 19.6 57.2999 19.6 57.1999 20.1Z" fill="white"/>
</svg>
