<?xml version="1.0" encoding="utf-8"?>
<!-- Generator: Adobe Illustrator 24.0.3, SVG Export Plug-In . SVG Version: 6.00 Build 0)  -->
<svg version="1.1" id="Capa_1" xmlns="http://www.w3.org/2000/svg" xmlns:xlink="http://www.w3.org/1999/xlink" x="0px" y="0px"
	 viewBox="0 0 512 512" style="enable-background:new 0 0 512 512;" xml:space="preserve">
<style type="text/css">
	.st0{fill:#FF0000;}
</style>
<g>
	<g transform="translate(1 1)">
		<g>
			<g>
				<path class="st0" d="M436,74C336-26,173.9-26,74,74C-26,174-26,336.1,74,436c100,100,262,100,362,0C536,336.1,536,174,436,74z
					 M405.8,405.8c-83.3,83.3-218.4,83.3-301.7,0c-83.3-83.3-83.3-218.4,0-301.7c83.3-83.3,218.4-83.3,301.7,0
					S489.2,322.5,405.8,405.8z"/>
				<path class="st0" d="M255,84.3c-11.8,0-21.3,9.6-21.3,21.3V319c0,11.8,9.6,21.3,21.3,21.3s21.3-9.6,21.3-21.3V105.7
					C276.3,93.9,266.8,84.3,255,84.3z"/>
				<path class="st0" d="M255,383c-11.8,0-21.3,9.6-21.3,21.3s9.6,21.3,21.3,21.3s21.3-9.6,21.3-21.3S266.8,383,255,383z"/>
			</g>
		</g>
	</g>
</g>
</svg>
