<?xml version="1.0" encoding="utf-8"?>
<!-- Generator: Adobe Illustrator 24.0.3, SVG Export Plug-In . SVG Version: 6.00 Build 0)  -->
<svg version="1.1" id="Слой_1" xmlns="http://www.w3.org/2000/svg" xmlns:xlink="http://www.w3.org/1999/xlink" x="0px" y="0px"
	 width="33px" height="33px" viewBox="0 0 33 33" style="enable-background:new 0 0 33 33;" xml:space="preserve">
<style type="text/css">
	.st0{fill:#FFFFFF;filter:url(#Adobe_OpacityMaskFilter);}
	.st1{mask:url(#path-1-inside-1_1_);fill:#5AC37D;}
	.st2{fill:none;stroke:#5AC37D;stroke-width:2;}
</style>
<defs>
	<filter id="Adobe_OpacityMaskFilter" filterUnits="userSpaceOnUse" x="12.7" y="-2" width="22.3" height="31.5">
		<feColorMatrix  type="matrix" values="1 0 0 0 0  0 1 0 0 0  0 0 1 0 0  0 0 0 1 0"/>
	</filter>
</defs>
<mask maskUnits="userSpaceOnUse" x="12.7" y="-2" width="22.3" height="31.5" id="path-1-inside-1_1_">
	<path class="st0" d="M14.7,2.9V0h14.7c1,0,1.9,0.4,2.6,1.1C32.6,1.8,33,2.7,33,3.7v23.8h-9"/>
</mask>
<path class="st1" d="M14.7,0v-2h-2v2H14.7z M29.3,0v-2V0z M33,27.5v2h2v-2H33z M16.7,2.9V0h-4v2.9H16.7z M14.7,2h14.7v-4H14.7V2z
	 M29.3,2c0.4,0,0.9,0.2,1.2,0.5l2.8-2.8c-1.1-1.1-2.5-1.7-4-1.7V2z M30.5,2.5C30.8,2.8,31,3.2,31,3.7h4c0-1.5-0.6-2.9-1.7-4
	L30.5,2.5z M31,3.7v23.8h4V3.7H31z M33,25.5h-9v4h9V25.5z"/>
<path class="st2" d="M1,29.4V7h20v25H4.4c-1,0-1.8-0.3-2.5-0.8C1.3,30.7,1,30,1,29.4z"/>
<path class="st2" d="M5,18h12"/>
<path class="st2" d="M5,14h12"/>
<path class="st2" d="M4.9,22.1h7"/>
</svg>
