<?xml version="1.0" encoding="utf-8"?>
<!-- Generator: Adobe Illustrator 24.0.3, SVG Export Plug-In . SVG Version: 6.00 Build 0)  -->
<svg version="1.1" id="Слой_1" xmlns="http://www.w3.org/2000/svg" xmlns:xlink="http://www.w3.org/1999/xlink" x="0px" y="0px"
	 width="144.7px" height="46.5px" viewBox="0 0 144.7 46.5" style="enable-background:new 0 0 144.7 46.5;" xml:space="preserve">
<style type="text/css">
	.st0{fill:url(#SVGID_1_);}
	.st1{fill:url(#SVGID_2_);}
</style>
<linearGradient id="SVGID_1_" gradientUnits="userSpaceOnUse" x1="27.3312" y1="44.7745" x2="27.3312" y2="-10.0541" gradientTransform="matrix(1 0 0 -1 0 49.0859)">
	<stop  offset="0" style="stop-color:#F7B114"/>
	<stop  offset="0.2" style="stop-color:#F7B114"/>
	<stop  offset="0.541" style="stop-color:#62B67C"/>
	<stop  offset="1" style="stop-color:#62B67C"/>
</linearGradient>
<path class="st0" d="M30.1,24.6c0.6,0.7,1.8,0.8,2.6,0c0.8-0.8,0.7-2,0-2.6c-0.7-0.7-1.9-0.7-2.6,0C29.4,22.8,29.4,24,30.1,24.6z
	 M34.6,22.1c-0.7,0.6-0.8,1.8,0,2.6c0.7,0.7,1.9,0.7,2.6,0c0.7-0.7,0.8-1.8,0-2.6C36.3,21.3,35.2,21.4,34.6,22.1z M30.2,17.7
	c-0.7,0.6-0.8,1.8,0,2.6c0.7,0.7,1.9,0.7,2.6,0c0.7-0.7,0.8-1.8,0-2.6C31.9,16.9,30.8,17,30.2,17.7z M37.1,20.2
	c0.7-0.7,0.7-1.8,0-2.5c-0.6-0.7-1.8-0.8-2.5,0c-0.7,0.7-0.7,1.8,0,2.5C35.4,21,36.5,20.8,37.1,20.2z M32.7,29
	c0.6-0.6,0.7-1.7,0-2.5c-0.8-0.8-1.9-0.6-2.5,0c-0.6,0.6-0.8,1.7,0,2.5C31,29.8,32.1,29.6,32.7,29z M28.3,24.6
	c0.6-0.6,0.7-1.7,0-2.5c-0.8-0.8-1.9-0.6-2.5,0c-0.6,0.6-0.8,1.7,0,2.5C26.6,25.4,27.7,25.2,28.3,24.6z M37.1,26.5
	c-0.6-0.6-1.7-0.8-2.5,0c-0.7,0.7-0.6,1.8,0,2.5c0.6,0.6,1.7,0.7,2.4,0C37.8,28.3,37.7,27.1,37.1,26.5z M28.3,17.7
	c-0.6-0.6-1.7-0.8-2.5,0c-0.7,0.7-0.6,1.8,0,2.5c0.6,0.6,1.7,0.7,2.4,0C29,19.5,29,18.3,28.3,17.7z M25.9,26.5
	c-0.6,0.6-0.7,1.7,0,2.4c0.7,0.7,1.8,0.6,2.4,0c0.6-0.6,0.7-1.7,0-2.4C27.5,25.8,26.4,25.9,25.9,26.5z M41.4,22.1
	c-0.7-0.7-1.7-0.7-2.4,0c-0.7,0.7-0.6,1.8,0,2.4c0.6,0.6,1.7,0.7,2.4,0C42.2,23.8,42.1,22.7,41.4,22.1z M30.3,15.7
	c0.6,0.6,1.6,0.8,2.4,0c0.7-0.7,0.6-1.8,0-2.4c-0.7-0.7-1.7-0.7-2.4,0C29.6,14,29.6,15.1,30.3,15.7z M37,15.7c0.6-0.6,0.7-1.7,0-2.4
	c-0.6-0.6-1.7-0.7-2.4,0c-0.7,0.7-0.6,1.8,0,2.4C35.4,16.5,36.5,16.3,37,15.7z M41.4,20.1c0.6-0.6,0.7-1.7,0-2.4
	c-0.6-0.6-1.7-0.7-2.4,0c-0.7,0.7-0.6,1.8,0,2.4C39.8,20.9,40.9,20.7,41.4,20.1z M39.1,28.9c0.6,0.6,1.7,0.7,2.3,0
	c0.6-0.6,0.7-1.7,0-2.3c-0.7-0.7-1.8-0.6-2.4,0C38.5,27.2,38.4,28.3,39.1,28.9z M25.9,13.4c-0.6,0.6-0.7,1.7,0,2.3
	c0.6,0.6,1.6,0.7,2.3,0c0.6-0.6,0.7-1.7,0-2.3C27.5,12.6,26.5,12.8,25.9,13.4z M23.9,22.2c-0.7-0.7-1.7-0.6-2.3,0
	c-0.7,0.7-0.6,1.7,0,2.4c0.6,0.6,1.6,0.7,2.3,0C24.5,23.8,24.5,22.8,23.9,22.2z M30.3,33.3c0.5,0.6,1.6,0.7,2.3,0
	c0.7-0.7,0.6-1.7,0-2.3c-0.7-0.7-1.7-0.6-2.3,0C29.6,31.6,29.7,32.7,30.3,33.3z M23.8,20.1c0.6-0.6,0.7-1.6,0-2.3
	c-0.6-0.6-1.6-0.7-2.3,0c-0.7,0.7-0.6,1.7,0,2.3C22.2,20.8,23.3,20.7,23.8,20.1z M37,33.3c0.6-0.6,0.7-1.6,0-2.3
	c-0.6-0.6-1.6-0.7-2.3,0c-0.7,0.7-0.6,1.7,0,2.3C35.4,34,36.4,33.9,37,33.3z M26,31c-0.6,0.6-0.7,1.6,0,2.3c0.6,0.6,1.6,0.7,2.3,0
	c0.6-0.6,0.7-1.6,0-2.3C27.5,30.3,26.5,30.5,26,31z M21.5,28.9c0.6,0.6,1.6,0.7,2.3,0c0.6-0.6,0.7-1.6,0-2.3c-0.7-0.7-1.7-0.6-2.3,0
	C21,27.2,20.9,28.2,21.5,28.9z M39.1,13.4c-0.6,0.6-0.7,1.6,0,2.3c0.6,0.6,1.6,0.7,2.3,0c0.6-0.6,0.7-1.6,0-2.3
	C40.7,12.7,39.6,12.9,39.1,13.4z M32.6,11.2c0.6-0.5,0.7-1.5,0-2.2c-0.6-0.6-1.6-0.6-2.2,0c-0.6,0.6-0.7,1.6,0,2.2
	C31.1,11.9,32.1,11.8,32.6,11.2z M45.7,24.4c0.6-0.6,0.7-1.5,0-2.2c-0.6-0.6-1.6-0.6-2.2,0c-0.6,0.6-0.7,1.6,0,2.2
	C44.2,25.2,45.2,25,45.7,24.4z M41.4,33.2c0.6-0.6,0.7-1.5,0-2.2c-0.6-0.6-1.6-0.6-2.2,0c-0.6,0.6-0.7,1.6,0,2.2
	C39.9,34,40.8,33.8,41.4,33.2z M43.5,17.8c-0.6,0.6-0.6,1.6,0,2.2c0.6,0.6,1.6,0.7,2.2,0c0.6-0.6,0.6-1.6,0-2.2
	C45,17.2,44.1,17.3,43.5,17.8z M34.8,11.2c0.6,0.6,1.5,0.6,2.2,0c0.6-0.6,0.6-1.6,0-2.2c-0.7-0.7-1.7-0.5-2.2,0
	C34.2,9.6,34.1,10.6,34.8,11.2z M45.7,26.6c-0.5-0.5-1.5-0.6-2.2,0c-0.6,0.7-0.5,1.6,0,2.2c0.6,0.5,1.5,0.6,2.2,0
	C46.3,28.2,46.3,27.2,45.7,26.6z M23.8,33.2c0.6-0.5,0.6-1.5,0-2.1c-0.6-0.6-1.5-0.6-2.2,0c-0.6,0.6-0.6,1.5,0,2.1
	C22.3,33.9,23.2,33.8,23.8,33.2z M32.5,37.6c0.5-0.5,0.6-1.5,0-2.1c-0.6-0.6-1.6-0.5-2.1,0c-0.5,0.5-0.6,1.5,0,2.1
	C31.1,38.3,32,38.1,32.5,37.6z M19.4,24.4c0.5-0.5,0.6-1.5,0-2.1c-0.6-0.6-1.6-0.5-2.1,0c-0.5,0.5-0.6,1.5,0,2.1
	C17.9,25.1,18.9,24.9,19.4,24.4z M34.8,37.6c0.5,0.5,1.5,0.6,2.1,0c0.6-0.6,0.6-1.6,0-2.1c-0.6-0.6-1.6-0.5-2.1,0
	C34.2,36.1,34.2,37,34.8,37.6z M43.6,15.6c0.5,0.5,1.5,0.7,2.1,0c0.6-0.6,0.6-1.5,0-2.1c-0.6-0.6-1.6-0.6-2.1,0
	C43,14.1,43,15,43.6,15.6z M39.2,11.2c0.5,0.5,1.5,0.6,2.1,0c0.6-0.6,0.6-1.6,0-2.1c-0.6-0.6-1.6-0.5-2.1,0
	C38.6,9.7,38.6,10.6,39.2,11.2z M19.3,26.7c-0.5-0.5-1.4-0.7-2.1,0c-0.6,0.6-0.5,1.6,0,2.1c0.6,0.6,1.5,0.6,2.1,0
	C19.9,28.2,19.9,27.2,19.3,26.7z M28.1,35.5c-0.5-0.5-1.4-0.7-2.1,0c-0.6,0.6-0.5,1.6,0,2.1c0.6,0.6,1.5,0.6,2.1,0
	C28.7,37,28.7,36,28.1,35.5z M45.7,33.2c0.5-0.5,0.6-1.4,0-2.1c-0.6-0.6-1.5-0.6-2.1,0c-0.5,0.5-0.6,1.5,0,2.1
	C44.2,33.8,45.2,33.7,45.7,33.2z M39.2,37.6c0.5,0.5,1.4,0.6,2,0c0.6-0.6,0.5-1.5,0-2c-0.6-0.6-1.5-0.5-2,0
	C38.7,36.1,38.6,37,39.2,37.6z M50,24.3c0.5-0.5,0.6-1.5,0-2c-0.5-0.5-1.4-0.6-2,0c-0.6,0.6-0.5,1.5,0,2C48.6,25,49.5,24.9,50,24.3z
	 M50,19.9c0.5-0.5,0.6-1.4,0-2c-0.6-0.6-1.4-0.6-2,0c-0.5,0.5-0.6,1.4,0,2C48.7,20.6,49.6,20.4,50,19.9z M36.8,6.7
	c0.5-0.5,0.6-1.4,0-2c-0.5-0.6-1.4-0.6-2,0c-0.5,0.5-0.6,1.4,0,2C35.5,7.4,36.4,7.2,36.8,6.7z M23.7,37.5c0.5-0.5,0.6-1.4,0-2
	c-0.6-0.6-1.4-0.5-2,0c-0.5,0.5-0.6,1.4,0,2C22.3,38.2,23.2,38,23.7,37.5z M19.3,33.1c0.5-0.5,0.6-1.4,0-2c-0.6-0.6-1.4-0.6-2,0
	c-0.5,0.5-0.6,1.4,0,2C17.9,33.8,18.8,33.6,19.3,33.1z M43.6,9.1c-0.5,0.5-0.6,1.4,0,2c0.6,0.6,1.5,0.5,2,0c0.5-0.5,0.6-1.4,0-2
	C45,8.5,44.1,8.7,43.6,9.1z M48,26.8c-0.5,0.5-0.6,1.4,0,2c0.5,0.5,1.4,0.6,2,0c0.5-0.5,0.6-1.4,0-2C49.4,26.1,48.5,26.3,48,26.8z
	 M32.4,41.9c0.5-0.5,0.6-1.3,0-1.9c-0.5-0.5-1.4-0.5-1.9,0c-0.5,0.5-0.6,1.4,0,1.9C31.1,42.5,32,42.4,32.4,41.9z M41.2,6.7
	c0.5-0.5,0.6-1.4,0-1.9c-0.5-0.5-1.4-0.5-1.9,0c-0.5,0.5-0.5,1.4,0,1.9C39.9,7.3,40.8,7.2,41.2,6.7z M50,15.5c0.5-0.5,0.6-1.3,0-1.9
	c-0.5-0.5-1.4-0.5-1.9,0c-0.5,0.5-0.6,1.4,0,1.9C48.7,16.1,49.5,16,50,15.5z M34.9,40c-0.5,0.4-0.6,1.3,0,1.9c0.6,0.6,1.4,0.5,1.9,0
	c0.5-0.5,0.6-1.3,0-1.9C36.2,39.4,35.3,39.5,34.9,40z M43.7,35.6c-0.5,0.4-0.6,1.3,0,1.9c0.6,0.6,1.4,0.5,1.9,0
	c0.5-0.5,0.6-1.3,0-1.9C45,35,44.1,35.1,43.7,35.6z M19.3,11.1c0.5-0.5,0.6-1.3,0-1.9c-0.6-0.6-1.5-0.5-1.9,0
	c-0.4,0.5-0.6,1.3,0,1.9C18,11.7,18.8,11.6,19.3,11.1z M21.8,6.7c0.4,0.5,1.3,0.6,1.9,0c0.6-0.6,0.5-1.4,0-1.9
	c-0.5-0.5-1.4-0.5-1.9,0C21.2,5.4,21.2,6.2,21.8,6.7z M13,28.7c0.4,0.5,1.3,0.6,1.9,0c0.6-0.6,0.5-1.4,0-1.9c-0.5-0.5-1.4-0.5-1.9,0
	C12.4,27.4,12.5,28.2,13,28.7z M26.1,41.9c0.4,0.5,1.3,0.6,1.9,0c0.6-0.6,0.5-1.4,0-1.9c-0.5-0.5-1.4-0.5-1.9,0
	C25.6,40.6,25.6,41.4,26.1,41.9z M50,31.2c-0.5-0.5-1.4-0.5-1.9,0c-0.5,0.5-0.5,1.4,0,1.9c0.4,0.4,1.3,0.6,1.9,0
	C50.5,32.5,50.4,31.7,50,31.2z M19.2,37.5c0.5-0.5,0.5-1.3,0-1.8c-0.5-0.5-1.4-0.5-1.9,0c-0.5,0.5-0.5,1.3,0,1.8
	C18,38.1,18.8,37.9,19.2,37.5z M41.2,41.9c0.5-0.5,0.6-1.3,0-1.8c-0.6-0.6-1.4-0.4-1.8,0c-0.5,0.4-0.6,1.3,0,1.8
	C39.8,42.4,40.7,42.4,41.2,41.9z M14.8,15.5c0.5-0.5,0.6-1.3,0-1.8c-0.6-0.6-1.4-0.4-1.8,0c-0.5,0.4-0.6,1.3,0,1.8
	C13.5,16,14.3,15.9,14.8,15.5z M45.5,4.8c-0.5-0.5-1.3-0.5-1.8,0c-0.5,0.5-0.5,1.4,0,1.8c0.4,0.4,1.2,0.6,1.8,0
	C46.1,6.1,46,5.3,45.5,4.8z M49.9,9.2c-0.5-0.5-1.3-0.5-1.8,0c-0.5,0.5-0.5,1.4,0,1.8c0.4,0.4,1.2,0.6,1.8,0
	C50.5,10.5,50.4,9.7,49.9,9.2z M23.6,41.8c0.5-0.5,0.5-1.3,0-1.8c-0.4-0.4-1.2-0.6-1.8,0c-0.6,0.6-0.4,1.4,0,1.8
	C22.3,42.4,23.1,42.3,23.6,41.8z M14.8,33c0.5-0.5,0.5-1.3,0-1.8c-0.4-0.4-1.2-0.6-1.8,0c-0.6,0.6-0.4,1.4,0,1.8
	C13.5,33.5,14.3,33.5,14.8,33z M54.3,24.2c0.5-0.4,0.5-1.3,0-1.8c-0.5-0.5-1.2-0.5-1.8,0c-0.5,0.5-0.5,1.3,0,1.8
	C53.1,24.8,53.9,24.7,54.3,24.2z M26.2,0.5c-0.5,0.4-0.5,1.2,0,1.8c0.5,0.4,1.2,0.5,1.7,0c0.5-0.5,0.5-1.3,0-1.8
	C27.4-0.1,26.6,0,26.2,0.5z M48.2,37.4c0.4,0.4,1.2,0.5,1.7,0c0.5-0.5,0.4-1.3,0-1.7c-0.5-0.5-1.3-0.5-1.7,0
	C47.6,36.2,47.7,37,48.2,37.4z M19.2,4.9c-0.5-0.5-1.3-0.5-1.7,0c-0.5,0.5-0.4,1.3,0,1.7c0.4,0.4,1.2,0.5,1.7,0
	C19.7,6.1,19.6,5.3,19.2,4.9z M14.8,9.3c-0.4-0.4-1.2-0.5-1.7,0c-0.5,0.5-0.4,1.3,0,1.7c0.5,0.4,1.2,0.5,1.7,0
	C15.3,10.5,15.2,9.7,14.8,9.3z M45.5,40.1c-0.4-0.4-1.2-0.5-1.7,0c-0.5,0.5-0.4,1.3,0,1.7c0.5,0.4,1.2,0.5,1.7,0
	C46,41.3,45.9,40.5,45.5,40.1z M30.6,44.5c-0.4,0.4-0.5,1.2,0,1.7c0.5,0.5,1.2,0.5,1.7,0c0.4-0.4,0.5-1.2,0-1.7
	C31.8,44,31,44.1,30.6,44.5z M8.7,19.8c0.4,0.4,1.1,0.5,1.7,0c0.5-0.5,0.4-1.3,0-1.7c-0.5-0.5-1.2-0.4-1.7,0
	C8.2,18.6,8.2,19.3,8.7,19.8z M54.2,31.3c-0.5-0.4-1.2-0.4-1.7,0c-0.4,0.5-0.4,1.2,0.1,1.7c0.4,0.4,1.1,0.5,1.7-0.1
	C54.7,32.4,54.7,31.7,54.2,31.3z M14.7,35.7c-0.4-0.4-1.1-0.5-1.6,0c-0.5,0.5-0.4,1.3,0,1.7c0.4,0.4,1.2,0.5,1.6,0
	C15.2,36.9,15.2,36.1,14.7,35.7z M19.1,40.1c-0.4-0.4-1.1-0.5-1.6,0c-0.5,0.5-0.4,1.3,0,1.7c0.4,0.4,1.2,0.5,1.6,0
	C19.6,41.3,19.5,40.5,19.1,40.1z M49.8,6.6c0.4-0.4,0.5-1.2,0-1.6c-0.4-0.4-1.1-0.5-1.6,0c-0.5,0.5-0.4,1.2,0,1.6
	C48.7,7.1,49.4,7,49.8,6.6z M27.9,46.2c0.4-0.4,0.5-1.2,0-1.7c-0.4-0.4-1.1-0.5-1.6,0c-0.5,0.5-0.4,1.2,0,1.7
	C26.8,46.7,27.5,46.6,27.9,46.2z M8.7,15.4c0.5,0.4,1.2,0.4,1.6,0c0.4-0.4,0.4-1.1,0-1.6c-0.5-0.5-1.2-0.4-1.6,0
	C8.3,14.2,8.2,14.9,8.7,15.4z M39.4,44.5c-0.4,0.4-0.5,1.1,0,1.6c0.5,0.5,1.2,0.5,1.6,0c0.4-0.4,0.5-1.1,0-1.6
	C40.5,44,39.8,44.2,39.4,44.5z M52.6,10.9c0.4,0.4,1.1,0.5,1.6,0c0.5-0.5,0.4-1.2,0-1.6c-0.5-0.5-1.2-0.4-1.6,0
	C52.2,9.8,52.2,10.5,52.6,10.9z M43.8,2.1c0.4,0.4,1.1,0.5,1.6,0c0.5-0.5,0.4-1.2,0-1.6c-0.5-0.5-1.2-0.4-1.6,0
	C43.4,1,43.4,1.7,43.8,2.1z M14.7,6.5c0.4-0.4,0.5-1.1,0-1.6c-0.4-0.4-1.1-0.5-1.6,0c-0.5,0.5-0.4,1.2,0,1.6
	C13.6,7,14.3,6.9,14.7,6.5z M10.3,32.9c0.4-0.4,0.5-1.1,0-1.6c-0.4-0.4-1.1-0.5-1.6,0c-0.5,0.5-0.4,1.2,0,1.6
	C9.2,33.4,9.9,33.3,10.3,32.9z M49.8,41.7c0.4-0.4,0.5-1.1,0-1.6c-0.4-0.4-1.1-0.5-1.6,0c-0.5,0.5-0.4,1.2,0,1.6
	C48.7,42.2,49.4,42.1,49.8,41.7z M17.5,0.6c-0.4,0.4-0.4,1.1,0,1.5c0.4,0.4,1.1,0.4,1.5,0c0.4-0.4,0.4-1.1,0-1.5
	C18.6,0.1,17.9,0.2,17.5,0.6z M14.6,41.7c0.4-0.4,0.5-1,0-1.5c-0.4-0.4-1-0.5-1.5,0c-0.4,0.4-0.4,1.1,0,1.5
	C13.6,42.2,14.3,42,14.6,41.7z M10.3,10.9c0.4-0.4,0.5-1,0-1.5c-0.4-0.4-1-0.5-1.5,0c-0.4,0.4-0.4,1.1,0,1.5
	C9.3,11.4,9.9,11.2,10.3,10.9z M17.6,46.1c0.3,0.4,1,0.4,1.4,0c0.4-0.4,0.3-1.1,0-1.4c-0.3-0.4-1-0.5-1.4,0
	C17.1,45.1,17.2,45.7,17.6,46.1z M10.2,35.8c-0.3-0.4-1-0.5-1.4,0c-0.5,0.5-0.3,1.1,0,1.4c0.3,0.3,1,0.4,1.4,0
	C10.7,36.8,10.6,36.2,10.2,35.8z M49.7,0.6c-0.3-0.4-1-0.4-1.4,0c-0.4,0.5-0.3,1.1,0,1.4c0.3,0.3,1,0.4,1.4,0
	C50.2,1.6,50.1,1,49.7,0.6z M5.8,24c0.3-0.3,0.5-0.9,0-1.4c-0.4-0.4-1-0.4-1.4,0c-0.4,0.4-0.4,1,0,1.4C4.9,24.5,5.5,24.4,5.8,24z
	 M4.4,18.2c-0.4,0.3-0.4,1,0,1.4c0.4,0.4,1,0.4,1.4,0c0.4-0.4,0.4-1,0-1.4C5.4,17.8,4.8,17.9,4.4,18.2z M54.1,41.6
	c0.4-0.4,0.4-1,0-1.3c-0.3-0.3-0.9-0.5-1.3,0c-0.4,0.4-0.3,1,0,1.4C53.1,42,53.7,42,54.1,41.6z M8.9,5.1C8.5,5.4,8.5,6,8.9,6.4
	c0.4,0.4,1,0.3,1.3,0c0.3-0.3,0.4-0.9,0-1.3C9.8,4.7,9.2,4.7,8.9,5.1z M49.7,46c0.3-0.3,0.4-0.9,0-1.3c-0.4-0.4-1-0.4-1.3,0
	c-0.4,0.4-0.4,1,0,1.3C48.8,46.5,49.4,46.3,49.7,46z M4.5,13.9c-0.3,0.3-0.4,0.9,0,1.3c0.4,0.4,0.9,0.4,1.3,0c0.3-0.3,0.4-0.9,0-1.3
	C5.4,13.5,4.8,13.6,4.5,13.9z M13.3,44.7c-0.3,0.3-0.4,0.9,0,1.2c0.3,0.3,0.9,0.4,1.2,0c0.3-0.3,0.3-0.9,0-1.2
	C14.1,44.3,13.6,44.4,13.3,44.7z M8.9,40.3c-0.3,0.3-0.4,0.9,0,1.2c0.3,0.3,0.9,0.4,1.3,0c0.3-0.3,0.3-0.9,0-1.2
	C9.7,39.9,9.2,40,8.9,40.3z M5.7,9.5c-0.3-0.3-0.8-0.4-1.2,0c-0.4,0.4-0.3,0.9,0,1.2c0.4,0.4,0.9,0.3,1.2,0
	C6.1,10.4,6.1,9.9,5.7,9.5z M4.6,37.1c0.3,0.3,0.8,0.3,1.1,0C6,36.8,6,36.3,5.7,36c-0.3-0.3-0.8-0.4-1.1,0
	C4.2,36.4,4.3,36.9,4.6,37.1z M1.3,23.9c0.3-0.3,0.3-0.7,0-1c-0.2-0.2-0.7-0.4-1,0c-0.3,0.3-0.3,0.8,0,1.1
	C0.6,24.2,1.1,24.1,1.3,23.9z M0.2,19.5c0.3,0.3,0.8,0.3,1,0c0.2-0.2,0.3-0.7,0-1c-0.3-0.3-0.8-0.3-1,0C0,18.7-0.1,19.1,0.2,19.5z
	 M1.2,27.2c-0.3-0.3-0.7-0.3-1,0c-0.3,0.3-0.3,0.8,0,1c0.2,0.2,0.7,0.3,1,0C1.6,27.9,1.5,27.5,1.2,27.2z M10,45.8
	c0.3-0.3,0.3-0.7,0-1c-0.3-0.3-0.7-0.3-1,0c-0.3,0.3-0.2,0.8,0,1C9.4,46.1,9.8,46.1,10,45.8z M5.6,40.5c-0.2-0.3-0.7-0.3-0.9,0
	c-0.3,0.3-0.2,0.7,0,0.9c0.2,0.2,0.6,0.3,0.9,0C5.9,41.1,5.8,40.7,5.6,40.5z M21.6,13.4c-0.6,0.5-0.7,1.5,0,2.2
	c0.7,0.7,1.7,0.6,2.2,0c0.5-0.6,0.6-1.5,0-2.2C23.1,12.7,22.1,12.9,21.6,13.4z M26,11.2c0.5,0.6,1.5,0.6,2.2,0
	c0.6-0.6,0.5-1.6,0-2.2c-0.6-0.6-1.5-0.6-2.2,0C25.3,9.7,25.4,10.7,26,11.2z M17.2,20c0.5,0.5,1.5,0.7,2.1,0c0.6-0.6,0.6-1.6,0-2.1
	c-0.6-0.6-1.6-0.5-2.1,0C16.7,18.5,16.7,19.4,17.2,20z M23.7,11.2c0.5-0.5,0.6-1.4,0-2.1c-0.6-0.6-1.5-0.6-2.1,0
	c-0.5,0.5-0.6,1.5,0,2.1C22.3,11.8,23.2,11.7,23.7,11.2z M17.3,13.5c-0.5,0.5-0.6,1.5,0,2c0.5,0.5,1.4,0.6,2,0c0.6-0.6,0.6-1.5,0-2
	C18.7,12.9,17.8,13,17.3,13.5z M32.5,6.7c0.5-0.5,0.5-1.5,0-2c-0.5-0.5-1.4-0.6-2,0c-0.6,0.6-0.5,1.5,0,2C31.1,7.3,32,7.3,32.5,6.7z
	 M26.1,4.7c-0.5,0.5-0.6,1.4,0,2c0.5,0.5,1.4,0.6,2,0c0.5-0.5,0.6-1.4,0-2C27.5,4.1,26.6,4.3,26.1,4.7z M14.9,24.3
	c0.5-0.5,0.6-1.3,0-1.9c-0.5-0.5-1.4-0.5-1.9,0c-0.5,0.5-0.6,1.4,0,1.9C13.6,24.9,14.4,24.8,14.9,24.3z M13,18
	c-0.5,0.4-0.6,1.3,0,1.9c0.6,0.6,1.4,0.5,1.9,0c0.5-0.5,0.6-1.3,0-1.9C14.3,17.4,13.4,17.5,13,18z M32.3,2.2c0.5-0.4,0.5-1.2,0-1.8
	c-0.5-0.5-1.3-0.5-1.8,0c-0.5,0.5-0.5,1.3,0,1.8C31.1,2.8,31.9,2.7,32.3,2.2z M36.8,2.2c0.5-0.4,0.5-1.2,0-1.8
	c-0.5-0.5-1.3-0.5-1.8,0c-0.5,0.5-0.5,1.3,0,1.8C35.6,2.7,36.4,2.6,36.8,2.2z M8.7,24.2c0.5,0.5,1.2,0.5,1.7,0
	c0.4-0.5,0.5-1.2,0-1.7c-0.5-0.5-1.3-0.4-1.7,0C8.3,22.9,8.2,23.7,8.7,24.2z M10.3,28.6c0.4-0.4,0.5-1.2,0-1.6
	c-0.4-0.4-1.1-0.5-1.6,0c-0.5,0.5-0.4,1.2,0,1.7C9.2,29.1,9.9,29,10.3,28.6z M5.8,27.1c-0.3-0.4-1-0.4-1.4,0c-0.4,0.4-0.3,1,0,1.4
	c0.3,0.3,0.9,0.4,1.4,0C6.2,28,6.2,27.4,5.8,27.1z M5.8,31.5c-0.3-0.3-0.8-0.4-1.3,0c-0.4,0.4-0.3,1,0,1.3c0.4,0.4,0.9,0.3,1.3,0
	C6.1,32.4,6.1,31.8,5.8,31.5z M0.4,36.9c0.2,0.2,0.5,0.2,0.7,0c0.2-0.2,0.2-0.5,0-0.7c-0.2-0.2-0.6-0.2-0.7,0
	C0.2,36.4,0.2,36.7,0.4,36.9z M10.1,1.7c0.3-0.3,0.3-0.8,0-1.1C9.8,0.3,9.3,0.3,9,0.6C8.7,0.9,8.7,1.4,9,1.7
	C9.3,1.9,9.8,1.9,10.1,1.7z M5.6,6.3c0.3-0.3,0.3-0.8,0-1.1c-0.3-0.3-0.8-0.3-1.1,0C4.2,5.5,4.2,6,4.5,6.3C4.8,6.6,5.3,6.6,5.6,6.3z
	"/>
<path d="M76.1,8.9c0-0.7,0.1-1.3,0.3-1.8c0.2-0.6,0.6-1,1-1.5c0.4-0.4,0.9-0.7,1.5-1c0.6-0.2,1.2-0.3,1.8-0.3c0.7,0,1.3,0.1,1.8,0.3
	c0.6,0.2,1,0.6,1.5,1c0.4,0.4,0.7,0.9,1,1.5c0.2,0.6,0.3,1.2,0.3,1.8v5.2c0,0.7-0.1,1.3-0.3,1.8c-0.2,0.6-0.6,1-1,1.5
	c-0.4,0.4-0.9,0.7-1.5,1c-0.6,0.2-1.2,0.3-1.8,0.3c-0.7,0-1.3-0.1-1.8-0.3c-0.6-0.2-1-0.6-1.5-1c-0.4-0.4-0.7-0.9-1-1.5
	c-0.2-0.6-0.3-1.2-0.3-1.8V8.9z M83.3,8.9c0-0.4-0.1-0.7-0.2-1C83,7.6,82.8,7.3,82.5,7c-0.2-0.2-0.5-0.4-0.9-0.6
	c-0.3-0.1-0.7-0.2-1-0.2c-0.4,0-0.7,0.1-1,0.2C79.3,6.6,79,6.8,78.7,7c-0.2,0.2-0.4,0.5-0.6,0.9c-0.1,0.3-0.2,0.7-0.2,1v5.2
	c0,0.4,0.1,0.7,0.2,1c0.1,0.3,0.3,0.6,0.6,0.9c0.2,0.2,0.5,0.4,0.9,0.6c0.3,0.1,0.7,0.2,1,0.2c0.4,0,0.7-0.1,1-0.2
	c0.3-0.1,0.6-0.3,0.9-0.6c0.2-0.2,0.4-0.5,0.6-0.9c0.1-0.3,0.2-0.7,0.2-1V8.9z M100.2,17.6l3.9-12.7c0.1-0.2,0.3-0.4,0.5-0.4h1.2
	c0.2,0,0.4,0.1,0.5,0.4l3.9,12.6c0.2,0.6-0.3,1.2-0.9,1.2h0c-0.4,0-0.8-0.3-0.9-0.6l-0.9-2.9c0,0,0,0,0,0c0,0,0,0,0,0H103
	c0,0-0.1,0-0.1,0.1l-0.8,2.8c-0.1,0.4-0.5,0.7-1,0.7H101C100.4,18.7,100,18.2,100.2,17.6z M103.5,13.3h3.4c0,0,0.1,0,0.1-0.1
	l-1.7-5.4c0-0.1-0.1-0.1-0.1,0L103.5,13.3C103.5,13.3,103.5,13.3,103.5,13.3z M97,12.9c-0.2-0.4-0.4-0.8-0.7-1
	c-0.3-0.3-0.5-0.5-0.8-0.7c-0.1,0-0.1-0.1,0-0.2c0.2-0.2,0.5-0.3,0.7-0.6c0.2-0.2,0.4-0.5,0.5-0.8c0.2-0.3,0.2-0.7,0.2-1.2
	c0-0.5-0.1-1.1-0.3-1.5c-0.2-0.5-0.5-0.9-0.8-1.2C95.5,5.3,95,5,94.6,4.8c-0.5-0.2-1-0.3-1.5-0.3h-3.7c-0.5,0-1,0.4-1,1
	c0,0.5,0.4,0.9,0.9,0.9H93c0.6,0,1.1,0.2,1.4,0.5C94.9,7.3,95,7.8,95,8.4s-0.2,1.1-0.5,1.4c-0.4,0.4-0.8,0.5-1.4,0.5h-3.9
	c-0.2,0-0.4,0.2-0.4,0.4v5.8h0v1.5c0,0.2,0.2,0.4,0.4,0.4h4.1c0.6,0,1.1-0.1,1.6-0.3c0.5-0.2,0.9-0.5,1.3-0.9
	c0.4-0.4,0.7-0.8,0.9-1.3c0.2-0.5,0.3-1,0.3-1.6C97.3,13.9,97.2,13.4,97,12.9z M94.8,16c-0.4,0.4-0.9,0.6-1.6,0.6h-2.5
	c0,0,0,0-0.1,0c0,0,0,0,0-0.1v-4.2c0,0,0,0,0-0.1c0,0,0,0,0.1,0h2.5c0.7,0,1.2,0.2,1.6,0.6c0.4,0.4,0.6,0.9,0.6,1.6
	C95.4,15.1,95.2,15.6,94.8,16z M71.9,28.8c-0.2-0.6-0.6-1-1-1.5c-0.4-0.4-0.9-0.7-1.5-1c-0.6-0.2-1.2-0.3-1.8-0.3
	c-0.8,0-1.4,0.1-1.9,0.4c-0.5,0.3-0.9,0.6-1.3,0.9c-0.1,0.1-0.3,0.3-0.4,0.4c-0.3,0.4-0.2,1.1,0.2,1.4c0.4,0.2,0.9,0.2,1.2-0.2
	c0-0.1,0.1-0.1,0.1-0.2c0.2-0.2,0.4-0.4,0.8-0.6c0.3-0.2,0.7-0.3,1.2-0.3c0.4,0,0.7,0.1,1,0.2c0.3,0.1,0.6,0.3,0.9,0.6
	c0.2,0.2,0.4,0.5,0.6,0.9c0.1,0.3,0.2,0.7,0.2,1v5.2c0,0.4-0.1,0.7-0.2,1c-0.1,0.3-0.3,0.6-0.6,0.9c-0.2,0.2-0.5,0.4-0.9,0.6
	c-0.3,0.1-0.7,0.2-1,0.2c-0.5,0-0.9-0.1-1.2-0.3c-0.3-0.2-0.6-0.4-0.8-0.6c0-0.1-0.1-0.1-0.1-0.2c-0.3-0.4-0.8-0.4-1.2-0.2
	c-0.5,0.3-0.6,1-0.2,1.4c0.1,0.1,0.2,0.3,0.4,0.4c0.3,0.3,0.7,0.6,1.3,0.9c0.5,0.3,1.2,0.4,1.9,0.4c0.7,0,1.3-0.1,1.8-0.3
	c0.6-0.2,1-0.6,1.5-1c0.4-0.4,0.7-0.9,1-1.5c0.2-0.6,0.3-1.2,0.3-1.8v-5.2C72.3,30,72.1,29.4,71.9,28.8z M96,40.2h-7.1
	c-0.2,0-0.3-0.2-0.3-0.3V26.6c0-0.2,0.2-0.3,0.3-0.3H96c0.5,0,0.9,0.4,0.9,0.9c0,0.5-0.4,0.9-0.9,0.9h-5.4c-0.1,0-0.1,0-0.1,0.1v3.9
	c0,0.1,0,0.1,0.1,0.1h3.6c0.5,0,0.9,0.4,0.9,0.9c0,0.5-0.4,0.9-0.9,0.9h-3.6c-0.1,0-0.1,0-0.1,0.1v4c0,0.1,0,0.1,0.1,0.1H96
	c0.5,0,0.9,0.4,0.9,0.9C96.9,39.8,96.5,40.2,96,40.2z M106.9,30.2c0-0.6-0.2-1.1-0.6-1.5c-0.4-0.4-0.9-0.6-1.5-0.6h-4.2
	c-0.5,0-0.9-0.4-0.9-0.9c0-0.5,0.4-0.9,0.9-0.9h4.2c0.5,0,1.1,0.1,1.5,0.3c0.5,0.2,0.9,0.5,1.3,0.9c0.4,0.4,0.6,0.8,0.9,1.3
	c0.2,0.5,0.3,1,0.3,1.5c0,0.5-0.1,1.1-0.3,1.5c-0.2,0.5-0.5,0.9-0.9,1.3c-0.4,0.4-0.8,0.6-1.3,0.9c-0.5,0.2-1,0.3-1.5,0.3h-2.6
	c-0.1,0-0.1,0.1-0.1,0.1l0,5.1c0,0.5-0.4,0.9-0.9,0.9c-0.5,0-0.9-0.4-0.9-0.9l0-6.8c0-0.2,0.2-0.4,0.4-0.4h4.2
	c0.6,0,1.1-0.2,1.5-0.6C106.7,31.3,106.9,30.8,106.9,30.2z M123.8,39.1V28.1h-0.6c-0.5,0-0.9-0.4-0.9-0.9c0-0.5,0.4-0.9,0.9-0.9h2.2
	c0.2,0,0.4,0.2,0.4,0.4v9.6c0,0.1,0.1,0.1,0.1,0l4.5-9.3c0.2-0.4,0.6-0.7,1.1-0.7c0.6,0,1.1,0.5,1.1,1.1l0,12.1
	c0,0.5-0.4,0.9-0.9,0.9s-0.9-0.4-0.9-0.9v-9.1c0-0.1-0.1-0.1-0.1,0l-4.5,9.3c-0.2,0.4-0.6,0.7-1.1,0.7
	C124.4,40.2,123.8,39.7,123.8,39.1z M82.9,27v5.1c0,0.1-0.1,0.1-0.1,0.1h-4.7c-0.1,0-0.1-0.1-0.1-0.1V27c0-0.5-0.4-0.9-0.9-0.9
	c-0.5,0-0.9,0.4-0.9,0.9v12.5c0,0.5,0.4,0.9,0.9,0.9c0.5,0,0.9-0.4,0.9-0.9v-5.2c0-0.1,0.1-0.1,0.1-0.1h4.7c0.1,0,0.1,0.1,0.1,0.1
	v5.2c0,0.5,0.4,0.9,0.9,0.9c0.5,0,0.9-0.4,0.9-0.9V27c0-0.5-0.4-0.9-0.9-0.9C83.4,26,82.9,26.4,82.9,27z M112,26.2
	c-0.2,0-0.3,0.2-0.3,0.3v4.9v8c0,0.5,0.4,0.9,0.9,0.9c0.5,0,0.9-0.4,0.9-0.9l0-11.2c0-0.1,0.1-0.1,0.1-0.1h5.4
	c0.5,0,0.9-0.4,0.9-0.9v0c0-0.5-0.4-0.9-0.9-0.9H112z M120.4,10.6h-2.9c-0.6,0-1.1-0.2-1.5-0.6c-0.4-0.4-0.6-0.9-0.6-1.5
	c0-0.6,0.2-1.1,0.6-1.5c0.4-0.4,0.9-0.6,1.5-0.6h4.3c0.5,0,0.9-0.4,0.9-1s-0.4-1-0.9-1l-4.3,0c-0.5,0-1.1,0.1-1.5,0.3
	c-0.5,0.2-0.9,0.5-1.3,0.9c-0.4,0.4-0.6,0.8-0.9,1.3c-0.2,0.5-0.3,1-0.3,1.5c0,0.7,0.1,1.3,0.4,1.8c0.3,0.5,0.6,0.9,1,1.2
	c0.4,0.3,0.8,0.6,1.3,0.8c0.1,0,0.1,0.1,0.1,0.2l-2.6,4.9c-0.3,0.6,0.1,1.3,0.8,1.3c0.4,0,0.7-0.2,0.9-0.5l2.9-5.6c0,0,0,0,0.1-0.1
	c0,0,0,0,0.1,0h2c0.1,0,0.1,0.1,0.1,0.1l0,5.1c0,0.5,0.4,0.9,0.9,0.9c0.5,0,0.9-0.4,0.9-0.9l0-7.1H120.4z M142.3,32.3h-2.9
	c-0.6,0-1.1-0.2-1.5-0.6c-0.4-0.4-0.6-0.9-0.6-1.5c0-0.6,0.2-1.1,0.6-1.5c0.4-0.4,0.9-0.6,1.5-0.6h4.3c0.5,0,0.9-0.4,0.9-0.9
	c0-0.5-0.4-1-0.9-1l-4.3,0c-0.5,0-1.1,0.1-1.5,0.3c-0.5,0.2-0.9,0.5-1.3,0.9c-0.4,0.4-0.6,0.8-0.9,1.3c-0.2,0.5-0.3,1-0.3,1.5
	c0,0.7,0.1,1.3,0.4,1.8c0.3,0.5,0.6,0.9,1,1.2c0.4,0.3,0.8,0.6,1.3,0.8c0.1,0,0.1,0.1,0.1,0.2l-2.4,4.9c-0.3,0.6,0.1,1.3,0.8,1.3
	l0,0c0.4,0,0.7-0.2,0.9-0.5l2.7-5.6c0,0,0,0,0.1-0.1c0,0,0,0,0.1,0h2c0.1,0,0.1,0.1,0.1,0.1l0.1,5.1c0,0.5,0.4,0.9,0.9,0.9
	c0.5,0,0.9-0.4,0.9-0.9l-0.1-7.1H142.3z M65.4,10.5V9.4l0-4.1c0-0.5-0.4-0.9-0.9-0.9c-0.5,0-0.9,0.4-0.9,0.9l0,1.1v4.7l0,6.6
	c0,0.5,0.4,0.9,0.9,0.9c0.5,0,0.9-0.4,0.9-0.9l0-4V10.5z M71.3,4.3c-0.5,0-0.9,0.4-0.9,0.9l0,4.1v4.4l0,4c0,0.5,0.4,0.9,0.9,0.9
	c0.5,0,0.9-0.4,0.9-0.9l0-12.5C72.3,4.8,71.8,4.3,71.3,4.3z"/>
<linearGradient id="SVGID_2_" gradientUnits="userSpaceOnUse" x1="67.9194" y1="14.264" x2="67.9194" y2="38.9374" gradientTransform="matrix(1 0 0 -1 0 49.0859)">
	<stop  offset="0" style="stop-color:#62B67C"/>
	<stop  offset="0.651" style="stop-color:#F7B114"/>
	<stop  offset="0.788" style="stop-color:#F7B114"/>
	<stop  offset="1" style="stop-color:#F7B114"/>
</linearGradient>
<path class="st1" d="M67,11.1v22.8c0,0.5,0.4,0.9,0.9,0.9c0.5,0,0.9-0.4,0.9-0.9c0,0,0,0,0,0V11.1c0,0,0,0,0,0
	c0-0.5-0.4-0.9-0.9-0.9C67.4,10.1,67,10.6,67,11.1z"/>
</svg>
