<svg width="62" height="62" viewBox="0 0 62 62" fill="none" xmlns="http://www.w3.org/2000/svg">
<g clip-path="url(#clip0)">
<path d="M61.4663 29.7106L53.4546 21.6991V10.3691C53.4546 9.36218 52.6382 8.54561 51.6311 8.54561H40.3009L32.2898 0.534112C31.9479 0.1922 31.484 0 31.0002 0C30.5164 0 30.0527 0.1922 29.7108 0.534112L21.6995 8.54579H10.3692C9.3622 8.54579 8.54562 9.36236 8.54562 10.3693V21.6993L0.53431 29.7106C-0.177778 30.4227 -0.177778 31.5773 0.53431 32.2896L8.54562 40.3011V51.6311C8.54562 52.638 9.3622 53.4546 10.3692 53.4546H21.6997L29.711 61.4663C30.0529 61.8082 30.5168 62.0004 31.0004 62.0004C31.484 62.0004 31.9479 61.8082 32.2898 61.4663L40.3011 53.4546H51.6313C52.6384 53.4546 53.4548 52.638 53.4548 51.6311V40.3011L61.4665 32.2896C61.8084 31.9475 62.0006 31.4838 62.0006 31.0002C62.0006 30.5166 61.8082 30.0527 61.4663 29.7106ZM50.3417 38.256C49.9997 38.5981 49.8075 39.0618 49.8075 39.5454V49.8072H39.5456C39.062 49.8072 38.5981 49.9994 38.2562 50.3413L31.0002 57.5976L23.7444 50.3414C23.4025 49.9995 22.9386 49.8073 22.455 49.8073H12.1927V39.5456C12.1927 39.062 12.0005 38.5983 11.6586 38.2562L4.40256 31L11.6586 23.744C12.0005 23.4019 12.1927 22.9382 12.1927 22.4546V12.1927H22.455C22.9386 12.1927 23.4025 12.0005 23.7444 11.6586L31.0002 4.40255L38.256 11.6587C38.5979 12.0006 39.0618 12.1928 39.5454 12.1928H49.8074V22.4546C49.8074 22.9382 49.9996 23.4019 50.3415 23.744L57.5978 31L50.3417 38.256Z" fill="#1F613B"/>
<path d="M26.41 21.1045C26.4687 21.1011 26.5217 21.0695 26.5531 21.0199C26.5845 20.9705 26.5901 20.9089 26.5681 20.8545L25.3981 17.9431C25.3771 17.8906 25.333 17.8508 25.2781 17.8355C25.2232 17.82 25.1652 17.8311 25.1196 17.865C24.9387 18.0007 24.7329 18.1318 24.515 18.2708C24.052 18.5654 23.5733 18.8701 23.2571 19.2675C23.213 19.3229 23.2047 19.3988 23.2365 19.4621C24.223 21.4552 23.8463 24.5793 23.5436 27.0899C23.4734 27.6729 23.4072 28.2236 23.3623 28.7214C23.2024 30.5013 21.7401 31.298 20.3617 31.298C19.364 31.298 18.4948 30.8741 18.0934 30.1913C17.664 29.461 17.7639 28.4867 18.3826 27.3742C18.4178 27.3111 18.4125 27.2332 18.3687 27.1756C18.3299 27.1242 18.2701 27.0946 18.2046 27.0946C17.7794 27.0946 16.0396 29.6266 15.9491 31.5222C15.9002 32.5466 16.301 33.8116 18.4871 34.0202C18.6809 34.0388 18.8857 34.0481 19.0958 34.0481C21.2145 34.0481 24.6747 33.0211 24.9375 30.2657C24.9759 29.8618 24.9962 29.2065 25.0201 28.4475C25.0934 26.0869 25.2467 21.1745 26.41 21.1045Z" fill="#B7AA74"/>
<path d="M47.3123 29.0309C46.3429 28.91 45.4881 28.5099 44.7676 27.8383C44.4817 27.5848 44.1903 27.314 43.9082 27.0518C43.1096 26.3096 42.2838 25.5421 41.3687 24.9595C41.1625 24.8282 40.9314 24.7616 40.6811 24.7616C39.4225 24.7616 38.0938 26.3879 37.9582 27.3709C37.894 27.837 38.0853 28.1684 38.4835 28.2805C38.5565 28.3006 38.6349 28.2741 38.6801 28.2129C39.0804 27.6676 39.4659 27.4025 39.8579 27.4025C40.405 27.4025 40.9823 27.9109 41.5939 28.4494C41.8479 28.6727 42.1074 28.9014 42.382 29.112C41.4385 29.2269 40.5488 29.2875 39.7864 29.2875C38.3276 29.2875 36.5688 29.0692 36.4764 28.03C36.3057 26.1189 36.6463 24.0847 36.9749 22.1175C37.1483 21.0812 37.3276 20.0095 37.4259 18.9829C37.4323 18.9141 37.3994 18.8476 37.3411 18.8109C37.2824 18.7744 37.2081 18.7743 37.1491 18.8098C35.3064 19.9335 34.663 21.6113 33.9821 23.3876C33.5217 24.5893 33.0468 25.8282 32.1728 27.0099C31.6664 23.4534 30.3137 20.7482 28.046 18.7495C27.9975 18.7068 27.9295 18.6926 27.8686 18.7132C27.8073 18.733 27.761 18.7845 27.7471 18.8474C27.6755 19.1743 27.5879 19.5006 27.5028 19.8159C27.0664 21.4342 26.6545 22.9631 28.5637 24.1128C28.6171 24.1453 28.6837 24.1477 28.74 24.1196C28.796 24.0913 28.8334 24.0362 28.8394 23.9737L28.86 23.7549C29.9534 25.3393 30.5579 26.7575 30.8488 28.4034C30.342 28.8465 29.5993 29.2379 28.8803 29.6166C27.976 30.0929 27.0414 30.5853 26.5385 31.202C26.4818 31.2715 26.4843 31.3719 26.5441 31.4389C27.2298 32.2057 27.9749 32.5946 28.7584 32.5946C31.4777 32.5946 33.9114 27.9774 35.0226 25.4958C35.0174 25.5303 35.0119 25.5647 35.0066 25.5988C34.5892 28.2852 34.1576 31.063 37.4623 31.9323C37.4747 31.9358 37.4877 31.9376 37.5008 31.9381C37.8001 31.9509 38.129 31.9575 38.4791 31.9575H38.4795C39.8069 31.9575 46.472 31.8282 47.4597 29.2771C47.4799 29.2247 47.475 29.166 47.4462 29.1179C47.4174 29.0701 47.3679 29.0378 47.3123 29.0309Z" fill="#B7AA74"/>
<path d="M23.3203 37.7642H21.6564V35.4775H20.4692V41.1941H21.6564V38.7904H23.3203V41.1941H24.5074V35.4775H23.3203V37.7642Z" fill="#B7AA74"/>
<path d="M26.4505 35.4629L25.0212 41.1942H26.2963L26.5676 39.963H27.9673L28.2458 41.1942H29.5137L28.0848 35.4629H26.4505ZM26.795 38.9369L27.264 36.8335L27.733 38.9369H26.795Z" fill="#B7AA74"/>
<path d="M31.2149 35.4775H30.0278V41.1941H33.3259V40.1682H31.2149V35.4775Z" fill="#B7AA74"/>
<path d="M34.9681 35.4629L33.5388 41.1942H34.8142L35.0852 39.963H36.4853L36.7637 41.1942H38.0316L36.6023 35.4629H34.9681ZM35.3126 38.9369L35.7816 36.8335L36.2506 38.9369H35.3126Z" fill="#B7AA74"/>
<path d="M39.7329 35.4775H38.5454V41.1941H41.8434V40.1682H39.7329V35.4775Z" fill="#B7AA74"/>
</g>
<defs>
<clipPath id="clip0">
<rect width="62" height="62" fill="white"/>
</clipPath>
</defs>
</svg>
