<svg width="62" height="62" viewBox="0 0 62 62" fill="none" xmlns="http://www.w3.org/2000/svg">
<path d="M38.9669 41.5768L34.5884 40.9405L32.6303 36.9729H29.37L27.4119 40.9405L23.0334 41.5768L22.0259 44.6775L25.1942 47.7657L24.4463 52.1266L27.084 54.0429L31.0001 51.9842L34.9163 54.043L37.554 52.1267L36.8061 47.7659L39.9744 44.6776L38.9669 41.5768ZM33.3519 49.1162L31.0001 47.8798L28.6484 49.1162L29.0975 46.4975L27.195 44.643L29.8243 44.2609L31.0001 41.8784L32.176 44.2609L34.8053 44.643L32.9028 46.4975L33.3519 49.1162Z" fill="#C0B485"/>
<path d="M35.8276 29.9087C36.2335 29.1453 36.4645 28.2754 36.4645 27.3521C36.4645 26.7098 36.3523 26.0934 36.1478 25.5205H42.7593V21.8877H40.8162L48.1122 0H13.8882L21.1841 21.8877H19.2409V25.5205H25.8525C25.648 26.0934 25.5357 26.7098 25.5357 27.3521C25.5357 28.2753 25.7668 29.1452 26.1727 29.9087C19.4739 31.9748 14.592 38.2237 14.592 45.5918C14.592 54.6393 21.9527 62 31.0002 62C40.0477 62 47.4084 54.6393 47.4084 45.5918C47.4084 38.2237 42.5265 31.9748 35.8276 29.9087ZM38.2961 17.96L33.5204 3.63281H43.0719L38.2961 17.96ZM18.9286 3.63281H29.691L35.776 21.8877H25.0135L18.9286 3.63281ZM29.1686 27.3521C29.1686 26.3421 29.9903 25.5205 31.0002 25.5205C32.0101 25.5205 32.8317 26.3421 32.8317 27.3521C32.8317 28.362 32.0101 29.1836 31.0002 29.1836C29.9903 29.1836 29.1686 28.362 29.1686 27.3521ZM31.0002 58.3672C23.9558 58.3672 18.2248 52.6362 18.2248 45.5918C18.2248 38.5474 23.9558 32.8164 31.0002 32.8164C38.0446 32.8164 43.7756 38.5474 43.7756 45.5918C43.7756 52.6362 38.0446 58.3672 31.0002 58.3672Z" fill="#1F613B"/>
</svg>
