<svg width="56" height="62" viewBox="0 0 56 62" fill="none" xmlns="http://www.w3.org/2000/svg">
<path d="M55.1913 24.5652H52.6027C52.4254 20.8944 51.3626 12.6926 45.6482 6.72155C41.3797 2.26143 35.442 0 27.9997 0C20.5574 0 14.6198 2.26143 10.3515 6.72155C4.63709 12.6927 3.57425 20.8944 3.39697 24.5652H0.808228V42.6403H6.57568C6.9518 44.0492 7.50277 45.6852 8.31035 47.3738C11.0855 53.1767 15.6465 57.0195 21.5566 58.5655V62H34.443V58.5655C40.3531 57.0195 44.9141 53.1767 47.6892 47.3738C48.4968 45.6852 49.0477 44.0492 49.4239 42.6403H55.1913V24.5652ZM12.976 9.23328C16.5325 5.51715 21.5872 3.63281 27.9997 3.63281C34.4017 3.63281 39.4505 5.51098 43.0058 9.21499C47.7857 14.1947 48.7653 21.3152 48.9562 24.5653H7.03923C7.22329 21.3244 8.19107 14.2335 12.976 9.23328ZM30.8102 58.3672H25.1894V56.3461H30.8102V58.3672ZM44.4118 45.8066C42.2326 50.3636 38.8846 53.3755 34.443 54.7873V52.7133H21.5566V54.7872C17.1503 53.3864 13.8193 50.4098 11.6382 45.9115C10.0838 42.7057 9.59721 39.6491 9.46231 38.5194L9.95274 37.5449H46.0467L46.5383 38.5219C46.4083 39.6328 45.9382 42.6147 44.4118 45.8066ZM51.5585 39.0074H50.8497L48.2852 33.9119H7.71408L5.14956 39.0074H4.44104V28.198H51.5585V39.0074Z" fill="#1F613B"/>
</svg>
