<svg width="63" height="62" viewBox="0 0 63 62" fill="none" xmlns="http://www.w3.org/2000/svg">
<g clip-path="url(#clip0)">
<path d="M41.5169 36.3652C44.2776 33.5888 45.8312 29.8574 45.8312 25.8814C45.8312 17.6698 39.151 10.9895 30.9393 10.9895C22.7277 10.9895 16.0474 17.6698 16.0474 25.8814C16.0474 29.8579 17.601 33.5888 20.3618 36.3652L-0.121338 62.1749H62L41.5169 36.3652ZM19.6868 25.8814C19.6868 19.677 24.7349 14.6289 30.9393 14.6289C37.1438 14.6289 42.1918 19.677 42.1918 25.8814C42.1918 28.7374 41.1302 31.4261 39.2334 33.4873L30.9393 23.0368L22.6457 33.4873C20.7485 31.4261 19.6868 28.7374 19.6868 25.8814ZM30.9393 28.8915L54.4652 58.5355H7.41349L30.9393 28.8915Z" fill="#1F613B"/>
<path d="M5.11865 24.0613H12.4037V27.7012H5.11865V24.0613Z" fill="#B7AA74"/>
<path d="M7.78087 37.4429L6.38794 34.0802L13.1185 31.2925L14.5114 34.6551L7.78087 37.4429Z" fill="#B7AA74"/>
<path d="M54.098 37.4424L47.3674 34.6542L48.7604 31.292L55.4909 34.0798L54.098 37.4424Z" fill="#B7AA74"/>
<path d="M49.4751 24.0613H56.7602V27.7012H49.4751V24.0613Z" fill="#B7AA74"/>
<path d="M55.4899 17.6825L48.7594 20.4703L47.3665 17.1076L54.097 14.3198L55.4899 17.6825Z" fill="#B7AA74"/>
<path d="M47.9104 6.33618L50.4839 8.90972L45.3326 14.0611L42.759 11.4875L47.9104 6.33618Z" fill="#B7AA74"/>
<path d="M39.14 1.33081L42.5022 2.72327L39.7145 9.45381L36.3518 8.06087L39.14 1.33081Z" fill="#B7AA74"/>
<path d="M29.1194 0.0605469H32.7588V7.3456H29.1194V0.0605469Z" fill="#B7AA74"/>
<path d="M22.7396 1.33032L25.5274 8.06086L22.1652 9.45332L19.377 2.72326L22.7396 1.33032Z" fill="#B7AA74"/>
<path d="M13.9683 6.33667L19.1192 11.4875L16.5461 14.0611L11.3948 8.90973L13.9683 6.33667Z" fill="#B7AA74"/>
<path d="M7.78038 14.3193L14.5109 17.1071L13.118 20.4698L6.38745 17.682L7.78038 14.3193Z" fill="#B7AA74"/>
</g>
<defs>
<clipPath id="clip0">
<rect width="62.1213" height="62" fill="white"/>
</clipPath>
</defs>
</svg>
