<svg width="62" height="62" viewBox="0 0 62 62" fill="none" xmlns="http://www.w3.org/2000/svg">
<path d="M5.02856 11.8464L6.41969 8.4903L13.1321 11.2726L11.7409 14.6287L5.02856 11.8464Z" fill="#B7AA74"/>
<path d="M10.3662 2.57568L12.9342 0.00773114L18.0701 5.14363L15.5021 7.71159L10.3662 2.57568Z" fill="#B7AA74"/>
<path d="M3.6377 18.8223H10.9021V22.4545H3.6377V18.8223Z" fill="#B7AA74"/>
<path d="M48.8823 11.2559L55.5946 8.47361L56.9857 11.8297L50.2734 14.612L48.8823 11.2559Z" fill="#B7AA74"/>
<path d="M43.9224 5.14722L49.0582 0.0113999L51.6261 2.57935L46.4903 7.71517L43.9224 5.14722Z" fill="#B7AA74"/>
<path d="M51.0979 18.8223H58.3623V22.4545H51.0979V18.8223Z" fill="#B7AA74"/>
<path d="M62 47.4679L53.0254 29.307H38.2643V17.2966H45.85L30.9999 0.00463867L16.1499 17.2966H23.7356V29.307H8.97451L0 47.4679H8.2867V61.9966H53.7132V47.4679H62ZM56.1535 43.8357H39.1614L33.8948 32.9392H50.7687L56.1535 43.8357ZM24.0569 13.6644L30.9999 5.57967L37.943 13.6644H34.6321V29.307H27.3678V13.6644H24.0569ZM11.2311 32.9392H28.1051L22.8384 43.8357H5.84636L11.2311 32.9392ZM11.9189 47.4679H25.117L29.1838 39.0539V58.3645H11.9189V47.4679ZM50.081 58.3645H32.816V39.0539L36.8829 47.4679H50.081V58.3645Z" fill="#1F613B"/>
</svg>
