<svg width="129" height="128" viewBox="0 0 129 128" fill="none" xmlns="http://www.w3.org/2000/svg">
<mask id="path-1-outside-1" maskUnits="userSpaceOnUse" x="9.88623" y="9.40674" width="110" height="110" fill="black">
<rect fill="white" x="9.88623" y="9.40674" width="110" height="110"/>
<path d="M118.594 64.2604C118.594 94.003 94.4824 118.114 64.7399 118.114C34.9973 118.114 10.8862 94.003 10.8862 64.2604C10.8862 34.5178 34.9973 10.4067 64.7399 10.4067C94.4824 10.4067 118.594 34.5178 118.594 64.2604ZM28.0804 64.2604C28.0804 84.5069 44.4934 100.92 64.7399 100.92C84.9863 100.92 101.399 84.5069 101.399 64.2604C101.399 44.0139 84.9863 27.601 64.7399 27.601C44.4934 27.601 28.0804 44.0139 28.0804 64.2604Z"/>
</mask>
<path d="M118.594 64.2604C118.594 94.003 94.4824 118.114 64.7399 118.114C34.9973 118.114 10.8862 94.003 10.8862 64.2604C10.8862 34.5178 34.9973 10.4067 64.7399 10.4067C94.4824 10.4067 118.594 34.5178 118.594 64.2604ZM28.0804 64.2604C28.0804 84.5069 44.4934 100.92 64.7399 100.92C84.9863 100.92 101.399 84.5069 101.399 64.2604C101.399 44.0139 84.9863 27.601 64.7399 27.601C44.4934 27.601 28.0804 44.0139 28.0804 64.2604Z" stroke="#EEEEEE" stroke-width="2" mask="url(#path-1-outside-1)"/>
<path d="M64.7399 10.4067C79.0228 10.4067 92.7207 16.0806 102.82 26.1801C112.92 36.2796 118.594 49.9775 118.594 64.2604L100.7 64.2604C100.7 54.7232 96.9113 45.5766 90.1675 38.8328C83.4237 32.089 74.2771 28.3003 64.7399 28.3003V10.4067Z" fill="#EFEFEF"/>
<line x1="65.5" y1="2.18557e-08" x2="65.5" y2="28" stroke="#EEEEEE"/>
<line x1="65.5" y1="100" x2="65.5" y2="128" stroke="#EEEEEE"/>
<line y1="64.5" x2="28" y2="64.5" stroke="#EEEEEE"/>
<line x1="101" y1="64.5" x2="129" y2="64.5" stroke="#EEEEEE"/>
<path d="M67.8125 55.1562C68.5892 55.1562 69.2188 54.5267 69.2188 53.75C69.2188 52.9733 68.5892 52.3438 67.8125 52.3438C67.0358 52.3438 66.4062 52.9733 66.4062 53.75C66.4062 54.5267 67.0358 55.1562 67.8125 55.1562Z" fill="#1F613B"/>
<path d="M73.4375 55.1562C74.2142 55.1562 74.8438 54.5267 74.8438 53.75C74.8438 52.9733 74.2142 52.3438 73.4375 52.3438C72.6608 52.3438 72.0312 52.9733 72.0312 53.75C72.0312 54.5267 72.6608 55.1562 73.4375 55.1562Z" fill="#1F613B"/>
<path d="M79.0625 55.1562C79.8392 55.1562 80.4688 54.5267 80.4688 53.75C80.4688 52.9733 79.8392 52.3438 79.0625 52.3438C78.2858 52.3438 77.6562 52.9733 77.6562 53.75C77.6562 54.5267 78.2858 55.1562 79.0625 55.1562Z" fill="#1F613B"/>
<path d="M72.6137 86.0938C74.9289 86.0938 76.8125 84.2012 76.8125 81.875V76.25C76.8125 75.645 76.4256 75.1079 75.8519 74.9162L67.4344 72.1037C67.0223 71.9661 66.5701 72.0266 66.2087 72.2674L62.6291 74.6538C58.7874 72.8309 54.2468 68.3306 52.4408 64.5571L54.8263 60.9788C55.0672 60.6175 55.1277 60.165 54.99 59.7531L52.1775 51.3356C51.9858 50.7618 51.4487 50.375 50.8438 50.375H45.2188C42.8925 50.375 41 52.2585 41 54.5738C41 62.3435 44.5329 70.3178 50.6928 76.4519C56.846 82.5794 64.8359 86.0938 72.6137 86.0938ZM45.2188 53.1875H49.831L52.1044 59.9915L49.6737 63.6374C49.4169 64.0227 49.3662 64.5098 49.5382 64.9397C50.4733 67.2776 52.3448 69.907 54.8077 72.3436C57.2544 74.7642 59.8966 76.6152 62.2478 77.5556C62.6776 77.7275 63.1648 77.6768 63.5501 77.42L67.1961 74.9893L74 77.2628V81.875C74 82.6635 73.3911 83.2812 72.6137 83.2812C57.8094 83.2812 43.8125 69.3299 43.8125 54.5738C43.8125 53.7964 44.4302 53.1875 45.2188 53.1875Z" fill="#1F613B"/>
<path d="M67.2744 69.1117C67.7998 69.3294 68.4047 69.209 68.8069 68.8069L74.02 63.5938H79.0625C84.542 63.5938 89 59.1778 89 53.75C89 48.3222 84.542 43.9062 79.0625 43.9062H67.8125C62.3847 43.9062 57.9688 48.3222 57.9688 53.75C57.9688 58.7005 61.6422 62.8092 66.4062 63.4936V67.8125C66.4062 68.3813 66.7489 68.894 67.2744 69.1117ZM60.7812 53.75C60.7812 49.873 63.9355 46.7188 67.8125 46.7188H79.0625C82.9912 46.7188 86.1875 49.873 86.1875 53.75C86.1875 57.627 82.9912 60.7812 79.0625 60.7812H73.4375C73.0645 60.7812 72.7068 60.9294 72.4432 61.1931L69.2188 64.4175V62.1875C69.2188 61.4109 68.5891 60.7812 67.8125 60.7812C63.9355 60.7812 60.7812 57.627 60.7812 53.75Z" fill="#1F613B"/>
</svg>
