<svg width="129" height="128" viewBox="0 0 129 128" fill="none" xmlns="http://www.w3.org/2000/svg">
<mask id="path-1-outside-1" maskUnits="userSpaceOnUse" x="9.88623" y="9.40674" width="110" height="110" fill="black">
<rect fill="white" x="9.88623" y="9.40674" width="110" height="110"/>
<path d="M118.594 64.2604C118.594 94.003 94.4824 118.114 64.7399 118.114C34.9973 118.114 10.8862 94.003 10.8862 64.2604C10.8862 34.5178 34.9973 10.4067 64.7399 10.4067C94.4824 10.4067 118.594 34.5178 118.594 64.2604ZM28.0804 64.2604C28.0804 84.5069 44.4934 100.92 64.7399 100.92C84.9863 100.92 101.399 84.5069 101.399 64.2604C101.399 44.0139 84.9863 27.601 64.7399 27.601C44.4934 27.601 28.0804 44.0139 28.0804 64.2604Z"/>
</mask>
<path d="M118.594 64.2604C118.594 94.003 94.4824 118.114 64.7399 118.114C34.9973 118.114 10.8862 94.003 10.8862 64.2604C10.8862 34.5178 34.9973 10.4067 64.7399 10.4067C94.4824 10.4067 118.594 34.5178 118.594 64.2604ZM28.0804 64.2604C28.0804 84.5069 44.4934 100.92 64.7399 100.92C84.9863 100.92 101.399 84.5069 101.399 64.2604C101.399 44.0139 84.9863 27.601 64.7399 27.601C44.4934 27.601 28.0804 44.0139 28.0804 64.2604Z" stroke="#EEEEEE" stroke-width="2" mask="url(#path-1-outside-1)"/>
<path d="M118.594 64.2604C118.594 71.3326 117.201 78.3355 114.494 84.8693C111.788 91.4031 107.821 97.3399 102.82 102.341C97.8194 107.341 91.8826 111.308 85.3488 114.015C78.815 116.721 71.812 118.114 64.7399 118.114V100.22C69.4622 100.22 74.1383 99.2903 78.5012 97.4832C82.8641 95.676 86.8283 93.0272 90.1675 89.688C93.5067 86.3488 96.1555 82.3846 97.9627 78.0217C99.7698 73.6588 100.7 68.9827 100.7 64.2604H118.594Z" fill="#EFEFEF"/>
<path d="M118.594 64.2604C118.594 71.3326 117.201 78.3355 114.494 84.8693C111.788 91.4031 107.821 97.3399 102.82 102.341C97.8194 107.341 91.8826 111.308 85.3488 114.015C78.815 116.721 71.812 118.114 64.7399 118.114V100.22C69.4622 100.22 74.1383 99.2903 78.5012 97.4832C82.8641 95.676 86.8283 93.0272 90.1675 89.688C93.5067 86.3488 96.1555 82.3846 97.9627 78.0217C99.7698 73.6588 100.7 68.9827 100.7 64.2604H118.594Z" fill="#EFEFEF"/>
<path d="M118.594 64.2604C118.594 71.3326 117.201 78.3355 114.494 84.8693C111.788 91.4031 107.821 97.3399 102.82 102.341C97.8194 107.341 91.8826 111.308 85.3488 114.015C78.815 116.721 71.812 118.114 64.7399 118.114V100.22C69.4622 100.22 74.1383 99.2903 78.5012 97.4832C82.8641 95.676 86.8283 93.0272 90.1675 89.688C93.5067 86.3488 96.1555 82.3846 97.9627 78.0217C99.7698 73.6588 100.7 68.9827 100.7 64.2604H118.594Z" fill="#EFEFEF"/>
<line x1="65.5" y1="2.18557e-08" x2="65.5" y2="28" stroke="#EEEEEE"/>
<line x1="65.5" y1="100" x2="65.5" y2="128" stroke="#EEEEEE"/>
<line y1="64.5" x2="28" y2="64.5" stroke="#EEEEEE"/>
<line x1="101" y1="64.5" x2="129" y2="64.5" stroke="#EEEEEE"/>
<g clip-path="url(#clip0)">
<path d="M74.6438 40H55.358C47.4415 40 41.001 46.4406 41.001 54.3572V73.6428C41.001 81.5594 47.4415 88 55.3579 88H74.6437C82.5603 88 89.0008 81.5594 89.0008 73.6428V54.3572C89.0009 46.4406 82.5603 40 74.6438 40ZM86.1894 73.6428C86.1894 80.009 81.01 85.1884 74.6439 85.1884H55.358C48.9918 85.1884 43.8124 80.009 43.8124 73.6428V54.3572C43.8124 47.991 48.9918 42.8116 55.358 42.8116H74.6438C81.01 42.8116 86.1893 47.991 86.1893 54.3572V73.6428H86.1894Z" fill="#1F613B"/>
<path d="M60.3137 53.0895H56.4547V49.2305C56.4547 48.4541 55.8253 47.8247 55.0489 47.8247C54.2726 47.8247 53.6431 48.4541 53.6431 49.2305V53.0894H49.7842C49.0079 53.0894 48.3784 53.7189 48.3784 54.4952C48.3784 55.2716 49.0079 55.901 49.7842 55.901H53.6431V59.7599C53.6431 60.5363 54.2726 61.1657 55.0489 61.1657C55.8253 61.1657 56.4547 60.5363 56.4547 59.7599V55.901H60.3136C61.09 55.901 61.7194 55.2716 61.7194 54.4952C61.7195 53.7189 61.0901 53.0895 60.3137 53.0895Z" fill="#1F613B"/>
<path d="M79.8637 53.0894H69.3342C68.5579 53.0894 67.9285 53.7188 67.9285 54.4951C67.9285 55.2715 68.5579 55.9009 69.3342 55.9009H79.8638C80.6401 55.9009 81.2696 55.2715 81.2696 54.4951C81.2696 53.7188 80.6401 53.0894 79.8637 53.0894Z" fill="#1F613B"/>
<path d="M57.0368 74.4239L59.7655 71.6952C60.3147 71.1462 60.3147 70.2562 59.7657 69.7072C59.2167 69.1582 58.3265 69.1582 57.7776 69.7072L55.0489 72.4358L52.3202 69.7072C51.7713 69.1582 50.8812 69.1582 50.3322 69.7072C49.7832 70.2562 49.7832 71.1462 50.3322 71.6952L53.0608 74.4239L50.3322 77.1526C49.7832 77.7016 49.7832 78.5917 50.3322 79.1407C50.6067 79.4152 50.9664 79.5525 51.3261 79.5525C51.6858 79.5525 52.0456 79.4153 52.32 79.1407L55.0487 76.412L57.7774 79.1407C58.0519 79.4152 58.4117 79.5525 58.7713 79.5525C59.131 79.5525 59.4909 79.4153 59.7653 79.1407C60.3143 78.5917 60.3143 77.7016 59.7653 77.1526L57.0368 74.4239Z" fill="#1F613B"/>
<path d="M79.8637 70.2065H69.3342C68.5579 70.2065 67.9285 70.836 67.9285 71.6123C67.9285 72.3887 68.5579 73.0181 69.3342 73.0181H79.8638C80.6401 73.0181 81.2696 72.3887 81.2696 71.6123C81.2696 70.836 80.6401 70.2065 79.8637 70.2065Z" fill="#1F613B"/>
<path d="M79.8637 75.8296H69.3342C68.5579 75.8296 67.9285 76.459 67.9285 77.2354C67.9285 78.0117 68.5579 78.6412 69.3342 78.6412H79.8638C80.6401 78.6412 81.2696 78.0117 81.2696 77.2354C81.2696 76.459 80.6401 75.8296 79.8637 75.8296Z" fill="#1F613B"/>
</g>
<defs>
<clipPath id="clip0">
<rect width="48" height="48" fill="white" transform="translate(41 40)"/>
</clipPath>
</defs>
</svg>
