<svg width="129" height="128" viewBox="0 0 129 128" fill="none" xmlns="http://www.w3.org/2000/svg">
<mask id="path-1-outside-1" maskUnits="userSpaceOnUse" x="9.88623" y="9.40674" width="110" height="110" fill="black">
<rect fill="white" x="9.88623" y="9.40674" width="110" height="110"/>
<path d="M118.594 64.2604C118.594 94.003 94.4824 118.114 64.7399 118.114C34.9973 118.114 10.8862 94.003 10.8862 64.2604C10.8862 34.5178 34.9973 10.4067 64.7399 10.4067C94.4824 10.4067 118.594 34.5178 118.594 64.2604ZM28.0804 64.2604C28.0804 84.5069 44.4934 100.92 64.7399 100.92C84.9863 100.92 101.399 84.5069 101.399 64.2604C101.399 44.0139 84.9863 27.601 64.7399 27.601C44.4934 27.601 28.0804 44.0139 28.0804 64.2604Z"/>
</mask>
<path d="M118.594 64.2604C118.594 94.003 94.4824 118.114 64.7399 118.114C34.9973 118.114 10.8862 94.003 10.8862 64.2604C10.8862 34.5178 34.9973 10.4067 64.7399 10.4067C94.4824 10.4067 118.594 34.5178 118.594 64.2604ZM28.0804 64.2604C28.0804 84.5069 44.4934 100.92 64.7399 100.92C84.9863 100.92 101.399 84.5069 101.399 64.2604C101.399 44.0139 84.9863 27.601 64.7399 27.601C44.4934 27.601 28.0804 44.0139 28.0804 64.2604Z" stroke="#EEEEEE" stroke-width="2" mask="url(#path-1-outside-1)"/>
<path d="M64.7399 118.114C50.457 118.114 36.7591 112.44 26.6596 102.341C16.5601 92.2412 10.8862 78.5433 10.8862 64.2604L28.7798 64.2604C28.7798 73.7976 32.5685 82.9442 39.3123 89.688C46.0561 96.4318 55.2027 100.22 64.7399 100.22L64.7399 118.114Z" fill="#EFEFEF"/>
<path d="M64.7399 118.114C50.457 118.114 36.7591 112.44 26.6596 102.341C16.5601 92.2412 10.8862 78.5433 10.8862 64.2604L28.7798 64.2604C28.7798 73.7976 32.5685 82.9442 39.3123 89.688C46.0561 96.4318 55.2027 100.22 64.7399 100.22L64.7399 118.114Z" fill="#EFEFEF"/>
<path d="M64.7399 118.114C50.457 118.114 36.7591 112.44 26.6596 102.341C16.5601 92.2412 10.8862 78.5433 10.8862 64.2604L28.7798 64.2604C28.7798 73.7976 32.5685 82.9442 39.3123 89.688C46.0561 96.4318 55.2027 100.22 64.7399 100.22L64.7399 118.114Z" fill="#EFEFEF"/>
<line x1="65.5" y1="2.18557e-08" x2="65.5" y2="28" stroke="#EEEEEE"/>
<line x1="65.5" y1="100" x2="65.5" y2="128" stroke="#EEEEEE"/>
<line y1="64.5" x2="28" y2="64.5" stroke="#EEEEEE"/>
<line x1="101" y1="64.5" x2="129" y2="64.5" stroke="#EEEEEE"/>
<path d="M86.1739 51.0904L64.9781 40.3507L64.9694 40.3463C64.0255 39.8764 62.9042 39.8869 61.9692 40.3744C61.8956 40.4056 41.8391 51.0505 41.7715 51.094C40.6787 51.6661 40 52.7871 40 54.021V73.9786C40 75.2124 40.6787 76.3334 41.7715 76.9055L61.9601 87.6204L61.9692 87.6252C62.446 87.8738 62.9715 87.9984 63.497 87.9984C64.0019 87.9984 64.5069 87.8835 64.9694 87.6532L86.1739 76.9091C87.3005 76.3458 88 75.214 88 73.9542V54.0454C88 52.7855 87.3004 51.6538 86.1739 51.0904ZM63.2722 42.8658C63.4099 42.7951 63.5745 42.7937 63.7133 42.8618L83.5535 52.9145L75.8318 56.7589L56.4351 46.4944L63.2722 42.8658ZM62.071 84.4965L43.0853 74.4199L43.0762 74.4152C42.913 74.3299 42.8115 74.1628 42.8115 73.9787V55.2897L62.071 65.3326V84.4965ZM63.4916 62.9025L44.338 52.9148L53.434 48.0874L72.7348 58.3009L63.4916 62.9025ZM85.1884 73.9543C85.1884 74.1422 85.0838 74.3111 84.9154 74.3949L64.8826 84.5453V65.3507L74.1062 60.7587V65.5732C74.1062 66.3496 74.7357 66.979 75.512 66.979C76.2884 66.979 76.9178 66.3496 76.9178 65.5732V59.359L85.1884 55.2415V73.9543Z" fill="#1F613B"/>
<path d="M56.9948 67.6017C56.6019 66.9319 55.7406 66.7076 55.0709 67.1005L50.7174 69.6546L49.8033 67.9984C49.4281 67.3187 48.5728 67.0718 47.8932 67.447C47.2135 67.8222 46.9666 68.6773 47.3418 69.357L48.9533 72.2767C48.957 72.2835 48.9613 72.2898 48.9652 72.2966C48.9674 72.3006 48.9692 72.3047 48.9715 72.3087C48.9769 72.3179 48.9829 72.3265 48.9884 72.3355C48.9968 72.3491 49.0052 72.3626 49.014 72.3759C49.0229 72.3893 49.0321 72.4023 49.0414 72.4152C49.0508 72.4284 49.0601 72.4415 49.0699 72.4542C49.0795 72.4668 49.0896 72.479 49.0995 72.4912C49.1096 72.5035 49.1197 72.5157 49.1301 72.5276C49.1406 72.5395 49.1514 72.5509 49.1622 72.5623C49.1728 72.5736 49.1834 72.5849 49.1944 72.5958C49.2058 72.6072 49.2176 72.618 49.2294 72.6289C49.2403 72.639 49.2512 72.6492 49.2624 72.659C49.2748 72.6699 49.2878 72.6802 49.3006 72.6906C49.3117 72.6995 49.3226 72.7086 49.334 72.7172C49.3475 72.7274 49.3613 72.7371 49.375 72.7467C49.3864 72.7547 49.3975 72.7628 49.4091 72.7704C49.4233 72.7797 49.4379 72.7886 49.4526 72.7975C49.4641 72.8045 49.4755 72.8117 49.4873 72.8184C49.5023 72.8269 49.5176 72.8348 49.5329 72.8427C49.5446 72.8488 49.5563 72.8552 49.5682 72.861C49.5837 72.8686 49.5997 72.8755 49.6155 72.8825C49.6276 72.8878 49.6395 72.8935 49.6517 72.8984C49.6674 72.9049 49.6836 72.9105 49.6995 72.9164C49.7122 72.921 49.7246 72.926 49.7374 72.9303C49.7532 72.9357 49.7694 72.9402 49.7853 72.9448C49.7984 72.9488 49.8114 72.953 49.8248 72.9565C49.8405 72.9606 49.8564 72.964 49.8723 72.9675C49.8861 72.9707 49.8999 72.9743 49.9137 72.977C49.9288 72.98 49.9441 72.9821 49.9593 72.9846C49.9742 72.987 49.9889 72.9898 50.0039 72.9918C50.0183 72.9937 50.0326 72.9946 50.047 72.9961C50.063 72.9977 50.0789 72.9997 50.0949 73.0007C50.1075 73.0016 50.1202 73.0015 50.1328 73.0019C50.1504 73.0026 50.168 73.0037 50.1856 73.0037C50.2153 73.0037 50.245 73.0027 50.2748 73.0008C50.2824 73.0003 50.2899 72.9993 50.2975 72.9987C50.3194 72.9969 50.3412 72.9951 50.3631 72.9923C50.3743 72.9909 50.3855 72.9887 50.3966 72.987C50.4148 72.9842 50.4329 72.9816 50.451 72.9781C50.4639 72.9756 50.4769 72.9724 50.4898 72.9695C50.506 72.9658 50.5223 72.9624 50.5384 72.9581C50.5524 72.9545 50.5661 72.9503 50.58 72.9462C50.5951 72.9417 50.6101 72.9374 50.6251 72.9325C50.6394 72.9278 50.6534 72.9224 50.6676 72.9173C50.6821 72.9119 50.6966 72.9067 50.7111 72.9008C50.7252 72.8951 50.7392 72.8888 50.7533 72.8826C50.7675 72.8762 50.7819 72.8698 50.796 72.863C50.8097 72.8563 50.8232 72.8493 50.8367 72.8422C50.8457 72.8375 50.8549 72.8333 50.8638 72.8283C50.8675 72.8262 50.8709 72.8236 50.8748 72.8216C50.8818 72.8176 50.8889 72.8142 50.8959 72.8101L56.4941 69.5258C57.1632 69.1327 57.3877 68.2713 56.9948 67.6017Z" fill="#1F613B"/>
</svg>
