<svg width="129" height="128" viewBox="0 0 129 128" fill="none" xmlns="http://www.w3.org/2000/svg">
<mask id="path-1-outside-1" maskUnits="userSpaceOnUse" x="9.88623" y="9.40674" width="110" height="110" fill="black">
<rect fill="white" x="9.88623" y="9.40674" width="110" height="110"/>
<path d="M118.594 64.2604C118.594 94.003 94.4824 118.114 64.7399 118.114C34.9973 118.114 10.8862 94.003 10.8862 64.2604C10.8862 34.5178 34.9973 10.4067 64.7399 10.4067C94.4824 10.4067 118.594 34.5178 118.594 64.2604ZM28.0804 64.2604C28.0804 84.5069 44.4934 100.92 64.7399 100.92C84.9863 100.92 101.399 84.5069 101.399 64.2604C101.399 44.0139 84.9863 27.601 64.7399 27.601C44.4934 27.601 28.0804 44.0139 28.0804 64.2604Z"/>
</mask>
<path d="M118.594 64.2604C118.594 94.003 94.4824 118.114 64.7399 118.114C34.9973 118.114 10.8862 94.003 10.8862 64.2604C10.8862 34.5178 34.9973 10.4067 64.7399 10.4067C94.4824 10.4067 118.594 34.5178 118.594 64.2604ZM28.0804 64.2604C28.0804 84.5069 44.4934 100.92 64.7399 100.92C84.9863 100.92 101.399 84.5069 101.399 64.2604C101.399 44.0139 84.9863 27.601 64.7399 27.601C44.4934 27.601 28.0804 44.0139 28.0804 64.2604Z" stroke="#EEEEEE" stroke-width="2" mask="url(#path-1-outside-1)"/>
<path d="M10.8862 64.2604C10.8862 49.9775 16.5601 36.2796 26.6596 26.1801C36.7591 16.0806 50.457 10.4067 64.7399 10.4067V28.3003C55.2027 28.3003 46.0561 32.089 39.3123 38.8328C32.5685 45.5766 28.7798 54.7232 28.7798 64.2604H10.8862Z" fill="#EFEFEF"/>
<path d="M10.8862 64.2604C10.8862 49.9775 16.5601 36.2796 26.6596 26.1801C36.7591 16.0806 50.457 10.4067 64.7399 10.4067V28.3003C55.2027 28.3003 46.0561 32.089 39.3123 38.8328C32.5685 45.5766 28.7798 54.7232 28.7798 64.2604H10.8862Z" fill="#EFEFEF"/>
<path d="M10.8862 64.2604C10.8862 49.9775 16.5601 36.2796 26.6596 26.1801C36.7591 16.0806 50.457 10.4067 64.7399 10.4067V28.3003C55.2027 28.3003 46.0561 32.089 39.3123 38.8328C32.5685 45.5766 28.7798 54.7232 28.7798 64.2604H10.8862Z" fill="#EFEFEF"/>
<line x1="65.5" y1="2.18557e-08" x2="65.5" y2="28" stroke="#EEEEEE"/>
<line x1="65.5" y1="100" x2="65.5" y2="128" stroke="#EEEEEE"/>
<line y1="64.5" x2="28" y2="64.5" stroke="#EEEEEE"/>
<line x1="101" y1="64.5" x2="129" y2="64.5" stroke="#EEEEEE"/>
<g clip-path="url(#clip0)">
<path d="M83.0752 53.5959H46.9247C43.6578 53.5959 41 56.2537 41 59.5206V68.4795C41 71.7463 43.6578 74.4041 46.9247 74.4041H83.0754C86.3423 74.4041 89.0001 71.7463 89.0001 68.4795V59.5206C88.9999 56.2537 86.3421 53.5959 83.0752 53.5959ZM86.1879 68.4793H86.1878C86.1878 70.1955 84.7916 71.5917 83.0753 71.5917H46.9247C45.2084 71.5918 43.8122 70.1956 43.8122 68.4793V59.5204C43.8122 57.8042 45.2084 56.408 46.9247 56.408H83.0754C84.7917 56.408 86.1879 57.8042 86.1879 59.5204V68.4793Z" fill="#1F613B"/>
<path d="M54.9914 62.524C54.8269 62.3099 54.6237 62.2029 54.3825 62.2029C54.2946 62.2029 54.2123 62.2193 54.1356 62.2523L52.3908 62.8448L52.4566 61.1329C52.4456 60.8695 52.3591 60.672 52.1976 60.5403C52.0361 60.4086 51.837 60.3428 51.6007 60.3428C51.3532 60.3428 51.1488 60.4114 50.9873 60.5486C50.8255 60.6859 50.739 60.8806 50.7282 61.1329L50.8106 62.8119L49.0624 62.2523C48.9847 62.2193 48.9013 62.2029 48.8127 62.2029C48.5572 62.2029 48.3407 62.2962 48.1633 62.4827C47.9858 62.6695 47.8971 62.8778 47.8971 63.1082C47.8971 63.5912 48.0836 63.871 48.4567 63.9477L50.1686 64.4415L49.0822 65.9888C48.9505 66.1426 48.8847 66.318 48.8847 66.5155C48.8847 66.768 49.0004 66.9737 49.2324 67.1327C49.4641 67.2919 49.6961 67.3714 49.9281 67.3714C50.193 67.3714 50.3862 67.2726 50.5076 67.075L51.6007 65.4126L52.6541 67.0586C52.7859 67.2672 52.9942 67.3714 53.2796 67.3714C53.5319 67.3714 53.7623 67.2864 53.9709 67.1162C54.1792 66.9462 54.2836 66.735 54.2836 66.4825C54.2836 66.2741 54.2396 66.115 54.1519 66.0053L52.9996 64.3427L54.6786 63.9477C55.0515 63.8711 55.2382 63.6295 55.2382 63.2235C55.2383 62.9711 55.156 62.738 54.9914 62.524Z" fill="#1F613B"/>
<path d="M64.7194 62.524C64.5549 62.3099 64.3518 62.2029 64.1105 62.2029C64.0226 62.2029 63.9403 62.2193 63.8636 62.2523L62.1188 62.8448L62.1846 61.1329C62.1736 60.8695 62.0871 60.672 61.9256 60.5403C61.7641 60.4086 61.565 60.3428 61.3287 60.3428C61.0812 60.3428 60.8768 60.4114 60.7153 60.5486C60.5535 60.6859 60.4671 60.8806 60.4563 61.1329L60.5386 62.8119L58.7904 62.2523C58.7127 62.2193 58.6294 62.2029 58.5407 62.2029C58.2852 62.2029 58.0687 62.2962 57.8913 62.4827C57.7138 62.6695 57.6251 62.8778 57.6251 63.1082C57.6251 63.5912 57.8116 63.871 58.1847 63.9477L59.8966 64.4415L58.8102 65.9888C58.6785 66.1426 58.6127 66.318 58.6127 66.5155C58.6127 66.768 58.7285 66.9737 58.9604 67.1327C59.1921 67.2919 59.4241 67.3714 59.6561 67.3714C59.9211 67.3714 60.1142 67.2726 60.2356 67.075L61.3287 65.4126L62.3822 67.0586C62.5139 67.2672 62.7222 67.3714 63.0076 67.3714C63.26 67.3714 63.4903 67.2864 63.6989 67.1162C63.9072 66.9462 64.0116 66.735 64.0116 66.4825C64.0116 66.2741 63.9677 66.115 63.8799 66.0053L62.7276 64.3427L64.4066 63.9477C64.7795 63.8711 64.9662 63.6295 64.9662 63.2235C64.9664 62.9711 64.8841 62.738 64.7194 62.524Z" fill="#1F613B"/>
<path d="M74.4475 62.524C74.283 62.3099 74.0798 62.2029 73.8386 62.2029C73.7506 62.2029 73.6683 62.2193 73.5916 62.2523L71.8469 62.8448L71.9127 61.1329C71.9016 60.8695 71.8152 60.672 71.6536 60.5403C71.4921 60.4086 71.293 60.3428 71.0567 60.3428C70.8092 60.3428 70.6049 60.4114 70.4433 60.5486C70.2815 60.6859 70.1951 60.8806 70.1843 61.1329L70.2666 62.8119L68.5185 62.2523C68.4407 62.2193 68.3574 62.2029 68.2687 62.2029C68.0132 62.2029 67.7968 62.2962 67.6193 62.4827C67.4418 62.6695 67.3531 62.8778 67.3531 63.1082C67.3531 63.5912 67.5396 63.871 67.9127 63.9477L69.6246 64.4415L68.5382 65.9888C68.4065 66.1426 68.3407 66.318 68.3407 66.5155C68.3407 66.768 68.4565 66.9737 68.6884 67.1327C68.9202 67.2919 69.1521 67.3714 69.3841 67.3714C69.6491 67.3714 69.8422 67.2726 69.9636 67.075L71.0567 65.4126L72.1102 67.0586C72.2419 67.2672 72.4502 67.3714 72.7356 67.3714C72.988 67.3714 73.2183 67.2864 73.4269 67.1162C73.6352 66.9462 73.7397 66.735 73.7397 66.4825C73.7397 66.2741 73.6957 66.115 73.608 66.0053L72.4557 64.3427L74.1346 63.9477C74.5076 63.8711 74.6942 63.6295 74.6942 63.2235C74.6944 62.9711 74.6121 62.738 74.4475 62.524Z" fill="#1F613B"/>
<path d="M82.3532 64.9633C82.2694 64.8278 82.1509 64.7598 81.9972 64.7598H81.5664V64.0104C81.5664 63.8462 81.4895 63.7213 81.3358 63.6357C81.1821 63.55 80.9983 63.507 80.7847 63.507C80.5707 63.507 80.3871 63.55 80.2335 63.6357C80.0797 63.7213 80.003 63.8463 80.003 64.0104V64.7598H79.1411L80.915 61.2021C80.9484 61.1219 80.9651 61.0585 80.9651 61.0117C80.9651 60.8447 80.875 60.7045 80.6945 60.5908C80.5141 60.4772 80.3437 60.4204 80.1835 60.4204C79.8894 60.4204 79.6723 60.5529 79.5321 60.8174L77.2171 65.3136C77.1637 65.4129 77.137 65.5122 77.137 65.6114C77.137 65.7693 77.1855 65.8939 77.2823 65.9854C77.379 66.0769 77.5044 66.1226 77.6581 66.1226H80.0032V67.24C80.0032 67.4018 80.0799 67.5266 80.2337 67.6143C80.3874 67.7022 80.571 67.746 80.7849 67.746C80.9986 67.746 81.1824 67.7022 81.336 67.6143C81.4897 67.5265 81.5665 67.4016 81.5665 67.24V66.1226H81.9974C82.1177 66.1226 82.2279 66.0516 82.3282 65.9096C82.4284 65.7677 82.4785 65.6114 82.4785 65.4411C82.4784 65.2583 82.4366 65.0989 82.3532 64.9633Z" fill="#1F613B"/>
</g>
<defs>
<clipPath id="clip0">
<rect width="48" height="48" fill="white" transform="translate(41 40)"/>
</clipPath>
</defs>
</svg>
