<svg width="0" height="0" class="hidden">
  <symbol fill="currentColor" xmlns="http://www.w3.org/2000/svg" viewBox="0 0 28 28" id="microsoft">
    <path d="M0 23.944l11.297 1.637V14.772H0v9.172zm0-10.716h11.297V2.418L0 4.056v9.173zm12.841 12.577L28 28V14.772H12.841v11.033zm0-23.61v11.033H28V0L12.841 2.194z"></path>
  </symbol>
  <symbol fill="currentColor" xmlns="http://www.w3.org/2000/svg" viewBox="0 0 36 36" id="apple">
    <path d="M20.032 7.947c-.538.17-1.255.283-2.271.34.06-2.043.598-3.803 1.673-5.279C20.51 1.533 22.303.511 24.813 0c0 .057.06.114.06.227 0 .114.06.17.06.227v.454c0 .852-.18 1.76-.598 2.781-.419 1.022-1.076 1.987-1.973 2.839-.776.68-1.553 1.192-2.33 1.419zm9.681 14.36c-1.016-1.362-1.494-2.895-1.494-4.54 0-1.533.478-2.952 1.375-4.258.478-.681 1.314-1.476 2.45-2.44-.777-.852-1.494-1.533-2.271-2.044-1.375-.908-2.869-1.305-4.602-1.305-1.016 0-2.27.227-3.705.68-1.434.455-2.45.682-3.107.682-.479 0-1.495-.227-2.989-.625-1.493-.397-2.808-.624-3.824-.624-2.45 0-4.482.965-6.096 2.952C3.837 12.77 3 15.325 3 18.447c0 3.293 1.076 6.755 3.167 10.274C8.32 32.241 10.47 34 12.681 34c.717 0 1.674-.227 2.869-.681 1.135-.454 2.211-.681 3.048-.681.956 0 2.032.227 3.227.68 1.314.455 2.33.682 2.988.682 1.852 0 3.705-1.362 5.558-4.03 1.195-1.703 2.091-3.406 2.629-5.109-1.136-.34-2.27-1.248-3.287-2.554z"></path>
  </symbol>
  <symbol fill="currentColor" xmlns="http://www.w3.org/2000/svg" viewBox="0 0 12 12" id="tab">
    <path d="M11 11H1V1h3V0H0v12h12V8h-1v3zM6 0v1h4.293l-5.98 5.98.707.707L11 1.707V6h1V0H6z"></path>
  </symbol>
  <symbol fill="currentColor" xmlns="http://www.w3.org/2000/svg" viewBox="0 0 9 19" id="facebook">
    <path d="M2.435 18.4V9.954H.2V6.913h2.235V4.315C2.435 2.275 3.755.4 6.797.4 8.03.4 8.94.518 8.94.518l-.071 2.84s-.93-.01-1.943-.01c-1.097 0-1.272.506-1.272 1.344v2.22h3.302L8.81 9.955H5.653V18.4H2.435z"></path>
  </symbol>
  <symbol fill="currentColor" xmlns="http://www.w3.org/2000/svg" viewBox="0 0 17 17" id="patreon">
    <path d="M10.898 0C7.523 0 4.777 2.863 4.777 6.382c0 3.51 2.746 6.363 6.12 6.363 3.366 0 6.103-2.854 6.103-6.363C17 2.863 14.263 0 10.898 0zM0 17h2.99V0H0"></path>
  </symbol>
  <symbol fill="currentColor" xmlns="http://www.w3.org/2000/svg" viewBox="0 0 18 18" id="instagram">
    <path d="M9.006.6C6.72.6 6.436.611 5.542.649 4.644.693 4.036.832 3.5 1.04a4.123 4.123 0 00-1.488.97c-.43.42-.761.927-.972 1.488-.208.536-.347 1.143-.391 2.04C.609 6.432.6 6.716.6 9c0 2.284.011 2.568.049 3.462.044.894.183 1.504.391 2.04a4.12 4.12 0 00.972 1.487c.419.43.927.76 1.488.971.536.205 1.146.347 2.042.391.895.04 1.179.049 3.464.049s2.57-.011 3.464-.049c.895-.044 1.505-.186 2.041-.391A4.123 4.123 0 0016 15.99a4.05 4.05 0 00.971-1.488c.206-.536.348-1.146.392-2.04.04-.894.049-1.178.049-3.462 0-2.284-.011-2.568-.05-3.462-.043-.894-.186-1.507-.39-2.04A4.12 4.12 0 0016 2.011a4.055 4.055 0 00-1.489-.971c-.536-.208-1.146-.347-2.04-.391C11.574.609 11.29.6 9.005.6zm0 1.512c2.244 0 2.512.011 3.399.049.818.038 1.264.175 1.56.29.365.135.696.35.968.629.279.27.493.6.627.965.115.296.252.741.29 1.559.038.886.049 1.154.049 3.397 0 2.242-.011 2.51-.052 3.396-.044.818-.18 1.263-.296 1.559a2.73 2.73 0 01-.63.968c-.273.277-.604.49-.969.626-.292.115-.744.252-1.565.29-.892.038-1.154.049-3.404.049s-2.512-.011-3.405-.052c-.818-.044-1.27-.18-1.565-.296a2.617 2.617 0 01-.966-.63 2.523 2.523 0 01-.63-.967c-.117-.293-.252-.744-.295-1.565-.03-.88-.044-1.153-.044-3.391 0-2.237.014-2.51.044-3.402.043-.82.178-1.271.296-1.564.145-.4.333-.673.628-.968.293-.293.567-.482.967-.63.296-.115.736-.251 1.557-.292.892-.032 1.154-.044 3.401-.044l.035.024zm0 2.577A4.316 4.316 0 005.019 7.35a4.308 4.308 0 00.935 4.7 4.315 4.315 0 004.704.935A4.316 4.316 0 0013.32 9a4.308 4.308 0 00-2.663-3.984 4.317 4.317 0 00-1.652-.328zm0 7.112a2.8 2.8 0 110-5.6 2.8 2.8 0 110 5.6zm5.498-7.285a1.01 1.01 0 11-1.723-.711 1.01 1.01 0 011.723.711z"></path>
  </symbol>
  <symbol fill="currentColor" xmlns="http://www.w3.org/2000/svg" viewBox="0 0 18 10" id="vk">
    <path d="M16.044 6.903c1.446 1.308 1.745 1.934 1.791 2.016.597.963-.653 1.035-.653 1.035l-2.406.037s-.523.1-1.194-.355c-.905-.599-1.773-2.17-2.416-1.961-.662.209-.644 1.616-.644 1.616s0 .2-.149.355c-.168.172-.494.109-.494.109H8.806s-2.379.236-4.459-1.88c-2.285-2.308-4.3-6.85-4.3-6.85S-.065.754.057.6C.196.454.587.454.587.454h2.575s.251 0 .41.145c.14.1.224.31.224.31s.41 1.007.97 1.934C5.84 4.65 6.334 5.04 6.679 4.85c.56-.282.401-2.552.401-2.552s.01-.827-.27-1.19c-.215-.281-.625-.372-.802-.39-.15-.019.093-.346.4-.5C6.876 0 7.688 0 8.658 0c.755 0 .97.054 1.259.118.895.209.588 1.017.588 2.943 0 .626-.094 1.48.345 1.78.196.127.68.018 1.893-1.971.56-.945.989-2.062.989-2.062s.093-.19.233-.281c.15-.073.355-.073.355-.073h2.705s.82-.09.951.264c.14.372-.308 1.253-1.418 2.679-1.81 2.361-2.014 2.143-.513 3.506z"></path>
  </symbol>
</svg>