<svg width="109" height="92" viewBox="0 0 109 92" fill="none" xmlns="http://www.w3.org/2000/svg">
<path d="M39.2628 72.6358C39.2628 72.6358 44.2178 81.7657 54.8096 88.1827L108.907 61.3021L75.5388 48.2791L39.2628 72.6358Z" fill="url(#paint0_linear)"/>
<path d="M38.603 85.2113L55.4304 75.439L55.414 80.5133L38.5866 90.3021L38.603 85.2113Z" fill="#93D0FF"/>
<path d="M38.5866 91.1206C38.4419 91.1235 38.2995 91.0836 38.1774 91.006C38.0537 90.9346 37.9508 90.8321 37.879 90.7086C37.8072 90.5851 37.769 90.445 37.7681 90.3022V85.2114C37.769 85.0686 37.8072 84.9285 37.879 84.805C37.9508 84.6815 38.0537 84.5789 38.1774 84.5075L55.0048 74.6861C55.1292 74.6142 55.2703 74.5764 55.414 74.5764C55.5577 74.5764 55.6988 74.6142 55.8232 74.6861C55.9492 74.7548 56.054 74.8568 56.1261 74.9809C56.1982 75.105 56.235 75.2465 56.2324 75.39V80.4643C56.2345 80.6099 56.1976 80.7535 56.1257 80.8801C56.0537 81.0067 55.9493 81.1118 55.8232 81.1846L38.9958 91.006C38.8736 91.0836 38.7313 91.1235 38.5866 91.1206ZM39.4214 85.6861V88.9599L54.5955 80.0224V76.8304L39.4214 85.6861Z" fill="#93D0FF"/>
<path d="M48.3917 53.9629C47.9637 53.7168 47.5485 53.4491 47.1477 53.1609L46.7548 52.8662C46.4711 52.6677 46.198 52.4546 45.9364 52.2278C45.781 52.1061 45.6334 51.975 45.4944 51.835C45.2489 51.6385 45.0033 51.4094 44.7742 51.1966L44.3158 50.7382C44.103 50.5091 43.8739 50.2799 43.6611 50.0344L43.2518 49.576C42.9245 49.1995 42.6134 48.8067 42.3024 48.3975L42.106 48.1519C41.7459 47.6609 41.3858 47.1534 41.0584 46.6296L40.8128 46.2204C40.5509 45.8112 40.3218 45.4183 40.0926 45.0091L39.8307 44.518C39.5852 44.0269 39.3396 43.5523 39.1268 43.0612L39.0122 42.8484C38.7503 42.2263 38.5048 41.588 38.2756 40.9659L38.1283 40.5076C37.9319 39.8855 37.7518 39.2799 37.6045 38.6742C37.6116 38.6419 37.6116 38.6084 37.6045 38.576C37.4572 37.9376 37.359 37.3156 37.2771 36.6936C37.2771 36.5299 37.2771 36.3826 37.2771 36.2353C37.2073 35.6156 37.1691 34.9927 37.1625 34.3692C37.1625 30.7843 38.4393 28.2635 40.4364 27.085L23.609 36.9064C21.5628 38.1013 20.3351 40.6221 20.3351 44.1906C20.3407 44.8142 20.3789 45.4371 20.4497 46.0567C20.4418 46.2094 20.4418 46.3624 20.4497 46.515C20.527 47.1476 20.6363 47.7759 20.7771 48.3975C20.7771 48.3975 20.7771 48.4793 20.7771 48.5121C20.9244 49.1177 21.1045 49.7233 21.3009 50.329L21.4482 50.7874C21.6774 51.4258 21.9229 52.0478 22.1848 52.6698L22.2831 52.8662C22.4959 53.3409 22.725 53.832 22.9869 54.3067C22.9869 54.4704 23.1506 54.6341 23.2488 54.7978C23.478 55.207 23.7072 55.6162 23.9527 56.0091L24.2146 56.4347C24.542 56.9421 24.9021 57.4496 25.2622 57.9406L25.4587 58.2026C25.7697 58.6118 26.0807 59.0046 26.4081 59.3811L26.5718 59.5776L26.8173 59.8395L27.4721 60.5269L27.9304 60.9853L28.6343 61.64L29.0926 62.0329C29.3545 62.2621 29.6328 62.4585 29.911 62.6713L30.3039 62.9659C30.7131 63.2442 31.1224 63.5225 31.548 63.768C34.7072 65.585 37.5554 65.7487 39.6179 64.5537L56.4453 54.7323C54.3992 55.96 51.551 55.7799 48.3917 53.9629Z" fill="white"/>
<path d="M36.6552 66.1251C34.7105 66.068 32.8146 65.5038 31.1552 64.4882C30.7132 64.2263 30.2712 63.948 29.8456 63.6534L29.4364 63.3424L28.5852 62.6876L28.2087 62.3439L27.3575 61.5581L26.8992 61.0834C26.6537 60.8542 26.4409 60.6087 26.2117 60.3632L25.9662 60.1013L25.8516 59.9703C25.4587 59.4956 25.1314 59.1028 24.804 58.6772L24.6075 58.4152C24.2311 57.9078 23.8709 57.384 23.5272 56.8602L23.3471 56.5656C23.0034 56.009 22.7578 55.5998 22.5287 55.1742L22.2504 54.6668C22.0049 54.1757 21.7593 53.6846 21.5302 53.1772L21.4319 52.9808C21.1373 52.3096 20.8918 51.6712 20.6626 51.0164L20.5153 50.5745C20.3025 49.9034 20.1061 49.2813 19.9587 48.6429C19.7958 47.9628 19.6701 47.2743 19.5822 46.5804V46.1057C19.499 45.4542 19.4553 44.7982 19.4513 44.1414C19.4513 40.3765 20.7936 37.5938 23.1671 36.1534L40.0108 26.3319C40.1955 26.2485 40.4045 26.2365 40.5975 26.2983C40.7904 26.36 40.9536 26.4912 41.0555 26.6663C41.1573 26.8415 41.1905 27.0482 41.1488 27.2465C41.107 27.4448 40.9931 27.6205 40.8293 27.7396C38.9632 28.82 37.932 31.1608 37.9156 34.2873C37.9212 34.8782 37.9594 35.4684 38.0302 36.0552V36.4971C38.0302 37.1028 38.2102 37.692 38.3576 38.314C38.5049 38.9361 38.7013 39.5745 38.8977 40.1638L39.0451 40.6221C39.2579 41.2277 39.487 41.8334 39.7489 42.4227L39.1105 42.9792L39.8471 42.6355C40.0599 43.1102 40.2891 43.5849 40.5346 44.0432L40.7638 44.4524C41.0093 44.9271 41.2385 45.32 41.484 45.7129L41.7296 46.1057C42.057 46.6132 42.3843 47.1042 42.7445 47.5789L42.9409 47.8245C43.2355 48.2173 43.5465 48.5938 43.8576 48.9703L44.2504 49.4123L44.8888 50.0834L45.3308 50.5254L46.0183 51.1474L46.4439 51.5239L47.2296 52.1295L47.5897 52.4078C47.9742 52.6852 48.373 52.942 48.7846 53.1772C51.5674 54.8141 54.1537 55.076 56.0361 53.9629C56.1297 53.9091 56.2328 53.8744 56.3398 53.8605C56.4467 53.8466 56.5554 53.854 56.6595 53.8821C56.7636 53.9102 56.8612 53.9585 56.9466 54.0244C57.032 54.0902 57.1037 54.1722 57.1574 54.2657C57.2112 54.3592 57.246 54.4624 57.2598 54.5694C57.2737 54.6763 57.2664 54.7849 57.2382 54.8891C57.2101 54.9932 57.1618 55.0908 57.0959 55.1762C57.0301 55.2616 56.9481 55.3333 56.8546 55.387L40.0272 65.2084C39.0048 65.8086 37.8407 66.125 36.6552 66.1251ZM23.0361 52.506C23.2489 52.9807 23.4781 53.4554 23.7236 53.9138L23.9855 54.3885C24.1929 54.7813 24.422 55.1742 24.673 55.567L24.9186 55.9763C25.2459 56.4673 25.5733 56.9584 25.9334 57.4331L26.1299 57.6787C26.4245 58.0879 26.7355 58.4644 27.0465 58.8245L27.1611 58.9555L27.3248 59.1355L27.4394 59.2665L28.0778 59.9539L28.5198 60.3796L29.1909 61.0016L29.6329 61.3944L30.4186 62.0001L30.7787 62.2784C31.1715 62.5403 31.5644 62.8022 31.9736 63.0313C34.7564 64.6682 37.3427 64.9301 39.2251 63.8334L52.3204 56.2546C50.8033 55.992 49.3521 55.436 48.048 54.6177C47.5948 54.3666 47.1574 54.0878 46.7385 53.7828L46.4766 53.5864L46.3293 53.4718L45.4781 52.8171L45.118 52.4897C44.7579 52.195 44.5123 51.9659 44.2668 51.7367L43.8085 51.262L43.121 50.5417L42.7117 50.0671C42.368 49.6742 42.0406 49.2649 41.7132 48.8557L41.5168 48.5938C41.1458 48.0918 40.7856 47.5462 40.4364 46.9569L40.1745 46.5313C39.9126 46.1221 39.6671 45.6965 39.4379 45.2873L39.176 44.7798C38.9141 44.2888 38.6686 43.7813 38.4394 43.2903L39.0778 42.7337L38.3412 43.0611C38.0465 42.4227 37.801 41.768 37.5718 41.1132L37.4573 40.7531C37.2117 40.0165 37.0317 39.3781 36.868 38.756C36.705 38.0704 36.5793 37.3764 36.4915 36.6771V36.2025C36.4077 35.5565 36.3639 34.9059 36.3605 34.2545C36.3438 32.764 36.5989 31.2829 37.1135 29.884L24.0183 37.4629C22.1522 38.5432 21.1209 40.884 21.1046 44.0105C21.1112 44.6014 21.1494 45.1915 21.2191 45.7783V46.2203C21.298 46.8256 21.4072 47.4266 21.5465 48.0209C21.7102 48.7084 21.8903 49.2977 22.0703 49.8706L22.234 50.3289C22.4468 50.9346 22.676 51.5403 22.9379 52.1459L22.2995 52.7025L23.0361 52.506Z" fill="#93D0FF"/>
<path d="M8.46765 12.5001L25.2951 2.71143L29.109 7.45844L12.2816 17.2471L8.46765 12.5001Z" fill="white"/>
<path d="M12.2817 18.0656C12.1589 18.0638 12.0381 18.0351 11.9277 17.9813C11.8174 17.9276 11.7203 17.8502 11.6433 17.7546L7.82927 13.0075C7.75506 12.9174 7.70186 12.8119 7.67355 12.6986C7.64523 12.5853 7.64251 12.4672 7.66558 12.3528C7.68142 12.2352 7.72541 12.1232 7.7938 12.0263C7.8622 11.9294 7.95299 11.8505 8.05844 11.7962L24.8858 1.97479C25.056 1.88028 25.2538 1.84818 25.4451 1.88405C25.6364 1.91992 25.8091 2.02149 25.9335 2.17121L29.7474 6.91823C29.8217 7.00835 29.8749 7.11389 29.9032 7.22715C29.9315 7.34041 29.9342 7.45856 29.9111 7.57301C29.8916 7.68931 29.8462 7.79972 29.7782 7.89606C29.7102 7.99241 29.6213 8.07221 29.5183 8.12955L12.6909 17.951C12.5679 18.0268 12.4261 18.0665 12.2817 18.0656ZM9.69534 12.7293L12.4781 16.1831L27.8814 7.22925L25.0986 3.77537L9.69534 12.7293Z" fill="#93D0FF"/>
<path d="M12.2816 17.2471L29.109 7.45839L41.4185 6.39441L24.5912 16.1831L12.2816 17.2471Z" fill="white"/>
<path d="M12.2816 18.0656C12.1066 18.0666 11.9358 18.0116 11.7944 17.9085C11.653 17.8054 11.5484 17.6596 11.4959 17.4927C11.4385 17.3153 11.4448 17.1235 11.5135 16.9503C11.5822 16.777 11.7091 16.6331 11.8723 16.5433L28.6997 6.72183C28.8038 6.65737 28.9215 6.61812 29.0435 6.60723L41.3366 5.54325C41.5215 5.53318 41.7047 5.58366 41.8583 5.68705C42.0119 5.79044 42.1276 5.9411 42.1878 6.11618C42.2466 6.29168 42.2428 6.48208 42.1771 6.65512C42.1115 6.82815 41.9881 6.97315 41.8277 7.06557L25.0003 16.887C24.8964 16.9495 24.7778 16.9834 24.6566 16.9852L12.347 18.0656H12.2816ZM29.3545 8.24414L15.85 16.1831L24.3292 15.4465L37.8337 7.58939L29.3545 8.24414Z" fill="#93D0FF"/>
<path d="M58.0495 74.1295L74.8769 64.3572L78.6909 69.1042L61.8635 78.8765L58.0495 74.1295Z" fill="white"/>
<path d="M61.8635 79.695C61.7419 79.6964 61.6215 79.6707 61.5111 79.6197C61.4006 79.5688 61.3029 79.4938 61.2251 79.4003L57.4111 74.6533C57.3366 74.5602 57.2833 74.4518 57.255 74.3359C57.2267 74.2199 57.2241 74.0992 57.2474 73.9822C57.2761 73.8712 57.3292 73.7681 57.4028 73.6803C57.4765 73.5925 57.5688 73.5223 57.673 73.4747L74.5004 63.6533C74.6697 63.5555 74.8684 63.5216 75.0606 63.5576C75.2528 63.5936 75.4257 63.6973 75.548 63.8497L79.362 68.5967C79.4362 68.6869 79.4895 68.7924 79.5178 68.9057C79.5461 69.0189 79.5488 69.1371 79.5257 69.2515C79.5074 69.3683 79.4624 69.4791 79.3943 69.5757C79.3261 69.6722 79.2367 69.7517 79.1329 69.8081L62.3055 79.6295C62.1662 79.6888 62.014 79.7113 61.8635 79.695ZM59.3099 74.3587L62.0927 77.8289L77.496 68.875L74.7132 65.4211L59.3099 74.3587Z" fill="#93D0FF"/>
<path d="M61.8635 78.8766L78.6909 69.1042L71.554 79.1222L54.7266 88.9108L61.8635 78.8766Z" fill="white"/>
<path d="M54.7266 89.7293C54.6142 89.7277 54.5034 89.7021 54.4017 89.6541C54.3001 89.6061 54.2099 89.5369 54.1373 89.451C54.0173 89.3092 53.9515 89.1294 53.9515 88.9436C53.9515 88.7578 54.0173 88.578 54.1373 88.4361L61.1924 78.3855C61.268 78.2968 61.3563 78.2195 61.4543 78.1563L78.2817 68.3349C78.4423 68.2401 78.6305 68.2031 78.815 68.2299C78.9996 68.2567 79.1695 68.3457 79.2966 68.4823C79.4121 68.6293 79.4748 68.8109 79.4748 68.9979C79.4748 69.1849 79.4121 69.3664 79.2966 69.5135L72.1596 79.5314C72.0991 79.6278 72.0145 79.7068 71.9141 79.7605L55.0867 89.5819C54.9779 89.655 54.8554 89.7051 54.7266 89.7293ZM62.4201 79.4986L57.5093 86.2917L70.9156 78.5001L75.8263 71.707L62.4201 79.4986Z" fill="#93D0FF"/>
<path d="M58.0986 57.8259L74.926 48.0536L74.8769 64.3572L58.0495 74.1295L58.0986 57.8259Z" fill="white"/>
<path d="M58.0496 74.9479C57.9072 74.9486 57.7668 74.9149 57.6403 74.8497C57.5142 74.7769 57.4098 74.6718 57.3379 74.5452C57.2659 74.4186 57.2291 74.2751 57.2311 74.1295V57.7604C57.2435 57.6228 57.2906 57.4907 57.3678 57.3762C57.4451 57.2617 57.5501 57.1686 57.6731 57.1056L74.5005 47.2842C74.6249 47.2124 74.766 47.1746 74.9097 47.1746C75.0533 47.1746 75.1945 47.2124 75.3189 47.2842C75.4426 47.3556 75.5455 47.4582 75.6173 47.5816C75.689 47.7051 75.7273 47.8452 75.7281 47.9881V64.3571C75.7273 64.5 75.689 64.6401 75.6173 64.7636C75.5455 64.887 75.4426 64.9896 75.3189 65.061L58.4915 74.8824C58.3522 74.9417 58.2 74.9643 58.0496 74.9479ZM58.9171 58.3006V72.7054L74.0421 63.8825V49.4777L58.9171 58.3006Z" fill="#93D0FF"/>
<path d="M38.7831 19.3096L55.6105 9.52087L55.5941 14.5953L38.7667 24.3676L38.7831 19.3096Z" fill="white"/>
<path d="M38.7668 25.1861C38.6223 25.1871 38.4805 25.1474 38.3575 25.0715C38.249 24.9905 38.1622 24.8838 38.1051 24.7609C38.048 24.6381 38.0222 24.5029 38.0302 24.3677V19.2933C38.0341 19.1511 38.0737 19.0122 38.1452 18.8892C38.2166 18.7663 38.3178 18.6632 38.4394 18.5894L55.2668 8.76798C55.3912 8.69614 55.5323 8.65833 55.676 8.65833C55.8197 8.65833 55.9608 8.69614 56.0852 8.76798C56.2112 8.83673 56.316 8.93867 56.3881 9.06276C56.4603 9.18684 56.497 9.32832 56.4945 9.47183V14.5463C56.489 14.6881 56.4489 14.8265 56.3775 14.9492C56.3062 15.0719 56.2058 15.1752 56.0852 15.2501L39.2578 25.0715C39.1112 25.1627 38.9386 25.2029 38.7668 25.1861ZM39.6016 19.768V22.9436L54.7921 14.1207V10.9451L39.6016 19.768Z" fill="#93D0FF"/>
<path d="M24.6075 11.1086L41.4349 1.3363L55.6105 9.52083L38.7831 19.3095L24.6075 11.1086Z" fill="white"/>
<path d="M38.783 20.1118C38.6409 20.1106 38.5009 20.077 38.3738 20.0136L24.1818 11.829C24.0612 11.7541 23.9608 11.6508 23.8895 11.5281C23.8181 11.4054 23.778 11.267 23.7726 11.1252C23.7734 10.9823 23.8117 10.8422 23.8835 10.7187C23.9553 10.5953 24.0581 10.4927 24.1818 10.4213L41.0092 0.599854C41.1366 0.528149 41.2804 0.490479 41.4266 0.490479C41.5728 0.490479 41.7166 0.528149 41.844 0.599854L56.0196 8.78438C56.1456 8.85314 56.2504 8.9551 56.3225 9.07919C56.3947 9.20328 56.4314 9.34475 56.4289 9.48827C56.4297 9.62952 56.3939 9.76858 56.3251 9.89192C56.2562 10.0153 56.1567 10.1187 56.036 10.1921L39.1922 20.0136C39.0665 20.0807 38.9256 20.1145 38.783 20.1118ZM26.2279 11.1088L38.783 18.3603L53.9899 9.52099L41.4348 2.2695L26.2279 11.1088Z" fill="#93D0FF"/>
<path d="M38.7667 24.3678L55.5941 14.5955L67.8709 29.8514L51.0435 39.6238L38.7667 24.3678Z" fill="white"/>
<path d="M51.1253 40.4423C51.002 40.4442 50.8799 40.4171 50.769 40.363C50.6581 40.309 50.5615 40.2296 50.4869 40.1313L38.2101 24.8753C38.1397 24.7831 38.0888 24.6774 38.0606 24.5648C38.0325 24.4522 38.0277 24.3351 38.0465 24.2206C38.071 24.1061 38.1184 23.9977 38.186 23.9021C38.2535 23.8064 38.3397 23.7255 38.4393 23.664L55.2667 13.8426C55.4393 13.7469 55.6398 13.7142 55.8339 13.75C56.028 13.7858 56.2036 13.888 56.3307 14.039L68.5093 29.2786C68.5838 29.3718 68.6371 29.4801 68.6654 29.596C68.6937 29.712 68.6963 29.8327 68.673 29.9497C68.6546 30.0664 68.6096 30.1773 68.5415 30.2739C68.4734 30.3704 68.3839 30.4499 68.2801 30.5063L51.4527 40.3277C51.3543 40.3914 51.242 40.4307 51.1253 40.4423ZM40.0926 24.597L51.3218 38.5599L66.725 29.6223L55.4959 15.6432L40.0926 24.597Z" fill="#93D0FF"/>
<path d="M51.0435 39.6237L67.8709 29.8513L71.7013 29.5076L54.8739 39.2963L51.0435 39.6237Z" fill="white"/>
<path d="M51.1254 40.442C50.9468 40.4402 50.7737 40.38 50.6325 40.2706C50.4913 40.1612 50.3897 40.0086 50.3434 39.8361C50.297 39.6636 50.3083 39.4806 50.3756 39.3151C50.443 39.1497 50.5626 39.0108 50.7162 38.9197L67.5436 29.0982C67.6497 29.0411 67.767 29.0075 67.8873 29L71.7177 28.6563C71.9079 28.6336 72.1 28.6784 72.2606 28.7828C72.4212 28.8872 72.5401 29.0446 72.5966 29.2277C72.653 29.4107 72.6435 29.6078 72.5697 29.7845C72.4958 29.9613 72.3623 30.1065 72.1924 30.195L55.365 40.0164C55.2609 40.0808 55.1432 40.1201 55.0212 40.131L51.1909 40.4583L51.1254 40.442Z" fill="#93D0FF"/>
<path d="M54.8738 39.2963L71.7012 29.5076L78.7563 47.7263L61.9289 57.515L54.8738 39.2963Z" fill="white"/>
<path d="M61.9289 58.3335C61.8369 58.3504 61.7426 58.3504 61.6507 58.3335C61.54 58.2935 61.439 58.2305 61.3544 58.1487C61.2697 58.0669 61.2033 57.9681 61.1596 57.8588L54.1045 39.5909C54.0414 39.4059 54.0427 39.205 54.1081 39.0208C54.1734 38.8366 54.2991 38.6799 54.4646 38.576L71.292 28.7546C71.4003 28.7068 71.5174 28.6821 71.6358 28.6821C71.7542 28.6821 71.8712 28.7068 71.9795 28.7546C72.0892 28.7964 72.1893 28.86 72.2737 28.9416C72.3582 29.0232 72.4251 29.1211 72.4706 29.2293L79.5093 47.4481C79.5802 47.6307 79.5846 47.8325 79.5217 48.018C79.4589 48.2035 79.3328 48.361 79.1655 48.463L62.3382 58.2844C62.2087 58.3377 62.0673 58.3547 61.9289 58.3335ZM55.8888 39.64L62.3382 56.3201L77.7414 47.3826L71.292 30.7025L55.8888 39.64Z" fill="#93D0FF"/>
<path d="M58.0987 57.826L61.929 57.5149L54.874 39.2962L51.0436 39.6236L38.7668 24.3676V19.2932L24.5912 11.1086V16.1831L12.2817 17.247L8.46767 12.5L1.33076 22.5179L5.14475 27.2649V43.634L1.31439 43.9614L8.36946 62.1801L12.1998 61.8527L24.4602 77.0923V82.1667L38.6522 90.3513V85.2605L50.9618 84.2129L54.7758 88.9599L61.9127 78.9257L58.0987 74.1786V57.826ZM31.5644 63.7515C28.2607 61.6031 25.5122 58.7034 23.5435 55.2895C21.5748 51.8755 20.4418 48.0443 20.237 44.1087C20.237 36.9063 25.3605 34.009 31.6954 37.5611C35.0034 39.7035 37.7544 42.6022 39.7211 46.0176C41.6879 49.4331 42.8139 53.2674 43.0064 57.2039C42.9409 64.4718 37.8338 67.3691 31.5644 63.7515Z" fill="#5F98ED"/>
<path d="M38.5867 91.1208C38.442 91.1236 38.2997 91.0838 38.1775 91.0062L23.9855 82.8217C23.8616 82.7464 23.759 82.6408 23.6874 82.5147C23.6157 82.3887 23.5775 82.2464 23.5763 82.1014V77.3217L11.7742 62.5895L8.36942 62.8678C8.19645 62.8832 8.02315 62.8421 7.87556 62.7506C7.72797 62.6591 7.61407 62.5221 7.55096 62.3604L0.479528 44.1416C0.426881 44.0288 0.399595 43.9059 0.399595 43.7815C0.399595 43.657 0.426881 43.5341 0.479528 43.4214C0.549796 43.3123 0.643621 43.2204 0.754103 43.1524C0.864584 43.0844 0.988909 43.0421 1.11792 43.0285L4.19531 42.7666V27.4943L0.561372 22.9928C0.453766 22.8486 0.39563 22.6734 0.39563 22.4935C0.39563 22.3136 0.453766 22.1385 0.561372 21.9943L7.69828 11.9764C7.76926 11.872 7.86433 11.7863 7.97546 11.7265C8.08658 11.6667 8.21048 11.6345 8.33668 11.6327C8.46343 11.6287 8.58946 11.6531 8.70558 11.704C8.82169 11.755 8.92495 11.8313 9.00781 11.9273L12.5435 16.3469L23.6745 15.3812V11.1088C23.6786 10.9647 23.72 10.8242 23.7946 10.7009C23.8692 10.5775 23.9744 10.4756 24.1001 10.405C24.2215 10.3329 24.36 10.2949 24.5011 10.2949C24.6423 10.2949 24.7808 10.3329 24.9022 10.405L39.0941 18.5895C39.2203 18.6623 39.3247 18.7674 39.3966 18.894C39.4685 19.0206 39.5054 19.1641 39.5034 19.3097V24.0895L51.3055 38.8216L54.7102 38.527C54.8874 38.5118 55.0647 38.5547 55.2153 38.6492C55.3659 38.7437 55.4817 38.8847 55.545 39.0508L62.5837 57.2696C62.63 57.3878 62.6481 57.5151 62.6366 57.6415C62.6252 57.7678 62.5845 57.8898 62.5178 57.9977C62.4512 58.1057 62.3603 58.1967 62.2524 58.2635C62.1445 58.3303 62.0226 58.3711 61.8962 58.3827L58.8189 58.6282V73.9006L62.5837 78.3857C62.69 78.5274 62.7474 78.6996 62.7474 78.8767C62.7474 79.0538 62.69 79.2262 62.5837 79.3678L55.4468 89.4021C55.3715 89.502 55.2755 89.5845 55.1653 89.6438C55.0551 89.7031 54.9333 89.7379 54.8084 89.7458C54.6827 89.7477 54.5583 89.7207 54.4447 89.6667C54.3312 89.6128 54.2316 89.5334 54.1537 89.4348L50.6016 85.0315L39.4706 85.9809V90.3187C39.4698 90.4616 39.4315 90.6017 39.3598 90.7252C39.288 90.8486 39.1851 90.9512 39.0614 91.0226C38.9188 91.1079 38.7515 91.1426 38.5867 91.1208ZM25.2132 81.6595L37.7682 88.8946V85.2279C37.7679 85.0234 37.8456 84.8266 37.9856 84.6775C38.1255 84.5284 38.3171 84.4384 38.5212 84.4259L50.8308 83.3782C50.9633 83.365 51.0971 83.3851 51.22 83.4365C51.3429 83.488 51.451 83.5692 51.5346 83.6729L54.6775 87.5687L60.8159 78.9258L57.3948 74.6699C57.278 74.5203 57.2146 74.3359 57.2147 74.1461V57.777C57.2143 57.5726 57.292 57.3756 57.432 57.2265C57.572 57.0775 57.7636 56.9875 57.9677 56.975L60.7013 56.7458L54.3992 40.1639L51.1254 40.4422C50.9916 40.452 50.8574 40.4288 50.7346 40.3746C50.6119 40.3203 50.5044 40.2368 50.4215 40.1312L38.1447 24.8752C38.0512 24.7235 38.0109 24.545 38.0302 24.3678V19.7681L25.4751 12.533V16.1832C25.4755 16.3877 25.3977 16.5846 25.2578 16.7337C25.1178 16.8828 24.9262 16.9728 24.7221 16.9853L12.4126 18.0657C12.2789 18.0741 12.1452 18.0502 12.0227 17.9961C11.9002 17.942 11.7925 17.8592 11.7087 17.7547L8.56584 13.8588L2.41108 22.5017L5.84858 26.7413C5.96532 26.8909 6.0287 27.0753 6.02864 27.2651V43.6341C6.02902 43.8386 5.95129 44.0356 5.81133 44.1846C5.67137 44.3337 5.47977 44.4237 5.27566 44.4363L2.54203 44.6818L8.97507 61.3128L12.2489 61.0345C12.3827 61.0246 12.5169 61.0479 12.6396 61.1021C12.7624 61.1563 12.8699 61.2399 12.9528 61.3455L25.2132 76.5851C25.3276 76.7297 25.3909 76.9081 25.3932 77.0925L25.2132 81.6595ZM36.6715 66.1416C34.7269 66.0845 32.8309 65.5202 31.1715 64.5047C27.7543 62.2815 24.9103 59.283 22.8708 55.7531C20.8313 52.2231 19.6541 48.2615 19.4349 44.1907C19.4349 40.4258 20.7772 37.6431 23.1834 36.1862C25.5897 34.7294 28.7489 35.0895 32.0554 37.0047C35.4711 39.2242 38.3134 42.22 40.3503 45.7476C42.3872 49.2752 43.561 53.2345 43.7757 57.3023C43.7757 61.0836 42.4498 63.9318 40.0436 65.3068C39.0088 65.8808 37.8378 66.1636 36.6552 66.1253L36.6715 66.1416ZM31.99 63.0479C34.7727 64.6848 37.3427 64.9467 39.2251 63.8663C41.1075 62.786 42.1388 60.4452 42.1388 57.3187C41.939 53.5337 40.8473 49.8495 38.9527 46.5667C37.0581 43.2839 34.4143 40.4954 31.237 38.4288C28.4543 36.7919 25.8843 36.5464 24.0019 37.6267C22.1194 38.7071 21.0882 41.0479 21.0718 44.1744C21.2772 47.9577 22.3732 51.6391 24.2705 54.9187C26.1677 58.1984 28.8127 60.9837 31.99 63.0479Z" fill="#93D0FF"/>
<defs>
<linearGradient id="paint0_linear" x1="31.0171" y1="87.0915" x2="92.7623" y2="47.1465" gradientUnits="userSpaceOnUse">
<stop offset="0.333852" stop-color="#CCE5FB"/>
<stop offset="1" stop-color="#CEE7FD" stop-opacity="0"/>
</linearGradient>
</defs>
</svg>
