<svg width="419" height="336" viewBox="0 0 419 336" fill="none" xmlns="http://www.w3.org/2000/svg">
<path d="M142.07 78.9578C141.048 77.9345 139.745 77.2374 138.327 76.9547C136.908 76.672 135.438 76.8164 134.101 77.3696C132.765 77.9228 131.622 78.8599 130.819 80.0625C130.015 81.265 129.586 82.6789 129.586 84.1253C129.586 85.5717 130.015 86.9856 130.819 88.1881C131.622 89.3907 132.765 90.3278 134.101 90.881C135.438 91.4342 136.908 91.5786 138.327 91.2959C139.745 91.0132 141.048 90.3161 142.07 89.2928C143.44 87.9219 144.209 86.0632 144.209 84.1253C144.209 82.1874 143.44 80.3287 142.07 78.9578Z" fill="white"/>
<path d="M134.131 86.8965C132.97 85.7367 132.235 84.2185 132.046 82.5882C131.856 80.958 132.223 79.3116 133.088 77.9164C132.594 78.2095 132.137 78.5608 131.728 78.9627C130.393 80.3415 129.654 82.1898 129.67 84.1088C129.685 86.0279 130.455 87.8637 131.813 89.2202C133.17 90.5767 135.007 91.3451 136.926 91.3596C138.845 91.3741 140.692 90.6336 142.07 89.2978C142.471 88.8881 142.823 88.4334 143.119 87.9428C141.721 88.8042 140.074 89.1695 138.444 88.9797C136.813 88.7898 135.294 88.056 134.131 86.8965Z" fill="#CEE7FD"/>
<path d="M136.899 92.2636C138.509 92.2643 140.084 91.7871 141.423 90.8926C142.762 89.9981 143.806 88.7265 144.422 87.2385C145.039 85.7506 145.2 84.1133 144.885 82.5339C144.57 80.9544 143.794 79.5038 142.655 78.3656C141.709 77.4194 140.544 76.721 139.263 76.3325C137.983 75.944 136.626 75.8772 135.314 76.1381C134.002 76.399 132.774 76.9796 131.739 77.8283C130.705 78.6771 129.896 79.7679 129.383 81.004C128.871 82.2402 128.672 83.5836 128.803 84.9153C128.934 86.247 129.391 87.5258 130.134 88.6385C130.877 89.7512 131.883 90.6635 133.063 91.2945C134.243 91.9255 135.561 92.2558 136.899 92.2561V92.2636ZM141.486 79.5399C142.547 80.6012 143.208 81.9978 143.356 83.4918C143.503 84.9858 143.128 86.4847 142.294 87.7331C141.46 88.9814 140.219 89.9021 138.783 90.338C137.346 90.774 135.803 90.6983 134.416 90.1239C133.029 89.5495 131.884 88.512 131.176 87.188C130.469 85.8641 130.242 84.3357 130.535 82.8633C130.827 81.3909 131.622 80.0656 132.782 79.1132C133.943 78.1608 135.398 77.6404 136.899 77.6405C137.751 77.6383 138.595 77.8051 139.382 78.1311C140.17 78.4571 140.884 78.9359 141.486 79.5399Z" fill="#93D0FF"/>
<path d="M415.482 149.396C414.46 148.374 413.157 147.678 411.739 147.395C410.322 147.113 408.852 147.258 407.516 147.811C406.18 148.364 405.039 149.301 404.236 150.503C403.432 151.705 403.004 153.118 403.004 154.564C403.004 156.01 403.432 157.423 404.236 158.625C405.039 159.827 406.18 160.764 407.516 161.317C408.852 161.87 410.322 162.014 411.739 161.732C413.157 161.45 414.46 160.754 415.482 159.731C416.161 159.053 416.699 158.247 417.066 157.361C417.434 156.474 417.623 155.524 417.623 154.564C417.623 153.604 417.434 152.654 417.066 151.767C416.699 150.88 416.161 150.075 415.482 149.396Z" fill="white"/>
<path d="M407.543 157.33C406.383 156.169 405.649 154.65 405.46 153.02C405.27 151.39 405.636 149.744 406.499 148.348C406.006 148.641 405.55 148.994 405.142 149.396C404.463 150.075 403.925 150.881 403.558 151.768C403.19 152.655 403.002 153.606 403.002 154.566C403.002 155.526 403.191 156.476 403.559 157.363C403.927 158.25 404.465 159.055 405.144 159.734C405.823 160.413 406.629 160.951 407.516 161.318C408.403 161.685 409.353 161.874 410.313 161.874C411.273 161.873 412.224 161.684 413.111 161.317C413.997 160.949 414.803 160.41 415.482 159.731C415.882 159.321 416.234 158.867 416.53 158.376C415.132 159.237 413.486 159.601 411.855 159.411C410.225 159.222 408.706 158.488 407.543 157.33Z" fill="#CEE7FD"/>
<path d="M410.31 162.702C411.919 162.701 413.492 162.224 414.83 161.33C416.167 160.435 417.21 159.165 417.826 157.679C418.442 156.192 418.603 154.557 418.29 152.978C417.977 151.4 417.203 149.95 416.066 148.812C415.313 148.053 414.416 147.452 413.429 147.042C412.441 146.633 411.382 146.423 410.313 146.426C408.179 146.463 406.146 147.337 404.65 148.859C403.154 150.381 402.316 152.43 402.316 154.564C402.316 156.698 403.154 158.747 404.65 160.269C406.146 161.791 408.179 162.665 410.313 162.702H410.31ZM410.31 148.079C411.162 148.077 412.006 148.244 412.793 148.57C413.58 148.896 414.294 149.375 414.895 149.978C415.801 150.886 416.418 152.041 416.668 153.299C416.918 154.557 416.789 155.861 416.298 157.045C415.807 158.23 414.976 159.243 413.91 159.955C412.844 160.668 411.59 161.048 410.308 161.049C409.446 161.066 408.589 160.91 407.787 160.592C406.985 160.274 406.255 159.799 405.639 159.195C405.023 158.591 404.534 157.871 404.2 157.075C403.866 156.28 403.694 155.426 403.694 154.564C403.694 153.701 403.866 152.848 404.2 152.052C404.534 151.257 405.023 150.537 405.639 149.933C406.255 149.329 406.985 148.854 407.787 148.536C408.589 148.217 409.446 148.062 410.308 148.079H410.31Z" fill="#93D0FF"/>
<path d="M239.103 314.097C238.081 313.075 236.779 312.379 235.361 312.097C233.943 311.814 232.473 311.959 231.137 312.512C229.802 313.065 228.66 314.002 227.857 315.204C227.054 316.406 226.625 317.819 226.625 319.265C226.625 320.711 227.054 322.124 227.857 323.326C228.66 324.528 229.802 325.465 231.137 326.018C232.473 326.571 233.943 326.716 235.361 326.433C236.779 326.151 238.081 325.455 239.103 324.433C240.473 323.062 241.243 321.203 241.243 319.265C241.243 317.327 240.473 315.468 239.103 314.097Z" fill="white"/>
<path d="M231.174 322.031C230.014 320.87 229.28 319.352 229.091 317.721C228.901 316.091 229.268 314.445 230.13 313.049C229.637 313.341 229.181 313.694 228.773 314.098C227.402 315.469 226.633 317.328 226.633 319.267C226.634 321.206 227.404 323.065 228.775 324.435C230.147 325.806 232.006 326.575 233.945 326.575C235.883 326.574 237.742 325.804 239.113 324.433C239.513 324.023 239.865 323.568 240.162 323.078C238.764 323.939 237.117 324.304 235.486 324.114C233.856 323.924 232.337 323.19 231.174 322.031Z" fill="#CEE7FD"/>
<path d="M233.934 327.404C235.543 327.403 237.116 326.925 238.453 326.031C239.791 325.137 240.834 323.866 241.449 322.38C242.065 320.893 242.227 319.258 241.914 317.68C241.601 316.102 240.827 314.652 239.69 313.513C238.936 312.754 238.039 312.153 237.051 311.743C236.063 311.334 235.004 311.124 233.934 311.127C231.801 311.164 229.767 312.038 228.271 313.56C226.776 315.083 225.938 317.131 225.938 319.265C225.938 321.399 226.776 323.448 228.271 324.97C229.767 326.492 231.801 327.366 233.934 327.404ZM233.934 312.78C234.787 312.778 235.631 312.945 236.418 313.271C237.206 313.598 237.92 314.077 238.521 314.682C239.58 315.743 240.239 317.139 240.385 318.631C240.531 320.123 240.155 321.619 239.321 322.865C238.487 324.111 237.248 325.03 235.813 325.464C234.378 325.899 232.837 325.822 231.452 325.248C230.067 324.674 228.924 323.637 228.218 322.315C227.511 320.993 227.285 319.466 227.578 317.996C227.871 316.526 228.664 315.202 229.823 314.251C230.982 313.3 232.435 312.78 233.934 312.78Z" fill="#93D0FF"/>
<path d="M2.97458 269.149L156.139 180.723C160.091 178.445 160.093 174.744 156.139 172.46L153.595 170.985C149.643 168.709 149.645 165.013 153.595 162.727L220.887 123.886C224.839 121.608 231.247 121.603 235.189 123.886L237.738 125.367C241.69 127.642 248.093 127.64 252.04 125.367C255.997 123.083 262.398 123.088 266.342 125.367L276.047 130.967L358.314 178.281C362.261 180.562 362.253 184.258 358.314 186.542L109.231 330.319C105.266 332.6 98.8707 332.605 94.9163 330.319L12.6573 283L2.94946 277.404C-0.989868 275.131 -0.984833 271.433 2.97458 269.149Z" fill="url(#paint0_linear)"/>
<path d="M363.676 23.7345V178.008C363.676 182.569 360.472 188.112 356.515 190.39L107.442 334.193C105.465 335.335 103.678 335.448 102.379 334.695L90.952 328.098C89.6397 327.346 88.8293 325.755 88.8293 323.457V169.188L100.286 175.797L363.676 23.7345Z" fill="white"/>
<path d="M110.576 253.369C110.576 256.107 112.498 257.211 114.874 255.843L164.023 227.465C166.389 226.103 168.313 222.773 168.313 220.036V151.09C168.313 148.358 166.386 147.249 164.02 148.619L114.866 176.992C112.498 178.364 110.576 181.691 110.576 184.426V253.369Z" fill="#CEE7FD"/>
<path d="M175.193 257.06V280.101C175.193 282.36 173.602 285.12 171.63 286.259L168.015 288.349C161.88 291.894 160.487 293.947 157.8 298.611L154.907 303.629C154.422 304.511 153.718 305.253 152.864 305.785C152.129 306.211 151.382 306.312 150.82 305.988L147.927 304.327C145.234 302.769 143.849 302.32 137.709 305.86L134.091 307.948C133.11 308.517 132.219 308.572 131.582 308.199C130.945 307.825 130.538 307.032 130.536 305.893V282.851C130.536 280.593 132.127 277.833 134.099 276.689L171.628 255.008C173.595 253.874 175.188 254.792 175.193 257.06Z" fill="#CEE7FD"/>
<path d="M100.288 175.795V330.066C100.288 332.346 101.089 333.947 102.381 334.695L90.9544 328.098C89.6422 327.346 88.8317 325.755 88.8317 323.457V169.188L100.288 175.795Z" fill="#CEE7FD"/>
<path d="M104.248 336C105.527 335.959 106.772 335.583 107.861 334.911L356.934 191.108C361.177 188.661 364.504 182.908 364.506 178.008V23.7344C364.506 23.5896 364.467 23.4474 364.395 23.3222C364.322 23.1969 364.218 23.093 364.092 23.0206C363.967 22.9482 363.825 22.91 363.68 22.9098C363.535 22.9096 363.393 22.9473 363.267 23.0193L100.288 174.841L89.2483 168.471C89.1227 168.399 88.9803 168.361 88.8355 168.361C88.6907 168.361 88.5484 168.399 88.423 168.472C88.2976 168.544 88.1933 168.648 88.1206 168.773C88.0479 168.899 88.0094 169.041 88.0088 169.186V323.454C88.0088 325.941 88.8795 327.822 90.4677 328.768C90.4911 328.785 90.5154 328.8 90.5405 328.813L101.965 335.41C102.66 335.805 103.448 336.009 104.248 336ZM362.85 25.1721V178.013C362.85 182.303 359.822 187.547 356.106 189.68L107.033 333.483C105.387 334.431 103.882 334.61 102.793 333.985L91.4413 327.433L91.366 327.383C90.2695 326.763 89.6648 325.376 89.6648 323.461V170.626L99.8795 176.52C100.005 176.591 100.147 176.629 100.292 176.629C100.437 176.629 100.579 176.591 100.705 176.52L362.85 25.1721Z" fill="#93D0FF"/>
<path d="M361.508 7.87429C361.553 7.89938 361.601 7.92447 361.643 7.95207L361.769 8.02484V8.04491C362.953 8.83277 363.688 10.3583 363.688 12.5262V23.7345L100.301 175.787L88.8317 169.196V157.99C88.8317 153.433 92.0333 147.891 95.9877 145.61L345.068 1.79218C347.076 0.632966 348.892 0.552669 350.192 1.34053L361.508 7.87429Z" fill="#5F98ED"/>
<g style="mix-blend-mode:overlay" opacity="0.3">
<path d="M88.8316 169.196V157.99C88.8316 153.433 92.0333 147.891 95.9877 145.61L345.068 1.79218C347.075 0.632966 348.892 0.552669 350.192 1.34053L361.435 7.83164C360.153 7.17425 358.424 7.30472 356.52 8.40372L107.447 152.212C103.49 154.492 100.291 160.035 100.288 164.594V175.795L88.8316 169.196Z" fill="#5F98ED"/>
</g>
<path d="M100.288 176.623C100.433 176.622 100.575 176.584 100.7 176.512L364.09 24.4596C364.216 24.3875 364.32 24.2834 364.393 24.1578C364.466 24.0322 364.504 23.8896 364.504 23.7445V12.5262C364.504 10.268 363.751 8.47652 362.376 7.47036C362.323 7.40933 362.26 7.35686 362.191 7.31479L362.063 7.23952L361.935 7.16425L361.518 7.85927L361.922 7.15922L350.606 0.635509C348.987 -0.345558 346.867 -0.187479 344.657 1.08715L95.5813 144.897C91.3384 147.341 88.0137 153.095 88.0112 157.993V169.198C88.0111 169.344 88.0494 169.487 88.122 169.613C88.1947 169.739 88.2993 169.843 88.4253 169.916L99.8794 176.525C100.005 176.592 100.146 176.625 100.288 176.623ZM362.85 23.2577L100.288 174.841L89.6597 168.709V157.983C89.6597 153.692 92.6882 148.448 96.4042 146.315L345.482 2.50732C347.148 1.54633 348.669 1.38323 349.763 2.04563L361.097 8.58943H361.119L361.182 8.62706C361.215 8.66118 361.252 8.69148 361.292 8.71739C362.296 9.38231 362.845 10.7247 362.845 12.5112L362.85 23.2577Z" fill="#93D0FF"/>
<path d="M218.992 97.5403C218.992 100.215 220.872 101.304 223.195 99.9566L348.634 27.5358C350.955 26.1909 352.834 22.9416 352.834 20.2593C352.834 17.5771 350.952 16.4956 348.634 17.838L223.195 90.2688C220.874 91.6087 218.992 94.8605 218.992 97.5453V97.5403ZM127.997 148.475C128.762 148.034 129.389 148.395 129.384 149.276C129.358 149.758 129.219 150.228 128.977 150.647C128.736 151.065 128.399 151.421 127.994 151.685C127.229 152.131 126.601 151.77 126.601 150.879C126.629 150.396 126.77 149.926 127.012 149.508C127.255 149.089 127.592 148.733 127.997 148.468V148.475ZM118.866 155.348C118.866 156.234 119.493 156.602 120.258 156.148C120.665 155.886 121.004 155.531 121.246 155.112C121.489 154.693 121.628 154.223 121.654 153.74C121.654 152.854 121.031 152.498 120.258 152.944C119.855 153.207 119.519 153.56 119.277 153.976C119.035 154.393 118.894 154.86 118.866 155.34V155.348ZM111.135 159.817C111.135 160.7 111.757 161.071 112.525 160.615C112.932 160.352 113.27 159.997 113.512 159.578C113.755 159.159 113.895 158.689 113.92 158.206C113.92 157.32 113.296 156.951 112.525 157.4C112.122 157.666 111.787 158.022 111.545 158.44C111.304 158.859 111.164 159.327 111.135 159.809V159.817Z" fill="white"/>
<path d="M232.84 147.387C234.918 146.146 237.21 145.305 239.597 144.908C243.937 134.332 251.666 124.462 260.507 119.356C272.642 112.356 282.7 116.683 284.725 128.841C286.642 126.579 288.915 124.646 291.455 123.117C299.869 118.261 306.688 122.19 306.688 131.889C306.688 141.588 299.869 153.397 291.459 158.247L285.672 161.591L286.218 161.919C286.75 162.228 286.915 163.06 286.625 164.043C286.344 165.002 285.73 165.829 284.893 166.374L280.237 169.064V188.58C280.202 189.23 280.014 189.863 279.688 190.427C279.363 190.99 278.909 191.47 278.363 191.825L264.295 199.946C263.256 200.548 262.421 200.064 262.421 198.868V179.338L257.762 182.031C257.009 182.465 256.319 182.33 256.033 181.702C255.747 181.074 255.901 180.038 256.444 179.111L256.989 178.161L232.844 192.105C222.139 198.289 213.446 193.288 213.446 180.926C213.446 168.564 222.139 153.568 232.84 147.387Z" fill="#CEE7FD"/>
<path d="M254.5 160.381C256.579 159.142 258.87 158.301 261.257 157.902C265.597 147.328 273.323 137.458 282.164 132.352C294.303 125.352 304.357 129.679 306.385 141.837C308.302 139.577 310.575 137.646 313.115 136.12C321.529 131.264 328.348 135.193 328.348 144.895C328.348 154.597 321.529 166.4 313.119 171.253L254.504 205.095C243.799 211.279 235.106 206.281 235.106 193.932C235.106 181.584 243.799 166.562 254.5 160.381Z" fill="white"/>
<path d="M268.168 188.544C267.412 188.981 266.724 188.843 266.438 188.215C266.152 187.587 266.307 186.552 266.843 185.624L280.405 162.149C281.138 160.884 282.332 160.2 283.058 160.617L296.62 168.429C297.156 168.738 297.317 169.577 297.031 170.55C296.754 171.512 296.137 172.341 295.295 172.884L290.643 175.57V184.253L272.83 194.541V185.861L268.168 188.544Z" fill="#CEE7FD"/>
<path d="M245.844 208.84C248.694 208.84 251.827 207.899 255.05 206.035L313.664 172.19C322.361 167.173 329.446 154.93 329.446 144.902C329.446 139.809 327.674 135.982 324.452 134.121C321.23 132.26 317.011 132.638 312.589 135.19C310.538 136.388 308.657 137.857 306.997 139.556C305.714 134.641 302.972 131.008 299.145 129.193C294.283 126.891 288.059 127.68 281.612 131.402C273.001 136.373 265.13 145.868 260.474 156.922C258.174 157.386 255.967 158.234 253.948 159.431C242.964 165.776 234.024 181.245 234.024 193.92C234.024 200.291 236.23 205.072 240.238 207.383C241.943 208.361 243.879 208.863 245.844 208.84ZM319.918 135.117C321.119 135.098 322.304 135.4 323.35 135.992C325.875 137.448 327.266 140.611 327.266 144.895C327.266 154.239 320.69 165.641 312.576 170.316L253.965 204.158C249.131 206.949 244.644 207.446 241.33 205.522C238.015 203.599 236.201 199.496 236.201 193.933C236.201 181.949 244.653 167.302 255.04 161.321C257.002 160.15 259.165 159.353 261.418 158.974C261.603 158.946 261.778 158.872 261.926 158.756C262.074 158.641 262.189 158.489 262.26 158.316C266.708 147.466 274.352 138.112 282.706 133.289C288.519 129.936 294.033 129.183 298.231 131.162C301.924 132.908 304.439 136.751 305.317 142.012C305.351 142.214 305.442 142.401 305.579 142.554C305.716 142.706 305.894 142.816 306.091 142.872C306.288 142.928 306.497 142.926 306.693 142.868C306.889 142.811 307.065 142.698 307.201 142.544C309.038 140.374 311.22 138.519 313.658 137.054C315.874 135.768 318.024 135.117 319.918 135.117Z" fill="#93D0FF"/>
<path d="M278.1 192.105L291.662 168.626C292.389 167.361 293.582 166.677 294.316 167.101L307.878 174.909C308.41 175.219 308.575 176.05 308.282 177.033C308.003 177.992 307.39 178.819 306.553 179.364L301.894 182.054V201.567C301.859 202.217 301.672 202.849 301.347 203.413C301.022 203.977 300.568 204.456 300.023 204.812L285.951 212.936C284.916 213.534 284.077 213.054 284.077 211.854V192.341L279.419 195.031C278.666 195.468 277.979 195.333 277.689 194.702C277.4 194.071 277.558 193.032 278.1 192.105Z" fill="#5F98ED"/>
<path d="M285.107 214.274C285.596 214.264 286.075 214.126 286.494 213.873L300.563 205.749C301.274 205.3 301.866 204.685 302.287 203.956C302.708 203.228 302.945 202.408 302.979 201.567V182.679L307.095 180.302C308.173 179.619 308.965 178.567 309.321 177.342C309.758 175.866 309.407 174.541 308.42 173.972L294.855 166.161C294.607 166.023 294.334 165.936 294.051 165.904C293.769 165.873 293.484 165.897 293.211 165.977C292.281 166.226 291.357 167.016 290.742 168.087L277.18 191.562C276.453 192.805 276.279 194.192 276.723 195.143C276.836 195.407 277.005 195.644 277.218 195.838C277.43 196.032 277.682 196.178 277.956 196.267C278.295 196.362 278.65 196.385 278.998 196.334C279.346 196.283 279.68 196.159 279.978 195.971L283.012 194.219V211.854C283.012 212.824 283.407 213.607 284.101 214.008C284.407 214.182 284.754 214.274 285.107 214.274ZM293.819 168.058L307.326 175.847C307.355 176.142 307.324 176.441 307.233 176.724C307.029 177.417 306.592 178.018 305.997 178.427L301.342 181.117C301.177 181.211 301.04 181.348 300.944 181.512C300.849 181.677 300.799 181.864 300.799 182.054V201.567C300.762 202.026 300.623 202.471 300.392 202.869C300.162 203.267 299.844 203.609 299.464 203.868L285.396 211.989C285.326 212.032 285.251 212.066 285.172 212.091C285.154 212.011 285.145 211.93 285.146 211.848V192.335C285.146 192.145 285.096 191.958 285.001 191.793C284.906 191.628 284.77 191.492 284.605 191.397C284.44 191.302 284.253 191.252 284.063 191.252C283.873 191.252 283.686 191.302 283.522 191.398L278.866 194.087C278.798 194.129 278.724 194.161 278.646 194.183C278.582 193.641 278.715 193.095 279.021 192.644L292.583 169.166C293.063 168.364 293.642 168.058 293.819 168.058Z" fill="#93D0FF"/>
<path d="M147.053 315.801V292.76C147.053 290.502 148.647 287.742 150.619 286.595L188.158 264.926C190.125 263.79 191.718 264.711 191.723 266.976V290.018C191.723 292.276 190.132 295.036 188.16 296.177L184.545 298.268C178.41 301.813 177.017 303.865 174.33 308.53L171.437 313.533C170.952 314.416 170.247 315.159 169.392 315.691C168.657 316.117 167.912 316.218 167.35 315.894L164.457 314.231C161.764 312.675 160.379 312.223 154.239 315.764L150.621 317.854C149.638 318.421 148.747 318.476 148.112 318.105C147.477 317.733 147.058 316.94 147.053 315.801Z" fill="white"/>
<path d="M149.023 319.171C149.733 319.15 150.426 318.943 151.03 318.569L154.646 316.481C160.668 313.006 161.729 313.613 164.035 314.946L166.931 316.612C167.734 317.071 168.78 316.996 169.799 316.406C170.78 315.803 171.588 314.956 172.145 313.947L175.04 308.954C177.647 304.437 178.947 302.463 184.954 298.993L188.569 296.903C190.797 295.618 192.546 292.599 192.546 290.028V266.976C192.546 265.574 192.027 264.502 191.086 263.965C190.145 263.428 188.961 263.514 187.741 264.216L150.205 285.87C147.974 287.16 146.228 290.181 146.228 292.75V315.791C146.228 317.199 146.752 318.273 147.691 318.802C148.094 319.042 148.554 319.169 149.023 319.171ZM161.094 312.243C159.406 312.243 157.331 313.034 153.818 315.049L150.2 317.139C149.525 317.528 148.91 317.62 148.511 317.39C148.112 317.159 147.881 316.594 147.879 315.801V292.76C147.879 290.793 149.322 288.299 151.03 287.313L188.569 265.644C189.244 265.253 189.861 265.16 190.26 265.393C190.659 265.626 190.893 266.201 190.893 266.979V290.018C190.893 291.985 189.45 294.479 187.741 295.462L184.126 297.55C177.765 301.228 176.305 303.446 173.607 308.116L170.717 313.122C170.302 313.875 169.704 314.512 168.978 314.973C168.476 315.259 168.03 315.335 167.756 315.177L164.863 313.516C163.521 312.74 162.424 312.243 161.094 312.243Z" fill="#93D0FF"/>
<path d="M177.539 289.528C178.041 289.824 178.761 289.779 179.546 289.333C181.102 288.429 182.367 286.241 182.367 284.442C182.367 283.541 182.051 282.912 181.541 282.613C181.032 282.315 180.324 282.362 179.534 282.816C177.973 283.717 176.711 285.903 176.711 287.704C176.714 288.605 177.03 289.235 177.539 289.528ZM166.318 293.708C166.318 291.904 167.573 289.721 169.139 288.821C169.924 288.369 170.629 288.319 171.146 288.62C171.663 288.921 171.976 289.546 171.974 290.444C171.974 292.246 170.719 294.434 169.144 295.334C168.366 295.783 167.661 295.836 167.136 295.533C166.612 295.229 166.316 294.607 166.318 293.708ZM155.918 299.71C155.918 297.909 157.173 295.723 158.743 294.822C159.526 294.373 160.234 294.321 160.751 294.619C161.268 294.918 161.576 295.548 161.581 296.448C161.581 298.245 160.314 300.435 158.751 301.341C157.973 301.79 157.263 301.83 156.756 301.534C156.249 301.238 155.916 300.606 155.918 299.71Z" fill="#CEE7FD"/>
<path d="M127.106 263.288C127.106 266.025 129.028 267.129 131.404 265.759L180.553 237.381C182.919 236.019 184.843 232.692 184.843 229.954V161.009C184.843 158.274 182.914 157.167 180.548 158.535L131.396 186.91C129.028 188.283 127.106 191.61 127.106 194.345V263.288Z" fill="white"/>
<path d="M129.477 267.177C130.304 267.152 131.11 266.91 131.815 266.477L180.964 238.099C183.601 236.593 185.669 233.003 185.669 229.954V161.009C185.669 159.38 185.077 158.141 183.998 157.518C182.919 156.896 181.546 157.002 180.136 157.82L130.982 186.193C128.345 187.721 126.28 191.301 126.28 194.345V263.288C126.28 264.914 126.867 266.153 127.944 266.776C128.41 267.044 128.939 267.183 129.477 267.177ZM182.467 158.783C182.713 158.778 182.956 158.837 183.172 158.956C183.709 159.267 184.015 160.018 184.015 161.016V229.962C184.015 232.391 182.241 235.464 180.139 236.674L130.99 265.044C130.117 265.546 129.311 265.657 128.772 265.345C128.232 265.034 127.931 264.287 127.931 263.288V194.345C127.931 191.919 129.708 188.842 131.81 187.625L180.962 159.252C181.414 158.965 181.932 158.801 182.467 158.776V158.783Z" fill="#93D0FF"/>
<g opacity="0.5">
<path opacity="0.5" d="M173.753 175.233C170.135 173.143 164.269 176.527 160.653 182.793C157.037 189.058 157.037 195.84 160.653 197.923C164.269 200.005 170.135 196.628 173.75 190.358C177.366 184.087 177.369 177.32 173.753 175.233Z" fill="#CEE7FD"/>
</g>
<path d="M134.965 202.227C134.985 201.869 135.088 201.521 135.267 201.211C135.446 200.901 135.695 200.637 135.994 200.44L148.038 193.5C148.607 193.164 149.067 193.435 149.067 194.09C149.048 194.448 148.945 194.796 148.765 195.107C148.585 195.417 148.334 195.68 148.033 195.874L135.989 202.821C135.417 203.15 134.96 202.882 134.963 202.227H134.965ZM134.963 198.162C134.963 198.816 135.424 199.082 135.997 198.756L144.5 193.846C144.8 193.649 145.049 193.385 145.228 193.074C145.407 192.763 145.511 192.415 145.531 192.057C145.531 191.405 145.07 191.139 144.5 191.472L135.992 196.38C135.693 196.576 135.444 196.839 135.265 197.149C135.087 197.458 134.983 197.805 134.963 198.162ZM134.97 206.549C134.991 206.192 135.094 205.845 135.273 205.535C135.452 205.225 135.7 204.961 135.999 204.765L148.043 197.817C148.607 197.493 149.069 197.754 149.072 198.409C149.054 198.768 148.952 199.117 148.772 199.429C148.593 199.74 148.342 200.004 148.04 200.198L135.997 207.141C135.427 207.475 134.968 207.209 134.965 206.549H134.97ZM134.665 217.222C134.685 216.865 134.789 216.519 134.969 216.21C135.148 215.901 135.397 215.638 135.696 215.443L147.74 208.493C148.304 208.164 148.763 208.428 148.766 209.085C148.747 209.444 148.644 209.793 148.464 210.104C148.285 210.415 148.035 210.68 147.735 210.877L135.691 217.819C135.121 218.15 134.662 217.882 134.66 217.222H134.665ZM134.66 211.514C134.66 212.179 135.116 212.442 135.688 212.108L141.961 208.493C142.261 208.296 142.51 208.032 142.688 207.722C142.867 207.412 142.97 207.064 142.99 206.706C142.99 206.049 142.531 205.78 141.961 206.119L135.688 209.73C135.39 209.927 135.141 210.19 134.963 210.5C134.784 210.81 134.68 211.157 134.66 211.514ZM133.628 228.461C133.649 228.104 133.752 227.757 133.931 227.448C134.11 227.139 134.358 226.875 134.657 226.68L173.601 204.195C174.173 203.867 174.635 204.133 174.635 204.785C174.615 205.142 174.512 205.49 174.334 205.801C174.155 206.111 173.907 206.376 173.609 206.574L134.66 229.056C134.09 229.387 133.631 229.121 133.628 228.461ZM133.325 239.291C133.345 238.934 133.449 238.587 133.629 238.278C133.809 237.969 134.059 237.706 134.359 237.512L166.144 219.16C166.716 218.836 167.176 219.097 167.176 219.747C167.157 220.106 167.053 220.456 166.874 220.767C166.694 221.078 166.443 221.343 166.142 221.539L134.354 239.893C133.784 240.217 133.325 239.951 133.325 239.291ZM133.325 233.558C133.325 234.22 133.789 234.486 134.354 234.16L158.986 219.936C159.285 219.739 159.534 219.476 159.713 219.166C159.892 218.856 159.996 218.509 160.017 218.152C160.017 217.497 159.555 217.228 158.991 217.559L134.354 231.784C134.056 231.978 133.807 232.24 133.628 232.548C133.45 232.856 133.346 233.202 133.325 233.558ZM133.325 245.276C133.344 244.92 133.447 244.573 133.626 244.265C133.805 243.956 134.054 243.694 134.354 243.5L173.298 221.011C173.87 220.68 174.332 220.951 174.332 221.603C174.311 221.96 174.207 222.308 174.027 222.618C173.847 222.928 173.598 223.191 173.298 223.387L134.354 245.874C133.787 246.205 133.325 245.936 133.325 245.276ZM133.02 256.284C133.039 255.927 133.143 255.579 133.321 255.269C133.5 254.96 133.749 254.696 134.048 254.5L165.839 236.151C166.408 235.82 166.865 236.083 166.87 236.738C166.852 237.096 166.75 237.445 166.57 237.756C166.391 238.066 166.14 238.33 165.839 238.524L134.053 256.876C133.484 257.202 133.02 256.939 133.02 256.284ZM133.022 250.2C133.022 250.857 133.489 251.126 134.051 250.799L158.688 236.575C158.987 236.379 159.236 236.116 159.415 235.806C159.594 235.496 159.697 235.148 159.717 234.791C159.717 234.131 159.252 233.865 158.683 234.199L134.048 248.421C133.751 248.617 133.503 248.88 133.325 249.189C133.147 249.498 133.043 249.844 133.022 250.2Z" fill="#EB5757"/>
<path d="M169.432 186.834C171.836 186.23 173.752 187.198 174.613 189.371C172.919 192.861 170.285 196.008 167.309 197.721C164.333 199.435 161.699 199.337 160 197.809C160.911 194.544 162.702 191.593 165.179 189.278C164.271 189.027 163.673 188.159 163.673 186.769C163.673 184.468 165.294 181.653 167.304 180.496C169.314 179.34 170.937 180.273 170.937 182.589C170.937 183.976 170.34 185.545 169.432 186.834Z" fill="#5F98ED"/>
<path d="M294.256 248.824L276.155 259.277L276.152 270.365L292.517 279.814L310.62 269.361V258.271L294.256 248.824Z" fill="white"/>
<g opacity="0.5">
<path opacity="0.5" d="M292.517 279.814L310.62 269.361V258.271L292.519 268.724L292.517 279.814Z" fill="#CEE7FD"/>
</g>
<path d="M276.152 270.365L292.517 279.814L292.519 268.724L276.155 259.277L276.152 270.365Z" fill="#CEE7FD"/>
<path d="M292.517 280.642C292.662 280.642 292.804 280.603 292.928 280.529L311.034 270.076C311.16 270.004 311.264 269.9 311.336 269.774C311.408 269.649 311.446 269.506 311.446 269.361V258.271C311.446 258.126 311.408 257.984 311.336 257.858C311.263 257.733 311.159 257.629 311.034 257.556L294.67 248.109C294.543 248.038 294.401 248 294.256 248C294.111 248 293.968 248.038 293.842 248.109L275.741 258.56C275.615 258.632 275.51 258.737 275.438 258.863C275.365 258.989 275.327 259.132 275.327 259.277V270.365C275.327 270.51 275.365 270.652 275.438 270.778C275.511 270.904 275.615 271.008 275.741 271.08L292.103 280.532C292.229 280.605 292.371 280.643 292.517 280.642ZM309.795 268.885L292.517 278.861L276.978 269.888V259.754L294.253 249.78L309.792 258.75L309.795 268.885Z" fill="#93D0FF"/>
<defs>
<linearGradient id="paint0_linear" x1="172.146" y1="341.282" x2="52.9861" y2="205.06" gradientUnits="userSpaceOnUse">
<stop stop-color="#CCE5FB"/>
<stop offset="1" stop-color="#CEE7FD" stop-opacity="0"/>
</linearGradient>
</defs>
</svg>
