<svg width="141" height="125" viewBox="0 0 141 125" fill="none" xmlns="http://www.w3.org/2000/svg">
<circle cx="23.1681" cy="117.832" r="1.55725" transform="rotate(-90 23.1681 117.832)" fill="#C4C4C4" fill-opacity="0.48"/>
<circle cx="31.4733" cy="117.832" r="1.55725" transform="rotate(-90 31.4733 117.832)" fill="#C4C4C4" fill-opacity="0.48"/>
<circle cx="39.7784" cy="117.832" r="1.55725" transform="rotate(-90 39.7784 117.832)" fill="#C4C4C4" fill-opacity="0.48"/>
<circle cx="48.0841" cy="117.832" r="1.55725" transform="rotate(-90 48.0841 117.832)" fill="#C4C4C4" fill-opacity="0.48"/>
<circle cx="56.3893" cy="117.832" r="1.55725" transform="rotate(-90 56.3893 117.832)" fill="#C4C4C4" fill-opacity="0.48"/>
<circle cx="64.6945" cy="117.832" r="1.55725" transform="rotate(-90 64.6945 117.832)" fill="#C4C4C4" fill-opacity="0.48"/>
<circle cx="73.0001" cy="117.832" r="1.55725" transform="rotate(-90 73.0001 117.832)" fill="#C4C4C4" fill-opacity="0.48"/>
<circle cx="81.3053" cy="117.832" r="1.55725" transform="rotate(-90 81.3053 117.832)" fill="#C4C4C4" fill-opacity="0.48"/>
<circle cx="89.611" cy="117.832" r="1.55725" transform="rotate(-90 89.611 117.832)" fill="#C4C4C4" fill-opacity="0.48"/>
<circle cx="97.9161" cy="117.832" r="1.55725" transform="rotate(-90 97.9161 117.832)" fill="#C4C4C4" fill-opacity="0.48"/>
<circle cx="106.221" cy="117.832" r="1.55725" transform="rotate(-90 106.221 117.832)" fill="#C4C4C4" fill-opacity="0.48"/>
<circle cx="114.526" cy="117.832" r="1.55725" transform="rotate(-90 114.526 117.832)" fill="#C4C4C4" fill-opacity="0.48"/>
<circle cx="122.832" cy="117.832" r="1.55725" transform="rotate(-90 122.832 117.832)" fill="#C4C4C4" fill-opacity="0.48"/>
<circle cx="131.137" cy="117.832" r="1.55725" transform="rotate(-90 131.137 117.832)" fill="#C4C4C4" fill-opacity="0.48"/>
<circle cx="139.443" cy="117.832" r="1.55725" transform="rotate(-90 139.443 117.832)" fill="#C4C4C4" fill-opacity="0.48"/>
<circle cx="23.1681" cy="109.527" r="1.55725" transform="rotate(-90 23.1681 109.527)" fill="#C4C4C4" fill-opacity="0.48"/>
<circle cx="31.4733" cy="109.527" r="1.55725" transform="rotate(-90 31.4733 109.527)" fill="#C4C4C4" fill-opacity="0.48"/>
<circle cx="39.7784" cy="109.527" r="1.55725" transform="rotate(-90 39.7784 109.527)" fill="#C4C4C4" fill-opacity="0.48"/>
<circle cx="48.0841" cy="109.527" r="1.55725" transform="rotate(-90 48.0841 109.527)" fill="#C4C4C4" fill-opacity="0.48"/>
<circle cx="56.3893" cy="109.527" r="1.55725" transform="rotate(-90 56.3893 109.527)" fill="#C4C4C4" fill-opacity="0.48"/>
<circle cx="64.6945" cy="109.527" r="1.55725" transform="rotate(-90 64.6945 109.527)" fill="#C4C4C4" fill-opacity="0.48"/>
<circle cx="73.0001" cy="109.527" r="1.55725" transform="rotate(-90 73.0001 109.527)" fill="#C4C4C4" fill-opacity="0.48"/>
<circle cx="81.3053" cy="109.527" r="1.55725" transform="rotate(-90 81.3053 109.527)" fill="#C4C4C4" fill-opacity="0.48"/>
<circle cx="89.611" cy="109.527" r="1.55725" transform="rotate(-90 89.611 109.527)" fill="#C4C4C4" fill-opacity="0.48"/>
<circle cx="97.9161" cy="109.527" r="1.55725" transform="rotate(-90 97.9161 109.527)" fill="#C4C4C4" fill-opacity="0.48"/>
<circle cx="106.221" cy="109.527" r="1.55725" transform="rotate(-90 106.221 109.527)" fill="#C4C4C4" fill-opacity="0.48"/>
<circle cx="114.526" cy="109.527" r="1.55725" transform="rotate(-90 114.526 109.527)" fill="#C4C4C4" fill-opacity="0.48"/>
<circle cx="122.832" cy="109.527" r="1.55725" transform="rotate(-90 122.832 109.527)" fill="#C4C4C4" fill-opacity="0.48"/>
<circle cx="131.137" cy="109.527" r="1.55725" transform="rotate(-90 131.137 109.527)" fill="#C4C4C4" fill-opacity="0.48"/>
<circle cx="139.443" cy="109.527" r="1.55725" transform="rotate(-90 139.443 109.527)" fill="#C4C4C4" fill-opacity="0.48"/>
<circle cx="6.55725" cy="101.222" r="1.55725" transform="rotate(-90 6.55725 101.222)" fill="#C4C4C4" fill-opacity="0.48"/>
<circle cx="14.8624" cy="101.222" r="1.55725" transform="rotate(-90 14.8624 101.222)" fill="#C4C4C4" fill-opacity="0.48"/>
<circle cx="23.1681" cy="101.222" r="1.55725" transform="rotate(-90 23.1681 101.222)" fill="#C4C4C4" fill-opacity="0.48"/>
<circle cx="31.4733" cy="101.222" r="1.55725" transform="rotate(-90 31.4733 101.222)" fill="#C4C4C4" fill-opacity="0.48"/>
<circle cx="39.7784" cy="101.222" r="1.55725" transform="rotate(-90 39.7784 101.222)" fill="#C4C4C4" fill-opacity="0.48"/>
<circle cx="48.0841" cy="101.222" r="1.55725" transform="rotate(-90 48.0841 101.222)" fill="#C4C4C4" fill-opacity="0.48"/>
<circle cx="56.3893" cy="101.222" r="1.55725" transform="rotate(-90 56.3893 101.222)" fill="#C4C4C4" fill-opacity="0.48"/>
<circle cx="64.6945" cy="101.222" r="1.55725" transform="rotate(-90 64.6945 101.222)" fill="#C4C4C4" fill-opacity="0.48"/>
<circle cx="73.0001" cy="101.222" r="1.55725" transform="rotate(-90 73.0001 101.222)" fill="#C4C4C4" fill-opacity="0.48"/>
<circle cx="81.3053" cy="101.222" r="1.55725" transform="rotate(-90 81.3053 101.222)" fill="#C4C4C4" fill-opacity="0.48"/>
<circle cx="89.611" cy="101.222" r="1.55725" transform="rotate(-90 89.611 101.222)" fill="#C4C4C4" fill-opacity="0.48"/>
<circle cx="97.9161" cy="101.222" r="1.55725" transform="rotate(-90 97.9161 101.222)" fill="#C4C4C4" fill-opacity="0.48"/>
<circle cx="106.221" cy="101.222" r="1.55725" transform="rotate(-90 106.221 101.222)" fill="#C4C4C4" fill-opacity="0.48"/>
<circle cx="114.526" cy="101.222" r="1.55725" transform="rotate(-90 114.526 101.222)" fill="#C4C4C4" fill-opacity="0.48"/>
<circle cx="122.832" cy="101.222" r="1.55725" transform="rotate(-90 122.832 101.222)" fill="#C4C4C4" fill-opacity="0.48"/>
<circle cx="131.137" cy="101.222" r="1.55725" transform="rotate(-90 131.137 101.222)" fill="#C4C4C4" fill-opacity="0.48"/>
<circle cx="139.443" cy="101.222" r="1.55725" transform="rotate(-90 139.443 101.222)" fill="#C4C4C4" fill-opacity="0.48"/>
<circle cx="6.55725" cy="92.9161" r="1.55725" transform="rotate(-90 6.55725 92.9161)" fill="#C4C4C4" fill-opacity="0.48"/>
<circle cx="14.8624" cy="92.9161" r="1.55725" transform="rotate(-90 14.8624 92.9161)" fill="#C4C4C4" fill-opacity="0.48"/>
<circle cx="23.1681" cy="92.9161" r="1.55725" transform="rotate(-90 23.1681 92.9161)" fill="#C4C4C4" fill-opacity="0.48"/>
<circle cx="31.4733" cy="92.9161" r="1.55725" transform="rotate(-90 31.4733 92.9161)" fill="#C4C4C4" fill-opacity="0.48"/>
<circle cx="39.7784" cy="92.9161" r="1.55725" transform="rotate(-90 39.7784 92.9161)" fill="#C4C4C4" fill-opacity="0.48"/>
<circle cx="48.0841" cy="92.9161" r="1.55725" transform="rotate(-90 48.0841 92.9161)" fill="#C4C4C4" fill-opacity="0.48"/>
<circle cx="56.3893" cy="92.9161" r="1.55725" transform="rotate(-90 56.3893 92.9161)" fill="#C4C4C4" fill-opacity="0.48"/>
<circle cx="64.6945" cy="92.9161" r="1.55725" transform="rotate(-90 64.6945 92.9161)" fill="#C4C4C4" fill-opacity="0.48"/>
<circle cx="73.0001" cy="92.9161" r="1.55725" transform="rotate(-90 73.0001 92.9161)" fill="#C4C4C4" fill-opacity="0.48"/>
<circle cx="81.3053" cy="92.9161" r="1.55725" transform="rotate(-90 81.3053 92.9161)" fill="#C4C4C4" fill-opacity="0.48"/>
<circle cx="89.611" cy="92.9161" r="1.55725" transform="rotate(-90 89.611 92.9161)" fill="#C4C4C4" fill-opacity="0.48"/>
<circle cx="97.9161" cy="92.9161" r="1.55725" transform="rotate(-90 97.9161 92.9161)" fill="#C4C4C4" fill-opacity="0.48"/>
<circle cx="106.221" cy="92.9161" r="1.55725" transform="rotate(-90 106.221 92.9161)" fill="#C4C4C4" fill-opacity="0.48"/>
<circle cx="114.526" cy="92.9161" r="1.55725" transform="rotate(-90 114.526 92.9161)" fill="#C4C4C4" fill-opacity="0.48"/>
<circle cx="122.832" cy="92.9161" r="1.55725" transform="rotate(-90 122.832 92.9161)" fill="#C4C4C4" fill-opacity="0.48"/>
<circle cx="131.137" cy="92.9161" r="1.55725" transform="rotate(-90 131.137 92.9161)" fill="#C4C4C4" fill-opacity="0.48"/>
<circle cx="139.443" cy="92.9161" r="1.55725" transform="rotate(-90 139.443 92.9161)" fill="#C4C4C4" fill-opacity="0.48"/>
<circle cx="6.55725" cy="84.6107" r="1.55725" transform="rotate(-90 6.55725 84.6107)" fill="#C4C4C4" fill-opacity="0.48"/>
<circle cx="14.8624" cy="84.6107" r="1.55725" transform="rotate(-90 14.8624 84.6107)" fill="#C4C4C4" fill-opacity="0.48"/>
<circle cx="23.1681" cy="84.6107" r="1.55725" transform="rotate(-90 23.1681 84.6107)" fill="#C4C4C4" fill-opacity="0.48"/>
<circle cx="31.4733" cy="84.6107" r="1.55725" transform="rotate(-90 31.4733 84.6107)" fill="#C4C4C4" fill-opacity="0.48"/>
<circle cx="39.7784" cy="84.6107" r="1.55725" transform="rotate(-90 39.7784 84.6107)" fill="#C4C4C4" fill-opacity="0.48"/>
<circle cx="48.0841" cy="84.6107" r="1.55725" transform="rotate(-90 48.0841 84.6107)" fill="#C4C4C4" fill-opacity="0.48"/>
<circle cx="56.3893" cy="84.6107" r="1.55725" transform="rotate(-90 56.3893 84.6107)" fill="#C4C4C4" fill-opacity="0.48"/>
<circle cx="64.6945" cy="84.6107" r="1.55725" transform="rotate(-90 64.6945 84.6107)" fill="#C4C4C4" fill-opacity="0.48"/>
<circle cx="73.0001" cy="84.6107" r="1.55725" transform="rotate(-90 73.0001 84.6107)" fill="#C4C4C4" fill-opacity="0.48"/>
<circle cx="81.3053" cy="84.6107" r="1.55725" transform="rotate(-90 81.3053 84.6107)" fill="#C4C4C4" fill-opacity="0.48"/>
<circle cx="89.611" cy="84.6107" r="1.55725" transform="rotate(-90 89.611 84.6107)" fill="#C4C4C4" fill-opacity="0.48"/>
<circle cx="97.9161" cy="84.6107" r="1.55725" transform="rotate(-90 97.9161 84.6107)" fill="#C4C4C4" fill-opacity="0.48"/>
<circle cx="106.221" cy="84.6107" r="1.55725" transform="rotate(-90 106.221 84.6107)" fill="#C4C4C4" fill-opacity="0.48"/>
<circle cx="114.526" cy="84.6107" r="1.55725" transform="rotate(-90 114.526 84.6107)" fill="#C4C4C4" fill-opacity="0.48"/>
<circle cx="122.832" cy="84.6107" r="1.55725" transform="rotate(-90 122.832 84.6107)" fill="#C4C4C4" fill-opacity="0.48"/>
<circle cx="131.137" cy="84.6107" r="1.55725" transform="rotate(-90 131.137 84.6107)" fill="#C4C4C4" fill-opacity="0.48"/>
<circle cx="139.443" cy="84.6107" r="1.55725" transform="rotate(-90 139.443 84.6107)" fill="#C4C4C4" fill-opacity="0.48"/>
<circle cx="6.55725" cy="76.3055" r="1.55725" transform="rotate(-90 6.55725 76.3055)" fill="#C4C4C4" fill-opacity="0.48"/>
<circle cx="14.8624" cy="76.3055" r="1.55725" transform="rotate(-90 14.8624 76.3055)" fill="#C4C4C4" fill-opacity="0.48"/>
<circle cx="23.1681" cy="76.3055" r="1.55725" transform="rotate(-90 23.1681 76.3055)" fill="#C4C4C4" fill-opacity="0.48"/>
<circle cx="31.4733" cy="76.3055" r="1.55725" transform="rotate(-90 31.4733 76.3055)" fill="#C4C4C4" fill-opacity="0.48"/>
<circle cx="39.7784" cy="76.3055" r="1.55725" transform="rotate(-90 39.7784 76.3055)" fill="#C4C4C4" fill-opacity="0.48"/>
<circle cx="48.0841" cy="76.3055" r="1.55725" transform="rotate(-90 48.0841 76.3055)" fill="#C4C4C4" fill-opacity="0.48"/>
<circle cx="56.3893" cy="76.3055" r="1.55725" transform="rotate(-90 56.3893 76.3055)" fill="#C4C4C4" fill-opacity="0.48"/>
<circle cx="64.6945" cy="76.3055" r="1.55725" transform="rotate(-90 64.6945 76.3055)" fill="#C4C4C4" fill-opacity="0.48"/>
<circle cx="73.0001" cy="76.3055" r="1.55725" transform="rotate(-90 73.0001 76.3055)" fill="#C4C4C4" fill-opacity="0.48"/>
<circle cx="81.3053" cy="76.3055" r="1.55725" transform="rotate(-90 81.3053 76.3055)" fill="#C4C4C4" fill-opacity="0.48"/>
<circle cx="89.611" cy="76.3055" r="1.55725" transform="rotate(-90 89.611 76.3055)" fill="#C4C4C4" fill-opacity="0.48"/>
<circle cx="97.9161" cy="76.3055" r="1.55725" transform="rotate(-90 97.9161 76.3055)" fill="#C4C4C4" fill-opacity="0.48"/>
<circle cx="106.221" cy="76.3055" r="1.55725" transform="rotate(-90 106.221 76.3055)" fill="#C4C4C4" fill-opacity="0.48"/>
<circle cx="114.526" cy="76.3055" r="1.55725" transform="rotate(-90 114.526 76.3055)" fill="#C4C4C4" fill-opacity="0.48"/>
<circle cx="122.832" cy="76.3055" r="1.55725" transform="rotate(-90 122.832 76.3055)" fill="#C4C4C4" fill-opacity="0.48"/>
<circle cx="131.137" cy="76.3055" r="1.55725" transform="rotate(-90 131.137 76.3055)" fill="#C4C4C4" fill-opacity="0.48"/>
<circle cx="139.443" cy="76.3055" r="1.55725" transform="rotate(-90 139.443 76.3055)" fill="#C4C4C4" fill-opacity="0.48"/>
<circle cx="6.55725" cy="68.0001" r="1.55725" transform="rotate(-90 6.55725 68.0001)" fill="#C4C4C4" fill-opacity="0.48"/>
<circle cx="14.8624" cy="68.0001" r="1.55725" transform="rotate(-90 14.8624 68.0001)" fill="#C4C4C4" fill-opacity="0.48"/>
<circle cx="23.1681" cy="68.0001" r="1.55725" transform="rotate(-90 23.1681 68.0001)" fill="#C4C4C4" fill-opacity="0.48"/>
<circle cx="31.4733" cy="68.0001" r="1.55725" transform="rotate(-90 31.4733 68.0001)" fill="#C4C4C4" fill-opacity="0.48"/>
<circle cx="39.7784" cy="68.0001" r="1.55725" transform="rotate(-90 39.7784 68.0001)" fill="#C4C4C4" fill-opacity="0.48"/>
<circle cx="48.0841" cy="68.0001" r="1.55725" transform="rotate(-90 48.0841 68.0001)" fill="#C4C4C4" fill-opacity="0.48"/>
<circle cx="56.3893" cy="68.0001" r="1.55725" transform="rotate(-90 56.3893 68.0001)" fill="#C4C4C4" fill-opacity="0.48"/>
<circle cx="64.6945" cy="68.0001" r="1.55725" transform="rotate(-90 64.6945 68.0001)" fill="#C4C4C4" fill-opacity="0.48"/>
<circle cx="73.0001" cy="68.0001" r="1.55725" transform="rotate(-90 73.0001 68.0001)" fill="#C4C4C4" fill-opacity="0.48"/>
<circle cx="81.3053" cy="68.0001" r="1.55725" transform="rotate(-90 81.3053 68.0001)" fill="#C4C4C4" fill-opacity="0.48"/>
<circle cx="89.611" cy="68.0001" r="1.55725" transform="rotate(-90 89.611 68.0001)" fill="#C4C4C4" fill-opacity="0.48"/>
<circle cx="97.9161" cy="68.0001" r="1.55725" transform="rotate(-90 97.9161 68.0001)" fill="#C4C4C4" fill-opacity="0.48"/>
<circle cx="106.221" cy="68.0001" r="1.55725" transform="rotate(-90 106.221 68.0001)" fill="#C4C4C4" fill-opacity="0.48"/>
<circle cx="114.526" cy="68.0001" r="1.55725" transform="rotate(-90 114.526 68.0001)" fill="#C4C4C4" fill-opacity="0.48"/>
<circle cx="122.832" cy="68.0001" r="1.55725" transform="rotate(-90 122.832 68.0001)" fill="#C4C4C4" fill-opacity="0.48"/>
<circle cx="131.137" cy="68.0001" r="1.55725" transform="rotate(-90 131.137 68.0001)" fill="#C4C4C4" fill-opacity="0.48"/>
<circle cx="139.443" cy="68.0001" r="1.55725" transform="rotate(-90 139.443 68.0001)" fill="#C4C4C4" fill-opacity="0.48"/>
<circle cx="6.55725" cy="59.6947" r="1.55725" transform="rotate(-90 6.55725 59.6947)" fill="#C4C4C4" fill-opacity="0.48"/>
<circle cx="14.8624" cy="59.6947" r="1.55725" transform="rotate(-90 14.8624 59.6947)" fill="#C4C4C4" fill-opacity="0.48"/>
<circle cx="23.1681" cy="59.6947" r="1.55725" transform="rotate(-90 23.1681 59.6947)" fill="#C4C4C4" fill-opacity="0.48"/>
<circle cx="31.4733" cy="59.6947" r="1.55725" transform="rotate(-90 31.4733 59.6947)" fill="#C4C4C4" fill-opacity="0.48"/>
<circle cx="39.7784" cy="59.6947" r="1.55725" transform="rotate(-90 39.7784 59.6947)" fill="#C4C4C4" fill-opacity="0.48"/>
<circle cx="48.0841" cy="59.6947" r="1.55725" transform="rotate(-90 48.0841 59.6947)" fill="#C4C4C4" fill-opacity="0.48"/>
<circle cx="56.3893" cy="59.6947" r="1.55725" transform="rotate(-90 56.3893 59.6947)" fill="#C4C4C4" fill-opacity="0.48"/>
<circle cx="64.6945" cy="59.6947" r="1.55725" transform="rotate(-90 64.6945 59.6947)" fill="#C4C4C4" fill-opacity="0.48"/>
<circle cx="81.3053" cy="59.6947" r="1.55725" transform="rotate(-90 81.3053 59.6947)" fill="#C4C4C4" fill-opacity="0.48"/>
<circle cx="73.0001" cy="59.6947" r="1.55725" transform="rotate(-90 73.0001 59.6947)" fill="#C4C4C4" fill-opacity="0.48"/>
<circle cx="89.611" cy="59.6947" r="1.55725" transform="rotate(-90 89.611 59.6947)" fill="#C4C4C4" fill-opacity="0.48"/>
<circle cx="97.9161" cy="59.6947" r="1.55725" transform="rotate(-90 97.9161 59.6947)" fill="#C4C4C4" fill-opacity="0.48"/>
<circle cx="106.221" cy="59.6947" r="1.55725" transform="rotate(-90 106.221 59.6947)" fill="#C4C4C4" fill-opacity="0.48"/>
<circle cx="114.526" cy="59.6947" r="1.55725" transform="rotate(-90 114.526 59.6947)" fill="#C4C4C4" fill-opacity="0.48"/>
<circle cx="122.832" cy="59.6947" r="1.55725" transform="rotate(-90 122.832 59.6947)" fill="#C4C4C4" fill-opacity="0.48"/>
<circle cx="131.137" cy="59.6947" r="1.55725" transform="rotate(-90 131.137 59.6947)" fill="#C4C4C4" fill-opacity="0.48"/>
<circle cx="139.443" cy="59.6947" r="1.55725" transform="rotate(-90 139.443 59.6947)" fill="#C4C4C4" fill-opacity="0.48"/>
<circle cx="6.55725" cy="51.3895" r="1.55725" transform="rotate(-90 6.55725 51.3895)" fill="#C4C4C4" fill-opacity="0.48"/>
<circle cx="14.8624" cy="51.3895" r="1.55725" transform="rotate(-90 14.8624 51.3895)" fill="#C4C4C4" fill-opacity="0.48"/>
<circle cx="23.1681" cy="51.3895" r="1.55725" transform="rotate(-90 23.1681 51.3895)" fill="#C4C4C4" fill-opacity="0.48"/>
<circle cx="31.4733" cy="51.3895" r="1.55725" transform="rotate(-90 31.4733 51.3895)" fill="#C4C4C4" fill-opacity="0.48"/>
<circle cx="39.7784" cy="51.3895" r="1.55725" transform="rotate(-90 39.7784 51.3895)" fill="#C4C4C4" fill-opacity="0.48"/>
<circle cx="48.0841" cy="51.3895" r="1.55725" transform="rotate(-90 48.0841 51.3895)" fill="#C4C4C4" fill-opacity="0.48"/>
<circle cx="56.3893" cy="51.3895" r="1.55725" transform="rotate(-90 56.3893 51.3895)" fill="#C4C4C4" fill-opacity="0.48"/>
<circle cx="64.6945" cy="51.3895" r="1.55725" transform="rotate(-90 64.6945 51.3895)" fill="#C4C4C4" fill-opacity="0.48"/>
<circle cx="73.0001" cy="51.3895" r="1.55725" transform="rotate(-90 73.0001 51.3895)" fill="#C4C4C4" fill-opacity="0.48"/>
<circle cx="81.3053" cy="51.3895" r="1.55725" transform="rotate(-90 81.3053 51.3895)" fill="#C4C4C4" fill-opacity="0.48"/>
<circle cx="89.611" cy="51.3895" r="1.55725" transform="rotate(-90 89.611 51.3895)" fill="#C4C4C4" fill-opacity="0.48"/>
<circle cx="97.9161" cy="51.3895" r="1.55725" transform="rotate(-90 97.9161 51.3895)" fill="#C4C4C4" fill-opacity="0.48"/>
<circle cx="6.55725" cy="43.0841" r="1.55725" transform="rotate(-90 6.55725 43.0841)" fill="#C4C4C4" fill-opacity="0.48"/>
<circle cx="14.8624" cy="43.0841" r="1.55725" transform="rotate(-90 14.8624 43.0841)" fill="#C4C4C4" fill-opacity="0.48"/>
<circle cx="23.1681" cy="43.0841" r="1.55725" transform="rotate(-90 23.1681 43.0841)" fill="#C4C4C4" fill-opacity="0.48"/>
<circle cx="31.4733" cy="43.0841" r="1.55725" transform="rotate(-90 31.4733 43.0841)" fill="#C4C4C4" fill-opacity="0.48"/>
<circle cx="39.7784" cy="43.0841" r="1.55725" transform="rotate(-90 39.7784 43.0841)" fill="#C4C4C4" fill-opacity="0.48"/>
<circle cx="48.0841" cy="43.0841" r="1.55725" transform="rotate(-90 48.0841 43.0841)" fill="#C4C4C4" fill-opacity="0.48"/>
<circle cx="56.3893" cy="43.0841" r="1.55725" transform="rotate(-90 56.3893 43.0841)" fill="#C4C4C4" fill-opacity="0.48"/>
<circle cx="64.6945" cy="43.0841" r="1.55725" transform="rotate(-90 64.6945 43.0841)" fill="#C4C4C4" fill-opacity="0.48"/>
<circle cx="73.0001" cy="43.0841" r="1.55725" transform="rotate(-90 73.0001 43.0841)" fill="#C4C4C4" fill-opacity="0.48"/>
<circle cx="81.3053" cy="43.0841" r="1.55725" transform="rotate(-90 81.3053 43.0841)" fill="#C4C4C4" fill-opacity="0.48"/>
<circle cx="89.611" cy="43.0841" r="1.55725" transform="rotate(-90 89.611 43.0841)" fill="#C4C4C4" fill-opacity="0.48"/>
<circle cx="97.9161" cy="43.0841" r="1.55725" transform="rotate(-90 97.9161 43.0841)" fill="#C4C4C4" fill-opacity="0.48"/>
<circle cx="6.55725" cy="34.7787" r="1.55725" transform="rotate(-90 6.55725 34.7787)" fill="#C4C4C4" fill-opacity="0.48"/>
<circle cx="14.8624" cy="34.7787" r="1.55725" transform="rotate(-90 14.8624 34.7787)" fill="#C4C4C4" fill-opacity="0.48"/>
<circle cx="23.1681" cy="34.7787" r="1.55725" transform="rotate(-90 23.1681 34.7787)" fill="#C4C4C4" fill-opacity="0.48"/>
<circle cx="31.4733" cy="34.7787" r="1.55725" transform="rotate(-90 31.4733 34.7787)" fill="#C4C4C4" fill-opacity="0.48"/>
<circle cx="39.7784" cy="34.7787" r="1.55725" transform="rotate(-90 39.7784 34.7787)" fill="#C4C4C4" fill-opacity="0.48"/>
<circle cx="48.0841" cy="34.7787" r="1.55725" transform="rotate(-90 48.0841 34.7787)" fill="#C4C4C4" fill-opacity="0.48"/>
<circle cx="56.3893" cy="34.7787" r="1.55725" transform="rotate(-90 56.3893 34.7787)" fill="#C4C4C4" fill-opacity="0.48"/>
<circle cx="64.6945" cy="34.7787" r="1.55725" transform="rotate(-90 64.6945 34.7787)" fill="#C4C4C4" fill-opacity="0.48"/>
<circle cx="73.0001" cy="34.7787" r="1.55725" transform="rotate(-90 73.0001 34.7787)" fill="#C4C4C4" fill-opacity="0.48"/>
<circle cx="81.3053" cy="34.7787" r="1.55725" transform="rotate(-90 81.3053 34.7787)" fill="#C4C4C4" fill-opacity="0.48"/>
<circle cx="89.611" cy="34.7787" r="1.55725" transform="rotate(-90 89.611 34.7787)" fill="#C4C4C4" fill-opacity="0.48"/>
<circle cx="97.9161" cy="34.7787" r="1.55725" transform="rotate(-90 97.9161 34.7787)" fill="#C4C4C4" fill-opacity="0.48"/>
<circle cx="6.55725" cy="26.4733" r="1.55725" transform="rotate(-90 6.55725 26.4733)" fill="#C4C4C4" fill-opacity="0.48"/>
<circle cx="14.8624" cy="26.4733" r="1.55725" transform="rotate(-90 14.8624 26.4733)" fill="#C4C4C4" fill-opacity="0.48"/>
<circle cx="23.1681" cy="26.4733" r="1.55725" transform="rotate(-90 23.1681 26.4733)" fill="#C4C4C4" fill-opacity="0.48"/>
<circle cx="31.4733" cy="26.4733" r="1.55725" transform="rotate(-90 31.4733 26.4733)" fill="#C4C4C4" fill-opacity="0.48"/>
<circle cx="39.7784" cy="26.4733" r="1.55725" transform="rotate(-90 39.7784 26.4733)" fill="#C4C4C4" fill-opacity="0.48"/>
<circle cx="48.0841" cy="26.4733" r="1.55725" transform="rotate(-90 48.0841 26.4733)" fill="#C4C4C4" fill-opacity="0.48"/>
<circle cx="56.3893" cy="26.4733" r="1.55725" transform="rotate(-90 56.3893 26.4733)" fill="#C4C4C4" fill-opacity="0.48"/>
<circle cx="64.6945" cy="26.4733" r="1.55725" transform="rotate(-90 64.6945 26.4733)" fill="#C4C4C4" fill-opacity="0.48"/>
<circle cx="73.0001" cy="26.4733" r="1.55725" transform="rotate(-90 73.0001 26.4733)" fill="#C4C4C4" fill-opacity="0.48"/>
<circle cx="81.3053" cy="26.4733" r="1.55725" transform="rotate(-90 81.3053 26.4733)" fill="#C4C4C4" fill-opacity="0.48"/>
<circle cx="89.611" cy="26.4733" r="1.55725" transform="rotate(-90 89.611 26.4733)" fill="#C4C4C4" fill-opacity="0.48"/>
<circle cx="97.9161" cy="26.4733" r="1.55725" transform="rotate(-90 97.9161 26.4733)" fill="#C4C4C4" fill-opacity="0.48"/>
<circle cx="6.55725" cy="18.1681" r="1.55725" transform="rotate(-90 6.55725 18.1681)" fill="#C4C4C4" fill-opacity="0.48"/>
<circle cx="14.8624" cy="18.1681" r="1.55725" transform="rotate(-90 14.8624 18.1681)" fill="#C4C4C4" fill-opacity="0.48"/>
<circle cx="23.1681" cy="18.1681" r="1.55725" transform="rotate(-90 23.1681 18.1681)" fill="#C4C4C4" fill-opacity="0.48"/>
<circle cx="31.4733" cy="18.1681" r="1.55725" transform="rotate(-90 31.4733 18.1681)" fill="#C4C4C4" fill-opacity="0.48"/>
<circle cx="39.7784" cy="18.1681" r="1.55725" transform="rotate(-90 39.7784 18.1681)" fill="#C4C4C4" fill-opacity="0.48"/>
<circle cx="48.0841" cy="18.1681" r="1.55725" transform="rotate(-90 48.0841 18.1681)" fill="#C4C4C4" fill-opacity="0.48"/>
<circle cx="56.3893" cy="18.1681" r="1.55725" transform="rotate(-90 56.3893 18.1681)" fill="#C4C4C4" fill-opacity="0.48"/>
<circle cx="64.6945" cy="18.1681" r="1.55725" transform="rotate(-90 64.6945 18.1681)" fill="#C4C4C4" fill-opacity="0.48"/>
<circle cx="73.0001" cy="18.1681" r="1.55725" transform="rotate(-90 73.0001 18.1681)" fill="#C4C4C4" fill-opacity="0.48"/>
<circle cx="81.3053" cy="18.1681" r="1.55725" transform="rotate(-90 81.3053 18.1681)" fill="#C4C4C4" fill-opacity="0.48"/>
<circle cx="89.611" cy="18.1681" r="1.55725" transform="rotate(-90 89.611 18.1681)" fill="#C4C4C4" fill-opacity="0.48"/>
<circle cx="97.9161" cy="18.1681" r="1.55725" transform="rotate(-90 97.9161 18.1681)" fill="#C4C4C4" fill-opacity="0.48"/>
<circle cx="6.55725" cy="9.86267" r="1.55725" transform="rotate(-90 6.55725 9.86267)" fill="#C4C4C4" fill-opacity="0.48"/>
<circle cx="14.8624" cy="9.86267" r="1.55725" transform="rotate(-90 14.8624 9.86267)" fill="#C4C4C4" fill-opacity="0.48"/>
<circle cx="23.1681" cy="9.86267" r="1.55725" transform="rotate(-90 23.1681 9.86267)" fill="#C4C4C4" fill-opacity="0.48"/>
<circle cx="31.4733" cy="9.86267" r="1.55725" transform="rotate(-90 31.4733 9.86267)" fill="#C4C4C4" fill-opacity="0.48"/>
<circle cx="39.7784" cy="9.86267" r="1.55725" transform="rotate(-90 39.7784 9.86267)" fill="#C4C4C4" fill-opacity="0.48"/>
<circle cx="48.0841" cy="9.86267" r="1.55725" transform="rotate(-90 48.0841 9.86267)" fill="#C4C4C4" fill-opacity="0.48"/>
<circle cx="56.3893" cy="9.86267" r="1.55725" transform="rotate(-90 56.3893 9.86267)" fill="#C4C4C4" fill-opacity="0.48"/>
<circle cx="64.6945" cy="9.86267" r="1.55725" transform="rotate(-90 64.6945 9.86267)" fill="#C4C4C4" fill-opacity="0.48"/>
<circle cx="73.0001" cy="9.86267" r="1.55725" transform="rotate(-90 73.0001 9.86267)" fill="#C4C4C4" fill-opacity="0.48"/>
<circle cx="81.3053" cy="9.86267" r="1.55725" transform="rotate(-90 81.3053 9.86267)" fill="#C4C4C4" fill-opacity="0.48"/>
<circle cx="89.611" cy="9.86267" r="1.55725" transform="rotate(-90 89.611 9.86267)" fill="#C4C4C4" fill-opacity="0.48"/>
<circle cx="97.9161" cy="9.86267" r="1.55725" transform="rotate(-90 97.9161 9.86267)" fill="#C4C4C4" fill-opacity="0.48"/>
<circle cx="6.55725" cy="1.55725" r="1.55725" transform="rotate(-90 6.55725 1.55725)" fill="#C4C4C4" fill-opacity="0.48"/>
<circle cx="14.8624" cy="1.55725" r="1.55725" transform="rotate(-90 14.8624 1.55725)" fill="#C4C4C4" fill-opacity="0.48"/>
<circle cx="23.1681" cy="1.55725" r="1.55725" transform="rotate(-90 23.1681 1.55725)" fill="#C4C4C4" fill-opacity="0.48"/>
<circle cx="31.4733" cy="1.55725" r="1.55725" transform="rotate(-90 31.4733 1.55725)" fill="#C4C4C4" fill-opacity="0.48"/>
<circle cx="39.7784" cy="1.55725" r="1.55725" transform="rotate(-90 39.7784 1.55725)" fill="#C4C4C4" fill-opacity="0.48"/>
<circle cx="48.0841" cy="1.55725" r="1.55725" transform="rotate(-90 48.0841 1.55725)" fill="#C4C4C4" fill-opacity="0.48"/>
<circle cx="56.3893" cy="1.55725" r="1.55725" transform="rotate(-90 56.3893 1.55725)" fill="#C4C4C4" fill-opacity="0.48"/>
<circle cx="64.6945" cy="1.55725" r="1.55725" transform="rotate(-90 64.6945 1.55725)" fill="#C4C4C4" fill-opacity="0.48"/>
<circle cx="73.0001" cy="1.55725" r="1.55725" transform="rotate(-90 73.0001 1.55725)" fill="#C4C4C4" fill-opacity="0.48"/>
<circle cx="81.3053" cy="1.55725" r="1.55725" transform="rotate(-90 81.3053 1.55725)" fill="#C4C4C4" fill-opacity="0.48"/>
<circle cx="89.611" cy="1.55725" r="1.55725" transform="rotate(-90 89.611 1.55725)" fill="#C4C4C4" fill-opacity="0.48"/>
<circle cx="97.9161" cy="1.55725" r="1.55725" transform="rotate(-90 97.9161 1.55725)" fill="#C4C4C4" fill-opacity="0.48"/>
</svg>
