<svg width="160" height="151" viewBox="0 0 160 151" fill="none" xmlns="http://www.w3.org/2000/svg">
<path d="M65.5625 51.2285C43.9732 63.6936 43.9945 83.913 65.6029 96.3887C87.2113 108.864 122.234 108.881 143.823 96.4163C165.413 83.9512 165.387 63.7339 143.777 51.2582C122.166 38.7825 87.1518 38.7655 65.5625 51.2285Z" fill="#CEE7FD"/>
<path d="M97.6332 103.812C90.6923 107.836 81.1072 107.263 70.4878 101.15C49.3062 88.9189 32.1304 59.1505 32.1304 34.6727C32.1304 22.437 36.4185 13.8332 43.3509 9.82326H43.3615L53.8004 3.79567C60.7455 -0.239715 70.3455 0.320993 80.9521 6.44628C102.132 18.6756 119.31 48.444 119.31 72.9239C119.31 85.1681 115.013 93.772 108.074 97.7904L97.6332 103.812Z" fill="#3199F0"/>
<g style="mix-blend-mode:overlay" opacity="0.3">
<path d="M39.2666 41.8281C42.8624 43.9031 46.1162 44.0964 48.4694 42.7286C50.8227 41.3608 52.2754 38.449 52.2754 34.2989C52.2754 26.3089 46.8807 16.6707 40.0758 12.2615C37.7714 14.3981 35.8981 17.1846 34.5537 20.5765L38.1303 25.2936L32.9332 26.1432C32.3931 28.9525 32.1292 31.8078 32.1452 34.6685C32.1452 34.8702 32.1452 35.0741 32.1601 35.278C34.1948 38.0009 36.633 40.3116 39.2666 41.8281Z" fill="black"/>
</g>
<g style="mix-blend-mode:overlay" opacity="0.3">
<path d="M97.6331 103.812C104.563 99.789 108.851 91.1893 108.851 78.9621C108.851 54.4737 91.6798 24.7053 70.4962 12.4845C59.9065 6.36982 50.3193 5.79637 43.3784 9.81264L53.8173 3.78505C60.7624 -0.250335 70.3624 0.310373 80.9691 6.43566C102.148 18.665 119.326 48.4334 119.326 72.9133C119.326 85.1575 115.03 93.7614 108.091 97.7798L97.6331 103.818V103.812Z" fill="black"/>
</g>
<path d="M70.4879 90.0596C86.3746 99.2305 99.2538 91.7757 99.2538 73.4104C99.2538 55.0452 86.3852 32.7252 70.4879 23.5522C54.5906 14.3791 41.7199 21.834 41.7241 40.2013C41.7284 58.5687 54.6097 80.8907 70.4879 90.0596ZM70.4879 78.9729C59.8961 72.8603 51.3092 57.9761 51.3092 45.7298C51.3092 33.4835 59.8961 28.5263 70.4879 34.6325C81.0797 40.7387 89.6645 55.6271 89.6645 67.8734C89.6645 80.1198 81.0861 85.0939 70.4879 78.9792V78.9729Z" fill="white"/>
<path d="M60.9006 51.2668C60.9006 57.3899 65.193 64.8299 70.4879 67.8883V67.8947C75.7976 70.9446 80.0793 68.466 80.0793 62.3407C80.0793 56.2154 75.7827 48.7712 70.4879 45.7149C65.193 42.6586 60.9006 45.1436 60.9006 51.2668Z" fill="#EB5757"/>
<path d="M48.4609 42.7286C50.812 41.3672 52.2669 38.449 52.2669 34.2989C52.2669 30.442 50.9926 26.2069 48.9367 22.3563C44.4553 25.6335 41.7303 31.7609 41.7324 40.197C41.7324 41.1272 41.7728 42.0681 41.8386 43.0154C44.3979 43.9031 46.6853 43.7587 48.4609 42.7286Z" fill="#DAE8FF"/>
<path d="M87.6084 106.747C82.2987 106.747 76.4155 104.969 70.3221 101.452C49.0832 89.1845 31.7905 59.2228 31.7905 34.6664C31.7905 22.7047 35.8259 13.7716 43.1767 9.50898L43.2319 9.47925L53.6389 3.46652L53.6708 3.45165C61.028 -0.808861 70.7808 0.138391 81.139 6.11926C102.378 18.3868 119.671 48.3485 119.671 72.907C119.671 84.8772 115.618 93.8145 108.261 98.075L97.803 104.113C94.7744 105.872 91.3337 106.747 87.6084 106.747ZM43.5356 10.11C36.4121 14.2389 32.4914 22.9617 32.4914 34.6685C32.4914 59.004 49.6206 88.6938 70.6768 100.851C80.8141 106.704 90.3291 107.647 97.4632 103.512L107.921 97.474C115.053 93.3451 118.98 84.6202 118.98 72.9091C118.98 48.5715 101.853 18.8817 80.7992 6.72456C70.6513 0.864762 61.1341 -0.0718747 53.9979 4.07395L53.9639 4.09094L43.5569 10.0994L43.5356 10.11Z" fill="#93D0FF"/>
<path d="M2.26221 87.9697C2.21974 86.9608 3.09265 85.8075 5.40769 84.4695C9.97404 81.8338 19.9308 80.3577 21.0756 81.0246V82.8681L4.54327 92.4256C3.19247 91.644 2.26646 90.7711 2.26434 89.7559L2.26221 87.9697Z" fill="#3199F0"/>
<g style="mix-blend-mode:overlay" opacity="0.3">
<path d="M4.54317 90.567L21.0776 81.0265V82.87L4.5453 92.4275C3.1945 91.6459 2.26848 90.773 2.26636 89.7578V87.978C2.31096 88.9528 3.22211 89.8045 4.54317 90.567Z" fill="black"/>
</g>
<path d="M4.54113 92.7674C4.4799 92.768 4.41967 92.7518 4.36697 92.7206C2.71883 91.767 1.916 90.7964 1.91388 89.7472V87.9653C1.91282 87.9511 1.91282 87.9369 1.91388 87.9228C1.89476 86.6973 2.97582 85.4676 5.23352 84.1656C9.87633 81.4853 19.9435 79.9603 21.2497 80.7207C21.3027 80.7512 21.3466 80.7952 21.3772 80.8481C21.4078 80.9011 21.4239 80.9611 21.4239 81.0223V82.8679C21.4239 82.9288 21.4079 82.9886 21.3773 83.0412C21.3467 83.0938 21.3027 83.1373 21.2497 83.1674L4.71741 92.7249C4.66347 92.7544 4.60262 92.7691 4.54113 92.7674ZM2.61051 88.0226V89.7493C2.61051 90.4927 3.24768 91.236 4.54325 92.0155L20.7251 82.6704V81.2665C19.0919 80.8863 9.94642 82.2541 5.57971 84.7752C3.56839 85.9391 2.56804 87.0095 2.60627 87.961C2.60954 87.9814 2.61095 88.002 2.61051 88.0226Z" fill="#93D0FF"/>
<path d="M9.39007 100.32C10.2396 100.864 11.6775 100.685 13.9968 99.3473C18.5631 96.7115 24.8243 88.8234 24.8243 87.5109L23.2251 86.5848L6.68848 96.1423C6.68848 97.6991 6.9837 98.9352 7.86299 99.4492L9.39007 100.32Z" fill="#7185A3"/>
<path d="M9.39007 100.32C10.2396 100.864 11.6775 100.685 13.9968 99.3473C18.5631 96.7115 24.8243 88.8234 24.8243 87.5109L23.2251 86.5848L6.68848 96.1423C6.68848 97.6991 6.9837 98.9352 7.86299 99.4492L9.39007 100.32Z" fill="#3199F0"/>
<g style="mix-blend-mode:overlay" opacity="0.3">
<path d="M8.28346 97.0471L24.8243 87.5109C24.8243 88.8319 18.5737 96.72 14.0116 99.3515C9.44948 101.983 8.27921 100.142 8.28346 97.0471Z" fill="black"/>
</g>
<path d="M10.4794 100.951C10.0532 100.962 9.63216 100.855 9.26244 100.643L9.21572 100.622L7.67803 99.7338C6.77538 99.2071 6.3336 98.0347 6.32935 96.1232C6.32899 96.0617 6.34491 96.0012 6.3755 95.9478C6.40609 95.8945 6.45026 95.8502 6.50351 95.8195L23.0401 86.262C23.0932 86.2308 23.1537 86.2144 23.2153 86.2144C23.2769 86.2144 23.3374 86.2308 23.3905 86.262L24.9877 87.188C25.0408 87.2184 25.0849 87.2623 25.1155 87.3153C25.1461 87.3683 25.1621 87.4284 25.1619 87.4896C25.1619 88.9997 18.8136 96.9557 14.1729 99.6318C12.6607 100.517 11.4437 100.951 10.4794 100.951ZM9.51094 99.9865C9.53592 99.9951 9.55952 100.007 9.58102 100.023C10.3817 100.534 11.809 100.203 13.8288 99.0414C18.1934 96.5246 23.9491 89.2864 24.4355 87.685L23.2164 86.9777L7.03023 96.3228C7.05997 97.835 7.38705 98.7547 8.02846 99.1285L9.51094 99.9865Z" fill="#93D0FF"/>
<path d="M3.38795 98.5762C1.93946 97.7436 0.769201 95.7153 0.773449 94.0438C0.773449 93.1943 1.06442 92.623 1.53804 92.3447L68.6529 53.5987C69.1286 53.3247 69.7806 53.3629 70.5049 53.7813C71.9491 54.6139 73.1215 56.6443 73.1194 58.3137C73.1194 59.1484 72.8284 59.7346 72.3548 60.0128L5.23361 98.7674C4.76423 99.035 4.10795 98.9925 3.38795 98.5762Z" fill="white"/>
<path d="M6.00012 97.0683C5.96989 96.1566 5.70588 95.268 5.2334 94.4878L72.3482 55.7417C72.8188 56.5219 73.082 57.4095 73.1128 58.3201C73.1128 59.1548 72.8218 59.741 72.3482 60.0192L5.2334 98.7674C5.70915 98.4849 6.00012 97.8987 6.00012 97.0683Z" fill="#CEE7FD"/>
<path d="M4.56027 99.2813C4.0832 99.2668 3.61821 99.1277 3.2116 98.8778C1.64417 97.9772 0.420812 95.8534 0.42506 94.0438C0.42506 93.1114 0.752146 92.402 1.3617 92.0473L68.4765 53.3013C69.0861 52.9508 69.8677 53.0146 70.679 53.4839C72.2379 54.3781 73.4613 56.502 73.4613 58.3179C73.4613 59.2545 73.1278 59.9618 72.5246 60.3144L5.40983 99.0625C5.15145 99.2105 4.85797 99.286 4.56027 99.2813ZM69.3388 53.7749C69.1598 53.7729 68.9834 53.8175 68.8269 53.9045L1.71213 92.6505C1.32771 92.8629 1.11745 93.3684 1.1217 94.0417C1.1217 95.6027 2.21125 97.4994 3.55992 98.2725C4.13762 98.608 4.68345 98.676 5.04664 98.4572L72.1614 59.7091C72.5416 59.4967 72.7519 58.9933 72.7519 58.3158C72.7519 56.759 71.6602 54.8623 70.3137 54.085C70.0177 53.8995 69.6792 53.7928 69.3303 53.7749H69.3388Z" fill="#93D0FF"/>
<path d="M27.2198 85.1066H27.2305V86.8418H27.2198C27.3324 88.5027 24.9048 93.0563 20.9841 95.3119C16.4177 97.9519 13.0981 97.3614 10.4263 95.811V93.9653L26.948 84.4185C27.1434 84.5225 27.2198 84.7731 27.2198 85.1066Z" fill="#3199F0"/>
<g style="mix-blend-mode:overlay" opacity="0.3">
<path d="M20.9841 93.4578C24.822 91.2405 27.2262 86.8334 27.2198 85.0918H27.2305V86.827H27.2198C27.3324 88.4879 24.9048 93.0415 20.9841 95.2971C16.4177 97.9371 13.0981 97.3466 10.4263 95.7962V93.9505C13.1024 95.5095 16.4135 96.0999 20.9841 93.4578Z" fill="black"/>
</g>
<path d="M15.0693 97.4931C13.3684 97.4754 11.7038 97 10.2502 96.1168C10.1978 96.0858 10.1543 96.0417 10.1242 95.9888C10.094 95.9359 10.0781 95.8761 10.0781 95.8152V93.9695C10.0779 93.9084 10.0939 93.8482 10.1245 93.7952C10.1551 93.7423 10.1992 93.6983 10.2523 93.6679L26.7804 84.1126C26.8328 84.0828 26.8921 84.0671 26.9524 84.0671C27.0127 84.0671 27.072 84.0828 27.1244 84.1126C27.3984 84.2655 27.5492 84.5671 27.5662 85.0089C27.5747 85.0407 27.579 85.0736 27.5789 85.1066V86.8418C27.5821 86.8665 27.5821 86.8914 27.5789 86.9161C27.6172 88.9041 24.9496 93.4343 21.1648 95.6113C18.9942 96.8559 16.9914 97.4931 15.0693 97.4931ZM10.7726 95.6113C13.899 97.3529 17.0933 97.1617 20.8101 95.0145C24.5269 92.8673 26.9694 88.4432 26.8717 86.8694C26.8688 86.8315 26.8724 86.7935 26.8823 86.7568V85.1979C26.8738 85.1704 26.8695 85.1417 26.8696 85.1129C26.8708 85.0368 26.8651 84.9608 26.8526 84.8857L10.7705 94.1692L10.7726 95.6113Z" fill="#93D0FF"/>
<path d="M24.3528 80.1388L22.8491 79.2701V79.2807C21.4685 78.3526 16.3139 78.1806 12.3974 80.4446C7.83319 83.0719 6.68204 86.2365 6.68629 89.3288L8.28346 90.257L24.8243 80.7144C24.8243 80.502 24.6438 80.3066 24.3528 80.1388Z" fill="#3199F0"/>
<g style="mix-blend-mode:overlay" opacity="0.3">
<path d="M8.28345 90.2571L24.8243 80.7145C24.8243 79.3913 18.5737 78.7286 14.0073 81.3644C9.44097 84.0001 8.28345 87.1668 8.28345 90.2571Z" fill="black"/>
</g>
<path d="M8.28337 90.6053C8.22231 90.6046 8.16241 90.5885 8.10921 90.5586L6.50993 89.6347C6.45738 89.6039 6.41384 89.5598 6.38365 89.5069C6.35347 89.4539 6.33769 89.394 6.33789 89.3331C6.33789 85.3784 8.20266 82.4581 12.2232 80.1388C16.0037 77.9533 21.2539 77.9087 22.9573 78.9324C22.983 78.9408 23.0078 78.9515 23.0316 78.9643L24.5353 79.833C24.5628 79.8492 24.5878 79.8692 24.6097 79.8924C24.9877 80.1324 25.1725 80.4128 25.1619 80.7292C25.1597 80.7882 25.1426 80.8456 25.1121 80.8962C25.0816 80.9467 25.0389 80.9886 24.9877 81.0181L8.45753 90.5628C8.40403 90.5916 8.34409 90.6062 8.28337 90.6053ZM7.03665 89.1186L8.28549 89.8428L24.3654 80.5572C24.3064 80.5102 24.2439 80.4676 24.1785 80.4298C24.153 80.4152 24.1294 80.3973 24.1084 80.3767L22.7598 79.5972C22.7227 79.5886 22.6875 79.5735 22.6557 79.5526C21.3495 78.6733 16.3117 78.565 12.5715 80.7271C8.83133 82.8892 7.09399 85.5505 7.03665 89.1292V89.1186Z" fill="#93D0FF"/>
<path d="M18.0937 17.3333C17.4253 17.7208 16.8312 18.2243 16.3394 18.8201L26.1538 31.7567L20.4045 32.7145L16.3457 35.0508C18.665 40.5559 22.7004 45.649 27.2944 48.3039C30.8901 50.381 34.1439 50.5743 36.4972 49.2065L40.5474 46.8702C42.8837 45.5067 44.3492 42.5906 44.347 38.4405C44.347 30.1361 38.5233 20.0371 31.3382 15.8891C27.7425 13.8141 24.4993 13.6357 22.1482 15.0056L18.0937 17.3333Z" fill="white"/>
<path d="M27.2731 33.2625L21.5768 32.5212L20.4044 32.7103L16.3457 35.0465C18.6565 40.541 22.6834 45.6277 27.271 48.2847L27.2731 33.2625Z" fill="#CEE7FD"/>
<path d="M18.1001 17.3397C20.4513 15.9719 23.6987 16.1461 27.2923 18.2233C34.4795 22.3733 40.3032 32.4682 40.3032 40.7747C40.3032 44.9269 38.8484 47.8451 36.4972 49.2065L40.5475 46.8702C42.8838 45.5067 44.3492 42.5906 44.3471 38.4405C44.3471 30.1361 38.5234 20.0371 31.3383 15.8891C27.7426 13.8141 24.4994 13.6357 22.1483 15.0056L18.0874 17.3418L18.1001 17.3397Z" fill="#CEE7FD"/>
<path d="M33.1073 50.4341C31.2659 50.4341 29.2312 49.8203 27.1285 48.6055C22.6217 46.0037 18.4737 40.9871 16.0334 35.1889C16.0007 35.1106 15.9975 35.0231 16.0245 34.9426C16.0514 34.8621 16.1067 34.7942 16.1799 34.7514L20.2387 32.4151C20.2752 32.3934 20.3156 32.379 20.3576 32.3726L25.542 31.5231L16.0758 19.0495C16.0293 18.9884 16.0042 18.9138 16.0042 18.8371C16.0042 18.7603 16.0293 18.6857 16.0758 18.6247C16.5769 18.0154 17.179 17.4967 17.8557 17.0912C17.875 17.0726 17.8964 17.0563 17.9194 17.0424L21.9803 14.7061C22.006 14.6881 22.0338 14.6731 22.0631 14.6615C24.6266 13.213 27.9845 13.5401 31.5314 15.5875C38.8014 19.7843 44.7143 30.03 44.7143 38.4405C44.7101 42.5694 43.3019 45.6703 40.7533 47.157H40.7384L36.6882 49.4933C35.5998 50.1206 34.3635 50.4455 33.1073 50.4341ZM16.7959 35.2016C19.1937 40.745 23.1675 45.5152 27.4769 48.0023C30.8432 49.9456 33.9866 50.2663 36.3314 48.9049L40.3774 46.5687H40.3922C42.7285 45.2094 44.0219 42.3209 44.0198 38.4405C44.0198 30.2572 38.262 20.2749 31.1852 16.1886C27.8294 14.2516 24.6903 13.9394 22.3434 15.3051C22.3187 15.3175 22.2932 15.3281 22.267 15.3369L18.3484 17.601C18.3279 17.6184 18.3058 17.6341 18.2826 17.6477C17.7267 17.9693 17.225 18.3764 16.7959 18.8541L26.4404 31.5655C26.4761 31.6137 26.4989 31.6702 26.5066 31.7296C26.5142 31.7891 26.5065 31.8495 26.4841 31.9051C26.4617 31.9607 26.4255 32.0097 26.3788 32.0473C26.3321 32.0849 26.2765 32.1099 26.2174 32.1199L20.5254 33.0501L16.7959 35.2016Z" fill="#93D0FF"/>
<path d="M12.4313 36.701L24.8581 34.6706L27.2921 33.2625L14.8652 16.8831L12.4313 18.2869C9.31978 22.0951 9.31978 29.3163 12.4313 36.701Z" fill="#3199F0"/>
<g style="mix-blend-mode:overlay" opacity="0.3">
<path d="M24.8582 34.6706L27.2922 33.2625L14.8654 16.8831L12.4314 18.2869L24.8582 34.6706Z" fill="black"/>
</g>
<path d="M12.4314 37.0494C12.363 37.0494 12.2961 37.0292 12.2391 36.9915C12.182 36.9537 12.1374 36.9 12.1107 36.837C8.95459 29.3375 8.9737 21.9698 12.1617 18.0703C12.1878 18.0367 12.2203 18.0086 12.2572 17.9875L14.6912 16.573C14.7649 16.5308 14.8514 16.5169 14.9346 16.5337C15.0178 16.5505 15.092 16.5969 15.1436 16.6643L27.5704 33.0437C27.5999 33.0835 27.6208 33.1289 27.6318 33.1772C27.6428 33.2255 27.6436 33.2755 27.6342 33.3241C27.6246 33.3725 27.6046 33.4182 27.5756 33.4582C27.5467 33.4982 27.5094 33.5314 27.4664 33.5556L25.0367 34.9722C25.0001 34.9939 24.9597 35.0083 24.9177 35.0147L12.493 37.0451L12.4314 37.0494ZM12.6608 18.5567C9.71069 22.231 9.70856 29.1761 12.648 36.3124L24.7393 34.3372L26.7761 33.1584L14.774 17.3376L12.6608 18.5567Z" fill="#93D0FF"/>
<path d="M135.77 117.838L96.395 128.258L107.458 131.86L109.472 135.778L113.193 135.931L117.723 140.57L135.77 117.838Z" fill="#CEE7FD"/>
<path d="M135.77 106.734L96.395 117.154L107.458 120.756L109.472 127.811L113.193 124.827L117.723 129.466L135.77 106.734Z" fill="white"/>
<path d="M111.483 123.082L135.77 106.734L107.458 120.756L109.472 127.811L113.193 124.827L111.483 123.082Z" fill="#CEE7FD"/>
<g style="mix-blend-mode:overlay">
<path d="M111.483 123.082L109.472 127.812L113.193 124.828L111.483 123.082Z" fill="black"/>
</g>
<path d="M117.723 129.816C117.676 129.816 117.63 129.807 117.588 129.789C117.545 129.77 117.506 129.744 117.474 129.71L113.163 125.297L109.688 128.077C109.643 128.112 109.59 128.136 109.534 128.147C109.478 128.157 109.42 128.153 109.365 128.136C109.311 128.119 109.261 128.089 109.221 128.047C109.181 128.006 109.152 127.956 109.136 127.901L107.173 121.024L96.2864 117.477C96.2153 117.453 96.1538 117.407 96.1108 117.346C96.0679 117.285 96.0458 117.211 96.048 117.136C96.0501 117.061 96.0763 116.989 96.1227 116.93C96.1691 116.872 96.2332 116.829 96.3055 116.81L135.691 106.398C135.762 106.379 135.837 106.382 135.906 106.408C135.974 106.434 136.033 106.481 136.073 106.543C136.113 106.604 136.133 106.677 136.129 106.75C136.125 106.824 136.098 106.894 136.052 106.951L117.999 129.676C117.968 129.714 117.929 129.746 117.885 129.768C117.841 129.79 117.793 129.803 117.744 129.806L117.723 129.816ZM113.193 124.479C113.239 124.479 113.285 124.489 113.328 124.507C113.37 124.525 113.409 124.552 113.441 124.585L117.689 128.941L134.841 107.339L97.6245 117.188L107.564 120.425C107.618 120.442 107.668 120.473 107.707 120.514C107.747 120.555 107.776 120.606 107.792 120.66L109.661 127.21L112.972 124.556C113.034 124.506 113.112 124.479 113.193 124.479Z" fill="#93D0FF"/>
<path d="M21.5236 128.238C20.5253 127.663 20.5253 126.728 21.5236 126.151L36.2102 117.67C37.2106 117.092 38.8311 117.092 39.8208 117.67L77.2395 139.249C78.2356 139.824 78.2356 140.761 77.2395 141.339L62.5528 149.817C61.5546 150.395 59.9341 150.393 58.9422 149.817L21.5236 128.238Z" fill="#CEE7FD"/>
<path d="M77.9957 129.139V126.357C77.9957 125.983 77.7472 125.603 77.2481 125.316L39.8295 103.733C38.8312 103.155 37.2107 103.155 36.2189 103.733L21.5343 112.214C21.0352 112.503 20.7846 112.881 20.7846 113.261V115.994C20.7591 116.389 20.997 116.786 21.5237 117.088L58.9402 138.671C59.9363 139.244 61.5589 139.247 62.5508 138.671L77.2438 130.201C77.7472 129.91 77.9978 129.526 77.9936 129.139H77.9957Z" fill="#3199F0"/>
<g style="mix-blend-mode:overlay" opacity="0.2">
<path d="M36.478 107.233L70.9126 127.109C69.0924 126.047 71.1547 124.097 72.1742 122.381L44.1516 106.218C41.0869 107.121 37.969 108.093 36.478 107.233Z" fill="black"/>
</g>
<g style="mix-blend-mode:overlay" opacity="0.3">
<path d="M77.248 125.316C78.2441 125.892 78.2441 126.826 77.248 127.404L62.5614 135.882C61.5631 136.462 59.9426 136.46 58.9507 135.882L21.5236 114.302C21.0245 114.013 20.776 113.635 20.776 113.259V115.992C20.7505 116.387 20.9884 116.784 21.5151 117.086L58.9401 138.671C59.9362 139.244 61.5589 139.247 62.5507 138.671L77.2438 130.201C77.7471 129.91 77.9978 129.526 77.9935 129.139V126.357C77.9978 125.981 77.7471 125.601 77.248 125.316Z" fill="black"/>
</g>
<path d="M60.7478 139.453C60.057 139.465 59.3747 139.3 58.7662 138.973L21.3497 117.392C20.7677 117.054 20.4385 116.572 20.4343 116.06C20.4321 116.038 20.4321 116.016 20.4343 115.994V113.261C20.4343 112.734 20.7613 112.256 21.3582 111.912L36.0363 103.44C37.1492 102.803 38.893 102.803 40.0037 103.44L77.4224 125.012C78.0192 125.356 78.3463 125.834 78.3442 126.359V129.139C78.3442 129.139 78.3442 129.162 78.3442 129.173C78.3335 129.681 77.998 130.161 77.4203 130.494L62.7336 138.973C62.1236 139.3 61.4399 139.465 60.7478 139.453ZM21.1245 115.924C21.1288 115.955 21.1288 115.987 21.1245 116.018C21.1075 116.294 21.3093 116.568 21.6916 116.789L59.1145 138.369C60.0023 138.879 61.4996 138.879 62.3853 138.369L77.0719 129.889C77.4415 129.676 77.6496 129.402 77.6475 129.139C77.6465 129.128 77.6465 129.116 77.6475 129.105V126.344C77.6475 126.085 77.4351 125.815 77.0741 125.605L39.6554 104.035C38.7698 103.523 37.2724 103.523 36.3846 104.035L21.7001 112.515C21.3284 112.728 21.1245 112.993 21.1245 113.261V115.924Z" fill="#93D0FF"/>
<path d="M65.1781 115.971C63.2518 114.86 61.9286 116.011 59.4436 114.573C56.5743 112.917 56.5743 107.696 53.7092 106.038C52.9233 105.583 52.352 105.63 51.8762 105.899L51.8507 105.914L50.0985 106.925C50.0709 106.942 50.0454 106.964 50.02 106.981C49.9945 106.998 50.02 106.981 50.02 106.981C49.5187 107.284 49.1194 107.83 48.6883 108.285C48.7647 108.202 48.8433 108.117 48.9198 108.03C48.5835 107.986 48.2609 107.869 47.9747 107.688C45.1074 106.033 44.2515 101.45 42.2402 100.288C42.0832 100.179 41.8981 100.118 41.7071 100.111C41.5161 100.105 41.3272 100.154 41.1634 100.252L39.4005 101.272C37.5124 102.278 37.1726 109.72 34.6982 108.28L69.1222 128.156L70.9339 127.111C68.056 125.456 68.0581 117.625 65.1781 115.971Z" fill="#CEE7FD"/>
<g style="mix-blend-mode:overlay">
<path d="M39.3962 101.265L41.1591 100.246C41.3229 100.147 41.5118 100.098 41.7028 100.105C41.8938 100.111 42.079 100.173 42.2359 100.282C44.2493 101.443 45.1052 106.027 47.9704 107.681C48.2602 107.863 48.5865 107.978 48.9261 108.019C48.2401 108.803 47.5265 109.506 46.1651 108.726C43.2978 107.07 42.4419 102.486 40.4306 101.327C40.2801 101.223 40.1043 101.163 39.922 101.152C39.7397 101.141 39.5579 101.18 39.3962 101.265ZM65.1781 115.971C63.2517 114.86 61.9286 116.011 59.4436 114.573C56.5742 112.917 56.5742 107.696 53.7091 106.037C52.9233 105.583 52.3519 105.63 51.8762 105.899L51.8507 105.914L50.0985 106.925C50.0709 106.942 50.0454 106.963 50.0199 106.98C50.5042 106.683 51.0819 106.609 51.9017 107.082C54.7711 108.739 54.7689 113.957 57.6362 115.616C60.1254 117.052 61.4592 115.903 63.3707 117.016C66.24 118.672 66.24 126.499 69.1052 128.158L70.9168 127.113C68.056 125.456 68.0581 117.625 65.1781 115.971Z" fill="black"/>
</g>
<path d="M69.118 128.502C69.0568 128.502 68.9967 128.486 68.9438 128.455L34.522 108.586C34.4437 108.539 34.387 108.463 34.3641 108.375C34.3413 108.286 34.354 108.192 34.3997 108.113C34.4454 108.034 34.5203 107.976 34.6083 107.952C34.6963 107.927 34.7904 107.939 34.8703 107.983C34.9582 108.048 35.0603 108.091 35.1682 108.108C35.2761 108.126 35.3866 108.117 35.4905 108.083C36.1956 107.813 36.7478 106.159 37.2342 104.699C37.78 103.062 38.2961 101.514 39.1797 100.989L39.2221 100.959L40.985 99.9419C41.0054 99.931 41.0267 99.9217 41.0487 99.9143C41.2615 99.8017 41.5007 99.7487 41.7412 99.761C41.9816 99.7734 42.2142 99.8506 42.4143 99.9844C43.4168 100.562 44.1262 101.862 44.878 103.24C45.7276 104.782 46.6749 106.532 48.151 107.384C48.3481 107.505 48.5631 107.595 48.7881 107.65C49.0876 107.277 49.4404 106.951 49.8352 106.681L49.8734 106.653L49.9159 106.626L51.6596 105.617L51.683 105.604H51.7042L51.7276 105.591C52.3775 105.235 53.0826 105.286 53.8791 105.747C55.4146 106.634 56.1665 108.437 56.895 110.181C57.6235 111.925 58.284 113.511 59.6157 114.282C60.8645 115.002 61.799 115.032 62.7038 115.062C63.5258 115.089 64.3775 115.117 65.3544 115.68C66.9091 116.576 67.6589 119.055 68.3852 121.453C69.0712 123.719 69.7806 126.064 71.0974 126.824C71.1504 126.855 71.1943 126.899 71.2248 126.951C71.2554 127.004 71.2715 127.064 71.2715 127.126C71.2715 127.187 71.2554 127.247 71.2248 127.3C71.1943 127.353 71.1504 127.397 71.0974 127.427L69.2858 128.472C69.2333 128.496 69.1755 128.507 69.118 128.502ZM35.9683 108.616L69.118 127.756L70.2882 127.079C69.0415 125.996 68.3767 123.785 67.7247 121.642C67.0387 119.373 66.3293 117.031 65.0125 116.27C64.1863 115.795 63.4918 115.771 62.6762 115.746C61.7332 115.716 60.6628 115.682 59.2631 114.873C57.7446 113.985 56.9842 112.182 56.2578 110.449C55.5315 108.716 54.8688 107.119 53.5371 106.35C52.7789 105.91 52.3456 106.044 52.0504 106.212L52.0228 106.227L50.3237 107.212L50.2982 107.229C50.2755 107.247 50.2513 107.264 50.226 107.278H50.2133C49.8687 107.527 49.5599 107.822 49.2957 108.155L49.2257 108.236C49.1556 108.316 49.0855 108.395 49.0133 108.471L48.9878 108.499C48.9378 108.552 48.8728 108.587 48.8018 108.601C48.7307 108.615 48.657 108.607 48.5908 108.577C48.5247 108.548 48.4693 108.498 48.4324 108.436C48.3955 108.374 48.3788 108.302 48.3846 108.229C48.1929 108.16 48.008 108.073 47.8324 107.97C46.1885 107.021 45.1839 105.179 44.2982 103.557C43.5952 102.268 42.9305 101.051 42.0979 100.571C41.9943 100.493 41.8699 100.448 41.7405 100.441C41.6112 100.434 41.4827 100.466 41.3715 100.532L41.3099 100.562L39.6214 101.528C39.5975 101.55 39.5703 101.567 39.5407 101.579C38.8802 101.957 38.3556 103.529 37.8926 104.916C37.3553 106.541 36.8391 108.081 35.9683 108.616Z" fill="#93D0FF"/>
<path d="M63.3792 118.842C60.8666 117.392 60.1254 119.14 57.6447 117.702C54.7775 116.045 54.7796 105.957 51.9102 104.3C51.7467 104.185 51.5525 104.121 51.3523 104.116C51.1522 104.111 50.9553 104.167 50.7867 104.275L49.0323 105.288C47.4946 106.137 46.0462 111.596 46.2883 111.131C46.25 111.111 46.2118 111.101 46.1693 111.077C43.3021 109.421 43.3021 105.594 40.4348 103.937C39.8933 103.623 39.4536 103.642 39.0777 103.869L37.2936 104.901C35.6582 105.834 35.2271 110.678 32.8887 109.325L67.302 129.203L69.1137 128.158C66.2401 126.499 66.2401 120.499 63.3792 118.842Z" fill="#6FCF97"/>
<path d="M37.283 104.905L39.0713 103.871C39.4472 103.644 39.8868 103.625 40.4284 103.939C43.2957 105.596 43.2957 109.423 46.1629 111.08C46.2054 111.103 46.2436 111.114 46.2819 111.133C45.7891 112.078 45.1966 112.609 44.3534 112.122C41.4861 110.47 41.484 106.638 38.6189 104.984C38.0858 104.678 37.6546 104.691 37.283 104.905ZM63.3792 118.842C60.8666 117.392 60.1254 119.14 57.6447 117.702C54.7774 116.045 54.7795 105.957 51.9102 104.3C51.7467 104.185 51.5524 104.121 51.3523 104.116C51.1522 104.111 50.9552 104.167 50.7866 104.275L49.0323 105.288C49.1968 105.197 49.3835 105.154 49.5712 105.164C49.7588 105.173 49.94 105.236 50.0942 105.343C52.9636 106.997 52.9615 117.09 55.8287 118.747C58.3158 120.183 59.057 118.437 61.5632 119.887C64.4347 121.542 64.4347 127.533 67.2977 129.201L69.1094 128.156C66.24 126.499 66.24 120.499 63.3792 118.842Z" fill="#6FCF97"/>
<path d="M67.3019 129.551C67.2407 129.551 67.1806 129.535 67.1277 129.504L32.708 109.629C32.6297 109.582 32.573 109.506 32.5502 109.418C32.5273 109.329 32.5401 109.235 32.5858 109.156C32.6314 109.077 32.7063 109.019 32.7944 108.995C32.8824 108.97 32.9765 108.981 33.0563 109.026C33.1727 109.107 33.3049 109.163 33.4444 109.19C33.5838 109.217 33.7274 109.213 33.8655 109.181C34.4793 108.99 34.9615 107.981 35.4287 107.006C35.896 106.031 36.3802 105.014 37.1087 104.597L38.8907 103.567C39.4046 103.257 39.9802 103.278 40.5898 103.635C42.1105 104.515 42.8644 105.952 43.5929 107.346C44.2471 108.601 44.8673 109.792 46.0142 110.58C46.3752 109.143 47.5328 105.776 48.7986 105.007L48.8368 104.982L50.5911 103.969L50.6209 103.954C50.8406 103.824 51.0928 103.759 51.3481 103.766C51.6034 103.774 51.8513 103.853 52.063 103.996C53.6262 104.899 54.3398 107.819 55.0959 110.918C55.7841 113.734 56.4934 116.653 57.7975 117.398C58.9444 118.061 59.675 117.993 60.4481 117.918C61.2615 117.842 62.1854 117.757 63.5405 118.539C65.0824 119.429 65.8343 121.433 66.5606 123.375C67.2445 125.199 67.9518 127.087 69.2792 127.854C69.3321 127.885 69.3761 127.929 69.4066 127.981C69.4372 128.034 69.4533 128.094 69.4533 128.156C69.4533 128.217 69.4372 128.277 69.4066 128.33C69.3761 128.383 69.3321 128.427 69.2792 128.457L67.4676 129.502C67.4175 129.533 67.3604 129.549 67.3019 129.551ZM34.3158 109.752L67.3019 128.801L68.4636 128.13C67.2318 127.132 66.5649 125.35 65.915 123.621C65.2311 121.797 64.5238 119.909 63.1985 119.144C62.0346 118.473 61.2998 118.543 60.5203 118.615C59.6708 118.696 58.7936 118.776 57.4555 118.006C55.8945 117.103 55.1809 114.183 54.4248 111.086C53.7366 108.267 53.0272 105.351 51.7211 104.602C51.343 104.389 51.1157 104.47 50.9586 104.568C50.9436 104.579 50.9272 104.588 50.9097 104.595L49.2361 105.564L49.1958 105.591C48.0361 106.229 46.783 110.221 46.6195 111.048C46.6402 111.13 46.6304 111.218 46.5919 111.294C46.5598 111.367 46.5048 111.427 46.4354 111.465C46.366 111.503 46.2859 111.518 46.2074 111.506C46.1243 111.492 46.049 111.448 45.9951 111.383C44.4701 110.502 43.7161 109.062 42.9898 107.671C42.2634 106.28 41.6029 105.018 40.2563 104.241C39.7487 103.948 39.4535 104.049 39.2517 104.171L37.4634 105.205C36.9239 105.513 36.4885 106.424 36.0659 107.307C35.5816 108.325 35.0825 109.361 34.3158 109.752Z" fill="#93D0FF"/>
<path d="M61.5421 122.211C59.0317 120.76 58.2947 122.719 55.8076 121.281C52.9382 119.624 53.8685 116.591 51.0034 114.937C48.1382 113.282 46.7768 114.937 44.3301 113.499C41.4799 111.821 41.9407 110.755 39.9188 109.578C37.0579 107.911 35.7284 110.986 32.8611 109.325L28.6367 111.768L63.0543 131.643L67.2808 129.203C64.4115 127.546 64.4136 123.865 61.5421 122.211Z" fill="#CEE7FD"/>
<g style="mix-blend-mode:overlay">
<path d="M35.6923 112.016C37.7142 113.193 37.2533 114.259 40.1057 115.939C42.5503 117.375 43.9053 115.716 46.7747 117.375C49.6441 119.034 48.7096 122.064 51.5811 123.719C54.0703 125.157 54.8094 123.199 57.3155 124.647C60.1849 126.304 60.1849 129.986 63.05 131.643L67.2766 129.203C64.403 127.546 64.4051 123.865 61.5421 122.211C59.0317 120.76 58.2947 122.719 55.8076 121.281C52.9382 119.624 53.8685 116.591 51.0034 114.937C48.1382 113.282 46.7768 114.937 44.3301 113.499C41.4799 111.821 41.9407 110.755 39.9188 109.578C37.0579 107.911 35.7284 110.986 32.8611 109.325L28.6367 111.768C31.4997 113.422 32.8314 110.349 35.6923 112.016Z" fill="black"/>
</g>
<path d="M63.0542 131.991C62.9932 131.99 62.9333 131.974 62.88 131.945L28.4603 112.069C28.4069 112.039 28.3625 111.995 28.3316 111.942C28.3007 111.889 28.2844 111.828 28.2844 111.767C28.2844 111.705 28.3007 111.645 28.3316 111.592C28.3625 111.538 28.4069 111.494 28.4603 111.464L32.6826 109.024C32.7356 108.993 32.7957 108.977 32.8568 108.977C32.9179 108.977 32.9779 108.993 33.0309 109.024C34.3265 109.775 35.2292 109.472 36.2741 109.119C37.3191 108.767 38.5212 108.363 40.0971 109.276C40.8361 109.701 41.4744 110.281 41.9682 110.975C42.645 111.893 43.5151 112.651 44.5169 113.195C45.6086 113.832 46.4284 113.813 47.3969 113.785C48.4376 113.756 49.6142 113.72 51.1859 114.635C52.7194 115.521 53.2355 116.759 53.7346 117.974C54.2082 119.125 54.6585 120.21 55.9901 120.979C57.1243 121.635 57.8167 121.525 58.6174 121.404C59.4181 121.283 60.3632 121.128 61.7268 121.916C63.2475 122.791 64.0015 124.192 64.7299 125.545C65.4584 126.898 66.119 128.128 67.4697 128.905C67.5226 128.936 67.5665 128.98 67.597 129.033C67.6275 129.087 67.6435 129.147 67.6435 129.208C67.6435 129.269 67.6275 129.329 67.597 129.382C67.5665 129.436 67.5226 129.48 67.4697 129.511L63.2432 131.951C63.185 131.981 63.1197 131.995 63.0542 131.991ZM29.3269 111.768L63.0542 131.239L66.6138 129.184C65.4117 128.306 64.7469 127.06 64.1013 125.87C63.3876 124.543 62.7122 123.29 61.3636 122.512C60.2124 121.848 59.4839 121.964 58.7108 122.088C57.8974 122.217 56.9756 122.364 55.627 121.584C54.0893 120.697 53.5732 119.46 53.0783 118.241C52.6047 117.094 52.1565 116.009 50.8249 115.24C49.4252 114.429 48.444 114.459 47.4075 114.488C46.4305 114.516 45.4174 114.546 44.1516 113.802C43.0782 113.212 42.145 112.397 41.416 111.413C40.9767 110.786 40.4054 110.264 39.7424 109.882C38.4468 109.126 37.5442 109.431 36.4992 109.782C35.4543 110.132 34.3435 110.506 32.8631 109.729L29.3269 111.768Z" fill="#93D0FF"/>
<path d="M139.302 62.0921C140.3 62.6677 141.111 64.0694 141.109 65.2248V85.6439C141.109 86.7971 140.298 87.2644 139.297 86.6867L103.933 66.2719C102.932 65.6942 102.123 64.2924 102.123 63.1392V42.7159C102.123 41.5626 102.934 41.0975 103.935 41.673L139.302 62.0921Z" fill="white"/>
<path d="M140.104 87.2857C139.756 87.2747 139.417 87.1722 139.121 86.9883L103.758 66.5714C102.645 65.9342 101.775 64.4178 101.775 63.1371V42.7159C101.775 42.0299 102.025 41.5074 102.48 41.2441C102.934 40.9807 103.512 41.0317 104.109 41.3715L139.472 61.7906C140.584 62.4277 141.455 63.9399 141.453 65.2249V85.6439C141.453 86.3321 141.202 86.8545 140.748 87.1158C140.552 87.2274 140.33 87.286 140.104 87.2857ZM103.123 41.775C103.019 41.7731 102.917 41.7988 102.826 41.8494C102.601 41.9789 102.469 42.2954 102.469 42.7181V63.1371C102.469 64.1587 103.219 65.4543 104.105 65.9682L139.467 86.3852C139.835 86.5975 140.175 86.6421 140.4 86.5126C140.625 86.383 140.756 86.0666 140.756 85.6439V65.2249C140.756 64.2012 140.009 62.9056 139.123 62.3959L103.758 41.9747C103.567 41.8549 103.349 41.7862 103.123 41.775Z" fill="#93D0FF"/>
<path d="M108.741 55.9584L106.084 54.425C105.842 54.2848 105.659 54.3974 105.646 54.6756V62.6911C105.654 62.8411 105.696 62.9872 105.77 63.1181C105.844 63.2489 105.947 63.3609 106.071 63.4451L108.728 64.9786C108.968 65.1166 109.164 65.004 109.164 64.7258V56.7145C109.157 56.5643 109.115 56.4176 109.042 56.2863C108.969 56.155 108.866 56.0427 108.741 55.9584ZM113.475 55.2129L110.816 53.6774C110.578 53.5372 110.391 53.6519 110.391 53.928V65.4225C110.4 65.5729 110.444 65.7191 110.519 65.8494C110.595 65.9797 110.7 66.0903 110.827 66.1722L113.484 67.7078C113.724 67.8479 113.908 67.7354 113.908 67.4571V55.9627C113.9 55.8126 113.856 55.6666 113.781 55.5364C113.705 55.4062 113.601 55.2955 113.475 55.2129ZM118.209 64.9063L115.552 63.3708C115.31 63.2327 115.128 63.3453 115.128 63.6235V68.158C115.135 68.3076 115.177 68.4533 115.25 68.5836C115.324 68.7138 115.428 68.8249 115.552 68.9077L118.209 70.4433C118.449 70.5835 118.634 70.4709 118.634 70.1948V65.6582C118.626 65.5085 118.584 65.3627 118.51 65.2322C118.437 65.1017 118.334 64.9901 118.209 64.9063ZM122.948 56.6975L120.291 55.1641C120.051 55.0239 119.866 55.1365 119.866 55.4126V70.8915C119.872 71.0414 119.914 71.1877 119.988 71.3183C120.062 71.449 120.166 71.5604 120.291 71.6433L122.948 73.1789C123.188 73.3169 123.372 73.2044 123.372 72.9283V57.4494C123.365 57.2996 123.323 57.1536 123.249 57.023C123.176 56.8924 123.072 56.781 122.948 56.6975ZM127.682 66.8922L125.023 65.3545C124.783 65.2186 124.598 65.329 124.598 65.6051V73.6228C124.604 73.7725 124.646 73.9185 124.72 74.0489C124.794 74.1792 124.898 74.2902 125.023 74.3725L127.68 75.9102C127.92 76.0483 128.104 75.9357 128.104 75.6596V67.644C128.098 67.4942 128.056 67.348 127.982 67.2176C127.907 67.0872 127.803 66.9764 127.678 66.8943L127.682 66.8922ZM137.148 72.3569L134.491 70.8214C134.251 70.6833 134.066 70.7959 134.066 71.072V79.0875C134.074 79.2373 134.116 79.3833 134.189 79.5138C134.263 79.6443 134.366 79.7558 134.491 79.8394L137.15 81.375C137.388 81.513 137.575 81.4004 137.575 81.1243V73.1109C137.566 72.9607 137.523 72.8146 137.448 72.6841C137.373 72.5536 137.269 72.4423 137.144 72.3591L137.148 72.3569ZM132.416 66.1425L129.744 64.609C129.504 64.4709 129.319 64.5856 129.319 64.8617V76.3562C129.325 76.5063 129.367 76.6527 129.441 76.7835C129.515 76.9142 129.619 77.0255 129.744 77.1081L132.401 78.6436C132.641 78.7838 132.826 78.6713 132.826 78.393V66.8964C132.82 66.7475 132.78 66.602 132.708 66.4715C132.636 66.341 132.534 66.229 132.412 66.1446L132.416 66.1425Z" fill="#6FCF97"/>
<path d="M130.335 35.2378C130.103 34.4457 130.073 33.6083 130.248 32.8017C130.335 32.8226 130.42 32.8481 130.505 32.8781L133.009 31.4318C133.111 30.6201 133.111 29.7989 133.009 28.9872C131.925 28.1018 131.092 26.9476 130.594 25.6399C130.059 24.2615 129.995 22.9893 130.328 22.1015C130.054 21.6916 129.768 21.2902 129.455 20.9015C129.143 20.5129 128.818 20.1603 128.498 19.8226C127.86 20.3238 126.898 20.3281 125.83 19.7122C124.762 19.0962 123.802 17.9833 123.158 16.7387C122.544 16.6574 121.919 16.714 121.329 16.9044L118.825 18.3486C119.058 19.1413 119.088 19.9794 118.915 20.7869C118.827 20.7656 118.745 20.7423 118.658 20.7125L116.154 22.1568C116.05 22.9677 116.05 23.7883 116.154 24.5992C117.233 25.487 118.063 26.6406 118.562 27.9465C119.095 29.3249 119.159 30.5971 118.825 31.487C119.099 31.8927 119.388 32.2983 119.7 32.6849C120.013 33.0714 120.338 33.4282 120.656 33.7638C121.293 33.2604 122.255 33.2583 123.326 33.8764C124.396 34.4944 125.352 35.601 125.996 36.8498C126.611 36.9313 127.236 36.8747 127.826 36.6841L130.335 35.2378ZM125.084 25.0198C126.484 26.7592 127.111 28.9999 126.718 30.4973C125.868 30.2615 124.912 29.5989 124.084 28.5667C122.684 26.8251 122.056 24.5844 122.451 23.087C123.309 23.3249 124.254 23.9854 125.084 25.0198Z" fill="white"/>
<path d="M126.367 31.2937C125.399 32.6721 123.256 32.0987 121.58 30.0194C119.904 27.9401 119.329 25.1345 120.306 23.7454C120.975 22.7918 122.202 22.7727 123.451 23.533C123.143 23.3398 122.809 23.1904 122.459 23.0891C122.064 24.5865 122.693 26.8272 124.093 28.5688C124.921 29.601 125.868 30.2679 126.726 30.4994C126.871 29.8713 126.879 29.2196 126.752 28.5879C126.934 29.6562 126.826 30.6374 126.367 31.2937ZM130.502 30.4336C130.606 31.2452 130.606 32.0665 130.502 32.8781L133.007 31.4318C133.109 30.6201 133.109 29.7989 133.007 28.9872C131.924 28.1015 131.092 26.9474 130.594 25.6399C130.059 24.2615 129.995 22.9893 130.328 22.1015C130.054 21.6916 129.768 21.2902 129.455 20.9015C129.143 20.5129 128.818 20.1603 128.498 19.8226C127.86 20.3238 126.898 20.3281 125.83 19.7122C124.762 19.0962 123.802 17.9833 123.158 16.7387C122.544 16.6574 121.919 16.714 121.329 16.9044L118.825 18.3486C119.415 18.16 120.04 18.1042 120.654 18.1851C121.291 19.4318 122.253 20.5405 123.326 21.1585C124.398 21.7766 125.35 21.7723 125.993 21.269C126.318 21.6088 126.641 21.9614 126.951 22.35C127.261 22.7387 127.55 23.1401 127.824 23.5479C127.491 24.4378 127.555 25.7079 128.088 27.0906C128.588 28.3958 129.421 29.548 130.502 30.4336ZM130.335 35.2378C130.103 34.4457 130.073 33.6083 130.248 32.8017C130.335 32.8226 130.42 32.8481 130.505 32.8781C129.525 32.5192 128.631 32.6806 128.096 33.4452C127.561 34.2098 127.497 35.4098 127.833 36.682L130.335 35.2378ZM118.912 20.7847C118.825 20.7635 118.743 20.7401 118.655 20.7104L116.151 22.1546C117.128 22.5115 118.023 22.35 118.56 21.5854C118.724 21.3416 118.843 21.0705 118.912 20.7847Z" fill="#CEE7FD"/>
<path d="M126.571 37.2299C126.367 37.2293 126.163 37.2173 125.96 37.1938C125.903 37.1866 125.849 37.1658 125.803 37.1332C125.756 37.1007 125.718 37.0574 125.692 37.0069C125.055 35.7708 124.131 34.7386 123.158 34.1758C122.258 33.6576 121.427 33.6066 120.877 34.0356C120.809 34.0887 120.724 34.1149 120.638 34.109C120.552 34.1031 120.472 34.0656 120.412 34.0038C120.042 33.6215 119.722 33.2604 119.435 32.9015C119.148 32.5425 118.866 32.1581 118.543 31.6781C118.512 31.632 118.493 31.5793 118.487 31.5242C118.48 31.4692 118.487 31.4135 118.507 31.3617C118.821 30.5121 118.719 29.3163 118.243 28.0696C117.766 26.8217 116.971 25.7195 115.939 24.8711C115.867 24.8133 115.82 24.7294 115.809 24.6374C115.702 23.7977 115.702 22.9476 115.809 22.1079C115.817 22.0551 115.836 22.0047 115.866 21.9606C115.896 21.9164 115.935 21.8796 115.981 21.853L118.486 20.4066C118.534 20.3794 118.589 20.3641 118.645 20.362C118.721 19.7161 118.669 19.0614 118.492 18.4357C118.472 18.3619 118.477 18.2836 118.507 18.213C118.536 18.1424 118.587 18.0833 118.653 18.0449L121.157 16.6006C121.177 16.5882 121.199 16.5782 121.221 16.5709C121.859 16.3648 122.536 16.3031 123.201 16.3904C123.257 16.3972 123.312 16.4177 123.359 16.4503C123.406 16.4829 123.444 16.5265 123.47 16.5773C124.107 17.8134 125.033 18.8477 126.006 19.4105C126.905 19.9288 127.735 19.9776 128.285 19.5465C128.353 19.4936 128.438 19.4679 128.524 19.4741C128.61 19.4804 128.691 19.5183 128.75 19.5805C129.122 19.9649 129.443 20.3259 129.729 20.6828C130.016 21.0396 130.296 21.4261 130.619 21.9061C130.651 21.9522 130.671 22.0052 130.678 22.0607C130.684 22.1162 130.677 22.1724 130.658 22.2247C130.341 23.0742 130.445 24.2657 130.921 25.5146C131.395 26.7628 132.187 27.8655 133.219 28.7132C133.291 28.7709 133.338 28.8549 133.348 28.9468C133.455 29.788 133.455 30.6393 133.348 31.4806C133.341 31.5332 133.322 31.5834 133.293 31.6276C133.263 31.6717 133.224 31.7086 133.179 31.7355L130.675 33.1797C130.626 33.2089 130.57 33.225 130.513 33.2264C130.439 33.8718 130.491 34.5255 130.668 35.1507C130.688 35.2244 130.682 35.3025 130.652 35.3728C130.623 35.443 130.571 35.5016 130.505 35.5393L128.003 36.9836C127.983 36.9956 127.961 37.0056 127.939 37.0133C127.498 37.1595 127.036 37.2327 126.571 37.2299ZM126.223 36.5184C126.717 36.565 127.215 36.5123 127.688 36.3634L129.935 35.0657C129.743 34.294 129.735 33.4881 129.91 32.7124C129.934 32.6238 129.992 32.5482 130.072 32.5018C130.151 32.4554 130.245 32.4418 130.335 32.4639L130.46 32.5001L132.679 31.2257C132.754 30.5446 132.754 29.8573 132.679 29.1762C131.607 28.2622 130.781 27.0938 130.277 25.778C129.763 24.4505 129.64 23.1465 129.952 22.1673C129.678 21.7681 129.436 21.4367 129.192 21.1351C128.948 20.8335 128.729 20.5808 128.455 20.2856C127.693 20.7104 126.694 20.6212 125.664 20.0265C124.634 19.4318 123.642 18.3571 122.946 17.0785C122.452 17.0335 121.954 17.0861 121.48 17.2336L119.235 18.5313C119.427 19.3037 119.435 20.1105 119.259 20.8866C119.247 20.931 119.227 20.9726 119.2 21.0092C119.172 21.0457 119.138 21.0764 119.098 21.0995C119.059 21.1226 119.015 21.1377 118.97 21.1438C118.924 21.1499 118.878 21.147 118.834 21.1351L118.706 21.1012L116.487 22.3755C116.413 23.0559 116.413 23.7425 116.487 24.4229C117.557 25.3386 118.383 26.5065 118.889 27.8211C119.401 29.1443 119.526 30.4484 119.214 31.4317C119.484 31.8289 119.728 32.1602 119.974 32.4661C120.221 32.7719 120.437 33.0204 120.709 33.3156C121.47 32.8908 122.47 32.9801 123.502 33.5769C124.534 34.1737 125.528 35.242 126.223 36.5184ZM126.718 30.8477C126.687 30.8476 126.656 30.8433 126.626 30.8349C125.66 30.5673 124.66 29.8388 123.812 28.7832C122.383 27.0077 121.688 24.6289 122.113 22.9978C122.138 22.9093 122.196 22.8338 122.275 22.7878C122.355 22.7417 122.449 22.7286 122.538 22.7514C123.504 23.019 124.503 23.7475 125.35 24.801C126.777 26.5765 127.474 28.9553 127.049 30.5864C127.029 30.6611 126.986 30.7272 126.925 30.7744C126.864 30.8217 126.789 30.8474 126.711 30.8477H126.718ZM122.714 23.5457C122.523 24.956 123.164 26.8675 124.356 28.3479C124.904 29.0791 125.625 29.663 126.454 30.047C126.643 28.6367 126.002 26.7273 124.813 25.247C124.264 24.5158 123.543 23.9314 122.714 23.5457Z" fill="#93D0FF"/>
<path d="M9.89118 59.331C10.3222 58.9 10.8713 58.6065 11.4691 58.4876C12.0669 58.3686 12.6865 58.4297 13.2497 58.6629C13.8128 58.8962 14.2941 59.2912 14.6327 59.798C14.9714 60.3048 15.1521 60.9006 15.1521 61.5101C15.1521 62.1196 14.9714 62.7155 14.6327 63.2222C14.2941 63.729 13.8128 64.124 13.2497 64.3573C12.6865 64.5905 12.0669 64.6516 11.4691 64.5326C10.8713 64.4137 10.3222 64.1202 9.89118 63.6892C9.60451 63.4033 9.37706 63.0637 9.22188 62.6898C9.06669 62.3158 8.98682 61.915 8.98682 61.5101C8.98682 61.1053 9.06669 60.7044 9.22188 60.3304C9.37706 59.9565 9.60451 59.6169 9.89118 59.331Z" fill="white"/>
<path d="M13.2363 62.6762C13.7258 62.187 14.0356 61.5467 14.1154 60.8593C14.1952 60.1718 14.0403 59.4776 13.6759 58.8893C13.8847 59.0121 14.0774 59.1605 14.2494 59.3311C14.5606 59.6379 14.803 60.0075 14.9605 60.4152C15.118 60.8229 15.187 61.2595 15.1628 61.6959C15.1387 62.1323 15.022 62.5586 14.8205 62.9464C14.619 63.3343 14.3372 63.6748 13.994 63.9455C13.6508 64.2161 13.254 64.4106 12.8298 64.5162C12.4057 64.6217 11.964 64.6358 11.5339 64.5576C11.1039 64.4793 10.6955 64.3105 10.3357 64.0622C9.97596 63.814 9.6731 63.4922 9.44727 63.1179C10.0365 63.4811 10.731 63.6351 11.4185 63.5549C12.106 63.4748 12.7464 63.1652 13.2363 62.6762Z" fill="#CEE7FD"/>
<path d="M12.0808 64.9402C11.4024 64.9402 10.7392 64.7391 10.1751 64.3622C9.61101 63.9853 9.17136 63.4496 8.91174 62.8228C8.65211 62.196 8.58419 61.5063 8.71655 60.841C8.84891 60.1756 9.17561 59.5644 9.65533 59.0847C10.0542 58.6858 10.5453 58.3915 11.0851 58.2278C11.6248 58.064 12.1967 58.0359 12.7499 58.146C13.3031 58.256 13.8207 58.5008 14.2567 58.8587C14.6928 59.2165 15.0338 59.6764 15.2497 60.1975C15.4655 60.7186 15.5496 61.285 15.4943 61.8463C15.439 62.4077 15.2461 62.9467 14.9327 63.4158C14.6194 63.8848 14.1952 64.2693 13.6977 64.5352C13.2002 64.8011 12.6449 64.9402 12.0808 64.9402ZM12.0808 58.781C11.7216 58.7795 11.3658 58.8495 11.0339 58.987C10.7021 59.1244 10.401 59.3266 10.1481 59.5817C9.70092 60.0289 9.42266 60.6173 9.3607 61.2466C9.29875 61.876 9.45694 62.5073 9.80831 63.0331C10.1597 63.5589 10.6825 63.9466 11.2877 64.1302C11.8929 64.3137 12.543 64.2818 13.1272 64.0397C13.7115 63.7977 14.1937 63.3605 14.4918 62.8028C14.7898 62.245 14.8853 61.6012 14.7619 60.981C14.6385 60.3607 14.3038 59.8025 13.8149 59.4013C13.326 59.0001 12.7132 58.7809 12.0808 58.781Z" fill="#93D0FF"/>
</svg>
