<svg width="137" height="120" viewBox="0 0 137 120" fill="none" xmlns="http://www.w3.org/2000/svg">
<circle r="1.55725" transform="matrix(0 -1 -1 0 117.832 117.832)" fill="#C4C4C4" fill-opacity="0.28"/>
<circle r="1.55725" transform="matrix(0 -1 -1 0 109.527 117.832)" fill="#C4C4C4" fill-opacity="0.28"/>
<circle r="1.55725" transform="matrix(0 -1 -1 0 101.221 117.832)" fill="#C4C4C4" fill-opacity="0.28"/>
<circle r="1.55725" transform="matrix(0 -1 -1 0 92.9161 117.832)" fill="#C4C4C4" fill-opacity="0.28"/>
<circle r="1.55725" transform="matrix(0 -1 -1 0 84.6107 117.832)" fill="#C4C4C4" fill-opacity="0.28"/>
<circle r="1.55725" transform="matrix(0 -1 -1 0 76.3053 117.832)" fill="#C4C4C4" fill-opacity="0.28"/>
<circle r="1.55725" transform="matrix(0 -1 -1 0 67.9999 117.832)" fill="#C4C4C4" fill-opacity="0.28"/>
<circle r="1.55725" transform="matrix(0 -1 -1 0 59.6947 117.832)" fill="#C4C4C4" fill-opacity="0.28"/>
<circle r="1.55725" transform="matrix(0 -1 -1 0 51.3893 117.832)" fill="#C4C4C4" fill-opacity="0.28"/>
<circle r="1.55725" transform="matrix(0 -1 -1 0 43.0839 117.832)" fill="#C4C4C4" fill-opacity="0.28"/>
<circle r="1.55725" transform="matrix(0 -1 -1 0 34.7787 117.832)" fill="#C4C4C4" fill-opacity="0.28"/>
<circle r="1.55725" transform="matrix(0 -1 -1 0 26.4733 117.832)" fill="#C4C4C4" fill-opacity="0.28"/>
<circle r="1.55725" transform="matrix(0 -1 -1 0 18.1678 117.832)" fill="#C4C4C4" fill-opacity="0.28"/>
<circle r="1.55725" transform="matrix(0 -1 -1 0 9.86267 117.832)" fill="#C4C4C4" fill-opacity="0.28"/>
<circle r="1.55725" transform="matrix(0 -1 -1 0 1.55725 117.832)" fill="#C4C4C4" fill-opacity="0.28"/>
<circle r="1.55725" transform="matrix(0 -1 -1 0 117.832 109.527)" fill="#C4C4C4" fill-opacity="0.28"/>
<circle r="1.55725" transform="matrix(0 -1 -1 0 109.527 109.527)" fill="#C4C4C4" fill-opacity="0.28"/>
<circle r="1.55725" transform="matrix(0 -1 -1 0 101.221 109.527)" fill="#C4C4C4" fill-opacity="0.28"/>
<circle r="1.55725" transform="matrix(0 -1 -1 0 92.9161 109.527)" fill="#C4C4C4" fill-opacity="0.28"/>
<circle r="1.55725" transform="matrix(0 -1 -1 0 84.6107 109.527)" fill="#C4C4C4" fill-opacity="0.28"/>
<circle r="1.55725" transform="matrix(0 -1 -1 0 76.3053 109.527)" fill="#C4C4C4" fill-opacity="0.28"/>
<circle r="1.55725" transform="matrix(0 -1 -1 0 67.9999 109.527)" fill="#C4C4C4" fill-opacity="0.28"/>
<circle r="1.55725" transform="matrix(0 -1 -1 0 59.6947 109.527)" fill="#C4C4C4" fill-opacity="0.28"/>
<circle r="1.55725" transform="matrix(0 -1 -1 0 51.3893 109.527)" fill="#C4C4C4" fill-opacity="0.28"/>
<circle r="1.55725" transform="matrix(0 -1 -1 0 43.0839 109.527)" fill="#C4C4C4" fill-opacity="0.28"/>
<circle r="1.55725" transform="matrix(0 -1 -1 0 34.7787 109.527)" fill="#C4C4C4" fill-opacity="0.28"/>
<circle r="1.55725" transform="matrix(0 -1 -1 0 26.4733 109.527)" fill="#C4C4C4" fill-opacity="0.28"/>
<circle r="1.55725" transform="matrix(0 -1 -1 0 18.1678 109.527)" fill="#C4C4C4" fill-opacity="0.28"/>
<circle r="1.55725" transform="matrix(0 -1 -1 0 9.86267 109.527)" fill="#C4C4C4" fill-opacity="0.28"/>
<circle r="1.55725" transform="matrix(0 -1 -1 0 1.55725 109.527)" fill="#C4C4C4" fill-opacity="0.28"/>
<circle r="1.55725" transform="matrix(0 -1 -1 0 134.443 101.221)" fill="#C4C4C4" fill-opacity="0.28"/>
<circle r="1.55725" transform="matrix(0 -1 -1 0 126.137 101.221)" fill="#C4C4C4" fill-opacity="0.28"/>
<circle r="1.55725" transform="matrix(0 -1 -1 0 117.832 101.221)" fill="#C4C4C4" fill-opacity="0.28"/>
<circle r="1.55725" transform="matrix(0 -1 -1 0 109.527 101.221)" fill="#C4C4C4" fill-opacity="0.28"/>
<circle r="1.55725" transform="matrix(0 -1 -1 0 101.221 101.221)" fill="#C4C4C4" fill-opacity="0.28"/>
<circle r="1.55725" transform="matrix(0 -1 -1 0 92.9161 101.221)" fill="#C4C4C4" fill-opacity="0.28"/>
<circle r="1.55725" transform="matrix(0 -1 -1 0 84.6107 101.221)" fill="#C4C4C4" fill-opacity="0.28"/>
<circle r="1.55725" transform="matrix(0 -1 -1 0 76.3053 101.221)" fill="#C4C4C4" fill-opacity="0.28"/>
<circle r="1.55725" transform="matrix(0 -1 -1 0 67.9999 101.221)" fill="#C4C4C4" fill-opacity="0.28"/>
<circle r="1.55725" transform="matrix(0 -1 -1 0 59.6947 101.221)" fill="#C4C4C4" fill-opacity="0.28"/>
<circle r="1.55725" transform="matrix(0 -1 -1 0 51.3893 101.221)" fill="#C4C4C4" fill-opacity="0.28"/>
<circle r="1.55725" transform="matrix(0 -1 -1 0 43.0839 101.221)" fill="#C4C4C4" fill-opacity="0.28"/>
<circle r="1.55725" transform="matrix(0 -1 -1 0 34.7787 101.221)" fill="#C4C4C4" fill-opacity="0.28"/>
<circle r="1.55725" transform="matrix(0 -1 -1 0 26.4733 101.221)" fill="#C4C4C4" fill-opacity="0.28"/>
<circle r="1.55725" transform="matrix(0 -1 -1 0 18.1678 101.221)" fill="#C4C4C4" fill-opacity="0.28"/>
<circle r="1.55725" transform="matrix(0 -1 -1 0 9.86267 101.221)" fill="#C4C4C4" fill-opacity="0.28"/>
<circle r="1.55725" transform="matrix(0 -1 -1 0 1.55725 101.221)" fill="#C4C4C4" fill-opacity="0.28"/>
<circle r="1.55725" transform="matrix(0 -1 -1 0 134.443 92.916)" fill="#C4C4C4" fill-opacity="0.28"/>
<circle r="1.55725" transform="matrix(0 -1 -1 0 126.137 92.916)" fill="#C4C4C4" fill-opacity="0.28"/>
<circle r="1.55725" transform="matrix(0 -1 -1 0 117.832 92.916)" fill="#C4C4C4" fill-opacity="0.28"/>
<circle r="1.55725" transform="matrix(0 -1 -1 0 109.527 92.916)" fill="#C4C4C4" fill-opacity="0.28"/>
<circle r="1.55725" transform="matrix(0 -1 -1 0 101.221 92.916)" fill="#C4C4C4" fill-opacity="0.28"/>
<circle r="1.55725" transform="matrix(0 -1 -1 0 92.9161 92.916)" fill="#C4C4C4" fill-opacity="0.28"/>
<circle r="1.55725" transform="matrix(0 -1 -1 0 84.6107 92.916)" fill="#C4C4C4" fill-opacity="0.28"/>
<circle r="1.55725" transform="matrix(0 -1 -1 0 76.3053 92.916)" fill="#C4C4C4" fill-opacity="0.28"/>
<circle r="1.55725" transform="matrix(0 -1 -1 0 67.9999 92.916)" fill="#C4C4C4" fill-opacity="0.28"/>
<circle r="1.55725" transform="matrix(0 -1 -1 0 59.6947 92.916)" fill="#C4C4C4" fill-opacity="0.28"/>
<circle r="1.55725" transform="matrix(0 -1 -1 0 51.3893 92.916)" fill="#C4C4C4" fill-opacity="0.28"/>
<circle r="1.55725" transform="matrix(0 -1 -1 0 43.0839 92.916)" fill="#C4C4C4" fill-opacity="0.28"/>
<circle r="1.55725" transform="matrix(0 -1 -1 0 34.7787 92.916)" fill="#C4C4C4" fill-opacity="0.28"/>
<circle r="1.55725" transform="matrix(0 -1 -1 0 26.4733 92.916)" fill="#C4C4C4" fill-opacity="0.28"/>
<circle r="1.55725" transform="matrix(0 -1 -1 0 18.1678 92.916)" fill="#C4C4C4" fill-opacity="0.28"/>
<circle r="1.55725" transform="matrix(0 -1 -1 0 9.86267 92.916)" fill="#C4C4C4" fill-opacity="0.28"/>
<circle r="1.55725" transform="matrix(0 -1 -1 0 1.55725 92.916)" fill="#C4C4C4" fill-opacity="0.28"/>
<circle r="1.55725" transform="matrix(0 -1 -1 0 134.443 84.6107)" fill="#C4C4C4" fill-opacity="0.28"/>
<circle r="1.55725" transform="matrix(0 -1 -1 0 126.137 84.6107)" fill="#C4C4C4" fill-opacity="0.28"/>
<circle r="1.55725" transform="matrix(0 -1 -1 0 117.832 84.6107)" fill="#C4C4C4" fill-opacity="0.28"/>
<circle r="1.55725" transform="matrix(0 -1 -1 0 109.527 84.6107)" fill="#C4C4C4" fill-opacity="0.28"/>
<circle r="1.55725" transform="matrix(0 -1 -1 0 101.221 84.6107)" fill="#C4C4C4" fill-opacity="0.28"/>
<circle r="1.55725" transform="matrix(0 -1 -1 0 92.9161 84.6107)" fill="#C4C4C4" fill-opacity="0.28"/>
<circle r="1.55725" transform="matrix(0 -1 -1 0 84.6107 84.6107)" fill="#C4C4C4" fill-opacity="0.28"/>
<circle r="1.55725" transform="matrix(0 -1 -1 0 76.3053 84.6107)" fill="#C4C4C4" fill-opacity="0.28"/>
<circle r="1.55725" transform="matrix(0 -1 -1 0 67.9999 84.6107)" fill="#C4C4C4" fill-opacity="0.28"/>
<circle r="1.55725" transform="matrix(0 -1 -1 0 59.6947 84.6107)" fill="#C4C4C4" fill-opacity="0.28"/>
<circle r="1.55725" transform="matrix(0 -1 -1 0 51.3893 84.6107)" fill="#C4C4C4" fill-opacity="0.28"/>
<circle r="1.55725" transform="matrix(0 -1 -1 0 43.0839 84.6107)" fill="#C4C4C4" fill-opacity="0.28"/>
<circle r="1.55725" transform="matrix(0 -1 -1 0 34.7787 84.6107)" fill="#C4C4C4" fill-opacity="0.28"/>
<circle r="1.55725" transform="matrix(0 -1 -1 0 26.4733 84.6107)" fill="#C4C4C4" fill-opacity="0.28"/>
<circle r="1.55725" transform="matrix(0 -1 -1 0 18.1678 84.6107)" fill="#C4C4C4" fill-opacity="0.28"/>
<circle r="1.55725" transform="matrix(0 -1 -1 0 9.86267 84.6107)" fill="#C4C4C4" fill-opacity="0.28"/>
<circle r="1.55725" transform="matrix(0 -1 -1 0 1.55725 84.6107)" fill="#C4C4C4" fill-opacity="0.28"/>
<circle r="1.55725" transform="matrix(0 -1 -1 0 134.443 76.3053)" fill="#C4C4C4" fill-opacity="0.28"/>
<circle r="1.55725" transform="matrix(0 -1 -1 0 126.137 76.3053)" fill="#C4C4C4" fill-opacity="0.28"/>
<circle r="1.55725" transform="matrix(0 -1 -1 0 117.832 76.3053)" fill="#C4C4C4" fill-opacity="0.28"/>
<circle r="1.55725" transform="matrix(0 -1 -1 0 109.527 76.3053)" fill="#C4C4C4" fill-opacity="0.28"/>
<circle r="1.55725" transform="matrix(0 -1 -1 0 101.221 76.3053)" fill="#C4C4C4" fill-opacity="0.28"/>
<circle r="1.55725" transform="matrix(0 -1 -1 0 92.9161 76.3053)" fill="#C4C4C4" fill-opacity="0.28"/>
<circle r="1.55725" transform="matrix(0 -1 -1 0 84.6107 76.3053)" fill="#C4C4C4" fill-opacity="0.28"/>
<circle r="1.55725" transform="matrix(0 -1 -1 0 76.3053 76.3053)" fill="#C4C4C4" fill-opacity="0.28"/>
<circle r="1.55725" transform="matrix(0 -1 -1 0 67.9999 76.3053)" fill="#C4C4C4" fill-opacity="0.28"/>
<circle r="1.55725" transform="matrix(0 -1 -1 0 59.6947 76.3053)" fill="#C4C4C4" fill-opacity="0.28"/>
<circle r="1.55725" transform="matrix(0 -1 -1 0 51.3893 76.3053)" fill="#C4C4C4" fill-opacity="0.28"/>
<circle r="1.55725" transform="matrix(0 -1 -1 0 43.0839 76.3053)" fill="#C4C4C4" fill-opacity="0.28"/>
<circle r="1.55725" transform="matrix(0 -1 -1 0 34.7787 76.3053)" fill="#C4C4C4" fill-opacity="0.28"/>
<circle r="1.55725" transform="matrix(0 -1 -1 0 26.4733 76.3053)" fill="#C4C4C4" fill-opacity="0.28"/>
<circle r="1.55725" transform="matrix(0 -1 -1 0 18.1678 76.3053)" fill="#C4C4C4" fill-opacity="0.28"/>
<circle r="1.55725" transform="matrix(0 -1 -1 0 9.86267 76.3053)" fill="#C4C4C4" fill-opacity="0.28"/>
<circle r="1.55725" transform="matrix(0 -1 -1 0 1.55725 76.3053)" fill="#C4C4C4" fill-opacity="0.28"/>
<circle r="1.55725" transform="matrix(0 -1 -1 0 134.443 68)" fill="#C4C4C4" fill-opacity="0.28"/>
<circle r="1.55725" transform="matrix(0 -1 -1 0 126.137 68)" fill="#C4C4C4" fill-opacity="0.28"/>
<circle r="1.55725" transform="matrix(0 -1 -1 0 117.832 68)" fill="#C4C4C4" fill-opacity="0.28"/>
<circle r="1.55725" transform="matrix(0 -1 -1 0 109.527 68)" fill="#C4C4C4" fill-opacity="0.28"/>
<circle r="1.55725" transform="matrix(0 -1 -1 0 101.221 68)" fill="#C4C4C4" fill-opacity="0.28"/>
<circle r="1.55725" transform="matrix(0 -1 -1 0 92.9161 68)" fill="#C4C4C4" fill-opacity="0.28"/>
<circle r="1.55725" transform="matrix(0 -1 -1 0 84.6107 68)" fill="#C4C4C4" fill-opacity="0.28"/>
<circle r="1.55725" transform="matrix(0 -1 -1 0 76.3053 68)" fill="#C4C4C4" fill-opacity="0.28"/>
<circle r="1.55725" transform="matrix(0 -1 -1 0 67.9999 68)" fill="#C4C4C4" fill-opacity="0.28"/>
<circle r="1.55725" transform="matrix(0 -1 -1 0 59.6947 68)" fill="#C4C4C4" fill-opacity="0.28"/>
<circle r="1.55725" transform="matrix(0 -1 -1 0 51.3893 68)" fill="#C4C4C4" fill-opacity="0.28"/>
<circle r="1.55725" transform="matrix(0 -1 -1 0 43.0839 68)" fill="#C4C4C4" fill-opacity="0.28"/>
<circle r="1.55725" transform="matrix(0 -1 -1 0 34.7787 68)" fill="#C4C4C4" fill-opacity="0.28"/>
<circle r="1.55725" transform="matrix(0 -1 -1 0 26.4733 68)" fill="#C4C4C4" fill-opacity="0.28"/>
<circle r="1.55725" transform="matrix(0 -1 -1 0 18.1678 68)" fill="#C4C4C4" fill-opacity="0.28"/>
<circle r="1.55725" transform="matrix(0 -1 -1 0 9.86267 68)" fill="#C4C4C4" fill-opacity="0.28"/>
<circle r="1.55725" transform="matrix(0 -1 -1 0 1.55725 68)" fill="#C4C4C4" fill-opacity="0.28"/>
<circle r="1.55725" transform="matrix(0 -1 -1 0 134.443 59.6946)" fill="#C4C4C4" fill-opacity="0.28"/>
<circle r="1.55725" transform="matrix(0 -1 -1 0 126.137 59.6946)" fill="#C4C4C4" fill-opacity="0.28"/>
<circle r="1.55725" transform="matrix(0 -1 -1 0 117.832 59.6946)" fill="#C4C4C4" fill-opacity="0.28"/>
<circle r="1.55725" transform="matrix(0 -1 -1 0 109.527 59.6946)" fill="#C4C4C4" fill-opacity="0.28"/>
<circle r="1.55725" transform="matrix(0 -1 -1 0 101.221 59.6946)" fill="#C4C4C4" fill-opacity="0.28"/>
<circle r="1.55725" transform="matrix(0 -1 -1 0 92.9161 59.6946)" fill="#C4C4C4" fill-opacity="0.28"/>
<circle r="1.55725" transform="matrix(0 -1 -1 0 84.6107 59.6946)" fill="#C4C4C4" fill-opacity="0.28"/>
<circle r="1.55725" transform="matrix(0 -1 -1 0 76.3053 59.6946)" fill="#C4C4C4" fill-opacity="0.28"/>
<circle r="1.55725" transform="matrix(0 -1 -1 0 59.6947 59.6946)" fill="#C4C4C4" fill-opacity="0.28"/>
<circle r="1.55725" transform="matrix(0 -1 -1 0 67.9999 59.6946)" fill="#C4C4C4" fill-opacity="0.28"/>
<circle r="1.55725" transform="matrix(0 -1 -1 0 51.3893 59.6946)" fill="#C4C4C4" fill-opacity="0.28"/>
<circle r="1.55725" transform="matrix(0 -1 -1 0 43.0839 59.6946)" fill="#C4C4C4" fill-opacity="0.28"/>
<circle r="1.55725" transform="matrix(0 -1 -1 0 34.7787 59.6946)" fill="#C4C4C4" fill-opacity="0.28"/>
<circle r="1.55725" transform="matrix(0 -1 -1 0 26.4733 59.6946)" fill="#C4C4C4" fill-opacity="0.28"/>
<circle r="1.55725" transform="matrix(0 -1 -1 0 18.1678 59.6946)" fill="#C4C4C4" fill-opacity="0.28"/>
<circle r="1.55725" transform="matrix(0 -1 -1 0 9.86267 59.6946)" fill="#C4C4C4" fill-opacity="0.28"/>
<circle r="1.55725" transform="matrix(0 -1 -1 0 1.55725 59.6946)" fill="#C4C4C4" fill-opacity="0.28"/>
<circle r="1.55725" transform="matrix(0 -1 -1 0 134.443 51.3893)" fill="#C4C4C4" fill-opacity="0.28"/>
<circle r="1.55725" transform="matrix(0 -1 -1 0 126.137 51.3893)" fill="#C4C4C4" fill-opacity="0.28"/>
<circle r="1.55725" transform="matrix(0 -1 -1 0 117.832 51.3893)" fill="#C4C4C4" fill-opacity="0.28"/>
<circle r="1.55725" transform="matrix(0 -1 -1 0 109.527 51.3893)" fill="#C4C4C4" fill-opacity="0.28"/>
<circle r="1.55725" transform="matrix(0 -1 -1 0 101.221 51.3893)" fill="#C4C4C4" fill-opacity="0.28"/>
<circle r="1.55725" transform="matrix(0 -1 -1 0 92.9161 51.3893)" fill="#C4C4C4" fill-opacity="0.28"/>
<circle r="1.55725" transform="matrix(0 -1 -1 0 84.6107 51.3893)" fill="#C4C4C4" fill-opacity="0.28"/>
<circle r="1.55725" transform="matrix(0 -1 -1 0 76.3053 51.3893)" fill="#C4C4C4" fill-opacity="0.28"/>
<circle r="1.55725" transform="matrix(0 -1 -1 0 67.9999 51.3893)" fill="#C4C4C4" fill-opacity="0.28"/>
<circle r="1.55725" transform="matrix(0 -1 -1 0 59.6947 51.3893)" fill="#C4C4C4" fill-opacity="0.28"/>
<circle r="1.55725" transform="matrix(0 -1 -1 0 51.3893 51.3893)" fill="#C4C4C4" fill-opacity="0.28"/>
<circle r="1.55725" transform="matrix(0 -1 -1 0 43.0839 51.3893)" fill="#C4C4C4" fill-opacity="0.28"/>
<circle r="1.55725" transform="matrix(0 -1 -1 0 134.443 43.0839)" fill="#C4C4C4" fill-opacity="0.28"/>
<circle r="1.55725" transform="matrix(0 -1 -1 0 126.137 43.0839)" fill="#C4C4C4" fill-opacity="0.28"/>
<circle r="1.55725" transform="matrix(0 -1 -1 0 117.832 43.0839)" fill="#C4C4C4" fill-opacity="0.28"/>
<circle r="1.55725" transform="matrix(0 -1 -1 0 109.527 43.0839)" fill="#C4C4C4" fill-opacity="0.28"/>
<circle r="1.55725" transform="matrix(0 -1 -1 0 101.221 43.0839)" fill="#C4C4C4" fill-opacity="0.28"/>
<circle r="1.55725" transform="matrix(0 -1 -1 0 92.9161 43.0839)" fill="#C4C4C4" fill-opacity="0.28"/>
<circle r="1.55725" transform="matrix(0 -1 -1 0 84.6107 43.0839)" fill="#C4C4C4" fill-opacity="0.28"/>
<circle r="1.55725" transform="matrix(0 -1 -1 0 76.3053 43.0839)" fill="#C4C4C4" fill-opacity="0.28"/>
<circle r="1.55725" transform="matrix(0 -1 -1 0 67.9999 43.0839)" fill="#C4C4C4" fill-opacity="0.28"/>
<circle r="1.55725" transform="matrix(0 -1 -1 0 59.6947 43.0839)" fill="#C4C4C4" fill-opacity="0.28"/>
<circle r="1.55725" transform="matrix(0 -1 -1 0 51.3893 43.0839)" fill="#C4C4C4" fill-opacity="0.28"/>
<circle r="1.55725" transform="matrix(0 -1 -1 0 43.0839 43.0839)" fill="#C4C4C4" fill-opacity="0.28"/>
<circle r="1.55725" transform="matrix(0 -1 -1 0 134.443 34.7786)" fill="#C4C4C4" fill-opacity="0.28"/>
<circle r="1.55725" transform="matrix(0 -1 -1 0 126.137 34.7786)" fill="#C4C4C4" fill-opacity="0.28"/>
<circle r="1.55725" transform="matrix(0 -1 -1 0 117.832 34.7786)" fill="#C4C4C4" fill-opacity="0.28"/>
<circle r="1.55725" transform="matrix(0 -1 -1 0 109.527 34.7786)" fill="#C4C4C4" fill-opacity="0.28"/>
<circle r="1.55725" transform="matrix(0 -1 -1 0 101.221 34.7786)" fill="#C4C4C4" fill-opacity="0.28"/>
<circle r="1.55725" transform="matrix(0 -1 -1 0 92.9161 34.7786)" fill="#C4C4C4" fill-opacity="0.28"/>
<circle r="1.55725" transform="matrix(0 -1 -1 0 84.6107 34.7786)" fill="#C4C4C4" fill-opacity="0.28"/>
<circle r="1.55725" transform="matrix(0 -1 -1 0 76.3053 34.7786)" fill="#C4C4C4" fill-opacity="0.28"/>
<circle r="1.55725" transform="matrix(0 -1 -1 0 67.9999 34.7786)" fill="#C4C4C4" fill-opacity="0.28"/>
<circle r="1.55725" transform="matrix(0 -1 -1 0 59.6947 34.7786)" fill="#C4C4C4" fill-opacity="0.28"/>
<circle r="1.55725" transform="matrix(0 -1 -1 0 51.3893 34.7786)" fill="#C4C4C4" fill-opacity="0.28"/>
<circle r="1.55725" transform="matrix(0 -1 -1 0 43.0839 34.7786)" fill="#C4C4C4" fill-opacity="0.28"/>
<circle r="1.55725" transform="matrix(0 -1 -1 0 134.443 26.4733)" fill="#C4C4C4" fill-opacity="0.28"/>
<circle r="1.55725" transform="matrix(0 -1 -1 0 126.137 26.4733)" fill="#C4C4C4" fill-opacity="0.28"/>
<circle r="1.55725" transform="matrix(0 -1 -1 0 117.832 26.4733)" fill="#C4C4C4" fill-opacity="0.28"/>
<circle r="1.55725" transform="matrix(0 -1 -1 0 109.527 26.4733)" fill="#C4C4C4" fill-opacity="0.28"/>
<circle r="1.55725" transform="matrix(0 -1 -1 0 101.221 26.4733)" fill="#C4C4C4" fill-opacity="0.28"/>
<circle r="1.55725" transform="matrix(0 -1 -1 0 92.9161 26.4733)" fill="#C4C4C4" fill-opacity="0.28"/>
<circle r="1.55725" transform="matrix(0 -1 -1 0 84.6107 26.4733)" fill="#C4C4C4" fill-opacity="0.28"/>
<circle r="1.55725" transform="matrix(0 -1 -1 0 76.3053 26.4733)" fill="#C4C4C4" fill-opacity="0.28"/>
<circle r="1.55725" transform="matrix(0 -1 -1 0 67.9999 26.4733)" fill="#C4C4C4" fill-opacity="0.28"/>
<circle r="1.55725" transform="matrix(0 -1 -1 0 59.6947 26.4733)" fill="#C4C4C4" fill-opacity="0.28"/>
<circle r="1.55725" transform="matrix(0 -1 -1 0 51.3893 26.4733)" fill="#C4C4C4" fill-opacity="0.28"/>
<circle r="1.55725" transform="matrix(0 -1 -1 0 43.0839 26.4733)" fill="#C4C4C4" fill-opacity="0.28"/>
<circle r="1.55725" transform="matrix(0 -1 -1 0 134.443 18.168)" fill="#C4C4C4" fill-opacity="0.28"/>
<circle r="1.55725" transform="matrix(0 -1 -1 0 126.137 18.168)" fill="#C4C4C4" fill-opacity="0.28"/>
<circle r="1.55725" transform="matrix(0 -1 -1 0 117.832 18.168)" fill="#C4C4C4" fill-opacity="0.28"/>
<circle r="1.55725" transform="matrix(0 -1 -1 0 109.527 18.168)" fill="#C4C4C4" fill-opacity="0.28"/>
<circle r="1.55725" transform="matrix(0 -1 -1 0 101.221 18.168)" fill="#C4C4C4" fill-opacity="0.28"/>
<circle r="1.55725" transform="matrix(0 -1 -1 0 92.9161 18.168)" fill="#C4C4C4" fill-opacity="0.28"/>
<circle r="1.55725" transform="matrix(0 -1 -1 0 84.6107 18.168)" fill="#C4C4C4" fill-opacity="0.28"/>
<circle r="1.55725" transform="matrix(0 -1 -1 0 76.3053 18.168)" fill="#C4C4C4" fill-opacity="0.28"/>
<circle r="1.55725" transform="matrix(0 -1 -1 0 67.9999 18.168)" fill="#C4C4C4" fill-opacity="0.28"/>
<circle r="1.55725" transform="matrix(0 -1 -1 0 59.6947 18.168)" fill="#C4C4C4" fill-opacity="0.28"/>
<circle r="1.55725" transform="matrix(0 -1 -1 0 51.3893 18.168)" fill="#C4C4C4" fill-opacity="0.28"/>
<circle r="1.55725" transform="matrix(0 -1 -1 0 43.0839 18.168)" fill="#C4C4C4" fill-opacity="0.28"/>
<circle r="1.55725" transform="matrix(0 -1 -1 0 134.443 9.86255)" fill="#C4C4C4" fill-opacity="0.28"/>
<circle r="1.55725" transform="matrix(0 -1 -1 0 126.137 9.86255)" fill="#C4C4C4" fill-opacity="0.28"/>
<circle r="1.55725" transform="matrix(0 -1 -1 0 117.832 9.86255)" fill="#C4C4C4" fill-opacity="0.28"/>
<circle r="1.55725" transform="matrix(0 -1 -1 0 109.527 9.86255)" fill="#C4C4C4" fill-opacity="0.28"/>
<circle r="1.55725" transform="matrix(0 -1 -1 0 101.221 9.86255)" fill="#C4C4C4" fill-opacity="0.28"/>
<circle r="1.55725" transform="matrix(0 -1 -1 0 92.9161 9.86255)" fill="#C4C4C4" fill-opacity="0.28"/>
<circle r="1.55725" transform="matrix(0 -1 -1 0 84.6107 9.86255)" fill="#C4C4C4" fill-opacity="0.28"/>
<circle r="1.55725" transform="matrix(0 -1 -1 0 76.3053 9.86255)" fill="#C4C4C4" fill-opacity="0.28"/>
<circle r="1.55725" transform="matrix(0 -1 -1 0 67.9999 9.86255)" fill="#C4C4C4" fill-opacity="0.28"/>
<circle r="1.55725" transform="matrix(0 -1 -1 0 59.6947 9.86255)" fill="#C4C4C4" fill-opacity="0.28"/>
<circle r="1.55725" transform="matrix(0 -1 -1 0 51.3893 9.86255)" fill="#C4C4C4" fill-opacity="0.28"/>
<circle r="1.55725" transform="matrix(0 -1 -1 0 43.0839 9.86255)" fill="#C4C4C4" fill-opacity="0.28"/>
<circle r="1.55725" transform="matrix(0 -1 -1 0 134.443 1.55725)" fill="#C4C4C4" fill-opacity="0.28"/>
<circle r="1.55725" transform="matrix(0 -1 -1 0 126.137 1.55725)" fill="#C4C4C4" fill-opacity="0.28"/>
<circle r="1.55725" transform="matrix(0 -1 -1 0 117.832 1.55725)" fill="#C4C4C4" fill-opacity="0.28"/>
<circle r="1.55725" transform="matrix(0 -1 -1 0 109.527 1.55725)" fill="#C4C4C4" fill-opacity="0.28"/>
<circle r="1.55725" transform="matrix(0 -1 -1 0 101.221 1.55725)" fill="#C4C4C4" fill-opacity="0.28"/>
<circle r="1.55725" transform="matrix(0 -1 -1 0 92.9161 1.55725)" fill="#C4C4C4" fill-opacity="0.28"/>
<circle r="1.55725" transform="matrix(0 -1 -1 0 84.6107 1.55725)" fill="#C4C4C4" fill-opacity="0.28"/>
<circle r="1.55725" transform="matrix(0 -1 -1 0 76.3053 1.55725)" fill="#C4C4C4" fill-opacity="0.28"/>
<circle r="1.55725" transform="matrix(0 -1 -1 0 67.9999 1.55725)" fill="#C4C4C4" fill-opacity="0.28"/>
<circle r="1.55725" transform="matrix(0 -1 -1 0 59.6947 1.55725)" fill="#C4C4C4" fill-opacity="0.28"/>
<circle r="1.55725" transform="matrix(0 -1 -1 0 51.3893 1.55725)" fill="#C4C4C4" fill-opacity="0.28"/>
<circle r="1.55725" transform="matrix(0 -1 -1 0 43.0839 1.55725)" fill="#C4C4C4" fill-opacity="0.28"/>
<path d="M135.31 113.38L132.601 111.345C132.584 111.332 132.555 111.301 132.555 111.25C132.555 111.199 132.584 111.168 132.595 111.159L135.31 109.12C135.466 109.003 135.555 108.822 135.555 108.624C135.555 108.281 135.274 108 134.93 108H126.93C126.653 108 126.43 108.224 126.43 108.5V119.5C126.43 119.776 126.653 120 126.93 120C127.206 120 127.43 119.776 127.43 119.5V114.5H134.93C135.274 114.5 135.555 114.22 135.555 113.875C135.555 113.677 135.465 113.497 135.31 113.38Z" fill="#5F98ED"/>
</svg>
