<svg width="136" height="120" viewBox="0 0 136 120" fill="none" xmlns="http://www.w3.org/2000/svg">
<circle cx="117.832" cy="2.16809" r="1.55725" transform="rotate(90 117.832 2.16809)" fill="#C4C4C4" fill-opacity="0.48"/>
<circle cx="109.527" cy="2.16809" r="1.55725" transform="rotate(90 109.527 2.16809)" fill="#C4C4C4" fill-opacity="0.48"/>
<circle cx="101.221" cy="2.16809" r="1.55725" transform="rotate(90 101.221 2.16809)" fill="#C4C4C4" fill-opacity="0.48"/>
<circle cx="92.9161" cy="2.16809" r="1.55725" transform="rotate(90 92.9161 2.16809)" fill="#C4C4C4" fill-opacity="0.48"/>
<circle cx="84.6107" cy="2.16809" r="1.55725" transform="rotate(90 84.6107 2.16809)" fill="#C4C4C4" fill-opacity="0.48"/>
<circle cx="76.3053" cy="2.16809" r="1.55725" transform="rotate(90 76.3053 2.16809)" fill="#C4C4C4" fill-opacity="0.48"/>
<circle cx="67.9999" cy="2.16809" r="1.55725" transform="rotate(90 67.9999 2.16809)" fill="#C4C4C4" fill-opacity="0.48"/>
<circle cx="59.6947" cy="2.16809" r="1.55725" transform="rotate(90 59.6947 2.16809)" fill="#C4C4C4" fill-opacity="0.48"/>
<circle cx="51.3893" cy="2.16809" r="1.55725" transform="rotate(90 51.3893 2.16809)" fill="#C4C4C4" fill-opacity="0.48"/>
<circle cx="43.0841" cy="2.16809" r="1.55725" transform="rotate(90 43.0841 2.16809)" fill="#C4C4C4" fill-opacity="0.48"/>
<circle cx="34.7787" cy="2.16809" r="1.55725" transform="rotate(90 34.7787 2.16809)" fill="#C4C4C4" fill-opacity="0.48"/>
<circle cx="26.4733" cy="2.16809" r="1.55725" transform="rotate(90 26.4733 2.16809)" fill="#C4C4C4" fill-opacity="0.48"/>
<circle cx="18.1678" cy="2.16809" r="1.55725" transform="rotate(90 18.1678 2.16809)" fill="#C4C4C4" fill-opacity="0.48"/>
<circle cx="9.86267" cy="2.16809" r="1.55725" transform="rotate(90 9.86267 2.16809)" fill="#C4C4C4" fill-opacity="0.48"/>
<circle cx="1.55725" cy="2.16809" r="1.55725" transform="rotate(90 1.55725 2.16809)" fill="#C4C4C4" fill-opacity="0.48"/>
<circle cx="117.832" cy="10.4733" r="1.55725" transform="rotate(90 117.832 10.4733)" fill="#C4C4C4" fill-opacity="0.48"/>
<circle cx="109.527" cy="10.4733" r="1.55725" transform="rotate(90 109.527 10.4733)" fill="#C4C4C4" fill-opacity="0.48"/>
<circle cx="101.221" cy="10.4733" r="1.55725" transform="rotate(90 101.221 10.4733)" fill="#C4C4C4" fill-opacity="0.48"/>
<circle cx="92.9161" cy="10.4733" r="1.55725" transform="rotate(90 92.9161 10.4733)" fill="#C4C4C4" fill-opacity="0.48"/>
<circle cx="84.6107" cy="10.4733" r="1.55725" transform="rotate(90 84.6107 10.4733)" fill="#C4C4C4" fill-opacity="0.48"/>
<circle cx="76.3053" cy="10.4733" r="1.55725" transform="rotate(90 76.3053 10.4733)" fill="#C4C4C4" fill-opacity="0.48"/>
<circle cx="67.9999" cy="10.4733" r="1.55725" transform="rotate(90 67.9999 10.4733)" fill="#C4C4C4" fill-opacity="0.48"/>
<circle cx="59.6947" cy="10.4733" r="1.55725" transform="rotate(90 59.6947 10.4733)" fill="#C4C4C4" fill-opacity="0.48"/>
<circle cx="51.3893" cy="10.4733" r="1.55725" transform="rotate(90 51.3893 10.4733)" fill="#C4C4C4" fill-opacity="0.48"/>
<circle cx="43.0841" cy="10.4733" r="1.55725" transform="rotate(90 43.0841 10.4733)" fill="#C4C4C4" fill-opacity="0.48"/>
<circle cx="34.7787" cy="10.4733" r="1.55725" transform="rotate(90 34.7787 10.4733)" fill="#C4C4C4" fill-opacity="0.48"/>
<circle cx="26.4733" cy="10.4733" r="1.55725" transform="rotate(90 26.4733 10.4733)" fill="#C4C4C4" fill-opacity="0.48"/>
<circle cx="18.1678" cy="10.4733" r="1.55725" transform="rotate(90 18.1678 10.4733)" fill="#C4C4C4" fill-opacity="0.48"/>
<circle cx="9.86267" cy="10.4733" r="1.55725" transform="rotate(90 9.86267 10.4733)" fill="#C4C4C4" fill-opacity="0.48"/>
<circle cx="1.55725" cy="10.4733" r="1.55725" transform="rotate(90 1.55725 10.4733)" fill="#C4C4C4" fill-opacity="0.48"/>
<circle cx="134.443" cy="18.7789" r="1.55725" transform="rotate(90 134.443 18.7789)" fill="#C4C4C4" fill-opacity="0.48"/>
<circle cx="126.137" cy="18.7789" r="1.55725" transform="rotate(90 126.137 18.7789)" fill="#C4C4C4" fill-opacity="0.48"/>
<circle cx="117.832" cy="18.7789" r="1.55725" transform="rotate(90 117.832 18.7789)" fill="#C4C4C4" fill-opacity="0.48"/>
<circle cx="109.527" cy="18.7789" r="1.55725" transform="rotate(90 109.527 18.7789)" fill="#C4C4C4" fill-opacity="0.48"/>
<circle cx="101.221" cy="18.7789" r="1.55725" transform="rotate(90 101.221 18.7789)" fill="#C4C4C4" fill-opacity="0.48"/>
<circle cx="92.9161" cy="18.7789" r="1.55725" transform="rotate(90 92.9161 18.7789)" fill="#C4C4C4" fill-opacity="0.48"/>
<circle cx="84.6107" cy="18.7789" r="1.55725" transform="rotate(90 84.6107 18.7789)" fill="#C4C4C4" fill-opacity="0.48"/>
<circle cx="76.3053" cy="18.7789" r="1.55725" transform="rotate(90 76.3053 18.7789)" fill="#C4C4C4" fill-opacity="0.48"/>
<circle cx="67.9999" cy="18.7789" r="1.55725" transform="rotate(90 67.9999 18.7789)" fill="#C4C4C4" fill-opacity="0.48"/>
<circle cx="59.6947" cy="18.7789" r="1.55725" transform="rotate(90 59.6947 18.7789)" fill="#C4C4C4" fill-opacity="0.48"/>
<circle cx="51.3893" cy="18.7789" r="1.55725" transform="rotate(90 51.3893 18.7789)" fill="#C4C4C4" fill-opacity="0.48"/>
<circle cx="43.0841" cy="18.7789" r="1.55725" transform="rotate(90 43.0841 18.7789)" fill="#C4C4C4" fill-opacity="0.48"/>
<circle cx="34.7787" cy="18.7789" r="1.55725" transform="rotate(90 34.7787 18.7789)" fill="#C4C4C4" fill-opacity="0.48"/>
<circle cx="26.4733" cy="18.7789" r="1.55725" transform="rotate(90 26.4733 18.7789)" fill="#C4C4C4" fill-opacity="0.48"/>
<circle cx="18.1678" cy="18.7789" r="1.55725" transform="rotate(90 18.1678 18.7789)" fill="#C4C4C4" fill-opacity="0.48"/>
<circle cx="9.86267" cy="18.7789" r="1.55725" transform="rotate(90 9.86267 18.7789)" fill="#C4C4C4" fill-opacity="0.48"/>
<circle cx="1.55725" cy="18.7789" r="1.55725" transform="rotate(90 1.55725 18.7789)" fill="#C4C4C4" fill-opacity="0.48"/>
<circle cx="134.443" cy="27.0841" r="1.55725" transform="rotate(90 134.443 27.0841)" fill="#C4C4C4" fill-opacity="0.48"/>
<circle cx="126.137" cy="27.0841" r="1.55725" transform="rotate(90 126.137 27.0841)" fill="#C4C4C4" fill-opacity="0.48"/>
<circle cx="117.832" cy="27.0841" r="1.55725" transform="rotate(90 117.832 27.0841)" fill="#C4C4C4" fill-opacity="0.48"/>
<circle cx="109.527" cy="27.0841" r="1.55725" transform="rotate(90 109.527 27.0841)" fill="#C4C4C4" fill-opacity="0.48"/>
<circle cx="101.221" cy="27.0841" r="1.55725" transform="rotate(90 101.221 27.0841)" fill="#C4C4C4" fill-opacity="0.48"/>
<circle cx="92.9161" cy="27.0841" r="1.55725" transform="rotate(90 92.9161 27.0841)" fill="#C4C4C4" fill-opacity="0.48"/>
<circle cx="84.6107" cy="27.0841" r="1.55725" transform="rotate(90 84.6107 27.0841)" fill="#C4C4C4" fill-opacity="0.48"/>
<circle cx="76.3053" cy="27.0841" r="1.55725" transform="rotate(90 76.3053 27.0841)" fill="#C4C4C4" fill-opacity="0.48"/>
<circle cx="67.9999" cy="27.0841" r="1.55725" transform="rotate(90 67.9999 27.0841)" fill="#C4C4C4" fill-opacity="0.48"/>
<circle cx="59.6947" cy="27.0841" r="1.55725" transform="rotate(90 59.6947 27.0841)" fill="#C4C4C4" fill-opacity="0.48"/>
<circle cx="51.3893" cy="27.0841" r="1.55725" transform="rotate(90 51.3893 27.0841)" fill="#C4C4C4" fill-opacity="0.48"/>
<circle cx="43.0841" cy="27.0841" r="1.55725" transform="rotate(90 43.0841 27.0841)" fill="#C4C4C4" fill-opacity="0.48"/>
<circle cx="34.7787" cy="27.0841" r="1.55725" transform="rotate(90 34.7787 27.0841)" fill="#C4C4C4" fill-opacity="0.48"/>
<circle cx="26.4733" cy="27.0841" r="1.55725" transform="rotate(90 26.4733 27.0841)" fill="#C4C4C4" fill-opacity="0.48"/>
<circle cx="18.1678" cy="27.0841" r="1.55725" transform="rotate(90 18.1678 27.0841)" fill="#C4C4C4" fill-opacity="0.48"/>
<circle cx="9.86267" cy="27.0841" r="1.55725" transform="rotate(90 9.86267 27.0841)" fill="#C4C4C4" fill-opacity="0.48"/>
<circle cx="1.55725" cy="27.0841" r="1.55725" transform="rotate(90 1.55725 27.0841)" fill="#C4C4C4" fill-opacity="0.48"/>
<circle cx="134.443" cy="35.3893" r="1.55725" transform="rotate(90 134.443 35.3893)" fill="#C4C4C4" fill-opacity="0.48"/>
<circle cx="126.137" cy="35.3893" r="1.55725" transform="rotate(90 126.137 35.3893)" fill="#C4C4C4" fill-opacity="0.48"/>
<circle cx="117.832" cy="35.3893" r="1.55725" transform="rotate(90 117.832 35.3893)" fill="#C4C4C4" fill-opacity="0.48"/>
<circle cx="109.527" cy="35.3893" r="1.55725" transform="rotate(90 109.527 35.3893)" fill="#C4C4C4" fill-opacity="0.48"/>
<circle cx="101.221" cy="35.3893" r="1.55725" transform="rotate(90 101.221 35.3893)" fill="#C4C4C4" fill-opacity="0.48"/>
<circle cx="92.9161" cy="35.3893" r="1.55725" transform="rotate(90 92.9161 35.3893)" fill="#C4C4C4" fill-opacity="0.48"/>
<circle cx="84.6107" cy="35.3893" r="1.55725" transform="rotate(90 84.6107 35.3893)" fill="#C4C4C4" fill-opacity="0.48"/>
<circle cx="76.3053" cy="35.3893" r="1.55725" transform="rotate(90 76.3053 35.3893)" fill="#C4C4C4" fill-opacity="0.48"/>
<circle cx="67.9999" cy="35.3893" r="1.55725" transform="rotate(90 67.9999 35.3893)" fill="#C4C4C4" fill-opacity="0.48"/>
<circle cx="59.6947" cy="35.3893" r="1.55725" transform="rotate(90 59.6947 35.3893)" fill="#C4C4C4" fill-opacity="0.48"/>
<circle cx="51.3893" cy="35.3893" r="1.55725" transform="rotate(90 51.3893 35.3893)" fill="#C4C4C4" fill-opacity="0.48"/>
<circle cx="43.0841" cy="35.3893" r="1.55725" transform="rotate(90 43.0841 35.3893)" fill="#C4C4C4" fill-opacity="0.48"/>
<circle cx="34.7787" cy="35.3893" r="1.55725" transform="rotate(90 34.7787 35.3893)" fill="#C4C4C4" fill-opacity="0.48"/>
<circle cx="26.4733" cy="35.3893" r="1.55725" transform="rotate(90 26.4733 35.3893)" fill="#C4C4C4" fill-opacity="0.48"/>
<circle cx="18.1678" cy="35.3893" r="1.55725" transform="rotate(90 18.1678 35.3893)" fill="#C4C4C4" fill-opacity="0.48"/>
<circle cx="9.86267" cy="35.3893" r="1.55725" transform="rotate(90 9.86267 35.3893)" fill="#C4C4C4" fill-opacity="0.48"/>
<circle cx="1.55725" cy="35.3893" r="1.55725" transform="rotate(90 1.55725 35.3893)" fill="#C4C4C4" fill-opacity="0.48"/>
<circle cx="134.443" cy="43.6949" r="1.55725" transform="rotate(90 134.443 43.6949)" fill="#C4C4C4" fill-opacity="0.48"/>
<circle cx="126.137" cy="43.6949" r="1.55725" transform="rotate(90 126.137 43.6949)" fill="#C4C4C4" fill-opacity="0.48"/>
<circle cx="117.832" cy="43.6949" r="1.55725" transform="rotate(90 117.832 43.6949)" fill="#C4C4C4" fill-opacity="0.48"/>
<circle cx="109.527" cy="43.6949" r="1.55725" transform="rotate(90 109.527 43.6949)" fill="#C4C4C4" fill-opacity="0.48"/>
<circle cx="101.221" cy="43.6949" r="1.55725" transform="rotate(90 101.221 43.6949)" fill="#C4C4C4" fill-opacity="0.48"/>
<circle cx="92.9161" cy="43.6949" r="1.55725" transform="rotate(90 92.9161 43.6949)" fill="#C4C4C4" fill-opacity="0.48"/>
<circle cx="84.6107" cy="43.6949" r="1.55725" transform="rotate(90 84.6107 43.6949)" fill="#C4C4C4" fill-opacity="0.48"/>
<circle cx="76.3053" cy="43.6949" r="1.55725" transform="rotate(90 76.3053 43.6949)" fill="#C4C4C4" fill-opacity="0.48"/>
<circle cx="67.9999" cy="43.6949" r="1.55725" transform="rotate(90 67.9999 43.6949)" fill="#C4C4C4" fill-opacity="0.48"/>
<circle cx="59.6947" cy="43.6949" r="1.55725" transform="rotate(90 59.6947 43.6949)" fill="#C4C4C4" fill-opacity="0.48"/>
<circle cx="51.3893" cy="43.6949" r="1.55725" transform="rotate(90 51.3893 43.6949)" fill="#C4C4C4" fill-opacity="0.48"/>
<circle cx="43.0841" cy="43.6949" r="1.55725" transform="rotate(90 43.0841 43.6949)" fill="#C4C4C4" fill-opacity="0.48"/>
<circle cx="34.7787" cy="43.6949" r="1.55725" transform="rotate(90 34.7787 43.6949)" fill="#C4C4C4" fill-opacity="0.48"/>
<circle cx="26.4733" cy="43.6949" r="1.55725" transform="rotate(90 26.4733 43.6949)" fill="#C4C4C4" fill-opacity="0.48"/>
<circle cx="18.1678" cy="43.6949" r="1.55725" transform="rotate(90 18.1678 43.6949)" fill="#C4C4C4" fill-opacity="0.48"/>
<circle cx="9.86267" cy="43.6949" r="1.55725" transform="rotate(90 9.86267 43.6949)" fill="#C4C4C4" fill-opacity="0.48"/>
<circle cx="1.55725" cy="43.6949" r="1.55725" transform="rotate(90 1.55725 43.6949)" fill="#C4C4C4" fill-opacity="0.48"/>
<circle cx="134.443" cy="52.0001" r="1.55725" transform="rotate(90 134.443 52.0001)" fill="#C4C4C4" fill-opacity="0.48"/>
<circle cx="126.137" cy="52.0001" r="1.55725" transform="rotate(90 126.137 52.0001)" fill="#C4C4C4" fill-opacity="0.48"/>
<circle cx="117.832" cy="52.0001" r="1.55725" transform="rotate(90 117.832 52.0001)" fill="#C4C4C4" fill-opacity="0.48"/>
<circle cx="109.527" cy="52.0001" r="1.55725" transform="rotate(90 109.527 52.0001)" fill="#C4C4C4" fill-opacity="0.48"/>
<circle cx="101.221" cy="52.0001" r="1.55725" transform="rotate(90 101.221 52.0001)" fill="#C4C4C4" fill-opacity="0.48"/>
<circle cx="92.9161" cy="52.0001" r="1.55725" transform="rotate(90 92.9161 52.0001)" fill="#C4C4C4" fill-opacity="0.48"/>
<circle cx="84.6107" cy="52.0001" r="1.55725" transform="rotate(90 84.6107 52.0001)" fill="#C4C4C4" fill-opacity="0.48"/>
<circle cx="76.3053" cy="52.0001" r="1.55725" transform="rotate(90 76.3053 52.0001)" fill="#C4C4C4" fill-opacity="0.48"/>
<circle cx="67.9999" cy="52.0001" r="1.55725" transform="rotate(90 67.9999 52.0001)" fill="#C4C4C4" fill-opacity="0.48"/>
<circle cx="59.6947" cy="52.0001" r="1.55725" transform="rotate(90 59.6947 52.0001)" fill="#C4C4C4" fill-opacity="0.48"/>
<circle cx="51.3893" cy="52.0001" r="1.55725" transform="rotate(90 51.3893 52.0001)" fill="#C4C4C4" fill-opacity="0.48"/>
<circle cx="43.0841" cy="52.0001" r="1.55725" transform="rotate(90 43.0841 52.0001)" fill="#C4C4C4" fill-opacity="0.48"/>
<circle cx="34.7787" cy="52.0001" r="1.55725" transform="rotate(90 34.7787 52.0001)" fill="#C4C4C4" fill-opacity="0.48"/>
<circle cx="26.4733" cy="52.0001" r="1.55725" transform="rotate(90 26.4733 52.0001)" fill="#C4C4C4" fill-opacity="0.48"/>
<circle cx="18.1678" cy="52.0001" r="1.55725" transform="rotate(90 18.1678 52.0001)" fill="#C4C4C4" fill-opacity="0.48"/>
<circle cx="9.86267" cy="52.0001" r="1.55725" transform="rotate(90 9.86267 52.0001)" fill="#C4C4C4" fill-opacity="0.48"/>
<circle cx="1.55725" cy="52.0001" r="1.55725" transform="rotate(90 1.55725 52.0001)" fill="#C4C4C4" fill-opacity="0.48"/>
<circle cx="134.443" cy="60.3053" r="1.55725" transform="rotate(90 134.443 60.3053)" fill="#C4C4C4" fill-opacity="0.48"/>
<circle cx="126.137" cy="60.3053" r="1.55725" transform="rotate(90 126.137 60.3053)" fill="#C4C4C4" fill-opacity="0.48"/>
<circle cx="117.832" cy="60.3053" r="1.55725" transform="rotate(90 117.832 60.3053)" fill="#C4C4C4" fill-opacity="0.48"/>
<circle cx="109.527" cy="60.3053" r="1.55725" transform="rotate(90 109.527 60.3053)" fill="#C4C4C4" fill-opacity="0.48"/>
<circle cx="101.221" cy="60.3053" r="1.55725" transform="rotate(90 101.221 60.3053)" fill="#C4C4C4" fill-opacity="0.48"/>
<circle cx="92.9161" cy="60.3053" r="1.55725" transform="rotate(90 92.9161 60.3053)" fill="#C4C4C4" fill-opacity="0.48"/>
<circle cx="84.6107" cy="60.3053" r="1.55725" transform="rotate(90 84.6107 60.3053)" fill="#C4C4C4" fill-opacity="0.48"/>
<circle cx="76.3053" cy="60.3053" r="1.55725" transform="rotate(90 76.3053 60.3053)" fill="#C4C4C4" fill-opacity="0.48"/>
<circle cx="59.6947" cy="60.3053" r="1.55725" transform="rotate(90 59.6947 60.3053)" fill="#C4C4C4" fill-opacity="0.48"/>
<circle cx="67.9999" cy="60.3053" r="1.55725" transform="rotate(90 67.9999 60.3053)" fill="#C4C4C4" fill-opacity="0.48"/>
<circle cx="51.3893" cy="60.3053" r="1.55725" transform="rotate(90 51.3893 60.3053)" fill="#C4C4C4" fill-opacity="0.48"/>
<circle cx="43.0841" cy="60.3053" r="1.55725" transform="rotate(90 43.0841 60.3053)" fill="#C4C4C4" fill-opacity="0.48"/>
<circle cx="34.7787" cy="60.3053" r="1.55725" transform="rotate(90 34.7787 60.3053)" fill="#C4C4C4" fill-opacity="0.48"/>
<circle cx="26.4733" cy="60.3053" r="1.55725" transform="rotate(90 26.4733 60.3053)" fill="#C4C4C4" fill-opacity="0.48"/>
<circle cx="18.1678" cy="60.3053" r="1.55725" transform="rotate(90 18.1678 60.3053)" fill="#C4C4C4" fill-opacity="0.48"/>
<circle cx="9.86267" cy="60.3053" r="1.55725" transform="rotate(90 9.86267 60.3053)" fill="#C4C4C4" fill-opacity="0.48"/>
<circle cx="1.55725" cy="60.3053" r="1.55725" transform="rotate(90 1.55725 60.3053)" fill="#C4C4C4" fill-opacity="0.48"/>
<circle cx="134.443" cy="68.611" r="1.55725" transform="rotate(90 134.443 68.611)" fill="#C4C4C4" fill-opacity="0.48"/>
<circle cx="126.137" cy="68.611" r="1.55725" transform="rotate(90 126.137 68.611)" fill="#C4C4C4" fill-opacity="0.48"/>
<circle cx="117.832" cy="68.611" r="1.55725" transform="rotate(90 117.832 68.611)" fill="#C4C4C4" fill-opacity="0.48"/>
<circle cx="109.527" cy="68.611" r="1.55725" transform="rotate(90 109.527 68.611)" fill="#C4C4C4" fill-opacity="0.48"/>
<circle cx="101.221" cy="68.611" r="1.55725" transform="rotate(90 101.221 68.611)" fill="#C4C4C4" fill-opacity="0.48"/>
<circle cx="92.9161" cy="68.611" r="1.55725" transform="rotate(90 92.9161 68.611)" fill="#C4C4C4" fill-opacity="0.48"/>
<circle cx="84.6107" cy="68.611" r="1.55725" transform="rotate(90 84.6107 68.611)" fill="#C4C4C4" fill-opacity="0.48"/>
<circle cx="76.3053" cy="68.611" r="1.55725" transform="rotate(90 76.3053 68.611)" fill="#C4C4C4" fill-opacity="0.48"/>
<circle cx="67.9999" cy="68.611" r="1.55725" transform="rotate(90 67.9999 68.611)" fill="#C4C4C4" fill-opacity="0.48"/>
<circle cx="59.6947" cy="68.611" r="1.55725" transform="rotate(90 59.6947 68.611)" fill="#C4C4C4" fill-opacity="0.48"/>
<circle cx="51.3893" cy="68.611" r="1.55725" transform="rotate(90 51.3893 68.611)" fill="#C4C4C4" fill-opacity="0.48"/>
<circle cx="43.0841" cy="68.611" r="1.55725" transform="rotate(90 43.0841 68.611)" fill="#C4C4C4" fill-opacity="0.48"/>
<circle cx="134.443" cy="76.9161" r="1.55725" transform="rotate(90 134.443 76.9161)" fill="#C4C4C4" fill-opacity="0.48"/>
<circle cx="126.137" cy="76.9161" r="1.55725" transform="rotate(90 126.137 76.9161)" fill="#C4C4C4" fill-opacity="0.48"/>
<circle cx="117.832" cy="76.9161" r="1.55725" transform="rotate(90 117.832 76.9161)" fill="#C4C4C4" fill-opacity="0.48"/>
<circle cx="109.527" cy="76.9161" r="1.55725" transform="rotate(90 109.527 76.9161)" fill="#C4C4C4" fill-opacity="0.48"/>
<circle cx="101.221" cy="76.9161" r="1.55725" transform="rotate(90 101.221 76.9161)" fill="#C4C4C4" fill-opacity="0.48"/>
<circle cx="92.9161" cy="76.9161" r="1.55725" transform="rotate(90 92.9161 76.9161)" fill="#C4C4C4" fill-opacity="0.48"/>
<circle cx="84.6107" cy="76.9161" r="1.55725" transform="rotate(90 84.6107 76.9161)" fill="#C4C4C4" fill-opacity="0.48"/>
<circle cx="76.3053" cy="76.9161" r="1.55725" transform="rotate(90 76.3053 76.9161)" fill="#C4C4C4" fill-opacity="0.48"/>
<circle cx="67.9999" cy="76.9161" r="1.55725" transform="rotate(90 67.9999 76.9161)" fill="#C4C4C4" fill-opacity="0.48"/>
<circle cx="59.6947" cy="76.9161" r="1.55725" transform="rotate(90 59.6947 76.9161)" fill="#C4C4C4" fill-opacity="0.48"/>
<circle cx="51.3893" cy="76.9161" r="1.55725" transform="rotate(90 51.3893 76.9161)" fill="#C4C4C4" fill-opacity="0.48"/>
<circle cx="43.0841" cy="76.9161" r="1.55725" transform="rotate(90 43.0841 76.9161)" fill="#C4C4C4" fill-opacity="0.48"/>
<circle cx="134.443" cy="85.2213" r="1.55725" transform="rotate(90 134.443 85.2213)" fill="#C4C4C4" fill-opacity="0.48"/>
<circle cx="126.137" cy="85.2213" r="1.55725" transform="rotate(90 126.137 85.2213)" fill="#C4C4C4" fill-opacity="0.48"/>
<circle cx="117.832" cy="85.2213" r="1.55725" transform="rotate(90 117.832 85.2213)" fill="#C4C4C4" fill-opacity="0.48"/>
<circle cx="109.527" cy="85.2213" r="1.55725" transform="rotate(90 109.527 85.2213)" fill="#C4C4C4" fill-opacity="0.48"/>
<circle cx="101.221" cy="85.2213" r="1.55725" transform="rotate(90 101.221 85.2213)" fill="#C4C4C4" fill-opacity="0.48"/>
<circle cx="92.9161" cy="85.2213" r="1.55725" transform="rotate(90 92.9161 85.2213)" fill="#C4C4C4" fill-opacity="0.48"/>
<circle cx="84.6107" cy="85.2213" r="1.55725" transform="rotate(90 84.6107 85.2213)" fill="#C4C4C4" fill-opacity="0.48"/>
<circle cx="76.3053" cy="85.2213" r="1.55725" transform="rotate(90 76.3053 85.2213)" fill="#C4C4C4" fill-opacity="0.48"/>
<circle cx="67.9999" cy="85.2213" r="1.55725" transform="rotate(90 67.9999 85.2213)" fill="#C4C4C4" fill-opacity="0.48"/>
<circle cx="59.6947" cy="85.2213" r="1.55725" transform="rotate(90 59.6947 85.2213)" fill="#C4C4C4" fill-opacity="0.48"/>
<circle cx="51.3893" cy="85.2213" r="1.55725" transform="rotate(90 51.3893 85.2213)" fill="#C4C4C4" fill-opacity="0.48"/>
<circle cx="43.0841" cy="85.2213" r="1.55725" transform="rotate(90 43.0841 85.2213)" fill="#C4C4C4" fill-opacity="0.48"/>
<circle cx="134.443" cy="93.527" r="1.55725" transform="rotate(90 134.443 93.527)" fill="#C4C4C4" fill-opacity="0.48"/>
<circle cx="126.137" cy="93.527" r="1.55725" transform="rotate(90 126.137 93.527)" fill="#C4C4C4" fill-opacity="0.48"/>
<circle cx="117.832" cy="93.527" r="1.55725" transform="rotate(90 117.832 93.527)" fill="#C4C4C4" fill-opacity="0.48"/>
<circle cx="109.527" cy="93.527" r="1.55725" transform="rotate(90 109.527 93.527)" fill="#C4C4C4" fill-opacity="0.48"/>
<circle cx="101.221" cy="93.527" r="1.55725" transform="rotate(90 101.221 93.527)" fill="#C4C4C4" fill-opacity="0.48"/>
<circle cx="92.9161" cy="93.527" r="1.55725" transform="rotate(90 92.9161 93.527)" fill="#C4C4C4" fill-opacity="0.48"/>
<circle cx="84.6107" cy="93.527" r="1.55725" transform="rotate(90 84.6107 93.527)" fill="#C4C4C4" fill-opacity="0.48"/>
<circle cx="76.3053" cy="93.527" r="1.55725" transform="rotate(90 76.3053 93.527)" fill="#C4C4C4" fill-opacity="0.48"/>
<circle cx="67.9999" cy="93.527" r="1.55725" transform="rotate(90 67.9999 93.527)" fill="#C4C4C4" fill-opacity="0.48"/>
<circle cx="59.6947" cy="93.527" r="1.55725" transform="rotate(90 59.6947 93.527)" fill="#C4C4C4" fill-opacity="0.48"/>
<circle cx="51.3893" cy="93.527" r="1.55725" transform="rotate(90 51.3893 93.527)" fill="#C4C4C4" fill-opacity="0.48"/>
<circle cx="43.0841" cy="93.527" r="1.55725" transform="rotate(90 43.0841 93.527)" fill="#C4C4C4" fill-opacity="0.48"/>
<circle cx="134.443" cy="101.832" r="1.55725" transform="rotate(90 134.443 101.832)" fill="#C4C4C4" fill-opacity="0.48"/>
<circle cx="126.137" cy="101.832" r="1.55725" transform="rotate(90 126.137 101.832)" fill="#C4C4C4" fill-opacity="0.48"/>
<circle cx="117.832" cy="101.832" r="1.55725" transform="rotate(90 117.832 101.832)" fill="#C4C4C4" fill-opacity="0.48"/>
<circle cx="109.527" cy="101.832" r="1.55725" transform="rotate(90 109.527 101.832)" fill="#C4C4C4" fill-opacity="0.48"/>
<circle cx="101.221" cy="101.832" r="1.55725" transform="rotate(90 101.221 101.832)" fill="#C4C4C4" fill-opacity="0.48"/>
<circle cx="92.9161" cy="101.832" r="1.55725" transform="rotate(90 92.9161 101.832)" fill="#C4C4C4" fill-opacity="0.48"/>
<circle cx="84.6107" cy="101.832" r="1.55725" transform="rotate(90 84.6107 101.832)" fill="#C4C4C4" fill-opacity="0.48"/>
<circle cx="76.3053" cy="101.832" r="1.55725" transform="rotate(90 76.3053 101.832)" fill="#C4C4C4" fill-opacity="0.48"/>
<circle cx="67.9999" cy="101.832" r="1.55725" transform="rotate(90 67.9999 101.832)" fill="#C4C4C4" fill-opacity="0.48"/>
<circle cx="59.6947" cy="101.832" r="1.55725" transform="rotate(90 59.6947 101.832)" fill="#C4C4C4" fill-opacity="0.48"/>
<circle cx="51.3893" cy="101.832" r="1.55725" transform="rotate(90 51.3893 101.832)" fill="#C4C4C4" fill-opacity="0.48"/>
<circle cx="43.0841" cy="101.832" r="1.55725" transform="rotate(90 43.0841 101.832)" fill="#C4C4C4" fill-opacity="0.48"/>
<circle cx="134.443" cy="110.137" r="1.55725" transform="rotate(90 134.443 110.137)" fill="#C4C4C4" fill-opacity="0.48"/>
<circle cx="126.137" cy="110.137" r="1.55725" transform="rotate(90 126.137 110.137)" fill="#C4C4C4" fill-opacity="0.48"/>
<circle cx="117.832" cy="110.137" r="1.55725" transform="rotate(90 117.832 110.137)" fill="#C4C4C4" fill-opacity="0.48"/>
<circle cx="109.527" cy="110.137" r="1.55725" transform="rotate(90 109.527 110.137)" fill="#C4C4C4" fill-opacity="0.48"/>
<circle cx="101.221" cy="110.137" r="1.55725" transform="rotate(90 101.221 110.137)" fill="#C4C4C4" fill-opacity="0.48"/>
<circle cx="92.9161" cy="110.137" r="1.55725" transform="rotate(90 92.9161 110.137)" fill="#C4C4C4" fill-opacity="0.48"/>
<circle cx="84.6107" cy="110.137" r="1.55725" transform="rotate(90 84.6107 110.137)" fill="#C4C4C4" fill-opacity="0.48"/>
<circle cx="76.3053" cy="110.137" r="1.55725" transform="rotate(90 76.3053 110.137)" fill="#C4C4C4" fill-opacity="0.48"/>
<circle cx="67.9999" cy="110.137" r="1.55725" transform="rotate(90 67.9999 110.137)" fill="#C4C4C4" fill-opacity="0.48"/>
<circle cx="59.6947" cy="110.137" r="1.55725" transform="rotate(90 59.6947 110.137)" fill="#C4C4C4" fill-opacity="0.48"/>
<circle cx="51.3893" cy="110.137" r="1.55725" transform="rotate(90 51.3893 110.137)" fill="#C4C4C4" fill-opacity="0.48"/>
<circle cx="43.0841" cy="110.137" r="1.55725" transform="rotate(90 43.0841 110.137)" fill="#C4C4C4" fill-opacity="0.48"/>
<circle cx="134.443" cy="118.443" r="1.55725" transform="rotate(90 134.443 118.443)" fill="#C4C4C4" fill-opacity="0.48"/>
<circle cx="126.137" cy="118.443" r="1.55725" transform="rotate(90 126.137 118.443)" fill="#C4C4C4" fill-opacity="0.48"/>
<circle cx="117.832" cy="118.443" r="1.55725" transform="rotate(90 117.832 118.443)" fill="#C4C4C4" fill-opacity="0.48"/>
<circle cx="109.527" cy="118.443" r="1.55725" transform="rotate(90 109.527 118.443)" fill="#C4C4C4" fill-opacity="0.48"/>
<circle cx="101.221" cy="118.443" r="1.55725" transform="rotate(90 101.221 118.443)" fill="#C4C4C4" fill-opacity="0.48"/>
<circle cx="92.9161" cy="118.443" r="1.55725" transform="rotate(90 92.9161 118.443)" fill="#C4C4C4" fill-opacity="0.48"/>
<circle cx="84.6107" cy="118.443" r="1.55725" transform="rotate(90 84.6107 118.443)" fill="#C4C4C4" fill-opacity="0.48"/>
<circle cx="76.3053" cy="118.443" r="1.55725" transform="rotate(90 76.3053 118.443)" fill="#C4C4C4" fill-opacity="0.48"/>
<circle cx="67.9999" cy="118.443" r="1.55725" transform="rotate(90 67.9999 118.443)" fill="#C4C4C4" fill-opacity="0.48"/>
<circle cx="59.6947" cy="118.443" r="1.55725" transform="rotate(90 59.6947 118.443)" fill="#C4C4C4" fill-opacity="0.48"/>
<circle cx="51.3893" cy="118.443" r="1.55725" transform="rotate(90 51.3893 118.443)" fill="#C4C4C4" fill-opacity="0.48"/>
<circle cx="43.0841" cy="118.443" r="1.55725" transform="rotate(90 43.0841 118.443)" fill="#C4C4C4" fill-opacity="0.48"/>
<path d="M131.261 0C129.182 0 127.836 0.766477 126.779 2.13342C126.587 2.38139 126.646 2.72137 126.914 2.90391L128.037 3.67052C128.307 3.85486 128.692 3.81176 128.903 3.5733C129.555 2.83781 130.039 2.41434 131.058 2.41434C131.859 2.41434 132.85 2.87838 132.85 3.57757C132.85 4.10613 132.366 4.37759 131.574 4.77673C130.652 5.2422 129.431 5.82148 129.431 7.27059V7.5C129.431 7.81066 129.711 8.0625 130.056 8.0625H131.944C132.289 8.0625 132.569 7.81066 132.569 7.5V7.3647C132.569 6.36016 135.831 6.31833 135.831 3.6C135.831 1.55288 133.471 0 131.261 0ZM131 8.75295C130.005 8.75295 129.196 9.48127 129.196 10.3765C129.196 11.2717 130.005 12 131 12C131.995 12 132.804 11.2717 132.804 10.3765C132.804 9.48124 131.995 8.75295 131 8.75295Z" fill="#6FCF97"/>
</svg>
