<svg width="22" height="22" viewBox="0 0 22 22" fill="none" xmlns="http://www.w3.org/2000/svg">
<path d="M11.0027 0H10.9973C4.93213 0 0 4.9335 0 11C0 13.4062 0.7755 15.6365 2.09413 17.4474L0.72325 21.5339L4.95138 20.1823C6.69075 21.3345 8.76562 22 11.0027 22C17.0679 22 22 17.0651 22 11C22 4.93488 17.0679 0 11.0027 0Z" fill="#4CAF50"/>
<path d="M17.4033 15.5335C17.1379 16.2829 16.0846 16.9044 15.2445 17.0859C14.6698 17.2083 13.919 17.3059 11.3918 16.2581C8.15914 14.9189 6.07739 11.634 5.91514 11.4209C5.75976 11.2077 4.60889 9.6815 4.60889 8.103C4.60889 6.5245 5.41051 5.75588 5.73364 5.42588C5.99901 5.155 6.43764 5.03125 6.85839 5.03125C6.99451 5.03125 7.11689 5.03813 7.22689 5.04363C7.55001 5.05738 7.71226 5.07663 7.92539 5.58675C8.19076 6.22613 8.83701 7.80463 8.91401 7.96688C8.99239 8.12913 9.07076 8.34913 8.96076 8.56225C8.85764 8.78225 8.76689 8.87987 8.60464 9.06687C8.44239 9.25387 8.28839 9.39687 8.12614 9.59763C7.97764 9.77225 7.80989 9.95925 7.99689 10.2824C8.18389 10.5986 8.83014 11.6532 9.78164 12.5002C11.0095 13.5934 12.005 13.9426 12.3611 14.0911C12.6265 14.2011 12.9428 14.175 13.1366 13.9688C13.3828 13.7034 13.6866 13.2634 13.996 12.8303C14.216 12.5195 14.4938 12.481 14.7853 12.591C15.0823 12.6941 16.6539 13.471 16.977 13.6319C17.3001 13.7941 17.5133 13.8711 17.5916 14.0073C17.6686 14.1434 17.6686 14.7828 17.4033 15.5335Z" fill="#FAFAFA"/>
</svg>
