<svg width="97" height="71" viewBox="0 0 97 71" fill="none" xmlns="http://www.w3.org/2000/svg">
<g clip-path="url(#clip0)">
<path d="M97 8.80372V38.5266C97 38.5266 90.7156 39.7789 89.4219 39.9454C88.1283 40.1118 84.075 41.4355 81.1354 38.5741C76.6026 34.1771 60.4993 17.9663 60.4993 17.9663C60.4993 17.9663 57.7221 15.208 53.2578 17.5918C49.1654 19.7715 43.0983 22.9776 40.5638 24.2239C35.7727 26.7999 31.8016 22.7101 31.8016 19.5892C31.8016 17.1697 33.293 15.527 35.4263 14.3183C41.2038 10.7714 53.3831 3.85189 58.456 1.12135C61.5385 -0.537183 63.7599 -0.679853 67.9932 2.93048C73.207 7.3691 77.8474 11.4154 77.8474 11.4154C77.8474 11.4154 79.3603 12.6954 81.7734 12.1802C87.7055 10.9101 97 8.80372 97 8.80372ZM32.8996 59.176C33.6825 57.147 33.4182 54.8781 31.921 53.3206C30.5784 51.9336 28.6154 51.563 26.7463 51.997C27.2689 50.1185 26.9792 48.1191 25.6288 46.7083C24.2784 45.2975 22.3232 44.9447 20.4541 45.3827C20.9728 43.5081 20.6851 41.5088 19.3327 40.1019C17.2229 37.9143 13.5571 37.9975 11.1557 40.3179C8.75431 42.6382 7.24144 46.8569 9.36689 49.3318C11.4924 51.8068 13.9466 50.2968 15.8137 49.8668C15.2951 51.7434 13.7392 53.4871 15.6552 55.9422C17.5712 58.3973 20.2369 56.9072 22.1138 56.4812C21.5912 58.3498 20.1038 60.2698 21.9455 62.5446C23.7871 64.8194 26.852 63.6127 28.864 62.9786C28.0811 64.9997 26.4254 67.1794 28.5606 69.6207C30.6959 72.0619 35.6181 70.9404 38.0254 68.616C40.4326 66.2917 40.6558 62.61 38.544 60.4046C37.0742 58.8907 34.9037 58.54 32.8996 59.176ZM76.8062 43.7103C59.4111 26.0985 67.5939 34.3852 58.2329 24.8858C58.2329 24.8858 55.4185 22.0502 51.7097 23.6969C49.1067 24.8501 45.7561 26.4254 43.2353 27.6262C40.464 29.0965 38.4696 29.5523 37.5341 29.5463C35.4268 29.5531 33.3749 28.8628 31.6906 27.5805C30.0063 26.2983 28.7817 24.4942 28.2031 22.4426C27.6244 20.391 27.7234 18.2042 28.485 16.2148C29.2465 14.2254 30.629 12.5422 32.4221 11.4213C36.2874 8.71455 45.1846 3.92323 45.1846 3.92323C45.1846 3.92323 42.47 0.447634 36.5379 0.447634C30.6058 0.447634 18.2014 8.67294 18.2014 8.67294C18.2014 8.67294 14.6786 10.9537 9.66829 8.89883L0 5.49061V39.5094C0 39.5094 2.75957 40.3179 5.23928 41.3443C5.80134 39.7025 6.73188 38.215 7.95775 36.9988C12.0678 33.0358 18.8923 32.9902 22.6363 36.8938C23.7501 38.0551 24.5478 39.4888 24.9516 41.055C26.4584 41.521 27.8248 42.364 28.9246 43.5062C30.0403 44.6667 30.8394 46.1005 31.2439 47.6674C32.7503 48.1362 34.1163 48.9804 35.2169 50.1225C36.4314 51.3857 37.2803 52.9621 37.6711 54.68C39.2427 55.1437 40.6697 56.0097 41.8144 57.1945C44.0651 59.5347 44.8636 62.7091 44.3783 65.7706C44.3806 65.7692 44.3833 65.7684 44.3861 65.7684C44.3888 65.7684 44.3915 65.7692 44.3939 65.7706C44.4311 65.8181 45.7874 67.3558 46.6348 68.2138C47.4396 68.9978 48.516 69.4309 49.6328 69.42C50.7496 69.4091 51.8176 68.9551 52.6073 68.1556C53.397 67.356 53.8454 66.2747 53.8562 65.144C53.8669 64.0133 53.4392 62.9235 52.6648 62.1087C52.6041 62.0493 46.6818 55.7678 47.1574 55.2883C47.633 54.8088 55.1817 62.7567 55.3187 62.9033C56.1236 63.6849 57.1989 64.1161 58.3142 64.1042C59.4294 64.0924 60.4956 63.6385 61.2841 62.8399C62.0726 62.0413 62.5206 60.9617 62.5319 59.8326C62.5432 58.7035 62.117 57.6148 61.3447 56.8002C61.2645 56.7229 60.924 56.394 60.7987 56.2612C60.7987 56.2612 53.3146 49.5122 53.8841 48.9296C54.4536 48.347 63.7559 57.1331 63.7716 57.1331C64.558 57.8791 65.5971 58.2913 66.6748 58.2849C67.7524 58.2784 68.7866 57.8538 69.5643 57.0984C70.342 56.3431 70.8039 55.3145 70.855 54.2246C70.9061 53.1347 70.5423 52.0665 69.8387 51.24C69.8094 51.1509 62.7539 43.6865 63.3038 43.1257C63.8538 42.5649 70.8486 49.847 70.8486 49.8629C71.6539 50.6464 72.7306 51.0788 73.8474 51.0672C74.9642 51.0555 76.0319 50.6008 76.8211 49.8008C77.6103 49.0007 78.058 47.9191 78.068 46.7884C78.0781 45.6577 77.6496 44.5681 76.8747 43.7538L76.8062 43.7103Z" fill="#128093"/>
<path d="M76.8062 43.7104C59.4111 26.0986 67.5939 34.3854 58.2329 24.886C58.2329 24.886 55.4185 22.0504 51.7097 23.697C49.1067 24.8503 45.7561 26.4256 43.2353 27.6264C40.464 29.0967 38.4696 29.5524 37.5341 29.5465C35.4268 29.5532 33.3749 28.863 31.6906 27.5807C30.0063 26.2985 28.7817 24.4943 28.2031 22.4428C27.6244 20.3912 27.7234 18.2044 28.485 16.215C29.2465 14.2256 30.629 12.5424 32.4221 11.4215C36.2874 8.71474 45.1846 3.92341 45.1846 3.92341C45.1846 3.92341 42.47 0.447815 36.5379 0.447815C30.6058 0.447815 18.2014 8.67312 18.2014 8.67312C18.2014 8.67312 14.6786 10.9539 9.66829 8.89902L0 5.4908V39.5096C0 39.5096 2.75957 40.3181 5.23928 41.3445C5.80134 39.7026 6.73188 38.2152 7.95775 36.999C12.0678 33.036 18.8923 32.9904 22.6363 36.894C23.7501 38.0553 24.5478 39.4889 24.9516 41.0552C26.4584 41.5212 27.8248 42.3642 28.9246 43.5063C30.0403 44.6669 30.8394 46.1007 31.2439 47.6675C32.7503 48.1364 34.1163 48.9805 35.2169 50.1226C36.4314 51.3859 37.2803 52.9623 37.6711 54.6802C39.2427 55.1439 40.6697 56.0099 41.8144 57.1947C44.0651 59.5349 44.8636 62.7093 44.3783 65.7707C44.3806 65.7693 44.3833 65.7686 44.3861 65.7686C44.3888 65.7686 44.3915 65.7693 44.3939 65.7707C44.4311 65.8183 45.7874 67.356 46.6348 68.214C47.4396 68.998 48.516 69.4311 49.6328 69.4202C50.7496 69.4093 51.8176 68.9553 52.6073 68.1557C53.397 67.3562 53.8454 66.2749 53.8562 65.1442C53.8669 64.0135 53.4392 62.9237 52.6648 62.1089C52.6041 62.0494 46.6818 55.768 47.1574 55.2885C47.633 54.809 55.1817 62.7568 55.3187 62.9035C56.1236 63.6851 57.199 64.1163 58.3142 64.1044C59.4294 64.0926 60.4956 63.6387 61.2841 62.8401C62.0726 62.0415 62.5206 60.9619 62.5319 59.8328C62.5432 58.7037 62.117 57.615 61.3447 56.8004C61.2645 56.7231 60.924 56.3942 60.7987 56.2614C60.7987 56.2614 53.3146 49.5123 53.8841 48.9298C54.4536 48.3472 63.7559 57.1333 63.7716 57.1333C64.558 57.8793 65.5971 58.2915 66.6748 58.2851C67.7525 58.2786 68.7866 57.854 69.5643 57.0986C70.342 56.3433 70.804 55.3147 70.855 54.2248C70.9061 53.1349 70.5423 52.0667 69.8388 51.2402C69.8094 51.1511 62.7539 43.6867 63.3038 43.1259C63.8538 42.5651 70.8486 49.8472 70.8486 49.8631C71.6539 50.6466 72.7306 51.079 73.8474 51.0673C74.9642 51.0557 76.0319 50.601 76.8211 49.8009C77.6103 49.0009 78.058 47.9193 78.068 46.7886C78.0781 45.6579 77.6496 44.5683 76.8747 43.754L76.8062 43.7104Z" fill="#45B5CD"/>
</g>
<defs>
<clipPath id="clip0">
<rect width="97" height="71" fill="white"/>
</clipPath>
</defs>
</svg>
