<svg width="152" height="102" viewBox="0 0 152 102" fill="none" xmlns="http://www.w3.org/2000/svg">
<g clip-path="url(#clip0)">
<path d="M32.7793 47.4929C29.7896 47.4929 26.867 48.3772 24.3812 50.0339C21.8953 51.6906 19.9579 54.0453 18.8137 56.8003C17.6696 59.5553 17.3703 62.5868 17.9535 65.5114C18.5368 68.4361 19.9765 71.1226 22.0905 73.2312C24.2046 75.3398 26.898 76.7757 29.8303 77.3575C32.7625 77.9392 35.8019 77.6406 38.564 76.4995C41.3261 75.3583 43.687 73.4259 45.348 70.9464C47.0089 68.467 47.8955 65.552 47.8955 62.57C47.8955 58.5713 46.3029 54.7364 43.4681 51.9089C40.6332 49.0814 36.7884 47.4929 32.7793 47.4929Z" fill="#45B5CD"/>
<path d="M104.942 3.17931C98.2385 1.14717 89.0045 0 79.639 0C70.1749 0 61.2695 1.14717 54.6315 3.17931C48.355 5.11311 46.1533 7.30913 46.1533 7.99743C46.1862 8.03021 46.219 8.06298 46.219 8.09576C46.3833 8.81684 48.3879 11.0784 55.4531 13.1105C61.9925 15.0116 70.6021 16.0604 79.6719 16.0604C89.0373 16.0604 98.2714 14.8805 104.942 12.8811C112.106 10.7179 113.65 8.48907 113.65 8.03021C113.65 7.57134 112.106 5.35238 104.942 3.17931Z" fill="#128093"/>
<path d="M106.882 19.0758C99.5206 21.3046 89.8923 22.5174 79.7381 22.5174C70.044 22.5174 60.81 21.403 53.6791 19.3381C51.2244 18.6809 48.8454 17.7691 46.5811 16.6176L46.8111 25.8606C50.5123 27.2467 53.9721 29.2044 57.0638 31.662C57.1295 31.6947 57.2281 31.6947 57.3267 31.7275C63.6361 33.3336 71.5885 34.1857 79.7053 34.1857C89.0707 34.1857 98.3048 33.0386 104.976 31.0064C112.107 28.8432 113.651 26.5816 113.651 26.1555C113.642 25.5056 113.825 24.8674 114.177 24.3201V16.126C111.874 17.4016 109.425 18.3922 106.882 19.0758Z" fill="#128093"/>
<path d="M78.2916 78.2371C78.2259 77.8576 78.2259 77.4695 78.2916 77.09C75.2355 77.0572 72.278 76.8933 69.452 76.6639C67.9341 80.5687 65.8045 84.2084 63.1426 87.4473C68.1941 88.2849 73.3026 88.7341 78.4231 88.7911L78.2916 78.2371Z" fill="#128093"/>
<path d="M64.8515 55.982C63.3813 48.8937 59.5895 42.4943 54.0729 37.7911C50.6922 34.849 46.7287 32.649 42.44 31.3342C39.2971 30.3816 36.0308 29.8957 32.746 29.892C26.2689 29.894 19.9378 31.8113 14.5531 35.4017C9.16848 38.9921 4.97199 44.0943 2.49422 50.0632C0.0164567 56.0321 -0.631328 62.5998 0.632763 68.9359C1.89685 75.272 5.01606 81.092 9.59604 85.6601C14.176 90.2282 20.0111 93.3394 26.3636 94.6002C32.7161 95.861 39.3008 95.2149 45.2852 92.7436C51.2696 90.2722 56.385 86.0866 59.9847 80.7158C63.5844 75.3451 65.5067 69.0304 65.5087 62.57C65.5032 60.358 65.2831 58.1517 64.8515 55.982ZM32.7788 84.1697C28.4892 84.1697 24.296 82.9009 20.7293 80.5239C17.1627 78.1469 14.3828 74.7684 12.7413 70.8156C11.0997 66.8628 10.6702 62.5133 11.5071 58.317C12.3439 54.1207 14.4096 50.2662 17.4428 47.2409C20.4759 44.2155 24.3405 42.1552 28.5476 41.3205C32.7548 40.4859 37.1156 40.9142 41.0786 42.5516C45.0417 44.1889 48.429 46.9615 50.8121 50.519C53.1953 54.0764 54.4673 58.2588 54.4673 62.5373C54.4612 68.2727 52.1742 73.7714 48.1081 77.827C44.0421 81.8825 38.5291 84.1636 32.7788 84.1697Z" fill="#45B5CD"/>
<path d="M78.2261 70.5019L78.0946 59.5874C78.0244 59.3619 77.9695 59.132 77.9303 58.8991C75.8601 58.8663 73.8555 58.8008 71.9167 58.6697C72.0153 59.9807 72.081 61.259 72.081 62.5373C72.0753 65.1121 71.8222 67.6804 71.3252 70.207C73.5269 70.3708 75.8601 70.4692 78.2261 70.5019Z" fill="#128093"/>
<path d="M143.061 52.8027C136.391 50.7706 127.189 49.689 117.791 49.689H117.528C108.721 49.689 100.342 50.6723 93.9009 52.475C87.4601 54.2777 85.0284 56.2442 84.4697 57.2603C84.5718 57.5446 84.6273 57.8434 84.634 58.1453C85.4227 59.2597 88.0845 61.1935 94.2624 62.8651C100.703 64.6022 109.083 65.5855 117.791 65.5855C127.157 65.5855 136.062 64.5039 142.799 62.5045C150.094 60.3413 151.704 58.0797 151.737 57.5881V57.5553C151.638 56.9981 149.962 54.9004 143.061 52.8027Z" fill="#45B5CD"/>
<path d="M144.836 86.8901C137.475 89.1189 127.945 90.3316 117.791 90.3316C108.82 90.3316 100.112 89.3483 93.2108 87.5456C90.3852 86.8575 87.642 85.8686 85.0283 84.5958L85.1269 92.0032L85.1598 94.0026V94.0681C85.1598 94.7892 87.2629 96.9525 93.5394 98.8863C100.145 100.886 108.984 102 118.481 102C127.978 102 136.818 100.853 143.521 98.7879C150.521 96.6247 151.967 94.3631 151.967 93.9043V83.9075C149.995 85.1857 147.235 86.169 144.836 86.8901Z" fill="#45B5CD"/>
<path d="M144.606 68.7975C137.278 70.9608 127.781 72.1407 117.791 72.1407C105.567 72.1407 92.5209 70.3052 84.7656 66.2737L84.8971 76.6311C87.7231 79.7776 99.8818 83.7435 117.758 83.7435C127.288 83.7435 136.226 82.6291 142.963 80.597C150.028 78.4338 151.54 76.205 151.54 75.7461C151.54 75.0906 151.967 74.5006 152 74.009V65.8149C149.654 67.0796 147.174 68.08 144.606 68.7975Z" fill="#45B5CD"/>
<path d="M106.816 37.3323C99.4548 39.5611 89.8265 40.7738 79.6723 40.7738C74.6952 40.7684 69.7233 40.4509 64.7861 39.8233C67.4243 43.5218 69.403 47.6466 70.6354 52.0161C73.4615 52.2455 76.4848 52.3766 79.6723 52.3766H79.9352C82.2355 49.82 86.2774 47.7224 92.061 46.0835C98.2061 44.3464 105.929 43.2976 114.144 43.0681V34.3168C111.824 35.5972 109.366 36.6089 106.816 37.3323Z" fill="#128093"/>
</g>
<defs>
<clipPath id="clip0">
<rect width="152" height="102" fill="white"/>
</clipPath>
</defs>
</svg>
