<?xml version="1.0" encoding="utf-8"?>
<!-- Generator: Adobe Illustrator 25.2.1, SVG Export Plug-In . SVG Version: 6.00 Build 0)  -->
<svg version="1.1" id="Слой_1" xmlns="http://www.w3.org/2000/svg" xmlns:xlink="http://www.w3.org/1999/xlink" x="0px" y="0px"
	 viewBox="0 0 70 66" style="enable-background:new 0 0 70 66;" xml:space="preserve">
<style type="text/css">
	.st0{fill:#DC1404;}
	.st1{fill:#F72806;}
</style>
<g>
	<path class="st0" d="M35,36.4L35.5,0l-8.9,24.6L35,36.4z"/>
	<path class="st1" d="M35,36.4L35.5,0l8.4,24.6L35,36.4z"/>
	<path class="st0" d="M70,24.6H43.9L35,36.4L70,24.6z"/>
	<path class="st1" d="M49.3,40.9L70,24.6L35,36.4L49.3,40.9z"/>
	<path class="st0" d="M49.3,40.9L35,36.4L56.7,66L49.3,40.9z"/>
	<path class="st1" d="M56.7,66L35,36.4v14.8L56.7,66z"/>
	<path class="st0" d="M35,51.2V36.4L13.8,65L35,51.2z"/>
	<path class="st1" d="M13.8,65L35,36.4l-13.8,3.9L13.8,65z"/>
	<path class="st0" d="M21.2,40.4L35,36.4L0,24.6L21.2,40.4z"/>
	<path class="st1" d="M0,24.6l35,11.8l-8.4-11.8H0z"/>
</g>
</svg>
