<?xml version="1.0" encoding="utf-8"?>
<!-- Generator: Adobe Illustrator 25.2.1, SVG Export Plug-In . SVG Version: 6.00 Build 0)  -->
<svg version="1.1" id="Слой_1" xmlns="http://www.w3.org/2000/svg" xmlns:xlink="http://www.w3.org/1999/xlink" x="0px" y="0px"
	 viewBox="0 0 215 215" style="enable-background:new 0 0 215 215;" xml:space="preserve">
<style type="text/css">
	.st0{fill:#2BA053;}
	.st1{fill:#FFFFFF;}
	.st2{fill-rule:evenodd;clip-rule:evenodd;fill:#FFFFFF;}
</style>
<circle class="st0" cx="107.5" cy="107.5" r="107.5"/>
<path id="WhatsApp_1_" class="st1" d="M54.9,161l7.5-27.6c-4.7-8.1-7.1-17.2-7.1-26.6c0-29.3,23.9-53.2,53.2-53.2
	c14.2,0,27.6,5.5,37.6,15.6c10,10.1,15.6,23.4,15.6,37.6c0,29.3-23.9,53.2-53.2,53.2c0,0,0,0,0,0h0c-8.9,0-17.6-2.2-25.4-6.5
	L54.9,161z M84.4,144l1.6,1c6.8,4,14.6,6.2,22.5,6.2h0c24.4,0,44.2-19.8,44.2-44.2c0-11.8-4.6-22.9-12.9-31.3
	c-8.3-8.4-19.4-13-31.3-13c-24.4,0-44.2,19.8-44.2,44.2c0,8.4,2.3,16.5,6.8,23.5l1.1,1.7l-4.5,16.3L84.4,144z"/>
<path id="WhatsApp" class="st2" d="M135.3,119.5c-0.3-0.6-1.2-0.9-2.5-1.6c-1.3-0.7-7.9-3.9-9.1-4.3c-1.2-0.4-2.1-0.7-3,0.7
	c-0.9,1.3-3.4,4.3-4.2,5.2c-0.8,0.9-1.6,1-2.9,0.3c-1.3-0.7-5.6-2.1-10.7-6.6c-4-3.5-6.6-7.9-7.4-9.2c-0.8-1.3-0.1-2,0.6-2.7
	c0.6-0.6,1.3-1.6,2-2.3c0.7-0.8,0.9-1.3,1.3-2.2c0.4-0.9,0.2-1.7-0.1-2.3c-0.3-0.7-3-7.2-4.1-9.9c-1.1-2.6-2.2-2.2-3-2.3
	c-0.8,0-1.7,0-2.5,0c-0.9,0-2.3,0.3-3.5,1.7c-1.2,1.3-4.7,4.5-4.7,11.1c0,6.5,4.8,12.9,5.4,13.7c0.7,0.9,9.4,14.3,22.7,20.1
	c3.2,1.4,5.6,2.2,7.6,2.8c3.2,1,6.1,0.9,8.4,0.5c2.6-0.4,7.9-3.2,9-6.3C135.7,122.8,135.7,120.1,135.3,119.5z"/>
</svg>
