<svg width="129" height="128" viewBox="0 0 129 128" fill="none" xmlns="http://www.w3.org/2000/svg">
<mask id="path-1-outside-1" maskUnits="userSpaceOnUse" x="9.88623" y="9.40674" width="110" height="110" fill="black">
<rect fill="white" x="9.88623" y="9.40674" width="110" height="110"/>
<path d="M118.594 64.2604C118.594 94.003 94.4824 118.114 64.7399 118.114C34.9973 118.114 10.8862 94.003 10.8862 64.2604C10.8862 34.5178 34.9973 10.4067 64.7399 10.4067C94.4824 10.4067 118.594 34.5178 118.594 64.2604ZM28.0804 64.2604C28.0804 84.5069 44.4934 100.92 64.7399 100.92C84.9863 100.92 101.399 84.5069 101.399 64.2604C101.399 44.0139 84.9863 27.601 64.7399 27.601C44.4934 27.601 28.0804 44.0139 28.0804 64.2604Z"/>
</mask>
<path d="M118.594 64.2604C118.594 94.003 94.4824 118.114 64.7399 118.114C34.9973 118.114 10.8862 94.003 10.8862 64.2604C10.8862 34.5178 34.9973 10.4067 64.7399 10.4067C94.4824 10.4067 118.594 34.5178 118.594 64.2604ZM28.0804 64.2604C28.0804 84.5069 44.4934 100.92 64.7399 100.92C84.9863 100.92 101.399 84.5069 101.399 64.2604C101.399 44.0139 84.9863 27.601 64.7399 27.601C44.4934 27.601 28.0804 44.0139 28.0804 64.2604Z" stroke="#EEEEEE" stroke-width="2" mask="url(#path-1-outside-1)"/>
<path d="M10.8862 64.2604C10.8862 49.9775 16.5601 36.2796 26.6596 26.1801C36.7591 16.0806 50.457 10.4068 64.7398 10.4067L64.7399 28.3003C55.2027 28.3003 46.0561 32.089 39.3123 38.8328C32.5685 45.5766 28.7798 54.7232 28.7798 64.2604H10.8862Z" fill="#EFEFEF"/>
<path d="M10.8862 64.2604C10.8862 49.9775 16.5601 36.2796 26.6596 26.1801C36.7591 16.0806 50.457 10.4068 64.7398 10.4067L64.7399 28.3003C55.2027 28.3003 46.0561 32.089 39.3123 38.8328C32.5685 45.5766 28.7798 54.7232 28.7798 64.2604H10.8862Z" fill="#EFEFEF"/>
<path d="M10.8862 64.2604C10.8862 49.9775 16.5601 36.2796 26.6596 26.1801C36.7591 16.0806 50.457 10.4068 64.7398 10.4067L64.7399 28.3003C55.2027 28.3003 46.0561 32.089 39.3123 38.8328C32.5685 45.5766 28.7798 54.7232 28.7798 64.2604H10.8862Z" fill="#EFEFEF"/>
<line x1="65.5" y1="2.18557e-08" x2="65.5" y2="28" stroke="#EEEEEE"/>
<line x1="65.5" y1="100" x2="65.5" y2="128" stroke="#EEEEEE"/>
<line y1="64.5" x2="28" y2="64.5" stroke="#EEEEEE"/>
<line x1="101" y1="64.5" x2="129" y2="64.5" stroke="#EEEEEE"/>
<g clip-path="url(#clip0)">
<path d="M85.7969 63.6251H81.1094V61.525C81.1094 58.9487 79.3114 56.7802 76.8906 56.1788V41.4062C76.8906 40.6296 76.261 40 75.4844 40H42.2031C41.4265 40 40.7969 40.6296 40.7969 41.4062V79.9375C40.7969 80.7141 41.4265 81.3438 42.2031 81.3438H63.8594V82.4961C63.8594 85.531 66.3323 88 69.3719 88H81.6906C84.7302 88 87.2031 85.531 87.2031 82.4961V65.0313C87.2031 64.2547 86.5735 63.6251 85.7969 63.6251ZM78.2969 61.525V63.6251H72.7656V61.525C72.7656 60.0363 74.0062 58.825 75.5312 58.825C77.0563 58.825 78.2969 60.0362 78.2969 61.525ZM43.6094 78.5312V42.8125H74.0781V56.2034C71.7048 56.8369 69.9531 58.982 69.9531 61.5249V63.625H65.2656C64.489 63.625 63.8594 64.2546 63.8594 65.0312V78.5312H43.6094ZM84.3906 82.4961C84.3906 83.9802 83.1794 85.1875 81.6906 85.1875H69.3719C67.8831 85.1875 66.6719 83.9802 66.6719 82.4961V66.4376H69.9531V70.1406C69.9531 70.9172 70.5828 71.5469 71.3594 71.5469C72.136 71.5469 72.7656 70.9172 72.7656 70.1406V66.4376H78.2969V70.1406C78.2969 70.9172 78.9265 71.5469 79.7031 71.5469C80.4798 71.5469 81.1094 70.9172 81.1094 70.1406V66.4376H84.3906V82.4961Z" fill="#1F613B"/>
<path d="M50.6296 46.073L49.0313 47.7898L48.9243 47.6568C48.4378 47.0515 47.5526 46.955 46.9472 47.4417C46.3419 47.9281 46.2455 48.8133 46.732 49.4187L47.857 50.8184C48.1128 51.1366 48.4941 51.3281 48.902 51.3429C48.9192 51.3434 48.9362 51.3438 48.9532 51.3438C49.3427 51.3438 49.7159 51.182 49.9824 50.8958L52.6879 47.9895C53.2172 47.4211 53.1854 46.5312 52.6169 46.002C52.0487 45.4728 51.1588 45.5046 50.6296 46.073Z" fill="#1F613B"/>
<path d="M57.2969 49.8906H69.8593C70.6359 49.8906 71.2655 49.261 71.2655 48.4844C71.2655 47.7077 70.6359 47.0781 69.8593 47.0781H57.2969C56.5202 47.0781 55.8906 47.7077 55.8906 48.4844C55.8906 49.261 56.5202 49.8906 57.2969 49.8906Z" fill="#1F613B"/>
<path d="M50.6296 54.6042L49.0313 56.3211L48.9243 56.1881C48.4378 55.5827 47.5526 55.4863 46.9472 55.9729C46.3419 56.4595 46.2455 57.3446 46.732 57.9499L47.857 59.3497C48.1128 59.6679 48.4941 59.8593 48.902 59.8741C48.9192 59.8747 48.9362 59.8751 48.9532 59.8751C49.3427 59.8751 49.7159 59.7133 49.9824 59.427L52.6879 56.5208C53.2172 55.9524 53.1854 55.0625 52.6169 54.5333C52.0487 54.0041 51.1588 54.0358 50.6296 54.6042Z" fill="#1F613B"/>
<path d="M57.2969 58.4219H65.1717C65.9483 58.4219 66.5779 57.7923 66.5779 57.0156C66.5779 56.239 65.9483 55.6094 65.1717 55.6094H57.2969C56.5202 55.6094 55.8906 56.239 55.8906 57.0156C55.8906 57.7923 56.5202 58.4219 57.2969 58.4219Z" fill="#1F613B"/>
<path d="M50.6296 63.1355L49.0313 64.8523L48.9243 64.7193C48.4378 64.1139 47.5526 64.0176 46.9472 64.5042C46.3419 64.9906 46.2455 65.8758 46.732 66.4812L47.857 67.8809C48.1128 68.1991 48.4941 68.3906 48.902 68.4054C48.9192 68.4059 48.9362 68.4063 48.9532 68.4063C49.3427 68.4063 49.7159 68.2445 49.9824 67.9583L52.6879 65.052C53.2172 64.4836 53.1854 63.5937 52.6169 63.0645C52.0487 62.5353 51.1588 62.5671 50.6296 63.1355Z" fill="#1F613B"/>
<path d="M59.6403 64.1406H57.2969C56.5202 64.1406 55.8906 64.7702 55.8906 65.5469C55.8906 66.3235 56.5202 66.9531 57.2969 66.9531H59.6403C60.417 66.9531 61.0466 66.3235 61.0466 65.5469C61.0466 64.7702 60.417 64.1406 59.6403 64.1406Z" fill="#1F613B"/>
</g>
<defs>
<clipPath id="clip0">
<rect width="48" height="48" fill="white" transform="translate(40 40)"/>
</clipPath>
</defs>
</svg>
