<?xml version="1.0" encoding="utf-8"?>
<!-- Generator: Adobe Illustrator 24.0.3, SVG Export Plug-In . SVG Version: 6.00 Build 0)  -->
<svg version="1.1" id="Слой_1" xmlns="http://www.w3.org/2000/svg" xmlns:xlink="http://www.w3.org/1999/xlink" x="0px" y="0px"
	 viewBox="0 0 33.4 28" style="enable-background:new 0 0 33.4 28;" xml:space="preserve">
<path ill='none' d="M24,0c-1.2,0.1-2.4,0.4-3.5,0.9c-1,0.5-1.8,1.1-2.9,2.1c-1.2,1.1-4.1,4.1-4.2,4.3c-0.2,0.4-0.2,0.8,0,1.1
			c0.4,0.4,0.9,0.3,1.5-0.2c0.1-0.1,1-1,1.9-1.9c2.1-2.1,3.1-3.1,3.5-3.4c1.2-0.8,2.6-1.3,4-1.3c2.9-0.1,5.8,1.9,7,4.8
			c0.4,0.9,0.5,2,0.4,3c-0.2,1.4-0.9,2.9-2.1,4.4c-1.4,1.7-5.5,5.8-10.8,10.9c-1.1,1-1.2,1.2-1.6,1.3c-0.4,0.2-0.8,0.2-1.4-0.1
			c-0.6-0.2-0.3,0-6.4-6.3c-5.9-6.2-6-6.3-6.7-7.3c-0.8-1.2-1.1-2.2-1-3.7c0-0.6,0.1-1,0.2-1.6c0.5-1.9,1.8-3.6,3.5-4.5
			c2.2-1.1,4.9-1,6.9,0.2c0.5,0.3,0.7,0.4,1,0.5c0.4,0.1,0.7,0,0.9-0.4c0.4-0.7,0.1-1.1-1.4-1.9C12,0.7,11.1,0.4,10,0.2
			c-0.5-0.1-1.9-0.1-2.4,0c-2,0.3-3.8,1.2-5.1,2.5C0.9,4.4,0,6.6,0,9c0,1.7,0.5,3.1,1.6,4.6c0.9,1.1,1.1,1.4,6.2,6.6
			c7.4,7.5,6.9,7.1,7.6,7.5c0.4,0.3,0.8,0.4,1.2,0.4c0.5,0,0.9-0.1,1.4-0.5c0.4-0.3,2.4-2.1,3.5-3.1c2.4-2.2,8.4-8.3,9.4-9.5
			c0.4-0.5,1.1-1.5,1.5-2.4c0.9-1.7,1.1-2.9,1-4.3c-0.1-1.5-0.6-2.9-1.4-4.1c-0.4-0.6-0.7-1-1.2-1.5c-1.4-1.4-3.2-2.3-5.1-2.5
			C25.2,0,24.3,0,24,0L24,0z"/>
	</g>
	<path fill='none' d="M30.5,3.2l-5.2-2.3l-4.4,0.8c-1.2,0.9-3.1,2.6-4.6,4.1c-1.1-4.1-4-4.9-4-4.9v1.6c-0.4-0.4-0.8-0.7-1.2-1.1
		L6.3,1.5L3.7,3C0.2,6,0.8,9.6,2.4,13.4L15.9,27l2.2-0.5c2.8-2.8,13.1-12.4,14.3-16.1V6.2L30.5,3.2z"/>
</svg>
