<svg width="30" height="30" viewBox="0 0 30 30" fill="none" xmlns="http://www.w3.org/2000/svg">
<mask id="mask0" mask-type="alpha" maskUnits="userSpaceOnUse" x="0" y="0" width="30" height="30">
<path d="M30 6.44531C30 5.63584 29.4498 4.95275 28.7038 4.74943C28.7838 4.54881 28.8281 4.33037 28.8281 4.10156C28.8281 3.29209 28.2779 2.609 27.532 2.40568C27.6119 2.20506 27.6562 1.98662 27.6562 1.75781C27.6562 0.788555 26.8677 0 25.8984 0H19.582C18.2698 0 16.9441 0.312773 15.7457 0.905625L15.2132 1.17188H8.78906C8.56031 1.17188 8.34182 1.21629 8.14119 1.29615C7.93787 0.550195 7.25479 0 6.44531 0C5.63584 0 4.95275 0.550195 4.74943 1.29615C4.54881 1.21629 4.33031 1.17188 4.10156 1.17188C3.29209 1.17188 2.609 1.72207 2.40568 2.46803C2.20506 2.38816 1.98656 2.34375 1.75781 2.34375C0.788555 2.34375 0 3.1323 0 4.10156V10.418C0 12.8878 1.06266 14.5018 1.17188 14.7868V21.2109C1.17188 21.4397 1.21629 21.6582 1.29615 21.8588C0.550195 22.0621 0 22.7452 0 23.5547C0 24.3642 0.550195 25.0472 1.29615 25.2506C1.21629 25.4512 1.17188 25.6697 1.17188 25.8984C1.17188 26.7079 1.72207 27.391 2.46803 27.5943C2.38816 27.7949 2.34375 28.0134 2.34375 28.2422C2.34375 29.2114 3.1323 30 4.10156 30H5.51361C5.83723 30 6.09955 29.7377 6.09955 29.4141C6.09955 29.0904 5.83723 28.8281 5.51361 28.8281H4.10156C3.77848 28.8281 3.51562 28.5653 3.51562 28.2422C3.51562 27.9191 3.77848 27.6562 4.10156 27.6562H5.27344C5.59705 27.6562 5.85938 27.3939 5.85938 27.0703C5.85938 26.7467 5.59705 26.4844 5.27344 26.4844C4.45371 26.4844 3.74941 26.4844 2.92969 26.4844C2.6066 26.4844 2.34375 26.2215 2.34375 25.8984C2.34375 25.5754 2.6066 25.3125 2.92969 25.3125H5.27344C5.59705 25.3125 5.85938 25.0502 5.85938 24.7266C5.85938 24.4029 5.59705 24.1406 5.27344 24.1406C4.74023 24.1406 2.68195 24.1406 1.75781 24.1406C1.43473 24.1406 1.17188 23.8778 1.17188 23.5547C1.17188 23.2316 1.43473 22.9688 1.75781 22.9688H5.27344C5.59705 22.9688 5.85938 22.7064 5.85938 22.3828C5.85938 22.0592 5.59705 21.7969 5.27344 21.7969H2.92969C2.6066 21.7969 2.34375 21.534 2.34375 21.2109C2.34375 20.8879 2.6066 20.625 2.92969 20.625H8.78906C9.11268 20.625 9.375 20.3627 9.375 20.0391V19.4531H10.8516C12.2524 19.4531 13.5062 20.2264 14.1235 21.4713C14.2225 21.6707 14.4258 21.7969 14.6484 21.7969H19.4531V27.0703C19.4531 27.2757 19.4889 27.4729 19.5539 27.6562H15.8203C15.7293 27.6562 15.6396 27.6774 15.5583 27.7181L14.9042 28.0451C13.8688 28.5574 12.7228 28.8281 11.5898 28.8281H10.7755C10.4519 28.8281 10.1896 29.0904 10.1896 29.4141C10.1896 29.7377 10.4519 30 10.7755 30H11.5898C12.9021 30 14.2278 29.6872 15.4261 29.0944L15.9587 28.8281H21.2109C21.4397 28.8281 21.6582 28.7837 21.8588 28.7038C22.0622 29.4498 22.7452 30 23.5547 30C24.3642 30 25.0472 29.4498 25.2506 28.7038C25.4513 28.7837 25.6697 28.8281 25.8984 28.8281C26.7079 28.8281 27.391 28.2779 27.5943 27.532C27.795 27.6118 28.0134 27.6562 28.2422 27.6562C29.2114 27.6562 30 26.8677 30 25.8984V18.8672C30 18.7781 29.9796 18.6941 29.944 18.6185C29.8299 17.6287 29.5422 16.6509 29.0944 15.7458L28.8281 15.2133V8.78906C28.8281 8.56031 28.7837 8.34182 28.7038 8.14119C29.4499 7.93787 30 7.25484 30 6.44531ZM8.20312 19.4531H2.92969C2.72426 19.4531 2.52715 19.4889 2.34375 19.5539V14.6484C2.34375 14.5575 2.3226 14.4678 2.28188 14.3864C2.14869 14.0462 1.17188 12.6099 1.17188 10.418V4.10156C1.17188 3.77848 1.43473 3.51562 1.75781 3.51562C2.0809 3.51562 2.34375 3.77848 2.34375 4.10156V5.27344C2.34375 5.59705 2.60607 5.85938 2.92969 5.85938C3.2533 5.85938 3.51562 5.59705 3.51562 5.27344V2.92969C3.51562 2.6066 3.77848 2.34375 4.10156 2.34375C4.42465 2.34375 4.6875 2.6066 4.6875 2.92969V5.27344C4.6875 5.59705 4.94982 5.85938 5.27344 5.85938C5.59705 5.85938 5.85938 5.59705 5.85938 5.27344C5.85938 4.74023 5.85938 2.68195 5.85938 1.75781C5.85938 1.43473 6.12223 1.17188 6.44531 1.17188C6.7684 1.17188 7.03125 1.43473 7.03125 1.75781V5.27344C7.03125 5.59705 7.29357 5.85938 7.61719 5.85938C7.9408 5.85938 8.20312 5.59705 8.20312 5.27344V2.92969C8.20312 2.6066 8.46598 2.34375 8.78906 2.34375C9.11215 2.34375 9.375 2.6066 9.375 2.92969V8.78906C9.375 9.11268 9.63732 9.375 9.96094 9.375H10.5469V10.8516C10.5469 12.2312 9.75469 13.5155 8.52873 14.1235C8.32928 14.2225 8.20312 14.4258 8.20312 14.6484V19.4531ZM10.8516 18.2812H9.375V14.9963C10.8296 14.1318 11.7188 12.5756 11.7188 10.8516V9.375H15.0038C15.8682 10.8296 17.4244 11.7188 19.1484 11.7188H20.625V15.0037C19.1704 15.8682 18.2812 17.4244 18.2812 19.1484V20.625H14.9963C14.1318 19.1704 12.5756 18.2812 10.8516 18.2812ZM28.8281 25.8984C28.8281 26.2215 28.5653 26.4844 28.2422 26.4844C27.9191 26.4844 27.6562 26.2215 27.6562 25.8984V24.7266C27.6562 24.4029 27.3939 24.1406 27.0703 24.1406C26.7468 24.1406 26.4844 24.4029 26.4844 24.7266V27.0703C26.4844 27.3934 26.2215 27.6562 25.8984 27.6562C25.5754 27.6562 25.3125 27.3934 25.3125 27.0703V24.7266C25.3125 24.4029 25.0501 24.1406 24.7266 24.1406C24.403 24.1406 24.1406 24.4029 24.1406 24.7266V28.2422C24.1406 28.5653 23.8778 28.8281 23.5547 28.8281C23.2316 28.8281 22.9688 28.5653 22.9688 28.2422V24.7266C22.9688 24.4029 22.7064 24.1406 22.3828 24.1406C22.0593 24.1406 21.7969 24.4029 21.7969 24.7266V27.0703C21.7969 27.3934 21.534 27.6562 21.2109 27.6562C20.8879 27.6562 20.625 27.3934 20.625 27.0703V21.2109C20.625 20.8873 20.3626 20.625 20.0391 20.625H19.4531V19.1484C19.4531 17.7476 20.2264 16.4938 21.4713 15.8765C21.6707 15.7776 21.7969 15.5742 21.7969 15.3516V10.5469H27.0703C27.2757 10.5469 27.4729 10.5111 27.6562 10.4461V15.3516C27.6562 15.4425 27.6774 15.5322 27.7181 15.6136L28.0451 16.2677C28.5574 17.303 28.8281 18.4491 28.8281 19.582V25.8984ZM28.2422 7.03125H24.7266C24.403 7.03125 24.1406 7.29357 24.1406 7.61719C24.1406 7.9408 24.403 8.20312 24.7266 8.20312H27.0703C27.3934 8.20312 27.6562 8.46598 27.6562 8.78906C27.6562 9.11215 27.3934 9.375 27.0703 9.375H21.2109C20.8874 9.375 20.625 9.63732 20.625 9.96094V10.5469H19.1484C17.7688 10.5469 16.4845 9.75469 15.8765 8.52873C15.7776 8.32934 15.5742 8.20312 15.3516 8.20312H10.5469V2.92969C10.5469 2.72426 10.5111 2.52715 10.4461 2.34375H15.3516C15.4426 2.34375 15.5323 2.3226 15.6137 2.28188C15.9534 2.14893 17.39 1.17188 19.582 1.17188H25.8984C26.2215 1.17188 26.4844 1.43473 26.4844 1.75781C26.4844 2.0809 26.2215 2.34375 25.8984 2.34375H24.7266C24.403 2.34375 24.1406 2.60607 24.1406 2.92969C24.1406 3.2533 24.403 3.51562 24.7266 3.51562H27.0703C27.3934 3.51562 27.6562 3.77848 27.6562 4.10156C27.6562 4.42465 27.3934 4.6875 27.0703 4.6875H24.7266C24.403 4.6875 24.1406 4.94982 24.1406 5.27344C24.1406 5.59705 24.403 5.85938 24.7266 5.85938H28.2422C28.5653 5.85938 28.8281 6.12223 28.8281 6.44531C28.8281 6.7684 28.5653 7.03125 28.2422 7.03125Z" fill="black"/>
<path d="M8.20312 29.8242C8.52673 29.8242 8.78906 29.5619 8.78906 29.2383C8.78906 28.9147 8.52673 28.6523 8.20312 28.6523C7.87952 28.6523 7.61719 28.9147 7.61719 29.2383C7.61719 29.5619 7.87952 29.8242 8.20312 29.8242Z" fill="black"/>
</mask>
<g mask="url(#mask0)">
<path d="M17.8919 28.3888C17.8919 30.1387 19.7073 30.9408 20.6149 31.123C18.0008 37.2478 25.3347 34.7687 29.3285 32.7636C31.6884 23.2848 35.319 2.4678 30.9622 -4.96944C26.6055 -12.4067 13.8982 -4.42258 8.08919 0.499119V8.1551L9.17838 9.79567C10.4854 12.4206 8.27072 14.8997 7 15.8111V19.6391C9.61406 18.7641 12.0829 20.7328 12.9906 21.8265H17.8919V23.4671V28.3888Z" fill="#0074EB"/>
<path d="M10.5 3.49998C10.5 1.89998 8.83337 1.16664 8.00004 0.999977C10.4 -4.60002 3.66671 -2.33336 3.71933e-05 -0.500023C-2.16663 8.16664 -5.49996 27.2 -1.49996 34C2.50004 40.8 15.1667 33.5 20.5 29C18.5 28 19.5 21.5 19.5 21.5L18.5 20.5C16.5 19.5 19.3334 15.8333 20.5 15V11.5C17 13 15.8334 10.5 15 9.49998C13.0307 9.32211 12.0592 9.33377 10.5 9.49998V7.99998V3.49998Z" fill="#F9E63A"/>
</g>
</svg>
