<?xml version="1.0" encoding="utf-8"?>
<!-- Generator: Adobe Illustrator 24.0.3, SVG Export Plug-In . SVG Version: 6.00 Build 0)  -->
<svg version="1.1" id="Слой_1" xmlns="http://www.w3.org/2000/svg" xmlns:xlink="http://www.w3.org/1999/xlink" x="0px" y="0px"
	 viewBox="0 0 30 28.2" style="enable-background:new 0 0 30 28.2;" xml:space="preserve">
<style type="text/css">
	.st0{fill:#F9474E;}
	.st1{fill:#FFFFFF;filter:url(#Adobe_OpacityMaskFilter);}
	.st2{mask:url(#path-4-outside-1_1_);fill:none;stroke:#F9474E;stroke-width:0.3;}
	.st3{fill:#F9474E;stroke:#F9474E;stroke-width:0.15;}
</style>
<path class="st0" d="M4.2,23.1L7,24.5v3.2c0,0.3,0.3,0.6,0.6,0.6h6.2c0.3,0,0.6-0.3,0.6-0.6v-7.5c0-1.9-1.4-3.5-3.1-3.7
	c0,0-2.3-0.2-3.3-1.2l-1.6-1.6c-0.4-0.4-1-0.7-1.7-0.7V8.3c0-1.3-1.1-2.3-2.3-2.3S0,7,0,8.3v8C0,19.1,1.6,21.8,4.2,23.1z M1.2,8.3
	c0-0.6,0.5-1.2,1.2-1.2s1.2,0.5,1.2,1.2v5c-0.7,0.4-1.2,1.2-1.2,2c0,0.6,0.2,1.2,0.7,1.7l3,3c0.2,0.2,0.6,0.2,0.8,0
	c0.2-0.2,0.2-0.6,0-0.8l-3-3c-0.2-0.2-0.3-0.5-0.3-0.8c0-0.5,0.3-0.9,0.8-1.1c0,0,0,0,0,0c0,0,0,0,0,0c0.4-0.1,0.9-0.1,1.2,0.3
	l1.6,1.6c1.1,1.1,2.7,1.4,4,1.6c0,0,0,0,0,0c1.2,0.1,2.1,1.2,2.1,2.5V27h-5v-2.9c0-0.2-0.1-0.4-0.3-0.5L4.7,22
	c-2.2-1.1-3.6-3.3-3.6-5.8V8.3z"/>
<path class="st0" d="M26.9,22.2c0.3,0,0.6-0.3,0.6-0.6s-0.3-0.6-0.6-0.6c-0.3,0-0.6,0.3-0.6,0.6S26.6,22.2,26.9,22.2z"/>
<path class="st0" d="M27.7,5.9c-1.3,0-2.3,1.1-2.3,2.3V13c-0.6,0-1.2,0.2-1.7,0.7l-1.6,1.6c-1,1-3.1,1.2-3.3,1.2
	c-1.8,0.2-3.1,1.8-3.1,3.7v7.5c0,0.3,0.3,0.6,0.6,0.6h6.2c0.3,0,0.6-0.3,0.6-0.6v-3.2l1.9-1c0.3-0.1,0.4-0.5,0.3-0.8
	c-0.1-0.3-0.5-0.4-0.8-0.3l-2.2,1.1c-0.2,0.1-0.3,0.3-0.3,0.5V27h-5v-6.9c0-1.3,0.9-2.4,2.1-2.5c0,0,0,0,0,0c1.4-0.2,2.9-0.5,4-1.6
	l1.6-1.6c0.3-0.3,0.8-0.4,1.2-0.3c0,0,0,0,0,0c0,0,0,0,0,0c0.5,0.2,0.8,0.6,0.8,1.1c0,0.3-0.1,0.6-0.3,0.8l-3,3
	c-0.2,0.2-0.2,0.6,0,0.8c0.2,0.2,0.6,0.2,0.8,0l3-3c0.4-0.4,0.7-1,0.7-1.7c0-0.8-0.5-1.6-1.2-2v-5c0-0.6,0.5-1.2,1.2-1.2
	c0.6,0,1.2,0.5,1.2,1.2v8c0,1.1-0.3,2.1-0.8,3.1c-0.2,0.3,0,0.6,0.2,0.8c0.3,0.2,0.6,0,0.8-0.2c0.6-1.1,0.9-2.4,0.9-3.6v-8
	C30,7,28.9,5.9,27.7,5.9z"/>
<path class="st0" d="M10.5,14.6l1.5-0.7l1,0.4l0.6,1.5c0,0.1,0.1,0.2,0.2,0.2c0.1,0.1,0.2,0.1,0.3,0.1H16c0.1,0,0.2,0,0.3-0.1
	c0.1-0.1,0.1-0.1,0.2-0.2l0.6-1.5l1-0.4l1.5,0.7c0.1,0,0.2,0.1,0.3,0c0.1,0,0.2-0.1,0.2-0.1l1.4-1.4c0.1-0.1,0.1-0.1,0.1-0.2
	c0-0.1,0-0.2,0-0.3l-0.7-1.5l0.4-1l1.5-0.6c0.1,0,0.2-0.1,0.2-0.2C23,9.3,23,9.2,23,9.1V7.2c0-0.1,0-0.2-0.1-0.3
	c-0.1-0.1-0.1-0.1-0.2-0.2l-1.5-0.6l-0.4-1l0.7-1.5c0-0.1,0.1-0.2,0-0.3c0-0.1-0.1-0.2-0.1-0.2L20,1.8c-0.1-0.1-0.1-0.1-0.2-0.1
	c-0.1,0-0.2,0-0.3,0L18,2.4l-1-0.4l-0.6-1.5c0-0.1-0.1-0.2-0.2-0.2c-0.1-0.1-0.2-0.1-0.3-0.1H14c-0.1,0-0.2,0-0.3,0.1
	c-0.1,0.1-0.1,0.1-0.2,0.2L13.1,2l-1,0.4l-1.5-0.7c-0.1,0-0.2-0.1-0.3,0S10.1,1.7,10,1.8L8.7,3.2C8.6,3.2,8.6,3.3,8.5,3.4
	c0,0.1,0,0.2,0,0.3l0.7,1.5l-0.4,1L7.3,6.8c-0.1,0-0.2,0.1-0.2,0.2C7,7,7,7.1,7,7.2v1.9c0,0.1,0,0.2,0.1,0.3
	c0.1,0.1,0.1,0.1,0.2,0.2l1.5,0.6l0.4,1l-0.7,1.5c0,0.1-0.1,0.2,0,0.3s0.1,0.2,0.1,0.2l1.4,1.4c0.1,0.1,0.1,0.1,0.2,0.1
	S10.5,14.6,10.5,14.6z M10.2,11L9.6,9.6c0-0.1-0.1-0.1-0.1-0.2c0,0-0.1-0.1-0.2-0.1L7.9,8.8V7.5L9.3,7c0.1,0,0.1-0.1,0.2-0.1
	c0,0,0.1-0.1,0.1-0.2l0.6-1.4c0-0.1,0-0.1,0-0.2c0-0.1,0-0.1,0-0.2L9.5,3.6l0.9-0.9l1.4,0.7c0.1,0,0.1,0,0.2,0c0.1,0,0.1,0,0.2,0
	l1.4-0.6c0.1,0,0.1-0.1,0.2-0.1s0.1-0.1,0.1-0.2L14.3,1h1.3l0.5,1.4c0,0.1,0.1,0.1,0.1,0.2c0,0,0.1,0.1,0.2,0.1l1.4,0.6
	c0.1,0,0.1,0,0.2,0c0.1,0,0.1,0,0.2,0l1.4-0.7l0.9,0.9L19.8,5c0,0.1,0,0.1,0,0.2c0,0.1,0,0.1,0,0.2l0.6,1.4c0,0.1,0.1,0.1,0.1,0.2
	c0,0,0.1,0.1,0.2,0.1l1.4,0.5v1.3l-1.4,0.5c-0.1,0-0.1,0.1-0.2,0.1c0,0-0.1,0.1-0.1,0.2L19.8,11c0,0.1,0,0.1,0,0.2
	c0,0.1,0,0.1,0,0.2l0.7,1.4l-0.9,0.9L18.2,13c-0.1,0-0.1,0-0.2,0c-0.1,0-0.1,0-0.2,0l-1.4,0.6c-0.1,0-0.1,0.1-0.2,0.1
	c0,0-0.1,0.1-0.1,0.2l-0.5,1.4h-1.3l-0.5-1.4c0-0.1-0.1-0.1-0.1-0.2c0,0-0.1-0.1-0.2-0.1L12.2,13c-0.1,0-0.1,0-0.2,0
	c-0.1,0-0.1,0-0.2,0l-1.4,0.7l-0.9-0.9l0.7-1.4c0-0.1,0-0.1,0-0.2C10.2,11.1,10.2,11,10.2,11z"/>
<defs>
	<filter id="Adobe_OpacityMaskFilter" filterUnits="userSpaceOnUse" x="6.8" y="0" width="16.3" height="16.3">
		<feColorMatrix  type="matrix" values="1 0 0 0 0  0 1 0 0 0  0 0 1 0 0  0 0 0 1 0"/>
	</filter>
</defs>
<mask maskUnits="userSpaceOnUse" x="6.8" y="0" width="16.3" height="16.3" id="path-4-outside-1_1_">
	<rect x="6" y="-0.9" class="st1" width="18" height="18"/>
	<path d="M10.5,14.6l1.5-0.7l1,0.4l0.6,1.5c0,0.1,0.1,0.2,0.2,0.2c0.1,0.1,0.2,0.1,0.3,0.1H16c0.1,0,0.2,0,0.3-0.1
		c0.1-0.1,0.1-0.1,0.2-0.2l0.6-1.5l1-0.4l1.5,0.7c0.1,0,0.2,0.1,0.3,0c0.1,0,0.2-0.1,0.2-0.1l1.4-1.4c0.1-0.1,0.1-0.1,0.1-0.2
		c0-0.1,0-0.2,0-0.3l-0.7-1.5l0.4-1l1.5-0.6c0.1,0,0.2-0.1,0.2-0.2C23,9.3,23,9.2,23,9.1V7.2c0-0.1,0-0.2-0.1-0.3
		c-0.1-0.1-0.1-0.1-0.2-0.2l-1.5-0.6l-0.4-1l0.7-1.5c0-0.1,0.1-0.2,0-0.3c0-0.1-0.1-0.2-0.1-0.2L20,1.8c-0.1-0.1-0.1-0.1-0.2-0.1
		c-0.1,0-0.2,0-0.3,0L18,2.4l-1-0.4l-0.6-1.5c0-0.1-0.1-0.2-0.2-0.2c-0.1-0.1-0.2-0.1-0.3-0.1H14c-0.1,0-0.2,0-0.3,0.1
		c-0.1,0.1-0.1,0.1-0.2,0.2L13.1,2l-1,0.4l-1.5-0.7c-0.1,0-0.2-0.1-0.3,0S10.1,1.7,10,1.8L8.7,3.2C8.6,3.2,8.6,3.3,8.5,3.4
		c0,0.1,0,0.2,0,0.3l0.7,1.5l-0.4,1L7.3,6.8c-0.1,0-0.2,0.1-0.2,0.2C7,7,7,7.1,7,7.2v1.9c0,0.1,0,0.2,0.1,0.3
		c0.1,0.1,0.1,0.1,0.2,0.2l1.5,0.6l0.4,1l-0.7,1.5c0,0.1-0.1,0.2,0,0.3s0.1,0.2,0.1,0.2l1.4,1.4c0.1,0.1,0.1,0.1,0.2,0.1
		S10.5,14.6,10.5,14.6z M10.2,11L9.6,9.6c0-0.1-0.1-0.1-0.1-0.2c0,0-0.1-0.1-0.2-0.1L7.9,8.8V7.5L9.3,7c0.1,0,0.1-0.1,0.2-0.1
		c0,0,0.1-0.1,0.1-0.2l0.6-1.4c0-0.1,0-0.1,0-0.2c0-0.1,0-0.1,0-0.2L9.5,3.6l0.9-0.9l1.4,0.7c0.1,0,0.1,0,0.2,0c0.1,0,0.1,0,0.2,0
		l1.4-0.6c0.1,0,0.1-0.1,0.2-0.1s0.1-0.1,0.1-0.2L14.3,1h1.3l0.5,1.4c0,0.1,0.1,0.1,0.1,0.2c0,0,0.1,0.1,0.2,0.1l1.4,0.6
		c0.1,0,0.1,0,0.2,0c0.1,0,0.1,0,0.2,0l1.4-0.7l0.9,0.9L19.8,5c0,0.1,0,0.1,0,0.2c0,0.1,0,0.1,0,0.2l0.6,1.4c0,0.1,0.1,0.1,0.1,0.2
		c0,0,0.1,0.1,0.2,0.1l1.4,0.5v1.3l-1.4,0.5c-0.1,0-0.1,0.1-0.2,0.1c0,0-0.1,0.1-0.1,0.2L19.8,11c0,0.1,0,0.1,0,0.2
		c0,0.1,0,0.1,0,0.2l0.7,1.4l-0.9,0.9L18.2,13c-0.1,0-0.1,0-0.2,0c-0.1,0-0.1,0-0.2,0l-1.4,0.6c-0.1,0-0.1,0.1-0.2,0.1
		c0,0-0.1,0.1-0.1,0.2l-0.5,1.4h-1.3l-0.5-1.4c0-0.1-0.1-0.1-0.1-0.2c0,0-0.1-0.1-0.2-0.1L12.2,13c-0.1,0-0.1,0-0.2,0
		c-0.1,0-0.1,0-0.2,0l-1.4,0.7l-0.9-0.9l0.7-1.4c0-0.1,0-0.1,0-0.2C10.2,11.1,10.2,11,10.2,11z"/>
</mask>
<path class="st2" d="M10.5,14.6l1.5-0.7l1,0.4l0.6,1.5c0,0.1,0.1,0.2,0.2,0.2c0.1,0.1,0.2,0.1,0.3,0.1H16c0.1,0,0.2,0,0.3-0.1
	c0.1-0.1,0.1-0.1,0.2-0.2l0.6-1.5l1-0.4l1.5,0.7c0.1,0,0.2,0.1,0.3,0c0.1,0,0.2-0.1,0.2-0.1l1.4-1.4c0.1-0.1,0.1-0.1,0.1-0.2
	c0-0.1,0-0.2,0-0.3l-0.7-1.5l0.4-1l1.5-0.6c0.1,0,0.2-0.1,0.2-0.2C23,9.3,23,9.2,23,9.1V7.2c0-0.1,0-0.2-0.1-0.3
	c-0.1-0.1-0.1-0.1-0.2-0.2l-1.5-0.6l-0.4-1l0.7-1.5c0-0.1,0.1-0.2,0-0.3c0-0.1-0.1-0.2-0.1-0.2L20,1.8c-0.1-0.1-0.1-0.1-0.2-0.1
	c-0.1,0-0.2,0-0.3,0L18,2.4l-1-0.4l-0.6-1.5c0-0.1-0.1-0.2-0.2-0.2c-0.1-0.1-0.2-0.1-0.3-0.1H14c-0.1,0-0.2,0-0.3,0.1
	c-0.1,0.1-0.1,0.1-0.2,0.2L13.1,2l-1,0.4l-1.5-0.7c-0.1,0-0.2-0.1-0.3,0S10.1,1.7,10,1.8L8.7,3.2C8.6,3.2,8.6,3.3,8.5,3.4
	c0,0.1,0,0.2,0,0.3l0.7,1.5l-0.4,1L7.3,6.8c-0.1,0-0.2,0.1-0.2,0.2C7,7,7,7.1,7,7.2v1.9c0,0.1,0,0.2,0.1,0.3
	c0.1,0.1,0.1,0.1,0.2,0.2l1.5,0.6l0.4,1l-0.7,1.5c0,0.1-0.1,0.2,0,0.3s0.1,0.2,0.1,0.2l1.4,1.4c0.1,0.1,0.1,0.1,0.2,0.1
	S10.5,14.6,10.5,14.6z M10.2,11L9.6,9.6c0-0.1-0.1-0.1-0.1-0.2c0,0-0.1-0.1-0.2-0.1L7.9,8.8V7.5L9.3,7c0.1,0,0.1-0.1,0.2-0.1
	c0,0,0.1-0.1,0.1-0.2l0.6-1.4c0-0.1,0-0.1,0-0.2c0-0.1,0-0.1,0-0.2L9.5,3.6l0.9-0.9l1.4,0.7c0.1,0,0.1,0,0.2,0c0.1,0,0.1,0,0.2,0
	l1.4-0.6c0.1,0,0.1-0.1,0.2-0.1s0.1-0.1,0.1-0.2L14.3,1h1.3l0.5,1.4c0,0.1,0.1,0.1,0.1,0.2c0,0,0.1,0.1,0.2,0.1l1.4,0.6
	c0.1,0,0.1,0,0.2,0c0.1,0,0.1,0,0.2,0l1.4-0.7l0.9,0.9L19.8,5c0,0.1,0,0.1,0,0.2c0,0.1,0,0.1,0,0.2l0.6,1.4c0,0.1,0.1,0.1,0.1,0.2
	c0,0,0.1,0.1,0.2,0.1l1.4,0.5v1.3l-1.4,0.5c-0.1,0-0.1,0.1-0.2,0.1c0,0-0.1,0.1-0.1,0.2L19.8,11c0,0.1,0,0.1,0,0.2
	c0,0.1,0,0.1,0,0.2l0.7,1.4l-0.9,0.9L18.2,13c-0.1,0-0.1,0-0.2,0c-0.1,0-0.1,0-0.2,0l-1.4,0.6c-0.1,0-0.1,0.1-0.2,0.1
	c0,0-0.1,0.1-0.1,0.2l-0.5,1.4h-1.3l-0.5-1.4c0-0.1-0.1-0.1-0.1-0.2c0,0-0.1-0.1-0.2-0.1L12.2,13c-0.1,0-0.1,0-0.2,0
	c-0.1,0-0.1,0-0.2,0l-1.4,0.7l-0.9-0.9l0.7-1.4c0-0.1,0-0.1,0-0.2C10.2,11.1,10.2,11,10.2,11z"/>
<path class="st3" d="M15,12.2L15,12.2c0.8,0,1.6-0.2,2.3-0.7c0.7-0.4,1.2-1.1,1.5-1.8C19.1,9,19.2,8.1,19,7.4
	c-0.2-0.8-0.5-1.5-1.1-2.1s-1.3-1-2.1-1.1C15,4,14.2,4.1,13.4,4.4c-0.7,0.3-1.4,0.8-1.8,1.5c-0.4,0.7-0.7,1.5-0.7,2.3v0
	c0,1.1,0.4,2.1,1.2,2.9C12.9,11.8,13.9,12.2,15,12.2z M15,5.1c0.6,0,1.2,0.2,1.7,0.5C17.2,6,17.6,6.4,17.8,7C18,7.5,18.1,8.2,18,8.7
	c-0.1,0.6-0.4,1.1-0.8,1.6c-0.4,0.4-1,0.7-1.6,0.8c-0.6,0.1-1.2,0.1-1.8-0.2c-0.6-0.2-1-0.6-1.4-1.1S12,8.8,12,8.1h-0.1l0.1,0
	c0-0.8,0.3-1.6,0.9-2.1C13.4,5.4,14.2,5.1,15,5.1L15,5.1L15,5.1z"/>
</svg>
