<svg width="30" height="30" viewBox="0 0 30 30" fill="none" xmlns="http://www.w3.org/2000/svg">
<mask id="mask0" mask-type="alpha" maskUnits="userSpaceOnUse" x="0" y="0" width="30" height="30">
<g clip-path="url(#clip0)">
<path d="M17.3438 15.8203C17.6674 15.8203 17.9297 15.558 17.9297 15.2344C17.9297 14.9108 17.6674 14.6484 17.3438 14.6484C17.0201 14.6484 16.7578 14.9108 16.7578 15.2344C16.7578 15.558 17.0201 15.8203 17.3438 15.8203Z" fill="black"/>
<path d="M12.6562 15.8203C12.9799 15.8203 13.2422 15.558 13.2422 15.2344C13.2422 14.9108 12.9799 14.6484 12.6562 14.6484C12.3326 14.6484 12.0703 14.9108 12.0703 15.2344C12.0703 15.558 12.3326 15.8203 12.6562 15.8203Z" fill="black"/>
<path d="M14.9373 6.44531C14.9432 6.44771 15.5859 6.4282 15.5859 7.03125C15.5859 7.35434 15.3231 7.61719 15 7.61719C14.814 7.61719 14.643 7.53164 14.531 7.38252C14.3367 7.12377 13.9695 7.07156 13.7106 7.26586C13.4519 7.46021 13.3997 7.82748 13.594 8.08623C13.8035 8.36514 14.0914 8.57244 14.4141 8.68717V9.08203C14.4141 9.40564 14.6764 9.66797 15 9.66797C15.3236 9.66797 15.5859 9.40564 15.5859 9.08203V8.68828C16.2679 8.44641 16.7578 7.79514 16.7578 7.03125C16.7578 5.96684 15.8188 5.27344 15.1453 5.27344C15.1395 5.27133 14.4141 5.34041 14.4141 4.6875C14.4141 4.36441 14.6769 4.10156 15 4.10156C15.186 4.10156 15.357 4.18711 15.469 4.33623C15.6633 4.59498 16.0306 4.64725 16.2894 4.45289C16.5481 4.25854 16.6003 3.89127 16.406 3.63252C16.1965 3.35361 15.9086 3.14631 15.5859 3.03158V2.63672C15.5859 2.31311 15.3236 2.05078 15 2.05078C14.6764 2.05078 14.4141 2.31311 14.4141 2.63672V3.03047C13.7321 3.27234 13.2422 3.92361 13.2422 4.6875C13.2422 5.69455 14.0912 6.44531 14.9373 6.44531Z" fill="black"/>
<path d="M10.8984 20.5078C10.8984 22.1507 12.7001 23.4375 15 23.4375C17.2999 23.4375 19.1016 22.1507 19.1016 20.5078C19.1016 18.865 17.2999 17.5781 15 17.5781C12.7001 17.5781 10.8984 18.865 10.8984 20.5078ZM15 18.75C16.5881 18.75 17.9297 19.555 17.9297 20.5078C17.9297 21.4607 16.5881 22.2656 15 22.2656C13.4119 22.2656 12.0703 21.4607 12.0703 20.5078C12.0703 19.555 13.4119 18.75 15 18.75Z" fill="black"/>
<path d="M22.3828 25.5469C22.7064 25.5469 22.9688 25.2845 22.9688 24.9609C22.9688 24.6373 22.7064 24.375 22.3828 24.375C22.0592 24.375 21.7969 24.6373 21.7969 24.9609C21.7969 25.2845 22.0592 25.5469 22.3828 25.5469Z" fill="black"/>
<path d="M7.12184 25.3383C7.97889 26.2879 8.55469 27.9259 8.55469 29.4141C8.55469 29.7377 8.81701 30 9.14062 30H12.6562C12.9799 30 13.2422 29.7377 13.2422 29.4141V28.7053C13.8301 28.7869 14.4189 28.8281 15 28.8281C15.5811 28.8281 16.1699 28.7869 16.7578 28.7053V29.4141C16.7578 29.7377 17.0201 30 17.3438 30H20.8594C21.183 30 21.4453 29.7377 21.4453 29.4141C21.4453 28.7925 21.5479 28.1222 21.7419 27.4757C21.8349 27.1658 21.6591 26.8391 21.3491 26.7461C21.0391 26.6531 20.7125 26.829 20.6194 27.1389C20.4523 27.6956 20.3434 28.2702 20.2978 28.8281H17.9297V28.0143C17.9297 27.6463 17.5939 27.3691 17.2324 27.439C16.4878 27.5831 15.7366 27.6562 15 27.6562C14.2634 27.6562 13.5122 27.5831 12.7676 27.439C12.4054 27.3691 12.0703 27.6469 12.0703 28.0143V28.8281H9.70277C9.57393 27.2225 8.93098 25.5938 7.99189 24.5532C6.89332 23.3357 6.21094 21.3365 6.21094 19.3359C6.21094 17.7652 6.62918 16.1267 7.42037 14.5978C7.53445 14.3774 7.49725 14.109 7.32756 13.9279C6.6075 13.1595 6.21094 12.1668 6.21094 11.1328V10.5469H6.79688C7.67332 10.5469 8.5193 10.8336 9.2434 11.3762C9.4623 11.5402 9.76553 11.531 9.974 11.3539C10.4 10.9922 10.8479 10.6758 11.3091 10.4084C12.3506 11.2554 13.6448 11.7188 15 11.7188C16.3552 11.7188 17.6496 11.2554 18.6909 10.4084C19.1521 10.6757 19.6 10.9921 20.026 11.3539C20.2345 11.5309 20.5377 11.5402 20.7566 11.3762C21.4807 10.8336 22.3267 10.5469 23.2031 10.5469H23.7891V11.1328C23.7891 12.1668 23.3925 13.1595 22.6724 13.9279C22.5028 14.109 22.4655 14.3774 22.5796 14.5978C23.3708 16.1267 23.7891 17.7652 23.7891 19.3359C23.7891 20.4258 23.591 21.5223 23.2161 22.507C23.1009 22.8095 23.2528 23.1479 23.5552 23.2631C23.8576 23.3782 24.1961 23.2264 24.3112 22.9239C24.7363 21.8075 24.9609 20.5668 24.9609 19.3359C24.9609 17.7015 24.56 16.0091 23.7986 14.4171C24.5508 13.4804 24.9609 12.329 24.9609 11.1328V9.96094C24.9609 9.63732 24.6986 9.375 24.375 9.375H23.2031C22.223 9.375 21.275 9.65074 20.4355 10.1764C20.1466 9.95109 19.8493 9.74385 19.5459 9.55482C20.3876 8.51684 20.8594 7.20691 20.8594 5.85938C20.8594 2.62852 18.2309 0 15 0C11.7691 0 9.14062 2.62852 9.14062 5.85938C9.14062 7.20691 9.61242 8.51684 10.4541 9.55482C10.1507 9.74385 9.85342 9.95109 9.56449 10.1764C8.72502 9.65074 7.77703 9.375 6.79688 9.375H5.625C5.30139 9.375 5.03906 9.63732 5.03906 9.96094V11.1328C5.03906 12.329 5.44916 13.4804 6.20145 14.4171C5.43996 16.0091 5.03906 17.7015 5.03906 19.3359C5.03906 21.6489 5.81766 23.8928 7.12184 25.3383ZM15 1.17188C17.5847 1.17188 19.6875 3.27469 19.6875 5.85938C19.6875 8.47963 17.562 10.5469 15 10.5469C12.4829 10.5469 10.3125 8.51994 10.3125 5.85938C10.3125 3.27469 12.4153 1.17188 15 1.17188Z" fill="black"/>
</g>
</mask>
<g mask="url(#mask0)">
<rect x="3.21423" y="9.64282" width="23.5714" height="21.4286" fill="#0074EB"/>
<circle cx="15" cy="5.35716" r="6.42857" fill="#F9E63A"/>
</g>
<defs>
<clipPath id="clip0">
<rect width="30" height="30" fill="white"/>
</clipPath>
</defs>
</svg>
