<?xml version="1.0" encoding="UTF-8"?>
<!DOCTYPE svg PUBLIC "-//W3C//DTD SVG 1.1//EN" "http://www.w3.org/Graphics/SVG/1.1/DTD/svg11.dtd">
<!-- Creator: CorelDRAW -->
<svg xmlns="http://www.w3.org/2000/svg" xml:space="preserve" width="114px" height="81px" style="shape-rendering:geometricPrecision; text-rendering:geometricPrecision; image-rendering:optimizeQuality; fill-rule:evenodd; clip-rule:evenodd"
viewBox="0 0 113.999 81.4866"
 xmlns:xlink="http://www.w3.org/1999/xlink">
 <defs>
  <style type="text/css">
   <![CDATA[
    .str4 {stroke:black;stroke-width:0.926751;stroke-linecap:round;stroke-linejoin:round}
    .str7 {stroke:black;stroke-width:0.927034;stroke-linecap:round;stroke-linejoin:round}
    .str2 {stroke:black;stroke-width:0.927318;stroke-linecap:round;stroke-linejoin:round}
    .str6 {stroke:black;stroke-width:0.927602;stroke-linecap:round;stroke-linejoin:round}
    .str5 {stroke:black;stroke-width:0.927885;stroke-linecap:round;stroke-linejoin:round}
    .str0 {stroke:black;stroke-width:0.930437;stroke-linecap:round;stroke-linejoin:round}
    .str1 {stroke:black;stroke-width:0.930721;stroke-linecap:round;stroke-linejoin:round}
    .str3 {stroke:black;stroke-width:0.931005;stroke-linecap:round;stroke-linejoin:round}
    .fil0 {fill:none}
   ]]>
  </style>
 </defs>
 <g id="Layer_x0020_1">
  <metadata id="CorelCorpID_0Corel-Layer"/>
  <path class="fil0 str0" d="M17.5249 48.0802c9.42263,0 17.0595,7.37317 17.0595,16.4705 0,9.09708 -7.6369,16.4705 -17.0595,16.4705 -9.42235,0 -17.0595,-7.37345 -17.0595,-16.4705 0,-9.09736 7.63719,-16.4705 17.0595,-16.4705z"/>
  <path class="fil0 str0" d="M16.6812 57.023c4.17321,0 7.55552,3.26546 7.55552,7.29462 0,4.02915 -3.3823,7.29462 -7.55552,7.29462 -4.17293,0 -7.55552,-3.26546 -7.55552,-7.29462 0,-4.02915 3.38258,-7.29462 7.55552,-7.29462z"/>
  <path class="fil0 str1" d="M23.3208 67.1106c-1.06968,0.570003 -2.2715,0.8689 -3.49347,0.8689 -3.99399,0 -7.2311,-3.12509 -7.2311,-6.98126 0,-0.93299 0.193688,-1.85662 0.569436,-2.71645"/>
  <line class="fil0 str2" x1="16.7303" y1="42.3895" x2="5.86592" y2= "52.5259" />
  <path class="fil0 str3" d="M55.3235 6.85166c0.928452,-0.321867 1.90795,-0.486346 2.89425,-0.486346 2.73998,0 5.31521,1.2662 6.92681,3.40584"/>
  <line class="fil0 str4" x1="32.0455" y1="73.1991" x2="44.4897" y2= "53.8616" />
  <path class="fil0 str3" d="M55.704 26.8304c8.97173,0 16.2437,7.02068 16.2437,15.683 0,8.66206 -7.27193,15.6827 -16.2437,15.6827 -8.97173,0 -16.2437,-7.02068 -16.2437,-15.6827 0,-8.66234 7.27193,-15.683 16.2437,-15.683z"/>
  <line class="fil0 str4" x1="43.9435" y1="31.6941" x2="73.3838" y2= "1.24748" />
  <path class="fil0 str0" d="M55.704 36.89c3.21669,0 5.82395,2.51709 5.82395,5.62289 0,3.10552 -2.60727,5.62261 -5.82395,5.62261 -3.21669,0 -5.82395,-2.51709 -5.82395,-5.62261 0,-3.10581 2.60727,-5.62289 5.82395,-5.62289z"/>
  <path class="fil0 str0" d="M55.704 35.7077c3.89303,0 7.04847,3.04625 7.04847,6.80515 0,3.75862 -3.15543,6.80515 -7.04847,6.80515 -3.89303,0 -7.04847,-3.04654 -7.04847,-6.80515 0,-3.7589 3.15543,-6.80515 7.04847,-6.80515z"/>
  <polyline class="fil0 str4" points="19.8276,80.9614 94.2371,80.9659 93.4603,54.2699 "/>
  <path class="fil0 str4" d="M69.4116 34.0955c4.72167,4.78434 2.23464,19.9067 13.3145,20.0258l30.8091 0.425375 -4.79965 -39.6957 -2.69348 0.153135"/>
  <path class="fil0 str4" d="M73.3838 1.24748c5.20347,-2.15665 8.88042,0.111732 11.4942,7.02663"/>
  <path class="fil0 str5" d="M87.0156 22.1286c6.17078,0 11.1723,4.96073 11.1723,11.0799 0,6.11888 -5.00156,11.0796 -11.1723,11.0796 -6.17078,0 -11.1723,-4.96073 -11.1723,-11.0796 0,-6.11916 5.00156,-11.0799 11.1723,-11.0799z"/>
  <path class="fil0 str2" d="M87.0159 27.6225c3.11091,0 5.63254,2.50092 5.63254,5.58603 0,3.08482 -2.52162,5.58574 -5.63254,5.58574 -3.11091,0 -5.63254,-2.50092 -5.63254,-5.58574 0,-3.0851 2.52162,-5.58603 5.63254,-5.58603z"/>
  <path class="fil0 str6" d="M87.0162 28.9042c2.39685,0 4.33996,1.92723 4.33996,4.30423 0,2.377 -1.94311,4.30395 -4.33996,4.30395 -2.39713,0 -4.34025,-1.92695 -4.34025,-4.30395 0,-2.377 1.94311,-4.30423 4.34025,-4.30423z"/>
  <line class="fil0 str4" x1="76.9291" y1="28.4378" x2="83.7187" y2= "10.0408" />
  <line class="fil0 str4" x1="98.0839" y1="31.6927" x2="97.8391" y2= "11.5044" />
  <path class="fil0 str7" d="M83.8398 9.73797c1.32036,-2.48759 3.90636,-4.04163 6.72121,-4.04163 3.42569,0 6.42912,2.28937 7.33687,5.59255"/>
  <polyline class="fil0 str4" points="87.0148,44.2881 109.324,44.2881 105.903,13.8003 97.8698,13.8003 "/>
  <path class="fil0 str5" d="M26.7022 26.31c6.17049,0 11.1723,4.96073 11.1723,11.0799 0,6.11916 -5.00185,11.0799 -11.1723,11.0799 -6.17078,0 -11.1726,-4.96073 -11.1726,-11.0799 0,-6.11916 5.00185,-11.0799 11.1726,-11.0799z"/>
  <path class="fil0 str6" d="M26.7025 33.086c2.39713,0 4.33996,1.92695 4.33996,4.30395 0,2.377 -1.94283,4.30423 -4.33996,4.30423 -2.39713,0 -4.33996,-1.92723 -4.33996,-4.30423 0,-2.377 1.94283,-4.30395 4.33996,-4.30395z"/>
  <line class="fil0 str4" x1="20.5363" y1="28.0756" x2="46.5704" y2= "7.90886" />
  <line class="fil0 str4" x1="35.6734" y1="43.9943" x2="39.7159" y2= "39.7286" />
  <path class="fil0 str7" d="M47.1608 7.4954c1.35014,-0.864646 2.92261,-1.32433 4.52968,-1.32433 4.61277,0 8.35153,3.70814 8.35153,8.28206"/>
  <path class="fil0 str2" d="M30.7144 20.2016c1.65783,-1.06145 3.58818,-1.62578 5.56107,-1.62578 5.66288,0 10.2527,4.55208 10.2527,10.1673"/>
  <path class="fil0 str5" d="M27.6321 22.5276c1.73808,-1.11278 3.7623,-1.70462 5.83104,-1.70462 5.93739,0 10.7498,4.77299 10.7498,10.6608"/>
 </g>
</svg>
