<?xml version="1.0" encoding="UTF-8"?>
<!DOCTYPE svg PUBLIC "-//W3C//DTD SVG 1.1//EN" "http://www.w3.org/Graphics/SVG/1.1/DTD/svg11.dtd">
<!-- Creator: CorelDRAW -->
<svg xmlns="http://www.w3.org/2000/svg" xml:space="preserve" width="86px" height="97px" style="shape-rendering:geometricPrecision; text-rendering:geometricPrecision; image-rendering:optimizeQuality; fill-rule:evenodd; clip-rule:evenodd"
viewBox="0 0 85.9994 97.3034"
 xmlns:xlink="http://www.w3.org/1999/xlink">
 <defs>
  <style type="text/css">
   <![CDATA[
    .str0 {stroke:black;stroke-width:0.926993;stroke-linecap:round;stroke-linejoin:round}
    .str1 {stroke:black;stroke-width:0.927276;stroke-linecap:round;stroke-linejoin:round}
    .str2 {stroke:black;stroke-width:0.92756;stroke-linecap:round;stroke-linejoin:round}
    .fil0 {fill:none}
    .fil1 {fill:black;fill-rule:nonzero}
   ]]>
  </style>
 </defs>
 <g id="Layer_x0020_1">
  <metadata id="CorelCorpID_0Corel-Layer"/>
  <g id="_464424584">
   <polygon id="_464094392" class="fil0 str0" points="58.6441,15.836 81.9003,22.7731 "/>
   <path id="_464094224" class="fil0 str0" d="M7.10128 0.463496l17.0606 5.08769m2.96213 0.88362l25.3078 7.5489"/>
   <path id="_464094056" class="fil0 str0" d="M6.78888 4.20974l15.1259 4.36821m3.22917 0.932663l25.9521 7.49617m6.30128 1.81997l25.075 7.24217"/>
   <path id="_464093888" class="fil0 str0" d="M2.48644 13.7048l12.5598 3.48289m3.80833 1.05144l18.6062 5.15629m20.8588 5.77911l4.48614 1.24336m3.11039 0.862075l14.2646 3.9529"/>
   <path id="_464093720" class="fil0 str0" d="M37.3014 23.4044c5.75983,-1.30885 9.0868,-3.4551 13.2078,-5.74962 1.92826,0.516508 3.85567,1.03273 5.78393,1.54924 6.11107,6.84444 2.62251,9.43917 -2.50316,15.0499"/>
   <path id="_464093552" class="fil0 str0" d="M50.5092 17.6548c1.43953,-1.17901 2.10062,-2.61798 1.8829,-4.35148 2.07199,0.644359 4.14482,1.28957 6.21681,1.93364 0.238127,2.53463 -0.712962,3.64249 -2.31578,3.96708"/>
   <path id="_464093384" class="fil0 str0" d="M37.268 23.4702c1.45994,3.48402 2.40848,7.19879 3.86871,10.6825 3.34199,-0.841664 7.85676,-0.509704 12.6533,0.101204"/>
   <path id="_464093216" class="fil0 str0" d="M41.1367 34.1527c0.63217,16.2932 -3.84008,19.8606 -9.497,24.099 -7.21155,5.40406 -10.8855,7.46385 -14.7412,11.6858 -2.10345,2.30359 -3.9753,4.76508 -4.81129,8.42968"/>
   <path id="_464093048" class="fil0 str0" d="M53.9419 34.1527c0.632453,16.2932 -5.17018,27.8027 -11.0783,31.6805 -8.14705,5.34736 -10.5139,6.48753 -13.4765,8.73868 -1.23769,0.940884 -3.57105,1.70657 -4.24688,4.53773"/>
   <path id="_464092952" class="fil0 str0" d="M35.2765 55.3001c-2.77729,6.37442 6.01667,12.3826 9.22259,9.25746"/>
   <path id="_464092856" class="fil0 str1" d="M22.5965 64.8827c-3.2612,5.194 3.91435,11.7941 7.12169,9.49048"/>
   <path id="_464092688" class="fil0 str0" d="M60.3991 29.7502c0.485608,2.32684 9.92875,4.06148 11.6623,-6.68881 1.62606,-1.23287 1.86703,-2.51961 1.61416,-3.61442 -0.843649,-0.220834 -1.68815,-0.440534 -2.5318,-0.661085 -0.0926993,1.91153 -0.77703,3.09536 -2.19077,3.37715 0.931812,3.09565 -3.31705,9.45051 -6.75911,8.08497"/>
   <path id="_464092520" class="fil0 str2" d="M12.6627 16.6218c0.522745,2.50316 10.6811,4.36906 12.5462,-7.19539 1.7491,-1.32642 2.00848,-2.71067 1.73634,-3.88855 -0.907716,-0.237276 -1.81628,-0.473702 -2.72372,-0.710978 -0.0997864,2.05639 -0.835711,3.3298 -2.3566,3.63313 1.0024,3.3298 -3.48345,10.0915 -7.18661,8.62245"/>
   <line id="_464092424" class="fil0 str0" x1="41.5622" y1="81.7333" x2="72.1969" y2= "84.8213" />
   <line id="_464092328" class="fil0 str0" x1="41.207" y1="84.8167" x2="71.9372" y2= "88.0272" />
   <line id="_464092232" class="fil0 str0" x1="43.1196" y1="91.9532" x2="68.4951" y2= "94.6029" />
   <path id="_464092064" class="fil0 str0" d="M74.1484 85.3406c-1.3508,5.64303 -0.0966681,11.1061 2.42492,11.2608 8.29361,-4.43879 11.9769,-15.1295 6.06486,-16.6805"/>
   <path id="_464091968" class="fil0 str0" d="M74.1484 85.3406c9.99735,-0.373632 11.5168,-2.05639 10.4163,-4.28033"/>
   <line id="_464091872" class="fil0 str0" x1="47.1726" y1="76.5435" x2="75.9117" y2= "79.0663" />
   <line id="_464091776" class="fil0 str0" x1="47.244" y1="79.1459" x2="75.7529" y2= "81.6684" />
   <path id="_464091680" class="fil0 str0" d="M72.2238 84.9633c-0.647194,4.87904 -0.343016,10.792 2.35915,11.8766"/>
   <path id="_464091512" class="fil0 str0" d="M82.6875 84.1352c-0.0289154,-0.0813599 -0.0501767,-4.33844 -0.0501767,-4.33844l-0.629335 -0.594466 -4.15616 -0.395744 0.775045 0.804811 0.0425226 2.31748 3.98465 0.281783"/>
   <polyline id="_464091344" class="fil0 str0" points="78.0114,85.0892 78.067,82.3813 78.6694,81.9289 "/>
   <line id="_464091248" class="fil0 str0" x1="78.6269" y1="79.6114" x2="82.6382" y2= "79.921" />
   <polyline id="_464091080" class="fil0 str0" points="75.5026,85.2227 75.7529,81.6684 75.9117,79.0663 "/>
   <line id="_464090984" class="fil0 str0" x1="74.583" y1="96.8399" x2="70.1719" y2= "96.3854" />
   <path id="_464090888" class="fil0 str0" d="M67.6903 84.3671c-0.900062,6.47081 0.490427,11.6143 2.43626,12.0064"/>
   <path id="_464090792" class="fil0 str0" d="M54.1628 83.0637c-0.594466,4.27381 -0.189084,7.96902 0.714663,10.0986"/>
   <path id="_464090696" class="fil0 str0" d="M50.6668 82.512c-0.615727,4.42575 -0.158751,8.23153 0.813032,10.3191"/>
   <g>
    <path id="_464090600" class="fil1" d="M41.9505 81.7996l-0.906015 -0.180863 0.0053862 -0.0232457 0.00652013 -0.0226787 0.00737059 -0.0221118 0.00850452 -0.0215448 0.00963846 -0.0209778 0.0104889 -0.0201274 0.0113394 -0.0195604 0.0124733 -0.0189934 0.0130403 -0.0184265 0.0141742 -0.017576 0.0147412 -0.0167256 0.0155916 -0.0161586 0.0161586 -0.0153081 0.017009 -0.0144577 0.017576 -0.0136072 0.018143 -0.0127568 0.0189934 -0.0119063 0.0192769 -0.0107724 0.0198439 -0.0102054 0.0204109 -0.00907149 0.0206943 -0.00822104 0.0212613 -0.0070871 0.0215448 -0.00595317 0.0218283 -0.00510271 0.0223952 -0.00396878 0.0223952 -0.00311832 0.0226787 -0.0017009 0.0229622 -0.000850452 0.0232457 0.000566968 0.0232457 0.0017009 0.0232457 0.00283484 0.0235292 0.00396878 0.0232457 0.00510271 0.0226787 0.00652013 0.0218283 0.00737059 0.0215448 0.00850452 0.0209778 0.00935497 0.0201274 0.0104889 0.0195604 0.0113394 0.0189934 0.0121898 0.018143 0.0130403 0.017576 0.0138907 0.0167256 0.0147412 0.0158751 0.0155916 0.0153081 0.0161586 0.0141742 0.0167256 0.0136072 0.017576 0.0127568 0.018143 0.0116228 0.0189934 0.0110559 0.0192769 0.00992194 0.0198439 0.00907149 0.0201274 0.00793755 0.0206943 0.0070871 0.0212613 0.00595317 0.0215448 0.00481923 0.0218283 0.00396878 0.0223952 0.00283484 0.0223952 0.0017009 0.0226787 0.000566968 0.0229622 -0.000566968 0.0232457 -0.0017009 0.0232457 -0.00283484 0.0232457 -0.00425226 0.0235292zm1.35222 9.75355l-0.480222 0.792622 -0.216865 -0.151947 -0.198155 -0.179162 -0.180863 -0.202975 -0.166122 -0.224519 -0.152231 -0.244363 -0.139474 -0.262223 -0.128985 -0.279799 -0.118213 -0.29539 -0.109425 -0.310699 -0.0995029 -0.324873 -0.0912819 -0.337346 -0.0827774 -0.349536 -0.0745563 -0.360025 -0.0669022 -0.369947 -0.0583977 -0.377884 -0.0513106 -0.384404 -0.0436565 -0.390925 -0.0360025 -0.394893 -0.0286319 -0.398295 -0.0212613 -0.399996 -0.0141742 -0.400846 -0.00737059 -0.40028 0 -0.398295 0.0070871 -0.395177 0.0136072 -0.390358 0.0206943 -0.384971 0.027498 -0.377601 0.0343016 -0.369663 0.0411052 -0.360025 0.0479088 -0.349252 0.0547124 -0.337063 0.0612326 -0.324306 0.906015 0.180863 -0.0566968 0.298792 -0.0507437 0.313817 -0.045074 0.327708 -0.0388373 0.340181 -0.0326007 0.350386 -0.0257971 0.360025 -0.0201274 0.367395 -0.0130403 0.373916 -0.00652013 0.378735 0 0.381853 0.00680362 0.383837 0.0136072 0.384404 0.0206943 0.383554 0.027498 0.380719 0.0343016 0.377317 0.0413887 0.371648 0.0484758 0.365128 0.0555629 0.356906 0.0623665 0.346701 0.0694536 0.335645 0.0765407 0.322888 0.0833443 0.308431 0.0898645 0.292556 0.0963846 0.274413 0.102338 0.255703 0.108007 0.234441 0.112827 0.211763 0.116512 0.187666 0.119063 0.161586 0.120197 0.134938 0.119347 0.108291 0.117079 0.0822104zm-0.480222 0.792622l0.480222 -0.792622 0.0201274 0.0127568 0.0189934 0.0136072 0.018143 0.0144577 0.0172925 0.0150247 0.0164421 0.0161586 0.0155916 0.0164421 0.0144577 0.0172925 0.0138907 0.0178595 0.0124733 0.0187099 0.0119063 0.0189934 0.0107724 0.0195604 0.00963846 0.0198439 0.00878801 0.0204109 0.00793755 0.0206943 0.00680362 0.0212613 0.00566968 0.0212613 0.00481923 0.0218283 0.00368529 0.0218283 0.00255136 0.0218283 0.0017009 0.0223952 0.000566968 0.0221118 -0.000566968 0.0223952 -0.0017009 0.0223952 -0.00255136 0.0223952 -0.00396878 0.0221118 -0.00481923 0.0221118 -0.00623665 0.0221118 -0.0070871 0.0218283 -0.00822104 0.0215448 -0.00963846 0.0215448 -0.0104889 0.0209778 -0.0119063 0.0206943 -0.0127568 0.0201274 -0.0138907 0.0192769 -0.0144577 0.018143 -0.0153081 0.017576 -0.0158751 0.0164421 -0.0167256 0.0155916 -0.017576 0.0147412 -0.0178595 0.0136072 -0.0184265 0.0127568 -0.0192769 0.0119063 -0.0195604 0.0107724 -0.0201274 0.00992194 -0.0204109 0.00878801 -0.0206943 0.00793755 -0.0212613 0.00680362 -0.0212613 0.00595317 -0.0218283 0.00481923 -0.0218283 0.00396878 -0.0221118 0.00255136 -0.0221118 0.0017009 -0.0223952 0.000850452 -0.0223952 -0.000566968 -0.0221118 -0.00141742 -0.0223952 -0.00255136 -0.0223952 -0.00368529 -0.0221118 -0.00481923 -0.0218283 -0.00595317 -0.0218283 -0.0070871 -0.0215448 -0.00822104 -0.0212613 -0.00935497 -0.0209778 -0.0107724 -0.0206943 -0.0116228z"/>
   </g>
   <path class="fil0 str0" d="M47.1726 76.5435c0.0629335,2.80734 -0.133521,4.48614 -0.436565,5.71079"/>
   <path class="fil0 str0" d="M57.6689 77.352c-0.0102054,0.111409 0.0583977,-1.85143 0.0583977,-1.85143l0.810198 -0.694253 8.10169 0.809347 0.115662 0.75265 -0.164988 1.87922"/>
   <path class="fil0 str0" d="M59.725 74.924l0.361726 -3.79528 3.93703 -8.06257c2.68856,-6.95216 5.37798,-13.904 8.06654,-20.8562 0.450456,-1.26264 4.18196,-0.762856 3.74993,0.562716l-7.87916 21.0433 -1.8744 8.06285 0.55251 3.73689"/>
   <ellipse class="fil0 str0" cx="72.9514" cy="44.9559" rx="0.639672" ry="0.40049"/>
   <ellipse class="fil0 str0" cx="70.6579" cy="51.1181" rx="0.639672" ry="0.40049"/>
   <ellipse class="fil0 str0" cx="68.5219" cy="57.2293" rx="0.639672" ry="0.40049"/>
   <ellipse class="fil0 str0" cx="65.9929" cy="63.4675" rx="0.639672" ry="0.40049"/>
   <ellipse class="fil0 str0" cx="64.3483" cy="67.9359" rx="0.639672" ry="0.40049"/>
   <g>
    <path class="fil1" d="M62.8788 73.0425l-0.926993 0 0 0 -0.000283484 -0.0113394 -0.00113394 -0.0121898 -0.00113394 -0.0116228 -0.00198439 -0.0102054 -0.00255136 -0.0116228 -0.00226787 -0.00850452 -0.00340181 -0.0104889 -0.00396878 -0.0110559 -0.00340181 -0.00793755 -0.00453575 -0.00878801 -0.00510271 -0.00935497 -0.00510271 -0.00822104 -0.00481923 -0.0070871 -0.00566968 -0.00737059 -0.00793755 -0.00935497 -0.00595317 -0.00680362 -0.00453575 -0.00425226 -0.00765407 -0.00680362 -0.00765407 -0.00652013 -0.00566968 -0.00425226 -0.00850452 -0.0053862 -0.00822104 -0.00510271 -0.00566968 -0.00311832 -0.00623665 -0.00311832 -0.00765407 -0.00283484 -0.00680362 -0.00255136 -0.0070871 -0.00198439 -0.00935497 -0.00226787 -0.00793755 -0.00141742 -0.0070871 -0.00113394 -0.00793755 -0.000566968 -0.00878801 -0.000283484 0 -0.923591 0.0569803 0.00141742 0.0572638 0.00453575 0.0569803 0.00737059 0.0549959 0.0104889 0.0524446 0.0124733 0.0535785 0.0155916 0.052728 0.0184265 0.0507437 0.0209778 0.0504602 0.0235292 0.0493262 0.026364 0.045074 0.0272145 0.0436565 0.0291989 0.0442235 0.0326007 0.0405382 0.0331676 0.0388373 0.0345851 0.0402547 0.0399713 0.0360025 0.0396878 0.0323172 0.0388373 0.0323172 0.0425226 0.0308998 0.045074 0.0283484 0.0462079 0.0255136 0.0462079 0.0238127 0.0484758 0.0221118 0.0510271 0.0187099 0.0496097 0.017009 0.0513106 0.0147412 0.0544289 0.0116228 0.0530115 0.00935497 0.0549959 0.00680362 0.0552794 0.00396878 0.0552794 0.00141742 0.0572638 0 0zm-1.10304 1.12713l0 -0.923591 0 0 0.00878801 -0.000283484 0.00793755 -0.000566968 0.0070871 -0.00113394 0.00793755 -0.00141742 0.00935497 -0.00226787 0.0070871 -0.00198439 0.00680362 -0.00255136 0.00765407 -0.00283484 0.00623665 -0.00311832 0.00737059 -0.00396878 0.00793755 -0.00481923 0.00566968 -0.00368529 0.0070871 -0.0053862 0.00765407 -0.00623665 0.00652013 -0.00595317 0.00680362 -0.00652013 0.00595317 -0.00652013 0.00595317 -0.0070871 0.00566968 -0.00765407 0.00623665 -0.00907149 0.00510271 -0.00793755 0.00396878 -0.00765407 0.00453575 -0.00907149 0.00425226 -0.00963846 0.00396878 -0.0104889 0.00311832 -0.00935497 0.00226787 -0.00935497 0.00255136 -0.0113394 0.00198439 -0.0102054 0.00113394 -0.0119063 0.00113394 -0.0121898 0.000283484 -0.0113394 0.926993 0 -0.00141742 0.0572638 -0.00396878 0.0552794 -0.00680362 0.0549959 -0.00935497 0.0555629 -0.0116228 0.052728 -0.0147412 0.0541455 -0.0172925 0.0524446 -0.0187099 0.0496097 -0.0212613 0.0493262 -0.0238127 0.0487593 -0.0266475 0.0479088 -0.0283484 0.0459244 -0.0294823 0.0430896 -0.0323172 0.0428061 -0.0343016 0.0411052 -0.0360025 0.0394043 -0.0379869 0.0377034 -0.0399713 0.0360025 -0.0405382 0.0328842 -0.0428061 0.0320337 -0.0464914 0.0308998 -0.0453575 0.026931 -0.0476253 0.0255136 -0.0504602 0.0235292 -0.0507437 0.0209778 -0.052728 0.0184265 -0.0535785 0.0155916 -0.0524446 0.0124733 -0.0549959 0.0104889 -0.0569803 0.00737059 -0.0572638 0.00453575 -0.0569803 0.00141742 0 0zm-1.10332 -1.12713l0.926993 0 0 0 0.000283484 0.0113394 0.00113394 0.0121898 0.00113394 0.0119063 0.00198439 0.0102054 0.00198439 0.00963846 0.00311832 0.0110559 0.00340181 0.0110559 0.00283484 0.0070871 0.00425226 0.00963846 0.0053862 0.0107724 0.00396878 0.00765407 0.00510271 0.00793755 0.00623665 0.00907149 0.00566968 0.00765407 0.00595317 0.0070871 0.00595317 0.00652013 0.00680362 0.00652013 0.00652013 0.00595317 0.00765407 0.00623665 0.0070871 0.0053862 0.00566968 0.00368529 0.0070871 0.00425226 0.00765407 0.00425226 0.00793755 0.00368529 0.00737059 0.00283484 0.00595317 0.00226787 0.0070871 0.00198439 0.00935497 0.00226787 0.00793755 0.00141742 0.0070871 0.00113394 0.00793755 0.000566968 0.00878801 0.000283484 0 0.923591 -0.0569803 -0.00141742 -0.0572638 -0.00453575 -0.0569803 -0.00737059 -0.0549959 -0.0104889 -0.0524446 -0.0124733 -0.0535785 -0.0155916 -0.0535785 -0.0187099 -0.0504602 -0.0209778 -0.0487593 -0.0229622 -0.0479088 -0.0252301 -0.0462079 -0.027498 -0.0464914 -0.0308998 -0.0428061 -0.0320337 -0.0405382 -0.0328842 -0.0399713 -0.0360025 -0.0379869 -0.0377034 -0.0360025 -0.0394043 -0.0343016 -0.0411052 -0.0323172 -0.0428061 -0.0294823 -0.0430896 -0.0283484 -0.0459244 -0.0266475 -0.0479088 -0.0229622 -0.0470584 -0.0218283 -0.0493262 -0.0198439 -0.0530115 -0.0164421 -0.0507437 -0.0144577 -0.0524446 -0.0121898 -0.0544289 -0.00935497 -0.0555629 -0.00680362 -0.0549959 -0.00396878 -0.0552794 -0.00141742 -0.0572638 0 0zm1.10332 -1.12713l0 0.923591 0 0 -0.00878801 0.000283484 -0.00793755 0.000566968 -0.0070871 0.00113394 -0.00793755 0.00141742 -0.00935497 0.00226787 -0.0070871 0.00198439 -0.00595317 0.00226787 -0.00737059 0.00283484 -0.00793755 0.00368529 -0.00623665 0.00340181 -0.0070871 0.00453575 -0.00850452 0.0053862 -0.00566968 0.00425226 -0.00765407 0.00652013 -0.00765407 0.00680362 -0.00453575 0.00425226 -0.00595317 0.00680362 -0.00793755 0.00935497 -0.00566968 0.00737059 -0.00481923 0.0070871 -0.00510271 0.00822104 -0.00510271 0.00935497 -0.00510271 0.0104889 -0.00368529 0.00793755 -0.00283484 0.00765407 -0.00368529 0.0121898 -0.00311832 0.0102054 -0.00198439 0.00992194 -0.00198439 0.0102054 -0.00113394 0.0116228 -0.00113394 0.0121898 -0.000283484 0.0113394 -0.926993 0 0.00141742 -0.0572638 0.00396878 -0.0552794 0.00680362 -0.0552794 0.00935497 -0.0549959 0.0121898 -0.0547124 0.0144577 -0.052728 0.0161586 -0.0496097 0.0198439 -0.0530115 0.0223952 -0.0510271 0.0232457 -0.0467749 0.0255136 -0.0462079 0.0283484 -0.0462079 0.0308998 -0.045074 0.0323172 -0.0425226 0.0323172 -0.0388373 0.0360025 -0.0396878 0.0402547 -0.0399713 0.0388373 -0.0345851 0.0405382 -0.0331676 0.0442235 -0.0326007 0.0436565 -0.0291989 0.0462079 -0.0277814 0.0493262 -0.0260805 0.0487593 -0.0229622 0.0504602 -0.0209778 0.0535785 -0.0187099 0.0535785 -0.0155916 0.0524446 -0.0124733 0.0549959 -0.0104889 0.0569803 -0.00737059 0.0572638 -0.00453575 0.0569803 -0.00141742 0 0z"/>
   </g>
   <g>
    <path class="fil1" d="M65.4514 73.3302l-0.926993 0 0 0 -0.000283484 -0.0113394 -0.00113394 -0.0121898 -0.00113394 -0.0119063 -0.00198439 -0.0104889 -0.00198439 -0.00963846 -0.00311832 -0.0102054 -0.00368529 -0.0121898 -0.00283484 -0.00765407 -0.00425226 -0.00963846 -0.00481923 -0.00963846 -0.00396878 -0.00737059 -0.00623665 -0.00992194 -0.00595317 -0.00878801 -0.00481923 -0.00652013 -0.00595317 -0.0070871 -0.00623665 -0.00680362 -0.00623665 -0.00623665 -0.00680362 -0.00623665 -0.00680362 -0.0053862 -0.00680362 -0.00510271 -0.00850452 -0.0053862 -0.00822104 -0.00510271 -0.00566968 -0.00311832 -0.00623665 -0.00311832 -0.00850452 -0.00311832 -0.00566968 -0.00226787 -0.00680362 -0.0017009 -0.00992194 -0.00255136 -0.00822104 -0.0017009 -0.00680362 -0.000850452 -0.00765407 -0.000566968 -0.00878801 -0.000283484 0 -0.923591 0.0569803 0.00141742 0.0575473 0.00453575 0.0566968 0.00765407 0.0547124 0.0102054 0.0518776 0.0121898 0.0544289 0.0158751 0.053295 0.0187099 0.0498932 0.0206943 0.0504602 0.0235292 0.0493262 0.026364 0.045074 0.0272145 0.0436565 0.0291989 0.0430896 0.0317502 0.0419556 0.0343016 0.0396878 0.035719 0.0379869 0.0374199 0.036286 0.0396878 0.0343016 0.0411052 0.0331676 0.04394 0.0291989 0.0433731 0.0272145 0.04394 0.0272145 0.0487593 0.0229622 0.0476253 0.0218283 0.0493262 0.0198439 0.0530115 0.0161586 0.0496097 0.0144577 0.052728 0.0121898 0.0549959 0.00935497 0.0552794 0.00680362 0.0549959 0.00396878 0.0552794 0.00141742 0.0572638 0 0zm-1.10304 1.12685l0 -0.923591 0 0 0.00878801 -0.000283484 0.00765407 -0.000566968 0.00680362 -0.000850452 0.00822104 -0.0017009 0.00992194 -0.00255136 0.00680362 -0.0017009 0.00566968 -0.00226787 0.00850452 -0.00311832 0.00623665 -0.00311832 0.00737059 -0.00396878 0.00793755 -0.00481923 0.00566968 -0.00368529 0.00822104 -0.00623665 0.00793755 -0.00623665 0.00453575 -0.00396878 0.00737059 -0.00765407 0.0070871 -0.00765407 0.00510271 -0.00595317 0.00481923 -0.00652013 0.00595317 -0.00878801 0.00680362 -0.0110559 0.00396878 -0.00680362 0.00425226 -0.00878801 0.00425226 -0.00963846 0.00283484 -0.00765407 0.00368529 -0.0121898 0.00311832 -0.0102054 0.00198439 -0.00992194 0.00198439 -0.0102054 0.00113394 -0.0116228 0.00113394 -0.0121898 0.000283484 -0.0113394 0.926993 0 -0.00141742 0.0572638 -0.00396878 0.0552794 -0.00680362 0.0552794 -0.00935497 0.0549959 -0.0121898 0.0547124 -0.0144577 0.052728 -0.0161586 0.0496097 -0.0198439 0.0530115 -0.0218283 0.0493262 -0.0235292 0.0484758 -0.0272145 0.0487593 -0.0266475 0.0428061 -0.0291989 0.0433731 -0.0331676 0.04394 -0.035152 0.0422391 -0.0354355 0.0382704 -0.0368529 0.0365694 -0.0419556 0.0379869 -0.0408217 0.0328842 -0.0416722 0.0311832 -0.0464914 0.0308998 -0.0453575 0.026931 -0.0476253 0.0255136 -0.0504602 0.0235292 -0.0498932 0.0206943 -0.053295 0.0187099 -0.0544289 0.0158751 -0.0518776 0.0121898 -0.0547124 0.0102054 -0.0566968 0.00765407 -0.0575473 0.00453575 -0.0569803 0.00141742 0 0zm-1.1036 -1.12685l0.926993 0 0 0 0.000283484 0.0113394 0.00113394 0.0121898 0.00113394 0.0116228 0.00198439 0.0102054 0.00198439 0.00992194 0.00311832 0.0102054 0.00311832 0.0104889 0.00368529 0.00935497 0.00396878 0.00963846 0.00453575 0.00878801 0.00453575 0.00850452 0.00510271 0.00793755 0.00623665 0.00907149 0.00566968 0.00765407 0.00510271 0.00595317 0.00595317 0.00652013 0.00793755 0.00765407 0.00652013 0.00595317 0.00765407 0.00623665 0.0070871 0.0053862 0.00453575 0.00311832 0.00850452 0.00481923 0.00822104 0.00453575 0.0070871 0.00340181 0.00737059 0.00283484 0.00595317 0.00226787 0.00652013 0.0017009 0.00963846 0.00226787 0.00878801 0.00198439 0.00680362 0.000850452 0.00765407 0.000566968 0.00878801 0.000283484 0 0.923591 -0.0569803 -0.00141742 -0.0575473 -0.00453575 -0.0566968 -0.00765407 -0.0541455 -0.00992194 -0.052728 -0.0124733 -0.0541455 -0.0158751 -0.0535785 -0.0187099 -0.0504602 -0.0209778 -0.0496097 -0.0232457 -0.0467749 -0.0249466 -0.0453575 -0.026931 -0.0476253 -0.0314667 -0.0428061 -0.0320337 -0.0405382 -0.0328842 -0.0399713 -0.0360025 -0.0368529 -0.0365694 -0.0365694 -0.0394043 -0.035152 -0.0422391 -0.0323172 -0.0428061 -0.0294823 -0.0430896 -0.0283484 -0.0459244 -0.0260805 -0.0470584 -0.0238127 -0.0484758 -0.0215448 -0.0493262 -0.0195604 -0.0513106 -0.0167256 -0.0513106 -0.0144577 -0.052728 -0.0121898 -0.0547124 -0.00935497 -0.0549959 -0.00680362 -0.0552794 -0.00396878 -0.0552794 -0.00141742 -0.0572638 0 0zm1.1036 -1.1277l0 0.923591 0 0 -0.00878801 0.000283484 -0.00765407 0.000566968 -0.00680362 0.000850452 -0.00878801 0.00198439 -0.00963846 0.00226787 -0.00652013 0.0017009 -0.00595317 0.00226787 -0.00737059 0.00283484 -0.0070871 0.00340181 -0.00680362 0.00368529 -0.00822104 0.00510271 -0.00765407 0.00481923 -0.00566968 0.00425226 -0.00652013 0.0053862 -0.00878801 0.00822104 -0.00680362 0.00623665 -0.00510271 0.00566968 -0.00595317 0.0070871 -0.00566968 0.00765407 -0.00623665 0.00907149 -0.00453575 0.0070871 -0.00453575 0.00878801 -0.00510271 0.00963846 -0.00396878 0.00963846 -0.00368529 0.00935497 -0.00311832 0.0104889 -0.00311832 0.0102054 -0.00198439 0.00963846 -0.00198439 0.0104889 -0.00113394 0.0119063 -0.00113394 0.0121898 -0.000283484 0.0113394 -0.926993 0 0.00141742 -0.0572638 0.00396878 -0.0552794 0.00680362 -0.0549959 0.00935497 -0.0552794 0.0121898 -0.0549959 0.0144577 -0.052728 0.0167256 -0.0513106 0.0195604 -0.0513106 0.0215448 -0.0493262 0.0232457 -0.0476253 0.0260805 -0.0473418 0.0289154 -0.0467749 0.0294823 -0.0430896 0.0323172 -0.0428061 0.0343016 -0.0411052 0.0374199 -0.0408217 0.0379869 -0.0374199 0.0377034 -0.0337346 0.0416722 -0.0343016 0.0442235 -0.0326007 0.044507 -0.0297658 0.0456409 -0.0272145 0.0481923 -0.0257971 0.0496097 -0.0232457 0.0504602 -0.0209778 0.0535785 -0.0187099 0.0541455 -0.0158751 0.052728 -0.0124733 0.0541455 -0.00992194 0.0566968 -0.00765407 0.0575473 -0.00453575 0.0569803 -0.00141742 0 0z"/>
   </g>
   <path class="fil0 str0" d="M9.71472 28.8224c0,5.00236 0,6.10908 0,11.1117 -1.93648,1.77518 -3.87239,3.55064 -5.80887,5.32582 -0.493262,0.963279 -0.987375,1.92741 -1.47979,2.89069 -1.90048,3.71563 -3.25837,7.73345 0.0252301,11.4732 2.80989,3.2011 4.54992,1.09311 6.68314,-0.900062 4.22817,-3.94922 8.45661,-7.90042 12.6839,-11.8508 0.582276,-0.815584 1.04662,-1.75023 0.967815,-3.2269 0,-6.29391 0,-8.69134 0,-14.985"/>
   <path class="fil0 str0" d="M9.13442 58.7237c7.28015,-6.80107 0.921607,-17.0042 -2.87566,-15.6211"/>
   <path class="fil0 str0" d="M9.71472 39.9341c4.32767,4.06516 8.22132,5.539 12.1036,6.93884"/>
   <path class="fil0 str0" d="M9.71472 36.4872c4.92554,3.94752 11.6393,3.78224 13.0715,0.247482"/>
   <path class="fil0 str0" d="M9.71472 31.2595c4.92554,3.94752 11.6393,3.78253 13.0715,0.247482"/>
   <path class="fil0 str0" d="M12.0138 83.136c-0.0396878,-1.65838 -0.134371,-3.36524 0.0734224,-4.76877"/>
   <path class="fil0 str0" d="M25.0762 88.2285c0.0110559,-1.44463 0.0212613,-2.89154 -0.0130403,-4.33504 -0.0388373,-1.65867 -0.134371,-3.36524 0.0734224,-4.76877"/>
  </g>
 </g>
</svg>
