<?xml version="1.0" encoding="UTF-8"?>
<!DOCTYPE svg PUBLIC "-//W3C//DTD SVG 1.1//EN" "http://www.w3.org/Graphics/SVG/1.1/DTD/svg11.dtd">
<!-- Creator: CorelDRAW -->
<svg xmlns="http://www.w3.org/2000/svg" xml:space="preserve" width="117px" height="83px" style="shape-rendering:geometricPrecision; text-rendering:geometricPrecision; image-rendering:optimizeQuality; fill-rule:evenodd; clip-rule:evenodd"
viewBox="0 0 117 82.9608"
 xmlns:xlink="http://www.w3.org/1999/xlink">
 <defs>
  <style type="text/css">
   <![CDATA[
    .str1 {stroke:black;stroke-width:0.925333;stroke-linecap:round;stroke-linejoin:round}
    .str0 {stroke:black;stroke-width:0.925616;stroke-linecap:round;stroke-linejoin:round}
    .fil0 {fill:none}
    .fil1 {fill:black;fill-rule:nonzero}
   ]]>
  </style>
 </defs>
 <g id="Layer_x0020_1">
  <metadata id="CorelCorpID_0Corel-Layer"/>
  <g id="_464424056">
   <path id="_464107568" class="fil0 str0" d="M73.4346 82.3467c2.7876,-4.44075 5.57407,-8.88206 8.36167,-13.3228 0.543881,-1.80256 1.23661,-3.09265 2.18628,-3.48372 1.58439,-2.52443 3.34223,-4.70363 4.9269,-7.22807 0.569632,-1.46355 1.08125,-2.54141 1.6523,-2.6331l25.9758 -40.2633"/>
   <path id="_464107472" class="fil0 str0" d="M60.7898 71.7659c4.05562,-4.7342 8.11039,-9.46783 12.166,-14.202 3.89149,1.11436 7.74054,-1.27622 6.3582,-7.33305 5.44079,-6.36612 10.881,-12.7325 16.3218,-19.0989 3.13453,1.31782 3.97582,-0.927031 3.26413,-3.81905 2.60961,-3.05332 5.21837,-6.10578 7.82769,-9.15882 2.58923,0.716779 3.00436,-1.42564 2.47038,-2.8906l2.51226 -2.93984"/>
   <line id="_464107376" class="fil0 str0" x1="116.483" y1="15.4998" x2="111.71" y2= "12.3236" />
   <line id="_464107280" class="fil0 str0" x1="70.3485" y1="60.6068" x2="81.7963" y2= "69.0239" />
   <line id="_464107184" class="fil0 str0" x1="72.8152" y1="57.7278" x2="83.9826" y2= "65.5402" />
   <line id="_464107088" class="fil0 str0" x1="88.9095" y1="58.3121" x2="79.5441" y2= "51.579" />
   <line id="_464106992" class="fil0 str0" x1="90.5618" y1="55.679" x2="80.7618" y2= "48.5375" />
   <line id="_464106896" class="fil0 str0" x1="101.933" y1="38.0541" x2="94.532" y2= "32.4234" />
   <line id="_464106800" class="fil0 str0" x1="103.312" y1="35.8033" x2="97.1962" y2= "31.5179" />
   <line id="_464106704" class="fil0 str0" x1="105.012" y1="33.1937" x2="99.1241" y2= "29.1081" />
   <line id="_464106608" class="fil0 str0" x1="106.318" y1="31.257" x2="99.4396" y2= "26.8061" />
   <line id="_464106512" class="fil0 str0" x1="111.693" y1="22.7946" x2="106.148" y2= "18.8907" />
   <line id="_464106416" class="fil0 str0" x1="112.777" y1="21.2453" x2="108.391" y2= "18.1569" />
   <line id="_464106320" class="fil0 str0" x1="113.491" y1="20.1389" x2="109.232" y2= "17.2952" />
   <line id="_464106224" class="fil0 str0" x1="114.373" y1="18.7727" x2="109.175" y2= "15.1732" />
   <line id="_464106128" class="fil0 str0" x1="0.462949" y1="61.3881" x2="36.8738" y2= "40.3383" />
   <line id="_464106032" class="fil0 str0" x1="6.3565" y1="55.9931" x2="0.462949" y2= "61.3881" />
   <path id="_464105864" class="fil0 str0" d="M69.6662 79.7116c1.12681,0.929012 2.25419,1.85746 3.381,2.78675 0.129037,-0.0506528 0.25864,-0.101023 0.387395,-0.151675 -0.0424465,-0.135546 -0.0848929,-0.270242 -0.127339,-0.405505 -4.17277,-3.39147 -8.34469,-6.78379 -12.5175,-10.1753 -1.82973,-33.1145 -59.1149,-51.2982 -53.9356,-14.0719"/>
   <g>
    <path id="_464105696" class="fil1" d="M78.775 50.1686l0.905525 -0.191292 0.00424465 0.023487 0.00311274 0.0232041 0.00198083 0.023487 0.000565953 0.0229211 -0.000282976 0.0232041 -0.00169786 0.0226381 -0.00254679 0.0226381 -0.00396167 0.0223551 -0.0048106 0.0217892 -0.00565953 0.0217892 -0.00707441 0.0212232 -0.00792334 0.0209403 -0.00877227 0.0203743 -0.00990417 0.0200913 -0.0107531 0.0192424 -0.011602 0.0189594 -0.012451 0.0183935 -0.0135829 0.0178275 -0.0141488 0.0169786 -0.0152807 0.0164126 -0.0158467 0.0155637 -0.0166956 0.0149978 -0.0172616 0.0141488 -0.0181105 0.0132999 -0.0189594 0.012451 -0.0195254 0.011602 -0.0200913 0.0104701 -0.0209403 0.00990417 -0.0212232 0.00848929 -0.0220722 0.00764036 -0.0226381 0.00679143 -0.0232041 0.00537655 -0.023487 0.00424465 -0.0232041 0.00311274 -0.0232041 0.00198083 -0.0232041 0.000565953 -0.0229211 -0.000282976 -0.0229211 -0.00169786 -0.0223551 -0.00254679 -0.0223551 -0.00396167 -0.0220722 -0.0048106 -0.0215062 -0.00565953 -0.0212232 -0.00707441 -0.0209403 -0.00792334 -0.0203743 -0.00877227 -0.0200913 -0.00990417 -0.0195254 -0.0107531 -0.0186764 -0.011602 -0.0183935 -0.0127339 -0.0178275 -0.0132999 -0.0169786 -0.0144318 -0.0164126 -0.0149978 -0.0155637 -0.0158467 -0.0149978 -0.0166956 -0.0141488 -0.0172616 -0.0132999 -0.0183935 -0.012451 -0.0186764 -0.011602 -0.0195254 -0.0104701 -0.0203743 -0.00990417 -0.0206573 -0.00848929 -0.0215062 -0.00764036 -0.0220722 -0.00679143 -0.0226381 -0.00537655 -0.0232041zm-49.0039 -18.4328l-0.676314 -0.632169 1.57759 -1.56146 1.64664 -1.38743 1.70946 -1.21708 1.76464 -1.04928 1.81303 -0.884867 1.85406 -0.723854 1.8883 -0.566519 1.9149 -0.41258 1.93499 -0.262319 1.94773 -0.115737 1.95395 0.0271657 1.95254 0.165541 1.94546 0.301087 1.93103 0.432671 1.91009 0.56001 1.88293 0.684237 1.8484 0.804502 1.80765 0.921371 1.7604 1.03456 1.70606 1.14407 1.64579 1.24991 1.57844 1.35234 1.5043 1.45139 1.42394 1.54675 1.33678 1.63815 1.24283 1.72701 1.14209 1.81162 1.03428 1.89255 0.920239 1.97008 0.799125 2.04422 0.67122 2.11468 0.536806 2.1809 -0.905525 0.191292 -0.522092 -2.12147 -0.652544 -2.05639 -0.777619 -1.98819 -0.895337 -1.91688 -1.00655 -1.84161 -1.11153 -1.76294 -1.20944 -1.68116 -1.30169 -1.59514 -1.38658 -1.506 -1.46525 -1.41347 -1.53713 -1.31669 -1.60221 -1.21708 -1.66079 -1.11351 -1.71286 -1.00683 -1.75785 -0.895903 -1.79633 -0.781864 -1.82803 -0.664429 -1.8535 -0.543598 -1.87161 -0.419088 -1.88321 -0.291466 -1.88858 -0.160448 -1.88717 -0.0260338 -1.87925 0.111776 -1.86481 0.252698 -1.84416 0.397299 -1.81699 0.545013 -1.78388 0.696688 -1.74512 0.851476 -1.69899 1.01023 -1.64777 1.17294 -1.58948 1.33933 -1.52553 1.50996zm-0.676314 -0.632169l0.676314 0.632169 -0.0166956 0.0169786 -0.0172616 0.0158467 -0.0181105 0.0149978 -0.0183935 0.0138658 -0.0192424 0.0127339 -0.0195254 0.011885 -0.0198083 0.0107531 -0.0203743 0.0096212 -0.0209403 0.00848929 -0.0209403 0.00764036 -0.0215062 0.00650846 -0.0215062 0.00565953 -0.0220722 0.00424465 -0.0217892 0.00339572 -0.0220722 0.00254679 -0.0223551 0.00113191 -0.0220722 0.000282976 -0.0223551 -0.000848929 -0.0220722 -0.00198083 -0.0220722 -0.00282976 -0.0220722 -0.00396167 -0.0217892 -0.00509358 -0.0215062 -0.00622548 -0.0212232 -0.00735739 -0.0212232 -0.00820632 -0.0206573 -0.00933822 -0.0200913 -0.0104701 -0.0200913 -0.0113191 -0.0192424 -0.0127339 -0.0189594 -0.0135829 -0.0183935 -0.0147148 -0.0178275 -0.0158467 -0.0169786 -0.0166956 -0.0158467 -0.0172616 -0.0149978 -0.0181105 -0.0138658 -0.0183935 -0.0127339 -0.0192424 -0.011885 -0.0195254 -0.0107531 -0.0198083 -0.0096212 -0.0203743 -0.00848929 -0.0209403 -0.00764036 -0.0209403 -0.00650846 -0.0215062 -0.00565953 -0.0215062 -0.00424465 -0.0220722 -0.00339572 -0.0217892 -0.00254679 -0.0220722 -0.00113191 -0.0223551 -0.000282976 -0.0220722 0.000848929 -0.0223551 0.00198083 -0.0220722 0.00282976 -0.0220722 0.00396167 -0.0220722 0.00509358 -0.0217892 0.00622548 -0.0215062 0.00735739 -0.0212232 0.00820632 -0.0212232 0.00933822 -0.0206573 0.0104701 -0.0200913 0.0113191 -0.0200913 0.0127339 -0.0192424 0.0135829 -0.0189594 0.0147148 -0.0183935 0.0158467 -0.0178275z"/>
   </g>
   <g>
    <path class="fil1" d="M72.4954 57.6064l0.921937 -0.084327 0.00169786 0.02377 0.000282976 0.023487 -0.000848929 0.023487 -0.00198083 0.0229211 -0.00311274 0.0229211 -0.00424465 0.0223551 -0.00537655 0.0220722 -0.00622548 0.0217892 -0.00735739 0.0212232 -0.00848929 0.0209403 -0.00933822 0.0203743 -0.0101872 0.0198083 -0.0113191 0.0192424 -0.012168 0.0186764 -0.0127339 0.0181105 -0.0138658 0.0172616 -0.0147148 0.0166956 -0.0152807 0.0161297 -0.0161297 0.0152807 -0.0169786 0.0144318 -0.0175445 0.0138658 -0.0183935 0.0127339 -0.0189594 0.012168 -0.0195254 0.0110361 -0.0200913 0.0101872 -0.0209403 0.00905525 -0.0212232 0.00848929 -0.0217892 0.00707441 -0.0223551 0.00622548 -0.0226381 0.0048106 -0.0232041 0.00396167 -0.02377 0.00282976 -0.02377 0.00169786 -0.023487 0.000282976 -0.023487 -0.000848929 -0.0229211 -0.00198083 -0.0229211 -0.00311274 -0.0223551 -0.00424465 -0.0220722 -0.00537655 -0.0217892 -0.00622548 -0.0212232 -0.00735739 -0.0206573 -0.00848929 -0.0203743 -0.00933822 -0.0198083 -0.0101872 -0.0192424 -0.0113191 -0.0186764 -0.012168 -0.0181105 -0.0127339 -0.0172616 -0.0138658 -0.0169786 -0.0147148 -0.0158467 -0.0152807 -0.0152807 -0.0164126 -0.0144318 -0.0166956 -0.0138658 -0.0178275 -0.0127339 -0.0181105 -0.012168 -0.0189594 -0.0110361 -0.0195254 -0.0101872 -0.0203743 -0.00933822 -0.0206573 -0.00820632 -0.0212232 -0.00707441 -0.0220722 -0.00622548 -0.0223551 -0.0048106 -0.0226381 -0.00396167 -0.0232041 -0.00282976 -0.02377zm-42.8463 -25.7772l-0.432388 -0.818934 1.96697 -0.949103 1.96895 -0.774506 1.96669 -0.605287 1.96046 -0.44116 1.94942 -0.283825 1.93443 -0.13215 1.91547 0.0135829 1.89226 0.152807 1.8651 0.286372 1.8334 0.413146 1.7986 0.533977 1.75983 0.648299 1.7171 0.756396 1.67126 0.858833 1.62089 0.954762 1.56741 1.0439 1.51025 1.12823 1.44941 1.20548 1.38489 1.27764 1.31697 1.34272 1.24538 1.40243 1.17011 1.45648 1.09059 1.5043 1.00825 1.5459 0.921654 1.58184 0.831951 1.6124 0.73772 1.63645 0.63981 1.65456 0.538504 1.66786 0.432954 1.67409 0.323725 1.67522 0.210251 1.67013 -0.921937 0.084327 -0.202328 -1.60844 -0.312406 -1.61693 -0.418805 -1.61976 -0.522092 -1.61636 -0.621699 -1.60702 -0.717345 -1.59118 -0.809313 -1.56939 -0.89845 -1.54109 -0.982777 -1.50742 -1.06399 -1.46695 -1.14124 -1.42082 -1.21482 -1.36847 -1.28471 -1.3099 -1.35036 -1.24538 -1.41262 -1.17492 -1.47119 -1.0988 -1.52496 -1.01617 -1.57618 -0.928163 -1.62259 -0.833932 -1.6656 -0.733758 -1.70493 -0.628491 -1.74031 -0.516432 -1.77228 -0.399563 -1.80058 -0.276185 -1.82491 -0.147714 -1.84699 -0.0130169 -1.86425 0.127056 -1.87925 0.273638 -1.89085 0.42588 -1.89877 0.584346 -1.90387 0.748473 -1.90585 0.919673zm-0.432388 -0.818934l0.432388 0.818934 -0.0212232 0.0104701 -0.0217892 0.0096212 -0.0217892 0.00820632 -0.0220722 0.00707441 -0.0220722 0.00565953 -0.0223551 0.0048106 -0.0223551 0.00367869 -0.0226381 0.00254679 -0.0223551 0.00141488 -0.0223551 0.000282976 -0.0223551 -0.000848929 -0.0223551 -0.00198083 -0.0220722 -0.00282976 -0.0217892 -0.00396167 -0.0217892 -0.00509358 -0.0212232 -0.0059425 -0.0212232 -0.00707441 -0.0206573 -0.00792334 -0.0203743 -0.00905525 -0.0198083 -0.0101872 -0.0195254 -0.0110361 -0.0189594 -0.011885 -0.0181105 -0.0127339 -0.0178275 -0.0138658 -0.0172616 -0.0147148 -0.0164126 -0.0155637 -0.0158467 -0.0166956 -0.0149978 -0.0172616 -0.0141488 -0.0181105 -0.0135829 -0.0192424 -0.012451 -0.0200913 -0.011602 -0.0206573 -0.0104701 -0.0212232 -0.00933822 -0.0217892 -0.00820632 -0.0217892 -0.00707441 -0.0220722 -0.0059425 -0.0223551 -0.0048106 -0.0223551 -0.00339572 -0.0223551 -0.00254679 -0.0223551 -0.00141488 -0.0226381 -0.000282976 -0.0223551 0.000848929 -0.0223551 0.00169786 -0.0223551 0.00311274 -0.0220722 0.00396167 -0.0217892 0.00509358 -0.0217892 0.0059425 -0.0212232 0.00707441 -0.0212232 0.00792334 -0.0206573 0.00905525 -0.0203743 0.0101872 -0.0198083 0.0107531 -0.0195254 0.011885 -0.0189594 0.0130169 -0.0183935 0.0138658 -0.0178275 0.0147148 -0.0169786 0.0155637 -0.0166956 0.0164126 -0.0155637 0.0172616 -0.0152807 0.0183935 -0.0141488 0.0189594 -0.0132999 0.0200913 -0.0127339 0.0206573 -0.011602z"/>
   </g>
   <path class="fil0 str0" d="M14.2912 38.7166l15.2168 -7.15704m17.3623 -8.16528l21.7827 -10.2463m7.93607 -3.73246l5.27327 -2.48085"/>
   <g>
    <path class="fil1" d="M111.268 12.2353l0.920239 0.0996077 -0.00311274 0.023487 -0.00424465 0.0232041 -0.00537655 0.0229211 -0.00650846 0.0220722 -0.00764036 0.0217892 -0.00848929 0.0212232 -0.0096212 0.0203743 -0.0104701 0.0200913 -0.011602 0.0195254 -0.012168 0.0186764 -0.0132999 0.0181105 -0.0138658 0.0172616 -0.0147148 0.0166956 -0.0155637 0.0158467 -0.0164126 0.0152807 -0.0169786 0.0144318 -0.0175445 0.0132999 -0.0181105 0.0127339 -0.0189594 0.011885 -0.0195254 0.0107531 -0.0198083 0.00990417 -0.0206573 0.00905525 -0.0209403 0.00820632 -0.0212232 0.00679143 -0.0217892 0.00622548 -0.0223551 0.0048106 -0.0223551 0.00396167 -0.0229211 0.00254679 -0.0229211 0.00169786 -0.023487 0.000565953 -0.023487 -0.000848929 -0.02377 -0.00198083 -0.023487 -0.00311274 -0.0232041 -0.00424465 -0.0229211 -0.00565953 -0.0220722 -0.00622548 -0.0217892 -0.00764036 -0.0212232 -0.00848929 -0.0203743 -0.0096212 -0.0200913 -0.0104701 -0.0195254 -0.011602 -0.0186764 -0.012168 -0.0181105 -0.0132999 -0.0172616 -0.0138658 -0.0166956 -0.0149978 -0.0158467 -0.0155637 -0.0149978 -0.0161297 -0.0144318 -0.0169786 -0.0135829 -0.0175445 -0.0127339 -0.0183935 -0.011602 -0.0189594 -0.0110361 -0.0192424 -0.00990417 -0.0200913 -0.00905525 -0.0203743 -0.00792334 -0.0209403 -0.00707441 -0.0215062 -0.0059425 -0.0217892 -0.0048106 -0.0220722 -0.00396167 -0.0226381 -0.00254679 -0.0229211 -0.00169786 -0.0229211 -0.000565953 -0.023487 0.000848929 -0.023487 0.00198083 -0.02377zm-19.4852 -9.60309l-0.415409 -0.827423 0.911184 -0.424748 0.923069 -0.365606 0.931841 -0.307878 0.938067 -0.250717 0.940897 -0.194971 0.940897 -0.140356 0.93835 -0.0865908 0.933256 -0.0339572 0.924484 0.0172616 0.913731 0.0681973 0.899865 0.117435 0.883169 0.165824 0.86421 0.213081 0.841855 0.259772 0.816953 0.305049 0.788938 0.349759 0.75866 0.393054 0.725269 0.436067 0.689048 0.477664 0.649714 0.518696 0.606984 0.558878 0.562274 0.597646 0.513602 0.635565 0.462101 0.672918 0.407203 0.70829 0.349193 0.743379 0.28807 0.775921 0.223834 0.807615 0.156486 0.83761 0.0863078 0.865908 0.0132999 0.892225 -0.0619718 0.917127 -0.920239 -0.0996077 0.0568783 -0.842421 -0.012168 -0.814689 -0.0783845 -0.787806 -0.141771 -0.759509 -0.202894 -0.731211 -0.260904 -0.702913 -0.316368 -0.673201 -0.36985 -0.643205 -0.420786 -0.612361 -0.468892 -0.580668 -0.5153 -0.547842 -0.558878 -0.514168 -0.59991 -0.479079 -0.638678 -0.442575 -0.674333 -0.405505 -0.707724 -0.36702 -0.738003 -0.327121 -0.766017 -0.285806 -0.790919 -0.243926 -0.812708 -0.20063 -0.832234 -0.156203 -0.848929 -0.110644 -0.862795 -0.0642356 -0.873548 -0.0166956 -0.881755 0.0322593 -0.886848 0.0820632 -0.889961 0.132433 -0.889395 0.184218 -0.886565 0.237134 -0.880906 0.2909 -0.872699 0.345797 -0.861946 0.401544zm-0.415409 -0.827423l0.415409 0.827423 -0.0215062 0.0101872 -0.0217892 0.00877227 -0.0220722 0.00792334 -0.0220722 0.00650846 -0.0223551 0.00537655 -0.0223551 0.00424465 -0.0226381 0.00311274 -0.0223551 0.00226381 -0.0223551 0.000848929 -0.0226381 -0.000282976 -0.0223551 -0.00113191 -0.0220722 -0.00254679 -0.0220722 -0.00339572 -0.0217892 -0.00424465 -0.0215062 -0.00565953 -0.0212232 -0.00650846 -0.0209403 -0.00735739 -0.0203743 -0.00848929 -0.0200913 -0.00933822 -0.0198083 -0.0104701 -0.0192424 -0.0113191 -0.0186764 -0.012451 -0.0181105 -0.0132999 -0.0175445 -0.0141488 -0.0166956 -0.0149978 -0.0161297 -0.0158467 -0.0155637 -0.0169786 -0.0144318 -0.0175445 -0.0138658 -0.0186764 -0.0130169 -0.0192424 -0.012168 -0.0203743 -0.0113191 -0.0209403 -0.0101872 -0.0215062 -0.00877227 -0.0217892 -0.00792334 -0.0220722 -0.00650846 -0.0220722 -0.00537655 -0.0223551 -0.00424465 -0.0226381 -0.00311274 -0.0223551 -0.00226381 -0.0226381 -0.000848929 -0.0223551 0.000282976 -0.0223551 0.00113191 -0.0223551 0.00254679 -0.0223551 0.00339572 -0.0217892 0.00424465 -0.0220722 0.00537655 -0.0215062 0.00650846 -0.0212232 0.00764036 -0.0209403 0.00848929 -0.0203743 0.00933822 -0.0200913 0.0104701 -0.0198083 0.0113191 -0.0192424 0.012451 -0.0186764 0.0130169 -0.0181105 0.0141488 -0.0175445 0.0152807 -0.0166956 0.0158467 -0.0161297 0.0166956 -0.0155637 0.0178275 -0.0144318 0.0183935 -0.0138658 0.0195254 -0.0130169 0.0200913 -0.012168 0.0209403 -0.0113191z"/>
   </g>
   <g>
    <path class="fil1" d="M95.1205 31.0057l0.924201 -0.0418805 0.000565953 0.02377 -0.000848929 0.023487 -0.00198083 0.023487 -0.00311274 0.0229211 -0.00396167 0.0226381 -0.00537655 0.0220722 -0.00622548 0.0217892 -0.00735739 0.0215062 -0.00820632 0.0209403 -0.00933822 0.0203743 -0.0104701 0.0198083 -0.0110361 0.0192424 -0.012168 0.0186764 -0.0127339 0.0181105 -0.0138658 0.0175445 -0.0147148 0.0166956 -0.0152807 0.0161297 -0.0161297 0.0152807 -0.0166956 0.0144318 -0.0175445 0.0138658 -0.0183935 0.0127339 -0.0186764 0.012168 -0.0195254 0.0110361 -0.0200913 0.0101872 -0.0203743 0.00933822 -0.0212232 0.00820632 -0.0217892 0.00707441 -0.0220722 0.00622548 -0.0223551 0.00509358 -0.0232041 0.00396167 -0.0232041 0.00282976 -0.02377 0.00169786 -0.02377 0.000565953 -0.023487 -0.000848929 -0.0232041 -0.00198083 -0.0229211 -0.00311274 -0.0226381 -0.00396167 -0.0223551 -0.00537655 -0.0217892 -0.00622548 -0.0212232 -0.00735739 -0.0209403 -0.00848929 -0.0203743 -0.00905525 -0.0198083 -0.0104701 -0.0195254 -0.0110361 -0.0186764 -0.012168 -0.0181105 -0.0130169 -0.0172616 -0.0135829 -0.0166956 -0.0147148 -0.0161297 -0.0152807 -0.0152807 -0.0161297 -0.0144318 -0.0166956 -0.0138658 -0.0175445 -0.0127339 -0.0183935 -0.012168 -0.0186764 -0.0110361 -0.0195254 -0.0101872 -0.0200913 -0.00933822 -0.0206573 -0.00820632 -0.0212232 -0.00707441 -0.0215062 -0.00622548 -0.0220722 -0.00509358 -0.0226381 -0.00396167 -0.0229211 -0.00282976 -0.023487 -0.00169786 -0.02377zm-26.2981 -17.4271l-0.339006 -0.86138 1.16218 -0.414277 1.1735 -0.333063 1.18114 -0.252698 1.18539 -0.174313 1.18652 -0.0984758 1.18482 -0.02377 1.18058 0.0486719 1.17237 0.119699 1.16162 0.188179 1.14804 0.255811 1.13106 0.320612 1.11125 0.383999 1.08918 0.445405 1.06371 0.505113 1.03513 0.563123 1.00372 0.619152 0.970043 0.673767 0.932407 0.726118 0.892508 0.77677 0.849495 0.826008 0.80337 0.873265 0.754415 0.918824 0.702913 0.962686 0.64745 1.00485 0.589723 1.04475 0.5286 1.08352 0.464647 1.12002 0.397582 1.15483 0.327121 1.18737 0.254113 1.2185 0.177992 1.24764 0.0987588 1.27453 -0.924201 0.0418805 -0.0942312 -1.2151 -0.169503 -1.18878 -0.242228 -1.16077 -0.31184 -1.13134 -0.378905 -1.1005 -0.442575 -1.06739 -0.504264 -1.03315 -0.562557 -0.997209 -0.618586 -0.959573 -0.67122 -0.919673 -0.721024 -0.878076 -0.768847 -0.835346 -0.812708 -0.790353 -0.854023 -0.743379 -0.892791 -0.69499 -0.928163 -0.644903 -0.961271 -0.592553 -0.990417 -0.539353 -1.01787 -0.483041 -1.04164 -0.426163 -1.06258 -0.36702 -1.08069 -0.306463 -1.09597 -0.243926 -1.10785 -0.17969 -1.11747 -0.11404 -1.12398 -0.0464081 -1.12766 0.0226381 -1.12879 0.0933822 -1.12653 0.165824 -1.12228 0.240247 -1.11464 0.316085 -1.10502 0.393903zm-0.339006 -0.86138l0.339006 0.86138 -0.0223551 0.00820632 -0.0226381 0.00679143 -0.0226381 0.0059425 -0.0226381 0.00452762 -0.0226381 0.00339572 -0.0226381 0.00226381 -0.0226381 0.00113191 -0.0226381 0 -0.0226381 -0.00113191 -0.0220722 -0.00226381 -0.0223551 -0.00339572 -0.0217892 -0.00424465 -0.0215062 -0.00537655 -0.0215062 -0.00622548 -0.0209403 -0.00735739 -0.0203743 -0.00848929 -0.0200913 -0.00933822 -0.0198083 -0.0101872 -0.0192424 -0.0113191 -0.0186764 -0.012168 -0.0181105 -0.0130169 -0.0172616 -0.0138658 -0.0169786 -0.0149978 -0.0161297 -0.0155637 -0.0152807 -0.0164126 -0.0147148 -0.0175445 -0.0138658 -0.0181105 -0.0130169 -0.0189594 -0.011885 -0.0195254 -0.0113191 -0.0206573 -0.0101872 -0.0212232 -0.00933822 -0.0217892 -0.00820632 -0.0223551 -0.00679143 -0.0226381 -0.0059425 -0.0226381 -0.00452762 -0.0226381 -0.00339572 -0.0226381 -0.00198083 -0.0226381 -0.00113191 -0.0229211 0 -0.0223551 0.00113191 -0.0226381 0.00198083 -0.0223551 0.00339572 -0.0220722 0.00424465 -0.0217892 0.00537655 -0.0217892 0.00650846 -0.0212232 0.00735739 -0.0209403 0.00820632 -0.0206573 0.00933822 -0.0200913 0.0104701 -0.0198083 0.0110361 -0.0192424 0.012168 -0.0186764 0.0130169 -0.0181105 0.0138658 -0.0172616 0.0149978 -0.0169786 0.0155637 -0.0161297 0.0164126 -0.0152807 0.0175445 -0.0147148 0.0181105 -0.0138658 0.0189594 -0.0130169 0.0195254 -0.012168 0.0206573 -0.0113191 0.0212232 -0.0101872 0.0217892 -0.00933822z"/>
   </g>
   <g>
    <path class="fil1" d="M98.4435 27.3884l0.912882 -0.151109 0.00339572 0.023487 0.00198083 0.023487 0.000848929 0.023487 -0.000282976 0.0232041 -0.00141488 0.0229211 -0.00254679 0.0226381 -0.00367869 0.0223551 -0.0048106 0.0220722 -0.0059425 0.0217892 -0.00679143 0.0212232 -0.00764036 0.0212232 -0.00905525 0.0203743 -0.0096212 0.0200913 -0.0107531 0.0195254 -0.011602 0.0189594 -0.012451 0.0181105 -0.0132999 0.0178275 -0.0141488 0.0172616 -0.0149978 0.0164126 -0.0158467 0.0155637 -0.0166956 0.0149978 -0.0172616 0.0141488 -0.0178275 0.0132999 -0.0189594 0.012451 -0.0192424 0.011602 -0.0200913 0.0107531 -0.0206573 0.00990417 -0.0212232 0.00877227 -0.0217892 0.00764036 -0.0223551 0.00650846 -0.0226381 0.00565953 -0.023487 0.00452762 -0.023487 0.00339572 -0.023487 0.00198083 -0.023487 0.000848929 -0.0229211 -0.000282976 -0.0229211 -0.00141488 -0.0226381 -0.00254679 -0.0226381 -0.00367869 -0.0220722 -0.0048106 -0.0215062 -0.0059425 -0.0215062 -0.00679143 -0.0209403 -0.00792334 -0.0203743 -0.00877227 -0.0200913 -0.0096212 -0.0195254 -0.0107531 -0.0189594 -0.011602 -0.0183935 -0.012451 -0.0175445 -0.0132999 -0.0172616 -0.0144318 -0.0164126 -0.0149978 -0.0155637 -0.0155637 -0.0149978 -0.0166956 -0.0141488 -0.0172616 -0.0132999 -0.0181105 -0.012451 -0.0186764 -0.011602 -0.0192424 -0.0107531 -0.0200913 -0.00990417 -0.0206573 -0.00877227 -0.0212232 -0.00764036 -0.0217892 -0.00650846 -0.0223551 -0.00565953 -0.0229211 -0.00452762 -0.023487zm-34.4334 -11.5938l-0.712535 -0.590289 0.991832 -1.09823 1.06286 -0.987022 1.12653 -0.876944 1.18454 -0.768281 1.23576 -0.66075 1.28047 -0.5552 1.31867 -0.451064 1.35065 -0.349193 1.37725 -0.248736 1.39649 -0.15026 1.41035 -0.0537655 1.41856 0.0413146 1.42026 0.134131 1.41658 0.225532 1.40639 0.315236 1.39111 0.402958 1.36961 0.489549 1.34187 0.574159 1.30905 0.657071 1.26972 0.738851 1.22444 0.818651 1.17322 0.897318 1.11634 0.974288 1.05296 1.04956 0.983909 1.12342 0.908354 1.19586 0.826857 1.26632 0.739134 1.33508 0.645186 1.40271 0.54473 1.46752 0.438896 1.5309 0.326272 1.59203 -0.912882 0.151109 -0.312123 -1.52241 -0.419088 -1.46299 -0.520394 -1.4013 -0.616323 -1.33933 -0.705743 -1.27566 -0.790636 -1.21029 -0.868738 -1.14379 -0.942029 -1.07588 -1.00938 -1.00542 -1.0705 -0.934671 -1.12625 -0.861097 -1.17633 -0.786391 -1.21991 -0.709988 -1.25811 -0.631603 -1.29037 -0.552087 -1.31641 -0.470307 -1.33621 -0.387112 -1.35093 -0.302785 -1.35885 -0.216477 -1.36083 -0.128471 -1.35744 -0.0396167 -1.34753 0.0515017 -1.33197 0.142903 -1.31046 0.236851 -1.2833 0.331648 -1.25019 0.42786 -1.21199 0.525204 -1.16784 0.624529 -1.11832 0.725269 -1.06371 0.827706 -1.00343 0.932124 -0.938067 1.03824zm-0.712535 -0.590289l0.712535 0.590289 -0.0155637 0.0178275 -0.0164126 0.0169786 -0.0169786 0.0161297 -0.0175445 0.0147148 -0.0183935 0.0141488 -0.0186764 0.0127339 -0.0195254 0.012168 -0.0195254 0.0107531 -0.0203743 0.00990417 -0.0203743 0.00877227 -0.0209403 0.00792334 -0.0212232 0.00679143 -0.0215062 0.00565953 -0.0217892 0.0048106 -0.0220722 0.00367869 -0.0217892 0.00254679 -0.0223551 0.00169786 -0.0220722 0.000282976 -0.0223551 -0.000565953 -0.0220722 -0.00141488 -0.0220722 -0.00282976 -0.0220722 -0.00367869 -0.0217892 -0.0048106 -0.0217892 -0.0059425 -0.0215062 -0.00707441 -0.0212232 -0.00820632 -0.0209403 -0.00905525 -0.0203743 -0.0101872 -0.0200913 -0.011602 -0.0198083 -0.012451 -0.0192424 -0.0135829 -0.0186764 -0.0147148 -0.0178275 -0.0155637 -0.0169786 -0.0164126 -0.0161297 -0.0169786 -0.0147148 -0.0178275 -0.0141488 -0.0181105 -0.0127339 -0.0189594 -0.011885 -0.0192424 -0.0110361 -0.0198083 -0.00990417 -0.0203743 -0.00877227 -0.0203743 -0.00792334 -0.0209403 -0.00679143 -0.0215062 -0.00565953 -0.0215062 -0.0048106 -0.0215062 -0.00367869 -0.0220722 -0.00254679 -0.0220722 -0.00141488 -0.0220722 -0.000565953 -0.0223551 0.000565953 -0.0220722 0.00169786 -0.0223551 0.00254679 -0.0220722 0.00396167 -0.0220722 0.0048106 -0.0217892 0.0059425 -0.0217892 0.00679143 -0.0215062 0.00820632 -0.0212232 0.00905525 -0.0209403 0.0104701 -0.0203743 0.0113191 -0.0200913 0.012451 -0.0198083 0.0135829 -0.0192424 0.0147148 -0.0186764z"/>
   </g>
   <g>
    <path class="fil1" d="M108.701 15.4655l0.912882 -0.151109 0.00339572 0.023487 0.00198083 0.023487 0.000848929 0.023487 -0.000282976 0.0232041 -0.00141488 0.0229211 -0.00254679 0.0226381 -0.00367869 0.0223551 -0.0048106 0.0220722 -0.0059425 0.0217892 -0.00679143 0.0215062 -0.00764036 0.0209403 -0.00905525 0.0203743 -0.0096212 0.0200913 -0.0107531 0.0195254 -0.011602 0.0189594 -0.012451 0.0183935 -0.0132999 0.0178275 -0.0141488 0.0169786 -0.0149978 0.0164126 -0.0158467 0.0158467 -0.0166956 0.0149978 -0.0172616 0.0141488 -0.0178275 0.0132999 -0.0189594 0.012451 -0.0192424 0.011602 -0.0200913 0.0107531 -0.0206573 0.00990417 -0.0212232 0.00848929 -0.0217892 0.00792334 -0.0223551 0.00650846 -0.0226381 0.00565953 -0.023487 0.00452762 -0.023487 0.00339572 -0.023487 0.00198083 -0.023487 0.000848929 -0.0229211 -0.000282976 -0.0229211 -0.00141488 -0.0226381 -0.00254679 -0.0226381 -0.00367869 -0.0220722 -0.0048106 -0.0215062 -0.0059425 -0.0215062 -0.00679143 -0.0209403 -0.00792334 -0.0203743 -0.00877227 -0.0200913 -0.00990417 -0.0195254 -0.0104701 -0.0189594 -0.011885 -0.0183935 -0.012451 -0.0175445 -0.0132999 -0.0172616 -0.0141488 -0.0164126 -0.0149978 -0.0155637 -0.0158467 -0.0149978 -0.0166956 -0.0141488 -0.0172616 -0.0132999 -0.0181105 -0.012451 -0.0186764 -0.011602 -0.0192424 -0.0107531 -0.0200913 -0.00990417 -0.0206573 -0.00877227 -0.0212232 -0.00764036 -0.0217892 -0.00650846 -0.0223551 -0.00565953 -0.0229211 -0.00452762 -0.023487zm-26.4891 -8.22697l-0.698952 -0.607267 0.801106 -0.848363 0.852891 -0.763753 0.900431 -0.679426 0.942312 -0.596514 0.979098 -0.514451 1.01164 -0.434369 1.03909 -0.355135 1.06173 -0.277317 1.07956 -0.200913 1.09285 -0.126207 1.10163 -0.0526336 1.10615 0.0189594 1.10587 0.0899865 1.10106 0.15875 1.09257 0.226664 1.07871 0.293164 1.06088 0.358814 1.03881 0.422484 1.01192 0.485588 0.980513 0.54671 0.945141 0.60755 0.904959 0.666975 0.860248 0.724703 0.810727 0.781864 0.756396 0.83761 0.698103 0.892225 0.634433 0.945141 0.565953 0.997492 0.493228 1.04758 0.415126 1.09653 0.332497 1.14407 0.245341 1.18935 -0.912882 0.151109 -0.230626 -1.11747 -0.312123 -1.07333 -0.389659 -1.02862 -0.462666 -0.98306 -0.53143 -0.936369 -0.596514 -0.888546 -0.656788 -0.839591 -0.713384 -0.789504 -0.765451 -0.738286 -0.813274 -0.685652 -0.856853 -0.63132 -0.895903 -0.575857 -0.930709 -0.518979 -0.960988 -0.460686 -0.986739 -0.401544 -1.00768 -0.340704 -1.02494 -0.278449 -1.03711 -0.215345 -1.04447 -0.150826 -1.04814 -0.0848929 -1.04616 -0.0183935 -1.0405 0.0498039 -1.0306 0.11885 -1.0156 0.189028 -0.996643 0.260338 -0.973439 0.332497 -0.94599 0.406071 -0.914014 0.480494 -0.878925 0.556332 -0.838742 0.633018 -0.795164 0.711686 -0.747907 0.792334zm-0.698952 -0.607267l0.698952 0.607267 -0.0161297 0.0175445 -0.0166956 0.0166956 -0.0172616 0.0155637 -0.0181105 0.0144318 -0.0186764 0.0135829 -0.0189594 0.012451 -0.0198083 0.011602 -0.0198083 0.0101872 -0.0206573 0.0096212 -0.0206573 0.00820632 -0.0212232 0.00735739 -0.0212232 0.00622548 -0.0217892 0.00537655 -0.0217892 0.00424465 -0.0220722 0.00311274 -0.0220722 0.00198083 -0.0220722 0.00113191 -0.0223551 0 -0.0220722 -0.00113191 -0.0220722 -0.00226381 -0.0220722 -0.00311274 -0.0220722 -0.00424465 -0.0217892 -0.00537655 -0.0215062 -0.00650846 -0.0212232 -0.00735739 -0.0212232 -0.00877227 -0.0206573 -0.0096212 -0.0200913 -0.0107531 -0.0200913 -0.011885 -0.0192424 -0.0130169 -0.0189594 -0.0138658 -0.0183935 -0.0152807 -0.0175445 -0.0161297 -0.0166956 -0.0166956 -0.0155637 -0.0175445 -0.0144318 -0.0178275 -0.0135829 -0.0186764 -0.012451 -0.0189594 -0.011602 -0.0198083 -0.0101872 -0.0200913 -0.0096212 -0.0203743 -0.00820632 -0.0206573 -0.00735739 -0.0212232 -0.00622548 -0.0215062 -0.00537655 -0.0215062 -0.00424465 -0.0220722 -0.00311274 -0.0220722 -0.00198083 -0.0220722 -0.00113191 -0.0220722 0 -0.0223551 0.00113191 -0.0220722 0.00226381 -0.0223551 0.00311274 -0.0220722 0.00424465 -0.0217892 0.00537655 -0.0220722 0.00650846 -0.0215062 0.00735739 -0.0212232 0.00877227 -0.0209403 0.0096212 -0.0206573 0.0107531 -0.0203743 0.011885 -0.0200913 0.0130169 -0.0192424 0.0138658 -0.0189594 0.0152807 -0.0183935z"/>
   </g>
   <g>
    <path class="fil1" d="M106.333 18.1883l0.925333 -0.0215062 0 0.02377 -0.00141488 0.023487 -0.00226381 0.0232041 -0.00367869 0.0229211 -0.00452762 0.0226381 -0.0059425 0.0220722 -0.00679143 0.0217892 -0.00764036 0.0212232 -0.00877227 0.0206573 -0.00990417 0.0200913 -0.0107531 0.0198083 -0.011602 0.0189594 -0.012451 0.0183935 -0.0132999 0.0178275 -0.0141488 0.0172616 -0.0149978 0.0164126 -0.0155637 0.0158467 -0.0164126 0.0147148 -0.0172616 0.0144318 -0.0178275 0.0132999 -0.0183935 0.012451 -0.0192424 0.011602 -0.0198083 0.0107531 -0.0200913 0.0096212 -0.0209403 0.00877227 -0.0212232 0.00764036 -0.0217892 0.00679143 -0.0223551 0.00565953 -0.0226381 0.0048106 -0.0229211 0.00339572 -0.023487 0.00226381 -0.02377 0.00113191 -0.02377 0 -0.023487 -0.00141488 -0.0232041 -0.00226381 -0.0229211 -0.00367869 -0.0226381 -0.00452762 -0.0220722 -0.0059425 -0.0215062 -0.00679143 -0.0212232 -0.00764036 -0.0206573 -0.00877227 -0.0203743 -0.00990417 -0.0195254 -0.0107531 -0.0189594 -0.011602 -0.0186764 -0.012451 -0.0178275 -0.0132999 -0.0169786 -0.0141488 -0.0164126 -0.0149978 -0.0158467 -0.0155637 -0.0149978 -0.0166956 -0.0141488 -0.0169786 -0.0132999 -0.0178275 -0.012451 -0.0186764 -0.011602 -0.0189594 -0.0107531 -0.0198083 -0.0096212 -0.0203743 -0.00877227 -0.0206573 -0.00764036 -0.0212232 -0.00679143 -0.0220722 -0.00565953 -0.0220722 -0.0048106 -0.0226381 -0.00339572 -0.0232041 -0.00226381 -0.023487 -0.00113191 -0.02377zm-24.229 -10.8584l-0.482758 -0.79007 1.107 -0.633584 1.11549 -0.551804 1.12087 -0.472005 1.12313 -0.39362 1.12313 -0.316934 1.12002 -0.242228 1.11408 -0.168371 1.10531 -0.0973439 1.0937 -0.0271657 1.07956 0.0404656 1.06229 0.107248 1.04249 0.171201 1.02013 0.234022 0.994379 0.294861 0.966647 0.354004 0.93552 0.411448 0.902129 0.466911 0.865625 0.520677 0.826574 0.572744 0.784977 0.623114 0.739983 0.671786 0.692726 0.718194 0.642922 0.763187 0.58944 0.806483 0.533694 0.847797 0.475117 0.886848 0.413429 0.924767 0.349193 0.959573 0.281845 0.993813 0.211949 1.02494 0.139507 1.05409 0.0642356 1.08182 -0.925333 0.0215062 -0.060274 -1.01504 -0.130452 -0.987871 -0.198366 -0.95929 -0.263734 -0.928729 -0.326555 -0.897318 -0.386263 -0.86421 -0.44399 -0.829121 -0.499736 -0.7929 -0.551521 -0.754981 -0.602174 -0.715081 -0.649714 -0.673484 -0.694707 -0.630471 -0.737437 -0.585195 -0.777336 -0.538787 -0.814689 -0.490115 -0.850061 -0.439745 -0.881755 -0.388244 -0.91175 -0.333629 -0.938916 -0.278449 -0.963535 -0.221005 -0.985324 -0.162145 -1.00513 -0.101023 -1.02126 -0.0387678 -1.03598 0.0260338 -1.04758 0.0922503 -1.05692 0.159882 -1.06343 0.229777 -1.06767 0.301087 -1.06937 0.374944 -1.0688 0.449933 -1.06512 0.526902 -1.05946 0.606418zm-0.482758 -0.79007l0.482758 0.79007 -0.0206573 0.011885 -0.0209403 0.0107531 -0.0212232 0.0096212 -0.0215062 0.00848929 -0.0217892 0.00707441 -0.0220722 0.00622548 -0.0220722 0.00509358 -0.0223551 0.00367869 -0.0223551 0.00282976 -0.0223551 0.00169786 -0.0223551 0.000565953 -0.0220722 -0.000282976 -0.0223551 -0.00169786 -0.0220722 -0.00254679 -0.0217892 -0.00367869 -0.0217892 -0.0048106 -0.0215062 -0.00565953 -0.0212232 -0.00679143 -0.0206573 -0.00764036 -0.0206573 -0.00877227 -0.0200913 -0.0096212 -0.0195254 -0.0107531 -0.0192424 -0.011885 -0.0183935 -0.012451 -0.0181105 -0.0135829 -0.0175445 -0.0147148 -0.0166956 -0.0152807 -0.0161297 -0.0164126 -0.0152807 -0.0172616 -0.0147148 -0.0183935 -0.0135829 -0.0189594 -0.0130169 -0.0200913 -0.011885 -0.0206573 -0.0107531 -0.0209403 -0.0096212 -0.0212232 -0.00848929 -0.0215062 -0.00707441 -0.0217892 -0.00622548 -0.0220722 -0.00509358 -0.0220722 -0.00367869 -0.0223551 -0.00282976 -0.0223551 -0.00169786 -0.0223551 -0.000565953 -0.0223551 0.000282976 -0.0223551 0.00169786 -0.0223551 0.00254679 -0.0220722 0.00367869 -0.0217892 0.0048106 -0.0217892 0.00565953 -0.0215062 0.00679143 -0.0212232 0.00764036 -0.0209403 0.00877227 -0.0203743 0.0096212 -0.0200913 0.0107531 -0.0198083 0.011885 -0.0189594 0.012451 -0.0186764 0.0135829 -0.0181105 0.0147148 -0.0172616 0.0152807 -0.0169786 0.0164126 -0.0161297 0.0172616 -0.0152807 0.0183935 -0.0147148 0.0189594 -0.0135829 0.0200913 -0.0130169z"/>
   </g>
   <line class="fil0 str1" x1="11.3046" y1="17.5567" x2="20.9516" y2= "10.4684" />
   <line class="fil0 str1" x1="12.2274" y1="15.2952" x2="12.7784" y2= "18.016" />
   <g>
    <path class="fil0 str1" d="M13.1332 14.6324c0.183652,0.906939 0.367303,1.81388 0.550955,2.72082"/>
    <path class="fil0 str1" d="M14.0387 13.97c0.183652,0.906939 0.367303,1.81388 0.550672,2.72082"/>
    <path class="fil0 str1" d="M14.944 13.3081c0.183652,0.906939 0.367303,1.81388 0.550955,2.72054"/>
    <path class="fil0 str1" d="M15.8495 12.6457c0.183652,0.906939 0.367303,1.81388 0.550955,2.72054"/>
    <path class="fil0 str1" d="M16.755 11.9829c0.183652,0.906939 0.367303,1.81388 0.550672,2.72082"/>
    <path class="fil0 str1" d="M17.6606 11.3205c0.183652,0.906939 0.367303,1.81388 0.550672,2.72082"/>
    <path class="fil0 str1" d="M18.5658 10.6586c0.183652,0.906939 0.367303,1.81388 0.550955,2.72054"/>
    <path class="fil0 str1" d="M19.4713 9.99614c0.183652,0.906939 0.367303,1.81388 0.550672,2.72054"/>
   </g>
   <line class="fil0 str1" x1="20.3766" y1="9.33369" x2="20.9272" y2= "12.0542" />
   <line class="fil0 str1" x1="24.3456" y1="3.90989" x2="26.2291" y2= "2.72591" />
   <line class="fil0 str1" x1="24.1772" y1="5.70962" x2="25.9586" y2= "4.34963" />
   <line class="fil0 str1" x1="25.96" y1="7.96975" x2="27.5724" y2= "6.59929" />
   <line class="fil0 str1" x1="28.2215" y1="8.90216" x2="29.8232" y2= "7.70064" />
   <polygon class="fil0 str1" points="26.2291,2.72591 25.9586,4.34963 27.5724,6.59929 29.8232,7.70064 30.15,6.08031 28.434,3.65492 "/>
   <path class="fil0 str1" d="M28.5665 8.81047c0.0823461,1.6124 -3.15066,1.00966 -4.52564,-0.454177 -1.89226,-2.01508 -1.32178,-5.31684 0.550672,-4.81201 0.0707441,0.0189594 0.143469,0.0435784 0.217892,0.0738568"/>
   <g>
    <path class="fil1" d="M27.2022 11.0596l-0.825159 0.419937 -0.0104701 -0.0215062 -0.00905525 -0.0220722 -0.00792334 -0.0220722 -0.00707441 -0.0220722 -0.00565953 -0.0226381 -0.00424465 -0.0223551 -0.00339572 -0.0226381 -0.00226381 -0.0226381 -0.00113191 -0.0223551 -0.000282976 -0.0226381 0.00113191 -0.0223551 0.00226381 -0.0223551 0.00311274 -0.0220722 0.00424465 -0.0220722 0.00509358 -0.0215062 0.00622548 -0.0215062 0.00735739 -0.0209403 0.00820632 -0.0206573 0.00933822 -0.0200913 0.0101872 -0.0198083 0.0113191 -0.0192424 0.012168 -0.0189594 0.0130169 -0.0181105 0.0141488 -0.0175445 0.0147148 -0.0169786 0.0158467 -0.0164126 0.0166956 -0.0155637 0.0178275 -0.0147148 0.0183935 -0.0138658 0.0192424 -0.0132999 0.0200913 -0.012168 0.0209403 -0.0113191 0.0215062 -0.0101872 0.0217892 -0.00905525 0.0220722 -0.00792334 0.0220722 -0.00679143 0.0223551 -0.00537655 0.0223551 -0.00424465 0.0226381 -0.00339572 0.0226381 -0.00198083 0.0223551 -0.00113191 0.0226381 0.000282976 0.0223551 0.00113191 0.0223551 0.00226381 0.0220722 0.00311274 0.0217892 0.00452762 0.0217892 0.00537655 0.0212232 0.00650846 0.0212232 0.00735739 0.0206573 0.00848929 0.0200913 0.00933822 0.0198083 0.0104701 0.0195254 0.0113191 0.0186764 0.012168 0.0183935 0.0132999 0.0175445 0.0141488 0.0172616 0.0149978 0.0161297 0.0161297 0.0158467 0.0166956 0.0147148 0.0178275 0.0141488 0.0183935 0.0132999 0.0195254 0.012451 0.0203743 0.0113191 0.0209403zm-4.64223 -0.0990417l0.610663 -0.695556 0 0 0.168654 0.143752 0.174031 0.139224 0.178275 0.133565 0.18252 0.128188 0.184501 0.122529 0.186764 0.11602 0.18733 0.109512 0.186481 0.102154 0.185633 0.0947971 0.183369 0.0871567 0.17969 0.0789504 0.174879 0.0704611 0.16922 0.0616889 0.162145 0.0526336 0.153656 0.0430124 0.143752 0.0336742 0.132716 0.024053 0.118567 0.0147148 0.10272 0.00537655 0.084327 -0.00226381 0.0636697 -0.00820632 0.0398997 -0.0101872 0.0155637 -0.00650846 -0.00424465 0.00396167 -0.0141488 0.0158467 -0.0110361 0.0198083 -0.00254679 0.00848929 0.000848929 -0.0166956 -0.00509358 -0.0452762 -0.0186764 -0.0758377 -0.0376359 -0.103003 -0.059425 -0.127056 0.825159 -0.419937 0.0899865 0.193273 0.0681973 0.187896 0.0458422 0.186198 0.0192424 0.188462 -0.0132999 0.189877 -0.0523506 0.18733 -0.0953631 0.172616 -0.131301 0.143186 -0.152524 0.105833 -0.16158 0.0710271 -0.164409 0.0430124 -0.166673 0.0223551 -0.16922 0.00509358 -0.172333 -0.00933822 -0.17686 -0.0215062 -0.181388 -0.0331082 -0.186198 -0.0432954 -0.191009 -0.0537655 -0.195537 -0.0633867 -0.199781 -0.072442 -0.202611 -0.0817802 -0.205724 -0.0902695 -0.207705 -0.0990417 -0.209403 -0.106682 -0.210251 -0.115171 -0.209403 -0.122529 -0.208837 -0.129603 -0.207139 -0.137244 -0.204592 -0.144035 -0.201479 -0.151109 -0.196669 -0.157335 -0.191858 -0.16356 0 0zm-1.36876 -5.98891l-0.389942 0.84044 -0.149412 -0.0628208 -0.118001 -0.036504 -0.0826291 -0.0147148 -0.0447103 -0.000848929 -0.00820632 0.00141488 0.0144318 -0.00707441 0.0166956 -0.0141488 0.00367869 -0.00424465 -0.00792334 0.0215062 -0.0104701 0.0534825 -0.00537655 0.084044 0.0048106 0.110927 0.0178275 0.134131 0.0311274 0.154505 0.0452762 0.170635 0.059708 0.185633 0.0738568 0.198083 0.0874397 0.209403 0.100457 0.217892 0.113757 0.226098 0.126207 0.231475 0.138658 0.237134 0.149978 0.24053 0.16158 0.242511 0.172616 0.243926 0.182803 0.243077 0.193273 0.241662 0.202894 0.239398 0.211949 0.235153 0.221005 0.23006 0.228928 0.223834 0.237134 0.21676 -0.610663 0.695556 -0.260904 -0.238266 -0.251 -0.245341 -0.241379 -0.251566 -0.231192 -0.25666 -0.221005 -0.260338 -0.210251 -0.263168 -0.199215 -0.265149 -0.187896 -0.265432 -0.17686 -0.265149 -0.164692 -0.263734 -0.152807 -0.260904 -0.140356 -0.258075 -0.127339 -0.253264 -0.114605 -0.247887 -0.101023 -0.242228 -0.0874397 -0.235436 -0.0732909 -0.228079 -0.0588591 -0.221005 -0.0430124 -0.213364 -0.0268828 -0.206573 -0.00820632 -0.200913 0.0127339 -0.196669 0.0404656 -0.193839 0.0758377 -0.19016 0.121397 -0.177426 0.168937 -0.147148 0.202328 -0.0970609 0.214779 -0.0438613 0.215628 0.00141488 0.215062 0.0367869 0.217609 0.0670654 0.224683 0.0945141zm-0.389942 0.84044l0.389942 -0.84044 0.0215062 0.0107531 0.0203743 0.011602 0.0198083 0.0127339 0.0192424 0.0132999 0.0181105 0.0144318 0.0172616 0.0149978 0.0164126 0.0158467 0.0155637 0.0164126 0.0149978 0.0172616 0.0135829 0.0178275 0.0130169 0.0183935 0.011885 0.0189594 0.0113191 0.0195254 0.00990417 0.0198083 0.00933822 0.0203743 0.00792334 0.0209403 0.00735739 0.0212232 0.0059425 0.0212232 0.00537655 0.0217892 0.00396167 0.0220722 0.00311274 0.0223551 0.00198083 0.0223551 0.000848929 0.0223551 -0.000282976 0.0226381 -0.00141488 0.0226381 -0.00226381 0.0226381 -0.00367869 0.0226381 -0.0048106 0.0226381 -0.00565953 0.0223551 -0.00707441 0.0223551 -0.00848929 0.0220722 -0.00933822 0.0217892 -0.0104701 0.0212232 -0.011602 0.0206573 -0.012451 0.0198083 -0.0132999 0.0189594 -0.0141488 0.0181105 -0.0149978 0.0172616 -0.0155637 0.0164126 -0.0164126 0.0155637 -0.0169786 0.0147148 -0.0178275 0.0135829 -0.0181105 0.0127339 -0.0189594 0.012168 -0.0195254 0.0107531 -0.0198083 0.00990417 -0.0200913 0.00905525 -0.0209403 0.00820632 -0.0209403 0.00707441 -0.0215062 0.0059425 -0.0215062 0.00509358 -0.0220722 0.00367869 -0.0220722 0.00311274 -0.0223551 0.00169786 -0.0223551 0.000848929 -0.0226381 -0.000565953 -0.0226381 -0.00141488 -0.0226381 -0.00254679 -0.0226381 -0.00367869 -0.0223551 -0.0048106 -0.0226381 -0.00622548 -0.0220722 -0.00707441 -0.0223551 -0.00848929 -0.0217892 -0.0096212z"/>
   </g>
   <g>
    <path class="fil1" d="M26.2554 11.8321l-0.825159 0.419937 -0.0104701 -0.0215062 -0.00905525 -0.0220722 -0.00792334 -0.0220722 -0.00707441 -0.0220722 -0.00565953 -0.0226381 -0.00424465 -0.0223551 -0.00339572 -0.0226381 -0.00226381 -0.0226381 -0.00113191 -0.0223551 -0.000282976 -0.0226381 0.00113191 -0.0223551 0.00226381 -0.0223551 0.00311274 -0.0220722 0.00424465 -0.0220722 0.00509358 -0.0215062 0.00622548 -0.0215062 0.00735739 -0.0209403 0.00820632 -0.0206573 0.00933822 -0.0200913 0.0101872 -0.0198083 0.0113191 -0.0192424 0.012168 -0.0189594 0.0130169 -0.0181105 0.0141488 -0.0175445 0.0147148 -0.0169786 0.0158467 -0.0164126 0.0166956 -0.0155637 0.0178275 -0.0147148 0.0183935 -0.0138658 0.0192424 -0.0132999 0.0200913 -0.012168 0.0209403 -0.0113191 0.0215062 -0.0101872 0.0217892 -0.00905525 0.0220722 -0.00792334 0.0220722 -0.00679143 0.0223551 -0.00537655 0.0223551 -0.00424465 0.0226381 -0.00339572 0.0226381 -0.00198083 0.0223551 -0.00113191 0.0226381 0.000282976 0.0223551 0.00113191 0.0223551 0.00226381 0.0220722 0.00311274 0.0217892 0.00452762 0.0217892 0.00537655 0.0212232 0.00650846 0.0212232 0.00735739 0.0206573 0.00848929 0.0200913 0.00933822 0.0198083 0.0104701 0.0195254 0.0113191 0.0186764 0.012168 0.0183935 0.0132999 0.0175445 0.0141488 0.0172616 0.0149978 0.0161297 0.0161297 0.0158467 0.0166956 0.0147148 0.0178275 0.0141488 0.0183935 0.0132999 0.0195254 0.012451 0.0203743 0.0113191 0.0209403zm-4.64223 -0.0993247l0.610663 -0.695556 0 0 0.168654 0.143752 0.174031 0.139224 0.178275 0.133565 0.182237 0.128188 0.185067 0.122246 0.186481 0.116303 0.18733 0.109512 0.187047 0.102154 0.18535 0.0947971 0.183086 0.0871567 0.17969 0.0789504 0.175162 0.0704611 0.168937 0.0616889 0.162145 0.0526336 0.153373 0.0430124 0.144318 0.0336742 0.132433 0.024053 0.118567 0.0147148 0.103003 0.00537655 0.08461 -0.00226381 0.0631037 -0.00792334 0.0398997 -0.0104701 0.0161297 -0.00650846 -0.0048106 0.00424465 -0.0141488 0.0158467 -0.0107531 0.0192424 -0.00254679 0.00905525 0.000565953 -0.0161297 -0.00509358 -0.0458422 -0.0186764 -0.0758377 -0.0376359 -0.103003 -0.059425 -0.127056 0.825159 -0.419937 0.0899865 0.193273 0.0681973 0.187896 0.0458422 0.186198 0.0192424 0.187896 -0.0130169 0.190443 -0.0529166 0.187896 -0.0950801 0.17205 -0.131301 0.143186 -0.15309 0.106116 -0.161014 0.0704611 -0.164409 0.0432954 -0.166673 0.0220722 -0.168937 0.00509358 -0.172616 -0.00933822 -0.17686 -0.0215062 -0.181105 -0.0331082 -0.186198 -0.0432954 -0.191292 -0.0537655 -0.195537 -0.0633867 -0.199498 -0.072442 -0.202894 -0.0817802 -0.205724 -0.0902695 -0.207988 -0.0990417 -0.20912 -0.106682 -0.209686 -0.115171 -0.209969 -0.122529 -0.208554 -0.129886 -0.207139 -0.136961 -0.204875 -0.144035 -0.201479 -0.151109 -0.196669 -0.157335 -0.191858 -0.16356 0 0zm-1.36876 -5.9892l-0.389942 0.84044 -0.149412 -0.0628208 -0.118001 -0.036504 -0.0826291 -0.0147148 -0.0447103 -0.000848929 -0.00792334 0.00141488 0.0149978 -0.00735739 0.0158467 -0.0135829 0.00367869 -0.00424465 -0.00792334 0.0217892 -0.0104701 0.0529166 -0.00537655 0.084044 0.0048106 0.111493 0.0175445 0.133848 0.0314104 0.153939 0.0452762 0.171201 0.059708 0.185633 0.0735739 0.198366 0.0871567 0.208837 0.101023 0.218175 0.113757 0.226098 0.126207 0.231758 0.138375 0.236851 0.15026 0.24053 0.16158 0.242794 0.172333 0.24336 0.183086 0.24336 0.193273 0.241945 0.202611 0.239115 0.212232 0.235153 0.220722 0.23006 0.229211 0.223834 0.237134 0.21676 -0.610663 0.695556 -0.260904 -0.238266 -0.251283 -0.245341 -0.241096 -0.251566 -0.231475 -0.25666 -0.220722 -0.260621 -0.210251 -0.262885 -0.199498 -0.264866 -0.188179 -0.265998 -0.176294 -0.264866 -0.164975 -0.263734 -0.152524 -0.261187 -0.140356 -0.257792 -0.127339 -0.253264 -0.114605 -0.24817 -0.101306 -0.242228 -0.0871567 -0.235153 -0.0732909 -0.228079 -0.0588591 -0.221005 -0.0432954 -0.213364 -0.0265998 -0.206856 -0.00820632 -0.200913 0.0127339 -0.196669 0.0404656 -0.193839 0.0758377 -0.189877 0.121397 -0.177426 0.168088 -0.146582 0.202328 -0.0979098 0.215628 -0.0438613 0.215628 0.00141488 0.215062 0.0367869 0.217609 0.0670654 0.224683 0.0945141zm-0.389942 0.84044l0.389942 -0.84044 0.0215062 0.0107531 0.0203743 0.011602 0.0198083 0.0127339 0.0192424 0.0132999 0.0181105 0.0144318 0.0172616 0.0149978 0.0164126 0.0158467 0.0158467 0.0164126 0.0147148 0.0172616 0.0138658 0.0178275 0.0127339 0.0183935 0.012168 0.0189594 0.0110361 0.0195254 0.0101872 0.0198083 0.00905525 0.0203743 0.00820632 0.0209403 0.00707441 0.0212232 0.00622548 0.0212232 0.00509358 0.0217892 0.00424465 0.0220722 0.00282976 0.0223551 0.00198083 0.0223551 0.00113191 0.0223551 -0.000282976 0.0226381 -0.00141488 0.0226381 -0.00226381 0.0226381 -0.00367869 0.0226381 -0.0048106 0.0226381 -0.00565953 0.0223551 -0.00707441 0.0223551 -0.00848929 0.0220722 -0.00933822 0.0217892 -0.0104701 0.0212232 -0.011602 0.0206573 -0.012451 0.0198083 -0.0132999 0.0189594 -0.0141488 0.0181105 -0.0149978 0.0172616 -0.0155637 0.0164126 -0.0164126 0.0155637 -0.0169786 0.0147148 -0.0178275 0.0135829 -0.0183935 0.0127339 -0.0186764 0.012168 -0.0195254 0.0107531 -0.0198083 0.00990417 -0.0203743 0.00905525 -0.0206573 0.00820632 -0.0212232 0.00707441 -0.0212232 0.0059425 -0.0217892 0.00509358 -0.0220722 0.00367869 -0.0220722 0.00311274 -0.0223551 0.00169786 -0.0223551 0.000848929 -0.0226381 -0.000565953 -0.0226381 -0.00141488 -0.0226381 -0.00254679 -0.0226381 -0.00367869 -0.0223551 -0.0048106 -0.0226381 -0.00622548 -0.0220722 -0.00707441 -0.0223551 -0.00848929 -0.0217892 -0.0096212z"/>
   </g>
   <g>
    <path class="fil1" d="M26.0047 9.49612l-0.873265 0.30618 -0.00735739 -0.0229211 -0.00622548 -0.0226381 -0.00509358 -0.0232041 -0.00367869 -0.0229211 -0.00254679 -0.0229211 -0.00141488 -0.0229211 -0.000565953 -0.0226381 0.000848929 -0.0229211 0.00198083 -0.0223551 0.00282976 -0.0223551 0.00424465 -0.0220722 0.0048106 -0.0217892 0.00622548 -0.0215062 0.00707441 -0.0212232 0.00820632 -0.0206573 0.00905525 -0.0203743 0.00990417 -0.0198083 0.0110361 -0.0195254 0.011885 -0.0186764 0.0127339 -0.0183935 0.0135829 -0.0175445 0.0147148 -0.0169786 0.0152807 -0.0164126 0.0164126 -0.0155637 0.0169786 -0.0147148 0.0178275 -0.0141488 0.0186764 -0.0130169 0.0192424 -0.012451 0.0200913 -0.0113191 0.0209403 -0.0104701 0.0215062 -0.00933822 0.0223551 -0.00848929 0.0226381 -0.00735739 0.0229211 -0.0059425 0.0226381 -0.0048106 0.0229211 -0.00367869 0.0229211 -0.00254679 0.0226381 -0.00141488 0.0229211 -0.000282976 0.0226381 0.00113191 0.0223551 0.00198083 0.0223551 0.00311274 0.0220722 0.00424465 0.0215062 0.00509358 0.0215062 0.00622548 0.0212232 0.00735739 0.0206573 0.00820632 0.0203743 0.00905525 0.0198083 0.0101872 0.0192424 0.0113191 0.0189594 0.011885 0.0181105 0.0130169 0.0178275 0.0138658 0.0169786 0.0147148 0.0164126 0.0155637 0.0155637 0.0164126 0.0147148 0.0169786 0.0141488 0.0181105 0.0132999 0.0186764 0.012168 0.0195254 0.011602 0.0203743 0.0104701 0.0209403 0.0096212 0.0217892 0.00848929 0.0223551zm-2.85891 -0.181954l0.69782 -0.607833 0 -0.000282976 0.0758377 0.0848929 0.0792334 0.0826291 0.0823461 0.0809313 0.08461 0.0783845 0.0863078 0.0752717 0.0874397 0.072159 0.0891376 0.0693292 0.0891376 0.0656505 0.0877227 0.0608399 0.0874397 0.0568783 0.0860248 0.0523506 0.0831951 0.0472571 0.0809313 0.0424465 0.0764036 0.0367869 0.071593 0.0305615 0.0662165 0.0251849 0.0591421 0.0192424 0.0495209 0.0130169 0.0404656 0.00764036 0.0265998 0.00282976 0.0104701 0.000282976 -0.00622548 0.000848929 -0.0249019 0.00764036 -0.0421635 0.0220722 -0.0461252 0.0384848 -0.0367869 0.0498039 -0.0209403 0.048106 -0.00622548 0.0288636 -0.000282976 0.00792334 -0.00226381 -0.0172616 -0.00820632 -0.0376359 -0.0178275 -0.0571612 0.873265 -0.30618 0.0398997 0.126773 0.0274487 0.127056 0.0135829 0.12932 -0.00424465 0.135829 -0.0288636 0.13979 -0.060557 0.140922 -0.0939482 0.126207 -0.118567 0.0990417 -0.129886 0.0662165 -0.126207 0.036504 -0.120548 0.0149978 -0.115737 0.000282976 -0.111493 -0.011885 -0.107248 -0.0200913 -0.107248 -0.0277317 -0.106682 -0.0345231 -0.106399 -0.0404656 -0.107814 -0.0464081 -0.108097 -0.0520677 -0.108663 -0.0565953 -0.110361 -0.0625378 -0.109795 -0.0670654 -0.110078 -0.071593 -0.110927 -0.0766866 -0.109512 -0.0809313 -0.108946 -0.08461 -0.10838 -0.0891376 -0.106682 -0.0933822 -0.104418 -0.0970609 -0.102154 -0.100174 -0.0996077 -0.104135 -0.0967779 -0.107531 0 -0.000282976zm-0.0328253 -3.65124l-0.498604 0.781015 -0.059991 -0.0353721 -0.0398997 -0.0186764 -0.0144318 -0.0048106 0.0155637 0.00198083 0.0430124 -0.00339572 0.059708 -0.0195254 0.0563123 -0.0367869 0.036504 -0.0398997 0.0147148 -0.0249019 0.00141488 -0.00311274 -0.00396167 0.0206573 -0.00367869 0.0398997 0 0.0568783 0.0048106 0.072159 0.0107531 0.084044 0.0169786 0.0945141 0.023487 0.103852 0.0297125 0.11121 0.036504 0.118001 0.0427294 0.123661 0.0489549 0.128188 0.0554634 0.13215 0.0611229 0.135263 0.0670654 0.137244 0.0727249 0.139224 0.0778185 0.138941 0.083761 0.139224 0.0888546 0.138941 0.0936652 0.136961 0.0987588 0.13498 0.103286 0.13215 0.107531 0.128754 -0.69782 0.607833 -0.128471 -0.15309 -0.121963 -0.156486 -0.116303 -0.15875 -0.110078 -0.161297 -0.103569 -0.16158 -0.0979098 -0.162994 -0.0914014 -0.163277 -0.0851759 -0.162428 -0.0789504 -0.16158 -0.072442 -0.160165 -0.0656505 -0.157618 -0.059708 -0.15592 -0.0529166 -0.152524 -0.0461252 -0.149695 -0.0393337 -0.146299 -0.0319763 -0.142337 -0.0249019 -0.138658 -0.0169786 -0.13498 -0.00877227 -0.13215 0.000565953 -0.130452 0.012168 -0.12932 0.0260338 -0.129886 0.0466911 -0.132716 0.0752717 -0.133565 0.112908 -0.124793 0.147997 -0.0973439 0.167805 -0.0546145 0.166956 -0.011885 0.15592 0.0217892 0.142903 0.0449933 0.133848 0.0616889 0.130735 0.0766866zm-0.498604 0.781015l0.498604 -0.781015 0.0198083 0.0135829 0.0189594 0.0141488 0.0178275 0.0152807 0.0169786 0.0158467 0.0161297 0.0164126 0.0152807 0.0172616 0.0141488 0.0178275 0.0132999 0.0183935 0.012168 0.0192424 0.011602 0.0192424 0.0101872 0.0200913 0.00933822 0.0203743 0.00848929 0.0209403 0.00735739 0.0209403 0.00622548 0.0215062 0.00537655 0.0217892 0.00424465 0.0217892 0.00339572 0.0220722 0.00198083 0.0223551 0.00113191 0.0223551 0 0.0223551 -0.000848929 0.0223551 -0.00226381 0.0226381 -0.00311274 0.0223551 -0.00424465 0.0220722 -0.00537655 0.0223551 -0.00679143 0.0217892 -0.00764036 0.0217892 -0.00877227 0.0215062 -0.00990417 0.0209403 -0.0113191 0.0209403 -0.012168 0.0203743 -0.0132999 0.0198083 -0.0141488 0.0186764 -0.0149978 0.0181105 -0.0155637 0.0169786 -0.0166956 0.0161297 -0.0169786 0.0149978 -0.0178275 0.0141488 -0.0181105 0.0132999 -0.0189594 0.012168 -0.0195254 0.0113191 -0.0198083 0.0101872 -0.0200913 0.00933822 -0.0206573 0.00820632 -0.0212232 0.00735739 -0.0212232 0.00622548 -0.0217892 0.00509358 -0.0217892 0.00424465 -0.0217892 0.00311274 -0.0223551 0.00198083 -0.0223551 0.00113191 -0.0223551 -0.000282976 -0.0223551 -0.00113191 -0.0223551 -0.00226381 -0.0220722 -0.00339572 -0.0223551 -0.00424465 -0.0220722 -0.00565953 -0.0217892 -0.00679143 -0.0217892 -0.00764036 -0.0215062 -0.00905525 -0.0209403 -0.0101872 -0.0209403 -0.0113191 -0.0203743 -0.012451z"/>
   </g>
   <g>
    <path class="fil1" d="M28.0625 9.48792l-0.0328253 -0.928163 0.02377 0 0.02377 0.000848929 0.0232041 0.00226381 0.0229211 0.00339572 0.0226381 0.00452762 0.0220722 0.00565953 0.0217892 0.00679143 0.0215062 0.00764036 0.0209403 0.00877227 0.0200913 0.0096212 0.0198083 0.0104701 0.0192424 0.011602 0.0186764 0.012451 0.0181105 0.0132999 0.0172616 0.0138658 0.0166956 0.0149978 0.0158467 0.0155637 0.0152807 0.0164126 0.0144318 0.0172616 0.0135829 0.0178275 0.0127339 0.0183935 0.011885 0.0192424 0.0107531 0.0195254 0.0101872 0.0203743 0.00905525 0.0206573 0.00792334 0.0215062 0.00707441 0.0217892 0.0059425 0.0223551 0.0048106 0.0226381 0.00396167 0.0232041 0.00254679 0.023487 0.00141488 0.02377 0.000282976 0.02377 -0.00113191 0.02377 -0.00198083 0.0232041 -0.00339572 0.0229211 -0.00424465 0.0226381 -0.00537655 0.0223551 -0.00679143 0.0217892 -0.00735739 0.0212232 -0.00877227 0.0209403 -0.00933822 0.0200913 -0.0104701 0.0198083 -0.011602 0.0192424 -0.012168 0.0186764 -0.0130169 0.0178275 -0.0141488 0.0172616 -0.0147148 0.0166956 -0.0155637 0.0158467 -0.0164126 0.0149978 -0.0169786 0.0144318 -0.0175445 0.0132999 -0.0183935 0.0127339 -0.0192424 0.011885 -0.0195254 0.0107531 -0.0200913 0.00990417 -0.0209403 0.00905525 -0.0212232 0.00792334 -0.0217892 0.00679143 -0.0220722 0.0059425 -0.0226381 0.0048106 -0.0232041 0.00367869 -0.023487 0.00226381 -0.02377 0.00141488zm-3.26753 -1.87444l0.732343 -0.565953 0 0 0.0625378 0.0783845 0.0662165 0.0775355 0.0701782 0.0769696 0.0732909 0.0764036 0.0761207 0.0749888 0.0789504 0.0735739 0.0823461 0.0727249 0.084327 0.0713101 0.0857419 0.0690462 0.0877227 0.0676314 0.0897035 0.0656505 0.0902695 0.0633867 0.0911184 0.0608399 0.0925333 0.0591421 0.0919673 0.0563123 0.0922503 0.0534825 0.0919673 0.0509358 0.0911184 0.04754 0.0905525 0.0449933 0.0894206 0.0418805 0.0874397 0.0384848 0.0860248 0.0353721 0.0831951 0.0316934 0.0809313 0.0282976 0.0772526 0.0246189 0.0735739 0.0206573 0.0701782 0.0175445 0.0650846 0.0132999 0.059708 0.00990417 0.0540485 0.00650846 0.0466911 0.00282976 0.0398997 0.000282976 0.0328253 0.928163 -0.0987588 -0.000282976 -0.0993247 -0.00622548 -0.0993247 -0.011602 -0.0998907 -0.0161297 -0.101306 -0.0212232 -0.101872 -0.0249019 -0.103569 -0.0291466 -0.104984 -0.0336742 -0.105267 -0.0367869 -0.106399 -0.0407486 -0.106965 -0.0438613 -0.10838 -0.04754 -0.108663 -0.0509358 -0.109229 -0.0540485 -0.109795 -0.0577272 -0.109512 -0.060557 -0.109795 -0.0636697 -0.108946 -0.0664995 -0.10838 -0.0693292 -0.108097 -0.072159 -0.107248 -0.0752717 -0.10555 -0.0775355 -0.104701 -0.0800823 -0.103286 -0.0831951 -0.10074 -0.0854589 -0.0987588 -0.0874397 -0.0970609 -0.0905525 -0.0947971 -0.0930992 -0.0914014 -0.0950801 -0.0882886 -0.0973439 -0.0854589 -0.100174 -0.0817802 -0.102154 0 0zm0.732343 -0.565953l-0.732343 0.565953 -0.0141488 -0.0192424 -0.0130169 -0.0198083 -0.011885 -0.0203743 -0.0107531 -0.0203743 -0.0096212 -0.0209403 -0.00877227 -0.0215062 -0.00735739 -0.0215062 -0.00650846 -0.0217892 -0.00509358 -0.0217892 -0.00424465 -0.0223551 -0.00311274 -0.0220722 -0.00198083 -0.0223551 -0.000848929 -0.0223551 0 -0.0223551 0.00113191 -0.0220722 0.00226381 -0.0223551 0.00339572 -0.0220722 0.00424465 -0.0217892 0.00537655 -0.0215062 0.00650846 -0.0215062 0.00735739 -0.0209403 0.00848929 -0.0206573 0.0096212 -0.0203743 0.0104701 -0.0200913 0.0113191 -0.0192424 0.0127339 -0.0189594 0.0135829 -0.0183935 0.0144318 -0.0178275 0.0155637 -0.0172616 0.0164126 -0.0164126 0.0175445 -0.0158467 0.0183935 -0.0149978 0.0192424 -0.0141488 0.0195254 -0.0127339 0.0203743 -0.011885 0.0203743 -0.0107531 0.0209403 -0.0096212 0.0212232 -0.00848929 0.0215062 -0.00735739 0.0217892 -0.00622548 0.0217892 -0.00509358 0.0220722 -0.00396167 0.0220722 -0.00311274 0.0223551 -0.00198083 0.0223551 -0.000848929 0.0223551 0.000282976 0.0220722 0.00141488 0.0223551 0.00226381 0.0217892 0.00339572 0.0220722 0.00452762 0.0215062 0.00565953 0.0215062 0.00650846 0.0209403 0.00735739 0.0206573 0.00877227 0.0203743 0.0096212 0.0200913 0.0104701 0.0195254 0.011885 0.0189594 0.012451 0.0183935 0.0138658 0.0178275 0.0144318 0.0172616 0.0158467 0.0166956 0.0164126 0.0158467 0.0175445 0.0149978 0.0186764zm-0.826291 -3.81396l-0.036221 0.928163 0.00113191 -0.000282976 0.00820632 -0.00169786 0.0104701 -0.00396167 0.00735739 -0.00424465 -0.000282976 0.000565953 -0.00650846 0.00735739 -0.012168 0.0186764 -0.0155637 0.0299955 -0.0166956 0.0421635 -0.0164126 0.0548974 -0.0147148 0.0656505 -0.0113191 0.0752717 -0.00764036 0.0851759 -0.00339572 0.0933822 0.00141488 0.101589 0.00622548 0.10838 0.011885 0.11404 0.0178275 0.120831 0.0229211 0.125076 0.0294295 0.129603 0.0353721 0.134131 0.0413146 0.136961 0.047823 0.140356 0.0537655 0.142337 0.060557 0.144035 0.0670654 0.145733 0.0741398 0.146865 0.0803653 0.147714 0.0868738 0.146865 0.0939482 0.146865 0.101023 0.146582 0.108097 0.144884 -0.732343 0.565953 -0.127905 -0.17205 -0.119699 -0.173182 -0.112059 -0.174596 -0.103852 -0.175728 -0.095646 -0.175445 -0.0877227 -0.175162 -0.0806483 -0.174596 -0.0730079 -0.174031 -0.0656505 -0.172899 -0.0580102 -0.170352 -0.0509358 -0.168654 -0.0438613 -0.16639 -0.0367869 -0.16356 -0.0297125 -0.160731 -0.0229211 -0.157052 -0.0158467 -0.154222 -0.00905525 -0.149695 -0.00198083 -0.145733 0.00509358 -0.142054 0.0127339 -0.13781 0.0203743 -0.134131 0.0288636 -0.129603 0.0379188 -0.125076 0.048389 -0.121963 0.0608399 -0.116586 0.0744228 -0.110927 0.0908354 -0.103003 0.107248 -0.0911184 0.12451 -0.0749888 0.13781 -0.0537655 0.145167 -0.0294295 0.147148 -0.00537655zm-0.036221 0.928163l0.036221 -0.928163 0.02377 0.00169786 0.023487 0.00282976 0.0232041 0.00396167 0.0226381 0.00509358 0.0220722 0.00622548 0.0217892 0.00707441 0.0212232 0.00848929 0.0206573 0.00905525 0.0200913 0.0101872 0.0198083 0.0113191 0.0189594 0.011885 0.0183935 0.0130169 0.0175445 0.0138658 0.0169786 0.0144318 0.0161297 0.0152807 0.0155637 0.0161297 0.0147148 0.0169786 0.0138658 0.0172616 0.0132999 0.0181105 0.012168 0.0189594 0.0113191 0.0192424 0.0104701 0.0200913 0.00933822 0.0203743 0.00848929 0.0209403 0.00735739 0.0215062 0.00650846 0.0217892 0.00537655 0.0223551 0.00424465 0.0226381 0.00339572 0.0232041 0.00198083 0.0232041 0.000848929 0.02377 -0.000282976 0.02377 -0.00141488 0.02377 -0.00282976 0.023487 -0.00396167 0.0232041 -0.0048106 0.0226381 -0.0059425 0.0220722 -0.00735739 0.0217892 -0.00792334 0.0212232 -0.00933822 0.0206573 -0.00990417 0.0200913 -0.0110361 0.0198083 -0.011885 0.0186764 -0.0130169 0.0183935 -0.0135829 0.0175445 -0.0144318 0.0169786 -0.0152807 0.0161297 -0.0158467 0.0155637 -0.0166956 0.0147148 -0.0175445 0.0138658 -0.0178275 0.0130169 -0.0186764 0.011885 -0.0195254 0.0113191 -0.0198083 0.0104701 -0.0203743 0.00933822 -0.0209403 0.00820632 -0.0212232 0.00735739 -0.0217892 0.00650846 -0.0223551 0.00509358 -0.0226381 0.00424465 -0.0229211 0.00311274 -0.0232041 0.00198083 -0.02377 0.000848929 -0.02377 -0.000565953z"/>
   </g>
  </g>
 </g>
</svg>
