<?xml version="1.0" encoding="UTF-8"?>
<!DOCTYPE svg PUBLIC "-//W3C//DTD SVG 1.1//EN" "http://www.w3.org/Graphics/SVG/1.1/DTD/svg11.dtd">
<!-- Creator: CorelDRAW -->
<svg xmlns="http://www.w3.org/2000/svg" xml:space="preserve" width="89px" height="94px" style="shape-rendering:geometricPrecision; text-rendering:geometricPrecision; image-rendering:optimizeQuality; fill-rule:evenodd; clip-rule:evenodd"
viewBox="0 0 89.0011 93.4728"
 xmlns:xlink="http://www.w3.org/1999/xlink">
 <defs>
  <style type="text/css">
   <![CDATA[
    .str0 {stroke:black;stroke-width:0.926452;stroke-linecap:round;stroke-linejoin:round}
    .fil0 {fill:none}
    .fil1 {fill:black;fill-rule:nonzero}
   ]]>
  </style>
 </defs>
 <g id="Layer_x0020_1">
  <metadata id="CorelCorpID_0Corel-Layer"/>
  <g id="_464423072">
   <path id="_464102480" class="fil0 str0" d="M0.699797 68.873c-0.621884,0.812274 0.0900953,1.75856 0.833807,2.70683l47.0759 21.171"/>
   <path id="_464102312" class="fil0 str0" d="M47.7516 89.2873c-0.0461809,0.230055 -0.0923619,0.460109 -0.138543,0.689881 -0.0583636,5.51196 5.54596,2.483 0.915969,-0.977449"/>
   <line id="_464102216" class="fil0 str0" x1="0.888204" y1="68.5911" x2="47.7199" y2= "89.4479" />
   <path id="_464102120" class="fil0 str0" d="M31.5679 5.73692c-0.171691,0.432627 -0.0815958,0.89217 0.899253,1.43983l50.4996 11.2036"/>
   <line id="_464102024" class="fil0 str0" x1="32.6278" y1="4.4617" x2="84.0295" y2= "14.8465" />
   <line id="_464101928" class="fil0 str0" x1="34.8915" y1="3.04029" x2="86.5635" y2= "13.206" />
   <line id="_464101832" class="fil0 str0" x1="35.9072" y1="0.463509" x2="88.5379" y2= "10.3516" />
   <polyline id="_464101664" class="fil0 str0" points="31.5679,5.73692 32.4499,4.21125 34.4362,4.02086 34.817,3.03179 "/>
   <g>
    <path id="_464101496" class="fil1" d="M85.1772 16.1953l0.919652 -0.112761 0.00226655 0.0237988 0.00113327 0.0235154 -0.000283319 0.0232321 -0.00113327 0.0232321 -0.00254987 0.0229488 -0.00339982 0.0226655 -0.0045331 0.0220988 -0.00594969 0.0218155 -0.00651633 0.0215322 -0.00793292 0.0212489 -0.00849956 0.0203989 -0.00963283 0.0203989 -0.0107661 0.019549 -0.0116161 0.0189823 -0.0121827 0.0184157 -0.013316 0.0178491 -0.0141659 0.0172824 -0.0150159 0.0164325 -0.0155825 0.0158658 -0.0164325 0.0150159 -0.0172824 0.0141659 -0.0178491 0.0135993 -0.0184157 0.012466 -0.0192657 0.0116161 -0.0198323 0.0107661 -0.0206823 0.00991615 -0.0209656 0.00878288 -0.0215322 0.00793292 -0.0220988 0.00679965 -0.0226655 0.00566637 -0.0232321 0.00481642 -0.0235154 0.00339982 -0.0237988 0.00226655 -0.0235154 0.00113327 -0.0232321 -0.000283319 -0.0232321 -0.00113327 -0.0229488 -0.00254987 -0.0226655 -0.00339982 -0.0220988 -0.0045331 -0.0218155 -0.00594969 -0.0215322 -0.00651633 -0.0212489 -0.00793292 -0.0203989 -0.00849956 -0.0203989 -0.00963283 -0.019549 -0.0107661 -0.0189823 -0.0116161 -0.0184157 -0.0121827 -0.0178491 -0.013316 -0.0172824 -0.0141659 -0.0164325 -0.0150159 -0.0158658 -0.0155825 -0.0150159 -0.0164325 -0.0141659 -0.0172824 -0.0135993 -0.0178491 -0.012466 -0.0184157 -0.0116161 -0.0192657 -0.0107661 -0.0198323 -0.00991615 -0.0206823 -0.00878288 -0.0209656 -0.00793292 -0.0215322 -0.00679965 -0.0220988 -0.00566637 -0.0226655 -0.00481642 -0.0232321 -0.00339982 -0.0235154zm-0.586186 -0.244504l-0.310517 -0.873188 0.0787626 -0.0266319 0.0770627 -0.0235154 0.076496 -0.0212489 0.0779126 -0.018699 0.0762127 -0.0150159 0.0756461 -0.0118994 0.0756461 -0.00849956 0.0753627 -0.00538305 0.0753627 -0.00113327 0.0750794 0.00254987 0.0767793 0.00736628 0.0747961 0.0118994 0.0730962 0.0164325 0.0739462 0.0218155 0.0733795 0.0280485 0.0708296 0.0334316 0.0677131 0.0385313 0.0643133 0.0433477 0.0617635 0.0490141 0.057797 0.0538305 0.051564 0.0560971 0.0478808 0.0600635 0.044481 0.0643133 0.0388146 0.0660132 0.0337149 0.0662965 0.031165 0.070263 0.0263486 0.0705463 0.0232321 0.0722462 0.0198323 0.0747961 0.0167158 0.0753627 0.0135993 0.076496 0.0110494 0.0781959 -0.919652 0.112761 -0.00651633 -0.045331 -0.00736628 -0.0419312 -0.00821624 -0.0373981 -0.00849956 -0.0322983 -0.00963283 -0.0291818 -0.00934951 -0.025782 -0.00906619 -0.0203989 -0.00991615 -0.0192657 -0.00821624 -0.0138826 -0.00651633 -0.00991615 -0.00708296 -0.00849956 -0.00679965 -0.00736628 -0.0045331 -0.0045331 -0.00396646 -0.0031165 -0.00538305 -0.00368314 -0.00594969 -0.00339982 -0.00623301 -0.00283319 -0.00708296 -0.00254987 -0.0104828 -0.0031165 -0.0152992 -0.00339982 -0.0169991 -0.00283319 -0.0189823 -0.00169991 -0.0240821 -0.000849956 -0.0271986 0.000566637 -0.031165 0.00198323 -0.0348482 0.00396646 -0.038248 0.00623301 -0.0416478 0.00821624 -0.0433477 0.0101995 -0.0481642 0.013316 -0.0521306 0.0161492 -0.0532639 0.0181324zm-0.310517 -0.873188l0.310517 0.873188 -0.0226655 0.00736628 -0.0226655 0.00623301 -0.0229488 0.00509973 -0.0229488 0.00368314 -0.0226655 0.00254987 -0.0229488 0.00141659 -0.0226655 0.000566637 -0.0226655 -0.000849956 -0.0223822 -0.00198323 -0.0223822 -0.00283319 -0.0220988 -0.00396646 -0.0215322 -0.00509973 -0.0215322 -0.00623301 -0.0212489 -0.00708296 -0.0206823 -0.00793292 -0.0201156 -0.00906619 -0.0198323 -0.00991615 -0.019549 -0.0110494 -0.018699 -0.0118994 -0.0184157 -0.0127493 -0.0175658 -0.0135993 -0.0169991 -0.0147326 -0.0164325 -0.0152992 -0.0155825 -0.0161492 -0.0147326 -0.0172824 -0.0141659 -0.0175658 -0.013316 -0.018699 -0.0121827 -0.019549 -0.0116161 -0.0201156 -0.0104828 -0.0206823 -0.00963283 -0.0215322 -0.00849956 -0.0223822 -0.00736628 -0.0226655 -0.00623301 -0.0226655 -0.00509973 -0.0229488 -0.00368314 -0.0229488 -0.00254987 -0.0226655 -0.00141659 -0.0229488 -0.000566637 -0.0226655 0.000849956 -0.0226655 0.00198323 -0.0223822 0.00283319 -0.0223822 0.00396646 -0.0220988 0.00509973 -0.0215322 0.00623301 -0.0215322 0.00708296 -0.0212489 0.00793292 -0.0206823 0.00906619 -0.0201156 0.00991615 -0.0198323 0.0110494 -0.019549 0.0118994 -0.018699 0.0127493 -0.0184157 0.0135993 -0.0175658 0.0147326 -0.0169991 0.0152992 -0.0164325 0.0161492 -0.0155825 0.0172824 -0.0147326 0.0175658 -0.0141659 0.018699 -0.013316 0.019549 -0.0121827 0.0201156 -0.0116161 0.0206823 -0.0104828 0.0215322 -0.00963283 0.0223822 -0.00849956z"/>
   </g>
   <path class="fil0 str0" d="M84.5907 15.4647c-0.115594,0.850806 -0.232038,1.70133 -0.347349,2.55213 -0.541705,0.557854 -0.991332,0.706597 -1.33613,0.203989l1.03525 -3.39132 2.31443 -0.0878288c0.211072,-0.541422 0.423278,-1.08256 0.634634,-1.62398"/>
   <line class="fil0 str0" x1="86.6201" y1="13.0208" x2="88.5263" y2= "10.0748" />
   <path class="fil1" d="M37.3439 1.71464c0.142793,-0.143926 0.357548,-0.234304 0.610268,-0.209089l0.000849956 0 0.0303151 0.00594969 3.46612 0.665515 0.0045331 0.000566637 0.0175658 0.00368314 0.038248 0.00849956 0.0356981 0.0155825c0.253003,0.113611 0.397779,0.294651 0.45416,0.487591l0.00198323 0.0076496c0.031165,0.116727 0.0308817,0.240537 0,0.354715 -0.0297485,0.112477 -0.0915119,0.217872 -0.175374,0.301734 -0.142793,0.144209 -0.358398,0.234304 -0.610268,0.209372l0 0 -0.0308817 -0.00594969 -3.4664 -0.665799 -0.0045331 -0.000283319 -0.0172824 -0.00368314 -0.0376814 -0.00736628 -0.0362648 -0.0167158c-0.253287,-0.113611 -0.398063,-0.295785 -0.454443,-0.487591l-0.00198323 -0.0076496c-0.031165,-0.116727 -0.0308817,-0.240537 0,-0.354715 0.0297485,-0.112477 0.0915119,-0.218155 0.175374,-0.302018zm0.575137 0.142226c-0.425828,-0.0424978 -0.617635,0.479375 -0.149592,0.689031l0.0172824 0.00339982 3.4664 0.665799c0.425828,0.0424978 0.617635,-0.479375 0.149592,-0.689031l-0.0172824 -0.00368314 -3.4664 -0.665515zm47.7049 9.89065c0.426111,0.0422145 0.617635,-0.479658 0.149592,-0.689031l-0.0172824 -0.00368314 -3.46697 -0.666649c-0.426111,-0.0424978 -0.617635,0.479375 -0.149592,0.689031l0.0172824 0.00339982 3.46697 0.666932zm-5.54738 -1.06698c0.426111,0.0424978 0.617635,-0.479375 0.149592,-0.689031l-0.0172824 -0.00339982 -3.46697 -0.666649c-0.426111,-0.0424978 -0.617635,0.479375 -0.149876,0.688747l0.0175658 0.00368314 3.46697 0.666649zm-5.54738 -1.06669c0.426111,0.0424978 0.617635,-0.479375 0.149592,-0.689031l-0.0172824 -0.00339982 -3.46697 -0.666932c-0.426111,-0.0424978 -0.617635,0.479375 -0.149876,0.689031l0.0175658 0.00368314 3.46697 0.666649zm-5.54738 -1.06669c0.426111,0.0424978 0.617635,-0.479375 0.149592,-0.689031l-0.0172824 -0.00368314 -3.46697 -0.666649c-0.426111,-0.0424978 -0.617635,0.479375 -0.149876,0.689031l0.0175658 0.00368314 3.46697 0.666649zm-5.54653 -1.06669c0.426111,0.0424978 0.617635,-0.479375 0.149876,-0.689031l-0.0175658 -0.00368314 -3.46612 -0.666649c-0.425828,-0.0422145 -0.617635,0.479658 -0.149592,0.689031l0.0172824 0.00368314 3.46612 0.666649zm-5.54539 -1.06669c0.425828,0.0424978 0.617635,-0.479375 0.149592,-0.688747l-0.0172824 -0.00368314 -3.46612 -0.666649c-0.426111,-0.0424978 -0.617635,0.479375 -0.149876,0.689031l0.0175658 0.00339982 3.46612 0.666649zm-5.54568 -1.06641c0.426111,0.0424978 0.617635,-0.479375 0.149876,-0.689031l-0.0175658 -0.00368314 -3.46612 -0.666649c-0.425828,-0.0422145 -0.617635,0.479658 -0.149592,0.689031l0.0172824 0.00368314 3.46612 0.666649zm-5.54539 -1.06669c0.425828,0.0424978 0.617635,-0.479375 0.149592,-0.689031l-0.0172824 -0.00339982 -3.46612 -0.666649c-0.426111,-0.0424978 -0.617635,0.479375 -0.149876,0.689031l0.0172824 0.00339982 3.4664 0.666649zm39.4005 7.6088c-0.143076,0.143926 -0.358681,0.234304 -0.610268,0.209089l-0.00113327 0 -0.0300318 -0.00566637 -3.46725 -0.666932 -0.0045331 -0.000283319 -0.0172824 -0.00368314 -0.0373981 -0.00736628 -0.0365481 -0.0167158c-0.253003,-0.113611 -0.397779,-0.295785 -0.45416,-0.487591l-0.00198323 -0.0076496c-0.031165,-0.116727 -0.031165,-0.240537 0,-0.354715 0.0297485,-0.112477 0.0915119,-0.218155 0.175091,-0.302018 0.143076,-0.143926 0.357831,-0.234304 0.610268,-0.209089l0.00113327 0 0.0300318 0.00594969 3.46725 0.666649 0.0045331 0.000566637 0.0172824 0.00339982 0.038248 0.00849956 0.0356981 0.0155825c0.253003,0.113894 0.398063,0.294935 0.45416,0.487591l0.00198323 0.0076496c0.031165,0.116727 0.031165,0.240537 0,0.354715 -0.0297485,0.112477 -0.0915119,0.218155 -0.175091,0.302018zm-5.54738 -1.06669c-0.143076,0.143926 -0.358681,0.234304 -0.610268,0.209089l-0.00113327 0 -0.0300318 -0.00594969 -3.46725 -0.666649 -0.0045331 -0.000283319 -0.0172824 -0.00368314 -0.0373981 -0.00736628 -0.0365481 -0.0167158c-0.253003,-0.113894 -0.397779,-0.295785 -0.45416,-0.487591l-0.00198323 -0.0076496c-0.031165,-0.116727 -0.031165,-0.240537 0,-0.354715 0.0297485,-0.112477 0.0915119,-0.218155 0.175091,-0.302018 0.143076,-0.143926 0.357831,-0.234304 0.610268,-0.209089l0.00113327 0 0.0300318 0.00566637 3.46697 0.666932 0.00481642 0.000283319 0.0172824 0.00368314 0.038248 0.00849956 0.0356981 0.0155825c0.253003,0.113611 0.398063,0.294935 0.45416,0.487591l0.00198323 0.0076496c0.031165,0.116727 0.031165,0.240537 0,0.354715 -0.0297485,0.112477 -0.0915119,0.218155 -0.175091,0.302018zm-5.54738 -1.06669c-0.143076,0.143926 -0.358681,0.234021 -0.610268,0.209089l-0.00113327 0 -0.0300318 -0.00594969 -3.46725 -0.666649 -0.0045331 -0.000566637 -0.0172824 -0.00339982 -0.0373981 -0.0076496 -0.0365481 -0.0167158c-0.253003,-0.113611 -0.398063,-0.295501 -0.45416,-0.487308l-0.00198323 -0.0076496c-0.0314484,-0.116727 -0.031165,-0.240537 -0.000283319,-0.354998 0.0300318,-0.112477 0.0917952,-0.217872 0.175374,-0.301734 0.143076,-0.144209 0.357831,-0.234304 0.610268,-0.209372l0.00113327 0.000283319 0.0300318 0.00566637 3.46697 0.666932 0.00481642 0.000283319 0.0172824 0.00368314 0.038248 0.00849956 0.0356981 0.0155825c0.253003,0.113611 0.398063,0.294651 0.45416,0.487591l0.00198323 0.0076496c0.031165,0.116727 0.031165,0.240537 0,0.354715 -0.0297485,0.112477 -0.0915119,0.218155 -0.175091,0.302018zm-5.54766 -1.06698c-0.142793,0.144209 -0.358398,0.234304 -0.609985,0.209372l-0.00113327 -0.000283319 -0.0300318 -0.00566637 -3.46725 -0.666649 -0.0045331 -0.000566637 -0.0172824 -0.00368314 -0.0373981 -0.00736628 -0.0365481 -0.0167158c-0.253003,-0.113611 -0.398063,-0.295785 -0.45416,-0.487591l-0.00198323 -0.0076496c-0.0314484,-0.116727 -0.031165,-0.240537 -0.000283319,-0.354715 0.0300318,-0.112477 0.0917952,-0.217872 0.175374,-0.301734 0.143076,-0.144209 0.357831,-0.234588 0.610268,-0.209372l0.000849956 0.000283319 0.0303151 0.00566637 3.46697 0.666649 0.00481642 0.000566637 0.0172824 0.00368314 0.038248 0.00821624 0.0356981 0.0158658c0.253003,0.113611 0.398063,0.294651 0.45416,0.487591l0.00198323 0.0076496c0.031165,0.116444 0.031165,0.240537 0,0.354715 -0.0297485,0.112477 -0.0915119,0.217872 -0.175374,0.301734zm-5.54624 -1.06669c-0.143076,0.144209 -0.358681,0.234304 -0.610268,0.209372l-0.000849956 0 -0.0303151 -0.00594969 -3.46612 -0.666649 -0.0045331 -0.000566637 -0.0175658 -0.00339982 -0.0373981 -0.0076496 -0.0365481 -0.0164325c-0.253003,-0.113894 -0.397779,-0.295785 -0.45416,-0.487591l-0.00198323 -0.0076496c-0.031165,-0.116727 -0.0308817,-0.240537 0,-0.354715 0.0297485,-0.112477 0.0915119,-0.218155 0.175374,-0.302018 0.142793,-0.143926 0.357548,-0.234304 0.610268,-0.209089l0.00169991 0 0.0291818 0.00566637 3.4664 0.666649 0.0045331 0.000566637 0.0172824 0.00368314 0.038248 0.00849956 0.0356981 0.0155825c0.253003,0.113611 0.398063,0.294651 0.45416,0.487591l0.00198323 0.0076496c0.0314484,0.116727 0.031165,0.240537 0.000283319,0.354715 -0.0300318,0.112477 -0.0917952,0.217872 -0.175374,0.301734zm-5.54568 -1.06641c-0.142793,0.143926 -0.358398,0.234304 -0.610268,0.209089l-0.000849956 0 -0.0300318 -0.00594969 -3.4664 -0.666365 -0.0045331 -0.000566637 -0.0172824 -0.00368314 -0.0373981 -0.00736628 -0.0365481 -0.0167158c-0.253287,-0.113611 -0.398063,-0.295785 -0.45416,-0.487591l-0.00226655 -0.0076496c-0.031165,-0.116727 -0.0308817,-0.240537 0,-0.354715 0.0300318,-0.112477 0.0917952,-0.218155 0.175374,-0.301734 0.142793,-0.144209 0.357831,-0.234588 0.610268,-0.209372l0.00198323 0.000283319 0.0291818 0.00566637 3.46612 0.666649 0.0045331 0.000283319 0.0175658 0.00368314 0.038248 0.00849956 0.0356981 0.0155825c0.253003,0.113894 0.397779,0.294935 0.45416,0.487591l0.00198323 0.0076496c0.031165,0.116727 0.0308817,0.240537 0,0.354715 -0.0297485,0.112477 -0.0915119,0.218155 -0.175374,0.302018zm-5.54539 -1.06669c-0.143076,0.144209 -0.358681,0.234304 -0.610268,0.209372l-0.00113327 -0.000283319 -0.0300318 -0.00566637 -3.46612 -0.666649 -0.0045331 -0.000566637 -0.0175658 -0.00339982 -0.0373981 -0.0076496 -0.0365481 -0.0167158c-0.253003,-0.113611 -0.397779,-0.295501 -0.45416,-0.487308l-0.00198323 -0.0076496c-0.031165,-0.116727 -0.0308817,-0.240537 0,-0.354715 0.0297485,-0.112761 0.0915119,-0.218155 0.175374,-0.302018 0.142793,-0.144209 0.357548,-0.234304 0.610268,-0.209089l0.00169991 0 0.0291818 0.00566637 3.4664 0.666649 0.0045331 0.000566637 0.0172824 0.00368314 0.038248 0.00821624 0.0356981 0.0158658c0.253003,0.113611 0.398063,0.294651 0.45416,0.487591l0.00198323 0.0076496c0.031165,0.116444 0.031165,0.240254 0,0.354715 -0.0297485,0.112477 -0.0915119,0.217872 -0.175091,0.301734zm-5.54568 -1.06641c-0.142793,0.143926 -0.358398,0.234304 -0.610268,0.209089l-0.000849956 0 -0.0300318 -0.00594969 -3.4664 -0.666649 -0.0045331 -0.000283319 -0.0172824 -0.00368314 -0.0373981 -0.00736628 -0.0365481 -0.0167158c-0.253287,-0.113611 -0.398063,-0.295785 -0.45416,-0.487591l-0.00226655 -0.0076496c-0.031165,-0.116727 -0.0308817,-0.240537 0,-0.354715 0.0300318,-0.112477 0.0915119,-0.218155 0.175374,-0.302018 0.142793,-0.143926 0.357548,-0.234304 0.610268,-0.209089l0.00198323 0.000283319 0.0291818 0.00566637 3.46612 0.666649 0.0045331 0.000283319 0.0172824 0.00368314 0.0385313 0.00849956 0.0354148 0.0155825c0.253287,0.113611 0.398063,0.294935 0.454443,0.487591l0.00198323 0.0076496c0.031165,0.116727 0.0308817,0.240537 0,0.354715 -0.0297485,0.112477 -0.0915119,0.218155 -0.175374,0.302018z"/>
   <path class="fil0 str0" d="M85.6339 16.32c-1.20637,2.38923 -2.41359,4.77817 -3.61911,7.16739 -1.07746,2.13197 -0.721046,2.13396 -2.76632,3.41994 -1.88464,1.18739 -4.84928,3.11197 -6.17351,6.15793 -3.4902,7.39518 -4.09509,10.9803 -7.58529,18.3755 -0.406845,0.738895 -0.248754,1.10551 0.435177,1.39903 0.716229,0.306834 1.9379,0.810574 2.1807,0.989348 0.43971,0.323833 0.332616,0.978016 -0.311367,1.9464 -1.83505,3.28763 -3.00856,4.74049 -5.54568,6.53134 -0.758161,0.535189 -1.28117,0.916252 -1.70218,1.2653 -2.01553,1.6679 -2.90062,3.4307 -3.88288,5.73777l-8.55905 20.0915"/>
   <line class="fil0 str0" x1="17.0402" y1="36.6062" x2="65.0174" y2= "52.3964" />
   <g>
    <path class="fil1" d="M34.3476 8.0454l-0.815958 -0.435177 0.0116161 -0.0206823 0.0127493 -0.0201156 0.013316 -0.0189823 0.0144492 -0.0181324 0.0150159 -0.0175658 0.0158658 -0.0164325 0.0164325 -0.0155825 0.0169991 -0.0144492 0.0178491 -0.0138826 0.0184157 -0.0127493 0.0189823 -0.0118994 0.019549 -0.0110494 0.0198323 -0.00991615 0.0203989 -0.00906619 0.0206823 -0.00793292 0.0209656 -0.00708296 0.0212489 -0.00594969 0.0218155 -0.00509973 0.0218155 -0.00368314 0.0220988 -0.0031165 0.0220988 -0.00169991 0.0223822 -0.000849956 0.0223822 0.000566637 0.0223822 0.00141659 0.0223822 0.00254987 0.0223822 0.00368314 0.0223822 0.00481642 0.0220988 0.00594969 0.0220988 0.00708296 0.0218155 0.00821624 0.0215322 0.00934951 0.0212489 0.0107661 0.0206823 0.0116161 0.0198323 0.0127493 0.0189823 0.0135993 0.0184157 0.0141659 0.0172824 0.0150159 0.0164325 0.0158658 0.0152992 0.0167158 0.0147326 0.0169991 0.0135993 0.0178491 0.0130327 0.0184157 0.0116161 0.0189823 0.0110494 0.019549 0.00991615 0.0198323 0.00906619 0.0203989 0.00793292 0.0209656 0.00679965 0.0209656 0.00594969 0.0215322 0.00509973 0.0215322 0.00368314 0.0220988 0.0031165 0.0220988 0.00169991 0.0220988 0.000566637 0.0223822 -0.000283319 0.0223822 -0.00141659 0.0226655 -0.00254987 0.0223822 -0.00368314 0.0223822 -0.00481642 0.0223822 -0.00594969 0.0223822 -0.00708296 0.0218155 -0.00821624 0.0218155 -0.00934951 0.0218155 -0.0107661 0.0212489zm-1.78576 3.36327l-0.816524 -0.434611 0 0 0.0558138 -0.104828 0.0555304 -0.105111 0.0558138 -0.105678 0.0558138 -0.105111 0.0558138 -0.105111 0.0558138 -0.105111 0.0558138 -0.105111 0.0558138 -0.105111 0.0558138 -0.105111 0.0558138 -0.105111 0.0558138 -0.105111 0.0558138 -0.105111 0.0558138 -0.105111 0.0558138 -0.105111 0.0558138 -0.105111 0.0558138 -0.105111 0.0558138 -0.104828 0.0558138 -0.105395 0.0558138 -0.105395 0.0558138 -0.105111 0.0558138 -0.105111 0.0560971 -0.105395 0.0560971 -0.105111 0.0555304 -0.104828 0.0558138 -0.105111 0.0558138 -0.105111 0.0558138 -0.105111 0.0558138 -0.105111 0.0560971 -0.105395 0.0558138 -0.104828 0.0555304 -0.104828 0.0560971 -0.105111 0.815958 0.435177 -0.0555304 0.105111 -0.0560971 0.105395 -0.0558138 0.104828 -0.0555304 0.104828 -0.0558138 0.105111 -0.0558138 0.105111 -0.0558138 0.105111 -0.0558138 0.105111 -0.0560971 0.105395 -0.0560971 0.105111 -0.0555304 0.104828 -0.0558138 0.105111 -0.0558138 0.105111 -0.0558138 0.104828 -0.0558138 0.105395 -0.0558138 0.105395 -0.0558138 0.105111 -0.0558138 0.105111 -0.0558138 0.105111 -0.0558138 0.105111 -0.0558138 0.105111 -0.0558138 0.105111 -0.0558138 0.105111 -0.0558138 0.105111 -0.0558138 0.105111 -0.0558138 0.105111 -0.0558138 0.105111 -0.0558138 0.105111 -0.0558138 0.105111 -0.0558138 0.104545 -0.0555304 0.105111 -0.0558138 0.105395 0 0zm-2.71023 3.14625l-0.469176 -0.798392 0.000283319 -0.000283319 0.167725 -0.0994448 0.154975 -0.0932118 0.142793 -0.0872621 0.13061 -0.0821624 0.119277 -0.076496 0.108794 -0.0725296 0.0983115 -0.0679965 0.0886787 -0.0643133 0.0796125 -0.0609135 0.0716796 -0.0580803 0.0643133 -0.0555304 0.057797 -0.0535472 0.0512807 -0.051564 0.0473142 -0.0518473 0.044481 -0.0526973 0.0419312 -0.0541138 0.0402312 -0.0563804 0.0396646 -0.0597802 0.0399479 -0.0651633 0.0407979 -0.070263 0.0416478 -0.0762127 0.0436311 -0.0830123 0.0458976 -0.0909453 0.0487308 -0.0980282 0.0518473 -0.105961 0.0558138 -0.114744 0.0600635 -0.12296 0.06488 -0.13146 0.070263 -0.141659 0.076496 -0.151292 0.0830123 -0.160925 0.0900953 -0.171691 0.816524 0.434611 -0.0866955 0.164891 -0.0796125 0.155259 -0.0736628 0.145059 -0.0679965 0.13656 -0.06318 0.129193 -0.0594969 0.12126 -0.0558138 0.114744 -0.0535472 0.109361 -0.051564 0.103695 -0.0504307 0.0994448 -0.0504307 0.0966116 -0.0512807 0.0932118 -0.0521306 0.0906619 -0.0546805 0.0883954 -0.0572304 0.0869788 -0.0611968 0.0852789 -0.0645966 0.0830123 -0.0682798 0.0810291 -0.0733795 0.0801792 -0.0784792 0.0787626 -0.082729 0.0767793 -0.0875454 0.0759294 -0.0937785 0.0762127 -0.0994448 0.0756461 -0.106244 0.077346 -0.113611 0.0781959 -0.12126 0.0810291 -0.130043 0.0838623 -0.139676 0.0872621 -0.149592 0.0917952 -0.160642 0.0966116 -0.172258 0.102278 0.000283319 -0.000283319zm-0.468892 -0.798675l0.468609 0.798958 -0.0206823 0.0116161 -0.0212489 0.0101995 -0.0215322 0.00934951 -0.0215322 0.00793292 -0.0220988 0.00679965 -0.0220988 0.00594969 -0.0220988 0.0045331 -0.0223822 0.00339982 -0.0223822 0.00254987 -0.0223822 0.00113327 -0.0220988 0.000283319 -0.0223822 -0.000849956 -0.0220988 -0.00198323 -0.0220988 -0.00283319 -0.0218155 -0.00396646 -0.0215322 -0.00509973 -0.0215322 -0.00623301 -0.0209656 -0.00708296 -0.0206823 -0.00821624 -0.0203989 -0.00906619 -0.0198323 -0.00991615 -0.0192657 -0.0110494 -0.0189823 -0.0121827 -0.0184157 -0.0130327 -0.0178491 -0.0138826 -0.0169991 -0.0147326 -0.0164325 -0.0158658 -0.0158658 -0.0167158 -0.0150159 -0.0175658 -0.0141659 -0.0184157 -0.0135993 -0.019549 -0.012466 -0.0201156 -0.0116161 -0.0209656 -0.0101995 -0.0209656 -0.00934951 -0.0215322 -0.00793292 -0.0218155 -0.00679965 -0.0218155 -0.00566637 -0.0220988 -0.00481642 -0.0223822 -0.00339982 -0.0223822 -0.00226655 -0.0223822 -0.00141659 -0.0223822 -0.000283319 -0.0223822 0.000849956 -0.0223822 0.00198323 -0.0220988 0.0031165 -0.0220988 0.00396646 -0.0218155 0.00509973 -0.0218155 0.00594969 -0.0212489 0.00708296 -0.0212489 0.00821624 -0.0206823 0.00906619 -0.0203989 0.00991615 -0.0198323 0.0110494 -0.019549 0.0121827 -0.0189823 0.0127493 -0.0184157 0.0141659 -0.0178491 0.0147326 -0.0169991 0.0155825 -0.0167158 0.0167158 -0.0155825 0.0175658 -0.0152992 0.0184157 -0.0141659 0.019549 -0.0135993 0.0201156 -0.012466zm-5.02041 5.93694l-0.827857 -0.411945 -0.00651633 0.0135993 0.124943 -0.26122 0.133726 -0.25442 0.142226 -0.247904 0.149592 -0.241671 0.156958 -0.235438 0.163758 -0.229205 0.169425 -0.222688 0.175658 -0.217305 0.180191 -0.210789 0.185007 -0.204839 0.188973 -0.199173 0.19294 -0.19379 0.196056 -0.18784 0.198323 -0.182457 0.200873 -0.177357 0.202573 -0.171974 0.203989 -0.166591 0.204273 -0.161208 0.204839 -0.156958 0.205123 -0.151575 0.203706 -0.146759 0.203139 -0.142226 0.201723 -0.13741 0.19974 -0.132593 0.196906 -0.128343 0.194073 -0.123527 0.190673 -0.11956 0.186707 -0.115027 0.182457 -0.111061 0.177641 -0.106528 0.171691 -0.102278 0.166591 -0.0985949 0.469176 0.798392 -0.164325 0.0974616 -0.169991 0.101145 -0.173674 0.104261 -0.177924 0.108228 -0.181607 0.111628 -0.18444 0.115594 -0.187274 0.11956 -0.18954 0.123244 -0.19124 0.127493 -0.192657 0.131177 -0.193507 0.135426 -0.194073 0.139393 -0.19379 0.143643 -0.193507 0.147892 -0.19294 0.152142 -0.190957 0.156392 -0.18954 0.160642 -0.186707 0.164891 -0.184724 0.169425 -0.180757 0.173674 -0.177641 0.178491 -0.173674 0.18274 -0.168575 0.187274 -0.164325 0.191523 -0.158658 0.19634 -0.152992 0.201156 -0.146759 0.205406 -0.139959 0.209939 -0.13316 0.215039 -0.125793 0.219572 -0.117861 0.224388 -0.110211 0.229488 -0.00651633 0.0135993zm-0.834373 -0.398346l0.84089 0.384747 -0.0104828 0.0215322 -0.0113327 0.0206823 -0.0121827 0.0198323 -0.013316 0.0189823 -0.0138826 0.0181324 -0.0147326 0.0175658 -0.0155825 0.0164325 -0.0161492 0.0155825 -0.0169991 0.0150159 -0.0175658 0.0138826 -0.0181324 0.0130327 -0.018699 0.0121827 -0.0192657 0.0110494 -0.0198323 0.0101995 -0.0201156 0.00934951 -0.0206823 0.00821624 -0.0209656 0.00736628 -0.0212489 0.00623301 -0.0218155 0.00509973 -0.0218155 0.00424978 -0.0218155 0.0031165 -0.0223822 0.00226655 -0.0223822 0.00113327 -0.0223822 -0.000283319 -0.0226655 -0.00113327 -0.0223822 -0.00226655 -0.0226655 -0.00339982 -0.0223822 -0.0045331 -0.0223822 -0.00594969 -0.0223822 -0.00679965 -0.0220988 -0.00821624 -0.0218155 -0.00934951 -0.0212489 -0.0104828 -0.0206823 -0.0113327 -0.0198323 -0.012466 -0.0189823 -0.0130327 -0.0181324 -0.0141659 -0.0175658 -0.0147326 -0.0164325 -0.0155825 -0.0155825 -0.0161492 -0.0147326 -0.0169991 -0.0138826 -0.0175658 -0.0130327 -0.0184157 -0.0121827 -0.018699 -0.0110494 -0.0192657 -0.0101995 -0.0198323 -0.00906619 -0.0201156 -0.00821624 -0.0206823 -0.00736628 -0.0209656 -0.00623301 -0.0215322 -0.00509973 -0.0215322 -0.00424978 -0.0218155 -0.0031165 -0.0220988 -0.00226655 -0.0223822 -0.000849956 -0.0223822 0 -0.0226655 0.00113327 -0.0223822 0.00226655 -0.0226655 0.00339982 -0.0226655 0.00481642 -0.0226655 0.00566637 -0.0223822 0.00679965 -0.0220988 0.00821624 -0.0223822 0.00934951 -0.0218155zm-6.08852 16.3914l-0.799525 -0.465209 -0.0141659 0.0266319 0.289268 -0.589586 0.274819 -0.57117 0.26122 -0.554171 0.248754 -0.538872 0.237138 -0.523856 0.226655 -0.511107 0.217022 -0.499207 0.208522 -0.488158 0.200873 -0.478808 0.19379 -0.470309 0.188407 -0.463793 0.183874 -0.457843 0.179907 -0.453593 0.177641 -0.450193 0.175091 -0.447927 0.174524 -0.44736 0.175091 -0.447643 0.175941 -0.449627 0.178207 -0.451893 0.181041 -0.456426 0.185007 -0.461243 0.190107 -0.467759 0.196056 -0.475409 0.203139 -0.483908 0.210789 -0.493824 0.219289 -0.504874 0.229488 -0.51734 0.239971 -0.530656 0.252154 -0.545105 0.264053 -0.560971 0.278219 -0.57797 0.292668 -0.595819 0.827857 0.411945 -0.289268 0.589586 -0.274819 0.57117 -0.26122 0.554171 -0.248754 0.538872 -0.237138 0.523856 -0.226655 0.511107 -0.217022 0.499207 -0.208522 0.488158 -0.200873 0.478808 -0.19379 0.470309 -0.188407 0.463793 -0.183874 0.457843 -0.179907 0.453593 -0.177641 0.450193 -0.175374 0.447927 -0.174524 0.447077 -0.174524 0.447927 -0.176224 0.449627 -0.178207 0.451893 -0.181041 0.456426 -0.185007 0.461243 -0.190107 0.467759 -0.196056 0.475409 -0.203139 0.483908 -0.210789 0.493824 -0.219289 0.504874 -0.229488 0.51734 -0.239971 0.530656 -0.252154 0.545105 -0.264053 0.560971 -0.278219 0.57797 -0.292668 0.595819 -0.0141659 0.0266319zm-0.813691 -0.438577l0.827857 0.411945 -0.0110494 0.0209656 -0.0121827 0.0203989 -0.0127493 0.019549 -0.0138826 0.0184157 -0.0144492 0.0178491 -0.0152992 0.0169991 -0.0161492 0.0161492 -0.0167158 0.0150159 -0.0175658 0.0141659 -0.0178491 0.013316 -0.018699 0.012466 -0.0189823 0.0116161 -0.019549 0.0104828 -0.0201156 0.00963283 -0.0206823 0.00849956 -0.0206823 0.0076496 -0.0212489 0.00651633 -0.0215322 0.00566637 -0.0218155 0.0045331 -0.0218155 0.00339982 -0.0220988 0.00254987 -0.0223822 0.00113327 -0.0223822 0.000283319 -0.0226655 -0.000566637 -0.0223822 -0.00198323 -0.0223822 -0.0031165 -0.0223822 -0.00424978 -0.0223822 -0.00509973 -0.0220988 -0.00651633 -0.0220988 -0.0076496 -0.0218155 -0.00906619 -0.0215322 -0.00991615 -0.0209656 -0.0110494 -0.0201156 -0.0121827 -0.019549 -0.0127493 -0.0184157 -0.0138826 -0.0178491 -0.0147326 -0.0167158 -0.0152992 -0.0161492 -0.0161492 -0.0150159 -0.0167158 -0.0141659 -0.0172824 -0.013316 -0.0181324 -0.012466 -0.018699 -0.0113327 -0.0189823 -0.0104828 -0.0198323 -0.00963283 -0.0201156 -0.00849956 -0.0203989 -0.0076496 -0.0209656 -0.00651633 -0.0212489 -0.00538305 -0.0215322 -0.0045331 -0.0218155 -0.00368314 -0.0220988 -0.00226655 -0.0220988 -0.00141659 -0.0223822 -0.000283319 -0.0223822 0.000849956 -0.0226655 0.00198323 -0.0223822 0.00283319 -0.0226655 0.00424978 -0.0223822 0.00538305 -0.0223822 0.00651633 -0.0223822 0.00736628 -0.0218155 0.00906619 -0.0220988 0.00991615 -0.0215322zm0.998415 0.997848l-0.349615 0.858455 0 -0.000283319 -0.0679965 -0.0283319 -0.0665799 -0.0303151 -0.06403 -0.031165 -0.0620468 -0.0325816 -0.0611968 -0.0345649 -0.0594969 -0.0368314 -0.0572304 -0.0388146 -0.0558138 -0.0416478 -0.0541138 -0.0450477 -0.0518473 -0.0481642 -0.0498641 -0.0521306 -0.0473142 -0.0572304 -0.0427811 -0.0597802 -0.038248 -0.06318 -0.0345649 -0.0677131 -0.0288985 -0.0708296 -0.0229488 -0.0733795 -0.0169991 -0.0745128 -0.0107661 -0.0739462 -0.00509973 -0.0753627 0.000283319 -0.0747961 0.00538305 -0.0736628 0.0104828 -0.0739462 0.0144492 -0.0713963 0.0181324 -0.070263 0.0215322 -0.0696964 0.024932 -0.0688464 0.0277652 -0.0682798 0.0303151 -0.0679965 0.0339982 -0.0694131 0.0368314 -0.0696964 0.039098 -0.0691297 0.799525 0.465209 -0.0277652 0.0492974 -0.0237988 0.0447643 -0.0203989 0.0422145 -0.0178491 0.0396646 -0.0147326 0.0359815 -0.0113327 0.032015 -0.00906619 0.0283319 -0.00623301 0.0243654 -0.00424978 0.0203989 -0.00198323 0.0150159 -0.000849956 0.0118994 -0.000283319 0.00849956 0.000566637 0.00566637 0.000566637 0.00424978 0 0.000849956 0.000283319 0.000283319 0 0 0.000566637 0.00141659 0.00254987 0.00368314 0.00368314 0.00538305 0.00538305 0.00623301 0.00849956 0.00906619 0.0121827 0.0113327 0.0161492 0.013316 0.0201156 0.0150159 0.0237988 0.0161492 0.0283319 0.0175658 0.0317317 0.0181324 0.0365481 0.0189823 0.0407979 0.0198323 0.0433477 0.019549 0.0481642 0.0203989 0 -0.000283319zm2.10817 0.921919l-0.528106 0.760994 -0.000566637 -0.000566637 -0.0045331 -0.00254987 -0.0141659 -0.00878288 -0.0226655 -0.012466 -0.0303151 -0.0161492 -0.0356981 -0.0181324 -0.0407979 -0.0198323 -0.0473142 -0.0220988 -0.0512807 -0.0240821 -0.0529806 -0.0243654 -0.0575137 -0.0254987 -0.0606302 -0.0269153 -0.0643133 -0.0277652 -0.0662965 -0.0288985 -0.0682798 -0.0288985 -0.0696964 -0.0297485 -0.0725296 -0.0303151 -0.0733795 -0.0305984 -0.0742295 -0.0305984 -0.0759294 -0.0314484 -0.0767793 -0.0314484 -0.076496 -0.0317317 -0.0756461 -0.0305984 -0.076496 -0.0308817 -0.0767793 -0.031165 -0.0750794 -0.0308817 -0.0742295 -0.0297485 -0.0742295 -0.0300318 -0.0716796 -0.0291818 -0.070263 -0.0283319 -0.0688464 -0.0280485 -0.0660132 -0.0269153 -0.06403 -0.025782 0.349615 -0.858455 0.0628967 0.025782 0.0660132 0.0269153 0.0677131 0.0274819 0.0696964 0.0283319 0.0722462 0.0291818 0.0725296 0.0294651 0.0753627 0.0303151 0.0762127 0.0308817 0.0756461 0.0305984 0.0776293 0.0314484 0.0784792 0.0322983 0.0770627 0.0317317 0.0767793 0.0314484 0.076496 0.0314484 0.0770627 0.0317317 0.0750794 0.0317317 0.0742295 0.0308817 0.0730962 0.0308817 0.0716796 0.0305984 0.0691297 0.0300318 0.0665799 0.0288985 0.0651633 0.0286152 0.06318 0.0283319 0.0609135 0.0277652 0.0563804 0.0263486 0.0535472 0.0254987 0.0521306 0.0254987 0.0492974 0.024932 0.0456143 0.0240821 0.0447643 0.024932 0.0430644 0.025782 0.0430644 0.0286152 -0.000566637 -0.000566637zm-0.142509 2.30961l-0.796692 -0.470309 0.0201156 -0.031165 0.0498641 -0.0722462 0.0464642 -0.0696964 0.0430644 -0.0674298 0.0407979 -0.0662965 0.0376814 -0.0637467 0.0345649 -0.0611968 0.031165 -0.0586469 0.0280485 -0.0560971 0.0254987 -0.0543972 0.0223822 -0.050714 0.0189823 -0.0478808 0.0167158 -0.0461809 0.0138826 -0.0427811 0.0107661 -0.0388146 0.00849956 -0.0356981 0.00623301 -0.0331483 0.00396646 -0.0283319 0.00226655 -0.0252154 0.000566637 -0.0220988 -0.000566637 -0.0178491 -0.00141659 -0.0144492 -0.00198323 -0.012466 -0.00198323 -0.00849956 -0.00198323 -0.00594969 -0.00226655 -0.00566637 -0.00226655 -0.00424978 -0.0031165 -0.00481642 -0.00283319 -0.00424978 -0.00424978 -0.00481642 -0.0076496 -0.0076496 -0.00849956 -0.00736628 -0.0116161 -0.00849956 0.528106 -0.760994 0.0620468 0.0464642 0.0589303 0.0509973 0.0541138 0.0541138 0.0518473 0.0597802 0.0470309 0.0643133 0.0410812 0.0665799 0.0362648 0.071113 0.0300318 0.0725296 0.0246487 0.0750794 0.0184157 0.076496 0.0127493 0.0753627 0.0076496 0.077346 0.00226655 0.0767793 -0.00226655 0.0753627 -0.00623301 0.0762127 -0.0107661 0.0759294 -0.0141659 0.0745128 -0.0175658 0.0753627 -0.0215322 0.0756461 -0.0240821 0.0745128 -0.0269153 0.0745128 -0.0303151 0.0762127 -0.0331483 0.0762127 -0.0356981 0.0759294 -0.0388146 0.0776293 -0.0419312 0.0784792 -0.0441977 0.0787626 -0.0467476 0.0790459 -0.0492974 0.0804625 -0.0526973 0.0821624 -0.0555304 0.0832957 -0.057797 0.083579 0.0201156 -0.031165zm-0.776576 -0.501474l0.756461 0.532639 -0.0141659 0.0192657 -0.0150159 0.0181324 -0.0155825 0.0172824 -0.0164325 0.0164325 -0.0169991 0.0152992 -0.0178491 0.0144492 -0.0184157 0.013316 -0.018699 0.012466 -0.0192657 0.0116161 -0.0198323 0.0104828 -0.0203989 0.00934951 -0.0206823 0.00849956 -0.0209656 0.00736628 -0.0212489 0.00651633 -0.0215322 0.00538305 -0.0215322 0.00424978 -0.0220988 0.00339982 -0.0220988 0.00226655 -0.0220988 0.00113327 -0.0223822 0.000283319 -0.0220988 -0.00113327 -0.0223822 -0.00198323 -0.0220988 -0.0031165 -0.0220988 -0.00396646 -0.0218155 -0.00538305 -0.0218155 -0.00651633 -0.0215322 -0.00736628 -0.0212489 -0.00878288 -0.0209656 -0.00963283 -0.0206823 -0.0110494 -0.0201156 -0.0118994 -0.0198323 -0.013316 -0.0189823 -0.0141659 -0.0184157 -0.0150159 -0.0169991 -0.0158658 -0.0164325 -0.0164325 -0.0152992 -0.0169991 -0.0144492 -0.0178491 -0.013316 -0.0181324 -0.012466 -0.0189823 -0.0113327 -0.019549 -0.0104828 -0.0198323 -0.00934951 -0.0201156 -0.00849956 -0.0206823 -0.00736628 -0.0212489 -0.00651633 -0.0212489 -0.00538305 -0.0215322 -0.00424978 -0.0218155 -0.00339982 -0.0220988 -0.00226655 -0.0220988 -0.00113327 -0.0220988 0 -0.0223822 0.000849956 -0.0223822 0.00198323 -0.0220988 0.0031165 -0.0223822 0.00424978 -0.0220988 0.00538305 -0.0220988 0.00623301 -0.0218155 0.0076496 -0.0215322 0.00849956 -0.0212489 0.00991615 -0.0209656 0.0107661 -0.0206823 0.0118994 -0.0203989 0.013316 -0.0198323zm-5.20768 7.23029l-0.509407 -0.772893 -0.000283319 0 0.210506 -0.142226 0.207673 -0.145909 0.204839 -0.149309 0.202289 -0.152992 0.19974 -0.156675 0.19719 -0.160358 0.19464 -0.164041 0.192657 -0.168008 0.19039 -0.171408 0.18784 -0.175091 0.18614 -0.179341 0.18359 -0.182457 0.181891 -0.186707 0.180191 -0.190673 0.177924 -0.194357 0.175941 -0.19804 0.174524 -0.202006 0.172824 -0.205973 0.171408 -0.209939 0.169425 -0.213906 0.168008 -0.217589 0.166875 -0.221838 0.165175 -0.225522 0.163758 -0.229488 0.162908 -0.234021 0.161492 -0.237704 0.160358 -0.241671 0.159225 -0.245637 0.158375 -0.249887 0.157525 -0.25357 0.156392 -0.258103 0.155542 -0.261786 0.796692 0.470309 -0.160075 0.269153 -0.160925 0.26547 -0.162058 0.261503 -0.163475 0.25782 -0.164325 0.25357 -0.166025 0.25017 -0.167725 0.246204 -0.168575 0.242521 -0.170558 0.238554 -0.171974 0.235154 -0.173674 0.230905 -0.175374 0.227222 -0.177357 0.223538 -0.179341 0.219572 -0.180757 0.216172 -0.18359 0.212206 -0.185007 0.208239 -0.187557 0.204556 -0.189823 0.200873 -0.191523 0.196906 -0.194357 0.193223 -0.196906 0.18954 -0.199173 0.185857 -0.201723 0.181607 -0.203989 0.178207 -0.207106 0.174241 -0.209656 0.170558 -0.212772 0.166875 -0.215322 0.162625 -0.217872 0.158942 -0.221272 0.155542 -0.224105 0.151292 -0.000283319 0zm-1.537 1.07264l-0.567204 -0.731529 0 0 0.0379647 -0.0294651 0.0388146 -0.0300318 0.0393813 -0.0300318 0.0399479 -0.0300318 0.0405146 -0.0303151 0.0405146 -0.0300318 0.0416478 -0.0308817 0.0424978 -0.0308817 0.0427811 -0.031165 0.0447643 -0.0322983 0.0439144 -0.0314484 0.0441977 -0.0314484 0.0464642 -0.0331483 0.0473142 -0.0331483 0.0473142 -0.0331483 0.0490141 -0.0342815 0.0490141 -0.0339982 0.0498641 -0.0342815 0.0509973 -0.0351315 0.0521306 -0.0356981 0.0529806 -0.0362648 0.0538305 -0.0365481 0.0552471 -0.0373981 0.0566637 -0.0379647 0.0563804 -0.0379647 0.0572304 -0.0388146 0.0600635 -0.0402312 0.0611968 -0.0407979 0.0606302 -0.0399479 0.0614801 -0.0413645 0.0651633 -0.0430644 0.06488 -0.0427811 0.509407 0.772893 -0.06488 0.0427811 -0.0617635 0.0413645 -0.0626134 0.0419312 -0.0617635 0.0410812 -0.0589303 0.039098 -0.0572304 0.0385313 -0.057797 0.0388146 -0.056947 0.0379647 -0.0543972 0.0368314 -0.0535472 0.0362648 -0.0526973 0.0359815 -0.0518473 0.0351315 -0.0504307 0.0345649 -0.0492974 0.0339982 -0.0492974 0.0342815 -0.0478808 0.032865 -0.0461809 0.032015 -0.0456143 0.032015 -0.044481 0.0314484 -0.0436311 0.0308817 -0.0436311 0.0314484 -0.0427811 0.0303151 -0.0407979 0.0294651 -0.0405146 0.0294651 -0.0396646 0.0291818 -0.0388146 0.0286152 -0.0388146 0.0288985 -0.0376814 0.0280485 -0.0365481 0.0277652 -0.0359815 0.0271986 -0.0354148 0.0271986 -0.0351315 0.0271986 0 0zm-0.567204 -0.731529l0.567204 0.731529 -0.0192657 0.0141659 -0.019549 0.0130327 -0.0201156 0.0118994 -0.0203989 0.0107661 -0.0206823 0.00963283 -0.0212489 0.00849956 -0.0215322 0.0076496 -0.0215322 0.00623301 -0.0218155 0.00538305 -0.0220988 0.00396646 -0.0220988 0.0031165 -0.0220988 0.00198323 -0.0223822 0.00113327 -0.0220988 -0.000283319 -0.0223822 -0.00113327 -0.0220988 -0.00226655 -0.0218155 -0.0031165 -0.0218155 -0.0045331 -0.0215322 -0.00538305 -0.0212489 -0.00623301 -0.0209656 -0.00736628 -0.0206823 -0.00849956 -0.0203989 -0.00963283 -0.0198323 -0.0104828 -0.019549 -0.0113327 -0.0189823 -0.0127493 -0.0181324 -0.013316 -0.0178491 -0.0147326 -0.0172824 -0.0152992 -0.0164325 -0.0164325 -0.0158658 -0.0175658 -0.0150159 -0.0184157 -0.0141659 -0.0192657 -0.0130327 -0.019549 -0.0116161 -0.0201156 -0.0107661 -0.0203989 -0.00963283 -0.0209656 -0.00849956 -0.0212489 -0.0076496 -0.0212489 -0.00623301 -0.0218155 -0.00509973 -0.0218155 -0.00424978 -0.0220988 -0.0031165 -0.0220988 -0.00198323 -0.0223822 -0.000849956 -0.0223822 0 -0.0220988 0.00113327 -0.0223822 0.00226655 -0.0220988 0.00339982 -0.0218155 0.00424978 -0.0218155 0.00538305 -0.0218155 0.00651633 -0.0212489 0.00736628 -0.0209656 0.00849956 -0.0209656 0.00934951 -0.0201156 0.0104828 -0.0201156 0.0116161 -0.019549 0.012466 -0.018699 0.0135993 -0.018699 0.0144492 -0.0178491 0.0152992 -0.0169991 0.0167158 -0.0167158 0.0172824 -0.0158658 0.0184157 -0.0150159zm-2.84962 5.53123l-0.844856 -0.37568 0 0 0.083579 -0.188407 0.0841456 -0.186424 0.0841456 -0.183307 0.0841456 -0.181324 0.0849956 -0.179624 0.0858455 -0.177641 0.0869788 -0.175091 0.0878288 -0.173391 0.0895287 -0.171408 0.0912286 -0.169991 0.0932118 -0.168291 0.0949117 -0.166025 0.0971783 -0.164891 0.100011 -0.163475 0.102561 -0.161492 0.105678 -0.160075 0.108511 -0.158658 0.111911 -0.157242 0.115594 -0.156109 0.119277 -0.154125 0.12296 -0.152992 0.126927 -0.151575 0.131177 -0.150725 0.135993 -0.149592 0.140243 -0.147326 0.144776 -0.147042 0.150442 -0.145909 0.154975 -0.144492 0.160642 -0.143926 0.166308 -0.142509 0.171408 -0.141659 0.177357 -0.140809 0.567204 0.731529 -0.163758 0.130043 -0.157808 0.130327 -0.152142 0.13061 -0.146476 0.130893 -0.141376 0.132026 -0.136276 0.13231 -0.131743 0.133443 -0.12721 0.134293 -0.12296 0.13486 -0.11871 0.135993 -0.115027 0.13741 -0.111628 0.138826 -0.107944 0.139959 -0.104828 0.141376 -0.101711 0.143076 -0.0994448 0.145059 -0.0966116 0.146476 -0.0940618 0.148459 -0.0920785 0.150442 -0.0903786 0.152992 -0.0886787 0.155259 -0.0869788 0.156958 -0.0855622 0.159792 -0.0844289 0.162342 -0.0838623 0.164891 -0.0830123 0.167725 -0.0824457 0.169708 -0.0815958 0.172824 -0.0818791 0.176224 -0.0818791 0.178774 -0.0818791 0.181324 -0.0824457 0.185007 0 0zm-0.844856 -0.37568l0.844856 0.37568 -0.0101995 0.0215322 -0.0110494 0.0206823 -0.0121827 0.0201156 -0.0130327 0.0192657 -0.0138826 0.0184157 -0.0144492 0.0172824 -0.0152992 0.0169991 -0.0161492 0.0158658 -0.0167158 0.0147326 -0.0175658 0.0141659 -0.0181324 0.013316 -0.0184157 0.0121827 -0.0192657 0.0113327 -0.019549 0.0104828 -0.0201156 0.00963283 -0.0206823 0.00849956 -0.0206823 0.00736628 -0.0212489 0.00651633 -0.0215322 0.00538305 -0.0218155 0.0045331 -0.0220988 0.00339982 -0.0220988 0.00226655 -0.0223822 0.00141659 -0.0226655 0 -0.0223822 -0.000849956 -0.0226655 -0.00198323 -0.0226655 -0.0031165 -0.0223822 -0.0045331 -0.0223822 -0.00538305 -0.0223822 -0.00679965 -0.0220988 -0.00793292 -0.0220988 -0.00906619 -0.0215322 -0.0101995 -0.0206823 -0.0110494 -0.0198323 -0.0121827 -0.0192657 -0.0130327 -0.0184157 -0.0138826 -0.0172824 -0.0144492 -0.0167158 -0.0155825 -0.0158658 -0.0161492 -0.0150159 -0.0167158 -0.0138826 -0.0175658 -0.013316 -0.0178491 -0.0121827 -0.018699 -0.0113327 -0.0192657 -0.0104828 -0.019549 -0.00934951 -0.0201156 -0.00849956 -0.0206823 -0.00736628 -0.0209656 -0.00651633 -0.0212489 -0.00538305 -0.0215322 -0.0045331 -0.0218155 -0.00339982 -0.0220988 -0.00226655 -0.0223822 -0.00113327 -0.0223822 -0.000283319 -0.0223822 0.00113327 -0.0226655 0.00198323 -0.0226655 0.0031165 -0.0226655 0.0045331 -0.0223822 0.00538305 -0.0226655 0.00679965 -0.0223822 0.00793292 -0.0220988 0.00906619 -0.0220988zm-7.52891 16.9832l7.52891 -16.9832 0.844856 0.37568 -7.52891 16.9832 -0.844856 -0.37568zm0 0l0.844856 0.37568 -0.0101995 0.0215322 -0.0110494 0.0206823 -0.0121827 0.0201156 -0.0130327 0.0192657 -0.0138826 0.0184157 -0.0144492 0.0172824 -0.0152992 0.0169991 -0.0161492 0.0158658 -0.0167158 0.0147326 -0.0175658 0.0141659 -0.0181324 0.013316 -0.0184157 0.0121827 -0.0192657 0.0113327 -0.019549 0.0104828 -0.0201156 0.00963283 -0.0206823 0.00849956 -0.0206823 0.00736628 -0.0212489 0.00651633 -0.0215322 0.00538305 -0.0218155 0.0045331 -0.0220988 0.00339982 -0.0220988 0.00226655 -0.0223822 0.00141659 -0.0226655 0 -0.0223822 -0.000849956 -0.0226655 -0.00198323 -0.0226655 -0.0031165 -0.0223822 -0.0045331 -0.0223822 -0.00538305 -0.0223822 -0.00679965 -0.0220988 -0.00793292 -0.0220988 -0.00906619 -0.0215322 -0.0101995 -0.0206823 -0.0110494 -0.0198323 -0.0121827 -0.0192657 -0.0130327 -0.0184157 -0.0138826 -0.0172824 -0.0144492 -0.0167158 -0.0155825 -0.0158658 -0.0161492 -0.0150159 -0.0167158 -0.0138826 -0.0175658 -0.013316 -0.0178491 -0.0121827 -0.018699 -0.0113327 -0.0192657 -0.0104828 -0.019549 -0.00934951 -0.0201156 -0.00849956 -0.0206823 -0.00736628 -0.0209656 -0.00651633 -0.0212489 -0.00538305 -0.0215322 -0.0045331 -0.0218155 -0.00339982 -0.0220988 -0.00226655 -0.0223822 -0.00113327 -0.0223822 -0.000283319 -0.0223822 0.00113327 -0.0226655 0.00198323 -0.0226655 0.0031165 -0.0226655 0.0045331 -0.0223822 0.00538305 -0.0226655 0.00679965 -0.0223822 0.00793292 -0.0220988 0.00906619 -0.0220988z"/>
   </g>
   <line class="fil0 str0" x1="31.0398" y1="13.2876" x2="80.5342" y2= "25.7208" />
   <line class="fil0 str0" x1="24.9034" y1="17.925" x2="73.3127" y2= "31.5784" />
   <line class="fil0 str0" x1="15.6375" y1="44.1677" x2="63.8229" y2= "61.0849" />
   <line class="fil0 str0" x1="9.69233" y1="49.5612" x2="57.1547" y2= "67.6131" />
  </g>
 </g>
</svg>
