<?xml version="1.0" encoding="UTF-8"?>
<!DOCTYPE svg PUBLIC "-//W3C//DTD SVG 1.1//EN" "http://www.w3.org/Graphics/SVG/1.1/DTD/svg11.dtd">
<!-- Creator: CorelDRAW -->
<svg xmlns="http://www.w3.org/2000/svg" xml:space="preserve" width="90px" height="94px" style="shape-rendering:geometricPrecision; text-rendering:geometricPrecision; image-rendering:optimizeQuality; fill-rule:evenodd; clip-rule:evenodd"
viewBox="0 0 90.0003 94.329"
 xmlns:xlink="http://www.w3.org/1999/xlink">
 <defs>
  <style type="text/css">
   <![CDATA[
    .str0 {stroke:black;stroke-width:0.926517;stroke-linecap:round;stroke-linejoin:round}
    .str1 {stroke:black;stroke-width:0.926801;stroke-linecap:round;stroke-linejoin:round}
    .fil0 {fill:none}
    .fil1 {fill:black;fill-rule:nonzero}
   ]]>
  </style>
 </defs>
 <g id="Layer_x0020_1">
  <metadata id="CorelCorpID_0Corel-Layer"/>
  <g id="_464423096">
   <polyline id="_469004424" class="fil0 str0" points="27.4024,11.2554 20.0433,27.7428 21.7291,30.5853 20.8173,32.5712 17.741,32.8983 10.3036,49.5592 11.7687,52.3535 10.9572,54.3859 7.99118,54.7416 0.705162,71.0612 0.488909,71.678 1.65634,73.7937 51.8257,93.8654 "/>
   <polyline id="_469004328" class="fil0 str1" points="80.9236,21.6319 72.4744,40.5613 74.5267,43.5783 73.3629,46.1048 69.8312,46.4803 61.2921,65.6087 63.1001,68.6518 61.9131,71.3741 58.6373,71.5589 50.2723,90.2953 "/>
   <polyline id="_469004160" class="fil0 str0" points="50.3088,90.2131 50.1926,90.9228 51.8257,93.8654 52.9453,91.5597 52.7299,90.5731 50.8558,89.436 "/>
   <line id="_469004064" class="fil0 str0" x1="0.4634" y1="71.5399" x2="50.0453" y2= "90.8112" />
   <line id="_469003968" class="fil0 str0" x1="27.6099" y1="11.4847" x2="80.9236" y2= "21.6316" />
   <line id="_469003872" class="fil0 str0" x1="30.6023" y1="10.879" x2="84.1481" y2= "20.7402" />
   <line id="_469003776" class="fil0 str0" x1="30.6224" y1="7.15337" x2="84.1685" y2= "17.0143" />
   <line id="_469003680" class="fil0 str0" x1="32.2657" y1="4.66631" x2="85.1225" y2= "13.3675" />
   <line id="_469003584" class="fil0 str0" x1="34.524" y1="3.13157" x2="87.649" y2= "11.5992" />
   <line id="_469003488" class="fil0 str0" x1="35.4656" y1="0.463684" x2="89.5369" y2= "8.33015" />
   <line id="_469003392" class="fil0 str0" x1="20.0977" y1="27.5574" x2="72.4738" y2= "40.5613" />
   <line id="_469003296" class="fil0 str0" x1="17.7875" y1="33.0199" x2="69.9632" y2= "46.5401" />
   <line id="_469003200" class="fil0 str0" x1="21.5182" y1="30.4855" x2="74.527" y2= "43.5786" />
   <line id="_469003104" class="fil0 str0" x1="20.8431" y1="32.6004" x2="73.3326" y2= "45.9112" />
   <line id="_469003008" class="fil0 str0" x1="10.3036" y1="49.5592" x2="61.2924" y2= "65.6087" />
   <line id="_469002912" class="fil0 str0" x1="11.587" y1="52.3316" x2="63.0122" y2= "68.6609" />
   <line id="_469002816" class="fil0 str0" x1="10.7744" y1="54.2187" x2="62.0307" y2= "71.1074" />
   <line id="_469002720" class="fil0 str0" x1="8.01357" y1="54.8521" x2="58.3303" y2= "71.6017" />
   <polyline id="_469002552" class="fil0 str0" points="27.4024,11.2554 30.7242,10.902 32.2096,7.44615 "/>
   <polyline id="_469002384" class="fil0 str0" points="30.6224,7.15337 32.0747,4.41718 34.0955,4.14935 34.4475,3.12561 "/>
   <path id="_469002216" class="fil0 str0" d="M80.7229 21.5942l3.21801 -0.891939c0.956844,-2.02479 1.91369,-4.04986 2.87053,-6.07465 -0.109119,-0.685039 -0.528588,-0.879469 -1.24934,-0.594059"/>
   <path id="_469002048" class="fil0 str0" d="M85.7186 13.978c-0.0867281,0.872666 -0.174023,1.74533 -0.260468,2.61828 -0.532273,0.589241 -0.985753,0.757879 -1.35619,0.25735l0.931335 -3.5003 2.35923 -0.175157c0.195847,-0.560332 0.392544,-1.12066 0.588107,-1.68128"/>
   <line id="_469001952" class="fil0 str0" x1="87.6997" y1="11.4082" x2="89.5369" y2= "8.33015" />
   <path id="_469001880" class="fil1" d="M9.25242 58.1331c-0.28626,-0.166937 -0.767799,0.37072 -0.230992,0.683338l1.36583 0.461983c0.28626,0.166937 0.767799,-0.37072 0.230992,-0.683622l-1.36583 -0.4617zm44.1693 15.7179c0.148231,0.0861613 0.365619,-0.0527171 0.431657,-0.167221 0.110252,-0.272655 0.00991989,-0.393678 -0.200665,-0.516117l-1.36668 -0.462833c-0.299014,-0.173456 -0.743708,0.391977 -0.263302,0.670868l0.0323105 0.0124707 1.36668 0.462833zm-4.78337 -1.62063c0.148231,0.0861613 0.365619,-0.0527171 0.431657,-0.166937 0.110252,-0.272939 0.00963646,-0.393961 -0.200665,-0.516401l-1.36668 -0.462833c-0.310067,-0.179975 -0.741441,0.386592 -0.230992,0.683338l1.36668 0.462833zm-4.78252 -1.61949c0.231558,0.13406 0.687306,-0.237227 0.367886,-0.599728 -0.0450646,-0.0513 -0.0864447,-0.0549845 -0.136894,-0.0836105l-1.36583 -0.462833c-0.28626,-0.166937 -0.767799,0.37072 -0.230992,0.683338l1.36583 0.462833zm-4.78167 -1.61949c0.28626,0.166937 0.768083,-0.37072 0.230992,-0.683338l-1.36583 -0.462833c-0.28626,-0.166937 -0.767799,0.37072 -0.230708,0.683338l1.36554 0.462833zm-4.78138 -1.61949c0.28626,0.166937 0.767799,-0.37072 0.230708,-0.683338l-1.36554 -0.462833c-0.28626,-0.166937 -0.768083,0.370437 -0.230992,0.683338l1.36583 0.462833zm-4.78167 -1.61949c0.28626,0.166937 0.767799,-0.37072 0.230992,-0.683338l-1.36583 -0.461983c-0.28626,-0.166937 -0.768083,0.37072 -0.230992,0.683338l1.36583 0.461983zm-4.78167 -1.61864c0.28626,0.166937 0.767799,-0.37072 0.230992,-0.683338l-1.36583 -0.461983c-0.28626,-0.166937 -0.767799,0.37072 -0.230992,0.683338l1.36583 0.461983zm-4.78082 -1.61836c0.28626,0.166937 0.767799,-0.37072 0.230992,-0.683622l-1.36583 -0.4617c-0.28626,-0.166937 -0.767799,0.37072 -0.230992,0.683338l1.36583 0.461983zm-4.78053 -1.61864c0.28626,0.166937 0.767799,-0.37072 0.230992,-0.683338l-1.36583 -0.461983c-0.28626,-0.166937 -0.768083,0.37072 -0.230992,0.683338l1.36583 0.461983z"/>
   <path id="_469001808" class="fil1" d="M10.5159 61.4874c-0.28626,-0.166937 -0.767799,0.37072 -0.230992,0.683622l1.36583 0.4617c0.28626,0.166937 0.767799,-0.370437 0.230992,-0.683338l-1.36583 -0.461983zm39.3859 14.0976c0.148231,0.0861613 0.365619,-0.0527171 0.431657,-0.167221 0.110252,-0.272655 0.00991989,-0.393961 -0.200665,-0.516117l-1.36668 -0.462833c-0.310067,-0.179975 -0.741441,0.386309 -0.230992,0.683338l1.36668 0.462833zm-4.78252 -1.61949c0.231558,0.13406 0.687306,-0.23751 0.367886,-0.600011 -0.0450646,-0.0510166 -0.0864447,-0.0547011 -0.136894,-0.0836105l-1.36583 -0.462833c-0.28626,-0.166937 -0.767799,0.37072 -0.230992,0.683622l1.36583 0.462833zm-4.78138 -1.61949c0.28626,0.166937 0.767799,-0.37072 0.230708,-0.683622l-1.36554 -0.462833c-0.28626,-0.166937 -0.768083,0.37072 -0.230992,0.683622l1.36583 0.462833zm-4.78167 -1.61978c0.28626,0.167221 0.767799,-0.370437 0.230992,-0.683338l-1.36583 -0.462833c-0.28626,-0.166937 -0.767799,0.37072 -0.230992,0.683622l1.36583 0.46255zm-4.78167 -1.61949c0.28626,0.167221 0.767799,-0.370437 0.230992,-0.683338l-1.36583 -0.4617c-0.28626,-0.167221 -0.767799,0.370437 -0.230992,0.683338l1.36583 0.4617zm-4.78167 -1.61836c0.28626,0.166937 0.767799,-0.37072 0.230992,-0.683338l-1.36583 -0.461983c-0.28626,-0.166937 -0.767799,0.37072 -0.230992,0.683338l1.36583 0.461983zm-4.78082 -1.61864c0.286543,0.166937 0.768083,-0.370437 0.230992,-0.683338l-1.36583 -0.461983c-0.28626,-0.166937 -0.767799,0.37072 -0.230992,0.683622l1.36583 0.4617zm-4.78053 -1.61836c0.28626,0.166937 0.767799,-0.37072 0.230992,-0.683338l-1.36583 -0.461983c-0.28626,-0.166937 -0.767799,0.37072 -0.230992,0.683338l1.36583 0.461983z"/>
   <path id="_469001736" class="fil1" d="M7.00939 63.3257c-0.28626,-0.166937 -0.767799,0.37072 -0.230992,0.683338l1.36583 0.461983c0.28626,0.166937 0.768083,-0.37072 0.230992,-0.683338l-1.36583 -0.461983zm44.1696 15.7179c0.147948,0.0861613 0.365619,-0.0527171 0.431373,-0.167221 0.110252,-0.272655 0.00991989,-0.393678 -0.200382,-0.516117l-1.36696 -0.462833c-0.299014,-0.173456 -0.743425,0.391977 -0.263302,0.670868l0.0323105 0.0124707 1.36696 0.462833zm-4.78365 -1.62063c0.148231,0.0861613 0.365619,-0.0527171 0.431657,-0.166937 0.110252,-0.272939 0.00991989,-0.393961 -0.200665,-0.516401l-1.36668 -0.462833c-0.310067,-0.179975 -0.741441,0.386592 -0.230992,0.683338l1.36668 0.462833zm-4.78252 -1.61949c0.231558,0.13406 0.68759,-0.237227 0.367886,-0.599728 -0.0450646,-0.0513 -0.0864447,-0.0549845 -0.136894,-0.0836105l-1.36583 -0.462833c-0.28626,-0.166937 -0.767799,0.37072 -0.230708,0.683338l1.36554 0.462833zm-4.78138 -1.61949c0.28626,0.166937 0.767799,-0.37072 0.230708,-0.683338l-1.36554 -0.462833c-0.28626,-0.166937 -0.768083,0.37072 -0.230992,0.683338l1.36583 0.462833zm-4.78167 -1.61949c0.28626,0.166937 0.767799,-0.37072 0.230992,-0.683338l-1.36583 -0.462833c-0.28626,-0.166937 -0.767799,0.37072 -0.230992,0.683338l1.36583 0.462833zm-4.78167 -1.61949c0.28626,0.166937 0.767799,-0.37072 0.230992,-0.683338l-1.36583 -0.461983c-0.28626,-0.166937 -0.767799,0.37072 -0.230992,0.683338l1.36583 0.461983zm-4.78167 -1.61864c0.28626,0.166937 0.767799,-0.370437 0.230992,-0.683338l-1.36583 -0.461983c-0.28626,-0.166937 -0.767799,0.37072 -0.230992,0.683622l1.36583 0.4617zm-4.78053 -1.61836c0.28626,0.166937 0.767799,-0.37072 0.230708,-0.683338l-1.36583 -0.461983c-0.28626,-0.166937 -0.767799,0.37072 -0.230708,0.683338l1.36583 0.461983zm-4.78082 -1.61864c0.28626,0.166937 0.767799,-0.370437 0.230992,-0.683338l-1.36583 -0.461983c-0.28626,-0.166937 -0.767799,0.37072 -0.230992,0.683622l1.36583 0.4617z"/>
   <path id="_469001664" class="fil1" d="M8.12835 67.0505c-0.28626,-0.167221 -0.768083,0.370437 -0.230992,0.683338l1.36583 0.4617c0.28626,0.167221 0.767799,-0.370437 0.230992,-0.683338l-1.36583 -0.4617zm39.3859 14.0973c0.148231,0.0861613 0.365619,-0.0527171 0.431657,-0.167221 0.109969,-0.272655 0.00963646,-0.393678 -0.200665,-0.516117l-1.36668 -0.462833c-0.310351,-0.179975 -0.741441,0.386309 -0.230992,0.683338l1.36668 0.462833zm-4.78252 -1.61949c0.231275,0.13406 0.687306,-0.237227 0.367886,-0.600011 -0.0450646,-0.0510166 -0.0867281,-0.0547011 -0.136894,-0.083327l-1.36583 -0.462833c-0.28626,-0.167221 -0.767799,0.370437 -0.230992,0.683338l1.36583 0.462833zm-4.78167 -1.61949c0.28626,0.166937 0.767799,-0.37072 0.230992,-0.683338l-1.36583 -0.462833c-0.28626,-0.167221 -0.767799,0.370437 -0.230992,0.683338l1.36583 0.462833zm-4.78167 -1.61949c0.28626,0.166937 0.767799,-0.37072 0.230992,-0.683622l-1.36583 -0.46255c-0.28626,-0.167221 -0.767799,0.370437 -0.230992,0.683338l1.36583 0.462833zm-4.78167 -1.61949c0.286543,0.166937 0.768083,-0.37072 0.230992,-0.683622l-1.36583 -0.4617c-0.28626,-0.166937 -0.767799,0.370437 -0.230992,0.683338l1.36583 0.461983zm-4.78138 -1.61864c0.28626,0.166937 0.767799,-0.37072 0.230708,-0.683338l-1.36583 -0.461983c-0.28626,-0.166937 -0.767799,0.37072 -0.230708,0.683338l1.36583 0.461983zm-4.78082 -1.61864c0.28626,0.167221 0.767799,-0.370437 0.230992,-0.683338l-1.36583 -0.4617c-0.28626,-0.167221 -0.767799,0.370437 -0.230992,0.683338l1.36583 0.4617zm-4.78082 -1.61836c0.28626,0.166937 0.768083,-0.37072 0.230992,-0.683338l-1.36583 -0.461983c-0.28626,-0.166937 -0.767799,0.37072 -0.230992,0.683338l1.36583 0.461983z"/>
   <path id="_469001592" class="fil1" d="M4.25535 68.7955c-0.284276,-0.170339 -0.772334,0.361367 -0.239211,0.680504l1.36016 0.478422c0.283992,0.170622 0.772334,-0.361084 0.239211,-0.680504l-1.36016 -0.478422zm43.9754 16.253c0.147098,0.0878618 0.366185,-0.0481823 0.433641,-0.161836 0.11337,-0.271521 0.0144547,-0.393678 -0.19443,-0.518668l-1.36101 -0.479556c-0.29703,-0.176857 -0.748243,0.383191 -0.271521,0.66775l0.0323105 0.0127541 1.36101 0.479556zm-4.76353 -1.67844c0.147098,0.0878618 0.366185,-0.0484657 0.433641,-0.161836 0.11337,-0.271521 0.0144547,-0.393961 -0.19443,-0.518668l-1.36101 -0.479556c-0.3078,-0.18366 -0.745975,0.377522 -0.239211,0.680504l1.36101 0.479556zm-4.7624 -1.67759c0.229574,0.136894 0.690141,-0.228724 0.374972,-0.595193 -0.0444978,-0.0518668 -0.0858779,-0.0558348 -0.135761,-0.085311l-1.36016 -0.479272c-0.284276,-0.170622 -0.772334,0.361084 -0.239211,0.680504l1.36016 0.479272zm-4.76183 -1.67731c0.284276,0.170339 0.772334,-0.361367 0.239494,-0.680504l-1.36016 -0.479556c-0.284276,-0.170339 -0.772334,0.361367 -0.239211,0.680504l1.35987 0.479556zm-4.76154 -1.67759c0.284276,0.170622 0.772334,-0.361084 0.239211,-0.680504l-1.35987 -0.479272c-0.284276,-0.170622 -0.772334,0.361367 -0.239211,0.680504l1.35987 0.479272zm-4.76154 -1.67731c0.284276,0.170339 0.772334,-0.361367 0.239211,-0.680504l-1.35987 -0.478422c-0.284276,-0.170622 -0.772334,0.361084 -0.239494,0.680504l1.36016 0.478422zm-4.76154 -1.67646c0.284276,0.170339 0.772334,-0.361367 0.239211,-0.680504l-1.36016 -0.478422c-0.284276,-0.170622 -0.772334,0.361084 -0.239211,0.680504l1.36016 0.478422zm-4.76069 -1.67646c0.284276,0.170339 0.772334,-0.361367 0.239211,-0.680504l-1.36016 -0.478422c-0.284276,-0.170622 -0.772334,0.361367 -0.239211,0.680504l1.36016 0.478422zm-4.76069 -1.67646c0.284276,0.170339 0.772334,-0.361367 0.239211,-0.680504l-1.36016 -0.478422c-0.284276,-0.170339 -0.772334,0.361367 -0.239211,0.680504l1.36016 0.478422z"/>
   <path id="_469001520" class="fil1" d="M29.4723 14.243c-0.30695,-0.125274 -0.708563,0.474454 -0.13321,0.708847l1.41713 0.266136c0.30695,0.125274 0.708563,-0.474454 0.132926,-0.70913l-1.41684 -0.265853zm45.935 9.37854c0.158718,0.064621 0.354565,-0.10345 0.403881,-0.22589 0.0708563,-0.285409 -0.045348,-0.39141 -0.270955,-0.482957l-1.41798 -0.266987c-0.320554,-0.130092 -0.681354,0.49231 -0.166937,0.701194l0.034011 0.00765248 1.41798 0.266987zm-4.96334 -0.934737c0.159002,0.064621 0.354848,-0.10345 0.404164,-0.22589 0.0708563,-0.285693 -0.0456315,-0.39141 -0.270955,-0.48324l-1.41826 -0.266987c-0.332174,-0.134627 -0.679937,0.486641 -0.132926,0.70913l1.41798 0.266987zm-4.96221 -0.93417c0.247997,0.100616 0.647627,-0.331041 0.280308,-0.645359 -0.0515834,-0.0442143 -0.0932469,-0.0419469 -0.147098,-0.0634873l-1.41713 -0.266987c-0.30695,-0.125274 -0.708563,0.474454 -0.13321,0.708847l1.41713 0.266987zm-4.96108 -0.933886c0.306666,0.125274 0.70828,-0.474454 0.132926,-0.70913l-1.41713 -0.266987c-0.306666,-0.125274 -0.70828,0.474454 -0.132926,0.70913l1.41713 0.266987zm-4.96136 -0.93417c0.30695,0.125274 0.708563,-0.474454 0.132926,-0.708847l-1.41684 -0.266987c-0.30695,-0.125274 -0.708563,0.474454 -0.13321,0.708847l1.41713 0.266987zm-4.96108 -0.933886c0.306666,0.125274 0.70828,-0.474454 0.132926,-0.70913l-1.41713 -0.266136c-0.306666,-0.125274 -0.70828,0.474454 -0.132926,0.70913l1.41713 0.266136zm-4.96136 -0.933319c0.30695,0.125274 0.708563,-0.474454 0.13321,-0.708847l-1.41713 -0.266136c-0.30695,-0.125274 -0.708563,0.474454 -0.132926,0.70913l1.41684 0.265853zm-4.96023 -0.933036c0.30695,0.125274 0.708563,-0.474454 0.132926,-0.70913l-1.41684 -0.265853c-0.30695,-0.125274 -0.708563,0.474454 -0.132926,0.708847l1.41684 0.266136zm-4.96023 -0.933319c0.30695,0.125274 0.708563,-0.474454 0.132926,-0.708847l-1.41684 -0.266136c-0.30695,-0.125274 -0.708563,0.474454 -0.132926,0.70913l1.41684 0.265853z"/>
   <path id="_469001448" class="fil1" d="M25.1619 24.2842c-0.301565,-0.137178 -0.726419,0.446395 -0.160419,0.703178l1.40551 0.321404c0.301565,0.137178 0.726419,-0.446395 0.160419,-0.703178l-1.40551 -0.321404zm45.5328 11.1692c0.156167,0.0708563 0.358533,-0.089279 0.412667,-0.209735 0.0819099,-0.282575 -0.0303265,-0.393111 -0.251965,-0.493443l-1.40664 -0.322255c-0.315169,-0.142279 -0.70006,0.465384 -0.194146,0.694109l0.0337276 0.00906961 1.40636 0.322255zm-4.92281 -1.12832c0.156167,0.0708563 0.358533,-0.0895624 0.412667,-0.210018 0.0819099,-0.282575 -0.0303265,-0.392827 -0.251965,-0.49316l-1.40664 -0.322255c-0.326506,-0.147665 -0.69836,0.459432 -0.160419,0.703178l1.40636 0.322255zm-4.92168 -1.12747c0.243746,0.109969 0.659814,-0.305532 0.305249,-0.634022 -0.0501663,-0.0461983 -0.0918298,-0.0456315 -0.14483,-0.0691558l-1.40551 -0.322255c-0.301565,-0.137178 -0.726419,0.446395 -0.160702,0.703178l1.40579 0.322255zm-4.92111 -1.12747c0.301848,0.137178 0.726419,-0.446395 0.160702,-0.703178l-1.40551 -0.322538c-0.301565,-0.136894 -0.726419,0.446678 -0.160702,0.703462l1.40551 0.322255zm-4.92083 -1.12747c0.301848,0.137178 0.726419,-0.446395 0.160702,-0.703462l-1.40551 -0.322255c-0.301848,-0.137178 -0.726419,0.446395 -0.160702,0.703462l1.40551 0.322255zm-4.92083 -1.12747c0.301565,0.137178 0.726419,-0.446395 0.160702,-0.703462l-1.40551 -0.321121c-0.301848,-0.137178 -0.726419,0.446395 -0.160702,0.703178l1.40551 0.321404zm-4.92083 -1.12662c0.301565,0.137178 0.726419,-0.446395 0.160702,-0.703178l-1.40551 -0.321404c-0.301848,-0.137178 -0.726702,0.446395 -0.160702,0.703178l1.40551 0.321404zm-4.91998 -1.12662c0.301848,0.137178 0.726419,-0.446395 0.160702,-0.703178l-1.40551 -0.321404c-0.301848,-0.137178 -0.726419,0.446395 -0.160702,0.703178l1.40551 0.321404zm-4.91998 -1.12662c0.301848,0.137178 0.726419,-0.446395 0.160702,-0.703178l-1.40551 -0.321404c-0.301565,-0.137178 -0.726419,0.446395 -0.160702,0.703178l1.40551 0.321404z"/>
   <path id="_464120672" class="fil1" d="M28.0911 22.042c-0.304399,-0.131509 -0.717916,0.459999 -0.147665,0.706296l1.41146 0.294762c0.304115,0.131509 0.717916,-0.459716 0.147381,-0.706012l-1.41117 -0.295046zm40.7909 9.27906c0.157301,0.0677386 0.356549,-0.0960812 0.408416,-0.217671 0.0768083,-0.283992 -0.0374121,-0.392261 -0.261035,-0.488342l-1.41231 -0.295896c-0.32934,-0.141429 -0.689857,0.47247 -0.147381,0.706012l1.41231 0.295896zm-4.94209 -1.03507c0.24573,0.105434 0.653862,-0.318003 0.293345,-0.639691 -0.0510166,-0.045348 -0.0926801,-0.0439309 -0.145964,-0.0666049l-1.41146 -0.295896c-0.304115,-0.131509 -0.717916,0.459999 -0.147381,0.706296l1.41146 0.295896zm-4.94124 -1.03535c0.304115,0.131509 0.717916,-0.459716 0.147381,-0.706012l-1.41117 -0.295896c-0.304399,-0.131509 -0.7182,0.459716 -0.147665,0.706012l1.41146 0.295896zm-4.94124 -1.03507c0.304399,0.131509 0.7182,-0.459999 0.147665,-0.706296l-1.41146 -0.295896c-0.304115,-0.131509 -0.717916,0.459999 -0.147381,0.706296l1.41117 0.295896zm-4.94095 -1.03535c0.304115,0.131509 0.717916,-0.459716 0.147381,-0.706012l-1.41117 -0.295046c-0.304399,-0.131509 -0.7182,0.459999 -0.147665,0.706296l1.41146 0.294762zm-4.94124 -1.03422c0.304399,0.131509 0.717916,-0.459716 0.147665,-0.706012l-1.41146 -0.295046c-0.304115,-0.131509 -0.717916,0.459999 -0.147381,0.706012l1.41117 0.295046zm-4.9401 -1.03422c0.304115,0.131509 0.717916,-0.459999 0.147381,-0.706012l-1.41117 -0.295046c-0.304115,-0.131509 -0.717916,0.459999 -0.147381,0.706012l1.41117 0.295046zm-4.9401 -1.03422c0.304115,0.131509 0.717916,-0.459999 0.147381,-0.706296l-1.41117 -0.294762c-0.304115,-0.131509 -0.717916,0.459716 -0.147381,0.706012l1.41117 0.295046z"/>
   <path id="_464120600" class="fil1" d="M27.8318 19.0592c-0.304966,-0.130092 -0.715932,0.4634 -0.144263,0.706863l1.41259 0.288527c0.304682,0.130092 0.715932,-0.463117 0.144263,-0.706863l-1.41259 -0.288527zm45.7803 10.1067c0.157868,0.0668884 0.356266,-0.0977817 0.407566,-0.219655 0.0753911,-0.284276 -0.0393961,-0.391977 -0.263302,-0.487208l-1.41344 -0.289377c-0.31857,-0.13491 -0.68929,0.481256 -0.177991,0.69836l0.0337276 0.00821933 1.41344 0.289661zm-4.94776 -1.01353c0.157868,0.0671718 0.356266,-0.0977817 0.407566,-0.219655 0.0753911,-0.284276 -0.0391127,-0.391977 -0.263302,-0.487208l-1.41344 -0.289377c-0.33019,-0.140012 -0.68759,0.475588 -0.144263,0.706863l1.41344 0.289377zm-4.94662 -1.01268c0.246297,0.104301 0.652445,-0.320837 0.290511,-0.640825 -0.0510166,-0.045348 -0.0926801,-0.0436475 -0.146247,-0.0660381l-1.41259 -0.289377c-0.304966,-0.130092 -0.715932,0.463117 -0.144263,0.706863l1.41259 0.289377zm-4.94577 -1.01268c0.304682,0.130092 0.715932,-0.463117 0.144263,-0.706863l-1.41288 -0.289377c-0.304682,-0.130092 -0.715649,0.463117 -0.144263,0.706863l1.41288 0.289377zm-4.94577 -1.01268c0.304682,0.130092 0.715649,-0.463117 0.144263,-0.706863l-1.41288 -0.289377c-0.304682,-0.130092 -0.715649,0.463117 -0.144263,0.706863l1.41288 0.289377zm-4.94577 -1.01268c0.304682,0.130092 0.715649,-0.463117 0.144263,-0.706863l-1.41288 -0.288527c-0.304682,-0.130092 -0.715649,0.4634 -0.144263,0.706863l1.41288 0.288527zm-4.94577 -1.01154c0.304682,0.130092 0.715649,-0.4634 0.144263,-0.706863l-1.41288 -0.288527c-0.304682,-0.130092 -0.715649,0.463117 -0.14398,0.706863l1.41259 0.288527zm-4.94492 -1.01183c0.304966,0.130092 0.715932,-0.463117 0.144263,-0.706863l-1.41259 -0.288527c-0.304966,-0.130092 -0.715932,0.463117 -0.144263,0.706863l1.41259 0.288527zm-4.94464 -1.01183c0.304682,0.130092 0.715649,-0.463117 0.14398,-0.706863l-1.41259 -0.288527c-0.304682,-0.130092 -0.715649,0.463117 -0.144263,0.706863l1.41288 0.288527z"/>
   <path id="_464120528" class="fil1" d="M31.3176 17.4176c-0.306383,-0.126691 -0.710547,0.471336 -0.136328,0.708563l1.41599 0.272088c0.306383,0.126691 0.710547,-0.471336 0.136044,-0.70828l-1.41571 -0.272372zm40.9348 8.62123c0.158435,0.0651878 0.355132,-0.102033 0.405015,-0.224189 0.07199,-0.285409 -0.0439309,-0.391694 -0.268971,-0.484374l-1.41684 -0.272939c-0.331608,-0.136328 -0.682205,0.483524 -0.136044,0.70828l1.41684 0.273222zm-4.95824 -0.955427c0.247714,0.101466 0.649044,-0.32849 0.283142,-0.644226 -0.0515834,-0.0447812 -0.0932469,-0.0425138 -0.147098,-0.0643375l-1.41571 -0.273222c-0.306383,-0.126408 -0.710547,0.47162 -0.136044,0.708563l1.41571 0.273222zm-4.95711 -0.95571c0.306383,0.126691 0.710547,-0.471336 0.136044,-0.70828l-1.41599 -0.273222c-0.306099,-0.126691 -0.710264,0.471336 -0.136044,0.708563l1.41599 0.272939zm-4.95711 -0.955427c0.306383,0.126691 0.710547,-0.471336 0.136044,-0.70828l-1.41599 -0.273222c-0.306099,-0.126691 -0.710264,0.471336 -0.136044,0.70828l1.41599 0.273222zm-4.95711 -0.955427c0.306099,0.126408 0.710547,-0.47162 0.136044,-0.708563l-1.41599 -0.272088c-0.306099,-0.126691 -0.710264,0.471336 -0.136044,0.70828l1.41599 0.272372zm-4.95711 -0.954576c0.306383,0.126408 0.710547,-0.47162 0.136044,-0.708563l-1.41599 -0.272088c-0.306099,-0.126691 -0.710264,0.471336 -0.136044,0.70828l1.41599 0.272372zm-4.95626 -0.954576c0.306383,0.126408 0.710547,-0.47162 0.136044,-0.708563l-1.41571 -0.272088c-0.306383,-0.126691 -0.710547,0.471336 -0.136044,0.70828l1.41571 0.272372zm-4.95597 -0.95486c0.306099,0.126691 0.710264,-0.471336 0.136044,-0.70828l-1.41599 -0.272372c-0.306099,-0.126408 -0.710547,0.47162 -0.136044,0.708563l1.41599 0.272088z"/>
   <path id="_464120456" class="fil1" d="M19.6391 36.9269c-0.299014,-0.142846 -0.734922,0.432224 -0.174307,0.70006l1.39927 0.34833c0.299014,0.142846 0.734922,-0.432224 0.174023,-0.70006l-1.39899 -0.34833zm45.3089 12.0444c0.15475,0.073974 0.360234,-0.0824768 0.416635,-0.201799 0.087295,-0.280874 -0.022674,-0.393394 -0.242329,-0.497978l-1.40012 -0.349463c-0.312335,-0.148231 -0.708847,0.45178 -0.207467,0.690424l0.0334442 0.00963646 1.39984 0.34918zm-4.90014 -1.22298c0.15475,0.0736906 0.360234,-0.0824768 0.416635,-0.201799 0.087295,-0.280874 -0.022674,-0.393394 -0.242329,-0.498262l-1.40012 -0.34918c-0.323672,-0.1539 -0.707146,0.446111 -0.174023,0.70006l1.39984 0.34918zm-4.89901 -1.22213c0.241478,0.114787 0.665483,-0.292778 0.317436,-0.627787 -0.0490326,-0.047332 -0.0906961,-0.0476154 -0.143413,-0.07199l-1.39899 -0.349463c-0.299014,-0.142846 -0.734922,0.432224 -0.174307,0.70006l1.39927 0.34918zm-4.89844 -1.22213c0.299014,0.14313 0.734922,-0.432224 0.174307,-0.699777l-1.39899 -0.349463c-0.299014,-0.142846 -0.734922,0.432224 -0.174307,0.70006l1.39899 0.34918zm-4.89816 -1.22185c0.299014,0.142846 0.734922,-0.432507 0.174307,-0.70006l-1.39927 -0.349463c-0.299014,-0.142846 -0.734922,0.432507 -0.174023,0.70006l1.39899 0.349463zm-4.89816 -1.22213c0.299014,0.142846 0.734922,-0.432507 0.174023,-0.70006l-1.39899 -0.34833c-0.299014,-0.14313 -0.734922,0.432224 -0.174307,0.699777l1.39927 0.348613zm-4.89844 -1.22128c0.299014,0.142846 0.734922,-0.432224 0.174307,-0.70006l-1.39899 -0.34833c-0.299014,-0.142846 -0.734922,0.432224 -0.174307,0.70006l1.39899 0.34833zm-4.89731 -1.22128c0.299014,0.14313 0.734922,-0.432224 0.174307,-0.70006l-1.39899 -0.34833c-0.299014,-0.142846 -0.734922,0.432507 -0.174307,0.70006l1.39899 0.34833zm-4.89702 -1.221c0.29873,0.142846 0.734638,-0.432507 0.174023,-0.70006l-1.39899 -0.34833c-0.299014,-0.14313 -0.734922,0.432224 -0.174307,0.699777l1.39927 0.348613z"/>
   <path id="_464120384" class="fil1" d="M14.75 46.6994c-0.293345,-0.154467 -0.75136,0.403314 -0.201515,0.692691l1.38453 0.402747c0.293062,0.15475 0.751077,-0.403031 0.201232,-0.692691l-1.38425 -0.402747zm44.803 13.8088c0.151633,0.0796425 0.363068,-0.0685889 0.424004,-0.185644 0.0983486,-0.27719 -0.00708563,-0.393961 -0.222489,-0.507048l-1.38538 -0.403881c-0.306383,-0.160419 -0.726136,0.423721 -0.234393,0.681638l0.0328773 0.0110536 1.38538 0.403881zm-4.84856 -1.41401c0.151633,0.0799259 0.363068,-0.0683055 0.424004,-0.18536 0.0983486,-0.277473 -0.00708563,-0.393961 -0.222489,-0.507331l-1.38538 -0.403881c-0.31772,-0.166371 -0.724152,0.418052 -0.201515,0.692691l1.38538 0.403881zm-4.84771 -1.41288c0.236944,0.12414 0.676536,-0.26642 0.341811,-0.615033 -0.0470486,-0.049316 -0.0887121,-0.0510166 -0.140296,-0.0776585l-1.38425 -0.403881c-0.293345,-0.154467 -0.75136,0.403314 -0.201515,0.692691l1.38425 0.403881zm-4.84657 -1.41288c0.293062,0.154467 0.75136,-0.403314 0.201515,-0.692691l-1.38453 -0.403881c-0.293062,-0.154467 -0.751077,0.403314 -0.201515,0.692691l1.38453 0.403881zm-4.84657 -1.41288c0.293062,0.154467 0.751077,-0.403314 0.201232,-0.692691l-1.38425 -0.403881c-0.293345,-0.154467 -0.75136,0.403314 -0.201515,0.692691l1.38453 0.403881zm-4.84686 -1.41288c0.293345,0.154467 0.75136,-0.403314 0.201515,-0.692691l-1.38453 -0.402747c-0.293062,-0.15475 -0.751077,0.403031 -0.201232,0.692408l1.38425 0.403031zm-4.84657 -1.41202c0.293062,0.154467 0.751077,-0.403031 0.201232,-0.692691l-1.38425 -0.402747c-0.293062,-0.154467 -0.75136,0.403314 -0.201515,0.692691l1.38453 0.402747zm-4.84572 -1.41174c0.293062,0.154467 0.751077,-0.403314 0.201232,-0.692691l-1.38425 -0.403031c-0.293062,-0.154467 -0.75136,0.403314 -0.201515,0.692691l1.38453 0.403031zm-4.84572 -1.41202c0.293062,0.154467 0.751077,-0.403314 0.201232,-0.692691l-1.38425 -0.402747c-0.293062,-0.15475 -0.75136,0.403031 -0.201515,0.692691l1.38453 0.402747z"/>
   <path id="_464120312" class="fil1" d="M17.8048 44.6321c-0.295896,-0.149082 -0.743425,0.417202 -0.188194,0.696376l1.39162 0.376956c0.295896,0.149082 0.743425,-0.417202 0.188478,-0.696376l-1.3919 -0.376956zm40.1795 11.6448c0.153333,0.0768083 0.361651,-0.0751077 0.420603,-0.193579 0.0932469,-0.27889 -0.0144547,-0.393678 -0.232125,-0.502796l-1.39247 -0.377806c-0.320554,-0.160419 -0.716216,0.431373 -0.188478,0.696376l1.39247 0.377806zm-4.87321 -1.3219c0.239494,0.119605 0.671718,-0.279174 0.330474,-0.621552 -0.0481823,-0.0481823 -0.0898458,-0.049316 -0.141996,-0.0748243l-1.39162 -0.377806c-0.295896,-0.149082 -0.743425,0.417202 -0.188478,0.696376l1.39162 0.377806zm-4.87208 -1.3219c0.295896,0.148798 0.743425,-0.417202 0.188478,-0.696376l-1.3919 -0.377806c-0.295896,-0.149082 -0.743425,0.417202 -0.188194,0.696376l1.39162 0.377806zm-4.87236 -1.3219c0.296179,0.148798 0.743708,-0.417202 0.188478,-0.696376l-1.39162 -0.377806c-0.296179,-0.149082 -0.743708,0.417202 -0.188478,0.696376l1.39162 0.377806zm-4.87236 -1.3219c0.296179,0.148798 0.743708,-0.417485 0.188478,-0.696376l-1.39162 -0.376956c-0.295896,-0.149082 -0.743425,0.417202 -0.188478,0.696376l1.39162 0.376956zm-4.87208 -1.32105c0.295896,0.149082 0.743425,-0.417202 0.188478,-0.696376l-1.3919 -0.376956c-0.295896,-0.149082 -0.743425,0.417202 -0.188194,0.696376l1.39162 0.376956zm-4.87151 -1.32105c0.296179,0.149082 0.743708,-0.417202 0.188478,-0.696376l-1.39162 -0.376672c-0.295896,-0.149082 -0.743425,0.417202 -0.188478,0.696093l1.39162 0.376956zm-4.87123 -1.32105c0.296179,0.149082 0.743708,-0.417202 0.188478,-0.696093l-1.39162 -0.376956c-0.296179,-0.149082 -0.743708,0.417202 -0.188478,0.696376l1.39162 0.376672z"/>
   <path id="_464120096" class="fil1" d="M17.72 41.6394c-0.296463,-0.147665 -0.741441,0.420603 -0.185077,0.697226l1.39332 0.370437c0.296746,0.147665 0.741724,-0.420603 0.18536,-0.697226l-1.3936 -0.370437zm45.1125 12.7621c0.153333,0.0762414 0.361084,-0.0768083 0.419469,-0.19528 0.0918298,-0.279457 -0.0161552,-0.393678 -0.234393,-0.501946l-1.39417 -0.371571c-0.310067,-0.153333 -0.716216,0.440443 -0.218521,0.687023l0.0331608 0.0102033 1.39445 0.371571zm-4.8803 -1.30064c0.153617,0.0762414 0.361367,-0.0768083 0.419753,-0.19528 0.0918298,-0.279457 -0.0164387,-0.393678 -0.234393,-0.501946l-1.39445 -0.371571c-0.321121,-0.158718 -0.714232,0.434774 -0.185077,0.697226l1.39417 0.371571zm-4.87917 -1.29979c0.239778,0.118472 0.670301,-0.282008 0.32764,-0.622685 -0.0484657,-0.0481823 -0.0901292,-0.0490326 -0.142279,-0.0745409l-1.39332 -0.371287c-0.296746,-0.147665 -0.741724,0.420603 -0.18536,0.697226l1.39332 0.371287zm-4.87832 -1.2995c0.296746,0.147665 0.741724,-0.420603 0.18536,-0.697226l-1.39332 -0.371571c-0.296746,-0.147665 -0.741724,0.420603 -0.18536,0.697226l1.39332 0.371571zm-4.87803 -1.29979c0.296463,0.147665 0.741724,-0.420603 0.185077,-0.697226l-1.39332 -0.371571c-0.296746,-0.147665 -0.741724,0.420603 -0.18536,0.697226l1.3936 0.371571zm-4.87832 -1.29979c0.296746,0.147665 0.741724,-0.420603 0.18536,-0.697226l-1.3936 -0.370437c-0.296463,-0.147665 -0.741441,0.420603 -0.185077,0.697226l1.39332 0.370437zm-4.87832 -1.29865c0.296746,0.147665 0.741724,-0.420603 0.18536,-0.697226l-1.39332 -0.370437c-0.296746,-0.147665 -0.741724,0.420603 -0.18536,0.697226l1.39332 0.370437zm-4.87718 -1.29865c0.296746,0.147665 0.741724,-0.420603 0.185077,-0.697226l-1.39332 -0.370437c-0.296746,-0.147948 -0.741724,0.420603 -0.185077,0.696943l1.39332 0.37072zm-4.87747 -1.29894c0.296746,0.147665 0.741724,-0.420603 0.18536,-0.696943l-1.39332 -0.37072c-0.296746,-0.147665 -0.741724,0.420603 -0.18536,0.697226l1.39332 0.370437z"/>
   <path id="_464120168" class="fil1" d="M21.2957 40.2042c-0.298163,-0.144263 -0.736622,0.429106 -0.177141,0.69921l1.39757 0.354282c0.298447,0.144263 0.736906,-0.429106 0.177141,-0.69921l-1.39757 -0.354282zm40.3617 10.9963c0.154467,0.0742574 0.360517,-0.0810596 0.417485,-0.200098 0.0887121,-0.280591 -0.0209735,-0.393678 -0.240061,-0.499112l-1.3987 -0.355415c-0.323105,-0.155317 -0.70913,0.442994 -0.177141,0.69921l1.39842 0.355415zm-4.89362 -1.24339c0.241195,0.115638 0.6669,-0.289944 0.320271,-0.626653 -0.0490326,-0.047332 -0.0906961,-0.0478989 -0.14313,-0.0725569l-1.39757 -0.355415c-0.298447,-0.144263 -0.736906,0.429106 -0.177141,0.69921l1.39757 0.355415zm-4.89305 -1.24339c0.298447,0.144263 0.736906,-0.429106 0.177141,-0.69921l-1.39757 -0.355415c-0.298163,-0.144263 -0.736622,0.429106 -0.177141,0.69921l1.39757 0.355415zm-4.89277 -1.2431c0.298163,0.144263 0.736622,-0.429389 0.177141,-0.699494l-1.39757 -0.355132c-0.298447,-0.144263 -0.736906,0.429106 -0.177141,0.69921l1.39757 0.355415zm-4.89305 -1.24339c0.298447,0.144263 0.736906,-0.429106 0.177141,-0.69921l-1.39757 -0.354565c-0.298163,-0.144263 -0.736622,0.429106 -0.177141,0.69921l1.39757 0.354565zm-4.89277 -1.24254c0.298163,0.144263 0.736622,-0.429106 0.177141,-0.69921l-1.39757 -0.354282c-0.298447,-0.144263 -0.736906,0.429106 -0.177141,0.69921l1.39757 0.354282zm-4.8922 -1.24225c0.298447,0.144263 0.736906,-0.429106 0.177424,-0.69921l-1.39757 -0.354565c-0.298447,-0.144263 -0.736906,0.429389 -0.177141,0.699494l1.39729 0.354282zm-4.89192 -1.24225c0.298447,0.144263 0.736906,-0.429106 0.177424,-0.699494l-1.39757 -0.354282c-0.298447,-0.144263 -0.736906,0.429106 -0.177424,0.69921l1.39757 0.354565z"/>
   <path id="_464120000" class="fil1" d="M37.7707 1.82299c0.136044,-0.147381 0.345212,-0.244596 0.59576,-0.228724l0.0011337 0 0.0300431 0.00481823 3.4507 0.533973 0.0045348 0.000283425 0.0172889 0.00311768 0.0382624 0.00680221 0.0357116 0.0141713c0.254232,0.10345 0.404164,0.27719 0.466518,0.465951l0.0022674 0.00736906c0.0351447,0.11422 0.0391127,0.23666 0.0127541,0.350881 -0.0255083,0.112236 -0.0827602,0.218804 -0.162686,0.304682 -0.136044,0.147381 -0.346062,0.244313 -0.59576,0.228724l0 0 -0.0308934 -0.00481823 -3.4507 -0.533973 -0.0045348 -0.000283425 -0.0172889 -0.00311768 -0.0374121 -0.00595193 -0.0365619 -0.0150215c-0.254516,-0.10345 -0.404164,-0.278324 -0.466518,-0.465951l-0.0022674 -0.00736906c-0.0351447,-0.11422 -0.0393961,-0.23666 -0.0127541,-0.350881 0.0255083,-0.112236 0.0827602,-0.218804 0.162403,-0.304682zm0.573936 0.119889c-0.422587,-0.026642 -0.593493,0.495994 -0.12329,0.686456l0.0172889 0.00311768 3.4507 0.533973c0.422587,0.026642 0.593493,-0.495994 0.12329,-0.686456l-0.0172889 -0.00311768 -3.4507 -0.533973zm47.518 8.07082c0.422587,0.026642 0.593493,-0.496278 0.12329,-0.686456l-0.0172889 -0.00311768 -3.45155 -0.535107c-0.422871,-0.026642 -0.593493,0.496278 -0.123573,0.686739l0.0172889 0.00283425 3.45184 0.535107zm-5.52283 -0.856228c0.422587,0.0269254 0.593493,-0.495994 0.12329,-0.686456l-0.0172889 -0.00283425 -3.45155 -0.535107c-0.422587,-0.026642 -0.593493,0.495994 -0.12329,0.686456l0.0172889 0.00311768 3.45155 0.534824zm-5.52254 -0.855944c0.422587,0.026642 0.593493,-0.495994 0.12329,-0.686456l-0.0172889 -0.00311768 -3.45155 -0.535107c-0.422871,-0.026642 -0.593493,0.496278 -0.12329,0.686739l0.0170055 0.00283425 3.45184 0.535107zm-5.52283 -0.856228c0.422871,0.0269254 0.593493,-0.495994 0.12329,-0.686456l-0.0170055 -0.00283425 -3.45184 -0.535107c-0.422587,-0.026642 -0.593493,0.495994 -0.12329,0.686456l0.0172889 0.00311768 3.45155 0.534824zm-5.52169 -0.855944c0.422587,0.026642 0.593493,-0.495994 0.12329,-0.686456l-0.0172889 -0.00311768 -3.4507 -0.534824c-0.422587,-0.026642 -0.593493,0.495994 -0.12329,0.686456l0.0172889 0.00311768 3.4507 0.534824zm-5.52084 -0.855944c0.422587,0.026642 0.593493,-0.495994 0.12329,-0.686456l-0.0172889 -0.00311768 -3.4507 -0.534824c-0.422587,-0.026642 -0.593493,0.495994 -0.12329,0.686456l0.0172889 0.00283425 3.4507 0.535107zm-5.52084 -0.855944c0.422587,0.026642 0.593493,-0.495994 0.12329,-0.686456l-0.0172889 -0.00311768 -3.4507 -0.534824c-0.422587,-0.0269254 -0.593493,0.495994 -0.12329,0.686456l0.0172889 0.00283425 3.4507 0.535107zm-5.52084 -0.855944c0.422587,0.026642 0.593493,-0.496278 0.12329,-0.686456l-0.0172889 -0.00311768 -3.4507 -0.534824c-0.422587,-0.0269254 -0.593493,0.495994 -0.12329,0.686456l0.0172889 0.00283425 3.4507 0.535107zm39.2261 6.11207c-0.136044,0.147381 -0.346062,0.244313 -0.59576,0.228724l-0.000850276 -0.000283425 -0.0300431 -0.0045348 -3.45155 -0.535107 -0.00481823 -0.000283425 -0.0172889 -0.00283425 -0.0371287 -0.00595193 -0.0368453 -0.015305c-0.254232,-0.10345 -0.403881,-0.27804 -0.466518,-0.465668l-0.0022674 -0.00765248c-0.0348613,-0.11422 -0.0391127,-0.23666 -0.0124707,-0.350597 0.0252249,-0.112236 0.0824768,-0.218804 0.162403,-0.304682 0.136044,-0.147665 0.345212,-0.244596 0.59576,-0.228724l0.000850276 0 0.0300431 0.0045348 3.45184 0.535107 0.0045348 0.000283425 0.0172889 0.00283425 0.037979 0.00708563 0.035995 0.0141713c0.254232,0.10345 0.403881,0.27719 0.466518,0.465951l0.0022674 0.00736906c0.0348613,0.11422 0.0391127,0.23666 0.0127541,0.350597 -0.0255083,0.11252 -0.0827602,0.219088 -0.162686,0.304966zm-5.52254 -0.856228c-0.136044,0.147665 -0.346062,0.244596 -0.59576,0.228724l-0.0011337 0 -0.0300431 -0.00481823 -3.45155 -0.534824 -0.0045348 -0.000283425 -0.0172889 -0.00311768 -0.0374121 -0.00595193 -0.0365619 -0.015305c-0.254232,-0.103167 -0.403881,-0.27804 -0.466518,-0.465668l-0.0022674 -0.00736906c-0.0351447,-0.11422 -0.0391127,-0.23666 -0.0127541,-0.350881 0.0255083,-0.112236 0.0827602,-0.218804 0.162686,-0.304682 0.136044,-0.147381 0.344929,-0.244596 0.59576,-0.228724l0.000850276 0 0.0300431 0.00481823 3.45155 0.535107 0.0045348 0.000283425 0.0172889 0.00283425 0.0382624 0.00708563 0.0357116 0.0141713c0.254516,0.103167 0.404164,0.27719 0.466518,0.465668l0.0022674 0.00765248c0.0351447,0.11422 0.0393961,0.23666 0.0127541,0.350597 -0.0255083,0.112236 -0.0827602,0.218804 -0.162403,0.304682zm-5.52283 -0.855944c-0.136044,0.147381 -0.346062,0.244313 -0.59576,0.228724l-0.000850276 -0.000283425 -0.0300431 -0.0045348 -3.45155 -0.535107 -0.00481823 -0.000283425 -0.0170055 -0.00283425 -0.0374121 -0.00595193 -0.0365619 -0.015305c-0.254516,-0.10345 -0.404164,-0.27804 -0.466518,-0.465668l-0.00255083 -0.00765248c-0.0348613,-0.11422 -0.0391127,-0.23666 -0.0124707,-0.350597 0.0252249,-0.112236 0.0824768,-0.218804 0.162403,-0.304682 0.136044,-0.147665 0.345212,-0.244596 0.59576,-0.228724l0.0011337 0 0.0297597 0.0045348 3.45184 0.535107 0.0045348 0.000283425 0.0172889 0.00283425 0.037979 0.00708563 0.035995 0.0141713c0.254232,0.10345 0.403881,0.27719 0.466518,0.465951l0.0022674 0.00736906c0.0351447,0.11422 0.0391127,0.23666 0.0127541,0.350881 -0.0255083,0.112236 -0.0827602,0.218804 -0.162686,0.304682zm-5.52254 -0.856228c-0.136044,0.147665 -0.346062,0.244596 -0.59576,0.228724l-0.0011337 0 -0.0297597 -0.00481823 -3.45184 -0.534824 -0.0045348 -0.000283425 -0.0172889 -0.00311768 -0.0371287 -0.00595193 -0.0368453 -0.0150215c-0.254232,-0.10345 -0.403881,-0.278324 -0.466518,-0.465951l-0.0022674 -0.00736906c-0.0351447,-0.11422 -0.0391127,-0.23666 -0.0127541,-0.350881 0.0255083,-0.112236 0.0827602,-0.218804 0.162686,-0.304682 0.136044,-0.147381 0.344929,-0.244596 0.59576,-0.228724l0.000850276 0 0.0300431 0.00481823 3.45155 0.535107 0.00481823 0.000283425 0.0170055 0.00283425 0.0382624 0.00708563 0.0357116 0.0141713c0.254516,0.103167 0.404164,0.27719 0.466518,0.465668l0.0022674 0.00765248c0.0351447,0.11422 0.0393961,0.23666 0.0127541,0.350597 -0.0252249,0.112236 -0.0824768,0.218804 -0.162403,0.304682zm-5.52169 -0.855944c-0.136044,0.147665 -0.346062,0.244596 -0.596043,0.228724l-0.000850276 0 -0.0300431 -0.00481823 -3.4507 -0.534824 -0.0045348 -0.000283425 -0.0172889 -0.00311768 -0.0371287 -0.00595193 -0.0368453 -0.015305c-0.254232,-0.103167 -0.403881,-0.27804 -0.466518,-0.465668l-0.0022674 -0.00736906c-0.0351447,-0.11422 -0.0391127,-0.23666 -0.0127541,-0.350881 0.0255083,-0.112236 0.0827602,-0.218804 0.162686,-0.304682 0.136044,-0.147665 0.344929,-0.244596 0.59576,-0.228724l0.00170055 0.000283425 0.0291928 0.0045348 3.4507 0.534824 0.0045348 0.000283425 0.0172889 0.00311768 0.0382624 0.00680221 0.0357116 0.0144547c0.254232,0.103167 0.404164,0.27719 0.466518,0.465668l0.0022674 0.00736906c0.0351447,0.11422 0.0393961,0.23666 0.0127541,0.350881 -0.0255083,0.112236 -0.0827602,0.218804 -0.162403,0.304682zm-5.52084 -0.855944c-0.136044,0.147381 -0.346062,0.244313 -0.596043,0.228724l-0.000850276 0 -0.0300431 -0.00481823 -3.4507 -0.534824 -0.0045348 -0.000283425 -0.0172889 -0.00311768 -0.0371287 -0.00595193 -0.0368453 -0.015305c-0.254232,-0.103167 -0.403881,-0.27804 -0.466518,-0.465668l-0.0022674 -0.00736906c-0.0351447,-0.114504 -0.0391127,-0.23666 -0.0127541,-0.350881 0.0255083,-0.112236 0.0827602,-0.218804 0.162686,-0.304682 0.136044,-0.147665 0.344929,-0.244596 0.59576,-0.228724l0.00170055 0 0.0291928 0.00481823 3.4507 0.534824 0.0045348 0.000283425 0.0172889 0.00311768 0.0382624 0.00680221 0.0357116 0.0141713c0.254232,0.10345 0.404164,0.27719 0.466518,0.465951l0.0022674 0.00736906c0.0351447,0.11422 0.0393961,0.23666 0.0127541,0.350881 -0.0255083,0.112236 -0.0827602,0.218804 -0.162403,0.304682zm-5.52084 -0.855944c-0.136044,0.147381 -0.346062,0.244313 -0.596043,0.228724l-0.000850276 -0.000283425 -0.0300431 -0.0045348 -3.4507 -0.535107 -0.0045348 -0.000283425 -0.0172889 -0.00283425 -0.0371287 -0.00595193 -0.0368453 -0.015305c-0.254232,-0.103167 -0.403881,-0.27804 -0.466518,-0.465668l-0.0022674 -0.00736906c-0.0351447,-0.114504 -0.0391127,-0.236944 -0.0127541,-0.350881 0.0255083,-0.112236 0.0827602,-0.218804 0.162686,-0.304682 0.136044,-0.147665 0.344929,-0.244596 0.59576,-0.228724l0.00170055 0 0.0291928 0.00481823 3.4507 0.534824 0.0045348 0.000283425 0.0172889 0.00311768 0.0382624 0.00680221 0.0357116 0.0141713c0.254232,0.10345 0.404164,0.27719 0.466518,0.465951l0.0022674 0.00736906c0.0351447,0.11422 0.0393961,0.23666 0.0127541,0.350881 -0.0255083,0.112236 -0.0827602,0.218804 -0.162403,0.304682zm-5.52084 -0.855944c-0.136044,0.147381 -0.346062,0.244313 -0.596043,0.228724l-0.000850276 -0.000283425 -0.0300431 -0.0045348 -3.4507 -0.535107 -0.0045348 -0.000283425 -0.0172889 -0.00283425 -0.0371287 -0.00595193 -0.0368453 -0.015305c-0.254232,-0.103167 -0.403881,-0.27804 -0.466518,-0.465668l-0.0022674 -0.00765248c-0.0351447,-0.11422 -0.0391127,-0.23666 -0.0127541,-0.350597 0.0255083,-0.112236 0.0827602,-0.218804 0.162686,-0.304682 0.136044,-0.147665 0.344929,-0.244596 0.59576,-0.228724l0.00170055 0 0.0291928 0.00481823 3.4507 0.534824 0.0045348 0.000283425 0.0172889 0.00283425 0.0382624 0.00708563 0.0357116 0.0141713c0.254232,0.10345 0.404164,0.27719 0.466518,0.465951l0.0022674 0.00736906c0.0351447,0.11422 0.0393961,0.23666 0.0127541,0.350597 -0.0255083,0.11252 -0.0827602,0.219088 -0.162403,0.304966z"/>
  </g>
 </g>
</svg>
