<?xml version="1.0" encoding="UTF-8"?>
<!DOCTYPE svg PUBLIC "-//W3C//DTD SVG 1.1//EN" "http://www.w3.org/Graphics/SVG/1.1/DTD/svg11.dtd">
<!-- Creator: CorelDRAW -->
<svg xmlns="http://www.w3.org/2000/svg" xml:space="preserve" width="99px" height="85px" style="shape-rendering:geometricPrecision; text-rendering:geometricPrecision; image-rendering:optimizeQuality; fill-rule:evenodd; clip-rule:evenodd"
viewBox="0 0 99.0003 84.6612"
 xmlns:xlink="http://www.w3.org/1999/xlink">
 <defs>
  <style type="text/css">
   <![CDATA[
    .str0 {stroke:black;stroke-width:0.926571;stroke-linecap:round;stroke-linejoin:round}
    .str1 {stroke:black;stroke-width:0.926855;stroke-linecap:round;stroke-linejoin:round}
    .fil0 {fill:none}
    .fil1 {fill:black;fill-rule:nonzero}
   ]]>
  </style>
 </defs>
 <g id="Layer_x0020_1">
  <metadata id="CorelCorpID_0Corel-Layer"/>
  <g id="_464088152">
   <path id="_464111816" class="fil0 str0" d="M0.463427 58.0072l13.1231 3.93927m0.713423 0.214282l14.5922 4.38031m1.41523 0.425163l41.815 12.5525m2.33698 0.700952l12.809 3.84546"/>
   <path id="_464111648" class="fil0 str0" d="M1.30922 51.2386l13.1188 3.22217m0.717958 0.176584l14.9473 3.67171m1.75932 0.432249l17.5408 4.30888m1.42486 0.350051l22.3947 5.50104m2.34945 0.577088l13.2288 3.24966"/>
   <path id="_464111480" class="fil0 str0" d="M2.72784 41.4658l13.2682 2.53964m0.725895 0.13917l15.1174 2.89366m1.77945 0.340697l17.7401 3.39592m1.44102 0.275789l21.3539 4.1459m2.37609 0.454924l13.379 2.5609"/>
   <path id="_464111312" class="fil0 str0" d="M73.3599 79.8912l1.10797 -10.5344m1.4892 -14.1602l1.29079 -12.275m1.34181 -12.7608l1.30752 -12.4349"/>
   <path id="_464111144" class="fil0 str0" d="M49.1908 72.1351l0.944712 -8.98199m1.90416 -12.3671l1.0133 -9.63362m0.981559 -13.1347l1.00849 -9.58855"/>
   <g>
    <path id="_464110976" class="fil1" d="M61.0503 65.4578l0.921753 0.0969371 -0.00311786 0.0238091 -0.00425163 0.0232422 -0.0053854 0.0226753 -0.00623572 0.0223919 -0.00765293 0.021825 -0.00850326 0.0212581 -0.00935358 0.0206913 -0.0104873 0.0201244 -0.0113377 0.0195575 -0.0124714 0.0187072 -0.0130383 0.0181403 -0.0138887 0.0175734 -0.014739 0.0167231 -0.0155893 0.0161562 -0.0161562 0.0150224 -0.0170065 0.0144555 -0.0175734 0.0136052 -0.0184237 0.0127549 -0.0187072 0.0119046 -0.0195575 0.0110542 -0.0198409 0.00992046 -0.0204078 0.00935358 -0.0209747 0.00793637 -0.0215416 0.00708605 -0.021825 0.00623572 -0.0221085 0.00481851 -0.0223919 0.00396819 -0.0229588 0.00283442 -0.0229588 0.00170065 -0.0235257 0.000566884 -0.0235257 -0.000566884 -0.0238091 -0.00198409 -0.0235257 -0.00311786 -0.0232422 -0.00425163 -0.0229588 -0.0053854 -0.0221085 -0.00623572 -0.021825 -0.00765293 -0.0212581 -0.00850326 -0.0206913 -0.00963702 -0.0198409 -0.0102039 -0.0195575 -0.0116211 -0.0187072 -0.012188 -0.0181403 -0.0133218 -0.0175734 -0.0138887 -0.0167231 -0.014739 -0.0158727 -0.0155893 -0.0153059 -0.0161562 -0.0141721 -0.0170065 -0.0136052 -0.0178568 -0.0127549 -0.0181403 -0.0119046 -0.0189906 -0.0110542 -0.019274 -0.00992046 -0.0201244 -0.00907014 -0.0204078 -0.00821981 -0.0209747 -0.00708605 -0.0215416 -0.00595228 -0.021825 -0.00510195 -0.0223919 -0.00368474 -0.0223919 -0.00283442 -0.0229588 -0.00170065 -0.0232422 -0.000566884 -0.0232422 0.000566884 -0.0238091 0.00198409 -0.0238091zm2.1876 -11.9975l-1.26585 12.0945 -0.921753 -0.0969371 1.26585 -12.0945 0.921753 0.0969371zm0 0l-0.921753 -0.0969371 0.00311786 -0.0238091 0.00425163 -0.0232422 0.0053854 -0.0226753 0.00623572 -0.0223919 0.00765293 -0.021825 0.00850326 -0.0212581 0.00935358 -0.0206913 0.0104873 -0.0201244 0.0113377 -0.0195575 0.0124714 -0.0187072 0.0130383 -0.0181403 0.0138887 -0.0175734 0.014739 -0.0167231 0.0155893 -0.0161562 0.0161562 -0.0150224 0.0170065 -0.0144555 0.0175734 -0.0136052 0.0184237 -0.0127549 0.0187072 -0.0119046 0.0195575 -0.0110542 0.0198409 -0.00992046 0.0204078 -0.00935358 0.0209747 -0.00793637 0.0215416 -0.00708605 0.021825 -0.00623572 0.0221085 -0.00481851 0.0223919 -0.00396819 0.0229588 -0.00283442 0.0229588 -0.00170065 0.0235257 -0.000566884 0.0235257 0.000566884 0.0238091 0.00198409 0.0235257 0.00311786 0.0232422 0.00425163 0.0229588 0.0053854 0.0221085 0.00623572 0.021825 0.00765293 0.0212581 0.00850326 0.0206913 0.00963702 0.0198409 0.0104873 0.0195575 0.0113377 0.0187072 0.012188 0.0181403 0.0133218 0.0175734 0.0138887 0.0167231 0.014739 0.0158727 0.0155893 0.0153059 0.0161562 0.0144555 0.0170065 0.0133218 0.0178568 0.0127549 0.0181403 0.0119046 0.0189906 0.0110542 0.019274 0.00992046 0.0201244 0.00907014 0.0204078 0.00821981 0.0209747 0.00708605 0.0215416 0.00595228 0.021825 0.00510195 0.0223919 0.00368474 0.0223919 0.00283442 0.0229588 0.00170065 0.0232422 0.000566884 0.0232422 -0.000566884 0.0238091 -0.00198409 0.0238091zm1.0048 -13.2554l0.92232 0.0912683 -0.00283442 0.0238091 -0.00425163 0.0232422 -0.00510195 0.0226753 -0.00623572 0.0223919 -0.00736949 0.021825 -0.00850326 0.0212581 -0.00935358 0.0209747 -0.0102039 0.0201244 -0.0113377 0.0195575 -0.012188 0.0187072 -0.0130383 0.0184237 -0.0138887 0.0175734 -0.0144555 0.0167231 -0.0155893 0.0161562 -0.0161562 0.0153059 -0.0167231 0.0144555 -0.0175734 0.0138887 -0.0181403 0.0127549 -0.0189906 0.012188 -0.019274 0.0110542 -0.0198409 0.0102039 -0.0204078 0.00907014 -0.0209747 0.00821981 -0.0212581 0.00736949 -0.021825 0.00623572 -0.0221085 0.00510195 -0.0223919 0.00425163 -0.0229588 0.00283442 -0.0229588 0.00170065 -0.0235257 0.000850326 -0.0235257 -0.000566884 -0.0238091 -0.00170065 -0.0235257 -0.00283442 -0.0232422 -0.00425163 -0.0229588 -0.00510195 -0.0221085 -0.00623572 -0.021825 -0.00736949 -0.0212581 -0.00850326 -0.0206913 -0.00935358 -0.0201244 -0.0104873 -0.0195575 -0.0110542 -0.0189906 -0.012188 -0.0181403 -0.0130383 -0.0175734 -0.0138887 -0.0167231 -0.014739 -0.0161562 -0.0155893 -0.0153059 -0.0161562 -0.0144555 -0.0170065 -0.0136052 -0.0175734 -0.0127549 -0.0181403 -0.012188 -0.0187072 -0.0110542 -0.0195575 -0.00992046 -0.0198409 -0.00935358 -0.0204078 -0.00821981 -0.0209747 -0.00708605 -0.0215416 -0.00623572 -0.021825 -0.00510195 -0.0221085 -0.00425163 -0.0226753 -0.00283442 -0.0226753 -0.00198409 -0.0232422 -0.000566884 -0.0235257 0.000566884 -0.0235257 0.00170065 -0.0238091zm1.93562 -10.1838l-1.0133 10.2751 -0.92232 -0.0912683 1.0133 -10.2751 0.92232 0.0912683zm0 0l-0.92232 -0.0912683 0.00283442 -0.0238091 0.00425163 -0.0232422 0.00510195 -0.0226753 0.00623572 -0.0223919 0.00736949 -0.021825 0.00850326 -0.0212581 0.00935358 -0.0209747 0.0102039 -0.0201244 0.0113377 -0.0195575 0.012188 -0.0187072 0.0130383 -0.0184237 0.0138887 -0.0175734 0.0144555 -0.0167231 0.0155893 -0.0161562 0.0161562 -0.0153059 0.0167231 -0.014739 0.0175734 -0.0136052 0.0181403 -0.0127549 0.0189906 -0.012188 0.019274 -0.0110542 0.0198409 -0.0102039 0.0204078 -0.00907014 0.0209747 -0.00821981 0.0212581 -0.00736949 0.021825 -0.00623572 0.0221085 -0.00510195 0.0223919 -0.00425163 0.0229588 -0.00283442 0.0229588 -0.00170065 0.0235257 -0.000850326 0.0235257 0.000566884 0.0238091 0.00170065 0.0235257 0.00283442 0.0232422 0.00425163 0.0229588 0.00510195 0.0221085 0.00623572 0.021825 0.00736949 0.0212581 0.00850326 0.0206913 0.00935358 0.0201244 0.0104873 0.0195575 0.0110542 0.0189906 0.012188 0.0181403 0.0130383 0.0175734 0.0138887 0.0167231 0.014739 0.0161562 0.0155893 0.0153059 0.0161562 0.0144555 0.0167231 0.0136052 0.0178568 0.0127549 0.0181403 0.012188 0.0187072 0.0110542 0.0195575 0.00992046 0.0198409 0.00935358 0.0204078 0.00821981 0.0209747 0.00708605 0.0215416 0.00623572 0.021825 0.00510195 0.0221085 0.00425163 0.0226753 0.00283442 0.0226753 0.00198409 0.0232422 0.000566884 0.0235257 -0.000566884 0.0235257 -0.00170065 0.0238091zm-0.0700101 -12.7917l0.92232 0.0912683 -0.00283442 0.0238091 -0.00425163 0.0232422 -0.00510195 0.0226753 -0.00623572 0.0223919 -0.00736949 0.021825 -0.00850326 0.0212581 -0.00935358 0.0209747 -0.0102039 0.0201244 -0.0113377 0.0195575 -0.012188 0.0187072 -0.0130383 0.0184237 -0.0138887 0.0175734 -0.0144555 0.0167231 -0.0155893 0.0161562 -0.0161562 0.0153059 -0.0167231 0.0144555 -0.0175734 0.0138887 -0.0181403 0.0127549 -0.0189906 0.012188 -0.019274 0.0110542 -0.0198409 0.0102039 -0.0204078 0.00907014 -0.0209747 0.00821981 -0.0212581 0.00736949 -0.021825 0.00623572 -0.0221085 0.00510195 -0.0223919 0.00425163 -0.0229588 0.00283442 -0.0229588 0.00170065 -0.0235257 0.000850326 -0.0235257 -0.000566884 -0.0238091 -0.00170065 -0.0235257 -0.00283442 -0.0232422 -0.00425163 -0.0229588 -0.00510195 -0.0221085 -0.00623572 -0.021825 -0.00736949 -0.0212581 -0.00850326 -0.0206913 -0.00935358 -0.0201244 -0.0104873 -0.0195575 -0.0110542 -0.0189906 -0.012188 -0.0181403 -0.0130383 -0.0175734 -0.0138887 -0.0167231 -0.014739 -0.0161562 -0.0155893 -0.0153059 -0.0161562 -0.0144555 -0.0170065 -0.0136052 -0.0175734 -0.0127549 -0.0181403 -0.012188 -0.0187072 -0.0110542 -0.0195575 -0.00992046 -0.0198409 -0.00935358 -0.0204078 -0.00821981 -0.0209747 -0.00708605 -0.0215416 -0.00623572 -0.021825 -0.00510195 -0.0221085 -0.00425163 -0.0226753 -0.00283442 -0.0226753 -0.00198409 -0.0232422 -0.000566884 -0.0235257 0.000566884 -0.0235257 0.00170065 -0.0238091zm1.93081 -10.1356l-1.00849 10.2269 -0.92232 -0.0912683 1.00849 -10.2269 0.92232 0.0912683zm0 0l-0.92232 -0.0912683 0.00283442 -0.0238091 0.00425163 -0.0232422 0.00510195 -0.0226753 0.00623572 -0.0223919 0.00736949 -0.021825 0.00850326 -0.0212581 0.00935358 -0.0209747 0.0102039 -0.0201244 0.0113377 -0.0195575 0.012188 -0.0187072 0.0130383 -0.0184237 0.0138887 -0.0175734 0.0144555 -0.0167231 0.0155893 -0.0161562 0.0161562 -0.0153059 0.0167231 -0.014739 0.0175734 -0.0136052 0.0181403 -0.0127549 0.0189906 -0.012188 0.019274 -0.0110542 0.0198409 -0.0102039 0.0204078 -0.00907014 0.0209747 -0.00821981 0.0212581 -0.00736949 0.021825 -0.00623572 0.0221085 -0.00510195 0.0223919 -0.00425163 0.0229588 -0.00283442 0.0229588 -0.00170065 0.0235257 -0.000850326 0.0235257 0.000566884 0.0238091 0.00170065 0.0235257 0.00283442 0.0232422 0.00425163 0.0229588 0.00510195 0.0221085 0.00623572 0.021825 0.00736949 0.0212581 0.00850326 0.0206913 0.00935358 0.0201244 0.0104873 0.0195575 0.0110542 0.0189906 0.012188 0.0181403 0.0130383 0.0175734 0.0138887 0.0167231 0.014739 0.0161562 0.0155893 0.0153059 0.0161562 0.0144555 0.0167231 0.0136052 0.0178568 0.0127549 0.0181403 0.012188 0.0187072 0.0110542 0.0195575 0.00992046 0.0198409 0.00935358 0.0204078 0.00821981 0.0209747 0.00708605 0.0215416 0.00623572 0.021825 0.00510195 0.0221085 0.00425163 0.0226753 0.00283442 0.0226753 0.00198409 0.0232422 0.000566884 0.0235257 -0.000566884 0.0235257 -0.00170065 0.0238091z"/>
   </g>
   <path class="fil0 str0" d="M5.61073 34.2749l11.4236 1.56828m0.734114 0.0881504l15.2829 1.8282m1.79872 0.215699l17.9345 2.14537m1.45661 0.1746l21.5917 2.64083m2.40217 0.28741l13.5256 1.61817"/>
   <path class="fil0 str0" d="M6.64444 26.5086l11.5103 0.688764m0.738649 0.031462l15.3779 0.6522m1.81006 0.0770962l16.8727 0.706337m1.46568 0.0623572l22.9041 1.03825m2.41719 0.102323l13.6097 0.577371"/>
   <path class="fil0 str0" d="M8.28529 17.4053l11.5287 0.220801m0.739216 0.00141721l14.5085 0.0255098m2.06402 0.00510195l17.5184 0.0204078m1.46681 0.00283442l22.9273 0.106858m2.41946 0.00425163l13.6219 0.0240926"/>
   <g>
    <path class="fil1" d="M39.5934 59.495l0.92232 0.0912683 -0.00283442 0.0238091 -0.00425163 0.0232422 -0.00510195 0.0226753 -0.00623572 0.0223919 -0.00736949 0.021825 -0.00850326 0.0212581 -0.00935358 0.0209747 -0.0102039 0.0201244 -0.0113377 0.0195575 -0.012188 0.0187072 -0.0130383 0.0184237 -0.0138887 0.0175734 -0.0144555 0.0167231 -0.0155893 0.0161562 -0.0161562 0.0153059 -0.0167231 0.014739 -0.0175734 0.0136052 -0.0181403 0.0127549 -0.0189906 0.012188 -0.019274 0.0110542 -0.0198409 0.0102039 -0.0204078 0.00907014 -0.0209747 0.00821981 -0.0212581 0.00736949 -0.021825 0.00623572 -0.0221085 0.00510195 -0.0223919 0.00425163 -0.0229588 0.00283442 -0.0229588 0.00170065 -0.0235257 0.000850326 -0.0235257 -0.000566884 -0.0238091 -0.00170065 -0.0235257 -0.00283442 -0.0232422 -0.00425163 -0.0229588 -0.00510195 -0.0221085 -0.00623572 -0.021825 -0.00736949 -0.0212581 -0.00850326 -0.0206913 -0.00935358 -0.0201244 -0.0104873 -0.0195575 -0.0110542 -0.0189906 -0.012188 -0.0181403 -0.0130383 -0.0175734 -0.0138887 -0.0167231 -0.014739 -0.0161562 -0.0155893 -0.0153059 -0.0161562 -0.0144555 -0.0167231 -0.0136052 -0.0178568 -0.0127549 -0.0181403 -0.012188 -0.0187072 -0.0110542 -0.0195575 -0.00992046 -0.0198409 -0.00935358 -0.0204078 -0.00821981 -0.0209747 -0.00708605 -0.0215416 -0.00623572 -0.021825 -0.00510195 -0.0221085 -0.00425163 -0.0226753 -0.00283442 -0.0226753 -0.00198409 -0.0232422 -0.000566884 -0.0235257 0.000566884 -0.0235257 0.00170065 -0.0238091zm1.86675 -9.4885l-0.944428 9.57977 -0.92232 -0.0912683 0.944428 -9.57977 0.92232 0.0912683zm0 0l-0.92232 -0.0912683 0.00283442 -0.0238091 0.00425163 -0.0232422 0.00510195 -0.0226753 0.00623572 -0.0223919 0.00736949 -0.021825 0.00850326 -0.0212581 0.00935358 -0.0209747 0.0102039 -0.0201244 0.0113377 -0.0195575 0.012188 -0.0187072 0.0130383 -0.0184237 0.0138887 -0.0175734 0.0144555 -0.0167231 0.0155893 -0.0161562 0.0161562 -0.0153059 0.0167231 -0.0144555 0.0175734 -0.0138887 0.0181403 -0.0127549 0.0189906 -0.012188 0.019274 -0.0110542 0.0198409 -0.0102039 0.0204078 -0.00907014 0.0209747 -0.00821981 0.0212581 -0.00736949 0.021825 -0.00623572 0.0221085 -0.00510195 0.0223919 -0.00425163 0.0229588 -0.00283442 0.0229588 -0.00170065 0.0235257 -0.000850326 0.0235257 0.000566884 0.0238091 0.00170065 0.0235257 0.00283442 0.0232422 0.00425163 0.0229588 0.00510195 0.0221085 0.00623572 0.021825 0.00736949 0.0212581 0.00850326 0.0206913 0.00935358 0.0201244 0.0104873 0.0195575 0.0110542 0.0189906 0.012188 0.0181403 0.0130383 0.0175734 0.0138887 0.0167231 0.014739 0.0161562 0.0155893 0.0153059 0.0161562 0.0144555 0.0170065 0.0136052 0.0175734 0.0127549 0.0181403 0.012188 0.0187072 0.0110542 0.0195575 0.00992046 0.0198409 0.00935358 0.0204078 0.00821981 0.0209747 0.00708605 0.0215416 0.00623572 0.021825 0.00510195 0.0221085 0.00425163 0.0226753 0.00283442 0.0226753 0.00198409 0.0232422 0.000566884 0.0235257 -0.000566884 0.0235257 -0.00170065 0.0238091zm0.718242 -11.2691l0.92232 0.0912683 -0.00283442 0.0238091 -0.00425163 0.0232422 -0.00510195 0.0226753 -0.00623572 0.0223919 -0.00736949 0.021825 -0.00850326 0.0212581 -0.00935358 0.0209747 -0.0102039 0.0201244 -0.0113377 0.0195575 -0.012188 0.0187072 -0.0130383 0.0184237 -0.0138887 0.0175734 -0.0144555 0.0167231 -0.0155893 0.0161562 -0.0161562 0.0153059 -0.0167231 0.0144555 -0.0175734 0.0138887 -0.0181403 0.0127549 -0.0189906 0.012188 -0.019274 0.0110542 -0.0198409 0.0102039 -0.0204078 0.00907014 -0.0209747 0.00821981 -0.0212581 0.00736949 -0.021825 0.00623572 -0.0221085 0.00510195 -0.0223919 0.00425163 -0.0229588 0.00283442 -0.0229588 0.00170065 -0.0235257 0.000850326 -0.0235257 -0.000566884 -0.0238091 -0.00170065 -0.0235257 -0.00283442 -0.0232422 -0.00425163 -0.0229588 -0.00510195 -0.0221085 -0.00623572 -0.021825 -0.00736949 -0.0212581 -0.00850326 -0.0206913 -0.00935358 -0.0201244 -0.0104873 -0.0195575 -0.0110542 -0.0189906 -0.012188 -0.0181403 -0.0130383 -0.0175734 -0.0138887 -0.0167231 -0.014739 -0.0161562 -0.0155893 -0.0153059 -0.0161562 -0.0144555 -0.0170065 -0.0136052 -0.0175734 -0.0127549 -0.0181403 -0.012188 -0.0187072 -0.0110542 -0.0195575 -0.00992046 -0.0198409 -0.00935358 -0.0204078 -0.00821981 -0.0209747 -0.00708605 -0.0215416 -0.00623572 -0.021825 -0.00510195 -0.0221085 -0.00425163 -0.0226753 -0.00283442 -0.0226753 -0.00198409 -0.0232422 -0.000566884 -0.0235257 0.000566884 -0.0235257 0.00170065 -0.0238091zm1.93591 -10.1838l-1.01359 10.2751 -0.92232 -0.0912683 1.01359 -10.2751 0.92232 0.0912683zm0 0l-0.92232 -0.0912683 0.00283442 -0.0238091 0.00425163 -0.0232422 0.00510195 -0.0226753 0.00623572 -0.0223919 0.00736949 -0.021825 0.00850326 -0.0212581 0.00935358 -0.0209747 0.0102039 -0.0201244 0.0113377 -0.0195575 0.012188 -0.0187072 0.0130383 -0.0184237 0.0138887 -0.0175734 0.0144555 -0.0167231 0.0155893 -0.0161562 0.0161562 -0.0153059 0.0167231 -0.014739 0.0175734 -0.0136052 0.0181403 -0.0127549 0.0189906 -0.012188 0.019274 -0.0110542 0.0198409 -0.0102039 0.0204078 -0.00907014 0.0209747 -0.00821981 0.0212581 -0.00736949 0.021825 -0.00623572 0.0221085 -0.00510195 0.0223919 -0.00425163 0.0229588 -0.00283442 0.0229588 -0.00170065 0.0235257 -0.000850326 0.0235257 0.000566884 0.0238091 0.00170065 0.0235257 0.00283442 0.0232422 0.00425163 0.0229588 0.00510195 0.0221085 0.00623572 0.021825 0.00736949 0.0212581 0.00850326 0.0206913 0.00935358 0.0201244 0.0104873 0.0195575 0.0110542 0.0189906 0.012188 0.0181403 0.0130383 0.0175734 0.0138887 0.0167231 0.014739 0.0161562 0.0155893 0.0153059 0.0161562 0.0144555 0.0167231 0.0136052 0.0178568 0.0127549 0.0181403 0.012188 0.0187072 0.0110542 0.0195575 0.00992046 0.0198409 0.00935358 0.0204078 0.00821981 0.0209747 0.00708605 0.0215416 0.00623572 0.021825 0.00510195 0.0221085 0.00425163 0.0226753 0.00283442 0.0226753 0.00198409 0.0232422 0.000566884 0.0235257 -0.000566884 0.0235257 -0.00170065 0.0238091zm0.766994 -11.6758l0.92232 0.0912683 -0.00283442 0.0238091 -0.00425163 0.0232422 -0.00510195 0.0226753 -0.00623572 0.0223919 -0.00736949 0.021825 -0.00850326 0.0212581 -0.00935358 0.0209747 -0.0102039 0.0201244 -0.0113377 0.0195575 -0.012188 0.0187072 -0.0130383 0.0184237 -0.0138887 0.0175734 -0.0144555 0.0167231 -0.0155893 0.0161562 -0.0161562 0.0153059 -0.0167231 0.0144555 -0.0175734 0.0138887 -0.0181403 0.0127549 -0.0189906 0.012188 -0.019274 0.0110542 -0.0198409 0.0102039 -0.0204078 0.00907014 -0.0209747 0.00821981 -0.0212581 0.00736949 -0.021825 0.00623572 -0.0221085 0.00510195 -0.0223919 0.00425163 -0.0229588 0.00283442 -0.0229588 0.00170065 -0.0235257 0.000850326 -0.0235257 -0.000566884 -0.0238091 -0.00170065 -0.0235257 -0.00283442 -0.0232422 -0.00425163 -0.0229588 -0.00510195 -0.0221085 -0.00623572 -0.021825 -0.00736949 -0.0212581 -0.00850326 -0.0206913 -0.00935358 -0.0201244 -0.0104873 -0.0195575 -0.0110542 -0.0189906 -0.012188 -0.0181403 -0.0130383 -0.0175734 -0.0138887 -0.0167231 -0.014739 -0.0161562 -0.0155893 -0.0153059 -0.0161562 -0.0144555 -0.0170065 -0.0136052 -0.0175734 -0.0127549 -0.0181403 -0.012188 -0.0187072 -0.0110542 -0.0195575 -0.00992046 -0.0198409 -0.00935358 -0.0204078 -0.00821981 -0.0209747 -0.00708605 -0.0215416 -0.00623572 -0.021825 -0.00510195 -0.0221085 -0.00425163 -0.0226753 -0.00283442 -0.0226753 -0.00198409 -0.0232422 -0.000566884 -0.0235257 0.000566884 -0.0235257 0.00170065 -0.0238091zm1.79277 -8.73171l-0.87045 8.82298 -0.92232 -0.0912683 0.87045 -8.82298 0.92232 0.0912683zm0 0l-0.92232 -0.0912683 0.00283442 -0.0238091 0.00425163 -0.0232422 0.00510195 -0.0226753 0.00623572 -0.0223919 0.00736949 -0.021825 0.00850326 -0.0212581 0.00935358 -0.0209747 0.0102039 -0.0201244 0.0113377 -0.0195575 0.012188 -0.0187072 0.0130383 -0.0184237 0.0138887 -0.0175734 0.0144555 -0.0167231 0.0155893 -0.0161562 0.0161562 -0.0153059 0.0167231 -0.014739 0.0175734 -0.0136052 0.0181403 -0.0127549 0.0189906 -0.012188 0.019274 -0.0110542 0.0198409 -0.0102039 0.0204078 -0.00907014 0.0209747 -0.00821981 0.0212581 -0.00736949 0.021825 -0.00623572 0.0221085 -0.00510195 0.0223919 -0.00425163 0.0229588 -0.00283442 0.0229588 -0.00170065 0.0235257 -0.000850326 0.0235257 0.000566884 0.0238091 0.00170065 0.0235257 0.00283442 0.0232422 0.00425163 0.0229588 0.00510195 0.0221085 0.00623572 0.021825 0.00736949 0.0212581 0.00850326 0.0206913 0.00935358 0.0201244 0.0104873 0.0195575 0.0110542 0.0189906 0.012188 0.0181403 0.0130383 0.0175734 0.0138887 0.0167231 0.014739 0.0161562 0.0155893 0.0153059 0.0161562 0.0144555 0.0167231 0.0136052 0.0178568 0.0127549 0.0181403 0.012188 0.0187072 0.0110542 0.0195575 0.00992046 0.0198409 0.00935358 0.0204078 0.00821981 0.0209747 0.00708605 0.0215416 0.00623572 0.021825 0.00510195 0.0221085 0.00425163 0.0226753 0.00283442 0.0226753 0.00198409 0.0232422 0.000566884 0.0235257 -0.000566884 0.0235257 -0.00170065 0.0238091z"/>
   </g>
   <path class="fil0 str0" d="M29.6772 67.1287l0.944712 -8.98199m2.2236 -10.8793l1.0133 -9.63362m1.29306 -10.0795l1.00849 -9.58827"/>
   <g>
    <path class="fil1" d="M22.4089 55.3344l0.92232 0.0912683 -0.00283442 0.0238091 -0.00425163 0.0232422 -0.00510195 0.0226753 -0.00623572 0.0223919 -0.00736949 0.021825 -0.00850326 0.0212581 -0.00935358 0.0209747 -0.0102039 0.0201244 -0.0113377 0.0195575 -0.012188 0.0187072 -0.0130383 0.0184237 -0.0138887 0.0175734 -0.0144555 0.0167231 -0.0155893 0.0161562 -0.0161562 0.0153059 -0.0167231 0.014739 -0.0175734 0.0136052 -0.0181403 0.0127549 -0.0189906 0.012188 -0.019274 0.0110542 -0.0198409 0.0102039 -0.0204078 0.00907014 -0.0209747 0.00821981 -0.0212581 0.00736949 -0.021825 0.00623572 -0.0221085 0.00510195 -0.0223919 0.00425163 -0.0229588 0.00283442 -0.0229588 0.00170065 -0.0235257 0.000850326 -0.0235257 -0.000566884 -0.0238091 -0.00170065 -0.0235257 -0.00283442 -0.0232422 -0.00425163 -0.0229588 -0.00510195 -0.0221085 -0.00623572 -0.021825 -0.00736949 -0.0212581 -0.00850326 -0.0206913 -0.00935358 -0.0201244 -0.0104873 -0.0195575 -0.0110542 -0.0189906 -0.012188 -0.0181403 -0.0130383 -0.0175734 -0.0138887 -0.0167231 -0.014739 -0.0161562 -0.0155893 -0.0153059 -0.0161562 -0.0144555 -0.0167231 -0.0136052 -0.0178568 -0.0127549 -0.0181403 -0.012188 -0.0187072 -0.0110542 -0.0195575 -0.00992046 -0.0198409 -0.00935358 -0.0204078 -0.00821981 -0.0209747 -0.00708605 -0.0215416 -0.00623572 -0.021825 -0.00510195 -0.0221085 -0.00425163 -0.0226753 -0.00283442 -0.0226753 -0.00198409 -0.0232422 -0.000566884 -0.0235257 0.000566884 -0.0235257 0.00170065 -0.0238091zm1.78228 -8.62542l-0.859963 8.71669 -0.92232 -0.0912683 0.859963 -8.71669 0.92232 0.0912683zm0 0l-0.92232 -0.0912683 0.00283442 -0.0238091 0.00425163 -0.0232422 0.00510195 -0.0226753 0.00623572 -0.0223919 0.00736949 -0.021825 0.00850326 -0.0212581 0.00935358 -0.0209747 0.0102039 -0.0201244 0.0113377 -0.0195575 0.012188 -0.0187072 0.0130383 -0.0184237 0.0138887 -0.0175734 0.0144555 -0.0167231 0.0155893 -0.0161562 0.0161562 -0.0153059 0.0167231 -0.0144555 0.0175734 -0.0138887 0.0181403 -0.0127549 0.0189906 -0.012188 0.019274 -0.0110542 0.0198409 -0.0102039 0.0204078 -0.00907014 0.0209747 -0.00821981 0.0212581 -0.00736949 0.021825 -0.00623572 0.0221085 -0.00510195 0.0223919 -0.00425163 0.0229588 -0.00283442 0.0229588 -0.00170065 0.0235257 -0.000850326 0.0235257 0.000566884 0.0238091 0.00170065 0.0235257 0.00283442 0.0232422 0.00425163 0.0229588 0.00510195 0.0221085 0.00623572 0.021825 0.00736949 0.0212581 0.00850326 0.0206913 0.00935358 0.0201244 0.0104873 0.0195575 0.0110542 0.0189906 0.012188 0.0181403 0.0130383 0.0175734 0.0138887 0.0167231 0.014739 0.0161562 0.0155893 0.0153059 0.0161562 0.0144555 0.0170065 0.0136052 0.0175734 0.0127549 0.0181403 0.012188 0.0187072 0.0110542 0.0195575 0.00992046 0.0198409 0.00935358 0.0204078 0.00821981 0.0209747 0.00708605 0.0215416 0.00623572 0.021825 0.00510195 0.0221085 0.00425163 0.0226753 0.00283442 0.0226753 0.00198409 0.0232422 0.000566884 0.0235257 -0.000566884 0.0235257 -0.00170065 0.0238091zm1.03315 -10.1019l0.92232 0.0912683 -0.00283442 0.0238091 -0.00425163 0.0232422 -0.00510195 0.0226753 -0.00623572 0.0223919 -0.00736949 0.021825 -0.00850326 0.0212581 -0.00935358 0.0209747 -0.0102039 0.0201244 -0.0113377 0.0195575 -0.012188 0.0187072 -0.0130383 0.0184237 -0.0138887 0.0175734 -0.0144555 0.0167231 -0.0155893 0.0161562 -0.0161562 0.0153059 -0.0167231 0.0144555 -0.0175734 0.0138887 -0.0181403 0.0127549 -0.0189906 0.012188 -0.019274 0.0110542 -0.0198409 0.0102039 -0.0204078 0.00907014 -0.0209747 0.00821981 -0.0212581 0.00736949 -0.021825 0.00623572 -0.0221085 0.00510195 -0.0223919 0.00425163 -0.0229588 0.00283442 -0.0229588 0.00170065 -0.0235257 0.000850326 -0.0235257 -0.000566884 -0.0238091 -0.00170065 -0.0235257 -0.00283442 -0.0232422 -0.00425163 -0.0229588 -0.00510195 -0.0221085 -0.00623572 -0.021825 -0.00736949 -0.0212581 -0.00850326 -0.0206913 -0.00935358 -0.0201244 -0.0104873 -0.0195575 -0.0110542 -0.0189906 -0.012188 -0.0181403 -0.0130383 -0.0175734 -0.0138887 -0.0167231 -0.014739 -0.0161562 -0.0155893 -0.0153059 -0.0161562 -0.0144555 -0.0170065 -0.0136052 -0.0175734 -0.0127549 -0.0181403 -0.012188 -0.0187072 -0.0110542 -0.0195575 -0.00992046 -0.0198409 -0.00935358 -0.0204078 -0.00821981 -0.0209747 -0.00708605 -0.0215416 -0.00623572 -0.021825 -0.00510195 -0.0221085 -0.00425163 -0.0226753 -0.00283442 -0.0226753 -0.00198409 -0.0232422 -0.000566884 -0.0235257 0.000566884 -0.0235257 0.00170065 -0.0238091zm1.79475 -8.75353l-0.872434 8.8448 -0.92232 -0.0912683 0.872434 -8.8448 0.92232 0.0912683zm0 0l-0.92232 -0.0912683 0.00283442 -0.0238091 0.00425163 -0.0232422 0.00510195 -0.0226753 0.00623572 -0.0223919 0.00736949 -0.021825 0.00850326 -0.0212581 0.00935358 -0.0209747 0.0102039 -0.0201244 0.0113377 -0.0195575 0.012188 -0.0187072 0.0130383 -0.0184237 0.0138887 -0.0175734 0.0144555 -0.0167231 0.0155893 -0.0161562 0.0161562 -0.0153059 0.0167231 -0.014739 0.0175734 -0.0136052 0.0181403 -0.0127549 0.0189906 -0.012188 0.019274 -0.0110542 0.0198409 -0.0102039 0.0204078 -0.00907014 0.0209747 -0.00821981 0.0212581 -0.00736949 0.021825 -0.00623572 0.0221085 -0.00510195 0.0223919 -0.00425163 0.0229588 -0.00283442 0.0229588 -0.00170065 0.0235257 -0.000850326 0.0235257 0.000566884 0.0238091 0.00170065 0.0235257 0.00283442 0.0232422 0.00425163 0.0229588 0.00510195 0.0221085 0.00623572 0.021825 0.00736949 0.0212581 0.00850326 0.0206913 0.00935358 0.0201244 0.0104873 0.0195575 0.0110542 0.0189906 0.012188 0.0181403 0.0130383 0.0175734 0.0138887 0.0167231 0.014739 0.0161562 0.0155893 0.0153059 0.0161562 0.0144555 0.0167231 0.0136052 0.0178568 0.0127549 0.0181403 0.012188 0.0187072 0.0110542 0.0195575 0.00992046 0.0198409 0.00935358 0.0204078 0.00821981 0.0209747 0.00708605 0.0215416 0.00623572 0.021825 0.00510195 0.0221085 0.00425163 0.0226753 0.00283442 0.0226753 0.00198409 0.0232422 0.000566884 0.0235257 -0.000566884 0.0235257 -0.00170065 0.0238091zm0.677143 -10.2796l0.92232 0.0912683 -0.00283442 0.0238091 -0.00425163 0.0232422 -0.00510195 0.0226753 -0.00623572 0.0223919 -0.00736949 0.021825 -0.00850326 0.0212581 -0.00935358 0.0209747 -0.0102039 0.0201244 -0.0113377 0.0195575 -0.012188 0.0187072 -0.0130383 0.0184237 -0.0138887 0.0175734 -0.0144555 0.0167231 -0.0155893 0.0161562 -0.0161562 0.0153059 -0.0167231 0.0144555 -0.0175734 0.0138887 -0.0181403 0.0127549 -0.0189906 0.012188 -0.019274 0.0110542 -0.0198409 0.0102039 -0.0204078 0.00907014 -0.0209747 0.00821981 -0.0212581 0.00736949 -0.021825 0.00623572 -0.0221085 0.00510195 -0.0223919 0.00425163 -0.0229588 0.00283442 -0.0229588 0.00170065 -0.0235257 0.000850326 -0.0235257 -0.000566884 -0.0238091 -0.00170065 -0.0235257 -0.00283442 -0.0232422 -0.00425163 -0.0229588 -0.00510195 -0.0221085 -0.00623572 -0.021825 -0.00736949 -0.0212581 -0.00850326 -0.0206913 -0.00935358 -0.0201244 -0.0104873 -0.0195575 -0.0110542 -0.0189906 -0.012188 -0.0181403 -0.0130383 -0.0175734 -0.0138887 -0.0167231 -0.014739 -0.0161562 -0.0155893 -0.0153059 -0.0161562 -0.0144555 -0.0170065 -0.0136052 -0.0175734 -0.0127549 -0.0181403 -0.012188 -0.0187072 -0.0110542 -0.0195575 -0.00992046 -0.0198409 -0.00935358 -0.0204078 -0.00821981 -0.0209747 -0.00708605 -0.0215416 -0.00623572 -0.021825 -0.00510195 -0.0221085 -0.00425163 -0.0226753 -0.00283442 -0.0226753 -0.00198409 -0.0232422 -0.000566884 -0.0235257 0.000566884 -0.0235257 0.00170065 -0.0238091zm1.79305 -8.73143l-0.870733 8.82269 -0.92232 -0.0912683 0.870733 -8.82269 0.92232 0.0912683zm0 0l-0.92232 -0.0912683 0.00283442 -0.0238091 0.00425163 -0.0232422 0.00510195 -0.0226753 0.00623572 -0.0223919 0.00736949 -0.021825 0.00850326 -0.0212581 0.00935358 -0.0209747 0.0102039 -0.0201244 0.0113377 -0.0195575 0.012188 -0.0187072 0.0130383 -0.0184237 0.0138887 -0.0175734 0.0144555 -0.0167231 0.0155893 -0.0161562 0.0161562 -0.0153059 0.0167231 -0.014739 0.0175734 -0.0136052 0.0181403 -0.0127549 0.0189906 -0.012188 0.019274 -0.0110542 0.0198409 -0.0102039 0.0204078 -0.00907014 0.0209747 -0.00821981 0.0212581 -0.00736949 0.021825 -0.00623572 0.0221085 -0.00510195 0.0223919 -0.00425163 0.0229588 -0.00283442 0.0229588 -0.00170065 0.0235257 -0.000850326 0.0235257 0.000566884 0.0238091 0.00170065 0.0235257 0.00283442 0.0232422 0.00425163 0.0229588 0.00510195 0.0221085 0.00623572 0.021825 0.00736949 0.0212581 0.00850326 0.0206913 0.00935358 0.0201244 0.0104873 0.0195575 0.0110542 0.0189906 0.012188 0.0181403 0.0130383 0.0175734 0.0138887 0.0167231 0.014739 0.0161562 0.0155893 0.0153059 0.0161562 0.0144555 0.0167231 0.0136052 0.0178568 0.0127549 0.0181403 0.012188 0.0187072 0.0110542 0.0195575 0.00992046 0.0198409 0.00935358 0.0204078 0.00821981 0.0209747 0.00708605 0.0215416 0.00623572 0.021825 0.00510195 0.0221085 0.00425163 0.0226753 0.00283442 0.0226753 0.00198409 0.0232422 0.000566884 0.0235257 -0.000566884 0.0235257 -0.00170065 0.0238091z"/>
   </g>
   <g>
    <path class="fil1" d="M8.49192 51.9591l0.917785 0.13095 -0.00396819 0.0235257 -0.00510195 0.0232422 -0.00623572 0.0226753 -0.00736949 0.0221085 -0.00821981 0.0215416 -0.00935358 0.0209747 -0.0102039 0.0204078 -0.0113377 0.0198409 -0.0119046 0.0189906 -0.0130383 0.0184237 -0.0138887 0.0178568 -0.0144555 0.0170065 -0.0153059 0.0161562 -0.0161562 0.0153059 -0.0170065 0.014739 -0.01729 0.0138887 -0.0181403 0.0130383 -0.0187072 0.0119046 -0.019274 0.0113377 -0.0198409 0.0102039 -0.0204078 0.00935358 -0.0206913 0.00850326 -0.0212581 0.00736949 -0.021825 0.00623572 -0.021825 0.0053854 -0.0223919 0.00396819 -0.0226753 0.00311786 -0.0229588 0.00198409 -0.0232422 0.000850326 -0.0232422 -0.000283442 -0.0235257 -0.00141721 -0.0238091 -0.00283442 -0.0235257 -0.00396819 -0.0229588 -0.00510195 -0.0226753 -0.00623572 -0.0221085 -0.00708605 -0.0212581 -0.00850326 -0.0209747 -0.00935358 -0.0204078 -0.0102039 -0.0195575 -0.0110542 -0.0189906 -0.012188 -0.0184237 -0.0130383 -0.0175734 -0.0138887 -0.0167231 -0.014739 -0.0161562 -0.0153059 -0.0155893 -0.0161562 -0.0144555 -0.0170065 -0.0138887 -0.01729 -0.0127549 -0.0184237 -0.012188 -0.0187072 -0.0110542 -0.019274 -0.0102039 -0.0198409 -0.00935358 -0.0204078 -0.00821981 -0.0209747 -0.00736949 -0.0212581 -0.00623572 -0.021825 -0.00510195 -0.0221085 -0.00425163 -0.0223919 -0.00311786 -0.0226753 -0.00198409 -0.0232422 -0.000850326 -0.0232422 0.000566884 -0.0235257 0.00141721 -0.0235257 0.00283442 -0.0238091zm2.16209 -8.60133l-1.24431 8.73228 -0.917785 -0.13095 1.24431 -8.73228 0.917785 0.13095zm0 0l-0.917785 -0.13095 0.00396819 -0.0235257 0.00510195 -0.0232422 0.00623572 -0.0226753 0.00736949 -0.0221085 0.00821981 -0.0215416 0.00935358 -0.0209747 0.0102039 -0.0204078 0.0110542 -0.0198409 0.012188 -0.0189906 0.0130383 -0.0184237 0.0138887 -0.0178568 0.0144555 -0.0170065 0.0153059 -0.0161562 0.0161562 -0.0153059 0.0170065 -0.014739 0.01729 -0.0138887 0.0181403 -0.0130383 0.0187072 -0.0119046 0.019274 -0.0113377 0.0198409 -0.0102039 0.0204078 -0.00935358 0.0206913 -0.00850326 0.0212581 -0.00736949 0.021825 -0.00623572 0.021825 -0.0053854 0.0223919 -0.00396819 0.0226753 -0.00311786 0.0229588 -0.00198409 0.0232422 -0.000850326 0.0232422 0.000283442 0.0235257 0.00141721 0.0238091 0.00283442 0.0235257 0.00396819 0.0229588 0.00510195 0.0226753 0.00623572 0.0221085 0.00708605 0.0212581 0.00850326 0.0209747 0.00935358 0.0204078 0.0102039 0.0195575 0.0110542 0.0189906 0.012188 0.0184237 0.0130383 0.0175734 0.0138887 0.0167231 0.014739 0.0161562 0.0153059 0.0155893 0.0161562 0.0144555 0.0170065 0.0138887 0.01729 0.0127549 0.0184237 0.012188 0.0187072 0.0110542 0.019274 0.0102039 0.0198409 0.00935358 0.0204078 0.00821981 0.0209747 0.00736949 0.0212581 0.00623572 0.021825 0.00510195 0.0221085 0.00425163 0.0223919 0.00311786 0.0226753 0.00198409 0.0232422 0.000850326 0.0232422 -0.000566884 0.0235257 -0.00141721 0.0235257 -0.00283442 0.0238091zm0.202094 -9.16112l0.921186 0.10374 -0.0034013 0.0238091 -0.00425163 0.0232422 -0.00566884 0.0226753 -0.00651916 0.0223919 -0.00765293 0.021825 -0.0087867 0.0212581 -0.00963702 0.0206913 -0.0104873 0.0201244 -0.0116211 0.019274 -0.0124714 0.0189906 -0.0130383 0.0181403 -0.0141721 0.01729 -0.0150224 0.0167231 -0.0155893 0.0158727 -0.0164396 0.0153059 -0.0170065 0.0141721 -0.0178568 0.0136052 -0.0181403 0.0127549 -0.0189906 0.0116211 -0.0195575 0.0107708 -0.0201244 0.0102039 -0.0204078 0.0087867 -0.0209747 0.00793637 -0.0215416 0.00708605 -0.021825 0.00595228 -0.0223919 0.00481851 -0.0223919 0.00368474 -0.0229588 0.00283442 -0.0232422 0.00141721 -0.0232422 0.000283442 -0.0235257 -0.000850326 -0.0238091 -0.00198409 -0.0235257 -0.0034013 -0.0232422 -0.00425163 -0.0226753 -0.00566884 -0.0223919 -0.00651916 -0.0215416 -0.00765293 -0.0212581 -0.0087867 -0.0204078 -0.00963702 -0.0201244 -0.0107708 -0.019274 -0.0113377 -0.0187072 -0.0124714 -0.0181403 -0.0133218 -0.01729 -0.0141721 -0.0164396 -0.0150224 -0.0158727 -0.0155893 -0.0150224 -0.0164396 -0.0144555 -0.01729 -0.0133218 -0.0175734 -0.0127549 -0.0184237 -0.0116211 -0.0189906 -0.0107708 -0.0195575 -0.00992046 -0.0201244 -0.0087867 -0.0206913 -0.00793637 -0.0212581 -0.00708605 -0.0215416 -0.00566884 -0.021825 -0.00481851 -0.0223919 -0.00396819 -0.0223919 -0.00255098 -0.0229588 -0.00141721 -0.0232422 -0.000283442 -0.0235257 0.000850326 -0.0238091 0.00198409 -0.0238091zm1.75649 -7.30713l-0.835303 7.41087 -0.921186 -0.10374 0.835303 -7.41087 0.921186 0.10374zm0 0l-0.921186 -0.10374 0.0034013 -0.0238091 0.00425163 -0.0232422 0.00566884 -0.0226753 0.00651916 -0.0223919 0.00765293 -0.021825 0.0087867 -0.0212581 0.00963702 -0.0206913 0.0104873 -0.0201244 0.0116211 -0.019274 0.0124714 -0.0189906 0.0130383 -0.0181403 0.0141721 -0.01729 0.0150224 -0.0167231 0.0155893 -0.0158727 0.0164396 -0.0153059 0.0170065 -0.0141721 0.0178568 -0.0136052 0.0181403 -0.0127549 0.0189906 -0.0116211 0.0195575 -0.0107708 0.0201244 -0.0102039 0.0204078 -0.0087867 0.0209747 -0.00793637 0.0215416 -0.00708605 0.021825 -0.00595228 0.0223919 -0.00481851 0.0223919 -0.00368474 0.0229588 -0.00283442 0.0232422 -0.00141721 0.0232422 -0.000283442 0.0235257 0.000850326 0.0238091 0.00198409 0.0235257 0.0034013 0.0232422 0.00425163 0.0226753 0.00566884 0.0223919 0.00651916 0.0215416 0.00765293 0.0212581 0.0087867 0.0204078 0.00963702 0.0201244 0.0104873 0.019274 0.0116211 0.0187072 0.0124714 0.0181403 0.0133218 0.01729 0.0141721 0.0164396 0.0150224 0.0158727 0.0155893 0.0150224 0.0164396 0.0144555 0.0170065 0.0133218 0.0178568 0.0127549 0.0184237 0.0116211 0.0189906 0.0107708 0.0195575 0.00992046 0.0201244 0.0087867 0.0206913 0.00793637 0.0212581 0.00708605 0.0212581 0.00566884 0.0221085 0.00481851 0.0223919 0.00396819 0.0223919 0.00255098 0.0229588 0.00141721 0.0232422 0.000283442 0.0235257 -0.000850326 0.0238091 -0.00198409 0.0238091zm0.979575 -9.44882l0.91495 0.14909 -0.00453507 0.0235257 -0.0053854 0.0229588 -0.0068026 0.0226753 -0.00765293 0.021825 -0.0087867 0.0215416 -0.00963702 0.0206913 -0.0104873 0.0201244 -0.0116211 0.0195575 -0.0124714 0.0189906 -0.0133218 0.0181403 -0.0141721 0.01729 -0.0150224 0.0167231 -0.0155893 0.0158727 -0.0164396 0.0153059 -0.01729 0.0141721 -0.0175734 0.0136052 -0.0184237 0.0127549 -0.0189906 0.0116211 -0.0195575 0.0107708 -0.0198409 0.00992046 -0.0206913 0.00907014 -0.0209747 0.00793637 -0.0212581 0.0068026 -0.021825 0.00595228 -0.0221085 0.00481851 -0.0223919 0.00368474 -0.0226753 0.00283442 -0.0229588 0.00141721 -0.0232422 0.000283442 -0.0235257 -0.000850326 -0.0235257 -0.00198409 -0.0235257 -0.00311786 -0.0235257 -0.00453507 -0.0229588 -0.0053854 -0.0223919 -0.0068026 -0.021825 -0.00765293 -0.0212581 -0.0087867 -0.0206913 -0.00963702 -0.0201244 -0.0107708 -0.019274 -0.0116211 -0.0187072 -0.0124714 -0.0181403 -0.0133218 -0.01729 -0.0141721 -0.0167231 -0.0150224 -0.0158727 -0.0155893 -0.0150224 -0.0164396 -0.0141721 -0.01729 -0.0136052 -0.0178568 -0.0124714 -0.0184237 -0.0116211 -0.0189906 -0.0107708 -0.0195575 -0.00992046 -0.0201244 -0.0087867 -0.0204078 -0.00793637 -0.0212581 -0.0068026 -0.0212581 -0.00595228 -0.021825 -0.00453507 -0.0223919 -0.00396819 -0.0223919 -0.00255098 -0.0229588 -0.00141721 -0.0229588 -0.000283442 -0.0232422 0.000566884 -0.0235257 0.00226753 -0.0235257 0.00311786 -0.0238091zm2.16521 -7.52708l-1.25026 7.67617 -0.91495 -0.14909 1.25026 -7.67617 0.91495 0.14909zm0 0l-0.91495 -0.14909 0.00453507 -0.0235257 0.0053854 -0.0229588 0.0068026 -0.0226753 0.00765293 -0.021825 0.0087867 -0.0215416 0.00963702 -0.0206913 0.0104873 -0.0201244 0.0116211 -0.0195575 0.0124714 -0.0189906 0.0133218 -0.0181403 0.0141721 -0.01729 0.0150224 -0.0167231 0.0155893 -0.0158727 0.0164396 -0.0153059 0.01729 -0.0141721 0.0175734 -0.0136052 0.0184237 -0.0127549 0.0189906 -0.0116211 0.0195575 -0.0107708 0.0198409 -0.00992046 0.0206913 -0.00907014 0.0209747 -0.00793637 0.0212581 -0.0068026 0.021825 -0.00595228 0.0221085 -0.00481851 0.0223919 -0.00368474 0.0226753 -0.00283442 0.0229588 -0.00141721 0.0232422 -0.000283442 0.0235257 0.000850326 0.0235257 0.00198409 0.0235257 0.00311786 0.0235257 0.00453507 0.0229588 0.0053854 0.0223919 0.0068026 0.021825 0.00765293 0.0212581 0.0087867 0.0206913 0.00963702 0.0201244 0.0107708 0.019274 0.0116211 0.0187072 0.0124714 0.0181403 0.0133218 0.01729 0.0141721 0.0167231 0.0150224 0.0158727 0.0155893 0.0150224 0.0164396 0.0141721 0.01729 0.0133218 0.0178568 0.0127549 0.0184237 0.0116211 0.0189906 0.0107708 0.0195575 0.00992046 0.0201244 0.0087867 0.0204078 0.00793637 0.0212581 0.0068026 0.0212581 0.00595228 0.021825 0.00453507 0.0223919 0.00396819 0.0223919 0.00255098 0.0229588 0.00141721 0.0229588 0.000283442 0.0232422 -0.000566884 0.0235257 -0.00226753 0.0235257 -0.00311786 0.0238091z"/>
   </g>
   <g>
    <path class="fil1" d="M13.2469 62.1004l0.92402 0.107708 -0.0034013 0.0235257 -0.00453507 0.0232422 -0.00566884 0.0226753 -0.00651916 0.0221085 -0.00793637 0.021825 -0.0087867 0.0209747 -0.00963702 0.0204078 -0.0107708 0.0201244 -0.0116211 0.019274 -0.0127549 0.0187072 -0.0133218 0.0178568 -0.0141721 0.01729 -0.0150224 0.0164396 -0.0158727 0.0158727 -0.0164396 0.0150224 -0.0170065 0.0141721 -0.0178568 0.0133218 -0.0184237 0.0124714 -0.019274 0.0116211 -0.0195575 0.0107708 -0.0201244 0.00992046 -0.0206913 0.0087867 -0.0212581 0.00793637 -0.0215416 0.0068026 -0.021825 0.00566884 -0.0223919 0.00481851 -0.0226753 0.00368474 -0.0229588 0.00255098 -0.0232422 0.00141721 -0.0232422 0.000283442 -0.0238091 -0.000850326 -0.0238091 -0.00226753 -0.0238091 -0.0034013 -0.0232422 -0.00453507 -0.0226753 -0.0053854 -0.0223919 -0.0068026 -0.0215416 -0.00765293 -0.0212581 -0.0087867 -0.0206913 -0.00992046 -0.0198409 -0.0104873 -0.0195575 -0.0116211 -0.0187072 -0.0124714 -0.0178568 -0.0133218 -0.0175734 -0.0141721 -0.0164396 -0.0150224 -0.0158727 -0.0158727 -0.0150224 -0.0164396 -0.0141721 -0.0170065 -0.0136052 -0.0178568 -0.0124714 -0.0184237 -0.0116211 -0.0189906 -0.0107708 -0.0195575 -0.00992046 -0.0201244 -0.0087867 -0.0204078 -0.00793637 -0.0209747 -0.0068026 -0.0215416 -0.00595228 -0.021825 -0.00453507 -0.0223919 -0.00368474 -0.0223919 -0.00255098 -0.0229588 -0.00141721 -0.0232422 -0.000283442 -0.0232422 0.000850326 -0.0235257 0.00226753 -0.0238091zm1.86873 -7.94629l-0.944712 8.054 -0.92402 -0.107708 0.944712 -8.054 0.92402 0.107708zm0 0l-0.92402 -0.107708 0.0034013 -0.0235257 0.00453507 -0.0232422 0.00566884 -0.0226753 0.00651916 -0.0221085 0.00793637 -0.021825 0.0087867 -0.0209747 0.00963702 -0.0204078 0.0107708 -0.0201244 0.0116211 -0.019274 0.0127549 -0.0187072 0.0133218 -0.0178568 0.0141721 -0.01729 0.0150224 -0.0164396 0.0158727 -0.0158727 0.0164396 -0.0150224 0.0170065 -0.0141721 0.0178568 -0.0133218 0.0184237 -0.0124714 0.019274 -0.0116211 0.0195575 -0.0107708 0.0201244 -0.00992046 0.0206913 -0.0087867 0.0212581 -0.00793637 0.0215416 -0.0068026 0.021825 -0.00566884 0.0223919 -0.00481851 0.0226753 -0.00368474 0.0229588 -0.00255098 0.0232422 -0.00141721 0.0232422 -0.000283442 0.0238091 0.000850326 0.0238091 0.00226753 0.0238091 0.0034013 0.0232422 0.00453507 0.0226753 0.0053854 0.0223919 0.0068026 0.0215416 0.00765293 0.0212581 0.0087867 0.0206913 0.00992046 0.0198409 0.0104873 0.0195575 0.0116211 0.0187072 0.0124714 0.0178568 0.0133218 0.0175734 0.0141721 0.0164396 0.0150224 0.0158727 0.0158727 0.0150224 0.0164396 0.0141721 0.0170065 0.0136052 0.0178568 0.0124714 0.0184237 0.0116211 0.0189906 0.0107708 0.0195575 0.00992046 0.0201244 0.0087867 0.0204078 0.00793637 0.0209747 0.0068026 0.0215416 0.00595228 0.021825 0.00453507 0.0223919 0.00368474 0.0223919 0.00255098 0.0229588 0.00141721 0.0232422 0.000283442 0.0232422 -0.000850326 0.0235257 -0.00226753 0.0238091zm1.29958 -9.86293l0.92402 0.107708 -0.0034013 0.0235257 -0.00453507 0.0232422 -0.00566884 0.0226753 -0.00651916 0.0221085 -0.00793637 0.021825 -0.00850326 0.0209747 -0.00992046 0.0204078 -0.0107708 0.0201244 -0.0116211 0.019274 -0.0124714 0.0187072 -0.0133218 0.0178568 -0.0141721 0.01729 -0.0150224 0.0164396 -0.0158727 0.0158727 -0.0164396 0.0150224 -0.01729 0.0141721 -0.0175734 0.0133218 -0.0187072 0.0124714 -0.0189906 0.0116211 -0.0195575 0.0107708 -0.0201244 0.00992046 -0.0206913 0.0087867 -0.0212581 0.00793637 -0.0215416 0.0068026 -0.021825 0.00566884 -0.0223919 0.00481851 -0.0226753 0.00368474 -0.0229588 0.00255098 -0.0232422 0.00141721 -0.0232422 0.000283442 -0.0238091 -0.000850326 -0.0238091 -0.00226753 -0.0238091 -0.0034013 -0.0232422 -0.00453507 -0.0226753 -0.0053854 -0.0223919 -0.0068026 -0.0215416 -0.00765293 -0.0212581 -0.0087867 -0.0206913 -0.00992046 -0.0198409 -0.0104873 -0.0195575 -0.0116211 -0.0187072 -0.0124714 -0.0178568 -0.0133218 -0.0175734 -0.0141721 -0.0164396 -0.0150224 -0.0158727 -0.0158727 -0.0150224 -0.0164396 -0.0144555 -0.0170065 -0.0133218 -0.0178568 -0.0124714 -0.0184237 -0.0116211 -0.0189906 -0.0107708 -0.0195575 -0.00992046 -0.0201244 -0.0087867 -0.0204078 -0.00793637 -0.0209747 -0.0068026 -0.0215416 -0.00595228 -0.021825 -0.00481851 -0.0223919 -0.00368474 -0.0223919 -0.00255098 -0.0229588 -0.00141721 -0.0232422 -0.000283442 -0.0232422 0.000850326 -0.0235257 0.00226753 -0.0238091zm1.93704 -8.53018l-1.01302 8.63789 -0.92402 -0.107708 1.01302 -8.63789 0.92402 0.107708zm0 0l-0.92402 -0.107708 0.0034013 -0.0235257 0.00453507 -0.0232422 0.00566884 -0.0226753 0.00651916 -0.0221085 0.00793637 -0.021825 0.00850326 -0.0209747 0.00992046 -0.0204078 0.0107708 -0.0201244 0.0116211 -0.019274 0.0124714 -0.0187072 0.0133218 -0.0178568 0.0141721 -0.01729 0.0150224 -0.0164396 0.0158727 -0.0158727 0.0164396 -0.0150224 0.0170065 -0.0141721 0.0178568 -0.0133218 0.0187072 -0.0124714 0.0189906 -0.0116211 0.0195575 -0.0107708 0.0201244 -0.00992046 0.0206913 -0.0087867 0.0212581 -0.00793637 0.0215416 -0.0068026 0.021825 -0.00566884 0.0223919 -0.00481851 0.0226753 -0.00368474 0.0229588 -0.00255098 0.0232422 -0.00141721 0.0232422 -0.000283442 0.0238091 0.000850326 0.0238091 0.00226753 0.0238091 0.0034013 0.0232422 0.00453507 0.0226753 0.0053854 0.0223919 0.0068026 0.0215416 0.00765293 0.0212581 0.0087867 0.0206913 0.00992046 0.0198409 0.0104873 0.0195575 0.0116211 0.0187072 0.0124714 0.0178568 0.0133218 0.0175734 0.0141721 0.0164396 0.0150224 0.0158727 0.0158727 0.0150224 0.0164396 0.0141721 0.0170065 0.0136052 0.0178568 0.0124714 0.0184237 0.0116211 0.0189906 0.0107708 0.0195575 0.00992046 0.0201244 0.0087867 0.0204078 0.00793637 0.0209747 0.0068026 0.0215416 0.00595228 0.021825 0.00481851 0.0223919 0.00368474 0.0223919 0.00255098 0.0229588 0.00141721 0.0232422 0.000283442 0.0232422 -0.000850326 0.0235257 -0.00226753 0.0238091zm0.369608 -9.14553l0.92402 0.107708 -0.0034013 0.0235257 -0.00453507 0.0232422 -0.00566884 0.0226753 -0.00651916 0.0221085 -0.00793637 0.021825 -0.00850326 0.0209747 -0.00992046 0.0204078 -0.0107708 0.0201244 -0.0116211 0.019274 -0.0124714 0.0187072 -0.0133218 0.0178568 -0.0141721 0.01729 -0.0150224 0.0164396 -0.0158727 0.0158727 -0.0164396 0.0150224 -0.01729 0.0141721 -0.0175734 0.0133218 -0.0187072 0.0124714 -0.0189906 0.0116211 -0.0195575 0.0107708 -0.0201244 0.00992046 -0.0206913 0.0087867 -0.0212581 0.00793637 -0.0215416 0.0068026 -0.021825 0.00566884 -0.0223919 0.00481851 -0.0226753 0.00368474 -0.0229588 0.00255098 -0.0232422 0.00141721 -0.0232422 0.000283442 -0.0238091 -0.000850326 -0.0238091 -0.00226753 -0.0238091 -0.0034013 -0.0232422 -0.00453507 -0.0226753 -0.0053854 -0.0223919 -0.0068026 -0.0215416 -0.00765293 -0.0212581 -0.0087867 -0.0206913 -0.00992046 -0.0198409 -0.0104873 -0.0195575 -0.0116211 -0.0187072 -0.0124714 -0.0178568 -0.0133218 -0.0175734 -0.0141721 -0.0164396 -0.0150224 -0.0158727 -0.0158727 -0.0150224 -0.0164396 -0.0144555 -0.0170065 -0.0133218 -0.0178568 -0.0124714 -0.0184237 -0.0116211 -0.0189906 -0.0107708 -0.0195575 -0.00992046 -0.0201244 -0.0087867 -0.0204078 -0.00793637 -0.0209747 -0.0068026 -0.0215416 -0.00595228 -0.021825 -0.00481851 -0.0223919 -0.00368474 -0.0223919 -0.00255098 -0.0229588 -0.00141721 -0.0232422 -0.000283442 -0.0232422 0.000850326 -0.0235257 0.00226753 -0.0238091zm1.93222 -8.49022l-1.0082 8.59792 -0.92402 -0.107708 1.0082 -8.59792 0.92402 0.107708zm0 0l-0.92402 -0.107708 0.0034013 -0.0235257 0.00453507 -0.0232422 0.00566884 -0.0226753 0.00651916 -0.0221085 0.00793637 -0.021825 0.00850326 -0.0209747 0.00992046 -0.0204078 0.0107708 -0.0201244 0.0116211 -0.019274 0.0124714 -0.0187072 0.0133218 -0.0178568 0.0141721 -0.01729 0.0150224 -0.0164396 0.0158727 -0.0158727 0.0164396 -0.0150224 0.0170065 -0.0141721 0.0178568 -0.0133218 0.0187072 -0.0124714 0.0189906 -0.0116211 0.0195575 -0.0107708 0.0201244 -0.00992046 0.0206913 -0.0087867 0.0212581 -0.00793637 0.0215416 -0.0068026 0.021825 -0.00566884 0.0223919 -0.00481851 0.0226753 -0.00368474 0.0229588 -0.00255098 0.0232422 -0.00141721 0.0232422 -0.000283442 0.0238091 0.000850326 0.0238091 0.00226753 0.0238091 0.0034013 0.0232422 0.00453507 0.0226753 0.0053854 0.0223919 0.0068026 0.0215416 0.00765293 0.0212581 0.0087867 0.0206913 0.00992046 0.0198409 0.0104873 0.0195575 0.0116211 0.0187072 0.0124714 0.0178568 0.0133218 0.0175734 0.0141721 0.0164396 0.0150224 0.0158727 0.0158727 0.0150224 0.0164396 0.0141721 0.0170065 0.0136052 0.0178568 0.0124714 0.0184237 0.0116211 0.0189906 0.0107708 0.0195575 0.00992046 0.0201244 0.0087867 0.0204078 0.00793637 0.0209747 0.0068026 0.0215416 0.00595228 0.021825 0.00481851 0.0223919 0.00368474 0.0223919 0.00255098 0.0229588 0.00141721 0.0232422 0.000283442 0.0232422 -0.000850326 0.0235257 -0.00226753 0.0238091z"/>
   </g>
   <line class="fil0 str0" x1="15.2999" y1="9.57353" x2="96.1134" y2= "5.75444" />
   <line class="fil0 str0" x1="18.6085" y1="6.0203" x2="96.9484" y2= "0.562349" />
   <polyline class="fil0 str0" points="15.7052,9.82069 13.4578,9.82069 8.28529,17.405 6.64473,26.5089 5.61073,34.2749 2.72813,41.4656 1.30922,51.2386 0.463427,58.0072 "/>
   <path class="fil0 str0" d="M87.2683 84.0652c0.356003,-1.50904 9.68011,-83.5028 9.68011,-83.5028"/>
   <polyline class="fil0 str0" points="95.7064,11.4678 98.0371,11.1617 97.5284,15.6899 95.1832,16.0507 "/>
   <polyline class="fil0 str0" points="93.0803,37.1023 95.4111,36.7961 94.9023,41.3241 92.5571,41.6852 "/>
   <polyline class="fil0 str0" points="89.6099,64.8671 91.9406,64.561 91.4318,69.0892 89.0866,69.4501 "/>
   <polyline class="fil0 str0" points="88.5691,77.7084 90.8998,77.4023 90.391,81.9303 88.0455,82.2914 "/>
   <path class="fil0 str0" d="M18.6431 8.05995l2.33556 -0.151641m5.51181 -0.358554l2.01215 -0.130383m5.51181 -0.358554l2.74598 -0.178285m5.51209 -0.358554l2.92937 -0.190473m5.51181 -0.358554l7.33377 -0.477033m5.51181 -0.357987l3.48038 -0.225903m8.08149 -0.525785l3.85282 -0.250279m10.2773 -0.668356l7.42164 -0.502542"/>
   <line class="fil0 str0" x1="18.6082" y1="6.02087" x2="15.612" y2= "9.44825" />
   <path class="fil0 str1" d="M88.8905 84.0793c0.0277773,-0.117912 0.109975,-0.723627 0.237808,-1.74232m0.565183 -4.64958c0.277773,-2.32706 0.614502,-5.19237 0.993464,-8.43523m0.541941 -4.64958c0.805542,-6.93469 1.73835,-15.0253 2.66265,-23.0761m0.534004 -4.64986l2.40585 -21.0308m0.529469 -4.64986l1.06801 -10.088"/>
   <line class="fil0 str0" x1="96.8339" y1="0.463427" x2="98.5371" y2= "0.886323" />
   <line class="fil0 str0" x1="88.8905" y1="84.0791" x2="87.3942" y2= "84.1975" />
  </g>
 </g>
</svg>
