<?xml version="1.0" encoding="UTF-8"?>
<!DOCTYPE svg PUBLIC "-//W3C//DTD SVG 1.1//EN" "http://www.w3.org/Graphics/SVG/1.1/DTD/svg11.dtd">
<!-- Creator: CorelDRAW -->
<svg xmlns="http://www.w3.org/2000/svg" xml:space="preserve" width="109px" height="91px" style="shape-rendering:geometricPrecision; text-rendering:geometricPrecision; image-rendering:optimizeQuality; fill-rule:evenodd; clip-rule:evenodd"
viewBox="0 0 109 91.5568"
 xmlns:xlink="http://www.w3.org/1999/xlink">
 <defs>
  <style type="text/css">
   <![CDATA[
    .str0 {stroke:black;stroke-width:0.929163;stroke-linecap:round;stroke-linejoin:round}
    .str1 {stroke:black;stroke-width:0.929731;stroke-linecap:round;stroke-linejoin:round}
    .fil0 {fill:none}
    .fil1 {fill:black;fill-rule:nonzero}
   ]]>
  </style>
 </defs>
 <g id="Layer_x0020_1">
  <metadata id="CorelCorpID_0Corel-Layer"/>
  <g id="_469022832">
   <line id="_464100080" class="fil0 str0" x1="108.438" y1="22.6666" x2="97.9006" y2= "29.4922" />
   <line id="_464099984" class="fil0 str0" x1="108.535" y1="62.1479" x2="97.812" y2= "73.0105" />
   <g>
    <path id="_464099888" class="fil1" d="M107.974 22.6666l0.000568469 -0.0238757 0.00198964 -0.0235915 0.00312658 -0.0233072 0.00397928 -0.0227388 0.00540046 -0.0224545 0.00625316 -0.0221703 0.0073901 -0.0213176 0.00852704 -0.0210334 0.00937974 -0.0207491 0.0102324 -0.0198964 0.0113694 -0.019328 0.0122221 -0.0190437 0.0130748 -0.018191 0.0136433 -0.0173383 0.0147802 -0.0167698 0.0153487 -0.0162014 0.0162014 -0.0153487 0.0170541 -0.014496 0.0176225 -0.0136433 0.018191 -0.0130748 0.0190437 -0.0119379 0.019328 -0.0110852 0.0201807 -0.0102324 0.0204649 -0.00937974 0.0213176 -0.0082428 0.0216018 -0.00710587 0.0221703 -0.00625316 0.0224545 -0.00511622 0.0227388 -0.00397928 0.0233072 -0.00284235 0.0235915 -0.00170541 0.0238757 -0.000568469 0.0238757 0.000568469 0.0235915 0.00198964 0.0233072 0.00312658 0.0227388 0.00397928 0.0224545 0.00540046 0.0221703 0.00625316 0.0213176 0.0073901 0.0210334 0.00852704 0.0207491 0.00937974 0.0198964 0.0102324 0.019328 0.0113694 0.0190437 0.0122221 0.018191 0.0130748 0.0173383 0.0136433 0.0167698 0.0147802 0.0162014 0.0153487 0.0153487 0.0162014 0.014496 0.0170541 0.0136433 0.0176225 0.0130748 0.018191 0.0119379 0.0190437 0.0110852 0.019328 0.0102324 0.0201807 0.00937974 0.0204649 0.0082428 0.0213176 0.00710587 0.0216018 0.00625316 0.0221703 0.00511622 0.0224545 0.00397928 0.0227388 0.00284235 0.0233072 0.00170541 0.0235915 0.000568469 0.0238757 -0.929447 -0.00341082zm0.795573 39.7184l-0.929447 -0.00341082 0.133875 -39.715 0.929447 0.00341082 -0.133875 39.715zm0 0l-0.000568469 0.0238757 -0.00198964 0.0235915 -0.00312658 0.0233072 -0.00397928 0.0227388 -0.00540046 0.0224545 -0.00625316 0.0221703 -0.0073901 0.0213176 -0.00852704 0.0210334 -0.00937974 0.0207491 -0.0102324 0.0198964 -0.0113694 0.019328 -0.0122221 0.0190437 -0.0130748 0.018191 -0.0136433 0.0173383 -0.0147802 0.0167698 -0.0153487 0.0162014 -0.0162014 0.0153487 -0.0170541 0.014496 -0.0176225 0.0136433 -0.018191 0.0130748 -0.0190437 0.0119379 -0.019328 0.0110852 -0.0201807 0.0102324 -0.0204649 0.00937974 -0.0213176 0.0082428 -0.0216018 0.00710587 -0.0221703 0.00625316 -0.0224545 0.00511622 -0.0227388 0.00397928 -0.0233072 0.00284235 -0.0235915 0.00170541 -0.0238757 0.000568469 -0.0238757 -0.000568469 -0.0235915 -0.00198964 -0.0233072 -0.00312658 -0.0227388 -0.00397928 -0.0224545 -0.00540046 -0.0221703 -0.00625316 -0.0213176 -0.0073901 -0.0210334 -0.00852704 -0.0207491 -0.00937974 -0.0198964 -0.0102324 -0.019328 -0.0113694 -0.0190437 -0.0122221 -0.018191 -0.0130748 -0.0173383 -0.0136433 -0.0167698 -0.0147802 -0.0162014 -0.0153487 -0.0153487 -0.0162014 -0.014496 -0.0170541 -0.0136433 -0.0176225 -0.0130748 -0.018191 -0.0119379 -0.0190437 -0.0110852 -0.019328 -0.0102324 -0.0201807 -0.00937974 -0.0204649 -0.0082428 -0.0213176 -0.00710587 -0.0216018 -0.00625316 -0.0221703 -0.00511622 -0.0224545 -0.00397928 -0.0227388 -0.00284235 -0.0233072 -0.00170541 -0.0235915 -0.000568469 -0.0238757 0.929447 0.00341082z"/>
   </g>
   <g>
    <path class="fil1" d="M97.445 29.5377l0.000568469 -0.0238757 0.00198964 -0.0238757 0.00312658 -0.023023 0.00397928 -0.023023 0.00540046 -0.0224545 0.00625316 -0.0221703 0.0073901 -0.0216018 0.00852704 -0.0210334 0.00937974 -0.0207491 0.0102324 -0.0198964 0.0113694 -0.0196122 0.0122221 -0.0187595 0.0130748 -0.018191 0.0136433 -0.0176225 0.0147802 -0.0167698 0.0153487 -0.0162014 0.0162014 -0.0153487 0.0170541 -0.014496 0.0176225 -0.0139275 0.018191 -0.0127906 0.0190437 -0.0122221 0.019328 -0.0110852 0.0201807 -0.0102324 0.0204649 -0.00909551 0.0213176 -0.0082428 0.0216018 -0.0073901 0.0221703 -0.00625316 0.0224545 -0.00511622 0.0227388 -0.00397928 0.0233072 -0.00284235 0.0235915 -0.00170541 0.0238757 -0.000568469 0.0238757 0.000568469 0.0235915 0.00198964 0.0233072 0.00312658 0.0227388 0.00397928 0.0224545 0.00540046 0.0221703 0.00625316 0.0213176 0.0073901 0.0210334 0.00852704 0.0207491 0.00937974 0.0198964 0.0105167 0.019328 0.0110852 0.0190437 0.0122221 0.018191 0.0130748 0.0173383 0.0139275 0.0167698 0.0147802 0.0162014 0.0153487 0.0153487 0.0162014 0.014496 0.0170541 0.0136433 0.0176225 0.0130748 0.0184753 0.0119379 0.0187595 0.0110852 0.0196122 0.0102324 0.0201807 0.00937974 0.0207491 0.0082428 0.0210334 0.00710587 0.0216018 0.00625316 0.0221703 0.00511622 0.0227388 0.00397928 0.0227388 0.00284235 0.0233072 0.00170541 0.0238757 0.000568469 0.0238757 -0.929447 -0.00341082zm0.764875 43.5192l-0.929447 -0.00341082 0.164572 -43.5158 0.929447 0.00341082 -0.164572 43.5158zm0 0l-0.000568469 0.0238757 -0.00198964 0.0238757 -0.00312658 0.023023 -0.00397928 0.023023 -0.00540046 0.0224545 -0.00625316 0.0221703 -0.0073901 0.0216018 -0.00852704 0.0210334 -0.00937974 0.0207491 -0.0102324 0.0198964 -0.0113694 0.0196122 -0.0122221 0.0187595 -0.0130748 0.018191 -0.0136433 0.0176225 -0.0147802 0.0167698 -0.0153487 0.0162014 -0.0162014 0.0153487 -0.0170541 0.014496 -0.0176225 0.0139275 -0.018191 0.0127906 -0.0190437 0.0122221 -0.019328 0.0110852 -0.0201807 0.0102324 -0.0204649 0.00909551 -0.0213176 0.0082428 -0.0216018 0.0073901 -0.0221703 0.00625316 -0.0224545 0.00511622 -0.0227388 0.00397928 -0.0233072 0.00284235 -0.0235915 0.00170541 -0.0238757 0.000568469 -0.0238757 -0.000568469 -0.0235915 -0.00198964 -0.0233072 -0.00312658 -0.0227388 -0.00397928 -0.0224545 -0.00540046 -0.0221703 -0.00625316 -0.0213176 -0.0073901 -0.0210334 -0.00852704 -0.0207491 -0.00937974 -0.0198964 -0.0105167 -0.019328 -0.0110852 -0.0190437 -0.0122221 -0.018191 -0.0130748 -0.0173383 -0.0139275 -0.0167698 -0.0147802 -0.0162014 -0.0153487 -0.0153487 -0.0162014 -0.014496 -0.0170541 -0.0136433 -0.0176225 -0.0130748 -0.0184753 -0.0119379 -0.0187595 -0.0110852 -0.0196122 -0.0102324 -0.0201807 -0.00937974 -0.0207491 -0.0082428 -0.0210334 -0.00710587 -0.0216018 -0.00625316 -0.0221703 -0.00511622 -0.0227388 -0.00397928 -0.0227388 -0.00284235 -0.0233072 -0.00170541 -0.0238757 -0.000568469 -0.0238757 0.929447 0.00341082z"/>
   </g>
   <line class="fil0 str0" x1="97.9006" y1="29.4922" x2="45.5412" y2= "24.8563" />
   <line class="fil0 str0" x1="108.439" y1="22.6674" x2="45.5824" y2= "18.5619" />
   <line class="fil0 str0" x1="97.6306" y1="72.9855" x2="90.7885" y2= "72.1697" />
   <g>
    <path class="fil1" d="M103.177 33.6159l0 0 0 0 0 0 0.38258 0.264622 -0.38258 -0.264622zm-3.50916 13.9107l0 0 0.00397928 -0.499684 0.0119379 -0.504232 0.0196122 -0.508212 0.0275708 -0.511338 0.0343924 -0.51418 0.0417825 -0.515317 0.0486041 -0.515602 0.0551415 -0.515886 0.0619631 -0.514749 0.0682163 -0.512759 0.0741852 -0.509633 0.0807226 -0.506222 0.0858389 -0.50139 0.0918078 -0.496274 0.096924 -0.489736 0.102324 -0.482915 0.107441 -0.474672 0.111988 -0.465861 0.11682 -0.456197 0.121368 -0.44568 0.125632 -0.434595 0.129895 -0.421804 0.133875 -0.409298 0.137854 -0.39537 0.141549 -0.38059 0.145528 -0.365241 0.148655 -0.34904 0.152634 -0.33227 0.156329 -0.314932 0.160024 -0.296172 0.164003 -0.277413 0.167983 -0.258085 0.76516 0.529245 -0.144107 0.220566 -0.144107 0.244442 -0.144107 0.266612 -0.142686 0.287645 -0.141265 0.307826 -0.139559 0.32687 -0.137001 0.344777 -0.134727 0.361831 -0.131601 0.377748 -0.128758 0.392812 -0.124779 0.406456 -0.121652 0.419815 -0.117389 0.431468 -0.11341 0.443122 -0.109146 0.452786 -0.104598 0.462166 -0.0994821 0.470408 -0.0946501 0.478367 -0.0895339 0.484336 -0.0841334 0.49002 -0.0784488 0.494284 -0.0724798 0.498263 -0.0670794 0.500821 -0.0602577 0.502811 -0.0540046 0.503948 -0.0474672 0.503664 -0.0406456 0.502811 -0.0338239 0.501106 -0.0264338 0.498263 -0.0190437 0.494568 -0.0119379 0.49002 -0.00397928 0.484336 0 0 -0.929447 0.00113694zm0.929447 8.18454l-0.929447 0.00113694 0 -8.18567 0.929447 -0.00113694 0 8.18567zm2.96229 5.32059l0 0 -0.171109 0.235062 -0.173383 0.210902 -0.17651 0.185889 -0.180773 0.161445 -0.187311 0.137001 -0.195553 0.109999 -0.205502 0.0812911 -0.214881 0.0471829 -0.219145 0.00852704 -0.216303 -0.03155 -0.205786 -0.070206 -0.189869 -0.103746 -0.171393 -0.131032 -0.154908 -0.154055 -0.140128 -0.17452 -0.12819 -0.193848 -0.117389 -0.212608 -0.108009 -0.231367 -0.0997664 -0.249842 -0.092092 -0.268602 -0.0849862 -0.28793 -0.0775961 -0.306405 -0.0707744 -0.325449 -0.0636686 -0.344492 -0.0565627 -0.362968 -0.0494568 -0.381443 -0.042351 -0.399918 -0.0349609 -0.418109 -0.0275708 -0.436016 -0.0196122 -0.453354 -0.0122221 -0.470977 -0.00397928 -0.488315 0.929447 -0.00113694 0.00397928 0.472398 0.0116536 0.454491 0.0190437 0.4363 0.0264338 0.417256 0.0332555 0.398213 0.0400771 0.378885 0.0466145 0.358704 0.0525834 0.338523 0.0585523 0.316637 0.0645213 0.295888 0.069069 0.274002 0.0741852 0.250979 0.0778803 0.227672 0.0815753 0.203796 0.083565 0.179068 0.0844177 0.152918 0.0838492 0.127337 0.0810069 0.101188 0.0753222 0.0750379 0.0673636 0.0520149 0.0574154 0.03155 0.0488884 0.0167698 0.0463302 0.00710587 0.0503095 -0.00227388 0.0613947 -0.0136433 0.0770276 -0.0306973 0.0926605 -0.0525834 0.106588 -0.0778803 0.118242 -0.105735 0.127621 -0.134727 0.134727 -0.163719 0.14098 -0.194132 0 0 0.76516 0.529245zm-0.38258 -0.264622l0 0 0 0 0 0 -0.38258 -0.264622 0.38258 0.264622zm3.50944 -13.9107l0 0 -0.00397928 0.499684 -0.0119379 0.504232 -0.0196122 0.508212 -0.0275708 0.511338 -0.0343924 0.51418 -0.0417825 0.515317 -0.0486041 0.515602 -0.0551415 0.515886 -0.0619631 0.514749 -0.0682163 0.512759 -0.0741852 0.509633 -0.0807226 0.506222 -0.0858389 0.50139 -0.0918078 0.496274 -0.096924 0.489736 -0.102324 0.482915 -0.107441 0.474672 -0.111988 0.465861 -0.11682 0.456197 -0.121368 0.44568 -0.125916 0.434595 -0.129895 0.421804 -0.13359 0.409298 -0.138138 0.39537 -0.141265 0.38059 -0.145812 0.365526 -0.148655 0.348756 -0.152634 0.33227 -0.156329 0.314932 -0.160024 0.296172 -0.164003 0.277413 -0.167983 0.258085 -0.76516 -0.529245 0.144107 -0.220566 0.144107 -0.244442 0.144107 -0.266612 0.142686 -0.287645 0.141265 -0.307826 0.139559 -0.327154 0.137285 -0.344492 0.134443 -0.361831 0.131885 -0.377748 0.128474 -0.392812 0.125347 -0.406456 0.121368 -0.419815 0.117389 -0.431468 0.11341 -0.443122 0.109146 -0.452786 0.104598 -0.462166 0.0994821 -0.470408 0.0946501 -0.478367 0.0895339 -0.484336 0.0841334 -0.49002 0.0784488 -0.494284 0.0724798 -0.498263 0.0670794 -0.500821 0.0602577 -0.502811 0.0540046 -0.503948 0.0474672 -0.503664 0.0406456 -0.502811 0.0338239 -0.501106 0.0264338 -0.498263 0.0190437 -0.494568 0.0119379 -0.49002 0.00397928 -0.484336 0 0 0.929447 -0.00113694zm-0.929447 -8.18454l0.929447 -0.00113694 0 8.18567 -0.929447 0.00113694 0 -8.18567zm-2.96258 -5.32059l0 0 0.171109 -0.235062 0.173383 -0.210902 0.17651 -0.185889 0.180773 -0.161445 0.187311 -0.137001 0.195838 -0.110283 0.205502 -0.0810069 0.214597 -0.0471829 0.219429 -0.00852704 0.216018 0.03155 0.205786 0.070206 0.190153 0.103746 0.171393 0.131032 0.154908 0.154055 0.140128 0.17452 0.12819 0.193848 0.117389 0.212608 0.108009 0.231367 0.0997664 0.249842 0.092092 0.268602 0.0849862 0.28793 0.0775961 0.306405 0.0707744 0.325449 0.0636686 0.344492 0.0565627 0.362968 0.0494568 0.381443 0.042351 0.399918 0.0349609 0.418109 0.0275708 0.436016 0.0196122 0.453354 0.0122221 0.470977 0.00397928 0.488315 -0.929447 0.00113694 -0.00397928 -0.472398 -0.0116536 -0.454491 -0.0190437 -0.4363 -0.0264338 -0.417256 -0.0332555 -0.398213 -0.0400771 -0.378885 -0.0466145 -0.358704 -0.0525834 -0.338523 -0.0585523 -0.316637 -0.0645213 -0.295888 -0.069069 -0.274002 -0.0741852 -0.250979 -0.0778803 -0.227672 -0.0815753 -0.203796 -0.083565 -0.179068 -0.0844177 -0.152918 -0.0838492 -0.127337 -0.0810069 -0.101188 -0.0753222 -0.0750379 -0.0673636 -0.0520149 -0.0571312 -0.03155 -0.0494568 -0.0167698 -0.046046 -0.00710587 -0.0505938 0.00227388 -0.0611104 0.0136433 -0.0775961 0.0309816 -0.0923763 0.0522992 -0.106588 0.0778803 -0.118242 0.105735 -0.127621 0.134727 -0.134727 0.163719 -0.14098 0.194132 0 0 -0.76516 -0.529245z"/>
   </g>
   <line class="fil0 str0" x1="106.187" y1="37.2913" x2="100.488" y2= "42.5741" />
   <line class="fil0 str0" x1="106.201" y1="43.6539" x2="100.133" y2= "49.4665" />
   <line class="fil0 str0" x1="106.064" y1="50.0975" x2="100.068" y2= "56.4356" />
   <g>
    <path class="fil1" d="M22.3275 2.64736l0 0 0.0301289 -0.23222 0.0829965 -0.210618 0.119947 -0.181342 0.145812 -0.157182 0.167414 -0.139275 0.187026 -0.1262 0.207207 -0.117389 0.227103 -0.110567 0.247853 -0.105167 0.268602 -0.100051 0.288498 -0.0963555 0.308395 -0.092092 0.328575 -0.0886812 0.347903 -0.0849862 0.366947 -0.0810069 0.384854 -0.0773118 0.40276 -0.0736168 0.419815 -0.0696375 0.4363 -0.0656582 0.451933 -0.0616789 0.467566 -0.0574154 0.481778 -0.0531519 0.495989 -0.0488884 0.509064 -0.0440564 0.521286 -0.0392244 0.533224 -0.0346766 0.544594 -0.0295604 0.554826 -0.0247284 0.565058 -0.019328 0.57387 -0.0139275 0.581828 -0.00852704 0.589787 -0.00284235 0 0.9357 -0.580691 0.00284235 -0.573301 0.00852704 -0.564774 0.013359 -0.555394 0.019328 -0.54573 0.0241599 -0.53493 0.0289919 -0.52356 0.0341082 -0.511622 0.0386559 -0.498832 0.0429194 -0.48462 0.0477514 -0.470977 0.0520149 -0.455628 0.05571 -0.439427 0.0599735 -0.423225 0.0639528 -0.405603 0.0673636 -0.387412 0.0707744 -0.368368 0.073901 -0.348187 0.0770276 -0.327438 0.0798699 -0.305836 0.082428 -0.282813 0.0847019 -0.259506 0.0861231 -0.233925 0.0875443 -0.207491 0.0881127 -0.180489 0.08726 -0.15036 0.0849862 -0.119379 0.0807226 -0.0866916 0.0716271 -0.0542888 0.0576996 -0.0244442 0.036382 -0.00511622 0.0110852 0.000568469 -0.0082428 0 0 -0.929447 0zm11.8389 2.64793l0 0 -0.589787 -0.00284235 -0.581828 -0.00852704 -0.57387 -0.0139275 -0.565058 -0.019328 -0.554826 -0.0247284 -0.544594 -0.0295604 -0.533224 -0.0346766 -0.521286 -0.0392244 -0.509064 -0.0443406 -0.495705 -0.0486041 -0.482062 -0.0531519 -0.467566 -0.0574154 -0.451933 -0.0616789 -0.4363 -0.0656582 -0.419815 -0.0696375 -0.40276 -0.0736168 -0.385138 -0.0775961 -0.366663 -0.0810069 -0.347903 -0.0849862 -0.328575 -0.0886812 -0.308395 -0.092092 -0.288782 -0.0963555 -0.268317 -0.100335 -0.247853 -0.104883 -0.227388 -0.110852 -0.206923 -0.117389 -0.187026 -0.1262 -0.16713 -0.138991 -0.146097 -0.157182 -0.119947 -0.181626 -0.0829965 -0.210334 -0.0301289 -0.232504 0.929447 0 -0.000568469 -0.00795857 0.00511622 0.0108009 0.0244442 0.0366663 0.0540046 0.0571312 0.0869758 0.0719114 0.119379 0.0807226 0.150644 0.0849862 0.180205 0.0875443 0.207491 0.0878285 0.234209 0.0878285 0.259222 0.0861231 0.282813 0.0847019 0.305836 0.082428 0.327438 0.0798699 0.348472 0.0770276 0.368084 0.0741852 0.387412 0.0707744 0.405603 0.0673636 0.423225 0.0639528 0.439427 0.0599735 0.455628 0.05571 0.470693 0.0520149 0.484904 0.0474672 0.498832 0.0432037 0.511622 0.0386559 0.52356 0.0341082 0.53493 0.0289919 0.54573 0.0241599 0.555394 0.019328 0.564774 0.013359 0.573301 0.00852704 0.580691 0.00284235 0 0 0 0.9357zm11.8398 -2.64793l0 0 -0.0301289 0.232504 -0.0829965 0.210334 -0.119947 0.181626 -0.146097 0.157182 -0.16713 0.138991 -0.187026 0.1262 -0.206923 0.117389 -0.227388 0.110852 -0.247853 0.104883 -0.268317 0.100335 -0.288782 0.0963555 -0.308679 0.092092 -0.328575 0.0886812 -0.347903 0.0849862 -0.366663 0.0810069 -0.385138 0.0775961 -0.40276 0.0736168 -0.419815 0.0696375 -0.4363 0.0656582 -0.452217 0.0616789 -0.467282 0.0574154 -0.482062 0.0531519 -0.495989 0.0486041 -0.509064 0.0443406 -0.521286 0.0392244 -0.533224 0.0346766 -0.544878 0.0295604 -0.554826 0.0247284 -0.564774 0.019328 -0.57387 0.0139275 -0.582113 0.00852704 -0.589787 0.00284235 0 -0.9357 0.580691 -0.00284235 0.573585 -0.00852704 0.564774 -0.013359 0.55511 -0.019328 0.54573 -0.0241599 0.535214 -0.0289919 0.52356 -0.0341082 0.511622 -0.0386559 0.498832 -0.0432037 0.485189 -0.0474672 0.470693 -0.0520149 0.455344 -0.05571 0.439711 -0.0599735 0.423225 -0.0639528 0.405603 -0.0673636 0.387412 -0.0707744 0.368084 -0.0741852 0.348472 -0.0770276 0.327438 -0.0798699 0.305836 -0.082428 0.283098 -0.0847019 0.259222 -0.0861231 0.234209 -0.0878285 0.207491 -0.0878285 0.180205 -0.0875443 0.150644 -0.0849862 0.119379 -0.0807226 0.0869758 -0.0719114 0.0540046 -0.0571312 0.0244442 -0.0366663 0.00511622 -0.0108009 -0.000568469 0.00795857 0 0 0.929447 0zm-11.8398 -2.64736l0 0 0.589787 0.00284235 0.582113 0.00852704 0.57387 0.0139275 0.564774 0.019328 0.554826 0.0247284 0.544878 0.0295604 0.533224 0.0346766 0.521286 0.0392244 0.509064 0.0440564 0.496274 0.0488884 0.481778 0.0531519 0.467282 0.0574154 0.452217 0.0616789 0.4363 0.0656582 0.419815 0.0696375 0.40276 0.0736168 0.384854 0.0773118 0.366947 0.0810069 0.347903 0.0849862 0.328575 0.0886812 0.308679 0.092092 0.288498 0.0963555 0.268602 0.100051 0.247853 0.105167 0.227103 0.110567 0.207207 0.117389 0.187026 0.1262 0.167414 0.139275 0.145812 0.157182 0.119947 0.181342 0.0829965 0.210618 0.0301289 0.23222 -0.929447 0 0.000568469 0.0082428 -0.00511622 -0.0110852 -0.0244442 -0.036382 -0.0542888 -0.0576996 -0.0866916 -0.0716271 -0.119379 -0.0807226 -0.15036 -0.0849862 -0.180489 -0.08726 -0.207491 -0.0881127 -0.233925 -0.0875443 -0.259506 -0.0861231 -0.283098 -0.0847019 -0.305836 -0.082428 -0.327438 -0.0798699 -0.348187 -0.0770276 -0.368368 -0.073901 -0.387412 -0.0707744 -0.405603 -0.0673636 -0.423225 -0.0639528 -0.439711 -0.0599735 -0.455344 -0.05571 -0.470977 -0.0520149 -0.484904 -0.0477514 -0.498832 -0.0429194 -0.511622 -0.0386559 -0.52356 -0.0341082 -0.535214 -0.0289919 -0.54573 -0.0241599 -0.55511 -0.019328 -0.564774 -0.013359 -0.573585 -0.00852704 -0.580691 -0.00284235 0 0 0 -0.9357z"/>
   </g>
   <g>
    <path class="fil1" d="M24.059 2.37535l-0.0213176 -0.0108009 -0.0204649 -0.0116536 -0.0198964 -0.0127906 -0.0190437 -0.013359 -0.0179068 -0.0142117 -0.0173383 -0.0150644 -0.0164856 -0.0159171 -0.0153487 -0.0164856 -0.0147802 -0.0173383 -0.0136433 -0.0179068 -0.0127906 -0.0184753 -0.0119379 -0.0190437 -0.0108009 -0.019328 -0.00994821 -0.0201807 -0.00909551 -0.0201807 -0.00795857 -0.0210334 -0.00682163 -0.0210334 -0.00596893 -0.0216018 -0.00511622 -0.0216018 -0.00397928 -0.0221703 -0.00284235 -0.0221703 -0.00170541 -0.0224545 -0.000568469 -0.0224545 0.000284235 -0.0224545 0.00142117 -0.0227388 0.00284235 -0.0227388 0.00369505 -0.0224545 0.00483199 -0.0224545 0.00625316 -0.0224545 0.00710587 -0.0221703 0.00852704 -0.0221703 0.00966398 -0.0218861 0.0108009 -0.0213176 0.0116536 -0.0204649 0.0127906 -0.0198964 0.013359 -0.0187595 0.0142117 -0.018191 0.0150644 -0.0170541 0.0159171 -0.0164856 0.0164856 -0.0156329 0.0173383 -0.014496 0.0179068 -0.0136433 0.0184753 -0.0127906 0.0190437 -0.0119379 0.019328 -0.0108009 0.0201807 -0.00994821 0.0201807 -0.00909551 0.0210334 -0.00795857 0.0210334 -0.00682163 0.0216018 -0.00625316 0.0218861 -0.00483199 0.0218861 -0.00397928 0.0221703 -0.00284235 0.0224545 -0.00170541 0.0224545 -0.000568469 0.0227388 0.000284235 0.0224545 0.00142117 0.0227388 0.00284235 0.0227388 0.00369505 0.0224545 0.00483199 0.0224545 0.00625316 0.0221703 0.00710587 0.0221703 0.00852704 0.0218861 0.00966398 -0.397928 0.839629zm9.78876 0.801257l0 0 -0.4363 -0.000852704 -0.431752 -0.00284235 -0.427489 -0.00454775 -0.422088 -0.00625316 -0.416688 -0.00795857 -0.410435 -0.00966398 -0.404466 -0.0113694 -0.39736 -0.0130748 -0.390254 -0.014496 -0.38258 -0.0162014 -0.374053 -0.0179068 -0.365526 -0.0187595 -0.356999 -0.0207491 -0.347619 -0.0218861 -0.337102 -0.0235915 -0.327154 -0.0247284 -0.316353 -0.0261496 -0.305268 -0.0272865 -0.293614 -0.0284235 -0.282245 -0.0301289 -0.269454 -0.0309816 -0.256664 -0.0324027 -0.244158 -0.0332555 -0.231083 -0.0349609 -0.217155 -0.0360978 -0.203228 -0.0372347 -0.1893 -0.0389401 -0.176225 -0.0403613 -0.162014 -0.042351 -0.149223 -0.0446248 -0.13757 -0.0488884 -0.127337 -0.0542888 0.397928 -0.839629 0.0648055 0.0275708 0.0892497 0.0312658 0.112841 0.0338239 0.132453 0.0349609 0.151213 0.0346766 0.169972 0.0343924 0.186742 0.0343924 0.202375 0.0338239 0.218008 0.032687 0.23222 0.0321185 0.247568 0.0306973 0.260359 0.0304131 0.273718 0.0289919 0.286224 0.027855 0.298446 0.0267181 0.3101 0.0255811 0.320901 0.0241599 0.331986 0.023023 0.341934 0.0218861 0.351314 0.0201807 0.360978 0.0187595 0.369505 0.0173383 0.378032 0.0162014 0.385706 0.014496 0.393381 0.0125063 0.399918 0.0113694 0.406456 0.00966398 0.412709 0.00795857 0.418109 0.00625316 0.42351 0.00454775 0.427773 0.00284235 0.432321 0.000852704 0 0 0 0.928879zm9.98488 -0.917509l-0.124495 0.0795857 -0.128758 0.0625316 -0.138138 0.0537203 -0.150076 0.0486041 -0.163719 0.0451933 -0.178784 0.0432037 -0.193564 0.041214 -0.209197 0.0395086 -0.223977 0.0378032 -0.239326 0.0369505 -0.254106 0.0355293 -0.268602 0.0341082 -0.282529 0.0324027 -0.296172 0.03155 -0.309247 0.0298446 -0.322322 0.0287077 -0.334544 0.0270023 -0.345914 0.0258654 -0.357567 0.0241599 -0.368652 0.023023 -0.379169 0.0207491 -0.388549 0.019328 -0.398497 0.018191 -0.407592 0.0159171 -0.415835 0.014496 -0.42351 0.0125063 -0.431184 0.0108009 -0.438006 0.00881127 -0.444827 0.00710587 -0.45108 0.00511622 -0.455912 0.00284235 -0.461029 0.00113694 0 -0.928879 0.457049 -0.00113694 0.451933 -0.00284235 0.446533 -0.00511622 0.440279 -0.00710587 0.434026 -0.00881127 0.426636 -0.0108009 0.41953 -0.0125063 0.411288 -0.0139275 0.402476 -0.0159171 0.393381 -0.0176225 0.384001 -0.019328 0.373484 -0.0207491 0.362968 -0.0224545 0.351882 -0.0235915 0.340229 -0.0252969 0.327723 -0.0264338 0.314932 -0.0281392 0.301289 -0.0292762 0.287645 -0.0304131 0.273434 -0.0318343 0.257232 -0.0324027 0.242168 -0.0338239 0.225682 -0.0346766 0.208628 -0.0355293 0.190437 -0.0360978 0.171393 -0.0360978 0.150929 -0.036382 0.130179 -0.0360978 0.106304 -0.0343924 0.0795857 -0.0309816 0.0503095 -0.0238757 0.0136433 -0.00795857 0.557668 0.742989zm-0.557668 -0.742989l0.0196122 -0.0139275 0.0198964 -0.0125063 0.0201807 -0.0116536 0.0207491 -0.0105167 0.0213176 -0.00937974 0.0213176 -0.0082428 0.0216018 -0.00710587 0.0218861 -0.00596893 0.0221703 -0.00483199 0.0221703 -0.00369505 0.0221703 -0.00284235 0.0224545 -0.00170541 0.0224545 -0.000568469 0.0221703 0.000568469 0.0221703 0.00170541 0.0221703 0.00255811 0.0221703 0.00369505 0.0218861 0.00454775 0.0213176 0.00568469 0.0213176 0.00682163 0.0210334 0.00795857 0.0207491 0.00881127 0.0201807 0.00994821 0.0198964 0.0108009 0.019328 0.0119379 0.0187595 0.0127906 0.018191 0.0139275 0.0176225 0.0147802 0.0170541 0.0156329 0.0162014 0.0170541 0.0156329 0.0176225 0.0147802 0.0187595 0.0139275 0.019328 0.0125063 0.0201807 0.0116536 0.0201807 0.0105167 0.0207491 0.00937974 0.0210334 0.0082428 0.0216018 0.00710587 0.0216018 0.00596893 0.0218861 0.00483199 0.0218861 0.00369505 0.0221703 0.00284235 0.0224545 0.00170541 0.0221703 0.000568469 0.0224545 -0.000568469 0.0221703 -0.00170541 0.0224545 -0.00255811 0.0218861 -0.00369505 0.0221703 -0.00454775 0.0218861 -0.00596893 0.0213176 -0.00682163 0.0213176 -0.00767433 0.0210334 -0.00881127 0.0207491 -0.00994821 0.0201807 -0.0108009 0.0198964 -0.0119379 0.019328 -0.0127906 0.0187595 -0.0139275 0.018191 -0.0147802 0.0176225 -0.0159171 0.0170541 -0.0167698 0.0162014 -0.0179068 0.0156329 -0.0187595 0.0147802 -0.557668 -0.742989z"/>
   </g>
   <line class="fil0 str0" x1="45.5412" y1="2.44044" x2="45.5412" y2= "46.6392" />
   <line class="fil0 str0" x1="22.9241" y1="2.44044" x2="22.9241" y2= "44.7849" />
   <g>
    <path class="fil1" d="M22.5048 19.0673l-0.014496 -0.019328 -0.0130748 -0.0198964 -0.0122221 -0.0201807 -0.0110852 -0.0207491 -0.00994821 -0.0210334 -0.00852704 -0.0213176 -0.00795857 -0.0218861 -0.0065374 -0.0218861 -0.00540046 -0.0221703 -0.00454775 -0.0221703 -0.00312658 -0.0224545 -0.00227388 -0.0227388 -0.00113694 -0.0224545 -0.000284235 -0.0227388 0.00113694 -0.0224545 0.00198964 -0.0224545 0.00312658 -0.0224545 0.00397928 -0.0221703 0.00511622 -0.0218861 0.00625316 -0.0216018 0.0073901 -0.0216018 0.0082428 -0.0210334 0.00937974 -0.0207491 0.0102324 -0.0201807 0.0113694 -0.0198964 0.0122221 -0.019328 0.013359 -0.0190437 0.014496 -0.018191 0.0153487 -0.0176225 0.0164856 -0.0167698 0.0173383 -0.0162014 0.018191 -0.0156329 0.0190437 -0.014496 0.0196122 -0.013359 0.0198964 -0.0122221 0.0204649 -0.0113694 0.0210334 -0.00994821 0.0210334 -0.00881127 0.0213176 -0.00795857 0.0218861 -0.0065374 0.0218861 -0.00568469 0.0218861 -0.00426352 0.0221703 -0.00341082 0.0224545 -0.00227388 0.0221703 -0.00113694 0.0224545 -0.000284235 0.0221703 0.00113694 0.0221703 0.00198964 0.0221703 0.00312658 0.0218861 0.00397928 0.0218861 0.00540046 0.0213176 0.00625316 0.0213176 0.0073901 0.0207491 0.0082428 0.0204649 0.00937974 0.0201807 0.0105167 0.0196122 0.0113694 0.0190437 0.0125063 0.0187595 0.0136433 0.0179068 0.014496 0.0176225 0.0156329 0.0167698 0.0164856 0.0159171 0.0176225 0.0153487 0.0184753 -0.727641 0.584386zm11.6513 2.5692l0 0 -0.516454 -0.00284235 -0.511054 -0.00881127 -0.505938 -0.0142117 -0.499969 -0.0201807 -0.493431 -0.0252969 -0.486325 -0.0309816 -0.478651 -0.0360978 -0.470977 -0.0414983 -0.46245 -0.0463302 -0.453354 -0.0511622 -0.444259 -0.0559942 -0.433742 -0.0611104 -0.42351 -0.0650897 -0.412709 -0.0704902 -0.400487 -0.0744695 -0.389401 -0.0790172 -0.376611 -0.0832807 -0.363536 -0.08726 -0.35103 -0.0918078 -0.336818 -0.0960713 -0.322606 -0.0997664 -0.30811 -0.104314 -0.29333 -0.108293 -0.277981 -0.112841 -0.262064 -0.116536 -0.247284 -0.121937 -0.230514 -0.126769 -0.213744 -0.132169 -0.197827 -0.138706 -0.180489 -0.146097 -0.162866 -0.154908 -0.143823 -0.164856 0.727641 -0.584386 0.0818596 0.0937974 0.104883 0.0991979 0.127053 0.102893 0.149507 0.104598 0.171678 0.10602 0.191858 0.105735 0.212039 0.104314 0.231935 0.103461 0.250126 0.101472 0.267749 0.0986294 0.284803 0.0963555 0.301573 0.0935132 0.316922 0.0903866 0.33227 0.0866916 0.346482 0.0832807 0.360694 0.0798699 0.374053 0.0756064 0.386843 0.0721956 0.398497 0.0676478 0.410435 0.0633843 0.421236 0.059405 0.431752 0.0542888 0.441416 0.0500253 0.45108 0.0451933 0.459607 0.0403613 0.46785 0.0349609 0.475525 0.0304131 0.48263 0.0247284 0.489168 0.0196122 0.495705 0.0142117 0.500821 0.00881127 0.505653 0.00284235 0 0 0 0.93968zm11.8406 -2.86423l-0.113978 0.194132 -0.138138 0.179068 -0.160024 0.16713 -0.180205 0.156898 -0.199248 0.148086 -0.217439 0.14098 -0.235915 0.134443 -0.253537 0.128758 -0.271444 0.123926 -0.288498 0.11881 -0.305552 0.113978 -0.321754 0.109715 -0.338239 0.105167 -0.354156 0.100619 -0.368937 0.0960713 -0.384001 0.0915235 -0.397928 0.0866916 -0.41214 0.0821438 -0.424931 0.0773118 -0.437721 0.0721956 -0.449659 0.0670794 -0.461597 0.0622474 -0.472398 0.0562785 -0.48263 0.0514465 -0.492863 0.0454775 -0.501674 0.0403613 -0.511054 0.0343924 -0.519012 0.0281392 -0.526403 0.0221703 -0.533508 0.0162014 -0.54033 0.00966398 -0.54573 0.00312658 0 -0.93968 0.53493 -0.00312658 0.528961 -0.00966398 0.522139 -0.0156329 0.515602 -0.0221703 0.507643 -0.0275708 0.499116 -0.0332555 0.490305 -0.0392244 0.480925 -0.0449091 0.470693 -0.0497411 0.459892 -0.0551415 0.447954 -0.0599735 0.436016 -0.065374 0.42351 -0.0699217 0.410151 -0.0744695 0.396223 -0.078733 0.381443 -0.0832807 0.36581 -0.0869758 0.350177 -0.0915235 0.333123 -0.0943659 0.3155 -0.0983452 0.297878 -0.101188 0.278266 -0.104314 0.258938 -0.106304 0.237904 -0.108578 0.216587 -0.109999 0.193848 -0.110567 0.170825 -0.110283 0.146381 -0.108862 0.121652 -0.105735 0.0963555 -0.100619 0.0721956 -0.093229 0.0491726 -0.0832807 0.830534 0.421804zm-0.830534 -0.421804l0.0113694 -0.0213176 0.0122221 -0.0204649 0.0130748 -0.0196122 0.0139275 -0.0190437 0.014496 -0.0179068 0.0156329 -0.0170541 0.0162014 -0.0162014 0.0167698 -0.0153487 0.0176225 -0.0142117 0.018191 -0.0136433 0.0187595 -0.0125063 0.019328 -0.0113694 0.0198964 -0.0108009 0.0201807 -0.00937974 0.0204649 -0.00881127 0.0210334 -0.0073901 0.0213176 -0.00682163 0.0216018 -0.00540046 0.0218861 -0.00454775 0.0221703 -0.00341082 0.0221703 -0.00227388 0.0224545 -0.00142117 0.0227388 -0.000284235 0.0224545 0.00113694 0.0224545 0.00198964 0.0227388 0.00312658 0.0224545 0.00426352 0.0224545 0.00568469 0.0221703 0.0065374 0.0221703 0.00795857 0.0218861 0.00909551 0.0216018 0.0102324 0.0210334 0.0113694 0.0201807 0.0122221 0.0196122 0.013359 0.0184753 0.0139275 0.0179068 0.0150644 0.0167698 0.0156329 0.0159171 0.0164856 0.0153487 0.0170541 0.0142117 0.0176225 0.0130748 0.0184753 0.0125063 0.0187595 0.0113694 0.0196122 0.0105167 0.0198964 0.00937974 0.0204649 0.00852704 0.0210334 0.00767433 0.0210334 0.0065374 0.0216018 0.00540046 0.0218861 0.00426352 0.0221703 0.00341082 0.0224545 0.00255811 0.0224545 0.00113694 0.0227388 0.000284235 0.0227388 -0.000852704 0.0227388 -0.00227388 0.023023 -0.00312658 0.0227388 -0.00426352 0.0227388 -0.00540046 0.0227388 -0.0065374 0.0224545 -0.00795857 0.0224545 -0.00881127 0.0221703 -0.0102324 0.0218861 -0.830534 -0.421804z"/>
   </g>
   <path class="fil0 str1" d="M86.7396 74.1363l-1.2404 0.755211c-1.2404,0.756064 -2.48052,1.51184 -3.72092,2.26791l-1.24012 0.755211 -1.2404 0.75578c-4.13391,2.51946 -8.26895,5.03891 -12.4029,7.55837 -1.38422,-0.257232 -2.76759,-0.514465 -4.15182,-0.771413 -1.38422,-0.257232 -2.76759,-0.51418 -4.15182,-0.771413 -1.38422,-0.256948 -2.76759,-0.51418 -4.15182,-0.771413 -1.38422,-0.256948 -2.74571,-0.839913 -4.15182,-0.771129 -3.45459,0.168835 -5.7404,-0.824849 -8.30335,-1.54283 -1.35608,-0.380022 -2.8324,-1.26115 -4.15182,-0.771413 -1.30748,0.486041 -6.18296,-1.07441 -8.30448,-1.54254 -1.17957,-0.259506 -2.52741,-1.0818 -4.15182,-1.3342 -1.39076,-0.216587 -2.76759,0.0486041 -4.15182,-0.208344 -1.38422,-0.257232 -3.3787,-0.208628 -4.76292,-0.465861 -1.38422,-0.256948 -2.15734,-0.819733 -3.54071,-1.07697 -2.76759,-0.513328 -5.07416,-1.75117 -7.88154,-1.96463l-4.57447 -0.348472 0 4.60375 66.4293 12.5993 20.3054 -13.9625"/>
   <line class="fil0 str1" x1="66.8952" y1="86.2291" x2="66.8952" y2= "91.0918" />
   <path class="fil0 str1" d="M0.464724 73.8882l19.6554 -8.70639c21.0126,3.10327 42.6594,7.64648 63.6723,10.7495 -5.92743,-6.86285 -2.964,-26.4008 2.83865,-25.0513"/>
   <path class="fil0 str1" d="M87.1995 77.1288c7.74824,-4.31269 4.45083,-26.5586 -0.568469,-26.2488"/>
   <line class="fil0 str1" x1="24.3711" y1="44.4537" x2="86.631" y2= "50.88" />
   <path class="fil0 str1" d="M20.1207 65.1818c-4.26238,-1.56187 -2.52827,-20.6229 4.25044,-20.7281"/>
   <g>
    <path class="fil1" d="M83.0377 64.5929l0 -0.000284235 0.0139275 -0.502243 0.0216018 -0.495989 0.0287077 -0.488599 0.0358136 -0.480925 0.0432037 -0.472966 0.0500253 -0.464155 0.0559942 -0.454491 0.0628159 -0.445111 0.069069 -0.434026 0.0750379 -0.422941 0.0807226 -0.411572 0.0869758 -0.399634 0.092092 -0.386559 0.0977767 -0.373484 0.103177 -0.359841 0.108009 -0.345061 0.112841 -0.330849 0.118526 -0.3155 0.123074 -0.299868 0.128474 -0.283382 0.133022 -0.267181 0.138991 -0.250695 0.144675 -0.232788 0.150644 -0.215166 0.15775 -0.197259 0.165709 -0.178215 0.174804 -0.158603 0.185321 -0.136717 0.197259 -0.11341 0.209765 -0.0858389 0.220282 -0.0540046 0.227672 -0.0187595 0 0.929447 -0.0770276 0.00625316 -0.0815753 0.0204649 -0.0886812 0.036382 -0.0972082 0.0559942 -0.105167 0.0781645 -0.111136 0.100619 -0.115115 0.124211 -0.117957 0.147234 -0.11881 0.170257 -0.119094 0.191858 -0.117957 0.212608 -0.116536 0.233641 -0.114262 0.252685 -0.111704 0.271444 -0.108293 0.289351 -0.104883 0.306405 -0.101188 0.322891 -0.096924 0.338239 -0.092092 0.353588 -0.0881127 0.3678 -0.082428 0.380874 -0.0773118 0.394518 -0.0721956 0.406456 -0.0667951 0.418109 -0.060542 0.428626 -0.0542888 0.439711 -0.0483199 0.448806 -0.0414983 0.458186 -0.0346766 0.466145 -0.0281392 0.474388 -0.0210334 0.481209 -0.013359 0.488031 0 -0.000284235 -0.929447 -0.018191zm3.23203 10.0949l0 0 -0.227672 -0.0187595 -0.220282 -0.054573 -0.208628 -0.0869758 -0.195553 -0.114547 -0.182194 -0.138706 -0.170541 -0.160308 -0.160308 -0.179921 -0.150644 -0.19868 -0.143254 -0.216587 -0.13558 -0.233925 -0.129611 -0.251263 -0.123358 -0.268317 -0.117105 -0.284519 -0.11142 -0.300152 -0.10602 -0.315785 -0.100335 -0.331418 -0.0943659 -0.345629 -0.0886812 -0.360125 -0.0827123 -0.373769 -0.0770276 -0.386843 -0.0710587 -0.399634 -0.0645213 -0.411856 -0.0582681 -0.423225 -0.0517307 -0.434595 -0.0451933 -0.444827 -0.0383717 -0.454491 -0.0312658 -0.464439 -0.0241599 -0.472966 -0.0170541 -0.480925 -0.00937974 -0.488884 -0.00170541 -0.495989 0.00596893 -0.502243 0.929447 0.018191 -0.00596893 0.488031 0.00170541 0.481209 0.00937974 0.474103 0.0164856 0.466713 0.023023 0.457618 0.0306973 0.449091 0.0366663 0.439142 0.0434879 0.42891 0.0500253 0.418109 0.0559942 0.406171 0.0616789 0.394233 0.0676478 0.380874 0.0730483 0.367515 0.0781645 0.353304 0.083565 0.337955 0.0881127 0.322891 0.0923763 0.305836 0.096924 0.288498 0.100619 0.27116 0.10403 0.252116 0.106872 0.232504 0.109146 0.212039 0.110567 0.190721 0.11142 0.168835 0.110852 0.145812 0.108578 0.122505 0.105167 0.0989137 0.0997664 0.0761749 0.0926605 0.0548573 0.0847019 0.0352451 0.078733 0.0198964 0.0764591 0.00625316 0 0 0 0.929447zm3.61319 -10.0767l0 0 -0.0139275 0.502527 -0.0213176 0.495705 -0.0287077 0.488884 -0.0360978 0.481209 -0.0432037 0.472682 -0.0494568 0.464155 -0.0562785 0.454491 -0.0628159 0.444827 -0.0687848 0.434595 -0.0753222 0.423225 -0.0810069 0.411572 -0.0864073 0.39935 -0.092092 0.386559 -0.0980609 0.373484 -0.102609 0.359557 -0.108293 0.345629 -0.112841 0.330849 -0.118526 0.3155 -0.123074 0.299583 -0.128474 0.28395 -0.133306 0.266896 -0.138706 0.250411 -0.144675 0.233072 -0.150644 0.215166 -0.15775 0.197259 -0.165709 0.178215 -0.174804 0.158603 -0.185321 0.136717 -0.197259 0.11341 -0.209765 0.0858389 -0.220282 0.0540046 -0.227672 0.0187595 0 -0.929447 0.0770276 -0.00625316 0.0815753 -0.0204649 0.0886812 -0.036382 0.0972082 -0.0559942 0.105167 -0.0781645 0.111136 -0.100619 0.115115 -0.124211 0.117957 -0.147234 0.11881 -0.170257 0.119094 -0.191574 0.117673 -0.212892 0.11682 -0.233925 0.114262 -0.252685 0.111704 -0.271728 0.108293 -0.288782 0.104883 -0.306405 0.100903 -0.322891 0.096924 -0.338523 0.0923763 -0.353588 0.0875443 -0.3678 0.0829965 -0.381159 0.0775961 -0.394518 0.0719114 -0.406171 0.0665109 -0.418109 0.060542 -0.42891 0.0540046 -0.439142 0.0483199 -0.449375 0.0414983 -0.457902 0.0349609 -0.466429 0.0281392 -0.474103 0.0207491 -0.481493 0.013359 -0.487747 0 0 0.929447 0.018191zm-3.23146 -10.0943l0 0 0.227672 0.0187595 0.219998 0.054573 0.208912 0.0869758 0.195553 0.114831 0.18191 0.138422 0.170541 0.160308 0.160308 0.179921 0.150644 0.19868 0.143254 0.216587 0.135864 0.233925 0.129327 0.251548 0.123074 0.268033 0.117389 0.28395 0.11142 0.300436 0.10602 0.316069 0.100335 0.331133 0.0943659 0.345629 0.0886812 0.360125 0.0827123 0.373769 0.0770276 0.386843 0.0707744 0.399634 0.0648055 0.411856 0.0582681 0.423225 0.0514465 0.434311 0.0451933 0.444827 0.0386559 0.454775 0.0309816 0.464155 0.0244442 0.473251 0.0167698 0.480925 0.00937974 0.488599 0.00170541 0.495989 -0.00596893 0.502243 -0.929447 -0.018191 0.00596893 -0.488031 -0.00170541 -0.481209 -0.00937974 -0.474388 -0.0162014 -0.466145 -0.0233072 -0.457902 -0.0304131 -0.448806 -0.0369505 -0.439427 -0.0434879 -0.42891 -0.0497411 -0.417825 -0.0559942 -0.406171 -0.0619631 -0.394233 -0.0673636 -0.380874 -0.0730483 -0.367515 -0.0781645 -0.353304 -0.083565 -0.337955 -0.0881127 -0.322322 -0.0923763 -0.306121 -0.096924 -0.288782 -0.100619 -0.270876 -0.103746 -0.252116 -0.107156 -0.232788 -0.108862 -0.211755 -0.110852 -0.190721 -0.11142 -0.168835 -0.110852 -0.145812 -0.108578 -0.122505 -0.105167 -0.0989137 -0.100051 -0.0764591 -0.092092 -0.054573 -0.0849862 -0.0352451 -0.0784488 -0.0198964 -0.0764591 -0.00625316 0 0 0 -0.929447z"/>
   </g>
   <g>
    <path class="fil1" d="M85.0976 64.6014l0 0 0.00113694 -0.148655 0.00341082 -0.146949 0.00568469 -0.145812 0.00795857 -0.142686 0.00994821 -0.140128 0.0119379 -0.138422 0.0142117 -0.13558 0.0162014 -0.133022 0.018191 -0.130464 0.0198964 -0.126484 0.0218861 -0.124211 0.0238757 -0.121368 0.0255811 -0.117105 0.0275708 -0.114262 0.0298446 -0.111136 0.0312658 -0.106588 0.0329712 -0.102893 0.0358136 -0.100903 0.0378032 -0.0957871 0.0395086 -0.092092 0.0429194 -0.0892497 0.0454775 -0.0852704 0.0491726 -0.0818596 0.0534361 -0.078733 0.0588366 -0.0753222 0.0645213 -0.0704902 0.0719114 -0.0665109 0.0827123 -0.0619631 0.0918078 -0.0531519 0.103461 -0.0426352 0.113125 -0.027855 0.119094 -0.00966398 0 0.92831 0.0321185 -0.00227388 0.0272865 -0.00682163 0.0187595 -0.0073901 0.0082428 -0.00483199 0.000852704 -0.000568469 -0.0082428 0.00795857 -0.014496 0.0159171 -0.0179068 0.023023 -0.0216018 0.03155 -0.0235915 0.0397928 -0.0255811 0.0477514 -0.0258654 0.0540046 -0.0264338 0.0613947 -0.0264338 0.0673636 -0.0255811 0.0724798 -0.0255811 0.0795857 -0.0250126 0.0844177 -0.0235915 0.088397 -0.0224545 0.0937974 -0.0216018 0.0989137 -0.0204649 0.10204 -0.0184753 0.106588 -0.0176225 0.110567 -0.0159171 0.11341 -0.0139275 0.117105 -0.0125063 0.120231 -0.0108009 0.123074 -0.00881127 0.125916 -0.0073901 0.128474 -0.00511622 0.129895 -0.00284235 0.132738 -0.00113694 0.134443 0 0 -0.929447 0zm1.31117 3.21754l0 0 -0.119094 -0.00966398 -0.113125 -0.027855 -0.103461 -0.0426352 -0.0918078 -0.0531519 -0.0827123 -0.0619631 -0.0719114 -0.0665109 -0.0645213 -0.0704902 -0.0588366 -0.0753222 -0.0534361 -0.078733 -0.0491726 -0.0818596 -0.0454775 -0.0852704 -0.0429194 -0.0892497 -0.0395086 -0.092092 -0.0378032 -0.0957871 -0.0358136 -0.100903 -0.0329712 -0.102893 -0.0312658 -0.106588 -0.0298446 -0.11142 -0.0275708 -0.114262 -0.0255811 -0.11682 -0.0238757 -0.121368 -0.0218861 -0.124211 -0.0198964 -0.126769 -0.018191 -0.130464 -0.0162014 -0.133022 -0.0142117 -0.13558 -0.0119379 -0.138138 -0.00994821 -0.140412 -0.00795857 -0.142686 -0.00568469 -0.145812 -0.00341082 -0.146949 -0.00113694 -0.148655 0.929447 0 0.00113694 0.134443 0.00284235 0.132738 0.00511622 0.129895 0.0073901 0.128474 0.00881127 0.1262 0.0108009 0.122789 0.0125063 0.120231 0.0139275 0.117105 0.0159171 0.11341 0.0176225 0.110852 0.0184753 0.106588 0.0204649 0.10204 0.0216018 0.0986294 0.0224545 0.0937974 0.0235915 0.0886812 0.0250126 0.0844177 0.0255811 0.0795857 0.0255811 0.0724798 0.0264338 0.0673636 0.0264338 0.0613947 0.0258654 0.0540046 0.0255811 0.0477514 0.0235915 0.0397928 0.0216018 0.03155 0.0179068 0.023023 0.014496 0.0159171 0.0082428 0.00795857 -0.000852704 -0.000568469 -0.0082428 -0.00483199 -0.0187595 -0.0073901 -0.0272865 -0.00682163 -0.0321185 -0.00227388 0 0 0 0.92831zm1.31117 -3.21754l0 0 -0.00113694 0.148655 -0.00341082 0.146949 -0.00568469 0.145244 -0.00767433 0.143254 -0.0102324 0.14098 -0.0119379 0.13757 -0.0142117 0.13558 -0.0162014 0.133022 -0.0179068 0.129895 -0.0198964 0.127337 -0.0221703 0.124779 -0.0238757 0.1208 -0.0255811 0.11682 -0.0275708 0.114262 -0.0295604 0.110852 -0.0312658 0.107156 -0.0335397 0.103461 -0.0352451 0.0994821 -0.0378032 0.0966398 -0.0400771 0.0926605 -0.042351 0.0881127 -0.0454775 0.0858389 -0.0497411 0.0827123 -0.0531519 0.0778803 -0.0585523 0.0747537 -0.0645213 0.0710587 -0.0727641 0.0670794 -0.0815753 0.0608262 -0.0915235 0.0534361 -0.104598 0.0429194 -0.113125 0.027855 -0.11881 0.00966398 0 -0.92831 -0.0318343 0.00227388 -0.0267181 0.00682163 -0.0198964 0.00767433 -0.00852704 0.00511622 0.000284235 -0.000568469 0.00795857 -0.0073901 0.0139275 -0.0153487 0.018191 -0.0235915 0.0218861 -0.0324027 0.0235915 -0.0389401 0.0250126 -0.0471829 0.0264338 -0.0551415 0.0264338 -0.0608262 0.0258654 -0.0665109 0.0261496 -0.073901 0.0255811 -0.0790172 0.0244442 -0.0838492 0.0238757 -0.0892497 0.0224545 -0.0937974 0.0216018 -0.0986294 0.0204649 -0.102609 0.0187595 -0.10602 0.0170541 -0.110283 0.0162014 -0.113978 0.0139275 -0.117105 0.0125063 -0.120231 0.0108009 -0.123358 0.00909551 -0.125632 0.00710587 -0.127906 0.00511622 -0.130464 0.00284235 -0.132738 0.00113694 -0.134443 0 0 0.929447 0zm-1.31117 -3.21725l0 0 0.11881 0.00966398 0.113125 0.027855 0.104598 0.0429194 0.0915235 0.0534361 0.0815753 0.0608262 0.0727641 0.0670794 0.0645213 0.0710587 0.0585523 0.0747537 0.0531519 0.0778803 0.0497411 0.0827123 0.0454775 0.0858389 0.042351 0.0881127 0.0400771 0.0926605 0.0378032 0.0966398 0.0352451 0.0994821 0.0335397 0.103461 0.0312658 0.107156 0.0295604 0.110567 0.0275708 0.114262 0.0255811 0.117105 0.0238757 0.1208 0.0221703 0.124779 0.0198964 0.126769 0.0179068 0.130179 0.0162014 0.133022 0.0142117 0.13558 0.0119379 0.137854 0.0102324 0.140696 0.00767433 0.143254 0.00568469 0.145244 0.00341082 0.146949 0.00113694 0.148655 -0.929447 0 -0.00113694 -0.134443 -0.00284235 -0.132738 -0.00511622 -0.130464 -0.00710587 -0.127906 -0.00909551 -0.125347 -0.0108009 -0.123642 -0.0125063 -0.120231 -0.0139275 -0.117105 -0.0162014 -0.113694 -0.0170541 -0.110283 -0.0187595 -0.10602 -0.0204649 -0.102609 -0.0216018 -0.0989137 -0.0224545 -0.0937974 -0.0238757 -0.0889654 -0.0244442 -0.0838492 -0.0255811 -0.0790172 -0.0261496 -0.073901 -0.0258654 -0.0665109 -0.0264338 -0.0608262 -0.0264338 -0.0551415 -0.0250126 -0.0471829 -0.0235915 -0.0389401 -0.0218861 -0.0324027 -0.018191 -0.0235915 -0.0139275 -0.0153487 -0.00795857 -0.0073901 -0.000284235 -0.000568469 0.00852704 0.00511622 0.0198964 0.00767433 0.0267181 0.00682163 0.0318343 0.00227388 0 0 0 -0.92831z"/>
   </g>
   <line class="fil0 str0" x1="97.9006" y1="30.7565" x2="45.5412" y2= "26.1206" />
   <g>
    <path class="fil1" d="M22.5048 20.2156l-0.014496 -0.019328 -0.0130748 -0.0198964 -0.0122221 -0.0201807 -0.0110852 -0.0207491 -0.00994821 -0.0210334 -0.00852704 -0.0213176 -0.00795857 -0.0218861 -0.0065374 -0.0218861 -0.00540046 -0.0221703 -0.00454775 -0.0221703 -0.00312658 -0.0224545 -0.00227388 -0.0227388 -0.00113694 -0.0224545 -0.000284235 -0.0227388 0.00113694 -0.0224545 0.00198964 -0.0224545 0.00312658 -0.0224545 0.00397928 -0.0221703 0.00511622 -0.0218861 0.00625316 -0.0216018 0.0073901 -0.0216018 0.0082428 -0.0210334 0.00937974 -0.0207491 0.0102324 -0.0201807 0.0113694 -0.0198964 0.0122221 -0.019328 0.013359 -0.0190437 0.014496 -0.018191 0.0153487 -0.0176225 0.0164856 -0.0167698 0.0173383 -0.0162014 0.018191 -0.0156329 0.0190437 -0.014496 0.0196122 -0.013359 0.0198964 -0.0122221 0.0204649 -0.0113694 0.0210334 -0.00994821 0.0210334 -0.00881127 0.0213176 -0.00795857 0.0218861 -0.0065374 0.0218861 -0.00568469 0.0218861 -0.00426352 0.0221703 -0.00341082 0.0224545 -0.00227388 0.0221703 -0.00113694 0.0224545 -0.000284235 0.0221703 0.00113694 0.0221703 0.00198964 0.0221703 0.00312658 0.0218861 0.00397928 0.0218861 0.00540046 0.0213176 0.00625316 0.0213176 0.0073901 0.0207491 0.0082428 0.0204649 0.00937974 0.0201807 0.0105167 0.0196122 0.0113694 0.0190437 0.0125063 0.0187595 0.0136433 0.0179068 0.014496 0.0176225 0.0156329 0.0167698 0.0164856 0.0159171 0.0176225 0.0153487 0.0184753 -0.727641 0.584386zm11.6513 2.5692l0 0 -0.516454 -0.00284235 -0.511054 -0.00881127 -0.505938 -0.0142117 -0.499969 -0.0201807 -0.493431 -0.0252969 -0.486325 -0.0309816 -0.478651 -0.0360978 -0.470977 -0.0414983 -0.46245 -0.0463302 -0.453354 -0.0511622 -0.444259 -0.0559942 -0.433742 -0.0611104 -0.42351 -0.0650897 -0.412709 -0.0704902 -0.400487 -0.0744695 -0.389401 -0.0790172 -0.376611 -0.0832807 -0.363536 -0.08726 -0.35103 -0.0918078 -0.336818 -0.0960713 -0.322606 -0.0997664 -0.30811 -0.104314 -0.29333 -0.108293 -0.277981 -0.112841 -0.262064 -0.116536 -0.247284 -0.121937 -0.230514 -0.126769 -0.213744 -0.132169 -0.197827 -0.138706 -0.180489 -0.146097 -0.162866 -0.154908 -0.143823 -0.164856 0.727641 -0.584386 0.0818596 0.0937974 0.104883 0.0991979 0.127053 0.102893 0.149507 0.104598 0.171678 0.10602 0.191858 0.105735 0.212039 0.104314 0.231935 0.103461 0.250126 0.101472 0.267749 0.0986294 0.284803 0.0963555 0.301573 0.0935132 0.316922 0.0903866 0.33227 0.0866916 0.346482 0.0832807 0.360694 0.0798699 0.374053 0.0756064 0.386843 0.0721956 0.398497 0.0676478 0.410435 0.0633843 0.421236 0.059405 0.431752 0.0542888 0.441416 0.0500253 0.45108 0.0451933 0.459607 0.0403613 0.46785 0.0349609 0.475525 0.0304131 0.48263 0.0247284 0.489168 0.0196122 0.495705 0.0142117 0.500821 0.00881127 0.505653 0.00284235 0 0 0 0.93968zm11.8406 -2.86395l-0.113978 0.194132 -0.138138 0.179068 -0.160024 0.16713 -0.180205 0.156898 -0.199248 0.148086 -0.217439 0.14098 -0.235915 0.134443 -0.253537 0.128758 -0.271444 0.123926 -0.288498 0.11881 -0.305552 0.113978 -0.321754 0.109715 -0.338239 0.105167 -0.354156 0.100619 -0.368937 0.0957871 -0.383717 0.0918078 -0.398213 0.0866916 -0.41214 0.0821438 -0.425215 0.0770276 -0.437437 0.0721956 -0.449659 0.0670794 -0.461313 0.0622474 -0.472398 0.0565627 -0.482915 0.0514465 -0.492863 0.0457618 -0.501958 0.0397928 -0.51077 0.0343924 -0.519012 0.0281392 -0.526403 0.0221703 -0.533508 0.0162014 -0.54033 0.00966398 -0.54573 0.00312658 0 -0.93968 0.53493 -0.00312658 0.528961 -0.00966398 0.522139 -0.0156329 0.515602 -0.0221703 0.507643 -0.0275708 0.4994 -0.0332555 0.49002 -0.0392244 0.480925 -0.0446248 0.470408 -0.0497411 0.459892 -0.0554258 0.448238 -0.0599735 0.436016 -0.065374 0.423794 -0.0699217 0.409866 -0.0741852 0.396223 -0.078733 0.381159 -0.0832807 0.366094 -0.08726 0.350177 -0.0912393 0.333123 -0.0943659 0.3155 -0.0983452 0.297878 -0.101188 0.278266 -0.104314 0.258938 -0.106304 0.237904 -0.108578 0.216587 -0.109999 0.193848 -0.110567 0.170825 -0.110283 0.146381 -0.108862 0.121652 -0.105735 0.0963555 -0.100619 0.0721956 -0.093229 0.0491726 -0.0832807 0.830534 0.421804zm-0.830534 -0.421804l0.0113694 -0.0213176 0.0119379 -0.0204649 0.0130748 -0.0196122 0.0139275 -0.0190437 0.0147802 -0.0179068 0.0153487 -0.0170541 0.0162014 -0.0162014 0.0170541 -0.0153487 0.0176225 -0.0142117 0.018191 -0.0136433 0.0184753 -0.0125063 0.019328 -0.0113694 0.0198964 -0.0108009 0.0201807 -0.00937974 0.0204649 -0.00881127 0.0210334 -0.0073901 0.0213176 -0.00682163 0.0216018 -0.00540046 0.0218861 -0.00454775 0.0221703 -0.00341082 0.0224545 -0.00227388 0.0221703 -0.00142117 0.0227388 -0.000284235 0.0224545 0.00113694 0.0224545 0.00198964 0.0227388 0.00312658 0.0224545 0.00426352 0.0224545 0.00568469 0.0221703 0.0065374 0.0221703 0.00795857 0.0218861 0.00909551 0.0216018 0.0102324 0.0210334 0.0113694 0.0201807 0.0122221 0.0196122 0.013359 0.0184753 0.0139275 0.0179068 0.0150644 0.0167698 0.0156329 0.0159171 0.0164856 0.0153487 0.0170541 0.0142117 0.0176225 0.0130748 0.0184753 0.0125063 0.0187595 0.0113694 0.0196122 0.0105167 0.0198964 0.00937974 0.0204649 0.00852704 0.0210334 0.00767433 0.0210334 0.0065374 0.0216018 0.00540046 0.0218861 0.00454775 0.0221703 0.00341082 0.0224545 0.00227388 0.0224545 0.00142117 0.0227388 0 0.0227388 -0.000852704 0.0227388 -0.00198964 0.023023 -0.00312658 0.0227388 -0.00426352 0.0227388 -0.00540046 0.0227388 -0.0065374 0.0224545 -0.00795857 0.0224545 -0.00881127 0.0221703 -0.0102324 0.0218861 -0.830534 -0.421804z"/>
   </g>
  </g>
 </g>
</svg>
