<?xml version="1.0" encoding="UTF-8"?>
<!DOCTYPE svg PUBLIC "-//W3C//DTD SVG 1.1//EN" "http://www.w3.org/Graphics/SVG/1.1/DTD/svg11.dtd">
<!-- Creator: CorelDRAW -->
<svg xmlns="http://www.w3.org/2000/svg" xml:space="preserve" width="120px" height="84px" style="shape-rendering:geometricPrecision; text-rendering:geometricPrecision; image-rendering:optimizeQuality; fill-rule:evenodd; clip-rule:evenodd"
viewBox="0 0 120 84.383"
 xmlns:xlink="http://www.w3.org/1999/xlink">
 <defs>
  <style type="text/css">
   <![CDATA[
    .str0 {stroke:black;stroke-width:0.927913;stroke-linecap:round;stroke-linejoin:round}
    .fil0 {fill:none}
    .fil1 {fill:black;fill-rule:nonzero}
   ]]>
  </style>
 </defs>
 <g id="Layer_x0020_1">
  <metadata id="CorelCorpID_0Corel-Layer"/>
  <g id="_464424296">
   <polyline id="_464119832" class="fil0 str0" points="51.7223,5.47046 117.394,0.464098 114.786,6.23809 48.987,11.0317 "/>
   <path id="_464119664" class="fil0 str0" d="M49.3453 11.0717l-14.4347 23.4256m-10.6348 17.261l-13.2929 21.1945 1.60449 2.52531"/>
   <polyline id="_464119496" class="fil0 str0" points="16.0389,71.2345 86.9296,76.4429 104.002,33.0403 "/>
   <polyline id="_464119328" class="fil0 str0" points="11.0779,72.9851 89.6759,79.662 116.573,7.19749 "/>
   <polyline id="_464119160" class="fil0 str0" points="12.7868,75.7748 92.7532,83.9189 119.536,8.30327 117.394,0.464098 "/>
   <line id="_464119064" class="fil0 str0" x1="38.8248" y1="33.6548" x2="52.8334" y2= "10.7497" />
   <line id="_464118968" class="fil0 str0" x1="16.29" y1="70.9684" x2="28.6215" y2= "51.3555" />
   <line id="_464118872" class="fil0 str0" x1="34.4766" y1="51.9492" x2="22.9817" y2= "71.289" />
   <line id="_464118776" class="fil0 str0" x1="0.463814" y1="44.9018" x2="78.3727" y2= "45.5849" />
   <line id="_464118680" class="fil0 str0" x1="0.463814" y1="48.5456" x2="79.2635" y2= "49.229" />
   <line id="_464118584" class="fil0 str0" x1="0.463814" y1="48.5456" x2="0.496154" y2= "44.9018" />
   <g>
    <path id="_464118488" class="fil1" d="M78.0998 48.5408l0.927629 0.00964507 -0.000851036 0.023829 -0.00198575 0.0235453 -0.00312046 0.0232616 -0.00453886 0.0226943 -0.00538989 0.0224106 -0.00652461 0.0218432 -0.00737564 0.0215596 -0.00851036 0.0209922 -0.00964507 0.0204249 -0.0102124 0.0198575 -0.0116308 0.0192901 -0.0121982 0.0187228 -0.0130492 0.0178717 -0.0139002 0.0175881 -0.0147513 0.0164534 -0.0156023 0.0161697 -0.0164534 0.015035 -0.016737 0.0144676 -0.0178717 0.0136166 -0.0181554 0.0127655 -0.0190065 0.0119145 -0.0195738 0.0107798 -0.0201412 0.0102124 -0.0207085 0.00907771 -0.0209922 0.007943 -0.0215596 0.00709196 -0.0221269 0.00624093 -0.0224106 0.00482254 -0.022978 0.0039715 -0.0232616 0.00255311 -0.0235453 0.00170207 -0.023829 0.000283679 -0.023829 -0.000851036 -0.0235453 -0.00198575 -0.0232616 -0.00312046 -0.0226943 -0.00453886 -0.0224106 -0.00538989 -0.0218432 -0.00652461 -0.0215596 -0.00737564 -0.0209922 -0.00851036 -0.0204249 -0.00964507 -0.0198575 -0.0102124 -0.0192901 -0.0116308 -0.0187228 -0.0121982 -0.0178717 -0.0130492 -0.0175881 -0.0139002 -0.0164534 -0.0147513 -0.0161697 -0.0156023 -0.015035 -0.0164534 -0.0144676 -0.016737 -0.0136166 -0.0178717 -0.0127655 -0.0181554 -0.0119145 -0.0190065 -0.0107798 -0.0195738 -0.0102124 -0.0201412 -0.00907771 -0.0207085 -0.007943 -0.0209922 -0.00709196 -0.0215596 -0.00624093 -0.0221269 -0.00482254 -0.0224106 -0.0039715 -0.022978 -0.00255311 -0.0232616 -0.00170207 -0.0235453 -0.000283679 -0.023829zm0.960252 -3.07706l-0.032623 3.08671 -0.927629 -0.00964507 0.032623 -3.08671 0.927629 0.00964507zm0 0l-0.927629 -0.00964507 0.000851036 -0.023829 0.00198575 -0.0235453 0.00312046 -0.0232616 0.00453886 -0.0226943 0.00538989 -0.0224106 0.00652461 -0.0218432 0.00737564 -0.0215596 0.00851036 -0.0209922 0.00964507 -0.0204249 0.0102124 -0.0198575 0.0116308 -0.0192901 0.0121982 -0.0187228 0.0130492 -0.0178717 0.0139002 -0.0175881 0.0147513 -0.0164534 0.0156023 -0.0161697 0.0164534 -0.015035 0.016737 -0.0144676 0.0178717 -0.0136166 0.0181554 -0.0127655 0.0190065 -0.0119145 0.0195738 -0.0107798 0.0201412 -0.0102124 0.0207085 -0.00907771 0.0209922 -0.007943 0.0215596 -0.00709196 0.0221269 -0.00624093 0.0224106 -0.00482254 0.022978 -0.0039715 0.0232616 -0.00255311 0.0235453 -0.00170207 0.023829 -0.000283679 0.023829 0.000851036 0.0235453 0.00198575 0.0232616 0.00312046 0.0226943 0.00453886 0.0224106 0.00538989 0.0218432 0.00652461 0.0215596 0.00737564 0.0209922 0.00851036 0.0204249 0.00964507 0.0198575 0.0102124 0.0192901 0.0116308 0.0187228 0.0121982 0.0178717 0.0130492 0.0175881 0.0139002 0.0164534 0.0147513 0.0161697 0.0156023 0.015035 0.0164534 0.0144676 0.016737 0.0136166 0.0178717 0.0127655 0.0181554 0.0119145 0.0190065 0.0107798 0.0195738 0.0102124 0.0201412 0.00907771 0.0207085 0.007943 0.0209922 0.00709196 0.0215596 0.00624093 0.0221269 0.00482254 0.0224106 0.0039715 0.022978 0.00255311 0.0232616 0.00170207 0.0235453 0.000283679 0.023829z"/>
   </g>
   <polyline class="fil0 str0" points="0.691325,42.8516 56.4886,29.643 101.811,29.1874 "/>
   <polyline class="fil0 str0" points="10.6351,42.642 75.608,43.08 100.216,32.8313 104.002,33.0403 "/>
   <line class="fil0 str0" x1="78.7333" y1="45.4062" x2="104.121" y2= "33.1561" />
   <line class="fil0 str0" x1="79.0345" y1="49.2267" x2="101.707" y2= "38.8745" />
   <line class="fil0 str0" x1="100.447" y1="32.5737" x2="110.843" y2= "6.57992" />
   <line class="fil0 str0" x1="104.121" y1="33.1561" x2="114.786" y2= "6.23809" />
   <line class="fil0 str0" x1="51.7537" y1="5.41401" x2="48.6971" y2= "10.7474" />
   <polyline class="fil0 str0" points="55.1766,10.5795 55.8435,14.1734 44.7974,32.2089 "/>
   <line class="fil0 str0" x1="55.8435" y1="14.1734" x2="108.042" y2= "11.0544" />
   <polyline class="fil0 str0" points="8.24228,51.0667 78.9594,52.2868 100.193,41.3002 "/>
   <g>
    <path class="fil1" d="M7.59351 50.9858l0.932735 0.0164534 -0.00113471 0.023829 -0.00198575 0.0235453 -0.00340414 0.022978 -0.00453886 0.022978 -0.00567357 0.0221269 -0.00680829 0.0221269 -0.00765932 0.0212759 -0.00879404 0.0209922 -0.00964507 0.0204249 -0.0104961 0.0195738 -0.0116308 0.0192901 -0.0124819 0.0187228 -0.0133329 0.0178717 -0.0141839 0.0173044 -0.015035 0.0164534 -0.0156023 0.015886 -0.0164534 0.015035 -0.0173044 0.0144676 -0.0178717 0.0133329 -0.0184391 0.0127655 -0.0192901 0.0116308 -0.0195738 0.0107798 -0.0204249 0.00992875 -0.0207085 0.00907771 -0.0212759 0.007943 -0.0218432 0.00680829 -0.0224106 0.00595725 -0.0224106 0.00482254 -0.0232616 0.00368782 -0.0232616 0.00255311 -0.0235453 0.00113471 -0.0241127 0.000283679 -0.023829 -0.00113471 -0.023829 -0.00198575 -0.0232616 -0.00340414 -0.0226943 -0.00453886 -0.0226943 -0.00567357 -0.0218432 -0.00652461 -0.0215596 -0.00765932 -0.0209922 -0.00879404 -0.0204249 -0.00964507 -0.0201412 -0.0104961 -0.0192901 -0.0116308 -0.0187228 -0.0124819 -0.0178717 -0.0130492 -0.0175881 -0.0141839 -0.0164534 -0.015035 -0.0161697 -0.0156023 -0.015035 -0.0164534 -0.0144676 -0.0170207 -0.0133329 -0.0175881 -0.0127655 -0.0184391 -0.0119145 -0.0190065 -0.0107798 -0.0198575 -0.00992875 -0.0201412 -0.00907771 -0.0207085 -0.007943 -0.0209922 -0.00709196 -0.0218432 -0.00567357 -0.0221269 -0.00482254 -0.0224106 -0.00368782 -0.022978 -0.00255311 -0.0232616 -0.00141839 -0.0235453 -0.000283679 -0.023829zm0.965358 -1.81412l-0.032623 1.83058 -0.932735 -0.0164534 0.032623 -1.83058 0.932735 0.0164534zm0 0l-0.932735 -0.0164534 0.00113471 -0.023829 0.00198575 -0.0235453 0.00340414 -0.022978 0.00453886 -0.022978 0.00567357 -0.0221269 0.00680829 -0.0221269 0.00765932 -0.0212759 0.00879404 -0.0209922 0.00964507 -0.0204249 0.0104961 -0.0195738 0.0116308 -0.0192901 0.0124819 -0.0187228 0.0133329 -0.0178717 0.0141839 -0.0173044 0.015035 -0.0164534 0.0156023 -0.015886 0.0164534 -0.015035 0.0173044 -0.0144676 0.0178717 -0.0133329 0.0184391 -0.0127655 0.0192901 -0.0116308 0.0195738 -0.0107798 0.0204249 -0.00992875 0.0207085 -0.00907771 0.0212759 -0.007943 0.0218432 -0.00680829 0.0224106 -0.00595725 0.0224106 -0.00482254 0.0232616 -0.00368782 0.0232616 -0.00255311 0.0235453 -0.00113471 0.0241127 -0.000283679 0.023829 0.00113471 0.023829 0.00198575 0.0232616 0.00340414 0.0226943 0.00453886 0.0226943 0.00567357 0.0218432 0.00652461 0.0215596 0.00765932 0.0209922 0.00879404 0.0204249 0.00964507 0.0201412 0.0104961 0.0192901 0.0116308 0.0187228 0.0124819 0.0178717 0.0130492 0.0175881 0.0141839 0.0164534 0.015035 0.0161697 0.0156023 0.015035 0.0164534 0.0144676 0.0170207 0.0133329 0.0175881 0.0127655 0.0184391 0.0119145 0.0190065 0.0107798 0.0198575 0.00992875 0.0201412 0.00907771 0.0207085 0.007943 0.0209922 0.00709196 0.0218432 0.00567357 0.0221269 0.00482254 0.0224106 0.00368782 0.022978 0.00255311 0.0232616 0.00141839 0.0235453 0.000283679 0.023829z"/>
   </g>
   <g>
    <path class="fil1" d="M78.575 52.1478l0.924792 -0.00453886 -0.000567357 0.023829 -0.00170207 0.0235453 -0.00283679 0.0232616 -0.0039715 0.0226943 -0.00482254 0.0226943 -0.00624093 0.0218432 -0.00709196 0.0215596 -0.00822668 0.0212759 -0.00907771 0.0204249 -0.0102124 0.0201412 -0.0110635 0.0195738 -0.0119145 0.0187228 -0.0127655 0.0184391 -0.0136166 0.0175881 -0.0144676 0.016737 -0.0153186 0.0161697 -0.015886 0.0156023 -0.016737 0.0144676 -0.0175881 0.0139002 -0.0178717 0.0130492 -0.0187228 0.0121982 -0.0192901 0.0113471 -0.0198575 0.0102124 -0.0204249 0.00936139 -0.0209922 0.00851036 -0.0215596 0.00737564 -0.0218432 0.00652461 -0.0224106 0.00510621 -0.0226943 0.00425518 -0.022978 0.00312046 -0.0235453 0.00170207 -0.023829 0.000851036 -0.023829 -0.000567357 -0.0235453 -0.00170207 -0.022978 -0.00283679 -0.022978 -0.0039715 -0.0224106 -0.00510621 -0.0218432 -0.00595725 -0.0215596 -0.00737564 -0.0209922 -0.00822668 -0.0204249 -0.00907771 -0.0201412 -0.0102124 -0.0192901 -0.0110635 -0.0190065 -0.0119145 -0.0181554 -0.0127655 -0.0175881 -0.0139002 -0.016737 -0.0144676 -0.0161697 -0.0153186 -0.0153186 -0.015886 -0.0147513 -0.016737 -0.0139002 -0.0175881 -0.0127655 -0.0181554 -0.0121982 -0.0187228 -0.0113471 -0.0192901 -0.0102124 -0.0198575 -0.00936139 -0.0207085 -0.00822668 -0.0209922 -0.00737564 -0.0215596 -0.00652461 -0.0218432 -0.00510621 -0.0224106 -0.00425518 -0.0226943 -0.00312046 -0.0232616 -0.00198575 -0.0235453 -0.000567357 -0.023829zm0.912878 -2.55424l0.0119145 2.5497 -0.924792 0.00453886 -0.0119145 -2.5497 0.924792 -0.00453886zm0 0l-0.924792 0.00453886 0.000567357 -0.023829 0.00170207 -0.0235453 0.00283679 -0.0232616 0.0039715 -0.0226943 0.00482254 -0.0226943 0.00624093 -0.0218432 0.00709196 -0.0215596 0.00822668 -0.0212759 0.00907771 -0.0204249 0.0102124 -0.0201412 0.0110635 -0.0195738 0.0119145 -0.0187228 0.0127655 -0.0184391 0.0136166 -0.0175881 0.0144676 -0.016737 0.0153186 -0.0161697 0.015886 -0.0156023 0.016737 -0.0144676 0.0175881 -0.0139002 0.0178717 -0.0130492 0.0187228 -0.0121982 0.0192901 -0.0113471 0.0198575 -0.0102124 0.0204249 -0.00936139 0.0209922 -0.00851036 0.0215596 -0.00737564 0.0218432 -0.00652461 0.0224106 -0.00510621 0.0226943 -0.00425518 0.022978 -0.00312046 0.0235453 -0.00170207 0.023829 -0.000851036 0.023829 0.000567357 0.0235453 0.00170207 0.022978 0.00283679 0.022978 0.0039715 0.0224106 0.00510621 0.0218432 0.00595725 0.0215596 0.00737564 0.0209922 0.00822668 0.0204249 0.00907771 0.0201412 0.0102124 0.0192901 0.0110635 0.0190065 0.0119145 0.0181554 0.0127655 0.0175881 0.0139002 0.016737 0.0144676 0.0161697 0.0153186 0.0153186 0.015886 0.0147513 0.016737 0.0139002 0.0175881 0.0127655 0.0181554 0.0121982 0.0187228 0.0113471 0.0192901 0.0102124 0.0198575 0.00936139 0.0207085 0.00822668 0.0209922 0.00737564 0.0215596 0.00652461 0.0218432 0.00510621 0.0224106 0.00425518 0.0226943 0.00312046 0.0232616 0.00198575 0.0235453 0.000567357 0.023829z"/>
   </g>
   <line class="fil0 str0" x1="9.97499" y1="42.6298" x2="56.631" y2= "31.6974" />
   <line class="fil0 str0" x1="30.6923" y1="42.7765" x2="56.7397" y2= "35.0266" />
   <g>
    <path class="fil1" d="M56.2742 35.2102l0.927629 0.00907771 -0.000851036 0.023829 -0.00198575 0.0235453 -0.00312046 0.0232616 -0.00425518 0.0226943 -0.00538989 0.0224106 -0.00652461 0.0218432 -0.00737564 0.0215596 -0.00879404 0.0209922 -0.00936139 0.0204249 -0.0104961 0.0198575 -0.0113471 0.0192901 -0.0121982 0.0187228 -0.0130492 0.0178717 -0.0141839 0.0175881 -0.0147513 0.0164534 -0.0153186 0.0161697 -0.0164534 0.015035 -0.016737 0.0144676 -0.0178717 0.0136166 -0.0181554 0.0127655 -0.0190065 0.0119145 -0.0195738 0.0110635 -0.0201412 0.00992875 -0.0207085 0.00907771 -0.0209922 0.00822668 -0.0215596 0.00709196 -0.0221269 0.00595725 -0.0224106 0.00510621 -0.022978 0.00368782 -0.0232616 0.00283679 -0.0235453 0.00170207 -0.023829 0.000283679 -0.023829 -0.000851036 -0.0235453 -0.00198575 -0.0232616 -0.00312046 -0.0226943 -0.00425518 -0.0224106 -0.00538989 -0.0218432 -0.00652461 -0.0215596 -0.00737564 -0.0209922 -0.00879404 -0.0204249 -0.00936139 -0.0198575 -0.0104961 -0.0192901 -0.0113471 -0.0187228 -0.0121982 -0.0178717 -0.0130492 -0.0175881 -0.0141839 -0.0164534 -0.0147513 -0.0161697 -0.0153186 -0.015035 -0.0164534 -0.0144676 -0.016737 -0.0136166 -0.0178717 -0.0127655 -0.0181554 -0.0119145 -0.0190065 -0.0110635 -0.0195738 -0.00992875 -0.0201412 -0.00907771 -0.0207085 -0.00822668 -0.0209922 -0.00709196 -0.0215596 -0.00595725 -0.0221269 -0.00510621 -0.0224106 -0.00368782 -0.022978 -0.00283679 -0.0232616 -0.00170207 -0.0235453 -0.000283679 -0.023829zm0.959968 -3.33152l-0.0323394 3.3406 -0.927629 -0.00907771 0.0323394 -3.3406 0.927629 0.00907771zm0 0l-0.927629 -0.00907771 0.000851036 -0.023829 0.00198575 -0.0235453 0.00312046 -0.0232616 0.00425518 -0.0226943 0.00538989 -0.0224106 0.00652461 -0.0218432 0.00737564 -0.0215596 0.00851036 -0.0209922 0.00964507 -0.0204249 0.0104961 -0.0198575 0.0113471 -0.0192901 0.0121982 -0.0187228 0.0130492 -0.0178717 0.0141839 -0.0175881 0.0147513 -0.0164534 0.0153186 -0.0161697 0.0164534 -0.015035 0.016737 -0.0144676 0.0178717 -0.0136166 0.0181554 -0.0127655 0.0190065 -0.0119145 0.0195738 -0.0110635 0.0201412 -0.00992875 0.0207085 -0.00907771 0.0209922 -0.00822668 0.0215596 -0.00709196 0.0221269 -0.00595725 0.0224106 -0.00510621 0.022978 -0.00368782 0.0232616 -0.00283679 0.0235453 -0.00170207 0.023829 -0.000283679 0.023829 0.000851036 0.0235453 0.00198575 0.0232616 0.00312046 0.0226943 0.00425518 0.0224106 0.00538989 0.0218432 0.00652461 0.0215596 0.00737564 0.0209922 0.00851036 0.0204249 0.00964507 0.0198575 0.0104961 0.0192901 0.0113471 0.0187228 0.0121982 0.0178717 0.0130492 0.0175881 0.0141839 0.0164534 0.0147513 0.0161697 0.0153186 0.015035 0.0164534 0.0144676 0.016737 0.0136166 0.0178717 0.0127655 0.0181554 0.0119145 0.0190065 0.0110635 0.0195738 0.00992875 0.0201412 0.00907771 0.0207085 0.00822668 0.0209922 0.00709196 0.0215596 0.00595725 0.0221269 0.00510621 0.0224106 0.00368782 0.022978 0.00283679 0.0232616 0.00170207 0.0235453 0.000283679 0.023829z"/>
   </g>
   <line class="fil0 str0" x1="57.0509" y1="35.2147" x2="93.8755" y2= "35.3237" />
   <line class="fil0 str0" x1="60.2499" y1="37.1466" x2="89.8563" y2= "37.1466" />
   <line class="fil0 str0" x1="56.9385" y1="31.6974" x2="100.17" y2= "31.5709" />
   <line class="fil0 str0" x1="110.466" y1="35.1926" x2="116.291" y2= "32.3371" />
   <line class="fil0 str0" x1="109.495" y1="37.3057" x2="115.32" y2= "34.4502" />
   <g>
    <path class="fil1" d="M114.806 31.5382l0.927629 0.007943 -0.000851036 0.023829 -0.00198575 0.0235453 -0.00312046 0.0232616 -0.00425518 0.0226943 -0.00538989 0.0224106 -0.00624093 0.0218432 -0.00765932 0.0215596 -0.00851036 0.0209922 -0.00936139 0.0204249 -0.0104961 0.0198575 -0.0113471 0.0192901 -0.0121982 0.0187228 -0.0130492 0.0181554 -0.0139002 0.0173044 -0.0147513 0.016737 -0.0156023 0.015886 -0.0161697 0.0153186 -0.0170207 0.0144676 -0.0175881 0.0136166 -0.0184391 0.0127655 -0.0187228 0.0119145 -0.0195738 0.0110635 -0.0201412 0.00992875 -0.0207085 0.00936139 -0.0209922 0.007943 -0.0215596 0.00709196 -0.0221269 0.00624093 -0.0224106 0.00482254 -0.022978 0.0039715 -0.0232616 0.00283679 -0.0235453 0.00170207 -0.023829 0.000283679 -0.023829 -0.000851036 -0.0235453 -0.00198575 -0.0232616 -0.00312046 -0.0226943 -0.00425518 -0.0224106 -0.00538989 -0.0218432 -0.00624093 -0.0215596 -0.00765932 -0.0209922 -0.00851036 -0.0204249 -0.00936139 -0.0198575 -0.0104961 -0.0192901 -0.0113471 -0.0187228 -0.0121982 -0.0181554 -0.0130492 -0.0173044 -0.0139002 -0.016737 -0.0147513 -0.015886 -0.0156023 -0.0153186 -0.0161697 -0.0144676 -0.0170207 -0.0136166 -0.0175881 -0.0127655 -0.0184391 -0.0119145 -0.0187228 -0.0110635 -0.0195738 -0.00992875 -0.0201412 -0.00936139 -0.0207085 -0.007943 -0.0209922 -0.00709196 -0.0215596 -0.00624093 -0.0221269 -0.00482254 -0.0224106 -0.0039715 -0.022978 -0.00283679 -0.0232616 -0.00170207 -0.0235453 -0.000283679 -0.023829zm0.959685 -3.63591l-0.0320557 3.64385 -0.927629 -0.007943 0.0320557 -3.64385 0.927629 0.007943zm0 0l-0.927629 -0.007943 0.000851036 -0.023829 0.00198575 -0.0235453 0.00312046 -0.0232616 0.00425518 -0.0226943 0.00538989 -0.0224106 0.00624093 -0.0218432 0.00765932 -0.0215596 0.00851036 -0.0209922 0.00936139 -0.0204249 0.0104961 -0.0198575 0.0113471 -0.0192901 0.0121982 -0.0187228 0.0130492 -0.0181554 0.0139002 -0.0173044 0.0147513 -0.016737 0.0156023 -0.015886 0.0161697 -0.0153186 0.0170207 -0.0144676 0.0175881 -0.0136166 0.0184391 -0.0127655 0.0187228 -0.0119145 0.0195738 -0.0110635 0.0201412 -0.00992875 0.0207085 -0.00936139 0.0209922 -0.007943 0.0215596 -0.00709196 0.0221269 -0.00624093 0.0224106 -0.00482254 0.022978 -0.0039715 0.0232616 -0.00283679 0.0235453 -0.00170207 0.023829 -0.000283679 0.023829 0.000851036 0.0235453 0.00198575 0.0232616 0.00312046 0.0226943 0.00425518 0.0224106 0.00538989 0.0218432 0.00624093 0.0215596 0.00765932 0.0209922 0.00851036 0.0204249 0.00936139 0.0198575 0.0104961 0.0192901 0.0113471 0.0187228 0.0121982 0.0181554 0.0130492 0.0173044 0.0139002 0.016737 0.0147513 0.015886 0.0156023 0.0153186 0.0161697 0.0144676 0.0170207 0.0136166 0.0175881 0.0127655 0.0184391 0.0119145 0.0187228 0.0110635 0.0195738 0.00992875 0.0201412 0.00936139 0.0207085 0.007943 0.0209922 0.00709196 0.0215596 0.00624093 0.0221269 0.00482254 0.0224106 0.0039715 0.022978 0.00283679 0.0232616 0.00170207 0.0235453 0.000283679 0.023829z"/>
   </g>
   <line class="fil0 str0" x1="112.68" y1="28.7894" x2="115.173" y2= "27.8331" />
   <line class="fil0 str0" x1="89.7638" y1="79.7114" x2="92.4798" y2= "83.7175" />
   <g>
    <path class="fil1" d="M60.2363 36.9724l0.916849 0.023829 -0.00113471 0.023829 -0.00255311 0.0235453 -0.00340414 0.022978 -0.00453886 0.0226943 -0.00567357 0.0224106 -0.00680829 0.0218432 -0.00765932 0.0212759 -0.00879404 0.0209922 -0.00992875 0.0201412 -0.0104961 0.0198575 -0.0116308 0.0190065 -0.0124819 0.0184391 -0.0130492 0.0178717 -0.0141839 0.0173044 -0.0147513 0.0164534 -0.0156023 0.0156023 -0.0164534 0.015035 -0.0170207 0.0141839 -0.0175881 0.0133329 -0.0181554 0.0124819 -0.0190065 0.0116308 -0.0195738 0.0104961 -0.0198575 0.00992875 -0.0207085 0.00879404 -0.0209922 0.00765932 -0.0215596 0.00680829 -0.0218432 0.00567357 -0.0224106 0.00453886 -0.0226943 0.00340414 -0.022978 0.00255311 -0.0232616 0.00113471 -0.0235453 0 -0.0235453 -0.00113471 -0.0232616 -0.00255311 -0.0226943 -0.00340414 -0.0226943 -0.00482254 -0.0218432 -0.00567357 -0.0215596 -0.00680829 -0.0212759 -0.007943 -0.0204249 -0.00879404 -0.0201412 -0.00992875 -0.0195738 -0.0104961 -0.0190065 -0.0119145 -0.0181554 -0.0124819 -0.0175881 -0.0133329 -0.0170207 -0.0141839 -0.0161697 -0.015035 -0.0156023 -0.015886 -0.0147513 -0.0164534 -0.0139002 -0.0173044 -0.0133329 -0.0178717 -0.0121982 -0.0184391 -0.0116308 -0.0192901 -0.0104961 -0.0195738 -0.00964507 -0.0201412 -0.00851036 -0.0209922 -0.00765932 -0.0212759 -0.00680829 -0.0215596 -0.00567357 -0.0221269 -0.00453886 -0.0226943 -0.00340414 -0.022978 -0.00226943 -0.0232616 -0.00113471 -0.0235453 0 -0.023829zm0.948621 -1.22663l-0.031772 1.25046 -0.916849 -0.023829 0.031772 -1.25046 0.916849 0.023829zm0 0l-0.916849 -0.023829 0.00113471 -0.023829 0.00255311 -0.0235453 0.00340414 -0.022978 0.00453886 -0.0226943 0.00567357 -0.0224106 0.00680829 -0.0218432 0.00765932 -0.0212759 0.00879404 -0.0209922 0.00992875 -0.0201412 0.0104961 -0.0198575 0.0116308 -0.0190065 0.0124819 -0.0184391 0.0130492 -0.0178717 0.0141839 -0.0173044 0.0147513 -0.0164534 0.0156023 -0.0156023 0.0164534 -0.015035 0.0170207 -0.0141839 0.0175881 -0.0133329 0.0181554 -0.0124819 0.0190065 -0.0116308 0.0195738 -0.0104961 0.0198575 -0.00992875 0.0207085 -0.00879404 0.0209922 -0.00765932 0.0215596 -0.00680829 0.0218432 -0.00567357 0.0224106 -0.00453886 0.0226943 -0.00340414 0.022978 -0.00255311 0.0232616 -0.00113471 0.0235453 0 0.0235453 0.00113471 0.0232616 0.00255311 0.0226943 0.00340414 0.0226943 0.00482254 0.0218432 0.00567357 0.0215596 0.00680829 0.0212759 0.007943 0.0204249 0.00879404 0.0201412 0.00992875 0.0195738 0.0104961 0.0190065 0.0119145 0.0181554 0.0124819 0.0175881 0.0133329 0.0170207 0.0141839 0.0161697 0.015035 0.0156023 0.015886 0.0147513 0.0164534 0.0139002 0.0173044 0.0133329 0.0178717 0.0121982 0.0184391 0.0116308 0.0192901 0.0104961 0.0195738 0.00964507 0.0201412 0.00851036 0.0209922 0.00765932 0.0212759 0.00680829 0.0215596 0.00567357 0.0221269 0.00453886 0.0226943 0.00340414 0.022978 0.00226943 0.0232616 0.00113471 0.0235453 0 0.023829z"/>
   </g>
  </g>
 </g>
</svg>
