<?xml version="1.0" encoding="UTF-8"?>
<!DOCTYPE svg PUBLIC "-//W3C//DTD SVG 1.1//EN" "http://www.w3.org/Graphics/SVG/1.1/DTD/svg11.dtd">
<!-- Creator: CorelDRAW -->
<svg xmlns="http://www.w3.org/2000/svg" xml:space="preserve" width="105px" height="100px" style="shape-rendering:geometricPrecision; text-rendering:geometricPrecision; image-rendering:optimizeQuality; fill-rule:evenodd; clip-rule:evenodd"
viewBox="0 0 105 99.885"
 xmlns:xlink="http://www.w3.org/1999/xlink">
 <defs>
  <style type="text/css">
   <![CDATA[
    .str0 {stroke:black;stroke-width:0.923585;stroke-linecap:round;stroke-linejoin:round}
    .fil0 {fill:none;fill-rule:nonzero}
   ]]>
  </style>
 </defs>
 <g id="Layer_x0020_1">
  <metadata id="CorelCorpID_0Corel-Layer"/>
  <path class="fil0 str0" d="M101.149 38.1649l-51.8063 -35.684 -44.5532 8.32017 23.6296 16.3395m26.9774 12.2941l-9.41915 1.7887m-0.12258 14.3997l-7.21272 1.36984m-15.0988 12.33l20.4338 -3.88103m0.930363 1.2837l-21.515 4.08693m23.3071 -1.52236l-20.8066 3.6853m19.6461 -30.0911l8.81021 -1.6729m-0.973577 1.65059l-7.98435 1.51699m6.43911 1.10548l-2.36178 0.448518m2.00251 0.160427l-0.079931 0.0155343m-15.0109 12.4972l8.68876 -1.65003m-2.51882 4.27334l-2.24005 0.425357m-13.0884 12.6732l20.3259 -3.86041m2.46656 3.32603l-18.8632 3.58306m-5.97901 -22.5812l0.129923 -0.0245724m21.1814 -0.214373l-20.3307 3.86183m-0.321136 -4.2934l19.2925 -3.6644m-10.7336 -11.3047l0.129641 -0.0248549m21.1814 -0.214373l-20.3307 3.86183m-0.320854 -4.2934l23.4246 -4.43716m6.57016 -14.6034l0.439197 -0.0838852m-0.564319 3.91606l-20.3307 3.86183m-0.320854 -4.29312l19.2925 -3.66468m-37.9359 62.1852l0.00112977 0 0.00112977 -0.000282442m28.2905 -15.4948l0.277358 -0.0528166m-6.41369 1.59806l-0.277358 0.0525342m-0.573074 -11.2626l0.277358 -0.0525342m30.343 -21.2032l-0.277358 0.0525342m0.0980073 -10.33l-7.79313 13.122m-1.38848 2.33749l-14.4876 24.3939m-0.455014 0.765982l-3.55792 5.99059m-24.0092 1.17806l-2.26434 3.8124m11.5214 -19.3992l-6.8848 11.5923m16.1415 -27.1782l-6.25863 10.5379m13.2516 -22.3118l-3.9539 6.65687m-5.36696 26.2188l5.58387 -9.47338 9.45417 -16.0404 9.81231 -16.6474m6.31455 1.27607l-1.20094 2.03754m-3.01111 5.10909l-20.877 35.4202m19.2809 -44.7021l1.95309 -3.31389m-20.3367 55.9935l0.369434 -0.633517m31.6688 -42.2832l-3.1577 5.42062m-0.238946 0.41067l-6.48938 11.1398m-1.38227 2.37251l-14.4949 24.8693m-32.5486 3.69462l0.369151 -0.633799m6.43289 1.03826l-2.23948 3.84403m11.3982 -19.5659l-3.11449 5.34606m-2.85972 4.90912l-0.876699 1.50485m16.0096 -27.4819l-2.60298 4.46795m-3.47262 5.96065l-0.775585 1.33143m11.3208 18.9047l0.0629845 -0.106763m32.1416 -42.5422l-4.62188 7.84171m-1.90676 3.23537l-5.44124 9.23133m-1.38594 2.35133l-4.14512 7.03252 -3.06026 5.19213 -3.09387 5.24918m-0.455296 0.772196l-0.797616 1.3529 -2.74675 4.66085m-13.5394 -16.6144l-0.845913 1.43509m-6.42809 10.7198l-5.46016 9.45022m-14.8386 -18.546l27.6547 -46.9198m3.35654 6.29506l-6.32811 10.7367m-2.88994 4.90319l-6.32839 10.7367m-2.88966 4.90291l-8.02502 13.6154m10.1351 -44.9605l-0.277075 0.0525342m44.3863 40.8521l-0.804677 1.36589m1.83615 -3.11562l-0.804677 1.36561m-2.93965 2.09007l-0.144328 -0.199404m2.60072 -4.66085l0.20816 -0.0392594m-0.617135 2.03189l-0.277358 0.0525342m-5.98409 -34.9228l0.277358 -0.0528166m33.3247 6.63625l-4.64814 0.882631m-51.5535 47.5652l-0.00847325 -0.0141221 -0.0494273 -0.038977 -0.0423663 -0.0166641 -0.0347403 -0.00536639 -0.0177938 -0.000564884 -0.0177938 0.00141221 -0.0426487 0.00593128 -0.0573357 0.0104503 -4.0135 0.782929 -0.0177938 0.00508395 -0.0175114 0.0067786 -0.0169465 0.0087557 -0.0158167 0.0101679 -1.25743 2.10363m5.61297 -2.85859l0.0886867 0.122015m-5.71267 3.12098l-0.0175114 -0.021748 -0.0310686 -0.0804959 -0.00649616 -0.0816257 0.014687 -0.0836028 0.036435 -0.0900989 0.0149694 -0.026832m0.323113 0.850715l-0.336953 -0.465182m5.71549 -3.12211l1.01114 1.39611m-5.37797 3.58701l-1.01171 -1.39583m-5.71747 -71.5047l-0.944203 -0.696219m1.36645 -1.85254l0.944203 0.696784m-0.318877 2.62445l-1.04136 -0.768242m1.36589 -1.85197l1.04165 0.768242m-0.318594 2.62473l-1.04136 -0.768242m1.36589 -1.85197l1.04165 0.767959m-0.318594 2.62501l-1.04165 -0.768524m1.36617 -1.85197l1.04165 0.768242m-0.318594 2.62501l-1.04165 -0.768524m1.36617 -1.85197l1.04165 0.768242m-0.318594 2.62473l-1.04165 -0.768242m1.36617 -1.85197l1.04165 0.768242m-0.318312 2.62445l-1.04193 -0.767959m1.36589 -1.85225l1.04193 0.768242m-0.423945 2.54734l-0.936295 -0.690853m1.36589 -1.85197l0.745364 0.549349m7.92447 5.84542l0.752707 0.554998m0.00564884 0.00451907l1.04193 0.767959m0.00564884 0.00451907l1.04165 0.768242m0.00593128 0.00423663l1.04165 0.768242m0.00593128 0.00451907l1.04165 0.768242m-7.9561 62.7783l0.014687 0.0480151 0.0299388 0.178786c0.0158167,0.416884 -0.0341755,0.653853 -0.293175,0.986852l-0.119755 0.107893c-0.311533,0.187824 -0.505571,0.199686 -0.833203,0.0403892 -0.324526,-0.235839 -0.422815,-0.449365 -0.505006,-0.836028l-0.014687 -0.181328 0.000564884 -0.0177938m-12.1608 -78.2519l0.0273969 0.0663738 0.0033893 0.0714578 -0.0240076 0.0723051 -0.0426487 0.0539464 -0.0570532 0.0412365m67.953 21.378l0.0144045 0.00734349 0.0183587 0.0033893 0.0197709 -0.00197709m-82.1022 -30.0911l8.75428 5.55507 4.83484 3.06788m-2.56372 11.4923l6.08295 4.20641m-8.19957 -3.32293l-27.5463 -18.8846 49.0166 -9.73492 55.0601 37.6325 -8.56759 1.68731m-66.2798 -9.53637l5.53388 3.82652m9.05763 7.27966l-0.293175 -0.210137m1.92286 0.0864272l-0.436937 0.00225953 -0.419426 0.0214656 -0.398243 0.0403892 -0.375083 0.0595952m1.62969 -0.12371l0.0307862 -0.000564884 0.0225953 -0.00169465 0.0112977 -0.00225953m-10.9514 15.7148l-0.225953 -0.162122m0.601036 0.102809l-0.375083 0.0593128m3.61638 0.0528166l-0.0302213 0.00621372 -3.25599 -0.110717 3.132 0.104221m-15.2118 13.7467l-0.0214656 -0.0406716 -0.0200534 -0.0418014 -0.0186412 -0.0432136 -0.0175114 -0.0440609 -0.0160992 -0.0449082 -0.0144045 -0.046038 -0.0129923 -0.0463205 -0.0112977 -0.0471678m0.21861 -0.973577l0.026832 -0.0203358 0.0271144 -0.0175114 0.0282442 -0.0152519 0.0285266 -0.0127099 0.0299388 -0.0107328 0.0299388 -0.00762593 0.0104503 -0.00225953m-0.168335 1.4848l-0.0988546 -0.0706105m0.0988546 0.0706105l0.00423663 0.00282442 0.00451907 0.00141221 0.00451907 0.000564884 0.00423663 0m0.230473 0.142916l-0.00790837 -0.0542288 -0.0175114 -0.0516869 -0.0262671 -0.043496 -0.0225953 -0.0234427m0.0742822 0.172854l0.000847325 0.00706105 0.00112977 0.0067786 0.00169465 0.00621372 0.00282442 0.0067786 0.00310686 0.00536639 0.0033893 0.00536639 0.00423663 0.00423663 0.00395419 0.00367174m0.597082 0.427899l-0.597082 -0.427899m0.597082 0.427899l0.00423663 0.00254198 0.00451907 0.00169465 0.00451907 0.000847325 0.00423663 -0.000564884m0.230755 0.143198l-0.00762593 -0.0545113 -0.0177938 -0.051122 -0.0265495 -0.0437785 -0.0220305 -0.0234427m0.0739998 0.172854l0.000564884 0.00706105 0.00141221 0.00649616 0.00169465 0.00706105 0.00282442 0.00593128 0.00282442 0.00593128 0.00367174 0.00508395 0.00367174 0.00423663 0.00451907 0.00367174m0.5968 0.427899l-0.5968 -0.427899m0.5968 0.427899l0.00423663 0.00254198 0.00480151 0.00197709 0.00451907 0.000564884 0.00423663 -0.000564884m0.230473 0.14348l-0.00762593 -0.0545113 -0.0180763 -0.0514044 -0.0259846 -0.043496 -0.0223129 -0.0240076m0.0739998 0.173419l0.000564884 0.0067786 0.00141221 0.00649616 0.00197709 0.0067786 0.00225953 0.00621372 0.0033893 0.00564884 0.00367174 0.00536639 0.00367174 0.00451907 0.00423663 0.00310686m0.392029 0.281312l-0.392029 -0.281312m19.8983 -27.938l-0.0214656 -0.0403892 -0.0203358 -0.0415189 -0.019206 -0.0429312 -0.0175114 -0.0437785 -0.0160992 -0.0451907 -0.014687 -0.0454731 -0.0129923 -0.0466029 -0.0118626 -0.0471678m8.29842 -1.19784l-8.16426 1.55089m0.0788013 -1.33087l0.0262671 -0.0203358 0.0273969 -0.0177938 0.0279617 -0.0158167 0.0288091 -0.0129923 0.0296564 -0.0110152 0.0302213 -0.00819081 0.014687 -0.0033893m-0.164946 1.49016l-0.0988546 -0.0697631m0.0988546 0.0697631l0.00451907 0.00225953 0.00423663 0.00169465 0.00508395 0.000564884 0.0033893 0m0.231602 0.140374l-0.00790837 -0.0545113 -0.0180763 -0.0514044 -0.0265495 -0.0432136 -0.0203358 -0.0214656m0.07287 0.170595l0.000564884 0.0067786 0.00141221 0.0067786 0.00225953 0.00649616 0.00225953 0.00649616 0.00282442 0.00536639 0.00395419 0.00536639 0.00367174 0.00395419 0.00451907 0.00367174m0 0l0.252503 0.177938 1.87739 1.32126m1.63025 -0.125969c-0.43722,0.00310686 -0.820211,0.021748 -1.25517,0.0660914l-0.375083 0.0598777m1.63025 -0.125969l0.0310686 -0.000847325 0.0223129 -0.00197709 0.0107328 -0.00225953m1.76978 0.174267l-1.62686 -0.200251m1.7791 0.200534l-0.0282442 0.00593128 -0.107328 -0.00367174 -0.0166641 -0.00254198m-15.1217 13.9199l-0.021748 -0.0403892m8.06456 -1.48762l-8.04281 1.52801m0.0788013 -1.33087l0.0262671 -0.0203358 0.0273969 -0.0177938 0.0279617 -0.0158167 0.0288091 -0.0129923 0.0296564 -0.0110152 0.0299388 -0.00819081 0.014687 -0.0033893m-0.164664 1.48988l-0.0988546 -0.0694807m0.0988546 0.0694807l0.00423663 0.00254198 0.00451907 0.00169465 0.00451907 0.000564884 0.00395419 -0.000282442 0.252785 0.185564m1.76159 1.21987l-1.62432 -1.12468 -0.137267 -0.0951829m3.76043 1.37295l-0.437502 0.0033893 -0.419426 0.0220305 -0.398525 0.0412365 -0.3748 0.0595952m1.63025 -0.126251l0.0307862 -0.000564884 0.0223129 -0.00197709 0.0107328 -0.00225953m0.817387 0.0296564l-0.112694 -0.0601601 -0.247419 -0.0505571m0.360113 0.110717l0.0296564 0.0160992 0.0641143 0.0152519m0.858906 0.113259l-0.288656 -0.0443434 -0.286114 -0.0375648 -0.284136 -0.031351m0.972447 0.11919l-0.0968775 -0.0033893 -0.0166641 -0.00254198m-15.1219 13.9199l-0.0214656 -0.0403892 -0.0203358 -0.0415189c-0.0115801,-0.0257022 -0.021748,-0.0502746 -0.0310686,-0.0742822 -0.0186412,-0.04858 -0.0344579,-0.0960302 -0.0497098,-0.149694l-0.0115801 -0.0468853m22.3146 -3.86041l-22.1804 4.21318m0.0788013 -1.33087l0.0262671 -0.0203358 0.0273969 -0.0177938 0.0279617 -0.0155343 0.0288091 -0.0135572 0.0296564 -0.0104503 0.0299388 -0.00847325 0.0149694 -0.0033893m-0.164946 1.48988l-0.0988546 -0.0694807m0.0988546 0.0694807l0.00451907 0.00254198 0.00423663 0.00169465 0.00480151 0.000564884 0.00395419 -0.000282442m0.23132 0.140656l-0.00790837 -0.0545113 -0.0180763 -0.0514044 -0.026832 -0.0429312 -0.0200534 -0.021748m0.07287 0.170595l0.000847325 0.0067786 0.00112977 0.0067786 0.00197709 0.00649616 0.00254198 0.00621372 0.00282442 0.00564884 0.00395419 0.00536639 0.00367174 0.00395419 0.00451907 0.00367174m0.598212 0.421121l-0.598212 -0.421121m0.598212 0.421121l0.00451907 0.00254198 0.00480151 0.00197709 0.00423663 0.000282442 0.00395419 -0.000282442m0.23132 0.140656l-0.00819081 -0.0545113 -0.0177938 -0.051122 -0.0265495 -0.0432136 -0.0206183 -0.021748m0.0731524 0.170595l0.000847325 0.0067786 0.00112977 0.00649616 0.00225953 0.00706105 0.00225953 0.00593128 0.0033893 0.00593128 0.00310686 0.00480151 0.00395419 0.00451907 0.00423663 0.0033893m0.598777 0.421403l-0.598777 -0.421403m0.598777 0.421403l0.00423663 0.00225953 0.00451907 0.00169465 0.00451907 0.000564884 0.00423663 0m0.231037 0.140374l-0.00790837 -0.0545113 -0.0180763 -0.051122 -0.0265495 -0.043496 -0.0203358 -0.0214656m0.07287 0.170595l0.000847325 0.0067786 0.00112977 0.0067786 0.00197709 0.00649616 0.00282442 0.00649616 0.00282442 0.00536639 0.00367174 0.00536639 0.00395419 0.00423663 0.00423663 0.00367174m0.392877 0.276228l-0.392877 -0.276228m2.02341 0.150259l-0.437785 0.0033893 -0.419144 0.0220305 -0.398525 0.0409541 -0.375083 0.0595952m1.63054 -0.125969l0.0307862 -0.000564884 0.0220305 -0.00197709 0.0110152 -0.00225953m0.817387 0.0296564l-0.112977 -0.0604425 -0.260411 -0.0528166m0.373388 0.113259l0.0296564 0.0160992 0.0641143 0.0152519m0.57025 0.0689158l-0.286396 -0.0375648 -0.283854 -0.031351m4.20358 -4.82693l-1.48423 -1.05633m14.6164 -21.9438l-4.12026 0.852692m0 0l-0.128229 -0.00621372 -0.0553586 0.0112977 -0.0471678 0.0237251 -0.0203358 0.0237251m1.45853 4.03722l-20.3824 3.87143m-2.86396 -2.0381l0.336388 -0.0745646 0.309839 -0.0909463 0.282442 -0.107045 0.253068 -0.12258 0.221999 -0.137267 0.189801 -0.151106 0.156473 -0.163816 0.121732 -0.175961m0.992218 3.06139l-2.86396 -2.0381m1.87174 -1.02329l0.0375648 -0.0672211 0.0347403 -0.0652441 0.0254198 -0.0471678 0.0197709 -0.036435 0.0152519 -0.026832 0.00819081 -0.0141221m0 0l0.553868 -0.939401m-0.27877 0.37593l-0.0830379 0.0974424 -0.148564 0.137267 -0.0838852 0.051122 -0.0231602 0.00706105 -0.017229 -0.00395419 -0.00169465 -0.00847325 0.00367174 -0.0115801 0.00395419 -0.00790837m-0.033893 0.00564884l0.0155343 -0.00819081 0.00988546 -0.00367174 0.00790837 -0.00169465 0.00197709 0.00112977 0.000282442 0.00310686 -0.00169465 0.00367174m0.975836 3.61526l-0.0186412 0.00282442 -0.0310686 0.00282442m-0.297411 -4.25781l0.0152519 -0.0251373 0.00903814 -0.0132748 0.00225953 -0.00112977m-1.90902 1.09898l-0.107328 0.18274m-0.469136 0.795074l-0.10761 0.182457m2.28778 -1.84378l0.0209007 -0.0254198 0.0305037 -0.0336106m0.123992 -0.142068l-0.0305037 0.0386945 -0.0934882 0.103374m-0.435243 0.325655l-0.258717 0.130206 -0.290915 0.112977 -0.321136 0.0957478 -0.349098 0.0779539m-1.35911 1.20942l0.782646 -0.231602m0.469136 -0.795074l-0.673341 0.0451907m0 0l-0.578441 0.981485m33.1395 -17.5224l-20.3821 3.87171m-2.86368 -2.0381l0.335823 -0.0745646 0.310404 -0.0909463 0.282442 -0.107328 0.252503 -0.12258 0.222282 -0.137267 0.189801 -0.151106 0.15619 -0.163816 0.122297 -0.175961m0.991936 3.06167l-2.86368 -2.0381m1.87174 -1.02357l0.0369999 -0.0669387 0.0350228 -0.0652441 0.0254198 -0.0474502 0.0194885 -0.036435 0.0155343 -0.026832 0.00790837 -0.0138396m0 0l0.554151 -0.939684m-0.278488 0.37593l-0.0833203 0.0977249 -0.148564 0.137267 -0.0838852 0.0508395 -0.0231602 0.00706105 -0.0175114 -0.00395419 -0.00141221 -0.00847325 0.00367174 -0.0115801 0.00367174 -0.00790837m-0.033893 0.00564884l0.0158167 -0.00790837 0.00960302 -0.00423663 0.00819081 -0.00141221 0.00197709 0.00141221 0.000282442 0.00282442 -0.00197709 0.00367174m0.975836 3.61526l-0.0183587 0.00282442 -0.0310686 0.00310686m-0.297411 -4.25809l0.0152519 -0.0251373 0.00932058 -0.0132748 0.00169465 -0.000847325m-1.90874 1.09898l-0.10761 0.182457m-0.468571 0.795356l-0.10761 0.182457m2.28778 -1.84406l0.0209007 -0.0254198 0.0299388 -0.0333281m0.124557 -0.142351l-0.0307862 0.0386945 -0.0937707 0.103656m-0.435243 0.325373l-0.258717 0.129923 -0.290633 0.113259 -0.321136 0.0957478 -0.349098 0.0782364m-1.35911 1.20913l0.782929 -0.23132m0.468571 -0.795356l-0.672776 0.0451907m0 0l-0.578723 0.981485m31.3581 -20.4338l0.460663 0.0652441 0.453884 0.0480151 0.444846 0.0305037 0.432701 0.0127099 0.418296 -0.00480151 0.40135 -0.0225953 0.381579 -0.0403892 0.359831 -0.0576181m0.10761 -0.182457l-0.10761 0.182457m0.684074 -1.16027l-0.107893 0.182457m0.107893 -0.182457l-0.375083 0.0593128 -0.398525 0.0406716 -0.419144 0.0220305 -0.437502 0.00254198m-0.0991371 0.019206l0.0033893 -0.0033893 0.0067786 -0.00423663 0.0132748 -0.00480151 0.0409541 -0.00649616 0.0347403 -0.000282442m-0.0991371 0.019206l-0.0149694 0.0158167 -0.0271144 0.0160992 -0.0562059 0.0197709 -0.174549 0.0220305 -0.172572 -0.00706105 -0.162969 -0.0321984 -0.0932058 -0.0330457 -0.0802135 -0.0474502m-0.0937707 -0.031351l0.0615723 0.0144045 0.0321984 0.0169465m-0.0937707 -0.031351l-0.283289 -0.0316335 -0.286678 -0.0386945 -0.287808 -0.0451907m0 0l-0.128793 -0.00593128 -0.0550762 0.0110152 -0.0474502 0.02429 -0.0203358 0.0231602m0 0l-0.553868 0.939401m0 0l-0.00734349 0.0251373 0.00451907 0.0251373 0.0220305 0.0355877 0.055641 0.0454731 0.107328 0.0449082 0.0488624 0.0101679m1.78164 2.91169l-20.3827 3.87143m22.0429 -6.68879l-0.0886867 -0.063267m-21.9542 6.75205l-2.8634 -2.0381m26.1767 -5.92309l-0.578441 0.981485m-0.673059 0.0451907l0.0886867 0.0635494m0.584372 -0.10874l-0.673059 0.0451907m0.468571 -0.795356l0.782929 -0.23132m-0.675036 0.0488624l0.0889692 0.0629845m-22.6778 7.84341l-0.0183587 0.00282442 -0.0310686 0.00310686m-0.297411 -4.25809l0.0152519 -0.0251373 0.00932058 -0.0132748 0.00197709 -0.000847325m-2.68941 1.32663l-0.578723 0.981485m56.9688 11.1923l-0.0963127 -0.13303m-77.2199 63.2085l-0.0963127 -0.132748m0.0963127 0.132748l0.154213 -0.00903814m0 0l45.0602 -8.55883m32.0439 -54.3658l-32.0439 54.3658m32.1018 -54.5076l-0.0579006 0.141786m-77.4591 59.5506l-0.115519 0.284136m0.0477327 0.0663738l43.5353 -8.26905m-43.5353 8.26905l-0.0477327 -0.0663738m70.1506 -52.7697l-26.5676 44.5671m-36.4022 -4.06886l-7.06528 11.9874m61.8867 -58.5954l9.50191 -1.8048m-71.1895 61.119l-0.865119 1.46785m0.770501 1.06368l-0.770501 -1.06368m75.7094 -63.6912l-5.20653 9.35504m7.58384 -7.67592l-0.457838 -0.631822m-15.4547 9.34289l-2.86537 -3.95475m0.955783 6.96869c-0.0290915,-0.112977 -3.30965,-5.18733 -3.32745,-5.2972 -0.313228,-1.93247 1.06594,-3.29723 2.37166,-1.67149m2.98287 4.00813l-0.0144045 0.00112977 -0.0158167 -0.00112977 -0.0163816 -0.00367174 -0.0166641 -0.00649616 -0.0155343 -0.00847325 -0.0149694 -0.0101679 -0.0129923 -0.0118626 -0.0107328 -0.0127099m-56.1952 36.5432l0.0141221 -0.0384121 0.0141221 -0.0386945 0.00197709 -0.00395419 0.00225953 -0.00395419m27.6273 -5.0204l-0.277075 0.0525342m1.11593 0.74254c-0.552739,-0.0940531 -0.796768,-0.338365 -1.11593,-0.74254m1.77599 0.640296c-0.25561,0.0601601 -0.322266,0.0595952 -0.5807,0.0163816 -0.45106,-0.164099 -0.624196,-0.336953 -0.918218,-0.709211m0.247701 -2.48803l-0.247701 2.48803m1.74634 -1.7952l-0.247419 2.48803m-1.52858 -3.12833l-0.247419 2.48803m2.00138 -2.07679l0.00762593 0.0257022 0.00621372 0.026832 0.00508395 0.0279617 0.0033893 0.0282442 0.00197709 0.0293739 0.000847325 0.0296564 -0.000847325 0.0305037 -0.00225953 0.0307862m-1.52095 -0.92189l0.00762593 0.0257022 0.00649616 0.026832 0.00480151 0.0279617 0.00367174 0.0282442 0.00197709 0.0293739 0.000847325 0.0296564 -0.00112977 0.0305037 -0.00197709 0.0307862m-0.284984 -0.0237251l0.00282442 0.00847325 0.00197709 0.00903814 0.00169465 0.00903814 0.000847325 0.00988546 0.00112977 0.00960302 0 0.0101679 -0.000282442 0.00988546 -0.000564884 0.0101679m-0.0138396 -1.08034l0.268885 0.798745m-0.531273 -0.593693l0.268602 0.799028m1.4927 -0.311251l0.268885 0.798745m-1.77515 -1.56812l-0.000847325 0.0101679 -0.000282442 0.0101679 0.000282442 0.00988546 0.000564884 0.00988546 0.00112977 0.00932058 0.00169465 0.00960302 0.00225953 0.00903814 0.00254198 0.00847325m-0.284419 -0.0237251l-0.00282442 0.0307862 -0.000564884 0.0302213 0.000564884 0.0296564 0.00197709 0.0293739 0.0033893 0.0285266 0.00508395 0.0273969 0.00649616 0.0271144 0.00790837 0.0257022m1.75368 0.411518l-0.000847325 0.00988546 -0.000282442 0.0101679 0.000282442 0.00988546 0.000847325 0.00988546 0.000847325 0.00932058 0.00197709 0.00932058 0.00197709 0.00932058 0.00282442 0.00847325m-1.09616 -7.63384l-0.687181 6.91728m0.964539 -6.9701l-0.687463 6.91728m0.410105 -6.86447l0.277358 -0.0528166m1.49835 0.692547l-0.687181 6.91785m0.687181 -6.91785l-0.162969 -0.206465 -0.176809 -0.177091 -0.186694 -0.144328 -0.193755 -0.109023 -0.197427 -0.0717402 -0.197709 -0.0333281 -0.194885 0.00508395 -0.188106 0.0443434m-0.144328 0.017229l-0.13303 0.0355877m-7.11923 -1.71131l-0.25561 2.48436m1.49779 0.703563l-0.188671 0.0426487 -0.195167 0.00367174c-0.453884,-0.0802135 -0.630975,-0.218892 -0.951264,-0.542006l-0.162686 -0.207877m1.7534 -1.7808l-0.25561 2.48436m-1.49779 -0.703563l-0.277358 0.0525342m1.37154 0.736608l-0.0624196 0.00988546c-0.443151,0.00903814 -0.636341,-0.100267 -0.970188,-0.360396l-0.175961 -0.178221 -0.162969 -0.207877m0.255892 -2.48379l-0.255892 2.48379m2.00929 -2.06183l0.00790837 0.0259846 0.00593128 0.0265495 0.00508395 0.0276793 0.00310686 0.0282442 0.00254198 0.0296564 0.000282442 0.0293739 -0.00112977 0.0305037 -0.00225953 0.0305037m-1.51925 -0.931776l0.00790837 0.0257022 0.00649616 0.0265495 0.00480151 0.0279617 0.0033893 0.0282442 0.00197709 0.0293739 0.000282442 0.0293739 -0.000564884 0.0305037 -0.00282442 0.0305037m-0.284136 -0.0234427l0.00254198 0.0087557 0.00197709 0.00903814 0.00141221 0.00903814 0.00141221 0.00960302 0.000564884 0.00960302 0 0.00988546 0 0.0101679 -0.000847325 0.0104503m-0.0101679 -1.07921l0.265778 0.797898m-0.528449 -0.592845l0.265778 0.797616m1.49468 -0.298823l0.265778 0.797333m-1.77035 -1.57716l-0.000847325 0.0101679 -0.000564884 0.0101679 0.000282442 0.00988546 0.000564884 0.00960302 0.00112977 0.00988546 0.00169465 0.00903814 0.00225953 0.0087557 0.00225953 0.00847325m-0.284419 -0.0234427l-0.00225953 0.0307862 -0.00112977 0.0302213 0.000564884 0.0296564 0.00169465 0.0293739 0.00367174 0.0282442 0.00480151 0.0279617 0.00649616 0.0265495 0.00790837 0.0257022m1.7534 0.42225l-0.00112977 0.0101679 -0.000282442 0.0101679 0.000564884 0.0101679 0.000564884 0.00960302 0.00112977 0.00960302 0.00141221 0.00903814 0.00225953 0.00903814 0.00254198 0.0087557m-1.0713 -7.63355l-0.710906 6.90627m0.988264 -6.95908l-0.710624 6.90655m0.433266 -6.85373l0.277358 -0.0528166m1.49779 0.703563l-0.710906 6.90627m0.710906 -6.90627l-0.162686 -0.207877 -0.176244 -0.177938 -0.186129 -0.146022 -0.193755 -0.10987 -0.197709 -0.0737173 -0.197709 -0.0350228 -0.194885 0.00423663 -0.188671 0.0426487m-0.151106 0.0194885l-0.126251 0.0333281m-29.2333 15.9176l-0.277358 0.0530991m0 0l0.162686 0.207595c0.308991,0.275946 0.374235,0.366327 0.753555,0.507548l0.0412365 0.0104503m-0.508395 -2.44934l-0.171725 1.67064m-0.0660914 -1.99912l-0.211266 2.05222m7.45901 7.95977l-0.166076 1.67121m0 0l-0.277358 0.0525342m0 0l0.163534 0.20703c0.239228,0.239793 0.455861,0.429029 0.795074,0.511785m-0.754684 -2.77075l-0.203923 2.05194m-6.19932 -10.9003l-0.00706105 0.262106 0.0163816 0.297129c0.0810608,0.569403 0.175396,0.885737 0.446258,1.39413l0.151389 0.227931m0.708646 -0.281877l-0.708646 0.281877m-0.881783 -2.15757l0.257022 -0.0488624m-0.257022 0.0488624l-0.00960302 0.291197c0.0381296,0.682944 0.141221,1.08655 0.462922,1.69154l0.151389 0.227083m0 0l0.277075 -0.0522517m-0.881783 -2.15757l0.226801 -0.0900989m7.05992 9.74848l-0.00621372 0.261824 0.0177938 0.296846c0.0655265,0.455861 0.136984,0.718814 0.316335,1.14304l0.133877 0.249396 0.151954 0.226801m0.70554 -0.286678l-0.70554 0.286678m-0.157603 -1.43198l0.0240076 -0.0279617 0.0237251 -0.0282442 0 0 0.000282442 -0.000282442m-0.778974 -0.666563l0.256457 -0.0482975m-0.256457 0.0482975l-0.00847325 0.291762 0.0175114 0.297129c0.0816257,0.566861 0.179068,0.886867 0.450212,1.39216l0.151954 0.226236m0 0l0.277358 -0.0522517m-0.888562 -2.15503l0.225106 -0.0912287m28.6568 -3.3266l0.151954 0.226518m6.83198 -2.77301l-6.83198 2.77301m6.83198 -2.77301l-0.0087557 -0.588609c-0.0771066,-0.532968 -0.19206,-0.909463 -0.450495,-1.39216m-7.2613 2.59931l0.266343 -0.0505571m-0.266343 0.0505571l-0.0087557 0.291197 0.0175114 0.297411 0.0432136 0.297411c0.103091,0.443716 0.19206,0.69283 0.407564,1.09474l0.151671 0.226518m0 0l0.277358 -0.0528166m-0.888562 -2.15447l0.272274 -0.110717m1.90846 -0.774738l4.65125 -1.88756m-11.6589 -7.71885l4.93934 -1.96184m-6.62241 4.22957c0.117496,0.273969 0.214656,0.451342 0.379884,0.699891m6.84667 -2.71935l-6.84667 2.71935m6.84667 -2.71935l0.00960302 -0.29148 -0.0163816 -0.296846 -0.0426487 -0.297411 -0.0669387 -0.293175 -0.203358 -0.553021 -0.133595 -0.250808 -0.150824 -0.227366m-7.12459 2.77188l0.266625 -0.0505571m-0.266625 0.0505571l-0.00903814 0.29148 0.0163816 0.296846 0.0420838 0.297694 0.0669387 0.293175 0.0906638 0.283572c0.125122,0.298259 0.218328,0.478174 0.397678,0.747341m0 0l0.277358 -0.0525342m-0.882066 -2.15757l0.272556 -0.107893m1.91298 -0.759768l4.66142 -1.85141m0 0l0.27764 -0.0528166m14.5991 -41.7l-0.277075 0.0522517m0 0l-0.00847325 0.291762c0.0401067,0.682097 0.144328,1.08627 0.467724,1.68928l0.152236 0.226236m0 0l0.277075 -0.0522517m-0.611487 -2.20728c-0.0220305,0.782364 0.0884043,1.28991 0.459815,1.98048l0.151671 0.226801m-0.611487 -2.20728l2.94615 -1.19614m-2.33466 3.40342l1.76583 -0.71712m2.11097 -0.856364l0.577876 -0.234992m-5.34323 -0.346556l3.23707 -1.31392m2.09007 -0.757791l0.221152 -0.0782364m-0.205053 2.4965l0.0033893 -0.00141221 0.00395419 -0.00141221 0.0033893 -0.00141221 0.00423663 -0.00141221 0.00423663 -0.00141221 0.00367174 -0.00169465 0.00451907 -0.00169465 0.00451907 -0.00141221m0.173137 -2.48464l0.0132748 -0.00480151 0.0129923 -0.00451907 0.0127099 -0.00451907 0.0118626 -0.00451907 0.0118626 -0.00451907 0.0112977 -0.00451907 0.0110152 -0.00451907 0.0107328 -0.00395419m-0.309274 0.0643967l0.00451907 -0.00141221 0.00423663 -0.00141221 0.00423663 -0.00169465 0.00423663 -0.00169465 0.00367174 -0.000847325 0.00395419 -0.00169465 0.00367174 -0.00141221 0.0033893 -0.00169465m0.277358 -0.0525342l0.288373 -0.116931m-0.565731 0.169465l0.51122 -0.207312m3.14386 4.49337l-0.060725 0.0248549m0 0l-1.82825 -2.5126m1.55089 2.5657l0.277358 -0.0530991m-2.07199 -2.41375l1.79464 2.46685m-36.4361 3.04105l-0.254198 0.0482975m-0.00536639 0.392029l-0.0033893 -0.100832 0.0087557 -0.291197m0 0l0.296846 -0.120603m36.468 7.77139l-0.277075 0.0525342m0 0l0.163251 0.20703 0.176809 0.177091 0.186412 0.144045 0.194038 0.109023 0.197709 0.0720227 0.197427 0.0336106 0.194602 -0.00564884 0.0553586 -0.0087557m-1.08853 -0.780952l0.163534 0.20703 0.176809 0.176809 0.186412 0.144328 0.194038 0.109023 0.197427 0.0717402 0.197709 0.0333281 0.194602 -0.00508395 0.188389 -0.0443434m-1.49892 -0.69283l0.684074 -6.88198m0.814845 7.57481l0.683792 -6.88198m-2.45979 6.24168l0.684074 -6.88198m-0.740562 -5.24325c0.0564884,-0.419709 0.105916,-0.623067 0.295717,-1.00295l0.125122 -0.18387m1.40713 3.69942l-1.82796 -2.5126m1.69465 3.85505l0.133313 -1.34245m1.36532 2.03528l0.260694 -2.62021m-1.48932 -2.04657l1.48932 2.04657m-1.90338 0.637471l0.277358 -0.0525342m-2.10532 -2.45979l0.277358 -0.0528166m-0.277358 0.0528166l1.82796 2.51232m-1.26986 -3.84855l-0.132465 0.143198c-0.23132,0.338365 -0.293739,0.516586 -0.388075,0.913699l-0.0375648 0.279335m1.32917 5.03509l0.541158 -0.924997m-0.75073 0.772761l0.541158 -0.925279m1.16705 1.77063l0.540876 -0.925279m-1.49835 -0.69283l0.0194885 -0.036435 0.0183587 -0.0369999 0.0158167 -0.0384121 0.0141221 -0.0384121 0.0118626 -0.0392594 0.00932058 -0.0395419 0.00762593 -0.0395419 0.00508395 -0.0392594m1.39667 1.00069l0.0200534 -0.0361526 0.0180763 -0.0372823 0.0160992 -0.0384121 0.0138396 -0.0386945 0.0118626 -0.038977 0.00932058 -0.0395419 0.00762593 -0.0395419 0.00508395 -0.0392594m-1.80989 -0.537487l0.00649616 -0.012145 0.00593128 -0.012145 0.00536639 -0.0129923 0.00480151 -0.0129923 0.00395419 -0.0127099 0.00310686 -0.0132748 0.00254198 -0.0132748 0.00169465 -0.0129923m0 0l0.133313 -1.34273m-0.532968 2.62558l0.00169465 -0.0135572 0.00254198 -0.0127099 0.0033893 -0.0132748 0.00395419 -0.0129923 0.00451907 -0.0129923 0.00508395 -0.0127099 0.00621372 -0.0124274 0.0067786 -0.012145m-0.311251 0.155343l0.00480151 -0.038977 0.00734349 -0.0398243 0.00988546 -0.0395419 0.0115801 -0.0386945 0.0141221 -0.038977 0.0158167 -0.0384121 0.0180763 -0.0369999 0.0200534 -0.0361526m1.67403 0.947875l0.00197709 -0.0135572 0.00225953 -0.0127099 0.0033893 -0.0132748 0.00395419 -0.0129923 0.00451907 -0.0129923 0.00536639 -0.0127099 0.00593128 -0.0124274 0.0067786 -0.0118626m-28.8057 43.4113l-1.03995 0.197709m1.10378 -0.43722l0.0240076 0.0401067 0.0152519 0.0395419 0.00564884 0.0381296 -0.00395419 0.0353052 -0.0135572 0.0310686 -0.0225953 0.0251373 -0.0307862 0.0186412 -0.0378472 0.0115801m-2.39313 -3.64887l2.45696 3.40936m-4.41852 -4.16263l0.836593 -0.159297m-0.900707 0.398243c-0.0468853,-0.0765417 -0.0694807,-0.136137 -0.00451907,-0.209007l0.0305037 -0.0186412 0.0381296 -0.0112977m2.96253 4.43942l-1.45627 -2.02087 -1.57038 -2.1796m3.37885 4.3609l-0.0429312 0.00395419 -0.0474502 -0.00395419 -0.0491449 -0.0118626 -0.0494273 -0.0189236 -0.0480151 -0.0251373 -0.0440609 -0.0307862 -0.038977 -0.0353052 -0.0321984 -0.0384121m-24.8176 4.71395l-3.02665 -4.20019m0 0l-0.0321984 -0.0384121 -0.038977 -0.0350228 -0.0440609 -0.0310686 -0.0477327 -0.0254198 -0.0494273 -0.0186412 -0.0494273 -0.0118626 -0.0471678 -0.00395419 -0.0432136 0.00395419m0 0l-1.03967 0.197427m0 0l-0.0378472 0.0112977 -0.0234427 0.0132748m0.273686 0.598777l2.75042 3.81607m0 0l0.0321984 0.0384121 0.0386945 0.0353052 0.0440609 0.0307862 0.0474502 0.0257022 0.0497098 0.0186412 0.0494273 0.0118626 0.0471678 0.00367174 0.0429312 -0.00367174m0 0l1.04023 -0.197709m0 0l0.0378472 -0.0112977 0.0307862 -0.0186412 0.0225953 -0.0254198 0.0132748 -0.0310686 0.00451907 -0.0350228 -0.00564884 -0.0384121 -0.0152519 -0.0395419 -0.02429 -0.0398243m27.7708 -46.7591l-2.18215 -3.02834m-25.8316 44.0776l-0.00141221 -0.00112977m0 0l-0.0361526 -0.148 -0.0177938 -0.150824 0.00169465 -0.148282 0.0209007 -0.140656 0.0395419 -0.127381 0.0559235 -0.109023 0.0711753 -0.0869921 0.0833203 -0.0624196m0 0l0.00141221 0.00112977m27.8248 -39.8952l0.0112977 -0.0276793 0.00395419 -0.0353052 -0.00564884 -0.0378472 -0.0152519 -0.0401067 -0.0240076 -0.0395419m-9.26127 33.2358l3.03399 4.18776m0 0l0.0324808 0.0378472c0.0768242,0.0708929 0.127946,0.0980073 0.229625,0.121732l0.0158167 0.00225953m0.762875 -1.01171l-2.61908 -3.61413m0 0l-0.0319159 -0.0381296 -0.0392594 -0.0353052 -0.0440609 -0.0310686 -0.0477327 -0.0254198 -0.0494273 -0.0186412 -0.0494273 -0.0115801 -0.0471678 -0.00395419 -0.0432136 0.00395419m0 0l-1.03995 0.197427m0 0l-0.0378472 0.0115801 -0.0310686 0.0189236 -0.0223129 0.0251373 -0.0135572 0.0307862 -0.00395419 0.0350228 0.00564884 0.0384121 0.0155343 0.0395419 0.0240076 0.0395419m25.9567 -43.3862l-0.558952 0.165511m-0.0194885 0.815974l0.578441 -0.981485m-1.05916 1.01368l0.480716 -0.0321984m-0.557823 0.0638318l0.00564884 -0.00734349 0.0169465 -0.0118626 0.0237251 -0.00790837 0.0307862 -0.00451907m-13.7145 56.2042l-0.810608 0.153931m-1.94263 -4.6038l2.65778 3.63729m-3.01083 -3.79602l0.043496 -0.00423663 0.0471678 0.00395419 0.0494273 0.0115801 0.0491449 0.0186412 0.0482975 0.0251373 0.0443434 0.0305037 0.0386945 0.0350228 0.0324808 0.0381296m-1.39329 0.0384121l1.04023 -0.197144m-1.10294 0.435243l-0.02429 -0.0395419 -0.0152519 -0.0395419 -0.00564884 -0.0378472 0.0033893 -0.0353052 0.0135572 -0.0302213 0.0225953 -0.0254198 0.0307862 -0.0186412 0.0375648 -0.0115801m2.98287 4.40637l-3.04557 -4.16828m3.39862 4.32729l-0.0432136 0.00367174 -0.0471678 -0.00367174 -0.0497098 -0.0115801 -0.0497098 -0.0189236 -0.0474502 -0.0248549 -0.0443434 -0.0310686 -0.038977 -0.0347403 -0.0324808 -0.0378472m27.1477 -49.8837l1.7839 2.44171m0 0l0.0245724 0.0392594 0.0152519 0.0395419 0.00564884 0.0381296 -0.00395419 0.0347403 -0.0110152 0.0265495m-53.78 51.9778l-3.04557 -4.16828m0 0l-0.0319159 -0.0378472 -0.0392594 -0.0350228 -0.0443434 -0.0307862 -0.0480151 -0.0254198 -0.0491449 -0.0183587 -0.0494273 -0.0115801 -0.0474502 -0.00367174 -0.043496 0.00367174m0 0l-1.03967 0.197709m0 0l-0.0378472 0.0112977 -0.0305037 0.0186412 -0.0225953 0.0251373 -0.0135572 0.0307862 -0.00395419 0.0350228 0.00593128 0.0378472 0.0152519 0.0395419 0.0245724 0.0395419m0 0l1.52236 2.08414 1.27579 1.74606 0.246854 0.338083m0 0l0.00960302 0.0115801 0.00960302 0.0118626m0.25674 0.137267l0.0169465 0.00112977 0.0169465 0.000847325 0.021748 -0.00197709 0.021748 -0.00197709m0 0l1.03967 -0.197709m0 0l0.0381296 -0.0112977 0.0305037 -0.0186412 0.0225953 -0.0251373 0.0135572 -0.0307862 0.00395419 -0.0347403 -0.00621372 -0.0381296 -0.0149694 -0.0395419 -0.0245724 -0.0392594m24.4304 -51.3338l-0.0321984 -0.0378472 -0.038977 -0.0350228 -0.0443434 -0.0307862 -0.0477327 -0.0251373 -0.0497098 -0.0186412 -0.0494273 -0.0115801 -0.0471678 -0.00367174 -0.0432136 0.00395419m-24.3513 45.7782l-0.00141221 -0.00112977m0 0l-0.0369999 -0.147435c-0.00621372,-0.0505571 -0.012145,-0.100832 -0.0183587,-0.151389m0 0c0,-0.0494273 0.000282442,-0.0988546 0.000564884,-0.148282l0.0203358 -0.141221c0.0127099,-0.0426487 0.0257022,-0.0852974 0.0384121,-0.127946m-0.0384121 0.127946l-0.0203358 0.141221c0.0067786,-0.0471678 0.0135572,-0.0940531 0.0203358,-0.141221zm0.0384121 -0.127946c0.0186412,-0.0367174 0.0369999,-0.0731524 0.055641,-0.10987m0 0c0.0234427,-0.0293739 0.0468853,-0.0590303 0.0706105,-0.0884043m0 0l0.0539464 -0.0412365 0.0288091 -0.021748m0 0l0.00141221 0.000564884m8.89353 -15.0214c-0.02429,-0.265778 0.0327632,-0.524777 0.263518,-0.701303m0 0l0.00169465 0.000847325m8.9455 -14.744l-0.00141221 -0.000847325m0 0l-0.0369999 -0.147435 -0.0183587 -0.151106 0.000564884 -0.148847 0.0200534 -0.140656 0.0386945 -0.128229 0.055641 -0.10987 0.0706105 -0.0884043 0.0830379 -0.0629845m0 0l0.00112977 0.000564884m5.82113 -13.3564l-0.0559235 0.0101679m1.06565 47.2172l3.03427 4.18776m0 0l0.0321984 0.0381296 0.038977 0.0350228 0.0440609 0.0307862 0.0477327 0.0254198 0.0494273 0.0186412 0.0494273 0.0118626 0.0471678 0.00367174 0.043496 -0.00367174m0 0l1.03967 -0.197427m0 0l0.0381296 -0.0118626 0.0305037 -0.0186412 0.0225953 -0.0251373 0.0132748 -0.0310686 0.00423663 -0.0347403 -0.00593128 -0.0381296 -0.0149694 -0.0398243 -0.02429 -0.0395419m0 0l-2.45385 -3.38704m-1.13146 -0.92302l-0.841394 0.160145m0 0l-0.0375648 0.0112977 -0.0307862 0.0186412 -0.0225953 0.0257022 -0.0135572 0.0305037 -0.00395419 0.0353052 0.00564884 0.0378472 0.0152519 0.0398243 0.02429 0.0395419m29.1107 -47.196l-0.0324808 -0.0381296 -0.0386945 -0.0350228 -0.0440609 -0.0307862 -0.0480151 -0.0254198 -0.0494273 -0.0189236 -0.0491449 -0.0115801 -0.0471678 -0.00367174 -0.043496 0.0033893m3.38648 4.34791l-3.03399 -4.18776m-0.352487 -0.160145l-0.307014 0.0584655m3.72343 4.46908l0.0112977 -0.0271144 0.00423663 -0.0353052 -0.00593128 -0.0381296 -0.0152519 -0.0398243 -0.02429 -0.0392594m-58.3547 47.7601l1.03967 -0.197427m-1.10096 0.221999l0.0115801 -0.0067786 0.0118626 -0.00649616 0.0189236 -0.00564884 0.0189236 -0.00564884m2.97044 4.42643l-1.50485 -2.07708 -1.2837 -1.77176m3.14132 4.0087l-0.043496 0.00395419 -0.0471678 -0.00395419 -0.0494273 -0.0115801 -0.0491449 -0.0189236 -0.0480151 -0.0251373 -0.0443434 -0.0310686 -0.0386945 -0.0350228 -0.0324808 -0.0381296m1.39244 -0.0375648l-1.03967 0.197427m1.10322 -0.436373l0.02429 0.0398243 0.0152519 0.0392594 0.00564884 0.0381296 -0.00395419 0.0355877 -0.0135572 0.0305037 -0.0225953 0.0251373 -0.0305037 0.019206 -0.0381296 0.0112977m-2.97044 -4.42671l3.03399 4.18776m-3.38676 -4.34734l0.043496 -0.00395419 0.0471678 0.00395419 0.0494273 0.0115801 0.0494273 0.0189236 0.0477327 0.0251373 0.0440609 0.0307862 0.038977 0.0350228 0.0324808 0.0381296m-11.6812 -14.2379l1.03967 -0.197144m-1.10322 0.436373l-0.0240076 -0.0398243 -0.0152519 -0.0398243 -0.00564884 -0.0378472 0.00367174 -0.0350228 0.0135572 -0.0310686 0.0228778 -0.0251373 0.0305037 -0.0186412 0.0378472 -0.0118626m1.58902 2.51995l-1.65257 -2.28072m4.48998 3.91069l0.0240076 0.0398243 0.0155343 0.0398243 0.00536639 0.0381296 -0.00367174 0.0350228 -0.0132748 0.0307862 -0.0225953 0.0251373 -0.00960302 0.0067786m-3.02975 -4.4027l3.03399 4.1872m-3.38676 -4.34706l0.0437785 -0.00423663 0.0471678 0.00423663 0.0491449 0.0115801 0.0494273 0.0186412 0.0480151 0.0254198 0.0437785 0.0305037 0.0392594 0.0355877 0.0321984 0.0381296m6.23603 -11.0248l-0.0361526 -0.00367174 -0.0553586 -0.000847325 -0.0528166 0.00536639 -0.0468853 0.0101679m21.6099 -35.9057l1.52434 2.10334m-23.115 32.9861l0.480998 -0.0324808m8.71785 -14.7912l-0.558952 0.165228m0 0l0.578723 -0.981485m0 0l0.480434 -0.0321984m8.71813 -14.7915l-0.559235 0.165228m0 0l0.578723 -0.981485m1.76159 -3.77201l1.04023 -0.197709m-21.2577 36.0658l-0.559235 0.165228m0 0l0.578441 -0.981485m20.1048 -34.9928l0.00225953 -0.00367174 0.0225953 -0.0254198 0.0310686 -0.0186412 0.0375648 -0.0112977m-10.8079 20.2172l-0.00451907 -0.000847325 -0.0502746 -0.00367174 -0.0488624 0.000847325 -0.046038 0.00536639 -0.0418014 0.00932058m9.37396 -15.6546l-0.0559235 -0.000564884 -0.0525342 0.00508395 -0.0471678 0.0101679m2.82131 -4.78598l0.0429312 -0.00367174 0.0477327 0.00367174 0.0488624 0.0115801 0.0497098 0.0189236 0.0474502 0.0254198 0.0443434 0.0307862 0.0392594 0.0353052 0.0319159 0.0381296m26.4357 -2.9309l0.0129923 0.0570532m-0.356159 -0.294022l0.216633 0.953524m-41.326 8.44501l0.157603 0.0663738 0.15845 0.0358701 0.156755 0.00451907 0.152236 -0.0262671 0.145458 -0.0573357 0.136137 -0.0867096 0.123992 -0.115236 0.110435 -0.140938 -0.477609 -2.10447 -2.66371 -11.7388m-0.31577 -0.101961l0.158167 0.0355877 0.157603 0.0663738m2.00025 14.163l-3.10827 -13.697m-0.310121 -0.0932058l0.110435 -0.141503 0.259564 -0.201663m2.77104 14.1862l0.277358 -0.0528166m-0.277358 0.0528166l-3.14104 -13.843m3.14104 13.843l0.157603 0.0660914 0.15845 0.0358701 0.245724 -0.0067786m42.8733 -8.13037l-3.63729 17.1784m-1.4509 -1.00323l3.637 -17.1784m-2.1861 18.1816l-0.0488624 0.17003 -0.0689158 0.149412 -0.0878394 0.124839 -0.103374 0.0957478c-0.708364,0.390899 -1.11423,-0.569403 -1.17213,-1.16366l0.00395419 -0.194602 0.0262671 -0.184999m-0.18387 1.0151l-0.0627021 -0.188106 -0.0415189 -0.196015 -0.0194885 -0.198557 0.00395419 -0.194885 0.0262671 -0.184999m0 0l3.68219 -17.3914m-40.7346 9.18444l-2.84475 13.436 0.923302 4.9416m-2.75098 -5.42288l3.18171 -15.0279m42.0756 -6.40465l-0.0299388 -0.0974424 -0.0214656 -0.136984 -0.000282442 -0.00508395m-0.00593128 -0.0273969l0.00762593 0.0940531 0.0296564 0.128229 0.0189236 0.0525342m3.32265 48.8703l0.00423663 -0.0067786m0.106198 -0.0276793l-0.0302213 -0.00932058 -0.0279617 0.000847325 -0.0271144 0.012145 -0.0209007 0.0240076m0.173702 0.00141221l-0.0675036 -0.0290915m0.906356 -1.39357l-0.770784 -1.06396m-0.406716 -0.0471678l0.0415189 -0.0454731 0.0474502 -0.0316335 0.0522517 -0.0166641 0.0547937 -0.00141221 0.0562059 0.0141221 0.0550762 0.0290915 0.0522517 0.043496 0.0471678 0.055641m-0.406716 -0.0471678l-0.0686334 0.0793661m-1.33284 1.90281l-0.0149694 -0.156755 -0.0310686 -0.155625 -0.0265495 -0.0934882m1.65341 1.22749l-0.0257022 -0.0999844m0 0l-0.00903814 -0.0454731 -0.00254198 -0.0420838 0.00508395 -0.0418014 0.0135572 -0.0353052m-1.87089 0.0488624c0.106481,-0.275663 0.113542,-0.431289 0.0858623,-0.723333l-0.0310686 -0.155625 -0.0463205 -0.149977 -0.0598777 -0.141503m0.0514044 1.17044l-0.0254198 0.067786c-0.0386945,0.188389 -0.021748,0.30532 0.0567708,0.480151l0.0409541 0.0663738m-0.184717 -2.93457l-0.0446258 0.123145 -0.0344579 0.160709 -0.0135572 0.172572 0.00762593 0.178221 0.0290915 0.179068 0.0491449 0.173419 0.067786 0.162686m0.894493 2.84843l-0.770784 -1.06368m0.749883 1.14332l0.0124274 -0.00367174 0.0104503 -0.00621372 0.00734349 -0.0087557 0.00451907 -0.0101679 0.00141221 -0.0115801 -0.00197709 -0.0129923 -0.00508395 -0.0129923 -0.00819081 -0.0132748m0.123427 0.279053l0.0502746 -0.0152519 0.0409541 -0.0251373 0.0305037 -0.0336106 0.0177938 -0.0409541 0.00564884 -0.0468853 -0.00819081 -0.0508395 -0.0200534 -0.0528166 -0.0321984 -0.0530991m0.838287 -1.42266l0.017229 0.0782364 0.00932058 0.0720227 0.000847325 0.0624196 -0.00762593 0.0508395 -0.0135572 0.0330457m-2.66823 1.54806l-0.0641143 0.00706105 -0.0547937 -0.00536639 -0.0426487 -0.0175114 -0.0299388 -0.0288091 -0.0149694 -0.0392594 -0.000282442 -0.0477327 0.014687 -0.0545113 0.0290915 -0.0595952m0.162969 0.245724l1.59467 -0.302778m-1.45006 0.502182l1.59438 -0.302778m0.997584 -1.69296l0.0590303 -0.0361526 0.04858 -0.0386945 0.0367174 -0.0403892 0.0240076 -0.0401067 0.0104503 -0.0392594 -0.0033893 -0.0369999 -0.017229 -0.0333281 -0.0307862 -0.0296564 -0.0426487 -0.0237251m-0.141786 0.349663l0.0570532 -0.031351m0.963127 -1.50146l0.0152519 -0.0361526 0.00508395 -0.0471678 -0.00734349 -0.0505571 -0.0206183 -0.0530991 -0.0319159 -0.0525342m-3.70479 3.69519l0.0276793 0.0254198 0.0429312 0.0175114 0.0545113 0.00536639 0.0641143 -0.0067786m2.24767 -4.89669l0.0194885 -0.00508395m0.130771 0.95663l-0.000564884 0.195732 -0.0234427 0.186976 -0.0454731 0.172007 -0.0666563 0.152519 -0.0852974 0.128511 -0.101397 0.099702 -0.114671 0.0689158 -0.123992 0.0353052 -0.130206 0.000847325 -0.1319 -0.033893 -0.129923 -0.0669387 -0.123992 -0.0982897 -0.113824 -0.127381 -0.100549 -0.151389 -0.0844501 -0.171725 -0.0658089 -0.186129 -0.0446258 -0.19545m-3.5373 -29.6183l5.00176 29.4107m-6.60405 -33.6569l0.124274 -0.0355877 0.130206 -0.000847325 0.132183 0.033893 0.129358 0.0672211 0.0367174 0.0251373m5.25652 34.8539l-0.021748 0.00367174 -0.130206 0.000847325 -0.1319 -0.0336106 -0.129923 -0.0672211 -0.12371 -0.0985722 -0.114106 -0.126816 -0.100549 -0.151671 -0.0844501 -0.17116 -0.0658089 -0.186412 -0.0443434 -0.19545m0 0l-5.55478 -32.6619m0 0c-0.0514044,-0.462922 -0.0245724,-0.940814 0.415189,-1.20264l0.102244 -0.0319159m-40.4965 16.5254l-1.26816 -7.4559m0 0l-0.0225953 -0.198839 0.000564884 -0.19545m1.61585 -17.8187l-0.0110152 0.0836028 0 0.0881218 0.012145 0.0889692 0.0225953 0.0869921 0.0333281 0.0816257 0.0423663 0.0723051 0.0491449 0.0610074 0.0553586 0.0468853m-0.203923 -0.609509l0.574487 -2.71342m0.963409 4.24567l-1.33397 -0.922737m65.22 11.3392l-0.880089 1.49327m-0.019206 0.0508395l0.00141221 -0.00706105 0.00197709 -0.0067786 0.00225953 -0.0067786 0.00225953 -0.00649616 0.00254198 -0.00593128 0.00282442 -0.00649616 0.00310686 -0.00564884 0.00282442 -0.00564884m-0.141503 0.0319159l-0.00310686 0.00564884 -0.00282442 0.00621372 -0.00254198 0.00621372 -0.00197709 0.0067786 -0.00225953 0.00649616 -0.00197709 0.00706105 -0.00141221 0.0067786m1.89095 1.45627l-0.961432 -5.13818m1.89236 4.96759l0.0183587 0.163251c-0.0107328,0.290068 -0.0494273,0.534662 -0.348251,0.645944l-0.107045 0.000847325 -0.108458 -0.0358701c-0.242618,-0.162404 -0.311816,-0.32622 -0.385533,-0.603578m0.144328 -4.37389l0.7866 4.2033m6.16147 0.601883l0.000564884 0.00225953 0.0067786 0.0259846 0.00988546 0.0240076 0.0127099 0.0220305 0.014687 0.0180763 0.0166641 0.0141221m0.290633 0.200816l-0.290633 -0.200816m0.375083 0.19545l-0.000847325 0.000847325 -0.014687 0.0110152 -0.0166641 0.00621372 -0.0175114 0.00112977 -0.0175114 -0.00423663 -0.017229 -0.00960302m-13.3536 -9.29827l-6.11035 1.16055m-37.9873 59.2924l-0.0550762 0.0804959 -0.0706105 0.0810608 -0.0830379 0.0779539 -0.092076 0.0717402 -0.0980073 0.0635494 -0.0999844 0.0519693 -0.0980073 0.0395419 -0.0926409 0.0245724m0.68944 -0.490884l1.35911 -2.30529m-5.09864 3.37546l3.05009 -0.579288m1.67996 -3.23537l0.00225953 -0.000282442m0.40022 0.173702l0.00254198 0.00423663 0.0197709 0.0505571 0.000564884 0.0624196 -0.019206 0.0708929 -0.0375648 0.0776715m-5.09864 3.37546l-0.0833203 0.0087557 -0.0711753 -0.00706105 -0.0559235 -0.0225953 -0.0355877 -0.0330457m1.00239 -2.98513l0.00367174 -0.000847325m2.97948 1.96975l-0.0550762 0.0804959 -0.0706105 0.0810608 -0.0830379 0.0779539 -0.092076 0.0717402 -0.0980073 0.0635494 -0.0999844 0.0519693 -0.0980073 0.0395419 -0.0926409 0.0245724m1.70058 0.904944l-0.0550762 0.0804959 -0.0700456 0.0810608 -0.0833203 0.0779539 -0.092076 0.0720227 -0.0980073 0.0635494 -0.099702 0.0519693 -0.0985722 0.0392594 -0.0923585 0.02429m1.03713 -4.19172l-1.35911 2.30529m1.393 -2.57107l0.00254198 0.00423663 0.0197709 0.0505571 0.000564884 0.0624196 -0.019206 0.0708929 -0.0375648 0.0776715m-5.09864 3.37546l-0.0833203 0.0087557 -0.0711753 -0.00706105 -0.0559235 -0.0225953 -0.0355877 -0.0330457m0.987699 -0.0869921l-0.741692 0.140938m6.10978 -1.97992l-1.35911 2.30557m-0.689158 0.490601l-3.05037 0.579571m5.13253 -3.64096l0.00282442 0.00395419 0.0200534 0.0508395 0 0.0621372 -0.0189236 0.0711753 -0.0378472 0.0771066m-5.09864 3.37574l-0.0830379 0.0087557 -0.0708929 -0.00706105 -0.0559235 -0.0223129 -0.0355877 -0.0333281m-7.36749 -74.9157l0.115236 -0.122862 0.125122 -0.103656c0.299671,-0.188671 0.633517,-0.301083 0.803264,0.099702l0.0200534 0.122297 -0.00480151 0.136419m-0.868226 1.24105l-0.142916 0.0293739 -0.133313 0 -0.120038 -0.0288091 -0.103374 -0.0573357 -0.0836028 -0.0836028 -0.0104503 -0.0141221m0.476479 -1.51587l0.11919 -0.0974424 0.148564 -0.0963127c0.253633,-0.120603 0.403044,-0.175396 0.673341,-0.0717402l0.0940531 0.0708929 0.0723051 0.0960302 0.0499922 0.118908 0.0248549 0.138114 0 0.153083 -0.0254198 0.164381m0.934035 0.209007l0.0310686 0.133595c0.0305037,0.706669 -0.551326,1.53959 -1.3046,1.57998l-0.123992 -0.0214656 -0.107893 -0.0502746 -0.0206183 -0.0141221m1.36645 -1.85197l0.0257022 0.0206183 0.0785188 0.0900989 0.0553586 0.113542m0.00621372 0.00423663l0.0310686 0.133595c0.0296564,0.707799 -0.551326,1.53931 -1.30516,1.58026l-0.12371 -0.021748 -0.107893 -0.0502746 -0.0203358 -0.0141221m1.36589 -1.85197l0.0262671 0.0211831 0.0779539 0.0898165 0.0559235 0.113259m1.04136 0.768242l0.0310686 0.133877 0.00649616 0.149694c-0.0804959,0.678425 -0.596235,1.39103 -1.31138,1.43029l-0.12371 -0.0214656 -0.107893 -0.0502746 -0.0206183 -0.0144045m1.36617 -1.85197l0.0262671 0.0209007 0.0782364 0.0900989 0.0553586 0.113259m0.00621372 0.00451907l0.0310686 0.133595 0.00621372 0.149694c-0.0807784,0.67786 -0.596517,1.39272 -1.31138,1.43029l-0.12371 -0.0214656 -0.107893 -0.0502746 -0.0203358 -0.0141221m1.36589 -1.85197l0.0262671 0.0209007 0.0782364 0.0898165 0.055641 0.113542m1.04165 0.768524l0.0310686 0.133313 0.00621372 0.150259c-0.0641143,0.539746 -0.310968,0.89986 -0.732654,1.23173 -0.220305,0.133595 -0.318877,0.184434 -0.578723,0.197992l-0.12371 -0.0214656 -0.107893 -0.0499922 -0.0206183 -0.0144045m1.36617 -1.85225l0.0259846 0.0214656 0.0785188 0.0898165 0.055641 0.113542m0.00564884 0.00423663l0.031351 0.133877 0.00621372 0.149694c-0.0652441,0.540876 -0.309556,0.899577 -0.732654,1.23201 -0.221434,0.13416 -0.318029,0.18387 -0.578723,0.198274l-0.12371 -0.021748 -0.107893 -0.0502746 -0.0206183 -0.0144045m1.36617 -1.85197l0.0262671 0.0209007 0.0782364 0.0900989 0.0553586 0.113542m1.04165 0.768242c0.163534,0.698196 -0.3748,1.40402 -0.993348,1.67008l-0.144328 0.0361526 -0.136137 0.00762593 -0.12371 -0.0214656 -0.107893 -0.0502746 -0.0206183 -0.0144045m1.36617 -1.85225l0.0259846 0.0211831 0.0785188 0.0900989 0.0553586 0.113259m0.00593128 0.00451907c0.164381,0.698761 -0.37593,1.40289 -0.993065,1.67008l-0.14461 0.0361526 -0.136137 0.00734349 -0.123992 -0.021748 -0.10761 -0.0499922 -0.0206183 -0.0144045m1.36617 -1.85197l0.0262671 0.0209007 0.0782364 0.0900989 0.0553586 0.113542m1.04165 0.768242l0.0316335 0.133595 0.00593128 0.149977 -0.0194885 0.161839c-0.136137,0.527884 -0.395983,0.877547 -0.862012,1.16055l-0.149129 0.0638318 -0.144893 0.0361526 -0.135855 0.00790837 -0.12371 -0.021748 -0.10761 -0.0502746 -0.0209007 -0.0141221m1.36617 -1.85225l0.0262671 0.0209007 0.0782364 0.0900989 0.0553586 0.113542m0.00593128 0.00423663l0.031351 0.133877 0.00621372 0.149694 -0.0194885 0.161839c-0.136137,0.527036 -0.395983,0.878676 -0.862295,1.16027l-0.148847 0.0643967 -0.14461 0.036435 -0.136137 0.00734349 -0.123992 -0.021748 -0.107893 -0.0499922 -0.0203358 -0.0144045m1.36617 -1.85197l0.0262671 0.0206183 0.0779539 0.0903814 0.055641 0.113259m1.04165 0.768242l0.0316335 0.133595 0.00593128 0.149977c-0.0793661,0.665998 -0.593975,1.39074 -1.31138,1.43029l-0.12371 -0.021748 -0.107893 -0.0502746 -0.0206183 -0.0141221m1.36617 -1.85197l0.0262671 0.0209007 0.0782364 0.0898165 0.0553586 0.113542m0.00593128 0.00451907l0.031351 0.133595 0.00621372 0.149977c-0.0793661,0.665433 -0.594258,1.39103 -1.31166,1.43l-0.12371 -0.0214656 -0.10761 -0.0502746 -0.0206183 -0.0141221m1.36589 -1.85225l0.0265495 0.0211831 0.0779539 0.0898165 0.055641 0.113542m1.04165 0.768242l0.031351 0.133595c0.0279617,0.670799 -0.420273,1.27607 -1.02413,1.53648l-0.145175 0.0361526 -0.136137 0.00762593 -0.123427 -0.021748 -0.107893 -0.0499922 -0.0203358 -0.014687m1.36589 -1.85197l0.0262671 0.0211831 0.0779539 0.0898165 0.055641 0.113542m0.00593128 0.00451907l0.031351 0.133313c0.0273969,0.671929 -0.419426,1.27579 -1.0247,1.53648l-0.144328 0.036435 -0.136419 0.00706105 -0.12371 -0.0211831 -0.107328 -0.0499922 -0.0209007 -0.014687m1.36589 -1.85197l0.0265495 0.0211831 0.0779539 0.0895341 0.055641 0.113824m9.42226 6.94948l0.031351 0.133595 0.00593128 0.149977 -0.0189236 0.162122 -0.0110152 0.0514044m-0.167206 -0.721356l0.0259846 0.0209007 0.0782364 0.0900989 0.055641 0.113259m0.00593128 0.00423663l0.0310686 0.133595 0.00621372 0.149977 -0.0189236 0.162122 -0.0115801 0.0545113m-0.166923 -0.724181l0.0262671 0.0209007 0.0779539 0.0898165 0.0559235 0.113259m1.04165 0.768524l0.031351 0.133595 0.00593128 0.149977 -0.0189236 0.162122 -0.0440609 0.169183 -0.0675036 0.171725 -0.0505571 0.101114m-0.0160992 -1.11226l0.0259846 0.0211831 0.0782364 0.0898165 0.055641 0.113542m0.00593128 0.00423663l0.0310686 0.133877 0.00621372 0.149694 -0.0189236 0.162122 -0.0440609 0.169183 -0.0675036 0.172007 -0.0516869 0.103091m-0.0152519 -1.11423l0.0262671 0.0209007 0.0779539 0.0900989 0.0559235 0.113259m1.04165 0.768524l0.0310686 0.133595 0.00621372 0.149977 -0.0189236 0.161839 -0.0443434 0.169465 -0.0672211 0.171725 -0.0889692 0.169183 -0.108458 0.162122 -0.087557 0.10987m0.218045 -1.45232l0.0262671 0.0211831 0.0782364 0.0895341 0.055641 0.113824m0.00564884 0.00451907l0.031351 0.133313 0.00621372 0.150259 -0.0189236 0.161839 -0.0440609 0.169183 -0.0675036 0.171725 -0.0889692 0.169465 -0.108175 0.162122 -0.0895341 0.111282m0.21974 -1.45401l0.0262671 0.0211831 0.0779539 0.0900989 0.055641 0.113542m1.04193 0.768242l0.031351 0.133595 0.00593128 0.149694 -0.0189236 0.161839 -0.0443434 0.169465 -0.0672211 0.172007 -0.0889692 0.169183 -0.108175 0.161839 -0.123992 0.150259 -0.136137 0.13416 -0.115801 0.0926409m0.506136 -1.71951l0.0262671 0.0211831 0.0782364 0.0900989 0.055641 0.113542m0.00593128 0.00423663l0.0310686 0.133595 0.00621372 0.149977 -0.0189236 0.161839 -0.0440609 0.169465 -0.0675036 0.171725 -0.0889692 0.169465 -0.108175 0.162122 -0.123992 0.149977 -0.136419 0.133595 -0.116931 0.0943356m0.507548 -1.72064l0.0262671 0.0209007 0.0782364 0.0903814 0.055641 0.113259m1.04165 0.768242l0.031351 0.133595 0.00593128 0.149977 -0.0189236 0.161839 -0.0443434 0.169465 -0.0672211 0.171725 -0.0889692 0.169465 -0.108175 0.162122 -0.123992 0.149977 -0.136419 0.133877 -0.14461 0.113542 -0.149129 0.0903814 -0.148847 0.0638318 -0.0225953 0.00762593m0.855799 -1.90196l0.0262671 0.0214656 0.0782364 0.0895341 0.055641 0.113542m0.00564884 0.00451907l0.031351 0.133595 0.00593128 0.149694 -0.0189236 0.162122 -0.0437785 0.169183 -0.0675036 0.172007 -0.0889692 0.169465 -0.107893 0.161839 -0.124274 0.149977 -0.136419 0.133877 -0.14461 0.113824 -0.148847 0.0900989 -0.149129 0.0641143 -0.0245724 0.00790837m0.857776 -1.90225l0.0259846 0.0206183 0.0785188 0.0903814 0.0553586 0.113542"/>
 </g>
</svg>
