<?xml version="1.0" encoding="UTF-8"?>
<!DOCTYPE svg PUBLIC "-//W3C//DTD SVG 1.1//EN" "http://www.w3.org/Graphics/SVG/1.1/DTD/svg11.dtd">
<!-- Creator: CorelDRAW -->
<svg xmlns="http://www.w3.org/2000/svg" xml:space="preserve" width="16px" height="30px" style="shape-rendering:geometricPrecision; text-rendering:geometricPrecision; image-rendering:optimizeQuality; fill-rule:evenodd; clip-rule:evenodd"
viewBox="0 0 16 29.5764"
 xmlns:xlink="http://www.w3.org/1999/xlink">
 <defs>
  <style type="text/css">
   <![CDATA[
    .fil0 {fill:black}
   ]]>
  </style>
 </defs>
 <g id="Layer_x0020_1">
  <metadata id="CorelCorpID_0Corel-Layer"/>
  <path class="fil0" d="M-0 11.3186l0.00761073 0 -0.000281879 -0.00338254c0,-0.088228 0.0355167,-0.174483 0.10204,-0.258765l-0.000563757 0 0.000563757 0c1.07621,-1.09764 4.17857,-0.0191678 5.10708,-3.16775 0.441986,-1.49762 0.676227,-2.67926 -0.577006,-3.50403 -0.704979,-0.465664 -1.13372,-1.07819 -1.13372,-1.74962 0,-1.45506 2.01092,-2.635 4.49117,-2.635 2.48053,0 4.49146,1.17994 4.49146,2.635 0,0.634791 -0.382791,1.21715 -1.02096,1.67182 -1.35358,0.966562 -1.30002,1.78486 -0.712026,3.5793 1.10356,3.36197 4.98418,2.24488 5.23139,3.42905l0.000563757 0.00338254 0.0126845 0 0 16.6452 -0.0459462 0c-0.000845636,0.890455 -3.56295,1.61263 -7.95715,1.61263 -4.39421,0 -7.95603,-0.722173 -7.95687,-1.61263l-0.0400268 0 0 -16.6452zm8.30527 11.654c0,-0.016349 -0.00338254,-0.0307248 -0.00873824,-0.0434093 -0.00563757,-0.0124027 -0.0126845,-0.0267785 -0.0236778,-0.0431274l-2.19189 -2.9803 2.17047 -2.66742c0.0160671,-0.0217047 0.0270604,-0.0414362 0.0341073,-0.0575033 0.0053557,-0.0180402 0.00902012,-0.0343892 0.00902012,-0.0504563 0,-0.0377717 -0.0143758,-0.0665234 -0.0414362,-0.088228 -0.0270604,-0.0197315 -0.0665234,-0.0304429 -0.120362,-0.0304429l-1.20954 0c-0.0341073,0 -0.0738522,0.00873824 -0.120644,0.0287516 -0.0448187,0.0197315 -0.088228,0.0521476 -0.127973,0.100631l-1.84659 2.46221 0 -2.37567c-0.00169127,-0.0614496 -0.0231141,-0.111624 -0.062859,-0.15306 -0.0414362,-0.0397449 -0.0916106,-0.0611677 -0.15306,-0.062859l-0.993341 0c-0.0611677,0.00169127 -0.111624,0.0231141 -0.15306,0.062859 -0.039463,0.0414362 -0.0611677,0.0916106 -0.0631408,0.15306l0 5.64772c0.00197315,0.0611677 0.0236778,0.113315 0.0631408,0.158416 0.0414362,0.0431274 0.0918925,0.0665234 0.15306,0.0682147l0.993341 0c0.0614496,-0.00169127 0.111624,-0.0250872 0.15306,-0.0682147 0.0397449,-0.0451006 0.0611677,-0.0972482 0.062859,-0.158416l0 -2.45122 1.6955 2.46193c0.0341073,0.0521476 0.0792079,0.0992213 0.136993,0.14404 0.0555301,0.0451006 0.115007,0.0684965 0.176174,0.0718791l1.3175 0c0.0434093,-0.00169127 0.0792079,-0.0143758 0.10796,-0.0414362 0.0270604,-0.0250872 0.0414362,-0.0538388 0.0431274,-0.0879462zm4.64621 -4.7085c0.0611677,0 0.11247,-0.0222684 0.15306,-0.062859 0.0403087,-0.0405905 0.062859,-0.0916106 0.062859,-0.15306l0 -0.820549c0,-0.0614496 -0.0225503,-0.11247 -0.062859,-0.15306 -0.0405905,-0.0405905 -0.0918925,-0.062859 -0.15306,-0.062859l-1.28509 0c-0.462281,0 -0.838589,0.0631408 -1.12667,0.194214 -0.285825,0.129946 -0.496952,0.330926 -0.629717,0.60463 -0.133611,0.275114 -0.198161,0.626616 -0.198161,1.05845l0 4.01705c0,0.0611677 0.0225503,0.11247 0.062859,0.15306 0.0405905,0.0405905 0.0918925,0.062859 0.15306,0.062859l0.993622 0c0.0611677,0 0.11247,-0.0222684 0.15306,-0.062859 0.0403087,-0.0405905 0.062859,-0.0918925 0.062859,-0.15306l0 -4.01705c0,-0.210563 0.0451006,-0.363624 0.13502,-0.460872 0.0899193,-0.0969663 0.221275,-0.14404 0.394066,-0.14404l1.28509 0z"/>
 </g>
</svg>
