<?xml version="1.0" encoding="UTF-8"?>
<!DOCTYPE svg PUBLIC "-//W3C//DTD SVG 1.1//EN" "http://www.w3.org/Graphics/SVG/1.1/DTD/svg11.dtd">
<!-- Creator: CorelDRAW -->
<svg xmlns="http://www.w3.org/2000/svg" xml:space="preserve" width="23px" height="30px" style="shape-rendering:geometricPrecision; text-rendering:geometricPrecision; image-rendering:optimizeQuality; fill-rule:evenodd; clip-rule:evenodd"
viewBox="0 0 23.0003 30.9408"
 xmlns:xlink="http://www.w3.org/1999/xlink">
 <defs>
  <style type="text/css">
   <![CDATA[
    .fil0 {fill:black}
   ]]>
  </style>
 </defs>
 <g id="Layer_x0020_1">
  <metadata id="CorelCorpID_0Corel-Layer"/>
  <g id="_295218336">
   <path id="_464097656" class="fil0" d="M2.81185 15.2134c0.463819,0.835048 1.79191,1.94758 2.19526,2.59195 -0.820581,-6.64798 2.50312,-11.8336 6.24232,-17.8054 4.08641,12.3368 6.60747,14.8393 5.58609,19.5606 1.28093,-0.995635 3.05403,-2.21349 5.55281,-3.85696 1.36831,4.67581 0.487256,8.96447 -3.10814,12.0301 -9.79547,8.35309 -23.1872,-0.954258 -16.4683,-12.5202z"/>
   <path id="_464097728" class="fil0" d="M19.2614 14.8055c4.56441,-4.93824 2.94697,-8.5918 -1.03672,-11.754 -2.40764,4.35001 -1.412,6.13873 1.03672,11.754z"/>
   <path id="_464088488" class="fil0" d="M1.3035 8.91991c2.46088,2.66255 1.58879,4.63241 -0.559014,6.33751 -1.29829,-2.34543 -0.761266,-3.30981 0.559014,-6.33751z"/>
  </g>
 </g>
</svg>
