<!-- SVG Sprite -->
<svg width="0" height="0" class="hidden">
  <symbol fill='currentColor' xmlns="http://www.w3.org/2000/svg" viewBox="0 0 32 22" id="arrow">
    <path d="M32 11c0-.3-.1-.5-.3-.7L21.8.3c-.4-.4-1-.4-1.4 0-.4.4-.4 1 0 1.4l8.2 8.3H1c-.6 0-1 .5-1 1s.4 1 1 1h27.6l-8.2 8.3c-.4.4-.4 1 0 1.4.4.4 1 .4 1.4 0l9.9-10c.2-.2.3-.4.3-.7z" fill-rule="evenodd" clip-rule="evenodd"></path>
  </symbol>
  <symbol fill='currentColor' xmlns="http://www.w3.org/2000/svg" viewBox="0 0 60 60" id="close">
    <path d="M58 0L30 28.1 1.9 0 0 1.9 28 30 0 58.1 1.9 60 30 31.9 58 60l2-1.9L31.9 30 60 1.9z"></path>
  </symbol>
  <symbol fill='currentColor' xmlns="http://www.w3.org/2000/svg" viewBox="0 0 48 41.4" id="comment">
    <path d="M6 41.4V32H3c-1.7 0-3-1.3-3-3V3c0-1.7 1.3-3 3-3h42c1.7 0 3 1.3 3 3v26c0 1.7-1.3 3-3 3H15.4L6 41.4zM3 2c-.6 0-1 .4-1 1v26c0 .6.4 1 1 1h5v6.6l6.6-6.6H45c.6 0 1-.4 1-1V3c0-.6-.4-1-1-1H3z"></path>
    <circle cx="16" cy="16" r="2"></circle>
    <circle cx="32" cy="16" r="2"></circle>
    <circle cx="24" cy="16" r="2"></circle>
  </symbol>
  <symbol fill='currentColor' xmlns="http://www.w3.org/2000/svg" viewBox="0 0 98 98" id="instagram">
    <path d="M68 8c12.2 0 22 9.8 22 22v38c0 12.2-9.8 22-22 22H30C17.8 90 8 80.2 8 68V30C8 17.8 17.8 8 30 8h38m0-8H30C13.5 0 0 13.5 0 30v38c0 16.5 13.5 30 30 30h38c16.5 0 30-13.5 30-30V30C98 13.5 84.5 0 68 0z"></path>
    <path d="M75.1 17c-3.2 0-5.7 2.6-5.7 5.7s2.6 5.7 5.7 5.7c3.2 0 5.7-2.6 5.7-5.7.1-3.1-2.5-5.7-5.7-5.7zM49.3 31.5C59 31.5 67 39.4 67 49.1s-7.9 17.7-17.7 17.7-17.7-7.9-17.7-17.7c0-9.7 7.9-17.6 17.7-17.6m0-8c-14.2 0-25.7 11.5-25.6 25.7 0 14.2 11.5 25.7 25.7 25.6C63.5 74.8 75 63.3 75 49.1 75 35 63.5 23.5 49.3 23.5z"></path>
  </symbol>
  <symbol fill='currentColor' xmlns="http://www.w3.org/2000/svg" viewBox="0 0 49.1 64" id="map">
    <path d="M49.1 24.5C49.1 11 38.1 0 24.5 0 11.2 0 .3 10.7 0 24v1.3C.3 41.2 18.3 58 24.5 64c17.4-14.1 22.5-27.2 24-34.2.1-.2.1-.5.1-.7.1-.8.2-1.4.3-2 .2-1.7.2-2.6.2-2.6z"></path>
  </symbol>
  <symbol fill='currentColor' xmlns="http://www.w3.org/2000/svg" viewBox="0 0 37.8 60" id="ok">
    <path d="M18.9 0C11.5 0 5.4 6 5.4 13.5c0 7.4 6 13.5 13.5 13.5s13.5-6 13.5-13.5S26.3 0 18.9 0zm0 18c-2.5 0-4.5-2-4.5-4.5s2-4.5 4.5-4.5 4.5 2 4.5 4.5-2 4.5-4.5 4.5zm16.6 18.1c-3.4 1.9-7.1 3.2-10.8 3.8l10.5 12.9c1.2 1.5 1.5 3.6.4 5.2-1.7 2.6-5.3 2.7-7.1.4l-9.7-11.9-9.6 11.9C8.3 59.5 7.1 60 5.8 60s-2.6-.6-3.5-1.8c-1.1-1.5-1-4 .2-5.5l10.4-13c-3.7-.7-7.4-1.9-10.7-3.8-2.1-1.2-2.8-3.8-1.6-6 1.2-2.1 3.9-2.8 6-1.6 7.6 4.3 17.1 4.3 24.8.1 2.1-1.2 4.8-.4 5.9 1.7 1.1 2.2.3 4.8-1.8 6z"></path>
  </symbol>
  <symbol fill='currentColor' xmlns="http://www.w3.org/2000/svg" viewBox="0 0 108 108.3" id="phone">
    <path d="M51.8 66.6C42.6 59 36.4 49.5 33.1 44.2l-2.4-4.6c.8-.9 7.3-7.9 10.1-11.6 3.5-4.7-1.6-9-1.6-9S24.8 4.6 21.5 1.7C18.2-1.2 14.4.4 14.4.4 7.6 4.9.4 8.8 0 27.4c0 17.4 13.2 35.4 27.6 49.4 14.3 15.7 34 31.5 53.1 31.5 18.6-.4 22.5-7.6 27-14.5 0 0 1.6-3.8-1.3-7.1C103.5 83.5 89.1 69 89.1 69s-4.3-5.1-9-1.6c-3.5 2.6-9.9 8.5-11.4 9.9 0 .1-10.6-5.6-16.9-10.7z"></path>
  </symbol>
  <symbol fill='currentColor' xmlns="http://www.w3.org/2000/svg" viewBox="0 0 460 385.8" id="telegram">
    <path d="M458.7 35.1l-69.4 327.4c-5.2 23.1-18.9 28.9-38.3 18l-105.8-77.9-51 49.1c-5.6 5.6-10.4 10.4-21.3 10.4l7.6-107.7 196-177.1c8.5-7.6-1.8-11.8-13.2-4.2L120.9 225.5 16.6 192.8c-22.7-7.1-23.1-22.7 4.7-33.6L429.4 2.1c18.9-7.1 35.4 4.2 29.3 33z"></path>
  </symbol>
  <symbol fill='currentColor' xmlns="http://www.w3.org/2000/svg" viewBox="0 0 128 128" id="tick">
    <path d="M64 0C28.7 0 0 28.7 0 64s28.7 64 64 64 64-28.7 64-64S99.3 0 64 0zm0 122C32 122 6 96 6 64S32 6 64 6s58 26 58 58-26 58-58 58z"></path>
    <path d="M87.9 42.4L50.4 79.2 40.2 68.4c-1.2-1.2-3.1-1.2-4.2 0-1.1 1.1-1.2 3-.1 4.1l12.3 13c.6.6 1.3.9 2.1.9s1.5-.3 2.1-.9l39.7-39c1.2-1.2 1.2-3.1 0-4.2-1.1-1.1-3-1.1-4.2.1z"></path>
  </symbol>
  <symbol fill='currentColor' xmlns="http://www.w3.org/2000/svg" viewBox="0 0 60.1 36.2" id="vk">
    <path d="M2 0h7.1c.9 0 1.6.6 1.9 1.4.9 2.6 2.9 8.3 5.2 12.2 3.1 5.1 5.1 7 6.4 6.8 1.3-.3.9-3.7.9-6.4s.3-7.3-1-9.4l-2-2.9a1 1 0 01.8-1.6h11.4c1.1 0 2 .9 2 2v14.5s.5 2.6 3.3-.1 5.8-7.7 8.3-12.8l1-2.4c.3-.7 1-1.2 1.8-1.2h7.4c1.4 0 2.4 1.4 1.9 2.7l-.8 2.1s-2.7 5.4-5.5 9.2c-2.8 3.9-3.4 4.8-3 5.8s7.6 7.7 9.4 10.9c.5.9.9 1.7 1.3 2.4.7 1.3-.3 3-1.8 3h-8.4c-.7 0-1.4-.4-1.7-1l-.8-1.3s-5.1-6-8.2-7.9c-3.2-1.8-3.1.8-3.1.8v5.3c0 2.2-1.8 4-4 4h-2s-11 0-19.8-13.1C3.1 12.8.8 6.2 0 2.4-.2 1.2.7 0 2 0z"></path>
  </symbol>
</svg>