<svg width="62" height="62" viewBox="0 0 62 62" fill="none" xmlns="http://www.w3.org/2000/svg">
<g clip-path="url(#clip0)">
<path d="M20.8405 47.6414H24.4833V51.2742H20.8405V47.6414Z" fill="#1F613B"/>
<path d="M59.4828 38.8305C58.6147 38.0183 58.1168 36.8706 58.1168 35.6818V33.3674C59.2259 32.2803 59.9155 30.7669 59.9155 29.0949C59.9155 27.4231 59.2256 25.9099 58.1168 24.8229V22.5216C58.1168 15.6153 52.4981 9.99662 45.5918 9.99662C38.6855 9.99662 33.0668 15.6153 33.0668 22.5216V24.8229C31.9579 25.9099 31.2681 27.423 31.2681 29.0949C31.2681 30.7669 31.9579 32.2803 33.0668 33.3674V35.6818C33.0668 36.8707 32.5689 38.0183 31.7008 38.8305C31.3695 39.1404 31.0245 39.4902 30.6998 39.8918C29.9005 39.0234 28.9018 38.3241 27.7507 37.8636L22.3937 35.7208V33.8523C24.5177 32.2972 26.0182 29.9386 26.4414 27.2272C28.919 26.4946 30.732 24.198 30.732 21.486C30.732 19.8142 30.0421 18.301 28.9333 17.2139V14.9127C28.9333 8.00645 23.3147 2.3877 16.4083 2.3877C9.50199 2.3877 3.88323 8.00645 3.88323 14.9127V17.2139C2.77426 18.301 2.08451 19.8141 2.08451 21.486C2.08451 24.198 3.89752 26.4946 6.3751 27.2272C6.7982 29.9386 8.2988 32.2971 10.4228 33.8523V35.7208L5.06584 37.8636C1.98848 39.0946 0 42.0316 0 45.346V59.6124H62V44.1475C62 41.5219 60.6549 39.9268 59.4828 38.8305ZM58.3672 44.1475V46.9454C57.9218 46.6544 57.4432 46.4031 56.9342 46.1994L51.2956 43.944L50.7997 41.9787C52.4974 40.9603 53.8727 39.4591 54.7387 37.6674C55.1142 39.1156 55.894 40.4477 57.0013 41.4834C58.0097 42.427 58.3672 43.1241 58.3672 44.1475ZM37.2536 31.4477C35.9564 31.4477 34.9009 30.3922 34.9009 29.0949C34.9009 27.7976 35.9564 26.7423 37.2536 26.7423H38.5742C41.4314 26.7423 43.9759 25.3789 45.5918 23.2685C47.2077 25.3789 49.7522 26.7423 52.6094 26.7423H53.9299C55.2272 26.7423 56.2827 27.7976 56.2827 29.0949C56.2827 30.3922 55.2272 31.4477 53.9299 31.4477H52.1135V33.2641C52.1135 36.8602 49.1879 39.7858 45.5918 39.7858C41.9957 39.7858 39.0701 36.8602 39.0701 33.2641V31.4477H37.2536ZM43.8072 43.2602C44.3869 43.3634 44.9829 43.4186 45.5918 43.4186C46.2007 43.4186 46.7967 43.3635 47.3764 43.2602L48.2263 46.6291L51.3048 47.8603C49.8214 49.3239 47.8219 50.1569 45.6573 50.1569C45.6571 50.1569 45.6566 50.1569 45.6565 50.1569C43.4739 50.1568 41.4589 49.3096 39.972 47.8232L42.9574 46.6291L43.8072 43.2602ZM36.6996 22.5217C36.6996 17.6185 40.6886 13.6296 45.5918 13.6296C50.495 13.6296 54.484 17.6185 54.484 22.5217V23.1361C54.3015 23.1193 54.1169 23.1095 53.9301 23.1095H52.6095C49.7416 23.1095 47.4083 20.7761 47.4083 17.9082H43.7755C43.7755 20.7761 41.4422 23.1095 38.5743 23.1095H37.2538C37.0669 23.1095 36.8824 23.1193 36.6999 23.1361V22.5217H36.6996ZM32.8164 44.1475C32.8164 43.1241 33.1739 42.427 34.1825 41.4834C35.2897 40.4477 36.0693 39.1156 36.445 37.6674C37.311 39.4591 38.6862 40.9603 40.384 41.9787L39.8882 43.944L34.2494 46.1994C33.7404 46.4031 33.2619 46.6542 32.8165 46.9452V44.1475H32.8164ZM7.51605 14.9127C7.51605 10.0096 11.505 6.02051 16.4082 6.02051C21.3114 6.02051 25.3004 10.0095 25.3004 14.9127V15.5271C25.1179 15.5103 24.9333 15.5005 24.7465 15.5005H23.4259C20.558 15.5005 18.2247 13.1671 18.2247 10.2991H14.5919C14.5919 13.1671 12.2586 15.5005 9.3907 15.5005H8.07005C7.8832 15.5005 7.69866 15.5103 7.51617 15.5271V14.9127H7.51605ZM8.07005 23.8386C6.77277 23.8386 5.71732 22.7832 5.71732 21.4859C5.71732 20.1886 6.77277 19.1333 8.07005 19.1333H9.39058C12.2478 19.1333 14.7923 17.7699 16.4082 15.6595C18.0241 17.7699 20.5686 19.1333 23.4258 19.1333H24.7464C26.0436 19.1333 27.0991 20.1886 27.0991 21.4859C27.0991 22.7832 26.0436 23.8386 24.7464 23.8386H22.9299V25.655C22.9299 29.2511 20.0043 32.1768 16.4082 32.1768C12.8121 32.1768 9.88646 29.2511 9.88646 25.655V23.8386H8.07005ZM16.4082 35.8097C17.218 35.8097 18.0054 35.7134 18.7609 35.5335V36.9505C18.7609 38.2478 17.7055 39.3032 16.4082 39.3032C15.1109 39.3032 14.0555 38.2478 14.0555 36.9505V35.5335C14.811 35.7134 15.5984 35.8097 16.4082 35.8097ZM29.1836 55.9796H3.63281V45.346C3.63281 43.5257 4.72496 41.9126 6.41506 41.2365L10.9579 39.4194C11.9001 41.4912 13.988 42.9361 16.4083 42.9361C18.8286 42.9361 20.9165 41.4912 21.8588 39.4194L26.4016 41.2365C28.0914 41.9126 29.1836 43.5257 29.1836 45.346V55.9796ZM58.3672 55.9796H32.8164V53.6819C32.8164 51.8616 33.9086 50.2486 35.5985 49.5725L36.4007 49.2517C38.6017 52.1175 41.9632 53.7895 45.656 53.7898H45.6573C49.3331 53.7898 52.6815 52.1336 54.8832 49.2918L55.5851 49.5725C57.275 50.2487 58.3672 51.8616 58.3672 53.6819V55.9796Z" fill="#1F613B"/>
</g>
<defs>
<clipPath id="clip0">
<rect width="62" height="62" fill="white"/>
</clipPath>
</defs>
</svg>
