<svg width="62" height="62" viewBox="0 0 62 62" fill="none" xmlns="http://www.w3.org/2000/svg">
<path d="M48.8008 42.3828C56.0789 42.3828 62 36.4617 62 29.1836V27.3672H38.2656V23.25H41.293V17.8008C41.293 17.7735 41.2912 17.7468 41.2909 17.7196L52.4625 8.467C52.5753 8.45985 52.6868 8.44847 52.7969 8.43261V15.9844H54.6133C55.6148 15.9844 56.4297 16.7992 56.4297 17.8008C56.4297 18.8023 55.6148 19.6172 54.6133 19.6172C53.6117 19.6172 52.7969 18.8023 52.7969 17.8008H49.1641C49.1641 20.8055 51.6086 23.25 54.6133 23.25C57.618 23.25 60.0625 20.8055 60.0625 17.8008C60.0625 15.4326 58.5441 13.4125 56.4297 12.6628V4.48047H56.4223C56.4269 4.4003 56.4297 4.31966 56.4297 4.23828C56.4297 1.90129 54.5284 0 52.1914 0C50.4825 0 49.0076 1.01719 48.3377 2.47746L34.1012 9.96093C33.8771 9.94168 33.6509 9.92969 33.4219 9.92969H25.5508V23.25H28.5781V27.3672H16.832V20.4648H17.9219C20.5927 20.4648 22.7656 18.2919 22.7656 15.6211C22.7656 12.9502 20.5927 10.7773 17.9219 10.7773H16.832V4.72266H12.2305V0H8.59766V4.72266H5.93359V10.7773H4.84375C2.17291 10.7773 0 12.9502 0 15.6211C0 18.2919 2.17291 20.4648 4.84375 20.4648H5.93359V27.3672H0V36.9336C0 39.9383 2.44452 42.3828 5.44922 42.3828H6.78125V48.3462C4.98373 47.9563 3.63281 46.3541 3.63281 44.4414H0V62H62V44.4414H58.3672C58.3672 46.6448 56.5745 48.4375 54.3711 48.4375C52.1677 48.4375 50.375 46.6448 50.375 44.4414H46.7422C46.7422 45.5626 46.2774 46.5767 45.5312 47.3031V42.3828H48.8008ZM48.5803 6.45405C48.6495 6.56655 48.7238 6.67566 48.8028 6.78089L40.239 13.8738C39.7755 13.0724 39.176 12.3596 38.4706 11.7683L48.5803 6.45405ZM29.1836 13.5625H33.4219C35.7589 13.5625 37.6602 15.4638 37.6602 17.8008V19.6172H29.1836V13.5625ZM34.6328 23.25V27.3672H32.2109V23.25H34.6328ZM9.56641 8.35547H13.1992V10.7773H9.56641V8.35547ZM4.84375 16.832C4.17604 16.832 3.63281 16.2888 3.63281 15.6211C3.63281 14.9534 4.17604 14.4102 4.84375 14.4102H17.9219C18.5896 14.4102 19.1328 14.9534 19.1328 15.6211C19.1328 16.2888 18.5896 16.832 17.9219 16.832H4.84375ZM13.1992 20.4648V27.3672H9.56641V20.4648H13.1992ZM48.5586 49.3774C49.9589 51.0239 52.0452 52.0703 54.3711 52.0703C55.8351 52.0703 57.2043 51.6556 58.3672 50.9377V58.3672H3.63281V50.9377C4.79568 51.6556 6.16488 52.0703 7.62891 52.0703C9.95487 52.0703 12.041 51.0239 13.4414 49.3774C14.8419 51.0239 16.9279 52.0703 19.2539 52.0703C21.5877 52.0703 23.6802 51.0169 25.0807 49.3606C26.5034 51.0169 28.6291 52.0703 31 52.0703C33.3709 52.0703 35.4966 51.0169 36.9193 49.3606C38.3198 51.0169 40.4123 52.0703 42.7461 52.0703C45.0719 52.0703 47.1583 51.0239 48.5586 49.3774ZM10.4141 47.3031V42.3828H41.8984V48.3462C40.1009 47.9563 38.75 46.3541 38.75 44.4414H35.1172C35.1172 46.6448 33.2703 48.4375 31 48.4375C28.7297 48.4375 26.8828 46.6448 26.8828 44.4414H23.25C23.25 46.6448 21.4573 48.4375 19.2539 48.4375C17.0505 48.4375 15.2578 46.6448 15.2578 44.4414H11.625C11.625 45.5626 11.1602 46.5767 10.4141 47.3031ZM5.44922 38.75C4.44765 38.75 3.63281 37.9352 3.63281 36.9336V31H58.1941C57.3431 35.4091 53.4545 38.75 48.8008 38.75H5.44922Z" fill="#1F613B"/>
</svg>
