<svg width="14" height="14" viewBox="0 0 14 14" fill="none" xmlns="http://www.w3.org/2000/svg">
<path d="M13.5802 8.53413L12.2934 7.52789C12.3333 7.17669 12.3333 6.8221 12.2934 6.47089L13.5814 5.46407C13.8227 5.26969 13.8872 4.92882 13.7336 4.65965L12.3949 2.34559C12.2407 2.07472 11.9123 1.95643 11.6208 2.06676L10.1041 2.67694C9.81914 2.47016 9.51385 2.29289 9.19297 2.14786L8.96022 0.536695C8.91825 0.227383 8.65288 -0.00252207 8.34072 2.08899e-05H5.65741C5.34785 -0.00183848 5.08461 0.225497 5.04141 0.532019L4.80809 2.14784C4.48819 2.29426 4.18339 2.47167 3.89809 2.67751L2.37732 2.06616C2.08884 1.95244 1.76075 2.06931 1.60907 2.33973L0.269152 4.6579C0.111406 4.92751 0.176347 5.27212 0.421401 5.46582L1.70822 6.47207C1.66794 6.82324 1.66794 7.17789 1.70822 7.52906L0.420225 8.53531C0.178453 8.72942 0.113648 9.07048 0.267402 9.33973L1.60557 11.6544C1.75957 11.9255 2.08816 12.0438 2.37964 11.9332L3.89631 11.323C4.18156 11.5299 4.48704 11.7074 4.80806 11.8527L5.04138 13.4627C5.08245 13.7712 5.34618 14.0012 5.65738 14H8.34069C8.65083 14.0025 8.91491 13.775 8.95844 13.468L9.19176 11.8521C9.51163 11.7057 9.8164 11.5283 10.1018 11.3225L11.6243 11.9344C11.9127 12.0478 12.2407 11.9311 12.3925 11.6608L13.7365 9.33333C13.887 9.06455 13.8208 8.72641 13.5802 8.53413ZM6.99905 9.91663C5.38824 9.91663 4.08239 8.61081 4.08239 6.99997C4.08239 5.38912 5.38821 4.0833 6.99905 4.0833C8.60989 4.0833 9.91572 5.38912 9.91572 6.99997C9.91377 8.61001 8.60907 9.91471 6.99905 9.91663Z" fill="#D7D7D7"/>
</svg>
