<svg xmlns="http://www.w3.org/2000/svg" width="585.406" height="585.38" viewBox="0 0 585.406 585.38">
  <defs>
    <style>
      .cls-1 {
        fill: #59add4;
        fill-rule: evenodd;
      }
    </style>
  </defs>
  <path id="instagram" class="cls-1" d="M321.174,2121.37c78.158,0,87.416.3,118.282,1.71,28.539,1.3,44.039,6.07,54.353,10.08a96.9,96.9,0,0,1,55.554,55.55c4.008,10.31,8.777,25.81,10.079,54.34,1.408,30.86,1.706,40.12,1.706,118.27s-0.3,87.4-1.706,118.27c-1.3,28.53-6.071,44.03-10.079,54.34a96.974,96.974,0,0,1-55.554,55.55c-10.314,4.01-25.814,8.77-54.353,10.08-30.862,1.4-40.118,1.7-118.282,1.7s-87.421-.3-118.283-1.7c-28.539-1.31-44.038-6.07-54.353-10.08a96.9,96.9,0,0,1-55.553-55.55c-4.009-10.31-8.777-25.81-10.079-54.34-1.408-30.87-1.706-40.12-1.706-118.27s0.3-87.41,1.706-118.27c1.3-28.53,6.071-44.03,10.079-54.34a90.635,90.635,0,0,1,21.9-33.66,90.715,90.715,0,0,1,33.657-21.89c10.315-4.01,25.814-8.78,54.353-10.08,30.866-1.41,40.124-1.71,118.283-1.71m0-52.73c-79.5,0-89.466.34-120.686,1.76-31.157,1.42-52.435,6.37-71.055,13.61a149.625,149.625,0,0,0-85.608,85.59c-7.236,18.62-12.185,39.9-13.606,71.05-1.424,31.21-1.761,41.18-1.761,120.67s0.337,89.45,1.761,120.67c1.422,31.15,6.37,52.43,13.606,71.04a143.422,143.422,0,0,0,33.762,51.84,143.38,143.38,0,0,0,51.845,33.76c18.62,7.24,39.9,12.19,71.055,13.61,31.22,1.42,41.189,1.76,120.686,1.76s89.465-.34,120.686-1.76c31.157-1.42,52.434-6.37,71.054-13.61a149.677,149.677,0,0,0,85.608-85.6c7.237-18.61,12.185-39.89,13.607-71.04,1.424-31.22,1.76-41.18,1.76-120.67s-0.336-89.46-1.76-120.67c-1.422-31.15-6.37-52.43-13.607-71.05a149.622,149.622,0,0,0-85.608-85.59c-18.62-7.24-39.9-12.19-71.054-13.61-31.221-1.42-41.189-1.76-120.686-1.76h0Zm0,142.38a150.3,150.3,0,1,0,150.313,150.3A150.306,150.306,0,0,0,321.174,2211.02Zm0,247.86a97.56,97.56,0,1,1,97.571-97.56A97.566,97.566,0,0,1,321.174,2458.88Zm191.378-253.79a35.126,35.126,0,1,1-35.126-35.13A35.127,35.127,0,0,1,512.552,2205.09Z" transform="translate(-28.469 -2068.62)"/>
</svg>
