<svg width="31" height="30" viewBox="0 0 31 30" fill="#F9474E" xmlns="http://www.w3.org/2000/svg">
  <path d="M4.04378 5.54175H8.77295C10.4027 5.54175 11.7287 4.21581 11.7287 2.58602C11.7287 2.25953 11.464 1.99487 11.1375 1.99487H6.40837C4.77858 1.99487 3.45264 3.32081 3.45264 4.9506C3.45264 5.27709 3.71729 5.54175 4.04378 5.54175ZM6.40837 3.17657H10.4451C10.2011 3.86532 9.54369 4.35946 8.77295 4.35946H4.73619C4.98022 3.6713 5.63763 3.17717 6.40837 3.17657Z" />
  <path d="M13.5022 5.54167H20.5959C21.5203 5.54167 22.3931 5.09612 22.9482 4.35938H25.3251C26.9549 4.35938 28.2808 3.03344 28.2808 1.40365C28.2808 1.07716 28.0162 0.8125 27.6897 0.8125H20.5959C19.6715 0.8125 18.7987 1.25805 18.2436 1.99479H15.8667C14.237 1.99479 12.911 3.32073 12.911 4.95052C12.911 5.27701 13.1757 5.54167 13.5022 5.54167ZM15.8667 3.17708H18.5594C18.7699 3.17708 18.9645 3.06518 19.0703 2.88323C19.3941 2.32696 19.9643 1.99479 20.5959 1.9942H26.9973C26.7532 2.68295 26.0958 3.17708 25.3251 3.17708H22.6324C22.4219 3.17708 22.2273 3.28899 22.1215 3.47094C21.7978 4.02721 21.2275 4.35938 20.5959 4.35938H14.1946C14.4386 3.67122 15.096 3.17708 15.8667 3.17708Z" />
  <path d="M30.4089 20.3793C30.7354 20.3793 31 20.1146 31 19.7882C31 19.4617 30.7354 19.197 30.4089 19.197C30.0824 19.197 29.8177 19.4617 29.8177 19.7882C29.8177 20.1146 30.0824 20.3793 30.4089 20.3793Z" />
  <path d="M30.6936 13.8907C30.5046 13.7869 30.2741 13.7942 30.0921 13.9097L23.5516 18.0624V14.4088C23.5516 14.1931 23.4342 13.9946 23.2452 13.8907C23.0563 13.7869 22.8257 13.7942 22.6436 13.9097L16.1032 18.0624V14.4088C16.1032 14.1908 15.9833 13.9905 15.7911 13.8876C15.7045 13.8413 15.6095 13.8193 15.5147 13.8189C15.4019 12.5786 15.0683 8.90964 14.9185 7.26147C14.8908 6.95697 14.6355 6.72388 14.3298 6.72388H11.9652C11.6594 6.72388 11.4042 6.95697 11.3765 7.26147C11.2648 8.48993 10.5662 16.177 10.487 17.0484L9.00945 18.0334V14.4088C9.00945 14.1908 8.88944 13.9904 8.6972 13.8876C8.50502 13.7848 8.27175 13.796 8.09033 13.9169L7.29554 14.4468C7.15892 12.9438 6.77036 8.66893 6.64244 7.26147C6.61471 6.95697 6.35945 6.72388 6.05371 6.72388H3.68913C3.38339 6.72388 3.12813 6.95697 3.10041 7.26147C3.04496 7.87141 2.19779 17.1927 2.13459 17.8878L0.996754 18.646C0.832238 18.7557 0.733398 18.9403 0.733398 19.1379V28.5963C0.733398 28.9228 0.998055 29.1874 1.32454 29.1874H30.4089C30.7354 29.1874 31.0001 28.9228 31.0001 28.5963V22.4484C31.0001 22.1219 30.7354 21.8572 30.4089 21.8572C30.0824 21.8572 29.8178 22.1219 29.8178 22.4484V24.4583H25.9162V21.5025C25.9162 21.176 25.6516 20.9114 25.3251 20.9114H18.2313C17.9048 20.9114 17.6402 21.176 17.6402 21.5025V24.4583H13.7386V21.5025C13.7386 21.176 13.474 20.9114 13.1475 20.9114H6.05371C5.72722 20.9114 5.46257 21.176 5.46257 21.5025V24.4583H1.91569V19.4544C10.5584 13.6925 0.236954 20.5735 7.82715 15.5135V19.1379C7.82715 19.356 7.94715 19.5563 8.13934 19.6592C8.33152 19.762 8.56473 19.7508 8.74621 19.6298L14.9209 15.5132V19.1379C14.9209 19.3536 15.0383 19.5521 15.2274 19.656C15.4163 19.7599 15.6469 19.7526 15.8289 19.637L22.3693 15.4843V19.1379C22.3693 19.3536 22.4867 19.5521 22.6758 19.656C22.8647 19.7599 23.0953 19.7526 23.2773 19.637L29.8178 15.4843V17.128C29.8178 17.4545 30.0824 17.7192 30.4089 17.7192C30.7354 17.7192 31.0001 17.4545 31.0001 17.128V14.4088C31.0001 14.1931 30.8827 13.9946 30.6936 13.8907ZM29.8178 25.6406V28.0051H25.9162V25.6406H29.8178ZM24.7339 28.0051H22.3693V22.0937H24.7339V28.0051ZM18.8225 22.0937H21.1871V28.0051H18.8225V22.0937ZM17.6402 25.6406V28.0051H13.7386V25.6406H17.6402ZM12.5563 28.0051H10.1917V22.0937H12.5563V28.0051ZM6.64486 22.0937H9.00945V28.0051H6.64486V22.0937ZM5.46257 25.6406V28.0051H1.91569V25.6406H5.46257ZM4.01402 10.2708H5.72882L6.1762 15.1929L3.39834 17.0448L4.01402 10.2708ZM5.51394 7.90617L5.62141 9.08846H4.12149L4.22896 7.90617H5.51394ZM13.79 7.90617L13.8975 9.08846H12.3975L12.505 7.90617H13.79ZM12.2901 10.2708H14.0049L14.3849 14.4497L11.7506 16.2059L12.2901 10.2708Z" />
</svg>
