 <!-- SVG Sprite -->
<svg width="0" height="0" class="hidden">
  <symbol viewBox="0 0 16 16" xmlns="http://www.w3.org/2000/svg" id="close">
    <path d="M7.116 8L.183 1.069a.625.625 0 1 1 .884-.884L8 7.117 14.933.184a.625.625 0 1 1 .884.884L8.884 8l6.933 6.933a.625.625 0 1 1-.884.884L8 8.885l-6.933 6.933a.623.623 0 0 1-.884 0 .625.625 0 0 1 0-.884L7.116 8z"></path>
  </symbol>
  <symbol viewBox="0 0 18 18" xmlns="http://www.w3.org/2000/svg" id="arrow-back">
    <g clip-path="url(#clip0)">
      <path d="M1.611 8.503a.704.704 0 0 0 0 .995l6.164 6.178a.703.703 0 0 1-.996.993L.617 10.492a2.112 2.112 0 0 1 0-2.983l6.162-6.178a.7.7 0 0 1 .994-.001c.275.274.276.72.002.994L1.61 8.503z"></path>
      <path d="M17.297 9.703H4.534a.703.703 0 1 1 0-1.406h12.763a.703.703 0 1 1 0 1.406z"></path>
    </g>
    <defs>
      <clipPath id="clip0">
        <path fill="#fff" transform="matrix(1 0 0 -1 0 18)" d="M0 0h18v18H0z"></path>
      </clipPath>
    </defs>
  </symbol>
</svg>