<svg version="1.1" stroke='#F9474E' xmlns="http://www.w3.org/2000/svg" xmlns:xlink="http://www.w3.org/1999/xlink" viewBox="0 0 17.5 28.5">
<path d="M9.8,28c0.3,0,0.5-0.2,0.5-0.5S10.1,27,9.8,27s-0.5,0.2-0.5,0.5S9.5,28,9.8,28z"/>
<path d="M13.7,4.7v0.9l0.8-0.4C14.7,5,15,4.9,15.3,4.9c0.9,0,1.7,0.8,1.7,1.7v13c0,1.3-0.4,2.6-1.1,3.8
	c-0.7,1.1-1.1,2.6-1.1,4.1v0.1l0,0h-2.5l0,0l0,0h1.9h0.5v-0.5c0.1-1.3,0.5-2.7,1.1-3.7c0.7-1.1,1.1-2.4,1.1-3.7v-13
	c0-0.9-0.7-1.6-1.6-1.6s-1.6,0.7-1.6,1.6v5.2l0,0l0,0V4.4c0-0.9-0.7-1.6-1.6-1.6c-0.9,0-1.6,0.7-1.6,1.6v7.4l0,0l0,0V2.2
	c0-0.9-0.7-1.6-1.6-1.6S7.2,1.3,7.2,2.2v9.6l0,0l0,0V4.4c0-0.9-0.7-1.6-1.6-1.6S4,3.5,4,4.4v12.4l0,0l0,0c0,0.1,0,0.3,0,0.5
	c0,0,0,0,0,0.1l0,0V14c0-1.6-1.1-2.9-2.6-3.2l-0.6-0.1v0.6v8.1c0,1.4,0.6,2.6,1.7,3.5l0,0l0.9,0.7l0,0c1,0.8,1.6,2.2,1.7,3.4v0.4
	h0.5h1.9l0,0l0,0H4.9l0,0c0-1.4-0.7-3-1.7-3.8l0,0L2.3,23l0,0c-1.1-0.8-1.8-2.2-1.8-3.5v-8.8l0,0c0.9,0,1.8,0.4,2.4,1l0.9,0.9v-1.2
	v-7c0-0.9,0.8-1.7,1.7-1.7c0.3,0,0.6,0.1,0.8,0.2l0.8,0.4V2.5V2.2c0-0.9,0.8-1.7,1.7-1.7s1.7,0.8,1.7,1.7v0.3v0.9L11.3,3
	c0.2-0.1,0.5-0.2,0.8-0.2c0.9,0,1.7,0.8,1.7,1.7v0.2H13.7z"/>
</svg>
