<?xml version="1.0" encoding="utf-8"?>
<!-- Generator: Adobe Illustrator 24.0.3, SVG Export Plug-In . SVG Version: 6.00 Build 0)  -->
<svg version="1.1" id="Слой_1" xmlns="http://www.w3.org/2000/svg" xmlns:xlink="http://www.w3.org/1999/xlink" x="0px" y="0px"
	 viewBox="0 0 17.5 28" style="enable-background:new 0 0 17.5 28;" xml:space="preserve">
<style type="text/css">
	.st0{fill:#0074EB;}
	.st1{fill:none;stroke:#0074EB;}
</style>
<path class="st0" d="M9.8,28c0.3,0,0.5-0.2,0.5-0.5c0-0.3-0.2-0.5-0.5-0.5c-0.3,0-0.5,0.2-0.5,0.5C9.3,27.8,9.5,28,9.8,28z"/>
<path class="st1" d="M13.7,4.7v0.9l0.8-0.4C14.7,5,15,4.9,15.3,4.9c0.9,0,1.7,0.8,1.7,1.7v13c0,1.3-0.4,2.6-1.1,3.8
	c-0.7,1.1-1.1,2.6-1.1,4.1v0.1c0,0,0,0,0,0h-2.5c0,0,0,0,0,0c0,0,0,0,0,0h1.9h0.5l0-0.5c0.1-1.3,0.5-2.7,1.1-3.7
	c0.7-1.1,1.1-2.4,1.1-3.7v-13c0-0.9-0.7-1.6-1.6-1.6s-1.6,0.7-1.6,1.6v5.2c0,0,0,0,0,0c0,0,0,0,0,0V4.4c0-0.9-0.7-1.6-1.6-1.6
	c-0.9,0-1.6,0.7-1.6,1.6v7.4c0,0,0,0,0,0c0,0,0,0,0,0V2.2c0-0.9-0.7-1.6-1.6-1.6S7.2,1.3,7.2,2.2v9.6c0,0,0,0,0,0c0,0,0,0,0,0V4.4
	c0-0.9-0.7-1.6-1.6-1.6c-0.9,0-1.6,0.7-1.6,1.6v12.4v0l0,0c0,0.1,0,0.3,0,0.5c0,0,0,0,0,0.1c0,0,0,0,0,0V14c0-1.6-1.1-2.9-2.6-3.2
	l-0.6-0.1v0.6v8.1c0,1.4,0.6,2.6,1.7,3.5l0,0l0.9,0.7c0,0,0,0,0,0c1,0.8,1.6,2.2,1.7,3.4l0,0.4h0.5h1.9c0,0,0,0,0,0c0,0,0,0,0,0H4.9
	c0,0,0,0,0,0c0-1.4-0.7-3-1.7-3.8l0,0L2.3,23c0,0,0,0,0,0c-1.1-0.8-1.8-2.2-1.8-3.5v-8.8c0,0,0,0,0,0c0.9,0,1.8,0.4,2.4,1l0.9,0.9
	v-1.2V4.4c0-0.9,0.8-1.7,1.7-1.7c0.3,0,0.6,0.1,0.8,0.2l0.8,0.4V2.5V2.2c0-0.9,0.8-1.7,1.7-1.7s1.7,0.8,1.7,1.7v0.3v0.9l0.8-0.4
	c0.2-0.1,0.5-0.2,0.8-0.2c0.9,0,1.7,0.8,1.7,1.7V4.7z"/>
</svg>
