<?xml version="1.0" encoding="UTF-8" standalone="no"?>
<svg
   xmlns:dc="http://purl.org/dc/elements/1.1/"
   xmlns:cc="http://creativecommons.org/ns#"
   xmlns:rdf="http://www.w3.org/1999/02/22-rdf-syntax-ns#"
   xmlns:svg="http://www.w3.org/2000/svg"
   xmlns="http://www.w3.org/2000/svg"
   viewBox="0 0 912.14667 322.37732"
   height="322.37732"
   width="912.14667"
   xml:space="preserve"
   id="svg2"
   version="1.1"><metadata
     id="metadata8"><rdf:RDF><cc:Work
         rdf:about=""><dc:format>image/svg+xml</dc:format><dc:type
           rdf:resource="http://purl.org/dc/dcmitype/StillImage" /></cc:Work></rdf:RDF></metadata><defs
     id="defs6"><clipPath
       id="clipPath18"
       clipPathUnits="userSpaceOnUse"><path
         id="path16"
         d="m 607.208,241.783 -27.181,-0.011 0.007,-157.243 h 28.708 l -0.012,97.234 h 0.242 l 31.743,-65.469 0.006,-31.765 28.722,0.011 -0.014,157.241 -28.723,-0.005 0.004,-64.796 z m -84.169,-0.007 0.015,-129.625 -23.936,0.004 -0.004,129.617 -30.467,-0.009 0.008,-129.614 27.637,-27.62 h 29.585 l 27.631,27.625 -0.004,129.622 z m -139.222,-0.018 -27.402,-27.595 0.007,-102.02 27.409,-27.631 30.683,0.011 27.624,27.625 -0.007,53.077 h -42.649 v -26.773 h 12.202 l 0.003,-26.309 -24.818,-0.002 -0.005,102.024 24.816,0.012 0.004,-29.618 h 30.447 l -0.006,29.616 -27.623,27.595 z m -153.476,-0.005 0.011,-157.245 h 39.595 l -0.002,50.687 24.567,-0.004 27.402,22.63 v 61.543 l -27.626,22.398 z m 39.601,-34.783 12.405,0.003 0.004,-37.858 -12.406,-0.005 z m -130.737,34.779 -31.312,-30.043 0.004,-96.74 31.308,-30.465 33.946,0.007 31.313,30.454 -0.004,96.749 -31.322,30.043 z m 8.275,-34.342 17.384,-0.007 0.009,-88.117 -17.391,-0.001 z M 0,241.746 l 0.004,-34.787 23.482,0.007 0.009,-122.468 39.577,0.01 -0.007,122.462 23.275,-0.009 v 34.785 z M 660.048,54.198 V 0 h 24.062 v 9.369 h -13.567 v 44.829 z m -69.199,0 -9.37,-9.369 V 0 h 10.494 v 13.045 h 9.145 V 0 h 10.495 v 54.198 z m 1.124,-12.22 2.898,2.851 h 6.247 v -23.09 h -9.145 z M 525.86,54.198 V 9.52 h -8.245 V 54.198 H 507.119 V 9.52 L 516.639,0 h 10.196 l 9.52,9.52 v 44.678 z m -96.408,0 V 0 h 19.715 l 9.52,9.52 v 35.157 l -9.52,9.521 z m 10.494,-9.521 h 5.772 l 2.474,-2.472 V 11.993 L 445.718,9.52 h -5.772 z M 371.503,0 h 10.496 V 54.198 H 371.503 Z M 317.01,54.198 311.014,9.369 h -1.275 l -5.998,44.829 H 292.798 L 301.417,0 h 17.916 l 8.471,54.198 z M 238.68,0 h 10.495 V 54.198 H 238.68 Z M 160.709,54.198 V 0 h 19.718 l 9.519,9.52 v 35.157 l -9.519,9.521 z m 10.496,-9.521 h 5.775 l 2.47,-2.472 V 11.993 L 176.98,9.52 h -5.775 z m -68.822,9.521 V 31.86 L 90.839,54.198 H 81.468 V 0 h 9.895 v 33.508 h 0.074 L 102.383,10.945 V 0 h 9.896 V 54.198 Z M 22.314,0 H 32.809 V 54.198 H 22.314 Z" /></clipPath><linearGradient
       id="linearGradient34"
       spreadMethod="pad"
       gradientTransform="matrix(684.11023,0,0,-684.11023,0,120.89156)"
       gradientUnits="userSpaceOnUse"
       y2="0"
       x2="1"
       y1="0"
       x1="0"><stop
         id="stop24"
         offset="0"
         style="stop-opacity:1;stop-color:#c49a6c" /><stop
         id="stop26"
         offset="0.412121"
         style="stop-opacity:1;stop-color:#f0cb73" /><stop
         id="stop28"
         offset="0.727273"
         style="stop-opacity:1;stop-color:#c49a6c" /><stop
         id="stop30"
         offset="0.890909"
         style="stop-opacity:1;stop-color:#f0cb73" /><stop
         id="stop32"
         offset="1"
         style="stop-opacity:1;stop-color:#c49a6c" /></linearGradient></defs><g
     transform="matrix(1.3333333,0,0,-1.3333333,0,322.37733)"
     id="g10"><g
       id="g12"><g
         clip-path="url(#clipPath18)"
         id="g14"><g
           id="g20"><g
             id="g22"><path
               id="path36"
               style="fill:url(#linearGradient34);stroke:none"
               d="m 607.208,241.783 -27.181,-0.011 0.007,-157.243 h 28.708 l -0.012,97.234 h 0.242 l 31.743,-65.469 0.006,-31.765 28.722,0.011 -0.014,157.241 -28.723,-0.005 0.004,-64.796 z m -84.169,-0.007 0.015,-129.625 -23.936,0.004 -0.004,129.617 -30.467,-0.009 0.008,-129.614 27.637,-27.62 h 29.585 l 27.631,27.625 -0.004,129.622 z m -139.222,-0.018 -27.402,-27.595 0.007,-102.02 27.409,-27.631 30.683,0.011 27.624,27.625 -0.007,53.077 h -42.649 v -26.773 h 12.202 l 0.003,-26.309 -24.818,-0.002 -0.005,102.024 24.816,0.012 0.004,-29.618 h 30.447 l -0.006,29.616 -27.623,27.595 z m -153.476,-0.005 0.011,-157.245 h 39.595 l -0.002,50.687 24.567,-0.004 27.402,22.63 v 61.543 l -27.626,22.398 z m 39.601,-34.783 12.405,0.003 0.004,-37.858 -12.406,-0.005 z m -130.737,34.779 -31.312,-30.043 0.004,-96.74 31.308,-30.465 33.946,0.007 31.313,30.454 -0.004,96.749 -31.322,30.043 z m 8.275,-34.342 17.384,-0.007 0.009,-88.117 -17.391,-0.001 z M 0,241.746 l 0.004,-34.787 23.482,0.007 0.009,-122.468 39.577,0.01 -0.007,122.462 23.275,-0.009 v 34.785 z M 660.048,54.198 V 0 h 24.062 v 9.369 h -13.567 v 44.829 z m -69.199,0 -9.37,-9.369 V 0 h 10.494 v 13.045 h 9.145 V 0 h 10.495 v 54.198 z m 1.124,-12.22 2.898,2.851 h 6.247 v -23.09 h -9.145 z M 525.86,54.198 V 9.52 h -8.245 V 54.198 H 507.119 V 9.52 L 516.639,0 h 10.196 l 9.52,9.52 v 44.678 z m -96.408,0 V 0 h 19.715 l 9.52,9.52 v 35.157 l -9.52,9.521 z m 10.494,-9.521 h 5.772 l 2.474,-2.472 V 11.993 L 445.718,9.52 h -5.772 z M 371.503,0 h 10.496 V 54.198 H 371.503 Z M 317.01,54.198 311.014,9.369 h -1.275 l -5.998,44.829 H 292.798 L 301.417,0 h 17.916 l 8.471,54.198 z M 238.68,0 h 10.495 V 54.198 H 238.68 Z M 160.709,54.198 V 0 h 19.718 l 9.519,9.52 v 35.157 l -9.519,9.521 z m 10.496,-9.521 h 5.775 l 2.47,-2.472 V 11.993 L 176.98,9.52 h -5.775 z m -68.822,9.521 V 31.86 L 90.839,54.198 H 81.468 V 0 h 9.895 v 33.508 h 0.074 L 102.383,10.945 V 0 h 9.896 V 54.198 Z M 22.314,0 H 32.809 V 54.198 H 22.314 Z" /></g></g></g></g></g></svg>