<?xml version="1.0" encoding="UTF-8" standalone="no"?>
<svg
   xmlns:dc="http://purl.org/dc/elements/1.1/"
   xmlns:cc="http://creativecommons.org/ns#"
   xmlns:rdf="http://www.w3.org/1999/02/22-rdf-syntax-ns#"
   xmlns:svg="http://www.w3.org/2000/svg"
   xmlns="http://www.w3.org/2000/svg"
   viewBox="0 0 793.75067 793.70001"
   height="793.70001"
   width="793.75067"
   xml:space="preserve"
   id="svg2"
   version="1.1"><metadata
     id="metadata8"><rdf:RDF><cc:Work
         rdf:about=""><dc:format>image/svg+xml</dc:format><dc:type
           rdf:resource="http://purl.org/dc/dcmitype/StillImage" /></cc:Work></rdf:RDF></metadata><defs
     id="defs6"><clipPath
       id="clipPath18"
       clipPathUnits="userSpaceOnUse"><path
         id="path16"
         d="M 0,595.275 H 595.313 V 0 H 0 Z" /></clipPath></defs><g
     transform="matrix(1.3333333,0,0,-1.3333333,0,793.7)"
     id="g10"><g
       id="g12"><g
         clip-path="url(#clipPath18)"
         id="g14"><g
           transform="translate(500.8115,94.4922)"
           id="g20"><path
             id="path22"
             style="fill:#ffffff;fill-opacity:1;fill-rule:nonzero;stroke:none"
             d="m 0,0 c -54.268,-54.302 -126.426,-84.148 -203.154,-84.148 -14.383,0 -28.603,1.048 -42.575,3.109 l -0.766,-0.605 -0.551,0.815 c -60.079,9.145 -115.501,37.023 -159.283,80.829 -54.274,54.244 -84.139,126.397 -84.139,203.136 0,76.761 29.865,148.911 84.139,203.163 54.272,54.252 126.426,84.14 203.175,84.14 76.728,0 148.886,-29.888 203.154,-84.14 C 54.27,352.047 84.158,279.897 84.158,203.136 84.158,126.397 54.27,54.244 0,0 m 7.314,413.612 c -56.222,56.207 -130.978,87.171 -210.468,87.171 -79.512,0 -154.262,-30.964 -210.491,-87.171 -56.225,-56.205 -87.167,-130.951 -87.167,-210.476 0,-79.502 30.942,-154.252 87.167,-210.449 56.229,-56.256 130.979,-87.179 210.491,-87.179 79.49,0 154.246,30.923 210.468,87.179 56.223,56.197 87.188,130.947 87.188,210.449 0,79.525 -30.965,154.271 -87.188,210.476" /></g><g
           transform="translate(554.2725,239.3457)"
           id="g24"><path
             id="path26"
             style="fill:#ffffff;fill-opacity:1;fill-rule:nonzero;stroke:none"
             d="m 0,0 -14.689,-7.163 -14.239,8.11 2.235,-16.214 -12.129,-10.989 16.127,-2.905 6.656,-14.898 7.803,14.402 16.207,1.774 -11.272,11.814 z" /></g><g
           transform="translate(71.9561,238.3926)"
           id="g28"><path
             id="path30"
             style="fill:#ffffff;fill-opacity:1;fill-rule:nonzero;stroke:none"
             d="m 0,0 -14.225,-8.139 -14.664,7.135 3.279,-16.052 -11.277,-11.779 16.219,-1.814 7.811,-14.416 6.664,14.932 16.099,2.925 -12.12,10.993 z" /></g><g
           transform="translate(50.4746,287.9443)"
           id="g32"><path
             id="path34"
             style="fill:#ffffff;fill-opacity:1;fill-rule:nonzero;stroke:none"
             d="m 0,0 -0.183,6.545 13.575,0.38 0.181,-6.545 z m -20.469,-0.571 -0.182,6.544 12.412,0.347 0.183,-6.544 z m 35.659,15.882 -15.605,-0.436 -4.662,-4.716 -4.611,3.801 -13.573,-0.379 -6.658,-6.08 0.466,-16.659 52.477,1.467 -0.478,17.133 z" /></g><g
           transform="translate(23.9551,342.1455)"
           id="g36"><path
             id="path38"
             style="fill:#ffffff;fill-opacity:1;fill-rule:nonzero;stroke:none"
             d="M 0,0 52.089,-6.547 53.128,1.721 1.038,8.269 Z" /></g><g
           transform="translate(64.4971,317.6748)"
           id="g40"><path
             id="path42"
             style="fill:#ffffff;fill-opacity:1;fill-rule:nonzero;stroke:none"
             d="M 0,0 -15.851,1.992 -15.115,7.838 0.734,5.847 Z M -15.806,16.323 -23.777,10.547 -24.713,3.105 -42.939,5.396 -43.98,-2.871 8.111,-9.418 10.084,6.291 3.863,13.852 Z" /></g><g
           transform="translate(68.6416,375.873)"
           id="g44"><path
             id="path46"
             style="fill:#ffffff;fill-opacity:1;fill-rule:nonzero;stroke:none"
             d="m 0,0 -2.305,-8.007 7.536,-2.17 -1.877,-6.519 -32.726,9.421 1.878,6.52 7.326,-2.109 2.306,8.007 -7.327,2.109 -10.938,-4.655 -2.338,-8.122 6.788,-9.757 32.726,-9.422 10.937,4.655 2.338,8.122 -6.787,9.758 z" /></g><g
           transform="translate(50.3623,423.0244)"
           id="g48"><path
             id="path50"
             style="fill:#ffffff;fill-opacity:1;fill-rule:nonzero;stroke:none"
             d="M 0,0 39.926,-18.67 37.355,-24.169 8.15,-10.513 5.1,-17.036 34.304,-30.692 31.783,-36.084 -8.143,-17.415 -11.673,-24.963 35.884,-47.2 51.086,-14.689 3.529,7.548 Z" /></g><g
           transform="translate(77.5576,450.5391)"
           id="g52"><path
             id="path54"
             style="fill:#ffffff;fill-opacity:1;fill-rule:nonzero;stroke:none"
             d="m 0,0 18.52,-12.538 -4.072,-6.014 -16.235,10.992 -0.995,3.451 z m -12.088,-1.664 3.345,-11.249 35.958,-24.343 4.672,6.9 -10.463,7.083 4.071,6.012 10.462,-7.082 4.672,6.9 -43.475,29.431 z" /></g><g
           transform="translate(109.2295,468.2402)"
           id="g56"><path
             id="path58"
             style="fill:#ffffff;fill-opacity:1;fill-rule:nonzero;stroke:none"
             d="m 0,0 -4.012,-4.558 -10.247,9.021 4.012,4.557 z m -22.754,8.77 1.627,-9.362 11.609,-10.22 6.888,-0.196 1.018,-6.208 7.903,-6.957 -2.046,-2.322 6.704,-5.902 4.288,4.87 -1.318,7.185 -8.829,7.773 -0.653,3.873 2.375,2.699 15.424,-13.579 5.428,6.166 -39.406,34.688 z" /></g><g
           transform="translate(153.9912,492.0283)"
           id="g60"><path
             id="path62"
             style="fill:#ffffff;fill-opacity:1;fill-rule:nonzero;stroke:none"
             d="m 0,0 4.764,-6.229 -5.389,-4.122 -20.687,27.052 5.389,4.122 4.632,-6.056 6.619,5.061 -4.632,6.057 -11.558,2.77 -6.714,-5.134 -0.356,-11.881 20.687,-27.052 11.559,-2.77 6.713,5.134 0.357,11.881 -4.765,6.229 z" /></g><g
           transform="translate(170.4619,533.7168)"
           id="g64"><path
             id="path66"
             style="fill:#ffffff;fill-opacity:1;fill-rule:nonzero;stroke:none"
             d="m 0,0 -4.697,7.936 -18.184,-10.762 4.697,-7.936 5.533,3.274 22.044,-37.242 7.17,4.244 -22.043,37.242 z" /></g><g
           transform="translate(200.3613,510.3447)"
           id="g68"><path
             id="path70"
             style="fill:#ffffff;fill-opacity:1;fill-rule:nonzero;stroke:none"
             d="m 0,0 -5.7,12.563 7.589,3.443 -3.482,7.671 -7.588,-3.444 -4.889,10.78 9.105,4.131 -3.809,8.397 -16.694,-7.573 21.69,-47.81 16.694,7.574 -3.811,8.399 z" /></g><g
           transform="translate(202.25,558.1328)"
           id="g72"><path
             id="path74"
             style="fill:#ffffff;fill-opacity:1;fill-rule:nonzero;stroke:none"
             d="m 0,0 15.89,-50.037 7.941,2.521 -13.339,42.01 6.296,1.999 13.34,-42.009 7.941,2.522 -15.888,50.037 z" /></g><g
           transform="translate(252.458,527.0625)"
           id="g76"><path
             id="path78"
             style="fill:#ffffff;fill-opacity:1;fill-rule:nonzero;stroke:none"
             d="m 0,0 -2.609,13.548 8.181,1.576 -1.593,8.272 -8.181,-1.578 -2.24,11.622 9.819,1.892 -1.745,9.056 -18,-3.469 9.931,-51.551 18,3.468 -1.745,9.056 z" /></g><g
           transform="translate(280.4697,574.2227)"
           id="g80"><path
             id="path82"
             style="fill:#ffffff;fill-opacity:1;fill-rule:nonzero;stroke:none"
             d="m 0,0 1.557,-20.708 -6.886,-0.518 -1.556,20.708 -8.309,-0.624 3.933,-52.351 8.31,0.625 -1.748,23.243 6.885,0.518 1.748,-23.245 8.308,0.625 -3.933,52.352 z" /></g><g
           transform="translate(312.9668,531.0273)"
           id="g84"><path
             id="path86"
             style="fill:#ffffff;fill-opacity:1;fill-rule:nonzero;stroke:none"
             d="m 0,0 -5.885,0.296 0.8,15.955 5.886,-0.296 z m -4.636,25.171 0.92,18.348 -8.323,0.418 -2.63,-52.434 15.813,-0.793 7.073,6.769 0.993,19.799 -6.357,7.517 z" /></g><g
           transform="translate(358.3604,523.6006)"
           id="g88"><path
             id="path90"
             style="fill:#ffffff;fill-opacity:1;fill-rule:nonzero;stroke:none"
             d="m 0,0 -6.58,1.657 8.32,33.025 6.578,-1.659 -1.861,-7.393 8.08,-2.035 1.861,7.393 -5.018,10.775 -8.196,2.064 -9.526,-7.11 -8.317,-33.024 5.018,-10.775 8.196,-2.064 9.525,7.11 1.916,7.604 -8.08,2.036 z" /></g><g
           transform="translate(386.7256,513.9941)"
           id="g92"><path
             id="path94"
             style="fill:#ffffff;fill-opacity:1;fill-rule:nonzero;stroke:none"
             d="M 0,0 -6.699,2.645 5.859,34.456 12.558,31.812 Z M 16.407,40.05 8.676,43.103 -1.892,37.516 -14.449,5.705 -10.547,-5.75 -2.926,-8.76 7.75,-3.06 20.309,28.751 Z" /></g><g
           transform="translate(413.8232,500.6836)"
           id="g96"><path
             id="path98"
             style="fill:#ffffff;fill-opacity:1;fill-rule:nonzero;stroke:none"
             d="m 0,0 -6.299,3.492 16.581,29.912 6.3,-3.492 z M 21.468,37.582 14.199,41.611 2.995,37.444 -13.586,7.532 -11.204,-4.333 -4.039,-8.305 7.287,-4.04 23.869,25.872 Z" /></g><g
           transform="translate(460.8936,510.3291)"
           id="g100"><path
             id="path102"
             style="fill:#ffffff;fill-opacity:1;fill-rule:nonzero;stroke:none"
             d="m 0,0 5.332,7.524 -17.239,12.217 -5.332,-7.524 5.243,-3.717 -25.022,-35.31 6.798,-4.817 25.024,35.31 z" /></g><g
           transform="translate(451.7344,473.5771)"
           id="g104"><path
             id="path106"
             style="fill:#ffffff;fill-opacity:1;fill-rule:nonzero;stroke:none"
             d="M 0,0 9.069,10.105 13.942,5.732 4.872,-4.373 Z m 22.747,25.345 4.872,-4.373 -8.294,-9.242 -4.871,4.374 z m -2.604,-25.178 -0.209,6.628 5.93,0.726 9.071,10.105 0.173,9.016 -12.402,11.131 -35.066,-39.071 12.756,-11.449 9.32,1.296 z" /></g><g
           transform="translate(472.6504,452.832)"
           id="g108"><path
             id="path110"
             style="fill:#ffffff;fill-opacity:1;fill-rule:nonzero;stroke:none"
             d="m 0,0 10.327,9.147 5.526,-6.236 6.304,5.585 -5.523,6.237 8.859,7.848 6.629,-7.485 6.904,6.115 L 26.872,34.933 -12.429,0.124 -0.272,-13.6 6.63,-7.485 Z" /></g><g
           transform="translate(522.5264,443.8594)"
           id="g112"><path
             id="path114"
             style="fill:#ffffff;fill-opacity:1;fill-rule:nonzero;stroke:none"
             d="m 0,0 7.518,5.34 -12.232,17.227 -7.518,-5.338 3.72,-5.242 -35.287,-25.053 4.824,-6.794 35.287,25.053 z" /></g><g
           transform="translate(515.7197,402.8457)"
           id="g116"><path
             id="path118"
             style="fill:#ffffff;fill-opacity:1;fill-rule:nonzero;stroke:none"
             d="m 0,0 -3.984,7.318 -6.888,-3.751 -3.245,5.96 29.909,16.285 3.245,-5.958 -6.696,-3.646 3.984,-7.318 6.696,3.646 4.514,10.996 -4.043,7.423 -11.685,2.176 -29.909,-16.286 -4.513,-10.996 4.043,-7.423 11.685,-2.177 z" /></g><g
           transform="translate(550.3955,387.46)"
           id="g120"><path
             id="path122"
             style="fill:#ffffff;fill-opacity:1;fill-rule:nonzero;stroke:none"
             d="m 0,0 8.564,3.419 -7.833,19.623 -8.565,-3.419 2.384,-5.97 -40.195,-16.044 3.09,-7.739 40.193,16.045 z" /></g><g
           transform="translate(522.7119,361.5469)"
           id="g124"><path
             id="path126"
             style="fill:#ffffff;fill-opacity:1;fill-rule:nonzero;stroke:none"
             d="M 0,0 13.117,3.511 14.811,-2.813 1.693,-6.324 Z M 32.896,8.808 34.591,2.483 22.596,-0.728 20.902,5.596 Z m -15.931,-19.67 3.444,5.667 5.364,-2.63 13.118,3.511 5.069,7.458 -4.31,16.097 -50.713,-13.577 4.433,-16.559 8.515,-4.004 z" /></g><g
           transform="translate(572.8057,331.1367)"
           id="g128"><path
             id="path130"
             style="fill:#ffffff;fill-opacity:1;fill-rule:nonzero;stroke:none"
             d="M 0,0 -10.935,-1.494 -36.148,3.892 -1.184,8.669 -2.15,15.745 -54.166,8.64 -53.2,1.562 l 24.71,-5.455 -23.526,-3.213 0.976,-7.136 52.016,7.106 z" /></g><g
           transform="translate(551.9619,296.7168)"
           id="g132"><path
             id="path134"
             style="fill:#ffffff;fill-opacity:1;fill-rule:nonzero;stroke:none"
             d="m 0,0 -0.066,6.07 13.65,0.15 0.066,-6.071 z m -0.158,14.402 -5.251,-4.462 -4.908,3.934 -10.529,-0.115 -0.035,3.095 -8.93,-0.098 0.072,-6.486 5.785,-4.461 11.763,0.128 3.076,-2.442 0.04,-3.595 -20.549,-0.224 0.09,-8.213 52.495,0.574 -0.182,16.664 -7.471,5.87 z" /></g><g
           transform="translate(297.6572,472.0713)"
           id="g136"><path
             id="path138"
             style="fill:#ffffff;fill-opacity:1;fill-rule:nonzero;stroke:none"
             d="m 0,0 c 96.178,0 174.441,-78.271 174.441,-174.441 0,-96.185 -78.263,-174.453 -174.441,-174.453 -96.186,0 -174.445,78.268 -174.445,174.453 C -174.445,-78.271 -96.186,0 0,0 m 0,-353.853 c 47.912,0 92.969,18.676 126.865,52.565 33.877,33.87 52.539,78.934 52.539,126.847 0,47.917 -18.662,92.996 -52.539,126.866 C 92.969,-13.687 47.912,4.955 0,4.955 c -47.928,0 -92.984,-18.642 -126.874,-52.53 -33.87,-33.87 -52.546,-78.949 -52.546,-126.866 0,-47.913 18.676,-92.977 52.546,-126.847 33.89,-33.889 78.946,-52.565 126.874,-52.565" /></g><g
           transform="translate(91.6074,297.6299)"
           id="g140"><path
             id="path142"
             style="fill:#ffffff;fill-opacity:1;fill-rule:nonzero;stroke:none"
             d="m 0,0 c 0,113.615 92.427,206.062 206.05,206.062 113.607,0 206.049,-92.447 206.049,-206.062 0,-113.614 -92.442,-206.042 -206.049,-206.042 C 92.427,-206.042 0,-113.614 0,0 m 353.688,-147.628 c 39.444,39.423 61.165,91.859 61.165,147.628 0,55.789 -21.721,108.221 -61.165,147.647 -39.437,39.428 -91.876,61.149 -147.638,61.149 -55.778,0 -108.213,-21.721 -147.655,-61.149 C 18.952,108.221 -2.755,55.789 -2.755,0 c 0,-55.769 21.707,-108.205 61.15,-147.628 39.442,-39.461 91.877,-61.152 147.655,-61.152 55.762,0 108.201,21.691 147.638,61.152" /></g><g
           transform="translate(285.0459,169.9238)"
           id="g144"><path
             id="path146"
             style="fill:#ffffff;fill-opacity:1;fill-rule:nonzero;stroke:none"
             d="m 0,0 c 0.375,-10.675 -7.652,-19.63 -17.944,-20.006 h -0.648 c -9.99,0 -18.282,8.233 -18.664,18.68 -0.356,10.672 7.662,19.631 17.947,20.006 h 0.653 C -8.656,18.68 -0.379,10.447 0,0 M 8.943,89.511 -5.182,104.883 -23.274,25.381 c -12.24,-2.3 -21.301,-13.638 -20.831,-26.953 0.507,-14.285 11.857,-25.559 25.536,-25.559 0.284,0 0.59,0 0.875,0.034 14.077,0.466 25.065,12.713 24.548,27.325 -0.448,12.652 -9.362,22.903 -20.863,25.123 l 24.321,60.757 z" /></g><g
           transform="translate(312.6963,299.9639)"
           id="g148"><path
             id="path150"
             style="fill:#ffffff;fill-opacity:1;fill-rule:nonzero;stroke:none"
             d="M 0,0 V 30.082 L 4.777,29.869 V 0 h 6.545 v 29.612 l 4.789,-0.213 V 0 h 6.534 v 29.139 l 4.796,-0.175 V 0 h 6.541 v 28.673 l 4.797,-0.179 V 0 h 6.535 v 28.218 l 4.78,-0.194 V 0 h 6.551 v 27.748 l 4.779,-0.193 V 0 h 6.543 v 27.278 l 4.797,-0.193 V 0 h 6.545 v 26.809 l 4.785,-0.212 V 0 h 6.537 v 26.339 l 4.793,-0.178 V 0 h 6.545 v 25.869 l 4.797,-0.178 V 0 h 6.535 v 25.43 l 4.775,-0.208 V 0 h 6.539 v 24.93 l 4.795,-0.178 V 0 h 9.281 V 35.199 L 3.42,49.5 H -3.367 L -0.535,0 Z" /></g><g
           transform="translate(176.4395,299.9639)"
           id="g152"><path
             id="path154"
             style="fill:#ffffff;fill-opacity:1;fill-rule:nonzero;stroke:none"
             d="m 0,0 v 25.869 l 2.379,0.08 V 0 h 3.243 v 26.081 l 2.363,0.08 V 0 h 3.246 v 26.274 l 2.365,0.095 V 0 h 3.231 v 26.468 l 2.383,0.079 V 0 h 3.238 v 26.68 l 2.375,0.08 V 0 h 3.239 v 26.889 l 2.365,0.083 V 0 h 3.25 V 27.085 L 36.04,27.18 V 0 h 3.239 v 27.278 l 2.372,0.08 V 0 h 3.243 v 27.486 l 2.355,0.084 V 0 h 3.239 v 27.699 l 2.383,0.079 V 0 h 3.239 v 27.877 l 2.371,0.113 V 0 h 3.239 v 28.089 l 2.361,0.08 V 0 h 3.254 v 28.298 l 2.363,0.083 V 0 h 3.242 v 28.51 l 2.373,0.079 V 0 h 3.231 v 28.687 l 2.383,0.115 V 0 h 3.238 v 28.896 l 2.364,0.083 V 0 h 3.243 v 29.108 l 2.372,0.079 V 0 h 3.23 v 29.316 l 2.379,0.083 V 0 h 3.243 v 29.528 l 2.364,0.084 V 0 h 0.776 l 2.834,49.5 H 99.296 L -36.204,35.15 V 0 h 8.164 v 24.851 l 2.363,0.079 V 0 h 3.24 v 25.043 l 2.375,0.099 V 0 h 3.239 v 25.256 l 2.375,0.079 V 0 h 3.238 v 25.464 l 2.38,0.064 V 0 h 3.231 v 25.657 l 2.368,0.083 0,-25.74 z" /></g><g
           transform="translate(293.7354,312.9385)"
           id="g156"><path
             id="path158"
             style="fill:#ffffff;fill-opacity:1;fill-rule:nonzero;stroke:none"
             d="M 0,0 H 5.266 L 7.898,-4.568 5.266,-9.118 H 0 l -2.633,4.55 z m 33.266,-124.335 c 10.277,-0.375 18.302,-9.334 17.947,-20.006 -0.379,-10.447 -8.674,-18.68 -18.676,-18.68 h -0.633 c -10.295,0.376 -18.318,9.332 -17.947,20.006 0.379,10.448 8.674,18.68 18.66,18.68 z m -44.918,104.492 -0.326,-5.701 -0.329,-5.655 -0.314,-5.489 14.508,-15.793 0.754,-1.879 0.511,-1.266 0.493,-1.28 24.324,-60.758 c -11.5,-2.22 -20.418,-12.471 -20.865,-25.123 -0.52,-14.611 10.474,-26.859 24.55,-27.324 0.282,-0.035 0.584,-0.035 0.871,-0.035 13.68,0 25.03,11.259 25.541,25.559 0.469,13.316 -8.595,24.653 -20.832,26.953 l -18.095,79.502 -0.291,1.363 -1.27,5.57 -4.156,18.224 -3.117,13.687 -7.664,128.778 -0.485,7.937 -0.469,7.936 -0.315,5.25 -3.63,-5.977 -6.238,-109.145 -2.77,-48.466 z" /></g><g
           transform="translate(305.9189,313.9268)"
           id="g160"><path
             id="path162"
             style="fill:#ffffff;fill-opacity:1;fill-rule:nonzero;stroke:none"
             d="m 0,0 4.738,-20.831 -0.388,6.868 -1.879,32.9 -7.127,124.71 -3.63,5.978 -0.318,-5.25 6.491,-108.838 z" /></g><g
           transform="translate(140.0811,280.1709)"
           id="g164"><path
             id="path166"
             style="fill:#ffffff;fill-opacity:1;fill-rule:nonzero;stroke:none"
             d="M 0,0 H 8.981 V -46.879 H 24.127 V 0 h 8.909 V 13.281 H 0 Z" /></g><path
           id="path168"
           style="fill:#ffffff;fill-opacity:1;fill-rule:nonzero;stroke:none"
           d="m 203.157,246.607 h -6.656 v 33.723 h 6.656 z M 193.331,293.452 181.364,282 v -37.029 l 11.967,-11.679 h 12.993 l 11.978,11.679 V 282 l -11.978,11.452 z" /><path
           id="path170"
           style="fill:#ffffff;fill-opacity:1;fill-rule:nonzero;stroke:none"
           d="M 243.354,280.171 H 248.1 V 265.67 h -4.746 z m 0,-27.476 h 9.402 l 10.489,8.653 v 23.55 l -10.561,8.554 h -24.476 v -60.16 h 15.146 z" /><g
           transform="translate(342.1299,293.4521)"
           id="g172"><path
             id="path174"
             style="fill:#ffffff;fill-opacity:1;fill-rule:nonzero;stroke:none"
             d="M 0,0 -10.49,-10.547 V -49.584 L 0,-60.16 h 11.729 l 10.576,10.576 v 20.313 H 5.986 v -10.236 h 4.662 V -49.584 H 1.16 v 39.037 h 9.488 v -11.322 h 11.657 v 11.322 L 11.729,0 Z" /></g><g
           transform="translate(395.3799,243.8682)"
           id="g176"><path
             id="path178"
             style="fill:#ffffff;fill-opacity:1;fill-rule:nonzero;stroke:none"
             d="M 0,0 H -9.152 V 49.584 H -20.797 V 0 l 10.563,-10.576 H 1.08 L 11.656,0 V 49.584 H 0 Z" /></g><g
           transform="translate(440.4033,268.6846)"
           id="g180"><path
             id="path182"
             style="fill:#ffffff;fill-opacity:1;fill-rule:nonzero;stroke:none"
             d="m 0,0 -12.813,24.768 h -10.406 v -60.161 h 10.99 V 1.814 h 0.081 L 0,-23.214 V -35.393 H 10.984 V 24.768 H 0 Z" /></g><g
           transform="translate(170.6543,442.4785)"
           id="g184"><path
             id="path186"
             style="fill:#ffffff;fill-opacity:1;fill-rule:nonzero;stroke:none"
             d="m 0,0 3.175,-3.713 -2.606,-2.234 -3.175,3.708 z m -7.401,3.353 2.605,2.234 2.937,-3.421 -2.611,-2.25 z m 13.636,-8.782 0.746,4.05 -3.658,4.228 -2.948,-0.258 0.52,2.576 -3.187,3.689 -3.943,-0.159 -6.64,-5.685 12.276,-14.32 z" /></g><g
           transform="translate(189.0576,463.8926)"
           id="g188"><path
             id="path190"
             style="fill:#ffffff;fill-opacity:1;fill-rule:nonzero;stroke:none"
             d="m 0,0 0.508,1.489 2.22,1.36 4.227,-6.834 -3.246,-1.993 z m 7.693,-12.41 -2.397,3.838 3.254,2.026 2.376,-3.871 3.734,2.314 -9.925,16.02 -7.36,-4.549 -1.621,-4.826 8.213,-13.267 z" /></g><g
           transform="translate(217.0225,479.667)"
           id="g192"><path
             id="path194"
             style="fill:#ffffff;fill-opacity:1;fill-rule:nonzero;stroke:none"
             d="m 0,0 3.166,1.363 1.8,-4.246 -3.191,-1.345 z m 6.034,-14.319 -3.175,7.549 1.788,0.761 1.857,-0.553 2.705,-6.413 4.033,1.686 -2.958,7.03 -3.091,0.778 1.273,2.669 L 6.568,3.712 2.754,4.746 -5.312,1.363 2,-16.002 Z" /></g><g
           transform="translate(250.0732,490.6338)"
           id="g196"><path
             id="path198"
             style="fill:#ffffff;fill-opacity:1;fill-rule:nonzero;stroke:none"
             d="m 0,0 1.088,-4.356 -3.338,-0.812 -1.068,4.326 z m 2.959,-11.857 -3.345,-0.841 -1.175,4.727 3.346,0.845 z m 1.951,-2.932 2.481,3.272 -1.348,5.425 -2.762,1.103 1.614,2.056 L 3.729,1.799 0.125,3.45 -8.371,1.329 -3.837,-16.976 Z" /></g><g
           transform="translate(284.4629,480.2686)"
           id="g200"><path
             id="path202"
             style="fill:#ffffff;fill-opacity:1;fill-rule:nonzero;stroke:none"
             d="m 0,0 -0.308,3.288 -5.23,-0.47 -0.463,4.907 4.35,0.42 -0.274,3.001 -4.359,-0.391 -0.403,4.227 5.232,0.5 -0.311,3.292 -9.602,-0.909 1.78,-18.759 z" /></g><g
           transform="translate(306.7021,496.0127)"
           id="g204"><path
             id="path206"
             style="fill:#ffffff;fill-opacity:1;fill-rule:nonzero;stroke:none"
             d="m 0,0 3.438,-0.179 -0.237,-4.602 -3.435,0.182 z m -0.377,-7.372 1.936,-0.099 1.431,-1.276 -0.349,-6.947 4.373,-0.228 0.388,7.596 -2.427,2.056 2.285,1.831 0.258,4.875 -2.971,2.64 -8.75,0.454 -0.963,-18.839 4.375,-0.226 z" /></g><g
           transform="translate(340.1025,475.8779)"
           id="g208"><path
             id="path210"
             style="fill:#ffffff;fill-opacity:1;fill-rule:nonzero;stroke:none"
             d="m 0,0 4.084,1.929 1.217,5.75 -3.225,3.63 -3.791,1.048 0.617,2.883 L 0.99,14.805 0.543,12.763 5.687,11.68 6.434,15.176 3.402,18.547 -2.283,19.76 -6.363,17.865 -7.564,12.164 -4.34,8.569 -0.564,7.501 -1.189,4.52 -3.279,4.959 -2.863,6.898 -8.42,8.1 -9.141,4.729 -6.186,1.326 Z" /></g><g
           transform="translate(368.2568,475.5225)"
           id="g212"><path
             id="path214"
             style="fill:#ffffff;fill-opacity:1;fill-rule:nonzero;stroke:none"
             d="M 0,0 2.156,-0.845 -0.727,-8.213 4.584,-10.27 11.443,7.273 6.141,9.346 3.58,2.784 1.424,3.625 l 2.56,6.546 -5.295,2.091 -6.867,-17.576 5.295,-2.058 z" /></g><g
           transform="translate(399.9756,467.8584)"
           id="g216"><path
             id="path218"
             style="fill:#ffffff;fill-opacity:1;fill-rule:nonzero;stroke:none"
             d="m 0,0 2.152,-1.28 -5.361,-9.084 -2.17,1.277 z m -4.311,-14.562 5.735,0.861 5.887,9.973 -2.049,5.399 -4.194,2.477 -5.72,-0.795 -5.879,-10.012 2.015,-5.425 z" /></g><g
           transform="translate(427.251,448.7783)"
           id="g220"><path
             id="path222"
             style="fill:#ffffff;fill-opacity:1;fill-rule:nonzero;stroke:none"
             d="m 0,0 1.371,-1.152 -2.902,-3.496 -1.367,1.147 z m -5.498,-6.61 2.713,-2.266 4.754,-0.455 4.728,5.671 -1.334,4.599 -7.06,5.894 -12.071,-14.497 4.372,-3.629 z" /></g><g
           transform="translate(180.333,158.4072)"
           id="g224"><path
             id="path226"
             style="fill:#ffffff;fill-opacity:1;fill-rule:nonzero;stroke:none"
             d="m 0,0 -7.679,-2.996 2.365,7.872 -2.387,2.201 -12.691,-13.815 2.584,-2.379 7.709,8.421 0.007,-0.034 -1.722,-6.786 6.625,2.3 0.007,-0.034 -7.685,-8.372 2.567,-2.383 12.672,13.835 z" /></g><g
           transform="translate(194.5469,147.1494)"
           id="g228"><path
             id="path230"
             style="fill:#ffffff;fill-opacity:1;fill-rule:nonzero;stroke:none"
             d="m 0,0 -4.534,-6.27 -2.107,1.523 4.554,6.269 -2.947,2.137 -4.781,-6.576 0.727,-3.966 2.69,-1.943 -2.656,-3.679 -2.106,1.523 1.359,1.878 -2.938,2.137 -1.368,-1.879 0.727,-4.633 2.659,-1.893 4.599,0.726 9.08,12.509 z" /></g><g
           transform="translate(215.7373,134.0957)"
           id="g232"><path
             id="path234"
             style="fill:#ffffff;fill-opacity:1;fill-rule:nonzero;stroke:none"
             d="m 0,0 -6.197,-5.38 3.731,6.739 -3.11,1.716 -3.724,-6.723 1.288,8.084 -3.167,1.78 -1.052,-8.243 -4.148,-1.019 -3.944,-7.13 3.167,-1.75 3.556,6.383 1.532,0.406 1.488,-0.811 -4.08,-7.367 3.125,-1.72 4.057,7.356 1.498,-0.826 0.468,-1.522 -3.53,-6.399 3.175,-1.75 3.935,7.125 -1.326,4.05 6.422,5.25 z" /></g><g
           transform="translate(229.333,127.8105)"
           id="g236"><path
             id="path238"
             style="fill:#ffffff;fill-opacity:1;fill-rule:nonzero;stroke:none"
             d="m 0,0 -4.27,-1.833 -4.567,-11.273 1.799,-4.292 3.409,-1.375 4.27,1.829 1.045,2.606 -3.372,1.359 -1.044,-2.621 -2.736,1.133 4.569,11.274 2.735,-1.118 -1.027,-2.545 3.368,-1.341 1.011,2.526 -1.78,4.277 z" /></g><g
           transform="translate(250.1982,120.6016)"
           id="g240"><path
             id="path242"
             style="fill:#ffffff;fill-opacity:1;fill-rule:nonzero;stroke:none"
             d="m 0,0 -4.822,-6.641 2.125,7.399 -3.492,1.008 -5.145,-18.029 3.485,-1.007 2.315,8.099 1.637,-0.47 0.802,-1.375 -2.008,-7.031 3.482,-0.988 2.242,7.822 -2.265,3.693 5.133,6.532 z" /></g><g
           transform="translate(268.2002,112.6318)"
           id="g244"><path
             id="path246"
             style="fill:#ffffff;fill-opacity:1;fill-rule:nonzero;stroke:none"
             d="m 0,0 -5.231,-7.891 2.155,12.441 -3.069,0.518 -3.201,-18.464 3.053,-0.552 5.209,7.713 -1.443,-8.361 3.095,-0.55 3.208,18.483 -3.094,0.55 z" /></g><g
           transform="translate(279.4658,96.2402)"
           id="g248"><path
             id="path250"
             style="fill:#ffffff;fill-opacity:1;fill-rule:nonzero;stroke:none"
             d="M 0,0 7.963,-0.583 8.205,2.705 3.856,3.026 4.205,7.937 7.834,7.675 8.058,10.671 4.432,10.933 4.731,15.16 9.08,14.854 9.322,18.138 1.345,18.721 Z" /></g><g
           transform="translate(318.4951,102.6533)"
           id="g252"><path
             id="path254"
             style="fill:#ffffff;fill-opacity:1;fill-rule:nonzero;stroke:none"
             d="m 0,0 0.285,-2.788 -2.955,-0.288 -1.225,12.099 2.956,0.273 0.277,-2.69 3.609,0.375 -0.291,2.69 -3.572,2.978 -3.668,-0.406 -2.916,-3.595 1.217,-12.084 3.594,-2.961 3.656,0.371 2.92,3.598 -0.272,2.799 z" /></g><g
           transform="translate(337.917,115.3213)"
           id="g256"><path
             id="path258"
             style="fill:#ffffff;fill-opacity:1;fill-rule:nonzero;stroke:none"
             d="m 0,0 -0.646,3.239 -9.024,-1.8 0.639,-3.239 2.74,0.55 3.053,-15.142 3.552,0.694 -3.037,15.178 z" /></g><g
           transform="translate(351.5635,112.8887)"
           id="g260"><path
             id="path262"
             style="fill:#ffffff;fill-opacity:1;fill-rule:nonzero;stroke:none"
             d="M 0,0 -1.74,5.637 0.723,6.398 2.453,0.762 Z M 0.416,9.751 -6.18,7.713 -0.656,-10.205 2.82,-9.133 0.932,-2.996 4.061,-2.022 6.098,1.281 3.969,8.179 Z" /></g><g
           transform="translate(369.3174,129.2354)"
           id="g264"><path
             id="path266"
             style="fill:#ffffff;fill-opacity:1;fill-rule:nonzero;stroke:none"
             d="m 0,0 1.557,-3.629 -0.075,-9.444 -4.982,11.565 -2.855,-1.231 7.382,-17.202 2.871,1.231 0.153,9.281 3.351,-7.807 2.891,1.264 -7.402,17.233 z" /></g><g
           transform="translate(395.2588,134.1748)"
           id="g268"><path
             id="path270"
             style="fill:#ffffff;fill-opacity:1;fill-rule:nonzero;stroke:none"
             d="m 0,0 -1.213,8.228 -3.129,-1.83 1.459,-8.069 -3.879,6.66 -3.076,-1.8 3.887,-6.655 -6.311,5.246 -3.125,-1.829 6.545,-5.088 -1.25,-4.114 4.1,-7.012 3.137,1.83 -3.686,6.315 0.449,1.508 1.479,0.86 4.222,-7.259 3.073,1.815 -4.235,7.224 1.473,0.89 1.547,-0.371 3.685,-6.315 3.125,1.795 -4.099,7.066 z" /></g><g
           transform="translate(411.1846,145.3193)"
           id="g272"><path
             id="path274"
             style="fill:#ffffff;fill-opacity:1;fill-rule:nonzero;stroke:none"
             d="m 0,0 -2.156,8.05 -2.901,-2.186 2.432,-7.842 -4.668,6.141 -2.883,-2.204 11.332,-14.934 2.889,2.202 -5.082,6.674 1.367,1.053 1.565,-0.178 4.427,-5.834 2.895,2.191 -4.926,6.477 z" /></g><g
           transform="translate(420.6279,163.6582)"
           id="g276"><path
             id="path278"
             style="fill:#ffffff;fill-opacity:1;fill-rule:nonzero;stroke:none"
             d="m 0,0 2.705,-2.853 3.141,-8.924 -8.625,9.167 -2.278,-2.121 12.854,-13.672 2.275,2.136 -3.029,8.796 5.799,-6.185 2.297,2.136 L 2.281,2.137 Z" /></g><g
           transform="translate(196.1357,415.1865)"
           id="g280"><path
             id="path282"
             style="fill:#ffffff;fill-opacity:1;fill-rule:nonzero;stroke:none"
             d="M 0,0 0.708,0.587 0.067,1.359 C -0.955,2.593 -1.257,3.927 -0.006,4.963 1.276,6.027 2.532,5.484 3.555,4.251 L 5.588,1.8 3.235,-0.149 3.808,-0.841 6.16,1.108 8.52,-1.737 C 9.543,-2.971 9.83,-4.287 8.547,-5.352 7.296,-6.388 6.055,-5.862 5.032,-4.629 L 4.064,-3.461 3.34,-4.061 4.268,-5.18 c 1.377,-1.661 3.138,-2.311 4.898,-0.851 1.744,1.445 1.448,3.308 0.069,4.971 L 4.353,4.829 C 2.975,6.49 1.198,7.127 -0.546,5.682 -2.306,4.222 -1.977,2.384 -0.599,0.724 Z" /></g><g
           transform="translate(207.3418,428.5029)"
           id="g284"><path
             id="path286"
             style="fill:#ffffff;fill-opacity:1;fill-rule:nonzero;stroke:none"
             d="M 0,0 7.972,-11.583 8.781,-11.025 0.81,0.558 3.327,2.289 2.819,3.028 -3.025,-0.993 -2.517,-1.733 Z" /></g><g
           transform="translate(220.6475,436.5488)"
           id="g288"><path
             id="path290"
             style="fill:#ffffff;fill-opacity:1;fill-rule:nonzero;stroke:none"
             d="M 0,0 6.635,-7.391 2.824,-9.512 Z m 4.068,-13.591 -0.959,3.26 4.073,2.266 2.265,-2.531 0.86,0.478 L 0.103,1.354 -1.148,0.656 3.283,-14.027 Z" /></g><g
           transform="translate(236.2031,429.998)"
           id="g292"><path
             id="path294"
             style="fill:#ffffff;fill-opacity:1;fill-rule:nonzero;stroke:none"
             d="m 0,0 0.357,-0.824 0.177,0.077 c 2.004,0.913 1.681,2.52 0.953,4.418 L -2.292,13.379 1.062,14.83 6.646,1.92 7.569,2.318 1.628,16.054 -3.492,13.838 0.594,3.261 C 1.147,1.87 1.551,0.67 0,0" /></g><g
           transform="translate(248.8037,449.1602)"
           id="g296"><path
             id="path298"
             style="fill:#ffffff;fill-opacity:1;fill-rule:nonzero;stroke:none"
             d="m 0,0 c 1.586,0.511 2.583,-0.425 3.082,-1.97 l 2.387,-7.402 c 0.498,-1.546 0.234,-2.888 -1.352,-3.399 -1.566,-0.505 -2.543,0.437 -3.041,1.983 l -2.387,7.401 C -1.809,-1.841 -1.566,-0.506 0,0 m 0.121,-11.029 c 0.669,-2.075 2.116,-3.292 4.272,-2.596 2.196,0.708 2.66,2.541 1.991,4.615 L 4.037,-1.73 C 3.367,0.345 1.92,1.562 -0.275,0.853 -2.432,0.158 -2.896,-1.675 -2.227,-3.749 Z" /></g><g
           transform="translate(263.6475,438.6279)"
           id="g300"><path
             id="path302"
             style="fill:#ffffff;fill-opacity:1;fill-rule:nonzero;stroke:none"
             d="M 0,0 -1.533,6.862 3.014,7.878 4.547,1.018 5.528,1.236 2.264,15.836 1.283,15.617 2.817,8.755 -1.729,7.739 -3.264,14.601 -4.223,14.386 -0.959,-0.215 Z" /></g><g
           transform="translate(319.7803,440.8037)"
           id="g304"><path
             id="path306"
             style="fill:#ffffff;fill-opacity:1;fill-rule:nonzero;stroke:none"
             d="M 0,0 C 2.26,-0.344 3.434,1.121 3.758,3.253 L 4.016,4.943 3.086,5.084 2.819,3.332 C 2.578,1.747 1.785,0.658 0.158,0.905 -1.468,1.154 -1.9,2.431 -1.658,4.014 l 1.17,7.688 c 0.242,1.583 1.038,2.694 2.664,2.446 C 3.803,13.9 4.231,12.604 3.99,11.019 L 3.794,9.73 4.723,9.59 4.91,10.814 c 0.324,2.133 -0.36,3.88 -2.621,4.225 -2.259,0.344 -3.434,-1.12 -3.758,-3.253 L -2.621,4.225 C -2.945,2.092 -2.261,0.345 0,0" /></g><g
           transform="translate(338.1846,436.8994)"
           id="g308"><path
             id="path310"
             style="fill:#ffffff;fill-opacity:1;fill-rule:nonzero;stroke:none"
             d="M 0,0 3.855,13.525 6.795,12.687 7.042,13.551 0.217,15.496 -0.029,14.633 2.91,13.795 -0.946,0.27 Z" /></g><g
           transform="translate(358.0996,437.127)"
           id="g312"><path
             id="path314"
             style="fill:#ffffff;fill-opacity:1;fill-rule:nonzero;stroke:none"
             d="M 0,0 4.565,4.878 -0.665,-7.276 0.159,-7.632 6.074,6.113 4.995,6.578 -0.747,0.484 -4.288,-3.366 0.772,8.396 -0.052,8.75 -5.967,-4.996 -4.984,-5.418 Z" /></g><g
           transform="translate(372.957,425.9062)"
           id="g316"><path
             id="path318"
             style="fill:#ffffff;fill-opacity:1;fill-rule:nonzero;stroke:none"
             d="M 0,0 5.683,8.729 8.817,6.849 1.586,-5.212 2.447,-5.729 10.14,7.102 5.356,9.971 -0.854,0.486 c -0.805,-1.26 -1.545,-2.287 -2.994,-1.42 L -4.31,-1.703 -4.144,-1.802 C -2.234,-2.897 -1.117,-1.698 0,0" /></g><g
           transform="translate(392.4092,420.5039)"
           id="g320"><path
             id="path322"
             style="fill:#ffffff;fill-opacity:1;fill-rule:nonzero;stroke:none"
             d="M 0,0 0.879,1.104 C 1.877,2.358 2.961,2.726 4.23,1.715 L 5.888,0.397 1.855,-4.67 0.619,-3.686 C -0.754,-2.595 -1.25,-1.572 0,0 m -5.161,-6.49 1.463,1.842 c 1.237,1.554 2.436,1.31 3.774,0.247 l 1.221,-0.972 -4.164,-5.235 0.769,-0.613 L 7.215,0.488 4.773,2.431 C 2.984,3.854 1.48,3.438 0.162,1.783 l -0.811,-1.02 c -1.091,-1.371 -1.181,-2.583 -0.24,-3.768 -1.418,0.69 -2.58,0.222 -3.591,-1.049 l -1.452,-1.824 c -0.384,-0.485 -0.843,-0.993 -1.401,-1.179 l 0.803,-0.637 c 0.479,0.19 0.863,0.568 1.369,1.204" /></g><g
           transform="translate(103.3291,167.8701)"
           id="g324"><path
             id="path326"
             style="fill:#ffffff;fill-opacity:1;fill-rule:nonzero;stroke:none"
             d="m 0,0 5.242,-6.917 -38.171,-28.929 6.794,-8.967 38.172,28.929 5.194,-6.853 7.465,5.657 C 18.413,-9.847 12.634,-2.276 7.382,5.594 Z" /></g><g
           transform="translate(111.4639,174.0342)"
           id="g328"><path
             id="path330"
             style="fill:#ffffff;fill-opacity:1;fill-rule:nonzero;stroke:none"
             d="m 0,0 -0.753,-0.57 c 5.252,-7.87 11.031,-15.441 17.315,-22.674 l 0.668,0.507 z" /></g><g
           transform="translate(119.9902,92.8857)"
           id="g332"><path
             id="path334"
             style="fill:#ffffff;fill-opacity:1;fill-rule:nonzero;stroke:none"
             d="m 0,0 -7.221,6.514 25.356,28.102 7.219,-6.513 z m 9.781,42.152 -25.354,-28.102 1.02,-14.666 8.214,-7.41 14.693,0.489 25.354,28.103 -0.951,12.904 c -3.429,2.911 -6.789,5.926 -10.065,9.06 z" /></g><g
           transform="translate(144.2959,135.4629)"
           id="g336"><path
             id="path338"
             style="fill:#ffffff;fill-opacity:1;fill-rule:nonzero;stroke:none"
             d="M 0,0 -1.613,-0.047 C 1.662,-3.182 5.022,-6.196 8.451,-9.107 L 8.334,-7.519 Z" /></g><g
           transform="translate(173.2705,78.8926)"
           id="g340"><path
             id="path342"
             style="fill:#ffffff;fill-opacity:1;fill-rule:nonzero;stroke:none"
             d="m 0,0 -6.922,4.082 9.266,15.714 6.922,-4.082 z m -31.675,-15.747 9.691,-5.715 10.083,17.099 8.131,-4.795 13.461,3.443 9.266,15.714 -2.9,12.178 C 9.694,25.693 3.493,29.531 -2.53,33.681 Z" /></g><g
           transform="translate(171.1064,113.1943)"
           id="g344"><path
             id="path346"
             style="fill:#ffffff;fill-opacity:1;fill-rule:nonzero;stroke:none"
             d="m 0,0 -0.366,-0.621 c 6.023,-4.15 12.224,-7.987 18.587,-11.504 l -0.383,1.607 z" /></g><g
           transform="translate(254.3164,12.8486)"
           id="g348"><path
             id="path350"
             style="fill:#ffffff;fill-opacity:1;fill-rule:nonzero;stroke:none"
             d="M 0,0 0.767,0.604 C 0.326,0.669 -0.11,0.747 -0.551,0.814 Z" /></g><g
           transform="translate(247.8105,34.0586)"
           id="g352"><path
             id="path354"
             style="fill:#ffffff;fill-opacity:1;fill-rule:nonzero;stroke:none"
             d="m 0,0 -5.439,1.083 6.331,31.762 5.439,-1.084 z m 10.044,-8.395 3.827,3.171 7.698,38.618 -6.44,8.509 C 8.911,42.862 2.759,44.08 -3.317,45.549 l -9.239,-5.353 -8.105,-40.667 7.586,-10.034 14.265,-2.844 4.765,-7.047 c 0.441,-0.067 0.877,-0.145 1.317,-0.209 l 8.276,6.525 z" /></g><g
           transform="translate(261.8564,77.3926)"
           id="g356"><path
             id="path358"
             style="fill:#ffffff;fill-opacity:1;fill-rule:nonzero;stroke:none"
             d="M 0,0 -15.764,3.142 -17.363,2.215 C -11.287,0.746 -5.135,-0.472 1.083,-1.431 Z" /></g><g
           transform="translate(304.6592,29.3984)"
           id="g360"><path
             id="path362"
             style="fill:#ffffff;fill-opacity:1;fill-rule:nonzero;stroke:none"
             d="m 0,0 -5.463,-0.079 -0.635,43.99 C -6.399,43.91 -6.7,43.9 -7.002,43.9 c -4.601,0 -9.176,0.155 -13.728,0.427 l 0.706,-49.036 9.362,-8.304 16.232,0.234 9.118,8.57 -0.706,49.083 C 9.141,44.428 4.268,44.132 -0.633,43.996 Z" /></g><g
           transform="translate(298.5615,73.3096)"
           id="g364"><path
             id="path366"
             style="fill:#ffffff;fill-opacity:1;fill-rule:nonzero;stroke:none"
             d="m 0,0 -0.018,1.249 -14.624,-0.211 0.009,-0.622 c 4.553,-0.272 9.128,-0.427 13.729,-0.427 0.301,0 0.602,0.01 0.904,0.011" /></g><g
           transform="translate(304.0088,74.6377)"
           id="g368"><path
             id="path370"
             style="fill:#ffffff;fill-opacity:1;fill-rule:nonzero;stroke:none"
             d="m 0,0 0.018,-1.243 c 4.9,0.136 9.773,0.431 14.615,0.878 L 14.624,0.21 Z" /></g><g
           transform="translate(354.9033,68.8916)"
           id="g372"><path
             id="path374"
             style="fill:#ffffff;fill-opacity:1;fill-rule:nonzero;stroke:none"
             d="M 0,0 4.656,-19.626 -1.6,-21.11 -6.256,-1.484 Z m -20.746,-3.766 10.741,-45.272 14.23,3.376 -3.041,12.824 6.255,1.484 3.041,-12.824 14.231,3.376 -13.257,55.879 C 3.437,12.511 -4.735,10.382 -13.042,8.732 Z" /></g><g
           transform="translate(342.7451,79.0576)"
           id="g376"><path
             id="path378"
             style="fill:#ffffff;fill-opacity:1;fill-rule:nonzero;stroke:none"
             d="m 0,0 -0.884,-1.434 c 8.307,1.65 16.479,3.779 24.496,6.345 l -0.155,0.653 z" /></g><g
           transform="translate(403.168,36.7119)"
           id="g380"><path
             id="path382"
             style="fill:#ffffff;fill-opacity:1;fill-rule:nonzero;stroke:none"
             d="m 0,0 26.365,12.295 -5.366,11.508 -13.111,-6.114 -18.561,39.8 c -4.422,-2.064 -8.907,-3.985 -13.454,-5.752 z" /></g><g
           transform="translate(378.6123,89.3691)"
           id="g384"><path
             id="path386"
             style="fill:#ffffff;fill-opacity:1;fill-rule:nonzero;stroke:none"
             d="M 0,0 0.429,-0.92 C 4.976,0.847 9.461,2.768 13.883,4.832 L 13.254,6.181 Z" /></g><g
           transform="translate(448.9756,60.7412)"
           id="g388"><path
             id="path390"
             style="fill:#ffffff;fill-opacity:1;fill-rule:nonzero;stroke:none"
             d="M 0,0 12.119,8.188 -19.646,55.21 c -3.953,-2.878 -7.98,-5.629 -12.091,-8.23 z" /></g><g
           transform="translate(416.4521,108.8857)"
           id="g392"><path
             id="path394"
             style="fill:#ffffff;fill-opacity:1;fill-rule:nonzero;stroke:none"
             d="M 0,0 0.786,-1.164 C 4.897,1.437 8.925,4.187 12.877,7.065 L 12.119,8.188 Z" /></g><g
           transform="translate(439.5273,123.8164)"
           id="g396"><path
             id="path398"
             style="fill:#ffffff;fill-opacity:1;fill-rule:nonzero;stroke:none"
             d="m 0,0 8.204,-8.744 6.33,5.939 30.961,-32.99 10.666,10.01 -30.963,32.99 6.27,5.884 -8.272,8.815 C 21.101,19.633 18.966,17.389 16.767,15.19 11.396,9.816 5.799,4.752 0,0" /></g><g
           transform="translate(438.9346,124.4482)"
           id="g400"><path
             id="path402"
             style="fill:#ffffff;fill-opacity:1;fill-rule:nonzero;stroke:none"
             d="m 0,0 0.593,-0.632 c 5.799,4.752 11.395,9.817 16.766,15.191 2.2,2.198 4.334,4.442 6.43,6.713 l -0.526,0.561 z" /></g><g
           transform="translate(492.3008,158.6523)"
           id="g404"><path
             id="path406"
             style="fill:#ffffff;fill-opacity:1;fill-rule:nonzero;stroke:none"
             d="m 0,0 -14.129,5.693 c -3.13,-4.218 -6.425,-8.338 -9.868,-12.357 l 33.809,-9.592 19.934,-14.261 8.51,11.895 L 18.321,-4.361 -1.665,24.395 C -4.272,20.023 -7.04,15.737 -9.954,11.535 Z" /></g><g
           transform="translate(476.8838,164.8652)"
           id="g408"><path
             id="path410"
             style="fill:#ffffff;fill-opacity:1;fill-rule:nonzero;stroke:none"
             d="m 0,0 -9.104,-12.729 0.524,-0.148 c 3.443,4.02 6.738,8.139 9.868,12.357 z" /></g><g
           transform="translate(481.4424,171.2354)"
           id="g412"><path
             id="path414"
             style="fill:#ffffff;fill-opacity:1;fill-rule:nonzero;stroke:none"
             d="M 0,0 0.904,-1.048 C 3.818,3.154 6.586,7.44 9.193,11.812 L 8.826,12.339 Z" /></g></g></g></g></svg>