<?xml version="1.0" encoding="UTF-8" standalone="no"?>
<!-- Generator: Adobe Illustrator 21.0.0, SVG Export Plug-In . SVG Version: 6.00 Build 0)  -->

<svg
   xmlns:dc="http://purl.org/dc/elements/1.1/"
   xmlns:cc="http://creativecommons.org/ns#"
   xmlns:rdf="http://www.w3.org/1999/02/22-rdf-syntax-ns#"
   xmlns:svg="http://www.w3.org/2000/svg"
   xmlns="http://www.w3.org/2000/svg"
   xmlns:sodipodi="http://sodipodi.sourceforge.net/DTD/sodipodi-0.dtd"
   xmlns:inkscape="http://www.inkscape.org/namespaces/inkscape"
   version="1.1"
   id="Layer_1"
   x="0px"
   y="0px"
   viewBox="0 0 126.28999 126.28999"
   xml:space="preserve"
   sodipodi:docname="topbarbers.svg"
   width="126.28999"
   height="126.28999"
   inkscape:version="0.92.4 (5da689c313, 2019-01-14)"><metadata
   id="metadata521"><rdf:RDF><cc:Work
       rdf:about=""><dc:format>image/svg+xml</dc:format><dc:type
         rdf:resource="http://purl.org/dc/dcmitype/StillImage" /><dc:title></dc:title></cc:Work></rdf:RDF></metadata><defs
   id="defs519" /><sodipodi:namedview
   pagecolor="#ffffff"
   bordercolor="#666666"
   borderopacity="1"
   objecttolerance="10"
   gridtolerance="10"
   guidetolerance="10"
   inkscape:pageopacity="0"
   inkscape:pageshadow="2"
   inkscape:window-width="640"
   inkscape:window-height="480"
   id="namedview517"
   showgrid="false"
   inkscape:zoom="2.9777778"
   inkscape:cx="63.440836"
   inkscape:cy="54.020122"
   inkscape:window-x="0"
   inkscape:window-y="0"
   inkscape:window-maximized="1"
   inkscape:current-layer="Layer_1" />
<style
   type="text/css"
   id="style474">
	.st0{fill:none;stroke:#FFFFFF;stroke-width:2.2677;stroke-miterlimit:10;}
	.st1{fill:none;stroke:#FFFFFF;stroke-width:1.9498;stroke-miterlimit:10;}
	.st2{fill:#FFFFFF;}
</style>
<circle
   transform="rotate(-17.050492)"
   class="st0"
   cx="41.854549"
   cy="78.884583"
   id="ellipse476"
   r="61.996971"
   style="fill:none;stroke:#ffffff;stroke-width:2.26758909;stroke-miterlimit:10" />
<circle
   transform="rotate(-23.683837)"
   class="st1"
   cx="32.476105"
   cy="83.199272"
   id="ellipse478"
   r="22.9006"
   style="fill:none;stroke:#ffffff;stroke-width:1.94985127;stroke-miterlimit:10" />
<g
   id="g494"
   transform="translate(-26.559164,-31.16297)">
	<path
   class="st2"
   d="M 35.4,99.5 35,90 l 23.8,-0.9 0.3,9.2 -3,3.4 -6.2,0.2 -2.1,-2.1 -2.1,2.6 -7.1,0.3 z m 10.1,-5.3 -6.2,0.2 0.1,3.6 6.2,-0.2 z m 3.7,-0.1 0.1,3.6 5.7,-0.2 -0.1,-3.6 z"
   id="path480"
   inkscape:connector-curvature="0"
   style="fill:#ffffff" />
	<path
   class="st2"
   d="m 40.4,118.4 16.6,-10.7 5.7,1.2 5,7.7 -20,13 -2.5,-3.9 4.8,-3.1 -2.2,-3.4 -4.8,3.1 z m 18,-6.2 -7.5,4.8 2.2,3.4 8.5,-5.5 -1.5,-2.3 z"
   id="path482"
   inkscape:connector-curvature="0"
   style="fill:#ffffff" />
	<path
   class="st2"
   d="m 64.2,142.5 -4.1,-2 10.5,-21.4 8.3,4.1 1.6,4.2 -2.7,5.6 -3.2,1.2 1.3,3.4 -4.2,8.7 -4.1,-2 3.9,-7.9 -0.7,-2.1 -1.8,-0.9 z m 6.1,-12.4 3.3,1.6 2.6,-5.2 -3.3,-1.6 z"
   id="path484"
   inkscape:connector-curvature="0"
   style="fill:#ffffff" />
	<path
   class="st2"
   d="m 96.9,148.5 -9.5,0.7 -1.7,-23.8 9.2,-0.7 3.5,2.9 0.4,6.2 -2,2.2 2.7,2 0.5,7.1 z m -5.9,-13.6 3.6,-0.3 -0.4,-5.7 -3.6,0.3 z m 0.3,3.6 0.4,6.2 3.6,-0.3 -0.4,-6.2 z"
   id="path486"
   inkscape:connector-curvature="0"
   style="fill:#ffffff" />
	<path
   class="st2"
   d="m 123.6,137.4 -8.6,5.5 -12.9,-20.1 8.6,-5.5 2.3,3.5 -4.7,3 2.9,4.5 3.9,-2.5 2.1,3.2 -3.9,2.5 3.4,5.3 4.7,-3 z"
   id="path488"
   inkscape:connector-curvature="0"
   style="fill:#ffffff" />
	<path
   class="st2"
   d="m 136.8,122.1 -2.2,4 -20.9,-11.5 4.5,-8.1 4.3,-1.4 5.4,3 1.1,3.2 3.4,-1.2 8.4,4.6 -2.2,4 -7.7,-4.2 -2.1,0.6 -1,1.8 z m -12.1,-6.7 1.8,-3.2 -5.1,-2.8 -1.8,3.2 z"
   id="path490"
   inkscape:connector-curvature="0"
   style="fill:#ffffff" />
	<path
   class="st2"
   d="m 140.3,99.3 -3.2,0.1 -0.1,-4.6 3.2,-0.1 -0.1,-3.6 -4.7,0.1 -0.9,0.9 0.1,3.5 -3.8,4 -6,0.2 -4.3,-4.1 -0.1,-4.5 4.1,-4.3 3.3,-0.1 0.1,4.6 -3.3,0.1 0.1,3.6 4.6,-0.1 0.9,-0.9 -0.1,-3.5 3.8,-3.9 6.1,-0.2 4.3,4.1 0.1,4.5 z"
   id="path492"
   inkscape:connector-curvature="0"
   style="fill:#ffffff" />
</g>
<g
   id="g502"
   transform="translate(-26.559164,-31.16297)">
	<path
   class="st2"
   d="m 74.8,68.6 -5.1,3.8 -11.8,-15.8 -3,2.2 -3.3,-4.5 11.2,-8.3 3.3,4.5 -3,2.2 z"
   id="path496"
   inkscape:connector-curvature="0"
   style="fill:#ffffff" />
	<path
   class="st2"
   d="m 85.7,64.9 -5.3,-4.7 -0.7,-15.6 4.8,-5.1 5.5,-0.3 5.3,4.6 0.7,15.6 -4.8,5.1 z M 86.1,45.1 86.8,59.3 89.6,59.2 88.9,45 Z"
   id="path498"
   inkscape:connector-curvature="0"
   style="fill:#ffffff" />
	<path
   class="st2"
   d="m 105,69 -5.4,-3.5 13.7,-21.3 8.6,5.6 1.8,5.4 -5.4,8.3 -5.7,0.7 -3.3,-2.1 z m 7.4,-11.5 1.7,1.1 3.3,-5.1 -1.7,-1.1 z"
   id="path500"
   inkscape:connector-curvature="0"
   style="fill:#ffffff" />
</g>
<g
   id="g506"
   transform="translate(-26.559164,-31.16297)">
	<polygon
   class="st2"
   points="50.7,67.2 51.9,71.9 56.5,73.6 52.4,76.2 52.2,81.1 48.4,78 43.8,79.3 45.6,74.8 42.9,70.7 47.7,71 "
   id="polygon504"
   style="fill:#ffffff" />
</g>
<g
   id="g510"
   transform="translate(-26.559164,-31.16297)">
	<polygon
   class="st2"
   points="133.1,79.3 128.4,78 124.7,81.1 124.5,76.2 120.4,73.6 125,71.9 126.2,67.2 129.2,71 134,70.7 131.3,74.8 "
   id="polygon508"
   style="fill:#ffffff" />
</g>
<g
   id="g514"
   transform="translate(-26.559164,-31.16297)">
	<polygon
   class="st2"
   points="103.3,89.9 96.5,96.5 98.1,105.8 89.7,101.4 81.4,105.8 83,96.5 76.2,89.9 85.6,88.5 89.7,80.1 93.9,88.5 "
   id="polygon512"
   style="fill:#ffffff" />
</g>
</svg>