<svg width="131" height="131" viewBox="0 0 131 131" fill="none" xmlns="http://www.w3.org/2000/svg">
<path d="M88.9552 130.146C88.9552 130.146 89.8433 127.258 89.6651 126.036C89.4868 124.814 87.844 123.703 87.844 123.703L89.6255 77.3915C89.6255 77.3915 89.857 57.136 79.1363 50.8396L72.7379 49.2272L56.9547 48.2935C56.4436 48.4633 37.8957 55.4398 35.3435 58.1626L43.3413 99.0019C43.3413 99.0019 42.3695 111.07 41.3992 119.742C41.2004 121.514 39.8713 130.272 39.8713 130.272L88.9552 130.146Z" fill="#FFB800"/>
<path d="M44.9421 120.067C45.537 120.067 46.1379 119.989 46.7236 119.885C50.6795 119.18 54.3201 117.322 57.8944 115.486C64.5739 112.055 71.315 108.584 77.0813 103.774C77.8917 103.098 78.7577 102.042 78.2611 101.111C77.9937 100.609 77.4949 100.425 76.9282 100.425C76.3052 100.425 75.5992 100.647 75.0295 100.91C63.7018 106.133 53.0192 111.767 41.6908 116.989C41.6915 116.989 41.6915 116.99 41.6915 116.99C41.8408 118.116 42.2681 119.488 43.3496 119.836C43.8652 120.003 44.4014 120.067 44.9421 120.067Z" fill="#E3A20C"/>
<path d="M81.5291 52.1311C81.5291 52.1311 88.594 54.4891 90.8789 61.0338C93.4029 68.2662 95.0778 82.3045 95.0778 82.3045L88.0974 83.1819L81.5291 52.1311Z" fill="#FFB800"/>
<path d="M35.3434 58.1439C35.3434 58.1439 31.5535 63.1272 29.7096 69.1844C27.8665 75.2409 26.8132 92.7911 26.8132 92.7911L45.8165 92.5268L46.8272 77.084C46.8272 77.084 48.745 51.3174 35.3434 58.1439Z" fill="#FFB800"/>
<path d="M92.5851 67.3007C92.5851 67.3007 92.4473 67.0859 92.0604 66.8049C91.6818 66.5322 90.9651 66.2435 90.0603 66.421C89.1395 66.5573 88.2454 67.2801 87.0671 67.7295C86.4845 67.9549 85.8021 68.1286 85.109 67.9724C84.4144 67.8209 83.8112 67.3235 83.1767 66.8399C82.8561 66.5984 82.5179 66.3486 82.1188 66.1765C81.7266 65.9998 81.2391 65.9419 80.8065 66.1201C80.3656 66.2816 80.0381 66.6525 79.7852 67.0311C79.524 67.4134 79.313 67.8277 79.038 68.1994C78.7699 68.5726 78.4158 68.8963 77.9664 69.028C77.5232 69.175 77.0251 69.1408 76.5544 69.0166C76.0791 68.8948 75.6183 68.6815 75.1796 68.4241C74.7417 68.1666 74.3175 67.8506 73.8635 67.571C73.4119 67.287 72.9298 67.0211 72.3944 66.8566C71.862 66.699 71.2603 66.6609 70.7112 66.8528C70.1605 67.0333 69.6814 67.3738 69.2496 67.7455C68.8132 68.1156 68.4072 68.52 67.9586 68.8689C67.5146 69.2192 67.0165 69.5216 66.4552 69.6061C65.9015 69.7143 65.3158 69.6373 64.7705 69.4317C63.6707 69.0189 62.7019 68.2733 61.6227 67.6769C61.0811 67.3837 60.5183 67.1065 59.9021 66.9914C59.2928 66.8749 58.6455 66.9145 58.0712 67.1346C56.9196 67.584 56.0666 68.4545 55.0445 68.9412C54.7916 69.0699 54.5258 69.1568 54.2577 69.2223C53.9881 69.2786 53.7116 69.2885 53.4397 69.274C52.8914 69.2367 52.3628 69.0532 51.8654 68.8239C50.8647 68.3708 49.9591 67.7378 48.9263 67.3982C48.4137 67.2291 47.8608 67.1529 47.3299 67.255C46.7953 67.3464 46.3284 67.6396 45.9415 67.9648C45.1662 68.613 44.5561 69.4355 43.6696 69.7105C43.2362 69.8483 42.7754 69.8369 42.339 69.7485C41.9003 69.6617 41.4814 69.5117 41.0686 69.3685C40.2537 69.0829 39.3999 68.7874 38.572 68.9747C38.1615 69.0555 37.8058 69.2718 37.4996 69.5048C37.1927 69.7409 36.9231 69.9999 36.6535 70.2367C36.3846 70.4759 36.1104 70.6892 35.818 70.8483C35.5247 71.0068 35.2109 71.0981 34.9025 71.1438C34.2817 71.233 33.6877 71.1355 33.1774 70.9679C32.664 70.7988 32.2307 70.5498 31.8636 70.2977C31.1317 69.7851 30.6457 69.2809 30.3076 68.9511C30.1469 68.7896 30.0212 68.6647 29.9283 68.5718C29.8422 68.4865 29.7965 68.4439 29.7942 68.4469C29.792 68.4492 29.8316 68.4964 29.9123 68.5871C30.0014 68.6838 30.1217 68.8148 30.2763 68.9823C30.6038 69.3213 31.0814 69.8384 31.8148 70.3677C32.1819 70.6282 32.6199 70.8887 33.1446 71.0669C33.6648 71.2444 34.2734 71.3525 34.92 71.2657C35.2414 71.2215 35.5704 71.1279 35.8796 70.9649C36.1873 70.8011 36.4722 70.5818 36.7448 70.3426C37.2902 69.8795 37.8325 69.2847 38.6063 69.1263C39.3747 68.9549 40.1973 69.236 41.0122 69.5284C41.4243 69.6739 41.8485 69.8285 42.3047 69.9214C42.7571 70.0159 43.253 70.0319 43.7244 69.8849C44.1981 69.7409 44.6056 69.4408 44.9735 69.1172C45.3429 68.7897 45.6833 68.4286 46.0649 68.1141C46.4419 67.7995 46.8745 67.5322 47.368 67.4499C47.857 67.3563 48.3719 67.4279 48.8631 67.5916C49.8547 67.9176 50.758 68.549 51.7786 69.0143C52.2866 69.2497 52.8373 69.4447 53.4237 69.4865C53.7147 69.5033 54.0132 69.4919 54.3034 69.4317C54.5906 69.3624 54.8739 69.2687 55.1374 69.1354C56.2029 68.6244 57.0559 67.7607 58.1481 67.3403C58.6896 67.1339 59.2837 67.0988 59.8595 67.2062C60.4391 67.3144 60.9852 67.5817 61.516 67.8696C62.5777 68.453 63.5511 69.2063 64.6958 69.6373C65.264 69.8514 65.8969 69.9382 66.4948 69.8201C67.1033 69.7265 67.6357 69.399 68.0919 69.0387C69.0066 68.3243 69.7401 67.3943 70.7759 67.0531C71.2824 66.8749 71.8315 66.9077 72.335 67.0547C72.8414 67.2085 73.3106 67.4644 73.7562 67.7424C74.2063 68.0181 74.6244 68.3289 75.0791 68.5947C75.5307 68.8582 76.006 69.0775 76.5056 69.204C77.0007 69.3312 77.5353 69.37 78.0236 69.2078C78.5186 69.0608 78.9101 68.696 79.185 68.3075C79.4699 67.9176 79.6801 67.501 79.9307 67.1301C80.1759 66.7591 80.476 66.4233 80.8675 66.2786C81.2551 66.1171 81.6855 66.1636 82.0564 66.3265C82.4311 66.485 82.7632 66.7256 83.083 66.964C83.7167 67.4393 84.3374 67.9511 85.0793 68.1088C85.8158 68.2687 86.5218 68.0783 87.1121 67.8445C88.3086 67.3723 89.1852 66.6472 90.0763 66.5048C90.956 66.3197 91.6544 66.5855 92.0352 66.8414C92.4236 67.1057 92.5737 67.3129 92.5851 67.3007Z" fill="#F9F9F9"/>
<path d="M94.8259 78.7542C94.8259 78.7504 94.7627 78.7542 94.6393 78.7656C94.506 78.7785 94.3247 78.7968 94.0939 78.8204C93.6134 78.8501 92.9035 79.0504 92.0155 78.7671C91.5684 78.6689 91.0649 78.579 90.5166 78.4846C89.969 78.3893 89.3772 78.2553 88.7268 78.1791C88.0794 78.1022 87.3543 78.1015 86.6376 78.3292C85.9202 78.5417 85.224 78.9088 84.4555 79.1662C83.6916 79.4343 82.8264 79.4678 81.9696 79.2378C81.1089 79.0345 80.2643 78.6392 79.3496 78.3216C78.4501 77.9979 77.4067 77.7488 76.3724 78.0337C75.3495 78.3208 74.5262 79.0748 73.501 79.3254C73.2467 79.3856 72.9854 79.4038 72.7234 79.3802C72.4622 79.3513 72.2025 79.2812 71.9443 79.1936C71.4302 79.0146 70.9321 78.7534 70.386 78.5638C69.8506 78.3657 69.2108 78.2812 68.6358 78.5044C68.0638 78.7237 67.6213 79.1403 67.1574 79.4861C66.9252 79.6597 66.6845 79.8197 66.4232 79.9294C66.1628 80.0406 65.8802 80.0863 65.5954 80.0855C65.0218 80.0642 64.4613 79.8364 63.9144 79.5828C63.3661 79.3307 62.8101 79.0474 62.1916 78.8913C61.8809 78.825 61.5572 78.7831 61.232 78.8258C60.9075 78.8631 60.596 78.9766 60.3119 79.1251C59.7415 79.4259 59.27 79.8441 58.7674 80.1868C58.5168 80.3574 58.2571 80.5097 57.9821 80.6164C57.845 80.6681 57.7056 80.7154 57.5609 80.7352L57.3454 80.7725L57.126 80.7809C56.5381 80.7953 55.9592 80.624 55.4025 80.4206C54.8442 80.218 54.2958 79.9796 53.7223 79.8083C53.1549 79.6377 52.5357 79.531 51.9432 79.6803C51.3422 79.8083 50.8556 80.1944 50.4428 80.5821C50.0269 80.9743 49.6507 81.3894 49.2082 81.6979C48.7695 82.0086 48.2417 82.1518 47.7237 82.1206C47.2028 82.0878 46.7055 81.8951 46.2378 81.6697C45.7687 81.4412 45.3231 81.1739 44.8722 80.924C43.9842 80.4328 43.0085 79.9773 42.0001 80.0939C41.0009 80.2112 40.1844 80.7641 39.4647 81.2813C38.7388 81.8045 38.0777 82.3582 37.3443 82.7017C36.6207 83.0589 35.8591 83.2432 35.1325 83.3034C34.4029 83.3476 33.7128 83.2744 33.0815 83.1442C31.8255 82.8403 30.8308 82.2828 30.1309 81.7055C29.4256 81.1244 29.0189 80.5341 28.7562 80.1342C28.6374 79.9263 28.5582 79.7603 28.498 79.6521C28.4393 79.544 28.4073 79.4891 28.4035 79.4899C28.4013 79.4914 28.4256 79.5493 28.4774 79.662C28.5315 79.7732 28.6038 79.9438 28.7188 80.1563C28.9694 80.5668 29.37 81.1723 30.0761 81.771C30.776 82.3658 31.7791 82.9439 33.054 83.2638C33.6946 83.4031 34.3968 83.4831 35.1424 83.4428C35.885 83.3872 36.6664 83.2044 37.4128 82.8418C38.1699 82.4915 38.8401 81.934 39.5644 81.4191C40.2811 80.9073 41.0793 80.3802 42.0192 80.2751C42.9628 80.1685 43.8973 80.6011 44.7785 81.0931C45.2249 81.3422 45.6719 81.6126 46.151 81.8471C46.6285 82.0794 47.1472 82.2858 47.7108 82.3224C48.2706 82.3605 48.8578 82.1998 49.3255 81.8677C49.7954 81.541 50.1777 81.1183 50.5867 80.7352C50.9934 80.3544 51.4458 80.0025 51.9912 79.8882C52.5304 79.7519 53.1092 79.8486 53.6606 80.0147C54.2174 80.1815 54.762 80.4191 55.3286 80.6247C55.893 80.8304 56.4954 81.0139 57.1306 80.9995L57.3675 80.9903L57.6028 80.9499C57.7605 80.9286 57.9136 80.8768 58.0621 80.8205C58.3591 80.7055 58.6333 80.544 58.8915 80.3673C59.4079 80.0154 59.8755 79.6026 60.414 79.3201C60.6813 79.1799 60.9654 79.0779 61.2586 79.0443C61.5519 79.0055 61.8497 79.0444 62.1406 79.1045C62.7233 79.2508 63.2686 79.5265 63.823 79.7816C64.3745 80.036 64.9586 80.2789 65.59 80.3026C65.903 80.3048 66.2206 80.2515 66.507 80.1289C66.7942 80.0078 67.0485 79.8364 67.2877 79.6582C67.7614 79.301 68.1925 78.9012 68.7112 78.7039C69.2268 78.5036 69.798 78.5729 70.3174 78.7626C70.8437 78.9431 71.3434 79.2043 71.8773 79.3894C72.1446 79.4792 72.4195 79.5531 72.7029 79.5836C72.9877 79.6095 73.2748 79.5882 73.5475 79.5227C74.6435 79.2439 75.4577 78.4876 76.4257 78.2195C77.3953 77.9484 78.3976 78.1761 79.2902 78.4945C80.1942 78.8029 81.0465 79.1982 81.9307 79.4023C82.8043 79.6354 83.7251 79.5958 84.505 79.3132C85.2888 79.0451 85.9796 78.675 86.678 78.464C87.3726 78.237 88.0725 78.2317 88.7123 78.301C89.3551 78.3711 89.9476 78.4983 90.4983 78.5889C91.0505 78.6772 91.5501 78.7595 91.9987 78.8509C92.2234 78.8943 92.4328 78.9446 92.6362 78.9743C92.8426 79.004 93.0368 78.9933 93.2127 78.9766C93.5646 78.9408 93.8594 78.8966 94.0985 78.8646C94.3293 78.8319 94.5098 78.806 94.6416 78.7869C94.7642 78.7694 94.8266 78.758 94.8259 78.7542Z" fill="#F9F9F9"/>
<path d="M87.7937 88.7208C87.793 88.717 87.7503 88.7193 87.6673 88.7262C87.5721 88.7353 87.4518 88.7475 87.3002 88.7627C86.978 88.7978 86.5043 88.8594 85.895 88.9508C84.6772 89.1192 82.9269 89.4809 80.7411 89.6614C79.6459 89.7544 78.4486 89.7452 77.1637 89.5967C76.5194 89.5388 75.84 89.4794 75.1416 89.5799C74.7928 89.631 74.4416 89.7262 74.1119 89.8831C73.7798 90.0407 73.4812 90.257 73.1933 90.4825C72.6183 90.9265 72.0722 91.4635 71.37 91.6759C71.0227 91.7856 70.6503 91.7658 70.29 91.6683C69.929 91.567 69.5794 91.3957 69.2192 91.2296C68.8582 91.0666 68.4811 90.8938 68.0584 90.8389C67.6388 90.7727 67.1833 90.8785 66.8238 91.107C66.095 91.5495 65.6174 92.2883 64.8718 92.6036C64.1239 92.9303 63.2808 92.7262 62.5161 92.4993C61.74 92.2693 60.9677 91.9669 60.1436 91.9494C59.7354 91.9448 59.3203 92.0202 58.9555 92.1954C58.5891 92.3667 58.273 92.6074 57.9798 92.8557C57.3964 93.3515 56.8815 93.9022 56.2395 94.1969C55.5997 94.5069 54.8769 94.4171 54.2387 94.203C53.5898 93.9997 52.9919 93.6844 52.3415 93.5374C51.704 93.3949 51.0193 93.379 50.4519 93.6767C50.1731 93.826 49.9446 94.0606 49.8083 94.3295C49.6705 94.5983 49.6012 94.8771 49.5128 95.133C49.4283 95.3904 49.3171 95.6258 49.1487 95.8093C48.9819 95.9929 48.7679 96.1216 48.5432 96.1985C48.0893 96.3531 47.6125 96.3127 47.2074 96.1916C46.7976 96.066 46.4632 95.8375 46.205 95.574C45.9431 95.3142 45.7511 95.0324 45.5942 94.7704C45.2873 94.2426 45.1213 93.7925 45.0002 93.4932C44.9438 93.3523 44.9004 93.2388 44.8653 93.1505C44.8341 93.0735 44.8166 93.0347 44.8128 93.0355C44.809 93.037 44.8196 93.0781 44.844 93.1581C44.8737 93.2487 44.911 93.3637 44.9583 93.5084C45.0672 93.8131 45.2203 94.2701 45.5203 94.8131C45.6734 95.0827 45.8646 95.3744 46.1304 95.6471C46.3901 95.9228 46.7428 96.1726 47.17 96.3089C47.5943 96.4415 48.0946 96.4917 48.5882 96.3318C48.8319 96.2503 49.0695 96.1117 49.2577 95.9091C49.4481 95.7065 49.5707 95.4468 49.6598 95.184C49.752 94.9212 49.8235 94.6493 49.9523 94.4056C50.0787 94.1619 50.2813 93.9593 50.5326 93.826C51.0414 93.561 51.6903 93.5732 52.3004 93.7148C52.915 93.8557 53.5144 94.1733 54.1793 94.3866C54.5106 94.4963 54.8632 94.58 55.2303 94.596C55.5982 94.6105 55.979 94.5412 56.3233 94.382C57.0164 94.0644 57.5419 93.4985 58.1154 93.0157C58.4033 92.7742 58.7064 92.5465 59.0453 92.3881C59.3827 92.2274 59.7582 92.1611 60.1398 92.1642C60.9098 92.1801 61.6684 92.4741 62.4529 92.7095C62.8466 92.826 63.2526 92.9349 63.6783 92.9768C64.1003 93.0187 64.5527 92.9882 64.9586 92.8054C65.7827 92.4467 66.2618 91.695 66.9373 91.2944C67.2679 91.0864 67.6525 90.9973 68.0303 91.0552C68.4096 91.1017 68.7713 91.2639 69.1285 91.4254C69.4873 91.5891 69.846 91.7651 70.2337 91.8732C70.6198 91.9798 71.0463 92.0004 71.4286 91.8778C72.2032 91.6371 72.7524 91.0781 73.3182 90.6417C73.6008 90.4193 73.8879 90.2106 74.1972 90.0628C74.5071 89.9135 74.8369 89.8221 75.1698 89.7711C75.8385 89.6721 76.5057 89.7239 77.1469 89.7787C78.4333 89.9196 79.6565 89.9196 80.7533 89.8168C82.9528 89.615 84.6954 89.2288 85.9095 89.0354C86.5043 88.9379 86.9712 88.861 87.3063 88.8061C87.4563 88.7825 87.5759 88.7635 87.6704 88.7482C87.7519 88.7338 87.7937 88.7246 87.7937 88.7208Z" fill="#F9F9F9"/>
<path d="M88.3834 116.843C88.3842 116.84 88.3423 116.824 88.2585 116.794C88.1641 116.76 88.0422 116.719 87.8884 116.664C87.5631 116.551 87.0856 116.378 86.4611 116.175C85.8365 115.981 85.0696 115.722 84.1297 115.632C83.6552 115.58 83.1419 115.699 82.6468 115.878C82.1464 116.049 81.6308 116.274 81.0626 116.329C80.4937 116.386 79.9042 116.201 79.3299 115.939C78.7511 115.683 78.1608 115.348 77.4685 115.191C76.7732 115.034 76.0283 115.13 75.3154 115.316C74.5987 115.508 73.8942 115.789 73.1577 116.005C72.4273 116.223 71.6383 116.367 70.8644 116.203C70.0899 116.041 69.3663 115.626 68.575 115.311C68.1789 115.155 67.754 115.026 67.3054 115.011C66.8583 114.991 66.3967 115.115 66.0129 115.351C65.2398 115.809 64.6869 116.559 63.878 116.859C63.4797 117.003 63.0448 116.993 62.6313 116.888C62.2162 116.786 61.8186 116.607 61.4233 116.43C61.0273 116.252 60.6297 116.067 60.2047 115.948C59.7843 115.827 59.3189 115.785 58.8894 115.92C58.453 116.044 58.1079 116.339 57.8147 116.633C57.5184 116.93 57.2564 117.244 56.9564 117.498C56.3707 118.042 55.5405 118.114 54.807 117.948C54.0607 117.801 53.3569 117.511 52.641 117.322C52.2807 117.236 51.919 117.149 51.5488 117.156C51.184 117.153 50.807 117.224 50.4978 117.412C50.171 117.573 49.9273 117.849 49.7331 118.123C49.5396 118.403 49.3865 118.694 49.2296 118.97C48.9258 119.519 48.5488 120.028 48.0019 120.198C47.468 120.378 46.8975 120.262 46.439 120.038C45.9737 119.814 45.5853 119.499 45.2837 119.156C44.6919 118.454 44.3781 117.7 44.0635 117.129C43.7619 116.547 43.4854 116.114 43.2691 115.843C43.0528 115.573 42.9119 115.456 42.9119 115.456C42.9036 115.463 43.0308 115.594 43.2341 115.87C43.4367 116.147 43.6979 116.582 43.9874 117.168C44.292 117.744 44.5883 118.503 45.1915 119.237C45.4984 119.595 45.8945 119.925 46.3789 120.163C46.8541 120.401 47.4612 120.538 48.0522 120.346C48.6569 120.162 49.0682 119.604 49.3766 119.054C49.6958 118.511 49.9905 117.876 50.5853 117.572C51.1611 117.23 51.903 117.327 52.5915 117.509C53.2929 117.696 53.9936 117.991 54.7682 118.147C55.1521 118.228 55.5633 118.266 55.9716 118.192C56.1795 118.171 56.3722 118.081 56.5695 118.009C56.7591 117.915 56.9312 117.792 57.0919 117.659C57.4111 117.39 57.6769 117.071 57.9655 116.784C58.2511 116.498 58.5687 116.232 58.9518 116.126C59.3319 116.007 59.7477 116.042 60.1461 116.156C60.5474 116.27 60.9366 116.45 61.3327 116.629C61.7302 116.808 62.1362 116.992 62.5787 117.102C63.0166 117.214 63.5079 117.228 63.9527 117.067C64.8461 116.725 65.3975 115.961 66.1241 115.539C66.482 115.319 66.888 115.212 67.2985 115.228C67.7083 115.242 68.1112 115.36 68.4958 115.511C69.2681 115.814 70.0015 116.238 70.8226 116.409C71.6474 116.581 72.4745 116.423 73.2148 116.199C73.9643 115.977 74.6642 115.694 75.3649 115.503C76.0626 115.317 76.7724 115.224 77.4297 115.37C78.087 115.514 78.6727 115.838 79.2606 116.094C79.844 116.355 80.4686 116.549 81.0771 116.485C81.6803 116.42 82.1998 116.183 82.6925 116.01C83.1853 115.827 83.6628 115.712 84.1213 115.754C85.0383 115.83 85.8106 116.076 86.4359 116.256C87.0498 116.448 87.5319 116.6 87.8746 116.706C88.0315 116.752 88.1557 116.788 88.2524 116.815C88.3377 116.838 88.3819 116.847 88.3834 116.843Z" fill="#F9F9F9"/>
<path d="M64.6591 106.374C64.6553 106.381 64.7383 106.434 64.899 106.528C65.062 106.62 65.3095 106.744 65.6431 106.868C66.3049 107.116 67.3461 107.353 68.6211 107.175C68.9371 107.125 69.2669 107.057 69.5997 106.948C69.9341 106.841 70.2662 106.688 70.6043 106.547C70.9417 106.41 71.305 106.291 71.6775 106.327C72.0507 106.361 72.4056 106.547 72.7399 106.783C73.0751 107.02 73.401 107.303 73.7864 107.538C73.9776 107.655 74.1901 107.755 74.4178 107.815C74.532 107.85 74.6501 107.861 74.7697 107.869C74.8893 107.887 75.0073 107.873 75.1269 107.862C76.0926 107.739 76.8611 107.101 77.7012 106.675C78.1178 106.458 78.5664 106.29 79.0028 106.342L79.1643 106.363C79.2168 106.375 79.2671 106.398 79.3181 106.415C79.4225 106.445 79.5192 106.493 79.6113 106.549C79.7941 106.666 79.9556 106.82 80.1072 106.982C80.4111 107.307 80.6708 107.682 81.0348 107.969C81.2153 108.11 81.4316 108.222 81.6655 108.258C81.8978 108.294 82.1369 108.256 82.3425 108.158C82.7569 107.954 83.0082 107.593 83.2367 107.272C83.4629 106.944 83.6647 106.62 83.9077 106.354C84.3967 105.827 85.0981 105.611 85.7036 105.639C86.3236 105.652 86.8255 105.96 87.2215 106.249C87.6176 106.546 87.91 106.866 88.0989 107.157C88.4935 107.748 88.4112 108.178 88.4394 108.169C88.4394 108.169 88.4706 108.072 88.4508 107.883C88.4348 107.696 88.3586 107.419 88.172 107.112C87.987 106.804 87.6968 106.466 87.2962 106.151C86.9009 105.848 86.3761 105.51 85.712 105.483C85.0661 105.444 84.3144 105.662 83.7752 106.229C83.5124 106.511 83.3037 106.841 83.0775 107.161C82.8528 107.477 82.6053 107.809 82.2572 107.975C81.9092 108.144 81.4781 108.069 81.1635 107.802C80.8368 107.545 80.5794 107.176 80.2648 106.836C80.1072 106.666 79.935 106.499 79.7279 106.365C79.622 106.301 79.5116 106.244 79.3912 106.209C79.3318 106.189 79.2739 106.163 79.213 106.15L79.0264 106.124C78.5176 106.066 78.031 106.257 77.6006 106.48C76.7377 106.923 75.9761 107.539 75.1033 107.647C74.673 107.701 74.2548 107.584 73.893 107.358C73.5297 107.139 73.2038 106.86 72.8549 106.617C72.5092 106.375 72.1184 106.17 71.6942 106.135C71.2692 106.099 70.8785 106.235 70.5343 106.378C70.1885 106.528 69.8686 106.678 69.5464 106.786C69.225 106.896 68.9051 106.966 68.5974 107.021C67.3583 107.214 66.3316 107.007 65.6713 106.787C65.0041 106.566 64.6705 106.352 64.6591 106.374Z" fill="#F9F9F9"/>
<path d="M87.9696 128.118C87.9689 128.114 87.9247 128.126 87.8417 128.153C87.7967 128.167 87.7465 128.184 87.6886 128.203C87.6261 128.215 87.5515 128.222 87.4692 128.234C87.1333 128.276 86.6322 128.18 86.0549 127.892C85.4684 127.634 84.8104 127.154 83.8896 126.938C83.6596 126.887 83.4128 126.88 83.1592 126.903C82.9071 126.94 82.6573 127.027 82.4196 127.148C81.9429 127.392 81.5247 127.765 81.0609 128.1C80.6047 128.436 80.054 128.732 79.4409 128.675C78.8293 128.627 78.2482 128.298 77.6259 128.02C77.3129 127.88 76.9809 127.751 76.6214 127.688C76.2611 127.624 75.8856 127.642 75.5223 127.711C74.7912 127.847 74.1027 128.161 73.3753 128.358C72.6518 128.576 71.8696 128.565 71.0988 128.392C70.3265 128.228 69.5679 127.924 68.7895 127.627C68.0119 127.332 67.2038 127.027 66.3295 126.919C65.4589 126.785 64.5359 126.962 63.7247 127.331C62.9044 127.687 62.1558 128.145 61.369 128.462C60.5876 128.785 59.7399 128.914 58.9562 128.685C57.3788 128.233 56.2265 126.956 54.7268 126.461C53.9881 126.198 53.1693 126.21 52.4709 126.449C51.7595 126.672 51.1525 127.059 50.5798 127.427C50.0093 127.802 49.4739 128.183 48.9286 128.491C48.3863 128.805 47.828 129.026 47.2713 129.155C46.1509 129.399 45.0892 129.281 44.2179 129.027C43.3428 128.766 42.655 128.357 42.1486 127.966C41.1303 127.166 40.8294 126.472 40.7959 126.503C40.7921 126.504 40.8142 126.544 40.8599 126.619C40.9124 126.703 40.981 126.812 41.0671 126.948C41.2742 127.218 41.5812 127.628 42.0953 128.033C42.6017 128.44 43.2941 128.867 44.1821 129.144C45.0664 129.415 46.1502 129.548 47.304 129.308C47.8775 129.18 48.4586 128.955 49.0124 128.639C49.5699 128.329 50.1099 127.949 50.6796 127.58C51.2493 127.218 51.8487 126.842 52.528 126.634C53.2005 126.41 53.9584 126.401 54.6621 126.653C55.3742 126.89 56.0277 127.328 56.6979 127.763C57.3674 128.198 58.0696 128.662 58.899 128.893C59.7315 129.139 60.6485 128.998 61.4505 128.665C62.2609 128.338 63.0103 127.88 63.8115 127.533C64.6074 127.174 65.4643 127.011 66.3028 127.136C67.1414 127.238 67.9373 127.535 68.7134 127.829C69.4902 128.123 70.258 128.43 71.0554 128.598C71.846 128.774 72.6799 128.782 73.4286 128.554C74.1765 128.346 74.859 128.033 75.5581 127.901C75.9054 127.833 76.255 127.816 76.5901 127.873C76.9245 127.93 77.2444 128.052 77.5521 128.187C78.1667 128.455 78.7638 128.794 79.4287 128.845C80.1005 128.902 80.6945 128.571 81.153 128.227C81.6214 127.88 82.032 127.509 82.4844 127.272C82.7098 127.154 82.9429 127.071 83.1775 127.033C83.4136 127.01 83.6459 127.013 83.8667 127.058C84.751 127.252 85.422 127.72 86.0191 127.969C86.6078 128.249 87.1311 128.337 87.4738 128.279C87.5591 128.263 87.6345 128.252 87.6977 128.235C87.7548 128.212 87.8059 128.192 87.8493 128.174C87.9315 128.139 87.9711 128.121 87.9696 128.118Z" fill="#F9F9F9"/>
<path d="M86.9262 55.5219C86.9156 55.512 86.8028 55.6742 86.5165 55.9027C86.2309 56.1282 85.7487 56.4008 85.0656 56.5372C84.3831 56.6857 83.5263 56.6834 82.5362 56.5867C82.0411 56.5471 81.5088 56.4976 80.9383 56.5044C80.3717 56.5136 79.7585 56.5851 79.1637 56.8228C78.5689 57.0551 78.0114 57.4168 77.415 57.739C77.1165 57.8997 76.8057 58.0482 76.4752 58.1564C76.1446 58.2607 75.7927 58.3163 75.4317 58.3293C74.7074 58.3575 73.9595 58.212 73.188 58.0726C72.4187 57.9348 71.6015 57.7885 70.7546 57.8891C69.8985 57.985 69.1186 58.4207 68.3844 58.87C67.6464 59.3148 66.8878 59.8015 66.0173 59.9218C65.5854 59.9736 65.1414 59.9416 64.7073 59.8335C64.2724 59.7185 63.8489 59.5471 63.4292 59.3552C62.5892 58.9744 61.7628 58.4846 60.8108 58.2402C60.337 58.1198 59.8389 58.0802 59.3545 58.1526C58.8709 58.2325 58.4193 58.423 58.0072 58.6545C57.1847 59.1198 56.4809 59.7223 55.6766 60.0932C54.8777 60.4694 53.9858 60.541 53.1435 60.4062C52.2958 60.2889 51.4907 60.0132 50.6986 59.7741C49.9081 59.5273 49.1228 59.2996 48.3323 59.2006C47.5409 59.0985 46.7564 59.1739 46.0337 59.3445C44.5805 59.6895 43.3451 60.3194 42.1813 60.768C41.0359 61.2813 39.8965 61.3773 38.9109 61.2859C37.9269 61.1968 37.0975 60.9546 36.463 60.672C35.1751 60.0978 34.7585 59.3666 34.7326 59.4047C34.7326 59.4047 34.8324 59.5745 35.0929 59.8388C35.3473 60.1084 35.7905 60.4466 36.4272 60.7505C37.0655 61.0483 37.9018 61.3057 38.9002 61.4085C39.3984 61.4618 39.9384 61.4618 40.505 61.3941C41.0739 61.3347 41.6573 61.1427 42.2377 60.9135C43.4114 60.4702 44.6498 59.8525 46.074 59.5227C46.7839 59.3598 47.5417 59.2904 48.3086 59.3925C49.0771 59.4923 49.8502 59.7185 50.6385 59.9668C51.429 60.209 52.2394 60.4908 53.113 60.6149C53.9782 60.7558 54.9264 60.685 55.7673 60.2889C56.6073 59.9005 57.3149 59.295 58.1146 58.8449C58.5129 58.6217 58.9402 58.4435 59.3896 58.3696C59.8397 58.3034 60.305 58.3384 60.7575 58.4534C61.6653 58.685 62.4871 59.1678 63.3378 59.554C63.7644 59.7482 64.2 59.9241 64.6532 60.0437C65.1094 60.1564 65.5839 60.1922 66.0462 60.1351C66.9815 60.0018 67.7591 59.493 68.4925 59.0498C69.2268 58.5981 69.9724 58.183 70.7789 58.0894C71.6449 57.9949 72.4819 58.1411 73.303 58.2881C74.025 58.4169 74.7341 58.5456 75.4386 58.5113C75.8133 58.4961 76.1827 58.4359 76.5292 58.3239C76.8743 58.2097 77.1941 58.0528 77.4965 57.8891C78.099 57.557 78.6473 57.196 79.2208 56.9667C80.3777 56.5059 81.5461 56.6522 82.5278 56.7093C83.5179 56.7946 84.3938 56.7847 85.0838 56.6217C85.7769 56.4686 86.2636 56.1777 86.5446 55.937C86.8257 55.6933 86.9262 55.5219 86.9262 55.5219Z" fill="#F9F9F9"/>
<path d="M53.6629 69.4997C53.8769 69.4997 54.0924 69.4814 54.3042 69.438C54.5913 69.3687 54.8746 69.275 55.1382 69.1417C55.7208 68.8622 56.2402 68.4768 56.7688 68.1166C56.7627 68.0328 56.7566 67.9505 56.749 67.8668C56.177 68.2514 55.6401 68.6642 55.0452 68.9475C54.7924 69.0762 54.5266 69.163 54.2585 69.2285C54.0604 69.2697 53.8594 69.2864 53.6583 69.2864C53.5852 69.2864 53.5121 69.2841 53.4405 69.2803C52.8921 69.243 52.3635 69.0595 51.8662 68.8302C51.2417 68.5477 50.6552 68.195 50.0512 67.8873C50.0573 67.9673 50.0642 68.0488 50.0695 68.1288C50.6263 68.4205 51.183 68.7487 51.7794 69.0206C52.2874 69.256 52.838 69.4509 53.4245 69.4928C53.5037 69.4974 53.5829 69.4997 53.6629 69.4997Z" fill="white"/>
<path d="M47.8719 82.2906C48.3815 82.2906 48.9016 82.1307 49.3243 81.8306C49.7943 81.5039 50.1766 81.0812 50.5856 80.6981C50.9923 80.3173 51.4447 79.9654 51.99 79.8511C52.1683 79.8054 52.3503 79.7864 52.5354 79.7864C52.9093 79.7864 53.2901 79.8664 53.6595 79.9776C54.2163 80.1444 54.7608 80.382 55.3275 80.5876C55.4791 80.6432 55.6337 80.6965 55.7913 80.7453C55.8073 80.6745 55.8233 80.6036 55.8393 80.5328C55.6923 80.4863 55.5461 80.4361 55.4014 80.3835C54.8431 80.1809 54.2947 79.9425 53.7212 79.7712C53.3427 79.6577 52.9413 79.5724 52.5399 79.5724C52.3396 79.5724 52.1393 79.5937 51.9421 79.6432C51.3411 79.7712 50.8545 80.1573 50.4417 80.545C50.0258 80.9372 49.6496 81.3523 49.2071 81.6608C48.8087 81.9433 48.3358 82.0873 47.8643 82.0873C47.8171 82.0873 47.7699 82.0865 47.7226 82.0835C47.6092 82.0759 47.498 82.0614 47.3875 82.0408C47.3571 82.1033 47.3266 82.1657 47.2946 82.2282C47.4302 82.2564 47.5688 82.2762 47.7097 82.2853C47.7638 82.2891 47.8178 82.2906 47.8719 82.2906Z" fill="white"/>
<path d="M45.1012 93.7155C45.0639 93.6226 45.0304 93.538 44.9999 93.4626C44.9436 93.3217 44.9002 93.2082 44.8651 93.1199C44.8347 93.0437 44.8164 93.0049 44.8126 93.0049C44.8088 93.0064 44.8194 93.0475 44.8438 93.1275C44.8735 93.2181 44.9108 93.3331 44.958 93.4779C44.9778 93.5335 44.9992 93.5936 45.0228 93.6591C45.0479 93.6789 45.0738 93.698 45.1012 93.7155Z" fill="#A5A7A8"/>
<path d="M54.9927 60.5618C55.0902 60.5382 55.1876 60.5115 55.2836 60.4803C55.273 60.4483 55.2615 60.4156 55.2509 60.3828L54.9927 60.5618Z" fill="#A5A7A8"/>
<path d="M86.6384 124.542C86.6368 124.535 86.5592 124.544 86.4114 124.568C86.24 124.599 86.0283 124.638 85.7693 124.686C85.1821 124.797 84.3847 124.95 83.4136 125.135C81.4235 125.508 78.6679 125.987 75.61 126.414C72.5498 126.839 69.7683 127.132 67.7515 127.317C66.7675 127.405 65.9594 127.477 65.363 127.529C65.1018 127.555 64.887 127.576 64.7141 127.592C64.5656 127.609 64.4879 127.621 64.4887 127.629C64.4895 127.637 64.5671 127.639 64.7164 127.637C64.8908 127.631 65.1064 127.624 65.3691 127.615C65.9358 127.593 66.7538 127.545 67.7645 127.472C69.7866 127.327 72.5749 127.058 75.6405 126.632C78.7037 126.204 81.4593 125.7 83.4441 125.287C84.4357 125.081 85.237 124.903 85.7869 124.769C86.0428 124.706 86.2515 124.653 86.4205 124.611C86.5652 124.573 86.6399 124.549 86.6384 124.542Z" fill="#282B30"/>
<path d="M77.3594 123.416C77.3579 123.408 77.2368 123.434 77.009 123.49C76.779 123.54 76.45 123.649 76.0121 123.732C75.1461 123.932 73.8704 124.144 72.2831 124.213C70.6967 124.284 68.7933 124.165 66.7453 123.701C64.6988 123.243 62.5175 122.407 60.4566 121.136C58.4078 119.842 56.6987 118.249 55.3872 116.612C54.0718 114.975 53.1282 113.317 52.496 111.86C51.8608 110.404 51.4907 109.165 51.2896 108.299C51.1723 107.87 51.1251 107.526 51.0687 107.298C51.02 107.068 50.9903 106.949 50.9827 106.949C50.9751 106.951 50.9903 107.073 51.0253 107.306C51.068 107.537 51.1015 107.883 51.2066 108.318C51.3825 109.194 51.7314 110.447 52.3536 111.922C52.972 113.398 53.9096 115.078 55.2288 116.739C56.5441 118.398 58.2684 120.014 60.34 121.321C62.4246 122.608 64.6326 123.447 66.7004 123.899C68.772 124.356 70.6928 124.46 72.29 124.368C73.8886 124.279 75.1674 124.042 76.0319 123.816C76.469 123.719 76.7958 123.596 77.022 123.533C77.2459 123.463 77.3624 123.423 77.3594 123.416Z" fill="#282B30"/>
<path d="M73.6155 49.1831C73.6079 49.1831 73.6049 49.2882 73.6064 49.4877C73.6079 49.7086 73.6094 49.998 73.6125 50.359C73.6026 51.11 73.6209 52.2197 73.2918 53.5228C73.1151 54.1657 72.8509 54.8633 72.3779 55.4894C71.9224 56.1261 71.2621 56.6699 70.489 57.0926C69.7137 57.5176 68.8249 57.8245 67.882 58.0264C66.9391 58.235 65.9376 58.3386 64.9139 58.3127C62.8659 58.2716 60.9314 57.7019 59.4294 56.762C57.9138 55.8329 56.8849 54.5335 56.2801 53.3446C55.6739 52.142 55.4949 51.0437 55.4583 50.2966C55.4309 49.5441 55.5086 49.1282 55.4819 49.1252C55.4743 49.1244 55.4553 49.2272 55.4271 49.4253C55.3921 49.6233 55.3753 49.918 55.3723 50.2996C55.3829 51.0559 55.5406 52.1793 56.1407 53.4132C56.7394 54.6341 57.7775 55.973 59.3221 56.9334C60.8514 57.9037 62.8248 58.4909 64.9094 58.5328C65.9513 58.5587 66.9696 58.4513 67.9277 58.2366C68.8873 58.0286 69.7929 57.7118 70.5865 57.2701C71.3779 56.8314 72.0595 56.2624 72.5249 55.5968C73.0093 54.9425 73.272 54.2205 73.4426 53.5617C73.7587 52.2258 73.7138 51.1115 73.6978 50.3567C73.6848 49.9782 73.6658 49.6842 73.6506 49.4854C73.6346 49.2867 73.6231 49.1823 73.6155 49.1831Z" fill="#282B30"/>
<path d="M84.5565 87.8588L89.431 78.8686H104.255L104.724 79.7597L92.1759 100.624L77.9692 101.31L84.5565 87.8588Z" fill="#335863"/>
<path d="M28.0294 92.8262V108.54C28.0294 111.408 29.318 114.124 31.5405 115.938C34.2481 118.147 37.9465 118.703 41.1827 117.383L75.7804 102.05L72.3911 90.5101L44.5567 99.6839L44.5894 92.53L28.0294 92.8262Z" fill="#F9B299"/>
<path d="M85.0272 88.7551L89.9001 79.764H104.724L92.6458 101.521L78.4384 102.206L85.0272 88.7551Z" fill="#282B30"/>
<path d="M71.032 91.7169L73.377 88.8067C74.9209 86.8912 77.2492 85.777 79.71 85.777H81.758L83.1556 87.349C83.1556 87.349 93.1809 87.7862 93.551 89.0223L93.5594 89.4214L93.5655 89.6552L84.9903 90.231C84.9903 90.231 92.2845 90.2089 92.7209 90.2249C93.2015 90.2424 94.7567 90.1023 94.7255 90.9583C94.6988 91.6621 93.8664 92.2173 92.6051 92.4016C92.0872 92.477 85.7687 93.0261 85.7687 93.0261C85.7687 93.0261 92.4033 92.9629 92.7232 92.9614C93.5031 92.9576 93.4048 94.2074 92.9417 94.3643C92.5754 94.4877 83.6666 97.0879 83.6666 97.0879C83.6666 97.0879 85.1648 98.0925 86.3872 98.0049C87.6103 97.9173 89.7063 96.3453 90.1428 97.0879C90.5799 97.8305 90.4923 98.2669 90.2303 98.4413C89.9683 98.6165 87.0863 100.102 86.1252 100.363C85.1648 100.625 77.3215 101.867 77.3215 101.867L74.489 102.323L71.032 91.7169Z" fill="#F9B299"/>
<path d="M102.652 83.282C102.652 83.282 104.202 83.8228 103.413 85.8152C102.259 88.7307 100.268 90.7955 100.268 90.7955C100.268 90.7955 100.542 91.8252 99.65 92.5808C99.65 92.5808 100.748 92.8549 100.061 94.708C100.061 94.708 100.816 96.6296 98.7574 97.4529C98.7574 97.4529 99.3065 99.0317 97.3164 99.7865C95.3255 100.542 93.4047 99.2366 93.4047 99.2366L102.652 83.282Z" fill="#F9B299"/>
<path d="M99.5079 90.6381C98.0989 91.0181 96.5505 91.322 95.2481 91.8163C94.8185 91.9785 94.3935 91.9877 94.1094 92.3479C93.8254 92.7074 93.7599 93.2809 94.0843 93.6046C94.3707 93.8887 94.8299 93.8834 95.2306 93.8354C96.734 93.6533 98.1743 93.137 99.5993 92.6251" fill="#F9B299"/>
<path d="M98.9442 92.9412C97.5359 93.3212 95.9875 93.6243 94.6844 94.1194C94.2556 94.2824 93.8306 94.2908 93.5465 94.6503C93.2617 95.0105 93.1962 95.584 93.5214 95.9069C93.8078 96.1918 94.267 96.1865 94.6676 96.1377C96.1703 95.9564 97.6106 95.4401 99.0356 94.9275" fill="#F9B299"/>
<path d="M98.1434 95.3717C96.7344 95.7518 95.186 96.0556 93.8828 96.5499C93.4548 96.7122 93.0291 96.7213 92.745 97.0808C92.4601 97.441 92.3954 98.0138 92.7206 98.3375C93.0062 98.6223 93.4655 98.617 93.8661 98.5683C95.3695 98.3862 96.809 97.8706 98.234 97.3588" fill="#F9B299"/>
<path d="M99.5129 92.6279C99.4901 92.5685 98.4954 92.9166 97.2471 93.2631C95.9988 93.6135 94.9683 93.8306 94.9789 93.893C94.9881 93.9509 96.0452 93.829 97.3057 93.4756C98.5677 93.1245 99.5358 92.6805 99.5129 92.6279Z" fill="#F79570"/>
<path d="M99.7769 94.7379C99.7548 94.6793 98.6154 95.057 97.198 95.4706C95.7806 95.888 94.6184 96.1858 94.6321 96.2467C94.6435 96.3046 95.8332 96.102 97.2597 95.6816C98.687 95.265 99.7974 94.7927 99.7769 94.7379Z" fill="#F79570"/>
<path d="M98.8515 97.4275C98.837 97.3696 97.7532 97.5889 96.4311 97.9195C95.1081 98.2508 94.0479 98.5661 94.0624 98.6248C94.0776 98.6842 95.1614 98.4641 96.4844 98.1328C97.8066 97.803 98.8667 97.4869 98.8515 97.4275Z" fill="#F79570"/>
<path d="M100.678 90.3243C100.657 90.2634 99.408 90.6861 97.8383 91.0897C96.2693 91.4987 94.973 91.7341 94.9829 91.7973C94.9875 91.827 95.3181 91.8049 95.8474 91.7257C96.376 91.648 97.1025 91.5071 97.8939 91.303C98.6837 91.0981 99.3874 90.8681 99.8878 90.6808C100.389 90.4926 100.689 90.3517 100.678 90.3243Z" fill="#F79570"/>
<path d="M86.5684 87.5052C86.5684 87.4451 84.9941 87.3879 83.0505 87.3773C81.1068 87.3674 79.531 87.4078 79.531 87.4687C79.531 87.5296 81.106 87.5867 83.0497 87.5974C84.9926 87.6073 86.5684 87.5662 86.5684 87.5052Z" fill="#F79570"/>
<path d="M97.1992 83.5209C96.8785 83.7776 96.4101 83.7258 96.1527 83.4051C95.8953 83.0845 95.9471 82.6153 96.2677 82.3587C96.5891 82.1012 97.0575 82.153 97.3149 82.4737C97.5724 82.7951 97.5198 83.2635 97.1992 83.5209Z" fill="#E5E5E4"/>
<path d="M46.3744 99.2789C46.3714 99.2645 46.2495 99.2782 46.0324 99.317C45.8146 99.3528 45.5039 99.4305 45.1261 99.547C44.3706 99.7801 43.3561 100.221 42.3583 100.911C41.3636 101.604 40.5944 102.4 40.1123 103.026C39.8701 103.338 39.6888 103.603 39.5792 103.795C39.4664 103.984 39.4108 104.093 39.4238 104.102C39.455 104.121 39.7239 103.717 40.2326 103.124C40.7383 102.533 41.5084 101.771 42.484 101.092C43.4619 100.416 44.4444 99.9614 45.1764 99.6948C45.9083 99.4259 46.3828 99.3155 46.3744 99.2789Z" fill="#F79570"/>
<path d="M65.2494 57.6416C69.8131 57.2775 73.2617 53.3505 73.034 48.777C72.8748 45.5675 72.7088 42.674 72.7088 42.674C72.7088 42.674 79.5893 41.604 79.6738 34.7249C79.7592 27.8459 78.5664 12.049 78.5664 12.049C70.6029 8.627 61.4115 9.78239 54.5432 15.0696L53.5234 15.8541L56.1296 49.8455C56.4876 54.5204 60.5753 58.0148 65.2494 57.6416Z" fill="#F9B299"/>
<path d="M72.72 42.591C72.72 42.591 68.3727 42.9444 63.7519 40.0418C63.7519 40.0418 65.8715 44.9924 72.736 44.3732L72.72 42.591Z" fill="#F79570"/>
<path d="M76.8692 22.8279C76.8875 23.3466 76.4632 23.7898 75.9217 23.8188C75.3817 23.8485 74.9278 23.4517 74.9095 22.933C74.8905 22.4143 75.3147 21.9703 75.8555 21.9414C76.397 21.9124 76.8501 22.3092 76.8692 22.8279Z" fill="#0C2B34"/>
<path d="M77.2658 21.6944C77.144 21.8223 76.3991 21.2717 75.3427 21.2747C74.2864 21.2618 73.511 21.8056 73.396 21.6761C73.3396 21.619 73.4638 21.3874 73.802 21.1414C74.134 20.8969 74.7014 20.6586 75.3595 20.6608C76.0183 20.6647 76.572 20.9076 76.8904 21.1559C77.2156 21.405 77.326 21.6365 77.2658 21.6944Z" fill="#0C2B34"/>
<path d="M66.9007 23.0837C66.9189 23.6024 66.4947 24.0456 65.9532 24.0746C65.4132 24.1035 64.9593 23.7075 64.941 23.1888C64.9227 22.6701 65.3469 22.2261 65.8869 22.1972C66.4285 22.1682 66.8824 22.5643 66.9007 23.0837Z" fill="#0C2B34"/>
<path d="M66.8736 21.8855C66.7517 22.0135 66.0069 21.4628 64.9505 21.4651C63.8949 21.4529 63.1188 21.9967 63.0038 21.8672C62.9474 21.8101 63.07 21.5786 63.4097 21.3326C63.7418 21.0881 64.3092 20.8497 64.9673 20.8528C65.6261 20.8566 66.1798 21.0988 66.4989 21.347C66.8226 21.5961 66.9338 21.8276 66.8736 21.8855Z" fill="#0C2B34"/>
<path d="M70.7109 29.7247C70.7063 29.6646 71.3628 29.5511 72.4276 29.4148C72.6972 29.3873 72.9531 29.3333 72.998 29.149C73.062 28.954 72.9493 28.663 72.8183 28.3492C72.5647 27.6958 72.2989 27.0111 72.0201 26.2936C70.9112 23.3674 70.1084 20.9607 70.2272 20.9173C70.3453 20.8739 71.34 23.2098 72.4481 26.1367C72.7147 26.8587 72.9706 27.5465 73.2128 28.2045C73.3149 28.5115 73.4908 28.8595 73.3529 29.264C73.2806 29.4658 73.0818 29.612 72.9089 29.6585C72.736 29.7118 72.5845 29.7141 72.4512 29.7225C71.3788 29.7803 70.7147 29.7849 70.7109 29.7247Z" fill="#0C2B34"/>
<path d="M67.5989 30.5111C67.7711 30.5012 67.7733 31.649 68.7558 32.4631C69.7361 33.2804 70.9592 33.1516 70.9684 33.3124C70.9844 33.3839 70.6957 33.5347 70.1793 33.5485C69.6728 33.5667 68.9333 33.4037 68.3324 32.9056C67.733 32.406 67.4763 31.7396 67.4367 31.2681C67.3925 30.7891 67.5212 30.505 67.5989 30.5111Z" fill="#0C2B34"/>
<path d="M67.1477 17.7433C67.0434 18.0304 65.9878 17.8941 64.7471 18.0441C63.5041 18.1683 62.5041 18.5316 62.3396 18.2742C62.2657 18.15 62.4401 17.8796 62.8445 17.6024C63.2451 17.3244 63.8849 17.0601 64.6298 16.9771C65.3746 16.8956 66.0563 17.0137 66.5072 17.1972C66.9626 17.3815 67.1919 17.607 67.1477 17.7433Z" fill="#0C2B34"/>
<path d="M76.8768 18.6858C76.6902 18.9257 75.9628 18.6766 75.0869 18.6645C74.2111 18.6226 73.4692 18.8259 73.2986 18.5746C73.2232 18.4527 73.3405 18.2121 73.6642 17.9851C73.9833 17.7589 74.518 17.5731 75.1197 17.5913C75.7214 17.6111 76.2431 17.8282 76.5477 18.0742C76.857 18.321 76.9582 18.5685 76.8768 18.6858Z" fill="#0C2B34"/>
<path d="M54.3711 22.9876C54.2538 22.9374 49.6444 21.5901 49.7952 26.2931C49.9445 30.9962 54.6361 29.875 54.6399 29.7402C54.6437 29.6054 54.3711 22.9876 54.3711 22.9876Z" fill="#F9B299"/>
<path d="M53.1459 28C53.1253 27.9855 53.0659 28.0594 52.9296 28.128C52.7963 28.1935 52.5655 28.2437 52.3172 28.16C51.8153 27.9932 51.3713 27.2178 51.3218 26.3709C51.2959 25.9436 51.3728 25.5331 51.5129 25.1904C51.6462 24.8415 51.861 24.5948 52.1093 24.5422C52.3568 24.4767 52.5388 24.6207 52.6005 24.7509C52.6676 24.8804 52.6401 24.9756 52.666 24.9824C52.679 24.9939 52.7643 24.9009 52.7201 24.7083C52.698 24.6153 52.6394 24.5057 52.5259 24.4188C52.4101 24.3305 52.2426 24.2886 52.0689 24.3137C51.7064 24.3503 51.3911 24.6945 51.2365 25.07C51.062 25.4486 50.9653 25.9101 50.9943 26.3899C51.0544 27.3366 51.5678 28.2079 52.254 28.3831C52.5876 28.4585 52.861 28.3504 52.9996 28.2346C53.142 28.1143 53.1626 28.0084 53.1459 28Z" fill="#F79570"/>
<path d="M81.201 6.0943C80.2025 4.12092 78.2573 2.65479 76.0852 2.23666C73.913 1.81929 71.5634 2.45981 69.903 3.92214C68.8626 1.85051 66.7537 0.353913 64.4551 0.0561167C62.1565 -0.242441 59.7353 0.666181 58.2006 2.40345C56.8822 3.89624 56.1991 5.92751 54.6545 7.18572C53.3171 8.27408 51.5044 8.63585 50.1593 9.71432C48.6787 10.9025 47.9415 12.9467 48.3223 14.8058C48.7024 16.6657 50.1845 18.2552 52.0124 18.7663C50.5379 21.4266 51.9202 25.2432 54.7573 26.3414L55.4435 26.0573C58.046 23.2005 58.6401 18.6916 56.867 15.2574C56.9515 15.262 57.0315 15.2483 57.1138 15.2468C58.0201 15.7403 59.062 15.9878 60.0925 15.9284C61.7376 15.8317 63.3195 14.9543 64.2723 13.61C66.1497 14.965 68.8421 15.0777 70.8269 13.8858C71.1391 13.6976 71.4514 13.4752 71.8147 13.4364C72.2466 13.3907 72.6556 13.6139 73.0463 13.8058C74.0783 14.3123 75.2375 14.6428 76.3753 14.4775C77.437 14.3237 78.4561 13.6641 78.8758 12.6885L78.9542 12.6793C80.2802 12.4394 81.3434 11.3084 81.7083 10.0114C82.0731 8.7143 81.8103 7.29691 81.201 6.0943Z" fill="#282B30"/>
</svg>
