<svg width="0" height="0" class="hidden">
  <symbol fill="currentColor" xmlns="http://www.w3.org/2000/svg" viewBox="0 0 3.2 14.4" id="!">
    <path d="M2.7 9.9H.4L.1 0h3l-.4 9.9zm-1.1 1.5c.5 0 .9.1 1.1.4.3.3.4.6.4 1.1 0 .4-.1.8-.4 1.1-.3.3-.7.4-1.1.4-.5 0-.8-.1-1.1-.4-.4-.3-.5-.7-.5-1.1s.1-.8.4-1.1c.3-.3.7-.4 1.2-.4z"></path>
  </symbol>
  <symbol fill="currentColor" xmlns="http://www.w3.org/2000/svg" viewBox="0 0 8.8 14.5" id="?">
    <path d="M2.9 10c0-.9.1-1.6.3-2.2.2-.5.6-1.1 1.2-1.6s1-1 1.2-1.3c.3-.2.4-.6.4-.9 0-1.1-.5-1.7-1.5-1.7-.5 0-.9.2-1.2.5-.3.2-.5.7-.5 1.2H0c0-1.2.4-2.2 1.2-2.9C2 .4 3.1 0 4.4 0c1.4 0 2.5.3 3.2 1 .8.7 1.1 1.6 1.1 2.8 0 .6-.1 1.1-.4 1.6-.1.5-.6 1-1.2 1.6l-.8.8c-.5.5-.8 1-.8 1.7v.6H2.9zm-.2 3c0-.4.1-.8.4-1.1.3-.3.7-.4 1.1-.4s.8.1 1.1.4c.3.3.4.6.4 1.1 0 .4-.1.8-.4 1.1-.3.3-.7.4-1.1.4s-.9-.1-1.2-.4c-.2-.3-.3-.6-.3-1.1z"></path>
  </symbol>
  <symbol fill="none" stroke="currentColor" xmlns="http://www.w3.org/2000/svg" viewBox="0 0 20 36" id="arrow">
    <path d="M2 2l16 16L2 34" stroke-width="3" stroke-linecap="round" stroke-linejoin="round"></path>
  </symbol>
  <symbol fill="none" stroke="currentColor" xmlns="http://www.w3.org/2000/svg" viewBox="0 0 127 73" id="arrow2">
    <path d="M11.749 2c16 51.168 63.232 53.888 109.199 51.168m0 0l-13.852-9.656m13.852 9.656l-12.793 11.794" stroke-width="3" stroke-linecap="round"></path>
  </symbol>
  <symbol fill="currentColor" xmlns="http://www.w3.org/2000/svg" viewBox="0 0 13 10" id="check">
    <path d="M12.082 2.457l-6.5 6.5a.997.997 0 01-1.414 0l-3.25-3.25a.999.999 0 111.414-1.414l2.543 2.543 5.793-5.793a.999.999 0 111.414 1.414z"></path>
  </symbol>
  <symbol fill="currentColor" xmlns="http://www.w3.org/2000/svg" viewBox="0 0 18 18" id="clock">
    <g clip-path="url(#clip0)">
      <path
        d="M12.207 10.59l-2.51-1.883V4.873a.697.697 0 10-1.394 0v4.183c0 .22.103.426.279.557l2.788 2.092a.693.693 0 00.976-.14.696.696 0 00-.14-.976z">
      </path>
      <path
        d="M9 0C4.037 0 0 4.037 0 9s4.037 9 9 9 9-4.037 9-9-4.037-9-9-9zm0 16.605c-4.193 0-7.606-3.412-7.606-7.605 0-4.194 3.413-7.606 7.606-7.606 4.194 0 7.606 3.412 7.606 7.606 0 4.193-3.413 7.605-7.606 7.605z">
      </path>
    </g>
    <defs>
      <clipPath id="clip0">
        <path  d="M0 0h18v18H0z"></path>
      </clipPath>
    </defs>
  </symbol>
  <symbol fill="currentColor" xmlns="http://www.w3.org/2000/svg" viewBox="0 0 44 44" id="discount">
    <path d="M43.874 30.17c-.383-1.206-1.721-2.273-3.752-1.764a.342.342 0 00-.014.004l-8.486 2.287a2.71 2.71 0 00-2.973-2.075c-.49.06-2.149.297-3.904.546-1.676.238-3.41.484-3.885.544-1.05.13-2.445.02-3.924-.097-.521-.041-1.06-.084-1.612-.119a.86.86 0 10-.108 1.715c.538.034 1.07.076 1.585.117 1.568.124 3.048.241 4.27.09.492-.062 2.155-.298 3.915-.548 1.672-.238 3.4-.483 3.875-.543a.989.989 0 011.104.853c.021.17.078.622-1.11 1.167-2.445 1.12-5.05 2.08-7.148 2.631a.86.86 0 00.438 1.663c2.189-.576 4.895-1.572 7.425-2.732.88-.403 1.416-.872 1.729-1.345l9.248-2.493c1.019-.253 1.541.154 1.69.62.142.45-.037 1.029-.76 1.31-.72.272-2.442 1.02-4.62 1.969-2.892 1.257-6.49 2.822-9.359 3.973-3.529 1.415-4.532 1.604-8.267 1.564l-5.883-.065h-.01a.86.86 0 00-.763.466l-.808 1.571a.864.864 0 00-.066.17c-.119.446-.27.632-.89.632H2.16c-.093 0-.194-.058-.277-.16-.07-.086-.224-.33-.141-.728 1.035-4.94 3.074-8 6.235-9.356a.86.86 0 10-.677-1.58C3.587 32.05 1.219 35.511.06 41.04c-.166.79.013 1.579.489 2.165.41.505.998.795 1.612.795h8.648c1.301 0 2.172-.626 2.525-1.811l.525-1.023 5.352.06c3.947.044 5.2-.193 8.926-1.688 2.892-1.16 6.503-2.73 9.404-3.992 2.076-.904 3.87-1.684 4.545-1.938a.199.199 0 01.009-.003c1.678-.65 2.164-2.22 1.778-3.434zM18.563 10.556a2.581 2.581 0 002.578-2.578A2.581 2.581 0 0018.563 5.4a2.581 2.581 0 00-2.578 2.578 2.581 2.581 0 002.578 2.579zm0-3.437a.86.86 0 010 1.719.86.86 0 010-1.719zm4.297 7.734a2.581 2.581 0 002.578 2.579 2.581 2.581 0 002.578-2.579 2.581 2.581 0 00-2.578-2.578 2.581 2.581 0 00-2.578 2.578zm3.437 0a.86.86 0 01-1.718 0 .86.86 0 011.718 0zm-7.703 2.464a.86.86 0 001.174-.315l5.954-10.313a.86.86 0 10-1.489-.859L18.28 16.143a.86.86 0 00.315 1.174z"></path>
    <path d="M10.348 17.038l10.319 10.395c.354.357.827.554 1.33.555h.005a1.87 1.87 0 001.332-.552L33.73 16.964a1.886 1.886 0 00-1.336-3.214h-.94V2.578A2.581 2.581 0 0028.877 0h-13.75a2.581 2.581 0 00-2.578 2.578V13.75h-.937a1.889 1.889 0 00-1.263 3.288zm1.263-1.57h1.796a.86.86 0 00.86-.859V2.58a.86.86 0 01.859-.86h13.75a.86.86 0 01.859.86v12.03c0 .475.385.86.86.86h1.798c.025 0 .072.006.117.05a.165.165 0 010 .234L22.118 26.222a.161.161 0 01-.116.047.162.162 0 01-.116-.047L11.549 15.807a.86.86 0 00-.048-.045.168.168 0 01.11-.295zm-.209 14.025a.86.86 0 100 1.719.86.86 0 000-1.719z"></path>
  </symbol>
  <symbol fill="currentColor" xmlns="http://www.w3.org/2000/svg" viewBox="0 0 32 32" id="instagram">
    <path d="M22.705 0H9.295C4.17 0 0 4.17 0 9.296v13.409C0 27.83 4.17 32 9.296 32h13.409C27.83 32 32 27.83 32 22.705V9.295C32 4.17 27.83 0 22.705 0zM29.5 22.704a6.803 6.803 0 01-6.795 6.796H9.295A6.803 6.803 0 012.5 22.705V9.295A6.803 6.803 0 019.296 2.5h13.409A6.803 6.803 0 0129.5 9.296v13.409z"></path>
    <path d="M16 7.375c-4.756 0-8.625 3.87-8.625 8.625 0 4.756 3.87 8.625 8.625 8.625 4.756 0 8.625-3.87 8.625-8.625 0-4.756-3.87-8.625-8.625-8.625zm0 14.75A6.132 6.132 0 019.875 16 6.132 6.132 0 0116 9.875 6.132 6.132 0 0122.125 16 6.132 6.132 0 0116 22.125zM24.75 8.5a1.25 1.25 0 100-2.5 1.25 1.25 0 000 2.5z"></path>
  </symbol>
  <symbol fill="currentColor" xmlns="http://www.w3.org/2000/svg" viewBox="0 0 44 44" id="mechanic">
    <path d="M14.438 13.063h-1.376v1.375h1.376v-1.375zm6.875 0h-1.375v1.375h1.375v-1.375zm-1.375 4.125h-1.375a1.375 1.375 0 01-2.75 0h-1.376a2.75 2.75 0 105.5 0z"></path>
    <path d="M39.394 8.25a.687.687 0 00-1.149.31l-.943 3.52-2.26.462-1.725-1.53.941-3.518a.688.688 0 00-.84-.842 6.178 6.178 0 00-3.05 10.046l-2.82 10.527a7.719 7.719 0 00-1.231-.513l-5.692-1.78v-2.386a7.558 7.558 0 004.125-6.733v-.688a2.055 2.055 0 00.967-3.873c.04-.058.076-.117.108-.178l.07-.142a2.05 2.05 0 00-1.145-2.855V4.565a2.073 2.073 0 00-1.659-2.021L18.397 1.6a6.421 6.421 0 00-2.425 0l-4.689.944a2.072 2.072 0 00-1.658 2.021v3.512a2.05 2.05 0 00-1.146 2.854l.069.138c.032.062.068.122.106.18a2.055 2.055 0 00.971 3.876v.688a7.562 7.562 0 004.125 6.727v2.392l-5.69 1.78a7.524 7.524 0 00-5.31 7.216v8.01a.687.687 0 00.688.687h27.5a.687.687 0 00.687-.688v-1.374H30.25v.687h-3.437v-2.063h-1.375v2.063h-16.5v-7.563H7.563v7.563H4.125v-7.322a6.153 6.153 0 014.344-5.903l1.844-.577v4.177a3.442 3.442 0 003.437 3.438h6.875a3.415 3.415 0 002.518-1.116 6.17 6.17 0 001.813 4.298.687.687 0 001.15-.31l.942-3.52 2.26-.463 1.725 1.53-.943 3.52a.686.686 0 00.84.843A6.175 6.175 0 0033.98 29.8l3.032-11.321A6.177 6.177 0 0039.394 8.25zM26.626 28.312a6.22 6.22 0 00-2.563 2.332v-3.196l1.843.577c.246.08.486.176.72.287zm-5.96-1.925l-.531 2.768-1.838-1.1 1.832-1.832.537.164zm-10.147-15.56a.687.687 0 01-.739-.37l-.068-.138a.687.687 0 01.51-.988l6.028-.926a6.163 6.163 0 011.881 0l6.029.926a.688.688 0 01.511.986l-.069.142a.687.687 0 01-.737.37L18.3 9.814a6.166 6.166 0 00-2.212 0l-5.57 1.012zM24.75 13.75v-1.375a.687.687 0 110 1.375zm-1.375-9.185v3.254l-1.77-.275.75-3.749.464.094a.692.692 0 01.556.676zm-7.138-1.614a5.001 5.001 0 011.895 0l2.875.577-.763 3.811-1.906-.294a7.502 7.502 0 00-2.3 0l-1.907.294-.763-3.812 2.87-.576zm-4.681.94l.465-.093.75 3.749L11 7.822V4.565a.693.693 0 01.556-.674zm-2.618 9.171a.687.687 0 01.687-.687v1.375a.687.687 0 01-.687-.688zM11 15.813v-3.676l5.327-.968a4.8 4.8 0 011.719 0l5.33.968v3.677a6.187 6.187 0 01-12.376 0zm6.188 7.563a7.588 7.588 0 002.062-.29v2.068l-2.062 2.062-2.063-2.062v-2.07a7.54 7.54 0 002.063.292zm-2.942 2.843l1.833 1.832-1.839 1.1-.53-2.769.536-.163zm6.38 7.47H13.75a2.062 2.062 0 01-2.063-2.063V27.02l.701-.22.688 3.58a.688.688 0 001.03.46l3.082-1.85 3.083 1.85a.687.687 0 001.031-.46l.688-3.58.698.22v4.606a2.062 2.062 0 01-2.063 2.063zm19.043-19.82a4.826 4.826 0 01-3.403 3.4.689.689 0 00-.485.486L32.55 29.811a.687.687 0 00.177.663 4.805 4.805 0 01-.951 7.54l.693-2.586a.687.687 0 00-.207-.693l-2.3-2.04a.687.687 0 00-.594-.16l-3.012.62a.686.686 0 00-.526.495l-.692 2.586a4.805 4.805 0 012.945-7.005.687.687 0 00.485-.486L31.8 16.688a.688.688 0 00-.178-.664 4.806 4.806 0 01.953-7.54l-.698 2.585a.687.687 0 00.206.691l2.3 2.04a.688.688 0 00.594.16l3.012-.62a.687.687 0 00.526-.495l.693-2.585a4.807 4.807 0 01.46 3.609z"></path>
  </symbol>
  <symbol fill="currentColor" xmlns="http://www.w3.org/2000/svg" viewBox="0 0 38 38" id="medal">
    <g clip-path="url(#clip1)" >
      <path d="M27.716 23.619c.073-.171.15-.322.241-.412.214-.212.716-.364 1.202-.512.807-.245 1.724-.522 2.185-1.319.454-.785.239-1.71.05-2.525-.117-.5-.237-1.018-.155-1.32.072-.277.44-.669.765-1.014.584-.622 1.246-1.326 1.246-2.267 0-.94-.662-1.645-1.246-2.267-.325-.346-.692-.737-.765-1.012-.08-.303.04-.822.155-1.322.189-.816.404-1.74-.05-2.527-.461-.797-1.376-1.074-2.185-1.317-.486-.148-.987-.3-1.2-.512-.214-.212-.365-.714-.512-1.2-.244-.808-.52-1.723-1.317-2.183-.79-.458-1.712-.243-2.529-.053-.5.116-1.016.236-1.32.155-.277-.074-.668-.441-1.014-.766C20.645.662 19.941 0 19 0c-.939 0-1.643.662-2.266 1.246-.347.325-.738.692-1.015.766-.304.083-.821-.04-1.32-.155-.819-.19-1.742-.404-2.529.05-.794.462-1.072 1.377-1.315 2.186-.148.486-.3.988-.512 1.2-.214.212-.716.364-1.202.511-.807.246-1.724.523-2.185 1.32-.454.785-.239 1.71-.05 2.525.117.5.237 1.018.155 1.32-.071.277-.44.669-.765 1.014-.584.622-1.246 1.328-1.246 2.267 0 .939.662 1.645 1.246 2.267.325.346.692.737.765 1.012.08.302-.04.822-.155 1.322-.189.816-.404 1.74.05 2.527.461.797 1.376 1.074 2.185 1.317.486.148.987.3 1.2.512.09.09.168.239.241.41L4.81 36.906A.793.793 0 005.542 38c.12 0 .24-.027.354-.085l5.922-2.961 4.368 2.911a.788.788 0 001.18-.38l1.73-4.61 1.527 4.584a.79.79 0 001.19.409l4.37-2.913 5.92 2.961a.788.788 0 00.894-.127.792.792 0 00.191-.881l-5.472-13.29zm-9.457 6.976l-2.025 5.399-3.92-2.613a.792.792 0 00-.794-.049l-4.442 2.222 4.024-9.777c.19.323.425.614.768.813.79.458 1.714.243 2.529.053.499-.116 1.015-.24 1.32-.155.277.074.668.441 1.014.766.223.209.462.42.712.614.006.03.002.06.011.09l.852 2.558c-.014.028-.038.049-.049.079zm.74-3.678c-.313 0-.775-.434-1.183-.817-.504-.475-1.026-.965-1.688-1.142a2.491 2.491 0 00-.646-.08c-.48 0-.966.113-1.44.223-.506.118-1.133.264-1.377.12-.255-.147-.435-.744-.595-1.271-.203-.673-.412-1.369-.907-1.863-.494-.494-1.19-.704-1.862-.907-.528-.158-1.125-.339-1.273-.593-.141-.246.004-.873.122-1.378.16-.69.324-1.403.142-2.088-.179-.662-.668-1.183-1.142-1.688-.384-.409-.818-.871-.818-1.183 0-.312.435-.774.818-1.183.474-.503.965-1.026 1.142-1.688.182-.684.017-1.396-.142-2.086-.118-.505-.263-1.132-.122-1.376.148-.255.745-.436 1.274-.596.673-.202 1.367-.413 1.862-.907.493-.492.703-1.189.907-1.86.16-.528.34-1.126.594-1.273.249-.14.874.004 1.376.122.687.16 1.398.326 2.087.142.662-.177 1.184-.668 1.69-1.141.406-.384.869-.817 1.18-.817.313 0 .775.433 1.183.817.504.475 1.026.964 1.688 1.141.687.184 1.4.018 2.085-.142.505-.12 1.134-.263 1.378-.12.255.147.435.744.595 1.27.203.674.412 1.369.907 1.863.494.494 1.19.704 1.862.907.528.158 1.125.339 1.273.594.141.245-.004.872-.122 1.377-.16.69-.324 1.403-.142 2.089.179.662.668 1.183 1.142 1.688.384.408.818.87.818 1.182 0 .312-.435.774-.819 1.183-.473.504-.964 1.026-1.141 1.688-.182.684-.017 1.396.143 2.087.117.505.262 1.132.121 1.376-.148.255-.745.435-1.274.595-.673.203-1.367.413-1.862.907-.493.493-.703 1.19-.907 1.86-.16.528-.34 1.126-.594 1.274-.244.14-.873-.005-1.376-.122-.687-.16-1.398-.327-2.087-.143-.662.177-1.184.668-1.69 1.142-.406.383-.869.817-1.18.817zm7.48 6.417a.787.787 0 00-.794.049l-3.887 2.592-2.508-7.524c.791-.12 1.422-.676 1.976-1.197.347-.325.738-.692 1.015-.766.305-.081.822.04 1.32.155.819.19 1.742.404 2.529-.05.342-.199.576-.492.766-.815l4.025 9.777-4.443-2.221z"></path>
      <path d="M28.5 14.25c0-5.24-4.26-9.5-9.5-9.5s-9.5 4.26-9.5 9.5 4.26 9.5 9.5 9.5 9.5-4.26 9.5-9.5zM19 22.167c-4.365 0-7.917-3.552-7.917-7.917S14.635 6.333 19 6.333s7.917 3.552 7.917 7.917-3.552 7.917-7.917 7.917z">
      </path>
    </g>
    <defs>
      <clipPath id="clip1">
        <path  d="M0 0h38v38H0z"></path>
      </clipPath>
    </defs>
  </symbol>
  <symbol fill="currentColor" xmlns="http://www.w3.org/2000/svg" viewBox="0 0 37 37" id="money">
    <g clip-path="url(#clip2)" >
      <path
        d="M26.98 27.75h-.124a.771.771 0 010-1.542c.425 0 .832.346.832.771 0 .426-.283.771-.709.771zm-12.334-1.542H3.854A3.859 3.859 0 010 22.354V5.396a3.859 3.859 0 013.854-3.854h29.292A3.859 3.859 0 0137 5.396v12.333a.771.771 0 01-1.542 0V5.396a2.315 2.315 0 00-2.312-2.313H3.854a2.315 2.315 0 00-2.312 2.313v16.958a2.315 2.315 0 002.312 2.313h10.792a.771.771 0 010 1.541z">
      </path>
      <path
        d="M18.5 18.5a4.63 4.63 0 01-4.625-4.625A4.63 4.63 0 0118.5 9.25a4.63 4.63 0 014.625 4.625A4.63 4.63 0 0118.5 18.5zm0-7.708a3.086 3.086 0 00-3.083 3.083c0 1.7 1.382 3.083 3.083 3.083 1.7 0 3.083-1.382 3.083-3.083 0-1.7-1.382-3.083-3.083-3.083zm8.48 16.958c-5.714 0-10.021-1.989-10.021-4.625s4.307-4.625 10.02-4.625C32.693 18.5 37 20.489 37 23.125s-4.307 4.625-10.02 4.625zm0-7.708c-4.854 0-8.48 1.628-8.48 3.083 0 1.455 3.626 3.083 8.48 3.083 4.852 0 8.479-1.628 8.479-3.083 0-1.455-3.627-3.083-8.48-3.083z">
      </path>
      <path
        d="M26.98 32.375c-5.714 0-10.021-1.989-10.021-4.625a.771.771 0 011.541 0c0 1.455 3.626 3.083 8.48 3.083 4.852 0 8.479-1.628 8.479-3.083a.771.771 0 011.541 0c0 2.636-4.307 4.625-10.02 4.625z">
      </path>
      <path
        d="M26.98 37c-5.714 0-10.021-1.989-10.021-4.625a.771.771 0 011.541 0c0 1.455 3.626 3.083 8.48 3.083 4.852 0 8.479-1.628 8.479-3.083a.771.771 0 011.541 0C37 35.011 32.693 37 26.98 37z">
      </path>
      <path
        d="M17.73 33.146a.771.771 0 01-.771-.771v-9.25a.771.771 0 011.541 0v9.25a.77.77 0 01-.77.77zm18.5 0a.771.771 0 01-.771-.771v-9.25a.771.771 0 011.541 0v9.25a.77.77 0 01-.77.77zM8.48 7.708H5.395a.771.771 0 010-1.541h3.083a.771.771 0 010 1.541z">
      </path>
    </g>
    <defs>
      <clipPath id="clip2">
        <path  d="M0 0h37v37H0z"></path>
      </clipPath>
    </defs>
  </symbol>
  <symbol fill="currentColor" xmlns="http://www.w3.org/2000/svg" viewBox="0 0 39 39" id="refrigerator">
    <path
      d="M27.677 11.952a.63.63 0 00.63-.63V.63a.63.63 0 00-.63-.629H11.322a.629.629 0 00-.629.629v10.694a.63.63 0 00.63.629h1.372v.629h-1.373a.63.63 0 00-.629.629V38.37a.63.63 0 00.63.629h16.354a.63.63 0 00.63-.629V13.21a.63.63 0 00-.63-.63h-1.372v-.628h1.372zM11.951 1.258h15.097v9.436H11.951V1.258zm1.519 36.484l1.887-1.887h8.286l1.887 1.887H13.47zm13.578-.26l-2.7-2.7a.63.63 0 00-.445-.185h-8.806a.63.63 0 00-.445.184l-2.7 2.7V13.84h15.096v23.64zM25.047 12.58H13.953v-.63h11.094v.63z"
      ></path>
    <path
      d="M13.839 9.435a.629.629 0 00.629-.629V3.774a.629.629 0 10-1.258 0v5.032c0 .348.282.63.629.63zm0 8.807a.63.63 0 00-.629.629v9.436a.629.629 0 001.258 0V18.87a.63.63 0 00-.629-.63z"
      ></path>
  </symbol>
  <symbol fill="currentColor" xmlns="http://www.w3.org/2000/svg" viewBox="0 0 41 41" id="refrigerator2">
    <path
      d="M29.007 4.871h-1.04c-.64 0-1.16.521-1.16 1.161V9.86c0 .64.52 1.16 1.16 1.16h1.04c.64 0 1.161-.52 1.161-1.16V6.032c0-.64-.52-1.16-1.16-1.16zm-.04 4.949h-.96V6.072h.96V9.82zm-.999 7.813c-.64 0-1.161.52-1.161 1.161v3.827c0 .64.52 1.161 1.16 1.161h1.04c.64 0 1.161-.52 1.161-1.161v-3.827c0-.64-.52-1.16-1.16-1.16h-1.04zm1 4.948h-.96v-3.747h.96v3.747z"
      ></path>
    <path
      d="M31.765 0H9.247c-1.213 0-2.2.987-2.2 2.2v34.155c0 1.083.788 1.986 1.82 2.167v1.253c0 .676.55 1.225 1.225 1.225h4.785c.674 0 1.222-.55 1.222-1.225v-1.22h9.03v1.22c0 .676.548 1.225 1.222 1.225h4.788c.673 0 1.222-.55 1.222-1.225v-1.302a2.205 2.205 0 001.607-2.118V21.288a.6.6 0 10-1.201 0v6.873c-3.689 4.43-8.477 5.285-17.552 3.163-2.586-.604-5.553.177-6.968.643V15.36h24.52v3.156a.6.6 0 101.2 0V2.201A2.202 2.202 0 0031.766 0zM14.9 39.775c0 .013-.013.024-.022.024h-4.785c-.011 0-.024-.012-.024-.024v-1.22h4.83v1.22zm16.24.024h-4.79c-.008 0-.021-.011-.021-.024v-1.22h4.83v1.22c0 .013-.012.024-.021.024zm-16.197-7.304c3.252.76 5.94 1.133 8.233 1.133 1.052 0 2.02-.078 2.923-.234 2.64-.456 4.792-1.564 6.669-3.448v6.409c0 .55-.45 1-1.002 1H9.247c-.55 0-1-.45-1-1v-3.117c1.056-.374 4.155-1.337 6.695-.743zM8.248 14.16V2.2c0-.55.448-1 1-1h22.517c.553 0 1.002.45 1.002 1v11.96H8.247z"
      ></path>
  </symbol>
  <symbol fill="currentColor" xmlns="http://www.w3.org/2000/svg" viewBox="0 0 38 38" id="truck">
    <path
      d="M8.867 25.017a3.804 3.804 0 00-3.8 3.8c0 2.095 1.704 3.8 3.8 3.8s3.8-1.705 3.8-3.8c0-2.096-1.704-3.8-3.8-3.8zm0 6.333a2.536 2.536 0 01-2.533-2.533 2.536 2.536 0 012.533-2.534 2.536 2.536 0 012.533 2.534 2.536 2.536 0 01-2.533 2.533zM30.4 25.017a3.804 3.804 0 00-3.8 3.8c0 2.095 1.704 3.8 3.8 3.8s3.8-1.705 3.8-3.8c0-2.096-1.704-3.8-3.8-3.8zm0 6.333a2.536 2.536 0 01-2.533-2.533 2.536 2.536 0 012.533-2.534 2.536 2.536 0 012.533 2.534A2.536 2.536 0 0130.4 31.35z"
      ></path>
    <path
      d="M37.9 21.507l-5.7-8.866a.633.633 0 00-.533-.291H24.7a.633.633 0 00-.633.633v15.834c0 .35.283.633.633.633h2.534v-1.267h-1.9V13.617h5.987l5.412 8.42v6.146h-3.166v1.267h3.8c.35 0 .633-.283.633-.633V21.85a.631.631 0 00-.1-.343z"
      ></path>
    <path
      d="M27.867 20.583V16.15h5.066v-1.267h-5.7a.633.633 0 00-.633.634v5.7c0 .35.283.633.633.633h9.5v-1.267h-8.866zM24.7 7.917H.633A.634.634 0 000 8.55v20.267c0 .35.284.633.633.633H5.7v-1.267H1.267v-19h22.8v19H12.033v1.267H24.7c.35 0 .633-.283.633-.633V8.55a.633.633 0 00-.633-.633z"
      ></path>
    <path
      d="M4.433 25.65h-3.8v1.267h3.8V25.65zm19.634 0H13.3v1.267h10.767V25.65zm13.3 0h-2.533v1.267h2.533V25.65zM24.7 10.45H2.533v1.267H24.7V10.45zM9.5 28.183H8.233v1.267H9.5v-1.267zm21.533 0h-1.266v1.267h1.266v-1.267zM11.4 5.383H2.533V6.65H11.4V5.383zm-10.133 0H0V6.65h1.267V5.383z"
      ></path>
  </symbol>
  <symbol fill="currentColor" xmlns="http://www.w3.org/2000/svg" viewBox="0 0 44 44" id="wrench">
    <path
      d="M41.938 25.438a.687.687 0 00.687-.688v-5.5a.687.687 0 00-.688-.688h-3.803a16.401 16.401 0 00-2.295-5.539l2.687-2.693a.687.687 0 000-.971l-3.884-3.884a.688.688 0 00-.972 0L30.977 8.16a16.401 16.401 0 00-5.54-2.295V2.063a.687.687 0 00-.687-.688h-5.5a.687.687 0 00-.688.688v3.803a16.401 16.401 0 00-5.539 2.295L10.33 5.474a.688.688 0 00-.971 0L5.475 9.358a.688.688 0 000 .972l2.686 2.693a16.4 16.4 0 00-2.295 5.54H2.063a.687.687 0 00-.688.687v5.5a.687.687 0 00.688.688h3.803a16.401 16.401 0 002.295 5.539L5.474 33.67a.688.688 0 000 .971l3.884 3.884a.687.687 0 00.972 0l2.693-2.686a16.402 16.402 0 005.54 2.295v3.803a.687.687 0 00.687.688h5.5a.687.687 0 00.688-.688v-3.803a16.417 16.417 0 005.537-2.298l5.609 5.61a3.438 3.438 0 004.861-4.862l-5.61-5.61a16.417 16.417 0 002.299-5.537h3.803zm-1.465 15.035a2.062 2.062 0 01-2.917 0L24.392 27.31a3.421 3.421 0 00-2.435-1.001c-.144 0-.287.008-.43.025a5.496 5.496 0 01-5.963-6.878l3.033 3.034a.687.687 0 00.486.2H22a.687.687 0 00.688-.687v-2.92a.687.687 0 00-.202-.486l-3.03-3.033a5.495 5.495 0 016.875 5.964 3.442 3.442 0 00.976 2.864l13.166 13.164a2.062 2.062 0 010 2.917zm-12.191-17.05a2.072 2.072 0 01-.582-1.729 6.87 6.87 0 00-9.787-7.02.688.688 0 00-.188 1.107l3.587 3.587v1.945h-1.944l-3.587-3.588a.689.689 0 00-1.106.188A6.87 6.87 0 0021.69 27.7a2.074 2.074 0 011.729.583l3.536 3.535a11.006 11.006 0 114.861-4.86l-3.535-3.534zm8.606 1.214a14.986 14.986 0 01-2.045 5.348l-2.01-2.01a12.39 12.39 0 10-4.861 4.861l2.01 2.01a14.99 14.99 0 01-5.348 2.045.687.687 0 00-.572.674v3.685h-4.125v-3.685a.688.688 0 00-.57-.677 14.978 14.978 0 01-6.03-2.499.688.688 0 00-.88.077l-2.608 2.602-2.913-2.914 2.602-2.607a.688.688 0 00.076-.881 14.98 14.98 0 01-2.498-6.032.687.687 0 00-.681-.572H2.75v-4.125h3.685a.688.688 0 00.677-.57 14.98 14.98 0 012.499-6.03.688.688 0 00-.077-.88L6.932 9.848l2.914-2.913 2.607 2.602a.688.688 0 00.881.076 14.98 14.98 0 016.032-2.498.687.687 0 00.572-.681V2.75h4.125v3.685a.688.688 0 00.57.677 14.98 14.98 0 016.033 2.499.688.688 0 00.881-.077l2.607-2.602 2.914 2.914-2.602 2.607a.687.687 0 00-.077.881 14.978 14.978 0 012.499 6.032.688.688 0 00.677.572h3.685v4.125h-3.685a.688.688 0 00-.677.57v.004z"
      ></path>
    <path
      d="M26.375 25.403a.689.689 0 10-.972.972l.486.486a.688.688 0 00.972-.972l-.486-.486zm9.723 11.667a.688.688 0 00.972-.972l-8.264-8.265a.688.688 0 00-.973.973l8.265 8.264zm2.431 2.431a.687.687 0 00.972-.972l-.486-.487a.688.688 0 10-.973.973l.487.486z"
      ></path>
  </symbol>
  <symbol fill="currentColor" xmlns="http://www.w3.org/2000/svg" viewBox="0 0 42 42" id="magnifier">
    <path fill-rule="evenodd" clip-rule="evenodd" d="M16.96 27.71L4.164 40.507a1.858 1.858 0 11-2.627-2.627l12.796-12.798a1.858 1.858 0 012.627 2.627z"></path>
    <path fill-rule="evenodd" clip-rule="evenodd" d="M25.953 28.624c6.921 0 12.532-5.61 12.532-12.532S32.875 3.559 25.953 3.559 13.42 9.17 13.42 16.092c0 6.921 5.611 12.532 12.533 12.532zm0 3.096c8.631 0 15.628-6.997 15.628-15.628C41.581 7.46 34.584.463 25.953.463c-8.632 0-15.629 6.997-15.629 15.629 0 8.631 6.997 15.628 15.629 15.628z"></path>
  </symbol>
</svg>