<?xml version="1.0" encoding="utf-8"?>
<!-- Generator: Adobe Illustrator 25.2.0, SVG Export Plug-In . SVG Version: 6.00 Build 0)  -->
<svg version="1.1" id="Capa_1" xmlns="http://www.w3.org/2000/svg" xmlns:xlink="http://www.w3.org/1999/xlink" x="0px" y="0px"
	 viewBox="0 0 512 512" style="enable-background:new 0 0 512 512;" xml:space="preserve">
<g>
	<g>
		<path d="M258.8,181.5h-192c-4.1,0-7.5,3.4-7.5,7.5c0,4.1,3.4,7.5,7.5,7.5h192c4.1,0,7.5-3.4,7.5-7.5S262.9,181.5,258.8,181.5z"/>
		<path d="M258.8,234.2h-192c-4.1,0-7.5,3.4-7.5,7.5s3.4,7.5,7.5,7.5h192c4.1,0,7.5-3.4,7.5-7.5S262.9,234.2,258.8,234.2z"/>
		<path d="M258.8,286.9h-192c-4.1,0-7.5,3.4-7.5,7.5s3.4,7.5,7.5,7.5h192c4.1,0,7.5-3.4,7.5-7.5S262.9,286.9,258.8,286.9z"/>
		<path d="M266.3,347.1c0-4.1-3.4-7.5-7.5-7.5h-192c-4.1,0-7.5,3.4-7.5,7.5s3.4,7.5,7.5,7.5h192
			C262.9,354.6,266.3,351.2,266.3,347.1z"/>
		<path d="M66.8,416.8c-4.1,0-7.5,3.4-7.5,7.5s3.4,7.5,7.5,7.5H163c4.1,0,7.5-3.4,7.5-7.5s-3.4-7.5-7.5-7.5H66.8z"/>
		<path d="M345.2,92.9V68.5c0-9.3-7.5-16.8-16.8-16.8h-154c-9.3,0-16.8,7.5-16.8,16.8v24.3c0,9.3,7.5,16.8,16.8,16.8h13
			c4.1,0,7.5-3.4,7.5-7.5c0-4.1-3.4-7.5-7.5-7.5h-13c-1,0-1.8-0.8-1.8-1.8V68.5c0-1,0.8-1.8,1.8-1.8h154c1,0,1.8,0.8,1.8,1.8v24.3
			c0,1-0.8,1.8-1.8,1.8H222.5c-4.1,0-7.5,3.4-7.5,7.5c0,4.1,3.4,7.5,7.5,7.5h105.9C337.7,109.7,345.2,102.1,345.2,92.9z"/>
		<path d="M401.3,457.3c-4.1,0-7.5,3.4-7.5,7.5v10.1c0,12.2-9.9,22.1-22.1,22.1H39.9c-12.2,0-22.1-9.9-22.1-22.1V114.4
			c0-1.6,0.2-3.2,0.5-4.8h68.3c14.3,0,25.9-11.6,25.9-25.9V15.5c1.5-0.3,3.1-0.5,4.8-0.5h254.4c12.2,0,22.1,9.9,22.1,22.1v99.8
			c0,4.1,3.4,7.5,7.5,7.5s7.5-3.4,7.5-7.5V37.1c0-20.5-16.6-37.1-37.1-37.1H117.2C107.3,0,98,3.9,91,10.9L13.7,88.2
			c-7,7-10.9,16.3-10.9,26.2v360.5c0,20.5,16.6,37.1,37.1,37.1h331.8c20.5,0,37.1-16.6,37.1-37.1v-10.1
			C408.8,460.7,405.4,457.3,401.3,457.3L401.3,457.3z M97.5,25.6v58.2c0,6-4.9,10.9-10.9,10.9H28.4L97.5,25.6z"/>
		<path d="M504,268c5.3-7.7,6.6-17.3,3.7-26.1s-9.6-15.8-18.4-19c-5.8-2.1-9.7-7.5-9.9-13.7c-0.3-9.3-4.8-17.9-12.3-23.4
			c-7.6-5.5-17.1-7.1-26-4.5c-6,1.7-12.3-0.3-16.1-5.2c-5.7-7.4-14.4-11.6-23.7-11.6c-9.3,0-18,4.2-23.7,11.6
			c-3.8,4.9-10.1,7-16,5.2c-9-2.6-18.5-1-26,4.5c-7.6,5.5-12.1,14-12.3,23.4c-0.2,6.2-4.1,11.6-9.9,13.7c-8.8,3.2-15.5,10.1-18.4,19
			c-2.9,8.9-1.5,18.4,3.7,26.1c3.5,5.1,3.5,11.8,0,16.9c-5.3,7.7-6.6,17.3-3.7,26.1c2.9,8.9,9.6,15.8,18.4,19
			c5.8,2.1,9.7,7.5,9.9,13.7c0.3,8.6,4.2,16.7,10.8,22.2c4.4,3.6,9.6,5.9,15.1,6.6v68.3c0,5.8,3.1,11.1,8.2,13.9
			c5,2.8,11.2,2.7,16.1-0.3l27.5-16.9c0.4-0.3,0.7-0.2,1,0l27.5,16.9c4.9,3,11.1,3.1,16.1,0.3c5-2.8,8.2-8.1,8.2-13.9v-68.3
			c5.5-0.8,10.7-3,15.1-6.6c6.6-5.5,10.6-13.6,10.8-22.2c0.2-6.2,4.1-11.6,9.9-13.7c8.8-3.2,15.5-10.1,18.4-19
			c2.9-8.9,1.5-18.4-3.7-26.1C500.5,279.8,500.5,273.1,504,268L504,268z M437.1,441.5l-27.5-16.9c-5.1-3.1-11.6-3.2-16.7,0
			l-27.5,16.9c-0.6,0.4-1.4-0.1-1.4-0.8V371c5.2-0.6,10.3,1.5,13.5,5.7c5.7,7.4,14.4,11.6,23.7,11.6c9.3,0,18-4.2,23.7-11.6
			c3.3-4.2,8.4-6.3,13.5-5.7v69.7C438.5,441.4,437.7,441.9,437.1,441.5L437.1,441.5z M491.6,293.3c2.6,3.9,3.3,8.6,1.9,13.1
			s-4.8,7.9-9.2,9.5c-11.7,4.2-19.5,14.9-19.8,27.3c-0.1,4.4-2,8.3-5.4,11.1c-3.8,3.1-8.9,4.3-13.8,2.9
			c-11.9-3.5-24.5,0.6-32.1,10.4c-2.9,3.7-7.2,5.8-11.9,5.8c-4.7,0-9-2.1-11.9-5.8c-5.8-7.5-14.5-11.7-23.6-11.7
			c-2.8,0-5.7,0.4-8.5,1.2c-5,1.4-10.1,0.2-13.8-2.9c-3.3-2.8-5.3-6.7-5.4-11.1c-0.4-12.4-8.2-23.1-19.8-27.3
			c-4.4-1.6-7.7-5-9.2-9.5c-1.4-4.4-0.8-9.2,1.9-13.1c7-10.3,7-23.5,0-33.8c-2.6-3.9-3.3-8.6-1.9-13.1c1.4-4.4,4.8-7.9,9.2-9.5
			c11.7-4.2,19.5-14.9,19.8-27.3c0.1-4.7,2.4-8.9,6.2-11.7c3.8-2.7,8.5-3.6,13-2.3c11.9,3.5,24.5-0.6,32.1-10.4
			c2.9-3.7,7.2-5.8,11.9-5.8c4.7,0,9,2.1,11.9,5.8c7.6,9.8,20.2,13.9,32.1,10.4c4.5-1.3,9.2-0.5,13,2.3c3.8,2.7,6,7,6.2,11.7
			c0.4,12.4,8.2,23.1,19.8,27.3c4.4,1.6,7.7,5,9.2,9.5c1.4,4.4,0.8,9.2-1.9,13.1C484.6,269.8,484.6,283.1,491.6,293.3L491.6,293.3z"
			/>
		<path d="M401.3,213.6c-34.7,0-62.9,28.2-62.9,62.9s28.2,62.9,62.9,62.9c34.7,0,62.9-28.2,62.9-62.9S435.9,213.6,401.3,213.6
			L401.3,213.6z M401.3,324.3c-26.4,0-47.9-21.5-47.9-47.9s21.5-47.9,47.9-47.9s47.9,21.5,47.9,47.9S427.7,324.3,401.3,324.3z"/>
	</g>
</g>
</svg>
