<?xml version="1.0" encoding="utf-8"?>
<!-- Generator: Adobe Illustrator 25.2.0, SVG Export Plug-In . SVG Version: 6.00 Build 0)  -->
<svg version="1.1" id="Capa_1" xmlns="http://www.w3.org/2000/svg" xmlns:xlink="http://www.w3.org/1999/xlink" x="0px" y="0px"
	 viewBox="0 0 512 512" style="enable-background:new 0 0 512 512;" xml:space="preserve">
<path d="M70.1,417.8c-4.1,0-7.5,3.4-7.5,7.5s3.4,7.5,7.5,7.5c23.3,0,42.2-21.4,42.2-47.6s-18.9-47.6-42.2-47.6s-42.2,21.4-42.2,47.6
	c0,4.1,3.4,7.5,7.5,7.5s7.5-3.4,7.5-7.5c0-18,12.2-32.6,27.2-32.6s27.2,14.6,27.2,32.6S85.1,417.8,70.1,417.8z"/>
<path d="M149.8,303.8c4.1,0,7.5-3.4,7.5-7.5s-3.4-7.5-7.5-7.5c-15.1,0-27.4-14.7-27.4-32.8s12.3-32.8,27.4-32.8s27.4,14.7,27.4,32.8
	c0,4.1,3.4,7.5,7.5,7.5s7.5-3.4,7.5-7.5c0-26.4-19-47.8-42.4-47.8s-42.4,21.5-42.4,47.8S126.4,303.8,149.8,303.8L149.8,303.8z"/>
<path d="M441.9,305.4h-25.8c9.7-13.9,15-31.2,15-49.4c0-11.9-2.2-23.3-6.6-33.9c-1.6-3.8-6-5.6-9.8-4.1c-3.8,1.6-5.7,6-4.1,9.8
	c3.6,8.8,5.5,18.3,5.5,28.2c0,6.9-0.9,13.7-2.7,20.1H294c-4.1,0-7.5,3.4-7.5,7.5s3.4,7.5,7.5,7.5h113.3c-2.9,5.3-6.5,10.1-10.7,14.3
	H230.7c0,0-0.1,0-0.1,0c-12.5,0-24.2,3.8-34.4,10.4c14.5-14.6,23.7-36,23.7-59.8c0-3.6-0.2-7.1-0.6-10.6H294c4.1,0,7.5-3.4,7.5-7.5
	s-3.4-7.5-7.5-7.5h-77.8c-4.7-15.9-13.8-29.6-25.5-39.2H361c12.1,0,23.7,4.6,33.3,13.2c3.1,2.8,7.8,2.5,10.6-0.6
	c2.8-3.1,2.5-7.8-0.6-10.6c-12.5-11.2-27.4-17.1-43.3-17.1H219.2l-7.7-21.2c16.1-14.3,27-34.1,19.6-54.3
	c-14.4-39.7-53.4-51.4-61-53.3c-3.8-1-7.7,0.5-10,3.6c-4.6,6.4-27,40.4-12.6,80.1c7.3,20.1,28.3,28.4,49.9,29l5.9,16.1h-53.2
	c-0.1,0-0.2,0-0.3,0c-38.7,0-70.1,35.8-70.1,79.8c0,18.6,5.6,35.8,15.1,49.4H70.1c0,0-0.1,0-0.1,0c-10.8,0-21.2,2.8-30.8,8.2
	c-3.6,2-4.9,6.6-2.9,10.2c2,3.6,6.6,4.9,10.2,2.9c7.4-4.1,15.3-6.2,23.6-6.2c30.4,0,55.1,29.1,55.1,64.8S100.5,450,70.1,450
	S15,420.9,15,385.2c0-14.2,3.9-27.8,11.2-39.1c2.2-3.5,1.2-8.1-2.2-10.4c-3.5-2.2-8.1-1.2-10.4,2.2C4.7,351.7,0,368,0,385.2
	c0,43.9,31.3,79.7,69.9,79.8c0.1,0,0.1,0,0.2,0h313.8c4.1,0,7.5-3.4,7.5-7.5s-3.4-7.5-7.5-7.5H271.6c17.7-14.5,29.2-38.2,29.2-64.8
	c0-6.1-0.6-12-1.7-17.7h136.1c4.1,0,7.5-3.4,7.5-7.5s-3.4-7.5-7.5-7.5H294.6c-5.1-12.9-13.1-23.9-23.1-32.1h170.3
	c30.4,0,55.1,29.1,55.1,64.8c0,8.1-1.3,15.8-3.5,22.9h-92.1c-4.1,0-7.5,3.4-7.5,7.5s3.4,7.5,7.5,7.5h85.2
	c-10,16.3-26.3,26.9-44.7,26.9h-25.9c-4.1,0-7.5,3.4-7.5,7.5s3.4,7.5,7.5,7.5h25.9c38.6,0,70.1-35.8,70.1-79.8
	C512,341.2,480.6,305.4,441.9,305.4L441.9,305.4z M161.6,125.9c-10.3-28.4,2.5-53.4,8.5-63c10.7,3.4,36.6,14.4,46.9,42.8
	c4.9,13.5-4,26.3-11.1,33.8l-19.4-53.3c-1.4-3.9-5.7-5.9-9.6-4.5c-3.9,1.4-5.9,5.7-4.5,9.6l19.4,53.3
	C181.5,143.4,166.5,139.4,161.6,125.9L161.6,125.9z M149.7,191.1C149.8,191.1,149.8,191.1,149.7,191.1l0.3,0
	c30.3,0.2,54.8,29.2,54.8,64.8c0,35.7-24.7,64.8-55.1,64.8S94.7,291.7,94.7,256C94.7,220.2,119.4,191.2,149.7,191.1L149.7,191.1z
	 M140.2,385.2c0-22.8-8.4-43.4-22-58c9.4,5.4,20.1,8.5,31.4,8.6c0.1,0,0.1,0,0.2,0h25.9c-9.4,13.6-15.1,30.8-15.1,49.4
	c0,26.7,11.5,50.3,29.2,64.8H111C128.6,435.5,140.2,411.8,140.2,385.2L140.2,385.2z M285.8,385.2c0,35.7-24.7,64.8-55.1,64.8
	s-55.1-29.1-55.1-64.8s24.7-64.8,55.1-64.8S285.8,349.4,285.8,385.2z"/>
<path d="M230.7,335.5c-4.1,0-7.5,3.4-7.5,7.5s3.4,7.5,7.5,7.5c16,0,29,15.5,29,34.6s-13,34.6-29,34.6s-29-15.5-29-34.6
	c0-4.1-3.4-7.5-7.5-7.5s-7.5,3.4-7.5,7.5c0,27.4,19.7,49.6,44,49.6s44-22.3,44-49.6S255,335.5,230.7,335.5z"/>
<path d="M339.2,230.4c-4.1,0-7.5,3.4-7.5,7.5s3.4,7.5,7.5,7.5h28.4c4.1,0,7.5-3.4,7.5-7.5s-3.4-7.5-7.5-7.5H339.2z"/>
<path d="M325.9,408.1c-4.1,0-7.5,3.4-7.5,7.5s3.4,7.5,7.5,7.5h23.4c4.1,0,7.5-3.4,7.5-7.5s-3.4-7.5-7.5-7.5H325.9z"/>
</svg>
