<?xml version="1.0" encoding="utf-8"?>
<!-- Generator: Adobe Illustrator 25.2.0, SVG Export Plug-In . SVG Version: 6.00 Build 0)  -->
<svg version="1.1" id="Layer_1" xmlns="http://www.w3.org/2000/svg" xmlns:xlink="http://www.w3.org/1999/xlink" x="0px" y="0px"
	 viewBox="0 0 512 512" style="enable-background:new 0 0 512 512;" xml:space="preserve">
<path d="M410,335.7l-2.6,2c-2.7,2-3.2,5.7-1.3,8.4c2,2.7,5.7,3.2,8.4,1.3c0,0,0.1,0,0.1-0.1l2.6-2c2.7-2,3.2-5.7,1.3-8.4
	C416.5,334.3,412.7,333.7,410,335.7C410,335.7,410,335.7,410,335.7z"/>
<path d="M370.2,93.2c1.4,0,2.7-0.5,3.8-1.3l24.1-19.6c2.6-2.1,2.9-5.9,0.8-8.4c-2.1-2.6-5.8-2.9-8.4-0.9l-24.1,19.6
	c-2.6,2.1-3,5.9-0.9,8.4C366.7,92.3,368.4,93.2,370.2,93.2z"/>
<path d="M333.1,109.5l-43.9,35.6c-2.6,2.1-3,5.9-0.9,8.4c2.1,2.6,5.9,3,8.4,0.9l0,0l43.9-35.6c2.6-2.1,3-5.9,0.9-8.4
	S335.7,107.4,333.1,109.5C333.1,109.5,333.1,109.5,333.1,109.5L333.1,109.5z"/>
<path d="M223.2,212.5c1.4,0,2.7-0.5,3.8-1.3l31.8-25.8c2.6-2.1,3-5.9,0.9-8.4c-2.1-2.6-5.9-3-8.4-0.9l-31.8,25.8
	c-2.6,2.1-3,5.9-0.9,8.4C219.7,211.7,221.4,212.5,223.2,212.5L223.2,212.5z"/>
<path d="M480.6,171.4l-21.9,18.4c-2.5,2.2-2.8,5.9-0.6,8.5c2.1,2.5,5.9,2.8,8.4,0.7l21.9-18.4c2.5-2.1,2.9-5.9,0.7-8.5
	S483.1,169.3,480.6,171.4L480.6,171.4z"/>
<path d="M420.2,222.2l-74.4,62.6c-2.5,2.1-2.9,5.9-0.8,8.5c2.1,2.5,5.9,2.9,8.5,0.8c0,0,0,0,0,0l74.4-62.6c2.5-2.1,2.9-5.9,0.7-8.5
	S422.7,220.1,420.2,222.2z"/>
<path d="M321,313.6c-2.1-2.5-5.9-2.9-8.5-0.7c0,0,0,0,0,0l-12.3,10.3c-2.5,2.1-2.9,5.9-0.7,8.5s5.9,2.9,8.5,0.7l12.3-10.3
	C322.8,319.9,323.1,316.1,321,313.6z"/>
<path d="M487.3,82.4l-89.7,70.4c-2.6,2-3.1,5.8-1.1,8.4c2,2.6,5.8,3.1,8.4,1.1c0,0,0,0,0,0l89.7-70.4c2.6-2,3.1-5.8,1.1-8.4
	c-2-2.6-5.8-3.1-8.4-1.1C487.4,82.4,487.3,82.4,487.3,82.4L487.3,82.4z"/>
<path d="M349.7,204c1.3,0,2.6-0.4,3.7-1.3l14-11c2.6-2,3.1-5.8,1-8.4c-2-2.6-5.8-3.1-8.4-1l-14,11c-2.6,2-3.1,5.8-1,8.4
	C346.1,203.2,347.9,204,349.7,204L349.7,204z"/>
<path d="M218.5,301.6c2.1,2.6,5.8,3,8.4,1c0,0,0,0,0,0l88.3-69.9c2.6-2.1,3-5.8,1-8.4s-5.8-3-8.4-1l0,0l-88.3,69.9
	C216.9,295.2,216.5,299,218.5,301.6C218.5,301.6,218.5,301.6,218.5,301.6L218.5,301.6z"/>
<path d="M27.1,227.5c-6.7,0-12.1,5.4-12.1,12.1c0,6.7,5.4,12.1,12.1,12.1s12.1-5.4,12.1-12.1C39.3,233,33.8,227.5,27.1,227.5z"/>
<path d="M82.3,201.9c4,0,7.2-3.2,7.2-7.2c0-4-3.2-7.2-7.2-7.2c-4,0-7.2,3.2-7.2,7.2l0,0C75.1,198.7,78.3,201.9,82.3,201.9z"/>
<path d="M327.7,428.6c-6,0-10.9,4.9-10.9,10.9s4.9,10.9,10.9,10.9c6,0,10.9-4.9,10.9-10.9l0,0C338.6,433.5,333.7,428.6,327.7,428.6z
	"/>
<path d="M311.5,80.5c5.2,0,9.4-4.2,9.4-9.4c0-5.2-4.2-9.4-9.4-9.4c-5.2,0-9.4,4.2-9.4,9.4c0,0,0,0,0,0
	C302.1,76.3,306.3,80.5,311.5,80.5z"/>
<path d="M295.2,352.5l-12.3-8.1l-0.4-14.7c-0.1-3.3-2.8-5.9-6.1-5.9c-1.3,0-2.6,0.5-3.6,1.3l-11.5,9.2l-14.1-4.2
	c-3.2-0.9-6.5,0.9-7.5,4c-0.4,1.3-0.3,2.6,0.1,3.9l5.2,13.8l-8.4,12.1c-1.9,2.7-1.2,6.5,1.5,8.3c1.1,0.7,2.4,1.1,3.7,1.1l14.7-0.7
	l8.9,11.7c2,2.6,5.8,3.1,8.4,1.1c1-0.8,1.8-1.9,2.2-3.2L280,368l13.9-4.9c3.1-1.1,4.8-4.5,3.7-7.6
	C297.2,354.2,296.3,353.2,295.2,352.5L295.2,352.5z M273.1,357.7c-1.9,0.7-3.3,2.2-3.8,4.1l-1.5,5.5l-3.5-4.5
	c-1.1-1.5-2.9-2.4-4.8-2.4c-0.1,0-0.2,0-0.3,0l-5.7,0.3l3.2-4.7c1.1-1.6,1.4-3.7,0.7-5.5l-2-5.3l5.5,1.6c1.9,0.6,3.9,0.2,5.5-1.1
	l4.5-3.6l0.1,5.7c0,2,1.1,3.8,2.7,4.9l4.8,3.1L273.1,357.7z"/>
<path d="M162.6,246.3l14.7-0.7l8.9,11.7c2,2.6,5.8,3.1,8.4,1.1c1-0.8,1.8-1.9,2.2-3.2l3.9-14.2l13.9-4.9c3.1-1.1,4.8-4.5,3.7-7.7
	c-0.4-1.2-1.3-2.3-2.4-3l-12.3-8.1l-0.4-14.7c-0.1-3.3-2.8-5.9-6.1-5.9c-1.3,0-2.6,0.5-3.6,1.3l-11.5,9.2l-14.1-4.2
	c-3.2-0.9-6.5,0.9-7.5,4c-0.4,1.3-0.3,2.6,0.1,3.9l5.2,13.8l-8.4,12.1c-1.9,2.7-1.2,6.5,1.5,8.3C160,246,161.3,246.4,162.6,246.3
	L162.6,246.3z M178.1,223.5l-2-5.3l5.5,1.6c1.9,0.6,3.9,0.2,5.5-1.1l4.5-3.6l0.1,5.7c0,2,1.1,3.8,2.7,4.9l4.8,3.1l-5.4,1.9
	c-1.9,0.7-3.3,2.2-3.8,4.1l-1.5,5.5l-3.5-4.5c-1.1-1.5-2.9-2.4-4.8-2.4c-0.1,0-0.2,0-0.3,0l-5.7,0.3l3.2-4.7
	C178.5,227.4,178.8,225.3,178.1,223.5L178.1,223.5z"/>
<path d="M223.9,348.3l-43.3-20.8l-7.4-47.4c-0.5-3.3-3.6-5.5-6.9-5c-1.3,0.2-2.5,0.8-3.4,1.8l-33.2,34.7l-47.4-7.6
	c-3.3-0.5-6.4,1.7-6.9,5c-0.2,1.3,0,2.6,0.6,3.8L98.9,355L77,397.7c-1.5,2.9-0.3,6.6,2.6,8.1c1.2,0.6,2.5,0.8,3.8,0.6l47.2-8.6
	l33.9,34c2.3,2.3,6.1,2.4,8.5,0c0.9-0.9,1.5-2.1,1.7-3.5l6.4-47.6l42.8-21.7c3-1.5,4.1-5.1,2.6-8.1
	C226,349.8,225.1,348.9,223.9,348.3L223.9,348.3z M172.9,371.5c-1.8,0.9-3,2.6-3.2,4.6l-5.2,38.7L137,387c-1.1-1.1-2.7-1.8-4.3-1.8
	c-0.4,0-0.7,0-1.1,0.1l-38.4,7l17.8-34.7c0.9-1.8,0.9-3.8-0.1-5.6l-18.5-34.3l38.5,6.2c1.9,0.3,3.9-0.4,5.3-1.8l26.9-28.2l6,38.5
	c0.3,2,1.5,3.6,3.3,4.5l35.2,16.9L172.9,371.5z"/>
</svg>
