<?xml version="1.0" encoding="utf-8"?>
<!-- Generator: Adobe Illustrator 25.2.0, SVG Export Plug-In . SVG Version: 6.00 Build 0)  -->
<svg version="1.1" id="Layer_1" xmlns="http://www.w3.org/2000/svg" xmlns:xlink="http://www.w3.org/1999/xlink" x="0px" y="0px"
	 viewBox="0 0 512 512" style="enable-background:new 0 0 512 512;" xml:space="preserve">
<g>
	<g>
		<path d="M446,332H336v-50c0-16.5-13.5-30-30-30H206c-16.5,0-30,13.5-30,30v10H66c-16.5,0-30,13.5-30,30v180c0,5.5,4.5,10,10,10
			h420c5.5,0,10-4.5,10-10V362C476,345.5,462.5,332,446,332L446,332z M316,492H196v-25c0-5.5-4.5-10-10-10s-10,4.5-10,10v25H56V322
			c0-5.5,4.5-10,10-10h110v65c0,5.5,4.5,10,10,10s10-4.5,10-10v-95c0-5.5,4.5-10,10-10h100c5.5,0,10,4.5,10,10V492z M456,492H336
			V352h110c5.5,0,10,4.5,10,10V492z"/>
		<path d="M421,402c0-16.5-13.4-30-29.9-30c-8.7,0-17,3.8-22.7,10.5c-3.6,4.2-3.1,10.5,1.1,14.1c4.2,3.6,10.5,3.1,14.1-1.1
			c1.9-2.2,4.6-3.5,7.5-3.5c5.5,0,9.9,4.5,9.9,10c0,2.7-1.1,5.3-3,7.2c-2.1,2.1-3.2,5-2.9,8c0.3,3,1.9,5.7,4.3,7.4
			c4.1,2.8,6.6,7.5,6.6,12.4c0,8.3-6.7,15-14.9,15c-3.3,0-6.4-1.1-9-3.1c-4.4-3.4-10.7-2.5-14,1.8c-3.4,4.4-2.5,10.7,1.8,14
			c6.1,4.7,13.5,7.2,21.2,7.2c19.2,0,34.9-15.7,34.9-35c0-8.2-2.8-16-7.9-22.1C420,410.9,421,406.5,421,402L421,402z"/>
		<path d="M136,412h-24.1c2.2-2,5-4.2,8.2-6.7c11.4-8.8,25.7-19.8,25.9-40.5c0.2-15.2-9.5-28.3-23.6-31.9
			c-13.5-3.4-26.6,2.7-33.5,15.6c-2.6,4.9-0.7,10.9,4.1,13.5c4.9,2.6,10.9,0.7,13.5-4.1c3.4-6.4,8.3-6.3,10.9-5.6
			c4.3,1.1,8.7,5.3,8.6,12.3c-0.1,10.3-6.9,16.2-18.1,24.9C97.6,397.4,86,406.4,86,422c0,5.5,4.5,10,10,10h40c5.5,0,10-4.5,10-10
			C146,416.5,141.5,412,136,412z"/>
		<path d="M267.1,372H266v-70c0-3.6-1.9-6.9-5-8.7c-3.1-1.8-6.9-1.8-10,0l-11.1,6.4c-4.8,2.8-6.4,8.9-3.7,13.7
			c2,3.5,5.9,5.4,9.7,4.9V372h-1.1c-5.5,0-10,4.5-10,10c0,5.5,4.5,10,10,10h22.2c5.5,0,10-4.5,10-10
			C277.1,376.5,272.6,372,267.1,372L267.1,372z"/>
		<path d="M188.7,147.1l-5,38.2c-1,5.5-0.3,11.1,2.2,16.2c4.5,9.2,13.7,14.6,23.3,14.6c3.8,0,7.7-0.8,11.3-2.6l35.2-17.1l36.1,17.2
			c4.5,2.2,9.6,2.9,14.7,2.2c6.8-0.9,12.9-4.5,17.1-10c4.2-5.5,5.9-12.3,5-19.2l-5.4-38.8l26.7-28.1c4-3.8,6.6-8.8,7.6-14.2
			c1.2-6.8-0.3-13.7-4.3-19.4s-9.9-9.4-16.7-10.6l-38.5-6.8l-19.1-35.1c0,0,0,0,0,0c-2.4-4.4-6.1-8.1-10.5-10.5
			c-6.1-3.2-13.1-3.9-19.7-1.9c-6.6,2-12,6.5-15.3,12.6l-18.4,34.5l-38.7,7.2c-5.2,0.8-10,3.2-13.9,6.9c-5,4.8-7.8,11.2-7.9,18.1
			c-0.1,6.9,2.4,13.5,7.2,18.5L188.7,147.1z M176.1,96.7c1.1-1.1,2.4-1.5,3.2-1.6c0.1,0,0.2,0,0.3-0.1l43.6-8.1c3-0.6,5.6-2.4,7-5.1
			l20.7-38.8c0.7-1.4,2-2.4,3.5-2.8c0.6-0.2,1.1-0.3,1.7-0.3c0.9,0,1.9,0.2,2.7,0.7c1,0.5,1.8,1.4,2.4,2.4l21.4,39.4
			c1.5,2.7,4,4.5,7,5.1l43.3,7.7c1.6,0.3,2.9,1.1,3.8,2.4c0.9,1.3,1.3,2.9,1,4.4c-0.3,1.6-1.1,2.7-1.8,3.3c-0.1,0.1-0.3,0.3-0.4,0.4
			l-30.2,31.8c-2.1,2.2-3.1,5.2-2.6,8.3l6.1,43.5c0.2,1.6-0.2,3.1-1.1,4.4c-0.9,1.3-2.3,2.1-3.9,2.3c-1.2,0.2-2.3,0-3.3-0.5
			l-40.5-19.3c-2.7-1.3-5.9-1.3-8.7,0l-39.5,19.2c-2.9,1.4-6.5,0.2-7.9-2.7c-0.7-1.5-0.7-2.9-0.5-3.8c0-0.2,0.1-0.5,0.1-0.7
			l5.7-43.3c0.4-3-0.6-6-2.7-8.2l-30.5-31.6c-1.1-1.1-1.7-2.6-1.6-4.2C174.3,99.3,174.9,97.8,176.1,96.7L176.1,96.7z"/>
		<path d="M99.5,18.7L139,41.5c1.6,0.9,3.3,1.3,5,1.3c3.5,0,6.8-1.8,8.7-5c2.8-4.8,1.1-10.9-3.7-13.7L109.5,1.3
			C104.7-1.4,98.6,0.2,95.8,5C93.1,9.8,94.7,15.9,99.5,18.7z"/>
		<path d="M70.6,138.5c0.5,0,1,0,1.5-0.1l45.1-6.6c5.5-0.8,9.3-5.9,8.5-11.3c-0.8-5.5-5.9-9.2-11.3-8.5l-45.1,6.6
			c-5.5,0.8-9.3,5.9-8.5,11.3C61.5,135,65.8,138.5,70.6,138.5L70.6,138.5z"/>
		<path d="M139.4,199.4l-32.2,32.2c-3.9,3.9-3.9,10.2,0,14.1c2,2,4.5,2.9,7.1,2.9c2.6,0,5.1-1,7.1-2.9l32.2-32.2
			c3.9-3.9,3.9-10.2,0-14.1S143.3,195.5,139.4,199.4z"/>
		<path d="M368,42.8c1.7,0,3.4-0.4,5-1.3l39.5-22.8c4.8-2.8,6.4-8.9,3.7-13.7c-2.8-4.8-8.9-6.4-13.7-3.7L363,24.1
			c-4.8,2.8-6.4,8.9-3.7,13.7C361.2,41,364.6,42.8,368,42.8z"/>
		<path d="M386.3,120.5c-0.8,5.5,3,10.5,8.5,11.3l45.1,6.6c0.5,0.1,1,0.1,1.5,0.1c4.9,0,9.2-3.6,9.9-8.6c0.8-5.5-3-10.5-8.5-11.3
			l-45.1-6.6C392.2,111.3,387.1,115.1,386.3,120.5z"/>
		<path d="M358.5,199.4c-3.9,3.9-3.9,10.2,0,14.1l32.2,32.2c2,2,4.5,2.9,7.1,2.9c2.6,0,5.1-1,7.1-2.9c3.9-3.9,3.9-10.2,0-14.1
			l-32.2-32.2C368.7,195.5,362.4,195.5,358.5,199.4L358.5,199.4z"/>
		<path d="M186,412c-5.5,0-10,4.5-10,10c0,5.5,4.5,10,10,10s10-4.5,10-10v0C196,416.5,191.5,412,186,412z"/>
	</g>
</g>
</svg>
