<svg width="200" height="200" viewBox="0 0 200 200" fill="none" xmlns="http://www.w3.org/2000/svg">
<g clip-path="url(#clip0)">
<path d="M100 200C155.229 200 200 155.229 200 100C200 44.7716 155.229 0 100 0C44.7716 0 0 44.7716 0 100C0 155.229 44.7716 200 100 200Z" fill="white"/>
<path d="M154.375 71.2499L89.3752 142.5C85 147.5 77.5003 147.5 73.1251 142.5L45.625 111.875C41.8752 107.5 41.8752 100.625 46.2499 96.2499C50.6251 92.5001 57.4999 92.5001 61.8751 96.8748L81.2502 118.75L138.125 56.8749C142.5 52.4997 149.375 51.8748 153.75 56.25C158.125 59.9999 158.125 67.5 154.375 71.2499Z" fill="#ECB9BB"/>
</g>
<defs>
<clipPath id="clip0">
<rect width="200" height="200" fill="white"/>
</clipPath>
</defs>
</svg>
