<svg width="0" height="0" class="hidden">
  <symbol fill="currentColor" stroke="none" xmlns="http://www.w3.org/2000/svg" viewBox="0 0 42 42" id="shopping-cart">
    <path d="M13.532 27.153h22.316a1.23 1.23 0 001.183-.893l4.922-17.227a1.231 1.231 0 00-1.184-1.568H10.695l-.88-3.958a1.23 1.23 0 00-1.2-.964H1.23a1.23 1.23 0 100 2.461h6.396l4.443 19.992a3.697 3.697 0 00-2.225 3.387 3.696 3.696 0 003.691 3.691h22.313a1.23 1.23 0 100-2.46H13.535a1.232 1.232 0 01-.003-2.46zM39.138 9.926L34.92 24.692H14.522L11.241 9.926h27.897zm-26.833 25.84a3.696 3.696 0 003.691 3.69 3.696 3.696 0 003.691-3.69 3.696 3.696 0 00-3.69-3.692 3.696 3.696 0 00-3.692 3.692zm3.691-1.23a1.231 1.231 0 010 2.46 1.231 1.231 0 010-2.46zm13.699 1.23a3.696 3.696 0 003.691 3.69 3.696 3.696 0 003.692-3.69 3.696 3.696 0 00-3.692-3.692 3.696 3.696 0 00-3.691 3.692zm3.691-1.23a1.23 1.23 0 110 2.46 1.23 1.23 0 010-2.46z"></path>
  </symbol>
  <symbol stroke="currentColor" fill='none' xmlns="http://www.w3.org/2000/svg" viewBox="0 0 17 17" id="delete">
    <path d="M1 1l15 15M1 16L16 1" stroke-linecap="round" stroke-linejoin="round"></path>
  </symbol>
  <symbol stroke='currentColor' fill='none' xmlns="http://www.w3.org/2000/svg" viewBox="0 0 8 14" id="arrow">
    <path d="M1.29 1l5.24 6-5.24 6"></path>
  </symbol>
  <symbol version="1.0" xmlns="http://www.w3.org/2000/svg" viewBox="0 0 33.7 30" id="heart">
    <path d="M16.9 5.9L16 4.6c-.6-.8-1.2-1.5-1.9-2-1.4-1.1-3-1.6-4.7-1.6-2.3 0-4.4.9-6 2.6C1.9 5.2 1 7.5 1 10.1s.9 5 3.1 7.5c2 2.4 4.9 4.8 8.3 7.8 1.2 1.1 2.6 2.2 3.9 3.4.1.1.4.2.6.2s.4-.1.6-.2c1.4-1.2 2.7-2.3 3.8-3.3 2.8-2.4 6-5 8.3-7.8 1.9-2.2 3.1-4.6 3.1-7.5 0-2.5-.9-4.8-2.4-6.5-1.6-1.7-3.7-2.6-6-2.6-1.7 0-3.3.5-4.7 1.6-.7.6-1.3 1.2-1.9 2l-.8 1.2h0z" stroke-width="2" stroke-miterlimit="10"></path>
  </symbol>
   <symbol fill="currentColor" stroke='none' xmlns="http://www.w3.org/2000/svg" viewBox="0 0 24 24" id="magnifier">
    <path d="M23.707 22.293l-6.825-6.825A9.454 9.454 0 0019 9.5C19 4.262 14.738 0 9.5 0S0 4.262 0 9.5 4.262 19 9.5 19c2.26 0 4.335-.796 5.968-2.118l6.825 6.825a.997.997 0 001.414 0 .999.999 0 000-1.414zM9.5 17C5.364 17 2 13.636 2 9.5S5.364 2 9.5 2 17 5.364 17 9.5 13.636 17 9.5 17z"></path>
  </symbol>
</svg>