<svg width="45" height="45" viewBox="0 0 45 45" fill="none" xmlns="http://www.w3.org/2000/svg">
<circle cx="22.5" cy="22.5" r="22.5" fill="url(#paint0_linear)"/>
<path fill-rule="evenodd" clip-rule="evenodd" d="M43.4387 30.7518C44.4464 28.1968 45 25.4131 45 22.5C45 10.8151 36.0927 1.21054 24.6976 0.105957C24.0186 0.0360956 23.2871 0 22.5 0C23.2415 0 23.9746 0.0358658 24.6976 0.105957C36.1682 1.28603 33 12 27.5 19.5C22 27 16 34 43.5 30.5C43.4818 30.5821 43.4613 30.6661 43.4387 30.7518Z" fill="url(#paint1_linear)"/>
<path d="M-3.24249e-05 22.9282C-3.24249e-05 20.0152 0.553564 17.2314 1.56129 14.6764C1.53867 14.7621 1.51822 14.8461 1.49997 14.9282C29 11.4282 23 18.4282 17.5 25.9282C12 33.4282 9.52932 43.8199 20.9999 45C9.60482 43.8954 -3.24249e-05 34.6132 -3.24249e-05 22.9282Z" fill="#C4C4C4"/>
<path d="M-3.24249e-05 22.9282C-3.24249e-05 20.0152 0.553564 17.2314 1.56129 14.6764C1.53867 14.7621 1.51822 14.8461 1.49997 14.9282C29 11.4282 23 18.4282 17.5 25.9282C12 33.4282 9.52932 43.8199 20.9999 45C9.60482 43.8954 -3.24249e-05 34.6132 -3.24249e-05 22.9282Z" fill="url(#paint2_linear)"/>
<defs>
<linearGradient id="paint0_linear" x1="22" y1="3" x2="22" y2="56" gradientUnits="userSpaceOnUse">
<stop stop-color="#BD881F"/>
<stop offset="1" stop-color="#F9B632"/>
</linearGradient>
<linearGradient id="paint1_linear" x1="22" y1="29.5" x2="43" y2="14" gradientUnits="userSpaceOnUse">
<stop stop-color="#FFC043"/>
<stop offset="1" stop-color="#DEA22B"/>
</linearGradient>
<linearGradient id="paint2_linear" x1="22.6687" y1="15.902" x2="1.95966" y2="31.1752" gradientUnits="userSpaceOnUse">
<stop stop-color="#FFC043"/>
<stop offset="1" stop-color="#DEA22B"/>
</linearGradient>
</defs>
</svg>
