<svg width="0" height="0" class="hidden">
  <symbol xmlns="http://www.w3.org/2000/svg" viewBox="0 0 323.236 320.355" id="ico8">
    <defs>
      <clipPath id="a">
        <path d="M0 240.266h242.427V0H0z"></path>
      </clipPath>
    </defs>
    <g clip-path="url(#a)" transform="matrix(1.33333 0 0 -1.33333 0 320.355)">
      <path d="M35.92 240.266h6.627l3.62-3.821c0-4.166.002-7.981-.002-11.795-.009-6.995.04-13.991-.054-20.986-.062-4.598-3.155-7.86-7.232-7.894-4.055-.033-7.299 3.257-7.34 7.787-.09 9.659.024 19.32-.066 28.98-.032 3.369 1.53 5.67 4.446 7.729m116.536-4.308l3.987 4.21h6.234c3.155-1.811 4.538-4.612 4.465-8.53-.167-8.99-.042-17.985-.06-26.978-.002-1.158.036-2.365-.261-3.464-.928-3.431-4.607-5.842-8.004-5.398-3.418.447-6.21 3.484-6.29 7.262-.132 6.326-.061 12.656-.07 18.984-.006 4.495-.001 8.989-.001 13.914m23.663-207.439a8.002 8.002 0 0 0-5.715 2.4l-22.817 23.29a8 8 0 0 0 .116 11.313 7.999 7.999 0 0 0 11.313-.115l16.969-17.32 25.756 27.539a8 8 0 1 0 11.686-10.928L181.96 31.054a7.993 7.993 0 0 0-5.75-2.534l-.093-.001"></path>
      <path d="M182.076 104.705c-24.456 0-44.353-19.896-44.353-44.352C137.723 35.897 157.62 16 182.076 16c24.455 0 44.352 19.897 44.352 44.353 0 24.456-19.897 44.352-44.352 44.352m0-104.705c-33.278 0-60.353 27.075-60.353 60.353 0 33.278 27.075 60.352 60.353 60.352 33.278 0 60.352-27.074 60.352-60.352C242.428 27.075 215.354 0 182.076 0m-75.318 119.927H75.321v31.437h31.437zm-45.232 0H30.089v31.437h31.437zm90.465 0h-31.437v31.437h31.437zm-45.233-44.619H75.321v31.437h31.437zm-45.232 0H30.089v31.437h31.437z"></path>
      <path d="M111.773 58.398H25.536c-5.258 0-9.535 4.278-9.535 9.536v98.895h166.488v-36.135a70.199 70.199 0 0 0 16-1.942v58.587c0 12.449-8.953 22.838-20.758 25.082v-8.874c0-9.924-8.075-18-18-18-9.926 0-18 8.076-18 18v9.329H56.758v-9.33c0-9.923-8.074-18-18-18-9.924 0-18 8.077-18 18v8.875C8.955 210.177 0 199.787 0 187.339V67.935c0-14.081 11.455-25.536 25.535-25.536h88.517a70.152 70.152 0 0 0-2.28 16"></path>
    </g>
  </symbol>
  <symbol xmlns="http://www.w3.org/2000/svg" viewBox="0 0 308.96 305.043" id="ico7">
    <defs>
      <clipPath id="a">
        <path d="M0 228.782h231.72V0H0z"></path>
      </clipPath>
    </defs>
    <g clip-path="url(#a)" transform="matrix(1.33333 0 0 -1.33333 0 305.043)">
      <path d="M201.589 66.212c-13.192-22.728-34.357-38.9-59.597-45.54-8.362-2.2-17.192-3.36-26.247-3.45-46.584.093-86.268 31.78-96.508 77.064-9.74 43.078 12.812 88.37 53.623 107.695 13.709 6.49 28.21 9.782 43.105 9.782 44.77 0 84.066-29.962 95.56-72.863 6.568-24.52 3.04-50.334-9.936-72.688m25.713 79.31c-7.125 24.649-21.877 45.673-42.661 60.799-19.904 14.485-44.38 22.462-68.92 22.462v-3l-.001 3c-17.017-.002-33.523-3.678-49.066-10.928-48.035-22.406-74.58-73.698-64.55-124.731C7.23 67.037 21.454 43.34 42.159 26.399 62.835 9.48 88.979.106 115.775 0l.143-.001.143.014c1.775.163 3.553.305 5.332.448 4.12.33 8.38.67 12.58 1.277 4.447.64 9.178 1.679 14.468 3.172 29.47 8.32 53.932 27.719 68.879 54.622 14.778 26.597 18.323 57.136 9.982 85.989"></path>
      <path d="M171.836 68.65c-2.313 7.81-6.346 14.278-11.986 19.225-2.423 2.126-5.534 3.219-7.716 3.762a22.875 22.875 0 0 1-5.52.674c-3.784 0-7.636-.892-11.777-2.727-1.45-.642-2.878-1.336-4.26-2.007-1.622-.787-3.154-1.531-4.731-2.207-1.306-.56-2.58-.843-3.787-.843-1.788 0-3.491.632-5.06 1.878-2.754 2.187-5.083 4.418-6.923 6.632-7.55 9.085-13.431 19.388-17.482 30.624-.477 1.32-.422 3.16-.34 4.429.219 3.37 2.319 5.685 5.406 8.124.424.335.85.669 1.278 1.004 2.888 2.262 5.875 4.6 8.388 7.46 7.094 8.07 8.19 16.873 3.17 25.454l-.593 1.018c-1.371 2.36-2.79 4.8-4.536 7.053-4.822 6.22-9.6 9.116-15.038 9.116-3.622 0-7.453-1.26-12.055-3.963-12.666-7.442-19.055-18.9-19.534-35.03l-.008-.274.042-.273c.239-1.536.436-3.134.627-4.68.433-3.498.88-7.116 1.849-10.645 7.857-28.635 23.188-53.938 45.567-75.204 6.843-6.502 14.432-11.1 22.555-13.662 4.226-1.334 8.394-2.01 12.387-2.01 9.246 0 17.84 3.582 25.544 10.647 4.836 4.434 6.403 10.113 4.533 16.425"></path>
    </g>
  </symbol>
  <symbol xmlns="http://www.w3.org/2000/svg" viewBox="0 0 282.569 289.94" id="ico5">
    <defs>
      <clipPath id="a">
        <path d="M0 217.455h211.927V0H0z"></path>
      </clipPath>
    </defs>
    <g clip-path="url(#a)" transform="matrix(1.33333 0 0 -1.33333 0 289.94)">
      <path d="M129.573 0c-18.43 0-35.716 12.852-40.64 31-.104.379-.279 1.129-.596 3.221a9.486 9.486 0 0 0 2.184 7.617 9.49 9.49 0 0 0 7.204 3.309h.458c4.261 0 7.966-3.04 8.812-7.228.272-1.345.53-2.347.835-3.246 3.5-10.311 13.642-16.637 24.687-15.379 10.441 1.188 18.865 9.733 20.03 20.318.185 1.681.24 3.384.298 5.187.054 1.664.11 3.385.276 5.114 1.497 15.547 7.286 29.567 17.207 41.67 1.504 1.834 3.123 3.554 4.69 5.218a143.276 143.276 0 0 1 3.037 3.292c11.272 12.734 16.491 29.745 14.32 46.673-2.17 16.926-11.514 32.068-25.63 41.543-15.226 10.219-33.934 12.797-51.322 7.078-17.406-5.725-30.94-18.923-37.134-36.208a58.383 58.383 0 0 1-2.93-12.107 40.323 40.323 0 0 1-.18-1.822c-.402-4.941-4.598-8.808-9.553-8.808a9.512 9.512 0 0 0-6.92 3 9.496 9.496 0 0 0-2.538 7.088c.057.897.127 1.72.202 2.358 1.707 14.356 7.2 27.445 16.328 38.91 12.194 15.315 27.896 24.812 46.666 28.228 23.931 4.355 45.582-1.259 64.344-16.69 14.735-12.119 23.79-27.605 26.913-46.028 4.48-26.418-2.579-49.526-20.978-68.682-9.919-10.327-15.578-21.604-17.302-34.475-.375-2.795-.485-5.615-.58-8.747-.648-21.507-15.97-38.406-37.26-41.095A39.507 39.507 0 0 0 129.573 0"></path>
      <path d="M119.975 111.552zm-2.516-56.505a10.044 10.044 0 0 0-9.485 6.756 9.97 9.97 0 0 0 .458 7.669 9.97 9.97 0 0 0 5.744 5.1c7.916 2.74 11.072 9.764 11.387 15.425.302 5.473-1.874 12.702-8.893 16.579-1.011.56-3.192 2.909-3.893 6.05-.575 2.574-.03 5.107 1.576 7.325 4.012 5.539 10.754 4.945 12.759 3.778 5.82-3.39 10.597-8.264 13.816-14.095 3.465-6.278 5.082-13.453 4.677-20.75-.86-15.52-10.388-28.272-24.862-33.283a10.04 10.04 0 0 0-3.285-.554"></path>
      <path d="M155.68 109.238c-2.407 0-4.736.868-6.56 2.445-4.185 3.619-4.647 9.97-1.027 14.157a23.1 23.1 0 0 1 5.277 11.186 23.01 23.01 0 0 1-3.9 17.287 23 23 0 0 1-14.98 9.467c-6.086 1.053-12.222-.338-17.281-3.908-5.06-3.571-8.424-8.888-9.475-14.972a23.193 23.193 0 0 1 1.205-12.246c.546-1.425 1.2-4.953-.23-8.116-.958-2.121-2.681-3.696-4.984-4.552-3.732-1.39-6.563-.73-8.28.066-3.688 1.712-5.188 5.215-5.56 6.248a43.363 43.363 0 0 0-1.933 22.014c1.96 11.362 8.242 21.29 17.686 27.954 9.446 6.665 20.909 9.257 32.265 7.295 11.38-1.964 21.312-8.242 27.969-17.676 6.659-9.433 9.244-20.896 7.28-32.275a43.176 43.176 0 0 0-9.873-20.901 10.035 10.035 0 0 0-7.595-3.473zM50.068 52.367v75.781l37.891-37.89z"></path>
      <path d="M53.442 68.763H0v42.99h53.442z"></path>
    </g>
  </symbol>
  <symbol xmlns="http://www.w3.org/2000/svg" viewBox="0 0 298.836 298.861" id="ico6">
    <defs>
      <clipPath id="a">
        <path d="M0 224.146h224.127V0H0z"></path>
      </clipPath>
    </defs>
    <g clip-path="url(#a)" transform="matrix(1.33333 0 0 -1.33333 0 298.861)">
      <path d="M75.4 146.181zm-16.807-57.71h16.665c-.357-9.917-.304-19.895-.254-29.576.036-6.8.072-13.833-.035-20.73-.093-6.06 1.735-11.103 5.435-14.988.982-1.032 1.325-2.052 1.397-3.48H60.489c0 4.92-.005 9.84-.01 14.76-.011 12.602-.022 25.636.04 38.45.027 5.513-.133 10.607-1.926 15.563m-26.958 19.701h-.102c-3.47 0-5.965 1.314-8.091 4.262-5.156 7.151-5.072 19.646.18 26.74 2.072 2.796 4.486 4.043 7.828 4.043h.082c5.672-.036 11.87-.053 19.509-.053 4.06 0 8.122.005 12.183.01 3.112.003 6.223.006 9.333.007-5.86-11.597-5.857-23.322.007-34.967-3.098.002-6.195.007-9.293.01-4.082.006-8.164.012-12.246.012-7.586 0-13.747-.02-19.39-.064m60.479.011c-2.835 0-5.12 1.298-7.192 4.083-5.338 7.178-5.228 20.124.232 27.161 1.976 2.547 4.023 3.734 6.44 3.734h.14c.349-.008.693-.01 1.039-.01 11.212 0 21.653 3.287 31.787 10.028-2.484-18.507-2.477-36.64.024-55.057-10.125 6.766-20.63 10.063-32.011 10.063h-.395zm51.067 34.995h.148c1.494 0 2.989-.005 4.483-.012 1.504-.006 3.007-.013 4.51-.013 2.463 0 4.48.018 6.352.057l.24.001c3.022 0 5.363-1.217 7.366-3.83 5.465-7.128 5.585-19.76.257-27.034-2.084-2.846-4.538-4.172-7.723-4.172a308.336 308.336 0 0 1-7.395.075c-1.773 0-3.556-.008-5.36-.017-.951-.006-1.908-.01-2.872-.015-1.185 11.659-1.187 23.147-.006 34.96m37.957-93.502c-2.406-1.91-4.96-2.877-7.588-2.877-2.617 0-5.29.946-7.94 2.809-3.102 2.18-5.838 5.237-8.366 9.342-4.97 8.07-8.431 17.313-11.102 29.712.528.001 1.054.004 1.578.007 1.633.01 3.254.018 4.869.018 2.289 0 4.176-.018 5.938-.059.246-.005.49-.008.734-.008 8.393 0 15.598 3.384 21.416 10.058 6.033 6.921 9.446 16.88 9.366 27.323-.081 10.446-3.65 20.351-9.79 27.178-5.723 6.362-12.754 9.587-20.9 9.587-.18 0-.36 0-.541-.004-1.817-.032-3.77-.046-6.145-.046-1.65 0-3.315.007-5.012.014l-1.56.006.267 1.058c.864 3.437 1.68 6.684 2.653 9.896 2.958 9.763 6.303 16.67 10.843 22.399 1.65 2.083 3.388 3.839 5.163 5.219 2.76 2.145 5.59 3.232 8.414 3.232 2.928 0 5.87-1.165 8.745-3.461 3.934-3.144 7.125-7.418 10.348-13.86 4.037-8.073 6.947-17.185 8.894-27.857 4.75-26.03 4.093-51.604-1.954-76.013-2.704-10.913-5.93-18.672-10.463-25.156-2.333-3.34-5.053-6.285-7.867-8.518m42.976 85.684c-.14 1.431-.27 2.863-.401 4.295-.283 3.102-.576 6.31-.947 9.475-2.19 18.624-6.178 33.4-12.553 46.502-4.108 8.444-8.641 14.667-14.267 19.586-6.681 5.842-14.472 8.93-22.531 8.93-8.686 0-16.961-3.533-23.934-10.217-5.558-5.329-9.373-11.6-12.668-17.584-6.293-11.429-12.933-19.514-20.9-25.447-7.407-5.517-15.382-8.198-24.384-8.198l-.335.001c-7.087.053-14.746.078-24.104.078-5.668 0-11.338-.009-17.008-.018-5.68-.009-11.357-.018-17.035-.018-14.523 0-24.542-6.818-29.777-20.266-1.055-2.71-1.7-5.51-2.321-8.22-.282-1.226-.548-2.384-.851-3.54L0 130.343v-9.235l.07-.32c.183-.822.348-1.649.513-2.477.377-1.896.768-3.856 1.362-5.798 2.946-9.636 8.136-16.405 15.864-20.693a24.981 24.981 0 0 1 11.763-3.164c6.989-.133 11.334-4.584 11.34-11.616.012-13.609.01-27.217.008-40.826l-.001-17.925c0-9.33 3.534-14.48 12.165-17.629 0 0 2.559-.66 4.08-.66H85.43c1.31 0 4.656.896 5.079 1.054 6.407 2.378 10.669 8.3 10.859 15.085.014.512.003.996-.01 1.463-.014.618-.027 1.201.027 1.69.685 6.058-1.187 11.372-5.564 15.793-.926.934-1.3 2.056-1.29 3.87.048 9.057.048 18.262.047 27.163 0 5.646 0 11.293.01 16.94.003 1.191.116 2.16.344 2.961.37 1.296 1.28 2.01 2.559 2.01.185 0 .377-.015.57-.046 10.403-1.656 19.268-6.996 27.1-16.325 3.842-4.575 7.183-9.834 10.414-14.92l1.304-2.049c.624-.976 1.237-1.96 1.849-2.943 3.027-4.857 6.158-9.88 10.568-14.088 7.086-6.76 14.682-10.145 23.22-10.348.288-.007.574-.01.858-.01 10.463 0 19.399 4.483 27.318 13.704 6.813 7.934 11.714 17.485 15.89 30.97 3.935 12.706 6.263 26.14 7.118 41.064.032.558.13 1.17.236 1.82.057.35.113.701.162 1.052l.029.206v19.098z"
        ></path>
    </g>
  </symbol>
  <symbol xmlns="http://www.w3.org/2000/svg" viewBox="0 0 282.569 289.94" id="ico4">
    <defs>
      <clipPath id="a">
        <path d="M0 217.455h211.927V0H0z"></path>
      </clipPath>
    </defs>
    <g clip-path="url(#a)" transform="matrix(1.33333 0 0 -1.33333 0 289.94)">
      <path d="M129.573 0c-18.43 0-35.716 12.852-40.64 31-.104.379-.279 1.129-.596 3.221a9.486 9.486 0 0 0 2.184 7.617 9.49 9.49 0 0 0 7.204 3.309h.458c4.261 0 7.966-3.04 8.812-7.228.272-1.345.53-2.347.835-3.246 3.5-10.311 13.642-16.637 24.687-15.379 10.441 1.188 18.865 9.733 20.03 20.318.185 1.681.24 3.384.298 5.187.054 1.664.11 3.385.276 5.114 1.497 15.547 7.286 29.567 17.207 41.67 1.504 1.834 3.123 3.554 4.69 5.218a143.276 143.276 0 0 1 3.037 3.292c11.272 12.734 16.491 29.745 14.32 46.673-2.17 16.926-11.514 32.068-25.63 41.543-15.226 10.219-33.934 12.797-51.322 7.078-17.406-5.725-30.94-18.923-37.134-36.208a58.383 58.383 0 0 1-2.93-12.107 40.323 40.323 0 0 1-.18-1.822c-.402-4.941-4.598-8.808-9.553-8.808a9.512 9.512 0 0 0-6.92 3 9.496 9.496 0 0 0-2.538 7.088c.057.897.127 1.72.202 2.358 1.707 14.356 7.2 27.445 16.328 38.91 12.194 15.315 27.896 24.812 46.666 28.228 23.931 4.355 45.582-1.259 64.344-16.69 14.735-12.119 23.79-27.605 26.913-46.028 4.48-26.418-2.579-49.526-20.978-68.682-9.919-10.327-15.578-21.604-17.302-34.475-.375-2.795-.485-5.615-.58-8.747-.648-21.507-15.97-38.406-37.26-41.095A39.507 39.507 0 0 0 129.573 0"></path>
      <path d="M119.975 111.552zm-2.516-56.505a10.044 10.044 0 0 0-9.485 6.756 9.97 9.97 0 0 0 .458 7.669 9.97 9.97 0 0 0 5.744 5.1c7.916 2.74 11.072 9.764 11.387 15.425.302 5.473-1.874 12.702-8.893 16.579-1.011.56-3.192 2.909-3.893 6.05-.575 2.574-.03 5.107 1.576 7.325 4.012 5.539 10.754 4.945 12.759 3.778 5.82-3.39 10.597-8.264 13.816-14.095 3.465-6.278 5.082-13.453 4.677-20.75-.86-15.52-10.388-28.272-24.862-33.283a10.04 10.04 0 0 0-3.285-.554"></path>
      <path d="M155.68 109.238c-2.407 0-4.736.868-6.56 2.445-4.185 3.619-4.647 9.97-1.027 14.157a23.1 23.1 0 0 1 5.277 11.186 23.01 23.01 0 0 1-3.9 17.287 23 23 0 0 1-14.98 9.467c-6.086 1.053-12.222-.338-17.281-3.908-5.06-3.571-8.424-8.888-9.475-14.972a23.193 23.193 0 0 1 1.205-12.246c.546-1.425 1.2-4.953-.23-8.116-.958-2.121-2.681-3.696-4.984-4.552-3.732-1.39-6.563-.73-8.28.066-3.688 1.712-5.188 5.215-5.56 6.248a43.363 43.363 0 0 0-1.933 22.014c1.96 11.362 8.242 21.29 17.686 27.954 9.446 6.665 20.909 9.257 32.265 7.295 11.38-1.964 21.312-8.242 27.969-17.676 6.659-9.433 9.244-20.896 7.28-32.275a43.176 43.176 0 0 0-9.873-20.901 10.035 10.035 0 0 0-7.595-3.473z"></path>
    </g>
  </symbol>
  <symbol xmlns="http://www.w3.org/2000/svg" viewBox="0 0 275.112 176.739" id="ico3">
    <defs>
      <clipPath id="a">
        <path d="M0 132.554h206.334V0H0z"></path>
      </clipPath>
    </defs>
    <g clip-path="url(#a)" transform="matrix(1.33333 0 0 -1.33333 0 176.739)" >
      <path d="M118.533 45.165c-13.724 14.813-15.507 30.714-5.614 48.01H93.44c9.894-17.411 8.083-33.364-5.614-48.01zm54.772 48.053c9.973-17.466 8.098-33.364-5.53-48.028h22.342v48.028zM38.572 45.223c-13.676 14.746-15.473 30.653-5.575 47.93h-16.77v-47.93zm125.476 26.99c.032 11.566-9.39 21.087-20.88 21.102-11.351.014-20.904-9.442-21.034-20.822-.13-11.34 9.556-21.092 20.958-21.103 11.413-.011 20.924 9.44 20.956 20.824m-121.751.222C42.283 60.9 51.749 51.389 63.24 51.39c11.33.002 20.908 9.534 20.979 20.88.07 11.37-9.6 21.055-21.015 21.044-11.4-.01-20.894-9.492-20.907-20.878m-21.281 32.28h164.238v10.912H21.016zM206.334 17.95c-1.087-3.805-2.434-7.478-5.152-10.49-3.895-4.313-8.627-6.984-14.513-7.25-2.874-.128-5.76-.021-8.775-.021-1.931 8.257-3.861 16.512-5.793 24.767-.396 1.694-.792 3.388-1.197 5.08-.705 2.94-2.07 4.045-5.103 4.047-12.425.01-24.85.005-37.274.005l-85.831-.001c-3.751 0-4.86-.81-5.89-4.41C34.012 19.902 31.239 10.12 28.44.282 19.07-.646 10.337.373 4.153 8.717 1.618 12.136.039 15.964.033 20.259c-.03 30.691-.057 61.385.009 92.077.022 10.227 9.182 19.562 19.41 20.078 1.006.05 2.014.103 3.02.103 53.796.005 107.59-.025 161.387.037 7.665.009 14.002-2.586 18.379-8.873 1.854-2.665 2.76-5.99 4.097-9.015z"></path>
      <path d="M147.174 18.165c-2.77-.051-5.013-2.416-4.958-5.222.05-2.658 2.396-4.981 5.033-4.987 2.68-.004 5.117 2.462 5.099 5.16-.018 2.72-2.455 5.099-5.174 5.049M66.122 13.05c.017 2.764-2.34 5.14-5.082 5.125-2.668-.014-4.998-2.307-5.047-4.964-.05-2.747 2.27-5.191 4.985-5.252 2.668-.06 5.128 2.374 5.144 5.09M169.199.214H37.11c2.344 8.254 4.629 16.36 6.992 24.443.132.448.883.782 1.412 1.022.335.152.793.03 1.196.03 38.07 0 76.142-.016 114.213.048 1.892.004 2.652-.5 3.057-2.362 1.605-7.387 3.378-14.738 5.082-22.104.072-.311.082-.636.136-1.077M73.34 75.9c-1.548-.847-2.526-1.413-3.532-1.923-1.206-.611-2.24-.33-2.94.81-.763 1.237-.178 2.19.86 2.906.907.626 1.88 1.16 3.116 1.913l-3.57 2.436c0-1.251.015-1.98-.005-2.707-.04-1.476-.698-2.532-2.268-2.482-1.455.046-2.057 1.095-2.088 2.469-.026 1.113-.006 2.226-.006 3.409-2.894-.304-5.274-1.057-7.094-3.312 1.04-.61 1.917-1.094 2.763-1.63 1.16-.735 1.75-1.751.967-3.043-.758-1.25-1.919-1.33-3.145-.671-.97.522-1.92 1.082-3.303 1.865v-6.63c1.354.764 2.326 1.335 3.32 1.866 1.225.656 2.407.594 3.147-.669.751-1.283.164-2.313-1.009-3.042-.994-.618-2.005-1.208-3.522-2.118 2.13-1.263 3.841-2.28 5.875-3.487.084 1.878.08 3.211.221 4.53.14 1.312.901 2.08 2.3 1.964 1.303-.107 1.866-.932 1.888-2.168.022-1.257.005-2.514.005-4.5l6.023 3.72c-1.546.92-2.535 1.482-3.496 2.088-1.162.734-1.757 1.728-.946 3.032.784 1.263 1.933 1.286 3.152.632 1.018-.546 2.024-1.114 3.287-1.811zm4.533-2.628c.727-7.435-5.279-14.547-12.69-15.48-8.265-1.04-16.204 4.857-16.664 13.965-.359 7.1 4.663 14.735 14.26 15.33 6.89.426 14.656-5.146 15.094-13.815m75.366 2.588c-1.511-.804-2.55-1.388-3.616-1.914-1.241-.611-2.456-.264-2.805.956-.224.781.237 2.032.818 2.701.7.807 1.855 1.218 3.279 2.083l-5.63 3.256c0-1.747.089-2.876-.024-3.985-.128-1.263-.816-2.2-2.212-2.113-1.338.085-2.006.944-2.012 2.29-.004 1.059 0 2.116 0 3.782l-5.69-3.241c1.4-.837 2.337-1.344 3.216-1.938 1.035-.7 1.685-1.63.956-2.89-.726-1.253-1.834-1.474-3.1-.821-.983.507-1.944 1.058-3.366 1.835v-6.48c1.084.59 1.894 1.023 2.697 1.47 1.882 1.042 3.139.92 3.786-.477.819-1.767-.432-2.553-1.697-3.294-.79-.464-1.576-.933-2.89-1.71l6.08-3.646c0 1.785.017 2.903-.003 4.02-.027 1.447.392 2.568 2.065 2.613 1.686.045 2.14-1.141 2.223-2.523.069-1.156.014-2.318.014-4.145l5.952 3.73c-1.4.809-2.262 1.303-3.121 1.805-1.275.743-2.232 1.744-1.38 3.258.845 1.5 2.182 1.274 3.488.523.862-.497 1.729-.985 2.972-1.692zm-24.817-3.448c.116 7.993 6.173 14.584 14.767 14.69 8.03.1 14.796-6.872 14.729-14.799-.067-8.005-6.925-14.809-14.84-14.723-8.092.09-14.717 6.793-14.656 14.832"></path>
    </g>
  </symbol>
  <symbol xmlns="http://www.w3.org/2000/svg" viewBox="0 0 312.099 311.245" id="ico1">
    <defs>
      <clipPath id="a">
        <path d="M0 233.434h234.074V0H0z"></path>
      </clipPath>
    </defs>
    <g clip-path="url(#a)" transform="matrix(1.33333 0 0 -1.33333 0 311.245)">
      <path d="M117.267 19.847l.022.58c4.6 0 9.21-.183 13.8.036 12.742.608 25.48 1.33 38.213 2.116 6.394.394 10.575 3.895 12.837 9.804 3.753 9.807 7.742 19.53 11.21 29.438 7.934 22.669 14.96 45.613 20.42 69.028 1.716 7.357.209 13.339-5.78 18.063-.368.29-.695.632-1.05.938-24.491 21.137-50.573 40.107-77.672 57.765-8.532 5.559-15.978 5.873-24.277-.115-16.132-11.638-32.768-22.588-48.746-34.427-10.841-8.033-20.961-17.044-31.315-25.724-4.71-3.946-6.053-9.142-4.54-15.016 2.99-11.615 5.83-23.277 9.174-34.791 6.278-21.63 13.507-42.94 22.012-63.82C54.74 25.95 60.118 22.36 68.34 22.055c16.314-.607 32.617-1.457 48.926-2.207M116.965 0C99.55.897 82.135 1.74 64.727 2.738c-3.347.192-6.66.984-9.985 1.514-7.61 1.21-13.248 5.287-16.47 12.209-3.755 8.07-7.418 16.213-10.541 24.542-10.706 28.56-19.97 57.58-26.3 87.456C.41 133.27-.03 138.297 0 143.219c.044 6.654 4.118 11.535 8.689 15.833 18.44 17.337 38.512 32.668 59.264 47.068 12.006 8.33 24.527 15.934 36.977 23.602 8.028 4.944 16.482 4.98 24.465-.073 14.259-9.025 28.575-17.996 42.404-27.655 18.55-12.957 36.407-26.865 52.91-42.411 4.35-4.098 8.593-8.621 9.166-14.757.47-5.038.09-10.358-1.013-15.308-8.216-36.876-19.475-72.802-34.376-107.552-.332-.775-.756-1.513-1.073-2.294-4.42-10.893-12.837-15.891-24.256-16.493-15.07-.794-30.134-1.64-45.205-2.377-3.646-.18-7.308-.027-10.963-.027L116.965 0"></path>
      <path d="M128.726 108.57l42.813-53.393h-5.644c-6.103 0-12.207-.08-18.307.07-1.124.028-2.587.686-3.283 1.546-13.471 16.63-26.835 33.346-40.277 49.998-1.114 1.379-1.032 2.265.04 3.608 13.352 16.724 26.638 33.502 39.987 50.23.588.736 1.597 1.6 2.42 1.613 8.053.12 16.107.073 24.944.073l-42.693-53.744M96.568 55.389H74.405v106.669h22.163z"></path>
    </g>
  </symbol>
  <symbol xmlns="http://www.w3.org/2000/svg" viewBox="0 0 306.572 257.839" id="ico2">
    <defs>
      <clipPath id="a">
        <path d="M0 193.379h229.929V0H0z"></path>
      </clipPath>
    </defs>
    <g clip-path="url(#a)" transform="matrix(1.33333 0 0 -1.33333 0 257.839)">
      <path d="M0 76.931c1.002 2.707 1.736 5.554 3.064 8.088 2.692 5.136 6.82 8.851 12.332 10.851 1.281.465 1.635 1.217 1.674 2.496.69 22.553 8.423 42.537 22.841 59.733 15.266 18.206 34.633 29.909 58.247 33.783 31.125 5.105 58.666-2.84 82.194-23.9 17.331-15.511 27.662-34.985 31.419-57.911.639-3.893.789-7.874 1.02-11.823.071-1.227.441-1.83 1.582-2.309 10.37-4.361 15.426-12.35 15.495-23.46.101-16.161.054-32.325.014-48.487-.028-11.35-7.95-21.162-18.967-23.58a17.235 17.235 0 0 0-3.559-.39c-6.491-.036-12.981-.016-19.691-.016v2.779c0 29.108.069 58.216-.045 87.323-.032 8.288-.668 16.547-2.996 24.606-4.346 15.045-12.57 27.493-24.731 37.306-9.17 7.4-19.558 12.487-31.179 14.426-29.004 4.84-52.911-4.294-71.206-27.316-9.57-12.042-14.661-26.033-14.827-41.439-.342-31.569-.312-63.14-.434-94.712-.004-.95-.001-1.9-.001-2.636-7.86 0-15.559-.746-23.049.188C9.769 1.707 2.29 9.973.458 19.338c-.098.5-.303.977-.458 1.466z"></path>
      <path d="M50.176 48.008c0 12.796-.029 25.591.014 38.387.02 5.652 3.358 9.331 8.337 9.386 4.201.046 7.638-2.717 8.454-6.87.201-1.019.28-2.077.28-3.117.015-25.218.021-50.435-.013-75.652-.002-1.477-.14-3.022-.584-4.417-1.238-3.894-5.146-6.113-9.409-5.55-3.713.492-6.89 3.734-6.949 7.654-.153 10.174-.103 20.35-.13 30.526-.008 3.217 0 6.435 0 9.653m129.569-.108c0-12.497.014-24.993-.019-37.49-.003-1.48-.04-3.024-.444-4.427-1.12-3.878-4.522-6.057-8.752-5.84-3.71.19-6.847 2.957-7.59 6.77a16.453 16.453 0 0 0-.29 3.117 71072.4 71072.4 0 0 0-.009 75.874c.003 6.184 3.612 10.078 9.075 9.87 4.074-.154 7.62-3.381 7.87-7.475.218-3.58.148-7.178.154-10.768.016-9.877.005-19.754.005-29.631"></path>
    </g>
  </symbol>
  <symbol xmlns="http://www.w3.org/2000/svg" viewBox="0 0 31.242 43.603" id="ico9">
    <path d="M0 0h21.14c.09.105.174.215.271.313 3.184 3.186 6.368 6.373 9.558 9.553.184.183.273.362.273.63-.007 9.43-.006 23.278-.006 32.709v.398H.013V.535C.013.357.005.178 0 0zm3.132 40.549h24.98V12.318h-.476c-2.336 0-4.672.004-7.008-.002-1.089-.003-1.709-.631-1.71-1.711V3.088H3.133v37.46zM22.013 5.304V9.18h3.872l-3.872-3.877z"
      stroke-width=".265"></path>
    <path d="M16.239 10.596v2H5.837v-2h10.402zm-2.524 10.957l-6.07 6.065-1.426-1.425 7.48-7.481 3.33 3.334 4.3-4.3h-.948v-2.044h4.547v4.546h-2.015v-.985l-5.742 5.753-3.456-3.463zm10.55 12H6.74v-2.005h17.525v2.005zm-.024 4.607H6.717v-2.005H24.24v2.004zM16.192 6.25v2H5.789v-2h10.403z"
      stroke-width=".265"></path>
  </symbol>
</svg>