<svg width="0" height="0" class="hidden">
  <symbol fill="currentColor" xmlns="http://www.w3.org/2000/svg" viewBox="0 0 14 20" id="lock">
    <path d="M12.263 8.947H3.58V5A3.425 3.425 0 017 1.579 3.425 3.425 0 0110.421 5v.5a.79.79 0 001.58 0V5c0-2.757-2.244-5-5-5-2.758 0-5 2.243-5 5v3.947h-.264c-.727 0-1.316.59-1.316 1.316v8.421c0 .727.59 1.316 1.316 1.316h10.526c.727 0 1.316-.59 1.316-1.316v-8.42c0-.728-.59-1.317-1.316-1.317zM12 18.421H2v-7.895h10v7.895z"></path>
  </symbol>
  <symbol fill="none" stroke="currentColor" xmlns="http://www.w3.org/2000/svg" viewBox="0 0 16 16" id="arrow">
    <path d="M2.667 6L8 11.333 13.333 6" stroke-width="2" stroke-linecap="round" stroke-linejoin="round"></path>
  </symbol>
</svg>