<?xml version="1.0" encoding="utf-8"?>
<!-- Generator: Adobe Illustrator 24.0.3, SVG Export Plug-In . SVG Version: 6.00 Build 0)  -->
<svg version="1.1" id="Слой_1" xmlns="http://www.w3.org/2000/svg" xmlns:xlink="http://www.w3.org/1999/xlink" x="0px" y="0px"
	 viewBox="0 0 20.2 20.2" style="enable-background:new 0 0 20.2 20.2;" xml:space="preserve">
<style type="text/css">
	.st0{fill:#FFFFFF;}
</style>
<g>
	<g>
		<path class="st0" d="M20.2,18.8l-5.9-5.9C15.4,11.5,16,9.8,16,8c0-1.6-0.5-3.1-1.3-4.4c-0.9-1.3-2.1-2.3-3.6-2.9
			C9.6,0,8-0.2,6.4,0.2s-3,1.1-4.1,2.2S0.5,4.9,0.2,6.4C-0.2,8,0,9.6,0.6,11.1c0.6,1.5,1.6,2.7,2.9,3.6C4.9,15.5,6.4,16,8,16
			c1.8,0,3.5-0.6,4.9-1.7l5.9,5.9L20.2,18.8z M8,14c-1.2,0-2.3-0.4-3.3-1c-1-0.7-1.8-1.6-2.2-2.7C2,9.2,1.9,8,2.1,6.8
			c0.2-1.2,0.8-2.2,1.6-3.1c0.8-0.8,1.9-1.4,3.1-1.6C8,1.9,9.2,2,10.3,2.5c1.1,0.5,2,1.2,2.7,2.2c0.7,1,1,2.1,1,3.3
			c0,1.6-0.6,3.1-1.8,4.2C11.1,13.4,9.6,14,8,14z"/>
	</g>
</g>
</svg>
