<?xml version="1.0" encoding="utf-8"?>
<!-- Generator: Adobe Illustrator 25.2.0, SVG Export Plug-In . SVG Version: 6.00 Build 0)  -->
<svg version="1.1" id="Слой_1" xmlns="http://www.w3.org/2000/svg" xmlns:xlink="http://www.w3.org/1999/xlink" x="0px" y="0px"
	 viewBox="0 0 20 20" style="enable-background:new 0 0 20 20;" xml:space="preserve">
<style type="text/css">
	.st0{fill:#1CA1C1;}
</style>
<g id="Calendar">
	<path class="st0" d="M18.3,2h-1.7V1.3c0-0.7-0.6-1.3-1.3-1.3C14.6,0,14,0.6,14,1.3V2h-2.7V1.3C11.3,0.6,10.7,0,10,0
		C9.3,0,8.7,0.6,8.7,1.3V2H6V1.3C6,0.6,5.4,0,4.7,0S3.3,0.6,3.3,1.3V2H1.7C0.7,2,0,2.7,0,3.7V17c0,0.9,0.7,1.7,1.7,1.7H11
		c0.2,0,0.3-0.1,0.3-0.3c0-0.2-0.1-0.3-0.3-0.3H1.7c-0.6,0-1-0.4-1-1V6.7h18.7v5.7c0,0.2,0.1,0.3,0.3,0.3c0.2,0,0.3-0.1,0.3-0.3V3.7
		C20,2.7,19.3,2,18.3,2z M14.7,1.3c0-0.4,0.3-0.7,0.7-0.7C15.7,0.7,16,1,16,1.3v2C16,3.7,15.7,4,15.3,4c-0.4,0-0.7-0.3-0.7-0.7V1.3z
		 M9.3,1.3C9.3,1,9.6,0.7,10,0.7s0.7,0.3,0.7,0.7v2C10.7,3.7,10.4,4,10,4S9.3,3.7,9.3,3.3V1.3z M4,1.3C4,1,4.3,0.7,4.7,0.7
		C5,0.7,5.3,1,5.3,1.3v2C5.3,3.7,5,4,4.7,4C4.3,4,4,3.7,4,3.3V1.3z M19.3,6H0.7V3.7c0-0.6,0.4-1,1-1h1.7v0.7c0,0.7,0.6,1.3,1.3,1.3
		S6,4.1,6,3.3V2.7h2.7v0.7c0,0.7,0.6,1.3,1.3,1.3c0.7,0,1.3-0.6,1.3-1.3V2.7H14v0.7c0,0.7,0.6,1.3,1.3,1.3c0.7,0,1.3-0.6,1.3-1.3
		V2.7h1.7c0.6,0,1,0.4,1,1V6z"/>
	<path class="st0" d="M9.3,9c0-0.4-0.3-0.7-0.7-0.7H7.3C7,8.3,6.7,8.6,6.7,9v1c0,0.4,0.3,0.7,0.7,0.7h1.3c0.4,0,0.7-0.3,0.7-0.7V9z
		 M7.3,10V9h1.3v1H7.3z"/>
	<path class="st0" d="M5.3,9c0-0.4-0.3-0.7-0.7-0.7H3.3C3,8.3,2.7,8.6,2.7,9v1c0,0.4,0.3,0.7,0.7,0.7h1.3c0.4,0,0.7-0.3,0.7-0.7V9z
		 M3.3,10V9h1.3v1H3.3z"/>
	<path class="st0" d="M16.7,10.7c0.4,0,0.7-0.3,0.7-0.7V9c0-0.4-0.3-0.7-0.7-0.7h-1.3c-0.4,0-0.7,0.3-0.7,0.7v1
		c0,0.4,0.3,0.7,0.7,0.7H16.7z M15.3,9h1.3v1h-1.3V9z"/>
	<path class="st0" d="M9.3,12c0-0.4-0.3-0.7-0.7-0.7H7.3c-0.4,0-0.7,0.3-0.7,0.7v1c0,0.4,0.3,0.7,0.7,0.7h1.3c0.4,0,0.7-0.3,0.7-0.7
		V12z M7.3,13v-1h1.3v1H7.3z"/>
	<path class="st0" d="M5.3,12c0-0.4-0.3-0.7-0.7-0.7H3.3c-0.4,0-0.7,0.3-0.7,0.7v1c0,0.4,0.3,0.7,0.7,0.7h1.3c0.4,0,0.7-0.3,0.7-0.7
		V12z M3.3,13v-1h1.3v1H3.3z"/>
	<path class="st0" d="M8.7,14.3H7.3c-0.4,0-0.7,0.3-0.7,0.7v1c0,0.4,0.3,0.7,0.7,0.7h1.3c0.4,0,0.7-0.3,0.7-0.7v-1
		C9.3,14.6,9,14.3,8.7,14.3z M7.3,16v-1h1.3v1H7.3z"/>
	<path class="st0" d="M11.3,10.7h1.3c0.4,0,0.7-0.3,0.7-0.7V9c0-0.4-0.3-0.7-0.7-0.7h-1.3c-0.4,0-0.7,0.3-0.7,0.7v1
		C10.7,10.4,11,10.7,11.3,10.7z M11.3,9h1.3v1h-1.3V9z"/>
	<path class="st0" d="M10.7,13c0,0.4,0.3,0.7,0.7,0.7c0.2,0,0.3-0.1,0.3-0.3c0-0.2-0.1-0.3-0.3-0.3v-1h1.3c0.2,0,0.3-0.1,0.3-0.3
		c0-0.2-0.1-0.3-0.3-0.3h-1.3c-0.4,0-0.7,0.3-0.7,0.7V13z"/>
	<path class="st0" d="M4.7,14.3H3.3c-0.4,0-0.7,0.3-0.7,0.7v1c0,0.4,0.3,0.7,0.7,0.7h1.3c0.4,0,0.7-0.3,0.7-0.7v-1
		C5.3,14.6,5,14.3,4.7,14.3z M3.3,16v-1h1.3v1H3.3z"/>
	<path class="st0" d="M15.7,11.3c-2.4,0-4.3,1.9-4.3,4.3s1.9,4.3,4.3,4.3s4.3-1.9,4.3-4.3C20,13.3,18.1,11.3,15.7,11.3z M15.7,19.3
		c-2,0-3.7-1.6-3.7-3.7s1.6-3.7,3.7-3.7s3.7,1.6,3.7,3.7C19.3,17.7,17.7,19.3,15.7,19.3z"/>
	<path class="st0" d="M17.6,14.3L15,16.9l-1.2-1.2c-0.1-0.1-0.3-0.1-0.5,0c-0.1,0.1-0.1,0.3,0,0.5l1.4,1.4c0.1,0.1,0.3,0.1,0.5,0
		l2.8-2.8c0.1-0.1,0.1-0.3,0-0.5C17.9,14.1,17.7,14.1,17.6,14.3z"/>
</g>
</svg>
