<?xml version="1.0" encoding="utf-8"?>
<!-- Generator: Adobe Illustrator 25.2.0, SVG Export Plug-In . SVG Version: 6.00 Build 0)  -->
<svg version="1.1" id="Слой_1" xmlns="http://www.w3.org/2000/svg" xmlns:xlink="http://www.w3.org/1999/xlink" x="0px" y="0px"
	 viewBox="0 0 20.8 20.8" style="enable-background:new 0 0 20.8 20.8;" xml:space="preserve">
<style type="text/css">
	.st0{fill:none;stroke:#1CA1C1;stroke-width:0.75;stroke-miterlimit:10;}
</style>
<path class="st0" d="M9.9,14.4h7.5c0.3,0,0.6,0.3,0.6,0.6v4.8c0,0.3-0.3,0.6-0.6,0.6H9.2v-5.9"/>
<path class="st0" d="M9.2,14.5v5.9H1c-0.3,0-0.6-0.3-0.6-0.6V15c0-0.3,0.3-0.6,0.6-0.6h7"/>
<path class="st0" d="M8,14.4H3.5V8.9c0-0.3,0.3-0.6,0.6-0.6h4.5"/>
<g>
	<path class="st0" d="M13.6,6.9C7.5,1.7,8,14.6,8,14.6s12.7-1.3,6.8-6.8"/>
	<path class="st0" d="M14.4,5.4l4.2-4.9c0.1-0.2,0.4-0.2,0.5,0l1.1,1c0.2,0.1,0.2,0.4,0,0.5l-4.2,4.9c-0.1,0.2-0.4,0.2-0.5,0l-1.1-1
		C14.3,5.8,14.3,5.6,14.4,5.4z"/>
	<path class="st0" d="M15.3,6.8l-1.7,1.9c-0.2,0.2-0.4,0.2-0.6,0l0,0c-0.2-0.2-0.2-0.5,0-0.6l1.6-1.8"/>
</g>
</svg>
