<?xml version="1.0" encoding="utf-8"?>
<!-- Generator: Adobe Illustrator 25.2.0, SVG Export Plug-In . SVG Version: 6.00 Build 0)  -->
<svg version="1.1" id="Слой_1" xmlns="http://www.w3.org/2000/svg" xmlns:xlink="http://www.w3.org/1999/xlink" x="0px" y="0px"
	 viewBox="0 0 20.8 20.8" style="enable-background:new 0 0 20.8 20.8;" xml:space="preserve">
<style type="text/css">
	.st0{fill:none;stroke:#1CA1C1;stroke-width:0.75;stroke-miterlimit:10;}
</style>
<g>
	<g>
		<path class="st0" d="M0.4,14v5.4c0,0.6,0.5,1,1,1h5.4h12.6c0.6,0,1-0.5,1-1V15c0-0.6-0.5-1-1-1H7.8c-0.6,0-1-0.5-1-1V1.4
			c0-0.6-0.5-1-1-1H1.4c-0.6,0-1,0.5-1,1V14z"/>
	</g>
	<line class="st0" x1="0.4" y1="3.8" x2="3.5" y2="3.8"/>
	<line class="st0" x1="0.4" y1="6.2" x2="1.9" y2="6.2"/>
	<line class="st0" x1="0.4" y1="8.7" x2="3.5" y2="8.7"/>
	<line class="st0" x1="0.4" y1="11.1" x2="1.9" y2="11.1"/>
	<line class="st0" x1="0.4" y1="13.6" x2="3.5" y2="13.6"/>
	<line class="st0" x1="0.4" y1="16" x2="1.9" y2="16"/>
	<circle class="st0" cx="16.1" cy="17.1" r="1.2"/>
</g>
</svg>
