<?xml version="1.0" encoding="utf-8"?>
<!-- Generator: Adobe Illustrator 25.2.0, SVG Export Plug-In . SVG Version: 6.00 Build 0)  -->
<svg version="1.1" id="Слой_1" xmlns="http://www.w3.org/2000/svg" xmlns:xlink="http://www.w3.org/1999/xlink" x="0px" y="0px"
	 viewBox="0 0 41.2 40.4" style="enable-background:new 0 0 41.2 40.4;" xml:space="preserve">
<style type="text/css">
	.st0{fill:#EBF5FD;}
	.st1{fill:#1FA1C1;}
	.st2{fill:none;stroke:#19475E;stroke-width:0.75;stroke-linecap:round;stroke-linejoin:round;stroke-miterlimit:10;}
</style>
<circle class="st0" cx="20.5" cy="17.3" r="17.3"/>
<path class="st1" d="M25.1,27c0.6-0.2,1-0.8,1-1.5c0-0.9-0.7-1.6-1.6-1.6c-0.3,0-0.6,0.1-0.8,0.2c0.1-0.2,0.1-0.4,0.1-0.5
	c0-0.9-0.7-1.6-1.6-1.6c-0.9,0-1.6,0.7-1.6,1.6c0-0.9-0.7-1.6-1.6-1.6c-0.9,0-1.6,0.7-1.6,1.6c0,0.2,0,0.4,0.1,0.5
	c-0.2-0.1-0.5-0.2-0.8-0.2c-0.9,0-1.6,0.7-1.6,1.6c0,0.7,0.4,1.2,1,1.5c-0.6,0.2-1,0.8-1,1.5c0,0.9,0.7,1.6,1.6,1.6
	c0.3,0,0.6-0.1,0.8-0.2c-0.1,0.2-0.1,0.4-0.1,0.5c0,0.4,0.2,0.8,0.4,1V40l2.8-2.2l2.6,2.2v-8.5c0.3-0.3,0.6-0.7,0.6-1.2
	c0-0.2,0-0.4-0.1-0.5c0.2,0.1,0.5,0.2,0.8,0.2c0.9,0,1.6-0.7,1.6-1.6C26.1,27.8,25.7,27.2,25.1,27z M20.6,25.2
	c1.1,0,1.9,0.9,1.9,1.9c0,1.1-0.9,1.9-1.9,1.9c-1.1,0-1.9-0.9-1.9-1.9C18.7,26,19.5,25.2,20.6,25.2z"/>
<g>
	<g>
		<polyline class="st2" points="3.4,2.6 0.4,2.6 0.4,5.8 		"/>
		<polyline class="st2" points="40.8,5.8 40.8,2.6 37.8,2.6 		"/>
		<polyline class="st2" points="0.4,28.7 0.4,32 3.4,32 		"/>
		<polyline class="st2" points="37.8,32 40.8,32 40.8,28.7 		"/>
	</g>
	<line class="st2" x1="35.2" y1="3.1" x2="5.9" y2="3.1"/>
	<line class="st2" x1="40.1" y1="26.5" x2="40.1" y2="8"/>
	<line class="st2" x1="27.5" y1="31.4" x2="35.2" y2="31.4"/>
	<line class="st2" x1="5.9" y1="31.4" x2="13.6" y2="31.4"/>
	<line class="st2" x1="1.1" y1="8" x2="1.1" y2="26.5"/>
	<path class="st2" d="M28.6,28l1.8-0.9c0.7-0.6,1.7-0.7,2.6-0.3l2.9,1.2c0.5,0.2,1-0.3,0.8-0.8l-1-2.4c-0.3-0.8-0.2-1.7,0.2-2.5
		l0.3-0.5c0.6-0.9,0.6-2.1-0.1-3l0,0c-0.6-0.9-0.7-2.1-0.1-3l0.2-0.3c0.6-0.8,0.6-1.9,0.1-2.8L35.9,12c-0.4-0.7-0.5-1.6-0.2-2.4
		l0.9-2.2C36.9,7,36.5,6.5,36,6.6l-3.8,1c-0.6,0.2-1.3,0.2-1.9-0.1l-1.5-0.7c-0.7-0.3-1.4-0.3-2.1,0l-1.5,0.7
		c-0.7,0.3-1.4,0.3-2.1,0l-1.7-0.7c-0.6-0.2-1.2-0.2-1.7,0L18,7.4c-0.7,0.3-1.4,0.3-2.1,0l-1.5-0.7c-0.7-0.3-1.4-0.3-2.1,0l-1.5,0.7
		c-0.6,0.3-1.2,0.3-1.9,0.1l-3.8-1C4.7,6.5,4.2,7,4.4,7.4l0.9,2.2c0.3,0.8,0.3,1.7-0.2,2.4l-0.4,0.7c-0.5,0.9-0.5,2,0.1,2.8l0.2,0.3
		c0.6,0.9,0.6,2.1-0.1,3l0,0c-0.6,0.9-0.7,2.1-0.1,3l0.3,0.5c0.5,0.7,0.6,1.6,0.2,2.5l-1,2.4c-0.2,0.5,0.3,1,0.8,0.8l2.9-1.2
		c0.9-0.4,1.9-0.2,2.6,0.3l1.8,0.9"/>
	<line class="st2" x1="13.6" y1="14.4" x2="27.5" y2="14.4"/>
	<line class="st2" x1="16.2" y1="17.3" x2="25" y2="17.3"/>
	<circle class="st2" cx="20.6" cy="27.1" r="1.9"/>
	<path class="st2" d="M20.6,30.3c0,0.9,0.7,1.6,1.6,1.6c0.9,0,1.6-0.7,1.6-1.6c0-0.2,0-0.4-0.1-0.5c0.2,0.1,0.5,0.2,0.8,0.2
		c0.9,0,1.6-0.7,1.6-1.6c0-0.7-0.4-1.2-1-1.5c0.6-0.2,1-0.8,1-1.5c0-0.9-0.7-1.6-1.6-1.6c-0.3,0-0.6,0.1-0.8,0.2
		c0.1-0.2,0.1-0.4,0.1-0.5c0-0.9-0.7-1.6-1.6-1.6c-0.9,0-1.6,0.7-1.6,1.6h0c0-0.9-0.7-1.6-1.6-1.6c-0.9,0-1.6,0.7-1.6,1.6
		c0,0.2,0,0.4,0.1,0.5c-0.2-0.1-0.5-0.2-0.8-0.2c-0.9,0-1.6,0.7-1.6,1.6c0,0.7,0.4,1.2,1,1.5c-0.6,0.2-1,0.8-1,1.5
		c0,0.9,0.7,1.6,1.6,1.6c0.3,0,0.6-0.1,0.8-0.2c-0.1,0.2-0.1,0.4-0.1,0.5c0,0.9,0.7,1.6,1.6,1.6C19.9,31.9,20.6,31.2,20.6,30.3"/>
	<polyline class="st2" points="17.8,31.4 17.8,40 20.6,37.8 23.2,40 23.2,31.7 	"/>
</g>
</svg>
