<svg stroke="none" fill='#05a0c4' xmlns="http://www.w3.org/2000/svg" viewBox="0 0 20.2 20.2">
    <path d="M20.2 18.8l-5.9-5.9C15.4 11.5 16 9.8 16 8c0-1.6-.5-3.1-1.3-4.4-.9-1.3-2.1-2.3-3.6-2.9C9.6 0 8-.2 6.4.2s-3 1.1-4.1 2.2S.5 4.9.2 6.4C-.2 8 0 9.6.6 11.1c.6 1.5 1.6 2.7 2.9 3.6C4.9 15.5 6.4 16 8 16c1.8 0 3.5-.6 4.9-1.7l5.9 5.9 1.4-1.4zM8 14c-1.2 0-2.3-.4-3.3-1-1-.7-1.8-1.6-2.2-2.7C2 9.2 1.9 8 2.1 6.8c.2-1.2.8-2.2 1.6-3.1.8-.8 1.9-1.4 3.1-1.6 1.2-.2 2.4-.1 3.5.4s2 1.2 2.7 2.2c.7 1 1 2.1 1 3.3 0 1.6-.6 3.1-1.8 4.2C11.1 13.4 9.6 14 8 14z">
    </path>
  </svg>