<?xml version="1.0" encoding="utf-8"?>
<!-- Generator: Adobe Illustrator 24.0.3, SVG Export Plug-In . SVG Version: 6.00 Build 0)  -->
<svg version="1.1" id="Слой_1" xmlns="http://www.w3.org/2000/svg" xmlns:xlink="http://www.w3.org/1999/xlink" x="0px" y="0px"
	 viewBox="0 0 34.1 28" style="enable-background:new 0 0 34.1 28;" xml:space="preserve">
<style type="text/css">
	.st0{fill:#1E2B50;}
</style>
<g>
	<path class="st0" d="M0.4,0.1C0.2,0.2,0,0.4,0,0.7C0,1,0.2,1.3,0.5,1.4c0.1,0,0.8,0,1.9,0c1.7,0,1.8,0,2,0.1c0.4,0.1,0.8,0.4,1,0.8
		c0,0.1,0.3,0.9,0.6,1.9c0.3,1,0.9,3.2,1.5,5c1.2,4,1.9,6.5,2.2,7.5c0.2,0.8,0.3,1.2,0.6,1.6c0.5,0.9,1.2,1.7,2,2
		c0.3,0.1,0.6,0.2,1,0.3c0.2,0,2.6,0,7.1,0l6.8,0l0.1-0.1c0.2-0.1,0.3-0.3,0.4-0.6c0-0.3-0.1-0.5-0.3-0.6l-0.1-0.1l-7,0l-7,0
		L13,19.1c-0.7-0.2-1.2-0.8-1.6-1.7c-0.1-0.1-0.1-0.3-0.1-0.4l0-0.1l8.1,0l8.1,0l0.3-0.1c0.5-0.1,0.9-0.4,1.1-0.7
		c0.5-0.6,0.8-1.2,3.3-7c0.7-1.6,1.4-3,1.5-3.3c0.4-0.8,0.5-1.3,0.5-1.8c0.1-1-0.4-1.7-1.3-2c-0.2,0-1.5-0.1-11.3-0.1
		c-7.1,0-11.2,0-11.3,0c-0.1,0-0.2,0.1-0.3,0.2c-0.4,0.3-0.3,0.9,0.1,1.2l0.2,0.1l11.1,0c9.7,0,11.1,0,11.2,0.1
		c0.2,0.1,0.1,0.9-0.2,1.6c-0.1,0.2-0.8,1.8-1.6,3.6c-2.2,4.9-2.5,5.5-2.8,6.1c-0.3,0.5-0.4,0.6-0.7,0.7c-0.2,0.1-0.5,0.1-8.3,0.1
		l-8.1,0l-0.1-0.2c0-0.1-0.2-0.8-0.4-1.5c-0.5-1.7-1.2-4.2-2.5-9C7.2,2.3,6.8,1.1,6.8,1C6.5,0.5,6,0.2,5.3,0.1C5.1,0,4.6,0,2.8,0
		C0.7,0,0.6,0,0.4,0.1L0.4,0.1z"/>
	<path class="st0" d="M12.8,21.4c-0.7,0.1-1.3,0.4-1.8,0.9c-0.4,0.4-0.6,0.8-0.8,1.3c-0.6,1.9,0.5,3.8,2.4,4.3
		c0.4,0.1,1.2,0.1,1.5,0c0.7-0.2,1.1-0.4,1.6-0.9c0.4-0.4,0.6-0.8,0.8-1.3c0.3-0.9,0.2-1.9-0.3-2.8c-0.2-0.4-0.8-0.9-1.2-1.2
		C14.3,21.4,13.5,21.3,12.8,21.4L12.8,21.4z M13.7,22.8c0.4,0.1,0.9,0.4,1.1,0.8c0.8,1.2,0.2,2.7-1.2,3c-0.3,0.1-0.5,0.1-0.8,0
		c-0.6-0.1-1.1-0.5-1.4-1c-0.1-0.3-0.2-0.6-0.2-0.9c0-0.6,0.4-1.3,0.9-1.6C12.6,22.7,13.1,22.7,13.7,22.8L13.7,22.8z"/>
	<path class="st0" d="M26.3,21.4c-1.1,0.2-2,0.9-2.5,1.9c-0.2,0.5-0.3,0.8-0.3,1.4c0,0.6,0.1,0.9,0.3,1.4c0.3,0.6,0.7,1.1,1.3,1.4
		c1.7,1,3.8,0.4,4.7-1.4c0.3-0.5,0.3-0.8,0.3-1.5c0-0.6-0.1-0.9-0.3-1.4C29.1,21.9,27.7,21.2,26.3,21.4L26.3,21.4z M27.3,22.8
		c0.5,0.1,1,0.5,1.2,1c0.2,0.4,0.3,0.8,0.2,1.3c-0.2,0.8-0.9,1.5-1.8,1.5c-0.7,0.1-1.4-0.3-1.8-0.9c-0.2-0.4-0.3-0.6-0.3-1.1
		c0-0.4,0-0.4,0.1-0.7C25.3,23.1,26.3,22.5,27.3,22.8L27.3,22.8z"/>
</g>
</svg>
