<svg width="0" height="0" class="hidden">
  <symbol xmlns="http://www.w3.org/2000/svg" fill='currentColor' viewBox="0 0 34.1 28" id="cart">
    <path d="M.4.1C.2.2 0 .4 0 .7s.2.6.5.7h1.9c1.7 0 1.8 0 2 .1.4.1.8.4 1 .8 0 .1.3.9.6 1.9.3 1 .9 3.2 1.5 5 1.2 4 1.9 6.5 2.2 7.5.2.8.3 1.2.6 1.6.5.9 1.2 1.7 2 2 .3.1.6.2 1 .3h13.9l.1-.1c.2-.1.3-.3.4-.6 0-.3-.1-.5-.3-.6l-.1-.1h-14l-.3-.1c-.7-.2-1.2-.8-1.6-1.7-.1-.1-.1-.3-.1-.4v-.1h16.2l.3-.1c.5-.1.9-.4 1.1-.7.5-.6.8-1.2 3.3-7 .7-1.6 1.4-3 1.5-3.3.4-.8.5-1.3.5-1.8.1-1-.4-1.7-1.3-2-.2 0-1.5-.1-11.3-.1H10.3c-.1 0-.2.1-.3.2-.4.3-.3.9.1 1.2l.2.1h11.1c9.7 0 11.1 0 11.2.1.2.1.1.9-.2 1.6-.1.2-.8 1.8-1.6 3.6-2.2 4.9-2.5 5.5-2.8 6.1-.3.5-.4.6-.7.7-.2.1-.5.1-8.3.1h-8.1l-.1-.2c0-.1-.2-.8-.4-1.5-.5-1.7-1.2-4.2-2.5-9C7.2 2.3 6.8 1.1 6.8 1 6.5.5 6 .2 5.3.1 5.1 0 4.6 0 2.8 0 .7 0 .6 0 .4.1zm12.4 21.3c-.7.1-1.3.4-1.8.9-.4.4-.6.8-.8 1.3-.6 1.9.5 3.8 2.4 4.3.4.1 1.2.1 1.5 0 .7-.2 1.1-.4 1.6-.9.4-.4.6-.8.8-1.3.3-.9.2-1.9-.3-2.8-.2-.4-.8-.9-1.2-1.2-.7-.3-1.5-.4-2.2-.3zm.9 1.4c.4.1.9.4 1.1.8.8 1.2.2 2.7-1.2 3-.3.1-.5.1-.8 0-.6-.1-1.1-.5-1.4-1-.1-.3-.2-.6-.2-.9 0-.6.4-1.3.9-1.6.5-.4 1-.4 1.6-.3zm12.6-1.4c-1.1.2-2 .9-2.5 1.9-.2.5-.3.8-.3 1.4 0 .6.1.9.3 1.4.3.6.7 1.1 1.3 1.4 1.7 1 3.8.4 4.7-1.4.3-.5.3-.8.3-1.5 0-.6-.1-.9-.3-1.4-.7-1.3-2.1-2-3.5-1.8zm1 1.4c.5.1 1 .5 1.2 1 .2.4.3.8.2 1.3-.2.8-.9 1.5-1.8 1.5-.7.1-1.4-.3-1.8-.9-.2-.4-.3-.6-.3-1.1 0-.4 0-.4.1-.7.4-.8 1.4-1.4 2.4-1.1z"></path>
  </symbol>
  <symbol xmlns="http://www.w3.org/2000/svg" fill='currentColor' viewBox="0 0 33.4 28" id="heart">
    <path d="M24 0c-1.2.1-2.4.4-3.5.9-1 .5-1.8 1.1-2.9 2.1-1.2 1.1-4.1 4.1-4.2 4.3-.2.4-.2.8 0 1.1.4.4.9.3 1.5-.2l1.9-1.9c2.1-2.1 3.1-3.1 3.5-3.4 1.2-.8 2.6-1.3 4-1.3 2.9-.1 5.8 1.9 7 4.8.4.9.5 2 .4 3-.2 1.4-.9 2.9-2.1 4.4-1.4 1.7-5.5 5.8-10.8 10.9-1.1 1-1.2 1.2-1.6 1.3-.4.2-.8.2-1.4-.1-.6-.2-.3 0-6.4-6.3-5.9-6.2-6-6.3-6.7-7.3-.8-1.2-1.1-2.2-1-3.7 0-.6.1-1 .2-1.6.5-1.9 1.8-3.6 3.5-4.5 2.2-1.1 4.9-1 6.9.2.5.3.7.4 1 .5.4.1.7 0 .9-.4.4-.7.1-1.1-1.4-1.9C12 .7 11.1.4 10 .2 9.5.1 8.1.1 7.6.2c-2 .3-3.8 1.2-5.1 2.5A9.1 9.1 0 0 0 0 9c0 1.7.5 3.1 1.6 4.6.9 1.1 1.1 1.4 6.2 6.6 7.4 7.5 6.9 7.1 7.6 7.5.4.3.8.4 1.2.4.5 0 .9-.1 1.4-.5.4-.3 2.4-2.1 3.5-3.1 2.4-2.2 8.4-8.3 9.4-9.5.4-.5 1.1-1.5 1.5-2.4.9-1.7 1.1-2.9 1-4.3-.1-1.5-.6-2.9-1.4-4.1-.4-.6-.7-1-1.2-1.5C29.4 1.3 27.6.4 25.7.2 25.2 0 24.3 0 24 0z"></path>
    <path fill='none' d="M30.5 3.2L25.3.9l-4.4.8c-1.2.9-3.1 2.6-4.6 4.1-1.1-4.1-4-4.9-4-4.9v1.6c-.4-.4-.8-.7-1.2-1.1l-4.8.1L3.7 3C.2 6 .8 9.6 2.4 13.4L15.9 27l2.2-.5c2.8-2.8 13.1-12.4 14.3-16.1V6.2l-1.9-3z"></path>
  </symbol>
  <symbol xmlns="http://www.w3.org/2000/svg" fill='currentColor' viewBox="0 0 20 20" id="key">
    <path d="M1 20h1.2c1.2 0 1.2 0 1.4-.1.1 0 .3-.3.6-.6l.5-.5h1.6l.2-.1c.3-.1.6-.3.7-.6.1-.3.1-.3.1-1.1v-.7h1.4l.2-.1c.4-.1.7-.5.8-.9v-1.8l.7-.7.7-.7.2.1c.3.1.7.2 1.1.3.4.1 1.2.1 1.6 0 2-.2 3.8-1.4 4.8-3.2.8-.7 1.1-1.5 1.2-2.3V5.5c-.1-.7-.3-1.3-.6-1.9-.6-1.3-1.6-2.3-2.9-2.9-.5-.3-1-.4-1.5-.5-.5-.2-.7-.2-1.3-.2-.6 0-.9 0-1.5.2-1.7.4-3.2 1.6-4 3.3-.3.5-.5 1.2-.6 1.8-.1.4-.1 1.1 0 1.5.1.5.1.9.3 1.4l.1.3-3.9 3.9c-2.9 2.9-3.9 3.9-3.9 4-.2.2-.2.2-.2 1.5 0 1.1 0 1.1.1 1.2.1.5.5.8.9.9zm2.5-1.7l-.5.5H1.2V17l4.1-4.1 4.1-4.1c0-.2-.3-.7-.3-.8-.3-.7-.4-1.2-.3-1.9 0-.8.2-1.4.5-2.1.7-1.4 2-2.4 3.6-2.7 1.1-.2 2.1-.1 3.1.4.5.3.9.5 1.3.9.5.5.9 1.1 1.2 1.7.7 1.6.4 3.5-.6 4.9-.8 1-1.9 1.7-3.2 1.9-.4.1-1.1.1-1.5 0-.5-.1-1-.2-1.5-.5l-.3-.2-1.1 1.1L9 12.8l-.1.2c-.1.1-.1.2-.1.3V15h-.7c-.8 0-.9 0-1.1.1-.2.1-.4.3-.5.5-.1.3-.1.3-.2 1.1v.7h-.7c-.8 0-1 0-1.2.1-.3.2-.4.2-.9.8z"></path>
    <path d="M15.3 7.5h.2c.1 0 .2 0 .3-.1.7-.3 1.2-.8 1.5-1.5.1-.2.1-.3.1-.4 0-.2 0-.3-.2-.5-.6-.8-1.3-1.5-2.1-2.1-.4-.3-.5-.4-.7-.4-.1 0-.3.1-.6.2-.6.3-1 .8-1.3 1.4-.1.3-.1.4-.1.6.1.2.8 1.1 1.5 1.8.6.4 1.2.9 1.4 1zm.4-.7c-.1 0-.2.1-.2.1s-.5-.4-.8-.6c-.5-.4-1.1-1.1-1.5-1.6l-.1-.2v-.1c0-.1.2-.4.3-.5.2-.3.6-.6 1-.8h.1l.2.1c.8.6 1.5 1.3 2.1 2l.2.2v.1c-.4.7-.7 1-1.3 1.3z"></path>
  </symbol>
  <symbol xmlns="http://www.w3.org/2000/svg" fill='currentColor' viewBox="0 0 20.7 23.2" id="lupa">
    <path d="M8 14.2c1.3 0 2.6-.4 3.6-1.2l.4-.3.4-.4c1-1.1 1.6-2.6 1.6-4.1C14 4.7 11.3 2 8 2S2 4.7 2 8.1s2.7 6.1 6 6.1m12 9c-.2 0-.4-.1-.5-.2l-6.7-8.4c-1.3 1-3 1.6-4.8 1.6-4.4 0-8-3.6-8-8.1S3.6 0 8 0s8 3.6 8 8.1c0 2.1-.8 4-2.1 5.5l6.7 8.4c.2.3.2.7-.2 1 0 .1-.2.2-.4.2z"></path>
  </symbol>
  <symbol fill='currentColor' xmlns="http://www.w3.org/2000/svg" viewBox="0 0 10.5 18.1" id="arrow">
    <path d="M1.4,18.1L0,16.7l7.6-7.6L0,1.5L1.4,0l9,9.1C10.4,9.1,1.3,18.1,1.4,18.1z"/>
  </symbol>
</svg>