<?xml version="1.0" encoding="utf-8"?>
<!-- Generator: Adobe Illustrator 24.0.3, SVG Export Plug-In . SVG Version: 6.00 Build 0)  -->
<svg version="1.1" id="Слой_1" xmlns="http://www.w3.org/2000/svg" xmlns:xlink="http://www.w3.org/1999/xlink" x="0px" y="0px"
	 viewBox="0 0 20 20" style="enable-background:new 0 0 20 20;" xml:space="preserve">
<style type="text/css">
	.st0{fill:#EEC338;}
</style>
<g>
	<path class="st0" d="M1,20c0,0,0.6,0,1.2,0c1.2,0,1.2,0,1.4-0.1c0.1,0,0.3-0.3,0.6-0.6l0.5-0.5l0.8,0l0.8,0l0.2-0.1
		c0.3-0.1,0.6-0.3,0.7-0.6c0.1-0.3,0.1-0.3,0.1-1.1l0-0.7l0.7,0l0.7,0l0.2-0.1c0.4-0.1,0.7-0.5,0.8-0.9c0-0.1,0-0.2,0-1v-0.8
		l0.7-0.7l0.7-0.7l0.2,0.1c0.3,0.1,0.7,0.2,1.1,0.3c0.4,0.1,1.2,0.1,1.6,0c2-0.2,3.8-1.4,4.8-3.2C19.6,8.6,19.9,7.8,20,7
		C20,6.7,20,5.8,20,5.5c-0.1-0.7-0.3-1.3-0.6-1.9c-0.6-1.3-1.6-2.3-2.9-2.9c-0.5-0.3-1-0.4-1.5-0.5C14.5,0,14.3,0,13.7,0
		c-0.6,0-0.9,0-1.5,0.2C10.5,0.6,9,1.8,8.2,3.5C7.9,4,7.7,4.7,7.6,5.3c-0.1,0.4-0.1,1.1,0,1.5c0.1,0.5,0.1,0.9,0.3,1.4l0.1,0.3
		l-3.9,3.9c-2.9,2.9-3.9,3.9-3.9,4C0,16.6,0,16.6,0,17.9C0,19,0,19,0.1,19.1C0.2,19.6,0.6,19.9,1,20L1,20z M3.5,18.3L3,18.8H2.1
		c-0.5,0-0.9,0-0.9,0c0,0,0-0.4,0-0.9V17l4.1-4.1c4-4,4.1-4.1,4.1-4.1C9.4,8.6,9.1,8.1,9.1,8C8.8,7.3,8.7,6.8,8.8,6.1
		c0-0.8,0.2-1.4,0.5-2.1c0.7-1.4,2-2.4,3.6-2.7c1.1-0.2,2.1-0.1,3.1,0.4c0.5,0.3,0.9,0.5,1.3,0.9c0.5,0.5,0.9,1.1,1.2,1.7
		c0.7,1.6,0.4,3.5-0.6,4.9c-0.8,1-1.9,1.7-3.2,1.9c-0.4,0.1-1.1,0.1-1.5,0c-0.5-0.1-1-0.2-1.5-0.5l-0.3-0.2l-1.1,1.1L9,12.8L8.9,13
		c-0.1,0.1-0.1,0.2-0.1,0.3c0,0.1,0,0.4,0,0.9V15H8.1c-0.8,0-0.9,0-1.1,0.1c-0.2,0.1-0.4,0.3-0.5,0.5c-0.1,0.3-0.1,0.3-0.2,1.1
		l0,0.7H5.6c-0.8,0-1,0-1.2,0.1C4.1,17.7,4,17.7,3.5,18.3L3.5,18.3z"/>
	<path class="st0" d="M15.3,7.5c0,0,0.1,0,0.2,0c0.1,0,0.2,0,0.3-0.1c0.7-0.3,1.2-0.8,1.5-1.5c0.1-0.2,0.1-0.3,0.1-0.4
		c0-0.2,0-0.3-0.2-0.5c-0.6-0.8-1.3-1.5-2.1-2.1c-0.4-0.3-0.5-0.4-0.7-0.4c-0.1,0-0.3,0.1-0.6,0.2c-0.6,0.3-1,0.8-1.3,1.4
		c-0.1,0.3-0.1,0.4-0.1,0.6c0.1,0.2,0.8,1.1,1.5,1.8C14.5,6.9,15.1,7.4,15.3,7.5L15.3,7.5z M15.7,6.8c-0.1,0-0.2,0.1-0.2,0.1
		c0,0-0.5-0.4-0.8-0.6c-0.5-0.4-1.1-1.1-1.5-1.6l-0.1-0.2l0-0.1c0-0.1,0.2-0.4,0.3-0.5c0.2-0.3,0.6-0.6,1-0.8l0.1,0l0.2,0.1
		c0.8,0.6,1.5,1.3,2.1,2l0.2,0.2l0,0.1C16.6,6.2,16.3,6.5,15.7,6.8L15.7,6.8z"/>
</g>
</svg>
