<?xml version="1.0" encoding="utf-8"?>
<!-- Generator: Adobe Illustrator 24.0.3, SVG Export Plug-In . SVG Version: 6.00 Build 0)  -->
<svg version="1.1" id="Слой_1" xmlns="http://www.w3.org/2000/svg" xmlns:xlink="http://www.w3.org/1999/xlink" x="0px" y="0px"
	 viewBox="0 0 20.7 23.2" style="enable-background:new 0 0 20.7 23.2;" xml:space="preserve">
<path id="SVGID_1_" d="M8,14.2c1.3,0,2.6-0.4,3.6-1.2l0.4-0.3l0.4-0.4c1-1.1,1.6-2.6,1.6-4.1C14,4.7,11.3,2,8,2S2,4.7,2,8.1
	S4.7,14.2,8,14.2 M20,23.2c-0.2,0-0.4-0.1-0.5-0.2l-6.7-8.4c-1.3,1-3,1.6-4.8,1.6c-4.4,0-8-3.6-8-8.1S3.6,0,8,0s8,3.6,8,8.1
	c0,2.1-0.8,4-2.1,5.5l6.7,8.4c0.2,0.3,0.2,0.7-0.2,1C20.4,23.1,20.2,23.2,20,23.2L20,23.2L20,23.2z"/>
</svg>
