<?xml version="1.0"?>
<svg xmlns="http://www.w3.org/2000/svg" id="Layer_1" enable-background="new 0 0 512 512" height="512px" viewBox="0 0 512 512" width="512px"><g><path d="m472.968 123.712h-162.366v-48.23c0-3.979-1.581-7.794-4.394-10.607l-60.488-60.482c-2.814-2.813-6.629-4.393-10.607-4.393h-187.217c-26.41 0-47.896 21.49-47.896 47.904v292.479c0 26.414 21.486 47.904 47.896 47.904h153.502v84.68c0 21.522 17.51 39.032 39.032 39.032h232.537c21.523.001 39.033-17.509 39.033-39.031v-310.224c0-21.522-17.51-39.032-39.032-39.032zm-425.072 234.576c-9.868 0-17.896-8.032-17.896-17.904v-292.48c0-9.872 8.028-17.904 17.896-17.904h181.004l51.701 51.695v42.017h-40.171c-21.522 0-39.032 17.51-39.032 39.032v28.402h-122.7c-8.284 0-15 6.716-15 15s6.716 15 15 15h122.7v19.94h-122.7c-8.284 0-15 6.716-15 15s6.716 15 15 15h122.7v20.288h-122.7c-8.284 0-15 6.716-15 15s6.716 15 15 15h122.7v36.913h-153.502zm434.104 114.68c0 4.98-4.052 9.032-9.032 9.032h-232.537c-4.98 0-9.032-4.052-9.032-9.032v-310.224c0-4.98 4.052-9.032 9.032-9.032h232.537c4.98 0 9.032 4.052 9.032 9.032z" data-original="#000000" class="active-path" data-old_color="#000000"/><path d="m78.698 89.54h44.987c8.284 0 15-6.716 15-15s-6.716-15-15-15h-44.987c-8.284 0-15 6.716-15 15s6.716 15 15 15z" data-original="#000000" class="active-path" data-old_color="#000000"/><path d="m78.698 138.002h82.987c8.284 0 15-6.716 15-15s-6.716-15-15-15h-82.987c-8.284 0-15 6.716-15 15s6.716 15 15 15z" data-original="#000000" class="active-path" data-old_color="#000000"/><path d="m452 168.723h-190.602c-8.284 0-15 6.716-15 15v55.204c0 8.284 6.716 15 15 15h190.602c8.284 0 15-6.716 15-15v-55.204c0-8.285-6.716-15-15-15zm-15 55.204h-160.602v-25.204h160.602z" data-original="#000000" class="active-path" data-old_color="#000000"/><path d="m290.801 278.427h-29.402c-8.284 0-15 6.716-15 15s6.716 15 15 15h29.402c8.284 0 15-6.716 15-15s-6.716-15-15-15z" data-original="#000000" class="active-path" data-old_color="#000000"/><path d="m341.998 308.427h29.402c8.284 0 15-6.716 15-15s-6.716-15-15-15h-29.402c-8.284 0-15 6.716-15 15s6.716 15 15 15z" data-original="#000000" class="active-path" data-old_color="#000000"/><path d="m452 278.427h-29.402c-8.284 0-15 6.716-15 15s6.716 15 15 15h29.402c8.284 0 15-6.716 15-15s-6.716-15-15-15z" data-original="#000000" class="active-path" data-old_color="#000000"/><path d="m290.801 426.451h-29.402c-8.284 0-15 6.716-15 15s6.716 15 15 15h29.402c8.284 0 15-6.716 15-15s-6.716-15-15-15z" data-original="#000000" class="active-path" data-old_color="#000000"/><path d="m371.4 426.451h-29.402c-8.284 0-15 6.716-15 15s6.716 15 15 15h29.402c8.284 0 15-6.716 15-15s-6.715-15-15-15z" data-original="#000000" class="active-path" data-old_color="#000000"/><path d="m452 426.451h-29.402c-8.284 0-15 6.716-15 15s6.716 15 15 15h29.402c8.284 0 15-6.716 15-15s-6.716-15-15-15z" data-original="#000000" class="active-path" data-old_color="#000000"/><path d="m290.801 327.769h-29.402c-8.284 0-15 6.716-15 15s6.716 15 15 15h29.402c8.284 0 15-6.716 15-15s-6.716-15-15-15z" data-original="#000000" class="active-path" data-old_color="#000000"/><path d="m290.801 377.109h-29.402c-8.284 0-15 6.716-15 15s6.716 15 15 15h29.402c8.284 0 15-6.716 15-15s-6.716-15-15-15z" data-original="#000000" class="active-path" data-old_color="#000000"/><path d="m341.998 357.769h29.402c8.284 0 15-6.716 15-15s-6.716-15-15-15h-29.402c-8.284 0-15 6.716-15 15s6.716 15 15 15z" data-original="#000000" class="active-path" data-old_color="#000000"/><path d="m452 327.769h-29.402c-8.284 0-15 6.716-15 15s6.716 15 15 15h29.402c8.284 0 15-6.716 15-15s-6.716-15-15-15z" data-original="#000000" class="active-path" data-old_color="#000000"/><path d="m452 377.109h-110.002c-8.284 0-15 6.716-15 15s6.716 15 15 15h110.002c8.284 0 15-6.716 15-15s-6.716-15-15-15z" class="active-path"/></g> </svg>
