<?xml version="1.0" encoding="iso-8859-1"?>
<!-- Generator: Adobe Illustrator 19.0.0, SVG Export Plug-In . SVG Version: 6.00 Build 0)  -->
<svg version="1.1" id="Capa_1" xmlns="http://www.w3.org/2000/svg" xmlns:xlink="http://www.w3.org/1999/xlink" x="0px" y="0px"
	 viewBox="0 0 512 512" style="enable-background:new 0 0 512 512;" xml:space="preserve">
<g>
	<g>
		<g>
			<path d="M230.4,8.533h-25.6c0.001-2.264-0.897-4.435-2.498-6.035S198.53-0.001,196.267,0h-51.2
				c-2.264-0.001-4.435,0.897-6.035,2.498s-2.499,3.772-2.498,6.035h-25.6c-2.264-0.001-4.435,0.897-6.035,2.498
				s-2.499,3.772-2.498,6.035V307.2c0,0.132,0.069,0.242,0.075,0.372c0.005,0.115-0.052,0.221-0.042,0.336l7.875,94.575
				c0.783,8.823,8.151,15.602,17.008,15.65H128v76.8c0.012,9.421,7.646,17.054,17.067,17.067h51.2
				c9.421-0.012,17.054-7.646,17.067-17.067v-76.8h0.683c8.857-0.046,16.223-6.827,17-15.65l5.096-61.126l0.004-0.024l-0.002-0.01
				l2.785-33.415c0.01-0.115-0.047-0.222-0.042-0.336c0.006-0.131,0.075-0.24,0.075-0.372V187.733V17.067
				c0.001-2.264-0.897-4.435-2.498-6.035S232.664,8.532,230.4,8.533z M153.6,17.067h34.133v25.6H153.6V17.067z M153.6,59.733h34.133
				V102.4H153.6V59.733z M179.2,119.467v76.8h-17.067v-76.8H179.2z M119.467,25.6h17.067v17.067h-17.067V25.6z M119.467,59.733
				h17.067v51.2c-0.001,2.264,0.897,4.435,2.498,6.035s3.772,2.499,6.035,2.498V179.2h-25.6V59.733z M145.067,494.933v-76.8h51.2
				l0.017,76.8H145.067z M214.017,409.6v-8.533h0.009L214.017,409.6z M214.008,401.067h-86.692L125.895,384h89.536L214.008,401.067z
				 M216.855,366.933h-92.382l-1.421-17.067h95.226L216.855,366.933z M219.702,332.8H121.63l-1.422-17.067h100.917L219.702,332.8z
				 M221.867,298.667h-102.4v-102.4h25.6v8.533c-0.001,2.264,0.897,4.435,2.498,6.035s3.772,2.499,6.035,2.498h34.133
				c2.264,0.001,4.435-0.897,6.035-2.498s2.499-3.772,2.498-6.035v-8.533h25.6V298.667z M221.867,179.2h-25.6v-59.733
				c2.264,0.001,4.435-0.897,6.035-2.498s2.499-3.772,2.498-6.035v-51.2h17.067V179.2z M221.867,42.667H204.8V25.6h17.067V42.667z"
				/>
			<path d="M407.102,11.031c-1.601-1.601-3.772-2.499-6.035-2.498h-25.6c0.001-2.264-0.897-4.435-2.498-6.035
				S369.197-0.001,366.933,0h-51.2c-2.264-0.001-4.435,0.897-6.035,2.498s-2.499,3.772-2.498,6.035h-25.6
				c-2.264-0.001-4.435,0.897-6.035,2.498s-2.499,3.772-2.498,6.035V307.2c0,0.132,0.069,0.242,0.075,0.372
				c0.005,0.115-0.052,0.221-0.042,0.336l7.875,94.575c0.783,8.823,8.151,15.602,17.008,15.65h0.683v76.8
				c0.012,9.421,7.646,17.054,17.067,17.067h51.2c9.421-0.012,17.054-7.646,17.067-17.067v-76.8h0.683
				c8.857-0.046,16.223-6.827,17-15.65l5.096-61.126l0.004-0.024l-0.002-0.01l2.785-33.415c0.01-0.115-0.047-0.222-0.042-0.336
				c0.006-0.131,0.075-0.24,0.075-0.372V187.733V17.067C409.601,14.803,408.703,12.632,407.102,11.031z M324.267,17.067H358.4v25.6
				h-34.133V17.067z M324.267,59.733H358.4V102.4h-34.133V59.733z M349.867,119.467v76.8H332.8v-76.8H349.867z M290.133,25.6H307.2
				v17.067h-17.067V25.6z M290.133,59.733H307.2v51.2c-0.001,2.264,0.897,4.435,2.498,6.035s3.772,2.499,6.035,2.498V179.2h-25.6
				V59.733z M315.733,494.933v-76.8h51.2l0.017,76.8H315.733z M384.684,409.6v-8.533h0.009L384.684,409.6z M384.675,401.067h-86.692
				L296.562,384h89.536L384.675,401.067z M387.522,366.933H295.14l-1.421-17.067h95.226L387.522,366.933z M390.369,332.8h-98.072
				l-1.422-17.067h100.917L390.369,332.8z M392.533,298.667h-102.4v-102.4h25.6v8.533c-0.001,2.264,0.897,4.435,2.498,6.035
				s3.772,2.499,6.035,2.498H358.4c2.264,0.001,4.435-0.897,6.035-2.498s2.499-3.772,2.498-6.035v-8.533h25.6V298.667z
				 M392.533,179.2h-25.6v-59.733c2.264,0.001,4.435-0.897,6.035-2.498s2.499-3.772,2.498-6.035v-51.2h17.067V179.2z
				 M392.533,42.667h-17.067V25.6h17.067V42.667z"/>
		</g>
	</g>
</g>
<g>
</g>
<g>
</g>
<g>
</g>
<g>
</g>
<g>
</g>
<g>
</g>
<g>
</g>
<g>
</g>
<g>
</g>
<g>
</g>
<g>
</g>
<g>
</g>
<g>
</g>
<g>
</g>
<g>
</g>
</svg>
