<?xml version="1.0" encoding="utf-8"?>
<!-- Generator: Adobe Illustrator 25.2.1, SVG Export Plug-In . SVG Version: 6.00 Build 0)  -->
<svg version="1.1" id="Слой_1" xmlns="http://www.w3.org/2000/svg" xmlns:xlink="http://www.w3.org/1999/xlink" x="0px" y="0px"
	 viewBox="0 0 14.3 14.3" style="enable-background:new 0 0 14.3 14.3;" xml:space="preserve">
<style type="text/css">
	.st0{fill:#AD9A60;}
</style>
<g>
	<path class="st0" d="M7.2,14.3c-2,0-3.8-0.8-5.2-2.2c-1.4-1.4-2.1-3.3-2-5.2C0.1,3.2,3.2,0.1,6.9,0C9-0.1,11,0.8,12.4,2.3
		c1.2,1.3,1.9,3,1.9,4.8c0,0.7-0.1,1.5-0.3,2.1c-0.3,0.9-1.1,1.5-2,1.5c-1.2,0-2.1-0.9-2.1-2.1V7.2h0.9v1.5c0,0.7,0.6,1.2,1.2,1.2
		c0.5,0,1-0.3,1.2-0.9c0.2-0.6,0.3-1.2,0.3-1.9c0-1.6-0.6-3.1-1.6-4.3c-1.3-1.4-3-2.1-4.9-2C3.6,1,1,3.6,0.9,6.9
		c-0.1,1.7,0.6,3.4,1.8,4.6c1.2,1.2,2.8,1.9,4.5,1.9V14.3L7.2,14.3z"/>
	<path class="st0" d="M6.9,11.6c-2.1,0-3.8-2-3.8-4.5s1.7-4.5,3.8-4.5c2.1,0,3.8,2,3.8,4.5H9.9c0-2-1.3-3.6-3-3.6
		c-1.6,0-3,1.6-3,3.6c0,2,1.3,3.6,3,3.6c0.7,0,1.3-0.3,1.9-0.8l0.6,0.6C8.7,11.2,7.8,11.6,6.9,11.6L6.9,11.6z"/>
</g>
</svg>
