<svg width="105" height="124" viewBox="0 0 105 124" fill="none" xmlns="http://www.w3.org/2000/svg">
<path fill-rule="evenodd" clip-rule="evenodd" d="M15.0247 119.345V123.483H15.8848V120.207H16.9171V123.483H17.7773V119.345H15.0247ZM28.4436 119.345V123.483H29.3324V121.816H30.336V123.483H31.2535V119.345H30.336V120.954H29.3324V119.345H28.4436ZM43.7548 123.483V119.345H46.5074V123.483H45.6472V120.207H44.615V123.483H43.7548ZM18.5227 119.345V123.483H19.3829L20.5872 121.011V123.483H21.4474V119.345H20.5872L19.3829 121.759V119.345H18.5227ZM31.9416 123.483V119.345H32.8018V121.759L34.0061 119.345H34.8663V123.483H34.0061V121.011L32.8018 123.483H31.9416ZM84.3556 119.345H83.4954V123.483H84.3556L85.5599 121.011V123.483H86.4201V119.345H85.5599L84.3556 121.759V119.345ZM35.6118 123.483V119.345H38.307V120.236H36.4719V121.011H37.3895V121.816H36.4719V122.563H38.307V123.483H35.6118ZM79.3665 119.345H76.6713V123.483H79.3665V122.563H77.5315V121.816H78.449V121.011H77.5315V120.236H79.3665V119.345ZM47.2529 123.483V119.345H49.9482V120.236H48.1131V121.011H49.0306V121.816H48.1131V122.563H49.9482V123.483H47.2529ZM50.579 119.345V123.483H52.8155V124H53.6757V122.621H53.2743V119.345H52.4141V122.621H51.4392V119.345H50.579ZM54.1918 123.483V122.621H54.9946V123.483H54.1918ZM57.1164 119.345V123.483H57.9766V121.816H58.9801V123.483H59.869V119.345H58.9801V120.954H57.9766V119.345H57.1164ZM67.8401 123.483H66.9799V119.345H67.8401V120.954H68.8436V119.345H69.7325V123.483H68.8436V121.816H67.8401V123.483ZM80.8575 119.345H79.9973V123.483H80.8575V121.816H81.8611V123.483H82.7499V119.345H81.8611V120.954H80.8575V119.345ZM21.9635 120.207V119.345H24.7161V120.207H23.7986V123.483H22.9384V120.207H21.9635ZM25.0602 123.483L25.4616 119.345H27.526L27.9274 123.483H27.0673L27.0099 122.506H26.0064L25.9203 123.483H25.0602ZM26.0924 121.586L26.2071 120.207H26.7805L26.8952 121.586H26.0924ZM60.7865 119.345L60.3851 123.483H61.2453L61.3313 122.506H62.3348L62.3922 123.483H63.2524L62.8509 119.345H60.7865ZM61.5319 120.207L61.4173 121.586H62.2201L62.1054 120.207H61.5319ZM71.1661 123.483H70.3059L70.7073 119.345H72.7718L73.1732 123.483H72.313L72.2557 122.506H71.2521L71.1661 123.483ZM71.3382 121.586L71.4528 120.207H72.0263L72.141 121.586H71.3382ZM73.2306 122.046V119.345H74.0908V121.155H75.0656V119.345H75.9258V123.483H75.0656V122.046H73.2306ZM63.7112 119.345V120.207H65.3168L64.3133 121.414L65.3168 122.592H63.7112V123.483H66.3491V122.592L65.3742 121.414L66.3491 120.207V119.345H63.7112ZM43.0667 120.609V119.345H40.3141V123.483H43.0667V122.161H42.2065V122.563H41.1743V120.207H42.2065V120.609H43.0667ZM87.1655 122.046V119.345H89.9182V123.483H89.0866V122.046H88.6279L87.9684 123.483H87.0222L87.739 122.046H87.1655ZM88.0257 121.241V120.207H89.058V121.241H88.0257Z" fill="white"/>
<path fill-rule="evenodd" clip-rule="evenodd" d="M0 92.5044H4.30093V104.545L10.0355 92.5044H14.3364V112.735H10.0355V100.637L4.30093 112.735H0.0286729L0 92.5044ZM16.6303 92.5044L16.6589 112.735H20.9599V106.643H30.1352V92.5044H16.6303ZM20.9312 96.8149V102.332H25.8629V96.8149H20.9312ZM32.3429 92.5044V112.735H36.6439V96.8149H41.5756V112.735H45.8765V92.5044H32.3429ZM47.1955 96.8149V92.5044H60.7291V96.8149H56.0841V112.735H51.7832V96.8149H47.1955ZM61.4746 112.735V92.5044H75.0082V112.735H61.4746ZM70.6785 96.8149H65.7755V108.396H70.6785V96.8149ZM77.302 92.5044L77.3307 112.735H81.6316V106.643H90.807V92.5044H77.302ZM81.6029 96.8149V102.332H86.5347V96.8149H81.6029ZM93.0147 112.735V92.5044H105V96.8437H97.3157V112.735H93.0147Z" fill="white"/>
<path fill-rule="evenodd" clip-rule="evenodd" d="M56.3421 29.8577H63.1663L52.4426 0L26.723 84.7453L98.4052 31.8693H53.1021L47.8836 49.3126L61.7039 39.6283H77.6174L38.0775 68.1928L52.586 20.2021L56.3421 29.8577ZM65.7754 58.6809L71.424 54.8589L81.6602 86.0097L54.7364 66.756L59.9835 62.9627L69.4169 69.5722L65.7754 58.6809ZM40.1993 31.8693L38.3355 38.8236H26.809L36.2997 45.9217L34.264 52.1576L6.47998 32.0992L40.1993 31.8693Z" fill="#D5C88E"/>
</svg>
