<svg width="124" height="131" viewBox="0 0 124 131" fill="none" xmlns="http://www.w3.org/2000/svg">
<rect y="4" width="124" height="124" rx="20" fill="white"/>
<mask id="mask0" mask-type="alpha" maskUnits="userSpaceOnUse" x="25" y="0" width="75" height="131">
<rect x="26.5" y="1.5" width="72" height="128" rx="8.5" fill="#F5F5F5" stroke="#282B30" stroke-width="3"/>
</mask>
<g mask="url(#mask0)">
<rect x="26.5" y="1.5" width="72" height="128" rx="8.5" fill="#F5F5F5" stroke="#282B30" stroke-width="3"/>
<path d="M43 3H82C82 5.76142 79.7614 8 77 8H48C45.2386 8 43 5.76142 43 3Z" fill="#282B30"/>
<rect x="32" y="14" width="61" height="15" rx="3" fill="#EAEAEA"/>
<mask id="mask1" mask-type="alpha" maskUnits="userSpaceOnUse" x="32" y="34" width="61" height="88">
<rect x="32" y="34" width="61" height="88" rx="5" fill="white"/>
</mask>
<g mask="url(#mask1)">
<rect x="32" y="34" width="61" height="88" rx="5" fill="white"/>
<path d="M30.623 127C31.1092 126.602 55 115.148 55 115.148L27.0945 100L27 124.397L30.623 127Z" fill="#EAEAEA"/>
<path d="M32.0233 100L27 97.9904C27.0226 92.4774 27.0449 87.0574 27.0671 81.7362C27.0722 80.4312 27.0773 79.1322 27.0824 77.8396L30.4572 77L53 89.4115L32.0233 100Z" fill="#EAEAEA"/>
<path d="M28 75L93 44.2875L28.5986 23L28 75Z" fill="#EAEAEA"/>
<path d="M69 117.416L104 137V111.398L91.3373 106L69 117.416Z" fill="#EAEAEA"/>
<path d="M32 127.722L52.3294 139L77 126.081L57.4007 116L32 127.722Z" fill="#EAEAEA"/>
<path d="M62 89.6335L91.3177 104L104.911 97.1321L105 87.5057L85.1943 78L62 89.6335Z" fill="#EAEAEA"/>
<path d="M33 101.081L61.6359 116L74.9128 108.868L75 98.8713L55.6549 89L33 101.081Z" fill="#EAEAEA"/>
<path d="M37 75.2994L60.8019 87L83 75.2994L60 65L37 75.2994Z" fill="#EAEAEA"/>
<path d="M85.6294 74L64 64.2816L94.1183 49L104 63.6914L85.6294 74Z" fill="#EAEAEA"/>
<path d="M71.2595 49C69.4622 49 68 50.4622 68 52.2594C68 54.4899 70.9169 57.7643 71.0411 57.9026C71.1577 58.0326 71.3614 58.0323 71.4778 57.9026C71.602 57.7643 74.5189 54.4899 74.5189 52.2594C74.5189 50.4622 73.0567 49 71.2595 49ZM71.2595 53.8994C70.3552 53.8994 69.6196 53.1637 69.6196 52.2594C69.6196 51.3552 70.3552 50.6195 71.2595 50.6195C72.1637 50.6195 72.8993 51.3552 72.8993 52.2595C72.8993 53.1637 72.1637 53.8994 71.2595 53.8994Z" fill="#FF8517"/>
<path d="M82.5327 150.999C82.5267 151.009 82.3856 150.937 82.1147 150.786C81.8414 150.63 81.4413 150.403 80.9166 150.104C79.8659 149.489 78.3197 148.585 76.3213 147.415C72.3288 145.047 66.5324 141.609 59.2983 137.318L58.9444 137.108L59.3114 136.919C65.6436 133.661 73.2205 129.762 81.6388 125.432L81.6333 125.952C76.4709 123.168 70.8479 120.136 64.9603 116.961L64.4327 116.677L64.9625 116.395C72.2097 112.546 80.0295 108.393 88.1235 104.095L88.1277 104.69C87.2542 104.243 86.3107 103.76 85.3643 103.275C65.9576 93.3133 48.0005 84.0957 33.4878 76.6461L33 76.3956L33.4925 76.1576C44.9734 70.618 54.4305 66.054 61.022 62.8734C64.3216 61.3013 66.9024 60.0715 68.6634 59.2322C69.5429 58.8231 70.2168 58.5097 70.6754 58.2965C70.9017 58.1962 71.0742 58.1194 71.1941 58.0663C71.3116 58.0169 71.3726 57.9947 71.3755 58.0011C71.3785 58.0075 71.3234 58.0418 71.2119 58.104C71.0958 58.1658 70.9292 58.2545 70.7105 58.3707C70.26 58.6006 69.5975 58.9381 68.7329 59.3789C66.9867 60.2486 64.4272 61.5235 61.1555 63.1534C54.5878 66.3847 45.165 71.0207 33.726 76.6482L33.7307 76.1602C48.259 83.5785 66.2357 92.7575 85.6635 102.677C86.61 103.162 87.5534 103.645 88.4265 104.093L89 104.386L88.4312 104.688C80.3317 108.978 72.5076 113.122 65.2566 116.962L65.2587 116.396C71.1374 119.588 76.7519 122.636 81.9062 125.435L82.3983 125.702L81.9007 125.955C73.46 130.242 65.8627 134.101 59.514 137.325L59.5276 136.926C66.7176 141.293 72.4788 144.792 76.4463 147.201C78.4189 148.416 79.9443 149.355 80.9814 149.994C81.4921 150.316 81.8812 150.562 82.1474 150.73C82.4076 150.899 82.5382 150.99 82.5327 150.999Z" fill="#F58429"/>
</g>
</g>
<path d="M38.5 17C36.7027 17 35.2405 18.4622 35.2405 20.2594C35.2405 22.4899 38.1574 25.7643 38.2816 25.9026C38.3983 26.0326 38.6019 26.0323 38.7184 25.9026C38.8426 25.7643 41.7595 22.4899 41.7595 20.2594C41.7594 18.4622 40.2973 17 38.5 17ZM38.5 21.8994C37.5958 21.8994 36.8601 21.1637 36.8601 20.2594C36.8601 19.3552 37.5958 18.6195 38.5 18.6195C39.4042 18.6195 40.1399 19.3552 40.1399 20.2595C40.1399 21.1637 39.4042 21.8994 38.5 21.8994Z" fill="#FF8517"/>
</svg>
