<svg width="142" height="131" viewBox="0 0 142 131" fill="none" xmlns="http://www.w3.org/2000/svg">
<rect x="17" width="124" height="124" rx="20" fill="white"/>
<path d="M70.8202 97.8389C73.4951 97.8145 78.976 107.624 78.5107 108.435C72.0256 115.629 46.694 116.368 46.694 116.368L43.6509 113.246C43.6509 113.246 58.7048 106.342 70.8202 97.8389Z" fill="#E3A20C"/>
<path d="M94.8351 75.3754C92.3722 82.7839 81.1773 107.534 78.5044 108.443L70.8139 97.8471C70.8139 97.8471 82.4577 71.8588 84.467 67.9864C87.9305 61.2699 98.8793 63.2878 94.8351 75.3754Z" fill="#E3A20C"/>
<path d="M94.1469 51.0843C94.1469 51.0843 93.0795 60.6496 92.6345 64.1687L105.126 67.349C106.733 56.6164 106.855 43.1445 106.855 43.1445L94.1469 51.0843Z" fill="#F9B299"/>
<path d="M96.0828 16.8073C96.0828 23.3288 101.369 28.6147 107.89 28.6147C114.411 28.6147 119.698 23.3288 119.698 16.8073C119.698 10.2859 114.411 5 107.89 5C101.369 5 96.0828 10.2859 96.0828 16.8073Z" fill="#282B30"/>
<path d="M77.8326 50.0633C72.2689 44.675 66.4252 22.0668 81.8768 15.2334C96.4992 8.768 114.949 17.8069 115.653 33.3331C116.357 48.8594 104.496 56.3971 104.496 56.3971L77.8326 50.0633Z" fill="#282B30"/>
<path d="M107.262 37.1278C107.879 48.6159 101.063 58.325 92.0394 58.8075C83.0159 59.2925 75.2009 50.3706 74.5843 38.8825C73.9677 27.3919 80.7831 17.6853 89.8069 17.2003C98.8307 16.7178 106.645 25.6397 107.262 37.1278Z" fill="#F9B299"/>
<path d="M79.376 40.5589C79.2262 41.4142 78.412 41.9845 77.5568 41.8358C76.7021 41.6848 76.1304 40.8708 76.2803 40.0154C76.4299 39.16 77.2446 38.5897 78.0995 38.7384C78.9544 38.8895 79.5259 39.7035 79.376 40.5589Z" fill="#282B30"/>
<path d="M92.0786 39.9718C91.9163 40.8979 91.0346 41.5144 90.109 41.3536C89.1839 41.1903 88.5652 40.3106 88.7272 39.3845C88.8893 38.4584 89.771 37.8394 90.6966 38.0027C91.6219 38.1635 92.241 39.0458 92.0786 39.9718Z" fill="#282B30"/>
<path d="M93.4715 38.0647C93.3441 38.0428 93.2224 37.977 93.1303 37.8722C91.7897 36.3515 89.4792 36.6658 89.4558 36.6683C89.1334 36.7146 88.8329 36.4904 88.7856 36.1687C88.7386 35.8446 88.9603 35.5448 89.2828 35.4985C89.4029 35.479 92.2459 35.0818 94.0176 37.0899C94.2338 37.336 94.2102 37.7089 93.9653 37.9258C93.8249 38.0501 93.6423 38.094 93.4715 38.0647Z" fill="#282B30"/>
<path d="M75.4477 39.3265C75.3851 39.3167 75.3232 39.2948 75.2647 39.2631C74.9783 39.1047 74.8738 38.744 75.0312 38.4589C76.2539 36.2363 78.5966 36.3119 78.6955 36.3168C79.0214 36.3289 79.275 36.6067 79.2609 36.9333C79.2468 37.2574 78.9724 37.5109 78.647 37.4987C78.57 37.4963 76.9277 37.4646 76.0682 39.0292C75.9429 39.2558 75.69 39.3679 75.4477 39.3265Z" fill="#282B30"/>
<path d="M81.32 43.5414C80.746 44.638 80.2808 45.7274 79.6394 46.4609C79.4232 46.707 79.443 47.0872 79.6791 47.3139C80.6522 48.2545 82.7897 48.6323 84.075 48.7809C84.2627 48.8004 84.3345 48.5421 84.1632 48.4642C82.711 47.794 81.9953 47.1993 81.6663 46.8508C81.5027 46.6778 81.4345 46.439 81.4771 46.205C81.5746 45.6689 81.7623 44.5771 81.8466 43.6949C81.8756 43.3903 81.462 43.2708 81.32 43.5414Z" fill="#282B30"/>
<path d="M88.7573 53.8303C92.8576 52.6142 93.8137 49.5582 93.8617 49.3973C93.964 49.0513 93.7664 48.6882 93.4203 48.5858C93.0755 48.4835 92.7133 48.6784 92.6098 49.0221C92.5564 49.1951 91.2765 53.0797 84.8981 53.0188C84.5371 53.0139 84.242 53.3039 84.2386 53.6646C84.2352 54.0253 84.5247 54.3226 84.8854 54.325C86.4146 54.3396 87.6921 54.1471 88.7573 53.8303Z" fill="#282B30"/>
<path d="M108.553 37.0792C98.0976 38.7169 79.632 31.6764 76.9169 26.7633C76.9866 19.869 86.4074 13.618 93.1278 14.8049C99.8483 15.9941 110.453 27.8673 108.553 37.0792Z" fill="#282B30"/>
<path d="M103.232 36.3854C101.657 38.586 101.841 41.4154 103.642 42.7022C105.443 43.9914 108.179 43.2505 109.753 41.0523C111.327 38.8517 111.143 36.0223 109.343 34.7331C107.542 33.4464 104.806 34.1848 103.232 36.3854Z" fill="#F9B299"/>
<path d="M106.019 41.4246C105.931 41.4075 105.846 41.3734 105.769 41.3174C104.673 40.5034 104.25 39.3507 104.638 38.2321C105.036 37.0867 106.167 36.2801 107.327 36.3166C107.654 36.3264 107.91 36.5993 107.9 36.9259C107.89 37.2524 107.618 37.5083 107.291 37.4986C106.655 37.4791 105.981 37.9713 105.756 38.6196C105.54 39.2435 105.795 39.8625 106.473 40.3669C106.736 40.5595 106.791 40.9299 106.597 41.1931C106.459 41.3783 106.232 41.4612 106.019 41.4246Z" fill="#282B30"/>
<path d="M105.664 63.1628L92.5321 63.0166C86.5068 70.0255 80.3892 76.0449 79.3079 80.8312C77.8842 87.1309 78.1491 121.169 78.1491 121.169C89.1963 125.212 101.542 121.61 109.591 118.62C107.571 101.868 121.025 83.0391 113.197 70.2935C111.244 67.1132 108.641 65.5998 105.664 63.1628Z" fill="#FFB800"/>
<path d="M79.6768 123.944H37.1444L28.7489 97.2509C28.3614 96.0178 29.2826 94.7627 30.5742 94.7627H69.095C69.9306 94.7627 70.6698 95.3062 70.9203 96.1031L79.6768 123.944Z" fill="#335863"/>
<path d="M76.4622 123.944H35.7571C34.6702 123.944 33.71 123.239 33.3834 122.204L25.5362 97.2509C25.1487 96.0178 26.0675 94.7627 27.3616 94.7627H65.8804C66.7163 94.7627 67.4549 95.3062 67.7059 96.1031L76.4622 123.944Z" fill="#282B30"/>
<path d="M51.4148 109.873C51.8832 111.523 51.0493 113.204 49.5522 113.628C48.0549 114.055 46.4611 113.063 45.9927 111.413C45.5241 109.766 46.3583 108.084 47.8556 107.658C49.3529 107.233 50.9464 108.225 51.4148 109.873Z" fill="#335863"/>
<path d="M99.3763 119.987H76.4527V123.874H102.394V123.007C102.394 121.34 101.043 119.987 99.3763 119.987Z" fill="#335863"/>
<path d="M81.4073 121.931C84.4524 121.905 88.4522 122.485 88.3579 120.908C88.2636 119.329 86.6951 118.749 86.505 116.855C86.3367 115.174 91.9832 115.605 95.5537 121.154L96.6053 120.574L99.6257 125.714L97.7156 126.42C94.4873 130.303 84.755 132.289 79.0334 129.26C73.2399 126.191 78.3625 121.956 81.4073 121.931Z" fill="#F9B299"/>
<path d="M117.82 72.2072C121.572 80.4565 135.39 99.185 132.376 109.55C130.265 116.807 99.0071 127.425 99.0071 127.425L96.0374 119.856L117.758 103.694C117.758 103.694 105.081 78.9748 103.764 74.2982C101.46 66.122 111.921 59.2374 117.82 72.2072Z" fill="#E3A20C"/>
<path d="M106.501 58.4023L106.198 63.5664H92.5447V59.4381C92.5447 59.4381 101.683 59.0676 106.501 58.4023Z" fill="#E3A20C"/>
<g clip-path="url(#clip0)">
<path d="M8.61192 41.293H45.2799C47.5572 41.293 49.4033 43.14 49.4033 45.4166V65.994C49.4033 68.2707 47.5572 70.1156 45.2799 70.1156H44.0848L39.8357 78.1206C39.2836 79.1612 37.8091 79.2039 37.1978 78.198L32.2859 70.1156H8.61192C6.33526 70.1156 4.49032 68.2707 4.49032 65.994V45.4166C4.49032 43.14 6.33526 41.293 8.61192 41.293Z" fill="#282B30"/>
<path d="M27.7147 36.6863C29.0465 36.6863 30.126 35.607 30.126 34.2752V26.9423C30.126 25.6105 29.0465 24.5312 27.7147 24.5312C26.3829 24.5312 25.3032 25.6105 25.3032 26.9423V34.2752C25.3032 35.607 26.3829 36.6863 27.7147 36.6863Z" fill="#282B30"/>
<path d="M18.9804 35.9651C19.9232 35.0243 19.9232 33.4971 18.9804 32.5542L13.7958 27.3697C12.855 26.4289 11.3277 26.4289 10.3849 27.3697C9.44409 28.3125 9.44409 29.8377 10.3849 30.7806L15.5715 35.9651C16.5123 36.908 18.0396 36.908 18.9804 35.9651Z" fill="#282B30"/>
<path d="M36.4583 35.9651C35.5166 35.0243 35.5166 33.4971 36.4583 32.5542L41.6435 27.3697C42.5851 26.4289 44.1117 26.4289 45.0536 27.3697C45.9952 28.3125 45.9952 29.8377 45.0536 30.7806L39.8684 35.9651C38.9267 36.908 37.4001 36.908 36.4583 35.9651Z" fill="#282B30"/>
<path d="M10.8348 39.543H47.5016C49.7788 39.543 51.625 41.39 51.625 43.6666V64.242C51.625 66.5207 49.7788 68.3657 47.5016 68.3657H46.3064L42.0573 76.3706C41.5053 77.4112 40.031 77.4539 39.4194 76.448L34.5077 68.3657H10.8348C8.55815 68.3657 6.71117 66.5207 6.71117 64.242V43.6666C6.71117 41.39 8.55815 39.543 10.8348 39.543Z" fill="white"/>
<path d="M13.9695 45.9828L13.9573 62.0558C13.9573 62.6687 14.4522 63.1656 15.0651 63.1656L43.0004 63.1839C43.6121 63.1839 44.1081 62.6891 44.1086 62.0762L44.1191 46.0031C44.1195 45.3902 43.6241 44.8933 43.0124 44.8933L15.0773 44.875C14.4644 44.875 13.9695 45.3698 13.9695 45.9828Z" fill="#EE8129"/>
<path d="M13.9696 45.9828L13.9675 46.8706L26.6901 56.022C27.9254 56.9466 29.6186 56.9628 30.8706 56.0607L44.1187 46.5102L44.1191 46.0031C44.1195 45.3902 43.6237 44.8933 43.0114 44.8933L15.0773 44.875C14.4664 44.875 13.9696 45.3698 13.9696 45.9828Z" fill="#FD9038"/>
<path d="M29.3553 35.1551C30.6871 35.1551 31.7666 34.0758 31.7666 32.744V25.411C31.7666 24.0793 30.6871 23 29.3553 23C28.0236 23 26.9439 24.0793 26.9439 25.411V32.744C26.9439 34.0758 28.0236 35.1551 29.3553 35.1551Z" fill="white"/>
<path d="M20.6157 34.4612C21.5565 33.5184 21.5565 31.9932 20.6157 31.0503L15.4291 25.8658C14.4883 24.925 12.961 24.925 12.0202 25.8658C11.0774 26.8066 11.0774 28.3338 12.0202 29.2767L17.2048 34.4612C18.1456 35.402 19.6729 35.402 20.6157 34.4612Z" fill="white"/>
<path d="M38.0921 34.4612C37.1504 33.5184 37.1504 31.9932 38.0921 31.0503L43.2773 25.8658C44.2189 24.925 45.7455 24.925 46.6873 25.8658C47.629 26.8066 47.629 28.3338 46.6873 29.2767L41.5021 34.4612C40.5605 35.402 39.0339 35.402 38.0921 34.4612Z" fill="white"/>
</g>
<defs>
<clipPath id="clip0">
<rect width="56" height="56" fill="white" transform="matrix(-1 0 0 1 56 23)"/>
</clipPath>
</defs>
</svg>
