<svg width="124" height="131" viewBox="0 0 124 131" fill="none" xmlns="http://www.w3.org/2000/svg">
<rect y="4" width="124" height="124" rx="20" fill="white"/>
<mask id="mask0" mask-type="alpha" maskUnits="userSpaceOnUse" x="25" y="0" width="75" height="131">
<rect x="26.5" y="1.5" width="72" height="128" rx="8.5" fill="#F5F5F5" stroke="#282B30" stroke-width="3"/>
</mask>
<g mask="url(#mask0)">
<rect x="26.5" y="1.5" width="72" height="128" rx="8.5" fill="#F5F5F5" stroke="#282B30" stroke-width="3"/>
<path d="M43 3H82C82 5.76142 79.7614 8 77 8H48C45.2386 8 43 5.76142 43 3Z" fill="#282B30"/>
<rect x="33" y="16" width="59" height="107" rx="5" fill="#EAEAEA"/>
</g>
<g clip-path="url(#clip0)">
<path d="M71.8792 64.531C72.4504 62.5841 74.237 61.2472 76.2659 61.2483L76.4365 61.2484L75.0042 67.3161L71.8792 64.531Z" fill="#FF8517"/>
<path d="M79.9099 71.7615L77.6316 71.4763C76.0073 67.0057 71.7217 63.8124 66.6899 63.8124H58.0913C51.6637 63.8124 46.4531 69.0229 46.4531 75.4506C46.4531 79.8705 48.917 83.7149 52.5463 85.6853V88.7344C52.5463 89.554 53.2108 90.2185 54.0304 90.2185H58.5622C59.3818 90.2185 60.0462 89.554 60.0462 88.7344V87.0887H66.6098V88.7344C66.6098 89.554 67.2743 90.2185 68.0939 90.2185H72.6257C73.4453 90.2185 74.1097 89.554 74.1097 88.7344V84.4162C75.8203 82.9988 77.1189 81.1016 77.7985 78.9306L79.9096 78.6663C80.6574 78.5727 81.2185 77.9369 81.2185 77.1833V73.2445C81.2187 72.4909 80.6576 71.8551 79.9099 71.7615Z" fill="#FF8517"/>
<path d="M58.5626 60.5353C59.9433 60.5353 61.0625 59.416 61.0625 58.0353C61.0625 56.6546 59.9433 55.5353 58.5626 55.5353C57.1818 55.5353 56.0626 56.6546 56.0626 58.0353C56.0626 59.416 57.1818 60.5353 58.5626 60.5353Z" fill="#FFCA3B"/>
<path d="M64.9093 68.344C66.29 68.344 67.4093 67.2247 67.4093 65.844C67.4093 64.4633 66.29 63.344 64.9093 63.344C63.5286 63.344 62.4093 64.4633 62.4093 65.844C62.4093 67.2247 63.5286 68.344 64.9093 68.344Z" fill="#FFCA3B"/>
<path d="M80.0069 70.9866L78.1921 70.7593C77.6404 69.4095 76.8477 68.1609 75.8626 67.0806L77.1969 61.4279C77.2517 61.1956 77.1974 60.951 77.0492 60.7638C76.9011 60.5766 76.6756 60.4674 76.4369 60.4672L76.2662 60.4672C76.2652 60.4672 76.2645 60.4672 76.2634 60.4672C74.0485 60.4672 72.0524 61.8608 71.2672 63.9048C70.7119 63.6841 70.141 63.5023 69.5589 63.3646C69.1389 63.2653 68.7181 63.525 68.6188 63.945C68.5195 64.365 68.7793 64.7858 69.1992 64.8851C71.1879 65.3555 72.9619 66.3611 74.3602 67.7567C74.4113 67.8315 74.4749 67.8978 74.5498 67.9514C75.5691 69.0212 76.3748 70.3048 76.8974 71.7432C76.9975 72.0189 77.2437 72.2153 77.5346 72.2517L79.8129 72.5369C80.1691 72.5815 80.4376 72.8858 80.4376 73.2447V77.1835C80.4376 77.5424 80.169 77.8467 79.8129 77.8913L77.7017 78.1556C77.3981 78.1936 77.1445 78.4054 77.0531 78.6975C76.4268 80.6987 75.2368 82.4683 73.6116 83.8149C73.4324 83.9633 73.3288 84.1838 73.3288 84.4164V88.7347C73.3288 89.1223 73.0135 89.4376 72.626 89.4376H68.0942C67.7066 89.4376 67.3913 89.1223 67.3913 88.7347V87.0889C67.3913 86.6574 67.0414 86.3077 66.61 86.3077H60.0464C59.615 86.3077 59.2652 86.6574 59.2652 87.0889V88.7347C59.2652 89.1223 58.9499 89.4376 58.5623 89.4376H54.0304C53.6429 89.4376 53.3276 89.1223 53.3276 88.7347V85.6856C53.3276 85.3991 53.1708 85.1356 52.9191 84.999C49.4126 83.0952 47.2344 79.4366 47.2344 75.4508C47.2344 69.4643 52.1048 64.5939 58.0913 64.5939H59.0703C59.5017 64.5939 59.8515 64.2441 59.8515 63.8126C59.8515 63.3811 59.5017 63.0314 59.0703 63.0314H58.0913C52.2919 63.0314 47.4087 67.0272 46.049 72.4103H45.4766C44.4211 72.4103 43.5625 71.5516 43.5625 70.4962C43.5625 69.4408 44.4211 68.5821 45.4766 68.5821C45.908 68.5821 46.2578 68.2324 46.2578 67.8009C46.2578 67.3694 45.908 67.0197 45.4766 67.0197C43.5596 67.0197 42 68.5792 42 70.4962C42 72.4132 43.5596 73.9728 45.4766 73.9728H45.7602C45.7024 74.4576 45.6719 74.9507 45.6719 75.4508C45.6719 79.8531 47.9948 83.9064 51.7651 86.1404V88.7348C51.7651 89.9839 52.7813 91.0002 54.0304 91.0002H58.5622C59.8113 91.0002 60.8275 89.9839 60.8275 88.7348V87.8702H65.8286V88.7348C65.8286 89.9839 66.8449 91.0002 68.094 91.0002H72.6258C73.8749 91.0002 74.8911 89.9839 74.8911 88.7348V84.7766C76.4774 83.3816 77.6744 81.6218 78.3828 79.6451L80.0068 79.4417C81.143 79.2996 81.9999 78.3287 81.9999 77.1835V73.2447C81.9999 72.0996 81.1431 71.1288 80.0069 70.9866ZM75.4269 62.1245L74.5505 65.8374C73.9677 65.3607 73.3435 64.9383 72.6869 64.5757C73.1185 63.3354 74.1713 62.4126 75.4269 62.1245Z" fill="#282B30"/>
<path d="M73.0992 71.9428C73.2445 71.7975 73.3282 71.596 73.3282 71.3905C73.3282 71.185 73.2446 70.9835 73.0992 70.8382C72.9539 70.6928 72.7524 70.6093 72.5469 70.6093C72.3414 70.6093 72.1399 70.6928 71.9946 70.8382C71.8492 70.9835 71.7657 71.185 71.7657 71.3905C71.7657 71.596 71.8492 71.7975 71.9946 71.9428C72.14 72.0882 72.3414 72.1717 72.5469 72.1717C72.7524 72.1717 72.9539 72.0882 73.0992 71.9428Z" fill="#282B30"/>
<path d="M64.9095 55.5573C64.4781 55.5573 64.1282 55.907 64.1282 56.3385V59.4373C64.1282 59.8688 64.4781 60.2186 64.9095 60.2186C65.3409 60.2186 65.6907 59.8688 65.6907 59.4373V56.3385C65.6907 55.9071 65.341 55.5573 64.9095 55.5573Z" fill="#282B30"/>
<path d="M64.9093 54.2854C65.1148 54.2854 65.3164 54.2018 65.4616 54.0565C65.6069 53.9112 65.6906 53.7096 65.6906 53.5041C65.6906 53.2987 65.607 53.0979 65.4616 52.9518C65.3164 52.8065 65.1148 52.7229 64.9093 52.7229C64.7038 52.7229 64.5023 52.8065 64.357 52.9518C64.2117 53.0971 64.1281 53.2987 64.1281 53.5041C64.1281 53.7104 64.2116 53.9112 64.357 54.0565C64.5024 54.2018 64.7038 54.2854 64.9093 54.2854Z" fill="#282B30"/>
<path d="M58.5626 53.8906C58.994 53.8906 59.3438 53.5409 59.3438 53.1094V51.7812C59.3438 51.3498 58.994 51 58.5626 51C58.1312 51 57.7813 51.3498 57.7813 51.7812V53.1094C57.7813 53.5409 58.1312 53.8906 58.5626 53.8906Z" fill="#282B30"/>
<path d="M50.1251 76.2687C50.5565 76.266 50.9042 75.914 50.9015 75.4825L50.9015 75.4508C50.9015 75.0193 50.5516 74.6696 50.1202 74.6696C49.6888 74.6696 49.339 75.0193 49.339 75.4508L49.339 75.4923C49.3417 75.9221 49.691 76.2687 50.1202 76.2687C50.1218 76.2687 50.1233 76.2687 50.1251 76.2687Z" fill="#282B30"/>
<path d="M53.5474 82.9323C53.6743 83.0095 53.8144 83.0463 53.9527 83.0463C54.2164 83.0463 54.4738 82.9128 54.6209 82.671C54.8452 82.3024 54.7282 81.8218 54.3596 81.5975C53.0016 80.771 51.9415 79.5013 51.3748 78.0221C51.2203 77.6191 50.7685 77.4176 50.3657 77.5722C49.9628 77.7265 49.7613 78.1782 49.9157 78.5812C50.6055 80.3817 51.8953 81.927 53.5474 82.9323Z" fill="#282B30"/>
<path d="M58.5626 61.3165C60.3718 61.3165 61.8438 59.8446 61.8438 58.0353C61.8438 56.226 60.3718 54.754 58.5626 54.754C56.7533 54.754 55.2813 56.226 55.2813 58.0353C55.2813 59.8446 56.7533 61.3165 58.5626 61.3165ZM58.5626 56.3165C59.5103 56.3165 60.2813 57.0875 60.2813 58.0353C60.2813 58.983 59.5103 59.754 58.5626 59.754C57.6148 59.754 56.8438 58.983 56.8438 58.0353C56.8438 57.0875 57.6148 56.3165 58.5626 56.3165Z" fill="#282B30"/>
<path d="M62.1159 67.5624H58.2501C57.8187 67.5624 57.4688 67.9121 57.4688 68.3436C57.4688 68.7751 57.8187 69.1249 58.2501 69.1249H68.4063C68.8377 69.1249 69.1875 68.7751 69.1875 68.3436C69.1875 67.9121 68.8377 67.5624 68.4063 67.5624H67.7032C68.0121 67.0621 68.1908 66.4735 68.1908 65.8436C68.1908 64.0343 66.7189 62.5624 64.9096 62.5624C63.1003 62.5624 61.6283 64.0343 61.6283 65.8436C61.6283 66.4735 61.807 67.0621 62.1159 67.5624ZM64.9095 64.1249C65.8572 64.1249 66.6282 64.8959 66.6282 65.8436C66.6282 66.7914 65.8572 67.5624 64.9095 67.5624C63.9618 67.5624 63.1907 66.7914 63.1907 65.8436C63.1907 64.8959 63.9617 64.1249 64.9095 64.1249Z" fill="#282B30"/>
</g>
<defs>
<clipPath id="clip0">
<rect width="40" height="40" fill="white" transform="translate(42 51)"/>
</clipPath>
</defs>
</svg>
