<svg width="124" height="131" viewBox="0 0 124 131" fill="none" xmlns="http://www.w3.org/2000/svg">
<rect y="4" width="124" height="124" rx="20" fill="white"/>
<mask id="mask0" mask-type="alpha" maskUnits="userSpaceOnUse" x="25" y="0" width="75" height="131">
<rect x="26.5" y="1.5" width="72" height="128" rx="8.5" fill="#F5F5F5" stroke="#282B30" stroke-width="3"/>
</mask>
<g mask="url(#mask0)">
<rect x="26.5" y="1.5" width="72" height="128" rx="8.5" fill="#F5F5F5" stroke="#282B30" stroke-width="3"/>
<path d="M43 3H82V3C82 5.76142 79.7614 8 77 8H48C45.2386 8 43 5.76142 43 3V3Z" fill="#282B30"/>
<path d="M32 97C32 94.2386 34.2386 92 37 92H56C58.7614 92 61 94.2386 61 97V123C61 125.761 58.7614 128 56 128H37C34.2386 128 32 125.761 32 123V97Z" fill="#EAEAEA"/>
<path d="M64 97C64 94.2386 66.2386 92 69 92H88C90.7614 92 93 94.2386 93 97V123C93 125.761 90.7614 128 88 128H69C66.2386 128 64 125.761 64 123V97Z" fill="#EAEAEA"/>
<rect x="32" y="52" width="29" height="36" rx="5" fill="#EAEAEA"/>
</g>
<g clip-path="url(#clip0)">
<path d="M45.8292 113.736C45.7337 113.832 45.6035 113.885 45.4682 113.885C45.3329 113.885 45.2027 113.832 45.1072 113.736L42.2244 110.853C41.9252 110.553 41.9252 110.068 42.2244 109.77L42.5854 109.409C42.8846 109.109 43.3692 109.109 43.6684 109.409L45.4682 111.208L50.3316 106.345C50.6309 106.046 51.1159 106.046 51.4146 106.345L51.7756 106.706C52.0748 107.005 52.0748 107.49 51.7756 107.789L45.8292 113.736Z" fill="black"/>
</g>
<rect x="64" y="52" width="29" height="36" rx="5" fill="#EAEAEA"/>
<g clip-path="url(#clip1)">
<path d="M77.8292 73.7359C77.7337 73.8319 77.6035 73.8855 77.4682 73.8855C77.3329 73.8855 77.2027 73.8319 77.1072 73.7359L74.2244 70.8526C73.9252 70.5534 73.9252 70.0682 74.2244 69.7696L74.5854 69.4086C74.8846 69.1094 75.3692 69.1094 75.6684 69.4086L77.4682 71.2085L82.3316 66.345C82.6309 66.0458 83.1159 66.0458 83.4146 66.345L83.7756 66.7061C84.0748 67.0052 84.0748 67.4903 83.7756 67.789L77.8292 73.7359Z" fill="black"/>
</g>
<g clip-path="url(#clip2)">
<path d="M44.8292 73.7359C44.7337 73.8319 44.6035 73.8855 44.4682 73.8855C44.3329 73.8855 44.2027 73.8319 44.1072 73.7359L41.2244 70.8526C40.9252 70.5534 40.9252 70.0682 41.2244 69.7696L41.5854 69.4086C41.8846 69.1094 42.3692 69.1094 42.6684 69.4086L44.4682 71.2085L49.3316 66.345C49.6309 66.0458 50.1159 66.0458 50.4146 66.345L50.7756 66.7061C51.0748 67.0052 51.0748 67.4903 50.7756 67.789L44.8292 73.7359Z" fill="#A5A7A8"/>
</g>
<g clip-path="url(#clip3)">
<path d="M76.8292 113.736C76.7337 113.832 76.6035 113.885 76.4682 113.885C76.3329 113.885 76.2027 113.832 76.1072 113.736L73.2244 110.853C72.9252 110.553 72.9252 110.068 73.2244 109.77L73.5854 109.409C73.8846 109.109 74.3692 109.109 74.6684 109.409L76.4682 111.208L81.3316 106.345C81.6309 106.046 82.1159 106.046 82.4146 106.345L82.7756 106.706C83.0748 107.005 83.0748 107.49 82.7756 107.789L76.8292 113.736Z" fill="#A5A7A8"/>
</g>
<mask id="mask1" mask-type="alpha" maskUnits="userSpaceOnUse" x="32" y="14" width="54" height="35">
<rect x="32" y="14" width="54" height="35" rx="5" fill="#FF8517"/>
</mask>
<g mask="url(#mask1)">
<rect x="32" y="14" width="54" height="35" rx="5" fill="#FF8517"/>
<circle cx="76.5" cy="19.5" r="20.5" fill="#FD9038"/>
</g>
<path d="M90 19C90 16.2386 92.2386 14 95 14H97V49H95C92.2386 49 90 46.7614 90 44V19Z" fill="#FF8517"/>
<defs>
<clipPath id="clip0">
<rect width="10" height="10" fill="white" transform="translate(42 105)"/>
</clipPath>
<clipPath id="clip1">
<rect width="10" height="10" fill="white" transform="translate(74 65)"/>
</clipPath>
<clipPath id="clip2">
<rect width="10" height="10" fill="white" transform="translate(41 65)"/>
</clipPath>
<clipPath id="clip3">
<rect width="10" height="10" fill="white" transform="translate(73 105)"/>
</clipPath>
</defs>
</svg>
