<svg width="124" height="125" viewBox="0 0 124 125" fill="none" xmlns="http://www.w3.org/2000/svg">
<rect width="124" height="124" rx="20" fill="white"/>
<path d="M78.7188 35.1331C78.7188 35.1331 85.8624 14.1832 72.2303 7.68847C58.5974 1.193 47.0222 10.5817 44.8357 15.6621C42.6493 20.7418 43.2288 29.9802 45.0931 36.421C46.959 42.8625 46.687 52.6704 42.6354 55.949C38.5846 59.2283 33.5612 64.6756 33.8093 75.7621C33.9642 82.6414 60.8779 58.167 60.8779 58.167L78.7188 35.1331Z" fill="#282B30"/>
<path d="M59.5636 60.1034C59.5636 60.1034 48.3583 62.5858 43.9114 65.1862C39.4637 67.7842 29.5872 79.7401 29.5872 84.8814C29.5872 90.0212 72.7795 94.825 72.7795 94.825L80.9659 124.713C80.9659 124.713 102.798 119.386 105.397 114.967C107.997 110.548 97.1052 78.8823 95.2416 72.4739C93.3403 65.9361 85.5154 61.3774 76.418 60.1034C67.3222 58.8287 59.5636 60.1034 59.5636 60.1034Z" fill="#FFB800"/>
<path d="M75.6411 59.9783C75.6411 59.9783 75.389 73.5973 64.5884 74.0011C53.7878 74.4058 56.036 60.9385 56.036 60.9385C56.036 60.9385 63.9364 57.7386 75.6411 59.9783Z" fill="#F9B299"/>
<path d="M80.2121 18.8887C80.2121 18.8887 84.0332 40.7928 73.1525 56.616C61.8841 73.0019 80.2121 18.8887 80.2121 18.8887Z" fill="#252E3B"/>
<path d="M73.3248 50.3588C73.3248 50.3588 72.5734 56.8735 73.8266 60.9251C75.082 64.9759 57.312 65.0884 57.3236 61.7567C57.3343 57.9725 59.1401 54.8111 57.4384 48.3249C55.7375 41.8387 73.3248 50.3588 73.3248 50.3588Z" fill="#F9B299"/>
<path d="M59.5399 51.2063C59.5399 51.2063 65.1506 57.0513 72.3251 51.8167C72.3251 51.8167 71.7316 55.5523 66.5718 56.0355C61.4119 56.5172 59.5399 51.2063 59.5399 51.2063Z" fill="#F79570"/>
<path d="M66.5669 11.3143C66.5669 11.3143 80.7454 15.51 78.72 35.1868C76.6946 54.8628 67.4347 53.8501 66.5669 53.995C65.699 54.1399 54.7035 54.8628 51.2307 30.9911C47.7594 7.11864 66.5669 11.3143 66.5669 11.3143Z" fill="#F9B299"/>
<path d="M62.9067 20.0585C62.9067 20.0585 70.6114 32.3142 78.7199 35.1573C78.7199 35.1573 83.1476 14.5927 64.8612 10.2845C46.574 5.97626 49.4387 31.0549 50.8036 37.743C50.8036 37.743 54.6108 27.9042 62.9067 20.0585Z" fill="#282B30"/>
<path d="M80.4531 79.9795L85.2607 124.682H21.9746L17.167 79.9795H80.4531Z" fill="#282B30"/>
<path d="M20.3923 122.614H83.1235L78.3744 78.4633H15.6432L20.3923 122.614ZM83.737 123.167H19.8967L15.029 77.9115H78.8708L83.737 123.167Z" fill="#282B30"/>
<path d="M55.1399 101.588C55.7087 104.37 54.4108 106.983 52.2428 107.425C50.0741 107.869 47.8552 105.975 47.2864 103.193C46.7184 100.412 48.0163 97.799 50.1835 97.355C52.353 96.9119 54.5719 98.8078 55.1399 101.588Z" fill="white"/>
<path d="M91.0864 120.214H79.277V124.707H91.0864V120.214Z" fill="#282B30"/>
<path d="M69.4006 49.0441C69.5939 48.9999 69.8771 48.9653 69.9741 49.0617C70.0091 49.0966 70.0019 49.138 69.9912 49.1765C69.7637 50.0399 68.3663 50.7918 66.6728 50.9623C64.9801 51.1332 63.1169 50.7098 62.2481 49.9572C61.6303 49.4215 62.2195 49.3886 63.4265 49.6062C64.6634 49.8289 65.9174 49.9365 67.2314 49.8563C67.9789 49.8102 68.7129 49.1999 69.4006 49.0441Z" fill="#282B30"/>
<path d="M66 51V50.5264C71.8144 50.5264 75.9868 49.1909 78.4005 46.5573C80.7493 43.995 80.5184 41.0721 80.5162 41.0424L80.9885 41C80.9996 41.1264 81.2455 44.1482 78.7588 46.8681C76.252 49.6096 71.9589 51 66 51Z" fill="#FF8517"/>
<path d="M68 49.9997C68 51.1049 67.1047 52 65.9993 52C64.894 52 64 51.1049 64 49.9997C64 48.8951 64.894 48 65.9993 48C67.1047 48 68 48.8951 68 49.9997Z" fill="#FF8517"/>
<path d="M82 31H81.2909V23.2705C81.2909 14.6841 74.2075 7.69922 65.5007 7.69922C56.7933 7.69922 49.7091 14.6841 49.7091 23.2705V31H49V23.2705C49 14.2986 56.4023 7 65.5007 7C74.5984 7 82 14.2986 82 23.2705V31Z" fill="#FF8517"/>
<path d="M82 31H79V41H82V31Z" fill="#FF8517"/>
<path d="M51 31H48V41H51V31Z" fill="#FF8517"/>
<path d="M58.2628 38.3982C58.2443 38.9231 58.6736 39.3716 59.2216 39.4009C59.768 39.4302 60.2274 39.0294 60.2459 38.5046C60.2644 37.9797 59.8351 37.5304 59.2886 37.5011C58.7407 37.4719 58.2813 37.8734 58.2628 38.3982Z" fill="#0C2B34"/>
<path d="M57.3071 37.3046C57.4296 37.4341 58.1833 36.8769 59.2531 36.8792C60.3213 36.8669 61.1066 37.4172 61.2222 37.2861C61.2793 37.2283 61.1536 36.9941 60.8122 36.7451C60.4754 36.4977 59.902 36.2565 59.2354 36.2588C58.5695 36.2627 58.0084 36.5085 57.687 36.7598C57.3572 37.0118 57.2462 37.2461 57.3071 37.3046Z" fill="#0C2B34"/>
<path d="M68.3511 38.6933C68.3326 39.2181 68.7619 39.6667 69.3099 39.696C69.8571 39.7253 70.3156 39.3245 70.3349 38.7996C70.3526 38.2748 69.9241 37.8255 69.3769 37.7962C68.8289 37.7669 68.3696 38.1677 68.3511 38.6933Z" fill="#0C2B34"/>
<path d="M67.8236 37.4813C67.9461 37.6107 68.6998 37.0535 69.7688 37.0558C70.8378 37.0435 71.6231 37.5938 71.7395 37.4628C71.7958 37.405 71.6717 37.1707 71.3287 36.9217C70.9919 36.6743 70.4185 36.4331 69.7519 36.4362C69.086 36.44 68.5249 36.6851 68.202 36.9364C67.8752 37.1884 67.7627 37.4227 67.8236 37.4813Z" fill="#0C2B34"/>
<path d="M67.5487 33.0435C67.679 33.2493 69.0015 33.1514 70.5553 33.2586C72.1128 33.348 73.366 33.6077 73.5718 33.4235C73.6643 33.3349 73.4462 33.1414 72.939 32.9426C72.4373 32.7445 71.6358 32.5557 70.7032 32.4964C69.7699 32.4385 68.916 32.5226 68.3503 32.6536C67.78 32.7854 67.4925 32.9464 67.5487 33.0435Z" fill="#0C2B34"/>
<path d="M55.9106 33.8363C56.1919 34.0043 57.2901 33.8293 58.6119 33.8216C59.9329 33.7916 61.0527 33.9341 61.3109 33.7584C61.4242 33.6729 61.2469 33.5049 60.7583 33.3453C60.2766 33.1866 59.4704 33.0571 58.5618 33.0694C57.6539 33.0833 56.8663 33.2359 56.4069 33.4078C55.9406 33.5804 55.7865 33.7538 55.9106 33.8363Z" fill="#0C2B34"/>
<path d="M65.0258 45.5353C65.0304 45.5068 64.3661 45.4536 63.2879 45.3897C63.0151 45.3766 62.7569 45.3511 62.7106 45.2648C62.6459 45.1731 62.7607 45.0367 62.8933 44.8887C63.1492 44.582 63.4181 44.2606 63.701 43.9238C64.8223 42.5496 65.6346 41.419 65.5152 41.399C65.395 41.3782 64.3892 42.4756 63.2671 43.8498C62.9973 44.1889 62.7391 44.5118 62.4933 44.8209C62.39 44.965 62.212 45.1284 62.3515 45.3188C62.4255 45.4135 62.6258 45.4821 62.8008 45.5037C62.9757 45.5284 63.1291 45.5299 63.2648 45.5338C64.3491 45.5608 65.0219 45.5631 65.0258 45.5353Z" fill="#0C2B34"/>
</svg>
