<svg width="124" height="131" viewBox="0 0 124 131" fill="none" xmlns="http://www.w3.org/2000/svg">
<rect y="4" width="124" height="124" rx="20" fill="white"/>
<mask id="mask0" mask-type="alpha" maskUnits="userSpaceOnUse" x="25" y="0" width="75" height="131">
<rect x="26.5" y="1.5" width="72" height="128" rx="8.5" fill="#F5F5F5" stroke="#282B30" stroke-width="3"/>
</mask>
<g mask="url(#mask0)">
<rect x="26.5" y="1.5" width="72" height="128" rx="8.5" fill="#F5F5F5" stroke="#282B30" stroke-width="3"/>
<path d="M43 3H82C82 5.76142 79.7614 8 77 8H48C45.2386 8 43 5.76142 43 3Z" fill="#282B30"/>
<path d="M32 97C32 94.2386 34.2386 92 37 92H56C58.7614 92 61 94.2386 61 97V123C61 125.761 58.7614 128 56 128H37C34.2386 128 32 125.761 32 123V97Z" fill="#EAEAEA"/>
<path d="M64 97C64 94.2386 66.2386 92 69 92H88C90.7614 92 93 94.2386 93 97V123C93 125.761 90.7614 128 88 128H69C66.2386 128 64 125.761 64 123V97Z" fill="#EAEAEA"/>
<rect x="32" y="52" width="29" height="36" rx="5" fill="#EAEAEA"/>
<rect x="64" y="52" width="29" height="36" rx="5" fill="#EAEAEA"/>
</g>
<path d="M47.5641 74.7407C47.5477 74.7407 47.5311 74.7389 47.5147 74.7357C47.4984 74.7323 47.4824 74.7275 47.4671 74.7212C47.4517 74.7148 47.4369 74.7069 47.4232 74.6978C47.4092 74.6887 47.3963 74.678 47.3846 74.6663C47.3729 74.6543 47.3623 74.6415 47.3532 74.6278C47.3441 74.6138 47.3361 74.599 47.3298 74.5838C47.3234 74.5686 47.3187 74.5526 47.3153 74.5363C47.312 74.5199 47.3102 74.5033 47.3102 74.4865C47.3102 74.4701 47.312 74.4535 47.3153 74.437C47.3187 74.4208 47.3234 74.4048 47.3298 74.3896C47.3361 74.3744 47.3441 74.3596 47.3532 74.3457C47.3623 74.3319 47.3729 74.319 47.3846 74.3071C47.3963 74.2954 47.4092 74.2847 47.4232 74.2756C47.4369 74.2664 47.4517 74.2586 47.4671 74.2523C47.4824 74.2459 47.4984 74.2411 47.5147 74.2378C47.5972 74.2212 47.6848 74.2482 47.7439 74.3071C47.7556 74.319 47.766 74.3319 47.7754 74.3457C47.7845 74.3597 47.7924 74.3744 47.7987 74.3896C47.8051 74.4048 47.8099 74.4208 47.8132 74.437C47.8165 74.4535 47.8181 74.4701 47.8181 74.4865C47.8181 74.5033 47.8165 74.5199 47.8132 74.5363C47.8099 74.5526 47.8051 74.5686 47.7987 74.5838C47.7924 74.5991 47.7845 74.6138 47.7754 74.6278C47.766 74.6415 47.7556 74.6543 47.7439 74.6663C47.6965 74.7136 47.6312 74.7407 47.5641 74.7407Z" fill="#A5A7A8"/>
<path d="M52.1263 73.1368H40.8737V72.1179C40.8737 69.1718 43.262 66.7836 46.208 66.7836H46.7921C49.7381 66.7836 52.1263 69.1718 52.1263 72.1179V73.1368Z" fill="#EAEAEA"/>
<path d="M42.1581 70.8654C42.1285 70.8654 42.0986 70.8602 42.0693 70.8493C41.9379 70.8002 41.8711 70.654 41.9202 70.5226C42.4966 68.978 43.8634 67.858 45.4874 67.5998C45.6258 67.5777 45.756 67.6723 45.778 67.8108C45.8001 67.9492 45.7056 68.0794 45.5672 68.1014C44.1236 68.3308 42.9085 69.3267 42.3959 70.7003C42.3578 70.8023 42.261 70.8654 42.1581 70.8654Z" fill="#A5A7A8"/>
<path d="M47.2318 66.0519C47.2318 66.456 46.9042 66.7836 46.5 66.7836C46.0958 66.7836 45.7682 66.456 45.7682 66.0519C45.7682 65.6477 46.0958 65.3201 46.5 65.3201C46.9042 65.3201 47.2318 65.6477 47.2318 66.0519Z" fill="#EAEAEA"/>
<path d="M53 73.8117C53 73.4078 52.7409 73.0633 52.3802 72.9357V72.1179C52.3802 70.6252 51.7989 69.2218 50.7435 68.1664C49.8197 67.2427 48.6295 66.6822 47.3463 66.5566C47.4347 66.4089 47.4856 66.2363 47.4856 66.052C47.4856 65.5085 47.0434 65.0664 46.5 65.0664C45.9566 65.0664 45.5144 65.5085 45.5144 66.052C45.5144 66.2363 45.5653 66.4089 45.6537 66.5566C44.3705 66.6822 43.1803 67.2427 42.2565 68.1664C41.2011 69.2218 40.6198 70.6252 40.6198 72.1179V72.9357C40.2591 73.0634 40 73.4078 40 73.8117C40 74.3009 40.3802 74.7028 40.8606 74.738L41.3247 75.4643C41.5113 75.7564 41.8298 75.9308 42.1766 75.9308H50.8234C51.1702 75.9308 51.4887 75.7564 51.6753 75.4643L52.1394 74.738C52.6198 74.7029 53 74.3009 53 73.8117ZM46.5 65.5742C46.7635 65.5742 46.9778 65.7886 46.9778 66.052C46.9778 66.3154 46.7635 66.5297 46.5 66.5297C46.2365 66.5297 46.0222 66.3154 46.0222 66.052C46.0222 65.7886 46.2365 65.5742 46.5 65.5742ZM41.1276 72.1179C41.1276 69.3166 43.4067 67.0375 46.2079 67.0375H46.7921C49.5933 67.0375 51.8724 69.3166 51.8724 72.1179V72.8829H41.1276V72.1179ZM52.0711 74.2327H51.2636C51.1235 74.2327 51.0097 74.3464 51.0097 74.4866C51.0097 74.6268 51.1235 74.7405 51.2636 74.7405H51.5352L51.2474 75.1908C51.1545 75.3362 50.996 75.423 50.8234 75.423H42.1766C42.004 75.423 41.8455 75.3362 41.7526 75.1908L41.4648 74.7405H46.3859C46.5262 74.7405 46.6398 74.6268 46.6398 74.4866C46.6398 74.3464 46.5262 74.2327 46.3859 74.2327H40.9289C40.6968 74.2327 40.5078 74.0438 40.5078 73.8117C40.5078 73.5795 40.6968 73.3907 40.9289 73.3907H52.0711C52.3032 73.3907 52.4922 73.5795 52.4922 73.8117C52.4922 74.0438 52.3032 74.2327 52.0711 74.2327Z" fill="#A5A7A8"/>
<g clip-path="url(#clip0)">
<path d="M79.5641 74.7407C79.5477 74.7407 79.5311 74.7389 79.5147 74.7357C79.4984 74.7323 79.4824 74.7275 79.4671 74.7212C79.4517 74.7148 79.4369 74.7069 79.4232 74.6978C79.4092 74.6887 79.3963 74.678 79.3846 74.6663C79.3729 74.6543 79.3623 74.6415 79.3532 74.6278C79.3441 74.6138 79.3361 74.599 79.3298 74.5838C79.3234 74.5686 79.3187 74.5526 79.3153 74.5363C79.312 74.5199 79.3102 74.5033 79.3102 74.4865C79.3102 74.4701 79.312 74.4535 79.3153 74.437C79.3187 74.4208 79.3234 74.4048 79.3298 74.3896C79.3361 74.3744 79.3441 74.3596 79.3532 74.3457C79.3623 74.3319 79.3729 74.319 79.3846 74.3071C79.3963 74.2954 79.4092 74.2847 79.4232 74.2756C79.4369 74.2664 79.4517 74.2586 79.4671 74.2523C79.4824 74.2459 79.4984 74.2411 79.5147 74.2378C79.5972 74.2212 79.6848 74.2482 79.7439 74.3071C79.7556 74.319 79.766 74.3319 79.7754 74.3457C79.7845 74.3597 79.7924 74.3744 79.7987 74.3896C79.8051 74.4048 79.8099 74.4208 79.8132 74.437C79.8165 74.4535 79.8181 74.4701 79.8181 74.4865C79.8181 74.5033 79.8165 74.5199 79.8132 74.5363C79.8099 74.5526 79.8051 74.5686 79.7987 74.5838C79.7924 74.5991 79.7845 74.6138 79.7754 74.6278C79.766 74.6415 79.7556 74.6543 79.7439 74.6663C79.6965 74.7136 79.6312 74.7407 79.5641 74.7407Z" fill="#A5A7A8"/>
<path d="M84.1263 73.1368H72.8737V72.1179C72.8737 69.1718 75.262 66.7836 78.208 66.7836H78.7921C81.7381 66.7836 84.1263 69.1718 84.1263 72.1179V73.1368Z" fill="#EAEAEA"/>
<path d="M74.1581 70.8654C74.1285 70.8654 74.0986 70.8602 74.0693 70.8493C73.9379 70.8002 73.8711 70.654 73.9202 70.5226C74.4966 68.978 75.8634 67.858 77.4874 67.5998C77.6258 67.5777 77.756 67.6723 77.778 67.8108C77.8001 67.9492 77.7056 68.0794 77.5672 68.1014C76.1236 68.3308 74.9085 69.3267 74.3959 70.7003C74.3578 70.8023 74.261 70.8654 74.1581 70.8654Z" fill="#A5A7A8"/>
<path d="M79.2318 66.0519C79.2318 66.456 78.9042 66.7836 78.5 66.7836C78.0958 66.7836 77.7682 66.456 77.7682 66.0519C77.7682 65.6477 78.0958 65.3201 78.5 65.3201C78.9042 65.3201 79.2318 65.6477 79.2318 66.0519Z" fill="#EAEAEA"/>
<path d="M85 73.8117C85 73.4078 84.7409 73.0633 84.3802 72.9357V72.1179C84.3802 70.6252 83.7989 69.2218 82.7435 68.1664C81.8197 67.2427 80.6295 66.6822 79.3463 66.5566C79.4347 66.4089 79.4856 66.2363 79.4856 66.052C79.4856 65.5085 79.0434 65.0664 78.5 65.0664C77.9566 65.0664 77.5144 65.5085 77.5144 66.052C77.5144 66.2363 77.5653 66.4089 77.6537 66.5566C76.3705 66.6822 75.1803 67.2427 74.2565 68.1664C73.2011 69.2218 72.6198 70.6252 72.6198 72.1179V72.9357C72.2591 73.0634 72 73.4078 72 73.8117C72 74.3009 72.3802 74.7028 72.8606 74.738L73.3247 75.4643C73.5113 75.7564 73.8298 75.9308 74.1766 75.9308H82.8234C83.1702 75.9308 83.4887 75.7564 83.6753 75.4643L84.1394 74.738C84.6198 74.7029 85 74.3009 85 73.8117ZM78.5 65.5742C78.7635 65.5742 78.9778 65.7886 78.9778 66.052C78.9778 66.3154 78.7635 66.5297 78.5 66.5297C78.2365 66.5297 78.0222 66.3154 78.0222 66.052C78.0222 65.7886 78.2365 65.5742 78.5 65.5742ZM73.1276 72.1179C73.1276 69.3166 75.4067 67.0375 78.2079 67.0375H78.7921C81.5933 67.0375 83.8724 69.3166 83.8724 72.1179V72.8829H73.1276V72.1179ZM84.0711 74.2327H83.2636C83.1235 74.2327 83.0097 74.3464 83.0097 74.4866C83.0097 74.6268 83.1235 74.7405 83.2636 74.7405H83.5352L83.2474 75.1908C83.1545 75.3362 82.996 75.423 82.8234 75.423H74.1766C74.004 75.423 73.8455 75.3362 73.7526 75.1908L73.4648 74.7405H78.3859C78.5262 74.7405 78.6398 74.6268 78.6398 74.4866C78.6398 74.3464 78.5262 74.2327 78.3859 74.2327H72.9289C72.6968 74.2327 72.5078 74.0438 72.5078 73.8117C72.5078 73.5795 72.6968 73.3907 72.9289 73.3907H84.0711C84.3032 73.3907 84.4922 73.5795 84.4922 73.8117C84.4922 74.0438 84.3032 74.2327 84.0711 74.2327Z" fill="#A5A7A8"/>
</g>
<g clip-path="url(#clip1)">
<path d="M79.5641 114.741C79.5477 114.741 79.5311 114.739 79.5147 114.736C79.4984 114.732 79.4824 114.728 79.4671 114.721C79.4517 114.715 79.4369 114.707 79.4232 114.698C79.4092 114.689 79.3963 114.678 79.3846 114.666C79.3729 114.654 79.3623 114.641 79.3532 114.628C79.3441 114.614 79.3361 114.599 79.3298 114.584C79.3234 114.569 79.3187 114.553 79.3153 114.536C79.312 114.52 79.3102 114.503 79.3102 114.487C79.3102 114.47 79.312 114.454 79.3153 114.437C79.3187 114.421 79.3234 114.405 79.3298 114.39C79.3361 114.374 79.3441 114.36 79.3532 114.346C79.3623 114.332 79.3729 114.319 79.3846 114.307C79.3963 114.295 79.4092 114.285 79.4232 114.276C79.4369 114.266 79.4517 114.259 79.4671 114.252C79.4824 114.246 79.4984 114.241 79.5147 114.238C79.5972 114.221 79.6848 114.248 79.7439 114.307C79.7556 114.319 79.766 114.332 79.7754 114.346C79.7845 114.36 79.7924 114.374 79.7987 114.39C79.8051 114.405 79.8099 114.421 79.8132 114.437C79.8165 114.454 79.8181 114.47 79.8181 114.487C79.8181 114.503 79.8165 114.52 79.8132 114.536C79.8099 114.553 79.8051 114.569 79.7987 114.584C79.7924 114.599 79.7845 114.614 79.7754 114.628C79.766 114.641 79.7556 114.654 79.7439 114.666C79.6965 114.714 79.6312 114.741 79.5641 114.741Z" fill="#A5A7A8"/>
<path d="M84.1263 113.137H72.8737V112.118C72.8737 109.172 75.262 106.784 78.208 106.784H78.7921C81.7381 106.784 84.1263 109.172 84.1263 112.118V113.137Z" fill="#EAEAEA"/>
<path d="M74.1581 110.865C74.1285 110.865 74.0986 110.86 74.0693 110.849C73.9379 110.8 73.8711 110.654 73.9202 110.523C74.4966 108.978 75.8634 107.858 77.4874 107.6C77.6258 107.578 77.756 107.672 77.778 107.811C77.8001 107.949 77.7056 108.079 77.5672 108.101C76.1236 108.331 74.9085 109.327 74.3959 110.7C74.3578 110.802 74.261 110.865 74.1581 110.865Z" fill="#A5A7A8"/>
<path d="M79.2318 106.052C79.2318 106.456 78.9042 106.784 78.5 106.784C78.0958 106.784 77.7682 106.456 77.7682 106.052C77.7682 105.648 78.0958 105.32 78.5 105.32C78.9042 105.32 79.2318 105.648 79.2318 106.052Z" fill="#EAEAEA"/>
<path d="M85 113.812C85 113.408 84.7409 113.063 84.3802 112.936V112.118C84.3802 110.625 83.7989 109.222 82.7435 108.166C81.8197 107.243 80.6295 106.682 79.3463 106.557C79.4347 106.409 79.4856 106.236 79.4856 106.052C79.4856 105.508 79.0434 105.066 78.5 105.066C77.9566 105.066 77.5144 105.508 77.5144 106.052C77.5144 106.236 77.5653 106.409 77.6537 106.557C76.3705 106.682 75.1803 107.243 74.2565 108.166C73.2011 109.222 72.6198 110.625 72.6198 112.118V112.936C72.2591 113.063 72 113.408 72 113.812C72 114.301 72.3802 114.703 72.8606 114.738L73.3247 115.464C73.5113 115.756 73.8298 115.931 74.1766 115.931H82.8234C83.1702 115.931 83.4887 115.756 83.6753 115.464L84.1394 114.738C84.6198 114.703 85 114.301 85 113.812ZM78.5 105.574C78.7635 105.574 78.9778 105.789 78.9778 106.052C78.9778 106.315 78.7635 106.53 78.5 106.53C78.2365 106.53 78.0222 106.315 78.0222 106.052C78.0222 105.789 78.2365 105.574 78.5 105.574ZM73.1276 112.118C73.1276 109.317 75.4067 107.037 78.2079 107.037H78.7921C81.5933 107.037 83.8724 109.317 83.8724 112.118V112.883H73.1276V112.118ZM84.0711 114.233H83.2636C83.1235 114.233 83.0097 114.346 83.0097 114.487C83.0097 114.627 83.1235 114.741 83.2636 114.741H83.5352L83.2474 115.191C83.1545 115.336 82.996 115.423 82.8234 115.423H74.1766C74.004 115.423 73.8455 115.336 73.7526 115.191L73.4648 114.741H78.3859C78.5262 114.741 78.6398 114.627 78.6398 114.487C78.6398 114.346 78.5262 114.233 78.3859 114.233H72.9289C72.6968 114.233 72.5078 114.044 72.5078 113.812C72.5078 113.58 72.6968 113.391 72.9289 113.391H84.0711C84.3032 113.391 84.4922 113.58 84.4922 113.812C84.4922 114.044 84.3032 114.233 84.0711 114.233Z" fill="#A5A7A8"/>
</g>
<g clip-path="url(#clip2)">
<path d="M47.5641 114.741C47.5477 114.741 47.5311 114.739 47.5147 114.736C47.4984 114.732 47.4824 114.728 47.4671 114.721C47.4517 114.715 47.4369 114.707 47.4232 114.698C47.4092 114.689 47.3963 114.678 47.3846 114.666C47.3729 114.654 47.3623 114.641 47.3532 114.628C47.3441 114.614 47.3361 114.599 47.3298 114.584C47.3234 114.569 47.3187 114.553 47.3153 114.536C47.312 114.52 47.3102 114.503 47.3102 114.487C47.3102 114.47 47.312 114.454 47.3153 114.437C47.3187 114.421 47.3234 114.405 47.3298 114.39C47.3361 114.374 47.3441 114.36 47.3532 114.346C47.3623 114.332 47.3729 114.319 47.3846 114.307C47.3963 114.295 47.4092 114.285 47.4232 114.276C47.4369 114.266 47.4517 114.259 47.4671 114.252C47.4824 114.246 47.4984 114.241 47.5147 114.238C47.5972 114.221 47.6848 114.248 47.7439 114.307C47.7556 114.319 47.766 114.332 47.7754 114.346C47.7845 114.36 47.7924 114.374 47.7987 114.39C47.8051 114.405 47.8099 114.421 47.8132 114.437C47.8165 114.454 47.8181 114.47 47.8181 114.487C47.8181 114.503 47.8165 114.52 47.8132 114.536C47.8099 114.553 47.8051 114.569 47.7987 114.584C47.7924 114.599 47.7845 114.614 47.7754 114.628C47.766 114.641 47.7556 114.654 47.7439 114.666C47.6965 114.714 47.6312 114.741 47.5641 114.741Z" fill="#A5A7A8"/>
<path d="M52.1263 113.137H40.8737V112.118C40.8737 109.172 43.262 106.784 46.208 106.784H46.7921C49.7381 106.784 52.1263 109.172 52.1263 112.118V113.137Z" fill="#EAEAEA"/>
<path d="M42.1581 110.865C42.1285 110.865 42.0986 110.86 42.0693 110.849C41.9379 110.8 41.8711 110.654 41.9202 110.523C42.4966 108.978 43.8634 107.858 45.4874 107.6C45.6258 107.578 45.756 107.672 45.778 107.811C45.8001 107.949 45.7056 108.079 45.5672 108.101C44.1236 108.331 42.9085 109.327 42.3959 110.7C42.3578 110.802 42.261 110.865 42.1581 110.865Z" fill="#A5A7A8"/>
<path d="M47.2318 106.052C47.2318 106.456 46.9042 106.784 46.5 106.784C46.0958 106.784 45.7682 106.456 45.7682 106.052C45.7682 105.648 46.0958 105.32 46.5 105.32C46.9042 105.32 47.2318 105.648 47.2318 106.052Z" fill="#EAEAEA"/>
<path d="M53 113.812C53 113.408 52.7409 113.063 52.3802 112.936V112.118C52.3802 110.625 51.7989 109.222 50.7435 108.166C49.8197 107.243 48.6295 106.682 47.3463 106.557C47.4347 106.409 47.4856 106.236 47.4856 106.052C47.4856 105.508 47.0434 105.066 46.5 105.066C45.9566 105.066 45.5144 105.508 45.5144 106.052C45.5144 106.236 45.5653 106.409 45.6537 106.557C44.3705 106.682 43.1803 107.243 42.2565 108.166C41.2011 109.222 40.6198 110.625 40.6198 112.118V112.936C40.2591 113.063 40 113.408 40 113.812C40 114.301 40.3802 114.703 40.8606 114.738L41.3247 115.464C41.5113 115.756 41.8298 115.931 42.1766 115.931H50.8234C51.1702 115.931 51.4887 115.756 51.6753 115.464L52.1394 114.738C52.6198 114.703 53 114.301 53 113.812ZM46.5 105.574C46.7635 105.574 46.9778 105.789 46.9778 106.052C46.9778 106.315 46.7635 106.53 46.5 106.53C46.2365 106.53 46.0222 106.315 46.0222 106.052C46.0222 105.789 46.2365 105.574 46.5 105.574ZM41.1276 112.118C41.1276 109.317 43.4067 107.037 46.2079 107.037H46.7921C49.5933 107.037 51.8724 109.317 51.8724 112.118V112.883H41.1276V112.118ZM52.0711 114.233H51.2636C51.1235 114.233 51.0097 114.346 51.0097 114.487C51.0097 114.627 51.1235 114.741 51.2636 114.741H51.5352L51.2474 115.191C51.1545 115.336 50.996 115.423 50.8234 115.423H42.1766C42.004 115.423 41.8455 115.336 41.7526 115.191L41.4648 114.741H46.3859C46.5262 114.741 46.6398 114.627 46.6398 114.487C46.6398 114.346 46.5262 114.233 46.3859 114.233H40.9289C40.6968 114.233 40.5078 114.044 40.5078 113.812C40.5078 113.58 40.6968 113.391 40.9289 113.391H52.0711C52.3032 113.391 52.4922 113.58 52.4922 113.812C52.4922 114.044 52.3032 114.233 52.0711 114.233Z" fill="#A5A7A8"/>
</g>
<path d="M90 19C90 16.2386 92.2386 14 95 14H97V49H95C92.2386 49 90 46.7614 90 44V19Z" fill="#FF8517"/>
<mask id="mask1" mask-type="alpha" maskUnits="userSpaceOnUse" x="32" y="14" width="54" height="35">
<rect x="32" y="14" width="54" height="35" rx="5" fill="#FF8517"/>
</mask>
<g mask="url(#mask1)">
<rect x="32" y="14" width="54" height="35" rx="5" fill="#FF8517"/>
<circle cx="76.5" cy="19.5" r="20.5" fill="#FD9038"/>
</g>
<defs>
<clipPath id="clip0">
<rect width="13" height="13" fill="white" transform="translate(72 64)"/>
</clipPath>
<clipPath id="clip1">
<rect width="13" height="13" fill="white" transform="translate(72 104)"/>
</clipPath>
<clipPath id="clip2">
<rect width="13" height="13" fill="white" transform="translate(40 104)"/>
</clipPath>
</defs>
</svg>
