<svg width="98" height="140" viewBox="0 0 98 140" fill="none" xmlns="http://www.w3.org/2000/svg">
<path d="M58.0615 61.6875C58.0615 61.6875 69.6976 64.0925 79.0889 72.2627C87.482 79.5645 101.035 95.7094 87.482 116.87L79.0696 114.717C79.0696 114.717 75.8856 90.3979 67.9031 87.1061C59.9202 83.8152 55.1553 67.3871 58.0615 61.6875Z" fill="#3093D0"/>
<path d="M30.8916 61.6875C30.8916 61.6875 42.4367 73.6326 47.0492 72.2627C51.6613 70.8928 58.0752 61.6875 58.0752 61.6875C58.0752 61.6875 65.3676 64.6559 71.0824 76.3568C75.7231 85.8579 79.6443 104.897 71.1656 131.788C58.5099 142.935 25.0731 139.978 19.4342 129.744C12.9547 104.498 6.79698 75.3004 30.8916 61.6875Z" fill="#F58429"/>
<path d="M71.1539 131.835C72.0615 128.957 72.8278 126.166 73.4654 123.469C72.8278 126.166 72.0615 128.957 71.1539 131.835ZM19.4692 129.874C19.4688 129.874 19.4692 129.875 19.4692 129.874C19.4692 129.875 19.4688 129.874 19.4692 129.874ZM19.4487 129.838C19.4397 129.822 19.4311 129.806 19.4225 129.791C19.4065 129.729 19.3905 129.666 19.3745 129.604C19.3905 129.665 19.4069 129.729 19.4225 129.791C19.4311 129.806 19.4397 129.822 19.4487 129.838Z" fill="#A7C7E9"/>
<path d="M50.0308 138.769C58.2821 138.275 66.2289 136.087 71.1127 131.812C66.2281 136.087 58.2833 138.276 50.0308 138.769Z" fill="#171C42"/>
<path d="M45.6813 138.888C33.9776 138.76 22.6344 135.372 19.4841 129.827C19.4837 129.826 19.4841 129.828 19.4841 129.827C19.4771 129.815 19.4701 129.802 19.4636 129.79C19.4546 129.775 19.446 129.759 19.4373 129.744C19.4218 129.682 19.4054 129.618 19.3894 129.557C22.2976 130.463 25.5304 130.958 29.0889 130.958C29.1696 130.958 29.2495 130.958 29.3307 130.957C29.5745 131.275 29.8851 131.559 30.2617 131.795C32.8453 133.415 35.6564 133.912 38.5335 133.912C40.3693 133.912 42.2326 133.71 44.079 133.467C44.5265 133.409 44.9744 133.36 45.4243 133.318C45.5821 136.703 45.6764 138.787 45.6813 138.888ZM50.0438 138.783C50.1991 138.656 50.3126 138.497 50.3688 138.298C50.4368 138.056 50.4101 136.408 50.3159 133.78L51.8198 133.013C54.4485 132.911 57.0658 132.726 59.6138 132.042C63.6317 130.963 67.8561 129.195 69.6022 125.125C69.8169 124.625 69.9706 124.142 70.0722 123.673L73.0234 123.181C73.1451 123.246 73.2578 123.306 73.3611 123.361C73.4008 123.382 73.4406 123.402 73.4803 123.422C72.8427 126.118 72.0764 128.909 71.1688 131.788C71.1548 131.8 71.1401 131.814 71.1257 131.826C66.242 136.1 58.2951 138.288 50.0438 138.783ZM39.7067 121.183L39.3645 120.411C39.3645 120.411 13.6119 118.441 20.1586 82.7055C21.3182 76.374 23.5798 71.8713 25.7467 68.6058C23.368 75.3024 23.0504 82.9354 23.6437 89.7447C24.6129 100.86 27.9862 113.827 39.1969 118.746C39.2088 118.751 39.2211 118.756 39.233 118.762L39.7067 121.183ZM59.0831 62.8832C58.8967 62.705 58.7004 62.5349 58.4926 62.3731C58.3205 62.2391 58.1398 62.1145 57.9546 61.9952C58.0337 61.8035 58.0755 61.6941 58.0779 61.6875H58.0783C58.0783 61.6875 58.8053 61.9834 59.9805 62.7566L59.0831 62.8832Z" fill="#E36B09"/>
<path d="M32.2184 51.7993V62.1221C32.2184 62.1221 41.8732 74.1282 47.6769 72.1084C53.481 70.0886 57.2961 62.9076 57.2961 62.9076L56.2196 51.1875L32.2184 51.7993Z" fill="#FFEBD6"/>
<path d="M46.064 66.8042C45.7038 65.9437 45.2588 65.3122 44.7572 65.0745C40.2242 62.9306 37.1882 60.8907 32.2184 56.8978V54.3793C34.0116 55.3611 35.8736 56.0651 37.6848 56.5593C38.0377 56.7154 38.4114 56.8617 38.8015 56.9974C41.6171 57.978 45.2785 58.4246 48.0187 58.4246H48.0191C49.3291 58.4246 50.4282 58.323 51.1248 58.1284C51.1277 58.1275 51.1301 58.1267 51.133 58.1259C51.1342 58.1255 51.1358 58.1251 51.1375 58.1247C51.1383 58.1243 51.1399 58.1238 51.1412 58.1238C51.1428 58.1234 51.1445 58.1226 51.1461 58.1222C51.1473 58.1218 51.1486 58.1218 51.1494 58.1214C51.151 58.121 51.1531 58.1202 51.1543 58.1197C51.1555 58.1197 51.1567 58.1193 51.1576 58.1189C51.1596 58.1185 51.1613 58.1177 51.1633 58.1173C51.1641 58.1169 51.1649 58.1169 51.1658 58.1165C51.1678 58.1161 51.1699 58.1152 51.1719 58.1148C51.1723 58.1144 51.1731 58.1144 51.1735 58.1144C51.1756 58.1136 51.1781 58.1128 51.1805 58.1124C51.1805 58.112 51.1809 58.112 51.1809 58.112C51.3227 58.0693 51.4751 58.0116 51.637 57.9394C51.6374 57.9394 51.6374 57.9394 51.6378 57.939C51.6407 57.9378 51.6432 57.937 51.6456 57.9358C51.646 57.9353 51.6473 57.9349 51.6477 57.9349C51.6501 57.9337 51.6522 57.9329 51.6546 57.9317C51.6555 57.9313 51.6567 57.9308 51.6575 57.9304C51.6595 57.9296 51.662 57.9284 51.664 57.9276C51.6653 57.9267 51.6665 57.9263 51.6677 57.9259C51.6694 57.9251 51.6714 57.9243 51.6731 57.9235C51.6747 57.9226 51.6763 57.9218 51.6784 57.921C51.68 57.9202 51.6813 57.9194 51.6829 57.919C51.685 57.9181 51.687 57.9169 51.689 57.9161C51.6903 57.9157 51.6915 57.9149 51.6923 57.9144C51.6956 57.9128 51.6993 57.9116 51.7026 57.9099C51.7095 57.9067 51.7161 57.9038 51.7226 57.9005C51.7235 57.9001 51.7239 57.9001 51.7247 57.8997C51.7276 57.8985 51.7304 57.8972 51.7333 57.8956C51.7337 57.8956 51.7341 57.8952 51.7349 57.8948C51.7378 57.8936 51.7403 57.8923 51.7435 57.8911C51.744 57.8907 51.7444 57.8903 51.7452 57.8903C51.7485 57.8886 51.7513 57.887 51.7546 57.8858C51.7546 57.8858 51.7546 57.8854 51.755 57.8854C53.018 57.2887 54.7976 55.8996 56.5019 54.1875L56.792 57.3444C53.2806 61.0759 50.1462 63.1834 47.5851 65.0188C47.3216 65.2073 47.152 65.5384 47.0463 65.9748L46.064 66.8042Z" fill="#F9B299"/>
<path d="M64.2355 32.168C63.7027 27.174 61.1002 29.3344 61.1002 29.3344L61.1133 29.4606C60.236 24.2503 59.0858 19.9242 59.0858 19.9242C42.8163 1.78737 22.1978 24.819 21.1607 27.9625C20.1231 31.1059 21.8847 39.4072 21.8847 39.4072C20.589 38.2852 16.8969 39.8559 19.2531 44.7933C21.6094 49.7304 24.7229 47.4499 24.7229 47.4499C31.3338 57.8837 44.7984 58.1079 48.6507 57.36C50.7463 56.9531 58.7489 51.5252 61.3297 44.7933C61.9956 43.0559 62.1677 40.5591 62.0579 37.8107C62.4972 37.6603 64.7161 36.6744 64.2355 32.168Z" fill="#F9B299"/>
<path d="M23.0223 48.0013H23.0219C23.0498 48.0013 23.0768 48.0009 23.1043 48.0001C23.0768 48.0009 23.0498 48.0013 23.0223 48.0013ZM22.9928 48.0013C22.9855 48.0013 22.9781 48.0009 22.9707 48.0009C22.9781 48.0009 22.9855 48.0013 22.9928 48.0013ZM22.9682 48.0009C22.967 48.0009 22.9658 48.0009 22.9642 48.0009C22.9658 48.0009 22.967 48.0009 22.9682 48.0009ZM22.9346 48.0001C22.2642 47.9796 21.4746 47.7206 20.687 46.9273C21.4746 47.7206 22.2642 47.9796 22.9346 48.0001ZM62.6755 37.5249C63.4512 36.9807 64.5871 35.6133 64.2745 32.3379C64.5871 35.6133 63.4512 36.9807 62.6755 37.5249ZM64.2597 32.1937C64.0511 30.2378 63.525 29.3793 62.9619 29.0584C63.525 29.3789 64.0511 30.2374 64.2597 32.1937ZM62.9619 29.0584C62.9607 29.0576 62.9595 29.0568 62.9578 29.056C62.9595 29.0568 62.9607 29.0576 62.9619 29.0584ZM59.2104 20.3379C59.1461 20.0859 59.11 19.9498 59.11 19.9498C57.9143 18.6172 56.6944 17.5059 55.4613 16.5938L55.4621 16.5942C56.6956 17.5063 57.9147 18.6172 59.11 19.9498C59.11 19.9498 59.1461 20.0855 59.2104 20.3379Z" fill="#EAE0CD"/>
<path d="M28.9133 52.1847C28.1699 51.5746 27.4553 50.9009 26.7804 50.1567C27.2676 50.5096 27.8069 50.8903 28.3879 51.2857C28.5539 51.5897 28.7289 51.8897 28.9133 52.1847ZM27.5938 49.6425C25.8489 48.3918 24.7462 47.4723 24.7229 47.4526C24.6794 47.4674 24.5651 47.5571 24.3115 47.6792C24.1602 47.7517 24.048 47.7894 23.8779 47.846L23.8783 47.8464C23.6468 47.9161 23.3767 47.9689 23.0801 47.9771C23.0526 47.978 23.0256 47.9784 22.9977 47.9784C22.9883 47.9784 22.9784 47.9784 22.9686 47.9784C22.9612 47.9784 22.9539 47.9779 22.9465 47.9779H22.9399C22.9305 47.9775 22.9203 47.9775 22.9104 47.9771C22.24 47.9566 21.4504 47.6977 20.6628 46.9043C20.1829 46.4216 19.7043 45.7414 19.2531 44.796C18.3574 42.9184 18.3356 41.528 18.7245 40.5872C18.7249 40.5876 18.7253 40.588 18.7258 40.5884C18.9331 40.1573 19.2392 39.8282 19.59 39.5975C19.8264 39.4525 20.0358 39.3578 20.2399 39.2943C20.3677 39.2546 20.5571 39.2337 20.7722 39.2337C21.1267 39.2337 21.5512 39.2898 21.8847 39.4099C22.685 41.9374 23.4956 42.4803 24.0443 42.4803C24.4582 42.4803 24.7229 42.1722 24.7229 42.1722C24.7229 42.1722 24.4475 41.2137 24.1984 39.7594C24.5504 39.825 24.9351 39.902 25.356 39.9938C25.4834 42.2238 25.9948 44.4706 26.5103 46.4351C26.8013 47.5436 27.1557 48.6139 27.5938 49.6425ZM25.3265 39.0931C24.8708 39.003 24.4496 38.9292 24.0599 38.8694C23.5751 35.4104 23.4694 30.1103 26.632 27.3935C28.0585 26.1678 38.9488 24.0276 47.0858 19.3069C48.0983 18.7197 50.8476 16.6691 51.9462 15.75C53.1636 15.9201 54.3122 16.1983 55.4371 16.5708C56.6701 17.483 57.89 18.5943 59.0858 19.9269C59.0858 19.9269 59.1218 20.0629 59.1862 20.3149C59.362 21.0067 59.7492 22.5737 60.1852 24.6193C59.4304 23.8255 58.4994 23.199 57.6352 22.4892C55.9272 21.0857 54.0934 19.5663 51.7655 19.5036C51.7085 19.5019 51.6515 19.5011 51.595 19.5011C49.1404 19.5011 47.0899 20.9358 45.2479 22.4065C43.2523 23.9985 41.1788 25.52 39.059 26.944C37.0753 28.2766 35.4214 28.8617 33.1287 29.4395C31.0945 29.9517 29.0415 30.5988 27.543 32.1428C27.3041 32.3891 27.1156 32.646 26.9705 32.9083C26.9123 32.9866 26.8546 33.0644 26.8005 33.1501C25.6908 34.9031 25.3101 36.9717 25.3265 39.0931ZM62.1931 37.7605C62.1079 35.8604 61.8792 34.3954 61.5543 34.0241C61.4654 33.9225 61.2752 33.8164 61.0027 33.709C61.0671 33.2222 61.1392 32.7362 61.2174 32.2506C61.3932 31.1676 61.635 30.0771 61.6957 28.9982C61.8784 28.9265 62.0911 28.8724 62.3144 28.8724C62.5164 28.8724 62.7275 28.9166 62.9336 29.033C62.9352 29.0338 62.9365 29.0346 62.9377 29.0355C63.5007 29.3563 64.0269 30.2148 64.2355 32.1707C64.2408 32.219 64.2457 32.267 64.2502 32.3149C64.5629 35.5903 63.427 36.9577 62.6513 37.5019C62.4718 37.6277 62.3116 37.7097 62.1931 37.7605Z" fill="#F9B299"/>
<path d="M15.7226 27.9905C15.6173 34.6326 17.4474 39.2049 18.7513 40.6359C19.391 39.3078 20.9633 38.9472 21.9103 39.4574C23.3134 43.8895 24.7484 42.2197 24.7484 42.2197C24.7484 42.2197 21.7206 31.6822 26.6576 27.441C28.084 26.2153 38.9743 24.075 47.1113 19.3544C48.278 18.6778 51.75 16.0585 52.3467 15.4656C41.4195 5.24853 15.7976 23.2358 15.7226 27.9905Z" fill="#282B30"/>
<path d="M42.9521 34.0877C43.2107 31.7274 43.7963 29.4375 43.7963 29.4375L45.0793 33.2755C44.4167 33.5136 43.7008 33.7881 42.9521 34.0877Z" fill="#F9B299"/>
<path d="M31.747 56.4951C37.0205 60.7588 40.1061 62.863 44.7907 65.0787C46.1286 65.7118 47.0629 69.1466 47.0629 72.2646C38.9841 73.3821 30.9053 61.6894 30.9053 61.6894C30.9053 61.6894 30.8828 55.7964 31.747 56.4951Z" fill="#F99F49"/>
<path d="M57.0338 57.0743C53.4244 60.9685 50.2044 63.1309 47.5847 65.0081C46.4738 65.8039 47.029 69.1317 47.029 72.2497C53.7605 73.0078 58.0549 61.6745 58.0549 61.6745C58.0549 61.6745 57.7411 56.3113 57.0338 57.0743Z" fill="#F99F49"/>
<path d="M85.9226 119.341C85.9226 119.341 79.5288 122.931 78.4872 123.156C77.4455 123.38 75.3048 124.427 73.3375 123.38C71.3701 122.333 65.7574 119.341 66.3937 118.368C67.0301 117.396 69.1712 116.647 70.2125 117.695C71.2541 118.742 76.1334 118.892 76.1334 118.892C76.1334 118.892 80.8016 117.919 81.3224 117.695C81.8433 117.47 85.9226 119.341 85.9226 119.341Z" fill="#F9B299"/>
<path d="M78.1558 117.549L85.1327 119.98C85.1327 119.98 87.8716 119.98 88.8998 114.932C85.7924 111.612 79.4826 112.957 79.4826 112.957L78.1558 117.549Z" fill="#F99F49"/>
<path d="M47.047 72.279C47.047 72.279 50.8182 136.696 50.3634 138.315C49.9081 139.934 45.6759 138.908 45.6759 138.908C45.6759 138.908 42.9513 78.6699 41.8276 70.7812C43.9675 71.8627 47.047 72.279 47.047 72.279Z" fill="#F99F49"/>
<path d="M34.1612 0.84375C30.0958 1.52439 21.1323 4.94728 17.6152 11.925C14.5939 17.9189 15.3081 28.5883 15.5351 28.8153C15.7622 29.0419 18.0139 30.2422 22.637 30.2418C22.637 30.2418 30.8523 5.15504 34.1612 0.84375Z" fill="#DC6606"/>
<path d="M36.6364 0.294473C29.289 1.5316 23.7017 5.90394 22.7563 10.5558C21.3688 17.3827 22.7563 29.7306 22.7563 29.7306C22.7563 29.7306 29.8541 19.6861 39.9187 16.9799C48.9199 14.5589 53.7312 15.4346 59.0636 18.0822C59.0636 18.0822 56.9082 7.94629 53.5041 4.31564C51.4864 2.16307 44.2005 -0.979532 36.6364 0.294473Z" fill="#F17510"/>
<path d="M58.1956 14.7086C58.1948 14.7066 58.1944 14.7049 58.194 14.7025C58.1944 14.7045 58.1948 14.7066 58.1956 14.7086ZM58.1919 14.6951C58.1911 14.6926 58.1907 14.6906 58.1899 14.6886C58.1907 14.691 58.1911 14.6926 58.1919 14.6951ZM58.1878 14.682C57.279 11.4701 55.6943 6.80931 53.6397 4.47971C55.6943 6.80972 57.2794 11.471 58.1878 14.682ZM53.6393 4.4793C53.6295 4.46783 53.6196 4.45717 53.6098 4.44611C53.6196 4.45717 53.6295 4.46824 53.6393 4.4793ZM53.6094 4.4457C53.6061 4.44201 53.6036 4.43914 53.6008 4.43586C53.6036 4.43914 53.6065 4.44242 53.6094 4.4457ZM53.5991 4.43382C53.5963 4.43095 53.5934 4.42808 53.5909 4.4248C53.5934 4.42808 53.5963 4.43095 53.5991 4.43382ZM53.5893 4.42357C53.5832 4.41619 53.5766 4.40923 53.57 4.40226C53.5766 4.40923 53.5832 4.41619 53.5893 4.42357ZM53.5696 4.40144C53.5672 4.39858 53.5639 4.39489 53.561 4.39202C53.5639 4.3953 53.5668 4.39817 53.5696 4.40144ZM53.559 4.38956C53.5565 4.3871 53.5541 4.38423 53.5516 4.38136C53.5541 4.38423 53.5565 4.38669 53.559 4.38956ZM53.5496 4.37932C53.5467 4.37604 53.5438 4.37317 53.5409 4.36989C53.5438 4.37317 53.5467 4.37604 53.5496 4.37932ZM53.5401 4.36907C53.5368 4.36579 53.534 4.36251 53.5307 4.35883C53.5336 4.3621 53.5368 4.36579 53.5401 4.36907ZM53.5295 4.3576C53.527 4.35473 53.5241 4.35186 53.5213 4.34899C53.5241 4.35186 53.527 4.35473 53.5295 4.3576ZM53.5188 4.34571C53.5168 4.34366 53.5143 4.34121 53.5123 4.33875C53.5143 4.34121 53.5168 4.34366 53.5188 4.34571ZM53.509 4.33547C53.5069 4.33301 53.5045 4.33096 53.5024 4.3285C53.5045 4.33055 53.5069 4.33301 53.509 4.33547ZM53.5 4.32563C53.4967 4.32236 53.4938 4.31908 53.4905 4.3158C53.4934 4.31908 53.4967 4.32236 53.5 4.32563ZM36.4839 0.318399C36.4847 0.318399 36.4847 0.317989 36.4855 0.317989C36.4851 0.317989 36.4843 0.318399 36.4839 0.318399ZM36.5187 0.312253C36.5195 0.312253 36.5195 0.312253 36.5199 0.311843C36.5195 0.312253 36.5195 0.312253 36.5187 0.312253ZM36.5519 0.306516C36.5527 0.306516 36.554 0.306106 36.5544 0.306106C36.5535 0.306106 36.5527 0.306516 36.5519 0.306516ZM36.5859 0.300779C36.5876 0.300369 36.5896 0.299958 36.5912 0.299958C36.5896 0.299958 36.5876 0.300369 36.5859 0.300779ZM36.6228 0.294632C37.8325 0.0909718 39.0335 0 40.2084 0C39.0335 0 37.8325 0.0909718 36.6228 0.294632Z" fill="#E1F0F5"/>
<path d="M58.8149 17.146C56.614 15.8581 54.1913 14.8385 51.8642 13.9997C46.676 12.1295 41.5144 10.2006 36.3815 8.18289C34.5637 7.46824 28.9936 6.01925 28.8579 3.59623C28.8485 3.42781 28.8256 3.26881 28.7969 3.11392C30.9576 1.81368 33.572 0.822428 36.4643 0.318399C36.4647 0.318399 36.4655 0.317989 36.4659 0.317989C36.477 0.315941 36.4884 0.314301 36.4991 0.312253C36.4999 0.312253 36.4999 0.312253 36.5003 0.311843C36.511 0.310204 36.5216 0.308565 36.5323 0.306516C36.5331 0.306516 36.5339 0.306106 36.5347 0.306106C36.5454 0.304467 36.5556 0.302418 36.5663 0.300779C36.5679 0.300369 36.57 0.299958 36.5716 0.299958C36.5823 0.297909 36.5925 0.296271 36.6032 0.294632C37.8129 0.0909718 39.0139 0 40.1888 0C46.3613 0.00040978 51.7761 2.50744 53.4709 4.3158C53.4742 4.31908 53.4771 4.32236 53.4804 4.32563C53.4812 4.32645 53.482 4.32727 53.4828 4.3285C53.4849 4.33096 53.4873 4.33301 53.4894 4.33547C53.4906 4.3367 53.4914 4.33752 53.4927 4.33875C53.4947 4.34121 53.4972 4.34366 53.4992 4.34571C53.5 4.34694 53.5009 4.34776 53.5017 4.34899C53.5045 4.35186 53.5074 4.35473 53.5099 4.3576C53.5103 4.35801 53.5107 4.35842 53.5111 4.35883C53.5144 4.36251 53.5172 4.36579 53.5205 4.36907C53.5209 4.36948 53.5209 4.36989 53.5213 4.36989C53.5242 4.37317 53.5271 4.37604 53.5299 4.37932C53.5308 4.38013 53.5312 4.38095 53.532 4.38136C53.5345 4.38423 53.5369 4.3871 53.5394 4.38956C53.5398 4.39038 53.541 4.3912 53.5414 4.39202C53.5443 4.39489 53.5476 4.39858 53.55 4.40144C53.55 4.40185 53.5504 4.40185 53.5504 4.40226C53.557 4.40923 53.5636 4.41619 53.5697 4.42357C53.5705 4.42398 53.5709 4.42439 53.5713 4.4248C53.5738 4.42808 53.5767 4.43095 53.5795 4.43382C53.5799 4.43464 53.5804 4.43505 53.5812 4.43587C53.584 4.43914 53.5865 4.44201 53.5898 4.4457L53.5902 4.44611C53.6 4.45717 53.6099 4.46783 53.6197 4.4793L53.6201 4.47971C55.6747 6.80931 57.2594 11.4701 58.1682 14.682C58.1691 14.684 58.1699 14.6865 58.1703 14.6886C58.1711 14.6906 58.1715 14.6927 58.1723 14.6951C58.1728 14.6972 58.1736 14.7 58.1744 14.7025C58.1748 14.7049 58.1752 14.7066 58.176 14.7086C58.4555 15.6974 58.6702 16.5469 58.8149 17.146Z" fill="#F58429"/>
<path d="M22.6558 30.2558C22.6558 30.2558 33.2916 30.5463 36.2416 27.0292C39.1916 23.512 43.6463 15.9799 51.3723 15.0025C48.9222 14.9608 40.4123 15.4091 35.0799 18.1357C28.4234 21.5398 24.0261 26.1334 22.6558 30.2558Z" fill="#DC6606"/>
<path d="M47.499 15.4391C47.499 15.4391 51.1022 15.7842 55.7758 19.0944C59.4064 21.6661 59.4171 23.0782 60.2387 23.4815C63.2919 24.9817 66.723 22.4554 65.6088 20.6831C64.9093 19.5701 57.7886 13.3075 47.499 15.4391Z" fill="#DC6606"/>
<path d="M65.6042 20.6828C64.992 19.7079 59.4542 14.7844 51.1767 15.0073C48.4848 14.9934 45.8504 15.531 40.9941 20.4312C36.8245 24.6388 35.4657 27.572 33.9053 28.6407C34.8822 28.2317 35.6972 27.7023 36.2558 27.0364C38.8374 23.9586 42.5709 17.8065 48.641 15.6622C51.3865 15.0098 55.5236 15.5077 59.0612 16.8665C61.6711 17.8688 64.5089 19.7882 65.7841 21.7277C65.8624 21.3737 65.8132 21.0151 65.6042 20.6828Z" fill="#F99F49"/>
<path d="M29.2749 40.9589C29.2331 40.9589 29.1909 40.9531 29.1491 40.9409C25.2378 39.7988 23.1102 39.5337 21.9202 39.3878C21.3842 39.1952 20.6134 39.1665 20.2753 39.2722C20.0434 39.3448 19.8041 39.457 19.5267 39.6382C19.416 39.4222 19.4595 39.026 19.6721 38.9088C19.875 38.7973 21.8727 37.8806 29.4007 40.0791C29.6384 40.1483 29.7749 40.3975 29.7056 40.636C29.6482 40.8319 29.4692 40.9589 29.2749 40.9589Z" fill="white"/>
<path d="M34.8526 55.0266C34.7862 55.0266 34.7186 55.0114 34.6551 54.9799C29.0546 52.2229 24.0569 48.0591 24.007 48.0177C23.9455 47.9661 23.9012 47.9014 23.875 47.8309C24.0451 47.7743 24.1573 47.7366 24.3085 47.6641C24.5622 47.542 24.6765 47.4523 24.72 47.4375C24.7691 47.4785 29.5509 51.4664 35.0513 54.1747C35.2738 54.2845 35.3652 54.5533 35.2558 54.7758C35.1779 54.9344 35.0185 55.0266 34.8526 55.0266Z" fill="white"/>
<path d="M61.4017 34.9172C61.3648 34.9172 61.3267 34.9131 61.2899 34.9033C61.0497 34.8418 60.9051 34.5972 60.9661 34.3571C61.5419 32.1119 61.1726 29.1291 61.169 29.0988C61.1378 28.8529 61.3116 28.6283 61.5574 28.5972C61.8074 28.5669 62.0279 28.7398 62.0594 28.9857C62.0758 29.1148 62.4532 32.1701 61.8361 34.5804C61.7836 34.7828 61.6013 34.9172 61.4017 34.9172Z" fill="white"/>
<path d="M29.236 40.536C29.261 40.1824 44.4958 32.794 48.3108 32.3453C52.1255 31.8962 60.7653 33.1309 61.5508 34.0283C62.3364 34.9261 62.5605 42.2194 61.5508 46.595C60.5407 50.971 53.8088 57.4111 51.1158 58.1627C48.4227 58.9146 39.7075 58.2844 36.1059 55.7212C32.5044 53.158 28.9401 44.7108 29.236 40.536Z" fill="#EAEAEA"/>
<path d="M47.0427 42.6764C45.3327 42.6764 43.5551 35.5991 43.4678 35.488C44.3631 35.1143 44.3246 35.1487 45.0856 34.875C45.3667 35.7646 46.8526 40.5656 47.3885 42.5748C47.2738 42.644 47.1587 42.6764 47.0427 42.6764Z" fill="#D3D3D3"/>
<path d="M48.0369 58.4903C49.3465 58.4903 50.446 58.3887 51.1426 58.194C50.446 58.3887 49.3469 58.4903 48.0369 58.4903ZM51.1508 58.1916C51.152 58.1912 51.1536 58.1908 51.1553 58.1904C51.1536 58.1908 51.152 58.1912 51.1508 58.1916ZM51.159 58.1895C51.1606 58.1887 51.1623 58.1883 51.1639 58.1879C51.1623 58.1883 51.1606 58.1891 51.159 58.1895ZM51.1672 58.1871C51.1688 58.1867 51.1704 58.1859 51.1721 58.1854C51.1709 58.1859 51.1688 58.1867 51.1672 58.1871ZM51.1754 58.1846C51.1774 58.1842 51.179 58.1834 51.1811 58.183C51.179 58.1834 51.1774 58.1842 51.1754 58.1846ZM51.1835 58.1822C51.1856 58.1818 51.1872 58.1809 51.1897 58.1805C51.1877 58.1809 51.1856 58.1818 51.1835 58.1822ZM51.1913 58.1801C51.1938 58.1793 51.1958 58.1785 51.1983 58.1781C51.1958 58.1785 51.1934 58.1793 51.1913 58.1801ZM51.1987 58.1777C51.3405 58.135 51.4929 58.0773 51.6548 58.0051C51.4929 58.0773 51.3405 58.135 51.1987 58.1777ZM51.6556 58.0047C51.6581 58.0035 51.661 58.0027 51.6634 58.0014C51.661 58.0027 51.6585 58.0035 51.6556 58.0047ZM51.6655 58.0006C51.6679 57.9994 51.67 57.9986 51.6724 57.9974C51.67 57.9986 51.6679 57.9994 51.6655 58.0006ZM51.6753 57.9961C51.6777 57.9949 51.6794 57.9941 51.6818 57.9933C51.6798 57.9941 51.6773 57.9953 51.6753 57.9961ZM51.6855 57.9916C51.6872 57.9908 51.6892 57.99 51.6909 57.9892C51.6892 57.99 51.6872 57.9908 51.6855 57.9916ZM51.6962 57.9867C51.6978 57.9859 51.6991 57.9855 51.7007 57.9846C51.6991 57.9851 51.6978 57.9859 51.6962 57.9867ZM51.7068 57.9818C51.7081 57.9814 51.7093 57.9805 51.7101 57.9801C51.7093 57.9805 51.7081 57.9814 51.7068 57.9818ZM51.7404 57.9662C51.7413 57.9658 51.7421 57.9654 51.7425 57.9654C51.7417 57.9658 51.7413 57.9658 51.7404 57.9662ZM51.7511 57.9613C51.7515 57.9613 51.7523 57.9609 51.7527 57.9605C51.7519 57.9609 51.7515 57.9613 51.7511 57.9613ZM51.7613 57.9568C51.7617 57.9564 51.7622 57.956 51.763 57.956C51.7622 57.956 51.7617 57.9564 51.7613 57.9568ZM51.7724 57.9515C51.7724 57.951 51.7724 57.9515 51.7728 57.951C51.7724 57.951 51.7724 57.9515 51.7724 57.9515ZM38.8193 57.0631C38.4292 56.9274 38.0555 56.7811 37.7026 56.625H37.703C38.0559 56.7815 38.4292 56.9274 38.8193 57.0631Z" fill="#B4D3BB"/>
<path d="M37.6764 56.5777H37.676C37.0871 56.3162 36.5569 56.0261 36.1061 55.7052C35.791 55.4811 35.4763 55.2119 35.1645 54.9041C35.4763 55.2115 35.7914 55.4811 36.1061 55.7052C36.5569 56.0261 37.0876 56.3162 37.6764 56.5777ZM34.0954 53.6916H34.0949C31.4154 50.2564 29.1932 44.4306 29.219 40.9688C29.1936 44.4306 31.4154 50.2564 34.0954 53.6916Z" fill="#ADDDD7"/>
<path d="M29.2188 40.9499C29.2188 40.7959 29.2188 40.6459 29.2188 40.5012C29.2188 40.6459 29.2188 40.7959 29.2188 40.9499ZM29.2188 40.5012V40.5008V40.5012ZM29.2188 40.5008V40.5004V40.5008ZM29.2188 40.5004V40.5V40.5004Z" fill="#A9DFF0"/>
<path d="M35.1633 54.9313C34.8015 54.5748 34.4441 54.1675 34.0938 53.7188H34.0942C34.4441 54.1675 34.8015 54.5748 35.1633 54.9313Z" fill="#A9DFF0"/>
<path d="M48.0102 58.4262C45.2696 58.4262 41.6078 57.9796 38.7927 56.999C38.4025 56.8633 38.0292 56.7174 37.6764 56.5609C37.0876 56.2995 36.5569 56.0093 36.1061 55.6885C35.7914 55.4643 35.4763 55.1947 35.1645 54.8874C34.8026 54.5309 34.4453 54.1235 34.0953 53.6748C31.4154 50.2396 29.1936 44.4138 29.219 40.952C29.2202 40.7979 29.2259 40.6479 29.2362 40.5033V40.5029V40.5025V40.5021C29.2366 40.5008 29.237 40.5 29.2378 40.5C29.2993 40.5 30.9044 44.6687 33.3983 46.9495C36.6708 49.943 40.5682 51.5108 44.8541 52.4848C47.0362 52.9811 49.8358 53.3474 52.6743 53.3474C54.379 53.3474 56.0981 53.215 57.7052 52.8991C55.6772 55.1845 53.314 57.1465 51.7462 57.8869C51.7458 57.8874 51.7458 57.8869 51.7458 57.8874C51.7429 57.8886 51.7392 57.8902 51.7364 57.8919C51.7355 57.8919 51.7351 57.8923 51.7347 57.8927C51.7319 57.8939 51.729 57.8951 51.7261 57.8964C51.7257 57.8968 51.7249 57.8972 51.7245 57.8972C51.7216 57.8984 51.7187 57.9001 51.7159 57.9013C51.7155 57.9013 51.7146 57.9017 51.7138 57.9021C51.7073 57.9054 51.7003 57.9083 51.6937 57.9115C51.6905 57.9132 51.6872 57.9144 51.6835 57.916C51.6827 57.9164 51.6815 57.9173 51.6802 57.9177C51.6782 57.9185 51.6761 57.9193 51.6741 57.9205C51.6724 57.9214 51.6712 57.9218 51.6696 57.9226C51.6679 57.9234 51.6659 57.9242 51.6642 57.9251C51.6626 57.9259 51.6606 57.9267 51.6589 57.9275C51.6577 57.9279 51.6565 57.9283 51.6552 57.9292C51.6528 57.93 51.6511 57.9308 51.6487 57.932C51.6479 57.9324 51.6466 57.9328 51.6458 57.9333C51.6433 57.9345 51.6413 57.9353 51.6388 57.9365C51.638 57.9365 51.6376 57.9369 51.6368 57.9373C51.6343 57.9386 51.6315 57.9394 51.629 57.9406C51.629 57.9406 51.6286 57.941 51.6282 57.941C51.4663 58.0132 51.3139 58.0709 51.1721 58.1136C51.1721 58.1136 51.1717 58.1136 51.1717 58.114C51.1692 58.1144 51.1672 58.1152 51.1647 58.116C51.1643 58.116 51.1635 58.116 51.1631 58.1164C51.1606 58.1168 51.159 58.1177 51.1569 58.1181C51.1561 58.1185 51.1553 58.1185 51.1545 58.1189C51.1524 58.1193 51.1508 58.1201 51.1487 58.1205C51.1479 58.1209 51.1467 58.1209 51.1455 58.1213C51.1438 58.1218 51.1422 58.1226 51.1405 58.123C51.1393 58.1234 51.1385 58.1234 51.1373 58.1238C51.1356 58.1242 51.134 58.1246 51.1323 58.1254C51.1311 58.1258 51.1299 58.1258 51.1287 58.1263C51.127 58.1267 51.1254 58.1271 51.1242 58.1275C51.1213 58.1283 51.1188 58.1291 51.116 58.1299C50.4193 58.3246 49.3199 58.4262 48.0102 58.4262Z" fill="#D3D3D3"/>
<path d="M50.2998 133.062C50.233 131.297 50.14 129.157 50.0277 126.749C51.0157 126.434 52.2963 126.089 53.1629 126.089C53.3687 126.089 53.551 126.108 53.701 126.152C54.7418 126.458 56.6121 127.388 58.6667 127.388C59.197 127.388 59.7395 127.326 60.2829 127.176C62.5928 126.536 68.633 124.861 69.6849 123.737L69.7799 123.721L69.8426 123.815L51.8303 133.01C51.3206 133.03 50.81 133.046 50.2998 133.062ZM45.355 131.613L41.2937 129.242C41.8792 129.086 42.4681 128.92 43.0664 128.742L40.2877 122.468C41.8624 122.301 43.429 122.187 44.8969 122.018C45.0735 125.656 45.2288 128.932 45.355 131.613ZM44.8432 120.9C42.8377 120.263 40.9269 119.496 39.2435 118.759L34.0459 92.1823L39.3821 90.6562L43.0738 117.992L44.7407 118.808C44.7756 119.516 44.8096 120.213 44.8432 120.9Z" fill="#E36B09"/>
<path d="M50.286 133.8C50.2774 133.569 50.2688 133.332 50.2594 133.085C50.7696 133.069 51.2802 133.052 51.7899 133.033L50.286 133.8ZM40.2472 122.491L39.6768 121.203L39.2031 118.781C40.8865 119.519 42.7973 120.286 44.8028 120.923C44.8069 121.008 44.8106 121.094 44.8151 121.179C44.663 121.212 44.577 121.232 44.577 121.232L44.8368 121.629C44.8438 121.766 44.8503 121.904 44.8565 122.04C43.3886 122.21 41.822 122.324 40.2472 122.491Z" fill="#E36B09"/>
<path d="M49.645 134.188L45.3477 131.679C45.2214 128.999 45.0661 125.722 44.8895 122.084C44.8834 121.948 44.8768 121.81 44.8699 121.673L48.5669 127.324C48.5669 127.324 49.1906 127.08 50.0204 126.816C50.1327 129.224 50.2257 131.364 50.2925 133.129C50.3019 133.376 50.3105 133.613 50.3191 133.844L49.645 134.188ZM44.8481 121.223C44.8436 121.138 44.8399 121.053 44.8358 120.967C44.8022 120.28 44.7682 119.583 44.7334 118.875L48.1874 120.566C46.8606 120.792 45.4079 121.101 44.8481 121.223Z" fill="#E08F37"/>
<path d="M41.9465 87.3552L41.1245 71.1562C41.3819 71.2833 41.6417 71.4025 41.9031 71.5132C42.208 74.1612 42.6096 80.0067 43.0361 87.2016L41.9465 87.3552ZM47.8514 86.5226C47.3814 78.2368 47.0356 72.3262 47.0356 72.3262C47.2532 72.3508 47.4687 72.3626 47.6814 72.3626C48.3641 72.3626 49.0201 72.2401 49.6467 72.0217L49.9077 73.9538C49.9077 73.953 49.9073 73.953 49.9073 73.953L51.5349 86.003L47.8514 86.5226Z" fill="#E36B09"/>
<path d="M47.0578 72.2225C47.05 70.2924 46.687 68.2489 46.0928 66.8294L47.075 66C46.7382 67.3932 47.0525 69.863 47.0582 72.2225H47.0578Z" fill="#CABBB3"/>
<path d="M47.0409 72.3C47.0409 72.3 43.9614 71.8836 41.8215 70.8022C41.8498 70.9985 41.8785 71.2276 41.9084 71.487C41.647 71.3763 41.3872 71.2571 41.1298 71.13L41.1245 71.0247L46.0755 66.8438C46.6696 68.2632 47.0327 70.3068 47.0405 72.2369C47.0409 72.2578 47.0409 72.2787 47.0409 72.3Z" fill="#E08F37"/>
<path d="M47.6748 72.3635C47.4621 72.3635 47.2466 72.3516 47.029 72.327C47.029 72.3057 47.029 72.2848 47.029 72.2639C47.0233 69.9044 46.709 67.4347 47.0458 66.0414L48.6497 64.6875L49.6401 72.0226C49.0136 72.241 48.3575 72.3635 47.6748 72.3635Z" fill="#E08F37"/>
<path d="M43.0476 87.1544C42.621 79.9595 42.2194 74.114 41.9145 71.466C41.8846 71.2066 41.8559 70.9775 41.8276 70.7812C43.9675 71.8627 47.047 72.279 47.047 72.279C47.047 72.279 47.3928 78.1897 47.8629 86.4754L43.0476 87.1544Z" fill="#E08F37"/>
<path d="M30.8823 61.6875C30.8823 61.6875 15.2312 64.1146 5.21702 81.5094C-8.24752 104.897 4.76831 140.155 43.0434 128.745L39.3521 120.411C39.3521 120.411 13.5995 118.441 20.1461 82.7059C22.5347 69.6671 29.5936 64.3867 30.8823 61.6875Z" fill="#F58429"/>
<path d="M0.671387 93.9475C1.21394 90.9471 2.11422 87.9754 3.37429 85.125C2.11381 87.9762 1.21435 90.9463 0.671387 93.9475Z" fill="#A4CEEE"/>
<path d="M0.53125 94.6976C0.571819 94.4452 0.615666 94.1899 0.661152 93.9375C0.615666 94.1903 0.572228 94.4444 0.53125 94.6976Z" fill="#91C4EA"/>
<path d="M5.12451 81.6694C5.12943 81.6608 5.13393 81.653 5.13885 81.6444C5.13393 81.653 5.12943 81.6608 5.12451 81.6694ZM5.19704 81.5428C5.20483 81.5289 5.2122 81.5162 5.2204 81.5022C5.2122 81.5166 5.20524 81.5285 5.19704 81.5428ZM5.23966 81.4686C5.24129 81.4653 5.24334 81.4625 5.24498 81.4592C5.24375 81.4613 5.24088 81.4666 5.23966 81.4686ZM5.2626 81.4285C5.26342 81.4272 5.26383 81.4264 5.26465 81.4252C5.26424 81.4264 5.26342 81.4277 5.2626 81.4285ZM5.28269 81.3945C5.28474 81.3904 5.28719 81.3863 5.28965 81.3822C5.28719 81.3863 5.28515 81.3899 5.28269 81.3945ZM5.30522 81.3551C5.30645 81.3527 5.30809 81.3502 5.30932 81.3481C5.30768 81.351 5.30727 81.3518 5.30522 81.3551ZM5.32612 81.3191C5.32899 81.3141 5.33186 81.3096 5.33473 81.3047C5.33227 81.3088 5.32858 81.3145 5.32612 81.3191ZM5.34702 81.283C5.34948 81.2789 5.35193 81.2748 5.35439 81.2707C5.35193 81.2748 5.34948 81.2789 5.34702 81.283ZM5.36997 81.2441C5.37284 81.2387 5.37529 81.2346 5.37857 81.2293C5.37529 81.2346 5.37325 81.2387 5.36997 81.2441ZM5.39005 81.2092C5.39373 81.2031 5.39783 81.1965 5.40152 81.1904C5.39783 81.1965 5.39373 81.2031 5.39005 81.2092ZM5.41381 81.1691C5.41709 81.1637 5.42037 81.158 5.42365 81.1527C5.42037 81.1576 5.41668 81.1637 5.41381 81.1691ZM5.43266 81.1371C5.43799 81.1277 5.44373 81.1183 5.44905 81.1088C5.44373 81.1183 5.43799 81.1277 5.43266 81.1371ZM5.45725 81.0953C5.46053 81.0896 5.46422 81.083 5.4679 81.0769C5.46463 81.0822 5.46012 81.09 5.45725 81.0953ZM5.47692 81.0617C5.48184 81.0531 5.48634 81.0457 5.49167 81.0371C5.48675 81.0453 5.48184 81.0535 5.47692 81.0617ZM5.50191 81.0191C5.5056 81.0134 5.50888 81.0076 5.51216 81.0019C5.50929 81.0068 5.50519 81.0138 5.50191 81.0191ZM5.52077 80.9875C5.52568 80.9794 5.5306 80.9707 5.53552 80.9625C5.5306 80.9707 5.52568 80.9794 5.52077 80.9875ZM5.54617 80.9445C5.54945 80.9392 5.55314 80.933 5.55642 80.9277C5.55314 80.933 5.54945 80.9392 5.54617 80.9445ZM5.56584 80.9117C5.57035 80.904 5.57526 80.8958 5.57977 80.888C5.57486 80.8962 5.57076 80.9035 5.56584 80.9117ZM5.59084 80.8695C5.59453 80.8638 5.59739 80.8585 5.60108 80.8527C5.5978 80.8581 5.59412 80.8642 5.59084 80.8695ZM5.60969 80.8376C5.61501 80.8294 5.62034 80.8204 5.62526 80.8118C5.62034 80.8199 5.6146 80.8294 5.60969 80.8376ZM5.63468 80.7958C5.63878 80.7892 5.64206 80.7839 5.64575 80.7773C5.64206 80.7835 5.63837 80.7896 5.63468 80.7958ZM5.65394 80.7638C5.65886 80.7556 5.6646 80.7466 5.66952 80.738C5.6646 80.7462 5.65886 80.7556 5.65394 80.7638ZM5.67935 80.7216C5.68344 80.715 5.68755 80.7077 5.69165 80.7011C5.68714 80.7085 5.68385 80.7142 5.67935 80.7216ZM5.69656 80.6929C5.70435 80.6802 5.71172 80.6679 5.71951 80.6552C5.71172 80.6675 5.70394 80.6806 5.69656 80.6929ZM5.72402 80.6474C5.7277 80.6413 5.73139 80.6351 5.73508 80.629C5.73139 80.6351 5.7277 80.6413 5.72402 80.6474ZM5.74327 80.6155C5.74737 80.6085 5.75188 80.6011 5.75598 80.5946C5.75229 80.6007 5.74696 80.6093 5.74327 80.6155ZM5.7695 80.5724C5.77278 80.5671 5.77565 80.5618 5.77893 80.5565C5.77565 80.5618 5.77237 80.5671 5.7695 80.5724ZM5.78917 80.5401C5.79204 80.5347 5.79491 80.5302 5.79777 80.5253C5.79491 80.5306 5.79204 80.5347 5.78917 80.5401ZM5.81376 80.4991C5.81703 80.4942 5.82032 80.4888 5.82318 80.4835C5.82032 80.4888 5.81703 80.4938 5.81376 80.4991ZM5.83466 80.4647C5.83712 80.461 5.83998 80.4561 5.84244 80.4524C5.83916 80.4573 5.83794 80.4598 5.83466 80.4647ZM5.85965 80.4237C5.86252 80.4196 5.86498 80.4151 5.86744 80.411C5.86498 80.4151 5.86211 80.4196 5.85965 80.4237ZM5.87932 80.3917C5.88178 80.3876 5.88465 80.3831 5.88711 80.379C5.88465 80.3831 5.88178 80.3876 5.87932 80.3917ZM5.90473 80.3503C5.90678 80.3467 5.90964 80.3426 5.91169 80.3389C5.90964 80.3421 5.90678 80.3471 5.90473 80.3503ZM5.92522 80.3171C5.92727 80.3135 5.92973 80.3094 5.93178 80.3061C5.93014 80.3089 5.92727 80.3139 5.92522 80.3171ZM5.9498 80.277C5.95226 80.2733 5.95431 80.2696 5.95677 80.2659C5.95472 80.2688 5.95185 80.2737 5.9498 80.277ZM5.97071 80.2434C5.97275 80.2401 5.97439 80.2372 5.97644 80.234C5.97439 80.2368 5.97234 80.2405 5.97071 80.2434ZM5.99529 80.2036C5.99693 80.2004 5.99857 80.1975 6.00062 80.1946C5.99857 80.1975 5.99693 80.2004 5.99529 80.2036ZM6.0166 80.1688C6.01783 80.1664 6.01946 80.1639 6.0211 80.1614C6.01905 80.1647 6.01865 80.1659 6.0166 80.1688ZM6.04037 80.1303C6.04201 80.1278 6.04405 80.125 6.04569 80.1221C6.04365 80.1254 6.04242 80.1274 6.04037 80.1303ZM6.06168 80.0963C6.06291 80.0938 6.06454 80.0914 6.06618 80.0893C6.06454 80.0914 6.06291 80.0942 6.06168 80.0963ZM6.08585 80.0569C6.08708 80.0557 6.08831 80.0533 6.08954 80.0516C6.0879 80.0537 6.08708 80.0549 6.08585 80.0569ZM6.10757 80.0221C6.1088 80.0205 6.10962 80.0192 6.11085 80.0176C6.10962 80.0196 6.10921 80.0201 6.10757 80.0221ZM6.13174 79.984C6.13256 79.9828 6.13256 79.9824 6.13338 79.9811C6.13297 79.9819 6.13215 79.9828 6.13174 79.984ZM6.15305 79.95C6.15387 79.9483 6.15469 79.9467 6.15592 79.9455C6.15469 79.9475 6.15428 79.9479 6.15305 79.95ZM6.17682 79.9123C6.17723 79.9111 6.17846 79.9094 6.17887 79.9086C6.17846 79.9094 6.17723 79.9111 6.17682 79.9123ZM6.19977 79.8754L6.20018 79.875L6.19977 79.8754Z" fill="#A4CEEE"/>
<path d="M29.0779 131.001C7.34194 131.001 -2.3018 112.518 0.551084 94.7543C0.592062 94.501 0.635499 94.247 0.680984 93.9941C1.22394 90.9929 2.12341 88.0228 3.38389 85.1716C3.90226 83.9988 4.48128 82.8469 5.12135 81.7216C5.12627 81.713 5.13077 81.7052 5.13569 81.6966C5.15454 81.6634 5.17463 81.6282 5.19389 81.595C5.20208 81.5807 5.20904 81.5688 5.21724 81.5544C5.22339 81.5434 5.22994 81.5319 5.2365 81.5208C5.23773 81.5188 5.2406 81.5135 5.24183 81.5114C5.24797 81.5012 5.25371 81.4909 5.25945 81.4807C5.26027 81.4799 5.26109 81.4786 5.2615 81.4774C5.26723 81.4672 5.27338 81.4569 5.27953 81.4467C5.28199 81.4422 5.28404 81.4385 5.2865 81.4344C5.29182 81.4254 5.29674 81.4163 5.30206 81.4073C5.30411 81.4041 5.30452 81.4032 5.30616 81.4004C5.3119 81.3905 5.31722 81.3811 5.32296 81.3713C5.32542 81.3668 5.32911 81.361 5.33157 81.3569C5.33567 81.35 5.33977 81.3426 5.34386 81.3352C5.34632 81.3311 5.34878 81.327 5.35124 81.3229C5.35615 81.3143 5.36189 81.3049 5.36681 81.2963C5.37009 81.291 5.37214 81.2869 5.37542 81.2815C5.3791 81.275 5.3832 81.2684 5.38689 81.2615C5.39058 81.2553 5.39467 81.2487 5.39836 81.2426C5.40246 81.2356 5.40656 81.2283 5.41066 81.2213C5.41352 81.216 5.41721 81.2098 5.42049 81.2049C5.42336 81.1996 5.42623 81.1947 5.42951 81.1893C5.43483 81.1799 5.44057 81.1705 5.4459 81.1611C5.44876 81.1565 5.45122 81.1524 5.45409 81.1475C5.45696 81.1422 5.46147 81.1344 5.46475 81.1291C5.46762 81.1242 5.4709 81.1193 5.47376 81.1139C5.47868 81.1057 5.4836 81.0975 5.48851 81.0893C5.49179 81.0832 5.49548 81.077 5.49876 81.0713C5.50203 81.066 5.50614 81.059 5.509 81.0541C5.51187 81.0492 5.51474 81.0443 5.51761 81.0398C5.52253 81.0316 5.52744 81.023 5.53236 81.0148C5.53605 81.0086 5.53933 81.0029 5.54301 80.9967C5.54629 80.9914 5.54998 80.9853 5.55326 80.9799C5.55613 80.9746 5.55941 80.9693 5.56268 80.964C5.5676 80.9558 5.5717 80.9484 5.57662 80.9402C5.5803 80.9336 5.584 80.9279 5.58768 80.9217C5.59096 80.9164 5.59465 80.9103 5.59793 80.9049C5.60079 80.9 5.60366 80.8951 5.60653 80.8898C5.61145 80.8816 5.61719 80.8722 5.6221 80.864C5.62538 80.8586 5.62866 80.8533 5.63153 80.848C5.63522 80.8418 5.63891 80.8357 5.64259 80.8295C5.64546 80.8254 5.64833 80.8205 5.65079 80.816C5.6557 80.8078 5.66144 80.7984 5.66636 80.7902C5.67005 80.7845 5.67291 80.7795 5.67619 80.7738C5.6807 80.7664 5.68398 80.7607 5.68849 80.7533C5.69013 80.7509 5.69177 80.748 5.6934 80.7451C5.70078 80.7328 5.70857 80.7197 5.71635 80.7074C5.71799 80.7046 5.71922 80.7025 5.72086 80.6996C5.72455 80.6935 5.72823 80.6873 5.73192 80.6812C5.73479 80.6767 5.73725 80.6722 5.74012 80.6677C5.74381 80.6615 5.74914 80.6529 5.75282 80.6468C5.75733 80.6394 5.76184 80.632 5.76634 80.6247C5.76921 80.6193 5.77249 80.614 5.77577 80.6087C5.77905 80.6033 5.78274 80.5976 5.78601 80.5923C5.78888 80.587 5.79175 80.5829 5.79462 80.5775C5.79994 80.5689 5.80527 80.5599 5.8106 80.5513C5.81388 80.546 5.81716 80.5411 5.82003 80.5357C5.82413 80.5296 5.82781 80.5234 5.8315 80.5169C5.83478 80.512 5.83601 80.5095 5.83929 80.5046C5.84502 80.4948 5.85076 80.4853 5.85649 80.4759C5.85895 80.4718 5.86182 80.4673 5.86428 80.4632C5.86838 80.4566 5.87248 80.4505 5.87617 80.4439C5.87862 80.4398 5.88149 80.4353 5.88395 80.4312C5.8901 80.4214 5.89542 80.4124 5.90157 80.4025C5.90362 80.3993 5.90649 80.3944 5.90854 80.3911C5.91304 80.3837 5.91755 80.3767 5.92206 80.3694C5.92411 80.3661 5.92698 80.3612 5.92862 80.3583C5.93477 80.3485 5.9405 80.339 5.94665 80.3292C5.9487 80.3259 5.95156 80.321 5.95361 80.3181C5.95812 80.3108 5.96304 80.303 5.96755 80.2956C5.96919 80.2927 5.97123 80.289 5.97328 80.2862C5.97943 80.2763 5.98599 80.2657 5.99214 80.2558C5.99377 80.2526 5.99541 80.2497 5.99746 80.2468C6.00279 80.2382 6.00812 80.2296 6.01344 80.221C6.01549 80.2182 6.0159 80.2169 6.01795 80.2136C6.0245 80.203 6.03065 80.1932 6.03721 80.1825C6.03926 80.1796 6.04049 80.1776 6.04254 80.1743C6.04787 80.1657 6.05319 80.1571 6.05852 80.1485C6.05975 80.1464 6.06138 80.1436 6.06302 80.1415C6.06958 80.1305 6.07614 80.1202 6.08269 80.1092C6.08392 80.1071 6.08474 80.1059 6.08638 80.1038C6.09212 80.094 6.09868 80.0842 6.10442 80.0743C6.10605 80.0723 6.10646 80.0719 6.10769 80.0698C6.11425 80.0587 6.12162 80.0469 6.12859 80.0362C6.129 80.035 6.12982 80.0342 6.13023 80.0333C6.13678 80.0227 6.14334 80.0124 6.1499 80.0022C6.15113 80.0001 6.15154 79.9997 6.15277 79.9977C6.15932 79.9866 6.1667 79.9751 6.17366 79.9645C6.17407 79.9633 6.17531 79.9616 6.17572 79.9608C6.18309 79.9493 6.18965 79.9387 6.19661 79.9276L6.19703 79.9272C9.72728 74.3194 13.8329 70.406 17.6717 67.6875C14.9979 70.4474 12.3605 73.8944 10.0293 78.2172C-1.30071 99.2254 6.12162 129.202 31.5636 130.923C30.7182 130.975 29.8896 131.001 29.0779 131.001Z" fill="#E36B09"/>
<path d="M44.5933 121.248L48.5501 127.296C48.5501 127.296 52.3672 125.807 53.6768 126.191C54.9865 126.576 57.6083 127.949 60.2587 127.215C62.9096 126.481 70.4729 124.383 69.773 123.319C69.0731 122.255 66.4153 121.179 64.9527 122.057C63.4902 122.935 57.1567 122.77 57.1567 122.77C57.1567 122.77 51.3362 120.633 50.6949 120.33C50.0536 120.026 44.5933 121.248 44.5933 121.248Z" fill="#F9B299"/>
<path d="M45.66 120.79C45.66 120.79 47.6901 125.396 49.3685 126.858C46.9053 128.986 41.2619 129.303 41.2619 129.303L39.3433 120.469L45.66 120.79Z" fill="#F99F49"/>
<path d="M38.9683 87.75L43.0579 118.032L58.5742 125.629L56.5687 95.6567L38.9683 87.75Z" fill="#FFB800"/>
<path d="M58.5776 125.658L43.0613 118.061L40.7026 100.594C40.7026 100.594 45.6483 116.775 51.4212 116.775C53.4087 116.775 55.4945 114.857 57.5097 109.701L58.5776 125.658Z" fill="#E3A20C"/>
<path d="M38.9683 87.7211L76.6545 82.4062L97.6258 89.2082L56.5687 95.6278L38.9683 87.7211Z" fill="#FFB800"/>
<path d="M97.6039 89.25L93.593 119.792L58.5523 125.642L56.5469 95.6696L97.6039 89.25Z" fill="#FFB800"/>
<path d="M58.5638 125.627L57.2964 106.688C61.0258 116.04 72.4619 118.046 81.584 118.046C88.4351 118.046 93.9803 116.915 93.9803 116.915L93.6045 119.777L81.4041 121.814L73.0077 123.216L70.0565 123.708L58.5638 125.627Z" fill="#E3A20C"/>
<path d="M49.757 92.6033L44.5073 90.2737L44.4995 90.27L48.9096 89.625L53.908 92.0234L49.757 92.6033Z" fill="#F5DAA2"/>
<path d="M89.4521 87.0528L89.5083 86.625L90.4131 86.9184L89.4521 87.0528Z" fill="#F5DAA2"/>
<path d="M50.5294 109.623L46.421 107.384L44.4995 90.1875L44.5073 90.1912L49.7582 92.5499L50.5294 109.623Z" fill="#E2CB94"/>
<path d="M49.7504 92.6399L44.4995 90.2812L49.7492 92.6109L49.7504 92.6399Z" fill="#F5DAA2"/>
<path d="M59.2021 94.5135L53.9266 91.9827L60.2433 91.1L63.2298 92.5625L89.2951 88.2111L59.2021 94.5135ZM48.9281 89.5842L43.7021 87.0772L51.5613 85.9688L51.6883 86.9112L55.2571 88.6585L48.9281 89.5842Z" fill="#CD9107"/>
<path d="M53.9042 92.0116L48.9058 89.6132L55.2348 88.6875L60.221 91.129L53.9042 92.0116Z" fill="#E5AE5D"/>
<path d="M48.6245 64.4062L51.6667 86.9314L63.2081 92.5827L61.7166 70.2874L48.6245 64.4062Z" fill="#FFB800"/>
<path d="M51.5183 85.925L49.8906 73.875C49.8906 73.875 49.891 73.875 49.891 73.8758L51.5187 85.925H51.5183Z" fill="#2C6DB5"/>
<path d="M55.2266 88.6585L51.6578 86.9112L51.5308 85.9688L51.6578 86.9112L55.2266 88.6585Z" fill="#D59540"/>
<path d="M63.1867 92.5179L60.2003 91.0554L55.2141 88.614L51.6453 86.8667L51.5183 85.9242L49.8906 73.875C49.9255 73.9885 53.5893 85.9102 57.8637 85.9102C59.3418 85.9102 60.8936 84.4826 62.3926 80.6483L63.1867 92.5179Z" fill="#E3A20C"/>
<path d="M48.6245 64.4223L76.6571 60.4688L92.257 65.5287L61.7166 70.3035L48.6245 64.4223Z" fill="#FFB800"/>
<path d="M92.2436 65.5312L89.26 88.2499L63.1947 92.6013L61.7031 70.306L92.2436 65.5312Z" fill="#FFB800"/>
<path d="M63.2076 92.557L62.2651 78.4688C65.0389 85.4256 73.546 86.9176 80.3315 86.9176C85.4275 86.918 89.5524 86.0767 89.5524 86.0767L89.2729 88.2055L63.2076 92.557Z" fill="#E3A20C"/>
<path d="M86.901 63.7893L81.5771 62.0625L86.9014 63.7893" fill="white"/>
<path d="M56.66 68.0121L52.7495 66.2767L81.5636 62.0625L86.8874 63.7893L56.66 68.0121Z" fill="#F5DAA2"/>
<path d="M57.235 80.7383L54.1788 79.0725L52.7495 66.2812L56.6613 68.0384L57.235 80.7383Z" fill="#E2CB94"/>
<path d="M56.6613 68.0384L52.7495 66.2812L56.66 68.0167L56.6613 68.0384Z" fill="#F5DAA2"/>
<path d="M50.7457 29.6179C51.1499 30.7442 52.3909 31.3293 53.5169 30.9251C54.6432 30.521 55.2284 29.2803 54.8242 28.1539C54.42 27.0279 53.1793 26.4425 52.053 26.8467C50.9267 27.2509 50.3415 28.4918 50.7457 29.6179Z" fill="#282B30"/>
<path d="M35.6993 33.8366C36.1035 34.9629 37.3445 35.5481 38.4705 35.1439C39.5968 34.7397 40.182 33.499 39.7778 32.3727C39.3736 31.2467 38.1329 30.6612 37.0066 31.0654C35.8803 31.4696 35.2951 32.7106 35.6993 33.8366Z" fill="#282B30"/>
<path d="M54.4361 25.6917C54.1794 25.7448 53.9023 25.665 53.7125 25.4582C53.6937 25.4379 53.0461 24.7619 52.2107 24.7862C51.6218 24.8035 51.0269 25.1693 50.4444 25.8732C50.174 26.2 49.6903 26.2457 49.3633 25.9756C49.0368 25.7051 48.9908 25.2212 49.2612 24.8944C50.1444 23.8268 51.129 23.2739 52.1881 23.2507C53.7383 23.2167 54.8042 24.3756 54.8485 24.4249C55.133 24.7396 55.1086 25.225 54.7939 25.5092C54.6892 25.604 54.5651 25.6644 54.4361 25.6917Z" fill="#282B30"/>
<path d="M39.4356 29.9104C39.1789 29.9635 38.9018 29.8837 38.712 29.6769C38.6932 29.6567 38.0456 28.9806 37.2102 29.005C36.6213 29.0223 36.0264 29.388 35.4439 30.092C35.1735 30.4187 34.6898 30.4645 34.3628 30.1943C34.0363 29.9239 33.9903 29.4399 34.2607 29.1132C35.1439 28.0455 36.1285 27.4927 37.1876 27.4695C38.7378 27.4355 39.8037 28.5943 39.848 28.6436C40.1325 28.9583 40.1081 29.4438 39.7934 29.728C39.6887 29.8227 39.5646 29.8831 39.4356 29.9104Z" fill="#282B30"/>
</svg>
