<svg width="41" height="41" viewBox="0 0 41 41" fill="none" xmlns="http://www.w3.org/2000/svg">
<path d="M27.5 11.5C26.5 0 13 3.49995 13 12.5C17 13.5 21 11 23 10.5C24.6 10.1 26.6667 11.6667 27.5 12.5V11.5Z" fill="#FFCA3B"/>
<path d="M10 14C10 12.8954 10.8954 12 12 12H13V16H12C10.8954 16 10 15.1046 10 14V14Z" fill="#FF8517"/>
<path d="M31 14C31 12.8954 30.1046 12 29 12H28V16H29C30.1046 16 31 15.1046 31 14V14Z" fill="#FF8517"/>
<rect width="11.3223" height="4.12433" transform="matrix(-0.018246 0.999834 0.999834 0.018246 18.522 28.684)" fill="#FF8517"/>
<path d="M36.1407 33.9348C36.0496 28.3627 30.3525 26.7165 26.1926 25.5144C25.7072 25.3742 25.2405 25.2393 24.8031 25.1046V22.8059C25.6535 22.2729 26.3987 21.5868 26.9999 20.7866H29.5339C30.7739 20.7866 31.7828 19.7777 31.7828 18.5377V15.8153C31.9331 15.4649 32.0166 15.0792 32.0166 14.6743V13.8276C32.0166 13.4231 31.9331 13.0377 31.7828 12.6875V11.2831C31.7828 5.0616 26.7213 0 20.5 0C14.2798 0 9.2194 5.0616 9.2194 11.2831V12.6473C9.2194 12.6581 9.2206 12.6684 9.221 12.6791C9.06837 13.0316 8.98333 13.4198 8.98333 13.8277V14.6744C8.98333 16.2749 10.2844 17.5771 11.8837 17.5771H12.5455C13.0038 19.7751 14.3532 21.6497 16.1969 22.8055V25.1046C15.7594 25.2393 15.2927 25.3741 14.8074 25.5144C10.6474 26.7165 4.95034 28.3628 4.85921 33.9348C4.85913 33.9392 4.85913 33.9436 4.85913 33.948V40.1992C4.85913 40.6415 5.21772 41 5.65992 41H8.03408C8.47627 41 8.83486 40.6415 8.83486 40.1992C8.83486 39.7569 8.47627 39.3984 8.03408 39.3984H6.46062V33.9546C6.49433 32.0106 7.38737 30.5532 9.27089 29.3684C10.5138 28.5866 12.0333 28.0296 13.5311 27.5636L15.4658 31.3333C15.6815 31.7534 16.2336 31.8962 16.626 31.6315L17.4887 31.0495L18.2293 33.8333L16.9603 39.3984H15.2249C14.7827 39.3984 14.4241 39.7569 14.4241 40.1991C14.4241 40.6414 14.7827 40.9999 15.2249 40.9999H35.34C35.7822 40.9999 36.1408 40.6414 36.1408 40.1991V33.9479C36.1408 33.9436 36.1408 33.9392 36.1407 33.9348V33.9348ZM25.748 27.053C25.8008 27.0682 25.8544 27.0838 25.9076 27.0992L24.5233 29.7989L21.9327 28.052L24.1277 26.5715C24.6376 26.7319 25.1799 26.8888 25.748 27.053ZM20.5005 29.018L22.1063 30.1008L21.3302 33.0178H19.6697L18.8939 30.1017L20.5005 29.018ZM20.5004 27.0863L17.7984 25.2643V23.5785C18.6441 23.8775 19.553 24.0416 20.4999 24.0416C21.4467 24.0416 22.3558 23.8781 23.2014 23.579V25.2643L20.5004 27.0863ZM27.0239 11.4296C27.0129 11.4226 27.002 11.4157 26.991 11.4087C25.3479 10.3627 23.9288 9.45935 21.7052 10.0956C21.6845 10.1015 21.664 10.1082 21.6439 10.1157C21.1725 10.2928 20.7438 10.4578 20.3292 10.6174C17.7968 11.5922 16.4142 12.1246 13.976 12.056V11.4148C13.976 7.81734 16.9026 4.89063 20.4999 4.89063C24.0972 4.89063 27.0238 7.81734 27.0238 11.4148V11.4296H27.0239ZM30.1812 18.5377C30.1812 18.8947 29.8908 19.185 29.5339 19.185H27.9381C28.1634 18.6742 28.338 18.1362 28.4546 17.577H29.1163C29.4923 17.577 29.8513 17.5043 30.1813 17.3733V18.5377H30.1812ZM30.415 14.6743C30.415 15.3917 29.8325 15.9754 29.1162 15.9754H28.6247C28.6249 15.9555 28.6255 12.5288 28.6255 12.5288H29.1163C29.8325 12.5288 30.4151 13.1114 30.4151 13.8276V14.6743H30.415ZM11.8837 15.9755C11.1675 15.9755 10.5849 15.3918 10.5849 14.6744V13.8277C10.5849 13.1115 11.1675 12.5288 11.8837 12.5288H12.3745C12.3745 12.5288 12.3751 15.9556 12.3753 15.9755H11.8837ZM12.3895 10.9272H11.8836C11.5092 10.9272 11.1517 10.9993 10.8229 11.129C10.9056 5.86142 15.2145 1.60157 20.5 1.60157C25.787 1.60157 30.0971 5.8619 30.1792 11.1299C29.8498 10.9996 29.4914 10.9272 29.1162 10.9272H28.6104C28.3573 6.67278 24.8166 3.28906 20.5 3.28906C16.1833 3.28906 12.6425 6.67286 12.3895 10.9272ZM14.0242 16.695C14.0241 16.6942 14.0239 16.6934 14.0239 16.6926C13.9935 16.4377 13.9761 16.1789 13.9761 15.916V13.6575C16.7158 13.7243 18.3501 13.0955 20.9045 12.1122C21.3068 11.9573 21.7227 11.7972 22.1757 11.6269C23.6884 11.2047 24.5587 11.7589 26.131 12.7598C26.4038 12.9335 26.7031 13.1238 27.0239 13.3193V15.916C27.0239 17.1068 26.7016 18.2231 26.1421 19.1851H20.5C20.0578 19.1851 19.6992 19.5436 19.6992 19.9859C19.6992 20.4282 20.0578 20.7867 20.5 20.7867H24.8341C23.6808 21.8142 22.1624 22.4401 20.5 22.4401C17.1664 22.4401 14.4106 19.9262 14.0242 16.695V16.695ZM16.4786 29.799L15.0928 27.099C15.1458 27.0837 15.1993 27.0682 15.252 27.053C15.82 26.8888 16.3623 26.7319 16.8724 26.5714L19.0683 28.0522L16.4786 29.799ZM18.6031 39.3984L19.6929 34.6193H21.3073L22.3988 39.3984H18.6031ZM34.5392 39.3984H24.0416L22.7706 33.8332L23.5116 31.0484L24.3763 31.6315C24.7689 31.8962 25.321 31.7534 25.5366 31.333L27.4692 27.5638C28.9669 28.0298 30.4863 28.5867 31.7291 29.3684C33.6126 30.5531 34.5057 32.0106 34.5394 33.9546V39.3984H34.5392Z" fill="black"/>
<path d="M31.3769 35.3943H27.3412C26.899 35.3943 26.5404 35.7528 26.5404 36.1951C26.5404 36.6373 26.899 36.9958 27.3412 36.9958H31.3769C31.8191 36.9958 32.1777 36.6373 32.1777 36.1951C32.1777 35.7528 31.8192 35.3943 31.3769 35.3943Z" fill="black"/>
<path d="M11.6295 39.3984C11.1873 39.3984 10.8287 39.7569 10.8287 40.1992C10.8287 40.6415 11.1873 41 11.6295 41H11.6318C12.0739 41 12.4313 40.6415 12.4313 40.1992C12.4313 39.7569 12.0717 39.3984 11.6295 39.3984Z" fill="black"/>
</svg>
