<svg width="41" height="41" viewBox="0 0 41 41" fill="none" xmlns="http://www.w3.org/2000/svg">
<path fill-rule="evenodd" clip-rule="evenodd" d="M0.800781 0.800781V13.7006H13.7006V7.25179V0.800781H9.55348V6.0692L7.25179 4.65054L4.94787 6.0692V0.800781H0.800781Z" fill="#FFCA3B"/>
<path fill-rule="evenodd" clip-rule="evenodd" d="M9.55337 0.800781H4.94775V6.0692L7.25168 4.65054L9.55337 6.0692V0.800781Z" fill="#FF8517"/>
<path fill-rule="evenodd" clip-rule="evenodd" d="M34.1341 25.1476C32.8811 25.1476 31.8665 26.1623 31.8665 27.4129C31.8665 28.6637 32.8811 29.6782 34.1341 29.6782C35.3848 29.6782 36.3994 28.6636 36.3994 27.4129C36.3994 26.1623 35.3848 25.1476 34.1341 25.1476Z" fill="white"/>
<path fill-rule="evenodd" clip-rule="evenodd" d="M34.1341 21.5294C30.8836 21.5294 28.2505 24.1625 28.2505 27.413C28.2164 30.6249 30.021 32.6564 31.8414 35.0784L31.9844 35.2441L33.1308 36.5743C33.4372 36.9284 33.7845 37.1054 34.1341 37.1077C34.4814 37.1054 34.8287 36.9284 35.1351 36.5743L36.2837 35.2441L36.4267 35.0784C38.2449 32.6564 40.0494 30.6249 40.0154 27.413C40.0153 24.1625 37.3823 21.5294 34.1341 21.5294ZM36.3994 27.4129C36.3994 28.6637 35.3847 29.6782 34.1341 29.6782C32.8811 29.6782 31.8664 28.6636 31.8664 27.4129C31.8664 26.1622 32.8811 25.1476 34.1341 25.1476C35.3847 25.1476 36.3994 26.1623 36.3994 27.4129Z" fill="#FF8517"/>
<path fill-rule="evenodd" clip-rule="evenodd" d="M35.1351 36.5743C34.8287 36.9284 34.4814 37.1054 34.1341 37.1077C33.7846 37.1054 33.4373 36.9284 33.1308 36.5743L31.9845 35.2441C29.6942 35.6118 28.0667 36.5447 28.0667 37.6388C28.0667 39.0529 30.7837 40.1992 34.1341 40.1992C37.4822 40.1992 40.1992 39.0529 40.1992 37.6388C40.1992 36.5447 38.5717 35.6118 36.2836 35.2441L35.1351 36.5743Z" fill="#FFCA3B"/>
<path d="M34.134 30.479C32.4421 30.479 31.0657 29.1035 31.0657 27.4129C31.0657 25.7223 32.4421 24.3468 34.134 24.3468C35.8246 24.3468 37.2001 25.7223 37.2001 27.4129C37.2001 29.1035 35.8246 30.479 34.134 30.479ZM34.134 25.9484C33.3252 25.9484 32.6672 26.6053 32.6672 27.4129C32.6672 28.2205 33.3252 28.8775 34.134 28.8775C34.9416 28.8775 35.5986 28.2205 35.5986 27.4129C35.5986 26.6053 34.9416 25.9484 34.134 25.9484Z" fill="#282B30"/>
<path d="M14.5013 13.7006V8.05258H27.9282C30.4455 8.05258 32.4935 10.0995 32.4935 12.6155C32.4935 15.1328 30.4455 17.1808 27.9282 17.1808H22.4102C21.968 17.1808 21.6094 17.5394 21.6094 17.9815C21.6094 18.4237 21.968 18.7823 22.4102 18.7823H27.9282C31.3286 18.7823 34.095 16.0159 34.095 12.6155C34.095 9.21643 31.3286 6.45101 27.9282 6.45101H14.5013V0.800781C14.5013 0.35859 14.1428 0 13.7006 0H0.800781C0.35859 0 0 0.35859 0 0.800781V13.7006C0 14.1428 0.35859 14.5013 0.800781 14.5013H13.7006C14.1428 14.5013 14.5013 14.1428 14.5013 13.7006V13.7006ZM5.74865 1.60156H8.7527V4.63492L7.67196 3.96883C7.41451 3.8102 7.08956 3.81004 6.83195 3.96867L5.74873 4.63564V1.60156H5.74865ZM12.8998 12.8998H1.60156V1.60156H4.14709V6.0692C4.14709 6.35932 4.30404 6.62679 4.55733 6.76828C4.81069 6.90978 5.12084 6.90329 5.36772 6.75099L7.25147 5.59097L9.13323 6.75083C9.26184 6.8301 9.40758 6.8699 9.5534 6.8699C9.68777 6.8699 9.8223 6.83611 9.94378 6.76828C10.1971 6.62679 10.3542 6.35932 10.3542 6.06912V1.60156H12.8997V12.8998H12.8998Z" fill="#282B30"/>
<path d="M37.6947 34.732C39.3331 32.5791 40.8477 30.5154 40.8162 27.4086C40.814 23.7247 37.8173 20.7286 34.1342 20.7286C30.4498 20.7286 27.452 23.7251 27.4498 27.409C27.4185 30.5154 28.9332 32.5797 30.5728 34.732C28.9574 35.1834 27.8489 35.9299 27.4403 36.8381H7.47429C6.10848 36.8381 4.99732 35.728 4.99732 34.3635C4.99732 32.9977 6.10848 31.8865 7.47429 31.8865H18.3357C20.5846 31.8865 22.4142 30.058 22.4142 27.8103C22.4142 25.5614 20.5846 23.7318 18.3357 23.7318H8.18475C6.82021 23.7318 5.71009 22.6217 5.71009 21.2571C5.71009 19.8926 6.82021 18.7825 8.18475 18.7825H15.2192C15.6614 18.7825 16.02 18.4239 16.02 17.9817C16.02 17.5395 15.6614 17.1809 15.2192 17.1809H8.18475C5.93711 17.1809 4.10853 19.0095 4.10853 21.2571C4.10853 23.5048 5.93711 25.3333 8.18475 25.3333H18.3357C19.7015 25.3333 20.8127 26.4445 20.8127 27.8103C20.8127 29.1749 19.7015 30.285 18.3357 30.285H7.47429C5.22538 30.285 3.39575 32.1146 3.39575 34.3635C3.39575 36.6111 5.22538 38.4396 7.47429 38.4396H27.4393C27.7486 39.1326 28.4653 39.7368 29.5327 40.1872C30.775 40.7113 32.4092 41 34.1342 41C35.8582 41 37.4917 40.7113 38.7337 40.1871C40.1951 39.5702 41.0001 38.6652 41.0001 37.6387C41.0001 36.3727 39.7631 35.3103 37.6947 34.732V34.732ZM29.0513 27.4214C29.0514 27.4186 29.0514 27.4158 29.0514 27.413C29.0514 24.6103 31.3315 22.3302 34.1342 22.3302C36.9355 22.3302 39.2146 24.6103 39.2146 27.413C39.2146 27.4158 39.2146 27.4186 39.2147 27.4214C39.2426 30.0567 37.8789 31.847 36.3001 33.9198C36.1354 34.136 34.5297 36.0502 34.5297 36.0502C34.3913 36.2101 34.2475 36.3033 34.1341 36.3068C33.9776 36.3022 33.8181 36.1445 33.7374 36.0515C33.7374 36.0515 32.1347 34.1389 31.9708 33.9241C30.3892 31.8498 29.0234 30.0585 29.0513 27.4214V27.4214ZM34.1342 39.3984C30.7264 39.3984 28.8675 38.2359 28.8675 37.6387C28.8675 37.2316 29.7635 36.4989 31.6766 36.1135L32.5252 37.0982C33.1006 37.7629 33.7148 37.9056 34.1289 37.9083H34.134C34.134 37.9083 34.1375 37.9083 34.1392 37.9083C34.5522 37.9056 35.1652 37.7629 35.7412 37.0975L36.5908 36.1134C38.5028 36.4989 39.3983 37.2317 39.3983 37.6387C39.3985 38.2359 37.5404 39.3984 34.1342 39.3984V39.3984Z" fill="#282B30"/>
<path d="M18.0137 17.9816C18.0137 18.4238 18.3723 18.7823 18.8145 18.7823H18.8167C19.2589 18.7823 19.6164 18.4238 19.6164 17.9816C19.6164 17.5394 19.2566 17.1808 18.8144 17.1808C18.3721 17.1808 18.0137 17.5393 18.0137 17.9816Z" fill="#282B30"/>
</svg>
