<svg width="41" height="41" viewBox="0 0 41 41" fill="none" xmlns="http://www.w3.org/2000/svg">
<path d="M4.5 9.5L1 10.5L3.5 13L3 16.5L6.5 15L9.5 16L9 13L11 10.5L8 9L6 6.5L4.5 9.5Z" fill="#FFCA3B"/>
<path d="M33.5 10L30 11L32.5 13.5L32 17L35.5 15.5L38.5 16.5L38 13.5L40 11L37 9.5L35 7L33.5 10Z" fill="#FFCA3B"/>
<path d="M18.55 5.9L14 7.2L17.25 10.45L16.6 15L21.15 13.05L25.05 14.35L24.4 10.45L27 7.2L23.1 5.25L20.5 2L18.55 5.9Z" fill="#FFCA3B"/>
<path d="M9.42039 17.4461C9.68729 17.5784 10.0055 17.5514 10.2466 17.3765C10.4875 17.2013 10.6115 16.9071 10.5682 16.6123L10.0697 13.215L12.4666 10.7608C12.6748 10.5477 12.7474 10.2368 12.6553 9.95363C12.5632 9.6704 12.3215 9.46163 12.0279 9.41182L8.64668 8.83758L7.05568 5.79726C6.91747 5.53324 6.64416 5.3678 6.34619 5.3678C6.04822 5.3678 5.77483 5.53324 5.6367 5.79726L4.04571 8.83758L0.666731 9.41182C0.373084 9.46171 0.131489 9.6704 0.0393988 9.95363C-0.0526911 10.2369 0.0199398 10.5478 0.228063 10.7608L2.62504 13.215L2.12647 16.6123C2.08323 16.9071 2.20719 17.2014 2.44823 17.3766C2.58756 17.4778 2.75269 17.5293 2.91885 17.5293C3.04009 17.5293 3.16188 17.5018 3.27447 17.446L6.34643 15.9229L9.42039 17.4461ZM5.9904 14.3117L3.93296 15.3318L4.26704 13.0552C4.30332 12.808 4.22212 12.5581 4.04763 12.3794L2.44126 10.7347L4.70523 10.3499C4.95179 10.3081 5.16464 10.1533 5.28059 9.93177L6.34611 7.89554L7.41163 9.93177C7.52758 10.1534 7.74043 10.3081 7.98707 10.3499L10.2531 10.7349L8.64684 12.3794C8.47227 12.5581 8.39115 12.8081 8.42742 13.0552L8.76159 15.3323L6.70158 14.3116C6.58955 14.2561 6.46783 14.2284 6.34603 14.2284C6.22431 14.2284 6.10243 14.2561 5.9904 14.3117V14.3117Z" fill="#282B30"/>
<path d="M15.8016 10.5158L15.1146 15.1992C15.0713 15.494 15.1953 15.7882 15.4363 15.9634C15.6774 16.1385 15.9957 16.1652 16.2626 16.0328L20.4989 13.9326L24.7352 16.0328C24.8478 16.0886 24.9696 16.1162 25.0908 16.1162C25.2569 16.1162 25.4221 16.0645 25.5614 15.9634C25.8024 15.7882 25.9264 15.494 25.8832 15.1992L25.1962 10.5158L28.5011 7.13244C28.7092 6.91944 28.7818 6.60849 28.6897 6.32534C28.5977 6.0421 28.3561 5.83334 28.0625 5.78345L23.4031 4.99107L21.2083 0.798825C21.0701 0.534807 20.7967 0.369366 20.4987 0.369446C20.2007 0.369526 19.9274 0.534967 19.7893 0.799065L17.5968 4.99115L12.9354 5.78353C12.6418 5.83342 12.4002 6.0421 12.3081 6.32534C12.216 6.60857 12.2886 6.91952 12.4967 7.13252L15.8016 10.5158ZM18.2565 6.50351C18.5032 6.46163 18.716 6.30684 18.832 6.08518L20.4993 2.89727L22.1683 6.08534C22.2843 6.30692 22.4971 6.46147 22.7435 6.50343L26.2879 7.1061L23.7736 9.68021C23.599 9.85886 23.5179 10.1089 23.5541 10.3559L24.0767 13.9187L20.8546 12.3213C20.7425 12.2658 20.6207 12.238 20.4989 12.238C20.3771 12.238 20.2553 12.2658 20.1432 12.3213L16.9211 13.9187L17.4436 10.3559C17.4799 10.1088 17.3987 9.85886 17.2242 9.68021L14.7099 7.10618L18.2565 6.50351Z" fill="#282B30"/>
<path d="M40.9608 9.95367C40.8687 9.67035 40.627 9.46151 40.3333 9.4117L36.9521 8.83746L35.3611 5.79713C35.2229 5.53312 34.9496 5.36768 34.6516 5.36768C34.3536 5.36768 34.0803 5.53312 33.9421 5.79713L32.3511 8.83746L28.9722 9.4117C28.6785 9.46159 28.4369 9.67027 28.3448 9.95351C28.2527 10.2367 28.3254 10.5477 28.5335 10.7607L30.9305 13.2149L30.4319 16.6122C30.3887 16.9069 30.5126 17.2013 30.7537 17.3764C30.9947 17.5516 31.3131 17.5783 31.5799 17.4459L34.6517 15.9229L37.7235 17.4459C37.8361 17.5017 37.9579 17.5292 38.0791 17.5292C38.2452 17.5292 38.4104 17.4776 38.5497 17.3764C38.7908 17.2013 38.9147 16.9069 38.8715 16.6122L38.3729 13.215L40.7719 10.7609C40.9802 10.5479 41.0529 10.2369 40.9608 9.95367V9.95367ZM36.9504 12.3792C36.7757 12.5578 36.6945 12.8079 36.7308 13.0552L37.0648 15.3317L35.0074 14.3117C34.7833 14.2005 34.5201 14.2005 34.296 14.3117L32.2385 15.3317L32.5726 13.0552C32.6089 12.808 32.5277 12.5581 32.3532 12.3794L30.7468 10.7347L33.0108 10.3499C33.2574 10.308 33.4702 10.1533 33.5862 9.93173L34.6517 7.8955L35.7172 9.93173C35.8332 10.1534 36.046 10.308 36.2927 10.3499L38.558 10.7347L36.9504 12.3792Z" fill="#282B30"/>
<path d="M34.194 20.8953C34.0573 20.627 33.7816 20.458 33.4805 20.458H7.34953C7.04835 20.458 6.77265 20.627 6.63595 20.8953L4.04599 25.98C3.91954 26.2283 3.93115 26.5243 4.07682 26.7619C4.2224 26.9994 4.48097 27.1442 4.75956 27.1442H5.58405V39.8298C5.58405 40.272 5.94256 40.6306 6.38483 40.6306H34.4429C34.8852 40.6306 35.2437 40.272 35.2437 39.8298V27.1442H36.0704C36.349 27.1442 36.6076 26.9993 36.7532 26.7619C36.8988 26.5243 36.9105 26.2283 36.784 25.98L34.194 20.8953ZM6.0662 25.5426L7.84033 22.0596H19.1084L17.3343 25.5426H6.0662ZM33.6421 39.029H21.2158V35.7539C21.2158 35.3117 20.8573 34.9531 20.415 34.9531C19.9727 34.9531 19.6142 35.3117 19.6142 35.7539V39.029H7.18561V27.1442H17.825C18.1262 27.1442 18.4019 26.9752 18.5386 26.7069L19.6142 24.5952V28.5563C19.6142 28.9985 19.9727 29.3571 20.415 29.3571C20.8573 29.3571 21.2158 28.9985 21.2158 28.5563V24.5952L22.2914 26.7069C22.4281 26.9752 22.7038 27.1442 23.005 27.1442H33.6421V39.029ZM23.4958 25.5426L21.7216 22.0596H32.9897L34.7639 25.5426H23.4958Z" fill="#282B30"/>
<path d="M14.2317 35.069H10.1118C9.66955 35.069 9.31104 35.4276 9.31104 35.8698C9.31104 36.3119 9.66955 36.6705 10.1118 36.6705H14.2317C14.6739 36.6705 15.0325 36.3119 15.0325 35.8698C15.0325 35.4276 14.6739 35.069 14.2317 35.069Z" fill="#282B30"/>
<path d="M20.4148 31.3543C19.9725 31.3543 19.614 31.7129 19.614 32.1551V32.1597C19.614 32.6018 19.9725 32.9582 20.4148 32.9582C20.8571 32.9582 21.2156 32.5974 21.2156 32.1552C21.2156 31.713 20.8571 31.3543 20.4148 31.3543Z" fill="#282B30"/>
</svg>
