<svg width="41" height="41" viewBox="0 0 41 41" fill="none" xmlns="http://www.w3.org/2000/svg">
						<path d="M3.54559 28.8965L26.1512 6.29126L37.4538 17.5939L14.8482 40.1995L3.54559 28.8965Z" fill="#F5F5F5"/>
						<path d="M34.8916 20.1562L17.411 37.6368C15.9959 36.2216 13.7012 36.2216 12.286 37.6368L6.10809 31.4589C7.52354 30.0437 7.52354 27.7493 6.10809 26.3338L23.589 8.85327C25.0041 10.2684 27.2985 10.2684 28.714 8.85327L34.8916 15.0312C33.4765 16.4463 33.4765 18.7408 34.8916 20.1562Z" fill="#009845"/>
						<path d="M3.54559 23.4064L26.1509 0.800781L37.4538 12.1037L14.8482 34.709L3.54559 23.4064Z" fill="#F5F5F5"/>
						<path d="M34.8807 14.6772L17.422 32.1359C16.0006 30.7145 13.6962 30.7145 12.2751 32.1359L6.11905 25.9798C7.54044 24.5588 7.54044 22.2543 6.11905 20.8329L23.5777 3.37427C24.9991 4.79566 27.3035 4.79566 28.7249 3.37427L34.8807 9.5303C33.4596 10.9514 33.4596 13.2558 34.8807 14.6772Z" fill="#009845"/>
						<path d="M24.3985 17.7549C24.3985 19.9083 22.6531 21.6538 20.5 21.6538C18.3467 21.6538 16.6012 19.9083 16.6012 17.7549C16.6012 15.6019 18.3467 13.8564 20.5 13.8564C22.6531 13.8564 24.3985 15.6019 24.3985 17.7549Z" fill="#F5F5F5"/>
						<path d="M38.0203 17.0276L35.8416 14.8486L38.0203 12.6699C38.1704 12.5198 38.2549 12.3161 38.2549 12.1037C38.2549 11.8913 38.1704 11.6877 38.0203 11.5376L26.7177 0.234605C26.5675 0.0844578 26.3639 0 26.1512 0C25.9388 0 25.7351 0.0844578 25.585 0.234605L19.1152 6.70469C18.8024 7.01719 18.8024 7.52425 19.1152 7.83705C19.4277 8.14986 19.9348 8.14986 20.2476 7.83705L23.63 4.45499C24.3657 4.96486 25.2372 5.24045 26.1515 5.24045C27.0655 5.24045 27.937 4.96486 28.673 4.45499L33.8009 9.58282C32.757 11.0943 32.757 13.1132 33.8009 14.6246L17.3694 31.056C15.858 30.0122 13.8391 30.0122 12.3276 31.056L7.1998 25.9279C7.70968 25.1922 7.98526 24.3207 7.98526 23.4064C7.98526 22.4923 7.70968 21.6206 7.1998 20.8848L15.7138 12.3709C16.0266 12.0581 16.0266 11.551 15.7138 11.2382C15.4013 10.9257 14.8942 10.9257 14.5814 11.2382L2.97942 22.8402C2.82927 22.9903 2.74481 23.194 2.74481 23.4064C2.74481 23.6188 2.82927 23.8224 2.97942 23.9725L5.15811 26.1516L2.97942 28.3302C2.82927 28.4804 2.74481 28.684 2.74481 28.8964C2.74481 29.1088 2.82927 29.3125 2.97942 29.4626L14.2821 40.7656C14.4385 40.9216 14.6433 40.9998 14.8485 40.9998C15.0534 40.9998 15.2583 40.9216 15.4147 40.7656L20.678 35.5023C20.9908 35.1895 20.9908 34.6824 20.678 34.3696C20.3652 34.0571 19.8581 34.0571 19.5453 34.3696L17.3698 36.5452C16.634 36.035 15.7626 35.7594 14.8485 35.7594C13.9342 35.7594 13.0627 36.035 12.327 36.5452L7.19886 31.417C7.70561 30.6838 7.96618 29.8311 7.98119 28.9743L11.7089 32.702L11.7092 32.7023C11.7095 32.7023 11.7095 32.7023 11.7095 32.7027L14.2824 35.2752C14.4388 35.4316 14.6437 35.5098 14.8485 35.5098C15.0534 35.5098 15.2583 35.4316 15.4147 35.2752L17.9876 32.7023H17.9879L33.0163 17.6732C33.032 18.5585 33.3051 19.4006 33.8002 20.115L24.0754 29.8395C23.7626 30.1523 23.7626 30.6594 24.0754 30.9722C24.2318 31.1286 24.4367 31.2068 24.6416 31.2068C24.8465 31.2068 25.0517 31.1286 25.2078 30.9722L38.0203 18.1597C38.3331 17.8472 38.3331 17.3401 38.0203 17.0276ZM26.1512 3.63888C25.6682 3.63888 25.204 3.51845 24.7917 3.29291L26.1512 1.93314L27.5109 3.29291C27.0987 3.51845 26.6345 3.63888 26.1512 3.63888ZM34.9629 10.7449L36.3218 12.1037L34.9629 13.4622C34.5034 12.6183 34.5034 11.5889 34.9629 10.7449ZM6.03772 22.0469C6.26357 22.4592 6.38369 22.9234 6.38369 23.4064C6.38369 23.8893 6.26357 24.3539 6.03772 24.7661L4.67827 23.4064L6.03772 22.0469ZM14.8485 37.3613C15.3315 37.3613 15.796 37.4817 16.208 37.7072L14.8485 39.067L13.4891 37.7072C13.9011 37.4817 14.3656 37.3613 14.8485 37.3613ZM4.67827 28.8967L6.03679 27.5379C6.49661 28.3822 6.49661 29.4113 6.03679 30.2553L4.67827 28.8967ZM14.8485 33.5766L13.49 32.2181C14.334 31.7583 15.3631 31.7583 16.2071 32.2181L14.8485 33.5766ZM34.962 18.9533C34.7365 18.541 34.616 18.0768 34.616 17.5938C34.616 17.1108 34.7365 16.6463 34.962 16.234L36.3218 17.5938L34.962 18.9533Z" fill="#282B30"/>
						<path d="M23.8229 14.4319C21.9905 12.5998 19.0092 12.5998 17.1768 14.4319C15.3446 16.2644 15.3446 19.2457 17.1768 21.0781C18.093 21.994 19.2963 22.4523 20.4997 22.4523C21.7034 22.4523 22.9067 21.994 23.8229 21.0781C25.6554 19.2457 25.6554 16.2644 23.8229 14.4319ZM22.6906 19.9455C21.4825 21.1535 19.5172 21.1532 18.3094 19.9455C17.1017 18.7377 17.1017 16.7724 18.3094 15.5643C18.9135 14.9606 19.7067 14.6584 20.5 14.6584C21.2933 14.6584 22.0866 14.9606 22.6906 15.5643C23.8983 16.7724 23.8983 18.7377 22.6906 19.9455Z" fill="#282B30"/>
						<path d="M25.9826 13.4049L28.1266 11.2606C28.4394 10.9482 28.4394 10.4411 28.1266 10.1283C27.8137 9.81579 27.307 9.81548 26.9942 10.1283L24.8499 12.2723C24.5371 12.5851 24.5371 13.0921 24.8499 13.4049C25.0063 13.5613 25.2112 13.6395 25.4161 13.6395C25.621 13.6395 25.8262 13.5613 25.9826 13.4049Z" fill="#282B30"/>
						<path d="M15.0174 22.105L12.8732 24.2489C12.5607 24.5618 12.5607 25.0688 12.8732 25.3816C13.0296 25.538 13.2345 25.6162 13.4393 25.6162C13.6445 25.6162 13.8494 25.538 14.0058 25.3816L16.1498 23.2373C16.4626 22.9248 16.4626 22.4178 16.1498 22.105C15.837 21.7922 15.3303 21.7922 15.0174 22.105Z" fill="#282B30"/>
						<path d="M39.0782 35.0745H37.7788C37.3365 35.0745 36.978 35.4329 36.978 35.8752C36.978 36.3175 37.3365 36.676 37.7788 36.676H39.0782C39.5205 36.676 39.879 36.3175 39.879 35.8752C39.879 35.4329 39.5205 35.0745 39.0782 35.0745Z" fill="#282B30"/>
						<path d="M33.8815 35.0745H32.6719C32.2296 35.0745 31.8711 35.4329 31.8711 35.8752C31.8711 36.3175 32.2296 36.676 32.6719 36.676H33.8815C34.3238 36.676 34.6823 36.3175 34.6823 35.8752C34.6823 35.4329 34.3238 35.0745 33.8815 35.0745Z" fill="#282B30"/>
						<path d="M35.875 31.8713C35.4327 31.8713 35.0742 32.2298 35.0742 32.6721V33.8439C35.0742 34.2862 35.4327 34.6447 35.875 34.6447C36.3173 34.6447 36.6758 34.2862 36.6758 33.8439V32.6721C36.6758 32.2298 36.3173 31.8713 35.875 31.8713Z" fill="#282B30"/>
						<path d="M35.875 37.3337C35.4327 37.3337 35.0742 37.6925 35.0742 38.1345V39.0783C35.0742 39.5206 35.4327 39.879 35.875 39.879C36.3173 39.879 36.6758 39.5206 36.6758 39.0783V38.1345C36.6758 37.6922 36.3173 37.3337 35.875 37.3337Z" fill="#282B30"/>
						<path d="M7.02869 5.92579H8.32809C8.7704 5.92579 9.12887 5.56731 9.12887 5.125C9.12887 4.68269 8.7704 4.32422 8.32809 4.32422H7.02869C6.58638 4.32422 6.22791 4.68269 6.22791 5.125C6.22791 5.56731 6.58638 5.92579 7.02869 5.92579Z" fill="#282B30"/>
						<path d="M3.93222 5.125C3.93222 4.68269 3.57375 4.32422 3.13144 4.32422H1.92182C1.47951 4.32422 1.12103 4.68269 1.12103 5.125C1.12103 5.56731 1.47951 5.92579 1.92182 5.92579H3.13144C3.57375 5.92579 3.93222 5.56731 3.93222 5.125Z" fill="#282B30"/>
						<path d="M5.12494 3.89444C5.56725 3.89444 5.92573 3.53596 5.92573 3.09365V1.92188C5.92573 1.47957 5.56725 1.12109 5.12494 1.12109C4.68263 1.12109 4.32416 1.47957 4.32416 1.92188V3.09365C4.32416 3.53596 4.68263 3.89444 5.12494 3.89444Z" fill="#282B30"/>
						<path d="M5.12494 9.1288C5.56725 9.1288 5.92573 8.77033 5.92573 8.32802V7.38428C5.92573 6.94229 5.56725 6.5835 5.12494 6.5835C4.68263 6.5835 4.32416 6.94229 4.32416 7.38428V8.32802C4.32416 8.77033 4.68263 9.1288 5.12494 9.1288Z" fill="#282B30"/>
						<path d="M22.3778 31.8713C22.1673 31.8713 21.9605 31.957 21.8116 32.1059C21.6627 32.2548 21.577 32.4616 21.577 32.6721C21.577 32.8826 21.6627 33.0894 21.8116 33.2383C21.9605 33.3872 22.1673 33.4729 22.3778 33.4729C22.5883 33.4729 22.7951 33.3872 22.944 33.2383C23.0929 33.0894 23.1786 32.8826 23.1786 32.6721C23.1786 32.4616 23.0929 32.2548 22.944 32.1059C22.7951 31.957 22.5883 31.8713 22.3778 31.8713Z" fill="#282B30"/>
						<path d="M17.416 10.3364C17.6266 10.3364 17.8333 10.251 17.9822 10.1018C18.1321 9.95293 18.2168 9.74648 18.2168 9.53565C18.2168 9.32513 18.1321 9.11868 17.9822 8.96978C17.8333 8.82057 17.6275 8.73486 17.416 8.73486C17.2055 8.73486 16.9988 8.82057 16.8499 8.96978C16.701 9.11868 16.6153 9.32513 16.6153 9.53565C16.6153 9.74648 16.701 9.95293 16.8499 10.1018C16.9997 10.251 17.2055 10.3364 17.416 10.3364Z" fill="#282B30"/>
						</svg>