
						<svg width="40" height="40" viewBox="0 0 40 40" fill="none" xmlns="http://www.w3.org/2000/svg">
						<g clip-path="url(#clip3)">
						<path d="M29.8793 13.531C30.4504 11.5841 32.237 10.2472 34.2659 10.2483L34.4365 10.2484L33.0043 16.3161L29.8793 13.531Z" fill="#FF8517"/>
						<path d="M37.9099 20.7616L35.6316 20.4764C34.0073 16.0059 29.7217 12.8125 24.6899 12.8125H16.0913C9.66366 12.8125 4.45312 18.023 4.45312 24.4507C4.45312 28.8706 6.91703 32.715 10.5463 34.6854V37.7346C10.5463 38.5542 11.2108 39.2186 12.0304 39.2186H16.5622C17.3818 39.2186 18.0462 38.5542 18.0462 37.7346V36.0888H24.6098V37.7346C24.6098 38.5542 25.2743 39.2186 26.0939 39.2186H30.6257C31.4453 39.2186 32.1097 38.5542 32.1097 37.7346V33.4163C33.8203 31.9989 35.1189 30.1018 35.7985 27.9307L37.9096 27.6664C38.6574 27.5728 39.2185 26.937 39.2185 26.1834V22.2446C39.2187 21.491 38.6576 20.8552 37.9099 20.7616Z" fill="#FF8517"/>
						<path d="M16.5626 9.53539C17.9433 9.53539 19.0625 8.41611 19.0625 7.0354C19.0625 5.65469 17.9433 4.5354 16.5626 4.5354C15.1818 4.5354 14.0626 5.65469 14.0626 7.0354C14.0626 8.41611 15.1818 9.53539 16.5626 9.53539Z" fill="#FFCA3B"/>
						<path d="M22.9094 17.344C24.2901 17.344 25.4094 16.2247 25.4094 14.844C25.4094 13.4633 24.2901 12.344 22.9094 12.344C21.5286 12.344 20.4094 13.4633 20.4094 14.844C20.4094 16.2247 21.5286 17.344 22.9094 17.344Z" fill="#FFCA3B"/>
						<path d="M38.0069 19.9865L36.1921 19.7592C35.6404 18.4094 34.8477 17.1608 33.8626 16.0805L35.1969 10.4278C35.2517 10.1955 35.1974 9.95087 35.0492 9.76368C34.9011 9.57649 34.6756 9.46728 34.4369 9.46712L34.2662 9.46704C34.2652 9.46704 34.2645 9.46704 34.2634 9.46704C32.0485 9.46704 30.0524 10.8606 29.2672 12.9047C28.7119 12.684 28.141 12.5022 27.5589 12.3645C27.1389 12.2652 26.7181 12.5249 26.6188 12.9449C26.5195 13.3648 26.7793 13.7857 27.1992 13.885C29.1879 14.3554 30.9619 15.361 32.3602 16.7566C32.4113 16.8314 32.4749 16.8977 32.5498 16.9512C33.5691 18.0211 34.3748 19.3047 34.8974 20.7431C34.9975 21.0187 35.2437 21.2151 35.5346 21.2515L37.8129 21.5368C38.1691 21.5814 38.4376 21.8857 38.4376 22.2446V26.1834C38.4376 26.5423 38.169 26.8466 37.8129 26.8912L35.7017 27.1555C35.3981 27.1935 35.1445 27.4053 35.0531 27.6974C34.4268 29.6986 33.2368 31.4682 31.6116 32.8147C31.4324 32.9632 31.3288 33.1837 31.3288 33.4163V37.7346C31.3288 38.1221 31.0135 38.4375 30.626 38.4375H26.0942C25.7066 38.4375 25.3913 38.1221 25.3913 37.7346V36.0888C25.3913 35.6573 25.0414 35.3075 24.61 35.3075H18.0464C17.615 35.3075 17.2652 35.6573 17.2652 36.0888V37.7346C17.2652 38.1221 16.9499 38.4375 16.5623 38.4375H12.0304C11.6429 38.4375 11.3276 38.1221 11.3276 37.7346V34.6854C11.3276 34.3989 11.1708 34.1355 10.9191 33.9989C7.41264 32.0951 5.23436 28.4365 5.23436 24.4507C5.23444 18.4641 10.1048 13.5938 16.0913 13.5938H17.0703C17.5017 13.5938 17.8515 13.244 17.8515 12.8125C17.8515 12.381 17.5017 12.0313 17.0703 12.0313H16.0913C10.2919 12.0313 5.40874 16.0271 4.04898 21.4101H3.47656C2.42109 21.4101 1.5625 20.5515 1.5625 19.4961C1.5625 18.4407 2.42109 17.582 3.47656 17.582C3.90796 17.582 4.2578 17.2323 4.2578 16.8008C4.2578 16.3693 3.90796 16.0195 3.47656 16.0195C1.55961 16.0195 0 17.5791 0 19.4961C0 21.4131 1.55961 22.9726 3.47656 22.9726H3.76023C3.70241 23.4575 3.67187 23.9505 3.67187 24.4507C3.67187 28.8529 5.99483 32.9063 9.76506 35.1403V37.7346C9.76506 38.9838 10.7813 40 12.0304 40H16.5622C17.8113 40 18.8275 38.9838 18.8275 37.7346V36.8701H23.8286V37.7346C23.8286 38.9838 24.8449 40 26.094 40H30.6258C31.8749 40 32.8911 38.9838 32.8911 37.7346V33.7765C34.4774 32.3815 35.6744 30.6217 36.3828 28.645L38.0068 28.4416C39.143 28.2994 39.9999 27.3286 39.9999 26.1834V22.2446C39.9999 21.0995 39.1431 20.1287 38.0069 19.9865ZM33.4269 11.1244L32.5505 14.8373C31.9677 14.3605 31.3435 13.9382 30.6869 13.5755C31.1185 12.3353 32.1713 11.4125 33.4269 11.1244Z" fill="#282B30"/>
						<path d="M31.0991 20.9427C31.2445 20.7974 31.3281 20.5958 31.3281 20.3904C31.3281 20.1849 31.2445 19.9833 31.0991 19.838C30.9539 19.6927 30.7523 19.6091 30.5469 19.6091C30.3414 19.6091 30.1398 19.6927 29.9945 19.838C29.8492 19.9833 29.7656 20.1849 29.7656 20.3904C29.7656 20.5958 29.8491 20.7974 29.9945 20.9427C30.1399 21.088 30.3414 21.1716 30.5469 21.1716C30.7523 21.1716 30.9539 21.088 31.0991 20.9427Z" fill="#282B30"/>
						<path d="M22.9095 4.55737C22.4781 4.55737 22.1282 4.90714 22.1282 5.33862V8.43744C22.1282 8.86893 22.4781 9.21869 22.9095 9.21869C23.3409 9.21869 23.6907 8.86893 23.6907 8.43744V5.33862C23.6907 4.90722 23.341 4.55737 22.9095 4.55737Z" fill="#282B30"/>
						<path d="M22.9093 3.2854C23.1148 3.2854 23.3163 3.2018 23.4616 3.05649C23.6069 2.91118 23.6906 2.70962 23.6906 2.50415C23.6906 2.29868 23.607 2.0979 23.4616 1.95181C23.3163 1.80649 23.1148 1.7229 22.9093 1.7229C22.7038 1.7229 22.5023 1.80649 22.357 1.95181C22.2116 2.09712 22.1281 2.29868 22.1281 2.50415C22.1281 2.7104 22.2116 2.91118 22.357 3.05649C22.5024 3.2018 22.7038 3.2854 22.9093 3.2854Z" fill="#282B30"/>
						<path d="M16.5626 2.89062C16.994 2.89062 17.3438 2.54085 17.3438 2.10937V0.781249C17.3438 0.349765 16.994 0 16.5626 0C16.1312 0 15.7813 0.349765 15.7813 0.781249V2.10937C15.7813 2.54085 16.1312 2.89062 16.5626 2.89062Z" fill="#282B30"/>
						<path d="M8.12516 25.2688C8.55657 25.2661 8.90422 24.9141 8.90157 24.4826L8.90149 24.4509C8.90149 24.0194 8.55164 23.6697 8.12024 23.6697C7.68883 23.6697 7.33899 24.0194 7.33899 24.4509L7.33907 24.4924C7.34172 24.9222 7.69102 25.2688 8.12024 25.2688C8.1218 25.2688 8.12336 25.2688 8.12516 25.2688Z" fill="#282B30"/>
						<path d="M11.5474 31.9322C11.6743 32.0093 11.8144 32.0461 11.9527 32.0461C12.2164 32.0461 12.4738 31.9126 12.6209 31.6709C12.8452 31.3023 12.7282 30.8217 12.3596 30.5974C11.0016 29.7709 9.94147 28.5012 9.37476 27.022C9.2203 26.619 8.76851 26.4175 8.3657 26.572C7.96281 26.7264 7.76132 27.1781 7.9157 27.5811C8.60554 29.3816 9.8953 30.9269 11.5474 31.9322Z" fill="#282B30"/>
						<path d="M16.5626 10.3166C18.3718 10.3166 19.8438 8.84469 19.8438 7.0354C19.8438 5.2261 18.3718 3.75415 16.5626 3.75415C14.7533 3.75415 13.2813 5.2261 13.2813 7.0354C13.2813 8.84469 14.7533 10.3166 16.5626 10.3166ZM16.5626 5.31665C17.5103 5.31665 18.2813 6.08766 18.2813 7.0354C18.2813 7.98313 17.5103 8.75414 16.5626 8.75414C15.6148 8.75414 14.8438 7.98313 14.8438 7.0354C14.8438 6.08766 15.6148 5.31665 16.5626 5.31665Z" fill="#282B30"/>
						<path d="M20.1159 16.5625H16.2501C15.8187 16.5625 15.4688 16.9123 15.4688 17.3437C15.4688 17.7752 15.8187 18.125 16.2501 18.125H26.4063C26.8377 18.125 27.1875 17.7752 27.1875 17.3437C27.1875 16.9123 26.8377 16.5625 26.4063 16.5625H25.7032C26.0121 16.0623 26.1908 15.4736 26.1908 14.8437C26.1908 13.0344 24.7189 11.5625 22.9096 11.5625C21.1003 11.5625 19.6283 13.0344 19.6283 14.8437C19.6283 15.4736 19.807 16.0623 20.1159 16.5625ZM22.9095 13.125C23.8572 13.125 24.6282 13.896 24.6282 14.8437C24.6282 15.7915 23.8572 16.5625 22.9095 16.5625C21.9618 16.5625 21.1907 15.7915 21.1907 14.8437C21.1907 13.896 21.9617 13.125 22.9095 13.125Z" fill="#282B30"/>
						</g>
						<defs>
						<clipPath id="clip3">
						<rect width="40" height="40" fill="white"/>
						</clipPath>
						</defs>
						</svg>