<svg width="41" height="41" viewBox="0 0 41 41" fill="none" xmlns="http://www.w3.org/2000/svg">
						<g clip-path="url(#clip2)">
						<path d="M36.9823 0.600586H33.5652V8.83737L37.5854 10.7708C38.8901 11.398 40.3994 10.4424 40.3994 8.98908V4.03456C40.3994 2.13802 38.8695 0.600586 36.9823 0.600586Z" fill="#EAEAEA"/>
						<path d="M33.5652 4.03456C33.5652 2.13834 35.0949 0.600899 36.982 0.600586H13.4647C9.62783 0.600586 6.51761 3.72645 6.51761 7.58208V40.3994H28.9166C31.4838 40.3994 33.5652 38.308 33.5652 35.728V4.03456Z" fill="#FAFAFA"/>
						<path d="M6.51761 31.8486V40.3995H28.9166C31.4838 40.3995 33.5652 38.3081 33.5652 35.728V31.8486H6.51761Z" fill="#FAFAFA"/>
						<path d="M28.9839 14.8281H11.099C10.4355 14.8281 9.89778 14.2904 9.89778 13.627C9.89778 12.9638 10.4355 12.4258 11.099 12.4258H28.9839C29.647 12.4258 30.1851 12.9638 30.1851 13.627C30.1851 14.2904 29.6474 14.8281 28.9839 14.8281Z" fill="#FF8517"/>
						<path d="M17.5506 21.1465H11.099C10.4355 21.1465 9.89778 20.6085 9.89778 19.9453C9.89778 19.2819 10.4355 18.7441 11.099 18.7441H17.5509C18.214 18.7441 18.752 19.2819 18.752 19.9453C18.7517 20.6085 18.214 21.1465 17.5506 21.1465Z" fill="#FF8517"/>
						<path d="M28.9839 21.1465H22.532C21.8685 21.1465 21.3308 20.6085 21.3308 19.9453C21.3308 19.2819 21.8685 18.7441 22.532 18.7441H28.9839C29.647 18.7441 30.1851 19.2819 30.1851 19.9453C30.1851 20.6085 29.6474 21.1465 28.9839 21.1465Z" fill="#FF8517"/>
						<path d="M28.9839 27.4641H10.9573C10.2938 27.4641 9.75608 26.9264 9.75608 26.2629C9.75608 25.5998 10.2938 25.0618 10.9573 25.0618H28.9839C29.6474 25.0618 30.1851 25.5998 30.1851 26.2629C30.1851 26.9264 29.6474 27.4641 28.9839 27.4641Z" fill="#FF8517"/>
						<path d="M24.2681 35.7281V23.4827C24.2681 22.5255 23.0562 22.1185 22.4835 22.8834L20.2028 25.9298C19.276 27.1682 17.4264 27.1682 16.4992 25.9298L14.2464 22.9206C13.3393 21.7088 11.5294 21.7088 10.6222 22.9206L8.3691 25.9298C7.44226 27.1682 5.59264 27.1682 4.6658 25.9298L2.38514 22.8834C1.81239 22.1185 0.600586 22.5255 0.600586 23.4827V34.1791C0.600586 37.6146 3.09865 40.3995 6.51761 40.3995H28.9166C26.3491 40.3995 24.2681 38.3081 24.2681 35.7281Z" fill="#EAEAEA"/>
						<path d="M27.1008 6.1503V5.15308C27.1008 4.8215 26.8318 4.55249 26.5002 4.55249C26.1683 4.55249 25.8996 4.8215 25.8996 5.15308V6.1503C25.8996 6.48187 26.1683 6.75089 26.5002 6.75089C26.8318 6.75089 27.1008 6.48187 27.1008 6.1503Z" fill="black"/>
						<path d="M14.1829 6.1503V5.15308C14.1829 4.8215 13.9142 4.55249 13.5823 4.55249C13.2507 4.55249 12.9817 4.8215 12.9817 5.15308V6.1503C12.9817 6.48187 13.2507 6.75089 13.5823 6.75089C13.9142 6.75089 14.1829 6.48187 14.1829 6.1503Z" fill="black"/>
						<path d="M28.9839 11.8257H11.099C10.1052 11.8257 9.2972 12.634 9.2972 13.6274C9.2972 14.6209 10.1052 15.4292 11.099 15.4292H28.9839C29.9774 15.4292 30.7857 14.6209 30.7857 13.6274C30.7857 12.634 29.9774 11.8257 28.9839 11.8257ZM28.9839 14.228H11.099C10.7677 14.228 10.4984 13.9584 10.4984 13.6274C10.4984 13.2962 10.7677 13.0269 11.099 13.0269H28.9839C29.3148 13.0269 29.5845 13.2962 29.5845 13.6274C29.5845 13.9584 29.3148 14.228 28.9839 14.228Z" fill="black"/>
						<path d="M28.9839 18.1436H22.532C21.5385 18.1436 20.7302 18.9518 20.7302 19.9453C20.7302 20.9385 21.5385 21.7471 22.532 21.7471H28.9839C29.9774 21.7471 30.7857 20.9385 30.7857 19.9453C30.7857 18.9518 29.9774 18.1436 28.9839 18.1436ZM28.9839 20.5459H22.532C22.2007 20.5459 21.9314 20.2763 21.9314 19.9453C21.9314 19.6141 22.2007 19.3447 22.532 19.3447H28.9839C29.3148 19.3447 29.5845 19.6141 29.5845 19.9453C29.5845 20.2763 29.3148 20.5459 28.9839 20.5459Z" fill="black"/>
						<path d="M22.3121 7.316C22.3121 5.8943 21.2933 4.73755 20.0414 4.73755C18.7893 4.73755 17.7705 5.8943 17.7705 7.316C17.7705 8.7377 18.7893 9.89445 20.0414 9.89445C21.2936 9.89445 22.3121 8.7377 22.3121 7.316ZM18.9716 7.316C18.9716 6.55651 19.4515 5.93872 20.0414 5.93872C20.6311 5.93872 21.1109 6.55651 21.1109 7.316C21.1109 8.07549 20.6311 8.69328 20.0414 8.69328C19.4515 8.69328 18.9716 8.07549 18.9716 7.316Z" fill="black"/>
						<path d="M36.9823 0H36.9819H30.9711C30.6395 0 30.3705 0.269012 30.3705 0.600585C30.3705 0.93247 30.6395 1.20117 30.9711 1.20117H34.1248C33.4075 1.93032 32.9646 2.9316 32.9646 4.03455V35.7279C32.9646 37.9726 31.1485 39.7988 28.9166 39.7988C26.6844 39.7988 24.8686 37.9726 24.8686 35.7279V25.6625H28.9835C29.3148 25.6625 29.5841 25.9321 29.5841 26.2631C29.5841 26.5943 29.3148 26.8637 28.9835 26.8637H26.812C26.4802 26.8637 26.2115 27.1327 26.2115 27.4642C26.2115 27.7961 26.4802 28.0648 26.812 28.0648H28.9835C29.9773 28.0648 30.7853 27.2565 30.7853 26.2631C30.7853 25.2699 29.9773 24.4613 28.9835 24.4613H24.8686V23.4826C24.8686 22.7822 24.44 22.1869 23.7775 21.9664C23.1172 21.7468 22.4206 21.9651 22.0027 22.5232L20.5519 24.4613H16.1504L14.7272 22.5604C14.4691 22.2157 14.1466 21.9417 13.7825 21.7471H17.5505C18.544 21.7471 19.3523 20.9385 19.3523 19.9454C19.3523 18.9519 18.544 18.1436 17.5505 18.1436H11.0989C10.1052 18.1436 9.29718 18.9519 9.29718 19.9454C9.29718 20.9344 10.0986 21.7399 11.0864 21.7468C10.7223 21.9414 10.3995 22.2157 10.1414 22.5604L7.88831 25.5696C7.68686 25.8389 7.42004 26.0369 7.11787 26.1498V7.58207C7.11818 4.06364 9.96502 1.20117 13.4647 1.20117H28.5028C28.8343 1.20117 29.1033 0.93247 29.1033 0.600585C29.1033 0.269012 28.8343 0 28.5028 0H13.4647C9.30281 0 5.91701 3.40144 5.91701 7.58207V26.1498C5.61484 26.0369 5.34802 25.8389 5.14657 25.5699L2.86592 22.5235C2.44801 21.9651 1.75139 21.7468 1.09106 21.9664C0.428229 22.1869 0 22.7822 0 23.4826V29.464C0 29.7956 0.269012 30.0646 0.600585 30.0646C0.932158 30.0646 1.20117 29.7956 1.20117 29.464V23.4826C1.20117 23.2239 1.38948 23.1331 1.47049 23.1062C1.55026 23.0797 1.75202 23.0399 1.90435 23.2433L4.18501 26.2897C4.74118 27.0329 5.59138 27.4589 6.51728 27.4589C7.4435 27.4589 8.2937 27.0329 8.84987 26.2897L11.1027 23.2802C11.4208 22.8557 11.906 22.612 12.4343 22.612C12.9623 22.612 13.4478 22.8557 13.7656 23.2802L16.0184 26.2897C16.5749 27.0329 17.4251 27.4589 18.351 27.4589C19.2769 27.4589 20.1271 27.0329 20.6836 26.2897L22.9642 23.2433C23.1166 23.0399 23.3183 23.0797 23.3981 23.1062C23.4788 23.1331 23.6671 23.2239 23.6671 23.4826V35.7279C23.6671 37.3654 24.4144 38.8309 25.5843 39.7988H6.5176C5.04898 39.7988 3.69891 39.2194 2.71577 38.1675C1.73919 37.1221 1.20117 35.7057 1.20117 34.1789V31.8485C1.20117 31.5169 0.932158 31.2479 0.600585 31.2479C0.269012 31.2479 0 31.5169 0 31.8485V34.1789C0 36.0113 0.652823 37.7189 1.83804 38.9876C3.05078 40.2852 4.71271 40.9999 6.5176 40.9999H28.9166C31.811 40.9999 34.1658 38.6348 34.1658 35.7279V9.79266L37.3251 11.312C38.3189 11.8256 39.379 11.4339 39.7959 11.1718C40.5498 10.6979 40.9999 9.88181 40.9999 8.98907V4.03455C40.9999 1.80989 39.1975 0 36.9823 0V0ZM10.4983 19.9454C10.4983 19.6141 10.7677 19.3448 11.0989 19.3448H17.5505C17.8818 19.3448 18.1511 19.6141 18.1511 19.9454C18.1511 20.2763 17.8818 20.5459 17.5505 20.5459H11.0989C10.7677 20.5459 10.4983 20.2763 10.4983 19.9454ZM18.351 26.2578C17.8471 26.2578 17.3813 26.0422 17.055 25.6625H19.6473C19.321 26.0422 18.8552 26.2578 18.351 26.2578ZM39.7988 8.98907C39.7988 9.4664 39.5588 9.90214 39.1566 10.1552C38.753 10.4089 38.2751 10.4358 37.8456 10.2296L34.1658 8.46011V4.03455C34.1658 2.47241 35.4292 1.20148 36.9819 1.20117H36.9823C38.5353 1.20117 39.7988 2.47241 39.7988 4.03455V8.98907Z" fill="#282B30"/>
						</g>
						<defs>
						<clipPath id="clip2">
						<rect width="41" height="41" fill="white"/>
						</clipPath>
						</defs>
						</svg>