<svg width="74" height="74" viewBox="0 0 74 74" fill="none" xmlns="http://www.w3.org/2000/svg">
<path d="M29.7287 17.3309C31.5793 16.5548 32.3553 14.3461 31.5196 12.5552L28.5945 6.40646C27.7587 4.67587 25.7291 3.89922 23.9382 4.67587C18.864 6.82493 14.5062 9.63066 11.0438 13.0333C6.80537 17.0324 3.93995 21.629 2.38785 26.7032C0.835747 31.8376 0 38.8215 0 47.7162V66.043C0 68.0129 1.6118 69.6247 3.58177 69.6247H27.0424C29.0123 69.6247 30.6241 68.0129 30.6241 66.043V42.5824C30.6241 40.6118 29.0123 39.0006 27.0424 39.0006H15.8195C15.9389 32.9707 17.3716 28.1359 19.9982 24.4938C22.1473 21.5699 25.3709 19.182 29.7287 17.3309Z" fill="#F5F5F5"/>
<path d="M71.8742 17.331C73.7248 16.5549 74.5002 14.3462 73.6651 12.5553L70.74 6.46685C69.9042 4.73566 67.8746 3.95961 66.0837 4.73566C61.0692 6.88473 56.7705 9.69045 53.249 13.0334C49.01 17.0928 46.0855 21.6894 44.5328 26.7636C42.9807 31.7774 42.2052 38.7625 42.2052 47.7169V66.0437C42.2052 68.0136 43.817 69.6254 45.787 69.6254H69.2476C71.2176 69.6254 72.8293 68.0136 72.8293 66.0437V42.5831C72.8293 40.6125 71.2176 39.0013 69.2476 39.0013H57.965C58.0844 32.9714 59.5177 28.1366 62.1437 24.4945C64.2928 21.57 67.5164 19.1821 71.8742 17.331Z" fill="#F5F5F5"/>
</svg>
