<svg width="29" height="29" fill="none" xmlns="http://www.w3.org/2000/svg"><rect width="29" height="29" rx="6" fill="#F58429"/><path d="M21.242 7.662H9.474c-.035 0-.068.016-.1.027l-.29-1.1C8.992 6.24 8.713 6 8.397 6H6.961c-.198 0-.359.186-.359.416v.83c0 .23.16.416.36.416h.903l2.243 8.534-.837 1.131c-.332.447-.48 1.063-.328 1.625.195.719.743 1.178 1.374 1.178h10.286c.198 0 .359-.186.359-.415v-.831c0-.23-.16-.416-.36-.416H10.318l1.138-1.537c.029-.039.05-.082.072-.125h6.956c.557 0 1.063-.373 1.3-.955l2.505-6.163c.072-.177.11-.374.11-.57v-.117c0-.74-.518-1.339-1.156-1.339zM10.91 24.286c.793 0 1.436-.744 1.436-1.662 0-.918-.643-1.662-1.436-1.662-.793 0-1.436.744-1.436 1.662 0 .918.643 1.662 1.436 1.662zm8.616 0c.793 0 1.436-.744 1.436-1.662 0-.918-.643-1.662-1.436-1.662-.793 0-1.436.744-1.436 1.662 0 .918.643 1.662 1.436 1.662z" fill="#fff"/></svg>