<svg width="16" height="16" fill="none" xmlns="http://www.w3.org/2000/svg"><g clip-path="url(#clip0)"><path d="M15.644 13.905l-3.298-3.298A6.585 6.585 0 0 0 13.54 6.77a6.65 6.65 0 0 0-.534-2.63 6.767 6.767 0 0 0-1.442-2.163A6.767 6.767 0 0 0 9.399.535 6.653 6.653 0 0 0 6.77 0a6.65 6.65 0 0 0-2.63.534 6.766 6.766 0 0 0-2.163 1.442A6.768 6.768 0 0 0 .534 4.14 6.652 6.652 0 0 0 0 6.77c0 .917.178 1.793.534 2.63a6.766 6.766 0 0 0 1.442 2.163 6.77 6.77 0 0 0 2.164 1.443 6.653 6.653 0 0 0 2.63.533c1.41 0 2.689-.397 3.836-1.192l3.298 3.288c.23.244.519.366.865.366.334 0 .622-.122.866-.366.243-.243.365-.532.365-.865 0-.34-.118-.628-.356-.865zM9.813 9.813c-.843.843-1.858 1.265-3.044 1.265s-2.2-.422-3.043-1.265S2.462 7.956 2.462 6.77c0-1.186.421-2.2 1.264-3.043S5.583 2.462 6.77 2.462c1.186 0 2.2.422 3.044 1.265.843.843 1.264 1.857 1.264 3.043 0 1.186-.421 2.2-1.264 3.043z" fill="#B7BABE"/></g><defs><clipPath id="clip0"><path fill="#fff" d="M0 0h16v16H0z"/></clipPath></defs></svg>