<?xml version="1.0" encoding="utf-8"?>
<!-- Generator: Adobe Illustrator 25.2.1, SVG Export Plug-In . SVG Version: 6.00 Build 0)  -->
<svg version="1.1" id="Слой_1" xmlns="http://www.w3.org/2000/svg" xmlns:xlink="http://www.w3.org/1999/xlink" x="0px" y="0px"
	 width="217px" height="220px" viewBox="0 0 217 220" enable-background="new 0 0 217 220" xml:space="preserve">
<g id="עיר_ימים_1_">
	<path fill="#FBFDC1" d="M36.5,18.5l-23,85l-11,59l16,4l-5,29l1,13.4l0.6,2.2c0,0,2.4,3.3,10.4,6.3l16-6l8-13l6-3l5,2l154-88l-62-93
		l-11-14l-51,5L36.5,18.5z"/>
	<path fill="none" stroke="#DCE085" stroke-width="5" stroke-linecap="round" stroke-linejoin="round" stroke-miterlimit="10" d="
		M36.5,18.5l-23,85l-11,59l16,4l-5,29l1,13.4l0.6,2.2c0,0,2.4,3.3,10.4,6.3l16-6l8-13l6-3l5,2l154-88l-62-93l-11-14l-51,5L36.5,18.5
		z"/>
</g>
</svg>
