<?xml version="1.0" encoding="utf-8"?>
<!-- Generator: Adobe Illustrator 25.2.1, SVG Export Plug-In . SVG Version: 6.00 Build 0)  -->
<svg version="1.1" id="Слой_1" xmlns="http://www.w3.org/2000/svg" xmlns:xlink="http://www.w3.org/1999/xlink" x="0px" y="0px"
	 width="127.9px" height="94.4px" viewBox="0 0 127.9 94.4" enable-background="new 0 0 127.9 94.4" xml:space="preserve">
<g id="פרדס_הגדוד_1_">
	<path fill="#63A892" d="M125.4,29.9c0,0-56.6-6.5-57.1-6.7c-0.5-0.2-39.3-3.8-39.3-3.8L26.5,2.5l-16,28.2c0,0-4.4,41.3-8,51.2h29
		l66.8,10L125.4,29.9z"/>
	<path fill="none" stroke="#3F7369" stroke-width="5" stroke-linecap="round" stroke-linejoin="round" stroke-miterlimit="10" d="
		M125.4,29.9c0,0-56.6-6.5-57.1-6.7c-0.5-0.2-39.3-3.8-39.3-3.8L26.5,2.5l-16,28.2c0,0-4.4,41.3-8,51.2h29l66.8,10L125.4,29.9z"/>
</g>
</svg>
