<?xml version="1.0" encoding="utf-8"?>
<!-- Generator: Adobe Illustrator 25.2.1, SVG Export Plug-In . SVG Version: 6.00 Build 0)  -->
<svg version="1.1" id="Слой_1" xmlns="http://www.w3.org/2000/svg" xmlns:xlink="http://www.w3.org/1999/xlink" x="0px" y="0px"
	 width="126px" height="224px" viewBox="0 0 126 224" enable-background="new 0 0 126 224" xml:space="preserve">
<g id="צפון_מזרח">
	<path fill="#9CC7DF" d="M39.5,221.5l15-52c0,0,13-17,19-23s14-7,14-7s6-54,8-60s28-67,28-67l-68-10H27.6l-7.5,45.7L12,145.2
		l-3.5,41.3l-6,20L39.5,221.5z"/>
	<path fill="none" stroke="#6E99C7" stroke-width="5" stroke-linecap="round" stroke-linejoin="round" stroke-miterlimit="10" d="
		M39.5,221.5l15-52c0,0,13-17,19-23s14-7,14-7s6-54,8-60s28-67,28-67l-68-10H27.6l-7.5,45.7L12,145.2l-3.5,41.3l-6,20L39.5,221.5z"
		/>
</g>
</svg>
