<?xml version="1.0" encoding="utf-8"?>
<!-- Generator: Adobe Illustrator 25.2.1, SVG Export Plug-In . SVG Version: 6.00 Build 0)  -->
<svg version="1.1" id="Слой_1" xmlns="http://www.w3.org/2000/svg" xmlns:xlink="http://www.w3.org/1999/xlink" x="0px" y="0px"
	 width="178px" height="308px" viewBox="0 0 178 308" enable-background="new 0 0 178 308" xml:space="preserve">
<g id="נאות_הרצל_1_">
	<path fill="#71A8A9" d="M81.5,305.5l3-24l32-68l58-12l1-13l-34-12l10-26l-37-10l8-32l-28-7l1-6l8,2l3-10l7,1l5-14l13,3l6-16l-26-5
		l-8,2l25-54l-15-2L84.9,68.4l-26.4,63.1l-8,60c0,0-10.5,1.1-19.5,13.1l-13.5,16.9l-15,52l46.4,23.6L81.5,305.5z"/>
	<path fill="none" stroke="#4C7A80" stroke-width="5" stroke-linecap="round" stroke-linejoin="round" stroke-miterlimit="10" d="
		M81.5,305.5l3-24l32-68l58-12l1-13l-34-12l10-26l-37-10l8-32l-28-7l1-6l8,2l3-10l7,1l5-14l13,3l6-16l-26-5l-8,2l25-54l-15-2
		L84.9,68.4l-26.4,63.1l-8,60c0,0-10.5,1.1-19.5,13.1l-13.5,16.9l-15,52l46.4,23.6L81.5,305.5z"/>
</g>
</svg>
