<?xml version="1.0" encoding="utf-8"?>
<!-- Generator: Adobe Illustrator 25.2.1, SVG Export Plug-In . SVG Version: 6.00 Build 0)  -->
<svg version="1.1" id="Слой_1" xmlns="http://www.w3.org/2000/svg" xmlns:xlink="http://www.w3.org/1999/xlink" x="0px" y="0px"
	 width="170px" height="223px" viewBox="0 0 170 223" enable-background="new 0 0 170 223" xml:space="preserve">
<g id="נוף_הטיילת_1_">
	<polygon fill="#F1DEEE" points="2.5,214.5 33.5,87.2 51.5,2.5 59.5,2.5 67.7,8.1 167.5,35.5 151.5,101.5 157.5,115.8 73.5,101.5 
		50.5,105.5 50.9,135.8 55.5,153.5 62.5,157.5 50.5,220.5 34.5,220.5 	"/>
	
		<polygon fill="none" stroke="#BE96C8" stroke-width="5" stroke-linecap="round" stroke-linejoin="round" stroke-miterlimit="10" points="
		2.5,214.5 33.5,87.2 51.5,2.5 59.5,2.5 67.7,8.1 167.5,35.5 151.5,101.5 157.5,115.8 73.5,101.5 50.5,105.5 50.9,135.8 55.5,153.5 
		62.5,157.5 50.5,220.5 34.5,220.5 	"/>
</g>
</svg>
