<?xml version="1.0" encoding="utf-8"?>
<!-- Generator: Adobe Illustrator 25.2.1, SVG Export Plug-In . SVG Version: 6.00 Build 0)  -->
<svg version="1.1" id="Слой_1" xmlns="http://www.w3.org/2000/svg" xmlns:xlink="http://www.w3.org/1999/xlink" x="0px" y="0px"
	 width="125px" height="164px" viewBox="0 0 125 164" enable-background="new 0 0 125 164" xml:space="preserve">
<g id="כוכב_הים_1_">
	<polygon fill="#FDD9EB" points="112.5,157.5 118.5,129.5 115.5,55.5 122.5,18.5 28.5,2.5 5.5,6.5 5.5,35.5 10.5,54.5 17.5,58.5 
		5.2,123.9 2.5,145.5 21.5,146.5 57.5,157.5 93.5,161.5 100.5,153.5 	"/>
	
		<polygon fill="none" stroke="#E58FC0" stroke-width="5" stroke-linecap="round" stroke-linejoin="round" stroke-miterlimit="10" points="
		112.5,157.5 118.5,129.5 115.5,55.5 122.5,18.5 28.5,2.5 5.5,6.5 5.5,35.5 10.5,54.5 17.5,58.5 5.2,123.9 2.5,145.5 21.5,146.5 
		57.5,156.5 93.5,161.5 99.5,153.5 	"/>
</g>
</svg>
