<?xml version="1.0" encoding="utf-8"?>
<!-- Generator: Adobe Illustrator 25.2.1, SVG Export Plug-In . SVG Version: 6.00 Build 0)  -->
<svg version="1.1" id="Слой_1" xmlns="http://www.w3.org/2000/svg" xmlns:xlink="http://www.w3.org/1999/xlink" x="0px" y="0px"
	 width="296.5px" height="177.5px" viewBox="0 0 296.5 177.5" enable-background="new 0 0 296.5 177.5" xml:space="preserve">
<path fill="none" stroke="#DEDFAF" stroke-width="5" stroke-linecap="round" stroke-linejoin="round" stroke-miterlimit="10" d="
	M75.5,175l-73-22l21-98l15,4L34,88.5c0,0,1,10,1,14s11,8,11,8l16-6l8-13l6-3l5,2l154-88l39,51l20,11c0,0-25,46-71,54s-85,19-96,34
	c0,0-3-4-10-3s-10,11-10,11l-8,1l-6-5l-6,5C87,161.5,77,169.5,75.5,175z"/>
<path fill="#FEFFE5" stroke="#E8E8CC" stroke-miterlimit="10" d="M75.5,175l-73-22l21-98l15,4L34,88.5c0,0,1,10,1,14s11,8,11,8l16-6
	l8-13l6-3l5,2l154-88l39,51l20,11c0,0-25,46-71,54s-85,19-96,34c0,0-3-4-10-3s-10,11-10,11l-8,1l-6-5l-6,5
	C87,161.5,77,169.5,75.5,175z"/>
</svg>
