<?xml version="1.0" encoding="utf-8"?>
<!-- Generator: Adobe Illustrator 25.2.1, SVG Export Plug-In . SVG Version: 6.00 Build 0)  -->
<svg version="1.1" id="Слой_1" xmlns="http://www.w3.org/2000/svg" xmlns:xlink="http://www.w3.org/1999/xlink" x="0px" y="0px"
	 width="234px" height="305px" viewBox="0 0 234 305" enable-background="new 0 0 234 305" xml:space="preserve">
<g id="קרית_השרון_1_">
	<polygon fill="#FDD6EA" points="7.5,5.5 2.5,302.5 26.5,302.5 44.5,266.5 98.5,255.5 138.5,256.5 215.5,263.5 215.5,232.5 
		222.5,227.5 231.5,193.5 157.5,200.5 158.5,193.5 189.5,158.5 80.5,135.5 93.5,70.5 96.5,45.5 107.5,24.5 62.5,2.5 	"/>
	
		<polygon fill="none" stroke="#DD7FB9" stroke-width="5" stroke-linecap="round" stroke-linejoin="round" stroke-miterlimit="10" points="
		7.5,5.5 2.5,302.5 26.5,302.5 44.5,266.5 98.5,255.5 138.5,256.5 215.5,263.5 215.5,232.5 222.5,227.5 231.5,193.5 157.5,200.5 
		158.5,193.5 189.5,158.5 80.5,135.5 93.5,70.5 96.5,45.5 107.5,24.5 62.5,2.5 	"/>
</g>
</svg>
