<?xml version="1.0" encoding="utf-8"?>
<!-- Generator: Adobe Illustrator 25.2.1, SVG Export Plug-In . SVG Version: 6.00 Build 0)  -->
<svg version="1.1" id="Слой_1" xmlns="http://www.w3.org/2000/svg" xmlns:xlink="http://www.w3.org/1999/xlink" x="0px" y="0px"
	 width="170px" height="95px" viewBox="0 0 170 95" enable-background="new 0 0 170 95" xml:space="preserve">
<g id="אגמים_1_">
	<path fill="#F8B15F" d="M167.5,72.5l-2,17l-156,3l-7-65v-9l4-16l25,1l15,4l3-3h30l2,4l51,3l6,21C138.5,32.5,163.5,67.5,167.5,72.5z
		"/>
	<path fill="none" stroke="#BC7A36" stroke-width="5" stroke-linecap="round" stroke-linejoin="round" stroke-miterlimit="10" d="
		M167.5,72.5l-2,17l-156,3l-7-65v-9l4-16l25,1l15,4l3-3h30l2,4l51,3l6,21C138.5,32.5,163.5,67.5,167.5,72.5z"/>
</g>
</svg>
