<?xml version="1.0" encoding="utf-8"?>
<!-- Generator: Adobe Illustrator 25.2.1, SVG Export Plug-In . SVG Version: 6.00 Build 0)  -->
<svg version="1.1" id="Слой_1" xmlns="http://www.w3.org/2000/svg" xmlns:xlink="http://www.w3.org/1999/xlink" x="0px" y="0px"
	 width="138px" height="172px" viewBox="0 0 138 172" enable-background="new 0 0 138 172" xml:space="preserve">
<g id="רמת_ידין_1_">
	<path fill="#FDD7D9" d="M27.5,2.5L27.4,3L15.5,70.5l-11,53L3.8,127c0,0-1.3,14.8-1.3,22.6v0.8l11-2l2-15c0,0,24,2,27,2s8-1,14-11
		l12,15l17,30l13-31l16,3l11-40l10-70l-43-10l-2,2l-29-5l-2-7L27.5,2.5z"/>
	<path fill="none" stroke="#BE8585" stroke-width="5" stroke-linecap="round" stroke-linejoin="round" stroke-miterlimit="10" d="
		M27.5,2.5L27.4,3L15.5,70.5l-11,53L3.8,127c0,0-1.3,14.8-1.3,22.6v0.8l11-2l2-15c0,0,24,2,27,2s8-1,14-11l12,15l17,30l13-31l16,3
		l11-40l10-70l-43-10l-2,2l-29-5l-2-7L27.5,2.5z"/>
</g>
</svg>
