<?xml version="1.0" encoding="utf-8"?>
<!-- Generator: Adobe Illustrator 25.2.1, SVG Export Plug-In . SVG Version: 6.00 Build 0)  -->
<svg version="1.1" id="Слой_1" xmlns="http://www.w3.org/2000/svg" xmlns:xlink="http://www.w3.org/1999/xlink" x="0px" y="0px"
	 width="154px" height="147.8px" viewBox="0 0 154 147.8" enable-background="new 0 0 154 147.8" xml:space="preserve">
<g id="רמת_חן_בן_ציון">
	<polygon fill="#CEAFC8" points="111.5,69.5 151.5,69.5 148.5,93.5 95.5,93.5 92.5,142.5 12.3,145.3 12.5,126.5 18.5,89.5 8.5,87.8 
		2.5,73.5 18.5,7.5 47.5,14.5 52.5,2.5 108.3,16.3 103.5,46.5 113.5,51.5 	"/>
	
		<polygon fill="none" stroke="#9D69A0" stroke-width="5" stroke-linecap="round" stroke-linejoin="round" stroke-miterlimit="10" points="
		111.5,69.5 151.5,69.5 148.5,93.5 95.5,93.5 92.5,142.5 12.3,145.3 12.5,126.5 18.5,89.5 8.5,87.8 2.5,73.5 18.5,7.5 47.5,14.5 
		52.5,2.5 108.3,16.3 103.5,46.5 113.5,51.5 	"/>
</g>
</svg>
