<?xml version="1.0" encoding="utf-8"?>
<!-- Generator: Adobe Illustrator 25.2.1, SVG Export Plug-In . SVG Version: 6.00 Build 0)  -->
<svg version="1.1" id="Слой_1" xmlns="http://www.w3.org/2000/svg" xmlns:xlink="http://www.w3.org/1999/xlink" x="0px" y="0px"
	 width="172px" height="223.8px" viewBox="0 0 172 223.8" enable-background="new 0 0 172 223.8" xml:space="preserve">
<g id="צפון_מערב">
	<polygon fill="#D6E6F1" points="143.2,221.3 149.5,201.5 161.5,59.5 169.5,12.5 140.5,12.5 127.5,16.5 122.5,20.5 105.5,20.5 
		91.5,16.5 88.5,12.5 66.5,2.5 43.5,105.5 30.5,147.5 23.5,166.5 2.5,184.5 17.5,184.5 58.5,195.5 67.5,190.5 	"/>
	
		<polygon fill="none" stroke="#9BAEC8" stroke-width="5" stroke-linecap="round" stroke-linejoin="round" stroke-miterlimit="10" points="
		143.2,221.3 149.5,201.5 161.5,59.5 169.5,12.5 140.5,12.5 127.5,16.5 122.5,20.5 105.5,20.5 91.5,16.5 88.5,12.5 66.5,2.5 
		43.5,105.5 30.5,147.5 23.5,166.5 2.5,184.5 17.5,184.5 58.5,195.5 67.5,190.5 	"/>
</g>
</svg>
