<?xml version="1.0" encoding="utf-8"?>
<!-- Generator: Adobe Illustrator 25.2.1, SVG Export Plug-In . SVG Version: 6.00 Build 0)  -->
<svg version="1.1" id="Слой_1" xmlns="http://www.w3.org/2000/svg" xmlns:xlink="http://www.w3.org/1999/xlink" x="0px" y="0px"
	 width="198px" height="201px" viewBox="0 0 198 201" enable-background="new 0 0 198 201" xml:space="preserve">
<g id="מרכז_העיר_דרום_1_">
	<polygon fill="#97ABD1" points="195.5,54.5 82.5,8.5 73.5,13.5 32.5,2.5 17.5,2.5 14.5,6.5 22.5,15.5 25.5,28.5 17.5,42.5 
		9.5,47.5 2.5,47.5 2.5,54.5 17.5,64.5 16.5,79.5 14.5,97.5 2.5,158.5 10.5,158.5 16.5,163.5 147.5,198.5 186.2,94.3 	"/>
	
		<polygon fill="none" stroke="#6678B7" stroke-width="5" stroke-linecap="round" stroke-linejoin="round" stroke-miterlimit="10" points="
		195.5,54.5 82.5,8.5 73.5,13.5 32.5,2.5 17.5,2.5 14.5,6.5 22.5,15.5 25.5,28.5 17.5,42.5 9.5,47.5 2.5,47.5 2.5,54.5 17.5,64.5 
		16.5,79.5 14.5,97.5 2.5,158.5 10.5,158.5 16.5,163.5 147.5,198.5 186.2,94.3 	"/>
</g>
</svg>
