<?xml version="1.0" encoding="utf-8"?>
<!-- Generator: Adobe Illustrator 25.2.1, SVG Export Plug-In . SVG Version: 6.00 Build 0)  -->
<svg version="1.1" id="Слой_1" xmlns="http://www.w3.org/2000/svg" xmlns:xlink="http://www.w3.org/1999/xlink" x="0px" y="0px"
	 width="207.4px" height="121.2px" viewBox="0 0 207.4 121.2" enable-background="new 0 0 207.4 121.2" xml:space="preserve">
<g id="עין_התכלת_1_">
	<polygon fill="#D9F0CB" points="2.5,110.7 10.8,60.8 13.5,49.8 34,53.3 36.8,36.8 36.8,18.7 63.7,19.9 63.7,6.3 74.5,7.2 
		74.5,13.6 86.3,16.2 86.3,15 96.9,16.9 96.9,19.7 118.3,18.2 131.5,23 135.4,15.4 145.1,16.9 155.9,9.3 155.9,5.1 191.7,2.5 
		191.7,4.8 204.9,4.1 204.9,11.4 198.3,12.1 198.3,18.8 191.7,18.3 187,28.1 178.3,29.5 174.7,36.9 170.5,31.4 134.8,70.2 
		126.8,70.7 116.1,82.5 123.7,86 122.5,96.8 117.5,95.4 104.2,118.7 94.2,111.9 70.8,108.6 33.5,108.6 21.8,107.5 21.8,114.7 	"/>
	
		<polygon fill="none" stroke="#B4C7A4" stroke-width="5" stroke-linecap="round" stroke-linejoin="round" stroke-miterlimit="10" points="
		2.5,110.7 10.8,60.8 13.5,49.8 34,53.3 36.8,36.8 36.8,18.7 63.7,19.9 63.7,6.3 74.5,7.2 74.5,13.6 86.3,16.2 86.3,15 96.9,16.9 
		96.9,19.7 118.3,18.2 131.5,23 135.4,15.4 145.1,16.9 155.9,9.3 155.9,5.1 191.7,2.5 191.7,4.8 204.9,4.1 204.9,11.4 198.3,12.1 
		198.3,18.8 191.7,18.3 187,28.1 178.3,29.5 174.7,36.9 170.5,31.4 134.8,70.2 126.8,70.7 116.1,82.5 123.7,86 122.5,96.8 
		117.5,95.4 104.2,118.7 94.2,111.9 70.8,108.6 33.5,108.6 21.8,107.5 21.8,114.7 	"/>
</g>
</svg>
