<svg width="371" height="435" viewBox="0 0 371 435" fill="none" xmlns="http://www.w3.org/2000/svg">
<path fill-rule="evenodd" clip-rule="evenodd" d="M53.0868 418.669V433.185H56.1261V421.693H59.7733V433.185H62.8126V418.669H53.0868ZM100.5 418.669V433.185H103.641V427.338H107.187V433.185H110.429V418.669H107.187V424.314H103.641V418.669H100.5ZM154.6 433.185V418.669H164.326V433.185H161.287V421.693H157.64V433.185H154.6ZM65.4466 418.669V433.185H68.4859L72.741 424.516V433.185H75.7803V418.669H72.741L68.4859 427.137V418.669H65.4466ZM112.86 433.185V418.669H115.899V427.137L120.155 418.669H123.194V433.185H120.155V424.516L115.899 433.185H112.86ZM298.056 418.669H295.017V433.185H298.056L302.311 424.516V433.185H305.351V418.669H302.311L298.056 427.137V418.669ZM125.828 433.185V418.669H135.351V421.794H128.867V424.516H132.109V427.338H128.867V429.959H135.351V433.185H125.828ZM280.428 418.669H270.905V433.185H280.428V429.959H273.944V427.338H277.186V424.516H273.944V421.794H280.428V418.669ZM166.96 433.185V418.669H176.483V421.794H169.999V424.516H173.241V427.338H169.999V429.959H176.483V433.185H166.96ZM178.712 418.669V433.185H186.615V435H189.654V430.161H188.236V418.669H185.196V430.161H181.752V418.669H178.712ZM191.477 433.185V430.161H194.314V433.185H191.477ZM201.811 418.669V433.185H204.85V427.338H208.396V433.185H211.537V418.669H208.396V424.314H204.85V418.669H201.811ZM239.701 433.185H236.662V418.669H239.701V424.314H243.247V418.669H246.388V433.185H243.247V427.338H239.701V433.185ZM285.696 418.669H282.657V433.185H285.696V427.338H289.242V433.185H292.383V418.669H289.242V424.314H285.696V418.669ZM77.604 421.693V418.669H87.3299V421.693H84.0879V433.185H81.0486V421.693H77.604ZM88.5456 433.185L89.964 418.669H97.2583L98.6767 433.185H95.6374L95.4347 429.758H91.8889L91.5849 433.185H88.5456ZM92.1928 426.532L92.5981 421.693H94.6243L95.0295 426.532H92.1928ZM214.779 418.669L213.36 433.185H216.4L216.704 429.758H220.25L220.452 433.185H223.491L222.073 418.669H214.779ZM217.413 421.693L217.008 426.532H219.844L219.439 421.693H217.413ZM251.453 433.185H248.414L249.832 418.669H257.127L258.545 433.185H255.506L255.303 429.758H251.757L251.453 433.185ZM252.061 426.532L252.466 421.693H254.493L254.898 426.532H252.061ZM258.748 428.145V418.669H261.787V425.02H265.232V418.669H268.271V433.185H265.232V428.145H258.748ZM225.112 418.669V421.693H230.786L227.24 425.927L230.786 430.06H225.112V433.185H234.433V430.06L230.989 425.927L234.433 421.693V418.669H225.112ZM152.169 423.104V418.669H142.443V433.185H152.169V428.548H149.129V429.959H145.482V421.693H149.129V423.104H152.169ZM307.985 428.145V418.669H317.711V433.185H314.773V428.145H313.152L310.821 433.185H307.478L310.011 428.145H307.985ZM311.024 425.322V421.693H314.671V425.322H311.024Z" fill="#2B2A28"/>
<path fill-rule="evenodd" clip-rule="evenodd" d="M0 324.511H15.1966V366.751L35.4588 324.511H50.6554V395.482H35.4588V353.041L15.1966 395.482H0.101311L0 324.511ZM58.7602 324.511L58.8615 395.482H74.0581V374.11H106.478V324.511H58.7602ZM73.9568 339.633V358.988H91.3822V339.633H73.9568ZM114.278 324.511V395.482H129.475V339.633H146.9V395.482H162.097V324.511H114.278ZM166.758 339.633V324.511H214.576V339.633H198.164V395.482H182.967V339.633H166.758ZM217.21 395.482V324.511H265.029V395.482H217.21ZM249.731 339.633H232.407V380.26H249.731V339.633ZM273.134 324.511L273.235 395.482H288.432V374.11H320.851V324.511H273.134ZM288.33 339.633V358.988H305.756V339.633H288.33ZM328.652 395.482V324.511H371V339.733H343.849V395.482H328.652Z" fill="#2B2A28"/>
<path fill-rule="evenodd" clip-rule="evenodd" d="M199.076 104.743H223.188L185.297 0L94.4217 297.292L347.699 111.8H187.628L169.189 172.992L218.021 139.019H274.248L134.541 239.225L185.804 70.8702L199.076 104.743ZM232.407 205.856L252.365 192.448L288.533 301.728L193.402 234.184L211.942 220.877L245.273 244.064L232.407 205.856ZM142.038 111.799L135.452 136.196H94.7256L128.259 161.096L121.066 182.972L22.8962 112.606L142.038 111.799Z" fill="#1F613B"/>
</svg>
