<?xml version="1.0" encoding="utf-8"?>
<!-- Generator: Adobe Illustrator 24.0.3, SVG Export Plug-In . SVG Version: 6.00 Build 0)  -->
<svg version="1.1" id="Слой_1" xmlns="http://www.w3.org/2000/svg" xmlns:xlink="http://www.w3.org/1999/xlink" x="0px" y="0px"
	 viewBox="0 0 117 47.4" style="enable-background:new 0 0 117 47.4;" xml:space="preserve">
<style type="text/css">
	.st0{fill:#F9474E;}
</style>
<g>
	<path class="st0" d="M43.5,18.3h-0.3c0,0-0.4,2.1-1.3,4l-1.7,3.4h3.6l-0.5-3.3C43.1,20.4,43.5,18.3,43.5,18.3z"/>
	<path class="st0" d="M74,17.5c-2,0-2.8,0.7-3,1.9c-0.2,1.2,0.3,1.8,2.3,1.8c1.3,0,2.2-0.2,2.7-0.3l0.2-1.1
		C76.5,18.3,76,17.5,74,17.5z"/>
	<path class="st0" d="M114.3,0L0,7.8l2.7,39.6L117,39.6L114.3,0z M28.3,37.7h-3.1c-0.9,0-1.1-0.3-1-1.2l0.5-3.2H14.2l-0.5,3.2
		c-0.2,0.9-0.5,1.2-1.4,1.2H9.1c-0.9,0-1.1-0.3-1-1.2l1.2-7c0.2-0.9,0.5-1.2,1.4-1.2h0.6c1.7-1.2,2.8-3,3.6-7.6l1.1-6.5
		c0.1-0.9,0.5-1.2,1.4-1.2h12.5c0.9,0,1.2,0.3,1,1.2l-2.5,14.1h1.4c0.9,0,1.2,0.3,1,1.2l-1.2,7C29.6,37.4,29.2,37.7,28.3,37.7z
		 M49.5,33.4h-2.9c-1.5,0-1.9-0.3-1.9-1.2l-0.3-2.1h-6.2l-1,2.1c-0.4,0.9-0.9,1.2-2.3,1.2h-3.1c-0.9,0-1-0.4-0.5-1.2l9.8-18.1
		c0.4-0.8,0.8-1,1.7-1h3.2c0.8,0,1.2,0.2,1.3,0.9l3.4,18.2C50.7,33,50.4,33.4,49.5,33.4z M62.8,22.4l-0.4,2.4
		c-0.1,0.9-0.5,1.2-1.4,1.2h-6.6c-0.9,0-1.2-0.3-1-1.2l0.4-2.4c0.2-0.9,0.5-1.2,1.4-1.2h6.6C62.7,21.2,62.9,21.5,62.8,22.4z
		 M81.7,20.7l-1,5.7c-0.9,4.9-4.2,7.4-9.5,7.4c-4.3,0-6.6-1.5-7.2-4.5c-0.2-0.9,0.1-1.2,1-1.5l2.8-1c0.9-0.3,1.1,0.1,1.4,0.8
		c0.4,0.9,1,1.3,2.6,1.3c1.9,0,3-0.8,3.3-2.7l0.1-0.5c-0.7,0.1-1.7,0.2-3,0.2c-5.5,0-7.6-2.2-6.8-6.6c0.8-4.4,4.3-6.6,9.4-6.6
		C80.3,12.7,82.6,15.8,81.7,20.7z M98.2,18.1H91l-0.5,2h2c5.3,0,7,3.1,6.3,6.9c-0.7,3.9-3.7,6.8-8.8,6.8c-4.6,0-7-1.5-7.6-4.7
		c-0.2-0.9,0.1-1.2,1-1.5l3.3-1.1c0.8-0.3,1.2-0.2,1.4,0.7c0.3,1,0.9,1.6,2.5,1.6c1.3,0,2.2-0.7,2.5-2.1c0.2-1.3-0.4-1.9-1.9-1.9h-6
		c-1,0-1.3-0.4-1-1.4l2.3-8.5c0.4-1.3,0.9-1.7,2.2-1.7h10.5c0.9,0,1.2,0.3,1,1.2l-0.5,2.6C99.5,17.8,99.1,18.1,98.2,18.1z M106,30.4
		l-0.2,1c-0.3,1.7-0.9,2.2-2.7,2.2h-1.4c-1.7,0-2.1-0.5-1.9-2.2l0.2-1c0.3-1.7,0.9-2.2,2.7-2.2h1.4C105.9,28.2,106.3,28.7,106,30.4z
		 M108.8,13.3l-2.7,12.3c-0.2,0.8-0.4,1.1-1.3,1.1h-2.3c-0.8,0-1-0.3-0.9-1.1l1.7-12.3c0.1-0.8,0.5-1.1,1.3-1.1h3.2
		C108.7,12.3,109,12.5,108.8,13.3z"/>
	<path class="st0" d="M20.5,20.8c-0.6,3.5-1.5,5.9-2.7,7.6h5.1l1.8-10.3h-3.8L20.5,20.8z"/>
</g>
</svg>
