<?xml version="1.0" encoding="utf-8"?>
<!-- Generator: Adobe Illustrator 24.0.3, SVG Export Plug-In . SVG Version: 6.00 Build 0)  -->
<svg version="1.1" id="Слой_1" xmlns="http://www.w3.org/2000/svg" xmlns:xlink="http://www.w3.org/1999/xlink" x="0px" y="0px"
	 viewBox="0 0 3034 1152.7" style="enable-background:new 0 0 3034 1152.7;" xml:space="preserve">
<style type="text/css">
	.st0{fill-rule:evenodd;clip-rule:evenodd;fill:#FFFFFF;stroke:#B50202;stroke-width:11.9999;stroke-miterlimit:10;}
	.st1{fill-rule:evenodd;clip-rule:evenodd;fill:#B50202;}
	.st2{fill:#B50202;stroke:#B50202;stroke-width:24.0001;stroke-miterlimit:10;}
	.st3{fill-rule:evenodd;clip-rule:evenodd;fill:#110073;}
	.st4{fill:#FFFFFF;stroke:#FFFFFF;stroke-width:24.0001;stroke-miterlimit:10;}
	.st5{fill-rule:evenodd;clip-rule:evenodd;fill:#FFFFFF;}
</style>
<g id="Слой_x0020_1">
	<polygon class="st0" points="6.7,561.1 3028,561.1 3028,1146.7 6.7,1146.7 	"/>
	<polygon class="st1" points="0,0 3033.6,0 3033.6,585.6 0,585.6 	"/>
	<g id="_1029728880">
		<path class="st2" d="M105.9,675.1h21.8V998l150.6-213h1.5L430,998V675.1h22.8v362.2h-21.3L279.3,819.9l-152.2,217.4h-21.3
			L105.9,675.1L105.9,675.1z M736.8,669.2c112.1,0,185.6,88.1,185.6,187.1v1c0,98.5-73,186.1-185.1,186.1
			c-111.6,0-185.1-88.1-185.1-187.1v-1C552.2,756.7,625.2,669.2,736.8,669.2L736.8,669.2z M737.8,689.1
			c-95.4,0-162.3,77.1-162.3,167.2v1c0,90.6,66.4,166.2,161.3,166.2c94.8,0,161.8-77.1,161.8-167.2v-1
			C898.6,764.7,833.2,689.1,737.8,689.1L737.8,689.1z M1021.9,675.1h22.8v172.2h244.5V675.1h22.8v362.2h-22.8V867.7h-244.5v169.7
			h-22.8V675.1z M2015.9,1039.8h-20.3l-168.9-364.5h23.8l155.2,336.6L2161,675.1h25.4L2015.9,1039.8L2015.9,1039.8z M2574.3,675.1
			v362.2h-20.8l-261.7-323.9v323.9H2269V675.1h17.2l265.8,328.4V675.1H2574.3L2574.3,675.1z M2787.9,675.1h22.3V1017h130.3v20.4
			h-283V1017h130.3V675.1z"/>
		<path class="st3" d="M1431.4,754.4c0.1,34.8,15.3,59.9,34,78.1c2.5,2.5,3.9,4.1,6.5,6.6l4.3,31.7c35.2,30.2,73.8,51.5,116.3,73.1
			c9.3,4.7,40.8,19.9,49.6,22.8l0.5,38.3c-19.7-5.9-64.4-30-84.6-40.1c-32.8-16.5-60.6-34.8-86.4-55.4
			c-14.3-11.4-13.2-12.4-24.4-22.9C1409.5,851.4,1395.9,793.9,1431.4,754.4L1431.4,754.4z"/>
		<path class="st3" d="M1515.1,679.1c-5.4,12.8-18.9,26.8-8,54.3c5.4,13.6,13,22.1,22.2,30.5c11.3,10.3,15.8,15.1,29.6,24.3l44,26.9
			c5.8,3.5,17.1,10,23,12.2l1.1,65.5c-13.3-4.3-31.8-14-51-25.6l-1.9-22.1c-21.5-13.5-42.3-23.9-56.4-34.8
			c-11.6-9-27.2-25.1-37.3-42.9c-1.5-2.6-11.5,7.1-12.8,4.3c-5.1-11.6-7.5-24.1-4.8-36.7C1468.1,710.6,1494.6,687.1,1515.1,679.1
			L1515.1,679.1z"/>
		<path class="st3" d="M1597.7,661c-4.8,3.8-9.9,5.3-13,12.3c-7.9,17.9,19.7,31.7,32.4,38.9c21.7,12.4,45.5,19.8,69.9,29.9l17.6,77
			c-8-2.3-26-11.1-33.4-14.9c-2.4-1.2-4.8-2.4-7.2-3.6c-8.6-4.1-17-7.8-25.5-12.3c-21.3-11.1-72.1-39.5-88.5-58.5
			c-2.3-2.6-2.9-4-5-6.8C1511.5,678.8,1566.4,660.7,1597.7,661L1597.7,661z"/>
		<path class="st1" d="M1402.9,865.8c46.7,91.3,108.7,172.1,223.7,149.9c92.7-16,162.9-153.1,95.2-274c-30.7-44.7-33.5-41.8-83-75.5
			c32,3.7,74.9,31.7,89.7,48.3c7.2,8,8.2,7.4,16.6,17.6c6,7.2,9.9,12.3,14.9,20.6c46,75.9,38,166.2-19.5,233.9
			c-60.6,71.4-167.2,87.4-249.7,34.4c-5.8-3.7-15.5-10.7-19.6-14.5c-12.4-11.6-23-21.3-33.1-36.5
			C1421.4,945.2,1401.5,905,1402.9,865.8L1402.9,865.8z"/>
	</g>
	<path class="st4" d="M106.2,467.8H128V144.9l150.6,213h1.5l150.1-213v322.9h22.8V105.6h-21.3L279.6,323L127.5,105.6h-21.3V467.8z
		 M737.1,473.8c112.1,0,185.6-88.1,185.6-187.1v-1c0-98.5-73-186.1-185.1-186.1c-111.6,0-185.1,88.1-185.1,187.1v1
		C552.5,386.2,625.5,473.8,737.1,473.8L737.1,473.8z M738.1,453.9c-95.4,0-162.3-77.1-162.3-167.2v-1c0-90.6,66.4-166.2,161.3-166.2
		c94.8,0,161.8,77.1,161.8,167.2v1C898.9,378.2,833.5,453.9,738.1,453.9z M1022.2,467.8h22.8V295.6h244.5v172.2h22.8V105.6h-22.8
		v169.7H1045V105.6h-22.8L1022.2,467.8L1022.2,467.8z M2016.2,103.1h-20.3l-168.9,364.5h23.8l155.2-336.6l155.2,336.8h25.4
		L2016.2,103.1L2016.2,103.1z M2574.6,467.8V105.6h-20.8l-261.7,323.9V105.6h-22.8v362.2h17.2l265.8-328.4v328.4L2574.6,467.8
		L2574.6,467.8z M2788.2,467.8h22.3V126h130.3v-20.4h-283V126h130.3V467.8z"/>
	<path class="st3" d="M1431.6,388.5c0.1-34.8,15.3-59.9,34-78.1c2.5-2.5,3.9-4.1,6.5-6.6l4.3-31.7c35.2-30.2,73.8-51.5,116.3-73.1
		c9.3-4.7,40.8-19.9,49.6-22.8l0.5-38.3c-19.7,5.9-64.4,30-84.6,40.1c-32.8,16.5-60.6,34.8-86.4,55.4
		c-14.3,11.4-13.2,12.3-24.4,22.9C1409.8,291.6,1396.1,349,1431.6,388.5L1431.6,388.5z"/>
	<path class="st3" d="M1515.4,463.8c-5.4-12.8-18.9-26.8-8-54.3c5.4-13.6,13-22.1,22.2-30.5c11.3-10.3,15.8-15.1,29.6-24.3l44-26.9
		c5.8-3.5,17.1-10,23-12.2l1.1-65.5c-13.3,4.3-31.8,14-51,25.6l-1.9,22.1c-21.5,13.5-42.3,23.9-56.4,34.8
		c-11.6,9-27.2,25.1-37.3,42.9c-1.5,2.6-11.5-7.1-12.8-4.3c-5.1,11.6-7.5,24.1-4.8,36.7C1468.4,432.3,1494.8,455.8,1515.4,463.8z"/>
	<path class="st3" d="M1598,481.9c-4.8-3.8-9.9-5.3-13-12.3c-7.9-17.9,19.7-31.7,32.4-38.9c21.7-12.4,45.5-19.8,69.9-29.9l17.6-77
		c-8,2.3-26,11.1-33.4,14.9c-2.4,1.2-4.8,2.4-7.2,3.6c-8.6,4.1-17,7.8-25.5,12.3c-21.3,11.1-72.1,39.5-88.5,58.5
		c-2.3,2.6-2.9,4-5,6.8C1511.8,464.1,1566.7,482.2,1598,481.9L1598,481.9z"/>
	<path class="st5" d="M1403.2,277.1c46.7-91.3,108.7-172.1,223.7-149.9c92.7,16,162.9,153.1,95.2,274c-30.7,44.7-33.5,41.8-83,75.5
		c32-3.7,74.9-31.7,89.7-48.3c7.2-8,8.2-7.4,16.6-17.6c6-7.2,9.9-12.3,14.9-20.6c46-75.9,38-166.2-19.5-233.9
		c-60.6-71.4-167.2-87.4-249.7-34.4c-5.8,3.7-15.5,10.7-19.6,14.5c-12.4,11.6-23,21.3-33.1,36.5
		C1421.7,197.7,1401.8,237.9,1403.2,277.1L1403.2,277.1z"/>
</g>
</svg>
