<svg xmlns="http://www.w3.org/2000/svg" stroke='none' viewBox="0 0 475.083 402">
  <path d="M365.446 365.455c0 10.092 3.579 18.702 10.71 25.834 7.133 7.139 15.75 10.711 25.846 10.711 10.08 0 18.698-3.572 25.83-10.711 7.139-7.132 10.71-15.742 10.71-25.834 0-10.092-3.567-18.702-10.71-25.841-7.132-7.132-15.75-10.704-25.83-10.704-10.096 0-18.713 3.572-25.845 10.704-7.132 7.139-10.711 15.749-10.711 25.841zM469.658 41.967c-3.618-3.617-7.899-5.426-12.849-5.426H113.918c-.192-1.331-.62-3.756-1.286-7.277-.666-3.523-1.188-6.329-1.57-8.425-.382-2.087-1.092-4.611-2.141-7.561-1.047-2.952-2.284-5.286-3.711-6.995-1.425-1.718-3.328-3.189-5.708-4.43C97.123.62 94.409 0 91.365 0h-73.09c-4.951 0-9.233 1.812-12.85 5.424C1.81 9.04 0 13.325 0 18.273s1.809 9.231 5.426 12.847c3.619 3.617 7.902 5.424 12.85 5.424h58.237l50.532 234.976c-.378.76-2.33 4.373-5.852 10.848-3.521 6.475-6.328 12.135-8.42 16.988-2.093 4.859-3.14 8.616-3.14 11.279 0 4.948 1.809 9.232 5.424 12.854 3.62 3.606 7.902 5.421 12.85 5.421h292.348c4.949 0 9.233-1.814 12.848-5.421 3.62-3.621 5.427-7.905 5.427-12.854 0-4.949-1.807-9.233-5.427-12.847-3.614-3.614-7.898-5.428-12.847-5.428h-262.66c4.57-9.138 6.854-15.222 6.854-18.268 0-1.909-.238-4.004-.715-6.283a259.133 259.133 0 0 0-1.713-7.569c-.667-2.752-1.093-4.799-1.283-6.133l298.077-34.831c4.753-.575 8.658-2.614 11.703-6.14 3.046-3.518 4.565-7.562 4.565-12.133V54.82c-.002-4.948-1.806-9.231-5.426-12.853zM109.632 365.455c0 10.092 3.566 18.702 10.705 25.834C127.48 398.428 136.088 402 146.18 402c10.085 0 18.699-3.572 25.835-10.711 7.139-7.132 10.71-15.742 10.71-25.834 0-10.092-3.568-18.702-10.71-25.841-7.137-7.132-15.75-10.704-25.835-10.704-10.09 0-18.704 3.572-25.841 10.704-7.135 7.139-10.706 15.749-10.706 25.841z"></path>
</svg>