<?xml version="1.0" encoding="utf-8"?>
<!-- Generator: Adobe Illustrator 21.0.2, SVG Export Plug-In . SVG Version: 6.00 Build 0)  -->
<svg version="1.1" id="Layer_1" xmlns="http://www.w3.org/2000/svg" xmlns:xlink="http://www.w3.org/1999/xlink" x="0px" y="0px"
	 width="242.4px" height="59.9px" viewBox="0 0 242.4 59.9" style="enable-background:new 0 0 242.4 59.9;" xml:space="preserve">
<style type="text/css">
	.st0{fill:#192952;}
	.st1{fill:#232321;}
	.st2{fill:#EEC338;}
	.st3{fill:#FFFFFF;}
</style>
<g>
	<g>
		<path class="st0" d="M112.5,16.6c0,0.6-0.1,1.2-0.2,1.8c-0.1,0.6-0.3,1.2-0.6,1.7c-0.3,0.5-0.7,1-1.1,1.4c-0.5,0.4-1,0.7-1.7,0.9
			v0.2c0.6,0.1,1.1,0.4,1.6,0.6c0.5,0.3,1,0.7,1.3,1.2c0.4,0.5,0.7,1.1,0.9,1.8s0.3,1.5,0.3,2.5c0,1.3-0.2,2.4-0.7,3.3
			c-0.4,0.9-1,1.7-1.8,2.3c-0.7,0.6-1.6,1-2.6,1.3c-1,0.3-2.1,0.4-3.2,0.4c-0.3,0-0.8,0-1.3,0c-0.5,0-1.1,0-1.7-0.1
			c-0.6,0-1.2-0.1-1.9-0.2s-1.2-0.2-1.8-0.3V11c0.8-0.1,1.8-0.3,2.9-0.4c1.2-0.1,2.3-0.2,3.4-0.2c1,0,2.1,0.1,3,0.3s1.8,0.5,2.5,0.9
			c0.7,0.5,1.3,1.1,1.7,1.9C112.3,14.3,112.5,15.3,112.5,16.6z M103.7,21.4c0.3,0,0.6,0,0.9-0.1s0.6-0.1,0.8-0.1
			c0.7-0.3,1.3-0.7,1.8-1.3c0.5-0.6,0.7-1.4,0.7-2.3c0-0.6-0.1-1.1-0.3-1.6c-0.2-0.4-0.4-0.8-0.7-1c-0.3-0.2-0.6-0.4-1-0.5
			s-0.8-0.2-1.3-0.2c-1,0-1.7,0-2.1,0.1v6.9H103.7z M105,32.3c1,0,1.8-0.3,2.5-1c0.6-0.6,1-1.6,1-2.8c0-0.8-0.1-1.4-0.3-1.9
			c-0.2-0.5-0.5-0.8-0.9-1.1c-0.4-0.2-0.8-0.4-1.2-0.5c-0.5-0.1-0.9-0.1-1.4-0.1h-1.8V32c0.2,0.1,0.5,0.1,1,0.2S104.6,32.3,105,32.3
			z"/>
		<path class="st0" d="M126.9,34.8c-0.6,0.5-1.3,0.8-2.1,1.1c-0.8,0.2-1.7,0.4-2.5,0.4c-1.2,0-2.2-0.2-3.1-0.7
			c-0.8-0.4-1.5-1.1-2-1.9c-0.5-0.8-0.9-1.8-1.1-3c-0.2-1.2-0.3-2.4-0.3-3.9c0-3.1,0.6-5.5,1.7-7c1.1-1.6,2.8-2.4,4.9-2.4
			c1.1,0,1.9,0.1,2.6,0.3c0.7,0.2,1.3,0.4,1.8,0.7l-1,3.5c-0.4-0.2-0.8-0.4-1.2-0.5s-0.9-0.2-1.4-0.2c-1,0-1.7,0.4-2.2,1.3
			c-0.5,0.9-0.7,2.3-0.7,4.2c0,1.6,0.3,2.9,0.8,4c0.5,1,1.3,1.5,2.4,1.5c0.6,0,1.1-0.1,1.5-0.2c0.4-0.2,0.8-0.4,1.2-0.6L126.9,34.8z
			"/>
		<path class="st0" d="M141.1,34.5c-0.6,0.5-1.4,1-2.4,1.3s-2.1,0.5-3.2,0.5c-1.2,0-2.3-0.2-3.2-0.6c-0.9-0.4-1.6-1-2.2-1.9
			c-0.6-0.8-1-1.8-1.3-2.9c-0.3-1.2-0.4-2.5-0.4-3.9c0-3.2,0.6-5.6,1.9-7.1s3-2.3,5.3-2.3c0.8,0,1.5,0.1,2.2,0.3
			c0.7,0.2,1.3,0.6,1.9,1.1c0.6,0.5,1,1.2,1.4,2.1s0.5,2,0.5,3.4c0,0.5,0,1.1-0.1,1.7c-0.1,0.6-0.2,1.2-0.3,1.9h-8.7
			c0,1.5,0.4,2.6,0.9,3.4c0.6,0.8,1.5,1.2,2.8,1.2c0.8,0,1.5-0.1,2.1-0.4s1.1-0.5,1.5-0.7L141.1,34.5z M135.5,21.1
			c-0.9,0-1.6,0.4-2.1,1.1c-0.5,0.7-0.7,1.7-0.8,3.1h5c0.1-1.4-0.1-2.4-0.4-3.1C136.9,21.4,136.3,21.1,135.5,21.1z"/>
		<path class="st0" d="M160.2,15h-5.9v20.8h-4.5V15h-5.9v-4.1h16.3V15z"/>
		<path class="st0" d="M158.3,26.9c0-3.2,0.6-5.5,1.9-7.1c1.2-1.5,3-2.3,5.2-2.3c2.4,0,4.2,0.8,5.3,2.4c1.2,1.6,1.7,3.9,1.7,7
			c0,3.2-0.6,5.5-1.9,7.1c-1.2,1.5-3,2.3-5.2,2.3C160.6,36.3,158.3,33.1,158.3,26.9z M162.7,26.9c0,1.8,0.2,3.2,0.6,4.1
			c0.4,1,1.1,1.5,2,1.5c0.9,0,1.6-0.4,2-1.3c0.4-0.8,0.7-2.3,0.7-4.3c0-1.8-0.2-3.2-0.6-4.2c-0.4-1-1.1-1.4-2.1-1.4
			c-0.8,0-1.5,0.4-1.9,1.3C162.9,23.4,162.7,24.8,162.7,26.9z"/>
		<path class="st0" d="M175.5,18c0.7-0.1,1.5-0.1,2.6-0.2c1-0.1,2.1-0.1,3.2-0.1c2.2,0,3.8,0.4,4.7,1.1s1.4,1.9,1.4,3.4
			c0,0.9-0.2,1.7-0.6,2.4c-0.4,0.8-1,1.3-1.9,1.7v0.1c2,0.5,3,2,3,4.3c0,1.8-0.6,3.1-1.7,4c-1.1,0.9-3,1.3-5.6,1.3
			c-0.8,0-1.7,0-2.7-0.1c-1,0-1.8-0.1-2.5-0.2V18z M181.4,25.2c0.6,0,1.1-0.2,1.4-0.5s0.6-0.8,0.6-1.4c0-0.7-0.2-1.2-0.5-1.5
			c-0.3-0.3-0.9-0.5-1.7-0.5c-0.4,0-0.7,0-1,0c-0.2,0-0.5,0-0.7,0.1v3.8H181.4z M179.6,32.3c0.2,0,0.5,0.1,0.7,0.1
			c0.2,0,0.5,0,0.8,0c0.9,0,1.6-0.2,2-0.5c0.4-0.4,0.6-0.9,0.6-1.7c0-0.6-0.2-1.1-0.5-1.5c-0.4-0.4-1-0.6-1.9-0.6h-1.8V32.3z"/>
		<path class="st0" d="M191.2,19c0.7-0.4,1.6-0.8,2.7-1s2.3-0.4,3.6-0.4c2,0,3.4,0.5,4.2,1.6c0.8,1,1.2,2.5,1.2,4.5
			c0,1.1,0,2.2-0.1,3.3c-0.1,1.1-0.1,2.1-0.1,3.2c0,1,0,2,0.1,3c0.1,1,0.2,1.9,0.5,2.7h-3.5l-0.7-2.2H199c-0.4,0.7-0.9,1.3-1.6,1.7
			c-0.7,0.5-1.6,0.7-2.6,0.7c-1.4,0-2.5-0.5-3.3-1.4c-0.8-0.9-1.2-2.2-1.2-3.8c0-2.1,0.8-3.7,2.3-4.6c1.5-0.9,3.6-1.3,6.2-1.1
			c0.1-1.4,0-2.4-0.3-3c-0.3-0.6-0.9-0.9-1.9-0.9c-0.7,0-1.5,0.1-2.2,0.2c-0.8,0.2-1.4,0.4-2,0.7L191.2,19z M196.3,32.4
			c0.6,0,1.2-0.2,1.6-0.5c0.4-0.3,0.7-0.7,0.9-1.1v-3c-0.5-0.1-1.1-0.1-1.6,0c-0.5,0-0.9,0.2-1.3,0.3c-0.4,0.2-0.7,0.4-0.9,0.7
			c-0.2,0.3-0.3,0.7-0.3,1.2c0,0.7,0.1,1.3,0.4,1.7C195.4,32.2,195.8,32.4,196.3,32.4z"/>
		<path class="st0" d="M206.6,17.9h3.2l0.4,2h0.1c0.5-0.9,1.2-1.5,1.8-1.9c0.7-0.4,1.5-0.6,2.5-0.6c1.8,0,3.2,0.7,4.1,2.1
			c0.9,1.4,1.4,3.6,1.4,6.8c0,3.2-0.6,5.6-1.7,7.3c-1.1,1.7-2.8,2.6-5,2.6c-0.6,0-1.1,0-1.5-0.1c-0.4-0.1-0.8-0.3-1.1-0.5v7.2h-4.2
			V17.9z M210.9,31.8c0.2,0.2,0.5,0.4,0.8,0.5c0.3,0.1,0.7,0.2,1.2,0.2c1,0,1.7-0.5,2.2-1.4c0.5-0.9,0.8-2.5,0.8-4.8
			c0-1.7-0.2-2.9-0.6-3.8c-0.4-0.8-1-1.2-1.9-1.2c-1.2,0-2,0.7-2.4,2.1V31.8z"/>
		<path class="st0" d="M227.5,24.3c0.5-0.1,1-0.2,1.5-0.2c0.5,0,1-0.1,1.4-0.1c1,0,1.8,0.1,2.5,0.4c0.7,0.3,1.2,0.7,1.6,1.2
			c0.4,0.5,0.7,1.1,0.9,1.8s0.3,1.4,0.3,2.2c0,1.1-0.1,2-0.4,2.8c-0.2,0.8-0.6,1.5-1.2,2c-0.5,0.5-1.3,0.9-2.1,1.2
			c-0.9,0.3-2,0.4-3.3,0.4c-1.1,0-2.1,0-3-0.1c-0.9,0-1.6-0.1-2.3-0.2V17.9h4.2V24.3z M227.5,32c0.5,0.1,1,0.2,1.5,0.2
			c0.8,0,1.3-0.2,1.6-0.6c0.3-0.4,0.5-1,0.5-1.9c0-0.8-0.2-1.5-0.5-1.9c-0.3-0.4-0.8-0.6-1.6-0.6c-0.5,0-1.1,0.1-1.6,0.2V32z
			 M237.1,17.9h4.2v17.8h-4.2V17.9z"/>
	</g>
	<g>
		<g>
			<path class="st1" d="M99,53.3c-0.1-0.1-0.2-0.3-0.2-0.4c0-0.2,0.1-0.3,0.2-0.4c0.1-0.1,0.3-0.2,0.4-0.2s0.3,0.1,0.4,0.2
				c0.1,0.1,0.2,0.3,0.2,0.4c0,0.2-0.1,0.3-0.2,0.4c-0.1,0.1-0.3,0.2-0.4,0.2S99.1,53.4,99,53.3z"/>
			<path class="st1" d="M112.2,53H106c0,0.6,0.1,1.2,0.4,1.7c0.3,0.5,0.7,0.9,1.1,1.2c0.5,0.3,1,0.4,1.6,0.4c0.5,0,0.9-0.1,1.3-0.3
				c0.4-0.2,0.8-0.4,1-0.8l0.2,0.2c-0.3,0.4-0.7,0.6-1.1,0.8c-0.4,0.2-0.9,0.3-1.4,0.3c-0.7,0-1.3-0.1-1.8-0.4s-0.9-0.7-1.2-1.3
				c-0.3-0.5-0.4-1.1-0.4-1.8c0-0.7,0.1-1.3,0.4-1.8s0.7-0.9,1.1-1.2c0.5-0.3,1-0.4,1.6-0.4c0.6,0,1.1,0.1,1.6,0.4s0.9,0.7,1.2,1.2
				C112,51.7,112.2,52.3,112.2,53L112.2,53z M107.5,50.1c-0.4,0.3-0.8,0.6-1.1,1.1s-0.4,1-0.4,1.5h5.9c0-0.6-0.2-1.1-0.4-1.5
				s-0.6-0.8-1.1-1.1s-0.9-0.4-1.5-0.4S107.9,49.9,107.5,50.1z"/>
			<path class="st1" d="M114.2,52.8h3.3V53h-3.3V52.8z"/>
			<path class="st1" d="M121.1,56c-0.5-0.3-0.9-0.7-1.2-1.2s-0.4-1.1-0.4-1.8s0.1-1.3,0.4-1.8s0.7-0.9,1.2-1.2
				c0.5-0.3,1.1-0.4,1.8-0.4c0.5,0,1,0.1,1.4,0.3c0.4,0.2,0.8,0.5,1.1,0.8l-0.2,0.2c-0.3-0.4-0.6-0.6-1-0.8
				c-0.4-0.2-0.8-0.3-1.3-0.3c-0.6,0-1.1,0.1-1.6,0.4s-0.8,0.7-1.1,1.2c-0.3,0.5-0.4,1.1-0.4,1.7c0,0.6,0.1,1.2,0.4,1.7
				c0.3,0.5,0.6,0.9,1.1,1.2c0.5,0.3,1,0.4,1.6,0.4c0.5,0,0.9-0.1,1.3-0.3c0.4-0.2,0.7-0.4,1-0.8l0.2,0.2c-0.3,0.4-0.6,0.6-1.1,0.8
				c-0.4,0.2-0.9,0.3-1.4,0.3C122.2,56.5,121.7,56.3,121.1,56z"/>
			<path class="st1" d="M128.6,56c-0.5-0.3-0.9-0.7-1.2-1.3s-0.4-1.1-0.4-1.8c0-0.7,0.1-1.3,0.4-1.8s0.7-0.9,1.2-1.2
				c0.5-0.3,1.1-0.4,1.7-0.4c0.6,0,1.2,0.1,1.7,0.4c0.5,0.3,0.9,0.7,1.2,1.2c0.3,0.5,0.4,1.1,0.4,1.8c0,0.7-0.1,1.3-0.4,1.8
				c-0.3,0.5-0.7,1-1.2,1.3c-0.5,0.3-1.1,0.4-1.7,0.4C129.6,56.5,129.1,56.3,128.6,56z M131.9,55.8c0.5-0.3,0.8-0.7,1.1-1.2
				s0.4-1.1,0.4-1.7s-0.1-1.2-0.4-1.7c-0.3-0.5-0.6-0.9-1.1-1.2c-0.5-0.3-1-0.4-1.6-0.4s-1.1,0.1-1.6,0.4s-0.8,0.7-1.1,1.2
				c-0.3,0.5-0.4,1.1-0.4,1.7s0.1,1.2,0.4,1.7s0.6,0.9,1.1,1.2c0.5,0.3,1,0.4,1.6,0.4S131.4,56.1,131.9,55.8z"/>
			<path class="st1" d="M146.7,50.2c0.5,0.5,0.7,1.2,0.7,2.1v4.1h-0.3v-4.1c0-0.8-0.2-1.5-0.6-1.9c-0.4-0.5-1-0.7-1.8-0.7
				c-0.9,0-1.6,0.3-2.1,0.8c-0.5,0.5-0.8,1.3-0.8,2.1v3.8h-0.3v-4.1c0-0.8-0.2-1.5-0.6-1.9c-0.4-0.5-1-0.7-1.8-0.7
				c-0.9,0-1.6,0.3-2.1,0.8c-0.5,0.5-0.8,1.3-0.8,2.1v3.8h-0.3v-6.9h0.3v1.8c0.2-0.6,0.6-1,1-1.4c0.5-0.3,1.1-0.5,1.8-0.5
				c0.7,0,1.3,0.2,1.7,0.5s0.7,0.9,0.9,1.5c0.2-0.6,0.5-1.1,1-1.5s1.1-0.6,1.9-0.6C145.6,49.5,146.3,49.7,146.7,50.2z"/>
			<path class="st1" d="M161.3,50.2c0.5,0.5,0.7,1.2,0.7,2.1v4.1h-0.3v-4.1c0-0.8-0.2-1.5-0.6-1.9c-0.4-0.5-1-0.7-1.8-0.7
				c-0.9,0-1.6,0.3-2.1,0.8c-0.5,0.5-0.8,1.3-0.8,2.1v3.8h-0.3v-4.1c0-0.8-0.2-1.5-0.6-1.9c-0.4-0.5-1-0.7-1.8-0.7
				c-0.9,0-1.6,0.3-2.1,0.8c-0.5,0.5-0.8,1.3-0.8,2.1v3.8h-0.3v-6.9h0.3v1.8c0.2-0.6,0.6-1,1-1.4c0.5-0.3,1.1-0.5,1.8-0.5
				c0.7,0,1.3,0.2,1.7,0.5s0.7,0.9,0.9,1.5c0.2-0.6,0.5-1.1,1-1.5s1.1-0.6,1.9-0.6C160.2,49.5,160.8,49.7,161.3,50.2z"/>
			<path class="st1" d="M170.9,53h-6.2c0,0.6,0.1,1.2,0.4,1.7s0.7,0.9,1.1,1.2c0.5,0.3,1,0.4,1.6,0.4c0.5,0,0.9-0.1,1.3-0.3
				s0.8-0.4,1-0.8l0.2,0.2c-0.3,0.4-0.7,0.6-1.1,0.8c-0.4,0.2-0.9,0.3-1.4,0.3c-0.7,0-1.3-0.1-1.8-0.4c-0.5-0.3-0.9-0.7-1.2-1.3
				s-0.4-1.1-0.4-1.8c0-0.7,0.1-1.3,0.4-1.8c0.3-0.5,0.7-0.9,1.1-1.2c0.5-0.3,1-0.4,1.6-0.4c0.6,0,1.1,0.1,1.6,0.4s0.9,0.7,1.2,1.2
				C170.7,51.7,170.9,52.3,170.9,53L170.9,53z M166.2,50.1c-0.4,0.3-0.8,0.6-1,1.1c-0.3,0.5-0.4,1-0.4,1.5h5.9
				c0-0.6-0.2-1.1-0.4-1.5s-0.6-0.8-1.1-1.1c-0.4-0.3-0.9-0.4-1.5-0.4C167.1,49.8,166.6,49.9,166.2,50.1z"/>
			<path class="st1" d="M174.7,50c0.5-0.3,1-0.5,1.7-0.5v0.3h-0.1c-0.8,0-1.5,0.3-1.9,0.8s-0.7,1.3-0.7,2.2v3.7h-0.3v-6.9h0.3v1.8
				C173.9,50.7,174.2,50.3,174.7,50z"/>
			<path class="st1" d="M179.4,56c-0.5-0.3-0.9-0.7-1.2-1.2s-0.4-1.1-0.4-1.8s0.1-1.3,0.4-1.8s0.7-0.9,1.2-1.2s1.1-0.4,1.8-0.4
				c0.5,0,1,0.1,1.4,0.3c0.4,0.2,0.8,0.5,1.1,0.8l-0.2,0.2c-0.3-0.4-0.6-0.6-1-0.8c-0.4-0.2-0.8-0.3-1.3-0.3c-0.6,0-1.1,0.1-1.6,0.4
				s-0.8,0.7-1.1,1.2c-0.3,0.5-0.4,1.1-0.4,1.7c0,0.6,0.1,1.2,0.4,1.7c0.3,0.5,0.6,0.9,1.1,1.2c0.5,0.3,1,0.4,1.6,0.4
				c0.5,0,0.9-0.1,1.3-0.3c0.4-0.2,0.7-0.4,1-0.8l0.2,0.2c-0.3,0.4-0.6,0.6-1.1,0.8c-0.4,0.2-0.9,0.3-1.4,0.3
				C180.5,56.5,179.9,56.3,179.4,56z"/>
			<path class="st1" d="M191.6,53h-6.2c0,0.6,0.1,1.2,0.4,1.7s0.7,0.9,1.1,1.2c0.5,0.3,1,0.4,1.6,0.4c0.5,0,0.9-0.1,1.3-0.3
				s0.8-0.4,1-0.8l0.2,0.2c-0.3,0.4-0.7,0.6-1.1,0.8c-0.4,0.2-0.9,0.3-1.4,0.3c-0.7,0-1.3-0.1-1.8-0.4c-0.5-0.3-0.9-0.7-1.2-1.3
				s-0.4-1.1-0.4-1.8c0-0.7,0.1-1.3,0.4-1.8c0.3-0.5,0.7-0.9,1.1-1.2c0.5-0.3,1-0.4,1.6-0.4c0.6,0,1.1,0.1,1.6,0.4s0.9,0.7,1.2,1.2
				C191.5,51.7,191.6,52.3,191.6,53L191.6,53z M186.9,50.1c-0.4,0.3-0.8,0.6-1,1.1c-0.3,0.5-0.4,1-0.4,1.5h5.9
				c0-0.6-0.2-1.1-0.4-1.5s-0.6-0.8-1.1-1.1c-0.4-0.3-0.9-0.4-1.5-0.4C187.9,49.8,187.4,49.9,186.9,50.1z"/>
			<path class="st1" d="M198.6,56c-0.5-0.3-0.9-0.7-1.2-1.3s-0.4-1.1-0.4-1.8c0-0.7,0.1-1.3,0.4-1.8s0.7-0.9,1.2-1.2
				c0.5-0.3,1.1-0.4,1.7-0.4c0.6,0,1.2,0.1,1.7,0.4c0.5,0.3,0.9,0.7,1.2,1.2c0.3,0.5,0.4,1.1,0.4,1.8c0,0.7-0.1,1.3-0.4,1.8
				c-0.3,0.5-0.7,1-1.2,1.3c-0.5,0.3-1.1,0.4-1.7,0.4C199.7,56.5,199.1,56.3,198.6,56z M201.9,55.8c0.5-0.3,0.8-0.7,1.1-1.2
				s0.4-1.1,0.4-1.7s-0.1-1.2-0.4-1.7c-0.3-0.5-0.6-0.9-1.1-1.2c-0.5-0.3-1-0.4-1.6-0.4s-1.1,0.1-1.6,0.4s-0.8,0.7-1.1,1.2
				c-0.3,0.5-0.4,1.1-0.4,1.7s0.1,1.2,0.4,1.7s0.6,0.9,1.1,1.2c0.5,0.3,1,0.4,1.6,0.4S201.4,56.1,201.9,55.8z"/>
			<path class="st1" d="M212,49.5v6.9h-0.3v-1.8c-0.2,0.6-0.5,1-1,1.4c-0.5,0.3-1.1,0.5-1.8,0.5c-0.9,0-1.6-0.2-2.1-0.7
				c-0.5-0.5-0.8-1.2-0.8-2.1v-4.1h0.3v4.1c0,0.8,0.2,1.5,0.7,1.9c0.4,0.5,1.1,0.7,1.9,0.7c0.9,0,1.5-0.3,2-0.8
				c0.5-0.5,0.7-1.3,0.7-2.1v-3.8H212z"/>
			<path class="st1" d="M218.5,56c-0.2,0.2-0.4,0.3-0.6,0.4s-0.5,0.1-0.8,0.1c-0.5,0-0.9-0.2-1.2-0.5c-0.3-0.3-0.4-0.7-0.4-1.2v-5
				h-1.3v-0.3h1.3V48h0.3v1.5h2.3v0.3h-2.3v4.9c0,0.5,0.1,0.9,0.4,1.1c0.2,0.3,0.6,0.4,1.1,0.4s0.8-0.1,1.2-0.4L218.5,56z"/>
			<path class="st1" d="M220.8,46.5h0.3v9.9h-0.3V46.5z"/>
			<path class="st1" d="M230,53h-6.2c0,0.6,0.1,1.2,0.4,1.7s0.7,0.9,1.1,1.2c0.5,0.3,1,0.4,1.6,0.4c0.5,0,0.9-0.1,1.3-0.3
				s0.8-0.4,1-0.8l0.2,0.2c-0.3,0.4-0.7,0.6-1.1,0.8c-0.4,0.2-0.9,0.3-1.4,0.3c-0.7,0-1.3-0.1-1.8-0.4c-0.5-0.3-0.9-0.7-1.2-1.3
				s-0.4-1.1-0.4-1.8c0-0.7,0.1-1.3,0.4-1.8c0.3-0.5,0.7-0.9,1.1-1.2c0.5-0.3,1-0.4,1.6-0.4c0.6,0,1.1,0.1,1.6,0.4s0.9,0.7,1.2,1.2
				C229.9,51.7,230,52.3,230,53L230,53z M225.3,50.1c-0.4,0.3-0.8,0.6-1,1.1c-0.3,0.5-0.4,1-0.4,1.5h5.9c0-0.6-0.2-1.1-0.4-1.5
				s-0.6-0.8-1.1-1.1c-0.4-0.3-0.9-0.4-1.5-0.4C226.3,49.8,225.8,49.9,225.3,50.1z"/>
			<path class="st1" d="M235.7,56c-0.2,0.2-0.4,0.3-0.6,0.4s-0.5,0.1-0.8,0.1c-0.5,0-0.9-0.2-1.2-0.5c-0.3-0.3-0.4-0.7-0.4-1.2v-5
				h-1.3v-0.3h1.3V48h0.3v1.5h2.3v0.3h-2.3v4.9c0,0.5,0.1,0.9,0.4,1.1c0.2,0.3,0.6,0.4,1.1,0.4s0.8-0.1,1.2-0.4L235.7,56z"/>
			<path class="st1" d="M241.4,53.3c-0.1-0.1-0.2-0.3-0.2-0.4c0-0.2,0.1-0.3,0.2-0.4c0.1-0.1,0.3-0.2,0.4-0.2c0.2,0,0.3,0.1,0.4,0.2
				c0.1,0.1,0.2,0.3,0.2,0.4c0,0.2-0.1,0.3-0.2,0.4c-0.1,0.1-0.3,0.2-0.4,0.2C241.6,53.4,241.5,53.4,241.4,53.3z"/>
		</g>
	</g>
	<polygon class="st2" points="12,4.6 0,24.2 34.6,22.6 44.1,0 	"/>
	<polygon class="st2" points="45.6,0.2 54.9,22.8 89.3,25.1 77.7,4.3 	"/>
	<polygon class="st2" points="76.1,26.9 76.1,47.1 46.3,55.7 46.3,11.6 42.7,11.6 42.7,55.5 14,47.1 14.2,28.4 10.6,28.7 10.4,49.8 
		44.9,59.9 79.7,49.8 79.7,27.2 	"/>
</g>
</svg>
