<?xml version="1.0" encoding="utf-8"?>
<!-- Generator: Adobe Illustrator 24.0.3, SVG Export Plug-In . SVG Version: 6.00 Build 0)  -->
<svg version="1.1" id="Layer_1" xmlns="http://www.w3.org/2000/svg" xmlns:xlink="http://www.w3.org/1999/xlink" x="0px" y="0px"
	 viewBox="0 0 260.2 59.9" style="enable-background:new 0 0 260.2 59.9;" xml:space="preserve">
<style type="text/css">
	.st0{fill:#fff;}
	.st1{font-family:'PTSans-Bold';}
	.st2{font-size:35.68px;}
	.st3{letter-spacing:-3;}
	.st4{fill:#fff;}
	.st5{font-family:'Montserrat-Thin';}
	.st6{font-size:13.38px;}
	.st7{fill:#fff;}
</style>
<title>logo_VT</title>
<text transform="matrix(1 0 0 1 96.61 35.79)" class="st0 st1 st2">В</text>
<text transform="matrix(1 0 0 1 114.81 35.79)" class="st0 st1 st2">с</text>
<text transform="matrix(1 0 0 1 127.55 35.79)" class="st0 st1 st2">е</text>
<text transform="matrix(1 0 0 1 143.53 35.79)" class="st0 st1 st2 st3">Т</text>
<text transform="matrix(1 0 0 1 157.41 35.79)" class="st0 st1 st2">овары</text>
<text transform="matrix(1 0 0 1 97.7 56.45)" class="st4 st5 st6">• </text>
<text transform="matrix(1 0 0 1 105.03 56.45)" class="st4 st5 st6">e-</text>
<text transform="matrix(1 0 0 1 118.77 56.45)" class="st4 st5 st6">c</text>
<text transform="matrix(1 0 0 1 126.2 56.45)" class="st4 st5 st6">omme</text>
<text transform="matrix(1 0 0 1 171.87 56.45)" class="st4 st5 st6">r</text>
<text transform="matrix(1 0 0 1 177.06 56.45)" class="st4 st5 st6">c</text>
<text transform="matrix(1 0 0 1 184.48 56.45)" class="st4 st5 st6">e outlet •</text>
<polygon class="st7" points="12,4.6 0,24.2 34.6,22.6 44.1,0 "/>
<polygon class="st7" points="45.6,0.2 54.9,22.8 89.3,25.1 77.7,4.4 "/>
<polygon class="st7" points="76.1,26.9 76.1,47.1 46.3,55.7 46.3,11.6 42.8,11.6 42.8,55.5 14,47.1 14.2,28.4 10.6,28.7 10.4,49.8 
	45,59.9 79.7,49.8 79.7,27.2 "/>
</svg>
