<svg width="20" height="20" viewBox="0 0 20 20" fill="none" xmlns="http://www.w3.org/2000/svg">
<path d="M10 0C4.47711 0 0 4.47711 0 10C0 15.5229 4.47711 20 10 20C15.5229 20 20 15.5229 20 10C20 4.47711 15.5229 0 10 0Z" fill="#40B3E0"/>
<path d="M14.8659 5.75235L13.0797 14.7577C13.0797 14.7577 12.8299 15.3823 12.143 15.0825L8.02127 11.9225L6.52252 11.1981L3.99955 10.3488C3.99955 10.3488 3.61236 10.2114 3.57486 9.91165C3.53736 9.61189 4.01205 9.44954 4.01205 9.44954L14.0414 5.51517C14.0414 5.51517 14.8658 5.15298 14.8658 5.75251" fill="white"/>
<path d="M7.70449 14.6566C7.70449 14.6566 7.58418 14.6454 7.43418 14.1707C7.28441 13.6961 6.52246 11.1981 6.52246 11.1981L12.5801 7.35121C12.5801 7.35121 12.9299 7.13887 12.9174 7.35121C12.9174 7.35121 12.9798 7.38871 12.7924 7.56355C12.6051 7.73848 8.03379 11.8476 8.03379 11.8476" fill="#D2E5F1"/>
<path d="M9.6017 13.1339L7.97146 14.6204C7.97146 14.6204 7.84396 14.7171 7.70459 14.6564L8.01678 11.8955" fill="#B5CFE4"/>
</svg>
