<svg width="100" height="100" viewBox="0 0 100 100" fill="none" xmlns="http://www.w3.org/2000/svg">
<circle cx="50" cy="50" r="50" fill="#FFB520"/>
<path d="M59.1679 26V35.9091C59.1679 36.4614 59.6156 36.9091 60.1679 36.9091H70M31 43.4545V27C31 26.4477 31.4477 26 32 26H62.0012C62.2677 26 62.5231 26.1063 62.7108 26.2954L69.7096 33.3439C69.8956 33.5312 70 33.7845 70 34.0485V73C70 73.5523 69.5523 74 69 74H32C31.4477 74 31 73.5523 31 73V43.4545Z" stroke="#7B5302" stroke-width="2"/>
<rect x="36" y="34" width="16" height="2" fill="#7B5302"/>
<rect x="36" y="39" width="16" height="2" fill="#7B5302"/>
<rect x="36" y="47" width="28" height="2" fill="#7B5302"/>
<rect x="36" y="52" width="28" height="2" fill="#7B5302"/>
<rect x="36" y="57" width="28" height="2" fill="#7B5302"/>
<rect x="36" y="62" width="28" height="2" fill="#7B5302"/>
<rect x="53" y="67" width="11" height="2" fill="#7B5302"/>
<circle cx="68" cy="69" r="10" fill="#FFB520"/>
<path d="M63 67.5L68.5 71.5L78 62" stroke="#7B5302" stroke-width="2" stroke-linecap="round"/>
</svg>
