<svg width="100" height="100" viewBox="0 0 100 100" fill="none" xmlns="http://www.w3.org/2000/svg">
<circle cx="50" cy="50" r="50" fill="#FFB520"/>
<path d="M31.8421 82H62.1579C63.7248 82 65 80.7171 65 79.1406V23.8594C65 22.2829 63.7248 21 62.1579 21H31.8421C30.2752 21 29 22.2829 29 23.8594V79.1406C29 80.7171 30.2752 82 31.8421 82ZM30.8947 23.8594C30.8947 23.6066 30.9945 23.3642 31.1722 23.1854C31.3499 23.0067 31.5908 22.9062 31.8421 22.9062H62.1579C62.4092 22.9062 62.6501 23.0067 62.8278 23.1854C63.0055 23.3642 63.1053 23.6066 63.1053 23.8594V79.1406C63.1053 79.3934 63.0055 79.6358 62.8278 79.8146C62.6501 79.9933 62.4092 80.0938 62.1579 80.0938H31.8421C31.5908 80.0938 31.3499 79.9933 31.1722 79.8146C30.9945 79.6358 30.8947 79.3934 30.8947 79.1406V23.8594Z" fill="#7B5302"/>
<path d="M33.7368 72.4688H60.2631C60.5144 72.4688 60.7554 72.3683 60.933 72.1896C61.1107 72.0108 61.2105 71.7684 61.2105 71.5156V31.4844C61.2105 31.2316 61.1107 30.9892 60.933 30.8104C60.7554 30.6317 60.5144 30.5312 60.2631 30.5312H33.7368C33.4856 30.5312 33.2446 30.6317 33.0669 30.8104C32.8893 30.9892 32.7895 31.2316 32.7895 31.4844V71.5156C32.7895 71.7684 32.8893 72.0108 33.0669 72.1896C33.2446 72.3683 33.4856 72.4688 33.7368 72.4688ZM34.6842 32.4375H59.3158V70.5625H34.6842V32.4375Z" fill="#7B5302"/>
<path d="M47.9474 78.1875C48.9938 78.1875 49.8421 77.334 49.8421 76.2812C49.8421 75.2285 48.9938 74.375 47.9474 74.375C46.9009 74.375 46.0526 75.2285 46.0526 76.2812C46.0526 77.334 46.9009 78.1875 47.9474 78.1875Z" fill="#7B5302"/>
<path d="M43.2105 28.625H50.7895C51.0407 28.625 51.2817 28.5246 51.4594 28.3458C51.637 28.1671 51.7368 27.9247 51.7368 27.6719C51.7368 27.4191 51.637 27.1767 51.4594 26.9979C51.2817 26.8192 51.0407 26.7188 50.7895 26.7188H43.2105C42.9593 26.7188 42.7183 26.8192 42.5406 26.9979C42.363 27.1767 42.2632 27.4191 42.2632 27.6719C42.2632 27.9247 42.363 28.1671 42.5406 28.3458C42.7183 28.5246 42.9593 28.625 43.2105 28.625Z" fill="#7B5302"/>
<g clip-path="url(#clip0)">
<path fill-rule="evenodd" clip-rule="evenodd" d="M76.4 19.8857H53.7714C53.2713 19.8857 52.7917 20.0844 52.438 20.438C52.0844 20.7917 51.8857 21.2713 51.8857 21.7714V43.6193L55.6571 39.8479C56.3643 39.1406 57.3234 38.7431 58.3235 38.7429H76.4C76.9001 38.7429 77.3798 38.5442 77.7334 38.1905C78.087 37.8369 78.2857 37.3573 78.2857 36.8571V21.7714C78.2857 21.2713 78.087 20.7917 77.7334 20.438C77.3798 20.0844 76.9001 19.8857 76.4 19.8857ZM53.7714 18C52.7712 18 51.8119 18.3973 51.1046 19.1046C50.3973 19.8119 50 20.7712 50 21.7714V45.8954C50 46.0819 50.0554 46.2643 50.1591 46.4194C50.2629 46.5744 50.4103 46.6953 50.5827 46.7665C50.7551 46.8378 50.9448 46.8563 51.1277 46.8197C51.3107 46.7831 51.4786 46.6931 51.6104 46.561L56.9903 41.1811C57.3439 40.8274 57.8235 40.6287 58.3235 40.6286H76.4C77.4002 40.6286 78.3595 40.2312 79.0668 39.5239C79.7741 38.8167 80.1714 37.8574 80.1714 36.8571V21.7714C80.1714 20.7712 79.7741 19.8119 79.0668 19.1046C78.3595 18.3973 77.4002 18 76.4 18H53.7714Z" fill="#FFB520"/>
<path d="M76.4 19.8857H53.7714C53.2713 19.8857 52.7917 20.0844 52.438 20.438C52.0844 20.7917 51.8857 21.2713 51.8857 21.7714V43.6193L55.6571 39.8479C56.3643 39.1406 57.3234 38.7431 58.3235 38.7429H76.4C76.9001 38.7429 77.3798 38.5442 77.7334 38.1905C78.087 37.8369 78.2857 37.3573 78.2857 36.8571V21.7714C78.2857 21.2713 78.087 20.7917 77.7334 20.438C77.3798 20.0844 76.9001 19.8857 76.4 19.8857Z" fill="#FFB520"/>
<path fill-rule="evenodd" clip-rule="evenodd" d="M76.4 19.8857H53.7714C53.2713 19.8857 52.7917 20.0844 52.438 20.438C52.0844 20.7917 51.8857 21.2713 51.8857 21.7714V43.6193L55.6571 39.8479C56.3643 39.1406 57.3234 38.7431 58.3235 38.7429H76.4C76.9001 38.7429 77.3798 38.5442 77.7334 38.1905C78.087 37.8369 78.2857 37.3573 78.2857 36.8571V21.7714C78.2857 21.2713 78.087 20.7917 77.7334 20.438C77.3798 20.0844 76.9001 19.8857 76.4 19.8857ZM53.7714 18C52.7712 18 51.8119 18.3973 51.1046 19.1046C50.3973 19.8119 50 20.7712 50 21.7714V45.8954C50 46.0819 50.0554 46.2643 50.1591 46.4194C50.2629 46.5744 50.4103 46.6953 50.5827 46.7665C50.7551 46.8378 50.9448 46.8563 51.1277 46.8197C51.3107 46.7831 51.4786 46.6931 51.6104 46.561L56.9903 41.1811C57.3439 40.8274 57.8235 40.6287 58.3235 40.6286H76.4C77.4002 40.6286 78.3595 40.2312 79.0668 39.5239C79.7741 38.8167 80.1714 37.8574 80.1714 36.8571V21.7714C80.1714 20.7712 79.7741 19.8119 79.0668 19.1046C78.3595 18.3973 77.4002 18 76.4 18H53.7714Z" fill="#7B5302"/>
<path d="M59.4286 29.3144C59.4286 29.8145 59.2299 30.2942 58.8763 30.6478C58.5226 31.0015 58.043 31.2001 57.5428 31.2001C57.0427 31.2001 56.5631 31.0015 56.2094 30.6478C55.8558 30.2942 55.6571 29.8145 55.6571 29.3144C55.6571 28.8143 55.8558 28.3347 56.2094 27.981C56.5631 27.6274 57.0427 27.4287 57.5428 27.4287C58.043 27.4287 58.5226 27.6274 58.8763 27.981C59.2299 28.3347 59.4286 28.8143 59.4286 29.3144ZM66.9714 29.3144C66.9714 29.8145 66.7727 30.2942 66.4191 30.6478C66.0655 31.0015 65.5858 31.2001 65.0857 31.2001C64.5856 31.2001 64.1059 31.0015 63.7523 30.6478C63.3987 30.2942 63.2 29.8145 63.2 29.3144C63.2 28.8143 63.3987 28.3347 63.7523 27.981C64.1059 27.6274 64.5856 27.4287 65.0857 27.4287C65.5858 27.4287 66.0655 27.6274 66.4191 27.981C66.7727 28.3347 66.9714 28.8143 66.9714 29.3144ZM74.5143 29.3144C74.5143 29.8145 74.3156 30.2942 73.962 30.6478C73.6083 31.0015 73.1287 31.2001 72.6286 31.2001C72.1284 31.2001 71.6488 31.0015 71.2952 30.6478C70.9415 30.2942 70.7428 29.8145 70.7428 29.3144C70.7428 28.8143 70.9415 28.3347 71.2952 27.981C71.6488 27.6274 72.1284 27.4287 72.6286 27.4287C73.1287 27.4287 73.6083 27.6274 73.962 27.981C74.3156 28.3347 74.5143 28.8143 74.5143 29.3144Z" fill="#7B5302"/>
</g>
<defs>
<clipPath id="clip0">
<rect width="30.1714" height="30.1714" fill="white" transform="translate(50 18)"/>
</clipPath>
</defs>
</svg>
