<svg width="100" height="100" viewBox="0 0 100 100" fill="none" xmlns="http://www.w3.org/2000/svg">
<circle cx="50" cy="50" r="50" fill="#FFB520"/>
<path d="M70.3838 61.7356C69.4281 61.0633 68.3253 60.7021 67.2113 60.6432C63.0126 57.8945 60.2621 55.8313 58.6564 54.226L53.7237 49.2947L56.717 45.9451C57.2843 46.2652 57.8936 46.4761 58.503 46.5631C58.9629 46.6397 59.2695 46.6397 59.5762 46.6397C60.1894 46.6397 60.3426 46.6397 60.9559 47.1761C60.6493 47.406 60.496 47.7892 60.496 48.1722C60.496 48.5553 60.6493 49.0152 60.9559 49.3217L63.6386 52.0037C64.0219 52.4634 64.635 52.6933 65.2483 52.6933C65.8615 52.6933 66.4746 52.4634 66.8579 51.9271L72.3001 46.4865C72.76 46.1033 72.9899 45.4903 72.9899 44.8773C72.9899 44.2642 72.76 43.7278 72.3001 43.2681L69.6173 40.5861C69.3107 40.2796 68.9275 40.1263 68.5442 40.1263C68.1609 40.1263 67.7777 40.3562 67.4711 40.5861C66.8578 40.0497 66.8578 39.8964 66.8578 39.2834C66.8578 38.9769 66.8578 38.5937 66.7045 38.1339C66.5512 37.0611 66.0146 35.9884 65.1715 35.1454L62.4121 32.3868C60.8024 30.7776 60.036 30.0114 57.9664 29.0919C53.5208 27.0229 48.9984 27.4061 42.4065 30.3946C42.0232 30.5478 41.87 30.8543 41.9466 31.2375C42.0232 31.6207 42.3299 31.8506 42.7131 31.8506H43.7095C47.0821 31.8506 48.845 31.8506 51.911 34.9156C53.2535 36.2578 53.2923 38.3157 52.0894 39.8298C51.9273 39.8542 51.8039 39.9269 51.6811 40.0497L48.2762 43.8489L45.7024 41.2758C42.8735 38.4477 40.8837 35.772 39.3523 32.7925C39.2719 31.2849 38.6668 29.8744 37.5776 28.7855C36.2746 27.4828 34.435 26.8698 32.5954 27.0231C32.3655 27.0997 32.1355 27.253 32.0589 27.4062C31.9056 27.6361 31.9056 27.9426 32.0589 28.1725L34.205 32.0039C33.7451 33.0001 32.672 33.6131 31.599 33.5365L29.3761 29.8583C29.2995 29.6284 28.9928 29.4751 28.7629 29.4751C28.5329 29.3985 28.303 29.5517 28.1497 29.7816C26.3101 32.5402 26.9999 36.2184 29.7593 38.134C30.71 38.8129 31.7811 39.1904 32.8658 39.2678C32.8779 39.2729 32.8893 39.2792 32.9019 39.2834C35.8912 40.816 38.574 42.8083 41.41 45.6436L44.2133 48.3824L27.9198 66.5632C27.3066 67.1762 27 68.0191 27 68.862C27 69.7049 27.3066 70.4712 27.9198 71.0842L28.9929 72.1571C29.6062 72.6934 30.3726 73 31.1391 73C31.9056 73 32.7487 72.6935 33.362 72.0805L49.6369 53.8682L54.364 58.5939C55.9721 60.2016 58.0393 63.0331 60.7948 67.1646C60.8936 68.6394 61.4973 70.0164 62.5655 71.0842C63.7152 72.2337 65.2483 72.8467 66.8579 72.8467C67.0879 72.8467 67.3178 72.8467 67.4711 72.8467C67.7011 72.8467 67.931 72.6934 68.0844 72.4635C68.2377 72.2337 68.2377 71.9272 68.0844 71.6973L65.8615 67.9425C66.398 66.9464 67.3945 66.3334 68.5443 66.41L70.6904 70.0881C70.767 70.318 71.0737 70.4713 71.3037 70.4713C71.6102 70.3947 71.8402 70.318 71.9935 70.0881C73.833 67.3294 73.0664 63.6513 70.3838 61.7356ZM52.9076 33.6897C50.4548 31.3143 48.6152 30.5479 46.5457 30.318C50.9147 28.9387 54.134 29.0153 57.3533 30.4713C59.1929 31.2376 59.8061 31.8506 61.4158 33.4598L64.1751 36.2184C64.7884 36.8315 65.1716 37.5977 65.2483 38.364C65.3249 38.7472 65.3249 39.0536 65.3249 39.2835C65.3249 40.1265 65.4015 40.7394 66.3213 41.659C66.6279 41.9655 67.0878 42.1187 67.4711 42.1187C67.931 42.1187 68.3142 41.9655 68.5442 41.659L71.2269 44.341C71.3803 44.4943 71.4569 44.6475 71.4569 44.8773C71.4569 45.1072 71.3803 45.2605 71.2269 45.4137L65.7848 50.8543C65.4782 51.1608 65.0183 51.1608 64.7117 50.8543L62.0289 48.1723C62.3355 47.9424 62.4888 47.5593 62.4122 47.0995C62.4122 46.7163 62.2588 46.2566 61.9523 45.9501C61.0325 45.0305 60.4192 44.9539 59.5762 44.9539C59.3462 44.9539 59.0396 44.9539 58.6564 44.8773C57.8132 44.8008 57.1233 44.4176 56.5102 43.8045L53.2143 40.5096C54.9005 38.4407 54.7472 35.5288 52.9076 33.6897ZM28.8396 31.8506L30.4492 34.6093C30.6026 34.8391 30.8325 34.9924 31.0625 34.9924H31.4457C33.2087 35.069 34.8184 34.1495 35.5848 32.617L35.7382 32.2338C35.8915 32.0039 35.8915 31.774 35.7382 31.5442L34.0518 28.6323C34.9716 28.7855 35.8148 29.2453 36.5046 29.935C37.2949 30.7908 37.8009 31.8733 37.8308 33.036C37.816 33.095 37.8076 33.1585 37.8076 33.23C37.8076 33.5849 37.7648 33.9311 37.6854 34.2648C37.3963 35.3743 36.703 36.3417 35.7381 36.9849C34.205 37.981 32.1355 37.981 30.6026 36.9083C28.9929 35.7587 28.3031 33.6897 28.8396 31.8506ZM42.4832 44.5709C40.1837 42.1954 37.8842 40.3564 35.4314 38.9004C35.8147 38.7471 36.2746 38.5172 36.6578 38.2873C37.8075 37.5211 38.574 36.5248 39.0339 35.2988C40.4902 37.7509 42.3298 40.0498 44.6293 42.3486L47.262 44.9806L45.1974 47.2844L42.4832 44.5709ZM32.2888 70.931C31.6756 71.544 30.6792 71.6206 30.066 71.0075L28.9928 70.0114C28.6863 69.7049 28.5329 69.3218 28.5329 68.9386C28.5329 68.4788 28.6863 68.0957 29.0695 67.7126L29.5036 67.227L30.6025 68.3256C30.7558 68.4789 30.909 68.5555 31.139 68.5555C31.3689 68.5555 31.5223 68.4789 31.6755 68.3256C31.9821 68.0191 31.9821 67.5594 31.6755 67.2528L30.5164 66.094L31.5294 64.9611L32.7486 66.18C32.902 66.3333 33.0552 66.4099 33.2852 66.4099C33.5151 66.4099 33.6684 66.3333 33.8217 66.18C34.1282 65.8735 34.1282 65.4137 33.8217 65.1072L32.5424 63.8282L52.2582 41.7761L55.4775 44.9944L52.3144 48.5324C52.224 48.5707 52.144 48.6291 52.0645 48.7088L48.9985 52.157C48.9109 52.2446 48.8493 52.3448 48.8118 52.4501L32.2888 70.931ZM50.6857 52.6944L52.7833 50.3471L57.7365 55.2988C59.1162 56.7547 61.4923 58.5938 64.9415 60.8926C64.4816 61.0459 64.0217 61.2758 63.5618 61.5823C62.6109 62.1765 61.9374 63.0015 61.468 63.9135C61.4611 63.9265 61.4547 63.9398 61.4479 63.9529C61.4201 64.0078 61.3929 64.0629 61.3665 64.1184C61.3287 64.197 61.2928 64.2764 61.2584 64.3567C61.2348 64.411 61.2114 64.4654 61.1892 64.5201C61.1861 64.528 61.183 64.5359 61.1799 64.5438C61.1557 64.6037 61.1317 64.6637 61.1091 64.7241C60.6737 64.0857 60.2549 63.4832 59.852 62.9157L60.8791 61.8889C61.1857 61.5824 61.1857 61.1226 60.8791 60.816C60.5726 60.5096 60.1127 60.5096 59.806 60.816L58.9515 61.6703C58.633 61.2382 58.3254 60.8306 58.0286 60.4474L58.733 59.7432C59.0396 59.4367 59.0396 58.977 58.733 58.6704C58.4264 58.3639 57.9665 58.3639 57.6599 58.6704L57.0747 59.2553C56.5114 58.5766 55.9917 57.9989 55.5137 57.521L50.6857 52.6944ZM71.2269 68.0191L69.6172 65.2604C69.4639 65.0306 69.2339 64.8773 69.004 64.8773H68.6207C66.8577 64.724 65.2481 65.7202 64.4816 67.2527L64.3283 67.6359C64.175 67.8658 64.175 68.0957 64.3283 68.3255L66.0146 71.2374C65.0948 71.0841 64.2516 70.6244 63.5617 69.9347C62.7865 69.095 62.2853 68.0373 62.2382 66.8998C62.2513 66.8438 62.2587 66.7836 62.2587 66.7163C62.2587 65.7456 62.5669 64.8368 63.1042 64.0669C63.4343 63.6077 63.8471 63.2057 64.3282 62.885C65.0947 62.3486 65.9378 62.1188 66.8576 62.1188C67.7774 62.1188 68.6972 62.4252 69.4637 62.9617C71.0736 64.111 71.7635 66.18 71.2269 68.0191Z" fill="#7B5302"/>
</svg>
