<?xml version="1.0" encoding="UTF-8" standalone="no"?>
<svg
   xmlns:dc="http://purl.org/dc/elements/1.1/"
   xmlns:cc="http://creativecommons.org/ns#"
   xmlns:rdf="http://www.w3.org/1999/02/22-rdf-syntax-ns#"
   xmlns:svg="http://www.w3.org/2000/svg"
   xmlns="http://www.w3.org/2000/svg"
   xmlns:sodipodi="http://sodipodi.sourceforge.net/DTD/sodipodi-0.dtd"
   xmlns:inkscape="http://www.inkscape.org/namespaces/inkscape"
   inkscape:version="1.0beta1 (32d4812, 2019-09-19)"
   sodipodi:docname="kip (1).svg"
   id="svg22"
   viewBox="0 0 7462.9997 1682.2231"
   style="clip-rule:evenodd;fill-rule:evenodd;image-rendering:optimizeQuality;shape-rendering:geometricPrecision;text-rendering:geometricPrecision"
   version="1.1"
   height="16.822231mm"
   width="74.629997mm"
   xml:space="preserve"><metadata
   id="metadata26">
  <rdf:RDF>
    <cc:Work
       rdf:about="">
      <dc:format>image/svg+xml</dc:format>
      <dc:type
         rdf:resource="http://purl.org/dc/dcmitype/StillImage" />
    </cc:Work>
  </rdf:RDF>
</metadata>
<sodipodi:namedview
   inkscape:current-layer="svg22"
   inkscape:window-maximized="0"
   inkscape:window-y="23"
   inkscape:window-x="0"
   inkscape:cy="46.535737"
   inkscape:cx="126.86747"
   inkscape:zoom="2.3698372"
   showgrid="false"
   id="namedview24"
   inkscape:window-height="786"
   inkscape:window-width="1440"
   inkscape:pageshadow="2"
   inkscape:pageopacity="0"
   guidetolerance="10"
   gridtolerance="10"
   objecttolerance="10"
   borderopacity="1"
   inkscape:document-rotation="0"
   bordercolor="#666666"
   pagecolor="#ffffff" />

 <defs
   id="defs12">
  <style
   id="style10"
   type="text/css">
   <![CDATA[
    .fil2 {fill:#AFCB21}
    .fil0 {fill:#51628D;fill-rule:nonzero}
    .fil1 {fill:#AFCB21;fill-rule:nonzero}
   ]]>
  </style>

 </defs>

 <g
   transform="translate(0,-30.77686)"
   id="Слой_x0020_1">
  <metadata
   id="CorelCorpID_0Corel-Layer" />

  <path
   inkscape:connector-curvature="0"
   id="path15"
   d="M 0,37 H 379 V 616 L 912,37 h 452 l -688,748 755,928 H 986 L 379,966 v 747 H 0 Z m 3065,0 V 1713 H 2692 V 663 L 1950,1713 H 1627 V 37 h 373 V 1120 L 2754,37 Z m 378,0 H 4862 V 1713 H 4483 V 335 h -659 v 1378 h -381 z"
   class="fil0" />

  <path
   inkscape:connector-curvature="0"
   id="path17"
   d="m 7047,70 h 416 v 1598 h -416 v -73 c -81,74 -129,72 -217,94 -85,21 -199,18 -294,18 -215,0 -401,-80 -558,-240 -157,-159 -235,-358 -235,-595 0,-246 76,-448 228,-605 152,-157 336,-236 552,-236 100,0 171,-3 264,13 97,17 186,33 260,104 z m -438,328 c -129,0 -237,44 -322,131 -85,88 -128,200 -128,337 0,138 43,251 130,340 87,89 194,134 321,134 131,0 240,-44 326,-132 87,-87 130,-202 130,-344 0,-138 -43,-251 -130,-337 -86,-86 -195,-129 -327,-129 z"
   class="fil1" />

  <path
   inkscape:connector-curvature="0"
   id="path19"
   d="m 5294,656 c 117,0 212,95 212,212 0,117 -95,212 -212,212 -118,0 -213,-95 -213,-212 0,-117 95,-212 213,-212 z"
   class="fil2" />

 </g>

</svg>
