<svg width="102" height="102" viewBox="0 0 102 102" fill="none" xmlns="http://www.w3.org/2000/svg">
<path d="M84.442 102C84.1814 101.929 83.9311 101.847 83.6553 101.786C81.7045 101.379 79.9141 100.417 78.5009 99.0163C68.4066 88.9655 58.3141 78.913 48.2232 68.8588C46.6907 67.3568 46.6907 65.5034 48.2232 63.9963C48.8107 63.4057 49.4339 62.8507 49.9601 62.3517C38.9565 51.3488 28.0245 40.4273 16.8626 29.2563C16.4928 29.7661 16.0937 30.254 15.6672 30.7176C14.058 32.3113 11.887 32.1687 10.5588 30.3561C7.30299 25.9875 4.06765 21.6071 0.852746 17.2147C0.319881 16.574 0.058152 15.7518 0.122991 14.9221C0.187831 14.0924 0.574147 13.3205 1.20012 12.7697C3.0051 10.9537 4.81859 9.14622 6.6406 7.34719C7.20052 6.70972 7.98944 6.3172 8.83714 6.25433C9.68484 6.19146 10.5234 6.46328 11.1718 7.01115C15.531 10.1951 19.8833 13.3875 24.2289 16.5884C26.1752 18.0192 26.3183 20.1526 24.5967 21.8633C24.1881 22.2758 23.7334 22.6424 23.3809 22.9529L56.3916 55.9567C56.8718 55.4475 57.3724 54.8925 57.9241 54.363C59.4873 52.8355 61.3519 52.8355 62.9202 54.363L88.355 79.6835C89.8876 81.211 91.3945 82.7029 92.9066 84.2201C95.8746 87.1987 96.9065 90.7476 95.6499 94.7547C94.3932 98.7617 91.5631 101.063 87.4764 101.842C87.3759 101.877 87.2799 101.923 87.1903 101.98L84.442 102Z" fill="#45B5CD"/>
<path d="M102 27.3317C101.846 28.0293 101.688 28.7268 101.535 29.4244C100.268 35.1618 96.9441 40.2413 92.1869 43.7098C87.4297 47.1783 81.5662 48.7974 75.6964 48.2633C73.9564 48.0555 72.2349 47.715 70.5471 47.245C70.311 47.1507 70.0507 47.1349 69.8049 47.2001C69.5592 47.2652 69.3411 47.4078 69.1832 47.6065C68.2994 48.5637 67.3646 49.4751 66.4348 50.4221C65.8474 49.9995 65.3621 49.5973 64.8206 49.2714C63.6841 48.5574 62.3926 48.1251 61.054 48.0108C59.7155 47.8965 58.369 48.1036 57.1273 48.6146C56.9783 48.6759 56.8175 48.7032 56.6566 48.6944C56.4957 48.6856 56.3388 48.6409 56.1975 48.5637C53.3317 45.7735 50.5068 42.9375 47.457 39.8825C47.7436 39.7422 48.0142 39.5715 48.2642 39.3734C50.3075 37.3367 52.3509 35.3001 54.43 33.2634C54.6621 33.0929 54.8279 32.8478 54.8996 32.5695C54.9713 32.2912 54.9443 31.9968 54.8234 31.736C50.614 19.3125 57.3776 5.5855 69.8422 1.39003C71.7987 0.779034 73.9034 0.565187 75.9467 0.168042L76.5853 0.0203857H78.9249C79.7219 0.127309 80.5137 0.254599 81.3157 0.330973C82.3374 0.432805 83.1292 0.840133 83.4766 1.85845C83.8239 2.87677 83.405 3.67106 82.6796 4.40425C81.05 6.00301 79.4153 7.59669 77.8317 9.23618C75.1447 12.0213 74.1332 15.3461 75.0119 19.119C75.4297 20.9409 76.3233 22.6204 77.6023 23.9872C78.8812 25.354 80.5 26.3595 82.2944 26.9017C84.0889 27.444 85.9953 27.5037 87.8204 27.0749C89.6455 26.6461 91.3245 25.744 92.687 24.4601C94.4954 22.7747 96.2067 20.9825 97.9641 19.2361C98.2522 18.9109 98.6322 18.68 99.0542 18.5737C99.4763 18.4674 99.9207 18.4907 100.329 18.6404C100.738 18.7752 101.098 19.0264 101.365 19.3631C101.632 19.6997 101.794 20.107 101.831 20.5344C101.875 20.7445 101.932 20.9519 102 21.1556V27.3317Z" fill="#128093"/>
<path d="M0 90.4981C0.16347 89.8565 0.306506 89.2099 0.510843 88.5785C0.974218 87.0572 1.80779 85.6737 2.93735 84.5511C13.2053 74.317 23.4732 64.0897 33.7412 53.8691C33.8178 53.7927 33.9097 53.7316 34.1652 53.5229C34.6403 54.032 35.0847 54.6227 35.5904 55.1267C37.8483 57.3942 40.1148 59.6515 42.3897 61.8986C42.6707 62.1786 42.9006 62.4077 42.6809 62.8812C41.2659 66.2366 41.7256 69.3272 44.1011 72.1123C44.2006 72.2411 44.2927 72.3753 44.3769 72.5145C44.1255 72.6863 43.8849 72.8733 43.6566 73.0746C35.5904 81.1244 27.4629 89.1335 19.4274 97.2292C17.1694 99.5 14.8298 101.516 11.5348 102H9.02659C8.81715 101.939 8.61281 101.873 8.40337 101.822C4.36771 100.915 1.69089 98.5224 0.424 94.5917C0.255421 94.0826 0.137928 93.5327 0 92.998V90.4981Z" fill="#128093"/>
<path d="M0 92.998C0.137928 93.5327 0.255421 94.0673 0.424 94.5917C1.69089 98.5224 4.36771 100.915 8.40337 101.822C8.61281 101.873 8.81715 101.939 9.02659 102H0V92.998Z" fill="white"/>
</svg>
